<?xml version="1.0" encoding="UTF-8"?>
<svg id="Camada_2" data-name="Camada 2" xmlns="http://www.w3.org/2000/svg" viewBox="0 0 103.19 110.6">
  <defs>
    <style>
      .cls-1 {
        fill: #fff;
      }

      .cls-2 {
        fill: #038183;
      }

      .cls-3 {
        fill: #a4c8cc;
      }

      .cls-4 {
        fill: none;
        stroke: #c9e6d6;
        stroke-miterlimit: 10;
      }
    </style>
  </defs>
  <g id="Layer_1" data-name="Layer 1">
    <g>
      <polygon class="cls-3" points="64.66 34.06 24.81 34.06 4.89 68.57 24.81 103.08 64.66 103.08 84.59 68.57 64.66 34.06"/>
      <polygon class="cls-3" points="79.62 7.01 39.77 7.01 19.85 41.52 39.77 76.03 79.62 76.03 99.55 41.52 79.62 7.01"/>
      <polygon class="cls-2" points="77.55 10.75 26.4 10.75 .83 55.05 26.4 99.34 77.55 99.34 103.12 55.05 77.55 10.75"/>
      <line class="cls-4" x1="93.97" y1="55.33" x2="73.54" y2="19.96"/>
      <line class="cls-4" x1="12.28" y1="55.33" x2="32.7" y2="90.7"/>
      <polygon class="cls-2" points="61.71 0 59.32 0 58.59 1.26 21.44 1.26 2.9 33.38 1.19 33.38 0 35.45 1.19 37.52 3.58 37.52 4.78 35.45 3.91 33.94 22.11 2.42 58.33 2.42 59.32 4.14 61.71 4.14 62.9 2.07 61.71 0"/>
      <polygon class="cls-2" points="103.19 75.16 101.99 73.09 99.61 73.09 98.41 75.16 99.28 76.66 81.08 108.19 44.86 108.19 43.87 106.47 41.48 106.47 40.29 108.54 41.48 110.6 43.87 110.6 44.6 109.34 81.74 109.34 100.29 77.23 101.99 77.23 103.19 75.16"/>
      <path class="cls-1" d="m48.25,60.22c0,4.86-.01,9.54,0,14.22.01,3.22,1.85,5.14,4.85,5.13,3,0,4.8-1.93,4.82-5.17.02-4.18,0-8.37,0-12.55,0-.53,0-1.06,0-1.63,4.98,0,9.71.02,14.45,0,3-.02,4.88-1.89,4.9-4.78.02-2.96-1.87-4.86-4.94-4.88-4.23-.03-8.47,0-12.7,0-.53,0-1.07,0-1.71,0,0-4.87.01-9.55,0-14.23-.01-3.22-1.85-5.14-4.86-5.13-3,0-4.8,1.93-4.81,5.17-.01,4.18,0,8.37,0,12.55,0,.53,0,1.06,0,1.63-4.98,0-9.71-.02-14.45,0-3,.02-4.88,1.89-4.9,4.77-.02,2.96,1.87,4.87,4.94,4.89,4.73.03,9.46,0,14.41,0Z"/>
    </g>
  </g>
</svg>