<?xml version="1.0" encoding="UTF-8"?>
<svg id="Camada_2" data-name="Camada 2" xmlns="http://www.w3.org/2000/svg" viewBox="0 0 54.43 54.72">
  <defs>
    <style>
      .cls-1 {
        fill: #fff;
      }

      .cls-2 {
        fill: #096798;
      }

      .cls-3 {
        fill: #013f57;
      }
    </style>
  </defs>
  <g id="Layer_1" data-name="Layer 1">
    <g>
      <g>
        <polygon class="cls-1" points="49.14 14.78 49.14 39.95 27.34 52.54 5.54 39.95 5.54 14.78 27.34 2.19 49.14 14.78"/>
        <path class="cls-2" d="m27.34,54.72L3.65,41.04V13.68L27.34,0l23.69,13.68v27.36l-23.69,13.68Zm-19.9-15.87l19.9,11.49,19.9-11.49V15.87L27.34,4.38,7.44,15.87v22.98Z"/>
      </g>
      <g>
        <line class="cls-2" x1="27.2" y1="48.03" x2="44.61" y2="37.98"/>
        <rect class="cls-2" x="25.86" y="42.62" width="20.1" height=".76" transform="translate(-16.69 23.71) rotate(-29.99)"/>
      </g>
      <g>
        <line class="cls-2" x1="27.2" y1="7.83" x2="9.79" y2="17.88"/>
        <rect class="cls-2" x="8.45" y="12.47" width="20.1" height=".76" transform="translate(-3.95 10.97) rotate(-29.99)"/>
      </g>
      <polygon class="cls-2" points="54.43 32.15 54.43 30.98 53.81 30.62 53.81 12.34 38.01 3.21 38.01 2.37 36.99 1.78 35.97 2.37 35.97 3.55 36.99 4.13 37.73 3.71 53.25 12.66 53.25 30.49 52.4 30.98 52.4 32.15 53.42 32.74 54.43 32.15"/>
      <polygon class="cls-2" points="17.45 52.57 18.46 51.98 18.46 50.8 17.45 50.22 16.7 50.64 1.19 41.69 1.19 23.86 2.04 23.37 2.04 22.2 1.02 21.61 0 22.2 0 23.37 .62 23.73 .62 42.01 16.43 51.14 16.43 51.98 17.45 52.57"/>
      <g>
        <path class="cls-3" d="m34.86,21.64c2.3,4.03,1.18,8.97-2.64,11.62-.11.08-.15.16-.14.29,0,.87,0,1.74,0,2.61,0,1.94-1.09,3.76-2.86,4.56-2.53,1.13-5.01-.14-6.07-2.1-.4-.74-.6-1.52-.6-2.36,0-.41,0-.81,0-1.21,0-.5,0-1.01,0-1.51,0-.12-.03-.2-.14-.28-1.83-1.26-3.04-2.95-3.56-5.07-.69-2.81.06-5.82,1.97-7.99,1.43-1.63,3.26-2.54,5.39-2.84,3.39-.48,6.94,1.28,8.65,4.27Zm-3.5,10.28c2.44-1.66,3.61-4.74,2.89-7.59-.94-3.73-4.54-6.02-8.33-5.29-4.25.82-6.82,5.43-5.28,9.48.56,1.46,1.48,2.63,2.78,3.5.45.3.72.82.71,1.37,0,.25,0,.51,0,.78,0,0,0,0,0,0h3.99s2.35,0,2.35,0c0,0,0,0,0,0,0-.2.01-.4,0-.59-.03-.66.32-1.28.87-1.65Z"/>
        <path class="cls-1" d="m34.24,24.33c.72,2.85-.44,5.93-2.89,7.59-.55.37-.9.99-.87,1.65,0,.19,0,.39,0,.59,0,0,0,0,0,0h-3.99s-2.35,0-2.35,0c0,0,0,0,0,0,0-.27,0-.52,0-.78,0-.55-.26-1.06-.71-1.37-1.3-.86-2.23-2.03-2.78-3.5-1.54-4.05,1.03-8.66,5.28-9.48,3.78-.73,7.39,1.56,8.33,5.29Z"/>
      </g>
      <path class="cls-3" d="m34,15.47c0,.31,0,.61,0,.91,0,.21.12.33.31.33.19,0,.31-.12.31-.33,0-.27,0-.54,0-.8,0-.03,0-.07,0-.1.32,0,.62,0,.93,0,.19,0,.31-.12.31-.31,0-.19-.12-.31-.32-.31-.27,0-.54,0-.81,0-.03,0-.07,0-.11,0,0-.31,0-.61,0-.91,0-.21-.12-.33-.31-.33-.19,0-.31.12-.31.33,0,.27,0,.54,0,.8,0,.03,0,.07,0,.1-.32,0-.62,0-.93,0-.19,0-.31.12-.31.31,0,.19.12.31.32.31.3,0,.61,0,.92,0Z"/>
      <path class="cls-3" d="m38.14,19.26c0,.71,0,1.39,0,2.08,0,.47.27.75.71.75.44,0,.7-.28.7-.75,0-.61,0-1.22,0-1.83,0-.08,0-.15,0-.24.73,0,1.42,0,2.11,0,.44,0,.71-.28.72-.7,0-.43-.27-.71-.72-.71-.62,0-1.24,0-1.85,0-.08,0-.16,0-.25,0,0-.71,0-1.39,0-2.08,0-.47-.27-.75-.71-.75-.44,0-.7.28-.7.75,0,.61,0,1.22,0,1.83,0,.08,0,.15,0,.24-.73,0-1.42,0-2.11,0-.44,0-.71.28-.72.7,0,.43.27.71.72.71.69,0,1.38,0,2.1,0Z"/>
    </g>
  </g>
</svg>