<?xml version="1.0" encoding="UTF-8"?>
<svg id="Camada_2" data-name="Camada 2" xmlns="http://www.w3.org/2000/svg" viewBox="0 0 146.11 143.9">
  <defs>
    <style>
      .cls-1 {
        fill: #008662;
      }

      .cls-2 {
        fill: #fff;
      }
    </style>
  </defs>
  <g id="Layer_1" data-name="Layer 1">
    <g>
      <path class="cls-1" d="m18.68,103.53v-63.17l54.71-31.59,54.71,31.59v63.17l-54.71,31.59-54.71-31.59ZM73.39,0L11.08,35.97v71.95l62.31,35.98,62.32-35.98V35.97L73.39,0Z"/>
      <polygon class="cls-2" points="128.1 40.36 128.1 103.53 73.39 135.12 18.68 103.53 18.68 40.36 73.39 8.77 128.1 40.36"/>
      <polygon class="cls-1" points="146.11 84.8 146.11 81.65 144.43 80.68 144.43 31.62 102.01 7.12 102.01 4.87 99.28 3.29 96.55 4.87 96.55 8.02 99.28 9.6 101.27 8.45 142.91 32.49 142.91 80.34 140.64 81.65 140.64 84.8 143.37 86.38 146.11 84.8"/>
      <polygon class="cls-1" points="0 58.08 0 61.23 1.67 62.2 1.67 111.27 44.09 135.76 44.09 138.02 46.83 139.6 49.56 138.02 49.56 134.86 46.83 133.29 44.83 134.44 3.19 110.39 3.19 62.55 5.47 61.23 5.47 58.08 2.73 56.5 0 58.08"/>
      <path class="cls-1" d="m92.63,96.76c.03-16.02.22-32.03.32-48.05,0-1.06-.21-2.16-.57-3.14-.21-.56-.95-.93-1.68-1.59-.76,2.49.27,4.18-3.4,3.63-3.76-.56-1.92-2.27-2.68-4.63-.62-.07-1.38-.14-2.09-.22-.81,2.22.67,4.04-2.9,4.07-3.88.04-2.57-2.04-3.37-4.35-.83.03-1.6.05-2.3.08-.97,2.08,1.07,3.93-2.82,4.03-4.01.1-2.18-2.06-3.38-4.01-.79-.04-1.57-.07-2.32-.11-.96,2.23,1.03,4.29-3.02,4.45-3.98.15-2.3-1.95-3.33-4.04-.87.11-1.71.21-2.45.29-.79,2.32.79,3.89-2.63,4.45-3.38.56-2.92-1.09-4.24-3.06-.75,1.37-1.32,2.77-1.32,4.17,0,14.5,0,29,.21,43.49.12,8.09.39,9.68,23.7,9.91,8.7-.27,10.99-.66,16.46-1.09,2.7-.21,3.8-1.47,3.81-4.28m4.74,1.79c.02,4.86-.32,5.42-5.15,6.14-6.39.87-12.83,1.35-19.28,1.7-7.25-.27-29.13,2.24-28.8-6.5-.03-14.05-.57-28.17-.75-42.21-.15-11.63-1.58-17.89,5.08-18.16,1.54-.13,2.39-.71,2.31-2.51-.31-4.68,6.29-4.33,5.74,1.23.89.04,1.74.1,2.65.15.86-2.2-.69-5.56,3.15-5.53,3.4.02,2.44,2.98,3.11,5.2.84-.03,1.69-.06,2.48-.08,1.12-2.13-1.06-5.8,3.17-5.69,3.98.1,1.85,3.58,2.98,5.73.63.04,1.4.09,2.32.15.39-2.28.24-6.04,2.99-5.5.93.04,1.88-.09,2.63.86.8,1.71-.87,5.95,2.63,4.81.8-1.81-.54-4.95,3.19-4.65,3.61.28,2.2,3.1,2.67,5.15,6.62,2.15,6.55.24,6.4,7.65.36,17.36.4,34.71.48,52.07"/>
      <path class="cls-1" d="m59.4,118.57h-.49c-2.7,0-4.89-2.19-4.89-4.89v-43.91h10.27v43.91c0,2.7-2.19,4.89-4.89,4.89"/>
      <polygon class="cls-1" points="59.16 54.85 61.72 61.56 64.29 68.28 59.16 68.28 54.02 68.28 56.59 61.56 59.16 54.85"/>
      <path class="cls-2" d="m59.15,116.48h-.11c-.58,0-1.05-.47-1.05-1.05v-43.02h2.21v43.02c0,.58-.47,1.05-1.05,1.05"/>
      <path class="cls-1" d="m114.26,72.45c0,11.11-9,20.11-20.11,20.11s-20.11-9-20.11-20.11,9-20.11,20.11-20.11,20.11,9,20.11,20.11"/>
      <path class="cls-2" d="m91.54,75.07c0,2.63,0,5.16,0,7.7,0,1.74,1,2.78,2.63,2.78,1.62,0,2.6-1.04,2.61-2.8,0-2.27,0-4.53,0-6.79v-.89c2.69,0,5.26.01,7.82,0,1.62-.01,2.64-1.02,2.65-2.58.01-1.6-1.01-2.63-2.67-2.64-2.29-.02-4.58,0-6.87,0h-.92c0-2.63,0-5.16,0-7.7,0-1.74-1-2.78-2.63-2.77-1.62,0-2.6,1.04-2.6,2.8,0,2.26,0,4.53,0,6.79v.89c-2.69,0-5.25-.01-7.82,0-1.62.01-2.64,1.02-2.65,2.58-.01,1.6,1.01,2.64,2.67,2.65,2.56.02,5.12,0,7.8,0"/>
    </g>
  </g>
</svg>