<?xml version="1.0" encoding="UTF-8"?>
<svg id="Layer_1" data-name="Layer 1" xmlns="http://www.w3.org/2000/svg" xmlns:xlink="http://www.w3.org/1999/xlink" viewBox="0 0 1247.65 1537.41">
  <defs>
    <style>
      .cls-1 {
        fill: #2dabe2;
      }

      .cls-2 {
        fill: url(#linear-gradient-2);
      }

      .cls-3 {
        fill: #d6d6d6;
      }

      .cls-4 {
        fill: #3a3435;
      }

      .cls-5 {
        fill: #2a96bc;
      }

      .cls-6 {
        fill: url(#linear-gradient-3);
      }

      .cls-7 {
        fill: url(#linear-gradient);
      }

      .cls-8 {
        fill: #231f20;
      }

      .cls-9 {
        fill: url(#linear-gradient-4);
      }
    </style>
    <linearGradient id="linear-gradient" x1="49.34" y1="106.18" x2="1193.22" y2="1115.97" gradientUnits="userSpaceOnUse">
      <stop offset="0" stop-color="#fcd626"/>
      <stop offset=".36" stop-color="#fcdf5a"/>
      <stop offset=".72" stop-color="#fce88a"/>
      <stop offset=".72" stop-color="#fce785"/>
      <stop offset=".82" stop-color="#fcdd52"/>
      <stop offset=".89" stop-color="#fcd832"/>
      <stop offset=".92" stop-color="#fcd626"/>
    </linearGradient>
    <linearGradient id="linear-gradient-2" x1="49.34" y1="135.88" x2="1193.22" y2="1145.67" xlink:href="#linear-gradient"/>
    <linearGradient id="linear-gradient-3" x1="49.34" y1="165.58" x2="1193.22" y2="1175.36" xlink:href="#linear-gradient"/>
    <linearGradient id="linear-gradient-4" x1="49.34" y1="195.28" x2="1193.22" y2="1205.06" gradientUnits="userSpaceOnUse">
      <stop offset="0" stop-color="#fcd626"/>
      <stop offset=".36" stop-color="#fcdf5a"/>
      <stop offset=".72" stop-color="#fce88a"/>
      <stop offset=".72" stop-color="#fce785"/>
      <stop offset=".82" stop-color="#fcdd52"/>
      <stop offset=".89" stop-color="#fcd832"/>
      <stop offset=".92" stop-color="#fcd626"/>
    </linearGradient>
  </defs>
  <path class="cls-3" d="m1108.78,547.66c.05-114.44-.43-223.12-1.94-298.66-.09-4.55-.16-9.51-.22-14.76.19-29.16.47-51.55.47-51.55h-.3c.15-17.77.3-29.7.3-29.7h-.3c.15-17.77.3-29.7.3-29.7h-.3c.15-17.77.3-29.7.3-29.7l-997.89.17.36,29.7h-.36s.36,29.7.36,29.7h-.36s.36,29.7.36,29.7h-.36s12.42,1032.48,12.42,1032.48c0,0,399.17,18.17,530.09,16.93,130.92-1.24,454.67-72.33,454.67-72.33.42-78.99,2.5-331.5,2.4-552.88,0-9.95,0-19.85,0-29.7,0-9.95,0-19.85,0-29.7Z"/>
  <path class="cls-7" d="m84.18,66.71l997.89-.17s-1.28,103.69-.25,155.41c4.34,216.64.16,705.95-.46,821.83,0,0-323.75,71.09-454.67,72.33-130.92,1.24-530.09-16.93-530.09-16.93L84.18,66.71Z"/>
  <path class="cls-2" d="m84.18,96.41l997.89-.17s-1.28,103.69-.25,155.41c4.34,216.64.16,705.95-.46,821.83,0,0-323.75,71.09-454.67,72.33-130.92,1.24-530.09-16.93-530.09-16.93L84.18,96.41Z"/>
  <path class="cls-6" d="m84.18,126.11l997.89-.17s-1.28,103.69-.25,155.41c4.34,216.64.16,705.95-.46,821.83,0,0-323.75,71.09-454.67,72.33-130.92,1.24-530.09-16.93-530.09-16.93L84.18,126.11Z"/>
  <path class="cls-9" d="m84.18,155.81l997.89-.17s-1.28,103.69-.25,155.41c4.34,216.64.16,705.95-.46,821.83,0,0-323.75,71.09-454.67,72.33-130.92,1.24-530.09-16.93-530.09-16.93l-12.42-1032.48Z"/>
  <g>
    <path class="cls-4" d="m561.44,277.72s-.01,5.51-4.04,8.59c-4.03,3.08-9.1,0-9.1,0l-36.44-49.1,17.7-10.77,31.88,51.28Z"/>
    <g>
      <path class="cls-1" d="m527.58,247.98c-30.31,15.86-64.31,11.99-80.89-7.76.71,3.38,1.87,6.65,3.5,9.78,12.96,24.78,50.9,30.51,84.73,12.81,33.83-17.7,50.75-52.14,37.78-76.91-1.34-2.56-3-4.87-4.84-7.02,5.53,24.52-10.69,53.62-40.27,69.09Z"/>
      <path class="cls-5" d="m527.58,247.98c29.58-15.48,45.8-44.57,40.27-69.09-15.97-18.65-49.55-21.67-79.88-5.8-29.57,15.47-46.21,43.72-41.28,67.14,16.58,19.74,50.58,23.61,80.89,7.76Z"/>
    </g>
    <path class="cls-1" d="m429.43,136.37s20.65,18.24,36.21,71.68c0,0,15.5,16.56,41.26,1.98,25.08-14.19,19.68-34.92,19.68-34.92,0,0-41.53-46.89-42.19-73.49,0,0-45.74,10.67-54.96,34.74Z"/>
    <path class="cls-1" d="m498.95,89.9c9.27,17.72-3.44,42.66-28.39,55.72-24.95,13.05-52.69,9.27-61.96-8.45-9.27-17.72,3.44-42.66,28.39-55.72,24.95-13.05,52.69-9.27,61.96,8.45Z"/>
    <path class="cls-5" d="m498.33,88.58c7.52,14.38-6.6,36.62-31.55,49.67-24.95,13.05-51.27,11.98-58.8-2.4-7.52-14.38,4.06-41.34,29.01-54.4,24.95-13.05,53.82-7.25,61.34,7.13Z"/>
    <path class="cls-1" d="m483.9,80.11c5.04,9.64-10.33,27.28-28.23,36.64-17.89,9.36-41.35,11.21-46.39,1.58-5.04-9.64,8.96-26.16,26.86-35.52,17.89-9.36,42.72-12.34,47.76-2.7Z"/>
  </g>
  <g>
    <path class="cls-8" d="m244.32,601.22c0-15.32,11.76-26.29,27.59-26.29,8.79,0,16.12,3.2,20.91,9l-7.55,6.97c-3.41-3.92-7.7-5.95-12.78-5.95-9.51,0-16.27,6.68-16.27,16.27s6.75,16.27,16.27,16.27c5.08,0,9.37-2.03,12.78-6.03l7.55,6.97c-4.79,5.88-12.13,9.08-20.99,9.08-15.76,0-27.52-10.96-27.52-26.29Z"/>
    <path class="cls-8" d="m296.46,601.22c0-15.1,11.76-26.29,27.81-26.29s27.81,11.11,27.81,26.29-11.84,26.29-27.81,26.29-27.81-11.18-27.81-26.29Zm43.71,0c0-9.66-6.83-16.27-15.9-16.27s-15.9,6.61-15.9,16.27,6.83,16.27,15.9,16.27,15.9-6.61,15.9-16.27Z"/>
    <path class="cls-8" d="m407.57,575.81v50.83h-9.66l-25.34-30.86v30.86h-11.62v-50.83h9.73l25.27,30.86v-30.86h11.62Z"/>
    <path class="cls-8" d="m466.25,575.81v50.83h-11.76v-20.84h-23.09v20.84h-11.76v-50.83h11.76v20.04h23.09v-20.04h11.76Z"/>
    <path class="cls-8" d="m517.67,617.2v9.44h-39.36v-50.83h38.41v9.44h-26.72v11.04h23.6v9.15h-23.6v11.76h27.67Z"/>
    <path class="cls-8" d="m523.7,601.22c0-15.32,11.76-26.29,27.59-26.29,8.79,0,16.12,3.2,20.91,9l-7.55,6.97c-3.41-3.92-7.7-5.95-12.78-5.95-9.51,0-16.27,6.68-16.27,16.27s6.75,16.27,16.27,16.27c5.08,0,9.37-2.03,12.78-6.03l7.55,6.97c-4.79,5.88-12.13,9.08-20.99,9.08-15.76,0-27.52-10.96-27.52-26.29Z"/>
    <path class="cls-8" d="m580.12,575.81h11.76v50.83h-11.76v-50.83Z"/>
    <path class="cls-8" d="m650.2,626.64l-.07-30.5-14.96,25.12h-5.3l-14.89-24.47v29.85h-11.04v-50.83h9.73l19.03,31.59,18.74-31.59h9.66l.14,50.83h-11.04Z"/>
    <path class="cls-8" d="m712.66,617.2v9.44h-39.36v-50.83h38.41v9.44h-26.72v11.04h23.6v9.15h-23.6v11.76h27.67Z"/>
    <path class="cls-8" d="m768.65,575.81v50.83h-9.66l-25.34-30.86v30.86h-11.62v-50.83h9.73l25.27,30.86v-30.86h11.62Z"/>
    <path class="cls-8" d="m791.23,585.39h-16.27v-9.59h44.3v9.59h-16.27v41.25h-11.76v-41.25Z"/>
    <path class="cls-8" d="m821.66,601.22c0-15.1,11.76-26.29,27.81-26.29s27.81,11.11,27.81,26.29-11.84,26.29-27.81,26.29-27.81-11.18-27.81-26.29Zm43.71,0c0-9.66-6.83-16.27-15.9-16.27s-15.9,6.61-15.9,16.27,6.83,16.27,15.9,16.27,15.9-6.61,15.9-16.27Z"/>
    <path class="cls-8" d="m882.16,621.63l3.99-8.86c4.28,3.12,10.67,5.3,16.77,5.3,6.97,0,9.8-2.32,9.8-5.45,0-9.51-29.55-2.98-29.55-21.86,0-8.64,6.97-15.83,21.42-15.83,6.39,0,12.93,1.53,17.65,4.5l-3.63,8.93c-4.72-2.69-9.58-3.99-14.09-3.99-6.97,0-9.66,2.61-9.66,5.81,0,9.37,29.55,2.9,29.55,21.57,0,8.5-7.04,15.76-21.57,15.76-8.06,0-16.19-2.4-20.7-5.88Z"/>
    <path class="cls-8" d="m180.96,708.78l3.99-8.86c4.28,3.12,10.67,5.3,16.77,5.3,6.97,0,9.8-2.32,9.8-5.45,0-9.51-29.55-2.98-29.55-21.86,0-8.64,6.97-15.83,21.42-15.83,6.39,0,12.93,1.53,17.65,4.5l-3.63,8.93c-4.72-2.69-9.58-3.99-14.09-3.99-6.97,0-9.66,2.61-9.66,5.81,0,9.37,29.55,2.9,29.55,21.57,0,8.5-7.04,15.76-21.57,15.76-8.06,0-16.19-2.4-20.7-5.88Z"/>
    <path class="cls-8" d="m270.65,704.35v9.44h-39.36v-50.83h38.41v9.44h-26.72v11.04h23.6v9.15h-23.6v11.76h27.67Z"/>
    <path class="cls-8" d="m290.55,672.54h-16.27v-9.59h44.3v9.59h-16.27v41.25h-11.76v-41.25Z"/>
    <path class="cls-8" d="m320.98,688.37c0-15.1,11.76-26.29,27.81-26.29s27.81,11.11,27.81,26.29-11.84,26.29-27.81,26.29-27.81-11.18-27.81-26.29Zm43.71,0c0-9.66-6.83-16.27-15.9-16.27s-15.9,6.61-15.9,16.27,6.83,16.27,15.9,16.27,15.9-6.61,15.9-16.27Z"/>
    <path class="cls-8" d="m417.85,713.79l-9.8-14.16h-10.82v14.16h-11.76v-50.83h22c13.58,0,22.08,7.04,22.08,18.45,0,7.62-3.85,13.22-10.46,16.05l11.4,16.34h-12.64Zm-11.04-41.25h-9.58v17.72h9.58c7.19,0,10.82-3.34,10.82-8.86s-3.63-8.86-10.82-8.86Z"/>
    <path class="cls-8" d="m438.84,662.95h11.76v50.83h-11.76v-50.83Z"/>
    <path class="cls-8" d="m496.14,702.89h-23.6l-4.5,10.89h-12.05l22.66-50.83h11.62l22.73,50.83h-12.34l-4.5-10.89Zm-3.7-8.93l-8.06-19.46-8.06,19.46h16.12Z"/>
    <path class="cls-8" d="m518.29,662.95h11.76v50.83h-11.76v-50.83Z"/>
    <path class="cls-8" d="m538.11,708.78l3.99-8.86c4.28,3.12,10.67,5.3,16.77,5.3,6.97,0,9.8-2.32,9.8-5.45,0-9.51-29.55-2.98-29.55-21.86,0-8.64,6.97-15.83,21.42-15.83,6.39,0,12.93,1.53,17.65,4.5l-3.63,8.93c-4.72-2.69-9.58-3.99-14.09-3.99-6.97,0-9.66,2.61-9.66,5.81,0,9.37,29.55,2.9,29.55,21.57,0,8.5-7.04,15.76-21.57,15.76-8.06,0-16.19-2.4-20.7-5.88Z"/>
    <path class="cls-8" d="m608.99,689.02c0-13.36,3.27-25.34,9.08-33.98h10.82c-6.17,10.89-8.79,21.79-8.79,33.98s2.61,23.09,8.79,33.99h-10.82c-5.81-8.79-9.08-20.62-9.08-33.99Z"/>
    <path class="cls-8" d="m680.45,681.4c0,11.33-8.5,18.37-22.08,18.37h-10.24v14.01h-11.76v-50.83h22c13.58,0,22.08,7.04,22.08,18.45Zm-11.91,0c0-5.59-3.63-8.86-10.82-8.86h-9.58v17.65h9.58c7.19,0,10.82-3.27,10.82-8.79Z"/>
    <path class="cls-8" d="m686.33,688.37c0-15.1,11.76-26.29,27.81-26.29s27.81,11.11,27.81,26.29-11.84,26.29-27.81,26.29-27.81-11.18-27.81-26.29Zm43.71,0c0-9.66-6.83-16.27-15.9-16.27s-15.9,6.61-15.9,16.27,6.83,16.27,15.9,16.27,15.9-6.61,15.9-16.27Z"/>
    <path class="cls-8" d="m750.82,662.95h11.76v41.25h25.49v9.58h-37.25v-50.83Z"/>
    <path class="cls-8" d="m803.76,648.36h12.2l-13.14,10.46h-8.86l9.8-10.46Zm-9.08,14.6h11.76v50.83h-11.76v-50.83Z"/>
    <path class="cls-8" d="m829.03,672.54h-16.27v-9.59h44.3v9.59h-16.27v41.25h-11.76v-41.25Z"/>
    <path class="cls-8" d="m863.38,662.95h11.76v50.83h-11.76v-50.83Z"/>
    <path class="cls-8" d="m884.01,688.37c0-15.32,11.76-26.29,27.59-26.29,8.79,0,16.12,3.2,20.91,9l-7.55,6.97c-3.41-3.92-7.7-5.95-12.78-5.95-9.51,0-16.27,6.68-16.27,16.27s6.75,16.27,16.27,16.27c5.08,0,9.37-2.03,12.78-6.03l7.55,6.97c-4.79,5.88-12.13,9.08-20.99,9.08-15.76,0-27.52-10.96-27.52-26.29Z"/>
    <path class="cls-8" d="m972.9,702.89h-23.6l-4.5,10.89h-12.05l22.66-50.83h11.62l22.73,50.83h-12.34l-4.5-10.89Zm-3.7-8.93l-8.06-19.46-8.06,19.46h16.12Z"/>
    <path class="cls-8" d="m241.78,768.55c0,11.33-8.5,18.37-22.08,18.37h-10.24v14.01h-11.76v-50.83h22c13.58,0,22.08,7.04,22.08,18.45Zm-11.91,0c0-5.59-3.63-8.86-10.82-8.86h-9.58v17.65h9.58c7.19,0,10.82-3.27,10.82-8.79Z"/>
    <path class="cls-8" d="m249.48,778.57v-28.47h11.76v28.03c0,9.66,4.21,13.65,11.33,13.65s11.33-3.99,11.33-13.65v-28.03h11.62v28.47c0,14.96-8.57,23.24-23.02,23.24s-23.02-8.28-23.02-23.24Zm26.29-43.06h12.2l-13.14,10.46h-8.86l9.8-10.46Z"/>
    <path class="cls-8" d="m353.76,787.06c0,8.79-6.97,13.87-20.33,13.87h-26.29v-50.83h24.83c12.71,0,19.24,5.3,19.24,13.22,0,5.08-2.61,9-6.75,11.18,5.66,1.82,9.29,6.17,9.29,12.56Zm-34.93-28.1v11.98h11.69c5.74,0,8.86-2.03,8.86-6.03s-3.12-5.96-8.86-5.96h-11.69Zm23.09,26.87c0-4.28-3.27-6.32-9.37-6.32h-13.72v12.56h13.72c6.1,0,9.37-1.89,9.37-6.25Z"/>
    <path class="cls-8" d="m362.7,750.1h11.76v41.25h25.49v9.58h-37.25v-50.83Z"/>
    <path class="cls-8" d="m406.56,750.1h11.76v50.83h-11.76v-50.83Z"/>
    <path class="cls-8" d="m427.18,775.52c0-15.32,11.76-26.29,27.59-26.29,8.79,0,16.12,3.2,20.91,9l-7.55,6.97c-3.41-3.92-7.7-5.95-12.78-5.95-9.51,0-16.27,6.68-16.27,16.27s6.75,16.27,16.27,16.27c5.08,0,9.37-2.03,12.78-6.03l7.55,6.97c-4.79,5.88-12.13,9.08-20.99,9.08-15.76,0-27.52-10.96-27.52-26.29Z"/>
    <path class="cls-8" d="m516.07,790.04h-23.6l-4.5,10.89h-12.05l22.66-50.83h11.62l22.73,50.83h-12.34l-4.5-10.89Zm-3.7-8.93l-8.06-19.46-8.06,19.46h16.12Z"/>
    <path class="cls-8" d="m558.78,750.1h23.09c16.63,0,28.03,10.02,28.03,25.42s-11.4,25.42-28.03,25.42h-23.09v-50.83Zm22.51,41.17c10.09,0,16.7-6.03,16.7-15.76s-6.61-15.76-16.7-15.76h-10.75v31.52h10.75Z"/>
    <path class="cls-8" d="m658.12,791.49v9.44h-39.36v-50.83h38.41v9.44h-26.72v11.04h23.6v9.15h-23.6v11.76h27.67Z"/>
    <path class="cls-8" d="m684.05,795.92l3.99-8.86c4.28,3.12,10.67,5.3,16.77,5.3,6.97,0,9.8-2.32,9.8-5.45,0-9.51-29.55-2.98-29.55-21.86,0-8.64,6.97-15.83,21.42-15.83,6.39,0,12.93,1.53,17.65,4.5l-3.63,8.93c-4.72-2.69-9.58-3.99-14.09-3.99-6.97,0-9.66,2.61-9.66,5.81,0,9.37,29.55,2.9,29.55,21.57,0,8.5-7.04,15.76-21.57,15.76-8.06,0-16.19-2.4-20.7-5.88Z"/>
    <path class="cls-8" d="m767.85,790.04h-23.6l-4.5,10.89h-12.05l22.66-50.83h11.62l22.73,50.83h-12.34l-4.5-10.89Zm-3.7-8.93l-8.06-19.46-8.06,19.46h16.12Z"/>
    <path class="cls-8" d="m788.48,778.57v-28.47h11.76v28.03c0,9.66,4.21,13.65,11.33,13.65s11.33-3.99,11.33-13.65v-28.03h11.62v28.47c0,14.96-8.57,23.24-23.02,23.24s-23.02-8.28-23.02-23.24Zm26.29-43.06h12.2l-13.14,10.46h-8.86l9.8-10.46Z"/>
    <path class="cls-8" d="m846.14,750.1h23.09c16.63,0,28.03,10.02,28.03,25.42s-11.4,25.42-28.03,25.42h-23.09v-50.83Zm22.51,41.17c10.09,0,16.7-6.03,16.7-15.76s-6.61-15.76-16.7-15.76h-10.75v31.52h10.75Z"/>
    <path class="cls-8" d="m945.48,791.49v9.44h-39.36v-50.83h38.41v9.44h-26.72v11.04h23.6v9.15h-23.6v11.76h27.67Z"/>
    <path class="cls-8" d="m950.28,810.16c6.25-10.89,8.86-21.79,8.86-33.99s-2.61-23.09-8.86-33.98h10.82c5.95,8.64,9.15,20.62,9.15,33.98s-3.2,25.2-9.15,33.99h-10.82Z"/>
  </g>
</svg>