<?xml version="1.0" encoding="utf-8"?>
<!-- Generator: Adobe Illustrator 27.1.1, SVG Export Plug-In . SVG Version: 6.00 Build 0)  -->
<svg version="1.1" id="Layer_1" xmlns="http://www.w3.org/2000/svg" xmlns:xlink="http://www.w3.org/1999/xlink" x="0px" y="0px"
	 viewBox="0 0 1991.7 630.9" style="enable-background:new 0 0 1991.7 630.9;" xml:space="preserve">
<style type="text/css">
	.st0{fill:#5D8DC9;}
	.st1{fill:#5FBDA8;}
	.st2{fill:#9BCA3B;}
	.st3{fill:#4CB5CE;}
	.st4{fill:url(#SVGID_1_);}
	.st5{fill:#F2F2F2;}
	.st6{fill:url(#SVGID_00000077296730693717875200000013673261924108784512_);}
	.st7{fill:url(#SVGID_00000042737537535139461830000009803557226444666248_);}
	.st8{fill:url(#SVGID_00000085236836447484169610000003536633782291595947_);}
	.st9{enable-background:new    ;}
	.st10{fill:#262626;}
	.st11{fill:#FFFFFF;}
</style>
<path class="st0" d="M99,400.1h561.1c29.4,0,53.2,23.8,53.2,53.2V541c0,29.4-23.8,53.2-53.2,53.2H99c-29.4,0-53.2-23.8-53.2-53.2
	v-87.7C45.8,423.9,69.6,400.1,99,400.1z"/>
<path class="st0" d="M1092.3,466.2c-33.5,25-75,39.7-120,39.7c-52,0-99.5-19.8-135.3-52.3c-4.9-4.4-9.5-9.1-14-14l-14,14l-34.7,34.7
	h-62.6v19.7h70.8l40.5-40.5c39.4,36,91.8,58.1,149.2,58.1c50.4,0,96.9-16.9,134.1-45.4L1092.3,466.2L1092.3,466.2z"/>
<path class="st1" d="M1232.8,100.8H1162l-40.4,40.5c-39.4-36.1-91.8-58.1-149.2-58.1c-50.3,0-96.8,16.9-134,45.4l14.1,14.1
	c33.5-24.9,75-39.7,119.9-39.7c52,0,99.5,19.8,135.3,52.3c4.9,4.4,9.5,9.1,13.9,13.9l13.9-13.9l34.7-34.7h62.6"/>
<path class="st2" d="M186.4,46.1h473.8c29.4,0,53.2,23.8,53.2,53.2v22.7c0,29.4-23.8,53.2-53.2,53.2H186.4
	c-29.4,0-53.2-23.8-53.2-53.2V99.3C133.1,69.9,156.9,46.1,186.4,46.1z"/>
<path class="st1" d="M1274,46.1h473.8c29.4,0,53.2,23.8,53.2,53.2v22.7c0,29.4-23.8,53.2-53.2,53.2H1274
	c-29.4,0-53.2-23.8-53.2-53.2V99.3C1220.7,69.9,1244.6,46.1,1274,46.1z"/>
<path class="st3" d="M1274,433.6h636.7c29.4,0,53.2,23.8,53.2,53.2v22.7c0,29.4-23.8,53.2-53.2,53.2H1274
	c-29.4,0-53.2-23.8-53.2-53.2v-22.7C1220.7,457.4,1244.6,433.6,1274,433.6z"/>
<g>
	<path class="st3" d="M1148.2,170.4l-4.5,4.5l-9.6,9.6c17,22.9,29.3,49.6,35.4,78.5h20.1C1183.1,228.7,1168.6,197.1,1148.2,170.4
		L1148.2,170.4z"/>
	<path class="st3" d="M1232.8,488.3h-62.6l-20.7-20.7l-13.9-14c27.9-30.4,47.3-68.6,54.7-111h-20.1c-7.1,36.9-24.3,70.2-48.6,97
		c-4.4,4.9-9.1,9.5-13.9,13.9l14,14l19.7,19.7l17.8,17.8l2.9,2.9h70.8L1232.8,488.3L1232.8,488.3z"/>
	<path class="st2" d="M796.5,438.5l14.1-14.1c-17.7-23.8-30.2-51.5-36.1-81.7h-20.1C760.7,378.3,775.4,410.9,796.5,438.5
		L796.5,438.5z"/>
	<path class="st2" d="M823.1,169.2c4.4-4.9,9.1-9.5,14-13.9l-14-13.9l-40.5-40.4h-70.8v19.7h62.6l34.7,34.7
		C782,184.9,762.8,221.9,755,263h20.1C782.6,227.3,799.5,195.2,823.1,169.2L823.1,169.2z"/>
</g>
<g>
	
		<linearGradient id="SVGID_1_" gradientUnits="userSpaceOnUse" x1="608.4834" y1="563.782" x2="668.6034" y2="489.732" gradientTransform="matrix(0.9999 1.657987e-02 1.657987e-02 -0.9999 -6.4274 628.3954)">
		<stop  offset="0" style="stop-color:#FFFFFF"/>
		<stop  offset="1" style="stop-color:#D7D6D6"/>
	</linearGradient>
	<path class="st4" d="M685.5,111.4c-0.4,25.4-21.3,45.6-46.7,45.2s-45.6-21.4-45.2-46.7c0.4-25.4,21.3-45.6,46.7-45.2
		S685.9,86.1,685.5,111.4z"/>
	<ellipse transform="matrix(0.7071 -0.7071 0.7071 0.7071 109.0645 484.5921)" class="st5" cx="639.5" cy="110.6" rx="44" ry="44"/>
</g>
<g>
	
		<linearGradient id="SVGID_00000153679592901533087110000000864864758513251741_" gradientUnits="userSpaceOnUse" x1="1257.9963" y1="574.5369" x2="1318.1163" y2="500.4869" gradientTransform="matrix(0.9999 1.657987e-02 1.657987e-02 -0.9999 -6.4274 628.3954)">
		<stop  offset="0" style="stop-color:#FFFFFF"/>
		<stop  offset="1" style="stop-color:#D7D6D6"/>
	</linearGradient>
	<path style="fill:url(#SVGID_00000153679592901533087110000000864864758513251741_);" d="M1335.1,111.4
		c-0.4,25.4-21.3,45.6-46.7,45.2s-45.6-21.4-45.2-46.7s21.3-45.6,46.7-45.2S1335.5,86.1,1335.1,111.4z"/>
	<ellipse transform="matrix(0.7071 -0.7071 0.7071 0.7071 299.3428 943.8835)" class="st5" cx="1289" cy="110.6" rx="44" ry="44"/>
</g>
<g>
	
		<linearGradient id="SVGID_00000008871220210949786500000004634262708245643663_" gradientUnits="userSpaceOnUse" x1="1264.3926" y1="188.1301" x2="1324.5026" y2="114.0801" gradientTransform="matrix(0.9999 1.657987e-02 1.657987e-02 -0.9999 -6.4274 628.3954)">
		<stop  offset="0" style="stop-color:#FFFFFF"/>
		<stop  offset="1" style="stop-color:#D7D6D6"/>
	</linearGradient>
	<path style="fill:url(#SVGID_00000008871220210949786500000004634262708245643663_);" d="M1335.1,497.9
		c-0.4,25.4-21.3,45.6-46.7,45.2s-45.6-21.3-45.2-46.7s21.3-45.6,46.7-45.2S1335.5,472.5,1335.1,497.9L1335.1,497.9z"/>
	<ellipse transform="matrix(0.8295 -0.5585 0.5585 0.8295 -57.8382 804.64)" class="st5" cx="1289.1" cy="497.1" rx="44" ry="44"/>
</g>
<g>
	
		<linearGradient id="SVGID_00000151529028723008845080000004209395468936507045_" gradientUnits="userSpaceOnUse" x1="616.4274" y1="177.4034" x2="676.5375" y2="103.3534" gradientTransform="matrix(0.9999 1.657987e-02 1.657987e-02 -0.9999 -6.4274 628.3954)">
		<stop  offset="0" style="stop-color:#FFFFFF"/>
		<stop  offset="1" style="stop-color:#D7D6D6"/>
	</linearGradient>
	<path style="fill:url(#SVGID_00000151529028723008845080000004209395468936507045_);" d="M687,497.9c-0.4,25.4-21.3,45.6-46.7,45.2
		s-45.6-21.3-45.2-46.7c0.4-25.4,21.3-45.6,46.7-45.2S687.5,472.5,687,497.9L687,497.9z"/>
	
		<ellipse transform="matrix(0.8295 -0.5585 0.5585 0.8295 -168.3321 442.7556)" class="st5" cx="641.1" cy="497.1" rx="44" ry="44"/>
</g>
<g class="st9">
	<path class="st10" d="M730.9,313.6l2.5-5.6c2.7,2,6.8,3.4,10.6,3.4c4.4,0,6.2-1.5,6.2-3.5c0-6-18.7-1.9-18.7-13.8
		c0-5.5,4.4-10,13.6-10c4,0,8.2,1,11.2,2.9l-2.3,5.7c-3-1.7-6.1-2.5-8.9-2.5c-4.4,0-6.1,1.7-6.1,3.7c0,5.9,18.7,1.8,18.7,13.7
		c0,5.4-4.5,10-13.7,10C738.9,317.3,733.7,315.8,730.9,313.6z"/>
	<path class="st10" d="M762.7,304.4c0-7.5,5.8-12.7,13.6-12.7c7.9,0,13.6,5.3,13.6,12.7c0,7.5-5.7,12.7-13.6,12.7
		C768.4,317.2,762.7,311.9,762.7,304.4z M782.6,304.4c0-4.3-2.7-6.9-6.3-6.9s-6.3,2.6-6.3,6.9c0,4.3,2.8,6.9,6.3,6.9
		S782.6,308.7,782.6,304.4z"/>
	<path class="st10" d="M795.1,304.4c0-7.5,5.8-12.7,13.8-12.7c5.2,0,9.3,2.3,11.1,6.3l-5.6,3c-1.3-2.3-3.3-3.4-5.6-3.4
		c-3.6,0-6.5,2.5-6.5,6.9c0,4.3,2.9,6.9,6.5,6.9c2.3,0,4.2-1,5.6-3.4l5.6,3c-1.8,4-5.9,6.3-11.1,6.3
		C800.9,317.2,795.1,311.9,795.1,304.4z"/>
	<path class="st10" d="M825.6,284.6c0-2.3,1.8-4,4.5-4s4.5,1.7,4.5,3.9c0,2.4-1.8,4.1-4.5,4.1S825.6,286.8,825.6,284.6z M826.4,292
		h7.2v24.8h-7.2V292z"/>
	<path class="st10" d="M864.5,302.7v14.1h-6.7v-3.1c-1.3,2.3-3.9,3.5-7.5,3.5c-5.8,0-9.2-3.2-9.2-7.5c0-4.4,3.1-7.4,10.6-7.4h5.7
		c0-3.1-1.8-4.9-5.7-4.9c-2.6,0-5.3,0.9-7.1,2.3l-2.6-5c2.7-1.9,6.7-3,10.7-3C860.1,291.7,864.5,295.2,864.5,302.7z M857.3,309v-2.5
		h-4.9c-3.4,0-4.4,1.2-4.4,2.9c0,1.8,1.5,3,4,3C854.4,312.3,856.5,311.2,857.3,309z"/>
	<path class="st10" d="M873.3,282.7h7.2v34.1h-7.2V282.7z"/>
</g>
<g class="st9">
	<path class="st10" d="M888.5,301h13v5.8h-13V301z"/>
</g>
<g class="st9">
	<path class="st10" d="M935.1,282.7v34.1h-6.9v-2.9c-1.8,2.2-4.4,3.2-7.7,3.2c-7,0-12.4-5-12.4-12.7c0-7.8,5.4-12.7,12.4-12.7
		c3,0,5.6,1,7.4,3v-12H935.1z M928.1,304.4c0-4.3-2.8-6.9-6.3-6.9c-3.6,0-6.3,2.6-6.3,6.9c0,4.3,2.8,6.9,6.3,6.9
		C925.3,311.3,928.1,308.7,928.1,304.4z"/>
	<path class="st10" d="M968.2,306.4h-18.7c0.7,3.1,3.3,5,7.1,5c2.6,0,4.5-0.8,6.2-2.4l3.8,4.1c-2.3,2.6-5.8,4-10.2,4
		c-8.6,0-14.1-5.4-14.1-12.7c0-7.4,5.7-12.7,13.2-12.7c7.3,0,12.9,4.9,12.9,12.8C968.3,305.1,968.2,305.8,968.2,306.4z M949.4,302.3
		h12.2c-0.5-3.1-2.9-5.2-6.1-5.2C952.2,297.1,949.9,299.1,949.4,302.3z"/>
</g>
<g class="st9">
	<path class="st10" d="M1017.2,302.6v14.2h-7.2v-13.1c0-4-1.8-5.8-4.7-5.8c-3.2,0-5.5,2.1-5.5,6.5v12.4h-7.2v-13.1
		c0-4-1.7-5.8-4.7-5.8c-3.2,0-5.4,2.1-5.4,6.5v12.4h-7.2V292h6.9v2.9c1.8-2.1,4.6-3.2,7.8-3.2c3.5,0,6.4,1.3,8.1,4
		c2-2.5,5.2-4,8.9-4C1013,291.7,1017.2,295.1,1017.2,302.6z"/>
</g>
<g class="st9">
	<path class="st10" d="M1024.4,304.4c0-7.5,5.8-12.7,13.6-12.7c7.9,0,13.6,5.3,13.6,12.7c0,7.5-5.7,12.7-13.6,12.7
		C1030.1,317.2,1024.4,311.9,1024.4,304.4z M1044.3,304.4c0-4.3-2.7-6.9-6.3-6.9c-3.6,0-6.3,2.6-6.3,6.9c0,4.3,2.8,6.9,6.3,6.9
		C1041.6,311.3,1044.3,308.7,1044.3,304.4z"/>
	<path class="st10" d="M1056.8,304.4c0-7.5,5.8-12.7,13.8-12.7c5.2,0,9.3,2.3,11.1,6.3l-5.6,3c-1.3-2.3-3.3-3.4-5.6-3.4
		c-3.6,0-6.5,2.5-6.5,6.9c0,4.3,2.9,6.9,6.5,6.9c2.3,0,4.2-1,5.6-3.4l5.6,3c-1.8,4-5.9,6.3-11.1,6.3
		C1062.6,317.2,1056.8,311.9,1056.8,304.4z"/>
</g>
<g class="st9">
	<path class="st10" d="M1103.5,291.7v6.6c-0.6,0-1.1-0.1-1.6-0.1c-4,0-6.6,2.2-6.6,6.9v11.7h-7.2V292h6.9v3.3
		C1096.7,292.9,1099.7,291.7,1103.5,291.7z"/>
</g>
<g class="st9">
	<path class="st10" d="M1131.8,302.7v14.1h-6.7v-3.1c-1.3,2.3-3.9,3.5-7.5,3.5c-5.8,0-9.2-3.2-9.2-7.5c0-4.4,3.1-7.4,10.6-7.4h5.7
		c0-3.1-1.8-4.9-5.7-4.9c-2.6,0-5.3,0.9-7.1,2.3l-2.6-5c2.7-1.9,6.7-3,10.7-3C1127.5,291.7,1131.8,295.2,1131.8,302.7z M1124.7,309
		v-2.5h-4.9c-3.4,0-4.4,1.2-4.4,2.9c0,1.8,1.5,3,4,3C1121.8,312.3,1123.8,311.2,1124.7,309z"/>
</g>
<g class="st9">
	<path class="st10" d="M1139.1,304.4c0-7.5,5.8-12.7,13.8-12.7c5.2,0,9.3,2.3,11.1,6.3l-5.6,3c-1.3-2.3-3.3-3.4-5.6-3.4
		c-3.6,0-6.5,2.5-6.5,6.9c0,4.3,2.9,6.9,6.5,6.9c2.3,0,4.2-1,5.6-3.4l5.6,3c-1.8,4-5.9,6.3-11.1,6.3
		C1144.8,317.2,1139.1,311.9,1139.1,304.4z"/>
	<path class="st10" d="M1169.5,284.6c0-2.3,1.8-4,4.5-4c2.7,0,4.5,1.7,4.5,3.9c0,2.4-1.8,4.1-4.5,4.1
		C1171.3,288.6,1169.5,286.8,1169.5,284.6z M1170.4,292h7.2v24.8h-7.2V292z"/>
	<path class="st10" d="M1208.4,302.7v14.1h-6.7v-3.1c-1.3,2.3-3.9,3.5-7.5,3.5c-5.8,0-9.2-3.2-9.2-7.5c0-4.4,3.1-7.4,10.6-7.4h5.7
		c0-3.1-1.8-4.9-5.7-4.9c-2.6,0-5.3,0.9-7.1,2.3l-2.6-5c2.7-1.9,6.7-3,10.7-3C1204.1,291.7,1208.4,295.2,1208.4,302.7z M1201.3,309
		v-2.5h-4.9c-3.4,0-4.4,1.2-4.4,2.9c0,1.8,1.5,3,4,3C1198.4,312.3,1200.4,311.2,1201.3,309z"/>
</g>
<g class="st9">
	<path d="M207.4,119.2v3.3h-15.7v-21H207v3.3h-11.4v5.5h10.1v3.2h-10.1v5.8H207.4z"/>
</g>
<g class="st9">
	<path d="M210.9,120.9l1.4-2.8c1.4,0.9,3.6,1.6,5.6,1.6c2.4,0,3.4-0.7,3.4-1.8c0-3.1-9.9-0.2-9.9-6.6c0-3,2.7-5,7-5
		c2.1,0,4.6,0.5,6,1.4l-1.4,2.8c-1.5-0.9-3.1-1.2-4.6-1.2c-2.3,0-3.4,0.8-3.4,1.8c0,3.2,9.9,0.4,9.9,6.6c0,3-2.8,5-7.3,5
		C215,122.7,212.3,121.9,210.9,120.9z"/>
	<path d="M239.3,121.6c-0.9,0.7-2.2,1.1-3.6,1.1c-3.5,0-5.5-1.9-5.5-5.4v-7.7h-2.6v-3h2.6v-3.7h3.8v3.7h4.3v3h-4.3v7.6
		c0,1.6,0.8,2.4,2.2,2.4c0.8,0,1.5-0.2,2.1-0.7L239.3,121.6z"/>
</g>
<g class="st9">
	<path d="M257.3,113.1v9.4h-3.5v-2c-0.9,1.4-2.6,2.2-5,2.2c-3.7,0-6-2-6-4.8c0-2.7,1.8-4.8,6.7-4.8h4.1v-0.2c0-2.2-1.3-3.5-4-3.5
		c-1.8,0-3.7,0.6-4.9,1.6l-1.5-2.7c1.7-1.3,4.2-2,6.8-2C254.6,106.3,257.3,108.4,257.3,113.1z M253.6,117.4v-1.9h-3.9
		c-2.5,0-3.2,1-3.2,2.1c0,1.4,1.1,2.2,3.1,2.2C251.3,119.9,252.9,119.1,253.6,117.4z"/>
</g>
<g class="st9">
	<path d="M279.4,100.2v22.3h-3.6v-2.1c-1.3,1.5-3.1,2.3-5.3,2.3c-4.6,0-8.1-3.2-8.1-8.2s3.4-8.2,8.1-8.2c2.1,0,3.9,0.7,5.2,2.2v-8.2
		H279.4z M275.8,114.4c0-3.1-2.1-5-4.8-5c-2.7,0-4.8,2-4.8,5s2.1,5,4.8,5C273.7,119.5,275.8,117.5,275.8,114.4z"/>
</g>
<g class="st9">
	<path d="M284.6,114.4c0-4.8,3.6-8.2,8.5-8.2c5,0,8.5,3.4,8.5,8.2s-3.6,8.2-8.5,8.2C288.1,122.7,284.6,119.2,284.6,114.4z
		 M297.8,114.4c0-3.1-2-5-4.8-5c-2.7,0-4.7,2-4.7,5s2,5,4.7,5C295.8,119.5,297.8,117.5,297.8,114.4z"/>
</g>
<g class="st9">
	<path d="M306.2,112.6h8.2v3.1h-8.2V112.6z"/>
</g>
<g class="st9">
	<path d="M333.5,113.1v9.4h-3.5v-2c-0.9,1.4-2.6,2.2-5,2.2c-3.7,0-6-2-6-4.8c0-2.7,1.8-4.8,6.7-4.8h4.1v-0.2c0-2.2-1.3-3.5-4-3.5
		c-1.8,0-3.7,0.6-4.9,1.6l-1.5-2.7c1.7-1.3,4.2-2,6.8-2C330.8,106.3,333.5,108.4,333.5,113.1z M329.7,117.4v-1.9h-3.9
		c-2.5,0-3.2,1-3.2,2.1c0,1.4,1.1,2.2,3.1,2.2C327.5,119.9,329.1,119.1,329.7,117.4z"/>
</g>
<g class="st9">
	<path d="M355.6,100.2v22.3H352v-2.1c-1.3,1.5-3.1,2.3-5.3,2.3c-4.6,0-8.1-3.2-8.1-8.2s3.4-8.2,8.1-8.2c2.1,0,3.9,0.7,5.2,2.2v-8.2
		H355.6z M351.9,114.4c0-3.1-2.1-5-4.8-5c-2.7,0-4.8,2-4.8,5s2.1,5,4.8,5C349.9,119.5,351.9,117.5,351.9,114.4z"/>
	<path d="M388.8,113.3v9.2h-3.8v-8.7c0-2.9-1.3-4.2-3.6-4.2c-2.5,0-4.2,1.6-4.2,4.8v8.1h-3.8v-8.7c0-2.9-1.3-4.2-3.6-4.2
		c-2.5,0-4.2,1.6-4.2,4.8v8.1H362v-16h3.6v2c1.2-1.4,3.1-2.2,5.2-2.2c2.3,0,4.3,0.9,5.4,2.7c1.3-1.7,3.5-2.7,6-2.7
		C386.1,106.3,388.8,108.4,388.8,113.3z"/>
	<path d="M394.6,101.5c0-1.3,1-2.2,2.4-2.2c1.4,0,2.4,0.9,2.4,2.2c0,1.3-1,2.3-2.4,2.3C395.6,103.8,394.6,102.8,394.6,101.5z
		 M395.1,106.4h3.8v16h-3.8V106.4z"/>
	<path d="M421.1,113.3v9.2h-3.8v-8.7c0-2.9-1.4-4.2-3.8-4.2c-2.7,0-4.5,1.6-4.5,4.8v8.1h-3.8v-16h3.6v2.1c1.2-1.5,3.2-2.2,5.5-2.2
		C418.2,106.3,421.1,108.4,421.1,113.3z"/>
	<path d="M426.8,101.5c0-1.3,1-2.2,2.4-2.2c1.4,0,2.4,0.9,2.4,2.2c0,1.3-1,2.3-2.4,2.3C427.9,103.8,426.8,102.8,426.8,101.5z
		 M427.3,106.4h3.8v16h-3.8V106.4z"/>
	<path d="M435.7,120.9l1.4-2.8c1.4,0.9,3.6,1.6,5.6,1.6c2.4,0,3.4-0.7,3.4-1.8c0-3.1-9.9-0.2-9.9-6.6c0-3,2.7-5,7-5
		c2.1,0,4.6,0.5,6,1.4l-1.4,2.8c-1.5-0.9-3.1-1.2-4.6-1.2c-2.3,0-3.4,0.8-3.4,1.8c0,3.2,9.9,0.4,9.9,6.6c0,3-2.8,5-7.3,5
		C439.8,122.7,437.1,121.9,435.7,120.9z"/>
	<path d="M464.1,121.6c-0.9,0.7-2.2,1.1-3.6,1.1c-3.5,0-5.5-1.9-5.5-5.4v-7.7h-2.6v-3h2.6v-3.7h3.8v3.7h4.3v3h-4.3v7.6
		c0,1.6,0.8,2.4,2.2,2.4c0.8,0,1.5-0.2,2.1-0.7L464.1,121.6z"/>
</g>
<g class="st9">
	<path d="M478,106.3v3.6c-0.3-0.1-0.6-0.1-0.9-0.1c-2.8,0-4.6,1.7-4.6,5v7.8h-3.8v-16h3.6v2.3C473.3,107.1,475.3,106.3,478,106.3z"
		/>
</g>
<g class="st9">
	<path d="M496,113.1v9.4h-3.5v-2c-0.9,1.4-2.6,2.2-5,2.2c-3.7,0-6-2-6-4.8c0-2.7,1.8-4.8,6.7-4.8h4.1v-0.2c0-2.2-1.3-3.5-4-3.5
		c-1.8,0-3.7,0.6-4.9,1.6l-1.5-2.7c1.7-1.3,4.2-2,6.8-2C493.3,106.3,496,108.4,496,113.1z M492.2,117.4v-1.9h-3.9
		c-2.5,0-3.2,1-3.2,2.1c0,1.4,1.1,2.2,3.1,2.2C490,119.9,491.6,119.1,492.2,117.4z"/>
</g>
<g class="st9">
	<path d="M518.1,100.2v22.3h-3.6v-2.1c-1.3,1.5-3.1,2.3-5.3,2.3c-4.6,0-8.1-3.2-8.1-8.2s3.4-8.2,8.1-8.2c2.1,0,3.9,0.7,5.2,2.2v-8.2
		H518.1z M514.4,114.4c0-3.1-2.1-5-4.8-5c-2.7,0-4.8,2-4.8,5s2.1,5,4.8,5C512.3,119.5,514.4,117.5,514.4,114.4z"/>
	<path d="M523.2,114.4c0-4.8,3.6-8.2,8.5-8.2c5,0,8.5,3.4,8.5,8.2s-3.6,8.2-8.5,8.2C526.8,122.7,523.2,119.2,523.2,114.4z
		 M536.5,114.4c0-3.1-2-5-4.8-5c-2.7,0-4.7,2-4.7,5s2,5,4.7,5C534.4,119.5,536.5,117.5,536.5,114.4z"/>
</g>
<g class="st9">
	<path d="M554.6,106.3v3.6c-0.3-0.1-0.6-0.1-0.9-0.1c-2.8,0-4.6,1.7-4.6,5v7.8h-3.8v-16h3.6v2.3C550,107.1,552,106.3,554.6,106.3z"
		/>
</g>
<g class="st9">
	<path d="M557.9,120.2c0-1.5,1.1-2.5,2.5-2.5c1.4,0,2.5,1,2.5,2.5c0,1.4-1.1,2.5-2.5,2.5C559,122.7,557.9,121.6,557.9,120.2z"/>
</g>
<g class="st9">
	<path d="M101.4,450.1h9.2c6.8,0,11.5,4.2,11.5,10.5c0,6.3-4.6,10.5-11.5,10.5h-9.2V450.1z M110.4,467.8c4.7,0,7.7-2.8,7.7-7.2
		c0-4.3-3-7.2-7.7-7.2h-5.1v14.4H110.4z"/>
	<path d="M142.3,464.3h-12.6c0.5,2.3,2.4,3.8,5.2,3.8c1.8,0,3.2-0.6,4.3-1.7l2,2.3c-1.4,1.7-3.7,2.6-6.4,2.6c-5.4,0-8.8-3.5-8.8-8.2
		s3.5-8.2,8.3-8.2c4.7,0,8.1,3.3,8.1,8.3C142.3,463.5,142.3,463.9,142.3,464.3z M129.7,461.8h9.1c-0.3-2.3-2.1-3.9-4.5-3.9
		C131.8,457.9,130,459.4,129.7,461.8z"/>
	<path d="M145.6,469.5l1.4-2.8c1.4,0.9,3.6,1.6,5.6,1.6c2.4,0,3.4-0.7,3.4-1.8c0-3.1-9.9-0.2-9.9-6.6c0-3,2.7-5,7-5
		c2.1,0,4.6,0.5,6,1.4l-1.4,2.8c-1.5-0.9-3.1-1.2-4.6-1.2c-2.3,0-3.4,0.8-3.4,1.8c0,3.2,9.9,0.4,9.9,6.6c0,3-2.8,5-7.3,5
		C149.7,471.3,147.1,470.5,145.6,469.5z"/>
	<path d="M164.4,448.8h3.8v22.3h-3.8V448.8z"/>
	<path d="M173.2,463.1c0-4.8,3.6-8.2,8.5-8.2c5,0,8.5,3.4,8.5,8.2s-3.6,8.2-8.5,8.2C176.8,471.3,173.2,467.9,173.2,463.1z
		 M186.5,463.1c0-3.1-2-5-4.8-5c-2.7,0-4.7,2-4.7,5s2,5,4.7,5C184.5,468.1,186.5,466.1,186.5,463.1z"/>
	<path d="M194.1,463.1c0-4.8,3.6-8.2,8.7-8.2c3.1,0,5.6,1.3,6.8,3.7l-2.9,1.7c-1-1.5-2.4-2.2-4-2.2c-2.8,0-4.9,1.9-4.9,5
		c0,3.1,2.1,5,4.9,5c1.6,0,3-0.7,4-2.2l2.9,1.7c-1.2,2.4-3.7,3.8-6.8,3.8C197.7,471.3,194.1,467.9,194.1,463.1z"/>
	<path d="M227.8,461.7v9.4h-3.5v-2c-0.9,1.4-2.6,2.2-5,2.2c-3.7,0-6-2-6-4.8c0-2.7,1.8-4.8,6.7-4.8h4.1v-0.2c0-2.2-1.3-3.5-4-3.5
		c-1.8,0-3.7,0.6-4.9,1.6l-1.5-2.7c1.7-1.3,4.2-2,6.8-2C225.1,454.9,227.8,457.1,227.8,461.7z M224,466.1v-1.9h-3.9
		c-2.5,0-3.2,1-3.2,2.1c0,1.4,1.1,2.2,3.1,2.2C221.8,468.6,223.4,467.7,224,466.1z"/>
</g>
<g class="st9">
	<path d="M260.8,461.9v9.2h-3.8v-8.7c0-2.9-1.3-4.2-3.6-4.2c-2.5,0-4.2,1.6-4.2,4.8v8.1h-3.8v-8.7c0-2.9-1.3-4.2-3.6-4.2
		c-2.5,0-4.2,1.6-4.2,4.8v8.1h-3.8v-16h3.6v2c1.2-1.4,3.1-2.2,5.2-2.2c2.3,0,4.3,0.9,5.4,2.7c1.3-1.7,3.5-2.7,6-2.7
		C258.1,454.9,260.8,457.1,260.8,461.9z"/>
</g>
<g class="st9">
	<path d="M282.3,464.3h-12.6c0.5,2.3,2.4,3.8,5.2,3.8c1.8,0,3.2-0.6,4.3-1.7l2,2.3c-1.4,1.7-3.7,2.6-6.4,2.6c-5.4,0-8.8-3.5-8.8-8.2
		s3.5-8.2,8.3-8.2c4.7,0,8.1,3.3,8.1,8.3C282.4,463.5,282.3,463.9,282.3,464.3z M269.7,461.8h9.1c-0.3-2.3-2.1-3.9-4.5-3.9
		C271.8,457.9,270.1,459.4,269.7,461.8z"/>
	<path d="M303.2,461.9v9.2h-3.8v-8.7c0-2.9-1.4-4.2-3.8-4.2c-2.7,0-4.5,1.6-4.5,4.8v8.1h-3.8v-16h3.6v2.1c1.2-1.5,3.2-2.2,5.5-2.2
		C300.4,454.9,303.2,457.1,303.2,461.9z"/>
</g>
<g class="st9">
	<path d="M319.1,470.2c-0.9,0.7-2.2,1.1-3.6,1.1c-3.5,0-5.5-1.9-5.5-5.4v-7.7h-2.6v-3h2.6v-3.7h3.8v3.7h4.3v3h-4.3v7.6
		c0,1.6,0.8,2.4,2.2,2.4c0.8,0,1.5-0.2,2.1-0.7L319.1,470.2z"/>
</g>
<g class="st9">
	<path d="M321.9,463.1c0-4.8,3.6-8.2,8.5-8.2c5,0,8.5,3.4,8.5,8.2s-3.6,8.2-8.5,8.2C325.5,471.3,321.9,467.9,321.9,463.1z
		 M335.2,463.1c0-3.1-2-5-4.8-5c-2.7,0-4.7,2-4.7,5s2,5,4.7,5C333.1,468.1,335.2,466.1,335.2,463.1z"/>
	<path d="M369.5,448.8v22.3h-3.6V469c-1.3,1.5-3.1,2.3-5.3,2.3c-4.6,0-8.1-3.2-8.1-8.2s3.4-8.2,8.1-8.2c2.1,0,3.9,0.7,5.2,2.2v-8.2
		H369.5z M365.8,463.1c0-3.1-2.1-5-4.8-5c-2.7,0-4.8,2-4.8,5s2.1,5,4.8,5C363.7,468.1,365.8,466.1,365.8,463.1z"/>
	<path d="M389.3,461.7v9.4h-3.5v-2c-0.9,1.4-2.6,2.2-5,2.2c-3.7,0-6-2-6-4.8c0-2.7,1.8-4.8,6.7-4.8h4.1v-0.2c0-2.2-1.3-3.5-4-3.5
		c-1.8,0-3.7,0.6-4.9,1.6l-1.5-2.7c1.7-1.3,4.2-2,6.8-2C386.7,454.9,389.3,457.1,389.3,461.7z M385.6,466.1v-1.9h-3.9
		c-2.5,0-3.2,1-3.2,2.1c0,1.4,1.1,2.2,3.1,2.2C383.4,468.6,385,467.7,385.6,466.1z"/>
	<path d="M418.8,461.7v9.4h-3.5v-2c-0.9,1.4-2.6,2.2-5,2.2c-3.7,0-6-2-6-4.8c0-2.7,1.8-4.8,6.7-4.8h4.1v-0.2c0-2.2-1.3-3.5-4-3.5
		c-1.8,0-3.7,0.6-4.9,1.6l-1.5-2.7c1.7-1.3,4.2-2,6.8-2C416.2,454.9,418.8,457.1,418.8,461.7z M415.1,466.1v-1.9h-3.9
		c-2.5,0-3.2,1-3.2,2.1c0,1.4,1.1,2.2,3.1,2.2C412.9,468.6,414.4,467.7,415.1,466.1z"/>
	<path d="M434.8,470.2c-0.9,0.7-2.2,1.1-3.6,1.1c-3.5,0-5.5-1.9-5.5-5.4v-7.7H423v-3h2.6v-3.7h3.8v3.7h4.3v3h-4.3v7.6
		c0,1.6,0.8,2.4,2.2,2.4c0.8,0,1.5-0.2,2.1-0.7L434.8,470.2z"/>
	<path d="M438.8,450.2c0-1.3,1-2.2,2.4-2.2c1.4,0,2.4,0.9,2.4,2.2c0,1.3-1,2.3-2.4,2.3C439.9,452.4,438.8,451.4,438.8,450.2z
		 M439.3,455.1h3.8v16h-3.8V455.1z"/>
	<path d="M464.5,455.1l-6.9,16h-3.9l-6.9-16h3.9l5,11.9l5.1-11.9H464.5z"/>
	<path d="M467.8,450.2c0-1.3,1-2.2,2.4-2.2c1.4,0,2.4,0.9,2.4,2.2c0,1.3-1,2.3-2.4,2.3C468.9,452.4,467.8,451.4,467.8,450.2z
		 M468.4,455.1h3.8v16h-3.8V455.1z"/>
	<path d="M494.2,448.8v22.3h-3.6V469c-1.3,1.5-3.1,2.3-5.3,2.3c-4.6,0-8.1-3.2-8.1-8.2s3.4-8.2,8.1-8.2c2.1,0,3.9,0.7,5.2,2.2v-8.2
		H494.2z M490.5,463.1c0-3.1-2.1-5-4.8-5c-2.7,0-4.8,2-4.8,5s2.1,5,4.8,5C488.5,468.1,490.5,466.1,490.5,463.1z"/>
</g>
<g class="st9">
	<path d="M514,461.7v9.4h-3.5v-2c-0.9,1.4-2.6,2.2-5,2.2c-3.7,0-6-2-6-4.8c0-2.7,1.8-4.8,6.7-4.8h4.1v-0.2c0-2.2-1.3-3.5-4-3.5
		c-1.8,0-3.7,0.6-4.9,1.6l-1.5-2.7c1.7-1.3,4.2-2,6.8-2C511.4,454.9,514,457.1,514,461.7z M510.3,466.1v-1.9h-3.9
		c-2.5,0-3.2,1-3.2,2.1c0,1.4,1.1,2.2,3.1,2.2C508.1,468.6,509.7,467.7,510.3,466.1z"/>
</g>
<g class="st9">
	<path d="M536.2,448.8v22.3h-3.6V469c-1.3,1.5-3.1,2.3-5.3,2.3c-4.6,0-8.1-3.2-8.1-8.2s3.4-8.2,8.1-8.2c2.1,0,3.9,0.7,5.2,2.2v-8.2
		H536.2z M532.5,463.1c0-3.1-2.1-5-4.8-5c-2.7,0-4.8,2-4.8,5s2.1,5,4.8,5C530.4,468.1,532.5,466.1,532.5,463.1z"/>
	<path d="M557.6,464.3H545c0.5,2.3,2.4,3.8,5.2,3.8c1.8,0,3.2-0.6,4.3-1.7l2,2.3c-1.4,1.7-3.7,2.6-6.4,2.6c-5.4,0-8.8-3.5-8.8-8.2
		s3.5-8.2,8.3-8.2c4.7,0,8.1,3.3,8.1,8.3C557.7,463.5,557.6,463.9,557.6,464.3z M545,461.8h9.1c-0.3-2.3-2.1-3.9-4.5-3.9
		C547.1,457.9,545.4,459.4,545,461.8z"/>
</g>
<g class="st9">
	<path d="M97,488.8h3.8v22.3H97V488.8z"/>
	<path d="M122.2,504.3h-12.6c0.5,2.3,2.4,3.8,5.2,3.8c1.8,0,3.2-0.6,4.3-1.7l2,2.3c-1.4,1.7-3.7,2.6-6.4,2.6c-5.4,0-8.8-3.5-8.8-8.2
		s3.5-8.2,8.3-8.2c4.7,0,8.1,3.3,8.1,8.3C122.2,503.5,122.2,503.9,122.2,504.3z M109.6,501.8h9.1c-0.3-2.3-2.1-3.9-4.5-3.9
		C111.7,497.9,109.9,499.4,109.6,501.8z"/>
	<path d="M143.2,495.1v13.6c0,5.8-3,8.5-8.6,8.5c-3,0-6-0.8-7.8-2.3l1.7-2.8c1.4,1.2,3.7,1.9,5.9,1.9c3.5,0,5.1-1.6,5.1-4.9v-0.8
		c-1.3,1.4-3.2,2.1-5.4,2.1c-4.6,0-8.1-3.1-8.1-7.8c0-4.7,3.5-7.7,8.1-7.7c2.2,0,4.2,0.7,5.5,2.3v-2.1H143.2z M139.6,502.6
		c0-2.7-2-4.5-4.9-4.5c-2.9,0-4.9,1.8-4.9,4.5c0,2.7,2,4.6,4.9,4.6C137.5,507.2,139.6,505.3,139.6,502.6z"/>
	<path d="M149.2,490.2c0-1.3,1-2.2,2.4-2.2c1.4,0,2.4,0.9,2.4,2.2c0,1.3-1,2.3-2.4,2.3C150.2,492.4,149.2,491.4,149.2,490.2z
		 M149.7,495.1h3.8v16h-3.8V495.1z"/>
	<path d="M158,509.5l1.4-2.8c1.4,0.9,3.6,1.6,5.6,1.6c2.4,0,3.4-0.7,3.4-1.8c0-3.1-9.9-0.2-9.9-6.6c0-3,2.7-5,7-5
		c2.1,0,4.6,0.5,6,1.4l-1.4,2.8c-1.5-0.9-3.1-1.2-4.6-1.2c-2.3,0-3.4,0.8-3.4,1.8c0,3.2,9.9,0.4,9.9,6.6c0,3-2.8,5-7.3,5
		C162.1,511.3,159.4,510.5,158,509.5z"/>
	<path d="M176.8,488.8h3.8v22.3h-3.8V488.8z"/>
	<path d="M200.4,501.7v9.4h-3.5v-2c-0.9,1.4-2.6,2.2-5,2.2c-3.7,0-6-2-6-4.8c0-2.7,1.8-4.8,6.7-4.8h4.1v-0.2c0-2.2-1.3-3.5-4-3.5
		c-1.8,0-3.7,0.6-4.9,1.6l-1.5-2.7c1.7-1.3,4.2-2,6.8-2C197.7,494.9,200.4,497.1,200.4,501.7z M196.6,506.1v-1.9h-3.9
		c-2.5,0-3.2,1-3.2,2.1c0,1.4,1.1,2.2,3.1,2.2C194.4,508.6,196,507.7,196.6,506.1z"/>
	<path d="M216.3,510.2c-0.9,0.7-2.2,1.1-3.6,1.1c-3.5,0-5.5-1.9-5.5-5.4v-7.7h-2.6v-3h2.6v-3.7h3.8v3.7h4.3v3h-4.3v7.6
		c0,1.6,0.8,2.4,2.2,2.4c0.8,0,1.5-0.2,2.1-0.7L216.3,510.2z"/>
	<path d="M220.4,490.2c0-1.3,1-2.2,2.4-2.2c1.4,0,2.4,0.9,2.4,2.2c0,1.3-1,2.3-2.4,2.3C221.4,492.4,220.4,491.4,220.4,490.2z
		 M220.9,495.1h3.8v16h-3.8V495.1z"/>
</g>
<g class="st9">
	<path d="M246.1,495.1l-6.9,16h-3.9l-6.9-16h3.9l5,11.9l5.1-11.9H246.1z"/>
</g>
<g class="st9">
	<path d="M262.8,501.7v9.4h-3.5v-2c-0.9,1.4-2.6,2.2-5,2.2c-3.7,0-6-2-6-4.8c0-2.7,1.8-4.8,6.7-4.8h4.1v-0.2c0-2.2-1.3-3.5-4-3.5
		c-1.8,0-3.7,0.6-4.9,1.6l-1.5-2.7c1.7-1.3,4.2-2,6.8-2C260.1,494.9,262.8,497.1,262.8,501.7z M259,506.1v-1.9h-3.9
		c-2.5,0-3.2,1-3.2,2.1c0,1.4,1.1,2.2,3.1,2.2C256.8,508.6,258.4,507.7,259,506.1z"/>
</g>
<g class="st9">
	<path d="M295.9,503.1c0,5-3.4,8.2-8.1,8.2c-2,0-3.8-0.7-5.1-2.2v7.8h-3.8v-21.8h3.6v2.1c1.3-1.5,3.1-2.3,5.3-2.3
		C292.4,494.9,295.9,498.1,295.9,503.1z M292.1,503.1c0-3.1-2-5-4.7-5c-2.7,0-4.8,2-4.8,5s2.1,5,4.8,5
		C290,508.1,292.1,506.1,292.1,503.1z"/>
</g>
<g class="st9">
	<path d="M314.2,501.7v9.4h-3.5v-2c-0.9,1.4-2.6,2.2-5,2.2c-3.7,0-6-2-6-4.8c0-2.7,1.8-4.8,6.7-4.8h4.1v-0.2c0-2.2-1.3-3.5-4-3.5
		c-1.8,0-3.7,0.6-4.9,1.6l-1.5-2.7c1.7-1.3,4.2-2,6.8-2C311.5,494.9,314.2,497.1,314.2,501.7z M310.4,506.1v-1.9h-3.9
		c-2.5,0-3.2,1-3.2,2.1c0,1.4,1.1,2.2,3.1,2.2C308.2,508.6,309.8,507.7,310.4,506.1z"/>
</g>
<g class="st9">
	<path d="M329.7,494.9v3.6c-0.3-0.1-0.6-0.1-0.9-0.1c-2.8,0-4.6,1.7-4.6,5v7.8h-3.8v-16h3.6v2.3
		C325.1,495.7,327.1,494.9,329.7,494.9z"/>
</g>
<g class="st9">
	<path d="M347.7,501.7v9.4h-3.5v-2c-0.9,1.4-2.6,2.2-5,2.2c-3.7,0-6-2-6-4.8c0-2.7,1.8-4.8,6.7-4.8h4.1v-0.2c0-2.2-1.3-3.5-4-3.5
		c-1.8,0-3.7,0.6-4.9,1.6l-1.5-2.7c1.7-1.3,4.2-2,6.8-2C345.1,494.9,347.7,497.1,347.7,501.7z M344,506.1v-1.9h-3.9
		c-2.5,0-3.2,1-3.2,2.1c0,1.4,1.1,2.2,3.1,2.2C341.8,508.6,343.3,507.7,344,506.1z"/>
	<path d="M362.5,503.1c0-4.8,3.6-8.2,8.5-8.2c5,0,8.5,3.4,8.5,8.2s-3.6,8.2-8.5,8.2C366.1,511.3,362.5,507.9,362.5,503.1z
		 M375.8,503.1c0-3.1-2-5-4.8-5c-2.7,0-4.7,2-4.7,5s2,5,4.7,5C373.7,508.1,375.8,506.1,375.8,503.1z"/>
	<path d="M407.8,501.7v9.4h-3.5v-2c-0.9,1.4-2.6,2.2-5,2.2c-3.7,0-6-2-6-4.8c0-2.7,1.8-4.8,6.7-4.8h4.1v-0.2c0-2.2-1.3-3.5-4-3.5
		c-1.8,0-3.7,0.6-4.9,1.6l-1.5-2.7c1.7-1.3,4.2-2,6.8-2C405.2,494.9,407.8,497.1,407.8,501.7z M398.2,492.9h-3.1l4-4.1h3.4l4,4.1
		h-3.1l-2.6-2.2L398.2,492.9z M404.1,506.1v-1.9h-3.9c-2.5,0-3.2,1-3.2,2.1c0,1.4,1.1,2.2,3.1,2.2
		C401.9,508.6,403.5,507.7,404.1,506.1z"/>
	<path d="M440.9,501.9v9.2h-3.8v-8.7c0-2.9-1.3-4.2-3.6-4.2c-2.5,0-4.2,1.6-4.2,4.8v8.1h-3.8v-8.7c0-2.9-1.3-4.2-3.6-4.2
		c-2.5,0-4.2,1.6-4.2,4.8v8.1h-3.8v-16h3.6v2c1.2-1.4,3.1-2.2,5.2-2.2c2.3,0,4.3,0.9,5.4,2.7c1.3-1.7,3.5-2.7,6-2.7
		C438.2,494.9,440.9,497.1,440.9,501.9z"/>
	<path d="M464.2,503.1c0,5-3.4,8.2-8.1,8.2c-2.2,0-4-0.8-5.3-2.3v2.1h-3.6v-22.3h3.8v8.2c1.3-1.4,3.1-2.1,5.1-2.1
		C460.8,494.9,464.2,498.1,464.2,503.1z M460.4,503.1c0-3.1-2-5-4.7-5c-2.7,0-4.8,2-4.8,5s2.1,5,4.8,5
		C458.4,508.1,460.4,506.1,460.4,503.1z"/>
	<path d="M468.8,490.2c0-1.3,1-2.2,2.4-2.2c1.4,0,2.4,0.9,2.4,2.2c0,1.3-1,2.3-2.4,2.3C469.8,492.4,468.8,491.4,468.8,490.2z
		 M469.3,495.1h3.8v16h-3.8V495.1z"/>
</g>
<g class="st9">
	<path d="M489.1,510.2c-0.9,0.7-2.2,1.1-3.6,1.1c-3.5,0-5.5-1.9-5.5-5.4v-7.7h-2.6v-3h2.6v-3.7h3.8v3.7h4.3v3h-4.3v7.6
		c0,1.6,0.8,2.4,2.2,2.4c0.8,0,1.5-0.2,2.1-0.7L489.1,510.2z"/>
</g>
<g class="st9">
	<path d="M491.9,503.1c0-4.8,3.6-8.2,8.5-8.2c5,0,8.5,3.4,8.5,8.2s-3.6,8.2-8.5,8.2C495.4,511.3,491.9,507.9,491.9,503.1z
		 M505.1,503.1c0-3.1-2-5-4.8-5c-2.7,0-4.7,2-4.7,5s2,5,4.7,5C503.1,508.1,505.1,506.1,505.1,503.1z"/>
	<path d="M539.5,488.8v22.3h-3.6V509c-1.3,1.5-3.1,2.3-5.3,2.3c-4.6,0-8.1-3.2-8.1-8.2s3.4-8.2,8.1-8.2c2.1,0,3.9,0.7,5.2,2.2v-8.2
		H539.5z M535.8,503.1c0-3.1-2.1-5-4.8-5c-2.7,0-4.8,2-4.8,5s2.1,5,4.8,5C533.7,508.1,535.8,506.1,535.8,503.1z"/>
	<path d="M544.6,503.1c0-4.8,3.6-8.2,8.5-8.2c5,0,8.5,3.4,8.5,8.2s-3.6,8.2-8.5,8.2C548.2,511.3,544.6,507.9,544.6,503.1z
		 M557.9,503.1c0-3.1-2-5-4.8-5c-2.7,0-4.7,2-4.7,5s2,5,4.7,5C555.8,508.1,557.9,506.1,557.9,503.1z"/>
</g>
<g class="st9">
	<path d="M208.6,537.6c0,4.6-3.4,7.5-8.9,7.5h-4.7v6.1H191v-21h8.6C205.1,530.1,208.6,532.9,208.6,537.6z M204.6,537.6
		c0-2.6-1.8-4.2-5.2-4.2h-4.6v8.3h4.6C202.9,541.7,204.6,540.2,204.6,537.6z"/>
</g>
<g class="st9">
	<path d="M212.2,543.1c0-4.8,3.6-8.2,8.5-8.2c5,0,8.5,3.4,8.5,8.2s-3.6,8.2-8.5,8.2C215.8,551.3,212.2,547.9,212.2,543.1z
		 M225.5,543.1c0-3.1-2-5-4.8-5c-2.7,0-4.7,2-4.7,5s2,5,4.7,5C223.5,548.1,225.5,546.1,225.5,543.1z"/>
	<path d="M250.1,528.8v22.3h-3.6V549c-1.3,1.5-3.1,2.3-5.3,2.3c-4.6,0-8.1-3.2-8.1-8.2s3.4-8.2,8.1-8.2c2.1,0,3.9,0.7,5.2,2.2v-8.2
		H250.1z M246.4,543.1c0-3.1-2.1-5-4.8-5c-2.7,0-4.8,2-4.8,5s2.1,5,4.8,5C244.3,548.1,246.4,546.1,246.4,543.1z"/>
	<path d="M271.5,544.3h-12.6c0.5,2.3,2.4,3.8,5.2,3.8c1.8,0,3.2-0.6,4.3-1.7l2,2.3c-1.4,1.7-3.7,2.6-6.4,2.6c-5.4,0-8.8-3.5-8.8-8.2
		s3.5-8.2,8.3-8.2c4.7,0,8.1,3.3,8.1,8.3C271.6,543.5,271.5,543.9,271.5,544.3z M258.9,541.8h9.1c-0.3-2.3-2.1-3.9-4.5-3.9
		C261,537.9,259.3,539.4,258.9,541.8z"/>
	<path d="M285.9,534.9v3.6c-0.3-0.1-0.6-0.1-0.9-0.1c-2.8,0-4.6,1.7-4.6,5v7.8h-3.8v-16h3.6v2.3
		C281.3,535.7,283.3,534.9,285.9,534.9z"/>
</g>
<g class="st9">
	<path d="M316.6,547.8v3.3h-15.7v-21h15.3v3.3h-11.4v5.5h10.1v3.2h-10.1v5.8H316.6z"/>
</g>
<g class="st9">
	<path d="M332,551.1l-4.1-5.5l-4.1,5.5h-4.1l6.2-8.1l-6-7.9h4.2l3.9,5.2l3.9-5.2h4l-6,7.8l6.3,8.2H332z"/>
</g>
<g class="st9">
	<path d="M355,544.3h-12.6c0.5,2.3,2.4,3.8,5.2,3.8c1.8,0,3.2-0.6,4.3-1.7l2,2.3c-1.4,1.7-3.7,2.6-6.4,2.6c-5.4,0-8.8-3.5-8.8-8.2
		s3.5-8.2,8.3-8.2c4.7,0,8.1,3.3,8.1,8.3C355,543.5,355,543.9,355,544.3z M342.4,541.8h9.1c-0.3-2.3-2.1-3.9-4.5-3.9
		C344.5,537.9,342.7,539.4,342.4,541.8z"/>
	<path d="M358.8,543.1c0-4.8,3.6-8.2,8.7-8.2c3.1,0,5.6,1.3,6.8,3.7l-2.9,1.7c-1-1.5-2.4-2.2-4-2.2c-2.8,0-4.9,1.9-4.9,5
		c0,3.1,2.1,5,4.9,5c1.6,0,3-0.7,4-2.2l2.9,1.7c-1.2,2.4-3.7,3.8-6.8,3.8C362.4,551.3,358.8,547.9,358.8,543.1z"/>
	<path d="M394.6,535.1v16H391v-2c-1.2,1.5-3.1,2.2-5.2,2.2c-4.1,0-6.9-2.2-6.9-7.1v-9.1h3.8v8.6c0,2.9,1.4,4.3,3.8,4.3
		c2.6,0,4.4-1.6,4.4-4.8v-8.1H394.6z"/>
	<path d="M410.6,550.2c-0.9,0.7-2.2,1.1-3.6,1.1c-3.5,0-5.5-1.9-5.5-5.4v-7.7h-2.6v-3h2.6v-3.7h3.8v3.7h4.3v3h-4.3v7.6
		c0,1.6,0.8,2.4,2.2,2.4c0.8,0,1.5-0.2,2.1-0.7L410.6,550.2z"/>
	<path d="M414.7,530.2c0-1.3,1-2.2,2.4-2.2c1.4,0,2.4,0.9,2.4,2.2c0,1.3-1,2.3-2.4,2.3C415.7,532.4,414.7,531.4,414.7,530.2z
		 M415.2,535.1h3.8v16h-3.8V535.1z"/>
</g>
<g class="st9">
	<path d="M440.4,535.1l-6.9,16h-3.9l-6.9-16h3.9l5,11.9l5.1-11.9H440.4z"/>
</g>
<g class="st9">
	<path d="M442.5,543.1c0-4.8,3.6-8.2,8.5-8.2c5,0,8.5,3.4,8.5,8.2s-3.6,8.2-8.5,8.2C446.1,551.3,442.5,547.9,442.5,543.1z
		 M455.8,543.1c0-3.1-2-5-4.8-5c-2.7,0-4.7,2-4.7,5s2,5,4.7,5C453.7,548.1,455.8,546.1,455.8,543.1z"/>
</g>
<g class="st9">
	<path d="M463.1,548.8c0-1.5,1.1-2.5,2.5-2.5c1.4,0,2.5,1,2.5,2.5c0,1.4-1.1,2.5-2.5,2.5C464.2,551.3,463.1,550.2,463.1,548.8z"/>
</g>
<g class="st9">
	<path d="M1367.9,115.5v3.3h-15.7v-21h15.3v3.3h-11.4v5.5h10.1v3.2h-10.1v5.8H1367.9z"/>
</g>
<g class="st9">
	<path d="M1371.5,117.2l1.4-2.8c1.4,0.9,3.6,1.6,5.6,1.6c2.4,0,3.4-0.7,3.4-1.8c0-3.1-9.9-0.2-9.9-6.6c0-3,2.7-5,7-5
		c2.1,0,4.6,0.5,6,1.4l-1.4,2.8c-1.5-0.9-3.1-1.2-4.6-1.2c-2.3,0-3.4,0.8-3.4,1.8c0,3.2,9.9,0.4,9.9,6.6c0,3-2.8,5-7.3,5
		C1375.6,119,1372.9,118.2,1371.5,117.2z"/>
	<path d="M1399.9,117.9c-0.9,0.7-2.2,1.1-3.6,1.1c-3.5,0-5.5-1.9-5.5-5.4v-7.7h-2.6v-3h2.6v-3.7h3.8v3.7h4.3v3h-4.3v7.6
		c0,1.6,0.8,2.4,2.2,2.4c0.8,0,1.5-0.2,2.1-0.7L1399.9,117.9z"/>
</g>
<g class="st9">
	<path d="M1417.9,109.4v9.4h-3.5v-2c-0.9,1.4-2.6,2.2-5,2.2c-3.7,0-6-2-6-4.8c0-2.7,1.8-4.8,6.7-4.8h4.1v-0.2c0-2.2-1.3-3.5-4-3.5
		c-1.8,0-3.7,0.6-4.9,1.6l-1.5-2.7c1.7-1.3,4.2-2,6.8-2C1415.2,102.6,1417.9,104.8,1417.9,109.4z M1414.1,113.8v-1.9h-3.9
		c-2.6,0-3.2,1-3.2,2.1c0,1.4,1.1,2.2,3.1,2.2C1411.9,116.3,1413.5,115.4,1414.1,113.8z"/>
</g>
<g class="st9">
	<path d="M1440,96.5v22.3h-3.6v-2.1c-1.3,1.5-3.1,2.3-5.3,2.3c-4.6,0-8.1-3.2-8.1-8.2s3.5-8.2,8.1-8.2c2.1,0,3.9,0.7,5.2,2.2v-8.2
		H1440z M1436.3,110.8c0-3.1-2.1-5-4.8-5s-4.8,2-4.8,5s2.1,5,4.8,5S1436.3,113.8,1436.3,110.8z"/>
	<path d="M1445.1,110.8c0-4.8,3.6-8.2,8.5-8.2c5,0,8.5,3.4,8.5,8.2s-3.6,8.2-8.5,8.2C1448.7,119,1445.1,115.6,1445.1,110.8z
		 M1458.4,110.8c0-3.1-2-5-4.8-5c-2.7,0-4.7,2-4.7,5s2,5,4.7,5C1456.4,115.8,1458.4,113.8,1458.4,110.8z"/>
	<path d="M1476.5,97.9c0-1.3,1-2.2,2.4-2.2s2.4,0.9,2.4,2.2c0,1.3-1,2.3-2.4,2.3C1477.6,100.1,1476.5,99.2,1476.5,97.9z
		 M1477.1,102.8h3.8v16h-3.8V102.8z"/>
	<path d="M1503,109.6v9.2h-3.8v-8.7c0-2.9-1.4-4.2-3.8-4.2c-2.7,0-4.5,1.6-4.5,4.8v8.1h-3.8v-16h3.6v2.1c1.2-1.5,3.2-2.2,5.5-2.2
		C1500.2,102.6,1503,104.8,1503,109.6z"/>
</g>
<g class="st9">
	<path d="M1518.9,117.9c-0.9,0.7-2.2,1.1-3.6,1.1c-3.5,0-5.5-1.9-5.5-5.4v-7.7h-2.6v-3h2.6v-3.7h3.8v3.7h4.3v3h-4.3v7.6
		c0,1.6,0.8,2.4,2.2,2.4c0.8,0,1.5-0.2,2.1-0.7L1518.9,117.9z"/>
</g>
<g class="st9">
	<path d="M1538,112h-12.6c0.5,2.3,2.4,3.8,5.2,3.8c1.8,0,3.2-0.6,4.3-1.7l2,2.3c-1.4,1.7-3.7,2.6-6.4,2.6c-5.4,0-8.8-3.5-8.8-8.2
		s3.5-8.2,8.3-8.2c4.7,0,8.1,3.3,8.1,8.3C1538,111.2,1538,111.6,1538,112z M1525.4,109.5h9.1c-0.3-2.3-2.1-3.9-4.5-3.9
		C1527.5,105.6,1525.7,107.2,1525.4,109.5z"/>
</g>
<g class="st9">
	<path d="M1552.4,102.6v3.6c-0.3-0.1-0.6-0.1-0.9-0.1c-2.8,0-4.6,1.7-4.6,5v7.8h-3.8v-16h3.6v2.3
		C1547.8,103.4,1549.7,102.6,1552.4,102.6z"/>
</g>
<g class="st9">
	<path d="M1572.7,102.8l-6.9,16h-3.9l-6.9-16h3.9l5,11.9l5.1-11.9H1572.7z"/>
</g>
<g class="st9">
	<path d="M1591.1,112h-12.6c0.5,2.3,2.4,3.8,5.2,3.8c1.8,0,3.2-0.6,4.3-1.7l2,2.3c-1.4,1.7-3.7,2.6-6.4,2.6c-5.4,0-8.8-3.5-8.8-8.2
		s3.5-8.2,8.3-8.2c4.7,0,8.1,3.3,8.1,8.3C1591.1,111.2,1591.1,111.6,1591.1,112z M1578.5,109.5h9.1c-0.3-2.3-2.1-3.9-4.5-3.9
		C1580.6,105.6,1578.8,107.2,1578.5,109.5z"/>
</g>
<g class="st9">
	<path d="M1612,109.6v9.2h-3.8v-8.7c0-2.9-1.4-4.2-3.8-4.2c-2.7,0-4.5,1.6-4.5,4.8v8.1h-3.8v-16h3.6v2.1c1.2-1.5,3.2-2.2,5.5-2.2
		C1609.1,102.6,1612,104.8,1612,109.6z"/>
</g>
<g class="st9">
	<path d="M1617.1,110.8c0-4.8,3.6-8.2,8.7-8.2c3.1,0,5.6,1.3,6.8,3.7l-2.9,1.7c-1-1.5-2.4-2.2-4-2.2c-2.8,0-4.9,1.9-4.9,5
		c0,3.1,2.1,5,4.9,5c1.6,0,3-0.7,4-2.2l2.9,1.7c-1.2,2.4-3.7,3.8-6.8,3.8C1620.7,119,1617.1,115.6,1617.1,110.8z"/>
	<path d="M1636.8,97.9c0-1.3,1-2.2,2.4-2.2s2.4,0.9,2.4,2.2c0,1.3-1,2.3-2.4,2.3C1637.9,100.1,1636.8,99.2,1636.8,97.9z
		 M1637.3,102.8h3.8v16h-3.8V102.8z"/>
	<path d="M1646.2,110.8c0-4.8,3.6-8.2,8.5-8.2c5,0,8.6,3.4,8.6,8.2s-3.6,8.2-8.6,8.2C1649.8,119,1646.2,115.6,1646.2,110.8z
		 M1659.5,110.8c0-3.1-2-5-4.8-5c-2.7,0-4.7,2-4.7,5s2,5,4.7,5C1657.4,115.8,1659.5,113.8,1659.5,110.8z"/>
	<path d="M1684.1,109.6v9.2h-3.8v-8.7c0-2.9-1.4-4.2-3.8-4.2c-2.7,0-4.5,1.6-4.5,4.8v8.1h-3.8v-16h3.6v2.1c1.2-1.5,3.2-2.2,5.5-2.2
		C1681.3,102.6,1684.1,104.8,1684.1,109.6z"/>
	<path d="M1689.9,97.9c0-1.3,1-2.2,2.4-2.2c1.4,0,2.4,0.9,2.4,2.2c0,1.3-1,2.3-2.4,2.3C1690.9,100.1,1689.9,99.2,1689.9,97.9z
		 M1690.4,102.8h3.8v16h-3.8V102.8z"/>
	<path d="M1698.8,117.2l1.4-2.8c1.4,0.9,3.6,1.6,5.6,1.6c2.4,0,3.4-0.7,3.4-1.8c0-3.1-9.9-0.2-9.9-6.6c0-3,2.7-5,7-5
		c2.1,0,4.6,0.5,6,1.4l-1.4,2.8c-1.5-0.9-3.1-1.2-4.6-1.2c-2.3,0-3.4,0.8-3.4,1.8c0,3.2,9.9,0.4,9.9,6.6c0,3-2.8,5-7.3,5
		C1702.9,119,1700.2,118.2,1698.8,117.2z"/>
	<path d="M1727.2,117.9c-0.9,0.7-2.2,1.1-3.6,1.1c-3.5,0-5.5-1.9-5.5-5.4v-7.7h-2.6v-3h2.6v-3.7h3.8v3.7h4.3v3h-4.3v7.6
		c0,1.6,0.8,2.4,2.2,2.4c0.8,0,1.5-0.2,2.1-0.7L1727.2,117.9z"/>
	<path d="M1745.2,109.4v9.4h-3.5v-2c-0.9,1.4-2.6,2.2-5,2.2c-3.7,0-6-2-6-4.8c0-2.7,1.8-4.8,6.7-4.8h4.1v-0.2c0-2.2-1.3-3.5-4-3.5
		c-1.8,0-3.7,0.6-4.9,1.6l-1.5-2.7c1.7-1.3,4.2-2,6.8-2C1742.5,102.6,1745.2,104.8,1745.2,109.4z M1741.4,113.8v-1.9h-3.9
		c-2.5,0-3.2,1-3.2,2.1c0,1.4,1.1,2.2,3.1,2.2C1739.2,116.3,1740.8,115.4,1741.4,113.8z"/>
	<path d="M1750.2,116.5c0-1.5,1.1-2.5,2.5-2.5s2.5,1,2.5,2.5c0,1.4-1.1,2.5-2.5,2.5S1750.2,118,1750.2,116.5z"/>
</g>
<g class="st9">
	<path d="M1394.5,488.7l0-13.9l-6.9,11.5h-1.7l-6.9-11.3v13.7h-3.7v-21h3.2l8.3,13.9l8.2-13.9h3.2l0,21H1394.5z"/>
	<path d="M1420.5,472.7v16h-3.6v-2c-1.2,1.5-3.1,2.2-5.2,2.2c-4.1,0-6.9-2.2-6.9-7.1v-9.1h3.8v8.6c0,2.9,1.4,4.3,3.8,4.3
		c2.6,0,4.4-1.6,4.4-4.8v-8.1H1420.5z"/>
</g>
<g class="st9">
	<path d="M1426.9,466.5h3.8v22.3h-3.8V466.5z"/>
</g>
<g class="st9">
	<path d="M1447.5,487.9c-0.9,0.7-2.2,1.1-3.6,1.1c-3.5,0-5.5-1.9-5.5-5.4v-7.7h-2.6v-3h2.6v-3.7h3.8v3.7h4.3v3h-4.3v7.6
		c0,1.6,0.8,2.4,2.2,2.4c0.8,0,1.5-0.2,2.1-0.7L1447.5,487.9z"/>
	<path d="M1451.6,467.8c0-1.3,1-2.2,2.4-2.2c1.4,0,2.4,0.9,2.4,2.2c0,1.3-1,2.3-2.4,2.3C1452.6,470.1,1451.6,469.1,1451.6,467.8z
		 M1452.1,472.7h3.8v16h-3.8V472.7z"/>
	<path d="M1479.3,480.7c0,5-3.5,8.2-8.1,8.2c-2,0-3.8-0.7-5.1-2.2v7.8h-3.8v-21.8h3.6v2.1c1.3-1.5,3.1-2.3,5.3-2.3
		C1475.8,472.5,1479.3,475.8,1479.3,480.7z M1475.5,480.7c0-3.1-2-5-4.7-5s-4.8,2-4.8,5s2.1,5,4.8,5S1475.5,483.8,1475.5,480.7z"/>
	<path d="M1484.3,466.5h3.8v22.3h-3.8V466.5z"/>
	<path d="M1494,467.8c0-1.3,1-2.2,2.4-2.2c1.4,0,2.4,0.9,2.4,2.2c0,1.3-1,2.3-2.4,2.3C1495,470.1,1494,469.1,1494,467.8z
		 M1494.5,472.7h3.8v16h-3.8V472.7z"/>
	<path d="M1503.4,480.7c0-4.8,3.6-8.2,8.7-8.2c3.1,0,5.6,1.3,6.8,3.7l-2.9,1.7c-1-1.5-2.4-2.2-4-2.2c-2.8,0-4.9,1.9-4.9,5
		c0,3.1,2.1,5,4.9,5c1.6,0,3-0.7,4-2.2l2.9,1.7c-1.2,2.4-3.7,3.8-6.8,3.8C1507,489,1503.4,485.5,1503.4,480.7z"/>
</g>
<g class="st9">
	<path d="M1537,479.4v9.4h-3.5v-2c-0.9,1.4-2.6,2.2-5,2.2c-3.7,0-6-2-6-4.8c0-2.7,1.8-4.8,6.7-4.8h4.1v-0.2c0-2.2-1.3-3.5-4-3.5
		c-1.8,0-3.7,0.6-4.9,1.6l-1.5-2.7c1.7-1.3,4.2-2,6.8-2C1534.4,472.5,1537,474.7,1537,479.4z M1533.3,483.7v-1.9h-3.9
		c-2.5,0-3.2,1-3.2,2.1c0,1.4,1.1,2.2,3.1,2.2C1531.1,486.2,1532.6,485.4,1533.3,483.7z"/>
</g>
<g class="st9">
	<path d="M1554.8,483.5l2.9,1.7c-1.2,2.3-3.6,3.7-6.6,3.8l-0.3,1.3c1.8,0.2,2.6,1.2,2.6,2.5c0,1.7-1.6,2.8-4.1,2.8
		c-1.1,0-2-0.2-2.8-0.6l0.7-1.8c0.6,0.3,1.3,0.5,2,0.5c1.1,0,1.6-0.4,1.6-1.1c0-0.6-0.5-1-1.6-1h-0.9l0.8-2.8
		c-4.1-0.7-6.9-3.8-6.9-8.1c0-4.8,3.6-8.2,8.7-8.2c3.1,0,5.6,1.3,6.8,3.7l-2.9,1.7c-1-1.5-2.4-2.2-4-2.2c-2.8,0-4.9,1.9-4.9,5
		c0,3.1,2.1,5,4.9,5C1552.4,485.7,1553.8,485.1,1554.8,483.5z"/>
</g>
<g class="st9">
	<path d="M1575.8,479.4v9.4h-3.5v-2c-0.9,1.4-2.6,2.2-5,2.2c-3.7,0-6-2-6-4.8c0-2.7,1.8-4.8,6.7-4.8h4.1v-0.2c0-2.2-1.3-3.5-4-3.5
		c-1.8,0-3.7,0.6-4.9,1.6l-1.5-2.7c1.7-1.3,4.2-2,6.8-2C1573.1,472.5,1575.8,474.7,1575.8,479.4z M1565.5,470.4h-2
		c0.1-2.5,1.3-4,3.2-4c2,0,3,2,4.1,2c0.8,0,1.4-0.6,1.5-1.7h2c-0.1,2.3-1.3,3.9-3.2,3.9c-2,0-3-2-4.1-2
		C1566.1,468.6,1565.5,469.2,1565.5,470.4z M1572.1,483.7v-1.9h-3.9c-2.5,0-3.2,1-3.2,2.1c0,1.4,1.1,2.2,3.1,2.2
		C1569.8,486.2,1571.4,485.4,1572.1,483.7z"/>
</g>
<g class="st9">
	<path d="M1580.9,480.7c0-4.8,3.6-8.2,8.5-8.2c5,0,8.5,3.4,8.5,8.2s-3.6,8.2-8.5,8.2C1584.5,489,1580.9,485.5,1580.9,480.7z
		 M1594.2,480.7c0-3.1-2-5-4.8-5c-2.7,0-4.7,2-4.7,5s2,5,4.7,5C1592.2,485.7,1594.2,483.8,1594.2,480.7z"/>
	<path d="M1612.4,467.8c0-1.3,1-2.2,2.4-2.2s2.4,0.9,2.4,2.2c0,1.3-1,2.3-2.4,2.3C1613.4,470.1,1612.4,469.1,1612.4,467.8z
		 M1612.9,472.7h3.8v16h-3.8V472.7z"/>
	<path d="M1638.8,479.6v9.2h-3.8V480c0-2.9-1.4-4.2-3.8-4.2c-2.7,0-4.5,1.6-4.5,4.8v8.1h-3.8v-16h3.6v2.1c1.2-1.5,3.2-2.2,5.5-2.2
		C1636,472.5,1638.8,474.7,1638.8,479.6z"/>
	<path d="M1651.3,466.3c1.3,0,2.5,0.3,3.4,0.9l-1,2.8c-0.6-0.4-1.3-0.7-2.1-0.7c-1.6,0-2.4,0.9-2.4,2.6v1h4.4v3h-4.3v12.9h-3.8
		v-12.9h-2.6v-3h2.6v-1C1645.6,468.5,1647.6,466.3,1651.3,466.3z M1659.9,466.5v22.3h-3.8v-22.3H1659.9z"/>
</g>
<g class="st9">
	<path d="M1679.8,479.4v9.4h-3.5v-2c-0.9,1.4-2.6,2.2-5,2.2c-3.7,0-6-2-6-4.8c0-2.7,1.8-4.8,6.7-4.8h4.1v-0.2c0-2.2-1.3-3.5-4-3.5
		c-1.8,0-3.7,0.6-4.9,1.6l-1.5-2.7c1.7-1.3,4.2-2,6.8-2C1677.1,472.5,1679.8,474.7,1679.8,479.4z M1676,483.7v-1.9h-3.9
		c-2.5,0-3.2,1-3.2,2.1c0,1.4,1.1,2.2,3.1,2.2C1673.8,486.2,1675.4,485.4,1676,483.7z"/>
</g>
<g class="st9">
	<path d="M1684.9,480.7c0-4.8,3.6-8.2,8.7-8.2c3.1,0,5.6,1.3,6.8,3.7l-2.9,1.7c-1-1.5-2.4-2.2-4-2.2c-2.8,0-4.9,1.9-4.9,5
		c0,3.1,2.1,5,4.9,5c1.6,0,3-0.7,4-2.2l2.9,1.7c-1.2,2.4-3.7,3.8-6.8,3.8C1688.5,489,1684.9,485.5,1684.9,480.7z"/>
	<path d="M1704.6,467.8c0-1.3,1-2.2,2.4-2.2c1.4,0,2.4,0.9,2.4,2.2c0,1.3-1,2.3-2.4,2.3C1705.6,470.1,1704.6,469.1,1704.6,467.8z
		 M1705.1,472.7h3.8v16h-3.8V472.7z"/>
	<path d="M1714,480.7c0-4.8,3.6-8.2,8.5-8.2c5,0,8.5,3.4,8.5,8.2s-3.6,8.2-8.5,8.2C1717.6,489,1714,485.5,1714,480.7z M1727.3,480.7
		c0-3.1-2-5-4.8-5c-2.7,0-4.7,2-4.7,5s2,5,4.7,5C1725.2,485.7,1727.3,483.8,1727.3,480.7z"/>
	<path d="M1751.9,479.6v9.2h-3.8V480c0-2.9-1.4-4.2-3.8-4.2c-2.7,0-4.5,1.6-4.5,4.8v8.1h-3.8v-16h3.6v2.1c1.2-1.5,3.2-2.2,5.5-2.2
		C1749.1,472.5,1751.9,474.7,1751.9,479.6z"/>
	<path d="M1771.6,479.4v9.4h-3.5v-2c-0.9,1.4-2.6,2.2-5,2.2c-3.7,0-6-2-6-4.8c0-2.7,1.8-4.8,6.7-4.8h4.1v-0.2c0-2.2-1.3-3.5-4-3.5
		c-1.8,0-3.7,0.6-4.9,1.6l-1.5-2.7c1.7-1.3,4.2-2,6.8-2C1768.9,472.5,1771.6,474.7,1771.6,479.4z M1767.9,483.7v-1.9h-3.9
		c-2.5,0-3.2,1-3.2,2.1c0,1.4,1.1,2.2,3.1,2.2C1765.6,486.2,1767.2,485.4,1767.9,483.7z M1765.4,470.5h-3.2l4-4.1h4.4L1765.4,470.5z
		"/>
</g>
<g class="st9">
	<path d="M1787.2,472.5v3.6c-0.3-0.1-0.6-0.1-0.9-0.1c-2.8,0-4.6,1.7-4.6,5v7.8h-3.8v-16h3.6v2.3
		C1782.6,473.4,1784.5,472.5,1787.2,472.5z"/>
</g>
<g class="st9">
	<path d="M1791.4,467.8c0-1.3,1-2.2,2.4-2.2s2.4,0.9,2.4,2.2c0,1.3-1,2.3-2.4,2.3C1792.4,470.1,1791.4,469.1,1791.4,467.8z
		 M1791.9,472.7h3.8v16h-3.8V472.7z"/>
	<path d="M1815.4,479.4v9.4h-3.5v-2c-0.9,1.4-2.6,2.2-5,2.2c-3.7,0-6-2-6-4.8c0-2.7,1.8-4.8,6.7-4.8h4.1v-0.2c0-2.2-1.3-3.5-4-3.5
		c-1.8,0-3.7,0.6-4.9,1.6l-1.5-2.7c1.7-1.3,4.2-2,6.8-2C1812.8,472.5,1815.4,474.7,1815.4,479.4z M1811.7,483.7v-1.9h-3.9
		c-2.5,0-3.2,1-3.2,2.1c0,1.4,1.1,2.2,3.1,2.2C1809.5,486.2,1811.1,485.4,1811.7,483.7z"/>
	<path d="M1847.2,466.5v22.3h-3.6v-2.1c-1.3,1.5-3.1,2.3-5.3,2.3c-4.6,0-8.1-3.2-8.1-8.2s3.5-8.2,8.1-8.2c2.1,0,3.9,0.7,5.2,2.2
		v-8.2H1847.2z M1843.5,480.7c0-3.1-2.1-5-4.8-5s-4.8,2-4.8,5s2.1,5,4.8,5S1843.5,483.8,1843.5,480.7z"/>
	<path d="M1867,479.4v9.4h-3.5v-2c-0.9,1.4-2.6,2.2-5,2.2c-3.7,0-6-2-6-4.8c0-2.7,1.8-4.8,6.7-4.8h4.1v-0.2c0-2.2-1.3-3.5-4-3.5
		c-1.8,0-3.7,0.6-4.9,1.6l-1.5-2.7c1.7-1.3,4.2-2,6.8-2C1864.4,472.5,1867,474.7,1867,479.4z M1863.3,483.7v-1.9h-3.9
		c-2.5,0-3.2,1-3.2,2.1c0,1.4,1.1,2.2,3.1,2.2C1861.1,486.2,1862.7,485.4,1863.3,483.7z"/>
	<path d="M1871.5,487.2l1.4-2.8c1.4,0.9,3.6,1.6,5.6,1.6c2.4,0,3.4-0.7,3.4-1.8c0-3.1-9.9-0.2-9.9-6.6c0-3,2.7-5,7-5
		c2.1,0,4.6,0.5,6,1.4l-1.4,2.8c-1.5-0.9-3.1-1.2-4.6-1.2c-2.3,0-3.4,0.8-3.4,1.8c0,3.2,9.9,0.4,9.9,6.6c0,3-2.8,5-7.3,5
		C1875.6,489,1873,488.2,1871.5,487.2z"/>
</g>
<g class="st9">
	<path d="M1366.5,506.5h3.8v22.3h-3.8V506.5z"/>
	<path d="M1391.6,521.9H1379c0.5,2.3,2.4,3.8,5.2,3.8c1.8,0,3.2-0.6,4.3-1.7l2,2.3c-1.4,1.7-3.7,2.6-6.4,2.6c-5.4,0-8.8-3.5-8.8-8.2
		s3.5-8.2,8.3-8.2c4.7,0,8.1,3.3,8.1,8.3C1391.7,521.1,1391.6,521.6,1391.6,521.9z M1379,519.4h9.1c-0.3-2.3-2.1-3.9-4.5-3.9
		C1381.1,515.5,1379.4,517.1,1379,519.4z"/>
	<path d="M1396.3,507.8c0-1.3,1-2.2,2.4-2.2c1.4,0,2.4,0.9,2.4,2.2c0,1.3-1,2.3-2.4,2.3C1397.3,510.1,1396.3,509.1,1396.3,507.8z
		 M1396.8,512.7h3.8v16h-3.8V512.7z"/>
	<path d="M1405.1,527.2l1.4-2.8c1.4,0.9,3.6,1.6,5.6,1.6c2.4,0,3.4-0.7,3.4-1.8c0-3.1-9.9-0.2-9.9-6.6c0-3,2.7-5,7-5
		c2.1,0,4.6,0.5,6,1.4l-1.4,2.8c-1.5-0.9-3.1-1.2-4.6-1.2c-2.3,0-3.4,0.8-3.4,1.8c0,3.2,9.9,0.4,9.9,6.6c0,3-2.8,5-7.3,5
		C1409.2,529,1406.6,528.2,1405.1,527.2z"/>
	<path d="M1448.7,521.9h-12.6c0.5,2.3,2.4,3.8,5.2,3.8c1.8,0,3.2-0.6,4.3-1.7l2,2.3c-1.4,1.7-3.7,2.6-6.5,2.6
		c-5.4,0-8.8-3.5-8.8-8.2s3.5-8.2,8.3-8.2c4.7,0,8.1,3.3,8.1,8.3C1448.7,521.1,1448.7,521.6,1448.7,521.9z M1436.1,519.4h9.1
		c-0.3-2.3-2.1-3.9-4.5-3.9C1438.2,515.5,1436.4,517.1,1436.1,519.4z"/>
	<path d="M1479.3,506.5v22.3h-3.6v-2.1c-1.3,1.5-3.1,2.3-5.3,2.3c-4.6,0-8.1-3.2-8.1-8.2s3.5-8.2,8.1-8.2c2.1,0,3.9,0.7,5.2,2.2
		v-8.2H1479.3z M1475.6,520.7c0-3.1-2.1-5-4.8-5s-4.8,2-4.8,5s2.1,5,4.8,5S1475.6,523.8,1475.6,520.7z"/>
	<path d="M1500.7,521.9h-12.6c0.5,2.3,2.4,3.8,5.2,3.8c1.8,0,3.2-0.6,4.3-1.7l2,2.3c-1.4,1.7-3.7,2.6-6.4,2.6
		c-5.4,0-8.8-3.5-8.8-8.2s3.5-8.2,8.3-8.2c4.7,0,8.1,3.3,8.1,8.3C1500.8,521.1,1500.8,521.6,1500.7,521.9z M1488.1,519.4h9.1
		c-0.3-2.3-2.1-3.9-4.5-3.9C1490.3,515.5,1488.5,517.1,1488.1,519.4z"/>
	<path d="M1504.1,527.2l1.4-2.8c1.4,0.9,3.6,1.6,5.6,1.6c2.4,0,3.4-0.7,3.4-1.8c0-3.1-9.9-0.2-9.9-6.6c0-3,2.7-5,7-5
		c2.1,0,4.6,0.5,6,1.4l-1.4,2.8c-1.5-0.9-3.1-1.2-4.6-1.2c-2.3,0-3.4,0.8-3.4,1.8c0,3.2,9.9,0.4,9.9,6.6c0,3-2.8,5-7.3,5
		C1508.2,529,1505.5,528.2,1504.1,527.2z"/>
</g>
<g class="st9">
	<path d="M1521.5,520.7c0-4.8,3.6-8.2,8.7-8.2c3.1,0,5.6,1.3,6.8,3.7l-2.9,1.7c-1-1.5-2.4-2.2-4-2.2c-2.8,0-4.9,1.9-4.9,5
		c0,3.1,2.1,5,4.9,5c1.6,0,3-0.7,4-2.2l2.9,1.7c-1.2,2.4-3.7,3.8-6.8,3.8C1525.1,529,1521.5,525.5,1521.5,520.7z"/>
</g>
<g class="st9">
	<path d="M1540.2,520.7c0-4.8,3.6-8.2,8.5-8.2c5,0,8.5,3.4,8.5,8.2s-3.6,8.2-8.5,8.2C1543.8,529,1540.2,525.5,1540.2,520.7z
		 M1553.5,520.7c0-3.1-2-5-4.8-5c-2.7,0-4.7,2-4.7,5s2,5,4.7,5C1551.5,525.7,1553.5,523.8,1553.5,520.7z"/>
	<path d="M1578.1,506.5v22.3h-3.6v-2.1c-1.3,1.5-3.1,2.3-5.3,2.3c-4.6,0-8.1-3.2-8.1-8.2s3.5-8.2,8.1-8.2c2.1,0,3.9,0.7,5.2,2.2
		v-8.2H1578.1z M1574.4,520.7c0-3.1-2.1-5-4.8-5s-4.8,2-4.8,5s2.1,5,4.8,5S1574.4,523.8,1574.4,520.7z"/>
	<path d="M1584,507.8c0-1.3,1-2.2,2.4-2.2c1.4,0,2.4,0.9,2.4,2.2c0,1.3-1,2.3-2.4,2.3C1585,510.1,1584,509.1,1584,507.8z
		 M1584.5,512.7h3.8v16h-3.8V512.7z"/>
	<path d="M1600.9,506.3c1.3,0,2.5,0.3,3.4,0.9l-1,2.8c-0.6-0.4-1.3-0.7-2.1-0.7c-1.6,0-2.4,0.9-2.4,2.6v1h4.4v3h-4.3v12.9h-3.8
		v-12.9h-2.6v-3h2.6v-1C1595.2,508.5,1597.2,506.3,1600.9,506.3z M1607.6,507.8c0-1.3,1-2.2,2.4-2.2s2.4,0.9,2.4,2.2
		c0,1.3-1,2.3-2.4,2.3C1608.6,510.1,1607.6,509.1,1607.6,507.8z M1608.1,512.7h3.8v16h-3.8V512.7z"/>
	<path d="M1617,520.7c0-4.8,3.6-8.2,8.7-8.2c3.1,0,5.6,1.3,6.8,3.7l-2.9,1.7c-1-1.5-2.4-2.2-4-2.2c-2.8,0-4.9,1.9-4.9,5
		c0,3.1,2.1,5,4.9,5c1.6,0,3-0.7,4-2.2l2.9,1.7c-1.2,2.4-3.7,3.8-6.8,3.8C1620.6,529,1617,525.5,1617,520.7z"/>
</g>
<g class="st9">
	<path d="M1650.6,519.4v9.4h-3.5v-2c-0.9,1.4-2.6,2.2-5,2.2c-3.7,0-6-2-6-4.8c0-2.7,1.8-4.8,6.7-4.8h4.1v-0.2c0-2.2-1.3-3.5-4-3.5
		c-1.8,0-3.7,0.6-4.9,1.6l-1.5-2.7c1.7-1.3,4.2-2,6.8-2C1648,512.5,1650.6,514.7,1650.6,519.4z M1646.9,523.7v-1.9h-3.9
		c-2.5,0-3.2,1-3.2,2.1c0,1.4,1.1,2.2,3.1,2.2C1644.7,526.2,1646.3,525.4,1646.9,523.7z"/>
</g>
<g class="st9">
	<path d="M1668.4,523.5l2.9,1.7c-1.2,2.3-3.6,3.7-6.6,3.8l-0.3,1.3c1.8,0.2,2.6,1.2,2.6,2.5c0,1.7-1.6,2.8-4.1,2.8
		c-1.1,0-2-0.2-2.8-0.6l0.7-1.8c0.6,0.3,1.3,0.5,2,0.5c1.1,0,1.6-0.4,1.6-1.1c0-0.6-0.5-1-1.6-1h-0.9l0.8-2.8
		c-4.1-0.7-6.9-3.8-6.9-8.1c0-4.8,3.6-8.2,8.7-8.2c3.1,0,5.6,1.3,6.8,3.7l-2.9,1.7c-1-1.5-2.4-2.2-4-2.2c-2.8,0-4.9,1.9-4.9,5
		c0,3.1,2.1,5,4.9,5C1666,525.7,1667.4,525.1,1668.4,523.5z"/>
</g>
<g class="st9">
	<path d="M1689.4,519.4v9.4h-3.5v-2c-0.9,1.4-2.6,2.2-5,2.2c-3.7,0-6-2-6-4.8c0-2.7,1.8-4.8,6.7-4.8h4.1v-0.2c0-2.2-1.3-3.5-4-3.5
		c-1.8,0-3.7,0.6-4.9,1.6l-1.5-2.7c1.7-1.3,4.2-2,6.8-2C1686.8,512.5,1689.4,514.7,1689.4,519.4z M1679.1,510.4h-2
		c0.1-2.5,1.3-4,3.2-4c2,0,3,2,4.1,2c0.8,0,1.4-0.6,1.5-1.7h2c-0.1,2.3-1.3,3.9-3.2,3.9c-2,0-3-2-4.1-2
		C1679.7,508.6,1679.1,509.2,1679.1,510.4z M1685.7,523.7v-1.9h-3.9c-2.5,0-3.2,1-3.2,2.1c0,1.4,1.1,2.2,3.1,2.2
		C1683.5,526.2,1685,525.4,1685.7,523.7z"/>
</g>
<g class="st9">
	<path d="M1694.5,520.7c0-4.8,3.6-8.2,8.5-8.2c5,0,8.5,3.4,8.5,8.2s-3.6,8.2-8.5,8.2C1698.1,529,1694.5,525.5,1694.5,520.7z
		 M1707.8,520.7c0-3.1-2-5-4.8-5c-2.7,0-4.7,2-4.7,5s2,5,4.7,5C1705.8,525.7,1707.8,523.8,1707.8,520.7z"/>
	<path d="M1742.2,506.5v22.3h-3.6v-2.1c-1.3,1.5-3.1,2.3-5.3,2.3c-4.7,0-8.1-3.2-8.1-8.2s3.4-8.2,8.1-8.2c2.1,0,3.9,0.7,5.2,2.2
		v-8.2H1742.2z M1738.5,520.7c0-3.1-2.1-5-4.8-5c-2.7,0-4.8,2-4.8,5s2.1,5,4.8,5C1736.4,525.7,1738.5,523.8,1738.5,520.7z"/>
	<path d="M1747.3,520.7c0-4.8,3.6-8.2,8.5-8.2c5,0,8.5,3.4,8.5,8.2s-3.6,8.2-8.5,8.2C1750.9,529,1747.3,525.5,1747.3,520.7z
		 M1760.6,520.7c0-3.1-2-5-4.8-5c-2.7,0-4.7,2-4.7,5s2,5,4.7,5C1758.5,525.7,1760.6,523.8,1760.6,520.7z"/>
	<path d="M1794.9,506.5v22.3h-3.6v-2.1c-1.3,1.5-3.1,2.3-5.3,2.3c-4.6,0-8.1-3.2-8.1-8.2s3.5-8.2,8.1-8.2c2.1,0,3.9,0.7,5.2,2.2
		v-8.2H1794.9z M1791.2,520.7c0-3.1-2.1-5-4.8-5s-4.8,2-4.8,5s2.1,5,4.8,5S1791.2,523.8,1791.2,520.7z"/>
	<path d="M1800.8,507.8c0-1.3,1-2.2,2.4-2.2s2.4,0.9,2.4,2.2c0,1.3-1,2.3-2.4,2.3C1801.9,510.1,1800.8,509.1,1800.8,507.8z
		 M1801.3,512.7h3.8v16h-3.8V512.7z"/>
</g>
<g class="st9">
	<path d="M1820.8,512.5v3.6c-0.3-0.1-0.6-0.1-0.9-0.1c-2.8,0-4.7,1.7-4.7,5v7.8h-3.8v-16h3.6v2.3
		C1816.2,513.4,1818.1,512.5,1820.8,512.5z"/>
</g>
<g class="st9">
	<path d="M1840.3,521.9h-12.6c0.5,2.3,2.4,3.8,5.2,3.8c1.8,0,3.2-0.6,4.3-1.7l2,2.3c-1.4,1.7-3.7,2.6-6.5,2.6
		c-5.4,0-8.8-3.5-8.8-8.2s3.5-8.2,8.3-8.2c4.7,0,8.1,3.3,8.1,8.3C1840.4,521.1,1840.3,521.6,1840.3,521.9z M1827.7,519.4h9.1
		c-0.3-2.3-2.1-3.9-4.5-3.9C1829.8,515.5,1828.1,517.1,1827.7,519.4z"/>
	<path d="M1845,507.8c0-1.3,1-2.2,2.4-2.2c1.4,0,2.4,0.9,2.4,2.2c0,1.3-1,2.3-2.4,2.3C1846,510.1,1845,509.1,1845,507.8z
		 M1845.5,512.7h3.8v16h-3.8V512.7z"/>
</g>
<g class="st9">
	<path d="M1865.3,527.9c-0.9,0.7-2.2,1.1-3.6,1.1c-3.5,0-5.5-1.9-5.5-5.4v-7.7h-2.6v-3h2.6v-3.7h3.8v3.7h4.3v3h-4.3v7.6
		c0,1.6,0.8,2.4,2.2,2.4c0.8,0,1.5-0.2,2.1-0.7L1865.3,527.9z"/>
</g>
<g class="st9">
	<path d="M1868,520.7c0-4.8,3.6-8.2,8.5-8.2c5,0,8.5,3.4,8.5,8.2s-3.6,8.2-8.5,8.2C1871.6,529,1868,525.5,1868,520.7z M1881.3,520.7
		c0-3.1-2-5-4.8-5c-2.7,0-4.7,2-4.7,5s2,5,4.7,5C1879.3,525.7,1881.3,523.8,1881.3,520.7z"/>
</g>
<g class="st9">
	<path d="M1888.6,526.5c0-1.5,1.1-2.5,2.5-2.5s2.5,1,2.5,2.5c0,1.4-1.1,2.5-2.5,2.5S1888.6,527.9,1888.6,526.5z"/>
</g>
<g>
	<circle class="st2" cx="639.5" cy="110.7" r="32.8"/>
	<path class="st11" d="M646.1,128.2h-6.7V103c-2.4,2.3-5.3,4-8.6,5.1V102c1.7-0.6,3.6-1.7,5.7-3.2c2-1.6,3.5-3.4,4.2-5.6h5.4V128.2
		L646.1,128.2z"/>
</g>
<g>
	<circle class="st1" cx="1289.1" cy="110.7" r="32.8"/>
	<path class="st11" d="M1300,122v6.2h-21.9c0.2-2.3,0.9-4.6,2.1-6.7s3.5-4.9,7-8.4c2.8-2.8,4.5-4.7,5.2-5.7c0.9-1.4,1.3-2.7,1.3-4.1
		c0-1.5-0.4-2.6-1.1-3.4s-1.8-1.2-3.1-1.2s-2.3,0.4-3.1,1.3c-0.8,0.8-1.2,2.2-1.3,4.2l-6.2-0.7c0.4-3.7,1.5-6.3,3.5-7.9
		c2-1.6,4.4-2.4,7.3-2.4c3.2,0,5.7,0.9,7.6,2.8c1.8,1.8,2.8,4.2,2.8,6.9c0,1.6-0.3,3.1-0.8,4.5c-0.5,1.4-1.4,2.9-2.5,4.5
		c-0.8,1-2.1,2.5-4.1,4.4c-2,1.9-3.2,3.2-3.7,3.8c-0.5,0.6-0.9,1.2-1.3,1.8L1300,122L1300,122z"/>
</g>
<g>
	<circle class="st0" cx="641.5" cy="497.2" r="32.8"/>
	<path class="st11" d="M630.5,505l6.1-0.8c0.2,1.6,0.7,2.9,1.6,3.7c0.8,0.9,1.9,1.3,3.1,1.3c1.3,0,2.4-0.5,3.3-1.5
		c0.9-1,1.3-2.4,1.3-4.2c0-1.6-0.4-3-1.3-3.9c-0.8-1-1.9-1.5-3.1-1.5c-0.8,0-1.8,0.2-2.9,0.5l0.7-5.4c1.7,0,3-0.3,3.9-1.2
		s1.3-1.9,1.3-3.3c0-1.1-0.3-2.1-1-2.8s-1.5-1-2.6-1s-2,0.4-2.8,1.2s-1.2,1.9-1.4,3.4l-5.8-1c0.4-2.1,1-3.7,1.8-5s2-2.2,3.4-2.9
		c1.5-0.7,3.1-1.1,4.9-1.1c3.1,0,5.6,1,7.5,3.1c1.5,1.7,2.3,3.6,2.3,5.7c0,3-1.6,5.4-4.7,7.2c1.9,0.4,3.4,1.4,4.5,2.8
		s1.7,3.2,1.7,5.3c0,3-1.1,5.6-3.2,7.7c-2.1,2.1-4.7,3.2-7.9,3.2c-3,0-5.5-0.9-7.4-2.7C632,510.2,630.9,507.9,630.5,505L630.5,505z"
		/>
</g>
<g>
	<circle class="st3" cx="1289.1" cy="498.2" r="32.8"/>
	<path class="st11" d="M1290.9,502.8v-11.9l-8.4,11.9H1290.9z M1290.9,515.7v-7H1276v-5.9l15.8-22.1h5.9v22.1h4.5v5.9h-4.5v7
		L1290.9,515.7L1290.9,515.7z"/>
</g>
</svg>
