<?xml version="1.0" encoding="utf-8"?>
<!-- Generator: Adobe Illustrator 27.2.0, SVG Export Plug-In . SVG Version: 6.00 Build 0)  -->
<svg version="1.1" id="Layer_1" xmlns="http://www.w3.org/2000/svg" xmlns:xlink="http://www.w3.org/1999/xlink" x="0px" y="0px"
	 viewBox="0 0 977.3 367.8" style="enable-background:new 0 0 977.3 367.8;" xml:space="preserve">
<style type="text/css">
	.st0{fill:#F1F1F1;}
	.st1{clip-path:url(#SVGID_00000163768934587138923990000000702435483045023677_);}
	.st2{fill:#404040;}
	.st3{clip-path:url(#SVGID_00000084519887081219931090000014009889168055677836_);}
	.st4{fill:#231F20;}
</style>
<g>
	<rect x="91.2" y="84.3" class="st0" width="810.2" height="196.3"/>
	<g>
		<defs>
			<rect id="SVGID_1_" x="38" y="49.2" width="88.5" height="69.5"/>
		</defs>
		<clipPath id="SVGID_00000031196744865179220540000000666619151225789347_">
			<use xlink:href="#SVGID_1_"  style="overflow:visible;"/>
		</clipPath>
		<g style="clip-path:url(#SVGID_00000031196744865179220540000000666619151225789347_);">
			<path class="st2" d="M103.9,84c2.6,1.2,4.2,2,4.7,2.5c1.9,1.4,3.8,3.6,5.7,6.6s2.9,6.3,2.9,9.8c0,10.5-4.9,15.8-14.7,15.8
				c-4.5,0-8.4-2.1-11.7-6.3c-3.2-4.2-5.2-9-5.9-14.5c0-0.5-0.1-1-0.2-1.6c-0.1-0.6-0.2-1.1-0.2-1.6c0-5.5,1.5-10.9,4.5-16.3
				c3-5.4,6.6-10.3,10.8-14.7c4.2-4.4,8.3-7.9,12.4-10.6s7.3-3.9,9.7-3.9c1.4,0,2.6,0.5,3.4,1.4c0.8,1,1.2,2,1.2,3.2
				c0,1.7-0.6,2.9-1.8,3.6c-4.8,3.1-9.2,7.2-13.3,12.2C107.4,74.7,104.9,79.5,103.9,84 M57.3,84c2.6,1.2,4.2,2,4.7,2.5
				c1.9,1.4,3.8,3.6,5.7,6.6c1.9,3,2.9,6.3,2.9,9.8c0,10.5-4.9,15.8-14.7,15.8c-4.5,0-8.4-2.1-11.6-6.3c-3.2-4.2-5.2-9-5.9-14.5
				c0-0.5-0.1-1-0.2-1.6C38,95.8,38,95.2,38,94.7c0-5.5,1.5-10.9,4.5-16.3c3-5.4,6.6-10.3,10.8-14.7c4.2-4.4,8.3-7.9,12.4-10.6
				s7.3-3.9,9.7-3.9c1.4,0,2.6,0.5,3.4,1.4c0.8,1,1.2,2,1.2,3.2c0,1.7-0.6,2.9-1.8,3.6c-4.8,3.1-9.2,7.2-13.3,12.2
				C60.8,74.7,58.3,79.4,57.3,84"/>
		</g>
	</g>
	<g>
		<defs>
			<rect id="SVGID_00000101798150838877362400000017081936978750489999_" x="848.8" y="242.6" width="96.6" height="75.9"/>
		</defs>
		<clipPath id="SVGID_00000049912441905335464400000017065168807409202580_">
			<use xlink:href="#SVGID_00000101798150838877362400000017081936978750489999_"  style="overflow:visible;"/>
		</clipPath>
		<g style="clip-path:url(#SVGID_00000049912441905335464400000017065168807409202580_);">
			<path class="st2" d="M873.4,280.6c-1-5-3.8-10.2-8.2-15.6c-4.4-5.5-9.3-9.9-14.5-13.3c-1.3-0.8-2-2.1-2-3.9
				c0-1.3,0.5-2.5,1.4-3.5c0.9-1,2.2-1.6,3.7-1.6c2.6,0,6.1,1.4,10.6,4.3c4.4,2.9,8.9,6.7,13.5,11.5c4.6,4.8,8.5,10.2,11.7,16
				c3.3,5.9,4.9,11.8,4.9,17.8c0,0.5-0.1,1.1-0.2,1.8c-0.1,0.6-0.2,1.2-0.2,1.8c-0.8,6-2.9,11.3-6.5,15.9c-3.5,4.6-7.8,6.9-12.7,6.9
				c-10.7,0-16-5.7-16-17.2c0-3.9,1-7.5,3.1-10.8c2.1-3.3,4.2-5.7,6.3-7.2C868.9,282.8,870.5,281.9,873.4,280.6 M924.3,280.6
				c-1-5-3.8-10.2-8.2-15.6c-4.4-5.5-9.2-9.9-14.5-13.3c-1.3-0.8-2-2.1-2-3.9c0-1.3,0.5-2.5,1.4-3.5c0.9-1,2.2-1.6,3.7-1.6
				c2.6,0,6.1,1.4,10.6,4.3c4.4,2.9,8.9,6.7,13.5,11.5c4.6,4.8,8.5,10.2,11.7,16c3.3,5.9,4.9,11.8,4.9,17.8c0,0.5-0.1,1.1-0.2,1.8
				c-0.1,0.6-0.2,1.2-0.2,1.8c-0.8,6-2.9,11.3-6.5,15.9c-3.5,4.6-7.8,6.9-12.7,6.9c-10.7,0-16-5.7-16-17.2c0-3.9,1-7.5,3.1-10.8
				c2.1-3.3,4.2-5.7,6.3-7.2C919.7,282.8,921.4,281.9,924.3,280.6"/>
		</g>
	</g>
	<g>
		<path class="st4" d="M152.8,139.8h-6.4v-1.7h14.7v1.7h-6.4v16.5h-1.9L152.8,139.8L152.8,139.8z"/>
		<path class="st4" d="M161.2,149.5c0-4.1,3-6.9,7-6.9s6.9,2.9,6.9,6.9s-2.9,7-6.9,7S161.2,153.6,161.2,149.5z M173.3,149.5
			c0-3.2-2.2-5.3-5.1-5.3s-5.1,2.1-5.1,5.3s2.2,5.3,5.1,5.3S173.3,152.7,173.3,149.5z"/>
		<path class="st4" d="M191.6,137.1v19.3h-1.8v-2.7c-1.1,1.9-3,2.8-5.3,2.8c-3.9,0-6.8-2.8-6.8-7s2.9-6.9,6.8-6.9
			c2.2,0,4.1,0.9,5.2,2.7v-8.2L191.6,137.1L191.6,137.1z M189.8,149.5c0-3.2-2.2-5.3-5.1-5.3s-5.1,2.1-5.1,5.3s2.2,5.3,5.1,5.3
			S189.8,152.7,189.8,149.5z"/>
		<path class="st4" d="M195.6,149.5c0-4.1,3-6.9,7-6.9s6.9,2.9,6.9,6.9s-2.9,7-6.9,7S195.6,153.6,195.6,149.5z M207.6,149.5
			c0-3.2-2.2-5.3-5.1-5.3s-5.1,2.1-5.1,5.3s2.2,5.3,5.1,5.3S207.6,152.7,207.6,149.5z"/>
		<path class="st4" d="M219.6,138.4c0-0.7,0.6-1.3,1.4-1.3s1.4,0.6,1.4,1.3c0,0.8-0.6,1.4-1.4,1.4S219.6,139.1,219.6,138.4
			L219.6,138.4z M220.1,142.7h1.9v13.7h-1.9V142.7z"/>
		<path class="st4" d="M249.8,148.4v7.9H248v-7.8c0-2.9-1.5-4.4-3.9-4.4c-2.8,0-4.6,1.8-4.6,4.9v7.2h-1.9v-7.8
			c0-2.9-1.5-4.4-3.9-4.4c-2.8,0-4.6,1.8-4.6,4.9v7.2h-1.9v-13.7h1.8v2.5c1-1.6,2.7-2.6,5-2.6s4,1,4.9,2.9c1-1.8,2.9-2.9,5.4-2.9
			C247.6,142.6,249.8,144.5,249.8,148.4L249.8,148.4z"/>
		<path class="st4" d="M268.9,149.5c0,4.2-2.9,7-6.8,7c-2.2,0-4.1-0.9-5.2-2.7v7.6H255v-18.7h1.8v2.7c1.1-1.8,3-2.8,5.3-2.8
			C266,142.6,268.9,145.4,268.9,149.5L268.9,149.5z M267.1,149.5c0-3.2-2.2-5.3-5.1-5.3s-5.1,2.2-5.1,5.3s2.2,5.3,5.1,5.3
			S267.1,152.7,267.1,149.5z"/>
		<path class="st4" d="M284.8,150.1h-11.4c0.2,2.9,2.4,4.8,5.4,4.8c1.7,0,3.1-0.6,4.2-1.8l1,1.2c-1.2,1.5-3.1,2.2-5.3,2.2
			c-4.3,0-7.2-2.9-7.2-7s2.8-6.9,6.7-6.9s6.6,2.8,6.6,6.9C284.8,149.7,284.8,149.9,284.8,150.1L284.8,150.1z M273.4,148.7h9.7
			c-0.2-2.7-2.2-4.6-4.9-4.6S273.6,146,273.4,148.7L273.4,148.7z"/>
		<path class="st4" d="M295.7,142.6v1.8c-0.2,0-0.3,0-0.4,0c-2.9,0-4.6,1.8-4.6,5v7h-1.9v-13.7h1.8v2.7
			C291.4,143.5,293.2,142.6,295.7,142.6L295.7,142.6z"/>
		<path class="st4" d="M309.5,147.9v8.5h-1.8v-2.1c-0.8,1.4-2.4,2.3-4.7,2.3c-3.1,0-5-1.6-5-4c0-2.1,1.4-3.9,5.3-3.9h4.3v-0.8
			c0-2.3-1.3-3.6-3.9-3.6c-1.8,0-3.4,0.6-4.5,1.6l-0.8-1.4c1.4-1.2,3.4-1.9,5.6-1.9C307.5,142.6,309.5,144.3,309.5,147.9
			L309.5,147.9z M307.7,152.2V150h-4.3c-2.6,0-3.5,1-3.5,2.4c0,1.6,1.3,2.6,3.5,2.6S306.9,154,307.7,152.2L307.7,152.2z"/>
		<path class="st4" d="M321.9,155.5c-0.7,0.6-1.8,1-2.9,1c-2.6,0-4-1.5-4-4v-8.3h-2.4v-1.6h2.4v-3h1.9v3h4.2v1.6h-4.2v8.2
			c0,1.6,0.8,2.5,2.4,2.5c0.8,0,1.5-0.2,2-0.7L321.9,155.5L321.9,155.5z"/>
		<path class="st4" d="M325.1,138.4c0-0.7,0.6-1.3,1.4-1.3s1.4,0.6,1.4,1.3c0,0.8-0.6,1.4-1.4,1.4S325.1,139.1,325.1,138.4
			L325.1,138.4z M325.5,142.7h1.9v13.7h-1.9V142.7z"/>
		<path class="st4" d="M344.2,142.7l-6.1,13.7h-1.9l-6.1-13.7h1.9l5.1,11.6l5.2-11.6H344.2L344.2,142.7z"/>
		<path class="st4" d="M345.2,149.5c0-4.1,3-6.9,7-6.9s6.9,2.9,6.9,6.9s-2.9,7-6.9,7S345.2,153.6,345.2,149.5z M357.3,149.5
			c0-3.2-2.2-5.3-5.1-5.3s-5.1,2.1-5.1,5.3s2.2,5.3,5.1,5.3S357.3,152.7,357.3,149.5z"/>
		<path class="st4" d="M370.1,137.1h4.8v1.5H372v21.3h2.9v1.5h-4.8V137.1L370.1,137.1z"/>
		<path class="st4" d="M376.3,154.8l0.8-1.5c1.1,0.9,2.9,1.5,4.9,1.5c2.6,0,3.7-0.9,3.7-2.2c0-3.6-8.9-0.8-8.9-6.2
			c0-2.2,1.9-3.9,5.4-3.9c1.8,0,3.7,0.5,4.8,1.3l-0.8,1.5c-1.2-0.8-2.6-1.2-4-1.2c-2.5,0-3.6,1-3.6,2.3c0,3.7,8.9,0.9,8.9,6.2
			c0,2.4-2.1,3.9-5.6,3.9C379.6,156.5,377.4,155.7,376.3,154.8L376.3,154.8z"/>
		<path class="st4" d="M403,150.1h-11.4c0.2,2.9,2.4,4.8,5.4,4.8c1.7,0,3.1-0.6,4.2-1.8l1,1.2c-1.2,1.5-3.1,2.2-5.3,2.2
			c-4.3,0-7.2-2.9-7.2-7s2.8-6.9,6.7-6.9s6.6,2.8,6.6,6.9C403,149.7,403,149.9,403,150.1L403,150.1z M391.6,148.7h9.7
			c-0.2-2.7-2.2-4.6-4.9-4.6S391.8,146,391.6,148.7L391.6,148.7z"/>
		<path class="st4" d="M402.1,160.6l0.6-1.4c0.5,0.5,1.3,0.7,2.1,0.7c1.5,0,2.3-0.9,2.3-2.6v-14.7h1.9v14.7c0,2.5-1.4,4.2-4,4.2
			C403.9,161.5,402.8,161.2,402.1,160.6L402.1,160.6z M406.7,138.4c0-0.7,0.6-1.3,1.4-1.3s1.4,0.6,1.4,1.3c0,0.8-0.6,1.4-1.4,1.4
			S406.7,139.1,406.7,138.4L406.7,138.4z"/>
		<path class="st4" d="M424.7,147.9v8.5h-1.8v-2.1c-0.8,1.4-2.4,2.3-4.7,2.3c-3.1,0-5-1.6-5-4c0-2.1,1.4-3.9,5.3-3.9h4.3v-0.8
			c0-2.3-1.3-3.6-3.9-3.6c-1.8,0-3.4,0.6-4.5,1.6l-0.8-1.4c1.4-1.2,3.4-1.9,5.6-1.9C422.7,142.6,424.7,144.3,424.7,147.9
			L424.7,147.9z M422.8,152.2V150h-4.3c-2.6,0-3.5,1-3.5,2.4c0,1.6,1.3,2.6,3.5,2.6S422.1,154,422.8,152.2L422.8,152.2z"/>
		<path class="st4" d="M449.1,148.4v7.9h-1.9v-7.8c0-2.9-1.5-4.4-4.1-4.4c-2.9,0-4.8,1.8-4.8,4.9v7.2h-1.9v-19.3h1.9v8
			c1-1.6,2.8-2.5,5.1-2.5C446.8,142.6,449.1,144.5,449.1,148.4L449.1,148.4z"/>
		<path class="st4" d="M453.9,138.4c0-0.7,0.6-1.3,1.4-1.3s1.4,0.6,1.4,1.3c0,0.8-0.6,1.4-1.4,1.4S453.9,139.1,453.9,138.4
			L453.9,138.4z M454.3,142.7h1.9v13.7h-1.9V142.7z"/>
		<path class="st4" d="M475.4,149.5c0,4.2-2.9,7-6.8,7c-2.2,0-4.1-0.9-5.2-2.7v7.6h-1.9v-18.7h1.8v2.7c1.1-1.8,3-2.8,5.3-2.8
			C472.4,142.6,475.3,145.4,475.4,149.5L475.4,149.5z M473.5,149.5c0-3.2-2.2-5.3-5.1-5.3s-5.1,2.2-5.1,5.3s2.2,5.3,5.1,5.3
			S473.5,152.7,473.5,149.5z"/>
		<path class="st4" d="M478,149.5c0-4.1,3-6.9,7-6.9s6.9,2.9,6.9,6.9s-2.9,7-6.9,7S478,153.6,478,149.5z M490,149.5
			c0-3.2-2.2-5.3-5.1-5.3s-5.1,2.1-5.1,5.3s2.2,5.3,5.1,5.3S490,152.7,490,149.5z"/>
		<path class="st4" d="M503,155.5c-0.7,0.6-1.8,1-2.9,1c-2.6,0-4-1.5-4-4v-8.3h-2.4v-1.6h2.4v-3h1.9v3h4.2v1.6H498v8.2
			c0,1.6,0.8,2.5,2.4,2.5c0.8,0,1.5-0.2,2-0.7L503,155.5L503,155.5z"/>
		<path class="st4" d="M518,150.1h-11.4c0.2,2.9,2.4,4.8,5.4,4.8c1.7,0,3.2-0.6,4.2-1.8l1,1.2c-1.2,1.5-3.1,2.2-5.3,2.2
			c-4.3,0-7.2-2.9-7.2-7s2.8-6.9,6.7-6.9s6.6,2.8,6.6,6.9C518,149.7,518,149.9,518,150.1L518,150.1z M506.6,148.7h9.7
			c-0.2-2.7-2.2-4.6-4.9-4.6S506.8,146,506.6,148.7L506.6,148.7z M511.5,140.6h-1.8l3.6-3.2h2.5L511.5,140.6z"/>
		<path class="st4" d="M529.2,155.5c-0.7,0.6-1.8,1-2.9,1c-2.6,0-4-1.5-4-4v-8.3h-2.4v-1.6h2.4v-3h1.8v3h4.2v1.6h-4.2v8.2
			c0,1.6,0.8,2.5,2.4,2.5c0.8,0,1.5-0.2,2-0.7L529.2,155.5L529.2,155.5z"/>
		<path class="st4" d="M532.3,138.4c0-0.7,0.6-1.3,1.3-1.3s1.3,0.6,1.3,1.3c0,0.8-0.6,1.4-1.3,1.4S532.3,139.1,532.3,138.4
			L532.3,138.4z M532.8,142.7h1.8v13.7h-1.8V142.7z"/>
		<path class="st4" d="M538.6,149.5c0-4.1,3-6.9,7-6.9c2.3,0,4.3,0.9,5.4,2.7l-1.4,0.9c-0.9-1.4-2.4-2-4-2c-3,0-5.2,2.1-5.2,5.3
			s2.2,5.3,5.2,5.3c1.6,0,3-0.6,4-2l1.4,0.9c-1.1,1.8-3,2.7-5.4,2.7C541.5,156.5,538.6,153.6,538.6,149.5z"/>
		<path class="st4" d="M553.2,149.5c0-4.1,3-6.9,7-6.9s6.9,2.9,6.9,6.9s-2.9,7-6.9,7S553.2,153.6,553.2,149.5z M565.2,149.5
			c0-3.2-2.2-5.3-5.1-5.3s-5.1,2.1-5.1,5.3s2.2,5.3,5.1,5.3S565.2,152.7,565.2,149.5z"/>
		<path class="st4" d="M576.3,149.5c0-4.1,3-6.9,7-6.9s6.9,2.9,6.9,6.9s-2.9,7-6.9,7S576.3,153.6,576.3,149.5z M588.3,149.5
			c0-3.2-2.2-5.3-5.1-5.3s-5.1,2.1-5.1,5.3s2.2,5.3,5.1,5.3S588.3,152.7,588.3,149.5z"/>
		<path class="st4" d="M606.5,142.7v13.7h-1.8v-2.5c-1,1.7-2.7,2.6-4.9,2.6c-3.5,0-5.8-1.9-5.8-5.9v-7.9h1.8v7.8
			c0,2.9,1.5,4.4,4.1,4.4c2.9,0,4.7-1.9,4.7-5v-7.2L606.5,142.7L606.5,142.7z"/>
		<path class="st4" d="M617.1,149.5c0-4.1,3-6.9,7-6.9c2.3,0,4.3,0.9,5.4,2.7l-1.4,0.9c-0.9-1.4-2.4-2-4-2c-3,0-5.2,2.1-5.2,5.3
			s2.2,5.3,5.2,5.3c1.6,0,3-0.6,4-2l1.4,0.9c-1.1,1.8-3,2.7-5.4,2.7C620.1,156.5,617.1,153.6,617.1,149.5z"/>
		<path class="st4" d="M643.7,147.9v8.5h-1.8v-2.1c-0.8,1.4-2.4,2.3-4.7,2.3c-3.1,0-5-1.6-5-4c0-2.1,1.3-3.9,5.3-3.9h4.3v-0.8
			c0-2.3-1.3-3.6-3.9-3.6c-1.8,0-3.4,0.6-4.5,1.6l-0.8-1.4c1.4-1.2,3.4-1.9,5.6-1.9C641.7,142.6,643.7,144.3,643.7,147.9
			L643.7,147.9z M641.8,152.2V150h-4.3c-2.7,0-3.5,1-3.5,2.4c0,1.6,1.3,2.6,3.5,2.6S641.1,154,641.8,152.2L641.8,152.2z"/>
		<path class="st4" d="M656.1,155.5c-0.7,0.6-1.8,1-2.9,1c-2.6,0-4-1.5-4-4v-8.3h-2.4v-1.6h2.4v-3h1.8v3h4.2v1.6H651v8.2
			c0,1.6,0.8,2.5,2.4,2.5c0.8,0,1.5-0.2,2-0.7L656.1,155.5L656.1,155.5z"/>
		<path class="st4" d="M671.1,150.1h-11.4c0.2,2.9,2.4,4.8,5.4,4.8c1.7,0,3.2-0.6,4.2-1.8l1,1.2c-1.2,1.5-3.1,2.2-5.3,2.2
			c-4.3,0-7.2-2.9-7.2-7s2.8-6.9,6.7-6.9s6.6,2.8,6.6,6.9C671.1,149.7,671,149.9,671.1,150.1L671.1,150.1z M659.6,148.7h9.7
			c-0.2-2.7-2.2-4.6-4.9-4.6S659.9,146,659.6,148.7z"/>
		<path class="st4" d="M687.7,142.7v12c0,4.7-2.3,6.8-6.8,6.8c-2.5,0-4.9-0.8-6.4-2.1l0.9-1.4c1.3,1.2,3.3,1.9,5.4,1.9
			c3.5,0,5-1.6,5-5v-1.7c-1.1,1.7-3.1,2.6-5.3,2.6c-3.9,0-6.9-2.7-6.9-6.7s3-6.6,6.9-6.6c2.3,0,4.3,0.9,5.4,2.7v-2.6L687.7,142.7
			L687.7,142.7z M685.9,149.2c0-3-2.2-5-5.2-5s-5.2,2-5.2,5s2.2,5,5.2,5S685.9,152.1,685.9,149.2z"/>
		<path class="st4" d="M691.7,149.5c0-4.1,3-6.9,7-6.9s6.9,2.9,6.9,6.9s-2.9,7-6.9,7S691.7,153.6,691.7,149.5z M703.8,149.5
			c0-3.2-2.2-5.3-5.1-5.3s-5.1,2.1-5.1,5.3s2.2,5.3,5.1,5.3S703.8,152.7,703.8,149.5z M700.5,137.4h2.5l-4.2,3.2H697L700.5,137.4
			L700.5,137.4z"/>
		<path class="st4" d="M716.5,142.6v1.8c-0.2,0-0.3,0-0.4,0c-2.9,0-4.6,1.8-4.6,5v7h-1.8v-13.7h1.8v2.7
			C712.2,143.5,714,142.6,716.5,142.6L716.5,142.6z"/>
		<path class="st4" d="M719.6,138.4c0-0.7,0.6-1.3,1.3-1.3s1.3,0.6,1.3,1.3c0,0.8-0.6,1.4-1.3,1.4S719.6,139.1,719.6,138.4
			L719.6,138.4z M720,142.7h1.8v13.7H720V142.7z"/>
		<path class="st4" d="M725.8,149.5c0-4.1,3-6.9,7-6.9c2.3,0,4.3,0.9,5.4,2.7l-1.4,0.9c-0.9-1.4-2.4-2-4-2c-3,0-5.2,2.1-5.2,5.3
			s2.2,5.3,5.2,5.3c1.6,0,3-0.6,4-2l1.4,0.9c-1.1,1.8-3,2.7-5.4,2.7C728.8,156.5,725.8,153.6,725.8,149.5z"/>
		<path class="st4" d="M740.5,149.5c0-4.1,3-6.9,7-6.9s6.9,2.9,6.9,6.9s-2.9,7-6.9,7S740.5,153.6,740.5,149.5z M752.5,149.5
			c0-3.2-2.2-5.3-5.1-5.3s-5.1,2.1-5.1,5.3s2.2,5.3,5.1,5.3S752.5,152.7,752.5,149.5z"/>
		<path class="st4" d="M756.3,161.4v-1.5h2.9v-21.3h-2.9v-1.5h4.8v24.3L756.3,161.4L756.3,161.4z"/>
		<path class="st4" d="M785.3,150.1h-11.4c0.2,2.9,2.4,4.8,5.4,4.8c1.7,0,3.2-0.6,4.2-1.8l1,1.2c-1.2,1.5-3.1,2.2-5.3,2.2
			c-4.3,0-7.2-2.9-7.2-7s2.8-6.9,6.7-6.9s6.6,2.8,6.6,6.9C785.3,149.7,785.3,149.9,785.3,150.1L785.3,150.1z M773.9,148.7h9.7
			c-0.2-2.7-2.2-4.6-4.9-4.6S774.1,146,773.9,148.7z M778.9,140.6H777l3.6-3.2h2.5L778.9,140.6L778.9,140.6z"/>
		<path class="st4" d="M808.3,142.7v13.7h-1.8v-2.5c-1,1.7-2.7,2.6-4.9,2.6c-3.5,0-5.8-1.9-5.8-5.9v-7.9h1.8v7.8
			c0,2.9,1.5,4.4,4.1,4.4c2.9,0,4.7-1.9,4.7-5v-7.2L808.3,142.7L808.3,142.7z"/>
		<path class="st4" d="M836.2,148.4v7.9h-1.8v-7.8c0-2.9-1.5-4.4-3.9-4.4c-2.8,0-4.6,1.8-4.6,4.9v7.2H824v-7.8c0-2.9-1.5-4.4-4-4.4
			c-2.8,0-4.6,1.8-4.6,4.9v7.2h-1.8v-13.7h1.8v2.5c1-1.6,2.7-2.6,5-2.6s4,1,4.9,2.9c1-1.8,2.9-2.9,5.4-2.9
			C834,142.6,836.2,144.5,836.2,148.4L836.2,148.4z"/>
		<path class="st4" d="M147.4,177.1v19.3h-1.8v-2.7c-1.1,1.9-3,2.8-5.3,2.8c-3.9,0-6.8-2.8-6.8-7s2.9-6.9,6.8-6.9
			c2.2,0,4.1,0.9,5.2,2.7v-8.2L147.4,177.1L147.4,177.1z M145.6,189.5c0-3.2-2.2-5.3-5.1-5.3s-5.1,2.1-5.1,5.3s2.2,5.3,5.1,5.3
			S145.6,192.7,145.6,189.5z"/>
		<path class="st4" d="M164.7,190.1h-11.4c0.2,2.9,2.4,4.8,5.4,4.8c1.7,0,3.1-0.6,4.2-1.8l1,1.2c-1.2,1.5-3.1,2.2-5.3,2.2
			c-4.3,0-7.2-2.9-7.2-7s2.8-6.9,6.7-6.9s6.6,2.8,6.6,6.9C164.7,189.7,164.7,189.9,164.7,190.1L164.7,190.1z M153.3,188.7h9.7
			c-0.2-2.7-2.2-4.6-4.9-4.6S153.5,186,153.3,188.7z"/>
		<path class="st4" d="M179.9,182.7l-6.1,13.7H172l-6.1-13.7h1.9l5.1,11.6l5.2-11.6H179.9L179.9,182.7z"/>
		<path class="st4" d="M194.3,190.1h-11.4c0.2,2.9,2.4,4.8,5.4,4.8c1.7,0,3.1-0.6,4.2-1.8l1,1.2c-1.2,1.5-3.1,2.2-5.3,2.2
			c-4.3,0-7.2-2.9-7.2-7s2.8-6.9,6.7-6.9s6.6,2.8,6.6,6.9C194.3,189.7,194.2,189.9,194.3,190.1L194.3,190.1z M182.8,188.7h9.7
			c-0.2-2.7-2.2-4.6-4.9-4.6S183.1,186,182.8,188.7z"/>
		<path class="st4" d="M205.1,182.6v1.8c-0.2,0-0.3,0-0.4,0c-2.9,0-4.6,1.8-4.6,5v7h-1.9v-13.7h1.8v2.7
			C200.9,183.5,202.6,182.6,205.1,182.6L205.1,182.6z"/>
		<path class="st4" d="M228,182.7v18.7h-1.9v-7.6c-1.1,1.8-3,2.7-5.2,2.7c-3.9,0-6.8-2.8-6.8-7s2.9-6.9,6.8-6.9c2.3,0,4.2,1,5.3,2.8
			v-2.7H228z M226.2,189.5c0-3.2-2.2-5.3-5.1-5.3s-5.1,2.2-5.1,5.3s2.2,5.3,5.1,5.3S226.2,192.7,226.2,189.5z"/>
		<path class="st4" d="M245.7,182.7v13.7h-1.8v-2.5c-1,1.7-2.7,2.6-4.9,2.6c-3.5,0-5.8-1.9-5.8-5.9v-7.9h1.9v7.8
			c0,2.9,1.5,4.4,4.1,4.4c2.9,0,4.6-1.9,4.6-5v-7.2L245.7,182.7L245.7,182.7z"/>
		<path class="st4" d="M262.9,190.1h-11.4c0.2,2.9,2.4,4.8,5.4,4.8c1.7,0,3.1-0.6,4.2-1.8l1,1.2c-1.2,1.5-3.1,2.2-5.3,2.2
			c-4.3,0-7.2-2.9-7.2-7s2.8-6.9,6.7-6.9c3.8,0,6.6,2.8,6.6,6.9C263,189.7,262.9,189.9,262.9,190.1L262.9,190.1z M251.5,188.7h9.7
			c-0.2-2.7-2.2-4.6-4.9-4.6S251.7,186,251.5,188.7L251.5,188.7z"/>
		<path class="st4" d="M285.5,190.1H274c0.2,2.9,2.4,4.8,5.4,4.8c1.7,0,3.1-0.6,4.2-1.8l1,1.2c-1.2,1.5-3.1,2.2-5.3,2.2
			c-4.3,0-7.2-2.9-7.2-7s2.8-6.9,6.7-6.9s6.6,2.8,6.6,6.9C285.5,189.7,285.5,189.9,285.5,190.1L285.5,190.1z M274,188.7h9.7
			c-0.2-2.7-2.2-4.6-4.9-4.6S274.3,186,274,188.7L274,188.7z"/>
		<path class="st4" d="M312,188.4v7.9h-1.9v-7.8c0-2.9-1.5-4.4-3.9-4.4c-2.8,0-4.6,1.8-4.6,4.9v7.2h-1.9v-7.8c0-2.9-1.5-4.4-4-4.4
			c-2.8,0-4.6,1.8-4.6,4.9v7.2h-1.9v-13.7h1.8v2.5c1-1.6,2.7-2.6,5-2.6s4,1,4.9,2.9c1-1.8,2.9-2.9,5.4-2.9
			C309.8,182.6,312,184.5,312,188.4L312,188.4z"/>
		<path class="st4" d="M327.6,187.9v8.5h-1.8v-2.1c-0.8,1.4-2.4,2.3-4.7,2.3c-3.1,0-5-1.6-5-4c0-2.1,1.4-3.9,5.3-3.9h4.3v-0.8
			c0-2.3-1.3-3.6-3.9-3.6c-1.8,0-3.4,0.6-4.5,1.6l-0.8-1.4c1.4-1.2,3.4-1.9,5.6-1.9C325.6,182.6,327.6,184.3,327.6,187.9
			L327.6,187.9z M325.7,192.2V190h-4.3c-2.6,0-3.5,1-3.5,2.4c0,1.6,1.3,2.6,3.5,2.6S325,194,325.7,192.2L325.7,192.2z"/>
		<path class="st4" d="M345.4,188.4v7.9h-1.9v-7.8c0-2.9-1.5-4.4-4.1-4.4c-2.9,0-4.8,1.8-4.8,4.9v7.2h-1.9v-13.7h1.8v2.5
			c1-1.7,2.8-2.6,5.2-2.6C343.1,182.6,345.4,184.5,345.4,188.4L345.4,188.4z"/>
		<path class="st4" d="M360.9,187.9v8.5h-1.8v-2.1c-0.8,1.4-2.4,2.3-4.7,2.3c-3.1,0-5-1.6-5-4c0-2.1,1.4-3.9,5.3-3.9h4.3v-0.8
			c0-2.3-1.3-3.6-3.9-3.6c-1.8,0-3.4,0.6-4.5,1.6l-0.8-1.4c1.4-1.2,3.4-1.9,5.6-1.9C358.9,182.6,360.9,184.3,360.9,187.9
			L360.9,187.9z M359.1,192.2V190h-4.3c-2.6,0-3.5,1-3.5,2.4c0,1.6,1.3,2.6,3.5,2.6S358.3,194,359.1,192.2L359.1,192.2z"/>
		<path class="st4" d="M385.2,177.1v19.3h-1.8v-2.7c-1.1,1.9-3,2.8-5.3,2.8c-3.9,0-6.8-2.8-6.8-7s2.9-6.9,6.8-6.9
			c2.2,0,4.1,0.9,5.2,2.7v-8.2L385.2,177.1L385.2,177.1z M383.4,189.5c0-3.2-2.2-5.3-5.1-5.3s-5.1,2.1-5.1,5.3s2.2,5.3,5.1,5.3
			S383.4,192.7,383.4,189.5z"/>
		<path class="st4" d="M402.5,190.1H391c0.2,2.9,2.4,4.8,5.4,4.8c1.7,0,3.1-0.6,4.2-1.8l1,1.2c-1.2,1.5-3.1,2.2-5.3,2.2
			c-4.3,0-7.2-2.9-7.2-7s2.8-6.9,6.7-6.9s6.6,2.8,6.6,6.9C402.5,189.7,402.5,189.9,402.5,190.1L402.5,190.1z M391,188.7h9.7
			c-0.2-2.7-2.2-4.6-4.9-4.6S391.3,186,391,188.7L391,188.7z"/>
		<path class="st4" d="M425.4,182.7v13.7h-1.8v-2.5c-1,1.7-2.7,2.6-4.9,2.6c-3.5,0-5.8-1.9-5.8-5.9v-7.9h1.9v7.8
			c0,2.9,1.5,4.4,4.1,4.4c2.9,0,4.6-1.9,4.6-5v-7.2L425.4,182.7L425.4,182.7z"/>
		<path class="st4" d="M453.4,188.4v7.9h-1.9v-7.8c0-2.9-1.5-4.4-3.9-4.4c-2.8,0-4.6,1.8-4.6,4.9v7.2h-1.9v-7.8c0-2.9-1.5-4.4-4-4.4
			c-2.8,0-4.6,1.8-4.6,4.9v7.2h-1.9v-13.7h1.8v2.5c1-1.6,2.7-2.6,5-2.6s4,1,4.9,2.9c1-1.8,2.9-2.9,5.4-2.9
			C451.2,182.6,453.3,184.5,453.4,188.4L453.4,188.4z"/>
		<path class="st4" d="M468.9,187.9v8.5h-1.8v-2.1c-0.8,1.4-2.4,2.3-4.7,2.3c-3.1,0-5-1.6-5-4c0-2.1,1.4-3.9,5.3-3.9h4.3v-0.8
			c0-2.3-1.3-3.6-3.9-3.6c-1.8,0-3.4,0.6-4.5,1.6l-0.8-1.4c1.4-1.2,3.4-1.9,5.6-1.9C466.9,182.6,468.9,184.3,468.9,187.9
			L468.9,187.9z M467.1,192.2V190h-4.3c-2.6,0-3.5,1-3.5,2.4c0,1.6,1.3,2.6,3.5,2.6S466.3,194,467.1,192.2L467.1,192.2z"/>
		<path class="st4" d="M492.2,182.7l-6.1,13.7h-1.9l-6.1-13.7h1.9l5.1,11.6l5.2-11.6H492.2L492.2,182.7z"/>
		<path class="st4" d="M493.3,189.5c0-4.1,3-6.9,7-6.9s6.9,2.9,6.9,6.9s-2.9,7-6.9,7S493.3,193.6,493.3,189.5z M505.3,189.5
			c0-3.2-2.2-5.3-5.1-5.3s-5.1,2.1-5.1,5.3s2.2,5.3,5.1,5.3S505.3,192.7,505.3,189.5z"/>
		<path class="st4" d="M523.7,188.4v7.9h-1.8v-7.8c0-2.9-1.5-4.4-4.1-4.4c-2.9,0-4.8,1.8-4.8,4.9v7.2h-1.9v-13.7h1.8v2.5
			c1-1.7,2.8-2.6,5.2-2.6C521.5,182.6,523.7,184.5,523.7,188.4L523.7,188.4z"/>
		<path class="st4" d="M536.2,195.5c-0.7,0.6-1.8,1-2.9,1c-2.6,0-4-1.5-4-4v-8.3h-2.4v-1.6h2.4v-3h1.8v3h4.2v1.6h-4.2v8.2
			c0,1.6,0.8,2.5,2.4,2.5c0.8,0,1.5-0.2,2-0.7L536.2,195.5L536.2,195.5z"/>
		<path class="st4" d="M550,187.9v8.5h-1.8v-2.1c-0.8,1.4-2.4,2.3-4.7,2.3c-3.1,0-5-1.6-5-4c0-2.1,1.3-3.9,5.3-3.9h4.3v-0.8
			c0-2.3-1.3-3.6-3.9-3.6c-1.8,0-3.4,0.6-4.5,1.6l-0.8-1.4c1.4-1.2,3.4-1.9,5.6-1.9C548,182.6,550,184.3,550,187.9L550,187.9z
			 M548.2,192.2V190h-4.3c-2.7,0-3.5,1-3.5,2.4c0,1.6,1.3,2.6,3.5,2.6S547.5,194,548.2,192.2L548.2,192.2z"/>
		<path class="st4" d="M567.8,177.1v19.3H566v-2.7c-1.1,1.9-3,2.8-5.3,2.8c-3.9,0-6.8-2.8-6.8-7s2.9-6.9,6.8-6.9
			c2.2,0,4.1,0.9,5.2,2.7v-8.2L567.8,177.1L567.8,177.1z M566,189.5c0-3.2-2.2-5.3-5.1-5.3s-5.1,2.1-5.1,5.3s2.2,5.3,5.1,5.3
			S566,192.7,566,189.5z"/>
		<path class="st4" d="M585,190.1h-11.4c0.2,2.9,2.4,4.8,5.4,4.8c1.7,0,3.2-0.6,4.2-1.8l1,1.2c-1.2,1.5-3.1,2.2-5.3,2.2
			c-4.3,0-7.2-2.9-7.2-7s2.8-6.9,6.7-6.9s6.6,2.8,6.6,6.9C585.1,189.7,585,189.9,585,190.1L585,190.1z M573.6,188.7h9.7
			c-0.2-2.7-2.2-4.6-4.9-4.6S573.9,186,573.6,188.7z"/>
		<path class="st4" d="M593.8,194.8l0.8-1.5c1.1,0.9,2.9,1.5,4.9,1.5c2.6,0,3.7-0.9,3.7-2.2c0-3.6-8.9-0.8-8.9-6.2
			c0-2.2,1.9-3.9,5.4-3.9c1.8,0,3.7,0.5,4.8,1.3l-0.8,1.5c-1.2-0.8-2.6-1.2-4-1.2c-2.5,0-3.6,1-3.6,2.3c0,3.7,8.9,0.9,8.9,6.2
			c0,2.4-2.1,3.9-5.6,3.9C597.1,196.5,594.9,195.7,593.8,194.8L593.8,194.8z"/>
		<path class="st4" d="M620.9,182.7v13.7h-1.8v-2.5c-1,1.7-2.7,2.6-4.9,2.6c-3.5,0-5.8-1.9-5.8-5.9v-7.9h1.8v7.8
			c0,2.9,1.5,4.4,4.1,4.4c2.9,0,4.7-1.9,4.7-5v-7.2L620.9,182.7L620.9,182.7z"/>
		<path class="st4" d="M640.1,189.5c0,4.2-2.9,7-6.8,7c-2.2,0-4.1-0.9-5.2-2.7v7.6h-1.8v-18.7h1.8v2.7c1.1-1.8,3-2.8,5.3-2.8
			C637.2,182.6,640.1,185.4,640.1,189.5L640.1,189.5z M638.3,189.5c0-3.2-2.2-5.3-5.1-5.3s-5.1,2.2-5.1,5.3s2.2,5.3,5.1,5.3
			S638.3,192.7,638.3,189.5z"/>
		<path class="st4" d="M651,182.6v1.8c-0.2,0-0.3,0-0.4,0c-2.9,0-4.6,1.8-4.6,5v7h-1.8v-13.7h1.8v2.7
			C646.8,183.5,648.5,182.6,651,182.6L651,182.6z"/>
		<path class="st4" d="M664.8,187.9v8.5h-1.8v-2.1c-0.8,1.4-2.4,2.3-4.7,2.3c-3.1,0-5-1.6-5-4c0-2.1,1.3-3.9,5.3-3.9h4.3v-0.8
			c0-2.3-1.3-3.6-3.9-3.6c-1.8,0-3.4,0.6-4.5,1.6l-0.8-1.4c1.4-1.2,3.4-1.9,5.6-1.9C662.8,182.6,664.8,184.3,664.8,187.9
			L664.8,187.9z M663,192.2V190h-4.3c-2.7,0-3.5,1-3.5,2.4c0,1.6,1.3,2.6,3.5,2.6S662.3,194,663,192.2L663,192.2z"/>
		<path class="st4" d="M668.7,189.5c0-4.1,3-6.9,7-6.9s6.9,2.9,6.9,6.9s-2.9,7-6.9,7S668.7,193.6,668.7,189.5z M680.8,189.5
			c0-3.2-2.2-5.3-5.1-5.3s-5.1,2.1-5.1,5.3s2.2,5.3,5.1,5.3S680.8,192.7,680.8,189.5z"/>
		<path class="st4" d="M693.5,182.6v1.8c-0.2,0-0.3,0-0.4,0c-2.9,0-4.6,1.8-4.6,5v7h-1.8v-13.7h1.8v2.7
			C689.2,183.5,691,182.6,693.5,182.6L693.5,182.6z"/>
		<path class="st4" d="M709.4,177.1v19.3h-1.8v-2.7c-1.1,1.9-3,2.8-5.3,2.8c-3.9,0-6.8-2.8-6.8-7s2.9-6.9,6.8-6.9
			c2.2,0,4.1,0.9,5.2,2.7v-8.2L709.4,177.1L709.4,177.1z M707.6,189.5c0-3.2-2.2-5.3-5.1-5.3s-5.1,2.1-5.1,5.3s2.2,5.3,5.1,5.3
			S707.6,192.7,707.6,189.5z"/>
		<path class="st4" d="M726.7,190.1h-11.4c0.2,2.9,2.4,4.8,5.4,4.8c1.7,0,3.2-0.6,4.2-1.8l1,1.2c-1.2,1.5-3.1,2.2-5.3,2.2
			c-4.3,0-7.2-2.9-7.2-7s2.8-6.9,6.7-6.9s6.6,2.8,6.6,6.9C726.7,189.7,726.6,189.9,726.7,190.1L726.7,190.1z M715.2,188.7h9.7
			c-0.2-2.7-2.2-4.6-4.9-4.6S715.5,186,715.2,188.7z"/>
		<path class="st4" d="M743.2,188.4v7.9h-1.8v-7.8c0-2.9-1.5-4.4-4.1-4.4c-2.9,0-4.8,1.8-4.8,4.9v7.2h-1.8v-13.7h1.8v2.5
			c1-1.7,2.8-2.6,5.2-2.6C740.9,182.6,743.2,184.5,743.2,188.4L743.2,188.4z"/>
		<path class="st4" d="M758.8,187.9v8.5H757v-2.1c-0.8,1.4-2.4,2.3-4.7,2.3c-3.1,0-5-1.6-5-4c0-2.1,1.3-3.9,5.3-3.9h4.3v-0.8
			c0-2.3-1.3-3.6-3.9-3.6c-1.8,0-3.4,0.6-4.5,1.6l-0.8-1.4c1.4-1.2,3.4-1.9,5.6-1.9C756.8,182.6,758.8,184.3,758.8,187.9
			L758.8,187.9z M756.9,192.2V190h-4.3c-2.7,0-3.5,1-3.5,2.4c0,1.6,1.3,2.6,3.5,2.6S756.2,194,756.9,192.2L756.9,192.2z"/>
		<path class="st4" d="M776.5,177.1v19.3h-1.8v-2.7c-1.1,1.9-3,2.8-5.3,2.8c-3.9,0-6.8-2.8-6.8-7s2.9-6.9,6.8-6.9
			c2.2,0,4.1,0.9,5.2,2.7v-8.2L776.5,177.1L776.5,177.1z M774.7,189.5c0-3.2-2.2-5.3-5.1-5.3s-5.1,2.1-5.1,5.3s2.2,5.3,5.1,5.3
			S774.7,192.7,774.7,189.5z"/>
		<path class="st4" d="M792.2,187.9v8.5h-1.8v-2.1c-0.8,1.4-2.4,2.3-4.7,2.3c-3.1,0-5-1.6-5-4c0-2.1,1.3-3.9,5.3-3.9h4.3v-0.8
			c0-2.3-1.3-3.6-3.9-3.6c-1.8,0-3.4,0.6-4.5,1.6l-0.8-1.4c1.4-1.2,3.4-1.9,5.6-1.9C790.2,182.6,792.2,184.3,792.2,187.9
			L792.2,187.9z M790.4,192.2V190h-4.3c-2.7,0-3.5,1-3.5,2.4c0,1.6,1.3,2.6,3.5,2.6S789.6,194,790.4,192.2L790.4,192.2z"/>
		<path class="st4" d="M815.9,190.1h-11.4c0.2,2.9,2.4,4.8,5.4,4.8c1.7,0,3.2-0.6,4.2-1.8l1,1.2c-1.2,1.5-3.1,2.2-5.3,2.2
			c-4.3,0-7.2-2.9-7.2-7s2.8-6.9,6.7-6.9s6.6,2.8,6.6,6.9C816,189.7,815.9,189.9,815.9,190.1L815.9,190.1z M804.5,188.7h9.7
			c-0.2-2.7-2.2-4.6-4.9-4.6S804.7,186,804.5,188.7z"/>
		<path class="st4" d="M824.7,194.8l0.8-1.5c1.1,0.9,2.9,1.5,4.9,1.5c2.6,0,3.7-0.9,3.7-2.2c0-3.6-8.9-0.8-8.9-6.2
			c0-2.2,1.9-3.9,5.4-3.9c1.8,0,3.7,0.5,4.8,1.3l-0.8,1.5c-1.2-0.8-2.6-1.2-4-1.2c-2.5,0-3.6,1-3.6,2.3c0,3.7,8.9,0.9,8.9,6.2
			c0,2.4-2.1,3.9-5.6,3.9C828,196.5,825.8,195.7,824.7,194.8L824.7,194.8z"/>
		<path class="st4" d="M851.4,190.1h-11.4c0.2,2.9,2.4,4.8,5.4,4.8c1.7,0,3.2-0.6,4.2-1.8l1,1.2c-1.2,1.5-3.1,2.2-5.3,2.2
			c-4.3,0-7.2-2.9-7.2-7s2.8-6.9,6.7-6.9s6.6,2.8,6.6,6.9C851.4,189.7,851.4,189.9,851.4,190.1L851.4,190.1z M839.9,188.7h9.7
			c-0.2-2.7-2.2-4.6-4.9-4.6S840.2,186,839.9,188.7z"/>
		<path class="st4" d="M272.5,217.1v19.3h-1.8v-2.7c-1.1,1.9-3,2.8-5.3,2.8c-3.9,0-6.8-2.8-6.8-7s2.9-6.9,6.8-6.9
			c2.2,0,4.1,0.9,5.2,2.7v-8.2L272.5,217.1L272.5,217.1z M270.6,229.5c0-3.2-2.2-5.3-5.1-5.3s-5.1,2.1-5.1,5.3s2.2,5.3,5.1,5.3
			S270.6,232.7,270.6,229.5z"/>
		<path class="st4" d="M277.4,218.4c0-0.7,0.6-1.3,1.4-1.3s1.4,0.6,1.4,1.3c0,0.8-0.6,1.4-1.4,1.4S277.4,219.1,277.4,218.4
			L277.4,218.4z M277.8,222.7h1.9v13.7h-1.9V222.7z"/>
		<path class="st4" d="M291.9,222.6v1.8c-0.2,0-0.3,0-0.4,0c-2.9,0-4.6,1.8-4.6,5v7H285v-13.7h1.8v2.7
			C287.6,223.5,289.4,222.6,291.9,222.6L291.9,222.6z"/>
		<path class="st4" d="M295,218.4c0-0.7,0.6-1.3,1.4-1.3s1.4,0.6,1.4,1.3c0,0.8-0.6,1.4-1.4,1.4S295,219.1,295,218.4L295,218.4z
			 M295.4,222.7h1.9v13.7h-1.9V222.7z"/>
		<path class="st4" d="M315.3,222.7v12c0,4.7-2.3,6.8-6.8,6.8c-2.5,0-4.9-0.8-6.4-2.1l0.9-1.4c1.3,1.2,3.3,1.9,5.4,1.9
			c3.5,0,5-1.6,5-5v-1.7c-1.1,1.7-3.1,2.6-5.3,2.6c-3.9,0-6.9-2.7-6.9-6.7s3-6.6,6.9-6.6c2.3,0,4.3,0.9,5.4,2.7v-2.6L315.3,222.7
			L315.3,222.7z M313.5,229.2c0-3-2.2-5-5.2-5s-5.2,2-5.2,5s2.2,5,5.2,5S313.5,232.1,313.5,229.2z"/>
		<path class="st4" d="M332.6,230.1h-11.4c0.2,2.9,2.4,4.8,5.4,4.8c1.7,0,3.1-0.6,4.2-1.8l1,1.2c-1.2,1.5-3.1,2.2-5.3,2.2
			c-4.3,0-7.2-2.9-7.2-7s2.8-6.9,6.7-6.9s6.6,2.8,6.6,6.9C332.6,229.7,332.6,229.9,332.6,230.1L332.6,230.1z M321.1,228.7h9.7
			c-0.2-2.7-2.2-4.6-4.9-4.6S321.4,226,321.1,228.7L321.1,228.7z"/>
		<path class="st4" d="M353.5,227.9v8.5h-1.8v-2.1c-0.8,1.4-2.4,2.3-4.7,2.3c-3.1,0-5-1.6-5-4c0-2.1,1.4-3.9,5.3-3.9h4.3v-0.8
			c0-2.3-1.3-3.6-3.9-3.6c-1.8,0-3.4,0.6-4.5,1.6l-0.8-1.4c1.4-1.2,3.4-1.9,5.6-1.9C351.5,222.6,353.5,224.3,353.5,227.9
			L353.5,227.9z M351.6,232.2V230h-4.3c-2.6,0-3.5,1-3.5,2.4c0,1.6,1.3,2.6,3.5,2.6S350.9,234,351.6,232.2L351.6,232.2z"/>
		<path class="st4" d="M377.7,222.7v13.7h-1.8v-2.5c-1,1.7-2.7,2.6-4.9,2.6c-3.5,0-5.8-1.9-5.8-5.9v-7.9h1.9v7.8
			c0,2.9,1.5,4.4,4.1,4.4c2.9,0,4.6-1.9,4.6-5v-7.2L377.7,222.7L377.7,222.7z"/>
		<path class="st4" d="M405.6,228.4v7.9h-1.9v-7.8c0-2.9-1.5-4.4-3.9-4.4c-2.8,0-4.6,1.8-4.6,4.9v7.2h-1.9v-7.8c0-2.9-1.5-4.4-4-4.4
			c-2.8,0-4.6,1.8-4.6,4.9v7.2H383v-13.7h1.8v2.5c1-1.6,2.7-2.6,5-2.6s4,1,4.9,2.9c1-1.8,2.9-2.9,5.4-2.9
			C403.4,222.6,405.6,224.5,405.6,228.4L405.6,228.4z"/>
		<path class="st4" d="M421.1,227.9v8.5h-1.8v-2.1c-0.8,1.4-2.4,2.3-4.7,2.3c-3.1,0-5-1.6-5-4c0-2.1,1.4-3.9,5.3-3.9h4.3v-0.8
			c0-2.3-1.3-3.6-3.9-3.6c-1.8,0-3.4,0.6-4.5,1.6l-0.8-1.4c1.4-1.2,3.4-1.9,5.6-1.9C419.2,222.6,421.2,224.3,421.1,227.9
			L421.1,227.9z M419.3,232.2V230H415c-2.6,0-3.5,1-3.5,2.4c0,1.6,1.3,2.6,3.5,2.6S418.6,234,419.3,232.2L419.3,232.2z"/>
		<path class="st4" d="M444.5,222.7l-6.1,13.7h-1.9l-6.1-13.7h1.9l5.1,11.6l5.2-11.6H444.5L444.5,222.7z"/>
		<path class="st4" d="M445.5,229.5c0-4.1,3-6.9,7-6.9s6.9,2.9,6.9,6.9s-2.9,7-6.9,7S445.5,233.6,445.5,229.5z M457.5,229.5
			c0-3.2-2.2-5.3-5.1-5.3s-5.1,2.1-5.1,5.3s2.2,5.3,5.1,5.3S457.5,232.7,457.5,229.5z"/>
		<path class="st4" d="M476,228.4v7.9h-1.9v-7.8c0-2.9-1.5-4.4-4.1-4.4c-2.9,0-4.8,1.8-4.8,4.9v7.2h-1.9v-13.7h1.8v2.5
			c1-1.7,2.8-2.6,5.2-2.6C473.7,222.6,476,224.5,476,228.4L476,228.4z"/>
		<path class="st4" d="M488.4,235.5c-0.7,0.6-1.8,1-2.9,1c-2.6,0-4-1.5-4-4v-8.3h-2.4v-1.6h2.4v-3h1.9v3h4.2v1.6h-4.2v8.2
			c0,1.6,0.8,2.5,2.4,2.5c0.8,0,1.5-0.2,2-0.7L488.4,235.5L488.4,235.5z"/>
		<path class="st4" d="M502.3,227.9v8.5h-1.8v-2.1c-0.8,1.4-2.4,2.3-4.7,2.3c-3.1,0-5-1.6-5-4c0-2.1,1.4-3.9,5.3-3.9h4.3v-0.8
			c0-2.3-1.3-3.6-3.9-3.6c-1.8,0-3.4,0.6-4.5,1.6l-0.8-1.4c1.4-1.2,3.4-1.9,5.6-1.9C500.3,222.6,502.3,224.3,502.3,227.9
			L502.3,227.9z M500.4,232.2V230h-4.3c-2.6,0-3.5,1-3.5,2.4c0,1.6,1.3,2.6,3.5,2.6S499.7,234,500.4,232.2L500.4,232.2z"/>
		<path class="st4" d="M520,217.1v19.3h-1.8v-2.7c-1.1,1.9-3,2.8-5.3,2.8c-3.9,0-6.8-2.8-6.8-7s2.9-6.9,6.8-6.9
			c2.2,0,4.1,0.9,5.2,2.7v-8.2L520,217.1L520,217.1z M518.2,229.5c0-3.2-2.2-5.3-5.1-5.3s-5.1,2.1-5.1,5.3s2.2,5.3,5.1,5.3
			C516.1,234.9,518.2,232.7,518.2,229.5z"/>
		<path class="st4" d="M537.3,230.1h-11.4c0.2,2.9,2.4,4.8,5.4,4.8c1.7,0,3.2-0.6,4.2-1.8l1,1.2c-1.2,1.5-3.1,2.2-5.3,2.2
			c-4.3,0-7.2-2.9-7.2-7s2.8-6.9,6.7-6.9s6.6,2.8,6.6,6.9C537.3,229.7,537.3,229.9,537.3,230.1L537.3,230.1z M525.8,228.7h9.7
			c-0.2-2.7-2.2-4.6-4.9-4.6S526.1,226,525.8,228.7z"/>
		<path class="st4" d="M546,234.8l0.8-1.5c1.1,0.9,2.9,1.5,4.9,1.5c2.6,0,3.7-0.9,3.7-2.2c0-3.6-8.9-0.8-8.9-6.2
			c0-2.2,1.9-3.9,5.4-3.9c1.8,0,3.7,0.5,4.8,1.3l-0.8,1.5c-1.2-0.8-2.6-1.2-4-1.2c-2.5,0-3.6,1-3.6,2.3c0,3.7,8.9,0.9,8.9,6.2
			c0,2.4-2.1,3.9-5.6,3.9C549.3,236.5,547.1,235.7,546,234.8L546,234.8z"/>
		<path class="st4" d="M573.1,222.7v13.7h-1.8v-2.5c-1,1.7-2.7,2.6-4.9,2.6c-3.5,0-5.8-1.9-5.8-5.9v-7.9h1.8v7.8
			c0,2.9,1.5,4.4,4.1,4.4c2.9,0,4.7-1.9,4.7-5v-7.2L573.1,222.7L573.1,222.7z"/>
		<path class="st4" d="M592.4,229.5c0,4.1-2.9,7-6.8,7c-2.3,0-4.2-1-5.3-2.8v2.7h-1.8v-19.3h1.8v8.2c1.1-1.8,3-2.7,5.2-2.7
			C589.5,222.6,592.4,225.4,592.4,229.5L592.4,229.5z M590.5,229.5c0-3.2-2.2-5.3-5.1-5.3s-5.1,2.1-5.1,5.3s2.2,5.3,5.1,5.3
			S590.5,232.7,590.5,229.5z"/>
		<path class="st4" d="M595,229.5c0-4.1,3-6.9,7-6.9s6.9,2.9,6.9,6.9s-2.9,7-6.9,7S595,233.6,595,229.5z M607,229.5
			c0-3.2-2.2-5.3-5.1-5.3s-5.1,2.1-5.1,5.3s2.2,5.3,5.1,5.3S607,232.7,607,229.5z"/>
		<path class="st4" d="M619.8,222.6v1.8c-0.2,0-0.3,0-0.4,0c-2.9,0-4.6,1.8-4.6,5v7h-1.8v-13.7h1.8v2.7
			C615.5,223.5,617.2,222.6,619.8,222.6L619.8,222.6z"/>
		<path class="st4" d="M635.6,217.1v19.3h-1.8v-2.7c-1.1,1.9-3,2.8-5.3,2.8c-3.9,0-6.8-2.8-6.8-7s2.9-6.9,6.8-6.9
			c2.2,0,4.1,0.9,5.2,2.7v-8.2L635.6,217.1L635.6,217.1z M633.8,229.5c0-3.2-2.2-5.3-5.1-5.3s-5.1,2.1-5.1,5.3s2.2,5.3,5.1,5.3
			S633.8,232.7,633.8,229.5z"/>
		<path class="st4" d="M640.6,218.4c0-0.7,0.6-1.3,1.3-1.3s1.3,0.6,1.3,1.3c0,0.8-0.6,1.4-1.3,1.4S640.6,219.1,640.6,218.4
			L640.6,218.4z M641,222.7h1.8v13.7H641V222.7z"/>
		<path class="st4" d="M660.8,228.4v7.9h-1.8v-7.8c0-2.9-1.5-4.4-4.1-4.4c-2.9,0-4.8,1.8-4.8,4.9v7.2h-1.8v-13.7h1.8v2.5
			c1-1.7,2.8-2.6,5.2-2.6C658.5,222.6,660.8,224.5,660.8,228.4L660.8,228.4z"/>
		<path class="st4" d="M676.3,227.9v8.5h-1.8v-2.1c-0.8,1.4-2.4,2.3-4.7,2.3c-3.1,0-5-1.6-5-4c0-2.1,1.3-3.9,5.3-3.9h4.3v-0.8
			c0-2.3-1.3-3.6-3.9-3.6c-1.8,0-3.4,0.6-4.5,1.6l-0.8-1.4c1.4-1.2,3.4-1.9,5.6-1.9C674.3,222.6,676.3,224.3,676.3,227.9
			L676.3,227.9z M674.5,232.2V230h-4.3c-2.7,0-3.5,1-3.5,2.4c0,1.6,1.3,2.6,3.5,2.6S673.7,234,674.5,232.2L674.5,232.2z"/>
		<path class="st4" d="M694.1,217.1v19.3h-1.8v-2.7c-1.1,1.9-3,2.8-5.3,2.8c-3.9,0-6.8-2.8-6.8-7s2.9-6.9,6.8-6.9
			c2.2,0,4.1,0.9,5.2,2.7v-8.2L694.1,217.1L694.1,217.1z M692.2,229.5c0-3.2-2.2-5.3-5.1-5.3s-5.1,2.1-5.1,5.3s2.2,5.3,5.1,5.3
			S692.2,232.7,692.2,229.5z"/>
		<path class="st4" d="M709.7,227.9v8.5H708v-2.1c-0.8,1.4-2.4,2.3-4.7,2.3c-3.1,0-5-1.6-5-4c0-2.1,1.3-3.9,5.3-3.9h4.3v-0.8
			c0-2.3-1.3-3.6-3.9-3.6c-1.8,0-3.4,0.6-4.5,1.6l-0.8-1.4c1.4-1.2,3.4-1.9,5.6-1.9C707.7,222.6,709.7,224.3,709.7,227.9
			L709.7,227.9z M707.9,232.2V230h-4.3c-2.7,0-3.5,1-3.5,2.4c0,1.6,1.3,2.6,3.5,2.6S707.2,234,707.9,232.2L707.9,232.2z"/>
		<path class="st4" d="M713.8,235.1c0-0.8,0.6-1.4,1.4-1.4s1.4,0.6,1.4,1.4s-0.7,1.4-1.4,1.4S713.8,235.9,713.8,235.1z"/>
	</g>
</g>
<g>
	<path class="st4" d="M263,313.1v1.1h-8.9v-12.6h8.6v1.1h-7.3v4.5h6.5v1.1h-6.5v4.7L263,313.1L263,313.1z"/>
	<path class="st4" d="M276.9,301.7v12.6h-1.1l-8.1-10.2v10.2h-1.3v-12.6h1.1l8.1,10.2v-10.2H276.9z"/>
	<path class="st4" d="M290.1,308h1.3v4.8c-1.2,1.1-2.9,1.6-4.6,1.6c-3.8,0-6.6-2.7-6.6-6.4s2.8-6.4,6.7-6.4c1.9,0,3.6,0.6,4.7,1.8
		l-0.8,0.9c-1.1-1-2.3-1.5-3.8-1.5c-3.1,0-5.4,2.2-5.4,5.2s2.3,5.2,5.4,5.2c1.2,0,2.3-0.3,3.3-1L290.1,308L290.1,308z"/>
	<path class="st4" d="M295.3,301.7h1.3v12.6h-1.3V301.7z"/>
	<path class="st4" d="M299.7,312.8l0.5-1c0.9,0.9,2.5,1.5,4.2,1.5c2.4,0,3.4-1,3.4-2.2c0-3.5-7.8-1.3-7.8-6c0-1.9,1.4-3.5,4.6-3.5
		c1.4,0,2.9,0.4,3.9,1.1l-0.5,1.1c-1.1-0.7-2.3-1-3.5-1c-2.3,0-3.3,1-3.3,2.3c0,3.5,7.8,1.4,7.8,6c0,1.9-1.5,3.4-4.7,3.4
		C302.5,314.4,300.6,313.7,299.7,312.8L299.7,312.8z"/>
	<path class="st4" d="M311.1,308c0-3.7,2.8-6.4,6.6-6.4c1.8,0,3.5,0.6,4.6,1.8l-0.9,0.9c-1-1-2.3-1.5-3.7-1.5c-3,0-5.3,2.2-5.3,5.2
		s2.3,5.2,5.3,5.2c1.4,0,2.7-0.5,3.7-1.5l0.9,0.9c-1.1,1.2-2.8,1.9-4.6,1.9C313.9,314.4,311.1,311.7,311.1,308L311.1,308z"/>
	<path class="st4" d="M335.8,301.7v12.6h-1.3v-5.8h-7.9v5.8h-1.3v-12.6h1.3v5.6h7.9v-5.6H335.8z"/>
	<path class="st4" d="M341,313.4c0,0.3-0.1,0.5-0.2,1l-0.8,2.5h-0.9l0.6-2.6c-0.4-0.1-0.6-0.5-0.6-0.9c0-0.6,0.4-1,1-1
		S341,312.8,341,313.4L341,313.4z"/>
	<path class="st4" d="M352.6,308.4L350,311v3.3h-1.3v-12.6h1.3v7.6l7.4-7.6h1.5l-5.5,5.7l5.8,6.9h-1.6L352.6,308.4L352.6,308.4z"/>
	<path class="st4" d="M360.5,313.4c0-0.6,0.4-1,1-1s1,0.4,1,1s-0.5,1-1,1S360.5,313.9,360.5,313.4z"/>
	<path class="st4" d="M370,301.7h2.9v12.6H370V301.7z"/>
	<path class="st4" d="M385.8,308.7v5.5H383v-5.1c0-1.6-0.7-2.3-2-2.3c-1.4,0-2.3,0.8-2.3,2.6v4.8h-2.8v-9.7h2.7v1.1
		c0.8-0.8,1.9-1.3,3.2-1.3C384.1,304.4,385.8,305.8,385.8,308.7L385.8,308.7z"/>
	<path class="st4" d="M394.8,313.8c-0.6,0.4-1.4,0.6-2.3,0.6c-2.3,0-3.6-1.2-3.6-3.5v-4h-1.5v-2.2h1.5v-2.4h2.8v2.4h2.4v2.2h-2.4
		v3.9c0,0.8,0.5,1.3,1.2,1.3c0.4,0,0.8-0.1,1.1-0.4L394.8,313.8L394.8,313.8z"/>
	<path class="st4" d="M402.6,304.5v2.6c-0.2,0-0.4,0-0.6,0c-1.5,0-2.6,0.9-2.6,2.7v4.6h-2.8v-9.7h2.7v1.3
		C399.9,304.9,401.1,304.4,402.6,304.5L402.6,304.5z"/>
	<path class="st4" d="M403.7,309.4c0-2.9,2.2-5,5.3-5s5.3,2.1,5.3,5s-2.2,5-5.3,5S403.7,312.4,403.7,309.4z M411.5,309.4
		c0-1.7-1.1-2.7-2.5-2.7s-2.5,1-2.5,2.7s1.1,2.7,2.5,2.7S411.5,311.1,411.5,309.4z"/>
	<path class="st4" d="M426.2,300.9v13.4h-2.7v-1.1c-0.7,0.9-1.7,1.3-3,1.3c-2.7,0-4.8-1.9-4.8-5s2.1-5,4.8-5c1.2,0,2.2,0.4,2.9,1.2
		v-4.7L426.2,300.9L426.2,300.9z M423.5,309.4c0-1.7-1.1-2.7-2.5-2.7s-2.5,1-2.5,2.7s1.1,2.7,2.5,2.7S423.5,311.1,423.5,309.4z"/>
	<path class="st4" d="M438.8,304.6v9.7h-2.7v-1.1c-0.7,0.9-1.8,1.3-3,1.3c-2.4,0-4.1-1.4-4.1-4.4v-5.5h2.8v5.1c0,1.6,0.7,2.3,2,2.3
		s2.2-0.8,2.2-2.6v-4.8L438.8,304.6L438.8,304.6z"/>
	<path class="st4" d="M448.5,310.8l2.2,1.2c-0.7,1.5-2.2,2.4-4.1,2.5l-0.2,0.8c1.1,0.1,1.6,0.8,1.6,1.5c0,1.1-1,1.8-2.6,1.8
		c-0.6,0-1.3-0.1-1.7-0.4l0.4-1.2c0.3,0.2,0.7,0.3,1.2,0.3c0.7,0,0.9-0.2,0.9-0.6c0-0.3-0.2-0.5-0.9-0.5h-0.6l0.4-1.7
		c-2.5-0.5-4.2-2.4-4.2-4.9c0-2.9,2.2-5,5.4-5c2,0,3.6,0.9,4.3,2.5l-2.2,1.2c-0.5-0.9-1.3-1.3-2.2-1.3c-1.4,0-2.5,1-2.5,2.7
		s1.1,2.7,2.5,2.7C447.2,312.1,447.9,311.7,448.5,310.8L448.5,310.8z"/>
	<path class="st4" d="M461,308.8v5.5h-2.6v-1.2c-0.5,0.9-1.5,1.4-3,1.4c-2.3,0-3.6-1.3-3.6-2.9s1.2-2.9,4.2-2.9h2.2
		c0-1.2-0.7-1.9-2.2-1.9c-1,0-2.1,0.3-2.8,0.9l-1-2c1.1-0.8,2.6-1.2,4.2-1.2C459.3,304.4,461,305.8,461,308.8L461,308.8z
		 M454.6,303.3h-1.4c0-1.6,0.9-2.6,2.1-2.6s1.9,1.1,2.5,1.1c0.5,0,0.8-0.4,0.9-1h1.4c0,1.5-0.9,2.6-2.1,2.6s-1.9-1.1-2.5-1.1
		C455,302.3,454.6,302.6,454.6,303.3L454.6,303.3z M458.2,311.2v-1h-1.9c-1.3,0-1.7,0.5-1.7,1.1c0,0.7,0.6,1.2,1.6,1.2
		C457.1,312.5,457.9,312.1,458.2,311.2L458.2,311.2z"/>
	<path class="st4" d="M463.1,309.4c0-2.9,2.2-5,5.3-5s5.3,2.1,5.3,5s-2.2,5-5.3,5S463.1,312.4,463.1,309.4z M470.9,309.4
		c0-1.7-1.1-2.7-2.5-2.7s-2.5,1-2.5,2.7s1.1,2.7,2.5,2.7S470.9,311.1,470.9,309.4z"/>
	<path class="st4" d="M489.3,308.8v5.5h-2.6v-1.2c-0.5,0.9-1.5,1.4-3,1.4c-2.3,0-3.6-1.3-3.6-2.9s1.2-2.9,4.2-2.9h2.2
		c0-1.2-0.7-1.9-2.2-1.9c-1,0-2.1,0.3-2.8,0.9l-1-2c1.1-0.8,2.6-1.2,4.2-1.2C487.6,304.4,489.3,305.8,489.3,308.8L489.3,308.8z
		 M486.5,311.2v-1h-1.9c-1.3,0-1.7,0.5-1.7,1.1c0,0.7,0.6,1.2,1.6,1.2C485.4,312.5,486.2,312.1,486.5,311.2L486.5,311.2z"/>
	<path class="st4" d="M491.5,309.4c0-2.9,2.2-5,5.3-5s5.3,2.1,5.3,5s-2.2,5-5.3,5S491.5,312.4,491.5,309.4z M499.2,309.4
		c0-1.7-1.1-2.7-2.5-2.7s-2.5,1-2.5,2.7s1.1,2.7,2.5,2.7S499.2,311.1,499.2,309.4z"/>
	<path class="st4" d="M519.6,309.4c0,3-2.1,5-4.8,5c-1.2,0-2.2-0.4-2.9-1.2v4.5H509v-13.2h2.7v1.1c0.7-0.9,1.8-1.3,3-1.3
		C517.5,304.5,519.6,306.4,519.6,309.4L519.6,309.4z M516.8,309.4c0-1.7-1.1-2.7-2.5-2.7s-2.5,1-2.5,2.7s1.1,2.7,2.5,2.7
		S516.8,311.1,516.8,309.4z"/>
	<path class="st4" d="M531.1,310.2h-7.3c0.3,1.2,1.3,1.9,2.8,1.9c1,0,1.8-0.3,2.4-0.9l1.5,1.6c-0.9,1-2.2,1.6-4,1.6
		c-3.3,0-5.5-2.1-5.5-5s2.2-5,5.2-5s5,1.9,5,5C531.1,309.7,531.1,310,531.1,310.2L531.1,310.2z M523.8,308.6h4.8
		c-0.2-1.2-1.1-2-2.4-2S523.9,307.3,523.8,308.6z"/>
	<path class="st4" d="M543.1,308.7v5.5h-2.8v-5.1c0-1.6-0.7-2.3-2-2.3c-1.3,0-2.3,0.8-2.3,2.6v4.8h-2.8v-9.7h2.7v1.1
		c0.8-0.8,1.9-1.3,3.2-1.3C541.4,304.4,543.1,305.8,543.1,308.7L543.1,308.7z"/>
	<path class="st4" d="M544.9,313.4l0.9-2c0.9,0.6,2.2,0.9,3.4,0.9c1.3,0,1.8-0.3,1.8-0.9c0-1.6-5.8,0-5.8-3.8c0-1.8,1.7-3.1,4.5-3.1
		c1.3,0,2.8,0.3,3.7,0.9l-0.9,2c-1-0.5-1.9-0.7-2.8-0.7c-1.3,0-1.8,0.4-1.8,0.9c0,1.7,5.8,0,5.8,3.9c0,1.8-1.7,3.1-4.6,3.1
		C547.5,314.4,545.9,314,544.9,313.4L544.9,313.4z"/>
	<path class="st4" d="M564.2,308.8v5.5h-2.6v-1.2c-0.5,0.9-1.5,1.4-3,1.4c-2.3,0-3.6-1.3-3.6-2.9s1.2-2.9,4.2-2.9h2.2
		c0-1.2-0.7-1.9-2.2-1.9c-1,0-2.1,0.3-2.8,0.9l-1-2c1.1-0.8,2.6-1.2,4.2-1.2C562.5,304.4,564.2,305.8,564.2,308.8L564.2,308.8z
		 M561.4,311.2v-1h-1.9c-1.3,0-1.7,0.5-1.7,1.1c0,0.7,0.6,1.2,1.6,1.2C560.3,312.5,561.1,312.1,561.4,311.2L561.4,311.2z"/>
	<path class="st4" d="M583.3,308.7v5.5h-2.8v-5.1c0-1.6-0.7-2.3-1.8-2.3c-1.3,0-2.1,0.8-2.1,2.5v4.9h-2.8v-5.1
		c0-1.6-0.7-2.3-1.8-2.3c-1.2,0-2.1,0.8-2.1,2.5v4.9h-2.8v-9.7h2.7v1.1c0.7-0.8,1.8-1.3,3-1.3c1.3,0,2.5,0.5,3.2,1.6
		c0.8-1,2-1.6,3.5-1.6C581.6,304.4,583.3,305.8,583.3,308.7L583.3,308.7z"/>
	<path class="st4" d="M595.6,310.2h-7.3c0.3,1.2,1.3,1.9,2.8,1.9c1,0,1.8-0.3,2.4-0.9l1.5,1.6c-0.9,1-2.2,1.6-4,1.6
		c-3.3,0-5.5-2.1-5.5-5s2.2-5,5.2-5s5,1.9,5,5C595.6,309.7,595.6,310,595.6,310.2L595.6,310.2z M588.2,308.6h4.8
		c-0.2-1.2-1.1-2-2.4-2S588.4,307.3,588.2,308.6z"/>
	<path class="st4" d="M607.6,308.7v5.5h-2.8v-5.1c0-1.6-0.7-2.3-2-2.3c-1.3,0-2.3,0.8-2.3,2.6v4.8h-2.8v-9.7h2.7v1.1
		c0.8-0.8,1.9-1.3,3.2-1.3C605.9,304.4,607.6,305.8,607.6,308.7L607.6,308.7z"/>
	<path class="st4" d="M616.6,313.8c-0.6,0.4-1.4,0.6-2.3,0.6c-2.3,0-3.6-1.2-3.6-3.5v-4h-1.5v-2.2h1.5v-2.4h2.8v2.4h2.4v2.2h-2.4
		v3.9c0,0.8,0.5,1.3,1.2,1.3c0.4,0,0.8-0.1,1.1-0.4L616.6,313.8L616.6,313.8z"/>
	<path class="st4" d="M617.3,309.4c0-2.9,2.2-5,5.3-5s5.3,2.1,5.3,5s-2.2,5-5.3,5S617.3,312.4,617.3,309.4z M625.1,309.4
		c0-1.7-1.1-2.7-2.5-2.7s-2.5,1-2.5,2.7s1.1,2.7,2.5,2.7S625.1,311.1,625.1,309.4z"/>
	<path class="st4" d="M632,317.4l0.8-2c0.3,0.2,0.7,0.3,1.2,0.3c0.7,0,1.2-0.5,1.2-1.4v-9.7h2.8v9.7c0,2.2-1.3,3.7-3.7,3.7
		C633.4,317.9,632.5,317.8,632,317.4L632,317.4z M634.7,301.7c0-0.9,0.7-1.6,1.8-1.6s1.8,0.6,1.8,1.5c0,0.9-0.7,1.6-1.8,1.6
		S634.7,302.6,634.7,301.7L634.7,301.7z"/>
	<path class="st4" d="M650.5,304.6v9.7h-2.7v-1.1c-0.7,0.9-1.8,1.3-3,1.3c-2.4,0-4.1-1.4-4.1-4.4v-5.5h2.8v5.1c0,1.6,0.7,2.3,2,2.3
		s2.2-0.8,2.2-2.6v-4.8L650.5,304.6L650.5,304.6z"/>
	<path class="st4" d="M659.3,304.5v2.6c-0.2,0-0.4,0-0.6,0c-1.5,0-2.6,0.9-2.6,2.7v4.6h-2.8v-9.7h2.7v1.3
		C656.6,304.9,657.8,304.4,659.3,304.5L659.3,304.5z"/>
	<path class="st4" d="M663.3,300.8h3l-3.3,2.6h-2.2L663.3,300.8L663.3,300.8z M661.1,304.6h2.8v9.7h-2.8V304.6z"/>
	<path class="st4" d="M676.6,300.9v13.4H674v-1.1c-0.7,0.9-1.7,1.3-3,1.3c-2.7,0-4.8-1.9-4.8-5s2.1-5,4.8-5c1.2,0,2.2,0.4,2.9,1.2
		v-4.7L676.6,300.9L676.6,300.9z M673.9,309.4c0-1.7-1.1-2.7-2.5-2.7s-2.5,1-2.5,2.7s1.1,2.7,2.5,2.7S673.9,311.1,673.9,309.4z"/>
	<path class="st4" d="M679.1,301.7c0-0.9,0.7-1.6,1.8-1.6s1.8,0.6,1.8,1.5c0,0.9-0.7,1.6-1.8,1.6S679.1,302.6,679.1,301.7
		L679.1,301.7z M679.4,304.6h2.8v9.7h-2.8V304.6z"/>
	<path class="st4" d="M684.3,309.4c0-2.9,2.2-5,5.4-5c2,0,3.6,0.9,4.3,2.5l-2.2,1.2c-0.5-0.9-1.3-1.3-2.2-1.3c-1.4,0-2.5,1-2.5,2.7
		s1.1,2.7,2.5,2.7c0.9,0,1.7-0.4,2.2-1.3l2.2,1.2c-0.7,1.5-2.3,2.5-4.3,2.5C686.6,314.4,684.3,312.4,684.3,309.4L684.3,309.4z"/>
	<path class="st4" d="M695,309.4c0-2.9,2.2-5,5.3-5s5.3,2.1,5.3,5s-2.2,5-5.3,5S695,312.4,695,309.4z M702.8,309.4
		c0-1.7-1.1-2.7-2.5-2.7s-2.5,1-2.5,2.7s1.1,2.7,2.5,2.7S702.8,311.1,702.8,309.4z"/>
	<path class="st4" d="M707,312.7c0-1,0.8-1.7,1.8-1.7s1.8,0.7,1.8,1.7s-0.8,1.8-1.8,1.8S707,313.7,707,312.7z"/>
	<path class="st4" d="M726.2,310.5c0,2.4-1.8,3.9-4.3,3.9c-3.3,0-5.2-2.3-5.2-6.3c0-4.3,2.3-6.5,5.8-6.5c1.1,0,2.2,0.2,3,0.7l-0.5,1
		c-0.7-0.4-1.5-0.6-2.5-0.6c-2.7,0-4.5,1.8-4.5,5.2c0,0.3,0,0.6,0,1c0.6-1.4,2.1-2.2,3.8-2.2C724.4,306.7,726.2,308.2,726.2,310.5
		L726.2,310.5z M724.9,310.6c0-1.7-1.2-2.7-3.2-2.7s-3.2,1.2-3.2,2.8c0,1.4,1.2,2.7,3.3,2.7C723.6,313.3,724.9,312.2,724.9,310.6
		L724.9,310.6z"/>
	<path class="st4" d="M728,313.4c0-0.6,0.4-1,1-1s1,0.4,1,1s-0.5,1-1,1S728,313.9,728,313.4z"/>
	<path class="st4" d="M745.7,309.9h-7.9c0.1,2,1.7,3.3,3.7,3.3c1.2,0,2.2-0.4,2.9-1.2l0.7,0.8c-0.8,1-2.2,1.5-3.7,1.5
		c-3,0-5-2-5-4.8s2-4.8,4.6-4.8s4.6,2,4.6,4.8C745.7,309.6,745.7,309.8,745.7,309.9L745.7,309.9z M737.7,309h6.7
		c-0.2-1.9-1.5-3.1-3.4-3.1S737.9,307.1,737.7,309z"/>
	<path class="st4" d="M757.1,300.9v13.4h-1.2v-1.9c-0.8,1.3-2.1,2-3.7,2c-2.7,0-4.7-2-4.7-4.8s2-4.8,4.7-4.8c1.5,0,2.8,0.6,3.6,1.9
		v-5.7L757.1,300.9L757.1,300.9z M755.9,309.5c0-2.2-1.5-3.7-3.5-3.7s-3.5,1.5-3.5,3.7s1.5,3.7,3.5,3.7S755.9,311.8,755.9,309.5z"/>
	<path class="st4" d="M760,313.4c0-0.6,0.4-1,1-1s1,0.4,1,1s-0.5,1-1,1S760,313.9,760,313.4z"/>
	<path class="st4" d="M769.7,301.7h1.3v11.5h7.1v1.1h-8.4V301.7z"/>
	<path class="st4" d="M779.9,301.8c0-0.5,0.4-0.9,0.9-0.9s0.9,0.4,0.9,0.9c0,0.5-0.4,0.9-0.9,0.9S779.9,302.3,779.9,301.8z
		 M780.2,304.8h1.3v9.5h-1.3V304.8z"/>
	<path class="st4" d="M783.9,313.2l0.6-1c0.8,0.6,2,1.1,3.4,1.1c1.8,0,2.5-0.6,2.5-1.5c0-2.5-6.1-0.5-6.1-4.3c0-1.5,1.3-2.7,3.8-2.7
		c1.2,0,2.6,0.3,3.3,0.9l-0.6,1c-0.8-0.6-1.8-0.8-2.8-0.8c-1.7,0-2.5,0.7-2.5,1.6c0,2.6,6.1,0.6,6.1,4.3c0,1.6-1.4,2.7-3.9,2.7
		C786.2,314.4,784.7,313.9,783.9,313.2L783.9,313.2z"/>
	<path class="st4" d="M803.8,309.5c0,2.9-2,4.8-4.7,4.8c-1.6,0-2.9-0.7-3.7-2v1.9h-1.2v-13.4h1.3v5.7c0.8-1.2,2.1-1.9,3.6-1.9
		C801.8,304.8,803.8,306.7,803.8,309.5L803.8,309.5z M802.5,309.5c0-2.2-1.5-3.7-3.5-3.7s-3.5,1.5-3.5,3.7s1.5,3.7,3.5,3.7
		S802.5,311.8,802.5,309.5z"/>
	<path class="st4" d="M805.7,309.5c0-2.8,2-4.8,4.8-4.8s4.8,2,4.8,4.8s-2,4.8-4.8,4.8S805.7,312.4,805.7,309.5z M814,309.5
		c0-2.2-1.5-3.7-3.5-3.7s-3.5,1.5-3.5,3.7s1.5,3.7,3.5,3.7S814,311.8,814,309.5z"/>
	<path class="st4" d="M825.2,308.4v5.9H824v-1.5c-0.6,1-1.7,1.6-3.3,1.6c-2.1,0-3.5-1.1-3.5-2.8c0-1.5,0.9-2.7,3.7-2.7h3v-0.6
		c0-1.6-0.9-2.5-2.7-2.5c-1.2,0-2.4,0.4-3.2,1.1l-0.6-1c1-0.8,2.4-1.3,3.8-1.3C823.8,304.7,825.2,306,825.2,308.4L825.2,308.4z
		 M823.9,311.4v-1.5h-3c-1.8,0-2.4,0.7-2.4,1.7c0,1.1,0.9,1.8,2.4,1.8S823.4,312.7,823.9,311.4L823.9,311.4z"/>
	<path class="st4" d="M828,305.7c0-0.6,0.4-1,1-1s1,0.4,1,1s-0.5,1-1,1S828,306.3,828,305.7z M828,313.4c0-0.6,0.4-1,1-1s1,0.4,1,1
		s-0.5,1-1,1S828,313.9,828,313.4z"/>
	<path class="st4" d="M444.1,332.8v5h6.5v1.1h-6.5v5.4h-1.3v-12.6h8.6v1.1H444.1L444.1,332.8z"/>
	<path class="st4" d="M462.3,334.8v9.5h-1.2v-1.7c-0.7,1.1-1.9,1.8-3.4,1.8c-2.4,0-4-1.4-4-4.1v-5.5h1.3v5.4c0,2,1,3,2.8,3
		c2,0,3.2-1.3,3.2-3.4v-5H462.3z"/>
	<path class="st4" d="M474.8,338.8v5.5h-1.3v-5.4c0-2-1-3-2.8-3c-2,0-3.3,1.3-3.3,3.4v5h-1.3v-9.5h1.2v1.8c0.7-1.1,2-1.8,3.6-1.8
		C473.2,334.7,474.8,336.1,474.8,338.8L474.8,338.8z"/>
	<path class="st4" d="M487.1,330.9v13.4h-1.2v-1.9c-0.8,1.3-2.1,2-3.7,2c-2.7,0-4.7-2-4.7-4.8s2-4.8,4.7-4.8c1.5,0,2.8,0.6,3.6,1.9
		v-5.7L487.1,330.9L487.1,330.9z M485.9,339.5c0-2.2-1.5-3.7-3.5-3.7s-3.5,1.5-3.5,3.7s1.5,3.7,3.5,3.7S485.9,341.8,485.9,339.5z"/>
	<path class="st4" d="M498,338.4v5.9h-1.2v-1.5c-0.6,1-1.7,1.6-3.3,1.6c-2.1,0-3.5-1.1-3.5-2.8c0-1.5,0.9-2.7,3.7-2.7h3v-0.6
		c0-1.6-0.9-2.5-2.7-2.5c-1.2,0-2.4,0.4-3.1,1.1l-0.6-1c1-0.8,2.4-1.3,3.9-1.3C496.7,334.7,498,336,498,338.4L498,338.4z
		 M496.8,341.4v-1.5h-3c-1.8,0-2.4,0.7-2.4,1.7c0,1.1,0.9,1.8,2.4,1.8S496.3,342.7,496.8,341.4L496.8,341.4z"/>
	<path class="st4" d="M508.4,341.9l1,0.6c-0.8,1.2-2.1,1.9-3.7,1.9h0l-0.2,0.9c1,0.1,1.5,0.7,1.5,1.5c0,1-0.8,1.6-2,1.6
		c-0.6,0-1.1-0.1-1.5-0.4l0.3-0.7c0.4,0.2,0.8,0.3,1.2,0.3c0.7,0,1.1-0.3,1.1-0.9c0-0.5-0.4-0.8-1.1-0.8h-0.4l0.4-1.5
		c-2.4-0.3-4.1-2.2-4.1-4.8c0-2.8,2-4.8,4.9-4.8c1.6,0,3,0.6,3.7,1.9l-1,0.6c-0.6-1-1.7-1.4-2.8-1.4c-2.1,0-3.6,1.5-3.6,3.7
		s1.5,3.7,3.6,3.7C506.8,343.2,507.8,342.8,508.4,341.9L508.4,341.9z"/>
	<path class="st4" d="M519.2,338.4v5.9H518v-1.5c-0.6,1-1.7,1.6-3.3,1.6c-2.1,0-3.5-1.1-3.5-2.8c0-1.5,0.9-2.7,3.7-2.7h3v-0.6
		c0-1.6-0.9-2.5-2.7-2.5c-1.2,0-2.4,0.4-3.2,1.1l-0.6-1c0.9-0.8,2.4-1.3,3.9-1.3C517.8,334.7,519.2,336,519.2,338.4L519.2,338.4z
		 M517.9,341.4v-1.5h-3c-1.8,0-2.4,0.7-2.4,1.7c0,1.1,0.9,1.8,2.4,1.8S517.4,342.7,517.9,341.4L517.9,341.4z M513.3,333.2h-0.8
		c0-1.2,0.7-2,1.6-2c1.1,0,1.7,1.2,2.4,1.2c0.5,0,0.9-0.4,0.9-1.1h0.8c0,1.2-0.7,1.9-1.6,1.9c-1.1,0-1.6-1.2-2.4-1.2
		C513.7,332,513.4,332.4,513.3,333.2L513.3,333.2z"/>
	<path class="st4" d="M522,339.5c0-2.8,2-4.8,4.8-4.8s4.8,2,4.8,4.8s-2,4.8-4.8,4.8S522,342.4,522,339.5z M530.3,339.5
		c0-2.2-1.5-3.7-3.5-3.7s-3.5,1.5-3.5,3.7s1.5,3.7,3.5,3.7S530.3,341.8,530.3,339.5z"/>
	<path class="st4" d="M538.1,338c0-3.7,2.8-6.4,6.6-6.4c1.8,0,3.5,0.6,4.6,1.8l-0.8,0.9c-1-1-2.3-1.5-3.7-1.5c-3,0-5.3,2.2-5.3,5.2
		s2.3,5.2,5.3,5.2c1.4,0,2.7-0.5,3.7-1.5l0.8,0.9c-1.1,1.2-2.8,1.9-4.6,1.9C540.9,344.4,538.1,341.7,538.1,338L538.1,338z"/>
	<path class="st4" d="M559,338.4v5.9h-1.2v-1.5c-0.6,1-1.7,1.6-3.3,1.6c-2.1,0-3.5-1.1-3.5-2.8c0-1.5,0.9-2.7,3.7-2.7h3v-0.6
		c0-1.6-0.9-2.5-2.7-2.5c-1.2,0-2.4,0.4-3.2,1.1l-0.6-1c1-0.8,2.4-1.3,3.8-1.3C557.7,334.7,559,336,559,338.4L559,338.4z
		 M557.8,341.4v-1.5h-3c-1.8,0-2.4,0.7-2.4,1.7c0,1.1,0.9,1.8,2.4,1.8S557.2,342.7,557.8,341.4L557.8,341.4z"/>
	<path class="st4" d="M562.7,330.9h1.3v13.4h-1.3V330.9z"/>
	<path class="st4" d="M566.8,339.5c0-2.8,2-4.8,4.8-4.8s4.8,2,4.8,4.8s-2,4.8-4.8,4.8S566.8,342.4,566.8,339.5z M575.1,339.5
		c0-2.2-1.5-3.7-3.5-3.7s-3.5,1.5-3.5,3.7s1.5,3.7,3.5,3.7S575.1,341.8,575.1,339.5z"/>
	<path class="st4" d="M587.7,334.8v9.5h-1.2v-1.7c-0.7,1.1-1.9,1.8-3.4,1.8c-2.4,0-4-1.4-4-4.1v-5.5h1.3v5.4c0,2,1,3,2.8,3
		c2,0,3.2-1.3,3.2-3.4v-5H587.7L587.7,334.8z"/>
	<path class="st4" d="M590.2,343.2l0.6-1c0.8,0.6,2,1.1,3.4,1.1c1.8,0,2.5-0.6,2.5-1.5c0-2.5-6.1-0.5-6.1-4.3c0-1.5,1.3-2.7,3.8-2.7
		c1.2,0,2.6,0.3,3.3,0.9l-0.6,1c-0.8-0.6-1.8-0.8-2.8-0.8c-1.7,0-2.5,0.7-2.5,1.6c0,2.6,6.1,0.6,6.1,4.3c0,1.6-1.4,2.7-3.9,2.7
		C592.5,344.4,591,343.9,590.2,343.2L590.2,343.2z"/>
	<path class="st4" d="M605.5,343.7c-0.5,0.5-1.3,0.7-2,0.7c-1.8,0-2.8-1-2.8-2.8v-5.7H599v-1.1h1.7v-2.1h1.3v2.1h2.9v1.1H602v5.6
		c0,1.1,0.6,1.7,1.6,1.7c0.5,0,1-0.2,1.4-0.5L605.5,343.7L605.5,343.7z"/>
	<path class="st4" d="M615.9,339.9H608c0.1,2,1.7,3.3,3.7,3.3c1.2,0,2.2-0.4,2.9-1.2l0.7,0.8c-0.8,1-2.2,1.5-3.7,1.5c-3,0-5-2-5-4.8
		s2-4.8,4.6-4.8s4.6,2,4.6,4.8C615.9,339.6,615.9,339.8,615.9,339.9L615.9,339.9z M608,339h6.7c-0.2-1.9-1.5-3.1-3.4-3.1
		S608.1,337.1,608,339z"/>
	<path class="st4" d="M632.4,338h1.3v4.8c-1.2,1.1-2.9,1.6-4.6,1.6c-3.8,0-6.6-2.7-6.6-6.4s2.8-6.4,6.7-6.4c1.9,0,3.6,0.6,4.7,1.8
		l-0.8,0.9c-1.1-1-2.3-1.5-3.8-1.5c-3.1,0-5.4,2.2-5.4,5.2s2.3,5.2,5.4,5.2c1.2,0,2.3-0.3,3.3-1L632.4,338L632.4,338z"/>
	<path class="st4" d="M645.9,334.8v9.5h-1.2v-1.7c-0.7,1.1-1.9,1.8-3.4,1.8c-2.4,0-4-1.4-4-4.1v-5.5h1.3v5.4c0,2,1,3,2.8,3
		c2,0,3.2-1.3,3.2-3.4v-5H645.9L645.9,334.8z"/>
	<path class="st4" d="M649.6,330.9h1.3v13.4h-1.3V330.9z"/>
	<path class="st4" d="M664.3,339.5c0,2.9-2,4.8-4.7,4.8c-1.6,0-2.9-0.7-3.7-2v1.9h-1.2v-13.4h1.3v5.7c0.8-1.2,2.1-1.9,3.6-1.9
		C662.3,334.8,664.3,336.7,664.3,339.5L664.3,339.5z M663,339.5c0-2.2-1.5-3.7-3.5-3.7s-3.5,1.5-3.5,3.7s1.5,3.7,3.5,3.7
		S663,341.8,663,339.5z"/>
	<path class="st4" d="M675.3,339.9h-7.9c0.1,2,1.7,3.3,3.7,3.3c1.2,0,2.2-0.4,2.9-1.2l0.7,0.8c-0.8,1-2.2,1.5-3.7,1.5
		c-3,0-5-2-5-4.8s2-4.8,4.6-4.8s4.6,2,4.6,4.8C675.3,339.6,675.3,339.8,675.3,339.9L675.3,339.9z M667.4,339h6.7
		c-0.2-1.9-1.5-3.1-3.4-3.1S667.5,337.1,667.4,339z"/>
	<path class="st4" d="M686.8,338.8v5.5h-1.3v-5.4c0-2-1-3-2.8-3c-2,0-3.3,1.3-3.3,3.4v5h-1.3v-9.5h1.2v1.8c0.7-1.1,2-1.8,3.6-1.8
		C685.2,334.7,686.8,336.1,686.8,338.8L686.8,338.8z"/>
	<path class="st4" d="M694,339.5l-2.2,2v2.7h-1.3v-13.4h1.3v9.1l5.7-5.2h1.6l-4,3.9l4.4,5.6h-1.6L694,339.5L694,339.5z"/>
	<path class="st4" d="M701.1,331.8c0-0.5,0.4-0.9,0.9-0.9s0.9,0.4,0.9,0.9c0,0.5-0.4,0.9-0.9,0.9S701.1,332.3,701.1,331.8z
		 M701.4,334.8h1.3v9.5h-1.3V334.8z"/>
	<path class="st4" d="M713.5,338.4v5.9h-1.2v-1.5c-0.6,1-1.7,1.6-3.3,1.6c-2.1,0-3.5-1.1-3.5-2.8c0-1.5,0.9-2.7,3.7-2.7h3v-0.6
		c0-1.6-0.9-2.5-2.7-2.5c-1.2,0-2.4,0.4-3.2,1.1l-0.6-1c1-0.8,2.4-1.3,3.8-1.3C712.2,334.7,713.5,336,713.5,338.4L713.5,338.4z
		 M712.3,341.4v-1.5h-3c-1.8,0-2.4,0.7-2.4,1.7c0,1.1,0.9,1.8,2.4,1.8S711.8,342.7,712.3,341.4L712.3,341.4z"/>
	<path class="st4" d="M725.9,338.8v5.5h-1.3v-5.4c0-2-1-3-2.8-3c-2,0-3.3,1.3-3.3,3.4v5h-1.3v-9.5h1.2v1.8c0.7-1.1,2-1.8,3.6-1.8
		C724.3,334.7,725.9,336.1,725.9,338.8L725.9,338.8z"/>
	<path class="st4" d="M730.7,343.4c0,0.3-0.1,0.5-0.2,1l-0.8,2.5h-0.9l0.6-2.6c-0.4-0.1-0.7-0.5-0.7-0.9c0-0.6,0.4-1,1-1
		S730.7,342.8,730.7,343.4L730.7,343.4z"/>
	<path class="st4" d="M740.8,331.7v12.6h-1.3v-11.5h-3v-1.1H740.8L740.8,331.7z"/>
	<path class="st4" d="M753,337.9c0,4.3-2.3,6.5-5.8,6.5c-1.1,0-2.2-0.2-3-0.7l0.5-1c0.7,0.4,1.5,0.6,2.5,0.6c2.7,0,4.5-1.8,4.5-5.2
		c0-0.3,0-0.6,0-1c-0.6,1.4-2.1,2.2-3.8,2.2c-2.5,0-4.2-1.5-4.2-3.8s1.8-3.9,4.3-3.9C751.2,331.6,753,333.9,753,337.9L753,337.9z
		 M751.3,335.4c0-1.4-1.2-2.7-3.3-2.7c-1.8,0-3.1,1.1-3.1,2.7s1.2,2.7,3.2,2.7S751.3,336.9,751.3,335.4L751.3,335.4z"/>
	<path class="st4" d="M764.8,340.8c0,2.2-1.9,3.6-4.9,3.6s-4.9-1.4-4.9-3.6c0-1.5,0.9-2.6,2.4-3.1c-1.3-0.5-2-1.5-2-2.8
		c0-2,1.8-3.3,4.4-3.3s4.5,1.3,4.5,3.3c0,1.3-0.7,2.3-2,2.8C763.9,338.2,764.8,339.3,764.8,340.8L764.8,340.8z M763.5,340.8
		c0-1.5-1.3-2.5-3.6-2.5s-3.5,1-3.5,2.5s1.3,2.5,3.5,2.5S763.5,342.3,763.5,340.8z M759.9,337.2c2,0,3.1-0.9,3.1-2.2
		s-1.2-2.3-3.1-2.3s-3.1,0.9-3.1,2.3S757.9,337.2,759.9,337.2L759.9,337.2z"/>
	<path class="st4" d="M776.5,340.8c0,2.2-1.9,3.6-4.9,3.6s-4.9-1.4-4.9-3.6c0-1.5,0.9-2.6,2.4-3.1c-1.3-0.5-2-1.5-2-2.8
		c0-2,1.8-3.3,4.4-3.3s4.5,1.3,4.5,3.3c0,1.3-0.7,2.3-2,2.8C775.6,338.2,776.5,339.3,776.5,340.8L776.5,340.8z M775.1,340.8
		c0-1.5-1.3-2.5-3.6-2.5s-3.5,1-3.5,2.5s1.3,2.5,3.5,2.5S775.1,342.3,775.1,340.8z M771.6,337.2c2,0,3.1-0.9,3.1-2.2
		s-1.2-2.3-3.1-2.3s-3.1,0.9-3.1,2.3S769.6,337.2,771.6,337.2L771.6,337.2z"/>
	<path class="st4" d="M778.6,343.4c0-0.6,0.4-1,1-1s1,0.4,1,1s-0.5,1-1,1S778.6,343.9,778.6,343.4z"/>
	<path class="st4" d="M797.6,339.5c0,2.9-2,4.8-4.7,4.8c-1.5,0-2.8-0.6-3.6-1.9v5.3H788v-13h1.2v1.9c0.8-1.3,2.1-2,3.7-2
		C795.6,334.7,797.6,336.7,797.6,339.5L797.6,339.5z M796.3,339.5c0-2.2-1.5-3.7-3.5-3.7s-3.5,1.5-3.5,3.7s1.5,3.7,3.5,3.7
		S796.3,341.8,796.3,339.5z"/>
	<path class="st4" d="M799.3,343.4c0-0.6,0.4-1,1-1s1,0.4,1,1s-0.5,1-1,1S799.3,343.9,799.3,343.4z"/>
	<path class="st4" d="M816.4,343.1v1.1h-8.8v-0.9l5.2-5.1c1.4-1.4,1.7-2.2,1.7-3.1c0-1.5-1-2.4-3-2.4c-1.5,0-2.6,0.5-3.4,1.4
		l-0.9-0.8c1-1.1,2.5-1.8,4.5-1.8c2.6,0,4.2,1.3,4.2,3.4c0,1.2-0.4,2.3-2.1,3.9l-4.3,4.2L816.4,343.1L816.4,343.1z"/>
	<path class="st4" d="M827,331.7v0.9l-5.3,11.7h-1.4l5.2-11.5h-6.5v2.4h-1.3v-3.5L827,331.7L827,331.7z"/>
	<path class="st4" d="M828,343.4c0-0.6,0.4-1,1-1s1,0.4,1,1s-0.5,1-1,1S828,343.9,828,343.4z"/>
</g>
</svg>
