<?xml version="1.0" encoding="UTF-8"?>
<svg id="Layer_2" data-name="Layer 2" xmlns="http://www.w3.org/2000/svg" viewBox="0 0 132.39 132.39">
  <defs>
    <style>
      .cls-1 {
        fill: #fff;
      }

      .cls-2 {
        fill: #b1c68f;
      }
    </style>
  </defs>
  <g id="Layer_1-2" data-name="Layer 1">
    <g>
      <circle class="cls-2" cx="66.19" cy="66.19" r="66.19"/>
      <path class="cls-1" d="m83.42,92.17h-34.45v-7.14c2.39-2.05,4.79-4.1,7.19-6.15s4.64-4.09,6.72-6.12c4.38-4.24,7.37-7.61,8.99-10.1,1.62-2.5,2.43-5.19,2.43-8.08,0-2.64-.87-4.71-2.62-6.2-1.74-1.49-4.18-2.24-7.3-2.24-2.07,0-4.32.37-6.73,1.09-2.42.73-4.77,1.85-7.08,3.35h-.34v-7.18c1.62-.8,3.78-1.53,6.48-2.19,2.7-.66,5.32-.99,7.84-.99,5.22,0,9.31,1.26,12.27,3.78,2.96,2.52,4.44,5.93,4.44,10.24,0,1.94-.25,3.74-.73,5.42-.49,1.67-1.21,3.26-2.17,4.77-.89,1.41-1.93,2.8-3.13,4.17-1.2,1.37-2.65,2.88-4.36,4.55-2.44,2.39-4.96,4.71-7.55,6.96s-5.02,4.32-7.28,6.24h27.38v5.84Z"/>
    </g>
  </g>
</svg>