<?xml version="1.0" encoding="utf-8"?>
<!-- Generator: Adobe Illustrator 27.2.0, SVG Export Plug-In . SVG Version: 6.00 Build 0)  -->
<svg version="1.1" id="Layer_1" xmlns="http://www.w3.org/2000/svg" xmlns:xlink="http://www.w3.org/1999/xlink" x="0px" y="0px"
	 viewBox="0 0 1403.7 595.8" style="enable-background:new 0 0 1403.7 595.8;" xml:space="preserve">
<style type="text/css">
	.st0{fill:#EFEFEF;}
	.st1{fill:#231F20;}
	.st2{fill:#FFFFFF;}
	.st3{fill:#008686;}
	.st4{fill:#0B6B97;}
</style>
<g>
	<path class="st0" d="M124.5,133h370.3c38.5,0,69.7,31.2,69.7,69.7v137.3c0,38.5-31.2,69.7-69.7,69.7H124.5
		c-38.5,0-69.7-31.2-69.7-69.7V202.7C54.8,164.2,86,133,124.5,133z"/>
	<path class="st0" d="M818.9,58.2h345.7c24.7,0,44.7,20,44.7,44.7v97.8c0,24.7-20,44.7-44.7,44.7H818.9c-24.7,0-44.7-20-44.7-44.7
		v-97.8C774.1,78.2,794.2,58.2,818.9,58.2z"/>
	<path class="st0" d="M809.5,296.4h520.1c19,0,34.5,15.4,34.5,34.5v118.3c0,19-15.4,34.5-34.5,34.5H809.5c-19,0-34.5-15.4-34.5-34.5
		V330.9C775,311.8,790.4,296.4,809.5,296.4z"/>
	<g id="Grupo_2823">
		<path id="Caminho_10155" class="st1" d="M124,182.6h359.6c18.5,0,33.5,15,33.5,33.5v110.4c0,18.5-15,33.5-33.5,33.5H124
			c-18.5,0-33.5-15-33.5-33.5V216.2C90.4,197.7,105.4,182.7,124,182.6C123.9,182.6,124,182.6,124,182.6z"/>
		<g id="Grupo_2822">
			<path id="Caminho_10156" class="st2" d="M232,230.2h4.1v25.1h15.6v3.6H232V230.2L232,230.2z"/>
			<path id="Caminho_10157" class="st2" d="M255.1,230.5c0-1.5,1.2-2.7,2.7-2.7s2.7,1.2,2.7,2.7c0,1.4-1.1,2.6-2.5,2.7
				c0,0-0.1,0-0.1,0C256.3,233.1,255.1,231.9,255.1,230.5z M255.7,237.2h4v21.7h-4V237.2z"/>
			<path id="Caminho_10158" class="st2" d="M303.2,246.4v12.4h-4v-12c0-4.2-2-6.4-5.6-6.4c-4,0-6.5,2.5-6.5,7.1v11.2h-4v-12
				c0-4.2-2-6.4-5.6-6.4c-4,0-6.5,2.5-6.5,7.1v11.2h-4v-21.7h3.8v3.2c1.8-2.3,4.6-3.6,7.5-3.4c3.3,0,6.1,1.3,7.5,4
				c2-2.6,5-4.1,8.3-4C299.6,236.9,303.2,239.9,303.2,246.4L303.2,246.4L303.2,246.4z"/>
			<path id="Caminho_10159" class="st2" d="M309.7,230.5c0-1.5,1.2-2.7,2.7-2.7c1.5,0,2.7,1.2,2.7,2.7c0,1.4-1.1,2.6-2.5,2.7
				c0,0-0.1,0-0.1,0C310.9,233.1,309.7,231.9,309.7,230.5L309.7,230.5z M310.4,237.2h4v21.7h-4V237.2z"/>
			<path id="Caminho_10160" class="st2" d="M334,257.6c-1.3,1-3,1.6-4.7,1.5c-4.3,0-6.9-2.4-6.9-6.8v-11.9h-3.7v-3.2h3.7v-4.7h4v4.7
				h6.2v3.2h-6.2v11.7c-0.2,1.8,1,3.3,2.8,3.6c0.2,0,0.5,0,0.7,0c1.1,0,2.2-0.4,3.1-1L334,257.6L334,257.6z"/>
			<path id="Caminho_10161" class="st2" d="M357.5,249.3h-17.6c0.5,3.8,3.6,6.4,7.9,6.4c2.4,0.1,4.7-0.9,6.2-2.7l2.2,2.5
				c-2.2,2.4-5.3,3.7-8.5,3.6c-7,0-11.6-4.6-11.6-11.1c-0.3-5.8,4.2-10.8,10.1-11.1c0.3,0,0.5,0,0.8,0c6.2,0,10.7,4.5,10.7,11.2
				C357.6,248.4,357.5,249,357.5,249.3L357.5,249.3z M339.9,246.5h13.9c-0.4-3.8-3.9-6.6-7.7-6.2
				C342.8,240.7,340.3,243.3,339.9,246.5z"/>
			<path id="Caminho_10162" class="st2" d="M360.3,256.6l1.7-3.1c2.3,1.5,4.9,2.3,7.6,2.3c3.6,0,5.1-1.1,5.1-2.9
				c0-4.9-13.6-0.6-13.6-9.3c0-4,3.4-6.5,9-6.5c2.8,0,5.5,0.6,7.9,1.9l-1.7,3.1c-1.9-1.2-4-1.8-6.2-1.7c-3.4,0-5.1,1.3-5.1,2.9
				c0,5.1,13.8,0.9,13.8,9.3c0,4-3.6,6.4-9.3,6.4C365.6,259,362.1,258,360.3,256.6L360.3,256.6z"/>
			<path id="Caminho_10163" class="st2" d="M148,279.6c0-1.5,1.2-2.7,2.7-2.7s2.7,1.2,2.7,2.7c0,1.4-1.1,2.6-2.6,2.7
				c0,0-0.1,0-0.1,0C149.2,282.2,148,281,148,279.6L148,279.6z M148.6,286.2h3.9v21.7h-3.9V286.2z"/>
			<path id="Caminho_10164" class="st2" d="M180.6,295.5V308h-3.9v-12c0-4.2-2.2-6.4-5.9-6.4c-4.2,0-6.9,2.5-6.9,7.1v11.1H160v-21.7
				h3.8v3.3c1.9-2.4,4.8-3.6,7.8-3.4C176.9,286.1,180.6,289,180.6,295.5L180.6,295.5z"/>
			<path id="Caminho_10165" class="st2" d="M200.1,306.6c-1.3,1-3,1.6-4.7,1.5c-4.3,0-6.9-2.4-6.9-6.8v-11.9h-3.7v-3.2h3.7v-4.7h3.9
				v4.7h6.2v3.2h-6.2v11.7c-0.2,1.8,1,3.3,2.8,3.6c0.2,0,0.4,0,0.7,0c1.1,0,2.2-0.4,3.1-1L200.1,306.6L200.1,306.6L200.1,306.6z"/>
			<path id="Caminho_10166" class="st2" d="M216.4,286.1v3.8h-0.9c-4.2,0-6.8,2.5-6.8,7.3V308h-3.9v-21.7h3.8v3.6
				C210,287.3,212.8,286.1,216.4,286.1L216.4,286.1z"/>
			<path id="Caminho_10167" class="st2" d="M238.5,294.9V308h-3.8v-2.8c-1.3,1.9-3.7,3.1-7.1,3.1c-4.9,0-8-2.7-8-6.4
				c0-3.4,2.3-6.4,8.7-6.4h6.2v-0.8c0-3.3-1.9-5.2-5.7-5.2c-2.5,0-4.9,0.8-6.9,2.3l-1.7-2.9c2.6-1.9,5.7-2.9,8.9-2.8
				C235.1,286.1,238.5,288.9,238.5,294.9L238.5,294.9L238.5,294.9z M234.6,301.2v-2.9h-6.1c-3.8,0-5,1.5-5,3.3
				c0,2.2,1.8,3.6,4.9,3.6C231.1,305.4,233.6,303.8,234.6,301.2L234.6,301.2z"/>
			<path id="Caminho_10168" class="st2" d="M266.3,295.5V308h-4v-12c0-4.2-2.2-6.4-5.9-6.4c-4.2,0-6.9,2.5-6.9,7.1v11.1h-4v-21.7
				h3.8v3.3c1.9-2.4,4.8-3.6,7.8-3.4C262.6,286.1,266.3,289,266.3,295.5L266.3,295.5z"/>
			<path id="Caminho_10169" class="st2" d="M270.8,305.6l1.7-3.1c2.3,1.5,4.9,2.3,7.6,2.3c3.6,0,5.1-1.1,5.1-2.9
				c0-4.9-13.6-0.6-13.6-9.3c0-4,3.4-6.5,9-6.5c2.8,0,5.5,0.6,7.9,1.9l-1.7,3.1c-1.9-1.2-4-1.8-6.2-1.7c-3.4,0-5.1,1.3-5.1,2.9
				c0,5.1,13.8,0.9,13.8,9.3c0,4-3.6,6.4-9.3,6.4C276.7,308.2,273.5,307.3,270.8,305.6L270.8,305.6L270.8,305.6z"/>
			<path id="Caminho_10170" class="st2" d="M316.6,297c0.3,5.8-4.2,10.8-10,11.1c-0.3,0-0.7,0-1,0c-2.9,0.1-5.8-1.2-7.5-3.6v11.2h-4
				v-29.6h3.8v3.4c1.9-2.4,4.8-3.7,7.8-3.6c5.8-0.2,10.6,4.3,10.9,10.1C316.6,296.4,316.6,296.7,316.6,297L316.6,297z M312.6,297
				c-0.2-4-3.6-7.1-7.6-6.9c-4,0.2-7.1,3.6-6.9,7.6c0.2,3.9,3.4,6.9,7.3,6.9C309.4,304.7,312.6,301.8,312.6,297L312.6,297z"/>
			<path id="Caminho_10171" class="st2" d="M319.9,297c-0.1-6.2,4.9-11.3,11.1-11.4c6.2-0.1,11.3,4.9,11.4,11.1
				c0.1,6.2-4.9,11.3-11.1,11.4c0,0-0.1,0-0.1,0c-6,0.2-11-4.4-11.2-10.4C319.9,297.5,319.9,297.3,319.9,297z M338.5,297
				c0-4.6-3.1-7.6-7.3-7.6s-7.3,2.9-7.3,7.6s3.2,7.6,7.3,7.6S338.5,301.8,338.5,297z"/>
			<path id="Caminho_10172" class="st2" d="M368.5,295.5V308h-4v-12c0-4.2-2.2-6.4-5.9-6.4c-4.2,0-6.9,2.5-6.9,7.1v11.1h-4v-21.7
				h3.7v3.3c1.9-2.4,4.8-3.6,7.8-3.4C364.8,286.1,368.5,289,368.5,295.5L368.5,295.5z"/>
			<path id="Caminho_10173" class="st2" d="M380.2,277.8h5l-6.9,5.4h-3.7L380.2,277.8L380.2,277.8z M375.7,286.2h4v21.7h-4V286.2z"
				/>
			<path id="Caminho_10174" class="st2" d="M406.3,286.2l-9.4,21.7h-4l-9.4-21.7h4.1l7.4,17.3l7.6-17.3H406.3L406.3,286.2z"/>
			<path id="Caminho_10175" class="st2" d="M428.9,298.4h-17.6c0.5,3.8,3.6,6.4,7.9,6.4c2.4,0.1,4.7-0.9,6.2-2.7l2.2,2.5
				c-2.2,2.4-5.3,3.7-8.5,3.6c-7,0-11.6-4.6-11.6-11.1c-0.3-5.8,4.2-10.8,10.1-11.1c0.3,0,0.5,0,0.8,0c6.2,0,10.7,4.5,10.7,11.2
				C429.1,297.5,428.9,298.1,428.9,298.4L428.9,298.4z M411.3,295.5h13.9c-0.3-3.6-3.3-6.3-6.9-6.2
				C414.7,289.2,411.7,291.9,411.3,295.5L411.3,295.5z"/>
			<path id="Caminho_10176" class="st2" d="M433.8,279.6c0-1.5,1.2-2.7,2.7-2.7c1.5,0,2.7,1.2,2.7,2.7c0,1.4-1.1,2.6-2.5,2.7
				c0,0-0.1,0-0.1,0C435,282.2,433.8,281,433.8,279.6L433.8,279.6z M434.4,286.2h4v21.7h-4V286.2z"/>
			<path id="Caminho_10177" class="st2" d="M443.1,305.6l1.7-3.1c2.3,1.5,4.9,2.3,7.6,2.3c3.6,0,5.1-1.1,5.1-2.9
				c0-4.9-13.6-0.6-13.6-9.3c0-4,3.4-6.5,9-6.5c2.8,0,5.5,0.6,7.9,1.9l-1.7,3.1c-1.9-1.2-4-1.8-6.2-1.7c-3.4,0-5.1,1.3-5.1,2.9
				c0,5.1,13.8,0.9,13.8,9.3c0,4-3.6,6.4-9.3,6.4C449,308.2,445.8,307.4,443.1,305.6L443.1,305.6z"/>
		</g>
	</g>
	<path id="Caminho_10178" class="st3" d="M822.9,80.6h337.7c14.5,0,26.3,11.8,26.3,26.3v86.6c0,14.5-11.8,26.3-26.3,26.3H822.9
		c-14.5,0-26.3-11.8-26.3-26.3v-86.6C796.5,92.4,808.3,80.6,822.9,80.6C822.8,80.6,822.8,80.6,822.9,80.6L822.9,80.6z"/>
	<g id="Grupo_2824">
		<path id="Caminho_10179" class="st2" d="M849.9,122.3h10.2c7.3,0,12.4,4.4,12.4,11.2c0,6.8-5,11.2-12.4,11.2h-10.2V122.3z
			 M859.9,140.5c4.5,0,7.4-2.7,7.4-7c0-4.3-2.9-7-7.4-7h-4.7v13.9L859.9,140.5z"/>
		<path id="Caminho_10180" class="st2" d="M874.8,136.1c0-5.2,4-8.9,9.5-8.9s9.5,3.7,9.5,8.9c0,5.2-4,8.9-9.5,8.9
			S874.8,141.3,874.8,136.1z M888.7,136.1c0-3-1.9-4.8-4.4-4.8s-4.4,1.8-4.4,4.8s1.9,4.8,4.4,4.8S888.7,139.1,888.7,136.1
			L888.7,136.1z"/>
		<path id="Caminho_10181" class="st2" d="M914.8,127.5v14.4c0,6.4-3.5,9.4-9.7,9.4c-3,0.1-6-0.7-8.5-2.4l2-3.6c1.8,1.3,3.9,2,6.1,2
			c3.5,0,5.1-1.6,5.1-4.7v-0.7c-1.5,1.5-3.5,2.2-5.5,2.1c-4.8,0-8.6-3.3-8.6-8.3s3.8-8.3,8.6-8.3c2.2-0.1,4.3,0.8,5.7,2.5v-2.2
			L914.8,127.5L914.8,127.5L914.8,127.5z M909.9,135.6c0.2-2.5-1.7-4.6-4.2-4.8c-2.5-0.2-4.6,1.7-4.8,4.2c-0.2,2.5,1.7,4.6,4.2,4.8
			c0.1,0,0.2,0,0.3,0c2.3,0.2,4.3-1.6,4.5-3.9C909.8,135.8,909.9,135.7,909.9,135.6L909.9,135.6L909.9,135.6z"/>
		<path id="Caminho_10182" class="st2" d="M948.6,134.9v9.9h-5v-9.1c0-2.8-1.2-4.1-3.3-4.1s-3.8,1.4-3.8,4.5v8.7h-5v-9.1
			c0-2.8-1.2-4.1-3.3-4.1s-3.8,1.4-3.8,4.5v8.7h-5v-17.2h4.8v2c1.4-1.5,3.4-2.3,5.4-2.2c2.3-0.1,4.4,0.9,5.7,2.8
			c1.5-1.9,3.8-2.9,6.2-2.8C945.7,127.2,948.6,129.6,948.6,134.9L948.6,134.9L948.6,134.9z"/>
		<path id="Caminho_10183" class="st2" d="M968.4,134.9v9.8h-4.7v-2.1c-0.9,1.6-2.7,2.4-5.3,2.4c-4,0-6.4-2.2-6.4-5.2
			s2.2-5.2,7.4-5.2h4c0-2.1-1.3-3.4-4-3.4c-1.8,0-3.5,0.6-5,1.6l-1.8-3.5c2.2-1.4,4.8-2.2,7.4-2.1
			C965.3,127.2,968.4,129.6,968.4,134.9L968.4,134.9L968.4,134.9z M963.4,139.3v-1.8h-3.5c-2.3,0-3.1,0.9-3.1,2
			c0,1.2,1.1,2.1,2.8,2.1C961.2,141.7,962.7,140.8,963.4,139.3z"/>
		<path id="Caminho_10184" class="st2" d="M971.7,130.3c0-1.7,1.4-3.1,3.1-3.1s3.1,1.4,3.1,3.1c0,1.7-1.4,3.1-3.1,3.1l0,0
			c-1.7,0.1-3-1.2-3.1-2.9C971.7,130.5,971.7,130.4,971.7,130.3z M971.7,141.8c0-1.7,1.4-3.1,3.1-3.1s3.1,1.4,3.1,3.1
			c0,1.7-1.4,3.1-3.1,3.1l0,0c-1.7,0.1-3-1.2-3.1-2.9C971.7,142,971.7,141.9,971.7,141.8z"/>
		<path id="Caminho_10185" class="st2" d="M1008.1,136.2c0.2,4.6-3.3,8.5-7.8,8.7c-0.3,0-0.5,0-0.8,0c-2.3,0.1-4.5-1-5.9-2.8v8.8
			h-3.1v-23.2h3v2.7c1.4-1.9,3.7-3,6.1-2.9c4.6-0.1,8.4,3.5,8.5,8.1C1008.1,135.8,1008.1,136,1008.1,136.2L1008.1,136.2z
			 M1005,136.2c-0.2-3.1-2.8-5.6-6-5.4c-3.2,0.2-5.6,2.8-5.4,6c0.2,3,2.7,5.4,5.7,5.4C1002.5,142.2,1005,139.9,1005,136.2
			L1005,136.2L1005,136.2z"/>
		<path id="Caminho_10186" class="st2" d="M1010.8,136.2c-0.1-4.9,3.8-8.8,8.7-8.9s8.8,3.8,8.9,8.7c0.1,4.9-3.8,8.8-8.7,8.9
			c0,0-0.1,0-0.1,0c-4.7,0.2-8.6-3.5-8.8-8.2C1010.8,136.6,1010.8,136.4,1010.8,136.2L1010.8,136.2z M1025.4,136.2
			c0-3.6-2.4-6-5.7-6s-5.7,2.3-5.7,6c0,3.7,2.5,6,5.7,6S1025.4,139.9,1025.4,136.2L1025.4,136.2z"/>
		<path id="Caminho_10187" class="st2" d="M1048.9,134.9v9.8h-3.1v-9.4c0-3.3-1.7-5-4.6-5c-3.3,0-5.4,2-5.4,5.6v8.8h-3.1v-17h2.9
			v2.6c1.5-1.8,3.8-2.9,6.1-2.7C1046,127.6,1048.9,129.9,1048.9,134.9L1048.9,134.9z"/>
		<path id="Caminho_10188" class="st2" d="M1064.1,143.7c-1.1,0.8-2.4,1.2-3.7,1.2c-3.4,0-5.4-1.9-5.4-5.3v-9.3h-2.9v-2.5h2.9V124
			h3.1v3.7h4.9v2.5h-4.9v9.2c-0.2,1.4,0.8,2.7,2.2,2.9c0.2,0,0.3,0,0.5,0c0.9,0,1.7-0.3,2.4-0.8L1064.1,143.7L1064.1,143.7z"/>
		<path id="Caminho_10189" class="st2" d="M1065.7,136.2c-0.1-4.9,3.8-8.8,8.7-8.9s8.8,3.8,8.9,8.7c0.1,4.9-3.8,8.8-8.7,8.9
			c0,0-0.1,0-0.1,0c-4.7,0.2-8.6-3.5-8.8-8.2C1065.7,136.6,1065.7,136.4,1065.7,136.2z M1080.3,136.2c0-3.6-2.4-6-5.7-6
			s-5.7,2.3-5.7,6c0,3.7,2.5,6,5.7,6S1080.3,139.9,1080.3,136.2L1080.3,136.2z"/>
		<path id="Caminho_10190" class="st2" d="M1112.3,120.9v23.8h-2.9V142c-1.4,1.9-3.7,3-6.1,2.9c-4.8,0-8.7-3.9-8.7-8.7
			c0-4.8,3.9-8.7,8.7-8.7c2.3-0.1,4.5,0.9,5.9,2.7V121L1112.3,120.9L1112.3,120.9z M1109.3,136.2c0.2-3.1-2.2-5.8-5.3-6
			c-0.1,0-0.3,0-0.4,0c-3.2,0-5.7,2.3-5.7,6c0,3.7,2.5,6,5.7,6S1109.3,139.9,1109.3,136.2L1109.3,136.2L1109.3,136.2z"/>
		<path id="Caminho_10191" class="st2" d="M1133.4,137.2h-13.8c0.4,3,2.8,5,6.2,5c1.8,0.1,3.6-0.7,4.9-2l1.7,2
			c-1.7,1.9-4.2,2.9-6.7,2.8c-5.5,0-9.1-3.6-9.1-8.7c-0.2-4.6,3.3-8.5,7.9-8.7c0.2,0,0.4,0,0.6,0c4.9,0,8.4,3.5,8.4,8.8
			C1133.5,136.7,1133.4,137,1133.4,137.2L1133.4,137.2L1133.4,137.2z M1119.6,135h10.9c-0.2-2.8-2.6-5-5.4-4.9
			C1122.2,130.1,1119.9,132.2,1119.6,135z"/>
		<path id="Caminho_10192" class="st2" d="M851.7,174.7c0.2,4.6-3.3,8.5-7.8,8.7c-0.3,0-0.5,0-0.8,0c-2.3,0.1-4.5-1-5.9-2.8v8.8
			h-3.1v-23.2h3v2.7c1.4-1.9,3.7-3,6.1-2.9C848.1,166,851.7,169.5,851.7,174.7L851.7,174.7z M848.6,174.7c-0.2-3.1-2.8-5.6-6-5.4
			c-3.2,0.2-5.6,2.8-5.4,6c0.2,3,2.7,5.4,5.7,5.4c3.1,0,5.7-2.5,5.7-5.6C848.6,175,848.6,174.8,848.6,174.7L848.6,174.7z"/>
		<path id="Caminho_10193" class="st2" d="M869.3,172.9v10.3h-2.9V181c-1,1.5-2.9,2.4-5.6,2.4c-3.8,0-6.3-2-6.3-5c0-2.7,1.8-5,6.8-5
			h4.9v-0.6c0-2.6-1.5-4.1-4.5-4.1c-2,0-3.8,0.6-5.4,1.8l-1.3-2.3c2-1.5,4.5-2.2,7-2.2C866.7,166.1,869.3,168.3,869.3,172.9
			L869.3,172.9L869.3,172.9z M866.2,178v-2.4h-4.8c-3,0-3.9,1.2-3.9,2.6c0,1.7,1.4,2.8,3.8,2.8S865.5,180,866.2,178L866.2,178z"/>
		<path id="Caminho_10194" class="st2" d="M884.2,166v3h-0.7c-3.3,0-5.3,2-5.3,5.7v8.5h-3.1v-17h3v2.9
			C879.1,167.1,881.2,166,884.2,166L884.2,166z"/>
		<path id="Caminho_10195" class="st2" d="M898.2,182.2c-1,0.8-2.4,1.2-3.7,1.2c-3.4,0-5.4-1.9-5.4-5.3v-9.3h-2.9v-2.5h2.9v-3.7h3.1
			v3.7h4.9v2.5h-4.9v9.2c-0.2,1.4,0.8,2.7,2.2,2.9c0.2,0,0.3,0,0.5,0c0.9,0,1.7-0.3,2.4-0.8L898.2,182.2z"/>
		<path id="Caminho_10196" class="st2" d="M901.4,161c-0.1-1.2,0.8-2.1,2-2.2s2.1,0.8,2.2,2s-0.8,2.1-2,2.2c0,0-0.1,0-0.1,0
			C902.3,163,901.4,162.2,901.4,161C901.4,161,901.4,161,901.4,161L901.4,161z M901.9,166.2h3.1v17h-3.1V166.2z"/>
		<path id="Caminho_10197" class="st2" d="M926.9,159.4v23.8h-3v-2.7c-1.4,1.9-3.7,3-6.1,2.9c-4.8,0-8.7-3.9-8.7-8.7
			c0-4.8,3.9-8.7,8.7-8.7c2.3-0.1,4.5,0.9,5.9,2.7v-9.4L926.9,159.4L926.9,159.4L926.9,159.4z M923.9,174.7c0.2-3.1-2.2-5.8-5.3-6
			c-0.1,0-0.3,0-0.4,0c-3.2,0-5.7,2.3-5.7,6c0,3.7,2.5,6,5.7,6c3.1,0,5.7-2.5,5.7-5.6C923.9,175,923.9,174.8,923.9,174.7
			L923.9,174.7L923.9,174.7z"/>
		<path id="Caminho_10198" class="st2" d="M946.2,172.9v10.3h-2.9V181c-1,1.5-2.9,2.4-5.6,2.4c-3.8,0-6.3-2-6.3-5c0-2.7,1.8-5,6.8-5
			h4.9v-0.6c0-2.6-1.5-4.1-4.5-4.1c-2,0-3.8,0.6-5.4,1.8l-1.3-2.3c2-1.5,4.5-2.2,7-2.2C943.6,166.1,946.2,168.3,946.2,172.9
			L946.2,172.9L946.2,172.9z M943.1,178v-2.4h-4.8c-3,0-3.9,1.2-3.9,2.6c0,1.7,1.4,2.8,3.8,2.8S942.4,180,943.1,178L943.1,178z"/>
		<path id="Caminho_10199" class="st2" d="M960,161c-0.1-1.2,0.8-2.1,2-2.2s2.1,0.8,2.2,2s-0.8,2.1-2,2.2c0,0-0.1,0-0.1,0
			C960.9,163,960,162.2,960,161C960,161,960,161,960,161L960,161z M960.5,166.2h3.1v17h-3.1V166.2z"/>
		<path id="Caminho_10200" class="st2" d="M985.6,173.4v9.8h-3.1v-9.4c0-3.3-1.7-5-4.6-5c-3.3,0-5.4,2-5.4,5.6v8.8h-3.1v-17h3v2.6
			c1.5-1.8,3.8-2.9,6.1-2.7C982.7,166,985.6,168.4,985.6,173.4L985.6,173.4L985.6,173.4z"/>
		<path id="Caminho_10201" class="st2" d="M1007.4,159.4v23.8h-2.9v-2.7c-1.4,1.9-3.7,3-6.1,2.9c-4.8,0-8.7-3.9-8.7-8.7
			c0-4.8,3.9-8.7,8.7-8.7c2.3-0.1,4.5,0.9,5.9,2.7v-9.4L1007.4,159.4z M1004.4,174.7c0.2-3.1-2.2-5.8-5.3-6c-0.1,0-0.3,0-0.4,0
			c-3.2,0-5.7,2.3-5.7,6c0,3.7,2.5,6,5.7,6c3.1,0,5.7-2.5,5.7-5.6C1004.4,175,1004.4,174.8,1004.4,174.7L1004.4,174.7L1004.4,174.7z
			"/>
		<path id="Caminho_10202" class="st2" d="M1012.7,161c-0.1-1.2,0.8-2.1,2-2.2s2.1,0.8,2.2,2c0.1,1.2-0.8,2.1-2,2.2c0,0-0.1,0-0.1,0
			C1013.6,163,1012.7,162.2,1012.7,161C1012.7,161,1012.7,161,1012.7,161z M1013.3,166.2h3.1v17h-3.1V166.2z"/>
		<path id="Caminho_10203" class="st2" d="M1020.1,181.4l1.3-2.4c1.8,1.2,3.9,1.8,6,1.8c2.8,0,4-0.9,4-2.3c0-3.8-10.7-0.5-10.7-7.3
			c0-3,2.7-5.1,7.1-5.1c2.2,0,4.3,0.5,6.2,1.5l-1.3,2.4c-1.5-0.9-3.2-1.4-4.9-1.4c-2.7,0-4,1-4,2.3c0,4,10.8,0.7,10.8,7.3
			c0,3.1-2.8,5-7.3,5C1024.7,183.4,1022.2,182.8,1020.1,181.4z"/>
		<path id="Caminho_10204" class="st2" d="M1036.7,174.7c0-5.1,3.8-8.7,9-8.7c3,0,5.6,1.2,6.9,3.6l-2.3,1.5c-1-1.6-2.8-2.5-4.6-2.4
			c-3.3,0-6,2.7-6,6s2.7,6,6,6c1.8,0,3.6-0.9,4.6-2.4l2.3,1.5c-1.3,2.4-3.9,3.6-6.9,3.6C1040.5,183.4,1036.7,179.8,1036.7,174.7
			L1036.7,174.7z"/>
		<path id="Caminho_10205" class="st2" d="M1072.4,166.2v17h-2.9v-2.6c-1.3,1.8-3.5,2.9-5.8,2.8c-4.4,0-7.3-2.4-7.3-7.4v-9.8h3.1
			v9.4c0,3.3,1.7,5,4.6,5c3.2,0,5.3-2,5.3-5.6v-8.8H1072.4L1072.4,166.2z"/>
		<path id="Caminho_10206" class="st2" d="M1087.8,182.2c-1.1,0.8-2.4,1.2-3.7,1.2c-3.4,0-5.4-1.9-5.4-5.3v-9.3h-2.9v-2.5h2.9v-3.7
			h3.1v3.7h4.9v2.5h-4.9v9.2c-0.2,1.4,0.8,2.7,2.2,2.9c0.2,0,0.3,0,0.5,0c0.9,0,1.7-0.3,2.4-0.8L1087.8,182.2z"/>
		<path id="Caminho_10207" class="st2" d="M1095.1,159.6h3.9l-5.4,4.2h-2.9L1095.1,159.6z M1091.6,166.2h3.1v17h-3.1V166.2z"/>
		<path id="Caminho_10208" class="st2" d="M1115.5,166.2l-7.4,17h-3.1l-7.4-17h3.2l5.8,13.6l6-13.6H1115.5z"/>
		<path id="Caminho_10209" class="st2" d="M1133.2,175.7h-13.8c0.4,3,2.8,5,6.2,5c1.8,0.1,3.6-0.7,4.9-2l1.7,2
			c-1.7,1.9-4.2,2.9-6.7,2.8c-5.5,0-9.1-3.6-9.1-8.7c-0.2-4.6,3.3-8.5,7.9-8.7c0.2,0,0.4,0,0.6,0c4.9,0,8.4,3.5,8.4,8.8
			C1133.3,175.2,1133.2,175.5,1133.2,175.7L1133.2,175.7L1133.2,175.7z M1119.4,173.5h10.9c-0.2-2.8-2.6-5-5.4-4.9
			C1122,168.6,1119.6,170.7,1119.4,173.5z"/>
		<path id="Caminho_10210" class="st2" d="M1137.6,159.4h3.1v23.8h-3.1V159.4z"/>
		<path id="Caminho_10211" class="st2" d="M1145.1,181.2c0-1.2,0.9-2.2,2.1-2.2c0,0,0.1,0,0.1,0c1.2,0,2.1,0.9,2.1,2
			c0,0.1,0,0.1,0,0.1c0,1.2-0.9,2.2-2.1,2.2c0,0,0,0,0,0C1146,183.4,1145.1,182.4,1145.1,181.2z"/>
	</g>
	<path id="Caminho_10212" class="st4" d="M823,320.6h493c14.5,0,26.3,11.8,26.3,26.3v86.6c0,14.5-11.8,26.3-26.3,26.3H823
		c-14.5,0-26.3-11.8-26.3-26.3v-86.6C796.7,332.4,808.5,320.6,823,320.6z"/>
	<g id="Grupo_2826">
		<path id="Caminho_10213" class="st2" d="M851.6,380.2l1.8-3.9c2.2,1.5,4.8,2.3,7.4,2.3c3.1,0,4.3-1,4.3-2.4c0-4.2-13-1.3-13-9.6
			c0-3.8,3.1-7,9.5-7c2.7,0,5.4,0.6,7.8,2l-1.6,3.9c-1.9-1.1-4-1.8-6.2-1.8c-3.1,0-4.3,1.1-4.3,2.6c0,4.1,13,1.3,13,9.5
			c0,3.8-3.1,7-9.5,7C857.6,382.9,854.4,382,851.6,380.2z"/>
		<path id="Caminho_10214" class="st2" d="M872.2,373.8c0-5.2,4-8.9,9.5-8.9s9.5,3.7,9.5,8.9s-4,8.9-9.5,8.9
			S872.2,378.9,872.2,373.8z M886,373.8c0-3-1.9-4.8-4.4-4.8s-4.4,1.8-4.4,4.8s1.9,4.8,4.4,4.8S886,376.7,886,373.8z"/>
		<path id="Caminho_10215" class="st2" d="M894.4,358.6h5v23.8h-5V358.6z"/>
		<path id="Caminho_10216" class="st2" d="M921.5,365.1v17.2h-4.7v-2c-1.3,1.5-3.3,2.4-5.3,2.3c-4.3,0-7.4-2.4-7.4-7.8V365h5v9
			c0,2.9,1.3,4.2,3.5,4.2s4-1.5,4-4.6v-8.5L921.5,365.1L921.5,365.1z"/>
		<path id="Caminho_10217" class="st2" d="M938.3,376.2l3.9,2.1c-1.2,2.7-3.9,4.2-7.3,4.4l-0.3,1.4c2,0.2,2.8,1.4,2.8,2.7
			c0,2-1.9,3.2-4.7,3.2c-1,0-2.1-0.2-3-0.7l0.8-2.1c0.7,0.3,1.4,0.5,2.1,0.5c1.2,0,1.7-0.4,1.7-1c0-0.5-0.5-0.9-1.6-0.9h-1.1
			l0.8-3.1c-4.3-0.6-7.5-4.3-7.4-8.7c0-5.2,4-8.9,9.6-8.9c3.6,0,6.5,1.6,7.7,4.4l-3.9,2.1c-0.7-1.5-2.2-2.4-3.9-2.4
			c-2.7,0.2-4.7,2.5-4.5,5.1c0.2,2.4,2.1,4.3,4.5,4.5C936.1,378.6,937.5,377.6,938.3,376.2L938.3,376.2L938.3,376.2z"/>
		<path id="Caminho_10218" class="st2" d="M960.3,372.5v9.8h-4.7v-2.1c-0.9,1.6-2.7,2.4-5.3,2.4c-4,0-6.4-2.2-6.4-5.2
			s2.2-5.2,7.4-5.2h4c0-2.1-1.3-3.4-4-3.4c-1.8,0-3.5,0.5-5,1.6l-1.8-3.5c2.2-1.4,4.8-2.2,7.4-2.1
			C957.3,364.9,960.3,367.3,960.3,372.5L960.3,372.5L960.3,372.5z M948.9,362.8h-2.5c0.1-2.9,1.5-4.7,3.8-4.7s3.3,2,4.5,2
			c0.8,0,1.5-0.7,1.5-1.5c0,0,0-0.1,0-0.1h2.5c-0.1,2.8-1.5,4.6-3.8,4.6s-3.3-2-4.5-2C949.6,361,949,361.6,948.9,362.8L948.9,362.8
			L948.9,362.8z M955.3,376.9v-1.8h-3.4c-2.3,0-3.1,0.9-3.1,2c0,1.2,1.1,2.1,2.8,2.1C953.2,379.4,954.8,378.4,955.3,376.9
			L955.3,376.9L955.3,376.9z"/>
		<path id="Caminho_10219" class="st2" d="M963.8,373.8c0-5.2,4-8.9,9.5-8.9s9.5,3.7,9.5,8.9s-4,8.9-9.5,8.9
			S963.8,378.9,963.8,373.8z M977.6,373.8c0-3-1.9-4.8-4.4-4.8s-4.4,1.8-4.4,4.8s1.9,4.8,4.4,4.8S977.6,376.7,977.6,373.8z"/>
		<path id="Caminho_10220" class="st2" d="M1012.7,358.6v23.8h-4.8v-2c-1.4,1.5-3.4,2.3-5.4,2.2c-4.9,0-8.6-3.5-8.6-8.9
			s3.8-8.9,8.6-8.9c2-0.1,3.8,0.7,5.2,2.1v-8.4L1012.7,358.6L1012.7,358.6L1012.7,358.6z M1007.8,373.8c0-3-1.9-4.8-4.4-4.8
			s-4.4,1.8-4.4,4.8s1.9,4.8,4.4,4.8S1007.8,376.7,1007.8,373.8L1007.8,373.8z"/>
		<path id="Caminho_10221" class="st2" d="M1016,373.8c0-5.2,4-8.9,9.5-8.9s9.5,3.7,9.5,8.9s-4,8.9-9.5,8.9S1016,378.9,1016,373.8z
			 M1029.9,373.8c0-3-1.9-4.8-4.4-4.8s-4.4,1.8-4.4,4.8s1.9,4.8,4.4,4.8S1029.9,376.7,1029.9,373.8z"/>
		<path id="Caminho_10222" class="st2" d="M1046.1,373.8c0-5.2,4-8.9,9.6-8.9c3.6,0,6.5,1.6,7.7,4.4l-3.9,2.1
			c-0.7-1.5-2.2-2.4-3.9-2.4c-2.7,0.2-4.7,2.5-4.5,5.1c0.2,2.4,2.1,4.3,4.5,4.5c1.7,0,3.2-0.9,3.9-2.4l3.9,2.1
			c-1.2,2.8-4.1,4.4-7.7,4.4C1050.1,382.6,1046.1,378.9,1046.1,373.8L1046.1,373.8z"/>
		<path id="Caminho_10223" class="st2" d="M1081.6,372.5v9.8h-4.7v-2.1c-0.9,1.6-2.7,2.4-5.3,2.4c-4,0-6.4-2.2-6.4-5.2
			s2.2-5.2,7.4-5.2h4c0-2.1-1.3-3.4-4-3.4c-1.8,0-3.5,0.5-5,1.6l-1.8-3.5c2.2-1.4,4.8-2.2,7.4-2.1
			C1078.5,364.9,1081.6,367.3,1081.6,372.5L1081.6,372.5L1081.6,372.5z M1076.6,376.9v-1.8h-3.4c-2.3,0-3.1,0.9-3.1,2
			c0,1.2,1.1,2.1,2.8,2.1C1074.5,379.4,1076.1,378.4,1076.6,376.9L1076.6,376.9L1076.6,376.9z"/>
		<path id="Caminho_10224" class="st2" d="M1084.4,380.8l1.7-3.6c1.8,1.1,3.9,1.7,6,1.7c2.3,0,3.2-0.6,3.2-1.6
			c0-2.8-10.4,0.1-10.4-6.8c0-3.3,2.9-5.6,8-5.6c2.3-0.1,4.6,0.4,6.6,1.5l-1.7,3.6c-1.5-0.9-3.2-1.3-5-1.3c-2.2,0-3.2,0.7-3.2,1.6
			c0,3,10.4,0.1,10.4,6.9c0,3.2-3,5.5-8.1,5.5C1089.3,382.7,1086.7,382,1084.4,380.8L1084.4,380.8L1084.4,380.8z"/>
		<path id="Caminho_10225" class="st2" d="M1101.8,373.8c0-5.2,4-8.9,9.5-8.9s9.5,3.7,9.5,8.9s-4,8.9-9.5,8.9
			S1101.8,378.9,1101.8,373.8z M1115.7,373.8c0-3-1.9-4.8-4.4-4.8s-4.4,1.8-4.4,4.8s1.9,4.8,4.4,4.8S1115.7,376.7,1115.7,373.8z"/>
		<path id="Caminho_10226" class="st2" d="M1131.9,373.8c0-5.2,4-8.9,9.6-8.9c3.6,0,6.5,1.6,7.7,4.4l-3.9,2.1
			c-0.7-1.5-2.2-2.4-3.9-2.4c-2.7,0.2-4.7,2.5-4.5,5.1c0.2,2.4,2.1,4.3,4.5,4.5c1.7,0,3.2-0.9,3.9-2.4l3.9,2.1
			c-1.2,2.8-4.1,4.4-7.7,4.4C1135.9,382.6,1131.9,378.9,1131.9,373.8L1131.9,373.8z"/>
		<path id="Caminho_10227" class="st2" d="M1150.6,373.8c0-5.2,4-8.9,9.5-8.9s9.5,3.7,9.5,8.9s-4,8.9-9.5,8.9
			S1150.6,378.9,1150.6,373.8z M1164.5,373.8c0-3-1.9-4.8-4.4-4.8s-4.4,1.8-4.4,4.8s1.9,4.8,4.4,4.8S1164.5,376.7,1164.5,373.8z"/>
		<path id="Caminho_10228" class="st2" d="M1190.5,372.5v9.9h-5v-9.1c0-2.8-1.3-4.1-3.5-4.1c-2.4,0-4.1,1.5-4.1,4.6v8.5h-5v-17.2
			h4.8v2c1.5-1.5,3.6-2.4,5.7-2.3C1187.5,364.9,1190.6,367.2,1190.5,372.5L1190.5,372.5z"/>
		<path id="Caminho_10229" class="st2" d="M1194,373.8c0-5.2,4-8.9,9.6-8.9c3.6,0,6.5,1.6,7.7,4.4l-3.9,2.1
			c-0.7-1.5-2.2-2.4-3.9-2.4c-2.7,0.2-4.7,2.5-4.5,5.1c0.2,2.4,2.1,4.3,4.5,4.5c1.7,0,3.2-0.9,3.9-2.4l3.9,2.1
			c-1.2,2.8-4.1,4.4-7.7,4.4C1198,382.6,1194,378.9,1194,373.8L1194,373.8z"/>
		<path id="Caminho_10230" class="st2" d="M1224.9,364.9v4.6c-0.4,0-0.7-0.1-1.1-0.1c-2.8,0-4.6,1.5-4.6,4.8v8.1h-5v-17.2h4.8v2.3
			C1220.2,365.7,1222.3,364.9,1224.9,364.9L1224.9,364.9L1224.9,364.9z"/>
		<path id="Caminho_10231" class="st2" d="M1244.5,375.2h-13.1c0.6,2.2,2.6,3.7,4.9,3.5c1.6,0.1,3.2-0.5,4.3-1.7l2.7,2.9
			c-1.8,1.9-4.4,3-7.1,2.8c-6,0-9.8-3.8-9.8-8.9s3.9-8.9,9.2-8.9s9,3.4,9,8.9C1244.6,374.3,1244.6,374.7,1244.5,375.2L1244.5,375.2
			L1244.5,375.2z M1231.4,372.2h8.5c-0.2-2.1-2.1-3.7-4.2-3.6C1233.6,368.5,1231.7,370.1,1231.4,372.2z"/>
		<path id="Caminho_10232" class="st2" d="M1259.1,381.5c-1.2,0.8-2.7,1.1-4.1,1.1c-4.1,0-6.4-2.1-6.4-6.2v-7.1h-2.7v-3.9h2.7v-4.2
			h5v4.2h4.3v3.9h-4.3v7c-0.2,1.1,0.6,2.1,1.7,2.3c0.2,0,0.3,0,0.5,0c0.7,0,1.4-0.2,2-0.6L1259.1,381.5L1259.1,381.5z"/>
		<path id="Caminho_10233" class="st2" d="M1260.1,373.8c0-5.2,4-8.9,9.5-8.9s9.5,3.7,9.5,8.9s-4,8.9-9.5,8.9
			S1260.1,378.9,1260.1,373.8z M1274,373.8c0-3-1.9-4.8-4.4-4.8s-4.4,1.8-4.4,4.8s1.9,4.8,4.4,4.8S1274,376.7,1274,373.8z"/>
		<path id="Caminho_10234" class="st2" d="M1281.2,368c0-1.7,1.4-3.1,3.1-3.1s3.1,1.4,3.1,3.1s-1.4,3.1-3.1,3.1l0,0
			c-1.7,0-3.1-1.3-3.1-3C1281.2,368.1,1281.2,368,1281.2,368z M1281.2,379.5c0-1.7,1.4-3.1,3.1-3.1s3.1,1.4,3.1,3.1
			s-1.4,3.1-3.1,3.1l0,0c-1.7,0-3.1-1.3-3.1-3C1281.2,379.6,1281.2,379.5,1281.2,379.5z"/>
		<path id="Caminho_10235" class="st2" d="M823.7,412.3c-0.1-4.9,3.8-8.8,8.7-8.9s8.8,3.8,8.9,8.7c0.1,4.9-3.8,8.8-8.7,8.9
			c0,0-0.1,0-0.1,0c-4.7,0.2-8.6-3.5-8.8-8.2C823.7,412.7,823.7,412.5,823.7,412.3L823.7,412.3z M838.2,412.3c0-3.6-2.4-6-5.7-6
			s-5.7,2.3-5.7,6s2.5,6,5.7,6S838.2,416,838.2,412.3z"/>
		<path id="Caminho_10236" class="st2" d="M863.2,412.3c0.2,4.6-3.3,8.5-7.8,8.7c-0.3,0-0.5,0-0.8,0c-2.4,0.1-4.7-1-6.1-2.9v2.7h-3
			V397h3.1v9.4c1.4-1.8,3.6-2.8,5.9-2.7C859.6,403.7,863.2,407.2,863.2,412.3L863.2,412.3z M860.1,412.3c0.2-3.1-2.2-5.8-5.3-6
			c-0.1,0-0.3,0-0.4,0c-3.2,0-5.7,2.3-5.7,6s2.5,6,5.7,6S860.1,416,860.1,412.3L860.1,412.3z"/>
		<path id="Caminho_10237" class="st2" d="M876.6,403.7v3h-0.7c-3.3,0-5.3,2-5.3,5.7v8.5h-3.1v-17h3v2.8
			C871.5,404.7,873.6,403.7,876.6,403.7z"/>
		<path id="Caminho_10238" class="st2" d="M879.9,398.6c0-1.2,0.9-2.1,2.1-2.1s2.1,0.9,2.1,2.1c0,1.1-0.8,2-1.9,2c0,0-0.1,0-0.2,0
			C880.9,400.6,880,399.8,879.9,398.6C879.9,398.6,879.9,398.6,879.9,398.6z M880.4,403.9h3.1v17h-3.1V403.9z"/>
		<path id="Caminho_10239" class="st2" d="M905.6,403.9v14.7c0,6-3,8.7-8.8,8.7c-2.9,0.1-5.8-0.8-8.1-2.5l1.5-2.4
			c1.9,1.4,4.2,2.2,6.5,2.2c4,0,5.8-1.9,5.8-5.7v-1.3c-1.5,1.8-3.8,2.7-6.1,2.6c-4.9,0-8.6-3.3-8.6-8.2s3.7-8.2,8.6-8.2
			c2.4-0.1,4.8,0.9,6.3,2.8V404L905.6,403.9L905.6,403.9L905.6,403.9z M902.6,411.9c0-3.3-2.4-5.5-5.8-5.5s-5.9,2.2-5.9,5.5
			s2.4,5.5,5.9,5.5S902.6,415.2,902.6,411.9z"/>
		<path id="Caminho_10240" class="st2" d="M924.9,410.6v10.3H922v-2.2c-1,1.5-2.9,2.4-5.6,2.4c-3.8,0-6.3-2-6.3-5c0-2.7,1.8-5,6.8-5
			h4.9v-0.6c0-2.6-1.5-4.1-4.5-4.1c-2,0-3.8,0.6-5.4,1.8l-1.3-2.3c2-1.5,4.5-2.2,7-2.2C922.3,403.7,924.9,406,924.9,410.6
			L924.9,410.6L924.9,410.6z M921.9,415.7v-2.4h-4.8c-3,0-3.9,1.2-3.9,2.6c0,1.7,1.4,2.8,3.8,2.8
			C919.1,418.9,921.1,417.7,921.9,415.7L921.9,415.7z"/>
		<path id="Caminho_10241" class="st2" d="M940.2,419.8c-1,0.8-2.4,1.2-3.7,1.2c-3.4,0-5.4-1.9-5.4-5.3v-9.3h-2.9v-2.5h2.9v-3.7h3.1
			v3.7h4.9v2.5h-4.9v9.2c-0.2,1.4,0.8,2.6,2.2,2.8c0.2,0,0.3,0,0.5,0c0.9,0,1.7-0.3,2.4-0.8L940.2,419.8L940.2,419.8L940.2,419.8z"
			/>
		<path id="Caminho_10242" class="st2" d="M941.8,412.3c-0.1-4.9,3.8-8.8,8.7-8.9s8.8,3.8,8.9,8.7c0.1,4.9-3.8,8.8-8.7,8.9
			c0,0-0.1,0-0.1,0c-4.7,0.2-8.6-3.5-8.8-8.2C941.8,412.7,941.8,412.5,941.8,412.3L941.8,412.3z M956.3,412.3c0-3.6-2.4-6-5.7-6
			s-5.7,2.3-5.7,6s2.5,6,5.7,6S956.3,416,956.3,412.3z M952.5,397.2h3.9l-5.4,4.2h-2.9L952.5,397.2L952.5,397.2z"/>
		<path id="Caminho_10243" class="st2" d="M972.8,403.7v3h-0.7c-3.3,0-5.3,2-5.3,5.7v8.5h-3.1v-17h3v2.8
			C967.7,404.7,969.9,403.7,972.8,403.7z"/>
		<path id="Caminho_10244" class="st2" d="M976.1,398.6c0-1.2,0.9-2.1,2.1-2.1s2.1,0.9,2.1,2.1c0,1.1-0.8,2-1.9,2c0,0-0.1,0-0.2,0
			C977.1,400.6,976.2,399.8,976.1,398.6C976.1,398.6,976.1,398.6,976.1,398.6z M976.6,403.9h3.1v17h-3.1V403.9z"/>
		<path id="Caminho_10245" class="st2" d="M984,412.3c-0.1-4.9,3.8-8.8,8.7-8.9s8.8,3.8,8.9,8.7c0.1,4.9-3.8,8.8-8.7,8.9
			c0,0-0.1,0-0.1,0c-4.7,0.2-8.6-3.5-8.8-8.2C984,412.7,984,412.5,984,412.3L984,412.3z M998.5,412.3c0-3.6-2.4-6-5.7-6
			s-5.7,2.3-5.7,6s2.5,6,5.7,6S998.5,416,998.5,412.3z"/>
		<path id="Caminho_10246" class="st2" d="M1032.1,412.3c0.2,4.6-3.3,8.5-7.8,8.7c-0.3,0-0.5,0-0.8,0c-2.3,0.1-4.5-1-5.9-2.8v8.8
			h-3.1v-23.2h3v2.7c1.5-1.9,3.7-2.9,6.1-2.8c4.5-0.2,8.3,3.4,8.5,7.9C1032.1,411.9,1032.1,412.1,1032.1,412.3L1032.1,412.3z
			 M1029,412.3c-0.2-3.1-2.8-5.6-6-5.4s-5.6,2.8-5.4,6c0.2,3,2.7,5.4,5.7,5.4C1026.5,418.3,1029,416,1029,412.3L1029,412.3
			L1029,412.3z"/>
		<path id="Caminho_10247" class="st2" d="M1034.8,412.3c-0.1-4.9,3.8-8.8,8.7-8.9s8.8,3.8,8.9,8.7c0.1,4.9-3.8,8.8-8.7,8.9
			c0,0-0.1,0-0.1,0c-4.7,0.2-8.6-3.5-8.8-8.2C1034.8,412.7,1034.8,412.5,1034.8,412.3z M1049.4,412.3c0-3.6-2.4-6-5.7-6
			s-5.7,2.3-5.7,6s2.5,6,5.7,6S1049.4,416,1049.4,412.3z"/>
		<path id="Caminho_10248" class="st2" d="M1072.9,411.1v9.8h-3.1v-9.4c0-3.3-1.7-5-4.6-5c-3.3,0-5.4,2-5.4,5.6v8.8h-3.1v-17h3v2.6
			c1.5-1.8,3.8-2.9,6.1-2.7C1070,403.7,1072.9,406.1,1072.9,411.1L1072.9,411.1L1072.9,411.1z"/>
		<path id="Caminho_10249" class="st2" d="M1088.2,419.8c-1.1,0.8-2.4,1.2-3.7,1.2c-3.4,0-5.4-1.9-5.4-5.3v-9.3h-2.9v-2.5h2.9v-3.7
			h3.1v3.7h4.9v2.5h-4.9v9.2c-0.2,1.4,0.8,2.6,2.2,2.8c0.2,0,0.3,0,0.5,0c0.9,0,1.7-0.3,2.4-0.8L1088.2,419.8L1088.2,419.8
			L1088.2,419.8z"/>
		<path id="Caminho_10250" class="st2" d="M1089.7,412.3c-0.1-4.9,3.8-8.8,8.7-8.9s8.8,3.8,8.9,8.7c0.1,4.9-3.8,8.8-8.7,8.9
			c0,0-0.1,0-0.1,0c-4.7,0.2-8.6-3.5-8.8-8.2C1089.7,412.7,1089.7,412.5,1089.7,412.3z M1104.3,412.3c0-3.6-2.4-6-5.7-6
			s-5.7,2.3-5.7,6s2.5,6,5.7,6S1104.3,416,1104.3,412.3z"/>
		<path id="Caminho_10251" class="st2" d="M1136.3,397.1v23.8h-2.9v-2.7c-1.4,1.9-3.7,3-6.1,2.9c-4.8,0-8.7-3.9-8.7-8.7
			s3.9-8.7,8.7-8.7c2.3-0.1,4.5,0.9,5.9,2.7V397h3.1V397.1L1136.3,397.1z M1133.3,412.3c0.2-3.1-2.2-5.8-5.3-6c-0.1,0-0.3,0-0.4,0
			c-3.2,0-5.7,2.3-5.7,6s2.5,6,5.7,6S1133.3,416,1133.3,412.3L1133.3,412.3z"/>
		<path id="Caminho_10252" class="st2" d="M1157.4,413.4h-13.8c0.4,3,2.8,5,6.2,5c1.8,0.1,3.6-0.7,4.9-2l1.7,2
			c-1.7,1.9-4.2,2.9-6.7,2.8c-5.5,0-9.1-3.6-9.1-8.7c-0.2-4.6,3.3-8.5,7.9-8.7c0.2,0,0.4,0,0.6,0c4.9,0,8.4,3.5,8.4,8.8
			C1157.5,412.9,1157.5,413.2,1157.4,413.4L1157.4,413.4L1157.4,413.4z M1143.6,411.2h10.9c-0.2-2.8-2.6-4.9-5.4-4.9
			C1146.3,406.3,1143.9,408.4,1143.6,411.2z"/>
		<path id="Caminho_10253" class="st2" d="M1168.8,412.3c0-5.1,3.8-8.7,9-8.7c3,0,5.6,1.2,6.9,3.6l-2.3,1.5c-1-1.6-2.8-2.5-4.6-2.4
			c-3.3,0-6,2.7-6,6s2.7,6,6,6c1.8,0,3.6-0.9,4.6-2.4l2.3,1.5c-1.4,2.4-4.1,3.9-6.9,3.7C1172.6,421,1168.8,417.4,1168.8,412.3
			L1168.8,412.3L1168.8,412.3z"/>
		<path id="Caminho_10254" class="st2" d="M1204.6,411.1v9.8h-3.1v-9.4c0-3.3-1.7-5-4.6-5c-3.3,0-5.4,2-5.4,5.6v8.8h-3.1v-23.8h3.1
			v9.2c1.5-1.7,3.7-2.7,6-2.6C1201.7,403.7,1204.6,406.1,1204.6,411.1L1204.6,411.1z"/>
		<path id="Caminho_10255" class="st2" d="M1225.7,413.4h-13.8c0.4,3,2.8,5,6.2,5c1.8,0.1,3.6-0.7,4.9-2l1.7,2
			c-1.7,1.9-4.2,2.9-6.7,2.8c-5.5,0-9.1-3.6-9.1-8.7c-0.2-4.6,3.3-8.5,7.9-8.7c0.2,0,0.4,0,0.6,0c4.9,0,8.4,3.5,8.4,8.8
			C1225.8,412.7,1225.7,413.1,1225.7,413.4L1225.7,413.4L1225.7,413.4z M1211.9,411.2h10.9c-0.3-3-3-5.2-6-4.9
			C1214.2,406.6,1212.2,408.6,1211.9,411.2z"/>
		<path id="Caminho_10256" class="st2" d="M1246.3,403.9v14.7c0,6-3,8.7-8.8,8.7c-2.9,0.1-5.8-0.8-8.1-2.5l1.5-2.4
			c1.9,1.4,4.2,2.2,6.5,2.2c4,0,5.8-1.9,5.8-5.7v-1.3c-1.5,1.8-3.8,2.7-6.1,2.6c-4.9,0-8.6-3.3-8.6-8.2s3.7-8.2,8.6-8.2
			c2.4-0.1,4.8,0.9,6.3,2.8V404L1246.3,403.9L1246.3,403.9L1246.3,403.9z M1243.3,411.9c0-3.3-2.4-5.5-5.8-5.5s-5.9,2.2-5.9,5.5
			s2.4,5.5,5.9,5.5S1243.3,415.2,1243.3,411.9z"/>
		<path id="Caminho_10257" class="st2" d="M1265.6,410.6v10.3h-2.9v-2.2c-1,1.5-2.9,2.4-5.6,2.4c-3.8,0-6.3-2-6.3-5
			c0-2.7,1.8-5,6.8-5h4.9v-0.6c0-2.6-1.5-4.1-4.6-4.1c-1.9,0-3.8,0.6-5.4,1.8l-1.3-2.3c2-1.5,4.5-2.2,7-2.2
			C1263,403.7,1265.6,406,1265.6,410.6L1265.6,410.6L1265.6,410.6z M1262.5,415.7v-2.4h-4.8c-3.1,0-3.9,1.2-3.9,2.6
			c0,1.7,1.4,2.8,3.8,2.8C1259.7,418.9,1261.7,417.7,1262.5,415.7L1262.5,415.7z"/>
		<path id="Caminho_10258" class="st2" d="M1287.4,397.1v23.8h-2.9v-2.7c-1.4,1.9-3.7,3-6.1,2.9c-4.8,0-8.7-3.9-8.7-8.7
			s3.9-8.7,8.7-8.7c2.3-0.1,4.5,0.9,5.9,2.7V397h3.1V397.1L1287.4,397.1z M1284.4,412.3c0.2-3.1-2.2-5.8-5.3-6c-0.1,0-0.3,0-0.4,0
			c-3.2,0-5.7,2.3-5.7,6s2.5,6,5.7,6S1284.4,416,1284.4,412.3L1284.4,412.3z"/>
		<path id="Caminho_10259" class="st2" d="M1306.7,410.6v10.3h-2.9v-2.2c-1,1.5-2.9,2.4-5.6,2.4c-3.8,0-6.3-2-6.3-5
			c0-2.7,1.8-5,6.8-5h4.9v-0.6c0-2.6-1.5-4.1-4.6-4.1c-1.9,0-3.8,0.6-5.4,1.8l-1.3-2.3c2-1.5,4.5-2.2,7-2.2
			C1304.1,403.7,1306.7,406,1306.7,410.6L1306.7,410.6L1306.7,410.6z M1303.7,415.7v-2.4h-4.8c-3.1,0-3.9,1.2-3.9,2.6
			c0,1.7,1.4,2.8,3.8,2.8C1300.9,418.9,1302.9,417.7,1303.7,415.7L1303.7,415.7z"/>
		<path id="Caminho_10260" class="st2" d="M1311,418.8c0-1.2,0.9-2.2,2.1-2.2c0,0,0.1,0,0.1,0c1.2,0,2.1,0.9,2.1,2c0,0,0,0.1,0,0.1
			c0,1.2-0.9,2.2-2.1,2.2c0,0,0,0,0,0C1312,421,1311,420,1311,418.8L1311,418.8z"/>
	</g>
	<path class="st4" d="M741.9,392.4c-0.2-0.5-0.5-0.9-0.8-1.2c-2.7-2.9-5.4-5.7-8.2-8.5s-5.7-5.5-8.5-8.2c-0.1,0-0.1-0.1-0.2-0.2
		c-2.2-2.1-4.7,1.2-3.5,3.4c3.1,5.7,2.6,1.6,12.4,14.2c-36.8-0.3-33.5-0.6-70.3-0.9c-0.1,0-0.2,0-0.3,0V153.5
		c36.9,0.3,33.8,0.6,70.8,0.9l-0.9,1c-5.6,6.3-11.3,12.5-17,18.8c-2.1,2.3,1.7,5.4,3.8,3.1c3.9-4.3,7.7-8.6,11.6-12.9
		c1.8-1.9,3.8-3.7,5.6-5.6c1.6-1.7,3-3.5,4.2-5.6c0.4-0.4,0.7-0.8,0.9-1.3l0,0c0.3-0.5,0.4-1.1,0.2-1.8c-0.2-0.5-0.5-0.9-0.8-1.2
		c-2.7-2.9-5.4-5.7-8.2-8.5s-5.7-5.5-8.5-8.2c-0.1,0-0.1-0.1-0.2-0.2c-2.2-2.1-4.7,1.2-3.5,3.4c3.1,5.7,2.6,1.6,12.4,14.2
		c-36.8-0.3-33.5-0.6-70.3-0.9c-1.2,0-3.4,0.1-4.4,0.1l0,0.2V271h-43.9c-0.7-3.8-4-6.7-8-6.7l0,0c-4.5,0-8.1,3.6-8.1,8.1
		s3.6,8.1,8.1,8.1l0,0c3.5,0,6.5-2.3,7.6-5.5h44.2v120.8h3.9l0,0c37,0.3,33.9,0.6,71,0.9l-0.9,1c-5.6,6.3-11.3,12.5-17,18.8
		c-2.1,2.3,1.7,5.4,3.8,3.1c3.9-4.3,7.7-8.6,11.6-12.9c1.8-1.9,3.8-3.7,5.6-5.6c1.6-1.7,3-3.5,4.2-5.6c0.4-0.4,0.7-0.8,0.9-1.3l0,0
		C741.9,393.6,742,393,741.9,392.4L741.9,392.4z"/>
</g>
<g>
	<path d="M104.9,555.3h-9.2v-14.5h1.9v12.8h7.3V555.3z"/>
	<path d="M117.4,542.4c0.6,0.7,1,1.4,1.4,2.4s0.5,2,0.5,3.2s-0.2,2.3-0.5,3.2s-0.8,1.7-1.4,2.4c-0.6,0.7-1.3,1.2-2.1,1.5
		s-1.7,0.5-2.8,0.5c-1,0-2-0.2-2.8-0.5s-1.5-0.8-2.1-1.5s-1-1.4-1.4-2.4s-0.5-2-0.5-3.2c0-1.2,0.2-2.2,0.5-3.2s0.8-1.7,1.4-2.4
		c0.6-0.6,1.3-1.1,2.1-1.5s1.8-0.5,2.8-0.5c1,0,2,0.2,2.8,0.5S116.9,541.8,117.4,542.4z M117.3,548.1c0-1.9-0.4-3.3-1.3-4.4
		s-2-1.5-3.5-1.5c-1.5,0-2.6,0.5-3.5,1.5s-1.3,2.5-1.3,4.4c0,1.9,0.4,3.4,1.3,4.4s2,1.5,3.5,1.5s2.6-0.5,3.5-1.5
		S117.3,550,117.3,548.1z"/>
	<path d="M132.9,551.2c0,0.6-0.1,1.1-0.4,1.7s-0.6,1-1.1,1.4c-0.5,0.4-1.1,0.7-1.8,1s-1.5,0.4-2.5,0.4c-1,0-2-0.1-2.8-0.3
		s-1.7-0.5-2.6-0.9V552h0.1c0.7,0.6,1.6,1.1,2.5,1.4s1.9,0.5,2.7,0.5c1.2,0,2.1-0.2,2.8-0.7s1-1,1-1.8c0-0.6-0.2-1.1-0.5-1.4
		s-0.8-0.5-1.4-0.7c-0.5-0.1-1-0.2-1.6-0.3s-1.2-0.2-1.8-0.3c-1.3-0.3-2.2-0.7-2.9-1.4s-0.9-1.5-0.9-2.6c0-1.2,0.5-2.2,1.5-3
		s2.3-1.2,3.9-1.2c1,0,2,0.1,2.8,0.3s1.6,0.4,2.3,0.7v2.3h-0.1c-0.6-0.5-1.3-0.9-2.2-1.2s-1.8-0.5-2.8-0.5c-1,0-1.9,0.2-2.5,0.6
		s-0.9,1-0.9,1.7c0,0.6,0.2,1.1,0.5,1.4s0.9,0.6,1.7,0.8c0.4,0.1,1,0.2,1.8,0.3s1.4,0.3,2,0.4c1.1,0.3,1.9,0.7,2.4,1.3
		S132.9,550.1,132.9,551.2z"/>
	<path d="M147.3,555.3h-2.1l-1.4-4.1h-6.3l-1.4,4.1h-2l5.3-14.5h2.6L147.3,555.3z M143.2,549.6l-2.5-7.1l-2.6,7.1H143.2z"/>
	<path d="M160.6,555.3h-2.4l-6.9-13v13h-1.8v-14.5h3l6.3,11.9v-11.9h1.8V555.3z"/>
	<path d="M175.3,542.4c0.6,0.7,1,1.4,1.4,2.4s0.5,2,0.5,3.2s-0.2,2.3-0.5,3.2s-0.8,1.7-1.4,2.4c-0.6,0.7-1.3,1.2-2.1,1.5
		s-1.7,0.5-2.8,0.5c-1,0-2-0.2-2.8-0.5s-1.5-0.8-2.1-1.5s-1-1.4-1.4-2.4s-0.5-2-0.5-3.2c0-1.2,0.2-2.2,0.5-3.2s0.8-1.7,1.4-2.4
		c0.6-0.6,1.3-1.1,2.1-1.5s1.8-0.5,2.8-0.5c1,0,2,0.2,2.8,0.5S174.7,541.8,175.3,542.4z M175.1,548.1c0-1.9-0.4-3.3-1.3-4.4
		s-2-1.5-3.5-1.5c-1.5,0-2.6,0.5-3.5,1.5s-1.3,2.5-1.3,4.4c0,1.9,0.4,3.4,1.3,4.4s2,1.5,3.5,1.5s2.6-0.5,3.5-1.5
		S175.1,550,175.1,548.1z"/>
	<path d="M183.6,552.5l-2.8,6.4h-1.4l1.7-6.4H183.6z"/>
	<path d="M207.2,555.3h-1.9v-12.5l-4,8.5H200l-4-8.5v12.5h-1.8v-14.5h2.6l3.9,8.1l3.8-8.1h2.7V555.3z"/>
	<path d="M213.9,555.3h-2.3v-2.8h2.3V555.3z"/>
	<path d="M237.5,554.2c-0.8,0.4-1.7,0.7-2.6,1s-1.9,0.4-2.7,0.4c-1.1,0-2.2-0.2-3.1-0.5s-1.7-0.8-2.4-1.4c-0.7-0.6-1.2-1.4-1.6-2.4
		s-0.5-2.1-0.5-3.3c0-2.3,0.7-4.2,2-5.5s3.2-2,5.6-2c0.8,0,1.7,0.1,2.5,0.3s1.8,0.5,2.8,1v2.3h-0.2c-0.2-0.2-0.5-0.4-0.9-0.6
		s-0.8-0.5-1.1-0.6c-0.4-0.2-1-0.4-1.5-0.5s-1.2-0.2-1.9-0.2c-1.6,0-2.9,0.5-3.9,1.6s-1.4,2.5-1.4,4.2c0,1.9,0.5,3.3,1.5,4.4
		s2.3,1.6,4,1.6c0.6,0,1.2-0.1,1.9-0.2s1.2-0.3,1.6-0.5v-3.6h-3.9V548h5.8V554.2z"/>
	<path d="M243.7,555.3h-2.3v-2.8h2.3V555.3z"/>
	<path d="M266.7,550.8c0,1.4-0.6,2.6-1.8,3.5s-2.9,1.3-4.9,1.3c-1.2,0-2.3-0.1-3.1-0.3s-1.7-0.5-2.5-0.8V551h0.4
		c0.8,0.6,1.6,1.1,2.6,1.4s1.9,0.5,2.8,0.5c0.2,0,0.5,0,0.9-0.1s0.7-0.1,0.9-0.2c0.3-0.1,0.5-0.3,0.7-0.4s0.3-0.4,0.3-0.8
		c0-0.3-0.1-0.6-0.4-0.8s-0.7-0.4-1.2-0.5c-0.5-0.1-1.1-0.3-1.7-0.4s-1.2-0.3-1.7-0.4c-1.2-0.4-2.1-0.9-2.6-1.6s-0.8-1.5-0.8-2.5
		c0-1.4,0.6-2.5,1.8-3.3s2.8-1.3,4.7-1.3c1,0,1.9,0.1,2.8,0.3s1.7,0.4,2.4,0.7v3.3h-0.4c-0.6-0.5-1.3-0.9-2.2-1.2s-1.7-0.5-2.6-0.5
		c-0.3,0-0.6,0-0.9,0.1s-0.6,0.1-0.9,0.2c-0.3,0.1-0.5,0.2-0.7,0.4s-0.3,0.4-0.3,0.7c0,0.4,0.1,0.7,0.4,0.9s0.8,0.4,1.7,0.6
		c0.5,0.1,1,0.2,1.5,0.3s1,0.2,1.6,0.4c1.1,0.4,1.9,0.9,2.5,1.5S266.7,549.7,266.7,550.8z"/>
	<path d="M272.7,542.8H269v-2.7h3.7V542.8z M272.6,555.3h-3.5v-11h3.5V555.3z"/>
	<path d="M285.5,551.8c0,1.1-0.5,2-1.5,2.7s-2.4,1-4.2,1c-1,0-1.9-0.1-2.7-0.3s-1.4-0.4-1.9-0.6v-2.9h0.3c0.2,0.1,0.4,0.3,0.6,0.4
		s0.6,0.3,1,0.5c0.4,0.1,0.8,0.3,1.2,0.4s1,0.2,1.5,0.2c0.7,0,1.2-0.1,1.5-0.2s0.5-0.4,0.5-0.7c0-0.3-0.1-0.5-0.3-0.6
		s-0.6-0.2-1.1-0.3c-0.3-0.1-0.6-0.1-1.1-0.2s-0.9-0.2-1.2-0.2c-1-0.3-1.7-0.7-2.2-1.2s-0.7-1.2-0.7-2.1c0-1.1,0.5-1.9,1.5-2.6
		s2.4-1,4.1-1c0.8,0,1.6,0.1,2.4,0.2s1.3,0.3,1.8,0.5v2.8h-0.3c-0.5-0.4-1.1-0.6-1.8-0.9s-1.3-0.3-2-0.3c-0.6,0-1,0.1-1.4,0.2
		s-0.6,0.4-0.6,0.7c0,0.3,0.1,0.5,0.3,0.6s0.6,0.3,1.2,0.4c0.4,0.1,0.7,0.1,1.2,0.2s0.8,0.2,1.2,0.3c0.9,0.2,1.6,0.6,2.1,1.1
		S285.5,551.1,285.5,551.8z"/>
	<path d="M294.8,555.2c-0.4,0.1-0.8,0.2-1.2,0.2c-0.4,0.1-0.9,0.1-1.6,0.1c-1.4,0-2.4-0.3-3.1-0.8s-1-1.5-1-2.8v-5.1h-1.4v-2.4h1.4
		v-3.1h3.5v3.1h3.3v2.4h-3.3v3.9c0,0.4,0,0.7,0,1c0,0.3,0.1,0.5,0.2,0.8c0.1,0.2,0.3,0.4,0.5,0.5s0.6,0.2,1,0.2c0.2,0,0.4,0,0.7-0.1
		s0.5-0.1,0.6-0.2h0.3V555.2z"/>
	<path d="M307.7,550.5h-8c0.1,0.9,0.4,1.5,1,2s1.5,0.7,2.7,0.7c0.7,0,1.5-0.1,2.2-0.4s1.2-0.6,1.7-0.9h0.4v2.8
		c-0.8,0.3-1.5,0.5-2.2,0.7s-1.5,0.2-2.3,0.2c-2.2,0-3.9-0.5-5.1-1.5s-1.8-2.4-1.8-4.2c0-1.8,0.6-3.2,1.7-4.3s2.6-1.6,4.6-1.6
		c1.8,0,3.1,0.5,4,1.4s1.3,2.2,1.3,3.9V550.5z M304.2,548.4c0-0.7-0.2-1.3-0.5-1.7s-0.9-0.6-1.6-0.6c-0.7,0-1.2,0.2-1.7,0.5
		s-0.7,0.9-0.7,1.7H304.2z"/>
	<path d="M320.9,547.5v7.8h-3.5v-5.5c0-0.5,0-1,0-1.4s-0.1-0.7-0.2-0.9s-0.3-0.4-0.5-0.5s-0.6-0.2-1-0.2c-0.3,0-0.7,0.1-1,0.2
		s-0.6,0.3-0.9,0.4v7.8h-3.5v-11h3.5v1.2c0.6-0.5,1.2-0.8,1.7-1.1s1.2-0.4,1.8-0.4c0.7,0,1.4,0.2,1.9,0.5s1,0.8,1.3,1.4
		c0.7-0.6,1.4-1.1,2-1.4s1.3-0.5,2-0.5c1.2,0,2.1,0.4,2.7,1.1c0.6,0.7,0.9,1.7,0.9,3.1v7.1h-3.5v-5.5c0-0.5,0-1,0-1.4
		s-0.1-0.7-0.2-0.9c-0.1-0.2-0.3-0.4-0.5-0.5s-0.6-0.2-1-0.2c-0.3,0-0.6,0.1-0.9,0.2S321.3,547.3,320.9,547.5z"/>
	<path d="M338,554.2c-0.2,0.1-0.4,0.3-0.7,0.5s-0.5,0.4-0.8,0.5c-0.3,0.2-0.7,0.3-1.1,0.3s-0.8,0.1-1.2,0.1c-1,0-1.9-0.3-2.6-1
		s-1.1-1.5-1.1-2.5c0-0.8,0.2-1.5,0.5-2s0.9-0.9,1.5-1.2c0.7-0.3,1.5-0.5,2.4-0.6s2-0.2,3-0.3v-0.1c0-0.6-0.2-1-0.7-1.3
		s-1.2-0.3-2.2-0.3c-0.6,0-1.2,0.1-1.9,0.3s-1.1,0.4-1.4,0.5h-0.3v-2.6c0.4-0.1,1-0.2,1.8-0.3s1.7-0.2,2.5-0.2c2,0,3.4,0.3,4.3,0.9
		s1.3,1.6,1.3,2.9v7.5H338V554.2z M338,552.5v-2.3c-0.5,0-1,0.1-1.5,0.2c-0.6,0.1-1,0.1-1.3,0.2c-0.4,0.1-0.6,0.3-0.8,0.5
		s-0.3,0.5-0.3,0.8c0,0.2,0,0.4,0.1,0.6c0,0.1,0.1,0.3,0.3,0.4c0.1,0.1,0.3,0.2,0.5,0.3s0.5,0.1,1,0.1c0.4,0,0.7-0.1,1.1-0.2
		S337.7,552.7,338,552.5z"/>
	<path d="M362.3,550.5h-8c0.1,0.9,0.4,1.5,1,2s1.5,0.7,2.7,0.7c0.7,0,1.5-0.1,2.2-0.4s1.2-0.6,1.7-0.9h0.4v2.8
		c-0.8,0.3-1.5,0.5-2.2,0.7s-1.5,0.2-2.3,0.2c-2.2,0-3.9-0.5-5.1-1.5s-1.8-2.4-1.8-4.2c0-1.8,0.6-3.2,1.7-4.3s2.6-1.6,4.6-1.6
		c1.8,0,3.1,0.5,4,1.4s1.3,2.2,1.3,3.9V550.5z M358.9,548.4c0-0.7-0.2-1.3-0.5-1.7s-0.9-0.6-1.6-0.6c-0.7,0-1.2,0.2-1.7,0.5
		s-0.7,0.9-0.7,1.7H358.9z"/>
	<path d="M382.5,550.5h-8c0.1,0.9,0.4,1.5,1,2s1.5,0.7,2.7,0.7c0.7,0,1.5-0.1,2.2-0.4s1.2-0.6,1.7-0.9h0.4v2.8
		c-0.8,0.3-1.5,0.5-2.2,0.7s-1.5,0.2-2.3,0.2c-2.2,0-3.9-0.5-5.1-1.5s-1.8-2.4-1.8-4.2c0-1.8,0.6-3.2,1.7-4.3s2.6-1.6,4.6-1.6
		c1.8,0,3.1,0.5,4,1.4s1.3,2.2,1.3,3.9V550.5z M379,548.4c0-0.7-0.2-1.3-0.5-1.7s-0.9-0.6-1.6-0.6c-0.7,0-1.2,0.2-1.7,0.5
		s-0.7,0.9-0.7,1.7H379z"/>
	<path d="M394.5,551.8c0,1.1-0.5,2-1.5,2.7s-2.4,1-4.2,1c-1,0-1.9-0.1-2.7-0.3s-1.4-0.4-1.9-0.6v-2.9h0.3c0.2,0.1,0.4,0.3,0.6,0.4
		s0.6,0.3,1,0.5c0.4,0.1,0.8,0.3,1.2,0.4s1,0.2,1.5,0.2c0.7,0,1.2-0.1,1.5-0.2s0.5-0.4,0.5-0.7c0-0.3-0.1-0.5-0.3-0.6
		s-0.6-0.2-1.1-0.3c-0.3-0.1-0.6-0.1-1.1-0.2s-0.9-0.2-1.2-0.2c-1-0.3-1.7-0.7-2.2-1.2s-0.7-1.2-0.7-2.1c0-1.1,0.5-1.9,1.5-2.6
		s2.4-1,4.1-1c0.8,0,1.6,0.1,2.4,0.2s1.3,0.3,1.8,0.5v2.8h-0.3c-0.5-0.4-1.1-0.6-1.8-0.9s-1.3-0.3-2-0.3c-0.6,0-1,0.1-1.4,0.2
		s-0.6,0.4-0.6,0.7c0,0.3,0.1,0.5,0.3,0.6s0.6,0.3,1.2,0.4c0.4,0.1,0.7,0.1,1.2,0.2s0.8,0.2,1.2,0.3c0.9,0.2,1.6,0.6,2.1,1.1
		S394.5,551.1,394.5,551.8z"/>
	<path d="M403.8,555.2c-0.4,0.1-0.8,0.2-1.2,0.2c-0.4,0.1-0.9,0.1-1.6,0.1c-1.4,0-2.4-0.3-3.1-0.8s-1-1.5-1-2.8v-5.1h-1.4v-2.4h1.4
		v-3.1h3.5v3.1h3.3v2.4h-3.3v3.9c0,0.4,0,0.7,0,1c0,0.3,0.1,0.5,0.2,0.8c0.1,0.2,0.3,0.4,0.5,0.5s0.6,0.2,1,0.2c0.2,0,0.4,0,0.7-0.1
		s0.5-0.1,0.6-0.2h0.3V555.2z"/>
	<path d="M413.9,547.7h-0.3c-0.1-0.1-0.4-0.1-0.7-0.1c-0.3,0-0.6,0-0.8,0c-0.5,0-0.9,0-1.3,0.1s-0.8,0.2-1.2,0.3v7.3h-3.5v-11h3.5
		v1.6c0.8-0.7,1.4-1.1,2-1.3c0.6-0.2,1.1-0.3,1.6-0.3c0.1,0,0.3,0,0.4,0c0.2,0,0.3,0,0.4,0V547.7z"/>
	<path d="M426.8,555.3h-3.5v-1.2c-0.7,0.5-1.2,0.9-1.8,1.1c-0.5,0.3-1.2,0.4-1.9,0.4c-1.2,0-2.1-0.3-2.8-1s-1-1.7-1-3.1v-7.1h3.5
		v5.4c0,0.6,0,1,0.1,1.4s0.1,0.7,0.2,0.9c0.1,0.2,0.3,0.4,0.6,0.5s0.6,0.2,1,0.2c0.3,0,0.6-0.1,1-0.2s0.7-0.3,1.1-0.5v-7.8h3.5
		V555.3z"/>
	<path d="M437.1,555.2c-0.4,0.1-0.8,0.2-1.2,0.2c-0.4,0.1-0.9,0.1-1.6,0.1c-1.4,0-2.4-0.3-3.1-0.8s-1-1.5-1-2.8v-5.1h-1.4v-2.4h1.4
		v-3.1h3.5v3.1h3.3v2.4h-3.3v3.9c0,0.4,0,0.7,0,1c0,0.3,0.1,0.5,0.2,0.8c0.1,0.2,0.3,0.4,0.5,0.5s0.6,0.2,1,0.2c0.2,0,0.4,0,0.7-0.1
		s0.5-0.1,0.6-0.2h0.3V555.2z"/>
	<path d="M450.2,555.3h-3.5v-1.2c-0.7,0.5-1.2,0.9-1.8,1.1c-0.5,0.3-1.2,0.4-1.9,0.4c-1.2,0-2.1-0.3-2.8-1s-1-1.7-1-3.1v-7.1h3.5
		v5.4c0,0.6,0,1,0.1,1.4s0.1,0.7,0.2,0.9c0.1,0.2,0.3,0.4,0.6,0.5s0.6,0.2,1,0.2c0.3,0,0.6-0.1,1-0.2s0.7-0.3,1.1-0.5v-7.8h3.5
		V555.3z"/>
	<path d="M461.4,547.7h-0.3c-0.1-0.1-0.4-0.1-0.7-0.1c-0.3,0-0.6,0-0.8,0c-0.5,0-0.9,0-1.3,0.1s-0.8,0.2-1.2,0.3v7.3h-3.5v-11h3.5
		v1.6c0.8-0.7,1.4-1.1,2-1.3c0.6-0.2,1.1-0.3,1.6-0.3c0.1,0,0.3,0,0.4,0c0.2,0,0.3,0,0.4,0V547.7z"/>
	<path d="M470.1,554.2c-0.2,0.1-0.4,0.3-0.7,0.5s-0.5,0.4-0.8,0.5c-0.3,0.2-0.7,0.3-1.1,0.3s-0.8,0.1-1.2,0.1c-1,0-1.9-0.3-2.6-1
		s-1.1-1.5-1.1-2.5c0-0.8,0.2-1.5,0.5-2s0.9-0.9,1.5-1.2c0.7-0.3,1.5-0.5,2.4-0.6s2-0.2,3-0.3v-0.1c0-0.6-0.2-1-0.7-1.3
		s-1.2-0.3-2.2-0.3c-0.6,0-1.2,0.1-1.9,0.3s-1.1,0.4-1.4,0.5h-0.3v-2.6c0.4-0.1,1-0.2,1.8-0.3s1.7-0.2,2.5-0.2c2,0,3.4,0.3,4.3,0.9
		s1.3,1.6,1.3,2.9v7.5h-3.5V554.2z M470.1,552.5v-2.3c-0.5,0-1,0.1-1.5,0.2c-0.6,0.1-1,0.1-1.3,0.2c-0.4,0.1-0.6,0.3-0.8,0.5
		s-0.3,0.5-0.3,0.8c0,0.2,0,0.4,0.1,0.6c0,0.1,0.1,0.3,0.3,0.4c0.1,0.1,0.3,0.2,0.5,0.3s0.5,0.1,1,0.1c0.4,0,0.7-0.1,1.1-0.2
		S469.8,552.7,470.1,552.5z"/>
	<path d="M494.6,555.3h-3.5v-5.4c0-0.4,0-0.9-0.1-1.3s-0.1-0.8-0.2-1c-0.1-0.2-0.3-0.4-0.6-0.5s-0.6-0.2-1-0.2c-0.3,0-0.6,0.1-1,0.2
		s-0.7,0.3-1.1,0.5v7.8h-3.5v-11h3.5v1.2c0.6-0.5,1.2-0.9,1.8-1.1s1.2-0.4,1.9-0.4c1.2,0,2.1,0.3,2.8,1c0.7,0.7,1,1.7,1,3.1V555.3z"
		/>
	<path d="M509.1,549.8c0,1.8-0.5,3.2-1.6,4.3s-2.5,1.6-4.4,1.6s-3.4-0.5-4.4-1.6s-1.6-2.5-1.6-4.3c0-1.8,0.5-3.2,1.6-4.3
		s2.5-1.6,4.4-1.6c1.9,0,3.4,0.5,4.4,1.6S509.1,548,509.1,549.8z M504.7,552.5c0.2-0.3,0.4-0.6,0.5-1s0.2-0.9,0.2-1.6
		c0-0.6-0.1-1.2-0.2-1.6s-0.3-0.8-0.5-1c-0.2-0.3-0.5-0.5-0.8-0.6s-0.6-0.2-0.9-0.2s-0.6,0-0.9,0.1s-0.5,0.3-0.8,0.5
		c-0.2,0.3-0.4,0.6-0.5,1s-0.2,1-0.2,1.7c0,0.6,0.1,1.1,0.2,1.6s0.3,0.8,0.5,1.1c0.2,0.3,0.5,0.4,0.7,0.6s0.6,0.2,1,0.2
		c0.3,0,0.6-0.1,0.9-0.2S504.5,552.8,504.7,552.5z"/>
	<path d="M532.4,548.1c0,1.4-0.3,2.6-0.9,3.6s-1.4,1.9-2.3,2.5c-0.7,0.4-1.5,0.7-2.3,0.9s-1.8,0.3-3,0.3h-5.1v-14.5h5.3
		c1.2,0,2.2,0.1,3.1,0.3s1.6,0.5,2.2,0.8c1,0.6,1.8,1.4,2.4,2.5S532.4,546.7,532.4,548.1z M528.5,548c0-1-0.2-1.8-0.5-2.5
		s-0.9-1.2-1.7-1.6c-0.4-0.2-0.8-0.3-1.2-0.4s-1-0.1-1.8-0.1h-0.9v9.1h0.9c0.9,0,1.5,0,2-0.1s0.8-0.2,1.2-0.4
		c0.7-0.4,1.2-0.9,1.5-1.6S528.5,549,528.5,548z"/>
	<path d="M538.6,542.8h-3.7v-2.7h3.7V542.8z M538.5,555.3H535v-11h3.5V555.3z"/>
	<path d="M549.8,547.7h-0.3c-0.1-0.1-0.4-0.1-0.7-0.1c-0.3,0-0.6,0-0.8,0c-0.5,0-0.9,0-1.3,0.1s-0.8,0.2-1.2,0.3v7.3h-3.5v-11h3.5
		v1.6c0.8-0.7,1.4-1.1,2-1.3c0.6-0.2,1.1-0.3,1.6-0.3c0.1,0,0.3,0,0.4,0c0.2,0,0.3,0,0.4,0V547.7z"/>
	<path d="M562.6,550.5h-8c0.1,0.9,0.4,1.5,1,2s1.5,0.7,2.7,0.7c0.7,0,1.5-0.1,2.2-0.4s1.2-0.6,1.7-0.9h0.4v2.8
		c-0.8,0.3-1.5,0.5-2.2,0.7s-1.5,0.2-2.3,0.2c-2.2,0-3.9-0.5-5.1-1.5s-1.8-2.4-1.8-4.2c0-1.8,0.6-3.2,1.7-4.3s2.6-1.6,4.6-1.6
		c1.8,0,3.1,0.5,4,1.4s1.3,2.2,1.3,3.9V550.5z M559.1,548.4c0-0.7-0.2-1.3-0.5-1.7s-0.9-0.6-1.6-0.6c-0.7,0-1.2,0.2-1.7,0.5
		s-0.7,0.9-0.7,1.7H559.1z"/>
	<path d="M568.7,542.8H565v-2.7h3.7V542.8z M568.6,555.3h-3.5v-11h3.5V555.3z"/>
	<path d="M578.9,555.2c-0.4,0.1-0.8,0.2-1.2,0.2c-0.4,0.1-0.9,0.1-1.6,0.1c-1.4,0-2.4-0.3-3.1-0.8s-1-1.5-1-2.8v-5.1h-1.4v-2.4h1.4
		v-3.1h3.5v3.1h3.3v2.4h-3.3v3.9c0,0.4,0,0.7,0,1c0,0.3,0.1,0.5,0.2,0.8c0.1,0.2,0.3,0.4,0.5,0.5s0.6,0.2,1,0.2c0.2,0,0.4,0,0.7-0.1
		s0.5-0.1,0.6-0.2h0.3V555.2z"/>
	<path d="M592.2,549.8c0,1.8-0.5,3.2-1.6,4.3s-2.5,1.6-4.4,1.6c-1.9,0-3.4-0.5-4.4-1.6s-1.6-2.5-1.6-4.3c0-1.8,0.5-3.2,1.6-4.3
		s2.5-1.6,4.4-1.6c1.9,0,3.4,0.5,4.4,1.6S592.2,548,592.2,549.8z M587.9,552.5c0.2-0.3,0.4-0.6,0.5-1s0.2-0.9,0.2-1.6
		c0-0.6-0.1-1.2-0.2-1.6s-0.3-0.8-0.5-1c-0.2-0.3-0.5-0.5-0.8-0.6s-0.6-0.2-0.9-0.2c-0.3,0-0.6,0-0.9,0.1s-0.5,0.3-0.8,0.5
		c-0.2,0.3-0.4,0.6-0.5,1s-0.2,1-0.2,1.7c0,0.6,0.1,1.1,0.2,1.6s0.3,0.8,0.5,1.1c0.2,0.3,0.5,0.4,0.7,0.6s0.6,0.2,1,0.2
		c0.3,0,0.6-0.1,0.9-0.2S587.7,552.8,587.9,552.5z"/>
	<path d="M598.8,547.2h-2.3v-2.8h2.3V547.2z M598.8,555.3h-2.3v-2.8h2.3V555.3z"/>
	<path d="M619.9,555.3H618v-1.1c-0.5,0.5-1.1,0.8-1.7,1.1s-1.2,0.4-1.9,0.4c-1.3,0-2.3-0.5-3.1-1.5s-1.1-2.4-1.1-4.2
		c0-0.9,0.1-1.7,0.4-2.5s0.6-1.3,1.1-1.8c0.4-0.5,1-0.9,1.5-1.1s1.2-0.4,1.8-0.4c0.6,0,1.1,0.1,1.5,0.2s0.9,0.3,1.4,0.6v-4.7h1.8
		V555.3z M618,552.6v-6.3c-0.5-0.2-0.9-0.4-1.3-0.5s-0.8-0.1-1.3-0.1c-1,0-1.8,0.4-2.4,1.1s-0.9,1.7-0.9,3c0,1.3,0.2,2.3,0.7,3
		s1.2,1,2.1,1c0.5,0,1-0.1,1.6-0.3S617.6,553,618,552.6z"/>
	<path d="M632,555.3h-1.8v-1.2c-0.2,0.1-0.4,0.3-0.7,0.5s-0.5,0.4-0.8,0.5c-0.3,0.1-0.7,0.3-1.1,0.4s-0.9,0.2-1.4,0.2
		c-1,0-1.8-0.3-2.5-1s-1-1.5-1-2.5c0-0.8,0.2-1.5,0.5-2s0.9-0.9,1.5-1.2c0.7-0.3,1.5-0.5,2.4-0.6s1.9-0.2,3-0.2v-0.3
		c0-0.4-0.1-0.8-0.2-1s-0.4-0.5-0.6-0.6c-0.3-0.1-0.6-0.3-0.9-0.3s-0.7-0.1-1.1-0.1c-0.5,0-1,0.1-1.6,0.2s-1.2,0.3-1.8,0.6h-0.1
		v-1.9c0.4-0.1,0.9-0.2,1.6-0.3s1.3-0.2,2-0.2c0.8,0,1.4,0.1,2,0.2s1.1,0.3,1.5,0.6c0.4,0.3,0.7,0.7,0.9,1.2s0.3,1.1,0.3,1.8V555.3z
		 M630.1,552.6v-3c-0.6,0-1.2,0.1-2,0.1s-1.4,0.2-1.8,0.3c-0.5,0.1-1,0.4-1.3,0.7s-0.5,0.8-0.5,1.3c0,0.6,0.2,1.1,0.6,1.4
		s1,0.5,1.7,0.5c0.6,0,1.2-0.1,1.8-0.4S629.7,553,630.1,552.6z"/>
	<path d="M643.3,552.2c0,1-0.4,1.8-1.2,2.5s-1.9,1-3.4,1c-0.8,0-1.5-0.1-2.2-0.3s-1.2-0.4-1.7-0.6v-2.1h0.1c0.6,0.4,1.2,0.8,1.9,1
		s1.4,0.4,2,0.4c0.8,0,1.4-0.1,1.9-0.4s0.7-0.7,0.7-1.2c0-0.4-0.1-0.8-0.4-1s-0.7-0.4-1.4-0.6c-0.3-0.1-0.6-0.1-1-0.2
		s-0.8-0.2-1.1-0.3c-1-0.3-1.6-0.6-2-1.1s-0.6-1.1-0.6-1.8c0-0.4,0.1-0.9,0.3-1.3s0.5-0.8,0.8-1.1c0.4-0.3,0.8-0.5,1.4-0.7
		s1.2-0.3,1.9-0.3c0.7,0,1.3,0.1,2,0.2s1.2,0.4,1.7,0.6v2h-0.1c-0.5-0.3-1-0.6-1.7-0.9s-1.3-0.4-2-0.4c-0.7,0-1.2,0.1-1.7,0.4
		s-0.7,0.6-0.7,1.1c0,0.4,0.1,0.8,0.4,1c0.3,0.2,0.7,0.4,1.3,0.6c0.3,0.1,0.7,0.2,1.1,0.2s0.8,0.1,1,0.2c0.9,0.2,1.5,0.5,2,1
		C643.1,550.7,643.3,551.4,643.3,552.2z"/>
	<path d="M662.2,549.9c0,1.8-0.5,3.2-1.4,4.2s-2.1,1.5-3.7,1.5c-1.5,0-2.8-0.5-3.7-1.5s-1.4-2.4-1.4-4.2s0.5-3.2,1.4-4.2
		s2.1-1.5,3.7-1.5c1.5,0,2.8,0.5,3.7,1.5S662.2,548.1,662.2,549.9z M660.3,549.9c0-1.4-0.3-2.5-0.8-3.1s-1.3-1-2.3-1
		c-1,0-1.8,0.3-2.3,1s-0.8,1.7-0.8,3.1c0,1.4,0.3,2.4,0.8,3.1s1.3,1.1,2.3,1.1c1,0,1.7-0.3,2.3-1S660.3,551.3,660.3,549.9z"/>
	<path d="M671.9,546.4L671.9,546.4c-0.4-0.1-0.6-0.1-0.9-0.1s-0.6,0-0.9,0c-0.6,0-1.1,0.1-1.6,0.4s-1,0.6-1.5,1v7.7h-1.8v-10.9h1.8
		v1.6c0.7-0.6,1.4-1,1.9-1.2s1.1-0.4,1.7-0.4c0.3,0,0.5,0,0.7,0s0.4,0,0.6,0.1V546.4z"/>
	<path d="M675.6,542.6h-2.1v-1.9h2.1V542.6z M675.5,555.3h-1.8v-10.9h1.8V555.3z"/>
	<path d="M688,554.1c0,1.8-0.4,3.2-1.3,4.1s-2.1,1.3-3.9,1.3c-0.6,0-1.1,0-1.7-0.1s-1.1-0.2-1.6-0.3v-1.9h0.1
		c0.3,0.1,0.8,0.3,1.4,0.4s1.3,0.3,2,0.3c0.6,0,1.1-0.1,1.6-0.2s0.7-0.4,1-0.6c0.2-0.3,0.4-0.6,0.5-0.9s0.1-0.8,0.1-1.2v-1
		c-0.6,0.4-1.1,0.8-1.6,1s-1.1,0.3-1.9,0.3c-1.3,0-2.3-0.5-3.1-1.4s-1.1-2.3-1.1-4c0-0.9,0.1-1.7,0.4-2.4s0.6-1.3,1.1-1.8
		c0.4-0.5,0.9-0.8,1.5-1.1s1.2-0.4,1.8-0.4c0.6,0,1.2,0.1,1.6,0.2s0.9,0.3,1.4,0.6l0.1-0.5h1.7V554.1z M686.1,552.3v-5.9
		c-0.5-0.2-0.9-0.4-1.4-0.5s-0.8-0.1-1.3-0.1c-1,0-1.8,0.3-2.4,1s-0.9,1.7-0.9,2.9c0,1.2,0.2,2.2,0.6,2.8s1.1,0.9,2.1,0.9
		c0.5,0,1.1-0.1,1.6-0.3S685.7,552.7,686.1,552.3z"/>
	<path d="M700.7,550.1h-8c0,0.7,0.1,1.3,0.3,1.8s0.5,0.9,0.8,1.2c0.3,0.3,0.7,0.5,1.2,0.7s1,0.2,1.5,0.2c0.7,0,1.5-0.1,2.2-0.4
		s1.3-0.6,1.6-0.9h0.1v2c-0.6,0.3-1.2,0.5-1.9,0.7s-1.3,0.3-2,0.3c-1.8,0-3.2-0.5-4.2-1.5s-1.5-2.4-1.5-4.2c0-1.8,0.5-3.2,1.5-4.2
		s2.3-1.6,3.8-1.6c1.5,0,2.6,0.4,3.4,1.3s1.2,2.1,1.2,3.7V550.1z M698.9,548.7c0-1-0.2-1.7-0.7-2.2s-1.2-0.8-2.2-0.8
		c-1,0-1.8,0.3-2.3,0.9s-0.9,1.3-1,2.2H698.9z"/>
	<path d="M712.6,555.3h-1.8v-6.2c0-0.5,0-1-0.1-1.4s-0.2-0.8-0.3-1c-0.2-0.3-0.4-0.5-0.7-0.6s-0.7-0.2-1.2-0.2c-0.5,0-1,0.1-1.6,0.4
		s-1.1,0.6-1.6,0.9v8.1h-1.8v-10.9h1.8v1.2c0.6-0.5,1.2-0.8,1.8-1.1s1.2-0.4,1.9-0.4c1.2,0,2.1,0.4,2.7,1.1s0.9,1.7,0.9,3.1V555.3z"
		/>
	<path d="M723.9,552.2c0,1-0.4,1.8-1.2,2.5s-1.9,1-3.4,1c-0.8,0-1.5-0.1-2.2-0.3s-1.2-0.4-1.7-0.6v-2.1h0.1c0.6,0.4,1.2,0.8,1.9,1
		s1.4,0.4,2,0.4c0.8,0,1.4-0.1,1.9-0.4s0.7-0.7,0.7-1.2c0-0.4-0.1-0.8-0.4-1s-0.7-0.4-1.4-0.6c-0.3-0.1-0.6-0.1-1-0.2
		s-0.8-0.2-1.1-0.3c-1-0.3-1.6-0.6-2-1.1s-0.6-1.1-0.6-1.8c0-0.4,0.1-0.9,0.3-1.3s0.5-0.8,0.8-1.1c0.4-0.3,0.8-0.5,1.4-0.7
		s1.2-0.3,1.9-0.3c0.7,0,1.3,0.1,2,0.2s1.2,0.4,1.7,0.6v2h-0.1c-0.5-0.3-1-0.6-1.7-0.9s-1.3-0.4-2-0.4c-0.7,0-1.2,0.1-1.7,0.4
		s-0.7,0.6-0.7,1.1c0,0.4,0.1,0.8,0.4,1c0.3,0.2,0.7,0.4,1.3,0.6c0.3,0.1,0.7,0.2,1.1,0.2s0.8,0.1,1,0.2c0.9,0.2,1.5,0.5,2,1
		C723.7,550.7,723.9,551.4,723.9,552.2z"/>
	<path d="M742.1,555.3h-1.8v-1.2c-0.2,0.1-0.4,0.3-0.7,0.5s-0.5,0.4-0.8,0.5c-0.3,0.1-0.7,0.3-1.1,0.4s-0.9,0.2-1.4,0.2
		c-1,0-1.8-0.3-2.5-1s-1-1.5-1-2.5c0-0.8,0.2-1.5,0.5-2s0.9-0.9,1.5-1.2c0.7-0.3,1.5-0.5,2.4-0.6s1.9-0.2,3-0.2v-0.3
		c0-0.4-0.1-0.8-0.2-1s-0.4-0.5-0.6-0.6c-0.3-0.1-0.6-0.3-0.9-0.3s-0.7-0.1-1.1-0.1c-0.5,0-1,0.1-1.6,0.2s-1.2,0.3-1.8,0.6h-0.1
		v-1.9c0.4-0.1,0.9-0.2,1.6-0.3s1.3-0.2,2-0.2c0.8,0,1.4,0.1,2,0.2s1.1,0.3,1.5,0.6c0.4,0.3,0.7,0.7,0.9,1.2s0.3,1.1,0.3,1.8V555.3z
		 M740.2,552.6v-3c-0.6,0-1.2,0.1-2,0.1s-1.4,0.2-1.8,0.3c-0.5,0.1-1,0.4-1.3,0.7s-0.5,0.8-0.5,1.3c0,0.6,0.2,1.1,0.6,1.4
		s1,0.5,1.7,0.5c0.6,0,1.2-0.1,1.8-0.4S739.8,553,740.2,552.6z M739,542.6h-1.5l-2.7-3.7h2.4L739,542.6z"/>
	<path d="M761.8,550.1h-8c0,0.7,0.1,1.3,0.3,1.8s0.5,0.9,0.8,1.2c0.3,0.3,0.7,0.5,1.2,0.7s1,0.2,1.5,0.2c0.7,0,1.5-0.1,2.2-0.4
		s1.3-0.6,1.6-0.9h0.1v2c-0.6,0.3-1.2,0.5-1.9,0.7s-1.3,0.3-2,0.3c-1.8,0-3.2-0.5-4.2-1.5s-1.5-2.4-1.5-4.2c0-1.8,0.5-3.2,1.5-4.2
		s2.3-1.6,3.8-1.6c1.5,0,2.6,0.4,3.4,1.3s1.2,2.1,1.2,3.7V550.1z M760,548.7c0-1-0.2-1.7-0.7-2.2s-1.2-0.8-2.2-0.8
		c-1,0-1.8,0.3-2.3,0.9s-0.9,1.3-1,2.2H760z"/>
	<path d="M772.3,552.2c0,1-0.4,1.8-1.2,2.5s-1.9,1-3.4,1c-0.8,0-1.5-0.1-2.2-0.3s-1.2-0.4-1.7-0.6v-2.1h0.1c0.6,0.4,1.2,0.8,1.9,1
		s1.4,0.4,2,0.4c0.8,0,1.4-0.1,1.9-0.4s0.7-0.7,0.7-1.2c0-0.4-0.1-0.8-0.4-1s-0.7-0.4-1.4-0.6c-0.3-0.1-0.6-0.1-1-0.2
		s-0.8-0.2-1.1-0.3c-1-0.3-1.6-0.6-2-1.1s-0.6-1.1-0.6-1.8c0-0.4,0.1-0.9,0.3-1.3s0.5-0.8,0.8-1.1c0.4-0.3,0.8-0.5,1.4-0.7
		s1.2-0.3,1.9-0.3c0.7,0,1.3,0.1,2,0.2s1.2,0.4,1.7,0.6v2h-0.1c-0.5-0.3-1-0.6-1.7-0.9s-1.3-0.4-2-0.4c-0.7,0-1.2,0.1-1.7,0.4
		s-0.7,0.6-0.7,1.1c0,0.4,0.1,0.8,0.4,1c0.3,0.2,0.7,0.4,1.3,0.6c0.3,0.1,0.7,0.2,1.1,0.2s0.8,0.1,1,0.2c0.9,0.2,1.5,0.5,2,1
		C772.1,550.7,772.3,551.4,772.3,552.2z"/>
	<path d="M783,554.6c-0.6,0.3-1.2,0.5-1.7,0.7s-1.1,0.2-1.8,0.2c-0.8,0-1.5-0.1-2.2-0.3s-1.2-0.6-1.7-1c-0.5-0.5-0.8-1.1-1.1-1.8
		s-0.4-1.6-0.4-2.5c0-1.8,0.5-3.2,1.5-4.2s2.3-1.5,3.9-1.5c0.6,0,1.2,0.1,1.8,0.3s1.2,0.4,1.7,0.6v2h-0.1c-0.6-0.4-1.1-0.8-1.7-1
		s-1.2-0.4-1.7-0.4c-1,0-1.9,0.3-2.5,1s-0.9,1.7-0.9,3.1c0,1.3,0.3,2.3,0.9,3s1.4,1.1,2.5,1.1c0.4,0,0.7,0,1.1-0.1s0.7-0.2,1-0.4
		c0.3-0.1,0.5-0.3,0.8-0.4s0.4-0.3,0.6-0.4h0.1V554.6z"/>
	<path d="M794.7,549.9c0,1.8-0.5,3.2-1.4,4.2s-2.1,1.5-3.7,1.5c-1.5,0-2.8-0.5-3.7-1.5s-1.4-2.4-1.4-4.2s0.5-3.2,1.4-4.2
		s2.1-1.5,3.7-1.5c1.5,0,2.8,0.5,3.7,1.5S794.7,548.1,794.7,549.9z M792.8,549.9c0-1.4-0.3-2.5-0.8-3.1s-1.3-1-2.3-1
		c-1,0-1.8,0.3-2.3,1s-0.8,1.7-0.8,3.1c0,1.4,0.3,2.4,0.8,3.1s1.3,1.1,2.3,1.1c1,0,1.7-0.3,2.3-1S792.8,551.3,792.8,549.9z"/>
	<path d="M799.4,555.3h-1.8v-15.2h1.8V555.3z"/>
	<path d="M811.5,555.3h-1.8v-1.2c-0.2,0.1-0.4,0.3-0.7,0.5s-0.5,0.4-0.8,0.5c-0.3,0.1-0.7,0.3-1.1,0.4s-0.9,0.2-1.4,0.2
		c-1,0-1.8-0.3-2.5-1s-1-1.5-1-2.5c0-0.8,0.2-1.5,0.5-2s0.9-0.9,1.5-1.2c0.7-0.3,1.5-0.5,2.4-0.6s1.9-0.2,3-0.2v-0.3
		c0-0.4-0.1-0.8-0.2-1s-0.4-0.5-0.6-0.6c-0.3-0.1-0.6-0.3-0.9-0.3s-0.7-0.1-1.1-0.1c-0.5,0-1,0.1-1.6,0.2s-1.2,0.3-1.8,0.6h-0.1
		v-1.9c0.4-0.1,0.9-0.2,1.6-0.3s1.3-0.2,2-0.2c0.8,0,1.4,0.1,2,0.2s1.1,0.3,1.5,0.6c0.4,0.3,0.7,0.7,0.9,1.2s0.3,1.1,0.3,1.8V555.3z
		 M809.7,552.6v-3c-0.6,0-1.2,0.1-2,0.1s-1.4,0.2-1.8,0.3c-0.5,0.1-1,0.4-1.3,0.7s-0.5,0.8-0.5,1.3c0,0.6,0.2,1.1,0.6,1.4
		s1,0.5,1.7,0.5c0.6,0,1.2-0.1,1.8-0.4S809.2,553,809.7,552.6z"/>
	<path d="M831.2,555.3h-1.8v-6.2c0-0.5,0-1-0.1-1.4s-0.2-0.8-0.3-1c-0.2-0.3-0.4-0.5-0.7-0.6s-0.7-0.2-1.2-0.2c-0.5,0-1,0.1-1.6,0.4
		s-1.1,0.6-1.6,0.9v8.1h-1.8v-15.2h1.8v5.5c0.6-0.5,1.2-0.8,1.8-1.1s1.2-0.4,1.9-0.4c1.2,0,2.1,0.4,2.7,1.1s0.9,1.7,0.9,3.1V555.3z"
		/>
	<path d="M836.7,542.6h-2.1v-1.9h2.1V542.6z M836.6,555.3h-1.8v-10.9h1.8V555.3z"/>
	<path d="M848,552.2c0,1-0.4,1.8-1.2,2.5s-1.9,1-3.4,1c-0.8,0-1.5-0.1-2.2-0.3s-1.2-0.4-1.7-0.6v-2.1h0.1c0.6,0.4,1.2,0.8,1.9,1
		s1.4,0.4,2,0.4c0.8,0,1.4-0.1,1.9-0.4s0.7-0.7,0.7-1.2c0-0.4-0.1-0.8-0.4-1s-0.7-0.4-1.4-0.6c-0.3-0.1-0.6-0.1-1-0.2
		s-0.8-0.2-1.1-0.3c-1-0.3-1.6-0.6-2-1.1s-0.6-1.1-0.6-1.8c0-0.4,0.1-0.9,0.3-1.3s0.5-0.8,0.8-1.1c0.4-0.3,0.8-0.5,1.4-0.7
		s1.2-0.3,1.9-0.3c0.7,0,1.3,0.1,2,0.2s1.2,0.4,1.7,0.6v2h-0.1c-0.5-0.3-1-0.6-1.7-0.9s-1.3-0.4-2-0.4c-0.7,0-1.2,0.1-1.7,0.4
		s-0.7,0.6-0.7,1.1c0,0.4,0.1,0.8,0.4,1c0.3,0.2,0.7,0.4,1.3,0.6c0.3,0.1,0.7,0.2,1.1,0.2s0.8,0.1,1,0.2c0.9,0.2,1.5,0.5,2,1
		C847.8,550.7,848,551.4,848,552.2z"/>
	<path d="M856.3,555.2c-0.3,0.1-0.7,0.2-1.1,0.2s-0.8,0.1-1.1,0.1c-1.1,0-2-0.3-2.5-0.9s-0.9-1.6-0.9-2.9V546h-1.2v-1.5h1.2v-3.1
		h1.8v3.1h3.8v1.5h-3.8v5c0,0.6,0,1,0,1.3s0.1,0.6,0.3,0.9c0.1,0.3,0.3,0.5,0.6,0.6s0.6,0.2,1.1,0.2c0.3,0,0.6,0,0.9-0.1
		s0.6-0.2,0.7-0.2h0.1V555.2z"/>
	<path d="M867.8,549.9c0,1.8-0.5,3.2-1.4,4.2s-2.1,1.5-3.7,1.5c-1.5,0-2.8-0.5-3.7-1.5s-1.4-2.4-1.4-4.2s0.5-3.2,1.4-4.2
		s2.1-1.5,3.7-1.5c1.5,0,2.8,0.5,3.7,1.5S867.8,548.1,867.8,549.9z M865.9,549.9c0-1.4-0.3-2.5-0.8-3.1s-1.3-1-2.3-1
		c-1,0-1.8,0.3-2.3,1s-0.8,1.7-0.8,3.1c0,1.4,0.3,2.4,0.8,3.1s1.3,1.1,2.3,1.1c1,0,1.7-0.3,2.3-1S865.9,551.3,865.9,549.9z
		 M865.8,539l-2.7,3.7h-1.5l1.7-3.7H865.8z"/>
	<path d="M877.4,546.4L877.4,546.4c-0.4-0.1-0.6-0.1-0.9-0.1s-0.6,0-0.9,0c-0.6,0-1.1,0.1-1.6,0.4s-1,0.6-1.5,1v7.7h-1.8v-10.9h1.8
		v1.6c0.7-0.6,1.4-1,1.9-1.2s1.1-0.4,1.7-0.4c0.3,0,0.5,0,0.7,0s0.4,0,0.6,0.1V546.4z"/>
	<path d="M881.1,542.6h-2.1v-1.9h2.1V542.6z M881,555.3h-1.8v-10.9h1.8V555.3z"/>
	<path d="M892.7,554.6c-0.6,0.3-1.2,0.5-1.7,0.7s-1.1,0.2-1.8,0.2c-0.8,0-1.5-0.1-2.2-0.3s-1.2-0.6-1.7-1c-0.5-0.5-0.8-1.1-1.1-1.8
		s-0.4-1.6-0.4-2.5c0-1.8,0.5-3.2,1.5-4.2s2.3-1.5,3.9-1.5c0.6,0,1.2,0.1,1.8,0.3s1.2,0.4,1.7,0.6v2h-0.1c-0.6-0.4-1.1-0.8-1.7-1
		s-1.2-0.4-1.7-0.4c-1,0-1.9,0.3-2.5,1s-0.9,1.7-0.9,3.1c0,1.3,0.3,2.3,0.9,3s1.4,1.1,2.5,1.1c0.4,0,0.7,0,1.1-0.1s0.7-0.2,1-0.4
		c0.3-0.1,0.5-0.3,0.8-0.4s0.4-0.3,0.6-0.4h0.1V554.6z"/>
	<path d="M903.6,555.3h-1.8v-1.2c-0.2,0.1-0.4,0.3-0.7,0.5s-0.5,0.4-0.8,0.5c-0.3,0.1-0.7,0.3-1.1,0.4s-0.9,0.2-1.4,0.2
		c-1,0-1.8-0.3-2.5-1s-1-1.5-1-2.5c0-0.8,0.2-1.5,0.5-2s0.9-0.9,1.5-1.2c0.7-0.3,1.5-0.5,2.4-0.6s1.9-0.2,3-0.2v-0.3
		c0-0.4-0.1-0.8-0.2-1s-0.4-0.5-0.6-0.6c-0.3-0.1-0.6-0.3-0.9-0.3s-0.7-0.1-1.1-0.1c-0.5,0-1,0.1-1.6,0.2s-1.2,0.3-1.8,0.6h-0.1
		v-1.9c0.4-0.1,0.9-0.2,1.6-0.3s1.3-0.2,2-0.2c0.8,0,1.4,0.1,2,0.2s1.1,0.3,1.5,0.6c0.4,0.3,0.7,0.7,0.9,1.2s0.3,1.1,0.3,1.8V555.3z
		 M901.7,552.6v-3c-0.6,0-1.2,0.1-2,0.1s-1.4,0.2-1.8,0.3c-0.5,0.1-1,0.4-1.3,0.7s-0.5,0.8-0.5,1.3c0,0.6,0.2,1.1,0.6,1.4
		s1,0.5,1.7,0.5c0.6,0,1.2-0.1,1.8-0.4S901.3,553,901.7,552.6z"/>
	<path d="M910.1,555.3h-2.3v-2.8h2.3V555.3z"/>
	<path d="M932.1,551.2c0,0.6-0.1,1.1-0.4,1.7s-0.6,1-1.1,1.4c-0.5,0.4-1.1,0.7-1.8,1s-1.5,0.4-2.5,0.4c-1,0-2-0.1-2.8-0.3
		s-1.7-0.5-2.6-0.9V552h0.1c0.7,0.6,1.6,1.1,2.5,1.4s1.9,0.5,2.7,0.5c1.2,0,2.1-0.2,2.8-0.7s1-1,1-1.8c0-0.6-0.2-1.1-0.5-1.4
		s-0.8-0.5-1.4-0.7c-0.5-0.1-1-0.2-1.6-0.3s-1.2-0.2-1.8-0.3c-1.3-0.3-2.2-0.7-2.9-1.4s-0.9-1.5-0.9-2.6c0-1.2,0.5-2.2,1.5-3
		s2.3-1.2,3.9-1.2c1,0,2,0.1,2.8,0.3s1.6,0.4,2.3,0.7v2.3h-0.1c-0.6-0.5-1.3-0.9-2.2-1.2s-1.8-0.5-2.8-0.5c-1,0-1.9,0.2-2.5,0.6
		s-0.9,1-0.9,1.7c0,0.6,0.2,1.1,0.5,1.4s0.9,0.6,1.7,0.8c0.4,0.1,1,0.2,1.8,0.3s1.4,0.3,2,0.4c1.1,0.3,1.9,0.7,2.4,1.3
		S932.1,550.1,932.1,551.2z"/>
	<path d="M943.5,555.3h-1.8v-1.2c-0.2,0.1-0.4,0.3-0.7,0.5s-0.5,0.4-0.8,0.5c-0.3,0.1-0.7,0.3-1.1,0.4s-0.9,0.2-1.4,0.2
		c-1,0-1.8-0.3-2.5-1s-1-1.5-1-2.5c0-0.8,0.2-1.5,0.5-2s0.9-0.9,1.5-1.2c0.7-0.3,1.5-0.5,2.4-0.6s1.9-0.2,3-0.2v-0.3
		c0-0.4-0.1-0.8-0.2-1s-0.4-0.5-0.6-0.6c-0.3-0.1-0.6-0.3-0.9-0.3s-0.7-0.1-1.1-0.1c-0.5,0-1,0.1-1.6,0.2s-1.2,0.3-1.8,0.6h-0.1
		v-1.9c0.4-0.1,0.9-0.2,1.6-0.3s1.3-0.2,2-0.2c0.8,0,1.4,0.1,2,0.2s1.1,0.3,1.5,0.6c0.4,0.3,0.7,0.7,0.9,1.2s0.3,1.1,0.3,1.8V555.3z
		 M943.4,539.5c-0.1,1-0.3,1.7-0.8,2.2s-1,0.8-1.7,0.8c-0.4,0-0.7-0.1-1-0.2s-0.6-0.3-0.8-0.6c-0.3-0.3-0.6-0.5-0.8-0.6
		s-0.4-0.2-0.7-0.2c-0.3,0-0.6,0.1-0.8,0.4s-0.3,0.7-0.3,1.2h-1.3c0.1-1,0.3-1.7,0.8-2.2s1-0.8,1.7-0.8c0.3,0,0.6,0.1,0.9,0.2
		s0.6,0.3,0.9,0.5c0.3,0.3,0.6,0.5,0.8,0.6s0.5,0.2,0.7,0.2c0.3,0,0.6-0.1,0.8-0.4s0.3-0.7,0.3-1.1H943.4z M941.7,552.6v-3
		c-0.6,0-1.2,0.1-2,0.1s-1.4,0.2-1.8,0.3c-0.5,0.1-1,0.4-1.3,0.7s-0.5,0.8-0.5,1.3c0,0.6,0.2,1.1,0.6,1.4s1,0.5,1.7,0.5
		c0.6,0,1.2-0.1,1.8-0.4S941.3,553,941.7,552.6z"/>
	<path d="M956.4,549.9c0,1.8-0.5,3.2-1.4,4.2s-2.1,1.5-3.7,1.5c-1.5,0-2.8-0.5-3.7-1.5s-1.4-2.4-1.4-4.2s0.5-3.2,1.4-4.2
		s2.1-1.5,3.7-1.5c1.5,0,2.8,0.5,3.7,1.5S956.4,548.1,956.4,549.9z M954.5,549.9c0-1.4-0.3-2.5-0.8-3.1s-1.3-1-2.3-1
		c-1,0-1.8,0.3-2.3,1s-0.8,1.7-0.8,3.1c0,1.4,0.3,2.4,0.8,3.1s1.3,1.1,2.3,1.1c1,0,1.7-0.3,2.3-1S954.5,551.3,954.5,549.9z"/>
	<path d="M975.9,545.2c0,0.6-0.1,1.2-0.3,1.8s-0.5,1-0.9,1.4c-0.5,0.5-1.1,0.9-1.8,1.1s-1.5,0.4-2.6,0.4h-1.9v5.4h-1.9v-14.5h3.9
		c0.9,0,1.6,0.1,2.2,0.2s1.1,0.4,1.6,0.7c0.6,0.4,1,0.8,1.3,1.4S975.9,544.3,975.9,545.2z M973.9,545.2c0-0.5-0.1-0.9-0.3-1.3
		s-0.4-0.7-0.8-0.9c-0.3-0.2-0.7-0.3-1.1-0.4s-0.9-0.1-1.5-0.1h-1.9v5.8h1.6c0.8,0,1.4-0.1,1.9-0.2s0.9-0.4,1.2-0.7
		c0.3-0.3,0.5-0.6,0.6-1S973.9,545.7,973.9,545.2z"/>
	<path d="M986.3,555.3h-1.8v-1.2c-0.2,0.1-0.4,0.3-0.7,0.5s-0.5,0.4-0.8,0.5c-0.3,0.1-0.7,0.3-1.1,0.4s-0.9,0.2-1.4,0.2
		c-1,0-1.8-0.3-2.5-1s-1-1.5-1-2.5c0-0.8,0.2-1.5,0.5-2s0.9-0.9,1.5-1.2c0.7-0.3,1.5-0.5,2.4-0.6s1.9-0.2,3-0.2v-0.3
		c0-0.4-0.1-0.8-0.2-1s-0.4-0.5-0.6-0.6c-0.3-0.1-0.6-0.3-0.9-0.3s-0.7-0.1-1.1-0.1c-0.5,0-1,0.1-1.6,0.2s-1.2,0.3-1.8,0.6H978v-1.9
		c0.4-0.1,0.9-0.2,1.6-0.3s1.3-0.2,2-0.2c0.8,0,1.4,0.1,2,0.2s1.1,0.3,1.5,0.6c0.4,0.3,0.7,0.7,0.9,1.2s0.3,1.1,0.3,1.8V555.3z
		 M984.5,552.6v-3c-0.6,0-1.2,0.1-2,0.1s-1.4,0.2-1.8,0.3c-0.5,0.1-1,0.4-1.3,0.7s-0.5,0.8-0.5,1.3c0,0.6,0.2,1.1,0.6,1.4
		s1,0.5,1.7,0.5c0.6,0,1.2-0.1,1.8-0.4S984,553,984.5,552.6z"/>
	<path d="M998.9,555.3H997v-1.2c-0.6,0.5-1.2,0.9-1.8,1.1s-1.2,0.4-1.9,0.4c-1.1,0-2-0.3-2.7-1s-1-1.7-1-3.1v-7.1h1.8v6.2
		c0,0.6,0,1,0.1,1.4s0.2,0.7,0.3,1c0.2,0.3,0.4,0.5,0.7,0.6s0.7,0.2,1.2,0.2c0.5,0,1-0.1,1.6-0.4s1.1-0.6,1.6-0.9v-8.1h1.8V555.3z"
		/>
	<path d="M1004.4,555.3h-1.8v-15.2h1.8V555.3z"/>
	<path d="M1017.3,549.9c0,1.8-0.5,3.2-1.4,4.2s-2.1,1.5-3.7,1.5c-1.5,0-2.8-0.5-3.7-1.5s-1.4-2.4-1.4-4.2s0.5-3.2,1.4-4.2
		s2.1-1.5,3.7-1.5c1.5,0,2.8,0.5,3.7,1.5S1017.3,548.1,1017.3,549.9z M1015.4,549.9c0-1.4-0.3-2.5-0.8-3.1s-1.3-1-2.3-1
		c-1,0-1.8,0.3-2.3,1s-0.8,1.7-0.8,3.1c0,1.4,0.3,2.4,0.8,3.1s1.3,1.1,2.3,1.1c1,0,1.7-0.3,2.3-1S1015.4,551.3,1015.4,549.9z"/>
	<path d="M1024,547.2h-2.3v-2.8h2.3V547.2z M1024,555.3h-2.3v-2.8h2.3V555.3z"/>
	<path d="M1049.3,555.3h-1.9v-12.5l-4,8.5h-1.2l-4-8.5v12.5h-1.8v-14.5h2.6l3.9,8.1l3.8-8.1h2.7V555.3z"/>
	<path d="M1061.6,555.3h-1.8v-1.2c-0.2,0.1-0.4,0.3-0.7,0.5s-0.5,0.4-0.8,0.5c-0.3,0.1-0.7,0.3-1.1,0.4s-0.9,0.2-1.4,0.2
		c-1,0-1.8-0.3-2.5-1s-1-1.5-1-2.5c0-0.8,0.2-1.5,0.5-2s0.9-0.9,1.5-1.2c0.7-0.3,1.5-0.5,2.4-0.6s1.9-0.2,3-0.2v-0.3
		c0-0.4-0.1-0.8-0.2-1s-0.4-0.5-0.6-0.6c-0.3-0.1-0.6-0.3-0.9-0.3s-0.7-0.1-1.1-0.1c-0.5,0-1,0.1-1.6,0.2s-1.2,0.3-1.8,0.6h-0.1
		v-1.9c0.4-0.1,0.9-0.2,1.6-0.3s1.3-0.2,2-0.2c0.8,0,1.4,0.1,2,0.2s1.1,0.3,1.5,0.6c0.4,0.3,0.7,0.7,0.9,1.2s0.3,1.1,0.3,1.8V555.3z
		 M1059.7,552.6v-3c-0.6,0-1.2,0.1-2,0.1s-1.4,0.2-1.8,0.3c-0.5,0.1-1,0.4-1.3,0.7s-0.5,0.8-0.5,1.3c0,0.6,0.2,1.1,0.6,1.4
		s1,0.5,1.7,0.5c0.6,0,1.2-0.1,1.8-0.4S1059.3,553,1059.7,552.6z"/>
	<path d="M1071.9,546.4L1071.9,546.4c-0.4-0.1-0.6-0.1-0.9-0.1s-0.6,0-0.9,0c-0.6,0-1.1,0.1-1.6,0.4s-1,0.6-1.5,1v7.7h-1.8v-10.9
		h1.8v1.6c0.7-0.6,1.4-1,1.9-1.2s1.1-0.4,1.7-0.4c0.3,0,0.5,0,0.7,0s0.4,0,0.6,0.1V546.4z"/>
	<path d="M1079.3,555.2c-0.3,0.1-0.7,0.2-1.1,0.2s-0.8,0.1-1.1,0.1c-1.1,0-2-0.3-2.5-0.9s-0.9-1.6-0.9-2.9V546h-1.2v-1.5h1.2v-3.1
		h1.8v3.1h3.8v1.5h-3.8v5c0,0.6,0,1,0,1.3s0.1,0.6,0.3,0.9c0.1,0.3,0.3,0.5,0.6,0.6s0.6,0.2,1.1,0.2c0.3,0,0.6,0,0.9-0.1
		s0.6-0.2,0.7-0.2h0.1V555.2z"/>
	<path d="M1083.5,542.6h-2.1v-1.9h2.1V542.6z M1083.4,555.3h-1.8v-10.9h1.8V555.3z"/>
	<path d="M1096.1,555.3h-1.8v-6.2c0-0.5,0-1-0.1-1.4s-0.2-0.8-0.3-1c-0.2-0.3-0.4-0.5-0.7-0.6s-0.7-0.2-1.2-0.2
		c-0.5,0-1,0.1-1.6,0.4s-1.1,0.6-1.6,0.9v8.1h-1.8v-10.9h1.8v1.2c0.6-0.5,1.2-0.8,1.8-1.1s1.2-0.4,1.9-0.4c1.2,0,2.1,0.4,2.7,1.1
		s0.9,1.7,0.9,3.1V555.3z"/>
	<path d="M1107.5,552.2c0,1-0.4,1.8-1.2,2.5s-1.9,1-3.4,1c-0.8,0-1.5-0.1-2.2-0.3s-1.2-0.4-1.7-0.6v-2.1h0.1c0.6,0.4,1.2,0.8,1.9,1
		s1.4,0.4,2,0.4c0.8,0,1.4-0.1,1.9-0.4s0.7-0.7,0.7-1.2c0-0.4-0.1-0.8-0.4-1s-0.7-0.4-1.4-0.6c-0.3-0.1-0.6-0.1-1-0.2
		s-0.8-0.2-1.1-0.3c-1-0.3-1.6-0.6-2-1.1s-0.6-1.1-0.6-1.8c0-0.4,0.1-0.9,0.3-1.3s0.5-0.8,0.8-1.1c0.4-0.3,0.8-0.5,1.4-0.7
		s1.2-0.3,1.9-0.3c0.7,0,1.3,0.1,2,0.2s1.2,0.4,1.7,0.6v2h-0.1c-0.5-0.3-1-0.6-1.7-0.9s-1.3-0.4-2-0.4c-0.7,0-1.2,0.1-1.7,0.4
		s-0.7,0.6-0.7,1.1c0,0.4,0.1,0.8,0.4,1c0.3,0.2,0.7,0.4,1.3,0.6c0.3,0.1,0.7,0.2,1.1,0.2s0.8,0.1,1,0.2c0.9,0.2,1.5,0.5,2,1
		C1107.2,550.7,1107.5,551.4,1107.5,552.2z"/>
	<path d="M1126.5,542.5h-7.4v4.1h6.3v1.7h-6.3v7h-1.9v-14.5h9.3V542.5z"/>
	<path d="M1137.4,549.9c0,1.8-0.5,3.2-1.4,4.2s-2.1,1.5-3.7,1.5c-1.5,0-2.8-0.5-3.7-1.5s-1.4-2.4-1.4-4.2s0.5-3.2,1.4-4.2
		s2.1-1.5,3.7-1.5c1.5,0,2.8,0.5,3.7,1.5S1137.4,548.1,1137.4,549.9z M1135.5,549.9c0-1.4-0.3-2.5-0.8-3.1s-1.3-1-2.3-1
		c-1,0-1.8,0.3-2.3,1s-0.8,1.7-0.8,3.1c0,1.4,0.3,2.4,0.8,3.1s1.3,1.1,2.3,1.1c1,0,1.7-0.3,2.3-1S1135.5,551.3,1135.5,549.9z"/>
	<path d="M1149.4,555.3h-1.8v-6.2c0-0.5,0-1-0.1-1.4s-0.2-0.8-0.3-1c-0.2-0.3-0.4-0.5-0.7-0.6s-0.7-0.2-1.2-0.2
		c-0.5,0-1,0.1-1.6,0.4s-1.1,0.6-1.6,0.9v8.1h-1.8v-10.9h1.8v1.2c0.6-0.5,1.2-0.8,1.8-1.1s1.2-0.4,1.9-0.4c1.2,0,2.1,0.4,2.7,1.1
		s0.9,1.7,0.9,3.1V555.3z"/>
	<path d="M1158.6,555.2c-0.3,0.1-0.7,0.2-1.1,0.2s-0.8,0.1-1.1,0.1c-1.1,0-2-0.3-2.5-0.9s-0.9-1.6-0.9-2.9V546h-1.2v-1.5h1.2v-3.1
		h1.8v3.1h3.8v1.5h-3.8v5c0,0.6,0,1,0,1.3s0.1,0.6,0.3,0.9c0.1,0.3,0.3,0.5,0.6,0.6s0.6,0.2,1.1,0.2c0.3,0,0.6,0,0.9-0.1
		s0.6-0.2,0.7-0.2h0.1V555.2z"/>
	<path d="M1169.9,550.1h-8c0,0.7,0.1,1.3,0.3,1.8s0.5,0.9,0.8,1.2c0.3,0.3,0.7,0.5,1.2,0.7s1,0.2,1.5,0.2c0.7,0,1.5-0.1,2.2-0.4
		s1.3-0.6,1.6-0.9h0.1v2c-0.6,0.3-1.2,0.5-1.9,0.7s-1.3,0.3-2,0.3c-1.8,0-3.2-0.5-4.2-1.5s-1.5-2.4-1.5-4.2c0-1.8,0.5-3.2,1.5-4.2
		s2.3-1.6,3.8-1.6c1.5,0,2.6,0.4,3.4,1.3s1.2,2.1,1.2,3.7V550.1z M1168.1,548.7c0-1-0.2-1.7-0.7-2.2s-1.2-0.8-2.2-0.8
		c-1,0-1.8,0.3-2.3,0.9s-0.9,1.3-1,2.2H1168.1z"/>
	<path d="M1180.5,552.2c0,1-0.4,1.8-1.2,2.5s-1.9,1-3.4,1c-0.8,0-1.5-0.1-2.2-0.3s-1.2-0.4-1.7-0.6v-2.1h0.1c0.6,0.4,1.2,0.8,1.9,1
		s1.4,0.4,2,0.4c0.8,0,1.4-0.1,1.9-0.4s0.7-0.7,0.7-1.2c0-0.4-0.1-0.8-0.4-1s-0.7-0.4-1.4-0.6c-0.3-0.1-0.6-0.1-1-0.2
		s-0.8-0.2-1.1-0.3c-1-0.3-1.6-0.6-2-1.1s-0.6-1.1-0.6-1.8c0-0.4,0.1-0.9,0.3-1.3s0.5-0.8,0.8-1.1c0.4-0.3,0.8-0.5,1.4-0.7
		s1.2-0.3,1.9-0.3c0.7,0,1.3,0.1,2,0.2s1.2,0.4,1.7,0.6v2h-0.1c-0.5-0.3-1-0.6-1.7-0.9s-1.3-0.4-2-0.4c-0.7,0-1.2,0.1-1.7,0.4
		s-0.7,0.6-0.7,1.1c0,0.4,0.1,0.8,0.4,1c0.3,0.2,0.7,0.4,1.3,0.6c0.3,0.1,0.7,0.2,1.1,0.2s0.8,0.1,1,0.2c0.9,0.2,1.5,0.5,2,1
		C1180.3,550.7,1180.5,551.4,1180.5,552.2z"/>
	<path d="M1186.9,552.5l-2.8,6.4h-1.4l1.7-6.4H1186.9z"/>
	<path d="M1207,555.3h-9.8v-2c0.7-0.6,1.4-1.2,2.1-1.8s1.3-1.2,1.9-1.7c1.2-1.2,2.1-2.2,2.6-2.9s0.7-1.5,0.7-2.3
		c0-0.8-0.2-1.3-0.7-1.8s-1.2-0.6-2.1-0.6c-0.6,0-1.2,0.1-1.9,0.3s-1.4,0.5-2,1h-0.1v-2.1c0.5-0.2,1.1-0.4,1.9-0.6s1.5-0.3,2.2-0.3
		c1.5,0,2.7,0.4,3.5,1.1s1.3,1.7,1.3,2.9c0,0.6-0.1,1.1-0.2,1.5s-0.3,0.9-0.6,1.4c-0.3,0.4-0.6,0.8-0.9,1.2s-0.8,0.8-1.2,1.3
		c-0.7,0.7-1.4,1.3-2.2,2s-1.4,1.2-2.1,1.8h7.8V555.3z"/>
	<path d="M1219.7,548c0,2.6-0.4,4.5-1.2,5.7s-2.1,1.8-3.8,1.8c-1.7,0-3-0.6-3.8-1.9s-1.2-3.1-1.2-5.7c0-2.6,0.4-4.5,1.2-5.7
		s2.1-1.9,3.8-1.9c1.7,0,3,0.6,3.8,1.9S1219.7,545.5,1219.7,548z M1217.2,552.5c0.2-0.5,0.4-1.1,0.5-1.9s0.1-1.6,0.1-2.6
		c0-1,0-1.8-0.1-2.6s-0.2-1.3-0.5-1.9c-0.2-0.5-0.5-0.9-0.9-1.1s-0.9-0.4-1.5-0.4c-0.6,0-1.1,0.1-1.5,0.4s-0.7,0.6-1,1.2
		c-0.2,0.5-0.4,1.1-0.5,1.9s-0.1,1.6-0.1,2.5c0,1,0,1.9,0.1,2.5s0.2,1.3,0.5,1.8c0.2,0.5,0.5,0.9,0.9,1.2s0.9,0.4,1.6,0.4
		c0.6,0,1.1-0.1,1.5-0.4S1217,553,1217.2,552.5z"/>
	<path d="M1232.5,548c0,2.6-0.4,4.5-1.2,5.7s-2.1,1.8-3.8,1.8c-1.7,0-3-0.6-3.8-1.9s-1.2-3.1-1.2-5.7c0-2.6,0.4-4.5,1.2-5.7
		s2.1-1.9,3.8-1.9c1.7,0,3,0.6,3.8,1.9S1232.5,545.5,1232.5,548z M1229.9,552.5c0.2-0.5,0.4-1.1,0.5-1.9s0.1-1.6,0.1-2.6
		c0-1,0-1.8-0.1-2.6s-0.2-1.3-0.5-1.9c-0.2-0.5-0.5-0.9-0.9-1.1s-0.9-0.4-1.5-0.4c-0.6,0-1.1,0.1-1.5,0.4s-0.7,0.6-1,1.2
		c-0.2,0.5-0.4,1.1-0.5,1.9s-0.1,1.6-0.1,2.5c0,1,0,1.9,0.1,2.5s0.2,1.3,0.5,1.8c0.2,0.5,0.5,0.9,0.9,1.2s0.9,0.4,1.6,0.4
		c0.6,0,1.1-0.1,1.5-0.4S1229.7,553,1229.9,552.5z"/>
	<path d="M1245.3,551.3c0,1.3-0.5,2.3-1.5,3.1s-2.2,1.2-3.7,1.2c-1.6,0-2.8-0.4-3.8-1.2s-1.4-1.9-1.4-3.1c0-0.8,0.2-1.5,0.7-2.2
		s1.1-1.2,2-1.6v-0.1c-0.8-0.4-1.4-0.9-1.7-1.4s-0.6-1.1-0.6-1.9c0-1.1,0.4-2,1.3-2.7s2-1.1,3.4-1.1c1.5,0,2.6,0.3,3.5,1
		s1.3,1.6,1.3,2.7c0,0.7-0.2,1.3-0.6,1.9s-1,1.1-1.8,1.5v0.1c0.9,0.4,1.6,0.9,2.1,1.4S1245.3,550.4,1245.3,551.3z M1243.3,551.5
		c0-0.6-0.1-1.1-0.4-1.4s-0.8-0.7-1.5-1.1c-0.3-0.1-0.6-0.3-1-0.4s-0.8-0.3-1.5-0.5c-0.6,0.3-1.1,0.8-1.4,1.3s-0.5,1.2-0.5,1.9
		c0,0.9,0.3,1.6,0.9,2.2s1.4,0.9,2.3,0.9c1,0,1.7-0.2,2.3-0.7S1243.3,552.3,1243.3,551.5z M1243,544.2c0-0.7-0.3-1.3-0.8-1.7
		s-1.2-0.6-2.1-0.6c-0.8,0-1.5,0.2-2,0.6s-0.8,0.9-0.8,1.6c0,0.5,0.1,0.9,0.4,1.2s0.7,0.6,1.2,0.9c0.2,0.1,0.6,0.3,1,0.5
		s0.9,0.3,1.3,0.5c0.6-0.4,1.1-0.9,1.3-1.3S1243,544.8,1243,544.2z"/>
	<path d="M1251.3,555.3h-2.3v-2.8h2.3V555.3z"/>
	<path d="M1272,544.4l-4.4,10.9h-1.8l-4.4-10.9h2l3.4,8.7l3.3-8.7H1272z"/>
	<path d="M1275.7,555.3h-2.3v-2.8h2.3V555.3z"/>
	<path d="M1295.8,555.3h-7.9v-1.5h3v-9.7h-3v-1.3c0.4,0,0.8,0,1.3-0.1s0.8-0.2,1.1-0.3c0.3-0.2,0.5-0.4,0.7-0.6s0.3-0.6,0.3-1h1.5
		v13.1h3V555.3z"/>
	<path d="M1302.7,555.3h-2.3v-2.8h2.3V555.3z"/>
</g>
</svg>
