<svg id="Componente_62_1" data-name="Componente 62 – 1" xmlns="http://www.w3.org/2000/svg" width="348.686" height="348.686" viewBox="0 0 348.686 348.686">
  <circle id="Elipse_99" data-name="Elipse 99" cx="123.278" cy="123.278" r="123.278" transform="translate(0 174.343) rotate(-45)" fill="#f2f2f2"/>
  <g id="Grupo_3935" data-name="Grupo 3935" transform="translate(5.751 7.325)">
    <path id="Caminho_31227" data-name="Caminho 31227" d="M97.778,297.283a11.685,11.685,0,0,0,9.582-20.974C130.77,214.6,190.959,172.4,257.685,172.4S384.6,214.6,408.01,276.308a11.638,11.638,0,1,0,5.883-2.028c-24.278-64.193-86.839-108.1-156.214-108.1s-131.936,43.908-156.214,108.1a11.711,11.711,0,0,0-3.7,23Z" transform="translate(-89.093 -166.18)" fill="#008686"/>
    <path id="Caminho_31228" data-name="Caminho 31228" d="M417.588,521.163a11.686,11.686,0,0,0-9.726,20.911,160.717,160.717,0,0,1-299.823,0,11.65,11.65,0,1,0-5.883,2.062,166.941,166.941,0,0,0,311.571,0,11.71,11.71,0,0,0,3.849-22.974Z" transform="translate(-89.359 -317.049)" fill="#008686"/>
  </g>
  <g id="Grupo_3936" data-name="Grupo 3936" transform="translate(120.094 136.572)">
    <path id="Caminho_31229" data-name="Caminho 31229" d="M319.75,470.266q-15.864,0-23.743-10.777t-7.876-28.776q0-18,7.876-28.776T319.75,391.16q15.864,0,23.738,10.777t7.876,28.776q0,18-7.876,28.776T319.75,470.266Zm-11.271-57.988q-3.611,7.006-3.608,18.493t3.608,18.487q3.611,7.006,11.271,7t11.266-7q3.611-7,3.614-18.487t-3.614-18.493q-3.611-7-11.266-7t-11.271,7Z" transform="translate(-288.13 -391.16)" fill="#008686"/>
    <path id="Caminho_31230" data-name="Caminho 31230" d="M407.15,394.22h30.965V470.7H421.7V408.772H407.15Z" transform="translate(-338.775 -392.462)" fill="#008686"/>
  </g>
</svg>
