<?xml version="1.0" encoding="UTF-8"?>
<svg id="Layer_1" data-name="Layer 1" xmlns="http://www.w3.org/2000/svg" viewBox="0 0 108.71 105.88">
  <defs>
    <style>
      .cls-1 {
        fill: #fff;
      }

      .cls-2 {
        fill: #116c98;
      }

      .cls-3 {
        fill: #354a61;
      }
    </style>
  </defs>
  <g>
    <circle class="cls-2" cx="43.87" cy="52.94" r="32.32"/>
    <g>
      <path class="cls-1" d="m35.72,60.32c-1.07-.66-1.91-1.62-2.52-2.88-.6-1.26-.91-2.76-.91-4.49s.3-3.23.91-4.49c.61-1.26,1.44-2.22,2.52-2.88,1.07-.66,2.3-.99,3.68-.99s2.58.33,3.65.99c1.07.66,1.91,1.62,2.52,2.88.6,1.26.91,2.76.91,4.49s-.3,3.23-.91,4.49c-.6,1.26-1.44,2.22-2.52,2.88-1.07.66-2.29.99-3.65.99s-2.6-.33-3.68-.99Zm5.5-3.85c.45-.74.68-1.92.68-3.53s-.23-2.78-.68-3.53c-.45-.74-1.06-1.11-1.83-1.11s-1.4.37-1.85,1.11-.68,1.92-.68,3.53.23,2.78.68,3.53c.45.74,1.07,1.11,1.85,1.11s1.38-.37,1.83-1.11Z"/>
      <path class="cls-1" d="m55.44,44.9v16.08h-4.55v-12.57h-2.99v-3.52h7.54Z"/>
    </g>
  </g>
  <rect class="cls-3" x="95.16" y="20.56" width="2" height="64.76"/>
</svg>