<?xml version="1.0" encoding="UTF-8"?>
<svg id="Layer_1" data-name="Layer 1" xmlns="http://www.w3.org/2000/svg" viewBox="0 0 90.59 101.76">
  <defs>
    <style>
      .cls-1 {
        fill: #fff;
      }

      .cls-2 {
        fill: #252525;
      }

      .cls-2, .cls-3 {
        fill-rule: evenodd;
      }

      .cls-3 {
        fill: #007e80;
      }

      .cls-4 {
        fill: none;
      }
    </style>
  </defs>
  <rect class="cls-4" x="-32799.18" y="-32621.2" width="65535" height="65535"/>
  <g id="Grupo_1333" data-name="Grupo 1333">
    <g id="Grupo_1331" data-name="Grupo 1331">
      <g id="Caminho_1290" data-name="Caminho 1290">
        <path class="cls-2" d="m67.68,85.95h-8.7v-12h-12.5v12h-9l15,14.2,15.2-14.2Zm16.3-57.7h-15.2c-1.8-.1-3.5-.8-4.9-1.9-1.1-1.3-1.7-2.9-1.7-4.5V6.45H21.98c-.1,0-.2.1-.3.2s-.2.2-.2.3v70.9c0,.1.1.2.2.3.1.1.2.1.3.2h10.5c-.8,1.8-1.4,3.6-1.8,5.6h-10.4c-1.1,0-2.2-.5-3-1.3s-1.2-1.9-1.2-3V5.05c0-1.1.4-2.2,1.2-3s1.9-1.2,3-1.2h45c.5-.1,1,.1,1.3.4l.2.2,22.1,22.3c.4.4.6.9.6,1.5,0,.2,0,.3-.1.5v53.9c0,1.1-.5,2.2-1.3,3s-1.9,1.3-3,1.3h-11.2c-.3-1.9-.9-3.8-1.8-5.6h11.4c.2,0,.2-.1.2-.2.1-.1.2-.2.2-.3l.1-49.6Zm-16.8-7V7.25l15.8,15.9h-13.8c-.5,0-1-.2-1.4-.6-.4-.2-.6-.7-.6-1.3"/>
      </g>
    </g>
    <g id="Caminho_1291" data-name="Caminho 1291">
      <path class="cls-3" d="m1.12,31.9h71.9v34.5H1.12V31.9Z"/>
    </g>
    <g id="Grupo_1332" data-name="Grupo 1332">
      <g id="Caminho_1292" data-name="Caminho 1292">
        <path class="cls-1" d="m10.92,40.1h9.5c1.7-.1,3.4.4,4.7,1.5,1.1,1.1,1.7,2.6,1.5,4.2.1,1.6-.5,3.2-1.7,4.4-1.5,1.2-3.4,1.7-5.3,1.6h-3v6.9h-5.8l.1-18.6Zm5.7,7.8h1.4c.8.1,1.7-.1,2.3-.6.4-.4.6-.9.6-1.5,0-.5-.2-1.1-.6-1.5-.6-.5-1.4-.7-2.2-.6h-1.5v4.2Zm12.8-7.8h8.5c1.4,0,2.7.2,4,.6,1,.5,1.9,1.1,2.6,1.9.7.9,1.2,1.9,1.5,3,.3,1.2.5,2.4.5,3.6,0,1.6-.2,3.1-.6,4.6-.4,1-1,2-1.9,2.7-.7.7-1.6,1.2-2.6,1.5-1.1.3-2.3.5-3.4.5h-8.6v-18.4Zm5.8,4.2v10h1.4c.9,0,1.8-.1,2.6-.4.5-.3,1-.8,1.2-1.4.3-1,.4-2.1.4-3.2,0-1.9-.3-3.3-1-4-.9-.8-2-1.2-3.2-1.1l-1.4.1Zm14-4.2h14.2v4h-8.4v3.2h7.2v3.7h-7.2v7.5h-5.7v-18.4h-.1Z"/>
      </g>
    </g>
  </g>
</svg>