<?xml version="1.0" encoding="utf-8"?>
<!-- Generator: Adobe Illustrator 27.2.0, SVG Export Plug-In . SVG Version: 6.00 Build 0)  -->
<svg version="1.1" id="Layer_1" xmlns="http://www.w3.org/2000/svg" xmlns:xlink="http://www.w3.org/1999/xlink" x="0px" y="0px"
	 viewBox="0 0 1221.3 546.7" style="enable-background:new 0 0 1221.3 546.7;" xml:space="preserve">
<style type="text/css">
	.st0{fill:none;stroke:#E9551C;stroke-miterlimit:10;}
	.st1{fill:#F7F1F0;}
	.st2{fill:#F7C2A1;}
	.st3{fill:#F26A41;}
	.st4{fill:#E8541C;}
	.st5{fill:#FFEEC2;}
</style>
<rect x="54.1" y="117.4" class="st0" width="1137.3" height="379.8"/>
<rect x="28.1" y="90.4" class="st1" width="1137.3" height="379.8"/>
<g>
	<path d="M137.6,243.6v1.7h-12.9v-18.2h12.5v1.7h-10.6v6.5h9.4v1.6h-9.4v6.8L137.6,243.6L137.6,243.6z"/>
	<path d="M139.6,243.7l0.8-1.5c1.1,0.9,2.9,1.5,4.9,1.5c2.6,0,3.7-0.9,3.7-2.2c0-3.6-8.9-0.8-8.9-6.2c0-2.2,1.9-3.9,5.4-3.9
		c1.8,0,3.7,0.5,4.8,1.3l-0.8,1.5c-1.2-0.8-2.6-1.2-4-1.2c-2.5,0-3.6,1-3.6,2.3c0,3.7,8.9,0.9,8.9,6.2c0,2.4-2.1,3.9-5.6,3.9
		C142.9,245.4,140.7,244.6,139.6,243.7L139.6,243.7z"/>
	<path d="M152.3,243.7l0.8-1.5c1.1,0.9,2.9,1.5,4.9,1.5c2.6,0,3.7-0.9,3.7-2.2c0-3.6-8.9-0.8-8.9-6.2c0-2.2,1.9-3.9,5.4-3.9
		c1.8,0,3.7,0.5,4.8,1.3l-0.8,1.5c-1.2-0.8-2.6-1.2-4-1.2c-2.5,0-3.6,1-3.6,2.3c0,3.7,8.9,0.9,8.9,6.2c0,2.4-2.1,3.9-5.6,3.9
		C155.6,245.4,153.4,244.6,152.3,243.7L152.3,243.7z"/>
	<path d="M177.2,236.8v8.5h-1.8v-2.1c-0.8,1.4-2.4,2.3-4.7,2.3c-3.1,0-5-1.6-5-4c0-2.1,1.4-3.9,5.3-3.9h4.3v-0.8
		c0-2.3-1.3-3.6-3.9-3.6c-1.8,0-3.4,0.6-4.6,1.6l-0.8-1.4c1.4-1.2,3.4-1.9,5.6-1.9C175.2,231.5,177.2,233.2,177.2,236.8L177.2,236.8
		z M175.4,241.1v-2.2h-4.3c-2.6,0-3.5,1-3.5,2.4c0,1.6,1.3,2.6,3.5,2.6S174.7,242.9,175.4,241.1L175.4,241.1z"/>
	<path d="M201.6,237.3v7.9h-1.9v-7.8c0-2.9-1.5-4.4-4.1-4.4c-2.9,0-4.8,1.8-4.8,4.9v7.2h-1.9v-13.7h1.8v2.5c1-1.7,2.8-2.6,5.2-2.6
		C199.4,231.5,201.6,233.4,201.6,237.3L201.6,237.3z"/>
	<path d="M205.3,238.4c0-4.1,3-6.9,7-6.9s6.9,2.9,6.9,6.9s-2.9,7-6.9,7S205.3,242.5,205.3,238.4z M217.4,238.4
		c0-3.2-2.2-5.3-5.1-5.3s-5.1,2.1-5.1,5.3s2.2,5.3,5.1,5.3S217.4,241.6,217.4,238.4z"/>
	<path d="M234.1,231.6l-6.1,13.7h-1.9l-6.1-13.7h1.9l5.1,11.6l5.2-11.6L234.1,231.6L234.1,231.6z"/>
	<path d="M246.6,236.8v8.5h-1.8v-2.1c-0.8,1.4-2.4,2.3-4.7,2.3c-3.1,0-5-1.6-5-4c0-2.1,1.4-3.9,5.3-3.9h4.3v-0.8
		c0-2.3-1.3-3.6-3.9-3.6c-1.8,0-3.4,0.6-4.6,1.6l-0.8-1.4c1.4-1.2,3.4-1.9,5.6-1.9C244.6,231.5,246.6,233.2,246.6,236.8L246.6,236.8
		z M244.8,241.1v-2.2h-4.3c-2.6,0-3.5,1-3.5,2.4c0,1.6,1.3,2.6,3.5,2.6S244.1,242.9,244.8,241.1L244.8,241.1z"/>
	<path d="M260.6,230v1.6h4.2v1.6h-4.2v12.1h-1.9v-12.1h-2.4v-1.6h2.4v-1.7c0-2.4,1.5-4.1,4.1-4.1c1,0,2,0.3,2.7,0.9l-0.6,1.4
		c-0.5-0.4-1.2-0.7-2-0.7C261.4,227.4,260.6,228.3,260.6,230L260.6,230z"/>
	<path d="M265.7,238.4c0-4.1,3-6.9,7-6.9s6.9,2.9,6.9,6.9s-2.9,7-6.9,7S265.7,242.5,265.7,238.4z M277.7,238.4
		c0-3.2-2.2-5.3-5.1-5.3s-5.1,2.1-5.1,5.3s2.2,5.3,5.1,5.3S277.7,241.6,277.7,238.4z"/>
	<path d="M290.2,231.5v1.8c-0.2,0-0.3,0-0.4,0c-2.9,0-4.6,1.8-4.6,5v7h-1.9v-13.7h1.8v2.7C286,232.4,287.7,231.5,290.2,231.5
		L290.2,231.5z"/>
	<path d="M316.1,237.3v7.9h-1.9v-7.8c0-2.9-1.5-4.4-3.9-4.4c-2.8,0-4.6,1.8-4.6,4.9v7.2h-1.9v-7.8c0-2.9-1.5-4.4-4-4.4
		c-2.8,0-4.6,1.8-4.6,4.9v7.2h-1.9v-13.7h1.8v2.5c1-1.6,2.7-2.6,5-2.6s4,1,4.9,2.9c1-1.8,2.9-2.9,5.4-2.9
		C313.9,231.5,316.1,233.4,316.1,237.3L316.1,237.3z"/>
	<path d="M331.5,236.8v8.5h-1.8v-2.1c-0.8,1.4-2.4,2.3-4.7,2.3c-3.1,0-5-1.6-5-4c0-2.1,1.4-3.9,5.3-3.9h4.3v-0.8
		c0-2.3-1.3-3.6-3.9-3.6c-1.8,0-3.4,0.6-4.5,1.6l-0.8-1.4c1.4-1.2,3.4-1.9,5.6-1.9C329.5,231.5,331.5,233.2,331.5,236.8L331.5,236.8
		z M329.6,241.1v-2.2h-4.3c-2.6,0-3.5,1-3.5,2.4c0,1.6,1.3,2.6,3.5,2.6S328.9,242.9,329.6,241.1L329.6,241.1z"/>
	<path d="M346.2,241.8l1.4,0.9c-1.1,1.8-3,2.7-5.4,2.7h0l-0.3,1.2c1.4,0.1,2.2,1,2.2,2.1c0,1.4-1.2,2.3-2.9,2.3
		c-0.9,0-1.6-0.2-2.2-0.6l0.4-1c0.5,0.3,1.1,0.5,1.7,0.5c1,0,1.6-0.4,1.6-1.2c0-0.7-0.5-1.2-1.6-1.2h-0.6l0.6-2.2
		c-3.5-0.5-5.9-3.2-5.9-6.9c0-4.1,3-6.9,7-6.9c2.3,0,4.3,0.9,5.4,2.7l-1.4,0.9c-0.9-1.4-2.4-2-4-2c-3,0-5.2,2.1-5.2,5.3
		s2.2,5.3,5.2,5.3C343.8,243.7,345.2,243.1,346.2,241.8L346.2,241.8z"/>
	<path d="M361.5,236.8v8.5h-1.8v-2.1c-0.8,1.4-2.4,2.3-4.7,2.3c-3.1,0-5-1.6-5-4c0-2.1,1.4-3.9,5.3-3.9h4.3v-0.8
		c0-2.3-1.3-3.6-3.9-3.6c-1.8,0-3.4,0.6-4.5,1.6l-0.8-1.4c1.4-1.2,3.4-1.9,5.6-1.9C359.5,231.5,361.5,233.2,361.5,236.8L361.5,236.8
		z M359.6,241.1v-2.2h-4.3c-2.6,0-3.5,1-3.5,2.4c0,1.6,1.3,2.6,3.5,2.6S358.9,242.9,359.6,241.1L359.6,241.1z M353,229.2h-1.1
		c0-1.7,1-2.9,2.3-2.9c1.6,0,2.4,1.8,3.4,1.8c0.8,0,1.3-0.6,1.4-1.6h1.1c0,1.7-1,2.8-2.3,2.8c-1.6,0-2.4-1.8-3.4-1.8
		C353.6,227.6,353.1,228.2,353,229.2z"/>
	<path d="M365.2,238.4c0-4.1,3-6.9,7-6.9s6.9,2.9,6.9,6.9s-2.9,7-6.9,7S365.2,242.5,365.2,238.4z M377.2,238.4
		c0-3.2-2.2-5.3-5.1-5.3s-5.1,2.1-5.1,5.3s2.2,5.3,5.1,5.3S377.2,241.6,377.2,238.4z"/>
	<path d="M402.2,226v19.3h-1.8v-2.7c-1.1,1.9-3,2.8-5.3,2.8c-3.9,0-6.8-2.8-6.8-7s2.9-6.9,6.8-6.9c2.2,0,4.1,0.9,5.2,2.7v-8.2
		L402.2,226L402.2,226z M400.3,238.4c0-3.2-2.2-5.3-5.1-5.3s-5.1,2.1-5.1,5.3s2.2,5.3,5.1,5.3S400.3,241.6,400.3,238.4z"/>
	<path d="M405.9,238.4c0-4.1,3-6.9,7-6.9s6.9,2.9,6.9,6.9s-2.9,7-6.9,7S405.9,242.5,405.9,238.4z M418,238.4c0-3.2-2.2-5.3-5.1-5.3
		s-5.1,2.1-5.1,5.3s2.2,5.3,5.1,5.3S418,241.6,418,238.4z"/>
	<path d="M443.7,243.6v1.7h-12.9v-18.2h12.5v1.7h-10.6v6.5h9.4v1.6h-9.4v6.8L443.7,243.6L443.7,243.6z"/>
	<path d="M445.7,243.7l0.8-1.5c1.1,0.9,2.9,1.5,4.9,1.5c2.6,0,3.7-0.9,3.7-2.2c0-3.6-8.9-0.8-8.9-6.2c0-2.2,1.9-3.9,5.4-3.9
		c1.8,0,3.7,0.5,4.8,1.3l-0.8,1.5c-1.2-0.8-2.6-1.2-4-1.2c-2.5,0-3.6,1-3.6,2.3c0,3.7,8.9,0.9,8.9,6.2c0,2.4-2.1,3.9-5.6,3.9
		C449,245.4,446.8,244.6,445.7,243.7L445.7,243.7z"/>
	<path d="M467.5,244.4c-0.7,0.6-1.8,1-2.9,1c-2.6,0-4-1.5-4-4v-8.3h-2.4v-1.6h2.4v-3h1.9v3h4.2v1.6h-4.2v8.2c0,1.6,0.8,2.5,2.4,2.5
		c0.8,0,1.5-0.2,2-0.7L467.5,244.4L467.5,244.4z"/>
	<path d="M481.2,236.8v8.5h-1.8v-2.1c-0.8,1.4-2.4,2.3-4.7,2.3c-3.1,0-5-1.6-5-4c0-2.1,1.4-3.9,5.3-3.9h4.3v-0.8
		c0-2.3-1.3-3.6-3.9-3.6c-1.8,0-3.4,0.6-4.5,1.6l-0.8-1.4c1.4-1.2,3.4-1.9,5.6-1.9C479.2,231.5,481.2,233.2,481.2,236.8L481.2,236.8
		z M479.4,241.1v-2.2h-4.3c-2.6,0-3.5,1-3.5,2.4c0,1.6,1.3,2.6,3.5,2.6S478.6,242.9,479.4,241.1L479.4,241.1z"/>
	<path d="M498.8,226v19.3H497v-2.7c-1.1,1.9-3,2.8-5.3,2.8c-3.9,0-6.8-2.8-6.8-7s2.9-6.9,6.8-6.9c2.2,0,4.1,0.9,5.2,2.7v-8.2
		L498.8,226L498.8,226z M496.9,238.4c0-3.2-2.2-5.3-5.1-5.3s-5.1,2.1-5.1,5.3s2.2,5.3,5.1,5.3S496.9,241.6,496.9,238.4z"/>
	<path d="M502.5,238.4c0-4.1,3-6.9,7-6.9s6.9,2.9,6.9,6.9s-2.9,7-6.9,7S502.5,242.5,502.5,238.4z M514.6,238.4
		c0-3.2-2.2-5.3-5.1-5.3s-5.1,2.1-5.1,5.3s2.2,5.3,5.1,5.3C512.4,243.8,514.6,241.6,514.6,238.4z"/>
	<path d="M538.5,231.6l-6.1,13.7h-1.9l-6.1-13.7h1.9l5.1,11.6l5.2-11.6L538.5,231.6L538.5,231.6z"/>
	<path d="M552.6,239h-11.4c0.2,2.9,2.4,4.8,5.4,4.8c1.7,0,3.2-0.6,4.2-1.8l1,1.2c-1.2,1.5-3.1,2.2-5.3,2.2c-4.3,0-7.2-2.9-7.2-7
		s2.8-6.9,6.7-6.9s6.6,2.8,6.6,6.9C552.6,238.6,552.6,238.8,552.6,239L552.6,239z M541.2,237.6h9.7c-0.2-2.7-2.2-4.6-4.9-4.6
		S541.4,234.9,541.2,237.6z"/>
	<path d="M579,237.3v7.9h-1.8v-7.8c0-2.9-1.5-4.4-3.9-4.4c-2.8,0-4.6,1.8-4.6,4.9v7.2h-1.8v-7.8c0-2.9-1.5-4.4-4-4.4
		c-2.8,0-4.6,1.8-4.6,4.9v7.2h-1.8v-13.7h1.8v2.5c1-1.6,2.7-2.6,5-2.6s4,1,4.9,2.9c1-1.8,2.9-2.9,5.4-2.9
		C576.8,231.5,579,233.4,579,237.3L579,237.3z"/>
	<path d="M603.3,226v19.3h-1.8v-2.7c-1.1,1.9-3,2.8-5.3,2.8c-3.9,0-6.8-2.8-6.8-7s2.9-6.9,6.8-6.9c2.2,0,4.1,0.9,5.2,2.7v-8.2
		L603.3,226L603.3,226z M601.5,238.4c0-3.2-2.2-5.3-5.1-5.3s-5.1,2.1-5.1,5.3s2.2,5.3,5.1,5.3S601.5,241.6,601.5,238.4z"/>
	<path d="M620.3,239h-11.4c0.2,2.9,2.4,4.8,5.4,4.8c1.7,0,3.2-0.6,4.2-1.8l1,1.2c-1.2,1.5-3.1,2.2-5.3,2.2c-4.3,0-7.2-2.9-7.2-7
		s2.8-6.9,6.7-6.9s6.6,2.8,6.6,6.9C620.4,238.6,620.3,238.8,620.3,239L620.3,239z M608.9,237.6h9.7c-0.2-2.7-2.2-4.6-4.9-4.6
		S609.2,234.9,608.9,237.6z"/>
	<path d="M622.2,243.7l0.8-1.5c1.1,0.9,2.9,1.5,4.9,1.5c2.6,0,3.7-0.9,3.7-2.2c0-3.6-8.9-0.8-8.9-6.2c0-2.2,1.9-3.9,5.4-3.9
		c1.8,0,3.7,0.5,4.8,1.3l-0.8,1.5c-1.2-0.8-2.6-1.2-4-1.2c-2.5,0-3.6,1-3.6,2.3c0,3.7,8.9,0.9,8.9,6.2c0,2.4-2.1,3.9-5.6,3.9
		C625.6,245.4,623.4,244.6,622.2,243.7L622.2,243.7z"/>
	<path d="M636.9,226h1.8v19.3h-1.8V226L636.9,226z"/>
	<path d="M642.5,238.4c0-4.1,3-6.9,7-6.9s6.9,2.9,6.9,6.9s-2.9,7-6.9,7S642.5,242.5,642.5,238.4z M654.5,238.4
		c0-3.2-2.2-5.3-5.1-5.3s-5.1,2.1-5.1,5.3s2.2,5.3,5.1,5.3S654.5,241.6,654.5,238.4z"/>
	<path d="M658.8,238.4c0-4.1,3-6.9,7-6.9c2.3,0,4.3,0.9,5.4,2.7l-1.4,0.9c-0.9-1.4-2.4-2-4-2c-3,0-5.2,2.1-5.2,5.3s2.2,5.3,5.2,5.3
		c1.6,0,3-0.6,4-2l1.4,0.9c-1.1,1.8-3,2.7-5.4,2.7C661.8,245.4,658.8,242.5,658.8,238.4z"/>
	<path d="M685.1,236.8v8.5h-1.8v-2.1c-0.8,1.4-2.4,2.3-4.7,2.3c-3.1,0-5-1.6-5-4c0-2.1,1.3-3.9,5.3-3.9h4.3v-0.8
		c0-2.3-1.3-3.6-3.9-3.6c-1.8,0-3.4,0.6-4.5,1.6l-0.8-1.4c1.4-1.2,3.4-1.9,5.6-1.9C683.1,231.5,685.1,233.2,685.1,236.8L685.1,236.8
		z M683.3,241.1v-2.2H679c-2.7,0-3.5,1-3.5,2.4c0,1.6,1.3,2.6,3.5,2.6S682.5,242.9,683.3,241.1L683.3,241.1z"/>
	<path d="M702.7,237.3v7.9h-1.8v-7.8c0-2.9-1.5-4.4-4.1-4.4c-2.9,0-4.8,1.8-4.8,4.9v7.2h-1.8v-13.7h1.8v2.5c1-1.7,2.8-2.6,5.2-2.6
		C700.4,231.5,702.7,233.4,702.7,237.3L702.7,237.3z"/>
	<path d="M720.3,226v19.3h-1.8v-2.7c-1.1,1.9-3,2.8-5.3,2.8c-3.9,0-6.8-2.8-6.8-7s2.9-6.9,6.8-6.9c2.2,0,4.1,0.9,5.2,2.7v-8.2
		L720.3,226L720.3,226z M718.5,238.4c0-3.2-2.2-5.3-5.1-5.3s-5.1,2.1-5.1,5.3s2.2,5.3,5.1,5.3S718.5,241.6,718.5,238.4z"/>
	<path d="M724,238.4c0-4.1,3-6.9,7-6.9s6.9,2.9,6.9,6.9s-2.9,7-6.9,7S724,242.5,724,238.4z M736.1,238.4c0-3.2-2.2-5.3-5.1-5.3
		s-5.1,2.1-5.1,5.3s2.2,5.3,5.1,5.3S736.1,241.6,736.1,238.4z"/>
	<path d="M747.2,238.4c0-4.1,3-6.9,7-6.9s6.9,2.9,6.9,6.9s-2.9,7-6.9,7S747.2,242.5,747.2,238.4z M759.2,238.4
		c0-3.2-2.2-5.3-5.1-5.3s-5.1,2.1-5.1,5.3s2.2,5.3,5.1,5.3S759.2,241.6,759.2,238.4z"/>
	<path d="M783.5,239h-11.4c0.2,2.9,2.4,4.8,5.4,4.8c1.7,0,3.2-0.6,4.2-1.8l1,1.2c-1.2,1.5-3.1,2.2-5.3,2.2c-4.3,0-7.2-2.9-7.2-7
		s2.8-6.9,6.7-6.9s6.6,2.8,6.6,6.9C783.6,238.6,783.5,238.8,783.5,239L783.5,239z M772.1,237.6h9.7c-0.2-2.7-2.2-4.6-4.9-4.6
		S772.4,234.9,772.1,237.6z"/>
	<path d="M801.2,238.4c0,4.2-2.9,7-6.8,7c-2.2,0-4.1-0.9-5.2-2.7v7.6h-1.8v-18.7h1.8v2.7c1.1-1.8,3-2.8,5.3-2.8
		C798.3,231.5,801.2,234.3,801.2,238.4L801.2,238.4z M799.4,238.4c0-3.2-2.2-5.3-5.1-5.3s-5.1,2.2-5.1,5.3s2.2,5.3,5.1,5.3
		S799.4,241.6,799.4,238.4z"/>
	<path d="M804.6,227.3c0-0.7,0.6-1.3,1.3-1.3s1.3,0.6,1.3,1.3c0,0.8-0.6,1.4-1.3,1.4S804.6,228,804.6,227.3L804.6,227.3z M805,231.6
		h1.8v13.7H805V231.6L805,231.6z"/>
	<path d="M810.6,238.4c0-4.1,3-6.9,7-6.9c2.3,0,4.3,0.9,5.4,2.7l-1.4,0.9c-0.9-1.4-2.4-2-4-2c-3,0-5.2,2.1-5.2,5.3s2.2,5.3,5.2,5.3
		c1.6,0,3-0.6,4-2l1.4,0.9c-1.1,1.8-3,2.7-5.4,2.7C813.6,245.4,810.6,242.5,810.6,238.4z"/>
	<path d="M838.3,239h-11.4c0.2,2.9,2.4,4.8,5.4,4.8c1.7,0,3.2-0.6,4.2-1.8l1,1.2c-1.2,1.5-3.1,2.2-5.3,2.2c-4.3,0-7.2-2.9-7.2-7
		s2.8-6.9,6.7-6.9s6.6,2.8,6.6,6.9C838.3,238.6,838.3,238.8,838.3,239L838.3,239z M826.8,237.6h9.7c-0.2-2.7-2.2-4.6-4.9-4.6
		S827.1,234.9,826.8,237.6z"/>
	<path d="M854.7,237.3v7.9h-1.8v-7.8c0-2.9-1.5-4.4-4.1-4.4c-2.9,0-4.8,1.8-4.8,4.9v7.2h-1.8v-13.7h1.8v2.5c1-1.7,2.8-2.6,5.2-2.6
		C852.4,231.5,854.7,233.4,854.7,237.3L854.7,237.3z"/>
	<path d="M866.9,244.4c-0.7,0.6-1.8,1-2.9,1c-2.6,0-4-1.5-4-4v-8.3h-2.4v-1.6h2.4v-3h1.8v3h4.2v1.6h-4.2v8.2c0,1.6,0.8,2.5,2.4,2.5
		c0.8,0,1.5-0.2,2-0.7L866.9,244.4L866.9,244.4z"/>
	<path d="M877.1,231.5v1.8c-0.2,0-0.3,0-0.4,0c-2.9,0-4.6,1.8-4.6,5v7h-1.8v-13.7h1.8v2.7C872.9,232.4,874.6,231.5,877.1,231.5
		L877.1,231.5z"/>
	<path d="M878.9,238.4c0-4.1,3-6.9,7-6.9s6.9,2.9,6.9,6.9s-2.9,7-6.9,7S878.9,242.5,878.9,238.4z M891,238.4c0-3.2-2.2-5.3-5.1-5.3
		s-5.1,2.1-5.1,5.3s2.2,5.3,5.1,5.3S891,241.6,891,238.4z"/>
	<path d="M915.9,226v19.3h-1.8v-2.7c-1.1,1.9-3,2.8-5.3,2.8c-3.9,0-6.8-2.8-6.8-7s2.9-6.9,6.8-6.9c2.2,0,4.1,0.9,5.2,2.7v-8.2
		L915.9,226L915.9,226z M914.1,238.4c0-3.2-2.2-5.3-5.1-5.3s-5.1,2.1-5.1,5.3s2.2,5.3,5.1,5.3S914.1,241.6,914.1,238.4z"/>
	<path d="M931.4,236.8v8.5h-1.8v-2.1c-0.8,1.4-2.4,2.3-4.7,2.3c-3.1,0-5-1.6-5-4c0-2.1,1.3-3.9,5.3-3.9h4.3v-0.8
		c0-2.3-1.3-3.6-3.9-3.6c-1.8,0-3.4,0.6-4.5,1.6l-0.8-1.4c1.4-1.2,3.4-1.9,5.6-1.9C929.4,231.5,931.4,233.2,931.4,236.8L931.4,236.8
		z M929.5,241.1v-2.2h-4.3c-2.7,0-3.5,1-3.5,2.4c0,1.6,1.3,2.6,3.5,2.6S928.8,242.9,929.5,241.1L929.5,241.1z"/>
	<path d="M934.5,243.7l0.8-1.5c1.1,0.9,2.9,1.5,4.9,1.5c2.6,0,3.7-0.9,3.7-2.2c0-3.6-8.9-0.8-8.9-6.2c0-2.2,1.9-3.9,5.4-3.9
		c1.8,0,3.7,0.5,4.8,1.3l-0.8,1.5c-1.2-0.8-2.6-1.2-4-1.2c-2.5,0-3.6,1-3.6,2.3c0,3.7,8.9,0.9,8.9,6.2c0,2.4-2.1,3.9-5.6,3.9
		C937.8,245.4,935.6,244.6,934.5,243.7L934.5,243.7z"/>
	<path d="M969.8,238.4c0,4.2-2.9,7-6.8,7c-2.2,0-4.1-0.9-5.2-2.7v7.6h-1.8v-18.7h1.8v2.7c1.1-1.8,3-2.8,5.3-2.8
		C966.9,231.5,969.8,234.3,969.8,238.4L969.8,238.4z M967.9,238.4c0-3.2-2.2-5.3-5.1-5.3s-5.1,2.2-5.1,5.3s2.2,5.3,5.1,5.3
		S967.9,241.6,967.9,238.4z"/>
	<path d="M980.5,231.5v1.8c-0.2,0-0.3,0-0.4,0c-2.9,0-4.6,1.8-4.6,5v7h-1.8v-13.7h1.8v2.7C976.2,232.4,977.9,231.5,980.5,231.5
		L980.5,231.5z"/>
	<path d="M994.1,236.8v8.5h-1.8v-2.1c-0.8,1.4-2.4,2.3-4.7,2.3c-3.1,0-5-1.6-5-4c0-2.1,1.3-3.9,5.3-3.9h4.3v-0.8
		c0-2.3-1.3-3.6-3.9-3.6c-1.8,0-3.4,0.6-4.5,1.6l-0.8-1.4c1.4-1.2,3.4-1.9,5.6-1.9C992.1,231.5,994.1,233.2,994.1,236.8L994.1,236.8
		z M992.2,241.1v-2.2h-4.3c-2.7,0-3.5,1-3.5,2.4c0,1.6,1.3,2.6,3.5,2.6S991.5,242.9,992.2,241.1L992.2,241.1z M988.7,229.5h-1.8
		l3.6-3.2h2.5L988.7,229.5L988.7,229.5z"/>
	<path d="M1006.3,244.4c-0.7,0.6-1.8,1-2.9,1c-2.6,0-4-1.5-4-4v-8.3H997v-1.6h2.4v-3h1.8v3h4.2v1.6h-4.2v8.2c0,1.6,0.8,2.5,2.4,2.5
		c0.8,0,1.5-0.2,2-0.7L1006.3,244.4L1006.3,244.4z"/>
	<path d="M1009.2,227.3c0-0.7,0.6-1.3,1.3-1.3s1.3,0.6,1.3,1.3c0,0.8-0.6,1.4-1.3,1.4S1009.2,228,1009.2,227.3L1009.2,227.3z
		 M1009.6,231.6h1.8v13.7h-1.8V231.6L1009.6,231.6z"/>
	<path d="M1015.3,238.4c0-4.1,3-6.9,7-6.9c2.3,0,4.3,0.9,5.4,2.7l-1.4,0.9c-0.9-1.4-2.4-2-4-2c-3,0-5.2,2.1-5.2,5.3s2.2,5.3,5.2,5.3
		c1.6,0,3-0.6,4-2l1.4,0.9c-1.1,1.8-3,2.7-5.4,2.7C1018.2,245.4,1015.3,242.5,1015.3,238.4L1015.3,238.4z"/>
	<path d="M1041.6,236.8v8.5h-1.8v-2.1c-0.8,1.4-2.4,2.3-4.7,2.3c-3.1,0-5-1.6-5-4c0-2.1,1.3-3.9,5.3-3.9h4.3v-0.8
		c0-2.3-1.3-3.6-3.9-3.6c-1.8,0-3.4,0.6-4.6,1.6l-0.8-1.4c1.4-1.2,3.4-1.9,5.6-1.9C1039.6,231.5,1041.6,233.2,1041.6,236.8
		L1041.6,236.8z M1039.8,241.1v-2.2h-4.3c-2.7,0-3.5,1-3.5,2.4c0,1.6,1.3,2.6,3.5,2.6S1039,242.9,1039.8,241.1L1039.8,241.1z"/>
	<path d="M1044.7,243.7l0.8-1.5c1.1,0.9,2.9,1.5,4.9,1.5c2.6,0,3.7-0.9,3.7-2.2c0-3.6-8.9-0.8-8.9-6.2c0-2.2,1.9-3.9,5.4-3.9
		c1.8,0,3.7,0.5,4.8,1.3l-0.8,1.5c-1.2-0.8-2.6-1.2-4-1.2c-2.5,0-3.6,1-3.6,2.3c0,3.7,8.9,0.9,8.9,6.2c0,2.4-2.1,3.9-5.6,3.9
		C1048,245.4,1045.8,244.6,1044.7,243.7L1044.7,243.7z"/>
	<path d="M136.9,277.3v7.9H135v-7.8c0-2.9-1.5-4.4-4.1-4.4c-2.9,0-4.8,1.8-4.8,4.9v7.2h-1.8v-13.7h1.8v2.5c1-1.7,2.8-2.6,5.2-2.6
		C134.6,271.5,136.9,273.4,136.9,277.3L136.9,277.3z"/>
	<path d="M140.6,278.4c0-4.1,3-6.9,7-6.9s6.9,2.9,6.9,6.9s-2.9,7-6.9,7S140.6,282.5,140.6,278.4z M152.6,278.4
		c0-3.2-2.2-5.3-5.1-5.3s-5.1,2.1-5.1,5.3s2.2,5.3,5.1,5.3S152.6,281.6,152.6,278.4z"/>
	<path d="M165.1,271.5v1.8c-0.2,0-0.3,0-0.4,0c-2.9,0-4.6,1.8-4.6,5v7h-1.9v-13.7h1.8v2.7C160.9,272.4,162.6,271.5,165.1,271.5
		L165.1,271.5z"/>
	<path d="M191,277.3v7.9h-1.9v-7.8c0-2.9-1.5-4.4-3.9-4.4c-2.8,0-4.6,1.8-4.6,4.9v7.2h-1.9v-7.8c0-2.9-1.5-4.4-3.9-4.4
		c-2.8,0-4.6,1.8-4.6,4.9v7.2h-1.9v-13.7h1.8v2.5c1-1.6,2.7-2.6,5-2.6s4,1,4.9,2.9c1-1.8,2.9-2.9,5.4-2.9
		C188.8,271.5,191,273.4,191,277.3L191,277.3z"/>
	<path d="M206.4,276.8v8.5h-1.8v-2.1c-0.8,1.4-2.4,2.3-4.7,2.3c-3.1,0-5-1.6-5-4c0-2.1,1.4-3.9,5.3-3.9h4.3v-0.8
		c0-2.3-1.3-3.6-3.9-3.6c-1.8,0-3.4,0.6-4.6,1.6l-0.8-1.4c1.4-1.2,3.4-1.9,5.6-1.9C204.4,271.5,206.4,273.2,206.4,276.8L206.4,276.8
		z M204.5,281.1v-2.2h-4.3c-2.6,0-3.5,1-3.5,2.4c0,1.6,1.3,2.6,3.5,2.6S203.8,282.9,204.5,281.1L204.5,281.1z"/>
	<path d="M218.6,284.4c-0.7,0.6-1.8,1-2.9,1c-2.6,0-4-1.5-4-4v-8.3h-2.4v-1.6h2.4v-3h1.9v3h4.2v1.6h-4.2v8.2c0,1.6,0.8,2.5,2.4,2.5
		c0.8,0,1.5-0.2,2-0.7L218.6,284.4L218.6,284.4z"/>
	<path d="M221.5,267.3c0-0.7,0.6-1.3,1.4-1.3s1.4,0.6,1.4,1.3c0,0.8-0.6,1.4-1.4,1.4S221.5,268,221.5,267.3L221.5,267.3z M222,271.6
		h1.9v13.7H222V271.6z"/>
	<path d="M240.4,271.6l-6.1,13.7h-1.9l-6.1-13.7h1.9l5.1,11.6l5.2-11.6H240.4L240.4,271.6z"/>
	<path d="M252.9,276.8v8.5h-1.8v-2.1c-0.8,1.4-2.4,2.3-4.7,2.3c-3.1,0-5-1.6-5-4c0-2.1,1.4-3.9,5.3-3.9h4.3v-0.8
		c0-2.3-1.3-3.6-3.9-3.6c-1.8,0-3.4,0.6-4.6,1.6l-0.8-1.4c1.4-1.2,3.4-1.9,5.6-1.9C250.9,271.5,252.9,273.2,252.9,276.8L252.9,276.8
		z M251.1,281.1v-2.2h-4.3c-2.6,0-3.5,1-3.5,2.4c0,1.6,1.3,2.6,3.5,2.6S250.4,282.9,251.1,281.1L251.1,281.1z"/>
	<path d="M256.1,283.7l0.8-1.5c1.1,0.9,2.9,1.5,4.9,1.5c2.6,0,3.7-0.9,3.7-2.2c0-3.6-8.9-0.8-8.9-6.2c0-2.2,1.9-3.9,5.4-3.9
		c1.8,0,3.7,0.5,4.8,1.3l-0.8,1.5c-1.2-0.8-2.6-1.2-4-1.2c-2.5,0-3.6,1-3.6,2.3c0,3.7,8.9,0.9,8.9,6.2c0,2.4-2.1,3.9-5.6,3.9
		C259.4,285.4,257.2,284.6,256.1,283.7L256.1,283.7z"/>
	<path d="M290,266v19.3h-1.8v-2.7c-1.1,1.9-3,2.8-5.3,2.8c-3.9,0-6.8-2.8-6.8-7s2.9-6.9,6.8-6.9c2.2,0,4.1,0.9,5.2,2.7v-8.2L290,266
		L290,266z M288.1,278.4c0-3.2-2.2-5.3-5.1-5.3s-5.1,2.1-5.1,5.3s2.2,5.3,5.1,5.3S288.1,281.6,288.1,278.4z"/>
	<path d="M305.4,276.8v8.5h-1.8v-2.1c-0.8,1.4-2.4,2.3-4.7,2.3c-3.1,0-5-1.6-5-4c0-2.1,1.4-3.9,5.3-3.9h4.3v-0.8
		c0-2.3-1.3-3.6-3.9-3.6c-1.8,0-3.4,0.6-4.5,1.6l-0.8-1.4c1.4-1.2,3.4-1.9,5.6-1.9C303.4,271.5,305.4,273.2,305.4,276.8L305.4,276.8
		z M303.6,281.1v-2.2h-4.3c-2.6,0-3.5,1-3.5,2.4c0,1.6,1.3,2.6,3.5,2.6S302.9,282.9,303.6,281.1L303.6,281.1z"/>
	<path d="M329.2,279h-11.4c0.2,2.9,2.4,4.8,5.4,4.8c1.7,0,3.1-0.6,4.2-1.8l1,1.2c-1.2,1.5-3.1,2.2-5.3,2.2c-4.3,0-7.2-2.9-7.2-7
		s2.8-6.9,6.7-6.9s6.6,2.8,6.6,6.9C329.2,278.6,329.2,278.8,329.2,279L329.2,279z M317.7,277.6h9.7c-0.2-2.7-2.2-4.5-4.9-4.5
		S318,274.9,317.7,277.6L317.7,277.6z"/>
	<path d="M331.1,283.7l0.8-1.5c1.1,0.9,2.9,1.5,4.9,1.5c2.6,0,3.7-0.9,3.7-2.2c0-3.6-8.9-0.8-8.9-6.2c0-2.2,1.9-3.9,5.4-3.9
		c1.8,0,3.7,0.5,4.8,1.3l-0.8,1.5c-1.2-0.8-2.6-1.2-4-1.2c-2.5,0-3.6,1-3.6,2.3c0,3.7,8.9,0.9,8.9,6.2c0,2.4-2.1,3.9-5.6,3.9
		C334.4,285.4,332.2,284.6,331.1,283.7L331.1,283.7z"/>
	<path d="M347.8,270v1.6h4.2v1.6h-4.2v12.1H346v-12.1h-2.4v-1.6h2.4v-1.7c0-2.4,1.5-4.1,4.1-4.1c1,0,2,0.3,2.7,0.9l-0.6,1.4
		c-0.5-0.4-1.2-0.7-2-0.7C348.6,267.4,347.8,268.3,347.8,270L347.8,270z"/>
	<path d="M366.2,279h-11.4c0.2,2.9,2.4,4.8,5.4,4.8c1.7,0,3.1-0.6,4.2-1.8l1,1.2c-1.2,1.5-3.1,2.2-5.3,2.2c-4.3,0-7.2-2.9-7.2-7
		s2.8-6.9,6.7-6.9s6.6,2.8,6.6,6.9C366.2,278.6,366.2,278.8,366.2,279L366.2,279z M354.7,277.6h9.7c-0.2-2.7-2.2-4.5-4.9-4.5
		S355,274.9,354.7,277.6L354.7,277.6z"/>
	<path d="M376.9,271.5v1.8c-0.2,0-0.3,0-0.4,0c-2.9,0-4.6,1.8-4.6,5v7H370v-13.7h1.8v2.7C372.6,272.4,374.3,271.5,376.9,271.5
		L376.9,271.5z"/>
	<path d="M390.5,276.8v8.5h-1.8v-2.1c-0.8,1.4-2.4,2.3-4.7,2.3c-3.1,0-5-1.6-5-4c0-2.1,1.4-3.9,5.3-3.9h4.3v-0.8
		c0-2.3-1.3-3.6-3.9-3.6c-1.8,0-3.4,0.6-4.5,1.6l-0.8-1.4c1.4-1.2,3.4-1.9,5.6-1.9C388.5,271.5,390.5,273.2,390.5,276.8L390.5,276.8
		z M388.6,281.1v-2.2h-4.3c-2.6,0-3.5,1-3.5,2.4c0,1.6,1.3,2.6,3.5,2.6S387.9,282.9,388.6,281.1L388.6,281.1z"/>
	<path d="M416.2,278.4c0,4.2-2.9,7-6.8,7c-2.2,0-4.1-0.9-5.2-2.7v7.6h-1.9v-18.7h1.8v2.7c1.1-1.8,3-2.8,5.3-2.8
		C413.3,271.5,416.2,274.3,416.2,278.4L416.2,278.4z M414.3,278.4c0-3.2-2.2-5.3-5.1-5.3s-5.1,2.2-5.1,5.3s2.2,5.3,5.1,5.3
		S414.3,281.6,414.3,278.4z"/>
	<path d="M418.6,278.4c0-4.1,3-6.9,7-6.9s6.9,2.9,6.9,6.9s-2.9,7-6.9,7S418.6,282.5,418.6,278.4z M430.6,278.4
		c0-3.2-2.2-5.3-5.1-5.3s-5.1,2.1-5.1,5.3s2.2,5.3,5.1,5.3S430.6,281.6,430.6,278.4z"/>
	<path d="M436.2,266h1.9v19.3h-1.9V266z"/>
	<path d="M446,266.2h2.5l-4.2,3.2h-1.8L446,266.2z M443.2,271.6h1.9v13.7h-1.9V271.6z"/>
	<path d="M457.4,284.4c-0.7,0.6-1.8,1-2.9,1c-2.6,0-4-1.5-4-4v-8.3h-2.4v-1.6h2.4v-3h1.9v3h4.2v1.6h-4.2v8.2c0,1.6,0.8,2.5,2.4,2.5
		c0.8,0,1.5-0.2,2-0.7L457.4,284.4L457.4,284.4z"/>
	<path d="M460.4,267.3c0-0.7,0.6-1.3,1.4-1.3s1.4,0.6,1.4,1.3c0,0.8-0.6,1.4-1.4,1.4S460.4,268,460.4,267.3L460.4,267.3z
		 M460.8,271.6h1.9v13.7h-1.9V271.6z"/>
	<path d="M466.4,278.4c0-4.1,3-6.9,7-6.9c2.3,0,4.3,0.9,5.4,2.7l-1.4,0.9c-0.9-1.4-2.4-2-4-2c-3,0-5.2,2.1-5.2,5.3s2.2,5.3,5.2,5.3
		c1.6,0,3-0.6,4-2l1.4,0.9c-1.1,1.8-3,2.7-5.4,2.7C469.4,285.4,466.4,282.5,466.4,278.4z"/>
	<path d="M492.7,276.8v8.5H491v-2.1c-0.8,1.4-2.4,2.3-4.7,2.3c-3.1,0-5-1.6-5-4c0-2.1,1.4-3.9,5.3-3.9h4.3v-0.8
		c0-2.3-1.3-3.6-3.9-3.6c-1.8,0-3.4,0.6-4.5,1.6l-0.8-1.4c1.4-1.2,3.4-1.9,5.6-1.9C490.7,271.5,492.7,273.2,492.7,276.8L492.7,276.8
		z M490.9,281.1v-2.2h-4.3c-2.6,0-3.5,1-3.5,2.4c0,1.6,1.3,2.6,3.5,2.6S490.2,282.9,490.9,281.1L490.9,281.1z"/>
	<path d="M511.8,284.4c-0.7,0.6-1.8,1-2.9,1c-2.6,0-4-1.5-4-4v-8.3h-2.4v-1.6h2.4v-3h1.9v3h4.2v1.6h-4.2v8.2c0,1.6,0.8,2.5,2.4,2.5
		c0.8,0,1.5-0.2,2-0.7L511.8,284.4L511.8,284.4z"/>
	<path d="M522,271.5v1.8c-0.2,0-0.3,0-0.4,0c-2.9,0-4.6,1.8-4.6,5v7h-1.8v-13.7h1.8v2.7C517.8,272.4,519.5,271.5,522,271.5
		L522,271.5z"/>
	<path d="M535.6,276.8v8.5h-1.8v-2.1c-0.8,1.4-2.4,2.3-4.7,2.3c-3.1,0-5-1.6-5-4c0-2.1,1.3-3.9,5.3-3.9h4.3v-0.8
		c0-2.3-1.3-3.6-3.9-3.6c-1.8,0-3.4,0.6-4.5,1.6l-0.8-1.4c1.4-1.2,3.4-1.9,5.6-1.9C533.6,271.5,535.6,273.2,535.6,276.8z
		 M533.8,281.1v-2.2h-4.3c-2.7,0-3.5,1-3.5,2.4c0,1.6,1.3,2.6,3.5,2.6S533.1,282.9,533.8,281.1L533.8,281.1z"/>
	<path d="M553.2,266v19.3h-1.8v-2.7c-1.1,1.9-3,2.8-5.3,2.8c-3.9,0-6.8-2.8-6.8-7s2.9-6.9,6.8-6.9c2.2,0,4.1,0.9,5.2,2.7v-8.2
		L553.2,266L553.2,266z M551.4,278.4c0-3.2-2.2-5.3-5.1-5.3s-5.1,2.1-5.1,5.3s2.2,5.3,5.1,5.3S551.4,281.6,551.4,278.4z"/>
	<path d="M557.9,267.3c0-0.7,0.6-1.3,1.3-1.3s1.3,0.6,1.3,1.3c0,0.8-0.6,1.4-1.3,1.4S557.9,268,557.9,267.3L557.9,267.3z
		 M558.3,271.6h1.8v13.7h-1.8V271.6z"/>
	<path d="M564,278.4c0-4.1,3-6.9,7-6.9c2.3,0,4.3,0.9,5.4,2.7l-1.4,0.9c-0.9-1.4-2.4-2-4-2c-3,0-5.2,2.1-5.2,5.3s2.2,5.3,5.2,5.3
		c1.6,0,3-0.6,4-2l1.4,0.9c-1.1,1.8-3,2.7-5.4,2.7C566.9,285.4,564,282.5,564,278.4z"/>
	<path d="M579.6,267.3c0-0.7,0.6-1.3,1.3-1.3s1.3,0.6,1.3,1.3c0,0.8-0.6,1.4-1.3,1.4S579.6,268,579.6,267.3L579.6,267.3z M580,271.6
		h1.8v13.7H580V271.6z"/>
	<path d="M585.6,278.4c0-4.1,3-6.9,7-6.9s6.9,2.9,6.9,6.9s-2.9,7-6.9,7S585.6,282.5,585.6,278.4z M597.6,278.4
		c0-3.2-2.2-5.3-5.1-5.3s-5.1,2.1-5.1,5.3s2.2,5.3,5.1,5.3S597.6,281.6,597.6,278.4z"/>
	<path d="M615.8,277.3v7.9H614v-7.8c0-2.9-1.5-4.4-4.1-4.4c-2.9,0-4.8,1.8-4.8,4.9v7.2h-1.8v-13.7h1.8v2.5c1-1.7,2.8-2.6,5.2-2.6
		C613.6,271.5,615.9,273.4,615.8,277.3L615.8,277.3z"/>
	<path d="M631.2,276.8v8.5h-1.8v-2.1c-0.8,1.4-2.4,2.3-4.7,2.3c-3.1,0-5-1.6-5-4c0-2.1,1.3-3.9,5.3-3.9h4.3v-0.8
		c0-2.3-1.3-3.6-3.9-3.6c-1.8,0-3.4,0.6-4.5,1.6l-0.8-1.4c1.4-1.2,3.4-1.9,5.6-1.9C629.2,271.5,631.2,273.2,631.2,276.8z
		 M629.3,281.1v-2.2h-4.3c-2.7,0-3.5,1-3.5,2.4c0,1.6,1.3,2.6,3.5,2.6S628.6,282.9,629.3,281.1L629.3,281.1z"/>
	<path d="M636.2,266h1.8v19.3h-1.8V266z"/>
	<path d="M650.2,278.1c0-4.8,1.1-9.1,3-12.2h1.8c-2,3.6-3,7.5-3,12.2s0.9,8.6,3,12.2h-1.8C651.3,287.2,650.2,282.9,650.2,278.1z"/>
	<path d="M670.5,279H659c0.2,2.9,2.4,4.8,5.4,4.8c1.7,0,3.2-0.6,4.2-1.8l1,1.2c-1.2,1.5-3.1,2.2-5.3,2.2c-4.3,0-7.2-2.9-7.2-7
		s2.8-6.9,6.7-6.9s6.6,2.8,6.6,6.9C670.5,278.6,670.5,278.8,670.5,279L670.5,279z M659,277.6h9.7c-0.2-2.7-2.2-4.5-4.9-4.5
		S659.3,274.9,659,277.6z"/>
	<path d="M682.6,285.3l-4.3-5.7l-4.4,5.7h-2.1l5.4-7l-5.2-6.7h2.1l4.1,5.4l4.1-5.4h2l-5.2,6.7l5.5,7H682.6L682.6,285.3z"/>
	<path d="M699.2,279h-11.4c0.2,2.9,2.4,4.8,5.4,4.8c1.7,0,3.2-0.6,4.2-1.8l1,1.2c-1.2,1.5-3.1,2.2-5.3,2.2c-4.3,0-7.2-2.9-7.2-7
		s2.8-6.9,6.7-6.9s6.6,2.8,6.6,6.9C699.2,278.6,699.2,278.8,699.2,279L699.2,279z M687.7,277.6h9.7c-0.2-2.7-2.2-4.5-4.9-4.5
		S688,274.9,687.7,277.6z"/>
	<path d="M701.6,278.4c0-4.1,3-6.9,7-6.9c2.3,0,4.3,0.9,5.4,2.7l-1.4,0.9c-0.9-1.4-2.4-2-4-2c-3,0-5.2,2.1-5.2,5.3s2.2,5.3,5.2,5.3
		c1.6,0,3-0.6,4-2l1.4,0.9c-1.1,1.8-3,2.7-5.4,2.7C704.6,285.4,701.6,282.5,701.6,278.4z"/>
	<path d="M729.9,271.6v13.7h-1.8v-2.5c-1,1.7-2.7,2.6-4.9,2.6c-3.5,0-5.8-2-5.8-5.9v-7.9h1.8v7.8c0,2.9,1.5,4.4,4.1,4.4
		c2.9,0,4.7-1.9,4.7-5v-7.2L729.9,271.6L729.9,271.6z"/>
	<path d="M742.3,284.4c-0.7,0.6-1.8,1-2.9,1c-2.6,0-4-1.5-4-4v-8.3H733v-1.6h2.4v-3h1.8v3h4.2v1.6h-4.2v8.2c0,1.6,0.8,2.5,2.4,2.5
		c0.8,0,1.5-0.2,2-0.7L742.3,284.4L742.3,284.4z"/>
	<path d="M745.2,267.3c0-0.7,0.6-1.3,1.3-1.3s1.3,0.6,1.3,1.3c0,0.8-0.6,1.4-1.3,1.4S745.2,268,745.2,267.3L745.2,267.3z
		 M745.7,271.6h1.8v13.7h-1.8V271.6z"/>
	<path d="M764.2,271.6l-6.1,13.7h-1.9l-6.1-13.7h1.9l5.1,11.6l5.2-11.6H764.2L764.2,271.6z"/>
	<path d="M776.7,276.8v8.5h-1.8v-2.1c-0.8,1.4-2.4,2.3-4.7,2.3c-3.1,0-5-1.6-5-4c0-2.1,1.3-3.9,5.3-3.9h4.3v-0.8
		c0-2.3-1.3-3.6-3.9-3.6c-1.8,0-3.4,0.6-4.5,1.6l-0.8-1.4c1.4-1.2,3.4-1.9,5.6-1.9C774.6,271.5,776.6,273.2,776.7,276.8L776.7,276.8
		z M774.8,281.1v-2.2h-4.3c-2.7,0-3.5,1-3.5,2.4c0,1.6,1.3,2.6,3.5,2.6S774.1,282.9,774.8,281.1L774.8,281.1z"/>
	<path d="M800.4,279H789c0.2,2.9,2.4,4.8,5.4,4.8c1.7,0,3.2-0.6,4.2-1.8l1,1.2c-1.2,1.5-3.1,2.2-5.3,2.2c-4.3,0-7.2-2.9-7.2-7
		s2.8-6.9,6.7-6.9s6.6,2.8,6.6,6.9C800.4,278.6,800.4,278.8,800.4,279L800.4,279z M789,277.6h9.7c-0.2-2.7-2.2-4.5-4.9-4.5
		S789.2,274.9,789,277.6z"/>
	<path d="M809.5,263.4h1.7l-8.6,24.5H801L809.5,263.4z"/>
	<path d="M809.8,278.4c0-4.1,3-6.9,7-6.9s6.9,2.9,6.9,6.9s-2.9,7-6.9,7S809.8,282.5,809.8,278.4z M821.8,278.4
		c0-3.2-2.2-5.3-5.1-5.3s-5.1,2.1-5.1,5.3s2.2,5.3,5.1,5.3S821.8,281.6,821.8,278.4z"/>
	<path d="M839.8,271.6v13.7H838v-2.5c-1,1.7-2.7,2.6-4.9,2.6c-3.5,0-5.8-2-5.8-5.9v-7.9h1.8v7.8c0,2.9,1.5,4.4,4.1,4.4
		c2.9,0,4.7-1.9,4.7-5v-7.2L839.8,271.6L839.8,271.6z"/>
	<path d="M851.8,266h1.8v19.3h-1.8V266z"/>
	<path d="M870.7,279h-11.4c0.2,2.9,2.4,4.8,5.4,4.8c1.7,0,3.2-0.6,4.2-1.8l1,1.2c-1.2,1.5-3.1,2.2-5.3,2.2c-4.3,0-7.2-2.9-7.2-7
		s2.8-6.9,6.7-6.9s6.6,2.8,6.6,6.9C870.7,278.6,870.6,278.8,870.7,279L870.7,279z M859.2,277.6h9.7c-0.2-2.7-2.2-4.5-4.9-4.5
		S859.5,274.9,859.2,277.6z"/>
	<path d="M887.1,271.6v12c0,4.7-2.3,6.8-6.8,6.8c-2.5,0-4.9-0.8-6.4-2.1l0.9-1.4c1.3,1.2,3.3,1.9,5.4,1.9c3.5,0,5-1.6,5-5v-1.7
		c-1.1,1.7-3.1,2.6-5.3,2.6c-3.9,0-6.9-2.7-6.9-6.7s3-6.6,6.9-6.6c2.3,0,4.3,0.9,5.4,2.7v-2.6L887.1,271.6L887.1,271.6z
		 M885.3,278.1c0-3-2.2-5-5.2-5s-5.2,2-5.2,5s2.2,5,5.2,5S885.3,281,885.3,278.1z"/>
	<path d="M891.9,267.3c0-0.7,0.6-1.3,1.3-1.3s1.3,0.6,1.3,1.3c0,0.8-0.6,1.4-1.3,1.4S891.9,268,891.9,267.3L891.9,267.3z
		 M892.3,271.6h1.8v13.7h-1.8V271.6z"/>
	<path d="M897.4,283.7l0.8-1.5c1.1,0.9,2.9,1.5,4.9,1.5c2.6,0,3.7-0.9,3.7-2.2c0-3.6-8.9-0.8-8.9-6.2c0-2.2,1.9-3.9,5.4-3.9
		c1.8,0,3.7,0.5,4.8,1.3l-0.8,1.5c-1.2-0.8-2.6-1.2-4-1.2c-2.5,0-3.6,1-3.6,2.3c0,3.7,8.9,0.9,8.9,6.2c0,2.4-2.1,3.9-5.6,3.9
		C900.7,285.4,898.5,284.6,897.4,283.7L897.4,283.7z"/>
	<path d="M912,266h1.8v19.3H912V266z"/>
	<path d="M929.3,276.8v8.5h-1.8v-2.1c-0.8,1.4-2.4,2.3-4.7,2.3c-3.1,0-5-1.6-5-4c0-2.1,1.3-3.9,5.3-3.9h4.3v-0.8
		c0-2.3-1.3-3.6-3.9-3.6c-1.8,0-3.4,0.6-4.5,1.6l-0.8-1.4c1.4-1.2,3.4-1.9,5.6-1.9C927.3,271.5,929.3,273.2,929.3,276.8z
		 M927.5,281.1v-2.2h-4.3c-2.7,0-3.5,1-3.5,2.4c0,1.6,1.3,2.6,3.5,2.6S926.7,282.9,927.5,281.1L927.5,281.1z"/>
	<path d="M941.5,284.4c-0.7,0.6-1.8,1-2.9,1c-2.6,0-4-1.5-4-4v-8.3h-2.4v-1.6h2.4v-3h1.8v3h4.2v1.6h-4.2v8.2c0,1.6,0.8,2.5,2.4,2.5
		c0.8,0,1.5-0.2,2-0.7L941.5,284.4L941.5,284.4z"/>
	<path d="M944.5,267.3c0-0.7,0.6-1.3,1.3-1.3s1.3,0.6,1.3,1.3c0,0.8-0.6,1.4-1.3,1.4S944.5,268,944.5,267.3L944.5,267.3z
		 M944.9,271.6h1.8v13.7h-1.8V271.6z"/>
	<path d="M963.4,271.6l-6.1,13.7h-1.9l-6.1-13.7h1.9l5.1,11.6l5.2-11.6H963.4L963.4,271.6z"/>
	<path d="M975.9,276.8v8.5h-1.8v-2.1c-0.8,1.4-2.4,2.3-4.7,2.3c-3.1,0-5-1.6-5-4c0-2.1,1.3-3.9,5.3-3.9h4.3v-0.8
		c0-2.3-1.3-3.6-3.9-3.6c-1.8,0-3.4,0.6-4.5,1.6l-0.8-1.4c1.4-1.2,3.4-1.9,5.6-1.9C973.9,271.5,975.9,273.2,975.9,276.8L975.9,276.8
		z M974,281.1v-2.2h-4.3c-2.7,0-3.5,1-3.5,2.4c0,1.6,1.3,2.6,3.5,2.6S973.3,282.9,974,281.1L974,281.1z"/>
	<path d="M979.4,290.3c2.1-3.6,3-7.5,3-12.2s-0.9-8.6-3-12.2h1.8c2,3.1,3,7.4,3,12.2s-1.1,9-3,12.2H979.4z"/>
	<path d="M1010.1,278.4c0,4.2-2.9,7-6.8,7c-2.2,0-4.1-0.9-5.2-2.7v7.6h-1.8v-18.7h1.8v2.7c1.1-1.8,3-2.8,5.3-2.8
		C1007.2,271.5,1010.1,274.3,1010.1,278.4L1010.1,278.4z M1008.3,278.4c0-3.2-2.2-5.3-5.1-5.3s-5.1,2.2-5.1,5.3s2.2,5.3,5.1,5.3
		S1008.3,281.6,1008.3,278.4z"/>
	<path d="M1024.1,276.8v8.5h-1.8v-2.1c-0.8,1.4-2.4,2.3-4.7,2.3c-3.1,0-5-1.6-5-4c0-2.1,1.3-3.9,5.3-3.9h4.3v-0.8
		c0-2.3-1.3-3.6-3.9-3.6c-1.8,0-3.4,0.6-4.5,1.6l-0.8-1.4c1.4-1.2,3.4-1.9,5.6-1.9C1022.1,271.5,1024.1,273.2,1024.1,276.8z
		 M1022.3,281.1v-2.2h-4.3c-2.7,0-3.5,1-3.5,2.4c0,1.6,1.3,2.6,3.5,2.6S1021.6,282.9,1022.3,281.1L1022.3,281.1z"/>
	<path d="M1036,271.5v1.8c-0.2,0-0.3,0-0.4,0c-2.9,0-4.6,1.8-4.6,5v7h-1.8v-13.7h1.8v2.7C1031.8,272.4,1033.5,271.5,1036,271.5
		L1036,271.5z"/>
	<path d="M1049.7,276.8v8.5h-1.8v-2.1c-0.8,1.4-2.4,2.3-4.7,2.3c-3.1,0-5-1.6-5-4c0-2.1,1.3-3.9,5.3-3.9h4.3v-0.8
		c0-2.3-1.3-3.6-3.9-3.6c-1.8,0-3.4,0.6-4.6,1.6l-0.8-1.4c1.4-1.2,3.4-1.9,5.6-1.9C1047.7,271.5,1049.7,273.2,1049.7,276.8
		L1049.7,276.8z M1047.8,281.1v-2.2h-4.3c-2.7,0-3.5,1-3.5,2.4c0,1.6,1.3,2.6,3.5,2.6S1047.1,282.9,1047.8,281.1L1047.8,281.1z"/>
	<path d="M134.6,316.8v8.5h-1.8v-2.1c-0.8,1.4-2.4,2.3-4.7,2.3c-3.1,0-5-1.6-5-4c0-2.1,1.3-3.9,5.3-3.9h4.3v-0.8
		c0-2.3-1.3-3.6-3.9-3.6c-1.8,0-3.4,0.6-4.6,1.6l-0.8-1.4c1.4-1.2,3.4-1.9,5.6-1.9C132.6,311.5,134.6,313.2,134.6,316.8L134.6,316.8
		z M132.8,321.1v-2.2h-4.3c-2.7,0-3.5,1-3.5,2.4c0,1.6,1.3,2.6,3.5,2.6S132,322.9,132.8,321.1L132.8,321.1z"/>
	<path d="M141.5,329.5l0.6-1.4c0.6,0.5,1.3,0.7,2.1,0.7c1.5,0,2.3-0.9,2.3-2.6v-14.7h1.9v14.7c0,2.5-1.4,4.2-4,4.2
		C143.3,330.4,142.2,330.1,141.5,329.5L141.5,329.5z M146.2,307.3c0-0.7,0.6-1.3,1.4-1.3s1.4,0.6,1.4,1.3c0,0.8-0.6,1.4-1.4,1.4
		S146.2,308,146.2,307.3L146.2,307.3z"/>
	<path d="M165.9,311.6v13.7h-1.8v-2.5c-1,1.7-2.7,2.6-4.9,2.6c-3.5,0-5.8-2-5.8-5.9v-7.9h1.9v7.8c0,2.9,1.5,4.4,4.1,4.4
		c2.9,0,4.6-1.9,4.6-5v-7.2L165.9,311.6L165.9,311.6z"/>
	<path d="M183.6,306v19.3h-1.8v-2.7c-1.1,1.9-3,2.8-5.3,2.8c-3.9,0-6.8-2.8-6.8-7s2.9-6.9,6.8-6.9c2.2,0,4.1,0.9,5.2,2.7v-8.2
		L183.6,306L183.6,306z M181.7,318.4c0-3.2-2.2-5.3-5.1-5.3s-5.1,2.1-5.1,5.3s2.2,5.3,5.1,5.3S181.7,321.6,181.7,318.4z"/>
	<path d="M188.3,307.3c0-0.7,0.6-1.3,1.4-1.3s1.4,0.6,1.4,1.3c0,0.8-0.6,1.4-1.4,1.4S188.3,308,188.3,307.3L188.3,307.3z
		 M188.7,311.6h1.9v13.7h-1.9V311.6z"/>
	<path d="M194.3,318.4c0-4.1,3-6.9,7.1-6.9c2.3,0,4.3,0.9,5.4,2.7l-1.4,0.9c-0.9-1.4-2.4-2-4-2c-3,0-5.2,2.1-5.2,5.3
		s2.2,5.3,5.2,5.3c1.6,0,3-0.6,4-2l1.4,0.9c-1.1,1.8-3,2.7-5.4,2.7C197.3,325.4,194.3,322.5,194.3,318.4z"/>
	<path d="M209.9,307.3c0-0.7,0.6-1.3,1.4-1.3s1.4,0.6,1.4,1.3c0,0.8-0.6,1.4-1.4,1.4S209.9,308,209.9,307.3L209.9,307.3z
		 M210.3,311.6h1.9v13.7h-1.9V311.6z"/>
	<path d="M227.6,316.8v8.5h-1.8v-2.1c-0.8,1.4-2.4,2.3-4.7,2.3c-3.1,0-5-1.6-5-4c0-2.1,1.4-3.9,5.3-3.9h4.3v-0.8
		c0-2.3-1.3-3.6-3.9-3.6c-1.8,0-3.4,0.6-4.6,1.6l-0.8-1.4c1.4-1.2,3.4-1.9,5.6-1.9C225.6,311.5,227.6,313.2,227.6,316.8L227.6,316.8
		z M225.8,321.1v-2.2h-4.3c-2.6,0-3.5,1-3.5,2.4c0,1.6,1.3,2.6,3.5,2.6S225.1,322.9,225.8,321.1L225.8,321.1z"/>
	<path d="M232.7,306h1.9v19.3h-1.9V306z"/>
	<path d="M241.2,324c0,0.4-0.1,0.8-0.4,1.5l-1.1,3.6h-1.2l0.9-3.8c-0.6-0.2-0.9-0.6-0.9-1.3c0-0.8,0.6-1.4,1.4-1.4
		S241.3,323.2,241.2,324L241.2,324z"/>
	<path d="M265.9,318.4c0,4.2-2.9,7-6.8,7c-2.2,0-4.1-0.9-5.2-2.7v7.6H252v-18.7h1.8v2.7c1.1-1.8,3-2.8,5.3-2.8
		C262.9,311.5,265.9,314.3,265.9,318.4z M264,318.4c0-3.2-2.2-5.3-5.1-5.3s-5.1,2.2-5.1,5.3s2.2,5.3,5.1,5.3S264,321.6,264,318.4z"
		/>
	<path d="M279.9,316.8v8.5h-1.8v-2.1c-0.8,1.4-2.4,2.3-4.7,2.3c-3.1,0-5-1.6-5-4c0-2.1,1.4-3.9,5.3-3.9h4.3v-0.8
		c0-2.3-1.3-3.6-3.9-3.6c-1.8,0-3.4,0.6-4.5,1.6l-0.8-1.4c1.4-1.2,3.4-1.9,5.6-1.9C277.9,311.5,279.9,313.2,279.9,316.8L279.9,316.8
		z M278,321.1v-2.2h-4.3c-2.6,0-3.5,1-3.5,2.4c0,1.6,1.3,2.6,3.5,2.6S277.3,322.9,278,321.1L278,321.1z"/>
	<path d="M283,323.7l0.8-1.5c1.1,0.9,2.9,1.5,4.9,1.5c2.6,0,3.7-0.9,3.7-2.2c0-3.6-8.9-0.8-8.9-6.2c0-2.2,1.9-3.9,5.4-3.9
		c1.8,0,3.7,0.5,4.8,1.3l-0.8,1.5c-1.2-0.8-2.6-1.2-4-1.2c-2.5,0-3.6,1-3.6,2.3c0,3.7,8.9,0.9,8.9,6.2c0,2.4-2.1,3.9-5.6,3.9
		C286.3,325.4,284.1,324.6,283,323.7L283,323.7z"/>
	<path d="M295.7,323.7l0.8-1.5c1.1,0.9,2.9,1.5,4.9,1.5c2.6,0,3.7-0.9,3.7-2.2c0-3.6-8.9-0.8-8.9-6.2c0-2.2,1.9-3.9,5.4-3.9
		c1.8,0,3.7,0.5,4.8,1.3l-0.8,1.5c-1.2-0.8-2.6-1.2-4-1.2c-2.5,0-3.6,1-3.6,2.3c0,3.7,8.9,0.9,8.9,6.2c0,2.4-2.1,3.9-5.6,3.9
		C299,325.4,296.8,324.6,295.7,323.7L295.7,323.7z"/>
	<path d="M320.6,316.8v8.5h-1.8v-2.1c-0.8,1.4-2.4,2.3-4.7,2.3c-3.1,0-5-1.6-5-4c0-2.1,1.4-3.9,5.3-3.9h4.3v-0.8
		c0-2.3-1.3-3.6-3.9-3.6c-1.8,0-3.4,0.6-4.5,1.6l-0.8-1.4c1.4-1.2,3.4-1.9,5.6-1.9C318.6,311.5,320.6,313.2,320.6,316.8L320.6,316.8
		z M318.8,321.1v-2.2h-4.3c-2.6,0-3.5,1-3.5,2.4c0,1.6,1.3,2.6,3.5,2.6S318,322.9,318.8,321.1L318.8,321.1z"/>
	<path d="M338.2,317.3v7.9h-1.9v-7.8c0-2.9-1.5-4.4-4.1-4.4c-2.9,0-4.8,1.8-4.8,4.9v7.2h-1.9v-13.7h1.8v2.5c1-1.7,2.8-2.6,5.2-2.6
		C335.9,311.5,338.2,313.4,338.2,317.3L338.2,317.3z"/>
	<path d="M355.8,306v19.3H354v-2.7c-1.1,1.9-3,2.8-5.3,2.8c-3.9,0-6.8-2.8-6.8-7s2.9-6.9,6.8-6.9c2.2,0,4.1,0.9,5.2,2.7v-8.2
		L355.8,306L355.8,306z M354,318.4c0-3.2-2.2-5.3-5.1-5.3s-5.1,2.1-5.1,5.3s2.2,5.3,5.1,5.3S354,321.6,354,318.4z"/>
	<path d="M359.5,318.4c0-4.1,3-6.9,7-6.9s6.9,2.9,6.9,6.9s-2.9,7-6.9,7S359.5,322.5,359.5,318.4z M371.6,318.4
		c0-3.2-2.2-5.3-5.1-5.3s-5.1,2.1-5.1,5.3s2.2,5.3,5.1,5.3S371.6,321.6,371.6,318.4z"/>
	<path d="M394.4,316.8v8.5h-1.8v-2.1c-0.8,1.4-2.4,2.3-4.7,2.3c-3.1,0-5-1.6-5-4c0-2.1,1.4-3.9,5.3-3.9h4.3v-0.8
		c0-2.3-1.3-3.6-3.9-3.6c-1.8,0-3.4,0.6-4.5,1.6l-0.8-1.4c1.4-1.2,3.4-1.9,5.6-1.9C392.4,311.5,394.4,313.2,394.4,316.8L394.4,316.8
		z M392.5,321.1v-2.2h-4.3c-2.6,0-3.5,1-3.5,2.4c0,1.6,1.3,2.6,3.5,2.6S391.8,322.9,392.5,321.1L392.5,321.1z"/>
	<path d="M420,318.4c0,4.2-2.9,7-6.8,7c-2.2,0-4.1-0.9-5.2-2.7v7.6h-1.9v-18.7h1.8v2.7c1.1-1.8,3-2.8,5.3-2.8
		C417.1,311.5,420,314.3,420,318.4L420,318.4z M418.2,318.4c0-3.2-2.2-5.3-5.1-5.3s-5.1,2.2-5.1,5.3s2.2,5.3,5.1,5.3
		S418.2,321.6,418.2,318.4z"/>
	<path d="M430.7,311.5v1.8c-0.2,0-0.3,0-0.4,0c-2.9,0-4.6,1.8-4.6,5v7h-1.9v-13.7h1.8v2.7C426.4,312.4,428.2,311.5,430.7,311.5
		L430.7,311.5z"/>
	<path d="M433.6,307.3c0-0.7,0.6-1.3,1.4-1.3s1.4,0.6,1.4,1.3c0,0.8-0.6,1.4-1.4,1.4S433.6,308,433.6,307.3L433.6,307.3z M434,311.6
		h1.9v13.7H434V311.6z"/>
	<path d="M452.5,311.6l-6.1,13.7h-1.9l-6.1-13.7h1.9l5.1,11.6l5.2-11.6H452.5L452.5,311.6z"/>
	<path d="M454.7,307.3c0-0.7,0.6-1.3,1.4-1.3s1.4,0.6,1.4,1.3c0,0.8-0.6,1.4-1.4,1.4S454.7,308,454.7,307.3L454.7,307.3z
		 M455.1,311.6h1.9v13.7h-1.9V311.6z"/>
	<path d="M462.1,306h1.9v19.3h-1.9V306z"/>
	<path d="M481,319h-11.4c0.2,2.9,2.4,4.8,5.4,4.8c1.7,0,3.1-0.6,4.2-1.8l1,1.2c-1.2,1.5-3.1,2.2-5.3,2.2c-4.3,0-7.2-2.9-7.2-7
		s2.8-6.9,6.7-6.9s6.6,2.8,6.6,6.9C481,318.6,481,318.8,481,319L481,319z M469.6,317.6h9.7c-0.2-2.7-2.2-4.5-4.9-4.5
		S469.8,314.9,469.6,317.6L469.6,317.6z"/>
	<path d="M497.5,311.6v12c0,4.7-2.3,6.8-6.8,6.8c-2.5,0-4.9-0.8-6.4-2.1l0.9-1.4c1.3,1.2,3.3,1.9,5.4,1.9c3.5,0,5-1.6,5-5v-1.7
		c-1.1,1.7-3.1,2.6-5.3,2.6c-3.9,0-6.9-2.7-6.9-6.7s3-6.6,6.9-6.6c2.3,0,4.3,0.9,5.4,2.7v-2.6L497.5,311.6L497.5,311.6z
		 M495.7,318.1c0-3-2.2-5-5.2-5s-5.2,2-5.2,5s2.2,5,5.2,5S495.7,321,495.7,318.1z"/>
	<path d="M502.2,307.3c0-0.7,0.6-1.3,1.4-1.3s1.4,0.6,1.4,1.3c0,0.8-0.6,1.4-1.4,1.4S502.2,308,502.2,307.3L502.2,307.3z
		 M502.7,311.6h1.9v13.7h-1.9V311.6z"/>
	<path d="M520,316.8v8.5h-1.8v-2.1c-0.8,1.4-2.4,2.3-4.7,2.3c-3.1,0-5-1.6-5-4c0-2.1,1.4-3.9,5.3-3.9h4.3v-0.8
		c0-2.3-1.3-3.6-3.9-3.6c-1.8,0-3.4,0.6-4.5,1.6l-0.8-1.4c1.4-1.2,3.4-1.9,5.6-1.9C518,311.5,520,313.2,520,316.8L520,316.8z
		 M518.1,321.1v-2.2h-4.3c-2.6,0-3.5,1-3.5,2.4c0,1.6,1.3,2.6,3.5,2.6C516,323.9,517.4,322.9,518.1,321.1L518.1,321.1z"/>
	<path d="M531.9,311.5v1.8c-0.2,0-0.3,0-0.4,0c-2.9,0-4.6,1.8-4.6,5v7H525v-13.7h1.8v2.7C527.6,312.4,529.4,311.5,531.9,311.5
		L531.9,311.5z"/>
	<path d="M552.5,316.8v8.5h-1.8v-2.1c-0.8,1.4-2.4,2.3-4.7,2.3c-3.1,0-5-1.6-5-4c0-2.1,1.3-3.9,5.3-3.9h4.3v-0.8
		c0-2.3-1.3-3.6-3.9-3.6c-1.8,0-3.4,0.6-4.5,1.6l-0.8-1.4c1.4-1.2,3.4-1.9,5.6-1.9C550.5,311.5,552.5,313.2,552.5,316.8z
		 M550.7,321.1v-2.2h-4.3c-2.7,0-3.5,1-3.5,2.4c0,1.6,1.3,2.6,3.5,2.6S550,322.9,550.7,321.1L550.7,321.1z"/>
	<path d="M578.2,318.4c0,4.1-2.9,7-6.8,7c-2.3,0-4.2-1-5.3-2.8v2.7h-1.8V306h1.8v8.2c1.1-1.8,3-2.7,5.2-2.7
		C575.3,311.5,578.2,314.3,578.2,318.4L578.2,318.4z M576.4,318.4c0-3.2-2.2-5.3-5.1-5.3s-5.1,2.1-5.1,5.3s2.2,5.3,5.1,5.3
		S576.4,321.6,576.4,318.4z"/>
	<path d="M592.2,316.8v8.5h-1.8v-2.1c-0.8,1.4-2.4,2.3-4.7,2.3c-3.1,0-5-1.6-5-4c0-2.1,1.3-3.9,5.3-3.9h4.3v-0.8
		c0-2.3-1.3-3.6-3.9-3.6c-1.8,0-3.4,0.6-4.5,1.6l-0.8-1.4c1.4-1.2,3.4-1.9,5.6-1.9C590.2,311.5,592.2,313.2,592.2,316.8z
		 M590.4,321.1v-2.2h-4.3c-2.7,0-3.5,1-3.5,2.4c0,1.6,1.3,2.6,3.5,2.6S589.7,322.9,590.4,321.1L590.4,321.1z"/>
	<path d="M595.4,323.7l0.8-1.5c1.1,0.9,2.9,1.5,4.9,1.5c2.6,0,3.7-0.9,3.7-2.2c0-3.6-8.9-0.8-8.9-6.2c0-2.2,1.9-3.9,5.4-3.9
		c1.8,0,3.7,0.5,4.8,1.3l-0.8,1.5c-1.2-0.8-2.6-1.2-4-1.2c-2.5,0-3.6,1-3.6,2.3c0,3.7,8.9,0.9,8.9,6.2c0,2.4-2.1,3.9-5.6,3.9
		C598.7,325.4,596.5,324.6,595.4,323.7L595.4,323.7z"/>
	<path d="M621.9,319h-11.4c0.2,2.9,2.4,4.8,5.4,4.8c1.7,0,3.2-0.6,4.2-1.8l1,1.2c-1.2,1.5-3.1,2.2-5.3,2.2c-4.3,0-7.2-2.9-7.2-7
		s2.8-6.9,6.7-6.9s6.6,2.8,6.6,6.9C621.9,318.6,621.9,318.8,621.9,319L621.9,319z M610.5,317.6h9.7c-0.2-2.7-2.2-4.5-4.9-4.5
		S610.7,314.9,610.5,317.6z"/>
	<path d="M646.3,318.4c0,4.2-2.9,7-6.8,7c-2.2,0-4.1-0.9-5.2-2.7v7.6h-1.8v-18.7h1.8v2.7c1.1-1.8,3-2.8,5.3-2.8
		C643.4,311.5,646.4,314.3,646.3,318.4L646.3,318.4z M644.5,318.4c0-3.2-2.2-5.3-5.1-5.3s-5.1,2.2-5.1,5.3s2.2,5.3,5.1,5.3
		S644.5,321.6,644.5,318.4z"/>
	<path d="M657,311.5v1.8c-0.2,0-0.3,0-0.4,0c-2.9,0-4.6,1.8-4.6,5v7h-1.8v-13.7h1.8v2.7C652.8,312.4,654.5,311.5,657,311.5
		L657,311.5z"/>
	<path d="M659.9,307.3c0-0.7,0.6-1.3,1.3-1.3s1.3,0.6,1.3,1.3c0,0.8-0.6,1.4-1.3,1.4S659.9,308,659.9,307.3L659.9,307.3z
		 M660.3,311.6h1.8v13.7h-1.8V311.6z"/>
	<path d="M679.9,317.3v7.9h-1.8v-7.8c0-2.9-1.5-4.4-4.1-4.4c-2.9,0-4.8,1.8-4.8,4.9v7.2h-1.8v-13.7h1.8v2.5c1-1.7,2.8-2.6,5.2-2.6
		C677.6,311.5,679.9,313.4,679.9,317.3L679.9,317.3z"/>
	<path d="M683.6,318.4c0-4.1,3-6.9,7-6.9c2.3,0,4.3,0.9,5.4,2.7l-1.4,0.9c-0.9-1.4-2.4-2-4-2c-3,0-5.2,2.1-5.2,5.3s2.2,5.3,5.2,5.3
		c1.6,0,3-0.6,4-2l1.4,0.9c-1.1,1.8-3,2.7-5.4,2.7C686.6,325.4,683.6,322.5,683.6,318.4z"/>
	<path d="M699.2,307.3c0-0.7,0.6-1.3,1.3-1.3s1.3,0.6,1.3,1.3c0,0.8-0.6,1.4-1.3,1.4S699.2,308,699.2,307.3L699.2,307.3z
		 M699.6,311.6h1.8v13.7h-1.8V311.6z"/>
	<path d="M720.5,318.4c0,4.2-2.9,7-6.8,7c-2.2,0-4.1-0.9-5.2-2.7v7.6h-1.8v-18.7h1.8v2.7c1.1-1.8,3-2.8,5.3-2.8
		C717.6,311.5,720.5,314.3,720.5,318.4L720.5,318.4z M718.6,318.4c0-3.2-2.2-5.3-5.1-5.3s-5.1,2.2-5.1,5.3s2.2,5.3,5.1,5.3
		S718.6,321.6,718.6,318.4z"/>
	<path d="M723.8,307.3c0-0.7,0.6-1.3,1.3-1.3s1.3,0.6,1.3,1.3c0,0.8-0.6,1.4-1.3,1.4S723.8,308,723.8,307.3L723.8,307.3z
		 M724.2,311.6h1.8v13.7h-1.8V311.6z"/>
	<path d="M729.9,318.4c0-4.1,3-6.9,7-6.9s6.9,2.9,6.9,6.9s-2.9,7-6.9,7S729.9,322.5,729.9,318.4z M741.9,318.4
		c0-3.2-2.2-5.3-5.1-5.3s-5.1,2.1-5.1,5.3s2.2,5.3,5.1,5.3S741.9,321.6,741.9,318.4z"/>
	<path d="M747.5,306h1.8v19.3h-1.8V306z"/>
	<path d="M753.2,318.4c0-4.1,3-6.9,7-6.9s6.9,2.9,6.9,6.9s-2.9,7-6.9,7S753.2,322.5,753.2,318.4z M765.2,318.4
		c0-3.2-2.2-5.3-5.1-5.3s-5.1,2.1-5.1,5.3s2.2,5.3,5.1,5.3S765.2,321.6,765.2,318.4z M762,306.2h2.5l-4.2,3.2h-1.8L762,306.2
		L762,306.2z"/>
	<path d="M783.5,311.6v12c0,4.7-2.3,6.8-6.8,6.8c-2.5,0-4.9-0.8-6.4-2.1l0.9-1.4c1.3,1.2,3.3,1.9,5.4,1.9c3.5,0,5-1.6,5-5v-1.7
		c-1.1,1.7-3.1,2.6-5.3,2.6c-3.9,0-6.9-2.7-6.9-6.7s3-6.6,6.9-6.6c2.3,0,4.3,0.9,5.4,2.7v-2.6L783.5,311.6L783.5,311.6z
		 M781.7,318.1c0-3-2.2-5-5.2-5s-5.2,2-5.2,5s2.2,5,5.2,5S781.7,321,781.7,318.1z"/>
	<path d="M788.3,307.3c0-0.7,0.6-1.3,1.3-1.3s1.3,0.6,1.3,1.3c0,0.8-0.6,1.4-1.3,1.4S788.3,308,788.3,307.3L788.3,307.3z
		 M788.7,311.6h1.8v13.7h-1.8V311.6z"/>
	<path d="M794.3,318.4c0-4.1,3-6.9,7-6.9c2.3,0,4.3,0.9,5.4,2.7l-1.4,0.9c-0.9-1.4-2.4-2-4-2c-3,0-5.2,2.1-5.2,5.3s2.2,5.3,5.2,5.3
		c1.6,0,3-0.6,4-2l1.4,0.9c-1.1,1.8-3,2.7-5.4,2.7C797.3,325.4,794.3,322.5,794.3,318.4z"/>
	<path d="M820.6,316.8v8.5h-1.8v-2.1c-0.8,1.4-2.4,2.3-4.7,2.3c-3.1,0-5-1.6-5-4c0-2.1,1.3-3.9,5.3-3.9h4.3v-0.8
		c0-2.3-1.3-3.6-3.9-3.6c-1.8,0-3.4,0.6-4.5,1.6l-0.8-1.4c1.4-1.2,3.4-1.9,5.6-1.9C818.6,311.5,820.6,313.2,820.6,316.8L820.6,316.8
		z M818.8,321.1v-2.2h-4.3c-2.7,0-3.5,1-3.5,2.4c0,1.6,1.3,2.6,3.5,2.6S818.1,322.9,818.8,321.1L818.8,321.1z"/>
	<path d="M844.9,306v19.3h-1.8v-2.7c-1.1,1.9-3,2.8-5.3,2.8c-3.9,0-6.8-2.8-6.8-7s2.9-6.9,6.8-6.9c2.2,0,4.1,0.9,5.2,2.7v-8.2
		L844.9,306L844.9,306z M843.1,318.4c0-3.2-2.2-5.3-5.1-5.3s-5.1,2.1-5.1,5.3s2.2,5.3,5.1,5.3S843.1,321.6,843.1,318.4z"/>
	<path d="M848.7,318.4c0-4.1,3-6.9,7-6.9s6.9,2.9,6.9,6.9s-2.9,7-6.9,7S848.7,322.5,848.7,318.4z M860.8,318.4
		c0-3.2-2.2-5.3-5.1-5.3s-5.1,2.1-5.1,5.3s2.2,5.3,5.1,5.3S860.8,321.6,860.8,318.4z"/>
	<path d="M885.7,306v19.3h-1.8v-2.7c-1.1,1.9-3,2.8-5.3,2.8c-3.9,0-6.8-2.8-6.8-7s2.9-6.9,6.8-6.9c2.2,0,4.1,0.9,5.2,2.7v-8.2
		L885.7,306L885.7,306z M883.9,318.4c0-3.2-2.2-5.3-5.1-5.3s-5.1,2.1-5.1,5.3s2.2,5.3,5.1,5.3S883.9,321.6,883.9,318.4z"/>
	<path d="M890.4,307.3c0-0.7,0.6-1.3,1.3-1.3s1.3,0.6,1.3,1.3c0,0.8-0.6,1.4-1.3,1.4S890.4,308,890.4,307.3L890.4,307.3z
		 M890.8,311.6h1.8v13.7h-1.8V311.6z"/>
	<path d="M904.7,311.5v1.8c-0.2,0-0.3,0-0.4,0c-2.9,0-4.6,1.8-4.6,5v7h-1.8v-13.7h1.8v2.7C900.5,312.4,902.2,311.5,904.7,311.5
		L904.7,311.5z"/>
	<path d="M919.8,319h-11.4c0.2,2.9,2.4,4.8,5.4,4.8c1.7,0,3.2-0.6,4.2-1.8l1,1.2c-1.2,1.5-3.1,2.2-5.3,2.2c-4.3,0-7.2-2.9-7.2-7
		s2.8-6.9,6.7-6.9s6.6,2.8,6.6,6.9C919.8,318.6,919.8,318.8,919.8,319L919.8,319z M908.4,317.6h9.7c-0.2-2.7-2.2-4.5-4.9-4.5
		S908.6,314.9,908.4,317.6z"/>
	<path d="M923.2,307.3c0-0.7,0.6-1.3,1.3-1.3s1.3,0.6,1.3,1.3c0,0.8-0.6,1.4-1.3,1.4S923.2,308,923.2,307.3L923.2,307.3z
		 M923.6,311.6h1.8v13.7h-1.8V311.6z"/>
	<path d="M937.8,324.4c-0.7,0.6-1.8,1-2.9,1c-2.6,0-4-1.5-4-4v-8.3h-2.4v-1.6h2.4v-3h1.8v3h4.2v1.6h-4.2v8.2c0,1.6,0.8,2.5,2.4,2.5
		c0.8,0,1.5-0.2,2-0.7L937.8,324.4L937.8,324.4z"/>
	<path d="M939.3,318.4c0-4.1,3-6.9,7-6.9s6.9,2.9,6.9,6.9s-2.9,7-6.9,7S939.3,322.5,939.3,318.4z M951.3,318.4
		c0-3.2-2.2-5.3-5.1-5.3s-5.1,2.1-5.1,5.3s2.2,5.3,5.1,5.3S951.3,321.6,951.3,318.4z"/>
	<path d="M975.7,319h-11.4c0.2,2.9,2.4,4.8,5.4,4.8c1.7,0,3.2-0.6,4.2-1.8l1,1.2c-1.2,1.5-3.1,2.2-5.3,2.2c-4.3,0-7.2-2.9-7.2-7
		s2.8-6.9,6.7-6.9s6.6,2.8,6.6,6.9C975.7,318.6,975.7,318.8,975.7,319L975.7,319z M964.2,317.6h9.7c-0.2-2.7-2.2-4.5-4.9-4.5
		S964.5,314.9,964.2,317.6z"/>
	<path d="M1002.1,317.3v7.9h-1.8v-7.8c0-2.9-1.5-4.4-3.9-4.4c-2.8,0-4.6,1.8-4.6,4.9v7.2h-1.8v-7.8c0-2.9-1.5-4.4-4-4.4
		c-2.8,0-4.6,1.8-4.6,4.9v7.2h-1.8v-13.7h1.8v2.5c1-1.6,2.7-2.6,5-2.6s4,1,4.9,2.9c1-1.8,2.9-2.9,5.4-2.9
		C999.9,311.5,1002,313.4,1002.1,317.3L1002.1,317.3z"/>
	<path d="M136.8,346v19.3H135v-2.7c-1.1,1.9-3,2.8-5.3,2.8c-3.9,0-6.8-2.8-6.8-7s2.9-6.9,6.8-6.9c2.2,0,4.1,0.9,5.2,2.7v-8.2
		L136.8,346L136.8,346z M135,358.4c0-3.2-2.2-5.3-5.1-5.3s-5.1,2.1-5.1,5.3s2.2,5.3,5.1,5.3S135,361.6,135,358.4z"/>
	<path d="M153.8,359h-11.4c0.2,2.9,2.4,4.8,5.4,4.8c1.7,0,3.1-0.6,4.2-1.8l1,1.2c-1.2,1.5-3.1,2.2-5.3,2.2c-4.3,0-7.2-2.9-7.2-7
		s2.8-6.9,6.7-6.9s6.6,2.8,6.6,6.9C153.9,358.6,153.8,358.8,153.8,359L153.8,359z M142.4,357.6h9.7c-0.2-2.7-2.2-4.5-4.9-4.5
		S142.6,354.9,142.4,357.6z"/>
	<path d="M164.8,364.4c-0.7,0.6-1.8,1-2.9,1c-2.6,0-4-1.5-4-4v-8.3h-2.4v-1.6h2.4v-3h1.9v3h4.2v1.6h-4.2v8.2c0,1.6,0.8,2.5,2.4,2.5
		c0.8,0,1.5-0.2,2-0.7L164.8,364.4L164.8,364.4z"/>
	<path d="M175.1,351.5v1.8c-0.2,0-0.3,0-0.4,0c-2.9,0-4.6,1.8-4.6,5v7h-1.9v-13.7h1.8v2.7C170.8,352.4,172.6,351.5,175.1,351.5
		L175.1,351.5z"/>
	<path d="M178,347.3c0-0.7,0.6-1.3,1.4-1.3s1.4,0.6,1.4,1.3c0,0.8-0.6,1.4-1.4,1.4S178,348,178,347.3L178,347.3z M178.4,351.6h1.9
		v13.7h-1.9V351.6z"/>
	<path d="M208,357.3v7.9h-1.9v-7.8c0-2.9-1.5-4.4-3.9-4.4c-2.8,0-4.6,1.8-4.6,4.9v7.2h-1.9v-7.8c0-2.9-1.5-4.4-3.9-4.4
		c-2.8,0-4.6,1.8-4.6,4.9v7.2h-1.9v-13.7h1.8v2.5c1-1.6,2.7-2.6,5-2.6s4,1,4.9,2.9c1-1.8,2.9-2.9,5.4-2.9
		C205.8,351.5,207.9,353.4,208,357.3L208,357.3z"/>
	<path d="M224.9,359h-11.4c0.2,2.9,2.4,4.8,5.4,4.8c1.7,0,3.1-0.6,4.2-1.8l1,1.2c-1.2,1.5-3.1,2.2-5.3,2.2c-4.3,0-7.2-2.9-7.2-7
		s2.8-6.9,6.7-6.9s6.6,2.8,6.6,6.9C225,358.6,224.9,358.8,224.9,359L224.9,359z M213.5,357.6h9.7c-0.2-2.7-2.2-4.5-4.9-4.5
		S213.7,354.9,213.5,357.6z"/>
	<path d="M241.3,357.3v7.9h-1.9v-7.8c0-2.9-1.5-4.4-4.1-4.4c-2.9,0-4.8,1.8-4.8,4.9v7.2h-1.9v-13.7h1.8v2.5c1-1.7,2.8-2.6,5.2-2.6
		C239,351.5,241.3,353.4,241.3,357.3L241.3,357.3z"/>
	<path d="M253.6,364.4c-0.7,0.6-1.8,1-2.9,1c-2.6,0-4-1.5-4-4v-8.3h-2.4v-1.6h2.4v-3h1.9v3h4.2v1.6h-4.2v8.2c0,1.6,0.8,2.5,2.4,2.5
		c0.8,0,1.5-0.2,2-0.7L253.6,364.4L253.6,364.4z"/>
	<path d="M255,358.4c0-4.1,3-6.9,7-6.9s6.9,2.9,6.9,6.9s-2.9,7-6.9,7S255,362.5,255,358.4z M267.1,358.4c0-3.2-2.2-5.3-5.1-5.3
		s-5.1,2.1-5.1,5.3s2.2,5.3,5.1,5.3S267.1,361.6,267.1,358.4z"/>
	<path d="M292,346v19.3h-1.8v-2.7c-1.1,1.9-3,2.8-5.3,2.8c-3.9,0-6.8-2.8-6.8-7s2.9-6.9,6.8-6.9c2.2,0,4.1,0.9,5.2,2.7v-8.2L292,346
		L292,346z M290.2,358.4c0-3.2-2.2-5.3-5.1-5.3s-5.1,2.1-5.1,5.3s2.2,5.3,5.1,5.3S290.2,361.6,290.2,358.4z"/>
	<path d="M295.8,358.4c0-4.1,3-6.9,7-6.9s6.9,2.9,6.9,6.9s-2.9,7-6.9,7S295.8,362.5,295.8,358.4z M307.8,358.4
		c0-3.2-2.2-5.3-5.1-5.3s-5.1,2.1-5.1,5.3s2.2,5.3,5.1,5.3S307.8,361.6,307.8,358.4z"/>
	<path d="M311.5,363.7l0.8-1.5c1.1,0.9,2.9,1.5,4.9,1.5c2.6,0,3.7-0.9,3.7-2.2c0-3.6-8.9-0.8-8.9-6.2c0-2.2,1.9-3.9,5.4-3.9
		c1.8,0,3.7,0.5,4.8,1.3l-0.8,1.5c-1.2-0.8-2.6-1.2-4-1.2c-2.5,0-3.6,1-3.6,2.3c0,3.7,8.9,0.9,8.9,6.2c0,2.4-2.1,3.9-5.6,3.9
		C314.9,365.4,312.7,364.6,311.5,363.7L311.5,363.7z"/>
	<path d="M331.6,358.4c0-4.1,3-6.9,7-6.9c2.3,0,4.3,0.9,5.4,2.7l-1.4,0.9c-0.9-1.4-2.4-2-4-2c-3,0-5.2,2.1-5.2,5.3s2.2,5.3,5.2,5.3
		c1.6,0,3-0.6,4-2l1.4,0.9c-1.1,1.8-3,2.7-5.4,2.7C334.6,365.4,331.6,362.5,331.6,358.4z"/>
	<path d="M346,358.4c0-4.1,3-6.9,7-6.9s6.9,2.9,6.9,6.9s-2.9,7-6.9,7S346,362.5,346,358.4z M358,358.4c0-3.2-2.2-5.3-5.1-5.3
		s-5.1,2.1-5.1,5.3s2.2,5.3,5.1,5.3S358,361.6,358,358.4z M354.8,346.2h2.5l-4.2,3.2h-1.8L354.8,346.2z"/>
	<path d="M376.2,346v19.3h-1.8v-2.7c-1.1,1.9-3,2.8-5.3,2.8c-3.9,0-6.8-2.8-6.8-7s2.9-6.9,6.8-6.9c2.2,0,4.1,0.9,5.2,2.7v-8.2
		L376.2,346L376.2,346z M374.3,358.4c0-3.2-2.2-5.3-5.1-5.3s-5.1,2.1-5.1,5.3s2.2,5.3,5.1,5.3S374.3,361.6,374.3,358.4z"/>
	<path d="M380.9,347.3c0-0.7,0.6-1.3,1.4-1.3s1.4,0.6,1.4,1.3c0,0.8-0.6,1.4-1.4,1.4S380.9,348,380.9,347.3L380.9,347.3z
		 M381.3,351.6h1.9v13.7h-1.9V351.6z"/>
	<path d="M401,351.6v12c0,4.7-2.3,6.8-6.8,6.8c-2.5,0-4.9-0.8-6.4-2.1l0.9-1.4c1.3,1.2,3.3,1.9,5.4,1.9c3.5,0,5-1.6,5-5v-1.7
		c-1.1,1.7-3.1,2.6-5.3,2.6c-3.9,0-6.9-2.7-6.9-6.7s3-6.6,6.9-6.6c2.3,0,4.3,0.9,5.4,2.7v-2.6L401,351.6L401,351.6z M399.2,358.1
		c0-3-2.2-5-5.2-5s-5.2,2-5.2,5s2.2,5,5.2,5S399.2,361,399.2,358.1z"/>
	<path d="M404.8,358.4c0-4.1,3-6.9,7-6.9s6.9,2.9,6.9,6.9s-2.9,7-6.9,7S404.8,362.5,404.8,358.4z M416.8,358.4
		c0-3.2-2.2-5.3-5.1-5.3s-5.1,2.1-5.1,5.3s2.2,5.3,5.1,5.3S416.8,361.6,416.8,358.4z"/>
	<path d="M420.5,363.7l0.8-1.5c1.1,0.9,2.9,1.5,4.9,1.5c2.6,0,3.7-0.9,3.7-2.2c0-3.6-8.9-0.8-8.9-6.2c0-2.2,1.9-3.9,5.4-3.9
		c1.8,0,3.7,0.5,4.8,1.3l-0.8,1.5c-1.2-0.8-2.6-1.2-4-1.2c-2.5,0-3.6,1-3.6,2.3c0,3.7,8.9,0.9,8.9,6.2c0,2.4-2.1,3.9-5.6,3.9
		C423.8,365.4,421.7,364.6,420.5,363.7L420.5,363.7z"/>
	<path d="M454.5,346v19.3h-1.8v-2.7c-1.1,1.9-3,2.8-5.3,2.8c-3.9,0-6.8-2.8-6.8-7s2.9-6.9,6.8-6.9c2.2,0,4.1,0.9,5.2,2.7v-8.2
		L454.5,346L454.5,346z M452.6,358.4c0-3.2-2.2-5.3-5.1-5.3s-5.1,2.1-5.1,5.3s2.2,5.3,5.1,5.3S452.6,361.6,452.6,358.4z"/>
	<path d="M471.5,359h-11.4c0.2,2.9,2.4,4.8,5.4,4.8c1.7,0,3.1-0.6,4.2-1.8l1,1.2c-1.2,1.5-3.1,2.2-5.3,2.2c-4.3,0-7.2-2.9-7.2-7
		s2.8-6.9,6.7-6.9s6.6,2.8,6.6,6.9C471.5,358.6,471.5,358.8,471.5,359L471.5,359z M460.1,357.6h9.7c-0.2-2.7-2.2-4.5-4.9-4.5
		S460.3,354.9,460.1,357.6L460.1,357.6z"/>
	<path d="M482.1,346h1.9v19.3h-1.9V346z"/>
	<path d="M501,359h-11.4c0.2,2.9,2.4,4.8,5.4,4.8c1.7,0,3.1-0.6,4.2-1.8l1,1.2c-1.2,1.5-3.1,2.2-5.3,2.2c-4.3,0-7.2-2.9-7.2-7
		s2.8-6.9,6.7-6.9s6.6,2.8,6.6,6.9C501,358.6,501,358.8,501,359L501,359z M489.6,357.6h9.7c-0.2-2.7-2.2-4.5-4.9-4.5
		S489.8,354.9,489.6,357.6L489.6,357.6z"/>
	<path d="M504.4,347.3c0-0.7,0.6-1.3,1.4-1.3s1.4,0.6,1.4,1.3c0,0.8-0.6,1.4-1.4,1.4S504.4,348,504.4,347.3L504.4,347.3z
		 M504.8,351.6h1.9v13.7h-1.9V351.6z"/>
	<path d="M530.5,359h-11.4c0.2,2.9,2.4,4.8,5.4,4.8c1.7,0,3.2-0.6,4.2-1.8l1,1.2c-1.2,1.5-3.1,2.2-5.3,2.2c-4.3,0-7.2-2.9-7.2-7
		s2.8-6.9,6.7-6.9s6.6,2.8,6.6,6.9C530.5,358.6,530.5,358.8,530.5,359L530.5,359z M519.1,357.6h9.7c-0.2-2.7-2.2-4.5-4.9-4.5
		S519.3,354.9,519.1,357.6z"/>
	<path d="M539.2,363.7l0.8-1.5c1.1,0.9,2.9,1.5,4.9,1.5c2.6,0,3.7-0.9,3.7-2.2c0-3.6-8.9-0.8-8.9-6.2c0-2.2,1.9-3.9,5.4-3.9
		c1.8,0,3.7,0.5,4.8,1.3l-0.8,1.5c-1.2-0.8-2.6-1.2-4-1.2c-2.5,0-3.6,1-3.6,2.3c0,3.7,8.9,0.9,8.9,6.2c0,2.4-2.1,3.9-5.6,3.9
		C542.5,365.4,540.3,364.6,539.2,363.7L539.2,363.7z"/>
	<path d="M566.2,351.6v13.7h-1.8v-2.5c-1,1.7-2.7,2.6-4.9,2.6c-3.5,0-5.8-2-5.8-5.9v-7.9h1.8v7.8c0,2.9,1.5,4.4,4.1,4.4
		c2.9,0,4.7-1.9,4.7-5v-7.2L566.2,351.6L566.2,351.6z"/>
	<path d="M581.7,356.8v8.5h-1.8v-2.1c-0.8,1.4-2.4,2.3-4.7,2.3c-3.1,0-5-1.6-5-4c0-2.1,1.3-3.9,5.3-3.9h4.3v-0.8
		c0-2.3-1.3-3.6-3.9-3.6c-1.8,0-3.4,0.6-4.5,1.6l-0.8-1.4c1.4-1.2,3.4-1.9,5.6-1.9C579.7,351.5,581.7,353.2,581.7,356.8L581.7,356.8
		z M579.8,361.1v-2.2h-4.3c-2.7,0-3.5,1-3.5,2.4c0,1.6,1.3,2.6,3.5,2.6S579.1,362.9,579.8,361.1L579.8,361.1z"/>
	<path d="M584.8,363.7l0.8-1.5c1.1,0.9,2.9,1.5,4.9,1.5c2.6,0,3.7-0.9,3.7-2.2c0-3.6-8.9-0.8-8.9-6.2c0-2.2,1.9-3.9,5.4-3.9
		c1.8,0,3.7,0.5,4.8,1.3l-0.8,1.5c-1.2-0.8-2.6-1.2-4-1.2c-2.5,0-3.6,1-3.6,2.3c0,3.7,8.9,0.9,8.9,6.2c0,2.4-2.1,3.9-5.6,3.9
		C588.1,365.4,585.9,364.6,584.8,363.7L584.8,363.7z"/>
	<path d="M613.1,351.5v1.8c-0.2,0-0.3,0-0.4,0c-2.9,0-4.6,1.8-4.6,5v7h-1.8v-13.7h1.8v2.7C608.8,352.4,610.6,351.5,613.1,351.5
		L613.1,351.5z"/>
	<path d="M628.2,359h-11.4c0.2,2.9,2.4,4.8,5.4,4.8c1.7,0,3.2-0.6,4.2-1.8l1,1.2c-1.2,1.5-3.1,2.2-5.3,2.2c-4.3,0-7.2-2.9-7.2-7
		s2.8-6.9,6.7-6.9s6.6,2.8,6.6,6.9C628.2,358.6,628.2,358.8,628.2,359L628.2,359z M616.8,357.6h9.7c-0.2-2.7-2.2-4.5-4.9-4.5
		S617,354.9,616.8,357.6z"/>
	<path d="M644.7,351.6v12c0,4.7-2.3,6.8-6.8,6.8c-2.5,0-4.9-0.8-6.4-2.1l0.9-1.4c1.3,1.2,3.3,1.9,5.4,1.9c3.5,0,5-1.6,5-5v-1.7
		c-1.1,1.7-3.1,2.6-5.3,2.6c-3.9,0-6.9-2.7-6.9-6.7s3-6.6,6.9-6.6c2.3,0,4.3,0.9,5.4,2.7v-2.6L644.7,351.6L644.7,351.6z
		 M642.9,358.1c0-3-2.2-5-5.2-5s-5.2,2-5.2,5s2.2,5,5.2,5S642.9,361,642.9,358.1z"/>
	<path d="M656.7,351.5v1.8c-0.2,0-0.3,0-0.4,0c-2.9,0-4.6,1.8-4.6,5v7h-1.8v-13.7h1.8v2.7C652.5,352.4,654.2,351.5,656.7,351.5
		L656.7,351.5z"/>
	<path d="M670.3,356.8v8.5h-1.8v-2.1c-0.8,1.4-2.4,2.3-4.7,2.3c-3.1,0-5-1.6-5-4c0-2.1,1.3-3.9,5.3-3.9h4.3v-0.8
		c0-2.3-1.3-3.6-3.9-3.6c-1.8,0-3.4,0.6-4.5,1.6l-0.8-1.4c1.4-1.2,3.4-1.9,5.6-1.9C668.3,351.5,670.3,353.2,670.3,356.8L670.3,356.8
		z M668.5,361.1v-2.2h-4.3c-2.7,0-3.5,1-3.5,2.4c0,1.6,1.3,2.6,3.5,2.6S667.8,362.9,668.5,361.1L668.5,361.1z"/>
	<path d="M673.5,363.7l0.8-1.5c1.1,0.9,2.9,1.5,4.9,1.5c2.6,0,3.7-0.9,3.7-2.2c0-3.6-8.9-0.8-8.9-6.2c0-2.2,1.9-3.9,5.4-3.9
		c1.8,0,3.7,0.5,4.8,1.3l-0.8,1.5c-1.2-0.8-2.6-1.2-4-1.2c-2.5,0-3.6,1-3.6,2.3c0,3.7,8.9,0.9,8.9,6.2c0,2.4-2.1,3.9-5.6,3.9
		C676.8,365.4,674.6,364.6,673.5,363.7L673.5,363.7z"/>
	<path d="M706.8,359h-11.4c0.2,2.9,2.4,4.8,5.4,4.8c1.7,0,3.2-0.6,4.2-1.8l1,1.2c-1.2,1.5-3.1,2.2-5.3,2.2c-4.3,0-7.2-2.9-7.2-7
		s2.8-6.9,6.7-6.9s6.6,2.8,6.6,6.9C706.8,358.6,706.8,358.8,706.8,359L706.8,359z M695.4,357.6h9.7c-0.2-2.7-2.2-4.5-4.9-4.5
		S695.6,354.9,695.4,357.6z"/>
	<path d="M708.7,363.7l0.8-1.5c1.1,0.9,2.9,1.5,4.9,1.5c2.6,0,3.7-0.9,3.7-2.2c0-3.6-8.9-0.8-8.9-6.2c0-2.2,1.9-3.9,5.4-3.9
		c1.8,0,3.7,0.5,4.8,1.3l-0.8,1.5c-1.2-0.8-2.6-1.2-4-1.2c-2.5,0-3.6,1-3.6,2.3c0,3.7,8.9,0.9,8.9,6.2c0,2.4-2.1,3.9-5.6,3.9
		C712,365.4,709.8,364.6,708.7,363.7L708.7,363.7z"/>
	<path d="M737.2,358.4c0,4.2-2.9,7-6.8,7c-2.2,0-4.1-0.9-5.2-2.7v7.6h-1.8v-18.7h1.8v2.7c1.1-1.8,3-2.8,5.3-2.8
		C734.3,351.5,737.2,354.3,737.2,358.4L737.2,358.4z M735.3,358.4c0-3.2-2.2-5.3-5.1-5.3s-5.1,2.2-5.1,5.3s2.2,5.3,5.1,5.3
		S735.3,361.6,735.3,358.4z"/>
	<path d="M752.8,359h-11.4c0.2,2.9,2.4,4.8,5.4,4.8c1.7,0,3.2-0.6,4.2-1.8l1,1.2c-1.2,1.5-3.1,2.2-5.3,2.2c-4.3,0-7.2-2.9-7.2-7
		s2.8-6.9,6.7-6.9s6.6,2.8,6.6,6.9C752.9,358.6,752.8,358.8,752.8,359L752.8,359z M741.4,357.6h9.7c-0.2-2.7-2.2-4.5-4.9-4.5
		S741.7,354.9,741.4,357.6z"/>
	<path d="M755.3,358.4c0-4.1,3-6.9,7-6.9c2.3,0,4.3,0.9,5.4,2.7l-1.4,0.9c-0.9-1.4-2.4-2-4-2c-3,0-5.2,2.1-5.2,5.3s2.2,5.3,5.2,5.3
		c1.6,0,3-0.6,4-2l1.4,0.9c-1.1,1.8-3,2.7-5.4,2.7C758.2,365.4,755.3,362.5,755.3,358.4z"/>
	<path d="M774.1,346.2h2.5l-4.2,3.2h-1.8L774.1,346.2L774.1,346.2z M771.3,351.6h1.8v13.7h-1.8V351.6z"/>
	<path d="M782.7,345.8c1,0,2,0.3,2.7,0.9l-0.6,1.4c-0.5-0.4-1.2-0.7-2-0.7c-1.6,0-2.4,0.9-2.4,2.6v1.6h4.2v1.6h-4.2v12.1h-1.8v-12.1
		h-2.4v-1.6h2.4v-1.7C778.6,347.4,780,345.8,782.7,345.8L782.7,345.8z M791.5,347.2c0,0.8-0.6,1.4-1.3,1.4s-1.3-0.6-1.3-1.3
		s0.6-1.3,1.3-1.3S791.5,346.5,791.5,347.2L791.5,347.2z M789.2,351.6h1.8v13.7h-1.8V351.6z"/>
	<path d="M794.8,358.4c0-4.1,3-6.9,7-6.9c2.3,0,4.3,0.9,5.4,2.7l-1.4,0.9c-0.9-1.4-2.4-2-4-2c-3,0-5.2,2.1-5.2,5.3s2.2,5.3,5.2,5.3
		c1.6,0,3-0.6,4-2l1.4,0.9c-1.1,1.8-3,2.7-5.4,2.7C797.8,365.4,794.8,362.5,794.8,358.4z"/>
	<path d="M821.1,356.8v8.5h-1.8v-2.1c-0.8,1.4-2.4,2.3-4.7,2.3c-3.1,0-5-1.6-5-4c0-2.1,1.3-3.9,5.3-3.9h4.3v-0.8
		c0-2.3-1.3-3.6-3.9-3.6c-1.8,0-3.4,0.6-4.5,1.6l-0.8-1.4c1.4-1.2,3.4-1.9,5.6-1.9C819.1,351.5,821.1,353.2,821.1,356.8L821.1,356.8
		z M819.3,361.1v-2.2H815c-2.7,0-3.5,1-3.5,2.4c0,1.6,1.3,2.6,3.5,2.6S818.5,362.9,819.3,361.1L819.3,361.1z"/>
	<path d="M824.2,363.7l0.8-1.5c1.1,0.9,2.9,1.5,4.9,1.5c2.6,0,3.7-0.9,3.7-2.2c0-3.6-8.9-0.8-8.9-6.2c0-2.2,1.9-3.9,5.4-3.9
		c1.8,0,3.7,0.5,4.8,1.3l-0.8,1.5c-1.2-0.8-2.6-1.2-4-1.2c-2.5,0-3.6,1-3.6,2.3c0,3.7,8.9,0.9,8.9,6.2c0,2.4-2.1,3.9-5.6,3.9
		C827.5,365.4,825.4,364.6,824.2,363.7L824.2,363.7z"/>
	<path d="M845.8,358.1c0-4.8,1.1-9.1,3-12.2h1.8c-2,3.6-3,7.5-3,12.2s0.9,8.6,3,12.2h-1.8C846.9,367.2,845.8,362.9,845.8,358.1z"/>
	<path d="M866.8,357.3v7.9H865v-7.8c0-2.9-1.5-4.4-4.1-4.4c-2.9,0-4.8,1.8-4.8,4.9v7.2h-1.8v-13.7h1.8v2.5c1-1.7,2.8-2.6,5.2-2.6
		C864.5,351.5,866.8,353.4,866.8,357.3L866.8,357.3z"/>
	<path d="M870.5,358.4c0-4.1,3-6.9,7-6.9s6.9,2.9,6.9,6.9s-2.9,7-6.9,7S870.5,362.5,870.5,358.4z M882.5,358.4
		c0-3.2-2.2-5.3-5.1-5.3s-5.1,2.1-5.1,5.3s2.2,5.3,5.1,5.3S882.5,361.6,882.5,358.4z"/>
	<path d="M895.1,351.5v1.8c-0.2,0-0.3,0-0.4,0c-2.9,0-4.6,1.8-4.6,5v7h-1.8v-13.7h1.8v2.7C890.8,352.4,892.5,351.5,895.1,351.5
		L895.1,351.5z"/>
	<path d="M921,357.3v7.9h-1.8v-7.8c0-2.9-1.5-4.4-3.9-4.4c-2.8,0-4.6,1.8-4.6,4.9v7.2h-1.8v-7.8c0-2.9-1.5-4.4-4-4.4
		c-2.8,0-4.6,1.8-4.6,4.9v7.2h-1.8v-13.7h1.8v2.5c1-1.6,2.7-2.6,5-2.6s4,1,4.9,2.9c1-1.8,2.9-2.9,5.4-2.9
		C918.8,351.5,920.9,353.4,921,357.3L921,357.3z"/>
	<path d="M936.3,356.8v8.5h-1.8v-2.1c-0.8,1.4-2.4,2.3-4.7,2.3c-3.1,0-5-1.6-5-4c0-2.1,1.3-3.9,5.3-3.9h4.3v-0.8
		c0-2.3-1.3-3.6-3.9-3.6c-1.8,0-3.4,0.6-4.5,1.6l-0.8-1.4c1.4-1.2,3.4-1.9,5.6-1.9C934.3,351.5,936.3,353.2,936.3,356.8L936.3,356.8
		z M934.5,361.1v-2.2h-4.3c-2.7,0-3.5,1-3.5,2.4c0,1.6,1.3,2.6,3.5,2.6S933.7,362.9,934.5,361.1L934.5,361.1z"/>
	<path d="M939.4,363.7l0.8-1.5c1.1,0.9,2.9,1.5,4.9,1.5c2.6,0,3.7-0.9,3.7-2.2c0-3.6-8.9-0.8-8.9-6.2c0-2.2,1.9-3.9,5.4-3.9
		c1.8,0,3.7,0.5,4.8,1.3l-0.8,1.5c-1.2-0.8-2.6-1.2-4-1.2c-2.5,0-3.6,1-3.6,2.3c0,3.7,8.9,0.9,8.9,6.2c0,2.4-2.1,3.9-5.6,3.9
		C942.7,365.4,940.5,364.6,939.4,363.7L939.4,363.7z"/>
	<path d="M953,357.4h6.8v1.6H953V357.4z"/>
	<path d="M971.4,364.4c-0.7,0.6-1.8,1-2.9,1c-2.6,0-4-1.5-4-4v-8.3h-2.4v-1.6h2.4v-3h1.8v3h4.2v1.6h-4.2v8.2c0,1.6,0.8,2.5,2.4,2.5
		c0.8,0,1.5-0.2,2-0.7L971.4,364.4L971.4,364.4z"/>
	<path d="M974.4,347.3c0-0.7,0.6-1.3,1.3-1.3s1.3,0.6,1.3,1.3c0,0.8-0.6,1.4-1.3,1.4S974.4,348,974.4,347.3L974.4,347.3z
		 M974.8,351.6h1.8v13.7h-1.8V351.6z"/>
	<path d="M995.6,358.4c0,4.2-2.9,7-6.8,7c-2.2,0-4.1-0.9-5.2-2.7v7.6h-1.8v-18.7h1.8v2.7c1.1-1.8,3-2.8,5.3-2.8
		C992.7,351.5,995.6,354.3,995.6,358.4L995.6,358.4z M993.8,358.4c0-3.2-2.2-5.3-5.1-5.3s-5.1,2.2-5.1,5.3s2.2,5.3,5.1,5.3
		S993.8,361.6,993.8,358.4z"/>
	<path d="M998,358.4c0-4.1,3-6.9,7-6.9s6.9,2.9,6.9,6.9s-2.9,7-6.9,7S998,362.5,998,358.4z M1010.1,358.4c0-3.2-2.2-5.3-5.1-5.3
		s-5.1,2.1-5.1,5.3s2.2,5.3,5.1,5.3S1010.1,361.6,1010.1,358.4z"/>
	<path d="M1014.2,370.3c2.1-3.6,3-7.5,3-12.2s-0.9-8.6-3-12.2h1.8c2,3.1,3,7.4,3,12.2s-1.1,9-3,12.2H1014.2z"/>
	<path d="M1023.1,364c0-0.8,0.6-1.4,1.4-1.4c0.8,0,1.4,0.6,1.4,1.4s-0.7,1.4-1.4,1.4S1023.1,364.8,1023.1,364L1023.1,364z"/>
</g>
<g>
	<path id="Caminho_4266" class="st2" d="M86.6,68.8H46.7l-20,34.6l20,34.6h39.9l20-34.6L86.6,68.8z"/>
	<path id="Caminho_4267" class="st2" d="M101.6,41.7H61.7l-20,34.6l20,34.6h39.9l20-34.6L101.6,41.7z"/>
	<path id="Caminho_4268" class="st3" d="M48.2,45.4L22.6,89.9l25.6,44.4h51.3l25.6-44.4L99.4,45.4H48.2z"/>
	<path id="Caminho_4269" class="st4" d="M81.2,34.7L80.4,36H43.2L24.7,68.1h-1.8l-1.2,2.1l1.2,2.1h2.4l1.2-2.1l-0.8-1.5l18.2-31.6
		h36.3l1,1.8h2.4l1.1-2.1l-1.1-2.1H81.2z"/>
	<path id="Caminho_4270" class="st4" d="M125.2,110l-1.2-2.1h-2.4l-1.2,2.1l0.9,1.5l-18.2,31.6H66.8l-1-1.8h-2.5l-1.2,2.1l1.2,2.1
		h2.4l0.7-1.2h37.2l18.6-32.2h1.8L125.2,110z"/>
	<g id="Grupo_2380" transform="translate(12.65 11)">
		<path id="Caminho_4271" class="st5" d="M57.8,103.5c2.5,2.5,6.7,2.5,9.2,0s2.5-6.5,0.1-8.9L67,94.5c-2.5-2.5-6.7-2.5-9.2,0
			C55.3,96.9,55.3,100.9,57.8,103.5C57.8,103.4,57.8,103.4,57.8,103.5 M59.8,83.9c-0.2-0.4-0.5-1.8-1.1-3.9c-1.9-7.3-3-12.9-3-16.7
			c0-3.5,0.5-6,1.6-7.5s2.9-2.2,5.3-2.2c4.1,0,6.2,3.4,6.2,10.3c0,1.9-1.1,7.4-3.1,16.2c-0.3,1.4-0.6,2.8-1.1,4.1
			c-0.4,1.1-1.4,1.8-2.5,1.9C61.3,86,60.5,85.3,59.8,83.9"/>
	</g>
</g>
</svg>
