<?xml version="1.0" encoding="UTF-8"?>
<svg id="Camada_2" data-name="Camada 2" xmlns="http://www.w3.org/2000/svg" viewBox="0 0 282.78 266.6">
  <defs>
    <style>
      .cls-1 {
        fill: #fff;
      }

      .cls-2 {
        fill: #fdb614;
      }
    </style>
  </defs>
  <g id="Layer_1" data-name="Layer 1">
    <g>
      <polygon class="cls-2" points="76.96 0 95.78 0 240.46 0 282.78 0 282.78 266.6 217.61 266.6 95.78 266.6 76.96 266.6 0 133.3 76.96 0"/>
      <g>
        <path class="cls-1" d="m172.01,132.91c0,25.99-10.48,43.84-31.94,43.84s-31.3-19.53-31.43-43.32c0-24.31,10.35-43.58,32.07-43.58s31.3,20.04,31.3,43.07Zm-43.58.52c-.13,19.27,4.53,28.45,12.16,28.45s11.77-9.57,11.77-28.71-4.01-28.45-11.9-28.45c-7.24,0-12.16,9.18-12.03,28.71Z"/>
        <path class="cls-1" d="m181.71,175.33v-11.9l10.86-9.83c18.36-16.43,27.29-25.87,27.55-35.69,0-6.85-4.14-12.29-13.84-12.29-7.24,0-13.58,3.62-17.98,6.98l-5.56-14.1c6.34-4.78,16.17-8.66,27.55-8.66,19.01,0,29.49,11.12,29.49,26.38,0,14.1-10.22,25.35-22.37,36.21l-7.76,6.47v.26h31.68v16.17h-59.62Z"/>
      </g>
    </g>
  </g>
</svg>