<svg id="Componente_63_1" data-name="Componente 63 – 1" xmlns="http://www.w3.org/2000/svg" width="348.686" height="348.686" viewBox="0 0 348.686 348.686">
  <circle id="Elipse_100" data-name="Elipse 100" cx="123.278" cy="123.278" r="123.278" transform="translate(0 174.343) rotate(-45)" fill="#f2f2f2"/>
  <g id="Grupo_3938" data-name="Grupo 3938" transform="translate(5.743 7.333)">
    <path id="Caminho_31231" data-name="Caminho 31231" d="M1050.948,297.283a11.685,11.685,0,0,0,9.582-20.974C1083.94,214.6,1144.123,172.4,1210.855,172.4s126.915,42.2,150.325,103.907a11.638,11.638,0,1,0,5.883-2.028c-24.278-64.193-86.839-108.1-156.214-108.1s-131.936,43.908-156.214,108.1a11.711,11.711,0,0,0-3.7,23Z" transform="translate(-1042.263 -166.18)" fill="#f4804c"/>
    <path id="Caminho_31232" data-name="Caminho 31232" d="M1370.762,521.163a11.686,11.686,0,0,0-9.726,20.911,160.717,160.717,0,0,1-299.823,0,11.644,11.644,0,1,0-5.877,2.062,166.941,166.941,0,0,0,311.571,0,11.71,11.71,0,0,0,3.849-22.974Z" transform="translate(-1042.533 -317.049)" fill="#f4804c"/>
  </g>
  <g id="Grupo_3939" data-name="Grupo 3939" transform="translate(109.039 136.58)">
    <path id="Caminho_31233" data-name="Caminho 31233" d="M1253.69,470.266q-15.864,0-23.743-10.777t-7.876-28.776q0-18,7.876-28.776t23.743-10.777q15.864,0,23.738,10.777t7.876,28.776q0,18-7.876,28.776T1253.69,470.266Zm-11.271-57.988q-3.61,7.006-3.608,18.493t3.608,18.487q3.61,7.006,11.271,7t11.266-7q3.611-7,3.614-18.487t-3.614-18.493q-3.611-7-11.266-7T1242.418,412.278Z" transform="translate(-1222.07 -391.16)" fill="#f4804c"/>
    <path id="Caminho_31234" data-name="Caminho 31234" d="M1377.369,422.728a13.827,13.827,0,0,0,2.9-7.934,8.776,8.776,0,0,0-2.516-6.4,8.655,8.655,0,0,0-6.457-2.574q-7.221,0-13.673,10.283l-13.678-8.094a42.3,42.3,0,0,1,11.76-12.581q6.4-4.266,16.3-4.268a26.25,26.25,0,0,1,17.4,6.291q7.488,6.291,7.5,17.12a22.993,22.993,0,0,1-3.01,11.323q-3.008,5.412-11.1,13.839l-13.788,14.333h30.195v15.316h-53.938v-12.69l22.428-22.974a98.461,98.461,0,0,0,9.686-11Z" transform="translate(-1273.928 -391.16)" fill="#f4804c"/>
  </g>
</svg>
