<?xml version="1.0" encoding="UTF-8"?>
<svg id="Layer_1" data-name="Layer 1" xmlns="http://www.w3.org/2000/svg" viewBox="0 0 375.71 378.48">
  <defs>
    <style>
      .cls-1 {
        fill: #078686;
      }

      .cls-2 {
        fill: #fff;
      }

      .cls-3 {
        fill: #116c98;
      }

      .cls-4 {
        fill: #f2f2f3;
      }

      .cls-5 {
        fill: #003049;
      }
    </style>
  </defs>
  <circle class="cls-4" cx="186.95" cy="216.77" r="144.1"/>
  <g>
    <circle class="cls-1" cx="72.62" cy="303.67" r="55.06"/>
    <g>
      <path class="cls-2" d="m47.14,290.57h-4.2l-.83,1.94h-1.61l3.78-8.4h1.54l3.79,8.4h-1.63l-.84-1.94Zm-.52-1.22l-1.58-3.67-1.57,3.67h3.15Z"/>
      <path class="cls-2" d="m56.85,288.85v3.67h-1.5v-3.48c0-1.14-.56-1.69-1.52-1.69-1.07,0-1.79.65-1.79,1.93v3.24h-1.5v-6.4h1.43v.83c.49-.59,1.27-.9,2.21-.9,1.54,0,2.67.88,2.67,2.81Z"/>
      <path class="cls-2" d="m64.12,288.76v3.75h-1.42v-.78c-.36.55-1.06.86-2.02.86-1.46,0-2.39-.8-2.39-1.92s.72-1.91,2.66-1.91h1.66v-.1c0-.88-.53-1.39-1.6-1.39-.72,0-1.46.24-1.94.64l-.59-1.09c.68-.53,1.68-.79,2.71-.79,1.85,0,2.92.88,2.92,2.72Zm-1.5,1.75v-.74h-1.55c-1.02,0-1.29.38-1.29.85,0,.54.46.89,1.22.89s1.37-.34,1.62-1Zm-1-5.28h-1.29l1.62-1.64h1.76l-2.09,1.64Z"/>
      <path class="cls-2" d="m66.05,283.62h1.5v8.9h-1.5v-8.9Z"/>
      <path class="cls-2" d="m69.31,284.16c0-.5.41-.9.96-.9s.96.37.96.86c0,.53-.4.94-.96.94s-.96-.4-.96-.9Zm.2,1.96h1.5v6.4h-1.5v-6.4Z"/>
      <path class="cls-2" d="m72.25,291.88l.58-1.14c.56.37,1.43.64,2.23.64.95,0,1.34-.26,1.34-.71,0-1.22-3.96-.07-3.96-2.63,0-1.21,1.09-2,2.82-2,.85,0,1.82.2,2.4.55l-.58,1.14c-.61-.36-1.22-.48-1.83-.48-.91,0-1.34.3-1.34.72,0,1.3,3.96.14,3.96,2.65,0,1.2-1.1,1.98-2.9,1.98-1.07,0-2.13-.31-2.71-.72Z"/>
      <path class="cls-2" d="m85.16,289.79h-5.03c.18.94.96,1.54,2.07,1.54.72,0,1.28-.23,1.74-.7l.8.92c-.58.68-1.47,1.04-2.58,1.04-2.15,0-3.54-1.38-3.54-3.29s1.4-3.27,3.31-3.27,3.24,1.31,3.24,3.31c0,.12-.01.3-.02.44Zm-5.04-1h3.63c-.12-.92-.83-1.56-1.81-1.56s-1.68.62-1.82,1.56Z"/>
      <path class="cls-2" d="m96.21,283.62v8.9h-1.44v-.83c-.5.61-1.25.91-2.12.91-1.86,0-3.24-1.29-3.24-3.29s1.38-3.27,3.24-3.27c.83,0,1.56.28,2.06.86v-3.29h1.5Zm-1.47,5.7c0-1.22-.83-2-1.91-2s-1.91.78-1.91,2,.83,2,1.91,2,1.91-.78,1.91-2Z"/>
      <path class="cls-2" d="m104.18,289.79h-5.03c.18.94.96,1.54,2.07,1.54.72,0,1.28-.23,1.74-.7l.8.92c-.58.68-1.47,1.04-2.58,1.04-2.15,0-3.54-1.38-3.54-3.29s1.4-3.27,3.31-3.27,3.24,1.31,3.24,3.31c0,.12-.01.3-.02.44Zm-5.04-1h3.63c-.12-.92-.83-1.56-1.81-1.56s-1.68.62-1.82,1.56Z"/>
      <path class="cls-2" d="m47.93,298.52h1.56v8.4h-1.56v-8.4Z"/>
      <path class="cls-2" d="m62.33,303.25v3.67h-1.5v-3.48c0-1.14-.53-1.69-1.44-1.69-.98,0-1.67.65-1.67,1.92v3.25h-1.5v-3.48c0-1.14-.53-1.69-1.44-1.69-1,0-1.67.65-1.67,1.92v3.25h-1.5v-6.4h1.43v.82c.48-.58,1.22-.89,2.1-.89.94,0,1.71.35,2.16,1.07.52-.66,1.38-1.07,2.4-1.07,1.55,0,2.63.88,2.63,2.81Z"/>
      <path class="cls-2" d="m71.05,303.71c0,1.99-1.38,3.29-3.25,3.29-.82,0-1.54-.28-2.05-.86v3.11h-1.5v-8.73h1.43v.84c.5-.61,1.25-.91,2.12-.91,1.87,0,3.25,1.3,3.25,3.27Zm-1.52,0c0-1.22-.82-2-1.9-2s-1.91.78-1.91,2,.83,2,1.91,2,1.9-.78,1.9-2Z"/>
      <path class="cls-2" d="m77.76,303.16v3.75h-1.42v-.78c-.36.55-1.06.86-2.02.86-1.46,0-2.39-.8-2.39-1.92s.72-1.91,2.66-1.91h1.66v-.1c0-.88-.53-1.39-1.6-1.39-.72,0-1.46.24-1.94.64l-.59-1.09c.68-.53,1.68-.79,2.71-.79,1.85,0,2.92.88,2.92,2.72Zm-1.5,1.75v-.74h-1.55c-1.02,0-1.29.38-1.29.85,0,.54.46.89,1.22.89s1.37-.33,1.62-1Z"/>
      <path class="cls-2" d="m79.22,303.71c0-1.92,1.44-3.27,3.47-3.27,1.25,0,2.24.52,2.73,1.49l-1.15.67c-.38-.61-.96-.89-1.59-.89-1.1,0-1.94.77-1.94,2s.84,2,1.94,2c.64,0,1.21-.28,1.59-.89l1.15.67c-.49.96-1.49,1.5-2.73,1.5-2.03,0-3.47-1.37-3.47-3.29Z"/>
      <path class="cls-2" d="m90.65,306.57c-.36.29-.9.43-1.44.43-1.4,0-2.21-.74-2.21-2.16v-3.08h-1.06v-1.2h1.06v-1.46h1.5v1.46h1.71v1.2h-1.71v3.05c0,.62.31.96.89.96.31,0,.61-.08.84-.26l.42,1.07Z"/>
      <path class="cls-2" d="m91.14,303.71c0-1.92,1.44-3.27,3.41-3.27s3.42,1.36,3.42,3.27-1.43,3.29-3.42,3.29-3.41-1.37-3.41-3.29Zm5.31,0c0-1.22-.82-2-1.91-2s-1.9.78-1.9,2,.82,2,1.9,2,1.91-.78,1.91-2Z"/>
      <path class="cls-2" d="m43.09,321.32l-1.72-2.46c-.11.01-.22.01-.32.01h-1.9v2.45h-1.56v-8.4h3.45c2.21,0,3.57,1.13,3.57,2.99,0,1.27-.65,2.21-1.79,2.65l1.93,2.76h-1.68Zm-2.11-7.08h-1.82v3.35h1.82c1.37,0,2.08-.62,2.08-1.68s-.71-1.67-2.08-1.67Z"/>
      <path class="cls-2" d="m52.23,318.59h-5.03c.18.94.96,1.54,2.07,1.54.72,0,1.28-.23,1.74-.7l.8.92c-.58.68-1.47,1.04-2.58,1.04-2.15,0-3.54-1.38-3.54-3.29s1.4-3.27,3.31-3.27,3.24,1.31,3.24,3.31c0,.12-.01.3-.02.44Zm-5.04-1h3.63c-.12-.92-.83-1.56-1.81-1.56s-1.68.62-1.82,1.56Z"/>
      <path class="cls-2" d="m60.05,314.91v5.43c0,2.33-1.21,3.38-3.45,3.38-1.2,0-2.39-.31-3.12-.91l.67-1.13c.56.47,1.47.77,2.36.77,1.42,0,2.04-.65,2.04-1.94v-.34c-.53.58-1.28.85-2.15.85-1.83,0-3.24-1.25-3.24-3.11s1.4-3.08,3.24-3.08c.9,0,1.69.29,2.22.92v-.85h1.43Zm-1.47,3.01c0-1.08-.82-1.81-1.94-1.81s-1.96.73-1.96,1.81.82,1.83,1.96,1.83,1.94-.74,1.94-1.83Z"/>
      <path class="cls-2" d="m68.22,314.91v6.4h-1.43v-.82c-.48.59-1.24.9-2.06.9-1.64,0-2.76-.9-2.76-2.83v-3.66h1.5v3.45c0,1.16.55,1.71,1.5,1.71,1.04,0,1.75-.65,1.75-1.93v-3.24h1.5Z"/>
      <path class="cls-2" d="m70.19,312.42h1.5v8.9h-1.5v-8.9Z"/>
      <path class="cls-2" d="m79.02,317.56v3.75h-1.42v-.78c-.36.55-1.06.86-2.02.86-1.46,0-2.39-.8-2.39-1.92s.72-1.91,2.66-1.91h1.66v-.1c0-.88-.53-1.39-1.6-1.39-.72,0-1.46.24-1.94.64l-.59-1.09c.68-.53,1.68-.79,2.71-.79,1.85,0,2.92.88,2.92,2.72Zm-1.5,1.75v-.74h-1.55c-1.02,0-1.29.38-1.29.85,0,.54.46.89,1.22.89s1.37-.33,1.62-1Z"/>
      <path class="cls-2" d="m84.79,320.97c-.36.29-.9.43-1.44.43-1.4,0-2.21-.74-2.21-2.16v-3.08h-1.06v-1.2h1.06v-1.46h1.5v1.46h1.71v1.2h-1.71v3.05c0,.62.31.96.89.96.31,0,.61-.08.84-.26l.42,1.07Z"/>
      <path class="cls-2" d="m85.29,318.11c0-1.92,1.44-3.27,3.41-3.27s3.42,1.36,3.42,3.27-1.43,3.29-3.42,3.29-3.41-1.37-3.41-3.29Zm5.31,0c0-1.22-.82-2-1.91-2s-1.9.78-1.9,2,.82,2,1.9,2,1.91-.78,1.91-2Zm-1.31-5.72h1.76l-2.09,1.64h-1.29l1.62-1.64Z"/>
      <path class="cls-2" d="m97.26,314.84v1.43c-.13-.02-.24-.04-.35-.04-1.14,0-1.86.67-1.86,1.98v3.11h-1.5v-6.4h1.43v.94c.43-.67,1.21-1.01,2.28-1.01Z"/>
      <path class="cls-2" d="m98.33,312.96c0-.5.41-.9.96-.9s.96.37.96.86c0,.53-.4.94-.96.94s-.96-.4-.96-.9Zm.2,1.96h1.5v6.4h-1.5v-6.4Z"/>
      <path class="cls-2" d="m101.48,318.11c0-1.92,1.44-3.27,3.41-3.27s3.42,1.36,3.42,3.27-1.43,3.29-3.42,3.29-3.41-1.37-3.41-3.29Zm5.31,0c0-1.22-.82-2-1.91-2s-1.9.78-1.9,2,.82,2,1.9,2,1.91-.78,1.91-2Z"/>
    </g>
  </g>
  <g>
    <circle class="cls-1" cx="186.95" cy="72.67" r="55.06"/>
    <g>
      <path class="cls-2" d="m161.47,53.09h-4.2l-.83,1.94h-1.61l3.78-8.4h1.54l3.79,8.4h-1.63l-.84-1.94Zm-.52-1.22l-1.58-3.67-1.57,3.67h3.15Z"/>
      <path class="cls-2" d="m171.18,51.36v3.67h-1.5v-3.48c0-1.14-.56-1.69-1.52-1.69-1.07,0-1.79.65-1.79,1.93v3.24h-1.5v-6.4h1.43v.83c.49-.59,1.27-.9,2.21-.9,1.54,0,2.67.88,2.67,2.81Z"/>
      <path class="cls-2" d="m178.45,51.28v3.75h-1.42v-.78c-.36.55-1.06.86-2.02.86-1.46,0-2.39-.8-2.39-1.92s.72-1.91,2.66-1.91h1.66v-.1c0-.88-.53-1.39-1.6-1.39-.72,0-1.46.24-1.94.64l-.59-1.09c.68-.53,1.68-.79,2.71-.79,1.85,0,2.92.88,2.92,2.72Zm-1.5,1.75v-.74h-1.55c-1.02,0-1.29.38-1.29.85,0,.54.46.89,1.22.89s1.37-.33,1.62-1Zm-1-5.28h-1.29l1.62-1.64h1.76l-2.09,1.64Z"/>
      <path class="cls-2" d="m180.38,46.13h1.5v8.9h-1.5v-8.9Z"/>
      <path class="cls-2" d="m183.64,46.67c0-.5.41-.9.96-.9s.96.37.96.86c0,.53-.4.94-.96.94s-.96-.4-.96-.9Zm.2,1.96h1.5v6.4h-1.5v-6.4Z"/>
      <path class="cls-2" d="m186.58,54.39l.58-1.14c.56.37,1.43.64,2.23.64.95,0,1.34-.26,1.34-.71,0-1.22-3.96-.07-3.96-2.63,0-1.21,1.09-2,2.82-2,.85,0,1.82.2,2.4.55l-.58,1.14c-.61-.36-1.22-.48-1.83-.48-.91,0-1.34.3-1.34.72,0,1.3,3.96.14,3.96,2.65,0,1.2-1.1,1.98-2.9,1.98-1.07,0-2.13-.31-2.71-.72Z"/>
      <path class="cls-2" d="m199.49,52.31h-5.03c.18.94.96,1.54,2.07,1.54.72,0,1.28-.23,1.74-.7l.8.92c-.58.68-1.47,1.04-2.58,1.04-2.15,0-3.54-1.38-3.54-3.29s1.4-3.27,3.31-3.27,3.24,1.31,3.24,3.31c0,.12-.01.3-.02.44Zm-5.04-1h3.63c-.12-.92-.83-1.56-1.81-1.56s-1.68.62-1.82,1.56Z"/>
      <path class="cls-2" d="m210.54,46.13v8.9h-1.44v-.83c-.5.61-1.25.91-2.12.91-1.86,0-3.24-1.29-3.24-3.29s1.38-3.27,3.24-3.27c.83,0,1.56.28,2.06.86v-3.29h1.5Zm-1.47,5.7c0-1.22-.83-2-1.91-2s-1.91.78-1.91,2,.83,2,1.91,2,1.91-.78,1.91-2Z"/>
      <path class="cls-2" d="m218.51,52.31h-5.03c.18.94.96,1.54,2.07,1.54.72,0,1.28-.23,1.74-.7l.8.92c-.58.68-1.47,1.04-2.58,1.04-2.15,0-3.54-1.38-3.54-3.29s1.4-3.27,3.31-3.27,3.24,1.31,3.24,3.31c0,.12-.01.3-.02.44Zm-5.04-1h3.63c-.12-.92-.83-1.56-1.81-1.56s-1.68.62-1.82,1.56Z"/>
      <path class="cls-2" d="m162.26,61.03h1.56v8.4h-1.56v-8.4Z"/>
      <path class="cls-2" d="m176.66,65.76v3.67h-1.5v-3.48c0-1.14-.53-1.69-1.44-1.69-.98,0-1.67.65-1.67,1.92v3.25h-1.5v-3.48c0-1.14-.53-1.69-1.44-1.69-1,0-1.67.65-1.67,1.92v3.25h-1.5v-6.4h1.43v.82c.48-.58,1.22-.89,2.1-.89.94,0,1.71.35,2.16,1.07.52-.66,1.38-1.07,2.4-1.07,1.55,0,2.63.88,2.63,2.81Z"/>
      <path class="cls-2" d="m185.38,66.23c0,1.99-1.38,3.29-3.25,3.29-.82,0-1.54-.28-2.05-.86v3.11h-1.5v-8.73h1.43v.84c.5-.61,1.25-.91,2.12-.91,1.87,0,3.25,1.29,3.25,3.27Zm-1.52,0c0-1.22-.82-2-1.9-2s-1.91.78-1.91,2,.83,2,1.91,2,1.9-.78,1.9-2Z"/>
      <path class="cls-2" d="m192.09,65.68v3.75h-1.42v-.78c-.36.55-1.06.86-2.02.86-1.46,0-2.39-.8-2.39-1.92s.72-1.91,2.66-1.91h1.66v-.1c0-.88-.53-1.39-1.6-1.39-.72,0-1.46.24-1.94.64l-.59-1.09c.68-.53,1.68-.79,2.71-.79,1.85,0,2.92.88,2.92,2.72Zm-1.5,1.75v-.74h-1.55c-1.02,0-1.29.38-1.29.85,0,.54.46.89,1.22.89s1.37-.34,1.62-1Z"/>
      <path class="cls-2" d="m193.54,66.23c0-1.92,1.44-3.27,3.47-3.27,1.25,0,2.24.52,2.73,1.49l-1.15.67c-.38-.61-.96-.89-1.59-.89-1.1,0-1.94.77-1.94,2s.84,2,1.94,2c.64,0,1.21-.28,1.59-.89l1.15.67c-.49.96-1.49,1.5-2.73,1.5-2.03,0-3.47-1.37-3.47-3.29Z"/>
      <path class="cls-2" d="m204.98,69.08c-.36.29-.9.43-1.44.43-1.4,0-2.21-.74-2.21-2.16v-3.08h-1.06v-1.2h1.06v-1.46h1.5v1.46h1.71v1.2h-1.71v3.05c0,.62.31.96.89.96.31,0,.61-.08.84-.26l.42,1.07Z"/>
      <path class="cls-2" d="m205.47,66.23c0-1.92,1.44-3.27,3.41-3.27s3.42,1.36,3.42,3.27-1.43,3.29-3.42,3.29-3.41-1.37-3.41-3.29Zm5.31,0c0-1.22-.82-2-1.91-2s-1.9.78-1.9,2,.82,2,1.9,2,1.91-.78,1.91-2Z"/>
      <path class="cls-2" d="m162.83,75.43v8.4h-1.28l-4.63-5.68v5.68h-1.55v-8.4h1.28l4.63,5.68v-5.68h1.55Z"/>
      <path class="cls-2" d="m164.42,80.63c0-1.92,1.44-3.27,3.41-3.27s3.42,1.36,3.42,3.27-1.43,3.29-3.42,3.29-3.41-1.37-3.41-3.29Zm5.31,0c0-1.22-.82-2-1.91-2s-1.9.78-1.9,2,.82,2,1.9,2,1.91-.78,1.91-2Z"/>
      <path class="cls-2" d="m176.39,77.35v1.43c-.13-.02-.24-.04-.35-.04-1.14,0-1.86.67-1.86,1.98v3.11h-1.5v-6.4h1.43v.94c.43-.67,1.21-1.01,2.28-1.01Z"/>
      <path class="cls-2" d="m188.37,80.16v3.67h-1.5v-3.48c0-1.14-.53-1.69-1.44-1.69-.98,0-1.67.65-1.67,1.92v3.25h-1.5v-3.48c0-1.14-.53-1.69-1.44-1.69-1,0-1.67.65-1.67,1.92v3.25h-1.5v-6.4h1.43v.82c.48-.58,1.22-.89,2.1-.89.94,0,1.71.35,2.16,1.07.52-.66,1.38-1.07,2.4-1.07,1.55,0,2.63.88,2.63,2.81Z"/>
      <path class="cls-2" d="m195.66,80.08v3.75h-1.42v-.78c-.36.55-1.06.86-2.02.86-1.46,0-2.39-.8-2.39-1.92s.72-1.91,2.66-1.91h1.66v-.1c0-.88-.53-1.39-1.6-1.39-.72,0-1.46.24-1.94.64l-.59-1.09c.68-.53,1.68-.79,2.71-.79,1.85,0,2.92.88,2.92,2.72Zm-1.5,1.75v-.74h-1.55c-1.02,0-1.29.38-1.29.85,0,.54.46.89,1.22.89s1.37-.34,1.62-1Z"/>
      <path class="cls-2" d="m201.43,83.48c-.36.29-.9.43-1.44.43-1.4,0-2.21-.74-2.21-2.16v-3.08h-1.06v-1.2h1.06v-1.46h1.5v1.46h1.71v1.2h-1.71v3.05c0,.62.31.96.89.96.31,0,.61-.08.84-.26l.42,1.07Z"/>
      <path class="cls-2" d="m202.47,75.47c0-.5.41-.9.96-.9s.96.37.96.86c0,.53-.4.94-.96.94s-.96-.4-.96-.9Zm.2,1.96h1.5v6.4h-1.5v-6.4Z"/>
      <path class="cls-2" d="m212.14,77.43l-2.75,6.4h-1.55l-2.75-6.4h1.56l1.99,4.75,2.05-4.75h1.44Z"/>
      <path class="cls-2" d="m212.37,80.63c0-1.92,1.44-3.27,3.41-3.27s3.42,1.36,3.42,3.27-1.43,3.29-3.42,3.29-3.41-1.37-3.41-3.29Zm5.31,0c0-1.22-.82-2-1.91-2s-1.9.78-1.9,2,.82,2,1.9,2,1.91-.78,1.91-2Z"/>
      <path class="cls-2" d="m162.86,95.51h-5.03c.18.94.96,1.54,2.08,1.54.72,0,1.28-.23,1.74-.7l.8.92c-.58.68-1.48,1.04-2.58,1.04-2.15,0-3.54-1.38-3.54-3.29s1.4-3.27,3.31-3.27,3.24,1.31,3.24,3.31c0,.12-.01.3-.02.44Zm-5.04-1h3.63c-.12-.92-.83-1.56-1.81-1.56s-1.68.62-1.82,1.56Z"/>
      <path class="cls-2" d="m175.04,94.56v3.67h-1.5v-3.48c0-1.14-.53-1.69-1.44-1.69-.98,0-1.67.65-1.67,1.92v3.25h-1.5v-3.48c0-1.14-.53-1.69-1.44-1.69-1,0-1.67.65-1.67,1.92v3.25h-1.5v-6.4h1.43v.82c.48-.58,1.22-.89,2.1-.89.94,0,1.71.35,2.16,1.07.52-.66,1.38-1.07,2.4-1.07,1.55,0,2.63.88,2.63,2.81Z"/>
      <path class="cls-2" d="m179.72,97.34l.54-1.21c.67.54,1.74.92,2.77.92,1.31,0,1.86-.47,1.86-1.09,0-1.81-4.99-.62-4.99-3.74,0-1.36,1.08-2.51,3.38-2.51,1.01,0,2.06.26,2.79.74l-.49,1.21c-.75-.44-1.58-.66-2.31-.66-1.29,0-1.82.5-1.82,1.14,0,1.79,4.98.62,4.98,3.71,0,1.34-1.09,2.5-3.39,2.5-1.31,0-2.61-.41-3.31-1.01Z"/>
      <path class="cls-2" d="m193.19,94.48v3.75h-1.42v-.78c-.36.55-1.06.86-2.02.86-1.46,0-2.39-.8-2.39-1.92s.72-1.91,2.66-1.91h1.66v-.1c0-.88-.53-1.39-1.6-1.39-.72,0-1.46.24-1.94.64l-.59-1.09c.68-.53,1.68-.79,2.71-.79,1.85,0,2.92.88,2.92,2.72Zm-1.5,1.75v-.74h-1.55c-1.02,0-1.29.38-1.29.85,0,.54.46.89,1.22.89s1.37-.33,1.62-1Z"/>
      <path class="cls-2" d="m201.31,91.83v6.4h-1.43v-.82c-.48.59-1.24.9-2.06.9-1.64,0-2.76-.9-2.76-2.83v-3.66h1.5v3.45c0,1.16.55,1.71,1.5,1.71,1.04,0,1.75-.65,1.75-1.93v-3.24h1.5Zm-2.84-.88h-1.3l1.62-1.64h1.76l-2.09,1.64Z"/>
      <path class="cls-2" d="m209.56,89.33v8.9h-1.44v-.83c-.5.61-1.25.91-2.12.91-1.86,0-3.24-1.29-3.24-3.29s1.38-3.27,3.24-3.27c.83,0,1.56.28,2.06.86v-3.29h1.5Zm-1.47,5.7c0-1.22-.83-2-1.91-2s-1.91.78-1.91,2,.83,2,1.91,2,1.91-.78,1.91-2Z"/>
      <path class="cls-2" d="m217.52,95.51h-5.03c.18.94.96,1.54,2.08,1.54.72,0,1.28-.23,1.74-.7l.8.92c-.58.68-1.47,1.04-2.58,1.04-2.15,0-3.54-1.38-3.54-3.29s1.4-3.27,3.31-3.27,3.24,1.31,3.24,3.31c0,.12-.01.3-.02.44Zm-5.04-1h3.63c-.12-.92-.83-1.56-1.81-1.56s-1.68.62-1.82,1.56Z"/>
    </g>
  </g>
  <g>
    <circle class="cls-3" cx="186.95" cy="214.73" r="45.56"/>
    <g>
      <path class="cls-2" d="m161.47,211.41h-4.2l-.83,1.94h-1.61l3.78-8.4h1.54l3.79,8.4h-1.63l-.84-1.94Zm-.52-1.22l-1.58-3.67-1.57,3.67h3.15Z"/>
      <path class="cls-2" d="m171.18,209.69v3.67h-1.5v-3.48c0-1.14-.56-1.69-1.52-1.69-1.07,0-1.79.65-1.79,1.93v3.24h-1.5v-6.4h1.43v.83c.49-.59,1.27-.9,2.21-.9,1.54,0,2.67.88,2.67,2.81Z"/>
      <path class="cls-2" d="m178.45,209.6v3.75h-1.42v-.78c-.36.55-1.06.86-2.02.86-1.46,0-2.39-.8-2.39-1.92s.72-1.91,2.66-1.91h1.66v-.1c0-.88-.53-1.39-1.6-1.39-.72,0-1.46.24-1.94.64l-.59-1.09c.68-.53,1.68-.79,2.71-.79,1.85,0,2.92.88,2.92,2.72Zm-1.5,1.75v-.74h-1.55c-1.02,0-1.29.38-1.29.85,0,.54.46.89,1.22.89s1.37-.33,1.62-1Zm-1-5.28h-1.29l1.62-1.64h1.76l-2.09,1.64Z"/>
      <path class="cls-2" d="m180.38,204.46h1.5v8.9h-1.5v-8.9Z"/>
      <path class="cls-2" d="m183.64,205c0-.5.41-.9.96-.9s.96.37.96.86c0,.53-.4.94-.96.94s-.96-.4-.96-.9Zm.2,1.96h1.5v6.4h-1.5v-6.4Z"/>
      <path class="cls-2" d="m186.58,212.72l.58-1.14c.56.37,1.43.64,2.23.64.95,0,1.34-.26,1.34-.71,0-1.22-3.96-.07-3.96-2.63,0-1.21,1.09-2,2.82-2,.85,0,1.82.2,2.4.55l-.58,1.14c-.61-.36-1.22-.48-1.83-.48-.91,0-1.34.3-1.34.72,0,1.3,3.96.14,3.96,2.65,0,1.2-1.1,1.98-2.9,1.98-1.07,0-2.13-.31-2.71-.72Z"/>
      <path class="cls-2" d="m199.49,210.63h-5.03c.18.94.96,1.54,2.07,1.54.72,0,1.28-.23,1.74-.7l.8.92c-.58.68-1.47,1.04-2.58,1.04-2.15,0-3.54-1.38-3.54-3.29s1.4-3.27,3.31-3.27,3.24,1.31,3.24,3.31c0,.12-.01.3-.02.44Zm-5.04-1h3.63c-.12-.92-.83-1.56-1.81-1.56s-1.68.62-1.82,1.56Z"/>
      <path class="cls-2" d="m210.54,204.46v8.9h-1.44v-.83c-.5.61-1.25.91-2.12.91-1.86,0-3.24-1.29-3.24-3.29s1.38-3.27,3.24-3.27c.83,0,1.56.28,2.06.86v-3.29h1.5Zm-1.47,5.7c0-1.22-.83-2-1.91-2s-1.91.78-1.91,2,.83,2,1.91,2,1.91-.78,1.91-2Z"/>
      <path class="cls-2" d="m218.51,210.63h-5.03c.18.94.96,1.54,2.07,1.54.72,0,1.28-.23,1.74-.7l.8.92c-.58.68-1.47,1.04-2.58,1.04-2.15,0-3.54-1.38-3.54-3.29s1.4-3.27,3.31-3.27,3.24,1.31,3.24,3.31c0,.12-.01.3-.02.44Zm-5.04-1h3.63c-.12-.92-.83-1.56-1.81-1.56s-1.68.62-1.82,1.56Z"/>
      <path class="cls-2" d="m162.26,219.36h1.56v8.4h-1.56v-8.4Z"/>
      <path class="cls-2" d="m176.66,224.09v3.67h-1.5v-3.48c0-1.14-.53-1.69-1.44-1.69-.98,0-1.67.65-1.67,1.92v3.25h-1.5v-3.48c0-1.14-.53-1.69-1.44-1.69-1,0-1.67.65-1.67,1.92v3.25h-1.5v-6.4h1.43v.82c.48-.58,1.22-.89,2.1-.89.94,0,1.71.35,2.16,1.07.52-.66,1.38-1.07,2.4-1.07,1.55,0,2.63.88,2.63,2.81Z"/>
      <path class="cls-2" d="m185.38,224.55c0,1.99-1.38,3.29-3.25,3.29-.82,0-1.54-.28-2.05-.86v3.11h-1.5v-8.73h1.43v.84c.5-.61,1.25-.91,2.12-.91,1.87,0,3.25,1.29,3.25,3.27Zm-1.52,0c0-1.22-.82-2-1.9-2s-1.91.78-1.91,2,.83,2,1.91,2,1.9-.78,1.9-2Z"/>
      <path class="cls-2" d="m192.09,224v3.75h-1.42v-.78c-.36.55-1.06.86-2.02.86-1.46,0-2.39-.8-2.39-1.92s.72-1.91,2.66-1.91h1.66v-.1c0-.88-.53-1.39-1.6-1.39-.72,0-1.46.24-1.94.64l-.59-1.09c.68-.53,1.68-.79,2.71-.79,1.85,0,2.92.88,2.92,2.72Zm-1.5,1.75v-.74h-1.55c-1.02,0-1.29.38-1.29.85,0,.54.46.89,1.22.89s1.37-.34,1.62-1Z"/>
      <path class="cls-2" d="m193.54,224.55c0-1.92,1.44-3.27,3.47-3.27,1.25,0,2.24.52,2.73,1.49l-1.15.67c-.38-.61-.96-.89-1.59-.89-1.1,0-1.94.77-1.94,2s.84,2,1.94,2c.64,0,1.21-.28,1.59-.89l1.15.67c-.49.96-1.49,1.5-2.73,1.5-2.03,0-3.47-1.37-3.47-3.29Z"/>
      <path class="cls-2" d="m204.98,227.41c-.36.29-.9.43-1.44.43-1.4,0-2.21-.74-2.21-2.16v-3.08h-1.06v-1.2h1.06v-1.46h1.5v1.46h1.71v1.2h-1.71v3.05c0,.62.31.96.89.96.31,0,.61-.08.84-.26l.42,1.07Z"/>
      <path class="cls-2" d="m205.47,224.55c0-1.92,1.44-3.27,3.41-3.27s3.42,1.36,3.42,3.27-1.43,3.29-3.42,3.29-3.41-1.37-3.41-3.29Zm5.31,0c0-1.22-.82-2-1.91-2s-1.9.78-1.9,2,.82,2,1.9,2,1.91-.78,1.91-2Z"/>
    </g>
  </g>
  <g>
    <circle class="cls-1" cx="303.09" cy="303.67" r="55.06"/>
    <g>
      <path class="cls-2" d="m277.62,290.57h-4.2l-.83,1.94h-1.61l3.78-8.4h1.54l3.79,8.4h-1.63l-.84-1.94Zm-.52-1.22l-1.58-3.67-1.57,3.67h3.15Z"/>
      <path class="cls-2" d="m287.32,288.85v3.67h-1.5v-3.48c0-1.14-.56-1.69-1.52-1.69-1.07,0-1.79.65-1.79,1.93v3.24h-1.5v-6.4h1.43v.83c.49-.59,1.27-.9,2.21-.9,1.54,0,2.67.88,2.67,2.81Z"/>
      <path class="cls-2" d="m294.6,288.76v3.75h-1.42v-.78c-.36.55-1.06.86-2.02.86-1.46,0-2.39-.8-2.39-1.92s.72-1.91,2.66-1.91h1.66v-.1c0-.88-.53-1.39-1.6-1.39-.72,0-1.46.24-1.94.64l-.59-1.09c.68-.53,1.68-.79,2.71-.79,1.85,0,2.92.88,2.92,2.72Zm-1.5,1.75v-.74h-1.55c-1.02,0-1.29.38-1.29.85,0,.54.46.89,1.22.89s1.37-.34,1.62-1Zm-1-5.28h-1.29l1.62-1.64h1.76l-2.09,1.64Z"/>
      <path class="cls-2" d="m296.52,283.62h1.5v8.9h-1.5v-8.9Z"/>
      <path class="cls-2" d="m299.78,284.16c0-.5.41-.9.96-.9s.96.37.96.86c0,.53-.4.94-.96.94s-.96-.4-.96-.9Zm.2,1.96h1.5v6.4h-1.5v-6.4Z"/>
      <path class="cls-2" d="m302.72,291.88l.58-1.14c.56.37,1.43.64,2.23.64.95,0,1.34-.26,1.34-.71,0-1.22-3.96-.07-3.96-2.63,0-1.21,1.09-2,2.82-2,.85,0,1.82.2,2.4.55l-.58,1.14c-.61-.36-1.22-.48-1.83-.48-.91,0-1.34.3-1.34.72,0,1.3,3.96.14,3.96,2.65,0,1.2-1.1,1.98-2.9,1.98-1.07,0-2.13-.31-2.71-.72Z"/>
      <path class="cls-2" d="m315.63,289.79h-5.03c.18.94.96,1.54,2.07,1.54.72,0,1.28-.23,1.74-.7l.8.92c-.58.68-1.47,1.04-2.58,1.04-2.15,0-3.54-1.38-3.54-3.29s1.4-3.27,3.31-3.27,3.24,1.31,3.24,3.31c0,.12-.01.3-.02.44Zm-5.04-1h3.63c-.12-.92-.83-1.56-1.81-1.56s-1.68.62-1.82,1.56Z"/>
      <path class="cls-2" d="m326.68,283.62v8.9h-1.44v-.83c-.5.61-1.25.91-2.12.91-1.86,0-3.24-1.29-3.24-3.29s1.38-3.27,3.24-3.27c.83,0,1.56.28,2.06.86v-3.29h1.5Zm-1.47,5.7c0-1.22-.83-2-1.91-2s-1.91.78-1.91,2,.83,2,1.91,2,1.91-.78,1.91-2Z"/>
      <path class="cls-2" d="m334.65,289.79h-5.03c.18.94.96,1.54,2.07,1.54.72,0,1.28-.23,1.74-.7l.8.92c-.58.68-1.47,1.04-2.58,1.04-2.15,0-3.54-1.38-3.54-3.29s1.4-3.27,3.31-3.27,3.24,1.31,3.24,3.31c0,.12-.01.3-.02.44Zm-5.04-1h3.63c-.12-.92-.83-1.56-1.81-1.56s-1.68.62-1.82,1.56Z"/>
      <path class="cls-2" d="m278.4,298.52h1.56v8.4h-1.56v-8.4Z"/>
      <path class="cls-2" d="m292.8,303.25v3.67h-1.5v-3.48c0-1.14-.53-1.69-1.44-1.69-.98,0-1.67.65-1.67,1.92v3.25h-1.5v-3.48c0-1.14-.53-1.69-1.44-1.69-1,0-1.67.65-1.67,1.92v3.25h-1.5v-6.4h1.43v.82c.48-.58,1.22-.89,2.1-.89.94,0,1.71.35,2.16,1.07.52-.66,1.38-1.07,2.4-1.07,1.55,0,2.63.88,2.63,2.81Z"/>
      <path class="cls-2" d="m301.53,303.71c0,1.99-1.38,3.29-3.25,3.29-.82,0-1.54-.28-2.05-.86v3.11h-1.5v-8.73h1.43v.84c.5-.61,1.25-.91,2.12-.91,1.87,0,3.25,1.3,3.25,3.27Zm-1.52,0c0-1.22-.82-2-1.9-2s-1.91.78-1.91,2,.83,2,1.91,2,1.9-.78,1.9-2Z"/>
      <path class="cls-2" d="m308.23,303.16v3.75h-1.42v-.78c-.36.55-1.06.86-2.02.86-1.46,0-2.39-.8-2.39-1.92s.72-1.91,2.66-1.91h1.66v-.1c0-.88-.53-1.39-1.6-1.39-.72,0-1.46.24-1.94.64l-.59-1.09c.68-.53,1.68-.79,2.71-.79,1.85,0,2.92.88,2.92,2.72Zm-1.5,1.75v-.74h-1.55c-1.02,0-1.29.38-1.29.85,0,.54.46.89,1.22.89s1.37-.33,1.62-1Z"/>
      <path class="cls-2" d="m309.69,303.71c0-1.92,1.44-3.27,3.47-3.27,1.25,0,2.24.52,2.73,1.49l-1.15.67c-.38-.61-.96-.89-1.59-.89-1.1,0-1.94.77-1.94,2s.84,2,1.94,2c.64,0,1.21-.28,1.59-.89l1.15.67c-.49.96-1.49,1.5-2.73,1.5-2.03,0-3.47-1.37-3.47-3.29Z"/>
      <path class="cls-2" d="m321.12,306.57c-.36.29-.9.43-1.44.43-1.4,0-2.21-.74-2.21-2.16v-3.08h-1.06v-1.2h1.06v-1.46h1.5v1.46h1.71v1.2h-1.71v3.05c0,.62.31.96.89.96.31,0,.61-.08.84-.26l.42,1.07Z"/>
      <path class="cls-2" d="m321.62,303.71c0-1.92,1.44-3.27,3.41-3.27s3.42,1.36,3.42,3.27-1.43,3.29-3.42,3.29-3.41-1.37-3.41-3.29Zm5.31,0c0-1.22-.82-2-1.91-2s-1.9.78-1.9,2,.82,2,1.9,2,1.91-.78,1.91-2Z"/>
      <path class="cls-2" d="m271.03,312.92h1.56v7.08h4.39v1.32h-5.95v-8.4Z"/>
      <path class="cls-2" d="m284.01,318.59h-5.03c.18.94.96,1.54,2.07,1.54.72,0,1.28-.23,1.74-.7l.8.92c-.58.68-1.47,1.04-2.58,1.04-2.15,0-3.54-1.38-3.54-3.29s1.4-3.27,3.31-3.27,3.24,1.31,3.24,3.31c0,.12-.01.3-.02.44Zm-5.04-1h3.63c-.12-.92-.83-1.56-1.81-1.56s-1.68.62-1.82,1.56Z"/>
      <path class="cls-2" d="m291.84,314.91v5.43c0,2.33-1.21,3.38-3.45,3.38-1.2,0-2.39-.31-3.12-.91l.67-1.13c.56.47,1.47.77,2.36.77,1.42,0,2.04-.65,2.04-1.94v-.34c-.53.58-1.28.85-2.15.85-1.83,0-3.24-1.25-3.24-3.11s1.4-3.08,3.24-3.08c.9,0,1.69.29,2.22.92v-.85h1.43Zm-1.47,3.01c0-1.08-.82-1.81-1.94-1.81s-1.96.73-1.96,1.81.82,1.83,1.96,1.83,1.94-.74,1.94-1.83Z"/>
      <path class="cls-2" d="m293.6,312.96c0-.5.41-.9.96-.9s.96.37.96.86c0,.53-.4.94-.96.94s-.96-.4-.96-.9Zm.2,1.96h1.5v6.4h-1.5v-6.4Z"/>
      <path class="cls-2" d="m296.54,320.68l.58-1.14c.56.37,1.43.64,2.23.64.95,0,1.34-.26,1.34-.71,0-1.22-3.96-.07-3.96-2.63,0-1.21,1.09-2,2.82-2,.85,0,1.82.2,2.4.55l-.58,1.14c-.61-.36-1.22-.48-1.83-.48-.91,0-1.34.3-1.34.72,0,1.3,3.96.14,3.96,2.65,0,1.2-1.1,1.98-2.9,1.98-1.07,0-2.13-.31-2.71-.72Z"/>
      <path class="cls-2" d="m303.46,312.42h1.5v8.9h-1.5v-8.9Z"/>
      <path class="cls-2" d="m312.28,317.56v3.75h-1.42v-.78c-.36.55-1.06.86-2.02.86-1.46,0-2.39-.8-2.39-1.92s.72-1.91,2.66-1.91h1.66v-.1c0-.88-.53-1.39-1.6-1.39-.72,0-1.46.24-1.94.64l-.59-1.09c.68-.53,1.68-.79,2.71-.79,1.85,0,2.92.88,2.92,2.72Zm-1.5,1.75v-.74h-1.55c-1.02,0-1.29.38-1.29.85,0,.54.46.89,1.22.89s1.37-.33,1.62-1Z"/>
      <path class="cls-2" d="m318.06,320.97c-.36.29-.9.43-1.44.43-1.4,0-2.21-.74-2.21-2.16v-3.08h-1.06v-1.2h1.06v-1.46h1.5v1.46h1.71v1.2h-1.71v3.05c0,.62.31.96.89.96.31,0,.61-.08.84-.26l.42,1.07Z"/>
      <path class="cls-2" d="m319.09,312.96c0-.5.41-.9.96-.9s.96.37.96.86c0,.53-.4.94-.96.94s-.96-.4-.96-.9Zm.2,1.96h1.5v6.4h-1.5v-6.4Z"/>
      <path class="cls-2" d="m328.76,314.91l-2.75,6.4h-1.55l-2.75-6.4h1.56l1.99,4.75,2.05-4.75h1.44Z"/>
      <path class="cls-2" d="m328.99,318.11c0-1.92,1.44-3.27,3.41-3.27s3.42,1.36,3.42,3.27-1.43,3.29-3.42,3.29-3.41-1.37-3.41-3.29Zm5.31,0c0-1.22-.82-2-1.91-2s-1.9.78-1.9,2,.82,2,1.9,2,1.91-.78,1.91-2Z"/>
    </g>
  </g>
  <polygon class="cls-5" points="126.98 246.71 122.38 263.43 139.65 261.96 136.38 258.03 144.14 251.58 138.01 244.2 130.25 250.65 126.98 246.71"/>
  <polygon class="cls-5" points="230.2 262.91 247.43 264.87 243.29 248.03 239.91 251.87 232.34 245.21 226 252.41 233.58 259.07 230.2 262.91"/>
  <polygon class="cls-5" points="196.86 150.52 186.95 136.29 177.03 150.52 182.15 150.52 182.15 160.61 191.74 160.61 191.74 150.52 196.86 150.52"/>
</svg>