<?xml version="1.0" encoding="UTF-8"?>
<svg id="Layer_2" data-name="Layer 2" xmlns="http://www.w3.org/2000/svg" viewBox="0 0 132.39 132.39">
  <defs>
    <style>
      .cls-1 {
        fill: #fff;
      }

      .cls-2 {
        fill: #b1c68f;
      }
    </style>
  </defs>
  <g id="Layer_1-2" data-name="Layer 1">
    <g>
      <circle class="cls-2" cx="66.19" cy="66.19" r="66.19"/>
      <path class="cls-1" d="m84.21,75.08c0,5.17-1.7,9.39-5.11,12.66-3.41,3.27-7.58,4.91-12.53,4.91-2.51,0-4.79-.39-6.84-1.16s-3.86-1.92-5.43-3.45c-1.96-1.89-3.47-4.4-4.53-7.52-1.06-3.12-1.59-6.88-1.59-11.28s.48-8.51,1.45-12,2.51-6.58,4.63-9.3c2-2.57,4.59-4.58,7.76-6.03,3.17-1.45,6.86-2.17,11.07-2.17,1.34,0,2.47.06,3.38.17.91.11,1.83.32,2.77.62v6.53h-.34c-.64-.34-1.6-.67-2.89-.97-1.29-.31-2.6-.46-3.95-.46-4.9,0-8.81,1.53-11.72,4.6-2.92,3.07-4.61,7.21-5.09,12.42,1.91-1.16,3.8-2.04,5.66-2.65,1.86-.6,4-.91,6.44-.91,2.16,0,4.07.2,5.72.6s3.34,1.2,5.08,2.41c2,1.39,3.51,3.14,4.53,5.26,1.01,2.12,1.52,4.69,1.52,7.72Zm-6.94.27c0-2.12-.31-3.87-.94-5.26-.63-1.39-1.66-2.6-3.09-3.62-1.05-.73-2.21-1.21-3.49-1.44-1.28-.23-2.61-.34-4-.34-1.94,0-3.74.23-5.4.68-1.66.46-3.37,1.16-5.13,2.12-.05.5-.08.99-.1,1.45-.02.47-.03,1.05-.03,1.76,0,3.6.37,6.44,1.11,8.53.74,2.08,1.76,3.73,3.06,4.94,1.05,1,2.18,1.74,3.4,2.2,1.22.47,2.55.7,3.98.7,3.3,0,5.9-1.01,7.79-3.03,1.89-2.02,2.84-4.92,2.84-8.7Z"/>
    </g>
  </g>
</svg>