<?xml version="1.0" encoding="utf-8"?>
<!-- Generator: Adobe Illustrator 27.3.0, SVG Export Plug-In . SVG Version: 6.00 Build 0)  -->
<svg version="1.1" id="Layer_1" xmlns="http://www.w3.org/2000/svg" xmlns:xlink="http://www.w3.org/1999/xlink" x="0px" y="0px"
	 viewBox="0 0 2549.8 2765.6" style="enable-background:new 0 0 2549.8 2765.6;" xml:space="preserve">
<style type="text/css">
	.st0{fill:#078686;}
	.st1{fill:#EAEAEA;}
	.st2{fill:#FFFFFF;}
	.st3{fill:#004646;}
</style>
<g>
	<circle class="st0" cx="1279.6" cy="1510.4" r="1045.1"/>
	<circle class="st1" cx="1279.6" cy="1510.4" r="980.5"/>
	<g>
		<circle class="st0" cx="1272.2" cy="1478.2" r="304.1"/>
		<g>
			<path class="st2" d="M1179.8,1529.6h-71l-13.2,32.6h-48.5l74.2-168h46.8l74.4,168H1193L1179.8,1529.6L1179.8,1529.6z
				 M1165.8,1494.5l-21.6-53.8l-21.6,53.8H1165.8z"/>
			<path class="st2" d="M1255.8,1394.2h47.5v168h-47.5V1394.2z"/>
			<path class="st2" d="M1497,1394.2v168h-39.1l-74.2-89.5v89.5h-46.6v-168h39.1l74.2,89.5v-89.5H1497z"/>
		</g>
	</g>
</g>
<g>
	<circle class="st3" cx="1272.2" cy="530" r="367.5"/>
	<g>
		<path class="st2" d="M1136.6,503.6h25.5c18.3,0,30.9,11.1,30.9,28s-12.6,28-30.9,28h-25.5V503.6L1136.6,503.6z M1161.4,549
			c11.1,0,18.4-6.7,18.4-17.4s-7.3-17.4-18.4-17.4h-11.8V549H1161.4z"/>
		<path class="st2" d="M1200.3,503.6c0-3.9,3.1-7,7.8-7s7.8,2.9,7.8,6.7c0,4.2-3.1,7.2-7.8,7.2S1200.3,507.5,1200.3,503.6z
			 M1201.8,516.6h12.5v43.1h-12.5V516.6z"/>
		<path class="st2" d="M1252.7,515.9v11.5c-1-0.1-1.8-0.2-2.8-0.2c-6.9,0-11.4,3.8-11.4,12v20.3H1226v-43.1h11.9v5.7
			C1240.9,518.1,1246,515.9,1252.7,515.9L1252.7,515.9z"/>
		<path class="st2" d="M1301.7,541.6h-32.6c1.2,5.4,5.8,8.7,12.3,8.7c4.6,0,7.8-1.4,10.8-4.2l6.7,7.2c-4,4.6-10,7-17.8,7
			c-14.9,0-24.6-9.4-24.6-22.2s9.8-22.2,23-22.2s22.4,8.5,22.4,22.3C1302,539.2,1301.8,540.6,1301.7,541.6L1301.7,541.6z
			 M1268.9,534.4h21.2c-0.9-5.5-5-9-10.6-9S1269.8,528.8,1268.9,534.4z"/>
		<path class="st2" d="M1308.8,503.6c0-3.9,3.1-7,7.8-7s7.8,2.9,7.8,6.7c0,4.2-3.1,7.2-7.8,7.2S1308.8,507.5,1308.8,503.6z
			 M1310.3,516.6h12.5v43.1h-12.5V516.6z"/>
		<path class="st2" d="M1362.2,557.6c-2.6,1.8-6.3,2.7-10.2,2.7c-10.2,0-16.1-5.2-16.1-15.5v-17.7h-6.7v-9.6h6.7V507h12.5v10.5h10.7
			v9.6h-10.7v17.5c0,3.7,2,5.7,5.4,5.7c1.8,0,3.7-0.6,5.1-1.6L1362.2,557.6L1362.2,557.6z"/>
		<path class="st2" d="M1364.7,538.1c0-13,10-22.2,23.7-22.2s23.6,9.2,23.6,22.2s-9.9,22.2-23.6,22.2S1364.7,551.1,1364.7,538.1z
			 M1399.4,538.1c0-7.5-4.7-11.9-11-11.9s-11.1,4.5-11.1,11.9s4.8,11.9,11.1,11.9S1399.4,545.6,1399.4,538.1z"/>
	</g>
</g>
<g>
	<circle class="st3" cx="509.1" cy="2071.9" r="367.5"/>
	<g>
		<path class="st2" d="M325.8,1978.9c0-16.9,13-29,30.4-29c9.7,0,17.8,3.5,23.1,9.9l-8.3,7.7c-3.8-4.3-8.5-6.6-14.1-6.6
			c-10.5,0-17.9,7.4-17.9,17.9s7.4,17.9,17.9,17.9c5.6,0,10.3-2.2,14.1-6.7l8.3,7.7c-5.3,6.5-13.4,10-23.2,10
			C338.8,2007.9,325.8,1995.8,325.8,1978.9L325.8,1978.9z"/>
		<path class="st2" d="M382.5,1985.4c0-13,10-22.2,23.7-22.2s23.6,9.2,23.6,22.2s-9.9,22.2-23.6,22.2S382.5,1998.4,382.5,1985.4z
			 M417.1,1985.4c0-7.4-4.7-11.9-11-11.9s-11.1,4.5-11.1,11.9s4.8,11.9,11.1,11.9S417.1,1992.8,417.1,1985.4z"/>
		<path class="st2" d="M482.2,1982.3v24.7h-12.5v-22.8c0-7-3.2-10.2-8.7-10.2c-6,0-10.3,3.7-10.3,11.6v21.3h-12.5v-43.1h11.9v5.1
			c3.4-3.7,8.4-5.7,14.3-5.7C474.5,1963.2,482.2,1969.1,482.2,1982.3L482.2,1982.3z"/>
		<path class="st2" d="M537.5,1982.3v24.7H525v-22.8c0-7-3.2-10.2-8.7-10.2c-6,0-10.3,3.7-10.3,11.6v21.3h-12.5v-59.4H506v20.8
			c3.4-3.4,8.2-5.1,13.7-5.1C529.8,1963.2,537.5,1969.1,537.5,1982.3L537.5,1982.3z"/>
		<path class="st2" d="M591.3,1988.9h-32.6c1.2,5.4,5.8,8.7,12.3,8.7c4.6,0,7.9-1.4,10.8-4.2l6.6,7.2c-4,4.6-10,7-17.8,7
			c-14.9,0-24.6-9.4-24.6-22.2s9.9-22.2,23-22.2s22.4,8.5,22.4,22.3C591.5,1986.5,591.4,1987.9,591.3,1988.9L591.3,1988.9z
			 M558.5,1981.6h21.2c-0.9-5.4-5-9-10.6-9S559.4,1976.1,558.5,1981.6z"/>
		<path class="st2" d="M596.6,1985.4c0-13,10-22.2,24-22.2c9.1,0,16.2,3.9,19.3,11l-9.7,5.2c-2.3-4.1-5.8-5.9-9.7-5.9
			c-6.3,0-11.3,4.4-11.3,11.9s5,11.9,11.3,11.9c3.9,0,7.4-1.8,9.7-5.9l9.7,5.3c-3.1,6.9-10.2,10.9-19.3,10.9
			C606.7,2007.6,596.6,1998.3,596.6,1985.4L596.6,1985.4z"/>
		<path class="st2" d="M645.7,1950.9c0-3.9,3.1-7,7.8-7s7.8,2.9,7.8,6.7c0,4.2-3.1,7.2-7.8,7.2S645.7,1954.8,645.7,1950.9z
			 M647.2,1963.8h12.5v43.1h-12.5V1963.8z"/>
		<path class="st2" d="M669.7,1979.4h22.7v10h-22.7V1979.4z"/>
		<path class="st2" d="M428.7,2078.4v24.7h-12.5v-22.8c0-7-3.1-10.2-8.2-10.2c-5.6,0-9.5,3.6-9.5,11.3v21.6H386v-22.8
			c0-7-3-10.2-8.2-10.2c-5.5,0-9.4,3.6-9.4,11.3v21.6h-12.5v-43.1h11.9v5c3.2-3.7,8-5.6,13.5-5.6c6,0,11.1,2.3,14.2,7.1
			c3.4-4.4,9.1-7.1,15.5-7.1C421.4,2059.3,428.7,2065.2,428.7,2078.4L428.7,2078.4z"/>
		<path class="st2" d="M482.4,2085h-32.6c1.2,5.4,5.8,8.6,12.3,8.6c4.6,0,7.8-1.4,10.8-4.2l6.7,7.2c-4,4.6-10,7-17.8,7
			c-14.9,0-24.6-9.4-24.6-22.2s9.8-22.2,23-22.2s22.4,8.5,22.4,22.4C482.6,2082.6,482.5,2084,482.4,2085L482.4,2085z M449.6,2077.7
			h21.2c-0.9-5.4-5-9-10.6-9S450.5,2072.2,449.6,2077.7z"/>
		<path class="st2" d="M535,2078.4v24.7h-12.5v-22.8c0-7-3.2-10.2-8.7-10.2c-6,0-10.3,3.7-10.3,11.6v21.3H491v-43h11.9v5.1
			c3.4-3.7,8.4-5.7,14.3-5.7C527.3,2059.3,535,2065.2,535,2078.4L535,2078.4z"/>
		<path class="st2" d="M574.1,2101c-2.6,1.8-6.3,2.7-10.2,2.7c-10.2,0-16.1-5.2-16.1-15.5v-17.7h-6.6v-9.6h6.6v-10.5h12.5v10.5H571
			v9.6h-10.7v17.5c0,3.7,2,5.7,5.4,5.7c1.8,0,3.7-0.6,5.1-1.6L574.1,2101L574.1,2101z"/>
		<path class="st2" d="M576.6,2081.5c0-13,10-22.2,23.7-22.2s23.6,9.2,23.6,22.2s-9.9,22.2-23.6,22.2S576.6,2094.5,576.6,2081.5z
			 M611.3,2081.5c0-7.4-4.7-11.9-11-11.9s-11.1,4.5-11.1,11.9s4.8,11.9,11.1,11.9S611.3,2088.9,611.3,2081.5z"/>
		<path class="st2" d="M628.1,2099l4.2-9c3.8,2.5,9.7,4.2,15,4.2c5.8,0,7.9-1.5,7.9-3.9c0-7.1-26,0.2-26-17.1
			c0-8.2,7.4-13.9,19.9-13.9c5.9,0,12.5,1.4,16.6,3.8l-4.2,8.9c-4.2-2.4-8.5-3.2-12.4-3.2c-5.6,0-8,1.8-8,4c0,7.4,26,0.2,26,17.2
			c0,8-7.4,13.7-20.3,13.7C639.5,2103.7,632.1,2101.7,628.1,2099z"/>
		<path class="st2" d="M334.5,2195.2l4.2-9c3.8,2.5,9.7,4.2,15,4.2c5.8,0,7.9-1.5,7.9-3.9c0-7.1-26,0.2-26-17.1
			c0-8.2,7.4-13.9,19.9-13.9c5.9,0,12.5,1.4,16.6,3.8l-4.2,8.9c-4.2-2.4-8.5-3.2-12.4-3.2c-5.6,0-8,1.8-8,4c0,7.4,26,0.2,26,17.2
			c0,8-7.4,13.7-20.3,13.7C345.9,2199.8,338.5,2197.8,334.5,2195.2L334.5,2195.2z"/>
		<path class="st2" d="M423.1,2181.2h-32.6c1.2,5.4,5.8,8.6,12.3,8.6c4.6,0,7.8-1.4,10.8-4.2l6.7,7.2c-4,4.6-10,7-17.8,7
			c-14.9,0-24.6-9.4-24.6-22.2s9.8-22.2,23-22.2s22.4,8.5,22.4,22.4C423.4,2178.7,423.2,2180.1,423.1,2181.2L423.1,2181.2z
			 M390.4,2173.9h21.2c-0.9-5.4-5-9-10.6-9S391.3,2168.3,390.4,2173.9z"/>
		<path class="st2" d="M459.5,2197.1c-2.6,1.8-6.3,2.7-10.2,2.7c-10.2,0-16.1-5.2-16.1-15.5v-17.7h-6.7v-9.6h6.7v-10.5h12.5v10.5
			h10.7v9.6h-10.7v17.5c0,3.7,2,5.7,5.4,5.7c1.8,0,3.7-0.6,5.1-1.6L459.5,2197.1L459.5,2197.1z"/>
		<path class="st2" d="M462,2177.6c0-13,10-22.2,23.7-22.2s23.6,9.2,23.6,22.2s-9.9,22.2-23.6,22.2S462,2190.6,462,2177.6z
			 M496.7,2177.6c0-7.4-4.7-11.9-11-11.9s-11.1,4.5-11.1,11.9s4.8,11.9,11.1,11.9S496.7,2185.1,496.7,2177.6z"/>
		<path class="st2" d="M544.4,2155.4v11.5c-1-0.1-1.8-0.2-2.8-0.2c-6.9,0-11.4,3.8-11.4,12v20.3h-12.5v-43.1h11.9v5.7
			C532.6,2157.6,537.8,2155.4,544.4,2155.4L544.4,2155.4z"/>
		<path class="st2" d="M550.3,2143.1c0-3.9,3.1-7,7.8-7s7.8,2.9,7.8,6.7c0,4.2-3.1,7.2-7.8,7.2S550.3,2147,550.3,2143.1z
			 M551.9,2156.1h12.5v43.1h-12.5V2156.1z"/>
		<path class="st2" d="M614.1,2174.6v24.6h-11.7v-5.4c-2.3,3.9-6.8,6-13.1,6c-10.1,0-16.1-5.6-16.1-13.1s5.4-12.9,18.5-12.9h9.9
			c0-5.4-3.2-8.5-9.9-8.5c-4.6,0-9.3,1.5-12.4,4l-4.5-8.7c4.7-3.4,11.7-5.2,18.6-5.2C606.5,2155.4,614.1,2161.5,614.1,2174.6
			L614.1,2174.6z M601.6,2185.6v-4.4H593c-5.9,0-7.7,2.2-7.7,5.1c0,3.1,2.6,5.2,7.1,5.2C596.6,2191.4,600.2,2189.5,601.6,2185.6z"/>
		<path class="st2" d="M623.9,2143.1c0-3.9,3.1-7,7.8-7s7.8,2.9,7.8,6.7c0,4.2-3.1,7.2-7.8,7.2S623.9,2147,623.9,2143.1z
			 M625.4,2156.1h12.5v43.1h-12.5V2156.1z"/>
		<path class="st2" d="M645.3,2195.2l4.2-9c3.8,2.5,9.7,4.2,15,4.2c5.8,0,7.9-1.5,7.9-3.9c0-7.1-26,0.2-26-17.1
			c0-8.2,7.4-13.9,19.9-13.9c5.9,0,12.5,1.4,16.6,3.8l-4.2,8.9c-4.2-2.4-8.5-3.2-12.4-3.2c-5.6,0-8,1.8-8,4c0,7.4,26,0.2,26,17.2
			c0,8-7.4,13.7-20.3,13.7C656.7,2199.8,649.3,2197.8,645.3,2195.2z"/>
	</g>
</g>
<g>
	<circle class="st3" cx="2047.5" cy="2071.9" r="367.5"/>
	<g>
		<path class="st2" d="M1887.7,2092.6v10.4h-43.4v-56h42.4v10.4h-29.5v12.2h26v10.1h-26v13L1887.7,2092.6L1887.7,2092.6z"/>
		<path class="st2" d="M1893.7,2081.5c0-13,10-22.2,24-22.2c9.1,0,16.2,3.9,19.3,11l-9.7,5.2c-2.3-4.1-5.8-5.9-9.7-5.9
			c-6.3,0-11.3,4.4-11.3,11.9s5,11.9,11.3,11.9c3.9,0,7.4-1.8,9.7-5.9l9.7,5.3c-3.1,6.9-10.2,10.9-19.3,10.9
			C1903.7,2103.7,1893.7,2094.5,1893.7,2081.5L1893.7,2081.5z"/>
		<path class="st2" d="M1940.4,2081.5c0-13,10-22.2,23.7-22.2s23.6,9.2,23.6,22.2s-9.9,22.2-23.6,22.2S1940.4,2094.5,1940.4,2081.5z
			 M1975.1,2081.5c0-7.4-4.7-11.9-11-11.9s-11,4.5-11,11.9s4.8,11.9,11,11.9S1975.1,2088.9,1975.1,2081.5z"/>
		<path class="st2" d="M2040.2,2078.4v24.7h-12.5v-22.8c0-7-3.2-10.2-8.7-10.2c-6,0-10.3,3.7-10.3,11.6v21.3h-12.5v-43.1h11.9v5.1
			c3.4-3.7,8.4-5.7,14.3-5.7C2032.5,2059.3,2040.1,2065.2,2040.2,2078.4L2040.2,2078.4z"/>
		<path class="st2" d="M2048.7,2081.5c0-13,10-22.2,23.7-22.2s23.6,9.2,23.6,22.2s-9.9,22.2-23.6,22.2S2048.7,2094.5,2048.7,2081.5z
			 M2083.4,2081.5c0-7.4-4.7-11.9-11-11.9s-11,4.5-11,11.9s4.8,11.9,11,11.9S2083.4,2088.9,2083.4,2081.5z"/>
		<path class="st2" d="M2177.2,2078.4v24.7h-12.5v-22.8c0-7-3.1-10.2-8.2-10.2c-5.6,0-9.5,3.6-9.5,11.3v21.6h-12.5v-22.8
			c0-7-3-10.2-8.2-10.2c-5.5,0-9.5,3.6-9.5,11.3v21.6h-12.5v-43.1h11.9v5c3.2-3.7,8-5.6,13.5-5.6c6,0,11.1,2.3,14.2,7.1
			c3.4-4.4,9.1-7.1,15.5-7.1C2169.8,2059.3,2177.2,2065.2,2177.2,2078.4L2177.2,2078.4z"/>
		<path class="st2" d="M2186.9,2047c0-3.9,3.1-7,7.8-7s7.8,2.9,7.8,6.7c0,4.2-3.1,7.2-7.8,7.2S2186.9,2050.9,2186.9,2047z
			 M2188.4,2059.9h12.5v43.1h-12.5V2059.9z"/>
		<path class="st2" d="M2250.7,2078.5v24.6H2239v-5.4c-2.3,3.9-6.8,6-13.1,6c-10.1,0-16.1-5.6-16.1-13.1s5.4-12.9,18.5-12.9h9.9
			c0-5.4-3.2-8.5-9.9-8.5c-4.6,0-9.3,1.5-12.4,4l-4.5-8.7c4.7-3.4,11.7-5.2,18.6-5.2C2243.1,2059.3,2250.7,2065.4,2250.7,2078.5
			L2250.7,2078.5z M2238.2,2089.4v-4.4h-8.6c-5.8,0-7.7,2.2-7.7,5.1c0,3.1,2.6,5.2,7.1,5.2
			C2233.1,2095.3,2236.7,2093.4,2238.2,2089.4z"/>
	</g>
</g>
</svg>
