<?xml version="1.0" encoding="UTF-8"?>
<svg id="Layer_1" data-name="Layer 1" xmlns="http://www.w3.org/2000/svg" viewBox="0 0 906.35 716.82">
  <defs>
    <style>
      .cls-1, .cls-2 {
        fill: #fff;
      }

      .cls-3, .cls-4 {
        opacity: .8;
      }

      .cls-3, .cls-5 {
        fill: #036697;
      }

      .cls-4 {
        fill: #008686;
      }

      .cls-6 {
        fill: #00d7b9;
      }

      .cls-7 {
        font-size: 73.06px;
      }

      .cls-7, .cls-8, .cls-9, .cls-2, .cls-10 {
        stroke: #006684;
        stroke-miterlimit: 10;
      }

      .cls-7, .cls-8, .cls-9, .cls-10 {
        fill: none;
        font-family: Montserrat-ExtraBold, Montserrat;
        font-weight: 700;
      }

      .cls-8 {
        font-size: 73.5px;
      }

      .cls-11 {
        fill: #006684;
      }

      .cls-12 {
        fill: #b9edeb;
      }

      .cls-13 {
        fill: #0b6b97;
      }

      .cls-9 {
        font-size: 71.35px;
      }

      .cls-14 {
        fill: #74b7ce;
      }

      .cls-10 {
        font-size: 76.75px;
      }
    </style>
  </defs>
  <g>
    <path class="cls-4" d="m222.76,199.98v-22.89c-89.81,3.94-161.89,76.03-165.83,165.83h22.89c3.9-77.16,65.78-139.04,142.94-142.94Z"/>
    <path class="cls-4" d="m381.2,342.92h22.89c-3.91-89.07-74.85-160.71-163.62-165.73v22.95c76.13,4.97,136.86,66.35,140.73,142.77Z"/>
    <path class="cls-4" d="m79.99,360.63h-22.95c5.02,88.77,76.66,159.71,165.73,163.62v-22.89c-76.42-3.87-137.81-64.6-142.77-140.73Z"/>
    <path class="cls-4" d="m240.47,501.19v22.95c88.04-4.98,158.53-75.48,163.51-163.51h-22.95c-4.92,75.39-65.17,135.64-140.56,140.56Z"/>
  </g>
  <g>
    <path class="cls-13" d="m210.37,546.66c-48.27-4.9-92.91-27.46-125.69-63.53-33-36.31-51.18-83.36-51.18-132.46s18.18-96.15,51.18-132.46c32.78-36.06,77.41-58.62,125.69-63.53l.1,1c-100.32,10.19-175.97,94.02-175.97,195s75.65,184.81,175.97,195l-.1.99Z"/>
    <g>
      <path class="cls-13" d="m231.59,547.68v-1c107.48-.57,194.93-88.5,194.93-196.01s-87.45-195.43-194.94-196.01v-1c52.4.28,101.62,20.9,138.59,58.05,36.98,37.17,57.35,86.52,57.35,138.95s-20.37,101.78-57.35,138.95c-36.97,37.16-86.19,57.77-138.58,58.05Z"/>
      <path class="cls-13" d="m231.61,155.32c-.62-.02-1.11-.53-1.1-1.16.02-.62.53-1.11,1.16-1.1.62.02,1.11.53,1.1,1.16-.02.62-.53,1.11-1.16,1.1Z"/>
      <path class="cls-13" d="m231.61,546.02c-.62.02-1.11.53-1.1,1.16.02.62.53,1.11,1.16,1.1.62-.02,1.11-.53,1.1-1.16-.02-.62-.53-1.11-1.16-1.1Z"/>
    </g>
  </g>
  <path class="cls-5" d="m230.51,514.99c-90.6,0-164.32-73.71-164.32-164.32s73.71-164.32,164.32-164.32,164.32,73.71,164.32,164.32-73.71,164.32-164.32,164.32Zm0-325.63c-88.95,0-161.32,72.37-161.32,161.32s72.37,161.32,161.32,161.32,161.32-72.37,161.32-161.32-72.37-161.32-161.32-161.32Z"/>
  <g>
    <path class="cls-11" d="m129.09,355.58v4.44h-18.53v-23.93h18.08v4.44h-12.58v5.2h11.11v4.31h-11.11v5.54h13.02Z"/>
    <path class="cls-11" d="m131.2,358.32l1.78-3.83c1.64,1.06,4.14,1.78,6.39,1.78,2.46,0,3.38-.65,3.38-1.67,0-3.01-11.11.07-11.11-7.28,0-3.49,3.14-5.95,8.51-5.95,2.53,0,5.33.58,7.08,1.61l-1.78,3.79c-1.81-1.03-3.62-1.37-5.3-1.37-2.39,0-3.42.75-3.42,1.71,0,3.14,11.11.1,11.11,7.35,0,3.42-3.18,5.84-8.68,5.84-3.11,0-6.25-.85-7.96-1.98Z"/>
    <path class="cls-11" d="m162.98,359.14c-1.09.79-2.7,1.16-4.34,1.16-4.34,0-6.87-2.22-6.87-6.6v-7.55h-2.84v-4.1h2.84v-4.48h5.33v4.48h4.58v4.1h-4.58v7.49c0,1.57.85,2.43,2.29,2.43.79,0,1.57-.24,2.15-.68l1.44,3.76Z"/>
    <path class="cls-11" d="m182.26,349.53v10.49h-4.99v-2.29c-.99,1.67-2.91,2.56-5.61,2.56-4.31,0-6.87-2.39-6.87-5.57s2.29-5.5,7.9-5.5h4.24c0-2.29-1.37-3.62-4.24-3.62-1.95,0-3.96.65-5.3,1.71l-1.91-3.73c2.02-1.44,4.99-2.22,7.93-2.22,5.61,0,8.85,2.6,8.85,8.17Zm-5.33,4.68v-1.88h-3.66c-2.5,0-3.28.92-3.28,2.15,0,1.33,1.13,2.22,3.01,2.22,1.78,0,3.32-.82,3.93-2.5Z"/>
    <path class="cls-11" d="m206.01,334.66v25.36h-5.09v-2.12c-1.33,1.61-3.28,2.39-5.74,2.39-5.2,0-9.19-3.69-9.19-9.47s4-9.47,9.19-9.47c2.26,0,4.17.72,5.5,2.22v-8.92h5.33Zm-5.23,16.17c0-3.18-2.05-5.09-4.68-5.09s-4.72,1.91-4.72,5.09,2.05,5.09,4.72,5.09,4.68-1.91,4.68-5.09Z"/>
    <path class="cls-11" d="m209.56,350.83c0-5.54,4.27-9.47,10.12-9.47s10.08,3.93,10.08,9.47-4.24,9.47-10.08,9.47-10.12-3.93-10.12-9.47Zm14.8,0c0-3.18-2.02-5.09-4.68-5.09s-4.72,1.91-4.72,5.09,2.05,5.09,4.72,5.09,4.68-1.91,4.68-5.09Z"/>
    <path class="cls-11" d="m242.99,334.66h5.33v25.36h-5.33v-25.36Z"/>
    <path class="cls-11" d="m252.62,336.1c0-1.67,1.33-2.97,3.32-2.97s3.32,1.23,3.32,2.87c0,1.78-1.33,3.08-3.32,3.08s-3.32-1.3-3.32-2.97Zm.65,5.54h5.33v18.39h-5.33v-18.39Z"/>
    <path class="cls-11" d="m283.59,350.83c0,5.78-4,9.47-9.16,9.47-2.46,0-4.44-.79-5.78-2.39v2.12h-5.09v-25.36h5.33v8.92c1.37-1.5,3.25-2.22,5.54-2.22,5.16,0,9.16,3.69,9.16,9.47Zm-5.4,0c0-3.18-2.02-5.09-4.68-5.09s-4.68,1.91-4.68,5.09,2.02,5.09,4.68,5.09,4.68-1.91,4.68-5.09Z"/>
    <path class="cls-11" d="m305.05,352.34h-13.91c.51,2.29,2.46,3.69,5.26,3.69,1.95,0,3.35-.58,4.61-1.78l2.84,3.08c-1.71,1.95-4.27,2.97-7.59,2.97-6.36,0-10.49-4-10.49-9.47s4.2-9.47,9.81-9.47,9.57,3.62,9.57,9.54c0,.41-.07.99-.1,1.44Zm-13.98-3.11h9.06c-.38-2.32-2.12-3.83-4.51-3.83s-4.17,1.47-4.55,3.83Z"/>
    <path class="cls-11" d="m320.12,341.36v4.92c-.44-.03-.79-.07-1.2-.07-2.94,0-4.89,1.61-4.89,5.13v8.68h-5.33v-18.39h5.09v2.43c1.3-1.78,3.49-2.7,6.32-2.7Z"/>
    <path class="cls-11" d="m339.46,349.53v10.49h-4.99v-2.29c-.99,1.67-2.91,2.56-5.61,2.56-4.31,0-6.87-2.39-6.87-5.57s2.29-5.5,7.9-5.5h4.24c0-2.29-1.37-3.62-4.24-3.62-1.95,0-3.96.65-5.3,1.71l-1.91-3.73c2.02-1.44,4.99-2.22,7.93-2.22,5.61,0,8.85,2.6,8.85,8.17Zm-5.33,4.68v-1.88h-3.66c-2.5,0-3.28.92-3.28,2.15,0,1.33,1.13,2.22,3.01,2.22,1.78,0,3.32-.82,3.93-2.5Z"/>
    <path class="cls-11" d="m344.28,334.66h5.33v25.36h-5.33v-25.36Z"/>
  </g>
  <path class="cls-5" d="m414.74,579.11h325.29c15.45,0,28,12.55,28,28v35.7c0,15.45-12.55,28-28,28h-325.29v-91.7h0Z"/>
  <path class="cls-5" d="m555.17,214.75h288.71c15.45,0,28,12.55,28,28v36.52c0,15.45-12.55,28-28,28h-288.71v-92.52h0Z"/>
  <g>
    <path class="cls-1" d="m638.57,265.87v3.19h-13.32v-17.2h13v3.19h-9.04v3.73h7.98v3.09h-7.98v3.98h9.36Z"/>
    <path class="cls-1" d="m641.32,267.84l1.28-2.75c1.18.76,2.97,1.28,4.59,1.28,1.77,0,2.43-.47,2.43-1.2,0-2.16-7.98.05-7.98-5.23,0-2.51,2.26-4.27,6.12-4.27,1.82,0,3.83.42,5.08,1.15l-1.28,2.73c-1.3-.74-2.6-.98-3.81-.98-1.72,0-2.46.54-2.46,1.23,0,2.26,7.98.07,7.98,5.28,0,2.46-2.28,4.2-6.24,4.2-2.24,0-4.5-.61-5.72-1.42Z"/>
    <path class="cls-1" d="m665.39,268.43c-.79.57-1.94.83-3.12.83-3.12,0-4.94-1.6-4.94-4.74v-5.43h-2.04v-2.95h2.04v-3.22h3.83v3.22h3.29v2.95h-3.29v5.38c0,1.13.61,1.74,1.65,1.74.57,0,1.13-.17,1.55-.49l1.03,2.7Z"/>
    <path class="cls-1" d="m680.47,261.53v7.54h-3.59v-1.65c-.71,1.2-2.09,1.84-4.03,1.84-3.09,0-4.94-1.72-4.94-4s1.65-3.96,5.67-3.96h3.05c0-1.65-.98-2.6-3.05-2.6-1.4,0-2.85.47-3.81,1.23l-1.38-2.68c1.45-1.03,3.59-1.6,5.7-1.6,4.03,0,6.36,1.87,6.36,5.87Zm-3.83,3.37v-1.35h-2.63c-1.79,0-2.36.66-2.36,1.55,0,.96.81,1.6,2.16,1.6,1.28,0,2.38-.59,2.83-1.79Z"/>
    <path class="cls-1" d="m698.77,250.84v18.23h-3.66v-1.52c-.96,1.16-2.36,1.72-4.13,1.72-3.73,0-6.61-2.65-6.61-6.8s2.88-6.8,6.61-6.8c1.62,0,3,.52,3.96,1.6v-6.41h3.83Zm-3.76,11.62c0-2.29-1.47-3.66-3.37-3.66s-3.39,1.38-3.39,3.66,1.47,3.66,3.39,3.66,3.37-1.38,3.37-3.66Z"/>
    <path class="cls-1" d="m702.55,262.46c0-3.98,3.07-6.8,7.27-6.8s7.25,2.83,7.25,6.8-3.05,6.8-7.25,6.8-7.27-2.83-7.27-6.8Zm10.64,0c0-2.29-1.45-3.66-3.37-3.66s-3.39,1.38-3.39,3.66,1.47,3.66,3.39,3.66,3.37-1.38,3.37-3.66Z"/>
    <path class="cls-1" d="m751.36,261.5v7.57h-3.83v-6.98c0-2.14-.96-3.12-2.51-3.12-1.72,0-2.92,1.11-2.92,3.46v6.63h-3.83v-6.98c0-2.14-.91-3.12-2.51-3.12-1.7,0-2.9,1.11-2.9,3.46v6.63h-3.83v-13.22h3.66v1.52c.98-1.13,2.46-1.72,4.15-1.72,1.84,0,3.42.71,4.35,2.16,1.06-1.35,2.78-2.16,4.77-2.16,3.14,0,5.4,1.82,5.4,5.85Z"/>
    <path class="cls-1" d="m759.02,250.62h4.13l-4.45,3.54h-3l3.32-3.54Zm-3,5.23h3.83v13.22h-3.83v-13.22Z"/>
    <path class="cls-1" d="m778.16,261.5v7.57h-3.83v-6.98c0-2.14-.98-3.12-2.68-3.12-1.84,0-3.17,1.13-3.17,3.56v6.54h-3.83v-13.22h3.66v1.55c1.03-1.13,2.58-1.74,4.37-1.74,3.12,0,5.48,1.82,5.48,5.85Z"/>
    <path class="cls-1" d="m782.38,251.87c0-1.2.96-2.14,2.38-2.14s2.38.88,2.38,2.06c0,1.28-.96,2.21-2.38,2.21s-2.38-.93-2.38-2.14Zm.47,3.98h3.83v13.22h-3.83v-13.22Z"/>
    <path class="cls-1" d="m813.8,261.5v7.57h-3.83v-6.98c0-2.14-.96-3.12-2.51-3.12-1.72,0-2.92,1.11-2.92,3.46v6.63h-3.83v-6.98c0-2.14-.91-3.12-2.51-3.12-1.7,0-2.9,1.11-2.9,3.46v6.63h-3.83v-13.22h3.66v1.52c.98-1.13,2.46-1.72,4.15-1.72,1.84,0,3.42.71,4.35,2.16,1.06-1.35,2.78-2.16,4.77-2.16,3.14,0,5.4,1.82,5.4,5.85Z"/>
    <path class="cls-1" d="m817.63,262.46c0-3.98,3.07-6.8,7.27-6.8s7.25,2.83,7.25,6.8-3.05,6.8-7.25,6.8-7.27-2.83-7.27-6.8Zm10.64,0c0-2.29-1.45-3.66-3.37-3.66s-3.39,1.38-3.39,3.66,1.47,3.66,3.39,3.66,3.37-1.38,3.37-3.66Z"/>
    <path class="cls-1" d="m834.83,266.86c0-1.42,1.06-2.36,2.38-2.36s2.38.93,2.38,2.36-1.06,2.41-2.38,2.41-2.38-1.01-2.38-2.41Z"/>
  </g>
  <g>
    <path class="cls-1" d="m478.64,611.77c0-4.64,3.56-7.96,8.36-7.96,2.66,0,4.88.97,6.34,2.73l-2.29,2.11c-1.03-1.19-2.33-1.8-3.87-1.8-2.88,0-4.93,2.02-4.93,4.93s2.05,4.93,4.93,4.93c1.54,0,2.84-.62,3.87-1.83l2.29,2.11c-1.45,1.78-3.67,2.75-6.36,2.75-4.77,0-8.34-3.32-8.34-7.96Z"/>
    <path class="cls-1" d="m508.21,607.63v11.84h-3.26v-1.41c-.9,1.03-2.22,1.58-3.67,1.58-2.97,0-5.06-1.67-5.06-5.32v-6.69h3.43v6.18c0,1.98.88,2.86,2.4,2.86s2.73-1.01,2.73-3.19v-5.85h3.43Z"/>
    <path class="cls-1" d="m512.5,603.14h3.43v16.33h-3.43v-16.33Z"/>
    <path class="cls-1" d="m528.72,618.9c-.7.51-1.74.75-2.79.75-2.79,0-4.42-1.43-4.42-4.25v-4.86h-1.83v-2.64h1.83v-2.88h3.43v2.88h2.95v2.64h-2.95v4.82c0,1.01.55,1.56,1.47,1.56.51,0,1.01-.15,1.39-.44l.92,2.42Z"/>
    <path class="cls-1" d="m543.68,607.63v11.84h-3.26v-1.41c-.9,1.03-2.22,1.58-3.67,1.58-2.97,0-5.06-1.67-5.06-5.32v-6.69h3.43v6.18c0,1.98.88,2.86,2.4,2.86s2.73-1.01,2.73-3.19v-5.85h3.43Z"/>
    <path class="cls-1" d="m555.32,607.45v3.17c-.29-.02-.51-.04-.77-.04-1.89,0-3.15,1.03-3.15,3.3v5.59h-3.43v-11.84h3.28v1.56c.84-1.14,2.25-1.74,4.07-1.74Z"/>
    <path class="cls-1" d="m568.87,612.71v6.75h-3.21v-1.47c-.64,1.08-1.87,1.65-3.61,1.65-2.77,0-4.42-1.54-4.42-3.59s1.47-3.54,5.08-3.54h2.73c0-1.47-.88-2.33-2.73-2.33-1.25,0-2.55.42-3.41,1.1l-1.23-2.4c1.3-.92,3.21-1.43,5.11-1.43,3.61,0,5.7,1.67,5.7,5.26Zm-3.43,3.01v-1.21h-2.35c-1.61,0-2.11.59-2.11,1.39,0,.86.73,1.43,1.94,1.43,1.14,0,2.13-.53,2.53-1.61Z"/>
    <path class="cls-1" d="m592.45,603.14v16.33h-3.28v-1.36c-.86,1.03-2.11,1.54-3.7,1.54-3.34,0-5.92-2.38-5.92-6.09s2.57-6.09,5.92-6.09c1.45,0,2.68.46,3.54,1.43v-5.74h3.43Zm-3.37,10.41c0-2.05-1.32-3.28-3.01-3.28s-3.04,1.23-3.04,3.28,1.32,3.28,3.04,3.28,3.01-1.23,3.01-3.28Z"/>
    <path class="cls-1" d="m595.84,613.55c0-3.56,2.75-6.09,6.51-6.09s6.49,2.53,6.49,6.09-2.73,6.09-6.49,6.09-6.51-2.53-6.51-6.09Zm9.53,0c0-2.05-1.3-3.28-3.01-3.28s-3.04,1.23-3.04,3.28,1.32,3.28,3.04,3.28,3.01-1.23,3.01-3.28Z"/>
    <path class="cls-1" d="m492.26,639.95c0,3.72-2.58,6.09-5.9,6.09-1.47,0-2.68-.46-3.56-1.43v5.52h-3.43v-16.11h3.28v1.36c.86-1.03,2.13-1.54,3.72-1.54,3.32,0,5.9,2.38,5.9,6.09Zm-3.48,0c0-2.05-1.3-3.28-3.01-3.28s-3.01,1.23-3.01,3.28,1.3,3.28,3.01,3.28,3.01-1.23,3.01-3.28Z"/>
    <path class="cls-1" d="m494.77,639.95c0-3.56,2.75-6.09,6.51-6.09s6.49,2.53,6.49,6.09-2.73,6.09-6.49,6.09-6.51-2.53-6.51-6.09Zm9.53,0c0-2.05-1.3-3.28-3.01-3.28s-3.04,1.23-3.04,3.28,1.32,3.28,3.04,3.28,3.01-1.23,3.01-3.28Z"/>
    <path class="cls-1" d="m510.02,644.77l1.14-2.46c1.06.68,2.66,1.14,4.12,1.14,1.58,0,2.18-.42,2.18-1.08,0-1.94-7.15.04-7.15-4.69,0-2.24,2.02-3.83,5.48-3.83,1.63,0,3.43.37,4.55,1.03l-1.14,2.44c-1.17-.66-2.33-.88-3.41-.88-1.54,0-2.2.48-2.2,1.1,0,2.02,7.15.07,7.15,4.73,0,2.2-2.05,3.76-5.59,3.76-2,0-4.03-.55-5.13-1.28Z"/>
    <path class="cls-1" d="m523.52,630.47c0-1.08.86-1.91,2.13-1.91s2.13.79,2.13,1.85c0,1.14-.86,1.98-2.13,1.98s-2.13-.84-2.13-1.91Zm.42,3.56h3.43v11.84h-3.43v-11.84Z"/>
    <path class="cls-1" d="m539.3,645.3c-.7.51-1.74.75-2.79.75-2.79,0-4.42-1.43-4.42-4.25v-4.86h-1.83v-2.64h1.83v-2.88h3.43v2.88h2.95v2.64h-2.95v4.82c0,1.01.55,1.56,1.47,1.56.51,0,1.01-.15,1.39-.44l.92,2.42Z"/>
    <path class="cls-1" d="m541.92,630.47c0-1.08.86-1.91,2.13-1.91s2.13.79,2.13,1.85c0,1.14-.86,1.98-2.13,1.98s-2.13-.84-2.13-1.91Zm.42,3.56h3.43v11.84h-3.43v-11.84Z"/>
    <path class="cls-1" d="m561.81,634.03l-5,11.84h-3.54l-4.97-11.84h3.54l3.28,8.05,3.39-8.05h3.3Z"/>
    <path class="cls-1" d="m563.89,630.47c0-1.08.86-1.91,2.13-1.91s2.13.79,2.13,1.85c0,1.14-.86,1.98-2.13,1.98s-2.13-.84-2.13-1.91Zm.42,3.56h3.43v11.84h-3.43v-11.84Z"/>
    <path class="cls-1" d="m570.89,644.77l1.14-2.46c1.06.68,2.66,1.14,4.12,1.14,1.58,0,2.18-.42,2.18-1.08,0-1.94-7.15.04-7.15-4.69,0-2.24,2.02-3.83,5.48-3.83,1.63,0,3.43.37,4.55,1.03l-1.14,2.44c-1.17-.66-2.33-.88-3.41-.88-1.54,0-2.2.48-2.2,1.1,0,2.02,7.15.07,7.15,4.73,0,2.2-2.05,3.76-5.59,3.76-2,0-4.03-.55-5.13-1.28Z"/>
    <path class="cls-1" d="m604.82,639.09v6.78h-3.43v-6.25c0-1.91-.86-2.79-2.24-2.79-1.54,0-2.62.99-2.62,3.1v5.94h-3.43v-6.25c0-1.91-.81-2.79-2.24-2.79-1.52,0-2.6.99-2.6,3.1v5.94h-3.43v-11.84h3.28v1.36c.88-1.01,2.2-1.54,3.72-1.54,1.65,0,3.06.64,3.89,1.94.95-1.21,2.49-1.94,4.27-1.94,2.82,0,4.84,1.63,4.84,5.24Z"/>
    <path class="cls-1" d="m608.25,639.95c0-3.56,2.75-6.09,6.51-6.09s6.49,2.53,6.49,6.09-2.73,6.09-6.49,6.09-6.51-2.53-6.51-6.09Zm9.53,0c0-2.05-1.3-3.28-3.01-3.28s-3.04,1.23-3.04,3.28,1.32,3.28,3.04,3.28,3.01-1.23,3.01-3.28Z"/>
    <path class="cls-1" d="m631.96,629.54h3.43v16.33h-3.43v-16.33Z"/>
    <path class="cls-1" d="m651.21,640.92h-8.96c.33,1.47,1.58,2.38,3.39,2.38,1.25,0,2.16-.37,2.97-1.14l1.83,1.98c-1.1,1.25-2.75,1.91-4.88,1.91-4.09,0-6.75-2.57-6.75-6.09s2.71-6.09,6.31-6.09,6.16,2.33,6.16,6.14c0,.26-.04.64-.07.92Zm-9-2h5.83c-.24-1.5-1.36-2.46-2.9-2.46s-2.68.95-2.93,2.46Z"/>
    <path class="cls-1" d="m666.88,634.03v9.86c0,4.4-2.38,6.42-6.64,6.42-2.25,0-4.42-.55-5.81-1.63l1.36-2.46c1.01.81,2.66,1.34,4.18,1.34,2.42,0,3.48-1.1,3.48-3.23v-.51c-.9.99-2.2,1.47-3.74,1.47-3.28,0-5.92-2.27-5.92-5.72s2.64-5.72,5.92-5.72c1.65,0,3.01.55,3.92,1.69v-1.52h3.26Zm-3.39,5.54c0-1.74-1.3-2.9-3.1-2.9s-3.12,1.17-3.12,2.9,1.32,2.9,3.12,2.9,3.1-1.17,3.1-2.9Z"/>
    <path class="cls-1" d="m681.64,639.11v6.75h-3.21v-1.47c-.64,1.08-1.87,1.65-3.61,1.65-2.77,0-4.42-1.54-4.42-3.59s1.47-3.54,5.08-3.54h2.73c0-1.47-.88-2.33-2.73-2.33-1.25,0-2.55.42-3.41,1.1l-1.23-2.4c1.3-.92,3.21-1.43,5.11-1.43,3.61,0,5.7,1.67,5.7,5.26Zm-3.43,3.01v-1.21h-2.35c-1.61,0-2.11.59-2.11,1.39,0,.86.73,1.43,1.94,1.43,1.14,0,2.13-.53,2.53-1.61Z"/>
    <path class="cls-1" d="m685.84,629.54h3.43v16.33h-3.43v-16.33Z"/>
    <path class="cls-1" d="m693.14,630.47c0-1.08.86-1.91,2.13-1.91s2.13.79,2.13,1.85c0,1.14-.86,1.98-2.13,1.98s-2.13-.84-2.13-1.91Zm.42,3.56h3.43v11.84h-3.43v-11.84Z"/>
    <path class="cls-1" d="m700.14,644.77l1.14-2.46c1.06.68,2.66,1.14,4.12,1.14,1.58,0,2.18-.42,2.18-1.08,0-1.94-7.15.04-7.15-4.69,0-2.24,2.02-3.83,5.48-3.83,1.63,0,3.43.37,4.55,1.03l-1.14,2.44c-1.17-.66-2.33-.88-3.41-.88-1.54,0-2.2.48-2.2,1.1,0,2.02,7.15.07,7.15,4.73,0,2.2-2.05,3.76-5.59,3.76-2,0-4.03-.55-5.13-1.28Z"/>
    <path class="cls-1" d="m721.7,645.3c-.7.51-1.74.75-2.79.75-2.79,0-4.42-1.43-4.42-4.25v-4.86h-1.83v-2.64h1.83v-2.88h3.43v2.88h2.95v2.64h-2.95v4.82c0,1.01.55,1.56,1.47,1.56.51,0,1.01-.15,1.39-.44l.92,2.42Z"/>
    <path class="cls-1" d="m735.21,639.11v6.75h-3.21v-1.47c-.64,1.08-1.87,1.65-3.61,1.65-2.77,0-4.42-1.54-4.42-3.59s1.47-3.54,5.08-3.54h2.73c0-1.47-.88-2.33-2.73-2.33-1.25,0-2.55.42-3.41,1.1l-1.23-2.4c1.3-.92,3.21-1.43,5.11-1.43,3.61,0,5.7,1.67,5.7,5.26Zm-3.43,3.01v-1.21h-2.35c-1.61,0-2.11.59-2.11,1.39,0,.86.73,1.43,1.94,1.43,1.14,0,2.13-.53,2.53-1.61Z"/>
    <path class="cls-1" d="m738.57,643.89c0-1.28.95-2.11,2.13-2.11s2.13.84,2.13,2.11-.95,2.16-2.13,2.16-2.13-.9-2.13-2.16Z"/>
  </g>
  <path class="cls-3" d="m414.74,30.53h325.29c15.45,0,28,12.55,28,28v35.7c0,15.45-12.55,28-28,28h-325.29V30.53h0Z"/>
  <g>
    <path class="cls-1" d="m501.43,81.15v3.19h-13.32v-17.2h13v3.19h-9.04v3.73h7.98v3.09h-7.98v3.98h9.36Z"/>
    <path class="cls-1" d="m504.18,83.12l1.28-2.75c1.18.76,2.97,1.28,4.59,1.28,1.77,0,2.43-.47,2.43-1.2,0-2.16-7.98.05-7.98-5.23,0-2.51,2.26-4.27,6.12-4.27,1.82,0,3.83.42,5.08,1.15l-1.28,2.73c-1.3-.74-2.6-.98-3.81-.98-1.72,0-2.46.54-2.46,1.23,0,2.26,7.98.07,7.98,5.28,0,2.46-2.28,4.2-6.24,4.2-2.24,0-4.5-.61-5.72-1.42Z"/>
    <path class="cls-1" d="m528.25,83.71c-.79.57-1.94.83-3.12.83-3.12,0-4.94-1.6-4.94-4.74v-5.43h-2.04v-2.95h2.04v-3.22h3.83v3.22h3.29v2.95h-3.29v5.38c0,1.13.61,1.74,1.65,1.74.57,0,1.13-.17,1.55-.49l1.03,2.7Z"/>
    <path class="cls-1" d="m543.33,76.8v7.54h-3.59v-1.65c-.71,1.2-2.09,1.84-4.03,1.84-3.09,0-4.94-1.72-4.94-4s1.65-3.96,5.67-3.96h3.05c0-1.65-.98-2.6-3.05-2.6-1.4,0-2.85.47-3.81,1.23l-1.38-2.68c1.45-1.03,3.59-1.6,5.7-1.6,4.03,0,6.36,1.87,6.36,5.87Zm-3.83,3.37v-1.35h-2.63c-1.79,0-2.36.66-2.36,1.55,0,.96.81,1.6,2.16,1.6,1.28,0,2.38-.59,2.83-1.79Z"/>
    <path class="cls-1" d="m561.63,66.12v18.23h-3.66v-1.52c-.96,1.16-2.36,1.72-4.13,1.72-3.73,0-6.61-2.65-6.61-6.8s2.88-6.8,6.61-6.8c1.62,0,3,.52,3.96,1.6v-6.41h3.83Zm-3.76,11.62c0-2.29-1.47-3.66-3.37-3.66s-3.39,1.38-3.39,3.66,1.47,3.66,3.39,3.66,3.37-1.38,3.37-3.66Z"/>
    <path class="cls-1" d="m565.41,77.74c0-3.98,3.07-6.8,7.27-6.8s7.25,2.83,7.25,6.8-3.05,6.8-7.25,6.8-7.27-2.83-7.27-6.8Zm10.64,0c0-2.29-1.45-3.66-3.37-3.66s-3.39,1.38-3.39,3.66,1.47,3.66,3.39,3.66,3.37-1.38,3.37-3.66Z"/>
    <path class="cls-1" d="m583.47,75.9h6.95v3.07h-6.95v-3.07Z"/>
    <path class="cls-1" d="m594.67,66.12h3.83v18.23h-3.83v-18.23Z"/>
    <path class="cls-1" d="m616.16,78.82h-10c.37,1.65,1.77,2.65,3.78,2.65,1.4,0,2.41-.42,3.32-1.28l2.04,2.21c-1.23,1.4-3.07,2.14-5.45,2.14-4.57,0-7.54-2.87-7.54-6.8s3.02-6.8,7.05-6.8,6.88,2.6,6.88,6.85c0,.29-.05.71-.07,1.03Zm-10.05-2.24h6.51c-.27-1.67-1.52-2.75-3.24-2.75s-3,1.06-3.27,2.75Z"/>
    <path class="cls-1" d="m633.65,71.13v11.01c0,4.91-2.65,7.17-7.42,7.17-2.51,0-4.94-.61-6.49-1.82l1.52-2.75c1.13.91,2.97,1.5,4.67,1.5,2.7,0,3.88-1.23,3.88-3.61v-.57c-1.01,1.11-2.46,1.65-4.18,1.65-3.66,0-6.61-2.53-6.61-6.39s2.95-6.39,6.61-6.39c1.84,0,3.37.61,4.37,1.89v-1.7h3.64Zm-3.78,6.19c0-1.94-1.45-3.24-3.46-3.24s-3.49,1.3-3.49,3.24,1.47,3.24,3.49,3.24,3.46-1.3,3.46-3.24Z"/>
    <path class="cls-1" d="m637.97,67.15c0-1.2.96-2.14,2.38-2.14s2.38.88,2.38,2.06c0,1.28-.96,2.21-2.38,2.21s-2.38-.93-2.38-2.14Zm.47,3.98h3.83v13.22h-3.83v-13.22Z"/>
    <path class="cls-1" d="m645.78,83.12l1.28-2.75c1.18.76,2.97,1.28,4.59,1.28,1.77,0,2.43-.47,2.43-1.2,0-2.16-7.98.05-7.98-5.23,0-2.51,2.26-4.27,6.12-4.27,1.82,0,3.83.42,5.08,1.15l-1.28,2.73c-1.3-.74-2.6-.98-3.81-.98-1.72,0-2.46.54-2.46,1.23,0,2.26,7.98.07,7.98,5.28,0,2.46-2.28,4.2-6.24,4.2-2.24,0-4.5-.61-5.72-1.42Z"/>
    <path class="cls-1" d="m661.33,66.12h3.83v18.23h-3.83v-18.23Z"/>
    <path class="cls-1" d="m681.65,76.8v7.54h-3.59v-1.65c-.71,1.2-2.09,1.84-4.03,1.84-3.1,0-4.94-1.72-4.94-4s1.65-3.96,5.67-3.96h3.05c0-1.65-.98-2.6-3.05-2.6-1.4,0-2.85.47-3.81,1.23l-1.38-2.68c1.45-1.03,3.59-1.6,5.7-1.6,4.03,0,6.36,1.87,6.36,5.87Zm-3.83,3.37v-1.35h-2.63c-1.79,0-2.36.66-2.36,1.55,0,.96.81,1.6,2.16,1.6,1.28,0,2.38-.59,2.83-1.79Z"/>
    <path class="cls-1" d="m699.95,66.12v18.23h-3.66v-1.52c-.96,1.16-2.36,1.72-4.13,1.72-3.73,0-6.61-2.65-6.61-6.8s2.88-6.8,6.61-6.8c1.62,0,3,.52,3.96,1.6v-6.41h3.83Zm-3.76,11.62c0-2.29-1.47-3.66-3.37-3.66s-3.39,1.38-3.39,3.66,1.47,3.66,3.39,3.66,3.37-1.38,3.37-3.66Z"/>
    <path class="cls-1" d="m703.73,77.74c0-3.98,3.07-6.8,7.27-6.8s7.25,2.83,7.25,6.8-3.05,6.8-7.25,6.8-7.27-2.83-7.27-6.8Zm10.64,0c0-2.29-1.45-3.66-3.37-3.66s-3.39,1.38-3.39,3.66,1.47,3.66,3.39,3.66,3.37-1.38,3.37-3.66Z"/>
    <path class="cls-1" d="m730.23,70.93v3.54c-.32-.02-.56-.05-.86-.05-2.11,0-3.51,1.15-3.51,3.68v6.24h-3.83v-13.22h3.66v1.74c.93-1.28,2.5-1.94,4.54-1.94Z"/>
    <path class="cls-1" d="m732.66,82.14c0-1.42,1.06-2.36,2.38-2.36s2.38.93,2.38,2.36-1.06,2.41-2.38,2.41-2.38-1.01-2.38-2.41Z"/>
  </g>
  <path class="cls-3" d="m555.17,393.66h284.42c15.45,0,28,12.55,28,28v36.52c0,15.45-12.55,28-28,28h-284.42v-92.52h0Z"/>
  <g>
    <path class="cls-1" d="m632.31,431.43v2.86h-11.93v-15.4h11.64v2.86h-8.1v3.34h7.15v2.77h-7.15v3.56h8.38Z"/>
    <path class="cls-1" d="m634.78,433.19l1.14-2.46c1.06.68,2.66,1.14,4.12,1.14,1.58,0,2.18-.42,2.18-1.08,0-1.94-7.15.04-7.15-4.69,0-2.24,2.02-3.83,5.48-3.83,1.63,0,3.43.37,4.55,1.03l-1.14,2.44c-1.17-.66-2.33-.88-3.41-.88-1.54,0-2.2.48-2.2,1.1,0,2.02,7.15.07,7.15,4.73,0,2.2-2.05,3.76-5.59,3.76-2,0-4.03-.55-5.13-1.28Z"/>
    <path class="cls-1" d="m656.34,433.72c-.7.51-1.74.75-2.79.75-2.79,0-4.42-1.43-4.42-4.25v-4.86h-1.83v-2.64h1.83v-2.88h3.43v2.88h2.95v2.64h-2.95v4.82c0,1.01.55,1.56,1.47,1.56.51,0,1.01-.15,1.39-.44l.92,2.42Z"/>
    <path class="cls-1" d="m669.85,427.54v6.75h-3.21v-1.47c-.64,1.08-1.87,1.65-3.61,1.65-2.77,0-4.42-1.54-4.42-3.59s1.47-3.54,5.08-3.54h2.73c0-1.47-.88-2.33-2.73-2.33-1.25,0-2.55.42-3.41,1.1l-1.23-2.4c1.3-.92,3.21-1.43,5.11-1.43,3.61,0,5.7,1.67,5.7,5.26Zm-3.43,3.01v-1.21h-2.35c-1.61,0-2.11.59-2.11,1.39,0,.86.73,1.43,1.94,1.43,1.14,0,2.13-.53,2.53-1.61Z"/>
    <path class="cls-1" d="m686.23,417.97v16.33h-3.28v-1.36c-.86,1.03-2.11,1.54-3.7,1.54-3.34,0-5.92-2.38-5.92-6.09s2.57-6.09,5.92-6.09c1.45,0,2.68.46,3.54,1.43v-5.74h3.43Zm-3.37,10.41c0-2.05-1.32-3.28-3.01-3.28s-3.04,1.23-3.04,3.28,1.32,3.28,3.04,3.28,3.01-1.23,3.01-3.28Z"/>
    <path class="cls-1" d="m689.62,428.38c0-3.56,2.75-6.09,6.51-6.09s6.49,2.53,6.49,6.09-2.73,6.09-6.49,6.09-6.51-2.53-6.51-6.09Zm9.53,0c0-2.05-1.3-3.28-3.01-3.28s-3.04,1.23-3.04,3.28,1.32,3.28,3.04,3.28,3.01-1.23,3.01-3.28Z"/>
    <path class="cls-1" d="m725.44,427.52v6.78h-3.43v-6.25c0-1.91-.88-2.79-2.4-2.79-1.65,0-2.84,1.01-2.84,3.19v5.85h-3.43v-11.84h3.28v1.39c.92-1.01,2.31-1.56,3.92-1.56,2.79,0,4.91,1.63,4.91,5.24Z"/>
    <path class="cls-1" d="m740.11,427.54v6.75h-3.21v-1.47c-.64,1.08-1.87,1.65-3.61,1.65-2.77,0-4.42-1.54-4.42-3.59s1.47-3.54,5.08-3.54h2.73c0-1.47-.88-2.33-2.73-2.33-1.25,0-2.55.42-3.41,1.1l-1.23-2.4c1.3-.92,3.21-1.43,5.11-1.43,3.61,0,5.7,1.67,5.7,5.26Zm-7.83-6.69h-1.74c.04-1.96,1.03-3.21,2.57-3.21s2.29,1.41,3.08,1.41c.59,0,1.01-.46,1.06-1.19h1.74c-.04,1.89-1.03,3.15-2.57,3.15s-2.29-1.39-3.08-1.39c-.59,0-1.01.44-1.06,1.23Zm4.4,9.7v-1.21h-2.35c-1.61,0-2.11.59-2.11,1.39,0,.86.73,1.43,1.94,1.43,1.14,0,2.13-.53,2.53-1.61Z"/>
    <path class="cls-1" d="m743.56,428.38c0-3.56,2.75-6.09,6.51-6.09s6.49,2.53,6.49,6.09-2.73,6.09-6.49,6.09-6.51-2.53-6.51-6.09Zm9.53,0c0-2.05-1.3-3.28-3.01-3.28s-3.04,1.23-3.04,3.28,1.32,3.28,3.04,3.28,3.01-1.23,3.01-3.28Z"/>
    <path class="cls-1" d="m619.73,445.29c0-1.08.86-1.91,2.13-1.91s2.13.79,2.13,1.85c0,1.14-.86,1.98-2.13,1.98s-2.13-.84-2.13-1.91Zm.42,3.56h3.43v11.84h-3.43v-11.84Z"/>
    <path class="cls-1" d="m639.97,453.92v6.78h-3.43v-6.25c0-1.91-.88-2.79-2.4-2.79-1.65,0-2.84,1.01-2.84,3.19v5.85h-3.43v-11.84h3.28v1.39c.92-1.01,2.31-1.56,3.92-1.56,2.79,0,4.91,1.63,4.91,5.24Z"/>
    <path class="cls-1" d="m651.81,460.12c-.7.51-1.74.75-2.79.75-2.79,0-4.42-1.43-4.42-4.25v-4.86h-1.83v-2.64h1.83v-2.88h3.43v2.88h2.95v2.64h-2.95v4.82c0,1.01.55,1.56,1.47,1.56.51,0,1.01-.15,1.39-.44l.92,2.42Z"/>
    <path class="cls-1" d="m666,455.74h-8.96c.33,1.47,1.58,2.38,3.39,2.38,1.25,0,2.16-.37,2.97-1.14l1.83,1.98c-1.1,1.25-2.75,1.91-4.88,1.91-4.09,0-6.75-2.57-6.75-6.09s2.71-6.09,6.31-6.09,6.16,2.33,6.16,6.14c0,.26-.04.64-.07.92Zm-9-2h5.83c-.24-1.5-1.36-2.46-2.9-2.46s-2.68.95-2.93,2.46Z"/>
    <path class="cls-1" d="m676.8,448.68v3.17c-.29-.02-.51-.04-.77-.04-1.89,0-3.15,1.03-3.15,3.3v5.59h-3.43v-11.84h3.28v1.56c.84-1.14,2.25-1.74,4.07-1.74Z"/>
    <path class="cls-1" d="m692.11,448.86l-5,11.84h-3.54l-4.97-11.84h3.54l3.28,8.05,3.39-8.05h3.3Z"/>
    <path class="cls-1" d="m705.82,455.74h-8.96c.33,1.47,1.58,2.38,3.39,2.38,1.25,0,2.16-.37,2.97-1.14l1.83,1.98c-1.1,1.25-2.75,1.91-4.88,1.91-4.09,0-6.75-2.57-6.75-6.09s2.71-6.09,6.31-6.09,6.16,2.33,6.16,6.14c0,.26-.04.64-.07.92Zm-9-2h5.83c-.24-1.5-1.36-2.46-2.9-2.46s-2.68.95-2.93,2.46Z"/>
    <path class="cls-1" d="m721.37,453.92v6.78h-3.43v-6.25c0-1.91-.88-2.79-2.4-2.79-1.65,0-2.84,1.01-2.84,3.19v5.85h-3.43v-11.84h3.28v1.39c.92-1.01,2.31-1.56,3.92-1.56,2.79,0,4.91,1.63,4.91,5.24Z"/>
    <path class="cls-1" d="m724.82,454.78c0-3.56,2.75-6.09,6.6-6.09,2.49,0,4.45,1.08,5.3,3.01l-2.66,1.43c-.64-1.12-1.58-1.63-2.66-1.63-1.74,0-3.1,1.21-3.1,3.28s1.36,3.28,3.1,3.28c1.08,0,2.02-.48,2.66-1.63l2.66,1.45c-.86,1.89-2.82,2.99-5.3,2.99-3.85,0-6.6-2.53-6.6-6.09Z"/>
    <path class="cls-1" d="m739.39,445.29c0-1.08.86-1.91,2.13-1.91s2.13.79,2.13,1.85c0,1.14-.86,1.98-2.13,1.98s-2.13-.84-2.13-1.91Zm.42,3.56h3.43v11.84h-3.43v-11.84Z"/>
    <path class="cls-1" d="m746.65,454.78c0-3.56,2.75-6.09,6.51-6.09s6.49,2.53,6.49,6.09-2.73,6.09-6.49,6.09-6.51-2.53-6.51-6.09Zm9.53,0c0-2.05-1.3-3.28-3.01-3.28s-3.04,1.23-3.04,3.28,1.32,3.28,3.04,3.28,3.01-1.23,3.01-3.28Z"/>
    <path class="cls-1" d="m775.14,453.92v6.78h-3.43v-6.25c0-1.91-.88-2.79-2.4-2.79-1.65,0-2.84,1.01-2.84,3.19v5.85h-3.43v-11.84h3.28v1.39c.92-1.01,2.31-1.56,3.92-1.56,2.79,0,4.91,1.63,4.91,5.24Z"/>
    <path class="cls-1" d="m778.92,445.29c0-1.08.86-1.91,2.13-1.91s2.13.79,2.13,1.85c0,1.14-.86,1.98-2.13,1.98s-2.13-.84-2.13-1.91Zm.42,3.56h3.43v11.84h-3.43v-11.84Z"/>
    <path class="cls-1" d="m785.91,459.59l1.14-2.46c1.06.68,2.66,1.14,4.12,1.14,1.58,0,2.18-.42,2.18-1.08,0-1.94-7.15.04-7.15-4.69,0-2.24,2.02-3.83,5.48-3.83,1.63,0,3.43.37,4.55,1.03l-1.14,2.44c-1.17-.66-2.33-.88-3.41-.88-1.54,0-2.2.48-2.2,1.1,0,2.02,7.15.07,7.15,4.73,0,2.2-2.05,3.76-5.59,3.76-2,0-4.03-.55-5.13-1.28Z"/>
    <path class="cls-1" d="m807.48,460.12c-.7.51-1.74.75-2.79.75-2.79,0-4.42-1.43-4.42-4.25v-4.86h-1.83v-2.64h1.83v-2.88h3.43v2.88h2.95v2.64h-2.95v4.82c0,1.01.55,1.56,1.47,1.56.51,0,1.01-.15,1.39-.44l.92,2.42Z"/>
    <path class="cls-1" d="m820.98,453.94v6.75h-3.21v-1.47c-.64,1.08-1.87,1.65-3.61,1.65-2.77,0-4.42-1.54-4.42-3.59s1.47-3.54,5.08-3.54h2.73c0-1.47-.88-2.33-2.73-2.33-1.25,0-2.55.42-3.41,1.1l-1.23-2.4c1.3-.92,3.21-1.43,5.11-1.43,3.61,0,5.7,1.67,5.7,5.26Zm-3.43,3.01v-1.21h-2.35c-1.61,0-2.11.59-2.11,1.39,0,.86.73,1.43,1.94,1.43,1.14,0,2.13-.53,2.53-1.61Z"/>
    <path class="cls-1" d="m824.35,458.71c0-1.28.95-2.11,2.13-2.11s2.13.84,2.13,2.11-.95,2.16-2.13,2.16-2.13-.9-2.13-2.16Z"/>
  </g>
  <circle class="cls-2" cx="417.81" cy="73.07" r="49.72" transform="translate(-6.32 68.53) rotate(-9.31)"/>
  <path class="cls-14" d="m458.07,106.33l-3.85-3.19c6.97-8.43,10.81-19.11,10.81-30.07,0-26.04-21.18-47.22-47.22-47.22-5.72,0-11.31,1.01-16.61,3l-1.76-4.68c5.87-2.21,12.05-3.32,18.37-3.32,28.8,0,52.22,23.43,52.22,52.22,0,12.12-4.25,23.93-11.96,33.26Z"/>
  <path class="cls-5" d="m417.81,134.09c-33.65,0-61.02-27.37-61.02-61.02,0-6.79,1.11-13.46,3.29-19.82l4.73,1.62c-2.01,5.84-3.02,11.96-3.02,18.2,0,30.89,25.13,56.02,56.02,56.02,3.2,0,6.4-.27,9.53-.81l.84,4.93c-3.4.58-6.89.88-10.37.88Z"/>
  <text class="cls-9" transform="translate(399.4 99.11)"><tspan x="0" y="0">1</tspan></text>
  <circle class="cls-2" cx="547.79" cy="260.24" r="53.48" transform="translate(-33 85.67) rotate(-8.68)"/>
  <path class="cls-14" d="m590.96,295.89l-3.85-3.19c7.53-9.1,11.67-20.63,11.67-32.47,0-28.11-22.87-50.98-50.98-50.98-6.18,0-12.21,1.09-17.94,3.24l-1.76-4.68c6.29-2.36,12.92-3.56,19.69-3.56,30.87,0,55.98,25.11,55.98,55.98,0,12.99-4.55,25.66-12.82,35.65Z"/>
  <path class="cls-5" d="m547.79,325.68c-36.09,0-65.44-29.36-65.44-65.44,0-7.28,1.19-14.44,3.53-21.26l4.73,1.62c-2.16,6.3-3.26,12.91-3.26,19.64,0,33.33,27.12,60.44,60.44,60.44,3.45,0,6.91-.29,10.28-.87l.84,4.93c-3.65.62-7.39.94-11.12.94Z"/>
  <text class="cls-10" transform="translate(520.55 288.25)"><tspan x="0" y="0">2</tspan></text>
  <circle class="cls-2" cx="547.89" cy="434.83" r="51.22" transform="translate(-147 514.78) rotate(-45)"/>
  <path class="cls-14" d="m589.31,469.04l-3.85-3.19c7.19-8.7,11.15-19.72,11.15-31.03,0-26.86-21.86-48.72-48.72-48.72-5.9,0-11.67,1.04-17.14,3.1l-1.76-4.68c6.04-2.27,12.39-3.42,18.9-3.42,29.62,0,53.72,24.1,53.72,53.72,0,12.47-4.37,24.62-12.3,34.21Z"/>
  <path class="cls-5" d="m547.89,497.61c-34.62,0-62.78-28.16-62.78-62.78,0-6.98,1.14-13.85,3.39-20.39l4.73,1.62c-2.07,6.02-3.12,12.34-3.12,18.77,0,31.86,25.92,57.78,57.78,57.78,3.3,0,6.6-.28,9.82-.83l.84,4.93c-3.5.6-7.09.9-10.67.9Z"/>
  <text class="cls-8" transform="translate(521.66 461.65)"><tspan x="0" y="0">3</tspan></text>
  <circle class="cls-2" cx="416.49" cy="624.65" r="50.92" transform="translate(-111.19 90.61) rotate(-10.96)"/>
  <path class="cls-14" d="m457.68,658.67l-3.85-3.19c7.15-8.64,11.08-19.59,11.08-30.83,0-26.7-21.72-48.42-48.42-48.42-5.87,0-11.6,1.04-17.03,3.08l-1.76-4.68c6-2.26,12.32-3.4,18.79-3.4,29.45,0,53.42,23.96,53.42,53.42,0,12.4-4.34,24.48-12.23,34.02Z"/>
  <path class="cls-5" d="m416.49,687.07c-34.42,0-62.42-28-62.42-62.42,0-6.95,1.13-13.77,3.37-20.28l4.73,1.62c-2.06,5.99-3.1,12.26-3.1,18.66,0,31.66,25.76,57.42,57.42,57.42,3.27,0,6.56-.28,9.77-.83l.84,4.93c-3.48.6-7.05.9-10.61.9Z"/>
  <text class="cls-7" transform="translate(386.87 651.31)"><tspan x="0" y="0">4</tspan></text>
  <path class="cls-6" d="m359.99,591.75c0-.55.44-1,1-1h0c.55,0,1,.45,1,1h0c0,.55-.45,1-1,1h0c-.56,0-1-.45-1-1Zm-7,0c0-.55.45-1,1-1h0c.55,0,1,.45,1,1h0c0,.55-.45,1-1,1h0c-.55,0-1-.45-1-1Zm-7,0c0-.55.45-1,1-1h0c.55,0,1,.45,1,1h0c0,.55-.45,1-1,1h0c-.55,0-1-.45-1-1Zm-7,0c0-.55.45-1,1-1h0c.55,0,1,.45,1,1h0c0,.55-.45,1-1,1h0c-.55,0-1-.45-1-1Zm-7,0c0-.55.44-1,1-1h0c.55,0,1,.45,1,1h0c0,.55-.45,1-1,1h0c-.56,0-1-.45-1-1Zm-6.23.03c-.52-.18-.8-.75-.62-1.27h0c.18-.52.75-.8,1.27-.62h0c.53.18.8.75.63,1.27h0c-.15.42-.54.68-.95.68h0c-.11,0-.22-.02-.33-.06Zm-6.26-3.97c-.37-.41-.35-1.04.05-1.42h0c.41-.37,1.04-.35,1.42.05h0c.37.41.35,1.04-.05,1.42h0c-.2.18-.44.26-.68.26h0c-.27,0-.54-.1-.74-.31Zm-3.15-6.83h0c-.05-.55.36-1.04.91-1.08h0c.55-.05,1.03.35,1.08.9h0c.05.55-.35,1.04-.9,1.09h-.09c-.52,0-.95-.39-1-.91Zm-.04-7.09c0-.55.44-1,1-1h0c.55,0,1,.45,1,1h0c0,.56-.45,1-1,1h0c-.56,0-1-.44-1-1Zm0-7c0-.55.44-1,1-1h0c.55,0,1,.45,1,1h0c0,.56-.45,1-1,1h0c-.56,0-1-.44-1-1Zm0-6.99c0-.56.44-1,1-1h0c.55,0,1,.44,1,1h0c0,.55-.45,1-1,1h0c-.56,0-1-.45-1-1Zm0-7c0-.56.44-1,1-1h0c.55,0,1,.44,1,1h0c0,.55-.45,1-1,1h0c-.56,0-1-.45-1-1Zm0-7c0-.56.44-1,1-1h0c.55,0,1,.44,1,1h0c0,.55-.45,1-1,1h0c-.56,0-1-.45-1-1Z"/>
  <path class="cls-6" d="m316.85,154.52c0-.56.45-1,1-1h0c.55,0,1,.44,1,1h0c0,.55-.45,1-1,1h0c-.55,0-1-.45-1-1Zm0-7c0-.56.45-1,1-1h0c.55,0,1,.44,1,1h0c0,.55-.45,1-1,1h0c-.55,0-1-.45-1-1Zm0-7c0-.56.45-1,1-1h0c.55,0,1,.44,1,1h0c0,.55-.45,1-1,1h0c-.55,0-1-.45-1-1Zm0-7c0-.56.45-1,1-1h0c.55,0,1,.44,1,1h0c0,.55-.45,1-1,1h0c-.55,0-1-.45-1-1Zm0-7c0-.56.45-1,1-1h0c.55,0,1,.44,1,1h0c0,.55-.45,1-1,1h0c-.55,0-1-.45-1-1Zm1.2-6c-.53-.17-.81-.74-.63-1.26h0c.17-.53.74-.81,1.26-.63h0c.53.17.81.74.63,1.26h0c-.14.42-.53.68-.94.68h0c-.11,0-.22-.01-.32-.05Zm3.63-5.87c-.33-.44-.24-1.07.2-1.4h0c.44-.34,1.07-.25,1.4.19h0c.33.44.24,1.07-.2,1.4h0c-.18.14-.39.2-.6.2h0c-.3,0-.6-.13-.8-.39Zm6.18-3.18c-.1-.54.26-1.07.8-1.17h0c.54-.1,1.07.26,1.17.8h0c.1.54-.26,1.06-.8,1.17h0c-.06,0-.12,0-.19,0h0c-.47,0-.89-.33-.98-.81Zm27.97-.48c0-.55.45-1,1-1h0c.55,0,1,.45,1,1h0c0,.55-.45,1-1,1h0c-.55,0-1-.45-1-1Zm-7,0c0-.55.44-1,1-1h0c.55,0,1,.45,1,1h0c0,.55-.45,1-1,1h0c-.56,0-1-.45-1-1Zm-7,0c0-.55.44-1,1-1h0c.55,0,1,.45,1,1h0c0,.55-.45,1-1,1h0c-.56,0-1-.45-1-1Zm-7,0c0-.55.44-1,1-1h0c.55,0,1,.45,1,1h0c0,.55-.45,1-1,1h0c-.56,0-1-.45-1-1Z"/>
  <path class="cls-6" d="m475.02,262.6c0-.56.45-1,1.01-1h0c.55,0,.99.44.99,1h0c0,.55-.44,1-.99,1h0c-.56,0-1.01-.45-1.01-1Zm-7,0c0-.56.45-1,1.01-1h0c.55,0,.99.44.99,1h0c0,.55-.44,1-.99,1h0c-.56,0-1.01-.45-1.01-1Zm-7,0c0-.56.45-1,1.01-1h0c.55,0,.99.44.99,1h0c0,.55-.44,1-.99,1h0c-.56,0-1.01-.45-1.01-1Zm-7,0c0-.56.45-1,1-1h0c.56,0,1,.44,1,1h0c0,.55-.44,1-1,1h0c-.55,0-1-.45-1-1Zm-7,0c0-.56.45-1,1-1h0c.56,0,1.01.44,1.01,1h0c0,.55-.45,1-1.01,1h0c-.55,0-1-.45-1-1Zm-7,0c0-.56.45-1,1-1h0c.56,0,1.01.44,1.01,1h0c0,.55-.45,1-1.01,1h0c-.55,0-1-.45-1-1Zm-7,0c0-.56.45-1,1-1h0c.56,0,1.01.44,1.01,1h0c0,.55-.45,1-1.01,1h0c-.55,0-1-.45-1-1Zm-7,0c0-.56.45-1,1-1h0c.56,0,1.01.44,1.01,1h0c0,.55-.45,1-1.01,1h0c-.55,0-1-.45-1-1Z"/>
  <path class="cls-6" d="m475.02,439.45c0-.55.45-1,1.01-1h0c.55,0,.99.45.99,1h0c0,.55-.44,1-.99,1h0c-.56,0-1.01-.45-1.01-1Zm-6.99,0c0-.55.44-1,.99-1h0c.56,0,1,.45,1,1h0c0,.55-.44,1-1,1h0c-.55,0-.99-.45-.99-1Zm-7.01,0c0-.55.45-1,1-1h0c.56,0,1.01.45,1.01,1h0c0,.55-.45,1-1.01,1h0c-.55,0-1-.45-1-1Zm-6.99,0c0-.55.44-1,1-1h0c.55,0,.99.45.99,1h0c0,.55-.44,1-.99,1h0c-.56,0-1-.45-1-1Zm-7.01,0c0-.55.45-1,1-1h0c.56,0,1,.45,1,1h0c0,.55-.44,1-1,1h0c-.55,0-1-.45-1-1Zm-7,0c0-.55.45-1,1.01-1h0c.55,0,.99.45.99,1h0c0,.55-.44,1-.99,1h0c-.56,0-1.01-.45-1.01-1Zm-6.99,0c0-.55.44-1,.99-1h0c.56,0,1,.45,1,1h0c0,.55-.44,1-1,1h0c-.55,0-.99-.45-.99-1Zm-7.01,0c0-.55.45-1,1.01-1h0c.55,0,1,.45,1,1h0c0,.55-.45,1-1,1h0c-.56,0-1.01-.45-1.01-1Z"/>
  <circle class="cls-12" cx="317.34" cy="527.62" r="12.21"/>
  <circle class="cls-12" cx="405.71" cy="439.45" r="12.21"/>
  <circle class="cls-12" cx="407.04" cy="262.6" r="12.21"/>
  <circle class="cls-12" cx="317.85" cy="174.15" r="12.21"/>
</svg>