<svg id="Componente_64_1" data-name="Componente 64 – 1" xmlns="http://www.w3.org/2000/svg" width="348.686" height="348.686" viewBox="0 0 348.686 348.686">
  <circle id="Elipse_101" data-name="Elipse 101" cx="123.278" cy="123.278" r="123.278" transform="translate(0 174.343) rotate(-45)" fill="#f2f2f2"/>
  <g id="Grupo_3941" data-name="Grupo 3941" transform="translate(5.739 7.336)">
    <path id="Caminho_31235" data-name="Caminho 31235" d="M2004.117,297.283a11.685,11.685,0,0,0,9.582-20.974C2037.11,214.6,2097.3,172.4,2164.025,172.4s126.915,42.2,150.325,103.907a11.638,11.638,0,1,0,5.883-2.028c-24.278-64.193-86.839-108.1-156.213-108.1s-131.936,43.908-156.214,108.1a11.711,11.711,0,0,0-3.7,23Z" transform="translate(-1995.433 -166.18)" fill="#004c6d"/>
    <path id="Caminho_31236" data-name="Caminho 31236" d="M2323.938,521.163a11.686,11.686,0,0,0-9.726,20.911,160.717,160.717,0,0,1-299.823,0,11.65,11.65,0,1,0-5.883,2.062,166.941,166.941,0,0,0,311.571,0,11.71,11.71,0,0,0,3.849-22.974Z" transform="translate(-1995.703 -317.049)" fill="#004c6d"/>
  </g>
  <g id="Grupo_3942" data-name="Grupo 3942" transform="translate(109.806 136.583)">
    <path id="Caminho_31237" data-name="Caminho 31237" d="M2208.2,470.266q-15.864,0-23.743-10.777t-7.876-28.776q0-18,7.876-28.776T2208.2,391.16q15.864,0,23.738,10.777t7.876,28.776q0,18-7.876,28.776T2208.2,470.266Zm-11.271-57.988q-3.61,7.006-3.608,18.493t3.608,18.487q3.61,7.006,11.271,7t11.266-7q3.61-7,3.614-18.487t-3.614-18.493q-3.61-7-11.266-7T2196.928,412.278Z" transform="translate(-2176.58 -391.16)" fill="#004c6d"/>
    <path id="Caminho_31238" data-name="Caminho 31238" d="M2300.818,408.762V394.21h46.826v11.811L2332,423.853q9.186,1.534,14.218,7.715a21.957,21.957,0,0,1,5.032,14.276q0,12.03-8.152,18.872t-20.842,6.836q-12.693,0-25.708-8.973l7-13.569q10.832,7.661,19.366,7.658a13.7,13.7,0,0,0,8.479-2.516,8.559,8.559,0,0,0,3.338-7.273,8.864,8.864,0,0,0-3.826-7.549q-3.835-2.792-10.616-2.786a36.612,36.612,0,0,0-10.174,2.08V426.042l14.661-17.286h-23.962Z" transform="translate(-2227.629 -392.458)" fill="#004c6d"/>
  </g>
</svg>
