<?xml version="1.0" encoding="UTF-8"?>
<svg id="Layer_1" data-name="Layer 1" xmlns="http://www.w3.org/2000/svg" viewBox="0 0 1605.3 1176">
  <defs>
    <style>
      .cls-1 {
        fill: #fff;
      }

      .cls-2 {
        fill: #038183;
      }

      .cls-3 {
        fill: #f4f9f9;
      }

      .cls-4 {
        fill: #a4c8cc;
      }

      .cls-5 {
        stroke: #c9e6d6;
      }

      .cls-5, .cls-6 {
        fill: none;
        stroke-miterlimit: 10;
      }

      .cls-6 {
        stroke: #038183;
      }

      .cls-7 {
        fill: #231f20;
      }
    </style>
  </defs>
  <g>
    <rect class="cls-6" x="97.2" y="122.2" width="1467.5" height="1001.5"/>
    <rect class="cls-3" x="68.4" y="95.5" width="1467.5" height="998.6"/>
    <g>
      <polygon class="cls-4" points="132.1 83.8 92.2 83.8 72.3 118.3 92.2 152.8 132.1 152.8 152 118.3 132.1 83.8"/>
      <polygon class="cls-4" points="147 56.8 107.2 56.8 87.3 91.3 107.2 125.8 147 125.8 167 91.3 147 56.8"/>
      <polygon class="cls-2" points="145 60.5 93.8 60.5 68.2 104.8 93.8 149.1 145 149.1 170.5 104.8 145 60.5"/>
      <line class="cls-5" x1="161.4" y1="105.1" x2="141" y2="69.7"/>
      <line class="cls-5" x1="79.7" y1="105.1" x2="100.1" y2="140.5"/>
      <polygon class="cls-2" points="129.1 49.8 126.7 49.8 126 51 88.8 51 70.3 83.1 68.6 83.1 67.4 85.2 68.6 87.3 71 87.3 72.2 85.2 71.3 83.7 89.5 52.2 125.7 52.2 126.7 53.9 129.1 53.9 130.3 51.8 129.1 49.8"/>
      <polygon class="cls-2" points="170.6 124.9 169.4 122.8 167 122.8 165.8 124.9 166.7 126.4 148.5 157.9 112.3 157.9 111.3 156.2 108.9 156.2 107.7 158.3 108.9 160.4 111.3 160.4 112 159.1 149.1 159.1 167.7 127 169.4 127 170.6 124.9"/>
      <path class="cls-1" d="m115.7,110v14.2c0,3.2,1.8,5.1,4.8,5.1s4.8-1.9,4.8-5.2v-14.2h14.4c3,0,4.9-1.9,4.9-4.8s-1.9-4.9-4.9-4.9h-14.4v-14.2c0-3.2-1.8-5.1-4.9-5.1s-4.8,1.9-4.8,5.2v14.2h-14.4c-3,0-4.9,1.9-4.9,4.8s1.9,4.9,4.9,4.9c4.8,0,9.5,0,14.5,0h0Z"/>
    </g>
  </g>
  <g>
    <path class="cls-7" d="m174,231.5h-10.1l-2.2,4.9h-2l8.3-18.2h1.9l8.3,18.2h-2l-2.2-4.9h0Zm-.7-1.6l-4.4-9.8-4.4,9.8h8.8Z"/>
    <path class="cls-7" d="m180.8,217.1h1.9v19.3h-1.9v-19.3Z"/>
    <path class="cls-7" d="m199.7,230.1h-11.4c.2,2.9,2.4,4.8,5.4,4.8,1.7,0,3.1-.6,4.2-1.8l1,1.2c-1.2,1.5-3.1,2.2-5.3,2.2-4.3,0-7.2-2.9-7.2-7s2.8-6.9,6.7-6.9,6.6,2.8,6.6,6.9v.6h0Zm-11.4-1.4h9.7c-.2-2.7-2.2-4.6-4.9-4.6s-4.6,1.9-4.8,4.6Zm4.9-8.1h-1.8l3.6-3.2h2.5l-4.3,3.2h0Z"/>
    <path class="cls-7" d="m226.1,228.4v7.9h-1.9v-7.8c0-2.9-1.5-4.4-3.9-4.4-2.8,0-4.6,1.8-4.6,4.9v7.2h-1.9v-7.8c0-2.9-1.5-4.4-3.9-4.4-2.8,0-4.6,1.8-4.6,4.9v7.2h-1.9v-13.7h1.8v2.5c1-1.6,2.7-2.6,5-2.6s4,1,4.9,2.9c1-1.8,2.9-2.9,5.4-2.9,3.4.3,5.5,2.2,5.6,6.1h0Z"/>
    <path class="cls-7" d="m256.1,217.1v19.3h-1.8v-2.7c-1.1,1.9-3,2.8-5.3,2.8-3.9,0-6.8-2.8-6.8-7s2.9-6.9,6.8-6.9c2.2,0,4.1.9,5.2,2.7v-8.3l1.9.1h0Zm-1.9,12.4c0-3.2-2.2-5.3-5.1-5.3s-5.1,2.1-5.1,5.3,2.2,5.3,5.1,5.3,5.1-2.1,5.1-5.3Z"/>
    <path class="cls-7" d="m259.8,229.5c0-4.1,3-6.9,7-6.9s6.9,2.9,6.9,6.9-2.9,7-6.9,7-7-2.9-7-7Zm12.1,0c0-3.2-2.2-5.3-5.1-5.3s-5.1,2.1-5.1,5.3,2.2,5.3,5.1,5.3,5.1-2.1,5.1-5.3Z"/>
    <path class="cls-7" d="m275.6,234.8l.8-1.5c1.1.9,2.9,1.5,4.9,1.5,2.6,0,3.7-.9,3.7-2.2,0-3.6-8.9-.8-8.9-6.2,0-2.2,1.9-3.9,5.4-3.9,1.8,0,3.7.5,4.8,1.3l-.8,1.5c-1.2-.8-2.6-1.2-4-1.2-2.5,0-3.6,1-3.6,2.3,0,3.7,8.9.9,8.9,6.2,0,2.4-2.1,3.9-5.6,3.9-2.3,0-4.5-.8-5.6-1.7h0Z"/>
    <path class="cls-7" d="m313.1,227.9v8.5h-1.8v-2.1c-.8,1.4-2.4,2.3-4.7,2.3-3.1,0-5-1.6-5-4,0-2.1,1.4-3.9,5.3-3.9h4.3v-.8c0-2.3-1.3-3.6-3.9-3.6-1.8,0-3.4.6-4.5,1.6l-.8-1.4c1.4-1.2,3.4-1.9,5.6-1.9,3.5,0,5.5,1.7,5.5,5.3h0Zm-1.9,4.3v-2.2h-4.3c-2.6,0-3.5,1-3.5,2.4,0,1.6,1.3,2.6,3.5,2.6s3.6-1,4.3-2.8h0Z"/>
    <path class="cls-7" d="m325.3,235.5c-.7.6-1.8,1-2.9,1-2.6,0-4-1.5-4-4v-8.3h-2.4v-1.6h2.4v-3h1.9v3h4.2v1.6h-4.2v8.2c0,1.6.8,2.5,2.4,2.5.8,0,1.5-.2,2-.7l.6,1.3h0Z"/>
    <path class="cls-7" d="m326.8,229.5c0-4.1,3-6.9,7-6.9s6.9,2.9,6.9,6.9-2.9,7-6.9,7-7-2.9-7-7Zm12,0c0-3.2-2.2-5.3-5.1-5.3s-5.1,2.1-5.1,5.3,2.2,5.3,5.1,5.3,5.1-2.1,5.1-5.3Z"/>
    <path class="cls-7" d="m342.5,234.8l.8-1.5c1.1.9,2.9,1.5,4.9,1.5,2.6,0,3.7-.9,3.7-2.2,0-3.6-8.9-.8-8.9-6.2,0-2.2,1.9-3.9,5.4-3.9,1.8,0,3.7.5,4.8,1.3l-.8,1.5c-1.2-.8-2.6-1.2-4-1.2-2.5,0-3.6,1-3.6,2.3,0,3.7,8.9.9,8.9,6.2,0,2.4-2.1,3.9-5.6,3.9-2.2,0-4.4-.8-5.6-1.7h0Z"/>
    <path class="cls-7" d="m382.3,228.4v7.9h-1.9v-7.8c0-2.9-1.5-4.4-4.1-4.4-2.9,0-4.8,1.8-4.8,4.9v7.2h-1.9v-13.7h1.8v2.5c1-1.7,2.8-2.6,5.2-2.6,3.4.2,5.7,2.1,5.7,6h0Z"/>
    <path class="cls-7" d="m386,229.5c0-4.1,3-6.9,7-6.9s6.9,2.9,6.9,6.9-2.9,7-6.9,7-7-2.9-7-7Zm12,0c0-3.2-2.2-5.3-5.1-5.3s-5.1,2.1-5.1,5.3,2.2,5.3,5.1,5.3,5.1-2.1,5.1-5.3Z"/>
    <path class="cls-7" d="m410.5,222.6v1.8h-.4c-2.9,0-4.6,1.8-4.6,5v7h-1.9v-13.7h1.8v2.7c.9-1.9,2.6-2.8,5.1-2.8h0Z"/>
    <path class="cls-7" d="m436.4,228.4v7.9h-1.9v-7.8c0-2.9-1.5-4.4-3.9-4.4-2.8,0-4.6,1.8-4.6,4.9v7.2h-1.9v-7.8c0-2.9-1.5-4.4-4-4.4-2.8,0-4.6,1.8-4.6,4.9v7.2h-1.9v-13.7h1.8v2.5c1-1.6,2.7-2.6,5-2.6s4,1,4.9,2.9c1-1.8,2.9-2.9,5.4-2.9,3.5.3,5.7,2.2,5.7,6.1h0Z"/>
    <path class="cls-7" d="m451.8,227.9v8.5h-1.8v-2.1c-.8,1.4-2.4,2.3-4.7,2.3-3.1,0-5-1.6-5-4,0-2.1,1.4-3.9,5.3-3.9h4.3v-.8c0-2.3-1.3-3.6-3.9-3.6-1.8,0-3.4.6-4.5,1.6l-.8-1.4c1.4-1.2,3.4-1.9,5.6-1.9,3.5,0,5.5,1.7,5.5,5.3h0Zm-1.9,4.3v-2.2h-4.3c-2.6,0-3.5,1-3.5,2.4,0,1.6,1.3,2.6,3.5,2.6s3.6-1,4.3-2.8h0Z"/>
    <path class="cls-7" d="m464,235.5c-.7.6-1.8,1-2.9,1-2.6,0-4-1.5-4-4v-8.3h-2.4v-1.6h2.4v-3h1.9v3h4.2v1.6h-4.2v8.2c0,1.6.8,2.5,2.4,2.5.8,0,1.5-.2,2-.7l.6,1.3h0Z"/>
    <path class="cls-7" d="m466.9,218.4c0-.7.6-1.3,1.4-1.3s1.4.6,1.4,1.3c0,.8-.6,1.4-1.4,1.4s-1.4-.7-1.4-1.4h0Zm.4,4.3h1.9v13.7h-1.9v-13.7h0Z"/>
    <path class="cls-7" d="m485.8,222.7l-6.1,13.7h-1.9l-6.1-13.7h1.9l5.1,11.6,5.2-11.6h1.9Z"/>
    <path class="cls-7" d="m486.6,229.5c0-4.1,3-6.9,7-6.9s6.9,2.9,6.9,6.9-2.9,7-6.9,7-7-2.9-7-7Zm12.1,0c0-3.2-2.2-5.3-5.1-5.3s-5.1,2.1-5.1,5.3,2.2,5.3,5.1,5.3,5.1-2.1,5.1-5.3Z"/>
    <path class="cls-7" d="m502.4,234.8l.8-1.5c1.1.9,2.9,1.5,4.9,1.5,2.6,0,3.7-.9,3.7-2.2,0-3.6-8.9-.8-8.9-6.2,0-2.2,1.9-3.9,5.4-3.9,1.8,0,3.7.5,4.8,1.3l-.8,1.5c-1.2-.8-2.6-1.2-4-1.2-2.5,0-3.6,1-3.6,2.3,0,3.7,8.9.9,8.9,6.2,0,2.4-2.1,3.9-5.6,3.9-2.3,0-4.5-.8-5.6-1.7h0Z"/>
    <path class="cls-7" d="m541,222.7l-6.1,13.7h-1.9l-6.1-13.7h1.9l5.1,11.6,5.2-11.6h1.9Z"/>
    <path class="cls-7" d="m543.2,218.4c0-.7.6-1.3,1.3-1.3s1.3.6,1.3,1.3c0,.8-.6,1.4-1.3,1.4s-1.3-.7-1.3-1.4h0Zm.4,4.3h1.8v13.7h-1.8v-13.7h0Z"/>
    <path class="cls-7" d="m563.2,228.4v7.9h-1.8v-7.8c0-2.9-1.5-4.4-4.1-4.4-2.9,0-4.8,1.8-4.8,4.9v7.2h-1.8v-13.7h1.8v2.5c1-1.7,2.8-2.6,5.2-2.6,3.2.2,5.5,2.1,5.5,6h0Z"/>
    <path class="cls-7" d="m566.9,229.5c0-4.1,3-6.9,7-6.9,2.3,0,4.3.9,5.4,2.7l-1.4.9c-.9-1.4-2.4-2-4-2-3,0-5.2,2.1-5.2,5.3s2.2,5.3,5.2,5.3c1.6,0,3-.6,4-2l1.4.9c-1.1,1.8-3,2.7-5.4,2.7-4,.1-7-2.8-7-6.9Z"/>
    <path class="cls-7" d="m595.2,222.7v13.7h-1.8v-2.5c-1,1.7-2.7,2.6-4.9,2.6-3.5,0-5.8-1.9-5.8-5.9v-7.9h1.8v7.8c0,2.9,1.5,4.4,4.1,4.4,2.9,0,4.7-1.9,4.7-5v-7.2h1.9Z"/>
    <path class="cls-7" d="m600.4,217.1h1.8v19.3h-1.8v-19.3Z"/>
    <path class="cls-7" d="m617.7,227.9v8.5h-1.7v-2.1c-.8,1.4-2.4,2.3-4.7,2.3-3.1,0-5-1.6-5-4,0-2.1,1.3-3.9,5.3-3.9h4.3v-.8c0-2.3-1.3-3.6-3.9-3.6-1.8,0-3.4.6-4.5,1.6l-.8-1.4c1.4-1.2,3.4-1.9,5.6-1.9,3.4,0,5.4,1.7,5.4,5.3h0Zm-1.8,4.3v-2.2h-4.3c-2.7,0-3.5,1-3.5,2.4,0,1.6,1.3,2.6,3.5,2.6s3.6-1,4.3-2.8h0Z"/>
    <path class="cls-7" d="m635.3,228.4v7.9h-1.8v-7.8c0-2.9-1.5-4.4-4.1-4.4-2.9,0-4.8,1.8-4.8,4.9v7.2h-1.8v-13.7h1.8v2.5c1-1.7,2.8-2.6,5.2-2.6,3.3.2,5.5,2.1,5.5,6h0Z"/>
    <path class="cls-7" d="m647.6,235.5c-.7.6-1.8,1-2.9,1-2.6,0-4-1.5-4-4v-8.3h-2.4v-1.6h2.4v-3h1.8v3h4.2v1.6h-4.2v8.2c0,1.6.8,2.5,2.4,2.5.8,0,1.5-.2,2-.7l.7,1.3h0Z"/>
    <path class="cls-7" d="m662.3,230.1h-11.4c.2,2.9,2.4,4.8,5.4,4.8,1.7,0,3.2-.6,4.2-1.8l1,1.2c-1.2,1.5-3.1,2.2-5.3,2.2-4.3,0-7.2-2.9-7.2-7s2.8-6.9,6.7-6.9,6.6,2.8,6.6,6.9v.6h0Zm-11.4-1.4h9.7c-.2-2.7-2.2-4.6-4.9-4.6s-4.6,1.9-4.8,4.6Z"/>
    <path class="cls-7" d="m664.2,234.8l.8-1.5c1.1.9,2.9,1.5,4.9,1.5,2.6,0,3.7-.9,3.7-2.2,0-3.6-8.9-.8-8.9-6.2,0-2.2,1.9-3.9,5.4-3.9,1.8,0,3.7.5,4.8,1.3l-.8,1.5c-1.2-.8-2.6-1.2-4-1.2-2.5,0-3.6,1-3.6,2.3,0,3.7,8.9.9,8.9,6.2,0,2.4-2.1,3.9-5.6,3.9-2.3,0-4.5-.8-5.6-1.7h0Z"/>
    <path class="cls-7" d="m680.4,235c0,.4-.1.8-.4,1.5l-1.1,3.6h-1.2l.9-3.8c-.5-.2-.9-.6-.9-1.3,0-.8.6-1.4,1.4-1.4s1.3.7,1.3,1.4h0Z"/>
    <path class="cls-7" d="m709.5,228.4v7.9h-1.8v-7.8c0-2.9-1.5-4.4-4.1-4.4-2.9,0-4.8,1.8-4.8,4.9v7.2h-1.8v-19.3h1.8v8c1-1.6,2.8-2.5,5.1-2.5,3.3.2,5.6,2.1,5.6,6Z"/>
    <path class="cls-7" d="m724.8,227.9v8.5h-1.8v-2.1c-.8,1.4-2.4,2.3-4.7,2.3-3.1,0-5-1.6-5-4,0-2.1,1.3-3.9,5.3-3.9h4.3v-.8c0-2.3-1.3-3.6-3.9-3.6-1.8,0-3.4.6-4.5,1.6l-.8-1.4c1.4-1.2,3.4-1.9,5.6-1.9,3.5,0,5.5,1.7,5.5,5.3h0Zm-1.9,4.3v-2.2h-4.3c-2.7,0-3.5,1-3.5,2.4,0,1.6,1.3,2.6,3.5,2.6s3.6-1,4.3-2.8h0Zm-3.5-11.6h-1.8l3.6-3.2h2.5l-4.3,3.2h0Z"/>
    <path class="cls-7" d="m754.8,217.1v19.3h-1.8v-2.7c-1.1,1.9-3,2.8-5.3,2.8-3.9,0-6.8-2.8-6.8-7s2.9-6.9,6.8-6.9c2.2,0,4.1.9,5.2,2.7v-8.3l1.9.1h0Zm-1.8,12.4c0-3.2-2.2-5.3-5.1-5.3s-5.1,2.1-5.1,5.3,2.2,5.3,5.1,5.3,5.1-2.1,5.1-5.3Z"/>
    <path class="cls-7" d="m759.5,218.4c0-.7.6-1.3,1.3-1.3s1.3.6,1.3,1.3c0,.8-.6,1.4-1.3,1.4s-1.3-.7-1.3-1.4h0Zm.5,4.3h1.8v13.7h-1.8v-13.7h0Z"/>
    <path class="cls-7" d="m778.4,222.7l-6.1,13.7h-1.9l-6.1-13.7h1.9l5.1,11.6,5.2-11.6h1.9Z"/>
    <path class="cls-7" d="m792.5,230.1h-11.4c.2,2.9,2.4,4.8,5.4,4.8,1.7,0,3.2-.6,4.2-1.8l1,1.2c-1.2,1.5-3.1,2.2-5.3,2.2-4.3,0-7.2-2.9-7.2-7s2.8-6.9,6.7-6.9,6.6,2.8,6.6,6.9c.1.2,0,.4,0,.6h0Zm-11.4-1.4h9.7c-.2-2.7-2.2-4.6-4.9-4.6s-4.5,1.9-4.8,4.6Z"/>
    <path class="cls-7" d="m803.2,222.6v1.8h-.4c-2.9,0-4.6,1.8-4.6,5v7h-1.8v-13.7h1.8v2.7c.8-1.9,2.5-2.8,5-2.8h0Z"/>
    <path class="cls-7" d="m804.8,234.8l.8-1.5c1.1.9,2.9,1.5,4.9,1.5,2.6,0,3.7-.9,3.7-2.2,0-3.6-8.9-.8-8.9-6.2,0-2.2,1.9-3.9,5.4-3.9,1.8,0,3.7.5,4.8,1.3l-.8,1.5c-1.2-.8-2.6-1.2-4-1.2-2.5,0-3.6,1-3.6,2.3,0,3.7,8.9.9,8.9,6.2,0,2.4-2.1,3.9-5.6,3.9-2.3,0-4.5-.8-5.6-1.7h0Z"/>
    <path class="cls-7" d="m818,229.5c0-4.1,3-6.9,7-6.9s6.9,2.9,6.9,6.9-2.9,7-6.9,7-7-2.9-7-7Zm12,0c0-3.2-2.2-5.3-5.1-5.3s-5.1,2.1-5.1,5.3,2.2,5.3,5.1,5.3,5.1-2.1,5.1-5.3Z"/>
    <path class="cls-7" d="m833.8,234.8l.8-1.5c1.1.9,2.9,1.5,4.9,1.5,2.6,0,3.7-.9,3.7-2.2,0-3.6-8.9-.8-8.9-6.2,0-2.2,1.9-3.9,5.4-3.9,1.8,0,3.7.5,4.8,1.3l-.8,1.5c-1.2-.8-2.6-1.2-4-1.2-2.5,0-3.6,1-3.6,2.3,0,3.7,8.9.9,8.9,6.2,0,2.4-2.1,3.9-5.6,3.9-2.3,0-4.5-.8-5.6-1.7h0Z"/>
    <path class="cls-7" d="m873.6,222.7v12c0,4.7-2.3,6.8-6.8,6.8-2.5,0-4.9-.8-6.4-2.1l.9-1.4c1.3,1.2,3.3,1.9,5.4,1.9,3.5,0,5-1.6,5-5v-1.7c-1.1,1.7-3.1,2.6-5.3,2.6-3.9,0-6.9-2.7-6.9-6.7s3-6.6,6.9-6.6c2.3,0,4.3.9,5.4,2.7v-2.6l1.8.1h0Zm-1.8,6.5c0-3-2.2-5-5.2-5s-5.2,2-5.2,5,2.2,5,5.2,5,5.2-2.1,5.2-5Z"/>
    <path class="cls-7" d="m891.1,222.7v13.7h-1.8v-2.5c-1,1.7-2.7,2.6-4.9,2.6-3.5,0-5.8-1.9-5.8-5.9v-7.9h1.8v7.8c0,2.9,1.5,4.4,4.1,4.4,2.9,0,4.7-1.9,4.7-5v-7.2h1.9Z"/>
    <path class="cls-7" d="m895.8,218.4c0-.7.6-1.3,1.3-1.3s1.3.6,1.3,1.3c0,.8-.6,1.4-1.3,1.4s-1.3-.7-1.3-1.4h0Zm.4,4.3h1.8v13.7h-1.8v-13.7h0Z"/>
    <path class="cls-7" d="m913.6,227.9v8.5h-1.8v-2.1c-.8,1.4-2.4,2.3-4.7,2.3-3.1,0-5-1.6-5-4,0-2.1,1.3-3.9,5.3-3.9h4.3v-.8c0-2.3-1.3-3.6-3.9-3.6-1.8,0-3.4.6-4.5,1.6l-.8-1.4c1.4-1.2,3.4-1.9,5.6-1.9,3.5,0,5.5,1.7,5.5,5.3h0Zm-1.9,4.3v-2.2h-4.3c-2.7,0-3.5,1-3.5,2.4,0,1.6,1.3,2.6,3.5,2.6s3.6-1,4.3-2.8h0Z"/>
    <path class="cls-7" d="m916.7,234.8l.8-1.5c1.1.9,2.9,1.5,4.9,1.5,2.6,0,3.7-.9,3.7-2.2,0-3.6-8.9-.8-8.9-6.2,0-2.2,1.9-3.9,5.4-3.9,1.8,0,3.7.5,4.8,1.3l-.8,1.5c-1.2-.8-2.6-1.2-4-1.2-2.5,0-3.6,1-3.6,2.3,0,3.7,8.9.9,8.9,6.2,0,2.4-2.1,3.9-5.6,3.9-2.3,0-4.5-.8-5.6-1.7h0Z"/>
    <path class="cls-7" d="m956.3,217.1v19.3h-1.8v-2.7c-1.1,1.9-3,2.8-5.3,2.8-3.9,0-6.8-2.8-6.8-7s2.9-6.9,6.8-6.9c2.2,0,4.1.9,5.2,2.7v-8.3l1.9.1h0Zm-1.8,12.4c0-3.2-2.2-5.3-5.1-5.3s-5.1,2.1-5.1,5.3,2.2,5.3,5.1,5.3,5.1-2.1,5.1-5.3Z"/>
    <path class="cls-7" d="m973.3,230.1h-11.4c.2,2.9,2.4,4.8,5.4,4.8,1.7,0,3.2-.6,4.2-1.8l1,1.2c-1.2,1.5-3.1,2.2-5.3,2.2-4.3,0-7.2-2.9-7.2-7s2.8-6.9,6.7-6.9,6.6,2.8,6.6,6.9v.6h0Zm-11.4-1.4h9.7c-.2-2.7-2.2-4.6-4.9-4.6s-4.6,1.9-4.8,4.6Z"/>
    <path class="cls-7" d="m1003.5,229.5c0,4.1-2.9,7-6.8,7-2.3,0-4.2-1-5.3-2.8v2.7h-1.8v-19.3h1.8v8.2c1.1-1.8,3-2.7,5.2-2.7,4,0,6.9,2.8,6.9,6.9h0Zm-1.8,0c0-3.2-2.2-5.3-5.1-5.3s-5.1,2.1-5.1,5.3,2.2,5.3,5.1,5.3,5.1-2.1,5.1-5.3Z"/>
    <path class="cls-7" d="m1005.9,229.5c0-4.1,3-6.9,7-6.9s6.9,2.9,6.9,6.9-2.9,7-6.9,7-7-2.9-7-7Zm12,0c0-3.2-2.2-5.3-5.1-5.3s-5.1,2.1-5.1,5.3,2.2,5.3,5.1,5.3,5.1-2.1,5.1-5.3Z"/>
    <path class="cls-7" d="m1033.8,227.9v8.5h-1.8v-2.1c-.8,1.4-2.4,2.3-4.7,2.3-3.1,0-5-1.6-5-4,0-2.1,1.3-3.9,5.3-3.9h4.3v-.8c0-2.3-1.3-3.6-3.9-3.6-1.8,0-3.4.6-4.5,1.6l-.8-1.4c1.4-1.2,3.4-1.9,5.6-1.9,3.5,0,5.5,1.7,5.5,5.3h0Zm-1.8,4.3v-2.2h-4.3c-2.7,0-3.5,1-3.5,2.4,0,1.6,1.3,2.6,3.5,2.6s3.5-1,4.3-2.8h0Z"/>
    <path class="cls-7" d="m1036.9,234.8l.8-1.5c1.1.9,2.9,1.5,4.9,1.5,2.6,0,3.7-.9,3.7-2.2,0-3.6-8.9-.8-8.9-6.2,0-2.2,1.9-3.9,5.4-3.9,1.8,0,3.7.5,4.8,1.3l-.8,1.5c-1.2-.8-2.6-1.2-4-1.2-2.5,0-3.6,1-3.6,2.3,0,3.7,8.9.9,8.9,6.2,0,2.4-2.1,3.9-5.6,3.9-2.3,0-4.4-.8-5.6-1.7h0Z"/>
    <path class="cls-7" d="m1077.9,229.5c0,4.2-2.9,7-6.8,7-2.2,0-4.1-.9-5.2-2.7v7.6h-1.8v-18.7h1.8v2.7c1.1-1.8,3-2.8,5.3-2.8,3.8,0,6.7,2.8,6.7,6.9h0Zm-1.8,0c0-3.2-2.2-5.3-5.1-5.3s-5.1,2.2-5.1,5.3,2.2,5.3,5.1,5.3,5.1-2.1,5.1-5.3Z"/>
    <path class="cls-7" d="m1088.6,222.6v1.8h-.4c-2.9,0-4.6,1.8-4.6,5v7h-1.8v-13.7h1.8v2.7c.7-1.9,2.5-2.8,5-2.8h0Z"/>
    <path class="cls-7" d="m1102.2,227.9v8.5h-1.8v-2.1c-.8,1.4-2.4,2.3-4.7,2.3-3.1,0-5-1.6-5-4,0-2.1,1.3-3.9,5.3-3.9h4.3v-.8c0-2.3-1.3-3.6-3.9-3.6-1.8,0-3.4.6-4.6,1.6l-.8-1.4c1.4-1.2,3.4-1.9,5.6-1.9,3.6,0,5.6,1.7,5.6,5.3h0Zm-1.9,4.3v-2.2h-4.3c-2.7,0-3.5,1-3.5,2.4,0,1.6,1.3,2.6,3.5,2.6s3.6-1,4.3-2.8h0Zm-3.5-11.6h-1.8l3.6-3.2h2.5l-4.3,3.2h0Z"/>
    <path class="cls-7" d="m1114.4,235.5c-.7.6-1.8,1-2.9,1-2.6,0-4-1.5-4-4v-8.3h-2.4v-1.6h2.4v-3h1.8v3h4.2v1.6h-4.2v8.2c0,1.6.8,2.5,2.4,2.5.8,0,1.5-.2,2-.7l.7,1.3h0Z"/>
    <path class="cls-7" d="m1117.4,218.4c0-.7.6-1.3,1.3-1.3s1.3.6,1.3,1.3c0,.8-.6,1.4-1.3,1.4s-1.3-.7-1.3-1.4h0Zm.4,4.3h1.8v13.7h-1.8v-13.7h0Z"/>
    <path class="cls-7" d="m1123.4,229.5c0-4.1,3-6.9,7.1-6.9,2.3,0,4.3.9,5.4,2.7l-1.4.9c-.9-1.4-2.4-2-4-2-3,0-5.2,2.1-5.2,5.3s2.2,5.3,5.2,5.3c1.6,0,3-.6,4-2l1.4.9c-1.1,1.8-3,2.7-5.4,2.7-4.1.1-7.1-2.8-7.1-6.9Z"/>
    <path class="cls-7" d="m1149.7,227.9v8.5h-1.8v-2.1c-.8,1.4-2.4,2.3-4.7,2.3-3.1,0-5-1.6-5-4,0-2.1,1.3-3.9,5.3-3.9h4.3v-.8c0-2.3-1.3-3.6-3.9-3.6-1.8,0-3.4.6-4.6,1.6l-.8-1.4c1.4-1.2,3.4-1.9,5.6-1.9,3.6,0,5.6,1.7,5.6,5.3h0Zm-1.8,4.3v-2.2h-4.3c-2.7,0-3.5,1-3.5,2.4,0,1.6,1.3,2.6,3.5,2.6s3.5-1,4.3-2.8h0Z"/>
    <path class="cls-7" d="m1152.8,234.8l.8-1.5c1.1.9,2.9,1.5,4.9,1.5,2.6,0,3.7-.9,3.7-2.2,0-3.6-8.9-.8-8.9-6.2,0-2.2,1.9-3.9,5.4-3.9,1.8,0,3.7.5,4.8,1.3l-.8,1.5c-1.2-.8-2.6-1.2-4-1.2-2.5,0-3.6,1-3.6,2.3,0,3.7,8.9.9,8.9,6.2,0,2.4-2.1,3.9-5.6,3.9-2.2,0-4.4-.8-5.6-1.7h0Z"/>
    <path class="cls-7" d="m1178.1,234.8l.8-1.5c1.1.9,2.9,1.5,4.9,1.5,2.6,0,3.7-.9,3.7-2.2,0-3.6-8.9-.8-8.9-6.2,0-2.2,1.9-3.9,5.4-3.9,1.8,0,3.7.5,4.8,1.3l-.8,1.5c-1.2-.8-2.6-1.2-4-1.2-2.5,0-3.6,1-3.6,2.3,0,3.7,8.9.9,8.9,6.2,0,2.4-2.1,3.9-5.6,3.9-2.3,0-4.5-.8-5.6-1.7h0Z"/>
    <path class="cls-7" d="m1205,222.7v13.7h-1.8v-2.5c-1,1.7-2.7,2.6-4.9,2.6-3.5,0-5.8-1.9-5.8-5.9v-7.9h1.8v7.8c0,2.9,1.5,4.4,4.1,4.4,2.9,0,4.7-1.9,4.7-5v-7.2h1.9Z"/>
    <path class="cls-7" d="m1222.8,222.7v12c0,4.7-2.3,6.8-6.8,6.8-2.5,0-4.9-.8-6.4-2.1l.9-1.4c1.3,1.2,3.3,1.9,5.4,1.9,3.5,0,5-1.6,5-5v-1.7c-1.1,1.7-3.1,2.6-5.3,2.6-3.9,0-6.9-2.7-6.9-6.7s3-6.6,6.9-6.6c2.3,0,4.3.9,5.4,2.7v-2.6l1.8.1h0Zm-1.7,6.5c0-3-2.2-5-5.2-5s-5.2,2-5.2,5,2.2,5,5.2,5,5.2-2.1,5.2-5Z"/>
    <path class="cls-7" d="m1239.9,230.1h-11.4c.2,2.9,2.4,4.8,5.4,4.8,1.7,0,3.2-.6,4.2-1.8l1,1.2c-1.2,1.5-3.1,2.2-5.3,2.2-4.3,0-7.2-2.9-7.2-7s2.8-6.9,6.7-6.9,6.6,2.8,6.6,6.9c.1.2,0,.4,0,.6h0Zm-11.4-1.4h9.7c-.2-2.7-2.2-4.6-4.9-4.6s-4.6,1.9-4.8,4.6Z"/>
    <path class="cls-7" d="m1250.6,222.6v1.8h-.4c-2.9,0-4.6,1.8-4.6,5v7h-1.8v-13.7h1.8v2.7c.8-1.9,2.5-2.8,5-2.8h0Z"/>
    <path class="cls-7" d="m1253.5,218.4c0-.7.6-1.3,1.3-1.3s1.3.6,1.3,1.3c0,.8-.6,1.4-1.3,1.4s-1.3-.7-1.3-1.4h0Zm.5,4.3h1.8v13.7h-1.8v-13.7h0Z"/>
    <path class="cls-7" d="m1273.4,217.1v19.3h-1.8v-2.7c-1.1,1.9-3,2.8-5.3,2.8-3.9,0-6.8-2.8-6.8-7s2.9-6.9,6.8-6.9c2.2,0,4.1.9,5.2,2.7v-8.3l1.9.1h0Zm-1.8,12.4c0-3.2-2.2-5.3-5.1-5.3s-5.1,2.1-5.1,5.3,2.2,5.3,5.1,5.3,5.1-2.1,5.1-5.3Z"/>
    <path class="cls-7" d="m1288.9,227.9v8.5h-1.8v-2.1c-.8,1.4-2.4,2.3-4.7,2.3-3.1,0-5-1.6-5-4,0-2.1,1.3-3.9,5.3-3.9h4.3v-.8c0-2.3-1.3-3.6-3.9-3.6-1.8,0-3.4.6-4.6,1.6l-.8-1.4c1.4-1.2,3.4-1.9,5.6-1.9,3.6,0,5.6,1.7,5.6,5.3h0Zm-1.9,4.3v-2.2h-4.3c-2.7,0-3.5,1-3.5,2.4,0,1.6,1.3,2.6,3.5,2.6s3.6-1,4.3-2.8h0Z"/>
    <path class="cls-7" d="m1292,234.8l.8-1.5c1.1.9,2.9,1.5,4.9,1.5,2.6,0,3.7-.9,3.7-2.2,0-3.6-8.9-.8-8.9-6.2,0-2.2,1.9-3.9,5.4-3.9,1.8,0,3.7.5,4.8,1.3l-.8,1.5c-1.2-.8-2.6-1.2-4-1.2-2.5,0-3.6,1-3.6,2.3,0,3.7,8.9.9,8.9,6.2,0,2.4-2.1,3.9-5.6,3.9-2.3,0-4.5-.8-5.6-1.7h0Z"/>
    <path class="cls-7" d="m1333,229.5c0,4.2-2.9,7-6.8,7-2.2,0-4.1-.9-5.2-2.7v7.6h-1.8v-18.7h1.8v2.7c1.1-1.8,3-2.8,5.3-2.8,3.8,0,6.7,2.8,6.7,6.9h0Zm-1.9,0c0-3.2-2.2-5.3-5.1-5.3s-5.1,2.2-5.1,5.3,2.2,5.3,5.1,5.3,5.1-2.1,5.1-5.3Z"/>
    <path class="cls-7" d="m1335.4,229.5c0-4.1,3-6.9,7-6.9s6.9,2.9,6.9,6.9-2.9,7-6.9,7-7-2.9-7-7Zm12,0c0-3.2-2.2-5.3-5.1-5.3s-5.1,2.1-5.1,5.3,2.2,5.3,5.1,5.3,5.1-2.1,5.1-5.3Z"/>
    <path class="cls-7" d="m1359.9,222.6v1.8h-.4c-2.9,0-4.6,1.8-4.6,5v7h-1.8v-13.7h1.8v2.7c.8-1.9,2.5-2.8,5-2.8h0Z"/>
    <path class="cls-7" d="m1374.6,229.5c0-4.1,3-6.9,7-6.9s6.9,2.9,6.9,6.9-2.9,7-6.9,7-7-2.9-7-7Zm12.1,0c0-3.2-2.2-5.3-5.1-5.3s-5.1,2.1-5.1,5.3,2.2,5.3,5.1,5.3,5.1-2.1,5.1-5.3Zm-3.3-12.2h2.5l-4.2,3.2h-1.8l3.5-3.2h0Z"/>
    <path class="cls-7" d="m1399.2,222.6v1.8h-.4c-2.9,0-4.6,1.8-4.6,5v7h-1.8v-13.7h1.8v2.7c.7-1.9,2.5-2.8,5-2.8h0Z"/>
    <path class="cls-7" d="m1415.1,222.7v12c0,4.7-2.3,6.8-6.8,6.8-2.5,0-4.9-.8-6.4-2.1l.9-1.4c1.3,1.2,3.3,1.9,5.4,1.9,3.5,0,5-1.6,5-5v-1.7c-1.1,1.7-3.1,2.6-5.3,2.6-3.9,0-6.9-2.7-6.9-6.7s3-6.6,6.9-6.6c2.3,0,4.3.9,5.4,2.7v-2.6l1.8.1h0Zm-1.8,6.5c0-3-2.2-5-5.2-5s-5.2,2-5.2,5,2.2,5,5.2,5,5.2-2.1,5.2-5Z"/>
    <path class="cls-7" d="m1430.5,227.9v8.5h-1.8v-2.1c-.8,1.4-2.4,2.3-4.7,2.3-3.1,0-5-1.6-5-4,0-2.1,1.3-3.9,5.3-3.9h4.3v-.8c0-2.3-1.3-3.6-3.9-3.6-1.8,0-3.4.6-4.6,1.6l-.8-1.4c1.4-1.2,3.4-1.9,5.6-1.9,3.6,0,5.6,1.7,5.6,5.3h0Zm-1.8,4.3v-2.2h-4.3c-2.7,0-3.5,1-3.5,2.4,0,1.6,1.3,2.6,3.5,2.6s3.6-1,4.3-2.8h0Zm-6.6-11.9h-1.1c.1-1.7,1-2.9,2.3-2.9,1.6,0,2.4,1.8,3.4,1.8.8,0,1.3-.6,1.3-1.6h1.1c-.1,1.7-1,2.8-2.3,2.8-1.6,0-2.4-1.8-3.4-1.8-.8,0-1.3.7-1.3,1.7Z"/>
    <path class="cls-7" d="m1434.2,229.5c0-4.1,3-6.9,7-6.9s6.9,2.9,6.9,6.9-2.9,7-6.9,7-7-2.9-7-7Zm12.1,0c0-3.2-2.2-5.3-5.1-5.3s-5.1,2.1-5.1,5.3,2.2,5.3,5.1,5.3,5.1-2.1,5.1-5.3Z"/>
    <path class="cls-7" d="m1450,234.8l.8-1.5c1.1.9,2.9,1.5,4.9,1.5,2.6,0,3.7-.9,3.7-2.2,0-3.6-8.9-.8-8.9-6.2,0-2.2,1.9-3.9,5.4-3.9,1.8,0,3.7.5,4.8,1.3l-.8,1.5c-1.2-.8-2.6-1.2-4-1.2-2.5,0-3.6,1-3.6,2.3,0,3.7,8.9.9,8.9,6.2,0,2.4-2.1,3.9-5.6,3.9-2.3,0-4.5-.8-5.6-1.7h0Z"/>
    <path class="cls-7" d="m164.3,266.3v1.6h4.2v1.6h-4.2v12.1h-1.9v-12.1h-2.4v-1.6h2.4v-1.7c0-2.4,1.5-4.1,4.1-4.1,1,0,2.1.3,2.7.9l-.6,1.4c-.5-.4-1.2-.7-2-.7-1.5,0-2.4.9-2.3,2.6h0Z"/>
    <path class="cls-7" d="m182.6,275.3h-11.4c.2,2.9,2.4,4.8,5.4,4.8,1.7,0,3.1-.6,4.2-1.8l1,1.2c-1.2,1.5-3.1,2.2-5.3,2.2-4.3,0-7.2-2.9-7.2-7s2.8-6.9,6.7-6.9,6.6,2.8,6.6,6.9c.1.2,0,.4,0,.6h0Zm-11.4-1.4h9.7c-.2-2.7-2.2-4.5-4.9-4.5s-4.6,1.8-4.8,4.5Z"/>
    <path class="cls-7" d="m198.9,262.3v19.3h-1.8v-2.7c-1.1,1.9-3,2.8-5.3,2.8-3.9,0-6.8-2.8-6.8-7s2.9-6.9,6.8-6.9c2.2,0,4.1.9,5.2,2.7v-8.2h1.9Zm-1.8,12.4c0-3.2-2.2-5.3-5.1-5.3s-5.1,2.1-5.1,5.3,2.2,5.3,5.1,5.3,5.1-2.1,5.1-5.3Z"/>
    <path class="cls-7" d="m216,275.3h-11.4c.2,2.9,2.4,4.8,5.4,4.8,1.7,0,3.1-.6,4.2-1.8l1,1.2c-1.2,1.5-3.1,2.2-5.3,2.2-4.3,0-7.2-2.9-7.2-7s2.8-6.9,6.7-6.9,6.6,2.8,6.6,6.9v.6h0Zm-11.5-1.4h9.7c-.2-2.7-2.2-4.5-4.9-4.5s-4.5,1.8-4.8,4.5Z"/>
    <path class="cls-7" d="m226.7,267.8v1.8h-.4c-2.9,0-4.6,1.8-4.6,5v7h-1.9v-13.7h1.8v2.7c.8-1.9,2.5-2.8,5.1-2.8h0Z"/>
    <path class="cls-7" d="m240.3,273.1v8.5h-1.8v-2.1c-.8,1.4-2.4,2.3-4.7,2.3-3.1,0-5-1.6-5-4,0-2.1,1.4-3.9,5.3-3.9h4.3v-.9c0-2.3-1.3-3.6-3.9-3.6-1.8,0-3.4.6-4.6,1.6l-.8-1.4c1.4-1.2,3.4-1.9,5.6-1.9,3.6.1,5.6,1.8,5.6,5.4h0Zm-1.9,4.3v-2.2h-4.3c-2.6,0-3.5,1-3.5,2.4,0,1.6,1.3,2.6,3.5,2.6s3.6-1,4.3-2.8h0Z"/>
    <path class="cls-7" d="m244.9,263.6c0-.7.6-1.3,1.4-1.3s1.4.6,1.4,1.3c0,.8-.6,1.4-1.4,1.4s-1.4-.7-1.4-1.4h0Zm.4,4.3h1.9v13.7h-1.9v-13.7Z"/>
    <path class="cls-7" d="m250.4,280l.8-1.5c1.1.9,2.9,1.5,4.9,1.5,2.6,0,3.7-.9,3.7-2.2,0-3.6-8.9-.8-8.9-6.2,0-2.2,1.9-3.9,5.4-3.9,1.8,0,3.7.5,4.8,1.3l-.8,1.5c-1.2-.8-2.6-1.2-4-1.2-2.5,0-3.6,1-3.6,2.3,0,3.7,8.9.9,8.9,6.2,0,2.4-2.1,3.9-5.6,3.9-2.3,0-4.5-.8-5.6-1.7h0Z"/>
    <path class="cls-7" d="m285.7,274.7c0,4.2-2.9,7-6.8,7-2.2,0-4.1-.9-5.2-2.7v7.6h-1.9v-18.7h1.8v2.7c1.1-1.8,3-2.8,5.3-2.8,3.9,0,6.8,2.8,6.8,6.9h0Zm-1.9,0c0-3.2-2.2-5.3-5.1-5.3s-5.1,2.2-5.1,5.3,2.2,5.3,5.1,5.3,5.1-2.1,5.1-5.3Z"/>
    <path class="cls-7" d="m299.7,273.1v8.5h-1.8v-2.1c-.8,1.4-2.4,2.3-4.7,2.3-3.1,0-5-1.6-5-4,0-2.1,1.4-3.9,5.3-3.9h4.3v-.9c0-2.3-1.3-3.6-3.9-3.6-1.8,0-3.4.6-4.5,1.6l-.8-1.4c1.4-1.2,3.4-1.9,5.6-1.9,3.5.1,5.5,1.8,5.5,5.4h0Zm-1.9,4.3v-2.2h-4.3c-2.6,0-3.5,1-3.5,2.4,0,1.6,1.3,2.6,3.5,2.6s3.6-1,4.3-2.8h0Z"/>
    <path class="cls-7" d="m311.6,267.8v1.8h-.4c-2.9,0-4.6,1.8-4.6,5v7h-1.9v-13.7h1.8v2.7c.8-1.9,2.6-2.8,5.1-2.8h0Z"/>
    <path class="cls-7" d="m325.2,273.1v8.5h-1.8v-2.1c-.8,1.4-2.4,2.3-4.7,2.3-3.1,0-5-1.6-5-4,0-2.1,1.4-3.9,5.3-3.9h4.3v-.9c0-2.3-1.3-3.6-3.9-3.6-1.8,0-3.4.6-4.5,1.6l-.8-1.4c1.4-1.2,3.4-1.9,5.6-1.9,3.5.1,5.5,1.8,5.5,5.4h0Zm-1.8,4.3v-2.2h-4.3c-2.6,0-3.5,1-3.5,2.4,0,1.6,1.3,2.6,3.5,2.6s3.5-1,4.3-2.8h0Z"/>
    <path class="cls-7" d="m343.9,267.8v1.8h-.4c-2.9,0-4.6,1.8-4.6,5v7h-1.9v-13.7h1.8v2.7c.9-1.9,2.6-2.8,5.1-2.8h0Z"/>
    <path class="cls-7" d="m359,275.3h-11.4c.2,2.9,2.4,4.8,5.4,4.8,1.7,0,3.1-.6,4.2-1.8l1,1.2c-1.2,1.5-3.1,2.2-5.3,2.2-4.3,0-7.2-2.9-7.2-7s2.8-6.9,6.7-6.9,6.6,2.8,6.6,6.9c.1.2,0,.4,0,.6h0Zm-11.4-1.4h9.7c-.2-2.7-2.2-4.5-4.9-4.5s-4.5,1.8-4.8,4.5h0Z"/>
    <path class="cls-7" d="m372.8,273.1v8.5h-1.8v-2.1c-.8,1.4-2.4,2.3-4.7,2.3-3.1,0-5-1.6-5-4,0-2.1,1.4-3.9,5.3-3.9h4.3v-.9c0-2.3-1.3-3.6-3.9-3.6-1.8,0-3.4.6-4.5,1.6l-.8-1.4c1.4-1.2,3.4-1.9,5.6-1.9,3.5.1,5.5,1.8,5.5,5.4h0Zm-1.9,4.3v-2.2h-4.3c-2.6,0-3.5,1-3.5,2.4,0,1.6,1.3,2.6,3.5,2.6s3.6-1,4.3-2.8h0Z"/>
    <path class="cls-7" d="m377.8,262.3h1.9v19.3h-1.9v-19.3Z"/>
    <path class="cls-7" d="m384.4,263.6c0-.7.6-1.3,1.4-1.3s1.4.6,1.4,1.3c0,.8-.6,1.4-1.4,1.4s-1.4-.7-1.4-1.4h0Zm.4,4.3h1.9v13.7h-1.9v-13.7Z"/>
    <path class="cls-7" d="m401.4,280v1.5h-11.1v-1.2l8.6-10.9h-8.5v-1.6h10.8v1.2l-8.6,10.9h8.8v.1Z"/>
    <path class="cls-7" d="m415.4,273.1v8.5h-1.8v-2.1c-.8,1.4-2.4,2.3-4.7,2.3-3.1,0-5-1.6-5-4,0-2.1,1.4-3.9,5.3-3.9h4.3v-.9c0-2.3-1.3-3.6-3.9-3.6-1.8,0-3.4.6-4.5,1.6l-.8-1.4c1.4-1.2,3.4-1.9,5.6-1.9,3.5.1,5.5,1.8,5.5,5.4h0Zm-1.9,4.3v-2.2h-4.3c-2.6,0-3.5,1-3.5,2.4,0,1.6,1.3,2.6,3.5,2.6s3.6-1,4.3-2.8h0Z"/>
    <path class="cls-7" d="m430.1,278l1.4.9c-1.1,1.8-3,2.7-5.4,2.7h0l-.3,1.2c1.4.1,2.2,1,2.2,2.1,0,1.4-1.2,2.3-2.9,2.3-.9,0-1.6-.2-2.2-.6l.4-1c.5.3,1.1.5,1.7.5,1,0,1.6-.4,1.6-1.2,0-.7-.5-1.2-1.6-1.2h-.6l.6-2.2c-3.5-.5-5.9-3.2-5.9-6.9,0-4.1,3-6.9,7-6.9,2.3,0,4.3.9,5.4,2.7l-1.4.9c-.9-1.4-2.4-2-4-2-3,0-5.2,2.1-5.2,5.3s2.2,5.3,5.2,5.3c1.6.1,3.1-.5,4-1.9h0Z"/>
    <path class="cls-7" d="m445.4,273.1v8.5h-1.8v-2.1c-.8,1.4-2.4,2.3-4.7,2.3-3.1,0-5-1.6-5-4,0-2.1,1.4-3.9,5.3-3.9h4.3v-.9c0-2.3-1.3-3.6-3.9-3.6-1.8,0-3.4.6-4.5,1.6l-.8-1.4c1.4-1.2,3.4-1.9,5.6-1.9,3.5.1,5.5,1.8,5.5,5.4h0Zm-1.8,4.3v-2.2h-4.3c-2.6,0-3.5,1-3.5,2.4,0,1.6,1.3,2.6,3.5,2.6s3.5-1,4.3-2.8h0Zm-6.7-11.9h-1.1c0-1.7,1-2.9,2.3-2.9,1.6,0,2.4,1.8,3.4,1.8.8,0,1.3-.6,1.4-1.6h1.1c0,1.7-1,2.8-2.3,2.8-1.6,0-2.4-1.8-3.4-1.8-.8.1-1.3.7-1.4,1.7h0Z"/>
    <path class="cls-7" d="m449.1,274.7c0-4.1,3-6.9,7-6.9s6.9,2.9,6.9,6.9-2.9,7-6.9,7-7-2.9-7-7Zm12,0c0-3.2-2.2-5.3-5.1-5.3s-5.1,2.1-5.1,5.3,2.2,5.3,5.1,5.3,5.1-2.1,5.1-5.3Z"/>
    <path class="cls-7" d="m486.1,262.3v19.3h-1.8v-2.7c-1.1,1.9-3,2.8-5.3,2.8-3.9,0-6.8-2.8-6.8-7s2.9-6.9,6.8-6.9c2.2,0,4.1.9,5.2,2.7v-8.2h1.9Zm-1.8,12.4c0-3.2-2.2-5.3-5.1-5.3s-5.1,2.1-5.1,5.3,2.2,5.3,5.1,5.3,5.1-2.1,5.1-5.3Z"/>
    <path class="cls-7" d="m501.5,273.1v8.5h-1.8v-2.1c-.8,1.4-2.4,2.3-4.7,2.3-3.1,0-5-1.6-5-4,0-2.1,1.4-3.9,5.3-3.9h4.3v-.9c0-2.3-1.3-3.6-3.9-3.6-1.8,0-3.4.6-4.5,1.6l-.8-1.4c1.4-1.2,3.4-1.9,5.6-1.9,3.5.1,5.5,1.8,5.5,5.4h0Zm-1.8,4.3v-2.2h-4.3c-2.6,0-3.5,1-3.5,2.4,0,1.6,1.3,2.6,3.5,2.6s3.6-1,4.3-2.8h0Z"/>
    <path class="cls-7" d="m504.7,280l.8-1.5c1.1.9,2.9,1.5,4.9,1.5,2.6,0,3.7-.9,3.7-2.2,0-3.6-8.9-.8-8.9-6.2,0-2.2,1.9-3.9,5.4-3.9,1.8,0,3.7.5,4.8,1.3l-.8,1.5c-1.2-.8-2.6-1.2-4-1.2-2.5,0-3.6,1-3.6,2.3,0,3.7,8.9.9,8.9,6.2,0,2.4-2.1,3.9-5.6,3.9-2.3,0-4.5-.8-5.6-1.7h0Z"/>
    <path class="cls-7" d="m537.9,276.7h-10.1l-2.2,4.9h-2l8.3-18.2h1.9l8.3,18.2h-2l-2.2-4.9h0Zm-.7-1.6l-4.4-9.8-4.4,9.8h8.8Z"/>
    <path class="cls-7" d="m557.3,273.6v7.9h-1.8v-7.8c0-2.9-1.5-4.4-4.1-4.4-2.9,0-4.8,1.8-4.8,4.9v7.2h-1.8v-13.7h1.8v2.5c1-1.7,2.8-2.6,5.2-2.6,3.2.2,5.5,2.1,5.5,6h0Z"/>
    <path class="cls-7" d="m572.7,273.1v8.5h-1.8v-2.1c-.8,1.4-2.4,2.3-4.7,2.3-3.1,0-5-1.6-5-4,0-2.1,1.3-3.9,5.3-3.9h4.3v-.9c0-2.3-1.3-3.6-3.9-3.6-1.8,0-3.4.6-4.5,1.6l-.8-1.4c1.4-1.2,3.4-1.9,5.6-1.9,3.5.1,5.5,1.8,5.5,5.4Zm-1.9,4.3v-2.2h-4.3c-2.7,0-3.5,1-3.5,2.4,0,1.6,1.3,2.6,3.5,2.6s3.6-1,4.3-2.8h0Zm-3.5-11.6h-1.8l3.6-3.2h2.5l-4.3,3.2h0Z"/>
    <path class="cls-7" d="m577.7,262.3h1.8v19.3h-1.8v-19.3Z"/>
    <path class="cls-7" d="m584.3,263.6c0-.7.6-1.3,1.3-1.3s1.3.6,1.3,1.3c0,.8-.6,1.4-1.3,1.4s-1.3-.7-1.3-1.4h0Zm.4,4.3h1.8v13.7h-1.8v-13.7Z"/>
    <path class="cls-7" d="m589.8,280l.8-1.5c1.1.9,2.9,1.5,4.9,1.5,2.6,0,3.7-.9,3.7-2.2,0-3.6-8.9-.8-8.9-6.2,0-2.2,1.9-3.9,5.4-3.9,1.8,0,3.7.5,4.8,1.3l-.8,1.5c-1.2-.8-2.6-1.2-4-1.2-2.5,0-3.6,1-3.6,2.3,0,3.7,8.9.9,8.9,6.2,0,2.4-2.1,3.9-5.6,3.9-2.3,0-4.5-.8-5.6-1.7h0Z"/>
    <path class="cls-7" d="m616.3,275.3h-11.4c.2,2.9,2.4,4.8,5.4,4.8,1.7,0,3.2-.6,4.2-1.8l1,1.2c-1.2,1.5-3.1,2.2-5.3,2.2-4.3,0-7.2-2.9-7.2-7s2.8-6.9,6.7-6.9,6.6,2.8,6.6,6.9v.6h0Zm-11.5-1.4h9.7c-.2-2.7-2.2-4.5-4.9-4.5s-4.5,1.8-4.8,4.5Z"/>
    <path class="cls-7" d="m618.2,280l.8-1.5c1.1.9,2.9,1.5,4.9,1.5,2.6,0,3.7-.9,3.7-2.2,0-3.6-8.9-.8-8.9-6.2,0-2.2,1.9-3.9,5.4-3.9,1.8,0,3.7.5,4.8,1.3l-.8,1.5c-1.2-.8-2.6-1.2-4-1.2-2.5,0-3.6,1-3.6,2.3,0,3.7,8.9.9,8.9,6.2,0,2.4-2.1,3.9-5.6,3.9-2.3,0-4.5-.8-5.6-1.7h0Z"/>
    <path class="cls-7" d="m652.1,262.3v19.3h-1.8v-2.7c-1.1,1.9-3,2.8-5.3,2.8-3.9,0-6.8-2.8-6.8-7s2.9-6.9,6.8-6.9c2.2,0,4.1.9,5.2,2.7v-8.2h1.9Zm-1.8,12.4c0-3.2-2.2-5.3-5.1-5.3s-5.1,2.1-5.1,5.3,2.2,5.3,5.1,5.3,5.1-2.1,5.1-5.3Z"/>
    <path class="cls-7" d="m669.2,275.3h-11.4c.2,2.9,2.4,4.8,5.4,4.8,1.7,0,3.2-.6,4.2-1.8l1,1.2c-1.2,1.5-3.1,2.2-5.3,2.2-4.3,0-7.2-2.9-7.2-7s2.8-6.9,6.7-6.9,6.6,2.8,6.6,6.9c0,.2-.1.4,0,.6h0Zm-11.5-1.4h9.7c-.2-2.7-2.2-4.5-4.9-4.5s-4.5,1.8-4.8,4.5Z"/>
    <path class="cls-7" d="m680.1,263.4h1.9v18.2h-1.9v-18.2Z"/>
    <path class="cls-7" d="m710.2,273.6v7.9h-1.8v-7.8c0-2.9-1.5-4.4-3.9-4.4-2.8,0-4.6,1.8-4.6,4.9v7.2h-1.9v-7.8c0-2.9-1.5-4.4-4-4.4-2.8,0-4.6,1.8-4.6,4.9v7.2h-1.8v-13.7h1.8v2.5c1-1.6,2.7-2.6,5-2.6s4,1,4.9,2.9c1-1.8,2.9-2.9,5.4-2.9,3.3.3,5.5,2.2,5.5,6.1h0Z"/>
    <path class="cls-7" d="m729,274.7c0,4.2-2.9,7-6.8,7-2.2,0-4.1-.9-5.2-2.7v7.6h-1.8v-18.7h1.8v2.7c1.1-1.8,3-2.8,5.3-2.8,3.8,0,6.8,2.8,6.7,6.9h0Zm-1.8,0c0-3.2-2.2-5.3-5.1-5.3s-5.1,2.2-5.1,5.3,2.2,5.3,5.1,5.3,5.1-2.1,5.1-5.3Z"/>
    <path class="cls-7" d="m743.1,273.1v8.5h-1.8v-2.1c-.8,1.4-2.4,2.3-4.7,2.3-3.1,0-5-1.6-5-4,0-2.1,1.3-3.9,5.3-3.9h4.3v-.9c0-2.3-1.3-3.6-3.9-3.6-1.8,0-3.4.6-4.5,1.6l-.8-1.4c1.4-1.2,3.4-1.9,5.6-1.9,3.5.1,5.5,1.8,5.5,5.4Zm-1.9,4.3v-2.2h-4.3c-2.7,0-3.5,1-3.5,2.4,0,1.6,1.3,2.6,3.5,2.6s3.6-1,4.3-2.8h0Z"/>
    <path class="cls-7" d="m746.8,274.7c0-4.1,3-6.9,7-6.9,2.3,0,4.3.9,5.4,2.7l-1.4.9c-.9-1.4-2.4-2-4-2-3,0-5.2,2.1-5.2,5.3s2.2,5.3,5.2,5.3c1.6,0,3-.6,4-2l1.4.9c-1.1,1.8-3,2.7-5.4,2.7-4.1.1-7-2.8-7-6.9Z"/>
    <path class="cls-7" d="m770.1,280.7c-.7.6-1.8,1-2.9,1-2.6,0-4-1.5-4-4v-8.3h-2.4v-1.6h2.4v-3h1.8v3h4.2v1.6h-4.2v8.2c0,1.6.8,2.5,2.4,2.5.8,0,1.5-.2,2-.7l.7,1.3h0Z"/>
    <path class="cls-7" d="m771.6,274.7c0-4.1,3-6.9,7-6.9s6.9,2.9,6.9,6.9-2.9,7-6.9,7-7-2.9-7-7Zm12,0c0-3.2-2.2-5.3-5.1-5.3s-5.1,2.1-5.1,5.3,2.2,5.3,5.1,5.3,5.1-2.1,5.1-5.3Z"/>
    <path class="cls-7" d="m811.7,263.4v18.2h-1.6l-11.7-14.8v14.8h-1.9v-18.2h1.6l11.7,14.8v-14.8h1.9Z"/>
    <path class="cls-7" d="m815.9,274.7c0-4.1,3-6.9,7-6.9s6.9,2.9,6.9,6.9-2.9,7-6.9,7-7-2.9-7-7Zm12,0c0-3.2-2.2-5.3-5.1-5.3s-5.1,2.1-5.1,5.3,2.2,5.3,5.1,5.3,5.1-2.1,5.1-5.3Z"/>
    <path class="cls-7" d="m840.4,267.8v1.8h-.4c-2.9,0-4.6,1.8-4.6,5v7h-1.8v-13.7h1.8v2.7c.8-1.9,2.5-2.8,5-2.8h0Z"/>
    <path class="cls-7" d="m866.3,273.6v7.9h-1.8v-7.8c0-2.9-1.5-4.4-3.9-4.4-2.8,0-4.6,1.8-4.6,4.9v7.2h-1.8v-7.8c0-2.9-1.5-4.4-4-4.4-2.8,0-4.6,1.8-4.6,4.9v7.2h-1.8v-13.7h1.8v2.5c1-1.6,2.7-2.6,5-2.6s4,1,4.9,2.9c1-1.8,2.9-2.9,5.4-2.9,3.2.3,5.4,2.2,5.4,6.1h0Z"/>
    <path class="cls-7" d="m881.7,273.1v8.5h-1.8v-2.1c-.8,1.4-2.4,2.3-4.7,2.3-3.1,0-5-1.6-5-4,0-2.1,1.3-3.9,5.3-3.9h4.3v-.9c0-2.3-1.3-3.6-3.9-3.6-1.8,0-3.4.6-4.5,1.6l-.8-1.4c1.4-1.2,3.4-1.9,5.6-1.9,3.5.1,5.5,1.8,5.5,5.4h0Zm-1.9,4.3v-2.2h-4.3c-2.7,0-3.5,1-3.5,2.4,0,1.6,1.3,2.6,3.5,2.6s3.6-1,4.3-2.8h0Z"/>
    <path class="cls-7" d="m893.9,280.7c-.7.6-1.8,1-2.9,1-2.6,0-4-1.5-4-4v-8.3h-2.4v-1.6h2.4v-3h1.8v3h4.2v1.6h-4.2v8.2c0,1.6.8,2.5,2.4,2.5.8,0,1.5-.2,2-.7l.7,1.3h0Z"/>
    <path class="cls-7" d="m896.8,263.6c0-.7.6-1.3,1.3-1.3s1.3.6,1.3,1.3c0,.8-.6,1.4-1.3,1.4s-1.3-.7-1.3-1.4h0Zm.4,4.3h1.8v13.7h-1.8v-13.7Z"/>
    <path class="cls-7" d="m915.7,267.9l-6.1,13.7h-1.9l-6.1-13.7h1.9l5.1,11.6,5.2-11.6h1.9Z"/>
    <path class="cls-7" d="m916.6,274.7c0-4.1,3-6.9,7-6.9s6.9,2.9,6.9,6.9-2.9,7-6.9,7-7-2.9-7-7Zm12,0c0-3.2-2.2-5.3-5.1-5.3s-5.1,2.1-5.1,5.3,2.2,5.3,5.1,5.3,5.1-2.1,5.1-5.3Z"/>
    <path class="cls-7" d="m953,275.3h-11.4c.2,2.9,2.4,4.8,5.4,4.8,1.7,0,3.2-.6,4.2-1.8l1,1.2c-1.2,1.5-3.1,2.2-5.3,2.2-4.3,0-7.2-2.9-7.2-7s2.8-6.9,6.7-6.9,6.6,2.8,6.6,6.9c0,.2-.1.4,0,.6h0Zm-11.5-1.4h9.7c-.2-2.7-2.2-4.5-4.9-4.5s-4.5,1.8-4.8,4.5Z"/>
    <path class="cls-7" d="m979.3,273.6v7.9h-1.8v-7.8c0-2.9-1.5-4.4-3.9-4.4-2.8,0-4.6,1.8-4.6,4.9v7.2h-1.8v-7.8c0-2.9-1.5-4.4-4-4.4-2.8,0-4.6,1.8-4.6,4.9v7.2h-1.8v-13.7h1.8v2.5c1-1.6,2.7-2.6,5-2.6s4,1,4.9,2.9c1-1.8,2.9-2.9,5.4-2.9,3.2.3,5.4,2.2,5.4,6.1h0Z"/>
    <path class="cls-7" d="m989.8,279.3l.8-1.5c1.3,1.3,3.6,2.2,6,2.2,3.4,0,4.9-1.4,4.9-3.2,0-5-11.2-1.9-11.2-8.7,0-2.7,2.1-5,6.7-5,2,0,4.2.6,5.6,1.6l-.7,1.5c-1.6-1-3.4-1.5-5-1.5-3.3,0-4.8,1.5-4.8,3.3,0,5,11.2,2,11.2,8.6,0,2.7-2.1,5-6.8,5-2.7.1-5.3-.9-6.7-2.3h0Z"/>
    <path class="cls-7" d="m1017.5,273.1v8.5h-1.8v-2.1c-.8,1.4-2.4,2.3-4.7,2.3-3.1,0-5-1.6-5-4,0-2.1,1.3-3.9,5.3-3.9h4.3v-.9c0-2.3-1.3-3.6-3.9-3.6-1.8,0-3.4.6-4.5,1.6l-.8-1.4c1.4-1.2,3.4-1.9,5.6-1.9,3.5.1,5.5,1.8,5.5,5.4Zm-1.9,4.3v-2.2h-4.3c-2.7,0-3.5,1-3.5,2.4,0,1.6,1.3,2.6,3.5,2.6s3.6-1,4.3-2.8h0Z"/>
    <path class="cls-7" d="m1034.8,267.9v13.7h-1.8v-2.6c-1,1.7-2.7,2.6-4.9,2.6-3.5,0-5.8-2-5.8-5.9v-7.9h1.8v7.8c0,2.9,1.5,4.4,4.1,4.4,2.9,0,4.7-1.9,4.7-5v-7.2l1.9.1h0Zm-6.1-2.1h-1.8l3.6-3.2h2.5l-4.3,3.2h0Z"/>
    <path class="cls-7" d="m1052.5,262.3v19.3h-1.8v-2.7c-1.1,1.9-3,2.8-5.3,2.8-3.9,0-6.8-2.8-6.8-7s2.9-6.9,6.8-6.9c2.2,0,4.1.9,5.2,2.7v-8.2h1.9Zm-1.9,12.4c0-3.2-2.2-5.3-5.1-5.3s-5.1,2.1-5.1,5.3,2.2,5.3,5.1,5.3,5.1-2.1,5.1-5.3Z"/>
    <path class="cls-7" d="m1069.5,275.3h-11.4c.2,2.9,2.4,4.8,5.4,4.8,1.7,0,3.2-.6,4.2-1.8l1,1.2c-1.2,1.5-3.1,2.2-5.3,2.2-4.3,0-7.2-2.9-7.2-7s2.8-6.9,6.7-6.9,6.6,2.8,6.6,6.9c0,.2,0,.4,0,.6h0Zm-11.4-1.4h9.7c-.2-2.7-2.2-4.5-4.9-4.5s-4.6,1.8-4.8,4.5Z"/>
    <path class="cls-7" d="m1072.1,280.2c0-.8.6-1.4,1.4-1.4s1.4.6,1.4,1.4-.7,1.4-1.4,1.4-1.4-.5-1.4-1.4Z"/>
    <path class="cls-7" d="m1098.9,279.9v1.7h-12.9v-18.2h12.5v1.7h-10.6v6.5h9.4v1.6h-9.4v6.8l11-.1h0Z"/>
    <path class="cls-7" d="m1102.6,263.6c0-.7.6-1.3,1.3-1.3s1.3.6,1.3,1.3c0,.8-.6,1.4-1.3,1.4s-1.3-.7-1.3-1.4h0Zm.4,4.3h1.8v13.7h-1.8v-13.7Z"/>
    <path class="cls-7" d="m1108.1,280l.8-1.5c1.1.9,2.9,1.5,4.9,1.5,2.6,0,3.7-.9,3.7-2.2,0-3.6-8.9-.8-8.9-6.2,0-2.2,1.9-3.9,5.4-3.9,1.8,0,3.7.5,4.8,1.3l-.8,1.5c-1.2-.8-2.6-1.2-4-1.2-2.5,0-3.6,1-3.6,2.3,0,3.7,8.9.9,8.9,6.2,0,2.4-2.1,3.9-5.6,3.9-2.3,0-4.5-.8-5.6-1.7h0Z"/>
    <path class="cls-7" d="m1139.9,273.1v8.5h-1.8v-2.1c-.8,1.4-2.4,2.3-4.7,2.3-3.1,0-5-1.6-5-4,0-2.1,1.3-3.9,5.3-3.9h4.3v-.9c0-2.3-1.3-3.6-3.9-3.6-1.8,0-3.4.6-4.6,1.6l-.8-1.4c1.4-1.2,3.4-1.9,5.6-1.9,3.6.1,5.6,1.8,5.6,5.4h0Zm-1.9,4.3v-2.2h-4.3c-2.7,0-3.5,1-3.5,2.4,0,1.6,1.3,2.6,3.5,2.6s3.6-1,4.3-2.8h0Z"/>
    <path class="cls-7" d="m1144.9,262.3h1.8v19.3h-1.8v-19.3Z"/>
    <path class="cls-7" d="m1164.5,267.9v12c0,4.7-2.3,6.8-6.8,6.8-2.5,0-4.9-.8-6.4-2.1l.9-1.4c1.3,1.2,3.3,1.9,5.4,1.9,3.5,0,5-1.6,5-5v-1.7c-1.1,1.7-3.1,2.6-5.3,2.6-3.9,0-6.9-2.7-6.9-6.7s3-6.6,6.9-6.6c2.3,0,4.3.9,5.4,2.7v-2.6l1.8.1h0Zm-1.7,6.5c0-3-2.2-5-5.2-5s-5.2,2-5.2,5,2.2,5,5.2,5,5.2-2.1,5.2-5Z"/>
    <path class="cls-7" d="m1182,267.9v13.7h-1.8v-2.6c-1,1.7-2.7,2.6-4.9,2.6-3.5,0-5.8-2-5.8-5.9v-7.9h1.8v7.8c0,2.9,1.5,4.4,4.1,4.4,2.9,0,4.7-1.9,4.7-5v-7.2l1.9.1h0Z"/>
    <path class="cls-7" d="m1199.8,273.6v7.9h-1.8v-7.8c0-2.9-1.5-4.4-4.1-4.4-2.9,0-4.8,1.8-4.8,4.9v7.2h-1.8v-13.7h1.8v2.5c1-1.7,2.8-2.6,5.2-2.6,3.2.2,5.5,2.1,5.5,6h0Z"/>
    <path class="cls-7" d="m1202.9,280l.8-1.5c1.1.9,2.9,1.5,4.9,1.5,2.6,0,3.7-.9,3.7-2.2,0-3.6-8.9-.8-8.9-6.2,0-2.2,1.9-3.9,5.4-3.9,1.8,0,3.7.5,4.8,1.3l-.8,1.5c-1.2-.8-2.6-1.2-4-1.2-2.5,0-3.6,1-3.6,2.3,0,3.7,8.9.9,8.9,6.2,0,2.4-2.1,3.9-5.6,3.9-2.3,0-4.5-.8-5.6-1.7h0Z"/>
    <path class="cls-7" d="m1236.2,275.3h-11.4c.2,2.9,2.4,4.8,5.4,4.8,1.7,0,3.2-.6,4.2-1.8l1,1.2c-1.2,1.5-3.1,2.2-5.3,2.2-4.3,0-7.2-2.9-7.2-7s2.8-6.9,6.7-6.9,6.6,2.8,6.6,6.9c.1.2,0,.4,0,.6h0Zm-11.4-1.4h9.7c-.2-2.7-2.2-4.5-4.9-4.5s-4.5,1.8-4.8,4.5Z"/>
    <path class="cls-7" d="m1248.4,281.5l-4.3-5.7-4.4,5.7h-2.1l5.4-7-5.2-6.7h2.1l4.1,5.4,4.1-5.4h2l-5.2,6.7,5.5,7h-2Z"/>
    <path class="cls-7" d="m1265,275.3h-11.4c.2,2.9,2.4,4.8,5.4,4.8,1.7,0,3.2-.6,4.2-1.8l1,1.2c-1.2,1.5-3.1,2.2-5.3,2.2-4.3,0-7.2-2.9-7.2-7s2.8-6.9,6.7-6.9,6.6,2.8,6.6,6.9c0,.2-.1.4,0,.6h0Zm-11.5-1.4h9.7c-.2-2.7-2.2-4.5-4.9-4.5s-4.5,1.8-4.8,4.5Z"/>
    <path class="cls-7" d="m1291.3,273.6v7.9h-1.8v-7.8c0-2.9-1.5-4.4-3.9-4.4-2.8,0-4.6,1.8-4.6,4.9v7.2h-1.8v-7.8c0-2.9-1.5-4.4-3.9-4.4-2.8,0-4.6,1.8-4.6,4.9v7.2h-1.8v-13.7h1.8v2.5c1-1.6,2.7-2.6,5-2.6s4,1,4.9,2.9c1-1.8,2.9-2.9,5.4-2.9,3.1.3,5.3,2.2,5.3,6.1h0Z"/>
    <path class="cls-7" d="m1310.2,274.7c0,4.2-2.9,7-6.8,7-2.2,0-4.1-.9-5.2-2.7v7.6h-1.8v-18.7h1.8v2.7c1.1-1.8,3-2.8,5.3-2.8,3.8,0,6.7,2.8,6.7,6.9h0Zm-1.9,0c0-3.2-2.2-5.3-5.1-5.3s-5.1,2.2-5.1,5.3,2.2,5.3,5.1,5.3,5.1-2.1,5.1-5.3Z"/>
    <path class="cls-7" d="m1314,262.3h1.8v19.3h-1.8v-19.3Z"/>
    <path class="cls-7" d="m1319.6,274.7c0-4.1,3-6.9,7-6.9s6.9,2.9,6.9,6.9-2.9,7-6.9,7-7-2.9-7-7Zm12,0c0-3.2-2.2-5.3-5.1-5.3s-5.1,2.1-5.1,5.3,2.2,5.3,5.1,5.3,5.1-2.1,5.1-5.3Z"/>
    <path class="cls-7" d="m1335.4,280l.8-1.5c1.1.9,2.9,1.5,4.9,1.5,2.6,0,3.7-.9,3.7-2.2,0-3.6-8.9-.8-8.9-6.2,0-2.2,1.9-3.9,5.4-3.9,1.8,0,3.7.5,4.8,1.3l-.8,1.5c-1.2-.8-2.6-1.2-4-1.2-2.5,0-3.6,1-3.6,2.3,0,3.7,8.9.9,8.9,6.2,0,2.4-2.1,3.9-5.6,3.9-2.3,0-4.5-.8-5.6-1.7h0Z"/>
    <path class="cls-7" d="m1348.8,269.2c0-.8.6-1.4,1.4-1.4s1.4.6,1.4,1.4-.7,1.4-1.4,1.4-1.4-.6-1.4-1.4Zm0,11c0-.8.6-1.4,1.4-1.4s1.4.6,1.4,1.4-.7,1.4-1.4,1.4-1.4-.5-1.4-1.4Z"/>
    <g>
      <path class="cls-7" d="m161.5,364.8c0-1.1.9-2,1.9-2s1.9.8,1.9,2-.9,2-1.9,2-1.9-.8-1.9-2Z"/>
      <path class="cls-7" d="m177,353.8h7.4c5.8,0,9.8,3.7,9.8,9.1s-3.9,9.1-9.8,9.1h-7.4v-18.2Zm7.3,16.5c4.8,0,8-3.1,8-7.4s-3.1-7.4-8-7.4h-5.4v14.9l5.4-.1h0Z"/>
      <path class="cls-7" d="m197.7,354c0-.7.6-1.3,1.4-1.3s1.4.6,1.4,1.3c0,.8-.6,1.4-1.4,1.4s-1.4-.7-1.4-1.4h0Zm.4,4.3h1.9v13.7h-1.9v-13.7Z"/>
      <path class="cls-7" d="m212,358.2v1.8h-.4c-2.9,0-4.6,1.8-4.6,5v7h-1.9v-13.7h1.8v2.7c.8-1.9,2.6-2.8,5.1-2.8h0Z"/>
      <path class="cls-7" d="m227.1,365.7h-11.4c.2,2.9,2.4,4.8,5.4,4.8,1.7,0,3.1-.6,4.2-1.8l1,1.2c-1.2,1.5-3.1,2.2-5.3,2.2-4.3,0-7.2-2.9-7.2-7s2.8-6.9,6.7-6.9,6.6,2.8,6.6,6.9v.6h0Zm-11.4-1.4h9.7c-.2-2.7-2.2-4.5-4.9-4.5s-4.6,1.8-4.8,4.5Z"/>
      <path class="cls-7" d="m238.1,371.1c-.7.6-1.8,1-2.9,1-2.6,0-4-1.5-4-4v-8.3h-2.4v-1.6h2.4v-3h1.9v3h4.2v1.6h-4.2v8.2c0,1.6.8,2.5,2.4,2.5.8,0,1.5-.2,2-.7l.6,1.3h0Z"/>
      <path class="cls-7" d="m248.3,358.2v1.8h-.4c-2.9,0-4.6,1.8-4.6,5v7h-1.9v-13.7h1.8v2.7c.9-1.9,2.6-2.8,5.1-2.8h0Z"/>
      <path class="cls-7" d="m251.2,354c0-.7.6-1.3,1.4-1.3s1.4.6,1.4,1.3c0,.8-.6,1.4-1.4,1.4s-1.4-.7-1.4-1.4h0Zm.5,4.3h1.9v13.7h-1.9v-13.7Z"/>
      <path class="cls-7" d="m268.3,370.4v1.5h-11.1v-1.2l8.6-10.9h-8.5v-1.6h10.8v1.2l-8.6,10.9h8.8v.1Z"/>
      <path class="cls-7" d="m283.6,365.7h-11.4c.2,2.9,2.4,4.8,5.4,4.8,1.7,0,3.1-.6,4.2-1.8l1,1.2c-1.2,1.5-3.1,2.2-5.3,2.2-4.3,0-7.2-2.9-7.2-7s2.8-6.9,6.7-6.9,6.6,2.8,6.6,6.9c0,.2,0,.4,0,.6h0Zm-11.4-1.4h9.7c-.2-2.7-2.2-4.5-4.9-4.5s-4.6,1.8-4.8,4.5h0Z"/>
      <path class="cls-7" d="m285.5,370.4l.8-1.5c1.1.9,2.9,1.5,4.9,1.5,2.6,0,3.7-.9,3.7-2.2,0-3.6-8.9-.8-8.9-6.2,0-2.2,1.9-3.9,5.4-3.9,1.8,0,3.7.5,4.8,1.3l-.8,1.5c-1.2-.8-2.6-1.2-4-1.2-2.5,0-3.6,1-3.6,2.3,0,3.7,8.9.9,8.9,6.2,0,2.4-2.1,3.9-5.6,3.9-2.3,0-4.5-.8-5.6-1.7h0Z"/>
      <path class="cls-7" d="m320.1,362.9h1.9v6.9c-1.7,1.5-4.2,2.3-6.7,2.3-5.5,0-9.6-3.9-9.6-9.3s4.1-9.3,9.6-9.3c2.8,0,5.1.9,6.8,2.6l-1.2,1.2c-1.5-1.5-3.4-2.1-5.5-2.1-4.5,0-7.8,3.2-7.8,7.5s3.3,7.5,7.8,7.5c1.7,0,3.4-.4,4.8-1.4l-.1-5.9h0Z"/>
      <path class="cls-7" d="m339,365.7h-11.4c.2,2.9,2.4,4.8,5.4,4.8,1.7,0,3.1-.6,4.2-1.8l1,1.2c-1.2,1.5-3.1,2.2-5.3,2.2-4.3,0-7.2-2.9-7.2-7s2.8-6.9,6.7-6.9,6.6,2.8,6.6,6.9c0,.2-.1.4,0,.6h0Zm-11.5-1.4h9.7c-.2-2.7-2.2-4.5-4.9-4.5s-4.5,1.8-4.8,4.5h0Z"/>
      <path class="cls-7" d="m349.6,358.2v1.8h-.4c-2.9,0-4.6,1.8-4.6,5v7h-1.9v-13.7h1.8v2.7c.9-1.9,2.6-2.8,5.1-2.8h0Z"/>
      <path class="cls-7" d="m363.3,363.5v8.5h-1.8v-2.1c-.8,1.4-2.4,2.3-4.7,2.3-3.1,0-5-1.6-5-4,0-2.1,1.4-3.9,5.3-3.9h4.3v-.8c0-2.3-1.3-3.6-3.9-3.6-1.8,0-3.4.6-4.5,1.6l-.8-1.4c1.4-1.2,3.4-1.9,5.6-1.9,3.5,0,5.5,1.7,5.5,5.3h0Zm-1.9,4.3v-2.2h-4.3c-2.6,0-3.5,1-3.5,2.4,0,1.6,1.3,2.6,3.5,2.6s3.6-1,4.3-2.8h0Z"/>
      <path class="cls-7" d="m367.9,354c0-.7.6-1.3,1.4-1.3s1.4.6,1.4,1.3c0,.8-.6,1.4-1.4,1.4s-1.4-.7-1.4-1.4h0Zm.4,4.3h1.9v13.7h-1.9v-13.7Z"/>
      <path class="cls-7" d="m373.4,370.4l.8-1.5c1.1.9,2.9,1.5,4.9,1.5,2.6,0,3.7-.9,3.7-2.2,0-3.6-8.9-.8-8.9-6.2,0-2.2,1.9-3.9,5.4-3.9,1.8,0,3.7.5,4.8,1.3l-.8,1.5c-1.2-.8-2.6-1.2-4-1.2-2.5,0-3.6,1-3.6,2.3,0,3.7,8.9.9,8.9,6.2,0,2.4-2.1,3.9-5.6,3.9-2.3,0-4.5-.8-5.6-1.7h0Z"/>
      <path class="cls-7" d="m406.7,365.7h-11.4c.2,2.9,2.4,4.8,5.4,4.8,1.7,0,3.1-.6,4.2-1.8l1,1.2c-1.2,1.5-3.1,2.2-5.3,2.2-4.3,0-7.2-2.9-7.2-7s2.8-6.9,6.7-6.9,6.6,2.8,6.6,6.9c0,.2,0,.4,0,.6h0Zm-11.4-1.4h9.7c-.2-2.7-2.2-4.5-4.9-4.5s-4.6,1.8-4.8,4.5h0Z"/>
      <path class="cls-7" d="m430.5,362.9h1.9v6.9c-1.7,1.5-4.2,2.3-6.7,2.3-5.5,0-9.6-3.9-9.6-9.3s4.1-9.3,9.6-9.3c2.8,0,5.1.9,6.8,2.6l-1.2,1.2c-1.5-1.5-3.4-2.1-5.5-2.1-4.5,0-7.8,3.2-7.8,7.5s3.3,7.5,7.8,7.5c1.7,0,3.4-.4,4.8-1.4l-.1-5.9h0Z"/>
      <path class="cls-7" d="m449.7,358.3v13.7h-1.7v-2.5c-1,1.7-2.7,2.6-4.9,2.6-3.5,0-5.8-2-5.8-5.9v-7.9h1.9v7.8c0,2.9,1.5,4.4,4.1,4.4,2.9,0,4.6-1.9,4.6-5v-7.2h1.8Z"/>
      <path class="cls-7" d="m454.5,354c0-.7.6-1.3,1.4-1.3s1.4.6,1.4,1.3c0,.8-.6,1.4-1.4,1.4s-1.4-.7-1.4-1.4h0Zm.4,4.3h1.9v13.7h-1.9v-13.7Z"/>
      <path class="cls-7" d="m472.2,363.5v8.5h-1.8v-2.1c-.8,1.4-2.4,2.3-4.7,2.3-3.1,0-5-1.6-5-4,0-2.1,1.4-3.9,5.3-3.9h4.3v-.8c0-2.3-1.3-3.6-3.9-3.6-1.8,0-3.4.6-4.5,1.6l-.8-1.4c1.4-1.2,3.4-1.9,5.6-1.9,3.5,0,5.5,1.7,5.5,5.3h0Zm-1.8,4.3v-2.2h-4.3c-2.6,0-3.5,1-3.5,2.4,0,1.6,1.3,2.6,3.5,2.6s3.5-1,4.3-2.8h0Z"/>
      <path class="cls-7" d="m482.8,362.9c0-5.3,4.1-9.3,9.6-9.3s9.5,3.9,9.5,9.3-4.1,9.3-9.5,9.3-9.6-4-9.6-9.3Zm17.2,0c0-4.3-3.2-7.5-7.6-7.5s-7.7,3.2-7.7,7.5,3.3,7.5,7.7,7.5,7.6-3.2,7.6-7.5Z"/>
      <path class="cls-7" d="m512.8,358.2v1.8h-.4c-2.9,0-4.6,1.8-4.6,5v7h-1.9v-13.7h1.8v2.7c.8-1.9,2.5-2.8,5.1-2.8h0Z"/>
      <path class="cls-7" d="m515.7,354c0-.7.6-1.3,1.3-1.3s1.3.6,1.3,1.3c0,.8-.6,1.4-1.3,1.4s-1.3-.7-1.3-1.4h0Zm.4,4.3h1.8v13.7h-1.8v-13.7Z"/>
      <path class="cls-7" d="m535,365.7h-11.4c.2,2.9,2.4,4.8,5.4,4.8,1.7,0,3.2-.6,4.2-1.8l1,1.2c-1.2,1.5-3.1,2.2-5.3,2.2-4.3,0-7.2-2.9-7.2-7s2.8-6.9,6.7-6.9,6.6,2.8,6.6,6.9v.6h0Zm-11.5-1.4h9.7c-.2-2.7-2.2-4.5-4.9-4.5s-4.5,1.8-4.8,4.5Z"/>
      <path class="cls-7" d="m551.4,364v7.9h-1.8v-7.8c0-2.9-1.5-4.4-4.1-4.4-2.9,0-4.8,1.8-4.8,4.9v7.2h-1.8v-13.7h1.8v2.5c1-1.7,2.8-2.6,5.2-2.6,3.2.2,5.5,2.1,5.5,6h0Z"/>
      <path class="cls-7" d="m563.6,371.1c-.7.6-1.8,1-2.9,1-2.6,0-4-1.5-4-4v-8.3h-2.4v-1.6h2.4v-3h1.8v3h4.2v1.6h-4.2v8.2c0,1.6.8,2.5,2.4,2.5.8,0,1.5-.2,2-.7l.7,1.3h0Z"/>
      <path class="cls-7" d="m577.3,363.5v8.5h-1.8v-2.1c-.8,1.4-2.4,2.3-4.7,2.3-3.1,0-5-1.6-5-4,0-2.1,1.3-3.9,5.3-3.9h4.3v-.8c0-2.3-1.3-3.6-3.9-3.6-1.8,0-3.4.6-4.5,1.6l-.8-1.4c1.4-1.2,3.4-1.9,5.6-1.9,3.4,0,5.4,1.7,5.5,5.3h0Zm-1.9,4.3v-2.2h-4.3c-2.7,0-3.5,1-3.5,2.4,0,1.6,1.3,2.6,3.5,2.6s3.6-1,4.3-2.8h0Z"/>
      <path class="cls-7" d="m589.5,371.1c-.7.6-1.8,1-2.9,1-2.6,0-4-1.5-4-4v-8.3h-2.4v-1.6h2.4v-3h1.8v3h4.2v1.6h-4.2v8.2c0,1.6.8,2.5,2.4,2.5.8,0,1.5-.2,2-.7l.7,1.3h0Z"/>
      <path class="cls-7" d="m592.4,354c0-.7.6-1.3,1.3-1.3s1.3.6,1.3,1.3c0,.8-.6,1.4-1.3,1.4s-1.3-.7-1.3-1.4h0Zm.4,4.3h1.8v13.7h-1.8v-13.7Z"/>
      <path class="cls-7" d="m611.3,358.3l-6.1,13.7h-1.9l-6.1-13.7h1.9l5.1,11.6,5.2-11.6h1.9Z"/>
      <path class="cls-7" d="m612.2,365.1c0-4.1,3-6.9,7-6.9s6.9,2.9,6.9,6.9-2.9,7-6.9,7-7-2.9-7-7Zm12,0c0-3.2-2.2-5.3-5.1-5.3s-5.1,2.1-5.1,5.3,2.2,5.3,5.1,5.3,5.1-2.1,5.1-5.3Z"/>
      <path class="cls-7" d="m650.5,365.1c0,4.2-2.9,7-6.8,7-2.2,0-4.1-.9-5.2-2.7v7.6h-1.8v-18.7h1.8v2.7c1.1-1.8,3-2.8,5.3-2.8,3.8,0,6.7,2.8,6.7,6.9h0Zm-1.8,0c0-3.2-2.2-5.3-5.1-5.3s-5.1,2.2-5.1,5.3,2.2,5.3,5.1,5.3,5.1-2.1,5.1-5.3Z"/>
      <path class="cls-7" d="m664.5,363.5v8.5h-1.8v-2.1c-.8,1.4-2.4,2.3-4.7,2.3-3.1,0-5-1.6-5-4,0-2.1,1.3-3.9,5.3-3.9h4.3v-.8c0-2.3-1.3-3.6-3.9-3.6-1.8,0-3.4.6-4.5,1.6l-.8-1.4c1.4-1.2,3.4-1.9,5.6-1.9,3.5,0,5.5,1.7,5.5,5.3Zm-1.8,4.3v-2.2h-4.3c-2.7,0-3.5,1-3.5,2.4,0,1.6,1.3,2.6,3.5,2.6s3.5-1,4.3-2.8h0Z"/>
      <path class="cls-7" d="m676.4,358.2v1.8h-.4c-2.9,0-4.6,1.8-4.6,5v7h-1.8v-13.7h1.8v2.7c.8-1.9,2.5-2.8,5-2.8h0Z"/>
      <path class="cls-7" d="m690,363.5v8.5h-1.8v-2.1c-.8,1.4-2.4,2.3-4.7,2.3-3.1,0-5-1.6-5-4,0-2.1,1.3-3.9,5.3-3.9h4.3v-.8c0-2.3-1.3-3.6-3.9-3.6-1.8,0-3.4.6-4.5,1.6l-.8-1.4c1.4-1.2,3.4-1.9,5.6-1.9,3.5,0,5.5,1.7,5.5,5.3h0Zm-1.8,4.3v-2.2h-4.3c-2.7,0-3.5,1-3.5,2.4,0,1.6,1.3,2.6,3.5,2.6s3.6-1,4.3-2.8h0Z"/>
      <path class="cls-7" d="m715.1,370.3v1.7h-12.9v-18.2h12.5v1.7h-10.6v6.5h9.4v1.6h-9.4v6.8l11-.1h0Z"/>
      <path class="cls-7" d="m719.3,352.7h1.8v19.3h-1.8v-19.3Z"/>
      <path class="cls-7" d="m736.6,363.5v8.5h-1.8v-2.1c-.8,1.4-2.4,2.3-4.7,2.3-3.1,0-5-1.6-5-4,0-2.1,1.3-3.9,5.3-3.9h4.3v-.8c0-2.3-1.3-3.6-3.9-3.6-1.8,0-3.4.6-4.5,1.6l-.8-1.4c1.4-1.2,3.4-1.9,5.6-1.9,3.5,0,5.5,1.7,5.5,5.3h0Zm-1.9,4.3v-2.2h-4.3c-2.7,0-3.5,1-3.5,2.4,0,1.6,1.3,2.6,3.5,2.6s3.6-1,4.3-2.8h0Z"/>
      <path class="cls-7" d="m755.5,365.1c0,4.1-2.9,7-6.8,7-2.3,0-4.2-1-5.3-2.8v2.7h-1.8v-19.3h1.8v8.2c1.1-1.8,3-2.7,5.2-2.7,4,0,6.9,2.8,6.9,6.9h0Zm-1.9,0c0-3.2-2.2-5.3-5.1-5.3s-5.1,2.1-5.1,5.3,2.2,5.3,5.1,5.3,5.1-2.1,5.1-5.3Z"/>
      <path class="cls-7" d="m757.9,365.1c0-4.1,3-6.9,7-6.9s6.9,2.9,6.9,6.9-2.9,7-6.9,7-7-2.9-7-7Zm12,0c0-3.2-2.2-5.3-5.1-5.3s-5.1,2.1-5.1,5.3,2.2,5.3,5.1,5.3,5.1-2.1,5.1-5.3Z"/>
      <path class="cls-7" d="m782.4,358.2v1.8h-.4c-2.9,0-4.6,1.8-4.6,5v7h-1.8v-13.7h1.8v2.7c.8-1.9,2.5-2.8,5-2.8h0Z"/>
      <path class="cls-7" d="m796,363.5v8.5h-1.8v-2.1c-.8,1.4-2.4,2.3-4.7,2.3-3.1,0-5-1.6-5-4,0-2.1,1.3-3.9,5.3-3.9h4.3v-.8c0-2.3-1.3-3.6-3.9-3.6-1.8,0-3.4.6-4.5,1.6l-.8-1.4c1.4-1.2,3.4-1.9,5.6-1.9,3.5,0,5.5,1.7,5.5,5.3h0Zm-1.8,4.3v-2.2h-4.3c-2.7,0-3.5,1-3.5,2.4,0,1.6,1.3,2.6,3.5,2.6s3.6-1,4.3-2.8h0Z"/>
      <path class="cls-7" d="m810.8,368.4l1.4.9c-1.1,1.8-3,2.7-5.4,2.7h0l-.3,1.2c1.4.1,2.2,1,2.2,2.1,0,1.4-1.2,2.3-2.9,2.3-.9,0-1.6-.2-2.2-.6l.4-1c.5.3,1.1.5,1.7.5,1,0,1.6-.4,1.6-1.2,0-.7-.5-1.2-1.6-1.2h-.6l.6-2.2c-3.5-.5-5.9-3.2-5.9-6.9,0-4.1,3-6.9,7-6.9,2.3,0,4.3.9,5.4,2.7l-1.4.9c-.9-1.4-2.4-2-4-2-3,0-5.2,2.1-5.2,5.3s2.2,5.3,5.2,5.3c1.6.1,3-.5,4-1.9h0Z"/>
      <path class="cls-7" d="m826.1,363.5v8.5h-1.8v-2.1c-.8,1.4-2.4,2.3-4.7,2.3-3.1,0-5-1.6-5-4,0-2.1,1.3-3.9,5.3-3.9h4.3v-.8c0-2.3-1.3-3.6-3.9-3.6-1.8,0-3.4.6-4.5,1.6l-.8-1.5c1.4-1.2,3.4-1.9,5.6-1.9,3.5.1,5.5,1.8,5.5,5.4h0Zm-1.9,4.3v-2.2h-4.3c-2.7,0-3.5,1-3.5,2.4,0,1.6,1.3,2.6,3.5,2.6s3.6-1,4.3-2.8h0Zm-6.6-11.9h-1.1c0-1.7,1-2.9,2.3-2.9,1.6,0,2.4,1.8,3.4,1.8.8,0,1.3-.6,1.3-1.6h1.1c0,1.7-1,2.8-2.3,2.8-1.6,0-2.4-1.8-3.4-1.8-.7.1-1.2.7-1.3,1.7h0Z"/>
      <path class="cls-7" d="m829.8,365.1c0-4.1,3-6.9,7-6.9s6.9,2.9,6.9,6.9-2.9,7-6.9,7-7-2.9-7-7Zm12,0c0-3.2-2.2-5.3-5.1-5.3s-5.1,2.1-5.1,5.3,2.2,5.3,5.1,5.3,5.1-2.1,5.1-5.3Z"/>
      <path class="cls-7" d="m866.7,352.7v19.3h-1.7v-2.7c-1.1,1.9-3,2.8-5.3,2.8-3.9,0-6.8-2.8-6.8-7s2.9-6.9,6.8-6.9c2.2,0,4.1.9,5.2,2.7v-8.2h1.8Zm-1.8,12.4c0-3.2-2.2-5.3-5.1-5.3s-5.1,2.1-5.1,5.3,2.2,5.3,5.1,5.3,5.1-2.1,5.1-5.3Z"/>
      <path class="cls-7" d="m883.8,365.7h-11.4c.2,2.9,2.4,4.8,5.4,4.8,1.7,0,3.2-.6,4.2-1.8l1,1.2c-1.2,1.5-3.1,2.2-5.3,2.2-4.3,0-7.2-2.9-7.2-7s2.8-6.9,6.7-6.9,6.6,2.8,6.6,6.9v.6h0Zm-11.4-1.4h9.7c-.2-2.7-2.2-4.5-4.9-4.5s-4.6,1.8-4.8,4.5Z"/>
      <path class="cls-7" d="m906.2,367.1h-10.1l-2.2,4.9h-2l8.3-18.2h1.9l8.3,18.2h-2l-2.2-4.9h0Zm-.7-1.6l-4.4-9.8-4.4,9.8h8.8Z"/>
      <path class="cls-7" d="m925.6,364v7.9h-1.8v-7.8c0-2.9-1.5-4.4-4.1-4.4-2.9,0-4.8,1.8-4.8,4.9v7.2h-1.9v-13.7h1.8v2.5c1-1.7,2.8-2.6,5.2-2.6,3.3.2,5.6,2.1,5.6,6h0Z"/>
      <path class="cls-7" d="m941,363.5v8.5h-1.8v-2.1c-.8,1.4-2.4,2.3-4.7,2.3-3.1,0-5-1.6-5-4,0-2.1,1.3-3.9,5.3-3.9h4.3v-.8c0-2.3-1.3-3.6-3.9-3.6-1.8,0-3.4.6-4.5,1.6l-.8-1.4c1.4-1.2,3.4-1.9,5.6-1.9,3.5,0,5.5,1.7,5.5,5.3Zm-1.9,4.3v-2.2h-4.3c-2.7,0-3.5,1-3.5,2.4,0,1.6,1.3,2.6,3.5,2.6s3.6-1,4.3-2.8h0Zm-3.5-11.6h-1.8l3.6-3.2h2.5l-4.3,3.2h0Z"/>
      <path class="cls-7" d="m946,352.7h1.8v19.3h-1.8v-19.3Z"/>
      <path class="cls-7" d="m952.6,354c0-.7.6-1.3,1.3-1.3s1.3.6,1.3,1.3c0,.8-.6,1.4-1.3,1.4s-1.3-.7-1.3-1.4h0Zm.4,4.3h1.8v13.7h-1.8v-13.7Z"/>
      <path class="cls-7" d="m958.1,370.4l.8-1.5c1.1.9,2.9,1.5,4.9,1.5,2.6,0,3.7-.9,3.7-2.2,0-3.6-8.9-.8-8.9-6.2,0-2.2,1.9-3.9,5.4-3.9,1.8,0,3.7.5,4.8,1.3l-.8,1.5c-1.2-.8-2.6-1.2-4-1.2-2.5,0-3.6,1-3.6,2.3,0,3.7,8.9.9,8.9,6.2,0,2.4-2.1,3.9-5.6,3.9-2.3,0-4.5-.8-5.6-1.7h0Z"/>
      <path class="cls-7" d="m984.6,365.7h-11.4c.2,2.9,2.4,4.8,5.4,4.8,1.7,0,3.2-.6,4.2-1.8l1,1.2c-1.2,1.5-3.1,2.2-5.3,2.2-4.3,0-7.2-2.9-7.2-7s2.8-6.9,6.7-6.9,6.6,2.8,6.6,6.9v.6h0Zm-11.4-1.4h9.7c-.2-2.7-2.2-4.5-4.9-4.5s-4.6,1.8-4.8,4.5Z"/>
      <path class="cls-7" d="m1007.7,352.7v19.3h-1.8v-2.7c-1.1,1.9-3,2.8-5.3,2.8-3.9,0-6.8-2.8-6.8-7s2.9-6.9,6.8-6.9c2.2,0,4.1.9,5.2,2.7v-8.2h1.9Zm-1.8,12.4c0-3.2-2.2-5.3-5.1-5.3s-5.1,2.1-5.1,5.3,2.2,5.3,5.1,5.3,5.1-2.1,5.1-5.3Z"/>
      <path class="cls-7" d="m1024.7,365.7h-11.4c.2,2.9,2.4,4.8,5.4,4.8,1.7,0,3.2-.6,4.2-1.8l1,1.2c-1.2,1.5-3.1,2.2-5.3,2.2-4.3,0-7.2-2.9-7.2-7s2.8-6.9,6.7-6.9,6.6,2.8,6.6,6.9c.1.2,0,.4,0,.6h0Zm-11.4-1.4h9.7c-.2-2.7-2.2-4.5-4.9-4.5s-4.6,1.8-4.8,4.5Z"/>
      <path class="cls-7" d="m1035.7,353.8h1.9v18.2h-1.9v-18.2Z"/>
      <path class="cls-7" d="m1065.8,364v7.9h-1.8v-7.8c0-2.9-1.5-4.4-3.9-4.4-2.8,0-4.6,1.8-4.6,4.9v7.2h-1.8v-7.8c0-2.9-1.5-4.4-3.9-4.4-2.8,0-4.6,1.8-4.6,4.9v7.2h-1.8v-13.7h1.8v2.5c1-1.6,2.7-2.6,5-2.6s4,1,4.9,2.9c1-1.8,2.9-2.9,5.4-2.9,3.1.3,5.3,2.2,5.3,6.1h0Z"/>
      <path class="cls-7" d="m1084.7,365.1c0,4.2-2.9,7-6.8,7-2.2,0-4.1-.9-5.2-2.7v7.6h-1.8v-18.7h1.8v2.7c1.1-1.8,3-2.8,5.3-2.8,3.7,0,6.7,2.8,6.7,6.9h0Zm-1.9,0c0-3.2-2.2-5.3-5.1-5.3s-5.1,2.2-5.1,5.3,2.2,5.3,5.1,5.3,5.1-2.1,5.1-5.3Z"/>
      <path class="cls-7" d="m1098.7,363.5v8.5h-1.8v-2.1c-.8,1.4-2.4,2.3-4.7,2.3-3.1,0-5-1.6-5-4,0-2.1,1.3-3.9,5.3-3.9h4.3v-.8c0-2.3-1.3-3.6-3.9-3.6-1.8,0-3.4.6-4.6,1.6l-.8-1.4c1.4-1.2,3.4-1.9,5.6-1.9,3.6,0,5.6,1.7,5.6,5.3h0Zm-1.9,4.3v-2.2h-4.3c-2.7,0-3.5,1-3.5,2.4,0,1.6,1.3,2.6,3.5,2.6s3.6-1,4.3-2.8h0Z"/>
      <path class="cls-7" d="m1102.3,365.1c0-4.1,3-6.9,7.1-6.9,2.3,0,4.3.9,5.4,2.7l-1.4.9c-.9-1.4-2.4-2-4-2-3,0-5.2,2.1-5.2,5.3s2.2,5.3,5.2,5.3c1.6,0,3-.6,4-2l1.4.9c-1.1,1.8-3,2.7-5.4,2.7-4.1.1-7.1-2.8-7.1-6.9Z"/>
      <path class="cls-7" d="m1125.7,371.1c-.7.6-1.8,1-2.9,1-2.6,0-4-1.5-4-4v-8.3h-2.4v-1.6h2.4v-3h1.8v3h4.2v1.6h-4.2v8.2c0,1.6.8,2.5,2.4,2.5.8,0,1.5-.2,2-.7l.7,1.3h0Z"/>
      <path class="cls-7" d="m1127.2,365.1c0-4.1,3-6.9,7-6.9s6.9,2.9,6.9,6.9-2.9,7-6.9,7-7-2.9-7-7Zm12,0c0-3.2-2.2-5.3-5.1-5.3s-5.1,2.1-5.1,5.3,2.2,5.3,5.1,5.3,5.1-2.1,5.1-5.3Z"/>
      <path class="cls-7" d="m1164.5,372l-4.2-5.9c-.5,0-.9.1-1.5.1h-4.9v5.8h-1.9v-18.2h6.8c4.6,0,7.4,2.3,7.4,6.2,0,2.9-1.5,4.9-4.2,5.7l4.4,6.2-1.9.1h0Zm-.1-12c0-2.9-1.9-4.6-5.6-4.6h-4.8v9.1h4.8c3.7,0,5.6-1.6,5.6-4.5h0Z"/>
      <path class="cls-7" d="m1182.4,365.7h-11.4c.2,2.9,2.4,4.8,5.4,4.8,1.7,0,3.2-.6,4.2-1.8l1,1.2c-1.2,1.5-3.1,2.2-5.3,2.2-4.3,0-7.2-2.9-7.2-7s2.8-6.9,6.7-6.9,6.6,2.8,6.6,6.9c0,.2,0,.4,0,.6h0Zm-11.4-1.4h9.7c-.2-2.7-2.2-4.5-4.9-4.5s-4.6,1.8-4.8,4.5Z"/>
      <path class="cls-7" d="m1198.9,358.3v12c0,4.7-2.3,6.8-6.8,6.8-2.5,0-4.9-.8-6.4-2.1l.9-1.4c1.3,1.2,3.3,1.9,5.4,1.9,3.5,0,5-1.6,5-5v-1.7c-1.1,1.7-3.1,2.6-5.3,2.6-3.9,0-6.9-2.7-6.9-6.7s3-6.6,6.9-6.6c2.3,0,4.3.9,5.4,2.7v-2.6l1.8.1h0Zm-1.8,6.5c0-3-2.2-5-5.2-5s-5.2,2-5.2,5,2.2,5,5.2,5,5.2-2.1,5.2-5Z"/>
      <path class="cls-7" d="m1216.4,358.3v13.7h-1.8v-2.5c-1,1.7-2.7,2.6-4.9,2.6-3.5,0-5.8-2-5.8-5.9v-7.9h1.8v7.8c0,2.9,1.5,4.4,4.1,4.4,2.9,0,4.7-1.9,4.7-5v-7.2h1.9Z"/>
      <path class="cls-7" d="m1221.5,352.7h1.8v19.3h-1.8v-19.3Z"/>
      <path class="cls-7" d="m1238.8,363.5v8.5h-1.8v-2.1c-.8,1.4-2.4,2.3-4.7,2.3-3.1,0-5-1.6-5-4,0-2.1,1.3-3.9,5.3-3.9h4.3v-.8c0-2.3-1.3-3.6-3.9-3.6-1.8,0-3.4.6-4.6,1.6l-.8-1.4c1.4-1.2,3.4-1.9,5.6-1.9,3.6,0,5.6,1.7,5.6,5.3h0Zm-1.8,4.3v-2.2h-4.3c-2.7,0-3.5,1-3.5,2.4,0,1.6,1.3,2.6,3.5,2.6s3.6-1,4.3-2.8h0Z"/>
      <path class="cls-7" d="m1251.1,371.1c-.7.6-1.8,1-2.9,1-2.6,0-4-1.5-4-4v-8.3h-2.4v-1.6h2.4v-3h1.8v3h4.2v1.6h-4.2v8.2c0,1.6.8,2.5,2.4,2.5.8,0,1.5-.2,2-.7l.7,1.3h0Z"/>
      <path class="cls-7" d="m1252.6,365.1c0-4.1,3-6.9,7-6.9s6.9,2.9,6.9,6.9-2.9,7-6.9,7-7-2.9-7-7Zm12,0c0-3.2-2.2-5.3-5.1-5.3s-5.1,2.1-5.1,5.3,2.2,5.3,5.1,5.3,5.1-2.1,5.1-5.3Zm-3.2-12.2h2.5l-4.2,3.2h-1.8l3.5-3.2h0Z"/>
      <path class="cls-7" d="m1277.1,358.2v1.8h-.4c-2.9,0-4.6,1.8-4.6,5v7h-1.8v-13.7h1.8v2.7c.8-1.9,2.5-2.8,5-2.8h0Z"/>
      <path class="cls-7" d="m1280,354c0-.7.6-1.3,1.3-1.3s1.3.6,1.3,1.3c0,.8-.6,1.4-1.3,1.4s-1.3-.7-1.3-1.4h0Zm.5,4.3h1.8v13.7h-1.8v-13.7Z"/>
      <path class="cls-7" d="m1286.1,365.1c0-4.1,3-6.9,7-6.9s6.9,2.9,6.9,6.9-2.9,7-6.9,7-7-2.9-7-7Zm12,0c0-3.2-2.2-5.3-5.1-5.3s-5.1,2.1-5.1,5.3,2.2,5.3,5.1,5.3,5.1-2.1,5.1-5.3Z"/>
      <path class="cls-7" d="m1308,364.2h13v1.3h-13v-1.3Z"/>
      <path class="cls-7" d="m1342.2,367.1h-10.2l-2.2,4.9h-2l8.3-18.2h1.9l8.3,18.2h-2l-2.1-4.9h0Zm-.7-1.6l-4.4-9.8-4.4,9.8h8.8Z"/>
      <path class="cls-7" d="m1349.4,353.8h1.9v18.2h-1.9v-18.2Z"/>
      <path class="cls-7" d="m1369.7,372l-4.2-5.9c-.5,0-.9.1-1.5.1h-4.9v5.8h-1.9v-18.2h6.8c4.6,0,7.4,2.3,7.4,6.2,0,2.9-1.5,4.9-4.2,5.7l4.4,6.2-1.9.1h0Zm-.1-12c0-2.9-1.9-4.6-5.6-4.6h-4.8v9.1h4.8c3.7,0,5.6-1.6,5.6-4.5h0Z"/>
      <path class="cls-7" d="m1382.6,364.8c0-4.8,1.1-9.1,3-12.2h1.8c-2.1,3.6-3,7.5-3,12.2s.9,8.6,3,12.2h-1.8c-1.9-3.1-3-7.4-3-12.2Z"/>
      <path class="cls-7" d="m1402.2,370.3v1.7h-12.8v-1.3l7.6-7.4c2.1-2,2.4-3.2,2.4-4.5,0-2.1-1.5-3.4-4.3-3.4-2.1,0-3.8.6-5,2l-1.3-1.1c1.4-1.7,3.7-2.6,6.4-2.6,3.7,0,6,1.9,6,4.9,0,1.7-.6,3.3-3,5.7l-6.2,6.1,10.2-.1h0Z"/>
      <path class="cls-7" d="m1404.5,362.9c0-5.8,3-9.3,7.2-9.3s7.3,3.5,7.3,9.3-3.1,9.3-7.3,9.3-7.2-3.5-7.2-9.3Zm12.6,0c0-4.9-2.2-7.5-5.4-7.5s-5.4,2.7-5.4,7.5,2.2,7.5,5.4,7.5,5.4-2.7,5.4-7.5Z"/>
      <path class="cls-7" d="m1426.7,353.8v18.2h-1.9v-16.5h-4.3v-1.7h6.2Z"/>
      <path class="cls-7" d="m1445,366.9c0,3.2-2.7,5.2-7.1,5.2s-7-2-7-5.2c0-2.2,1.2-3.7,3.5-4.5-1.8-.7-2.9-2.1-2.9-4,0-3,2.5-4.8,6.4-4.8s6.4,1.9,6.4,4.8c0,1.9-1,3.3-2.9,4,2.3.8,3.6,2.3,3.6,4.5h0Zm-1.9,0c0-2.2-1.9-3.6-5.2-3.6s-5.1,1.4-5.1,3.6,1.9,3.7,5.1,3.7,5.2-1.5,5.2-3.7Zm-5.2-5.2c2.8,0,4.5-1.3,4.5-3.2s-1.8-3.3-4.5-3.3-4.5,1.2-4.5,3.3,1.7,3.2,4.5,3.2h0Z"/>
      <path class="cls-7" d="m1447.3,377c2.1-3.6,3-7.5,3-12.2s-.9-8.6-3-12.2h1.8c1.9,3.1,3,7.4,3,12.2s-1.1,9-3,12.2h-1.8Z"/>
      <path class="cls-7" d="m1456.2,359.6c0-.8.6-1.4,1.4-1.4s1.4.6,1.4,1.4-.7,1.4-1.4,1.4-1.4-.6-1.4-1.4Zm0,11c0-.8.6-1.4,1.4-1.4s1.4.6,1.4,1.4-.7,1.4-1.4,1.4-1.4-.5-1.4-1.4Z"/>
    </g>
    <g>
      <path class="cls-7" d="m161.5,726.4c0-1.1.9-2,1.9-2s1.9.8,1.9,2-.9,2-1.9,2-1.9-.8-1.9-2Z"/>
      <path class="cls-7" d="m189.8,724.5h1.9v6.9c-1.7,1.5-4.2,2.3-6.7,2.3-5.5,0-9.6-3.9-9.6-9.3s4.1-9.3,9.6-9.3c2.8,0,5.1.9,6.8,2.6l-1.2,1.2c-1.5-1.5-3.4-2.1-5.5-2.1-4.5,0-7.8,3.2-7.8,7.5s3.3,7.5,7.8,7.5c1.7,0,3.4-.4,4.8-1.4v-5.9h-.1Z"/>
      <path class="cls-7" d="m209.1,719.9v13.7h-1.8v-2.5c-1,1.7-2.7,2.6-4.9,2.6-3.5,0-5.8-2-5.8-5.9v-7.9h1.9v7.8c0,2.9,1.5,4.4,4.1,4.4,2.9,0,4.6-1.8,4.6-5v-7.2h1.9Z"/>
      <path class="cls-7" d="m213.8,715.6c0-.7.6-1.3,1.4-1.3s1.4.6,1.4,1.3c0,.8-.6,1.3-1.4,1.3s-1.4-.6-1.4-1.3h0Zm.4,4.3h1.9v13.7h-1.9v-13.7Z"/>
      <path class="cls-7" d="m231.6,725.1v8.5h-1.8v-2.1c-.8,1.4-2.4,2.3-4.7,2.3-3.1,0-5-1.6-5-4,0-2.1,1.4-3.9,5.3-3.9h4.3v-.8c0-2.3-1.3-3.6-3.9-3.6-1.8,0-3.4.6-4.6,1.6l-.8-1.4c1.4-1.2,3.4-1.8,5.6-1.8,3.5-.1,5.5,1.6,5.6,5.2h0Zm-1.9,4.3v-2.2h-4.3c-2.6,0-3.5,1-3.5,2.4,0,1.6,1.3,2.6,3.5,2.6s3.6-1,4.3-2.8h0Z"/>
      <path class="cls-7" d="m257.2,726.7c0,4.2-2.9,7-6.8,7-2.2,0-4.1-.9-5.2-2.7v7.6h-1.9v-18.7h1.8v2.7c1.1-1.8,3-2.8,5.3-2.8,3.9,0,6.8,2.8,6.8,6.9Zm-1.8,0c0-3.2-2.2-5.3-5.1-5.3s-5.1,2.2-5.1,5.3,2.2,5.3,5.1,5.3,5.1-2.1,5.1-5.3Z"/>
      <path class="cls-7" d="m271.2,725.1v8.5h-1.8v-2.1c-.8,1.4-2.4,2.3-4.7,2.3-3.1,0-5-1.6-5-4,0-2.1,1.4-3.9,5.3-3.9h4.3v-.8c0-2.3-1.3-3.6-3.9-3.6-1.8,0-3.4.6-4.5,1.6l-.8-1.4c1.4-1.2,3.4-1.8,5.6-1.8,3.5-.1,5.5,1.6,5.5,5.2h0Zm-1.8,4.3v-2.2h-4.3c-2.6,0-3.5,1-3.5,2.4,0,1.6,1.3,2.6,3.5,2.6s3.6-1,4.3-2.8h0Z"/>
      <path class="cls-7" d="m283.2,719.8v1.8h-.4c-2.9,0-4.6,1.8-4.6,5v7h-1.9v-13.7h1.8v2.7c.8-1.9,2.5-2.8,5.1-2.8h0Z"/>
      <path class="cls-7" d="m296.8,725.1v8.5h-1.8v-2.1c-.8,1.4-2.4,2.3-4.7,2.3-3.1,0-5-1.6-5-4,0-2.1,1.4-3.9,5.3-3.9h4.3v-.8c0-2.3-1.3-3.6-3.9-3.6-1.8,0-3.4.6-4.5,1.6l-.8-1.4c1.4-1.2,3.4-1.8,5.6-1.8,3.5-.1,5.5,1.6,5.5,5.2h0Zm-1.9,4.3v-2.2h-4.3c-2.6,0-3.5,1-3.5,2.4,0,1.6,1.3,2.6,3.5,2.6s3.6-1,4.3-2.8h0Z"/>
      <path class="cls-7" d="m321.9,731.9v1.7h-12.9v-18.2h12.5v1.7h-10.6v6.5h9.4v1.6h-9.4v6.8l11-.1h0Z"/>
      <path class="cls-7" d="m326,714.3h1.9v19.3h-1.9v-19.3Z"/>
      <path class="cls-7" d="m343.3,725.1v8.5h-1.8v-2.1c-.8,1.4-2.4,2.3-4.7,2.3-3.1,0-5-1.6-5-4,0-2.1,1.4-3.9,5.3-3.9h4.3v-.8c0-2.3-1.3-3.6-3.9-3.6-1.8,0-3.4.6-4.5,1.6l-.8-1.4c1.4-1.2,3.4-1.8,5.6-1.8,3.5-.1,5.5,1.6,5.5,5.2h0Zm-1.8,4.3v-2.2h-4.3c-2.6,0-3.5,1-3.5,2.4,0,1.6,1.3,2.6,3.5,2.6s3.5-1,4.3-2.8h0Z"/>
      <path class="cls-7" d="m362.2,726.7c0,4.1-2.9,7-6.8,7-2.3,0-4.2-1-5.3-2.8v2.7h-1.8v-19.3h1.9v8.2c1.1-1.8,3-2.7,5.2-2.7,3.9,0,6.8,2.8,6.8,6.9h0Zm-1.9,0c0-3.2-2.2-5.3-5.1-5.3s-5.1,2.1-5.1,5.3,2.2,5.3,5.1,5.3,5.1-2.1,5.1-5.3Z"/>
      <path class="cls-7" d="m364.6,726.7c0-4.1,3-6.9,7-6.9s6.9,2.9,6.9,6.9-2.9,7-6.9,7-7-2.9-7-7Zm12,0c0-3.2-2.2-5.3-5.1-5.3s-5.1,2.1-5.1,5.3,2.2,5.3,5.1,5.3,5.1-2.1,5.1-5.3Z"/>
      <path class="cls-7" d="m389.2,719.8v1.8h-.4c-2.9,0-4.6,1.8-4.6,5v7h-1.9v-13.7h1.8v2.7c.8-1.9,2.5-2.8,5.1-2.8h0Z"/>
      <path class="cls-7" d="m402.8,725.1v8.5h-1.8v-2.1c-.8,1.4-2.4,2.3-4.7,2.3-3.1,0-5-1.6-5-4,0-2.1,1.4-3.9,5.3-3.9h4.3v-.8c0-2.3-1.3-3.6-3.9-3.6-1.8,0-3.4.6-4.5,1.6l-.8-1.4c1.4-1.2,3.4-1.8,5.6-1.8,3.5-.1,5.5,1.6,5.5,5.2h0Zm-1.9,4.3v-2.2h-4.3c-2.6,0-3.5,1-3.5,2.4,0,1.6,1.3,2.6,3.5,2.6s3.6-1,4.3-2.8h0Z"/>
      <path class="cls-7" d="m417.5,730l1.4.9c-1.1,1.8-3,2.7-5.4,2.7h0l-.3,1.2c1.4.1,2.2,1,2.2,2.1,0,1.4-1.2,2.3-2.9,2.3-.9,0-1.6-.2-2.2-.6l.4-1c.5.3,1.1.5,1.7.5,1,0,1.6-.4,1.6-1.2,0-.7-.5-1.2-1.6-1.2h-.6l.6-2.2c-3.5-.5-5.9-3.2-5.9-6.9,0-4.1,3-6.9,7-6.9,2.3,0,4.3.9,5.4,2.7l-1.4.9c-.9-1.4-2.4-2-4-2-3,0-5.2,2.1-5.2,5.3s2.2,5.3,5.2,5.3c1.6.1,3.1-.5,4-1.9h0Z"/>
      <path class="cls-7" d="m432.8,725.1v8.5h-1.8v-2.1c-.8,1.4-2.4,2.3-4.7,2.3-3.1,0-5-1.6-5-4,0-2.1,1.4-3.9,5.3-3.9h4.3v-.8c0-2.3-1.3-3.6-3.9-3.6-1.8,0-3.4.6-4.5,1.6l-.8-1.4c1.4-1.2,3.4-1.8,5.6-1.8,3.5-.1,5.5,1.6,5.5,5.2h0Zm-1.8,4.3v-2.2h-4.3c-2.6,0-3.5,1-3.5,2.4,0,1.6,1.3,2.6,3.5,2.6s3.5-1,4.3-2.8h0Zm-6.7-11.9h-1.1c0-1.7,1-2.9,2.3-2.9,1.6,0,2.4,1.8,3.4,1.8.8,0,1.3-.6,1.4-1.6h1.1c0,1.7-1,2.8-2.3,2.8-1.6,0-2.4-1.8-3.4-1.8-.8.1-1.3.7-1.4,1.7Z"/>
      <path class="cls-7" d="m436.5,726.7c0-4.1,3-6.9,7-6.9s6.9,2.9,6.9,6.9-2.9,7-6.9,7-7-2.9-7-7Zm12,0c0-3.2-2.2-5.3-5.1-5.3s-5.1,2.1-5.1,5.3,2.2,5.3,5.1,5.3,5.1-2.1,5.1-5.3Z"/>
      <path class="cls-7" d="m473.5,714.3v19.3h-1.8v-2.8c-1.1,1.8-3,2.8-5.3,2.8-3.9,0-6.8-2.8-6.8-7s2.9-6.9,6.8-6.9c2.2,0,4.1.9,5.2,2.7v-8.2l1.9.1h0Zm-1.9,12.4c0-3.2-2.2-5.3-5.1-5.3s-5.1,2.1-5.1,5.3,2.2,5.3,5.1,5.3,5.1-2.1,5.1-5.3Z"/>
      <path class="cls-7" d="m490.5,727.3h-11.4c.2,2.9,2.4,4.8,5.4,4.8,1.7,0,3.1-.6,4.2-1.8l1,1.2c-1.2,1.5-3.1,2.2-5.3,2.2-4.3,0-7.2-2.9-7.2-7s2.8-6.9,6.7-6.9,6.6,2.8,6.6,6.9c.1.2,0,.4,0,.6h0Zm-11.4-1.4h9.7c-.2-2.7-2.2-4.5-4.9-4.5s-4.6,1.8-4.8,4.5h0Z"/>
      <path class="cls-7" d="m512.9,728.7h-10.1l-2.2,4.9h-2l8.3-18.2h1.9l8.3,18.2h-2l-2.2-4.9h0Zm-.7-1.6l-4.4-9.8-4.4,9.8h8.8Z"/>
      <path class="cls-7" d="m532.4,725.6v7.9h-1.8v-7.7c0-2.9-1.5-4.4-4.1-4.4-2.9,0-4.8,1.8-4.8,4.9v7.2h-1.8v-13.7h1.8v2.5c1-1.7,2.8-2.6,5.2-2.6,3.2.1,5.5,2,5.5,5.9h0Z"/>
      <path class="cls-7" d="m547.7,725.1v8.5h-1.8v-2.1c-.8,1.4-2.4,2.3-4.7,2.3-3.1,0-5-1.6-5-4,0-2.1,1.3-3.9,5.3-3.9h4.3v-.8c0-2.3-1.3-3.6-3.9-3.6-1.8,0-3.4.6-4.5,1.6l-.8-1.4c1.4-1.2,3.4-1.8,5.6-1.8,3.5-.1,5.5,1.6,5.5,5.2Zm-1.8,4.3v-2.2h-4.3c-2.7,0-3.5,1-3.5,2.4,0,1.6,1.3,2.6,3.5,2.6s3.5-1,4.3-2.8h0Zm-3.6-11.6h-1.8l3.6-3.2h2.5l-4.3,3.2h0Z"/>
      <path class="cls-7" d="m552.7,714.3h1.8v19.3h-1.8v-19.3Z"/>
      <path class="cls-7" d="m559.3,715.6c0-.7.6-1.3,1.3-1.3s1.3.6,1.3,1.3c0,.8-.6,1.3-1.3,1.3s-1.3-.6-1.3-1.3h0Zm.4,4.3h1.8v13.7h-1.8v-13.7Z"/>
      <path class="cls-7" d="m564.8,732l.8-1.5c1.1.9,2.9,1.5,4.9,1.5,2.6,0,3.7-.9,3.7-2.2,0-3.6-8.9-.8-8.9-6.2,0-2.2,1.9-3.9,5.4-3.9,1.8,0,3.7.5,4.8,1.3l-.8,1.5c-1.2-.8-2.6-1.2-4-1.2-2.5,0-3.6,1-3.6,2.3,0,3.7,8.9.9,8.9,6.2,0,2.4-2.1,3.9-5.6,3.9-2.3,0-4.5-.8-5.6-1.7h0Z"/>
      <path class="cls-7" d="m591.3,727.3h-11.4c.2,2.9,2.4,4.8,5.4,4.8,1.7,0,3.2-.6,4.2-1.8l1,1.2c-1.2,1.5-3.1,2.2-5.3,2.2-4.3,0-7.2-2.9-7.2-7s2.8-6.9,6.7-6.9,6.6,2.8,6.6,6.9v.6h0Zm-11.4-1.4h9.7c-.2-2.7-2.2-4.5-4.9-4.5s-4.6,1.8-4.8,4.5Z"/>
      <path class="cls-7" d="m614.4,714.3v19.3h-1.8v-2.8c-1.1,1.8-3,2.8-5.3,2.8-3.9,0-6.8-2.8-6.8-7s2.9-6.9,6.8-6.9c2.2,0,4.1.9,5.2,2.7v-8.2l1.9.1h0Zm-1.8,12.4c0-3.2-2.2-5.3-5.1-5.3s-5.1,2.1-5.1,5.3,2.2,5.3,5.1,5.3,5.1-2.1,5.1-5.3Z"/>
      <path class="cls-7" d="m631.5,727.3h-11.5c.2,2.9,2.4,4.8,5.4,4.8,1.7,0,3.2-.6,4.2-1.8l1,1.2c-1.2,1.5-3.1,2.2-5.3,2.2-4.3,0-7.2-2.9-7.2-7s2.8-6.9,6.7-6.9,6.6,2.8,6.6,6.9c.1.2.1.4.1.6h0Zm-11.5-1.4h9.7c-.2-2.7-2.2-4.5-4.9-4.5s-4.5,1.8-4.8,4.5Z"/>
      <path class="cls-7" d="m642.5,715.3h1.9v18.2h-1.9v-18.2Z"/>
      <path class="cls-7" d="m672.5,725.6v7.9h-1.8v-7.7c0-2.9-1.5-4.4-3.9-4.4-2.8,0-4.6,1.8-4.6,4.9v7.2h-1.8v-7.7c0-2.9-1.5-4.4-4-4.4-2.8,0-4.6,1.8-4.6,4.9v7.2h-1.8v-13.7h1.8v2.5c1-1.6,2.7-2.6,5-2.6s4,1,4.9,2.9c1-1.8,2.9-2.9,5.4-2.9,3.2.1,5.4,2,5.4,5.9h0Z"/>
      <path class="cls-7" d="m691.4,726.7c0,4.2-2.9,7-6.8,7-2.2,0-4.1-.9-5.2-2.7v7.6h-1.8v-18.7h1.8v2.7c1.1-1.8,3-2.8,5.3-2.8,3.8,0,6.7,2.8,6.7,6.9h0Zm-1.9,0c0-3.2-2.2-5.3-5.1-5.3s-5.1,2.2-5.1,5.3,2.2,5.3,5.1,5.3,5.1-2.1,5.1-5.3Z"/>
      <path class="cls-7" d="m705.4,725.1v8.5h-1.8v-2.1c-.8,1.4-2.4,2.3-4.7,2.3-3.1,0-5-1.6-5-4,0-2.1,1.3-3.9,5.3-3.9h4.3v-.8c0-2.3-1.3-3.6-3.9-3.6-1.8,0-3.4.6-4.5,1.6l-.8-1.4c1.4-1.2,3.4-1.8,5.6-1.8,3.5-.1,5.5,1.6,5.5,5.2Zm-1.9,4.3v-2.2h-4.3c-2.7,0-3.5,1-3.5,2.4,0,1.6,1.3,2.6,3.5,2.6s3.6-1,4.3-2.8h0Z"/>
      <path class="cls-7" d="m709.1,726.7c0-4.1,3-6.9,7-6.9,2.3,0,4.3.9,5.4,2.7l-1.4.9c-.9-1.4-2.4-2-4-2-3,0-5.2,2.1-5.2,5.3s2.2,5.3,5.2,5.3c1.6,0,3-.6,4-2l1.4.9c-1.1,1.8-3,2.7-5.4,2.7-4.1.1-7-2.8-7-6.9h0Z"/>
      <path class="cls-7" d="m732.5,732.7c-.7.7-1.8,1-2.9,1-2.6,0-4-1.5-4-4v-8.3h-2.4v-1.6h2.4v-3h1.8v3h4.2v1.6h-4.2v8.2c0,1.6.8,2.5,2.4,2.5.8,0,1.5-.2,2-.7l.7,1.3h0Z"/>
      <path class="cls-7" d="m733.9,726.7c0-4.1,3-6.9,7-6.9s6.9,2.9,6.9,6.9-2.9,7-6.9,7-7-2.9-7-7Zm12.1,0c0-3.2-2.2-5.3-5.1-5.3s-5.1,2.1-5.1,5.3,2.2,5.3,5.1,5.3,5.1-2.1,5.1-5.3Z"/>
      <path class="cls-7" d="m771.2,733.6l-4.2-5.8c-.5,0-.9.1-1.5.1h-4.9v5.8h-1.9v-18.2h6.8c4.6,0,7.4,2.3,7.4,6.2,0,2.9-1.5,4.9-4.2,5.7l4.5,6.2h-2Zm0-12c0-2.9-1.9-4.6-5.6-4.6h-4.8v9.1h4.8c3.6,0,5.6-1.7,5.6-4.5Z"/>
      <path class="cls-7" d="m789.1,727.3h-11.4c.2,2.9,2.4,4.8,5.4,4.8,1.7,0,3.2-.6,4.2-1.8l1,1.2c-1.2,1.5-3.1,2.2-5.3,2.2-4.3,0-7.2-2.9-7.2-7s2.8-6.9,6.7-6.9,6.6,2.8,6.6,6.9v.6h0Zm-11.4-1.4h9.7c-.2-2.7-2.2-4.5-4.9-4.5s-4.6,1.8-4.8,4.5Z"/>
      <path class="cls-7" d="m805.6,719.9v12c0,4.7-2.3,6.8-6.8,6.8-2.5,0-4.9-.8-6.4-2.1l.9-1.4c1.3,1.2,3.3,1.9,5.4,1.9,3.5,0,5-1.6,5-5v-1.7c-1.1,1.7-3.1,2.7-5.3,2.7-3.9,0-6.9-2.7-6.9-6.7s3-6.6,6.9-6.6c2.3,0,4.3.9,5.4,2.7v-2.6h1.8Zm-1.8,6.5c0-3-2.2-5-5.2-5s-5.2,2-5.2,5,2.2,5,5.2,5,5.2-2.1,5.2-5Z"/>
      <path class="cls-7" d="m823.1,719.9v13.7h-1.8v-2.5c-1,1.7-2.7,2.6-4.9,2.6-3.5,0-5.8-2-5.8-5.9v-7.9h1.8v7.8c0,2.9,1.5,4.4,4.1,4.4,2.9,0,4.7-1.8,4.7-5v-7.2h1.9Z"/>
      <path class="cls-7" d="m828.3,714.3h1.8v19.3h-1.8v-19.3Z"/>
      <path class="cls-7" d="m845.6,725.1v8.5h-1.8v-2.1c-.8,1.4-2.4,2.3-4.7,2.3-3.1,0-5-1.6-5-4,0-2.1,1.3-3.9,5.3-3.9h4.3v-.8c0-2.3-1.3-3.6-3.9-3.6-1.8,0-3.4.6-4.5,1.6l-.8-1.4c1.4-1.2,3.4-1.8,5.6-1.8,3.5-.1,5.5,1.6,5.5,5.2h0Zm-1.9,4.3v-2.2h-4.3c-2.7,0-3.5,1-3.5,2.4,0,1.6,1.3,2.6,3.5,2.6s3.6-1,4.3-2.8h0Z"/>
      <path class="cls-7" d="m857.8,732.7c-.7.7-1.8,1-2.9,1-2.6,0-4-1.5-4-4v-8.3h-2.4v-1.6h2.4v-3h1.8v3h4.2v1.6h-4.2v8.2c0,1.6.8,2.5,2.4,2.5.8,0,1.5-.2,2-.7l.7,1.3h0Z"/>
      <path class="cls-7" d="m859.3,726.7c0-4.1,3-6.9,7-6.9s6.9,2.9,6.9,6.9-2.9,7-6.9,7-7-2.9-7-7Zm12,0c0-3.2-2.2-5.3-5.1-5.3s-5.1,2.1-5.1,5.3,2.2,5.3,5.1,5.3,5.1-2.1,5.1-5.3Zm-3.2-12.2h2.5l-4.2,3.2h-1.8l3.5-3.2h0Z"/>
      <path class="cls-7" d="m883.8,719.8v1.8h-.4c-2.9,0-4.6,1.8-4.6,5v7h-1.8v-13.7h1.8v2.7c.8-1.9,2.5-2.8,5-2.8h0Z"/>
      <path class="cls-7" d="m886.8,715.6c0-.7.6-1.3,1.3-1.3s1.3.6,1.3,1.3c0,.8-.6,1.3-1.3,1.3s-1.3-.6-1.3-1.3h0Zm.4,4.3h1.8v13.7h-1.8v-13.7Z"/>
      <path class="cls-7" d="m892.8,726.7c0-4.1,3-6.9,7-6.9s6.9,2.9,6.9,6.9-2.9,7-6.9,7-7-2.9-7-7Zm12,0c0-3.2-2.2-5.3-5.1-5.3s-5.1,2.1-5.1,5.3,2.2,5.3,5.1,5.3,5.1-2.1,5.1-5.3Z"/>
      <path class="cls-7" d="m917.4,726.4c0-4.8,1.1-9.1,3-12.2h1.8c-2,3.6-3,7.5-3,12.2s.9,8.6,3,12.2h-1.8c-1.9-3.2-3-7.4-3-12.2Z"/>
      <path class="cls-7" d="m937.7,728.7h-10.1l-2.2,4.9h-2l8.3-18.2h1.9l8.3,18.2h-2l-2.2-4.9h0Zm-.7-1.6l-4.4-9.8-4.4,9.8h8.8Z"/>
      <path class="cls-7" d="m944.9,715.3h1.9v18.2h-1.9v-18.2Z"/>
      <path class="cls-7" d="m965.2,733.6l-4.2-5.8c-.5,0-.9.1-1.5.1h-4.9v5.8h-1.9v-18.2h6.8c4.6,0,7.4,2.3,7.4,6.2,0,2.9-1.5,4.9-4.2,5.7l4.5,6.2h-2Zm-.1-12c0-2.9-1.9-4.6-5.6-4.6h-4.8v9.1h4.8c3.6,0,5.6-1.7,5.6-4.5Z"/>
      <path class="cls-7" d="m969.6,738.6c2.1-3.6,3-7.5,3-12.2s-.9-8.6-3-12.2h1.8c2,3.1,3,7.4,3,12.2s-1.1,9-3,12.2h-1.8Z"/>
      <path class="cls-7" d="m986.6,726.4c0-4.8,1.1-9.1,3-12.2h1.8c-2,3.6-3,7.5-3,12.2s.9,8.6,3,12.2h-1.8c-1.9-3.2-3-7.4-3-12.2Z"/>
      <path class="cls-7" d="m1006.3,731.9v1.7h-12.8v-1.3l7.6-7.4c2-2,2.4-3.2,2.4-4.5,0-2.1-1.5-3.4-4.3-3.4-2.1,0-3.8.7-5,2l-1.3-1.1c1.4-1.7,3.7-2.6,6.5-2.6,3.7,0,6,1.9,6,4.9,0,1.7-.5,3.3-3,5.7l-6.2,6.1,10.1-.1h0Z"/>
      <path class="cls-7" d="m1008.5,724.5c0-5.8,3-9.3,7.2-9.3s7.3,3.5,7.3,9.3-3.1,9.3-7.3,9.3-7.2-3.5-7.2-9.3Zm12.6,0c0-4.9-2.2-7.5-5.4-7.5s-5.4,2.7-5.4,7.5,2.2,7.5,5.4,7.5,5.4-2.7,5.4-7.5Z"/>
      <path class="cls-7" d="m1038.1,731.9v1.7h-12.8v-1.3l7.6-7.4c2.1-2,2.4-3.2,2.4-4.5,0-2.1-1.5-3.4-4.3-3.4-2.1,0-3.8.7-5,2l-1.3-1.1c1.4-1.7,3.7-2.6,6.4-2.6,3.7,0,6,1.9,6,4.9,0,1.7-.6,3.3-3,5.7l-6.2,6.1,10.2-.1h0Z"/>
      <path class="cls-7" d="m1045.5,715.3v18.2h-1.9v-16.5h-4.3v-1.7h6.2Z"/>
      <path class="cls-7" d="m1049.5,738.6c2.1-3.6,3-7.5,3-12.2s-.9-8.6-3-12.2h1.8c1.9,3.1,3,7.4,3,12.2s-1.1,9-3,12.2h-1.8Z"/>
      <path class="cls-7" d="m1058.4,721.2c0-.8.6-1.4,1.4-1.4s1.4.6,1.4,1.4-.7,1.4-1.4,1.4-1.4-.6-1.4-1.4Zm0,11.1c0-.8.6-1.4,1.4-1.4s1.4.6,1.4,1.4-.7,1.4-1.4,1.4-1.4-.6-1.4-1.4Z"/>
    </g>
    <g>
      <path class="cls-7" d="m161.5,907.2c0-1.1.9-2,1.9-2s1.9.8,1.9,2-.9,2-1.9,2-1.9-.8-1.9-2Z"/>
      <path class="cls-7" d="m175.4,905.3c0-5.3,4.1-9.3,9.6-9.3s9.5,3.9,9.5,9.3-4.1,9.3-9.5,9.3-9.6-4-9.6-9.3Zm17.2,0c0-4.3-3.2-7.5-7.6-7.5s-7.7,3.2-7.7,7.5,3.3,7.5,7.7,7.5,7.6-3.2,7.6-7.5Z"/>
      <path class="cls-7" d="m205.3,900.6v1.8h-.4c-2.9,0-4.6,1.8-4.6,5v7h-1.9v-13.7h1.8v2.7c.9-1.9,2.6-2.8,5.1-2.8h0Z"/>
      <path class="cls-7" d="m208.2,896.4c0-.7.6-1.3,1.4-1.3s1.4.6,1.4,1.3c0,.8-.6,1.3-1.4,1.3s-1.4-.6-1.4-1.3h0Zm.5,4.3h1.9v13.7h-1.9v-13.7Z"/>
      <path class="cls-7" d="m227.6,908.1h-11.4c.2,2.9,2.4,4.8,5.4,4.8,1.7,0,3.1-.6,4.2-1.8l1,1.2c-1.2,1.5-3.1,2.2-5.3,2.2-4.3,0-7.2-2.9-7.2-7s2.8-6.9,6.7-6.9,6.6,2.8,6.6,6.9v.6h0Zm-11.5-1.4h9.7c-.2-2.7-2.2-4.5-4.9-4.5s-4.5,1.8-4.8,4.5Z"/>
      <path class="cls-7" d="m243.9,906.4v7.9h-1.9v-7.8c0-2.9-1.5-4.4-4.1-4.4-2.9,0-4.8,1.8-4.8,4.9v7.2h-1.9v-13.7h1.8v2.5c1-1.7,2.8-2.6,5.2-2.6,3.5.2,5.7,2.1,5.7,6h0Z"/>
      <path class="cls-7" d="m256.2,913.5c-.7.7-1.8,1-2.9,1-2.6,0-4-1.5-4-4v-8.3h-2.4v-1.6h2.4v-3h1.9v3h4.2v1.6h-4.2v8.2c0,1.6.8,2.5,2.4,2.5.8,0,1.5-.2,2-.7l.6,1.3h0Z"/>
      <path class="cls-7" d="m269.8,905.9v8.5h-1.8v-2.1c-.8,1.4-2.4,2.3-4.7,2.3-3.1,0-5-1.6-5-4,0-2.1,1.4-3.9,5.3-3.9h4.3v-.9c0-2.3-1.3-3.6-3.9-3.6-1.8,0-3.4.6-4.5,1.6l-.8-1.4c1.4-1.2,3.4-1.8,5.6-1.8,3.5,0,5.5,1.7,5.5,5.3h0Zm-1.8,4.3v-2.2h-4.3c-2.6,0-3.5,1-3.5,2.4,0,1.6,1.3,2.6,3.5,2.6s3.6-1,4.3-2.8h0Z"/>
      <path class="cls-7" d="m284.6,910.8l1.4.9c-1.1,1.8-3,2.7-5.4,2.7h0l-.3,1.2c1.4.1,2.2,1,2.2,2.1,0,1.4-1.2,2.3-2.9,2.3-.9,0-1.6-.2-2.2-.6l.4-1c.5.3,1.1.5,1.7.5,1,0,1.6-.4,1.6-1.2,0-.7-.5-1.2-1.6-1.2h-.6l.6-2.2c-3.5-.5-5.9-3.2-5.9-6.9,0-4.1,3-6.9,7-6.9,2.3,0,4.3.9,5.4,2.7l-1.4.9c-.9-1.4-2.4-2-4-2-3,0-5.2,2.1-5.2,5.3s2.2,5.3,5.2,5.3c1.6.1,3-.5,4-1.9h0Z"/>
      <path class="cls-7" d="m287.9,907.5c0-4.1,3-6.9,7-6.9s6.9,2.9,6.9,6.9-2.9,7-6.9,7-7-2.9-7-7Zm12.1,0c0-3.2-2.2-5.3-5.1-5.3s-5.1,2.1-5.1,5.3,2.2,5.3,5.1,5.3,5.1-2.1,5.1-5.3Zm-6.8-10.9c-.8,0-1.3.6-1.4,1.7h-1.1c0-1.7,1-2.9,2.3-2.9,1.6,0,2.4,1.8,3.4,1.8.8,0,1.3-.6,1.4-1.6h1.1c0,1.7-1,2.8-2.3,2.8-1.5,0-2.3-1.8-3.4-1.8Z"/>
      <path class="cls-7" d="m317.5,908.1h-11.4c.2,2.9,2.4,4.8,5.4,4.8,1.7,0,3.1-.6,4.2-1.8l1,1.2c-1.2,1.5-3.1,2.2-5.3,2.2-4.3,0-7.2-2.9-7.2-7s2.8-6.9,6.7-6.9,6.6,2.8,6.6,6.9c.1.2,0,.4,0,.6h0Zm-11.4-1.4h9.7c-.2-2.7-2.2-4.5-4.9-4.5s-4.6,1.8-4.8,4.5h0Z"/>
      <path class="cls-7" d="m319.4,912.8l.8-1.5c1.1.9,2.9,1.5,4.9,1.5,2.6,0,3.7-.9,3.7-2.2,0-3.6-8.9-.8-8.9-6.2,0-2.2,1.9-3.9,5.4-3.9,1.8,0,3.7.5,4.8,1.3l-.8,1.5c-1.2-.8-2.6-1.2-4-1.2-2.5,0-3.6,1-3.6,2.3,0,3.7,8.9.9,8.9,6.2,0,2.4-2.1,3.9-5.6,3.9-2.3,0-4.5-.8-5.6-1.7h0Z"/>
      <path class="cls-7" d="m354.7,907.5c0,4.2-2.9,7-6.8,7-2.2,0-4.1-.9-5.2-2.7v7.6h-1.9v-18.7h1.8v2.7c1.1-1.8,3-2.8,5.3-2.8,3.9,0,6.8,2.8,6.8,6.9h0Zm-1.8,0c0-3.2-2.2-5.3-5.1-5.3s-5.1,2.2-5.1,5.3,2.2,5.3,5.1,5.3,5.1-2.1,5.1-5.3Z"/>
      <path class="cls-7" d="m368.7,905.9v8.5h-1.7v-2.1c-.8,1.4-2.4,2.3-4.7,2.3-3.1,0-5-1.6-5-4,0-2.1,1.4-3.9,5.3-3.9h4.3v-.9c0-2.3-1.3-3.6-3.9-3.6-1.8,0-3.4.6-4.5,1.6l-.8-1.4c1.4-1.2,3.4-1.8,5.6-1.8,3.4,0,5.4,1.7,5.4,5.3h0Zm-1.8,4.3v-2.2h-4.3c-2.6,0-3.5,1-3.5,2.4,0,1.6,1.3,2.6,3.5,2.6s3.5-1,4.3-2.8h0Z"/>
      <path class="cls-7" d="m380.6,900.6v1.8h-.4c-2.9,0-4.6,1.8-4.6,5v7h-1.9v-13.7h1.8v2.7c.9-1.9,2.6-2.8,5.1-2.8h0Z"/>
      <path class="cls-7" d="m394.2,905.9v8.5h-1.8v-2.1c-.8,1.4-2.4,2.3-4.7,2.3-3.1,0-5-1.6-5-4,0-2.1,1.4-3.9,5.3-3.9h4.3v-.9c0-2.3-1.3-3.6-3.9-3.6-1.8,0-3.4.6-4.5,1.6l-.8-1.4c1.4-1.2,3.4-1.8,5.6-1.8,3.6,0,5.6,1.7,5.5,5.3h0Zm-1.8,4.3v-2.2h-4.3c-2.6,0-3.5,1-3.5,2.4,0,1.6,1.3,2.6,3.5,2.6s3.6-1,4.3-2.8h0Z"/>
      <path class="cls-7" d="m416.4,905.9v8.5h-1.8v-2.1c-.8,1.4-2.4,2.3-4.7,2.3-3.1,0-5-1.6-5-4,0-2.1,1.4-3.9,5.3-3.9h4.3v-.9c0-2.3-1.3-3.6-3.9-3.6-1.8,0-3.4.6-4.5,1.6l-.8-1.4c1.4-1.2,3.4-1.8,5.6-1.8,3.5,0,5.5,1.7,5.5,5.3h0Zm-1.9,4.3v-2.2h-4.3c-2.6,0-3.5,1-3.5,2.4,0,1.6,1.3,2.6,3.5,2.6s3.6-1,4.3-2.8h0Z"/>
      <path class="cls-7" d="m441.5,912.7v1.7h-12.9v-18.2h12.5v1.7h-10.6v6.5h9.4v1.6h-9.4v6.8l11-.1h0Z"/>
      <path class="cls-7" d="m454,914.3l-4.3-5.7-4.4,5.7h-2.1l5.4-7-5.1-6.7h2.1l4.1,5.4,4.1-5.4h2l-5.1,6.7,5.5,7h-2.2Z"/>
      <path class="cls-7" d="m470.5,908.1h-11.4c.2,2.9,2.4,4.8,5.4,4.8,1.7,0,3.1-.6,4.2-1.8l1,1.2c-1.2,1.5-3.1,2.2-5.3,2.2-4.3,0-7.2-2.9-7.2-7s2.8-6.9,6.7-6.9,6.6,2.8,6.6,6.9c.1.2,0,.4,0,.6h0Zm-11.4-1.4h9.7c-.2-2.7-2.2-4.5-4.9-4.5s-4.6,1.8-4.8,4.5h0Z"/>
      <path class="cls-7" d="m473,907.5c0-4.1,3-6.9,7-6.9,2.3,0,4.3.9,5.4,2.7l-1.4.9c-.9-1.4-2.4-2-4-2-3,0-5.2,2.1-5.2,5.3s2.2,5.3,5.2,5.3c1.6,0,3-.6,4-2l1.4.9c-1.1,1.8-3,2.7-5.4,2.7-4.1.1-7-2.8-7-6.9h0Z"/>
      <path class="cls-7" d="m501.3,900.7v13.7h-1.8v-2.6c-1,1.7-2.7,2.6-4.9,2.6-3.5,0-5.8-2-5.8-5.9v-7.9h1.9v7.8c0,2.9,1.5,4.4,4.1,4.4,2.9,0,4.6-1.8,4.6-5v-7.2l1.9.1h0Z"/>
      <path class="cls-7" d="m516.1,910.8l1.4.9c-1.1,1.8-3,2.7-5.4,2.7h0l-.3,1.2c1.4.1,2.2,1,2.2,2.1,0,1.4-1.2,2.3-2.9,2.3-.9,0-1.6-.2-2.2-.6l.4-1c.5.3,1.1.5,1.7.5,1,0,1.6-.4,1.6-1.2,0-.7-.5-1.2-1.6-1.2h-.6l.6-2.2c-3.5-.5-5.9-3.2-5.9-6.9,0-4.1,3-6.9,7-6.9,2.3,0,4.3.9,5.4,2.7l-1.4.9c-.9-1.4-2.4-2-4-2-3,0-5.2,2.1-5.2,5.3s2.2,5.3,5.2,5.3c1.6.1,3.1-.5,4-1.9h0Z"/>
      <path class="cls-7" d="m531.4,905.9v8.5h-1.8v-2.1c-.8,1.4-2.4,2.3-4.7,2.3-3.1,0-5-1.6-5-4,0-2.1,1.3-3.9,5.3-3.9h4.3v-.9c0-2.3-1.3-3.6-3.9-3.6-1.8,0-3.4.6-4.5,1.6l-.8-1.4c1.4-1.2,3.4-1.8,5.6-1.8,3.5,0,5.5,1.7,5.5,5.3h0Zm-1.8,4.3v-2.2h-4.3c-2.7,0-3.5,1-3.5,2.4,0,1.6,1.3,2.6,3.5,2.6s3.6-1,4.3-2.8h0Zm-6.6-11.9h-1.1c0-1.7,1-2.9,2.3-2.9,1.6,0,2.4,1.8,3.4,1.8.8,0,1.3-.6,1.3-1.6h1.1c0,1.7-1,2.8-2.3,2.8-1.6,0-2.4-1.8-3.4-1.8-.8.1-1.3.7-1.3,1.7Z"/>
      <path class="cls-7" d="m535.1,907.5c0-4.1,3-6.9,7-6.9s6.9,2.9,6.9,6.9-2.9,7-6.9,7-7-2.9-7-7Zm12.1,0c0-3.2-2.2-5.3-5.1-5.3s-5.1,2.1-5.1,5.3,2.2,5.3,5.1,5.3,5.1-2.1,5.1-5.3Z"/>
      <path class="cls-7" d="m572.1,895.1v19.3h-1.8v-2.7c-1.1,1.8-3,2.8-5.3,2.8-3.9,0-6.8-2.8-6.8-7s2.9-6.9,6.8-6.9c2.2,0,4.1.9,5.2,2.7v-8.2h1.9Zm-1.8,12.4c0-3.2-2.2-5.3-5.1-5.3s-5.1,2.1-5.1,5.3,2.2,5.3,5.1,5.3,5.1-2.1,5.1-5.3Z"/>
      <path class="cls-7" d="m587.6,905.9v8.5h-1.8v-2.1c-.8,1.4-2.4,2.3-4.7,2.3-3.1,0-5-1.6-5-4,0-2.1,1.3-3.9,5.3-3.9h4.3v-.9c0-2.3-1.3-3.6-3.9-3.6-1.8,0-3.4.6-4.5,1.6l-.8-1.4c1.4-1.2,3.4-1.8,5.6-1.8,3.5,0,5.5,1.7,5.5,5.3h0Zm-1.9,4.3v-2.2h-4.3c-2.7,0-3.5,1-3.5,2.4,0,1.6,1.3,2.6,3.5,2.6s3.6-1,4.3-2.8h0Z"/>
      <path class="cls-7" d="m611.2,909.5h-10.2l-2.2,4.9h-2l8.3-18.2h1.9l8.3,18.2h-2l-2.1-4.9h0Zm-.7-1.6l-4.4-9.8-4.4,9.8h8.8Z"/>
      <path class="cls-7" d="m630.6,906.4v7.9h-1.8v-7.8c0-2.9-1.5-4.4-4.1-4.4-2.9,0-4.8,1.8-4.8,4.9v7.2h-1.9v-13.7h1.8v2.5c1-1.7,2.8-2.6,5.2-2.6,3.3.2,5.6,2.1,5.6,6h0Z"/>
      <path class="cls-7" d="m646,905.9v8.5h-1.8v-2.1c-.8,1.4-2.4,2.3-4.7,2.3-3.1,0-5-1.6-5-4,0-2.1,1.3-3.9,5.3-3.9h4.3v-.9c0-2.3-1.3-3.6-3.9-3.6-1.8,0-3.4.6-4.5,1.6l-.8-1.4c1.4-1.2,3.4-1.8,5.6-1.8,3.5,0,5.5,1.7,5.5,5.3h0Zm-1.9,4.3v-2.2h-4.3c-2.7,0-3.5,1-3.5,2.4,0,1.6,1.3,2.6,3.5,2.6s3.6-1,4.3-2.8h0Zm-3.5-11.6h-1.8l3.6-3.2h2.5l-4.3,3.2h0Z"/>
      <path class="cls-7" d="m651,895.1h1.8v19.3h-1.8v-19.3Z"/>
      <path class="cls-7" d="m657.5,896.4c0-.7.6-1.3,1.3-1.3s1.3.6,1.3,1.3c0,.8-.6,1.3-1.3,1.3s-1.3-.6-1.3-1.3h0Zm.5,4.3h1.8v13.7h-1.8v-13.7Z"/>
      <path class="cls-7" d="m663.1,912.8l.8-1.5c1.1.9,2.9,1.5,4.9,1.5,2.6,0,3.7-.9,3.7-2.2,0-3.6-8.9-.8-8.9-6.2,0-2.2,1.9-3.9,5.4-3.9,1.8,0,3.7.5,4.8,1.3l-.8,1.5c-1.2-.8-2.6-1.2-4-1.2-2.5,0-3.6,1-3.6,2.3,0,3.7,8.9.9,8.9,6.2,0,2.4-2.1,3.9-5.6,3.9-2.3,0-4.5-.8-5.6-1.7h0Z"/>
      <path class="cls-7" d="m689.6,908.1h-11.4c.2,2.9,2.4,4.8,5.4,4.8,1.7,0,3.2-.6,4.2-1.8l1,1.2c-1.2,1.5-3.1,2.2-5.3,2.2-4.3,0-7.2-2.9-7.2-7s2.8-6.9,6.7-6.9,6.6,2.8,6.6,6.9v.6h0Zm-11.5-1.4h9.7c-.2-2.7-2.2-4.5-4.9-4.5s-4.5,1.8-4.8,4.5Z"/>
      <path class="cls-7" d="m712.7,895.1v19.3h-1.8v-2.7c-1.1,1.8-3,2.8-5.3,2.8-3.9,0-6.8-2.8-6.8-7s2.9-6.9,6.8-6.9c2.2,0,4.1.9,5.2,2.7v-8.2h1.9Zm-1.9,12.4c0-3.2-2.2-5.3-5.1-5.3s-5.1,2.1-5.1,5.3,2.2,5.3,5.1,5.3,5.1-2.1,5.1-5.3Z"/>
      <path class="cls-7" d="m729.7,908.1h-11.4c.2,2.9,2.4,4.8,5.4,4.8,1.7,0,3.2-.6,4.2-1.8l1,1.2c-1.2,1.5-3.1,2.2-5.3,2.2-4.3,0-7.2-2.9-7.2-7s2.8-6.9,6.7-6.9,6.6,2.8,6.6,6.9v.6h0Zm-11.4-1.4h9.7c-.2-2.7-2.2-4.5-4.9-4.5s-4.6,1.8-4.8,4.5Z"/>
      <path class="cls-7" d="m740.7,896.1h1.9v18.2h-1.9v-18.2Z"/>
      <path class="cls-7" d="m770.8,906.4v7.9h-1.8v-7.8c0-2.9-1.5-4.4-3.9-4.4-2.8,0-4.6,1.8-4.6,4.9v7.2h-1.8v-7.8c0-2.9-1.5-4.4-4-4.4-2.8,0-4.6,1.8-4.6,4.9v7.2h-1.8v-13.7h1.8v2.5c1-1.6,2.7-2.6,5-2.6s4,1,4.9,2.9c1-1.8,2.9-2.9,5.4-2.9,3.2.3,5.3,2.2,5.4,6.1h0Z"/>
      <path class="cls-7" d="m789.6,907.5c0,4.2-2.9,7-6.8,7-2.2,0-4.1-.9-5.2-2.7v7.6h-1.8v-18.7h1.8v2.7c1.1-1.8,3-2.8,5.3-2.8,3.8,0,6.7,2.8,6.7,6.9h0Zm-1.8,0c0-3.2-2.2-5.3-5.1-5.3s-5.1,2.2-5.1,5.3,2.2,5.3,5.1,5.3,5.1-2.1,5.1-5.3Z"/>
      <path class="cls-7" d="m803.6,905.9v8.5h-1.8v-2.1c-.8,1.4-2.4,2.3-4.7,2.3-3.1,0-5-1.6-5-4,0-2.1,1.3-3.9,5.3-3.9h4.3v-.9c0-2.3-1.3-3.6-3.9-3.6-1.8,0-3.4.6-4.5,1.6l-.8-1.4c1.4-1.2,3.4-1.8,5.6-1.8,3.5,0,5.5,1.7,5.5,5.3h0Zm-1.8,4.3v-2.2h-4.3c-2.7,0-3.5,1-3.5,2.4,0,1.6,1.3,2.6,3.5,2.6s3.6-1,4.3-2.8h0Z"/>
      <path class="cls-7" d="m807.3,907.5c0-4.1,3-6.9,7-6.9,2.3,0,4.3.9,5.4,2.7l-1.4.9c-.9-1.4-2.4-2-4-2-3,0-5.2,2.1-5.2,5.3s2.2,5.3,5.2,5.3c1.6,0,3-.6,4-2l1.4.9c-1.1,1.8-3,2.7-5.4,2.7-4,.1-7-2.8-7-6.9h0Z"/>
      <path class="cls-7" d="m830.7,913.5c-.7.7-1.8,1-2.9,1-2.6,0-4-1.5-4-4v-8.3h-2.4v-1.6h2.4v-3h1.8v3h4.2v1.6h-4.2v8.2c0,1.6.8,2.5,2.4,2.5.8,0,1.5-.2,2-.7l.7,1.3h0Z"/>
      <path class="cls-7" d="m832.2,907.5c0-4.1,3-6.9,7-6.9s6.9,2.9,6.9,6.9-2.9,7-6.9,7-7-2.9-7-7Zm12,0c0-3.2-2.2-5.3-5.1-5.3s-5.1,2.1-5.1,5.3,2.2,5.3,5.1,5.3,5.1-2.1,5.1-5.3Z"/>
      <path class="cls-7" d="m869.5,914.3l-4.2-5.8c-.5,0-.9.1-1.5.1h-4.8v5.8h-1.9v-18.2h6.8c4.6,0,7.4,2.3,7.4,6.2,0,2.9-1.5,4.9-4.2,5.7l4.5,6.2h-2.1Zm-.1-11.9c0-2.9-1.9-4.6-5.6-4.6h-4.8v9.1h4.8c3.7,0,5.6-1.7,5.6-4.5Z"/>
      <path class="cls-7" d="m887.4,908.1h-11.4c.2,2.9,2.4,4.8,5.4,4.8,1.7,0,3.2-.6,4.2-1.8l1,1.2c-1.2,1.5-3.1,2.2-5.3,2.2-4.3,0-7.2-2.9-7.2-7s2.8-6.9,6.7-6.9,6.6,2.8,6.6,6.9v.6h0Zm-11.4-1.4h9.7c-.2-2.7-2.2-4.5-4.9-4.5s-4.6,1.8-4.8,4.5Z"/>
      <path class="cls-7" d="m903.8,900.7v12c0,4.7-2.3,6.8-6.8,6.8-2.5,0-4.9-.8-6.4-2.1l.9-1.4c1.3,1.2,3.3,1.9,5.4,1.9,3.5,0,5-1.6,5-5v-1.7c-1.1,1.7-3.1,2.7-5.3,2.7-3.9,0-6.9-2.7-6.9-6.7s3-6.6,6.9-6.6c2.3,0,4.3.9,5.4,2.7v-2.6h1.8Zm-1.7,6.5c0-3-2.2-5-5.2-5s-5.2,2-5.2,5,2.2,5,5.2,5,5.2-2.1,5.2-5Z"/>
      <path class="cls-7" d="m921.3,900.7v13.7h-1.8v-2.6c-1,1.7-2.7,2.6-4.9,2.6-3.5,0-5.8-2-5.8-5.9v-7.9h1.8v7.8c0,2.9,1.5,4.4,4.1,4.4,2.9,0,4.7-1.8,4.7-5v-7.2l1.9.1h0Z"/>
      <path class="cls-7" d="m926.5,895.1h1.8v19.3h-1.8v-19.3Z"/>
      <path class="cls-7" d="m943.8,905.9v8.5h-1.8v-2.1c-.8,1.4-2.4,2.3-4.7,2.3-3.1,0-5-1.6-5-4,0-2.1,1.3-3.9,5.3-3.9h4.3v-.9c0-2.3-1.3-3.6-3.9-3.6-1.8,0-3.4.6-4.5,1.6l-.8-1.4c1.4-1.2,3.4-1.8,5.6-1.8,3.5,0,5.5,1.7,5.5,5.3h0Zm-1.8,4.3v-2.2h-4.3c-2.7,0-3.5,1-3.5,2.4,0,1.6,1.3,2.6,3.5,2.6s3.6-1,4.3-2.8h0Z"/>
      <path class="cls-7" d="m956,913.5c-.7.7-1.8,1-2.9,1-2.6,0-4-1.5-4-4v-8.3h-2.4v-1.6h2.4v-3h1.8v3h4.2v1.6h-4.1v8.2c0,1.6.8,2.5,2.4,2.5.8,0,1.5-.2,2-.7l.6,1.3h0Z"/>
      <path class="cls-7" d="m957.5,907.5c0-4.1,3-6.9,7-6.9s6.9,2.9,6.9,6.9-2.9,7-6.9,7-7-2.9-7-7Zm12.1,0c0-3.2-2.2-5.3-5.1-5.3s-5.1,2.1-5.1,5.3,2.2,5.3,5.1,5.3,5.1-2.1,5.1-5.3Zm-3.2-12.2h2.5l-4.2,3.2h-1.8l3.5-3.2h0Z"/>
      <path class="cls-7" d="m982.1,900.6v1.8h-.4c-2.9,0-4.6,1.8-4.6,5v7h-1.8v-13.7h1.8v2.7c.7-1.9,2.5-2.8,5-2.8h0Z"/>
      <path class="cls-7" d="m985,896.4c0-.7.6-1.3,1.3-1.3s1.3.6,1.3,1.3c0,.8-.6,1.3-1.3,1.3s-1.3-.6-1.3-1.3h0Zm.4,4.3h1.8v13.7h-1.8v-13.7Z"/>
      <path class="cls-7" d="m991,907.5c0-4.1,3-6.9,7-6.9s6.9,2.9,6.9,6.9-2.9,7-6.9,7-7-2.9-7-7Zm12.1,0c0-3.2-2.2-5.3-5.1-5.3s-5.1,2.1-5.1,5.3,2.2,5.3,5.1,5.3,5.1-2.1,5.1-5.3Z"/>
      <path class="cls-7" d="m1028.1,906.4v7.9h-1.8v-7.8c0-2.9-1.5-4.4-4.1-4.4-2.9,0-4.8,1.8-4.8,4.9v7.2h-1.8v-13.7h1.8v2.5c1-1.7,2.8-2.6,5.2-2.6,3.2.2,5.5,2.1,5.5,6h0Z"/>
      <path class="cls-7" d="m1031.8,907.5c0-4.1,3-6.9,7-6.9s6.9,2.9,6.9,6.9-2.9,7-6.9,7-7-2.9-7-7Zm12.1,0c0-3.2-2.2-5.3-5.1-5.3s-5.1,2.1-5.1,5.3,2.2,5.3,5.1,5.3,5.1-2.1,5.1-5.3Z"/>
      <path class="cls-7" d="m1075.6,896.1v18.2h-1.8v-14.5l-7.2,12.2h-.9l-7.2-12.2v14.5h-1.8v-18.2h1.6l7.9,13.5,7.8-13.5h1.6Z"/>
      <path class="cls-7" d="m1080.7,896.4c0-.7.6-1.3,1.3-1.3s1.3.6,1.3,1.3c0,.8-.6,1.3-1.3,1.3s-1.3-.6-1.3-1.3h0Zm.4,4.3h1.8v13.7h-1.8v-13.7Z"/>
      <path class="cls-7" d="m1100.7,906.4v7.9h-1.8v-7.8c0-2.9-1.5-4.4-4.1-4.4-2.9,0-4.8,1.8-4.8,4.9v7.2h-1.8v-13.7h1.8v2.5c1-1.7,2.8-2.6,5.2-2.6,3.2.2,5.5,2.1,5.5,6h0Z"/>
      <path class="cls-7" d="m1105.3,896.4c0-.7.6-1.3,1.3-1.3s1.3.6,1.3,1.3c0,.8-.6,1.3-1.3,1.3s-1.3-.6-1.3-1.3h0Zm.4,4.3h1.8v13.7h-1.8v-13.7Z"/>
      <path class="cls-7" d="m1110.8,912.8l.8-1.5c1.1.9,2.9,1.5,4.9,1.5,2.6,0,3.7-.9,3.7-2.2,0-3.6-8.9-.8-8.9-6.2,0-2.2,1.9-3.9,5.4-3.9,1.8,0,3.7.5,4.8,1.3l-.8,1.5c-1.2-.8-2.6-1.2-4-1.2-2.5,0-3.6,1-3.6,2.3,0,3.7,8.9.9,8.9,6.2,0,2.4-2.1,3.9-5.6,3.9-2.3,0-4.5-.8-5.6-1.7h0Z"/>
      <path class="cls-7" d="m1132.6,913.5c-.7.7-1.8,1-2.9,1-2.6,0-4-1.5-4-4v-8.3h-2.4v-1.6h2.4v-3h1.8v3h4.2v1.6h-4.2v8.2c0,1.6.8,2.5,2.4,2.5.8,0,1.5-.2,2-.7l.7,1.3h0Z"/>
      <path class="cls-7" d="m1147.4,908.1h-11.4c.2,2.9,2.4,4.8,5.4,4.8,1.7,0,3.2-.6,4.2-1.8l1,1.2c-1.2,1.5-3.1,2.2-5.3,2.2-4.3,0-7.2-2.9-7.2-7s2.8-6.9,6.7-6.9,6.6,2.8,6.6,6.9c0,.2,0,.4,0,.6h0Zm-11.4-1.4h9.7c-.2-2.7-2.2-4.5-4.9-4.5s-4.6,1.8-4.8,4.5Zm4.9-8.1h-1.8l3.6-3.2h2.5l-4.3,3.2h0Z"/>
      <path class="cls-7" d="m1158.1,900.6v1.8h-.4c-2.9,0-4.6,1.8-4.6,5v7h-1.8v-13.7h1.8v2.7c.7-1.9,2.5-2.8,5-2.8h0Z"/>
      <path class="cls-7" d="m1161,896.4c0-.7.6-1.3,1.3-1.3s1.3.6,1.3,1.3c0,.8-.6,1.3-1.3,1.3s-1.3-.6-1.3-1.3h0Zm.4,4.3h1.8v13.7h-1.8v-13.7Z"/>
      <path class="cls-7" d="m1167,907.5c0-4.1,3-6.9,7-6.9s6.9,2.9,6.9,6.9-2.9,7-6.9,7-7-2.9-7-7Zm12.1,0c0-3.2-2.2-5.3-5.1-5.3s-5.1,2.1-5.1,5.3,2.2,5.3,5.1,5.3,5.1-2.1,5.1-5.3Z"/>
      <path class="cls-7" d="m1204,895.1v19.3h-1.8v-2.7c-1.1,1.8-3,2.8-5.3,2.8-3.9,0-6.8-2.8-6.8-7s2.9-6.9,6.8-6.9c2.2,0,4.1.9,5.2,2.7v-8.2h1.9Zm-1.8,12.4c0-3.2-2.2-5.3-5.1-5.3s-5.1,2.1-5.1,5.3,2.2,5.3,5.1,5.3,5.1-2.1,5.1-5.3Z"/>
      <path class="cls-7" d="m1219.5,905.9v8.5h-1.8v-2.1c-.8,1.4-2.4,2.3-4.7,2.3-3.1,0-5-1.6-5-4,0-2.1,1.3-3.9,5.3-3.9h4.3v-.9c0-2.3-1.3-3.6-3.9-3.6-1.8,0-3.4.6-4.6,1.6l-.8-1.4c1.4-1.2,3.4-1.8,5.6-1.8,3.6,0,5.6,1.7,5.6,5.3h0Zm-1.9,4.3v-2.2h-4.3c-2.7,0-3.5,1-3.5,2.4,0,1.6,1.3,2.6,3.5,2.6s3.6-1,4.3-2.8h0Z"/>
      <path class="cls-7" d="m1230,912.1l.8-1.5c1.3,1.3,3.6,2.2,6,2.2,3.4,0,4.9-1.4,4.9-3.2,0-5-11.2-1.9-11.2-8.7,0-2.7,2.1-5,6.7-5,2.1,0,4.2.6,5.6,1.6l-.7,1.5c-1.6-1-3.4-1.5-5-1.5-3.3,0-4.8,1.5-4.8,3.3,0,5,11.2,2,11.2,8.6,0,2.7-2.1,5-6.8,5-2.7.1-5.4-.8-6.7-2.3h0Z"/>
      <path class="cls-7" d="m1257.6,905.9v8.5h-1.8v-2.1c-.8,1.4-2.4,2.3-4.7,2.3-3.1,0-5-1.6-5-4,0-2.1,1.3-3.9,5.3-3.9h4.3v-.9c0-2.3-1.3-3.6-3.9-3.6-1.8,0-3.4.6-4.6,1.6l-.8-1.4c1.4-1.2,3.4-1.8,5.6-1.8,3.6,0,5.6,1.7,5.6,5.3h0Zm-1.8,4.3v-2.2h-4.3c-2.7,0-3.5,1-3.5,2.4,0,1.6,1.3,2.6,3.5,2.6s3.5-1,4.3-2.8h0Z"/>
      <path class="cls-7" d="m1275,900.7v13.7h-1.8v-2.6c-1,1.7-2.7,2.6-4.9,2.6-3.5,0-5.8-2-5.8-5.9v-7.9h1.8v7.8c0,2.9,1.5,4.4,4.1,4.4,2.9,0,4.7-1.8,4.7-5v-7.2l1.9.1h0Zm-6.1-2.1h-1.8l3.6-3.2h2.5l-4.3,3.2h0Z"/>
      <path class="cls-7" d="m1292.6,895.1v19.3h-1.8v-2.7c-1.1,1.8-3,2.8-5.3,2.8-3.9,0-6.8-2.8-6.8-7s2.9-6.9,6.8-6.9c2.2,0,4.1.9,5.2,2.7v-8.2h1.9Zm-1.8,12.4c0-3.2-2.2-5.3-5.1-5.3s-5.1,2.1-5.1,5.3,2.2,5.3,5.1,5.3,5.1-2.1,5.1-5.3Z"/>
      <path class="cls-7" d="m1309.7,908.1h-11.4c.2,2.9,2.4,4.8,5.4,4.8,1.7,0,3.2-.6,4.2-1.8l1,1.2c-1.2,1.5-3.1,2.2-5.3,2.2-4.3,0-7.2-2.9-7.2-7s2.8-6.9,6.7-6.9,6.6,2.8,6.6,6.9c0,.2,0,.4,0,.6h0Zm-11.5-1.4h9.7c-.2-2.7-2.2-4.5-4.9-4.5s-4.5,1.8-4.8,4.5Z"/>
      <path class="cls-7" d="m1320.4,907.2c0-4.8,1.1-9.1,3-12.2h1.8c-2.1,3.6-3,7.5-3,12.2s.9,8.6,3,12.2h-1.8c-1.9-3.2-3-7.4-3-12.2Z"/>
      <path class="cls-7" d="m1340,912.7v1.7h-12.8v-1.3l7.6-7.4c2.1-2,2.4-3.2,2.4-4.5,0-2.1-1.5-3.4-4.3-3.4-2.1,0-3.8.7-5,2l-1.3-1.1c1.4-1.7,3.7-2.6,6.4-2.6,3.7,0,6,1.9,6,4.9,0,1.7-.6,3.3-3,5.7l-6.2,6.1,10.2-.1h0Z"/>
      <path class="cls-7" d="m1342.3,905.3c0-5.8,3-9.3,7.2-9.3s7.3,3.5,7.3,9.3-3.1,9.3-7.3,9.3-7.2-3.6-7.2-9.3Zm12.6,0c0-4.9-2.2-7.5-5.4-7.5s-5.4,2.7-5.4,7.5,2.2,7.5,5.4,7.5,5.4-2.7,5.4-7.5Z"/>
      <path class="cls-7" d="m1371.9,912.7v1.7h-12.8v-1.3l7.6-7.4c2.1-2,2.4-3.2,2.4-4.5,0-2.1-1.5-3.4-4.3-3.4-2.1,0-3.8.7-5,2l-1.3-1.1c1.4-1.7,3.7-2.6,6.4-2.6,3.7,0,6,1.9,6,4.9,0,1.7-.6,3.3-3,5.7l-6.2,6.1,10.2-.1h0Z"/>
      <path class="cls-7" d="m1386.6,912.7v1.7h-12.8v-1.3l7.6-7.4c2.1-2,2.4-3.2,2.4-4.5,0-2.1-1.5-3.4-4.3-3.4-2.1,0-3.8.7-5,2l-1.3-1.1c1.4-1.7,3.7-2.6,6.4-2.6,3.7,0,6,1.9,6,4.9,0,1.7-.6,3.3-3,5.7l-6.2,6.1,10.2-.1h0Z"/>
      <path class="cls-7" d="m1388.7,919.4c2.1-3.6,3-7.5,3-12.2s-.9-8.6-3-12.2h1.8c1.9,3.1,3,7.4,3,12.2s-1.1,9-3,12.2h-1.8Z"/>
      <path class="cls-7" d="m1397.6,902c0-.8.6-1.4,1.4-1.4s1.4.6,1.4,1.4-.7,1.4-1.4,1.4-1.4-.6-1.4-1.4Zm0,11c0-.8.6-1.4,1.4-1.4s1.4.6,1.4,1.4-.7,1.4-1.4,1.4-1.4-.5-1.4-1.4Z"/>
    </g>
    <g>
      <path class="cls-7" d="m161.5,550.4c0-1.1.9-2,1.9-2s1.9.8,1.9,2-.9,2-1.9,2-1.9-.8-1.9-2Z"/>
      <path class="cls-7" d="m189.8,548.5h1.9v6.9c-1.7,1.5-4.2,2.3-6.7,2.3-5.5,0-9.6-3.9-9.6-9.3s4.1-9.3,9.6-9.3c2.8,0,5.1.9,6.8,2.6l-1.2,1.2c-1.5-1.5-3.4-2.1-5.5-2.1-4.5,0-7.8,3.2-7.8,7.5s3.3,7.5,7.8,7.5c1.7,0,3.4-.4,4.8-1.4v-5.9h-.1Z"/>
      <path class="cls-7" d="m209.1,543.9v13.7h-1.8v-2.6c-1,1.7-2.7,2.6-4.9,2.6-3.5,0-5.8-2-5.8-5.9v-7.9h1.9v7.8c0,2.9,1.5,4.4,4.1,4.4,2.9,0,4.6-1.8,4.6-5v-7.2l1.9.1h0Z"/>
      <path class="cls-7" d="m213.8,539.6c0-.7.6-1.3,1.4-1.3s1.4.6,1.4,1.3c0,.8-.6,1.3-1.4,1.3s-1.4-.6-1.4-1.3h0Zm.4,4.3h1.9v13.7h-1.9v-13.7Z"/>
      <path class="cls-7" d="m231.6,549.1v8.5h-1.8v-2.1c-.8,1.4-2.4,2.3-4.7,2.3-3.1,0-5-1.6-5-4,0-2.1,1.4-3.9,5.3-3.9h4.3v-.9c0-2.3-1.3-3.6-3.9-3.6-1.8,0-3.4.6-4.6,1.6l-.8-1.4c1.4-1.2,3.4-1.8,5.6-1.8,3.5,0,5.5,1.7,5.6,5.3h0Zm-1.9,4.3v-2.2h-4.3c-2.6,0-3.5,1-3.5,2.4,0,1.6,1.3,2.6,3.5,2.6s3.6-1,4.3-2.8h0Z"/>
      <path class="cls-7" d="m255.9,538.3v19.3h-1.8v-2.7c-1.1,1.8-3,2.8-5.3,2.8-3.9,0-6.8-2.8-6.8-7s2.9-6.9,6.8-6.9c2.2,0,4.1.9,5.2,2.7v-8.2h1.9Zm-1.9,12.4c0-3.2-2.2-5.3-5.1-5.3s-5.1,2.1-5.1,5.3,2.2,5.3,5.1,5.3,5.1-2.1,5.1-5.3Z"/>
      <path class="cls-7" d="m272.9,551.3h-11.4c.2,2.9,2.4,4.8,5.4,4.8,1.7,0,3.1-.6,4.2-1.8l1,1.2c-1.2,1.5-3.1,2.2-5.3,2.2-4.3,0-7.2-2.9-7.2-7s2.8-6.9,6.7-6.9,6.6,2.8,6.6,6.9c0,.2,0,.4,0,.6h0Zm-11.4-1.4h9.7c-.2-2.7-2.2-4.5-4.9-4.5s-4.6,1.8-4.8,4.5h0Z"/>
      <path class="cls-7" d="m295.3,552.7h-10.1l-2.2,4.9h-2l8.3-18.2h1.9l8.3,18.2h-2l-2.2-4.9h0Zm-.7-1.6l-4.4-9.8-4.4,9.8h8.8Z"/>
      <path class="cls-7" d="m314.7,549.6v7.9h-1.9v-7.8c0-2.9-1.5-4.4-4.1-4.4-2.9,0-4.8,1.8-4.8,4.9v7.2h-1.9v-13.7h1.8v2.5c1-1.7,2.8-2.6,5.2-2.6,3.4.2,5.7,2.1,5.7,6h0Z"/>
      <path class="cls-7" d="m330.1,549.1v8.5h-1.8v-2.1c-.8,1.4-2.4,2.3-4.7,2.3-3.1,0-5-1.6-5-4,0-2.1,1.4-3.9,5.3-3.9h4.3v-.9c0-2.3-1.3-3.6-3.9-3.6-1.8,0-3.4.6-4.5,1.6l-.8-1.4c1.4-1.2,3.4-1.8,5.6-1.8,3.5,0,5.5,1.7,5.5,5.3h0Zm-1.9,4.3v-2.2h-4.3c-2.6,0-3.5,1-3.5,2.4,0,1.6,1.3,2.6,3.5,2.6s3.6-1,4.3-2.8h0Zm-3.5-11.6h-1.8l3.6-3.2h2.5l-4.3,3.2Z"/>
      <path class="cls-7" d="m335.1,538.3h1.9v19.3h-1.9v-19.3Z"/>
      <path class="cls-7" d="m341.7,539.6c0-.7.6-1.3,1.4-1.3s1.4.6,1.4,1.3c0,.8-.6,1.3-1.4,1.3s-1.4-.6-1.4-1.3h0Zm.4,4.3h1.9v13.7h-1.9v-13.7Z"/>
      <path class="cls-7" d="m347.2,556l.8-1.5c1.1.9,2.9,1.5,4.9,1.5,2.6,0,3.7-.9,3.7-2.2,0-3.6-8.9-.8-8.9-6.2,0-2.2,1.9-3.9,5.4-3.9,1.8,0,3.7.5,4.8,1.3l-.8,1.5c-1.2-.8-2.6-1.2-4-1.2-2.5,0-3.6,1-3.6,2.3,0,3.7,8.9.9,8.9,6.2,0,2.4-2.1,3.9-5.6,3.9-2.3,0-4.5-.8-5.6-1.7h0Z"/>
      <path class="cls-7" d="m373.7,551.3h-11.4c.2,2.9,2.4,4.8,5.4,4.8,1.7,0,3.1-.6,4.2-1.8l1,1.2c-1.2,1.5-3.1,2.2-5.3,2.2-4.3,0-7.2-2.9-7.2-7s2.8-6.9,6.7-6.9,6.6,2.8,6.6,6.9c0,.2,0,.4,0,.6h0Zm-11.4-1.4h9.7c-.2-2.7-2.2-4.5-4.9-4.5s-4.6,1.8-4.8,4.5h0Z"/>
      <path class="cls-7" d="m396.8,538.3v19.3h-1.8v-2.7c-1.1,1.8-3,2.8-5.3,2.8-3.9,0-6.8-2.8-6.8-7s2.9-6.9,6.8-6.9c2.2,0,4.1.9,5.2,2.7v-8.2h1.9Zm-1.8,12.4c0-3.2-2.2-5.3-5.1-5.3s-5.1,2.1-5.1,5.3,2.2,5.3,5.1,5.3,5.1-2.1,5.1-5.3Z"/>
      <path class="cls-7" d="m413.9,551.3h-11.4c.2,2.9,2.4,4.8,5.4,4.8,1.7,0,3.1-.6,4.2-1.8l1,1.2c-1.2,1.5-3.1,2.2-5.3,2.2-4.3,0-7.2-2.9-7.2-7s2.8-6.9,6.7-6.9,6.6,2.8,6.6,6.9c0,.2,0,.4,0,.6h0Zm-11.5-1.4h9.7c-.2-2.7-2.2-4.5-4.9-4.5s-4.5,1.8-4.8,4.5h0Z"/>
      <path class="cls-7" d="m424.9,539.3h1.9v18.2h-1.9v-18.2Z"/>
      <path class="cls-7" d="m454.9,549.6v7.9h-1.9v-7.8c0-2.9-1.5-4.4-3.9-4.4-2.8,0-4.6,1.8-4.6,4.9v7.2h-1.9v-7.8c0-2.9-1.5-4.4-4-4.4-2.8,0-4.6,1.8-4.6,4.9v7.2h-1.9v-13.7h1.8v2.5c1-1.6,2.7-2.6,5-2.6s4,1,4.9,2.9c1-1.8,2.9-2.9,5.4-2.9,3.5.3,5.7,2.2,5.7,6.1h0Z"/>
      <path class="cls-7" d="m473.8,550.7c0,4.2-2.9,7-6.8,7-2.2,0-4.1-.9-5.2-2.7v7.6h-1.9v-18.7h1.8v2.7c1.1-1.8,3-2.8,5.3-2.8,3.8,0,6.8,2.8,6.8,6.9h0Zm-1.9,0c0-3.2-2.2-5.3-5.1-5.3s-5.1,2.2-5.1,5.3,2.2,5.3,5.1,5.3,5.1-2.1,5.1-5.3Z"/>
      <path class="cls-7" d="m487.8,549.1v8.5h-1.8v-2.1c-.8,1.4-2.4,2.3-4.7,2.3-3.1,0-5-1.6-5-4,0-2.1,1.4-3.9,5.3-3.9h4.3v-.9c0-2.3-1.3-3.6-3.9-3.6-1.8,0-3.4.6-4.5,1.6l-.8-1.4c1.4-1.2,3.4-1.8,5.6-1.8,3.5,0,5.5,1.7,5.5,5.3h0Zm-1.9,4.3v-2.2h-4.3c-2.6,0-3.5,1-3.5,2.4,0,1.6,1.3,2.6,3.5,2.6s3.6-1,4.3-2.8h0Z"/>
      <path class="cls-7" d="m491.5,550.7c0-4.1,3-6.9,7-6.9,2.3,0,4.3.9,5.4,2.7l-1.4.9c-.9-1.4-2.4-2-4-2-3,0-5.2,2.1-5.2,5.3s2.2,5.3,5.2,5.3c1.6,0,3-.6,4-2l1.4.9c-1.1,1.8-3,2.7-5.4,2.7-4.1.1-7-2.8-7-6.9h0Z"/>
      <path class="cls-7" d="m514.8,556.7c-.7.7-1.8,1-2.9,1-2.6,0-4-1.5-4-4v-8.3h-2.4v-1.6h2.4v-3h1.9v3h4.2v1.6h-4.2v8.2c0,1.6.8,2.5,2.4,2.5.8,0,1.5-.2,2-.7l.6,1.3h0Z"/>
      <path class="cls-7" d="m516.3,550.7c0-4.1,3-6.9,7-6.9s6.9,2.9,6.9,6.9-2.9,7-6.9,7-7-2.9-7-7Zm12.1,0c0-3.2-2.2-5.3-5.1-5.3s-5.1,2.1-5.1,5.3,2.2,5.3,5.1,5.3,5.1-2.1,5.1-5.3Z"/>
      <path class="cls-7" d="m553.6,557.5l-4.2-5.8c-.5,0-.9.1-1.5.1h-4.9v5.8h-1.9v-18.2h6.8c4.6,0,7.4,2.3,7.4,6.2,0,2.9-1.5,4.9-4.2,5.7l4.5,6.2h-2Zm-.1-11.9c0-2.9-1.9-4.6-5.6-4.6h-4.8v9.1h4.8c3.7,0,5.6-1.7,5.6-4.5Z"/>
      <path class="cls-7" d="m571.5,551.3h-11.4c.2,2.9,2.4,4.8,5.4,4.8,1.7,0,3.2-.6,4.2-1.8l1,1.2c-1.2,1.5-3.1,2.2-5.3,2.2-4.3,0-7.2-2.9-7.2-7s2.8-6.9,6.7-6.9,6.6,2.8,6.6,6.9v.6h0Zm-11.4-1.4h9.7c-.2-2.7-2.2-4.5-4.9-4.5s-4.6,1.8-4.8,4.5Z"/>
      <path class="cls-7" d="m588,543.9v12c0,4.7-2.3,6.8-6.8,6.8-2.5,0-4.9-.8-6.4-2.1l.9-1.4c1.3,1.2,3.3,1.9,5.4,1.9,3.5,0,5-1.6,5-5v-1.7c-1.1,1.7-3.1,2.7-5.3,2.7-3.9,0-6.9-2.7-6.9-6.7s3-6.6,6.9-6.6c2.3,0,4.3.9,5.4,2.7v-2.6h1.8Zm-1.8,6.5c0-3-2.2-5-5.2-5s-5.2,2-5.2,5,2.2,5,5.2,5,5.2-2.1,5.2-5Z"/>
      <path class="cls-7" d="m605.5,543.9v13.7h-1.8v-2.6c-1,1.7-2.7,2.6-4.9,2.6-3.5,0-5.8-2-5.8-5.9v-7.9h1.8v7.8c0,2.9,1.5,4.4,4.1,4.4,2.9,0,4.7-1.8,4.7-5v-7.2l1.9.1h0Z"/>
      <path class="cls-7" d="m610.7,538.3h1.8v19.3h-1.8v-19.3Z"/>
      <path class="cls-7" d="m628,549.1v8.5h-1.8v-2.1c-.8,1.4-2.4,2.3-4.7,2.3-3.1,0-5-1.6-5-4,0-2.1,1.3-3.9,5.3-3.9h4.3v-.9c0-2.3-1.3-3.6-3.9-3.6-1.8,0-3.4.6-4.5,1.6l-.8-1.4c1.4-1.2,3.4-1.8,5.6-1.8,3.5,0,5.5,1.7,5.5,5.3h0Zm-1.9,4.3v-2.2h-4.3c-2.7,0-3.5,1-3.5,2.4,0,1.6,1.3,2.6,3.5,2.6s3.6-1,4.3-2.8h0Z"/>
      <path class="cls-7" d="m640.2,556.7c-.7.7-1.8,1-2.9,1-2.6,0-4-1.5-4-4v-8.3h-2.4v-1.6h2.4v-3h1.8v3h4.2v1.6h-4.2v8.2c0,1.6.8,2.5,2.4,2.5.8,0,1.5-.2,2-.7l.7,1.3h0Z"/>
      <path class="cls-7" d="m641.7,550.7c0-4.1,3-6.9,7-6.9s6.9,2.9,6.9,6.9-2.9,7-6.9,7-7-2.9-7-7Zm12,0c0-3.2-2.2-5.3-5.1-5.3s-5.1,2.1-5.1,5.3,2.2,5.3,5.1,5.3,5.1-2.1,5.1-5.3Zm-3.2-12.2h2.5l-4.2,3.2h-1.8l3.5-3.2h0Z"/>
      <path class="cls-7" d="m666.2,543.8v1.8h-.4c-2.9,0-4.6,1.8-4.6,5v7h-1.8v-13.7h1.8v2.7c.8-1.9,2.5-2.8,5-2.8h0Z"/>
      <path class="cls-7" d="m669.2,539.6c0-.7.6-1.3,1.3-1.3s1.3.6,1.3,1.3c0,.8-.6,1.3-1.3,1.3s-1.3-.6-1.3-1.3h0Zm.4,4.3h1.8v13.7h-1.8v-13.7Z"/>
      <path class="cls-7" d="m675.2,550.7c0-4.1,3-6.9,7-6.9s6.9,2.9,6.9,6.9-2.9,7-6.9,7-7-2.9-7-7Zm12,0c0-3.2-2.2-5.3-5.1-5.3s-5.1,2.1-5.1,5.3,2.2,5.3,5.1,5.3,5.1-2.1,5.1-5.3Z"/>
      <path class="cls-7" d="m699.8,550.4c0-4.8,1.1-9.1,3-12.2h1.8c-2,3.6-3,7.5-3,12.2s.9,8.6,3,12.2h-1.8c-1.9-3.2-3-7.4-3-12.2Z"/>
      <path class="cls-7" d="m719.4,555.9v1.7h-12.8v-1.3l7.6-7.4c2-2,2.4-3.2,2.4-4.5,0-2.1-1.5-3.4-4.3-3.4-2.1,0-3.8.7-5,2l-1.3-1.1c1.4-1.7,3.7-2.6,6.5-2.6,3.7,0,6,1.9,6,4.9,0,1.7-.5,3.3-3,5.7l-6.2,6.1,10.1-.1h0Z"/>
      <path class="cls-7" d="m721.7,548.5c0-5.8,3-9.3,7.2-9.3s7.3,3.5,7.3,9.3-3.1,9.3-7.3,9.3-7.2-3.6-7.2-9.3Zm12.6,0c0-4.9-2.2-7.5-5.4-7.5s-5.4,2.7-5.4,7.5,2.2,7.5,5.4,7.5,5.4-2.7,5.4-7.5Z"/>
      <path class="cls-7" d="m743.9,539.3v18.2h-1.9v-16.5h-4.3v-1.7h6.2Z"/>
      <path class="cls-7" d="m761.3,548.3c0,6.2-3.4,9.4-8.3,9.4-1.6,0-3.2-.3-4.3-1l.8-1.5c.9.6,2.2.9,3.5.9,3.9,0,6.5-2.5,6.5-7.5,0-.4,0-.9-.1-1.5-.9,2-3,3.1-5.6,3.1-3.6,0-6.1-2.1-6.1-5.5s2.7-5.6,6.2-5.6c4.8.1,7.4,3.4,7.4,9.2h0Zm-2.5-3.6c0-2-1.7-3.9-4.8-3.9-2.6,0-4.5,1.5-4.5,4s1.8,3.9,4.6,3.9,4.7-1.8,4.7-4Z"/>
      <path class="cls-7" d="m763.7,562.6c2.1-3.6,3-7.5,3-12.2s-.9-8.6-3-12.2h1.8c2,3.1,3,7.4,3,12.2s-1.1,9-3,12.2h-1.8Z"/>
      <path class="cls-7" d="m772.6,545.2c0-.8.6-1.4,1.4-1.4s1.4.6,1.4,1.4-.7,1.4-1.4,1.4-1.4-.6-1.4-1.4Zm0,11c0-.8.6-1.4,1.4-1.4s1.4.6,1.4,1.4-.7,1.4-1.4,1.4-1.4-.5-1.4-1.4Z"/>
    </g>
  </g>
</svg>