<?xml version="1.0" encoding="UTF-8"?>
<svg id="Layer_2" data-name="Layer 2" xmlns="http://www.w3.org/2000/svg" xmlns:xlink="http://www.w3.org/1999/xlink" viewBox="0 0 695.29 140.73">
  <defs>
    <style>
      .cls-1 {
        fill: #fff;
      }

      .cls-2 {
        fill: url(#radial-gradient);
      }

      .cls-3 {
        fill: #3b4294;
      }

      .cls-4 {
        fill: url(#radial-gradient-2);
      }

      .cls-5 {
        fill: url(#linear-gradient);
      }
    </style>
    <linearGradient id="linear-gradient" x1="0" y1="-268.63" x2="695.29" y2="-268.63" gradientTransform="translate(0 -198.26) scale(1 -1)" gradientUnits="userSpaceOnUse">
      <stop offset="0" stop-color="#7066d1"/>
      <stop offset="1" stop-color="#3f3499"/>
    </linearGradient>
    <radialGradient id="radial-gradient" cx="74.44" cy="-218.41" fx="74.44" fy="-218.41" r="106.92" gradientTransform="translate(.06 -198.27) scale(1 -1)" gradientUnits="userSpaceOnUse">
      <stop offset="0" stop-color="#fff"/>
      <stop offset="1" stop-color="#e3d8d8"/>
    </radialGradient>
    <radialGradient id="radial-gradient-2" cx="98.45" cy="-320.47" fx="98.45" fy="-320.47" r="108.84" gradientTransform="translate(-.02 -198.26) scale(1 -1)" xlink:href="#radial-gradient"/>
  </defs>
  <g id="Layer_1-2" data-name="Layer 1">
    <g>
      <rect class="cls-5" width="695.29" height="140.73"/>
      <g>
        <path class="cls-1" d="m200.57,49.69h6.35c4.71,0,7.93,3.08,7.93,7.7s-3.22,7.7-7.93,7.7h-6.35v-15.4Zm6.23,12.98c3.24,0,5.34-2.09,5.34-5.28s-2.1-5.28-5.34-5.28h-3.53v10.56h3.53Z"/>
        <path class="cls-1" d="m227.86,60.1h-8.7c.31,1.72,1.66,2.82,3.59,2.82,1.25,0,2.22-.42,3.01-1.28l1.39,1.69c-1,1.25-2.55,1.91-4.47,1.91-3.72,0-6.13-2.53-6.13-6.03s2.43-6.01,5.73-6.01,5.61,2.4,5.61,6.07c0,.22-.02.55-.04.81v.02Zm-8.71-1.83h6.29c-.21-1.69-1.43-2.86-3.14-2.86s-2.91,1.14-3.16,2.86h.01Z"/>
        <path class="cls-1" d="m229.12,63.93l1-2.09c.98.68,2.47,1.17,3.86,1.17,1.64,0,2.33-.48,2.33-1.3,0-2.24-6.85-.13-6.85-4.82,0-2.22,1.89-3.67,4.88-3.67,1.47,0,3.16.37,4.15,1.01l-1,2.09c-1.06-.66-2.12-.88-3.18-.88-1.58,0-2.33.55-2.33,1.32,0,2.38,6.85.26,6.85,4.86,0,2.2-1.91,3.63-5.03,3.63-1.85,0-3.7-.57-4.69-1.32h.01Z"/>
        <path class="cls-1" d="m241.08,48.77h2.6v16.33h-2.6v-16.33Z"/>
        <path class="cls-1" d="m257.46,60.1h-8.7c.31,1.72,1.66,2.82,3.59,2.82,1.25,0,2.22-.42,3.01-1.28l1.39,1.69c-1,1.25-2.55,1.91-4.47,1.91-3.72,0-6.13-2.53-6.13-6.03s2.43-6.01,5.73-6.01,5.61,2.4,5.61,6.07c0,.22-.02.55-.04.81v.02Zm-8.71-1.83h6.29c-.21-1.69-1.43-2.86-3.14-2.86s-2.91,1.14-3.16,2.86h.01Z"/>
        <path class="cls-1" d="m271,53.34v9.97c0,4.27-2.1,6.21-5.98,6.21-2.08,0-4.13-.57-5.4-1.67l1.16-2.07c.98.86,2.55,1.41,4.09,1.41,2.45,0,3.53-1.19,3.53-3.56v-.62c-.91,1.06-2.22,1.56-3.72,1.56-3.18,0-5.61-2.29-5.61-5.7s2.43-5.66,5.61-5.66c1.56,0,2.93.53,3.84,1.69v-1.56h2.48Zm-2.55,5.52c0-1.98-1.41-3.32-3.36-3.32s-3.38,1.34-3.38,3.32,1.41,3.37,3.38,3.37,3.36-1.36,3.36-3.37Z"/>
        <path class="cls-1" d="m283.68,58.21v6.89h-2.45v-1.43c-.62,1.01-1.83,1.58-3.49,1.58-2.53,0-4.13-1.47-4.13-3.52s1.25-3.5,4.61-3.5h2.87v-.18c0-1.61-.91-2.55-2.76-2.55-1.25,0-2.53.44-3.36,1.17l-1.02-2c1.18-.97,2.91-1.45,4.69-1.45,3.2,0,5.05,1.61,5.05,5h0Zm-2.6,3.2v-1.36h-2.68c-1.77,0-2.24.7-2.24,1.56,0,.99.79,1.63,2.12,1.63s2.37-.62,2.8-1.83Z"/>
        <path class="cls-1" d="m287,48.77h2.6v16.33h-2.6v-16.33Z"/>
        <path class="cls-1" d="m292.65,49.76c0-.92.71-1.65,1.66-1.65s1.66.68,1.66,1.58c0,.97-.69,1.72-1.66,1.72s-1.66-.73-1.66-1.65h0Zm.35,3.59h2.6v11.75h-2.6v-11.75Z"/>
        <path class="cls-1" d="m307.66,62.89v2.2h-9.57v-1.74l6.08-7.81h-5.96v-2.2h9.28v1.74l-6.11,7.81h6.28Z"/>
        <path class="cls-1" d="m319.33,58.21v6.89h-2.45v-1.43c-.62,1.01-1.83,1.58-3.49,1.58-2.53,0-4.13-1.47-4.13-3.52s1.25-3.5,4.61-3.5h2.87v-.18c0-1.61-.91-2.55-2.76-2.55-1.25,0-2.53.44-3.36,1.17l-1.02-2c1.18-.97,2.91-1.45,4.69-1.45,3.2,0,5.05,1.61,5.05,5h-.01Zm-2.6,3.2v-1.36h-2.68c-1.77,0-2.24.7-2.24,1.56,0,.99.79,1.63,2.12,1.63s2.37-.62,2.8-1.83Z"/>
        <path class="cls-1" d="m330.58,61.27l1.99,1.23c-.83,1.72-2.49,2.71-4.57,2.75l-.23.92c1.23.15,1.81.9,1.81,1.85,0,1.28-1.12,2.09-2.82,2.09-.75,0-1.39-.15-1.91-.46l.48-1.3c.44.24.89.35,1.41.35.77,0,1.1-.31,1.1-.79,0-.42-.31-.73-1.1-.73h-.64l.52-2.05c-2.84-.51-4.78-2.82-4.78-5.92,0-3.52,2.49-6.01,6-6.01,2.16,0,3.88.95,4.73,2.73l-1.99,1.23c-.67-1.12-1.66-1.63-2.76-1.63-1.91,0-3.36,1.41-3.36,3.67s1.45,3.67,3.36,3.67c1.1,0,2.1-.51,2.76-1.63v.03Z"/>
        <path class="cls-1" d="m344.1,58.21v6.89h-2.45v-1.43c-.62,1.01-1.83,1.58-3.49,1.58-2.53,0-4.13-1.47-4.13-3.52s1.25-3.5,4.61-3.5h2.87v-.18c0-1.61-.91-2.55-2.76-2.55-1.25,0-2.53.44-3.36,1.17l-1.02-2c1.18-.97,2.91-1.45,4.69-1.45,3.2,0,5.05,1.61,5.05,5h-.01Zm-7.17-6.61h-1.39c.04-1.8.91-2.95,2.24-2.95s2.08,1.45,2.82,1.45c.58,0,.98-.46,1.02-1.25h1.39c-.04,1.72-.91,2.88-2.24,2.88s-2.08-1.45-2.82-1.45c-.58,0-.98.48-1.02,1.32Zm4.57,9.81v-1.36h-2.68c-1.77,0-2.24.7-2.24,1.56,0,.99.79,1.63,2.12,1.63s2.37-.62,2.8-1.83Z"/>
        <path class="cls-1" d="m346.61,59.22c0-3.52,2.49-6.01,5.9-6.01s5.92,2.49,5.92,6.01-2.47,6.03-5.92,6.03-5.9-2.51-5.9-6.03Zm9.2,0c0-2.24-1.41-3.67-3.3-3.67s-3.28,1.43-3.28,3.67,1.41,3.67,3.28,3.67,3.3-1.43,3.3-3.67Z"/>
        <path class="cls-1" d="m377.5,48.77v16.33h-2.49v-1.52c-.87,1.12-2.16,1.67-3.68,1.67-3.22,0-5.61-2.38-5.61-6.03s2.39-6.01,5.61-6.01c1.43,0,2.7.51,3.57,1.58v-6.03h2.6Zm-2.55,10.46c0-2.24-1.43-3.67-3.3-3.67s-3.3,1.43-3.3,3.67,1.43,3.67,3.3,3.67,3.3-1.43,3.3-3.67Z"/>
        <path class="cls-1" d="m379.99,59.22c0-3.52,2.49-6.01,5.9-6.01s5.92,2.49,5.92,6.01-2.47,6.03-5.92,6.03-5.9-2.51-5.9-6.03Zm9.2,0c0-2.24-1.41-3.67-3.3-3.67s-3.28,1.43-3.28,3.67,1.41,3.67,3.28,3.67,3.3-1.43,3.3-3.67Z"/>
        <path class="cls-1" d="m410.88,48.77v16.33h-2.49v-1.52c-.87,1.12-2.16,1.67-3.68,1.67-3.22,0-5.61-2.38-5.61-6.03s2.39-6.01,5.61-6.01c1.43,0,2.7.51,3.57,1.58v-6.03h2.6Zm-2.55,10.46c0-2.24-1.43-3.67-3.3-3.67s-3.3,1.43-3.3,3.67,1.43,3.67,3.3,3.67,3.3-1.43,3.3-3.67Z"/>
        <path class="cls-1" d="m413.93,49.76c0-.92.71-1.65,1.66-1.65s1.66.68,1.66,1.58c0,.97-.69,1.72-1.66,1.72s-1.66-.73-1.66-1.65h0Zm.35,3.59h2.6v11.75h-2.6v-11.75Z"/>
        <path class="cls-1" d="m426.7,53.21v2.62c-.23-.04-.42-.07-.6-.07-1.97,0-3.22,1.23-3.22,3.63v5.7h-2.6v-11.75h2.47v1.72c.75-1.23,2.1-1.85,3.95-1.85Z"/>
        <path class="cls-1" d="m439.18,60.1h-8.7c.31,1.72,1.66,2.82,3.59,2.82,1.25,0,2.22-.42,3.01-1.28l1.39,1.69c-1,1.25-2.55,1.91-4.47,1.91-3.72,0-6.13-2.53-6.13-6.03s2.43-6.01,5.73-6.01,5.61,2.4,5.61,6.07c0,.22-.02.55-.04.81v.02Zm-8.71-1.83h6.29c-.21-1.69-1.43-2.86-3.14-2.86s-2.91,1.14-3.16,2.86h.01Z"/>
        <path class="cls-1" d="m441.36,49.76c0-.92.71-1.65,1.66-1.65s1.66.68,1.66,1.58c0,.97-.69,1.72-1.66,1.72s-1.66-.73-1.66-1.65h0Zm.35,3.59h2.6v11.75h-2.6v-11.75Z"/>
        <path class="cls-1" d="m454.38,64.46c-.62.53-1.56.79-2.49.79-2.43,0-3.82-1.36-3.82-3.96v-5.65h-1.83v-2.2h1.83v-2.68h2.6v2.68h2.97v2.2h-2.97v5.59c0,1.14.54,1.76,1.54,1.76.54,0,1.06-.15,1.45-.48l.73,1.96h-.01Z"/>
        <path class="cls-1" d="m455.23,59.22c0-3.52,2.49-6.01,5.9-6.01s5.92,2.49,5.92,6.01-2.47,6.03-5.92,6.03-5.9-2.51-5.9-6.03Zm9.2,0c0-2.24-1.41-3.67-3.3-3.67s-3.28,1.43-3.28,3.67,1.41,3.67,3.28,3.67,3.3-1.43,3.3-3.67Z"/>
        <path class="cls-1" d="m468.66,55.04c0-1.1.77-1.83,1.7-1.83s1.7.73,1.7,1.83-.77,1.83-1.7,1.83-1.7-.77-1.7-1.83Zm0,8.38c0-1.1.77-1.83,1.7-1.83s1.7.73,1.7,1.83-.77,1.83-1.7,1.83-1.7-.77-1.7-1.83Z"/>
        <path class="cls-1" d="m492.1,59.22c0,3.65-2.39,6.03-5.63,6.03-1.41,0-2.66-.51-3.55-1.58v5.7h-2.6v-16.02h2.47v1.54c.87-1.12,2.16-1.67,3.68-1.67,3.24,0,5.63,2.38,5.63,6.01h0Zm-2.64-.01c0-2.24-1.41-3.67-3.28-3.67s-3.3,1.43-3.3,3.67,1.43,3.67,3.3,3.67,3.28-1.43,3.28-3.67Z"/>
        <path class="cls-1" d="m500.98,53.21v2.62c-.23-.04-.42-.07-.6-.07-1.97,0-3.22,1.23-3.22,3.63v5.7h-2.6v-11.75h2.47v1.72c.75-1.23,2.1-1.85,3.95-1.85Z"/>
        <path class="cls-1" d="m512.4,58.21v6.89h-2.45v-1.43c-.62,1.01-1.83,1.58-3.49,1.58-2.53,0-4.13-1.47-4.13-3.52s1.25-3.5,4.61-3.5h2.87v-.18c0-1.61-.91-2.55-2.76-2.55-1.25,0-2.53.44-3.36,1.17l-1.02-2c1.18-.97,2.91-1.45,4.69-1.45,3.2,0,5.05,1.61,5.05,5h-.01Zm-2.6,3.2v-1.36h-2.68c-1.77,0-2.24.7-2.24,1.56,0,.99.79,1.63,2.12,1.63s2.37-.62,2.8-1.83Zm-1.72-9.68h-2.24l2.8-3.01h3.05l-3.61,3.01h0Z"/>
        <path class="cls-1" d="m522.39,64.46c-.62.53-1.56.79-2.49.79-2.43,0-3.82-1.36-3.82-3.96v-5.65h-1.83v-2.2h1.83v-2.68h2.6v2.68h2.97v2.2h-2.97v5.59c0,1.14.54,1.76,1.54,1.76.54,0,1.06-.15,1.45-.48l.73,1.96h-.01Z"/>
        <path class="cls-1" d="m524.17,49.76c0-.92.71-1.65,1.66-1.65s1.66.68,1.66,1.58c0,.97-.69,1.72-1.66,1.72s-1.66-.73-1.66-1.65h0Zm.35,3.59h2.6v11.75h-2.6v-11.75Z"/>
        <path class="cls-1" d="m529.61,59.22c0-3.52,2.49-6.01,6-6.01,2.16,0,3.88.95,4.73,2.73l-1.99,1.23c-.67-1.12-1.66-1.63-2.76-1.63-1.91,0-3.36,1.41-3.36,3.67s1.45,3.67,3.36,3.67c1.1,0,2.1-.51,2.76-1.63l1.99,1.23c-.85,1.76-2.58,2.75-4.73,2.75-3.51,0-6-2.51-6-6.03v.02Z"/>
        <path class="cls-1" d="m551.87,58.21v6.89h-2.45v-1.43c-.62,1.01-1.83,1.58-3.49,1.58-2.53,0-4.13-1.47-4.13-3.52s1.25-3.5,4.61-3.5h2.87v-.18c0-1.61-.91-2.55-2.76-2.55-1.25,0-2.53.44-3.36,1.17l-1.02-2c1.18-.97,2.91-1.45,4.69-1.45,3.2,0,5.05,1.61,5.05,5h-.01Zm-2.6,3.2v-1.36h-2.68c-1.77,0-2.24.7-2.24,1.56,0,.99.79,1.63,2.12,1.63s2.37-.62,2.8-1.83Z"/>
        <path class="cls-1" d="m571.78,48.77v16.33h-2.49v-1.52c-.87,1.12-2.16,1.67-3.68,1.67-3.22,0-5.61-2.38-5.61-6.03s2.39-6.01,5.61-6.01c1.43,0,2.7.51,3.57,1.58v-6.03h2.6Zm-2.55,10.46c0-2.24-1.43-3.67-3.3-3.67s-3.3,1.43-3.3,3.67,1.43,3.67,3.3,3.67,3.3-1.43,3.3-3.67Z"/>
        <path class="cls-1" d="m585.57,60.1h-8.7c.31,1.72,1.66,2.82,3.59,2.82,1.25,0,2.22-.42,3.01-1.28l1.39,1.69c-1,1.25-2.55,1.91-4.47,1.91-3.72,0-6.13-2.53-6.13-6.03s2.43-6.01,5.73-6.01,5.61,2.4,5.61,6.07c0,.22-.02.55-.04.81v.02Zm-8.71-1.83h6.29c-.21-1.69-1.43-2.86-3.14-2.86s-2.91,1.14-3.16,2.86h.01Z"/>
        <path class="cls-1" d="m603.11,58.21v6.89h-2.45v-1.43c-.62,1.01-1.83,1.58-3.49,1.58-2.53,0-4.13-1.47-4.13-3.52s1.25-3.5,4.61-3.5h2.87v-.18c0-1.61-.91-2.55-2.76-2.55-1.25,0-2.53.44-3.36,1.17l-1.02-2c1.18-.97,2.91-1.45,4.69-1.45,3.2,0,5.05,1.61,5.05,5h-.01Zm-2.6,3.2v-1.36h-2.68c-1.77,0-2.24.7-2.24,1.56,0,.99.79,1.63,2.12,1.63s2.37-.62,2.8-1.83Z"/>
        <path class="cls-1" d="m613.09,64.46c-.62.53-1.56.79-2.49.79-2.43,0-3.82-1.36-3.82-3.96v-5.65h-1.83v-2.2h1.83v-2.68h2.6v2.68h2.97v2.2h-2.97v5.59c0,1.14.54,1.76,1.54,1.76.54,0,1.06-.15,1.45-.48l.73,1.96h-.01Z"/>
        <path class="cls-1" d="m613.94,59.22c0-3.52,2.49-6.01,5.9-6.01s5.92,2.49,5.92,6.01-2.47,6.03-5.92,6.03-5.9-2.51-5.9-6.03Zm9.2,0c0-2.24-1.41-3.67-3.3-3.67s-3.28,1.43-3.28,3.67,1.41,3.67,3.28,3.67,3.3-1.43,3.3-3.67Z"/>
        <path class="cls-1" d="m626.98,63.93l1-2.09c.98.68,2.47,1.17,3.86,1.17,1.64,0,2.33-.48,2.33-1.3,0-2.24-6.85-.13-6.85-4.82,0-2.22,1.89-3.67,4.88-3.67,1.47,0,3.16.37,4.15,1.01l-1,2.09c-1.06-.66-2.12-.88-3.18-.88-1.58,0-2.33.55-2.33,1.32,0,2.38,6.85.26,6.85,4.86,0,2.2-1.91,3.63-5.03,3.63-1.85,0-3.7-.57-4.69-1.32h.01Z"/>
        <path class="cls-1" d="m211.25,84.76v6.73h-2.6v-6.38c0-2.09-.98-3.1-2.64-3.1-1.85,0-3.09,1.19-3.09,3.54v5.94h-2.6v-11.75h2.47v1.52c.85-1.08,2.2-1.65,3.82-1.65,2.66,0,4.63,1.61,4.63,5.15h.01Z"/>
        <path class="cls-1" d="m213.74,85.62c0-3.52,2.49-6.01,5.9-6.01s5.92,2.49,5.92,6.01-2.47,6.03-5.92,6.03-5.9-2.51-5.9-6.03Zm9.2,0c0-2.24-1.41-3.67-3.3-3.67s-3.28,1.43-3.28,3.67,1.41,3.67,3.28,3.67,3.3-1.43,3.3-3.67Z"/>
        <path class="cls-1" d="m234.46,79.61v2.62c-.23-.04-.42-.07-.6-.07-1.97,0-3.22,1.23-3.22,3.63v5.7h-2.6v-11.75h2.47v1.72c.75-1.23,2.1-1.85,3.95-1.85h0Z"/>
        <path class="cls-1" d="m255.2,84.76v6.73h-2.6v-6.38c0-2.09-.91-3.1-2.49-3.1-1.7,0-2.89,1.19-2.89,3.52v5.96h-2.6v-6.38c0-2.09-.91-3.1-2.49-3.1-1.72,0-2.89,1.19-2.89,3.52v5.96h-2.6v-11.75h2.47v1.5c.83-1.06,2.12-1.63,3.63-1.63,1.62,0,2.97.64,3.74,1.96.89-1.21,2.39-1.96,4.15-1.96,2.68,0,4.55,1.61,4.55,5.15h.02Z"/>
        <path class="cls-1" d="m267.8,84.61v6.89h-2.45v-1.43c-.62,1.01-1.83,1.58-3.49,1.58-2.53,0-4.13-1.47-4.13-3.52s1.25-3.5,4.61-3.5h2.87v-.18c0-1.61-.91-2.55-2.76-2.55-1.25,0-2.53.44-3.36,1.17l-1.02-2c1.18-.97,2.91-1.45,4.69-1.45,3.2,0,5.05,1.61,5.05,5h0Zm-2.6,3.2v-1.36h-2.68c-1.77,0-2.24.7-2.24,1.56,0,.99.79,1.63,2.12,1.63s2.37-.62,2.8-1.83Z"/>
        <path class="cls-1" d="m277.79,90.86c-.62.53-1.56.79-2.49.79-2.43,0-3.82-1.36-3.82-3.96v-5.65h-1.83v-2.2h1.83v-2.68h2.6v2.68h2.97v2.2h-2.97v5.59c0,1.14.54,1.76,1.54,1.76.54,0,1.06-.15,1.45-.48l.73,1.96h0Z"/>
        <path class="cls-1" d="m279.57,76.16c0-.92.71-1.65,1.66-1.65s1.66.68,1.66,1.58c0,.97-.69,1.72-1.66,1.72s-1.66-.73-1.66-1.65h0Zm.35,3.59h2.6v11.75h-2.6v-11.75Z"/>
        <path class="cls-1" d="m296.31,79.74l-4.76,11.75h-2.68l-4.76-11.75h2.7l3.45,8.71,3.55-8.71h2.5Z"/>
        <path class="cls-1" d="m296.7,85.62c0-3.52,2.49-6.01,5.9-6.01s5.92,2.49,5.92,6.01-2.47,6.03-5.92,6.03-5.9-2.51-5.9-6.03Zm9.2,0c0-2.24-1.41-3.67-3.3-3.67s-3.28,1.43-3.28,3.67,1.41,3.67,3.28,3.67,3.3-1.43,3.3-3.67Z"/>
        <path class="cls-1" d="m309.74,90.33l1-2.09c.98.68,2.47,1.17,3.86,1.17,1.64,0,2.33-.48,2.33-1.3,0-2.24-6.85-.13-6.85-4.82,0-2.22,1.89-3.67,4.88-3.67,1.47,0,3.16.37,4.15,1.01l-1,2.09c-1.06-.66-2.12-.88-3.18-.88-1.58,0-2.33.55-2.33,1.32,0,2.38,6.85.26,6.85,4.86,0,2.2-1.91,3.63-5.03,3.63-1.85,0-3.7-.57-4.69-1.32h.01Z"/>
        <path class="cls-1" d="m336.71,84.61v6.89h-2.45v-1.43c-.62,1.01-1.83,1.58-3.49,1.58-2.53,0-4.13-1.47-4.13-3.52s1.25-3.5,4.61-3.5h2.87v-.18c0-1.61-.91-2.55-2.76-2.55-1.25,0-2.53.44-3.36,1.17l-1.02-2c1.18-.97,2.91-1.45,4.69-1.45,3.2,0,5.05,1.61,5.05,5h-.01Zm-2.6,3.2v-1.36h-2.68c-1.77,0-2.24.7-2.24,1.56,0,.99.79,1.63,2.12,1.63s2.37-.62,2.8-1.83Z"/>
        <path class="cls-1" d="m350.76,79.74v11.75h-2.47v-1.5c-.83,1.08-2.14,1.65-3.57,1.65-2.85,0-4.78-1.65-4.78-5.19v-6.71h2.6v6.34c0,2.13.96,3.15,2.6,3.15,1.81,0,3.03-1.19,3.03-3.54v-5.94h2.6-.01Z"/>
        <path class="cls-1" d="m360.83,90.86c-.62.53-1.56.79-2.49.79-2.43,0-3.82-1.36-3.82-3.96v-5.65h-1.83v-2.2h1.83v-2.68h2.6v2.68h2.97v2.2h-2.97v5.59c0,1.14.54,1.76,1.54,1.76.54,0,1.06-.15,1.45-.48l.73,1.96h-.01Z"/>
        <path class="cls-1" d="m373.5,85.62c0,3.52-2.47,6.03-5.92,6.03s-5.9-2.51-5.9-6.03,2.49-6.01,5.9-6.01,5.92,2.49,5.92,6.01Zm-7.77-7.48h-2.14l2.78-3.01h2.37l2.78,3.01h-2.14l-1.83-1.63-1.83,1.63h0Zm5.15,7.48c0-2.24-1.41-3.67-3.3-3.67s-3.28,1.43-3.28,3.67,1.41,3.67,3.28,3.67,3.3-1.43,3.3-3.67Z"/>
        <path class="cls-1" d="m386.91,84.76v6.73h-2.6v-6.38c0-2.09-.98-3.1-2.64-3.1-1.85,0-3.09,1.19-3.09,3.54v5.94h-2.6v-11.75h2.47v1.52c.85-1.08,2.2-1.65,3.82-1.65,2.66,0,4.63,1.61,4.63,5.15h.01Z"/>
        <path class="cls-1" d="m389.4,85.62c0-3.52,2.49-6.01,5.9-6.01s5.92,2.49,5.92,6.01-2.47,6.03-5.92,6.03-5.9-2.51-5.9-6.03Zm9.2,0c0-2.24-1.41-3.67-3.3-3.67s-3.28,1.43-3.28,3.67,1.41,3.67,3.28,3.67,3.3-1.43,3.3-3.67Z"/>
        <path class="cls-1" d="m422.25,84.76v6.73h-2.6v-6.38c0-2.09-.91-3.1-2.49-3.1-1.7,0-2.89,1.19-2.89,3.52v5.96h-2.6v-6.38c0-2.09-.91-3.1-2.49-3.1-1.72,0-2.89,1.19-2.89,3.52v5.96h-2.6v-11.75h2.47v1.5c.83-1.06,2.12-1.63,3.63-1.63,1.62,0,2.97.64,3.74,1.96.89-1.21,2.39-1.96,4.15-1.96,2.68,0,4.55,1.61,4.55,5.15h.02Z"/>
        <path class="cls-1" d="m424.75,85.62c0-3.52,2.49-6.01,5.9-6.01s5.92,2.49,5.92,6.01-2.47,6.03-5.92,6.03-5.9-2.51-5.9-6.03Zm9.2,0c0-2.24-1.41-3.67-3.3-3.67s-3.28,1.43-3.28,3.67,1.41,3.67,3.28,3.67,3.3-1.43,3.3-3.67Z"/>
        <path class="cls-1" d="m437.79,90.33l1-2.09c.98.68,2.47,1.17,3.86,1.17,1.64,0,2.33-.48,2.33-1.3,0-2.24-6.85-.13-6.85-4.82,0-2.22,1.89-3.67,4.88-3.67,1.47,0,3.16.37,4.15,1.01l-1,2.09c-1.06-.66-2.12-.88-3.18-.88-1.58,0-2.33.55-2.33,1.32,0,2.38,6.85.26,6.85,4.86,0,2.2-1.91,3.63-5.03,3.63-1.85,0-3.7-.57-4.69-1.32h.01Z"/>
        <path class="cls-1" d="m466.34,75.17v16.33h-2.49v-1.52c-.87,1.12-2.16,1.67-3.68,1.67-3.22,0-5.61-2.38-5.61-6.03s2.39-6.01,5.61-6.01c1.43,0,2.7.51,3.57,1.58v-6.03h2.6Zm-2.55,10.46c0-2.24-1.43-3.67-3.3-3.67s-3.3,1.43-3.3,3.67,1.43,3.67,3.3,3.67,3.3-1.43,3.3-3.67Z"/>
        <path class="cls-1" d="m479.02,84.61v6.89h-2.45v-1.43c-.62,1.01-1.83,1.58-3.49,1.58-2.53,0-4.13-1.47-4.13-3.52s1.25-3.5,4.61-3.5h2.87v-.18c0-1.61-.91-2.55-2.76-2.55-1.25,0-2.53.44-3.36,1.17l-1.02-2c1.18-.97,2.91-1.45,4.69-1.45,3.2,0,5.05,1.61,5.05,5h-.01Zm-2.6,3.2v-1.36h-2.68c-1.77,0-2.24.7-2.24,1.56,0,.99.79,1.63,2.12,1.63s2.37-.62,2.8-1.83Z"/>
        <path class="cls-1" d="m497.36,84.61v6.89h-2.45v-1.43c-.62,1.01-1.83,1.58-3.49,1.58-2.53,0-4.13-1.47-4.13-3.52s1.25-3.5,4.61-3.5h2.87v-.18c0-1.61-.91-2.55-2.76-2.55-1.25,0-2.53.44-3.36,1.17l-1.02-2c1.18-.97,2.91-1.45,4.69-1.45,3.2,0,5.05,1.61,5.05,5h-.01Zm-2.6,3.2v-1.36h-2.68c-1.77,0-2.24.7-2.24,1.56,0,.99.79,1.63,2.12,1.63s2.37-.62,2.8-1.83Z"/>
        <path class="cls-1" d="m511.64,75.17v16.33h-2.49v-1.52c-.87,1.12-2.16,1.67-3.68,1.67-3.22,0-5.61-2.38-5.61-6.03s2.39-6.01,5.61-6.01c1.43,0,2.7.51,3.57,1.58v-6.03h2.6Zm-2.55,10.46c0-2.24-1.43-3.67-3.3-3.67s-3.3,1.43-3.3,3.67,1.43,3.67,3.3,3.67,3.3-1.43,3.3-3.67Z"/>
        <path class="cls-1" d="m533.59,84.76v6.73h-2.6v-6.38c0-2.09-.91-3.1-2.49-3.1-1.7,0-2.89,1.19-2.89,3.52v5.96h-2.6v-6.38c0-2.09-.91-3.1-2.49-3.1-1.72,0-2.89,1.19-2.89,3.52v5.96h-2.6v-11.75h2.47v1.5c.83-1.06,2.12-1.63,3.63-1.63,1.62,0,2.97.64,3.74,1.96.89-1.21,2.39-1.96,4.15-1.96,2.68,0,4.55,1.61,4.55,5.15h.02Z"/>
        <path class="cls-1" d="m536.55,76.16c0-.92.71-1.65,1.66-1.65s1.66.68,1.66,1.58c0,.97-.69,1.72-1.66,1.72s-1.66-.73-1.66-1.65h0Zm.35,3.59h2.6v11.75h-2.6v-11.75Z"/>
        <path class="cls-1" d="m553.83,84.76v6.73h-2.6v-6.38c0-2.09-.98-3.1-2.64-3.1-1.85,0-3.09,1.19-3.09,3.54v5.94h-2.6v-11.75h2.47v1.52c.85-1.08,2.2-1.65,3.82-1.65,2.66,0,4.63,1.61,4.63,5.15h.01Z"/>
        <path class="cls-1" d="m556.77,76.16c0-.92.71-1.65,1.66-1.65s1.66.68,1.66,1.58c0,.97-.69,1.72-1.66,1.72s-1.66-.73-1.66-1.65h0Zm.35,3.59h2.6v11.75h-2.6v-11.75Z"/>
        <path class="cls-1" d="m561.86,90.33l1-2.09c.98.68,2.47,1.17,3.86,1.17,1.64,0,2.33-.48,2.33-1.3,0-2.24-6.85-.13-6.85-4.82,0-2.22,1.89-3.67,4.88-3.67,1.47,0,3.16.37,4.15,1.01l-1,2.09c-1.06-.66-2.12-.88-3.18-.88-1.58,0-2.33.55-2.33,1.32,0,2.38,6.85.26,6.85,4.86,0,2.2-1.91,3.63-5.03,3.63-1.85,0-3.7-.57-4.69-1.32h.01Z"/>
        <path class="cls-1" d="m580.48,90.86c-.62.53-1.56.79-2.49.79-2.43,0-3.82-1.36-3.82-3.96v-5.65h-1.83v-2.2h1.83v-2.68h2.6v2.68h2.97v2.2h-2.97v5.59c0,1.14.54,1.76,1.54,1.76.54,0,1.06-.15,1.45-.48l.73,1.96h-.01Z"/>
        <path class="cls-1" d="m589.04,79.61v2.62c-.23-.04-.42-.07-.6-.07-1.97,0-3.22,1.23-3.22,3.63v5.7h-2.6v-11.75h2.47v1.72c.75-1.23,2.1-1.85,3.95-1.85Z"/>
        <path class="cls-1" d="m600.46,84.61v6.89h-2.45v-1.43c-.62,1.01-1.83,1.58-3.49,1.58-2.53,0-4.13-1.47-4.13-3.52s1.25-3.5,4.61-3.5h2.87v-.18c0-1.61-.91-2.55-2.76-2.55-1.25,0-2.53.44-3.36,1.17l-1.02-2c1.18-.97,2.91-1.45,4.69-1.45,3.2,0,5.05,1.61,5.05,5h-.01Zm-2.6,3.2v-1.36h-2.68c-1.77,0-2.24.7-2.24,1.56,0,.99.79,1.63,2.12,1.63s2.37-.62,2.8-1.83Z"/>
        <path class="cls-1" d="m611.71,87.67l1.99,1.23c-.83,1.72-2.49,2.71-4.57,2.75l-.23.92c1.23.15,1.81.9,1.81,1.85,0,1.28-1.12,2.09-2.82,2.09-.75,0-1.39-.15-1.91-.46l.48-1.3c.44.24.89.35,1.41.35.77,0,1.1-.31,1.1-.79,0-.42-.31-.73-1.1-.73h-.64l.52-2.05c-2.84-.51-4.78-2.82-4.78-5.92,0-3.52,2.49-6.01,6-6.01,2.16,0,3.88.95,4.73,2.73l-1.99,1.23c-.67-1.12-1.66-1.63-2.76-1.63-1.91,0-3.36,1.41-3.36,3.67s1.45,3.67,3.36,3.67c1.1,0,2.1-.51,2.76-1.63v.03Z"/>
        <path class="cls-1" d="m625.22,84.61v6.89h-2.45v-1.43c-.62,1.01-1.83,1.58-3.49,1.58-2.53,0-4.13-1.47-4.13-3.52s1.25-3.5,4.61-3.5h2.87v-.18c0-1.61-.91-2.55-2.76-2.55-1.25,0-2.53.44-3.36,1.17l-1.02-2c1.18-.97,2.91-1.45,4.69-1.45,3.2,0,5.05,1.61,5.05,5h-.01Zm-7.17-6.61h-1.39c.04-1.8.91-2.95,2.24-2.95s2.08,1.45,2.82,1.45c.58,0,.98-.46,1.02-1.25h1.39c-.04,1.72-.91,2.88-2.24,2.88s-2.08-1.45-2.82-1.45c-.58,0-.98.48-1.02,1.32Zm4.57,9.81v-1.36h-2.68c-1.77,0-2.24.7-2.24,1.56,0,.99.79,1.63,2.12,1.63s2.37-.62,2.8-1.83Z"/>
        <path class="cls-1" d="m627.73,85.62c0-3.52,2.49-6.01,5.9-6.01s5.92,2.49,5.92,6.01-2.47,6.03-5.92,6.03-5.9-2.51-5.9-6.03Zm9.2,0c0-2.24-1.41-3.67-3.3-3.67s-3.28,1.43-3.28,3.67,1.41,3.67,3.28,3.67,3.3-1.43,3.3-3.67Z"/>
        <path class="cls-1" d="m640.96,89.82c0-1.1.77-1.83,1.7-1.83s1.7.73,1.7,1.83-.77,1.83-1.7,1.83-1.7-.77-1.7-1.83Z"/>
      </g>
      <g>
        <circle class="cls-2" cx="91.37" cy="70.9" r="56.09"/>
        <circle class="cls-4" cx="91.33" cy="70.85" r="52.61"/>
      </g>
      <path class="cls-3" d="m117.58,87.82h-9.94v12.82h-13.78v-12.82h-32.87v-9.5l28.77-38.71h14.82l-26.68,36.71h16.39v-11.42h13.34v11.42h9.94v11.51h0Z"/>
    </g>
  </g>
</svg>