<?xml version="1.0" encoding="UTF-8"?>
<svg id="Layer_1" data-name="Layer 1" xmlns="http://www.w3.org/2000/svg" viewBox="0 0 1596.88 580.24">
  <defs>
    <style>
      .cls-1 {
        fill: #f7f1f0;
      }

      .cls-2 {
        fill: #e75525;
      }

      .cls-3 {
        fill: #f6c2a2;
      }

      .cls-4 {
        fill: none;
        stroke: #e85624;
        stroke-miterlimit: 10;
      }

      .cls-5 {
        fill: #ffefc3;
      }

      .cls-6 {
        fill: #f16a42;
      }

      .cls-7 {
        fill: #231f20;
      }
    </style>
  </defs>
  <rect class="cls-4" x="104.32" y="123.86" width="1426.21" height="372.3"/>
  <rect class="cls-1" x="66.6" y="97.36" width="1426.21" height="372.3"/>
  <g>
    <path id="Caminho_4266" data-name="Caminho 4266" class="cls-3" d="m131.4,75.56h-39.9l-20,34.6,20,34.6h39.9l20-34.6-20-34.6Z"/>
    <path id="Caminho_4267" data-name="Caminho 4267" class="cls-3" d="m146.4,48.46h-39.9l-20,34.6,20,34.6h39.9l20-34.6-20-34.6Z"/>
    <path id="Caminho_4268" data-name="Caminho 4268" class="cls-6" d="m93.1,52.16l-25.6,44.5,25.6,44.4h51.3l25.6-44.4-25.7-44.5h-51.2Z"/>
    <path id="Caminho_4269" data-name="Caminho 4269" class="cls-2" d="m126.1,41.46l-.8,1.3h-37.2l-18.5,32.1h-1.8l-1.2,2.1,1.2,2.1h2.4l1.2-2.1-.8-1.5,18.2-31.6h36.3l1,1.8h2.4l1.1-2.1-1.1-2.1h-2.4Z"/>
    <path id="Caminho_4270" data-name="Caminho 4270" class="cls-2" d="m170,116.76l-1.2-2.1h-2.4l-1.2,2.1.9,1.5-18.2,31.6h-36.3l-1-1.8h-2.5l-1.2,2.1,1.2,2.1h2.4l.7-1.2h37.2l18.6-32.2h1.8l1.2-2.1Z"/>
    <g id="Grupo_2380" data-name="Grupo 2380">
      <path id="Caminho_4271" data-name="Caminho 4271" class="cls-5" d="m115.35,121.26c2.5,2.5,6.7,2.5,9.2,0s2.5-6.5.1-8.9l-.1-.1c-2.5-2.5-6.7-2.5-9.2,0-2.5,2.4-2.5,6.4,0,9q0-.1,0,0m2-19.6c-.2-.4-.5-1.8-1.1-3.9-1.9-7.3-3-12.9-3-16.7,0-3.5.5-6,1.6-7.5s2.9-2.2,5.3-2.2c4.1,0,6.2,3.4,6.2,10.3,0,1.9-1.1,7.4-3.1,16.2-.3,1.4-.6,2.8-1.1,4.1-.4,1.1-1.4,1.8-2.5,1.9-.8-.1-1.6-.8-2.3-2.2"/>
    </g>
  </g>
  <g>
    <path class="cls-7" d="m195.03,204.9v18.2h-1.59l-11.7-14.77v14.77h-1.92v-18.2h1.59l11.73,14.77v-14.77h1.9Z"/>
    <path class="cls-7" d="m210.89,214.62v8.48h-1.77v-2.13c-.83,1.4-2.44,2.26-4.71,2.26-3.09,0-4.99-1.61-4.99-3.98,0-2.11,1.35-3.87,5.28-3.87h4.34v-.83c0-2.34-1.33-3.61-3.88-3.61-1.77,0-3.43.62-4.55,1.61l-.83-1.38c1.38-1.17,3.41-1.85,5.56-1.85,3.54,0,5.54,1.77,5.54,5.3Zm-1.85,4.37v-2.24h-4.29c-2.65,0-3.51,1.04-3.51,2.44,0,1.59,1.27,2.57,3.46,2.57s3.61-.99,4.34-2.78Zm-6.63-11.93h-1.12c.05-1.74.96-2.86,2.34-2.86,1.61,0,2.39,1.77,3.41,1.77.78,0,1.3-.62,1.35-1.61h1.12c-.05,1.69-.96,2.81-2.34,2.81-1.61,0-2.37-1.77-3.41-1.77-.78,0-1.3.62-1.35,1.66Z"/>
    <path class="cls-7" d="m214.58,216.26c0-4.06,2.96-6.94,6.97-6.94s6.94,2.89,6.94,6.94-2.94,6.97-6.94,6.97-6.97-2.91-6.97-6.97Zm12.04,0c0-3.2-2.16-5.33-5.07-5.33s-5.1,2.13-5.1,5.33,2.18,5.33,5.1,5.33,5.07-2.13,5.07-5.33Z"/>
    <path class="cls-7" d="m251.66,215.17v7.93h-1.85v-7.75c0-2.89-1.51-4.37-4.11-4.37-2.94,0-4.78,1.82-4.78,4.94v7.18h-1.85v-19.29h1.85v8.01c1.01-1.59,2.81-2.5,5.12-2.5,3.33,0,5.62,1.92,5.62,5.85Z"/>
    <path class="cls-7" d="m267,214.62v8.48h-1.77v-2.13c-.83,1.4-2.44,2.26-4.71,2.26-3.09,0-4.99-1.61-4.99-3.98,0-2.11,1.35-3.87,5.28-3.87h4.34v-.83c0-2.34-1.33-3.61-3.87-3.61-1.77,0-3.43.62-4.55,1.61l-.83-1.38c1.38-1.17,3.41-1.85,5.56-1.85,3.54,0,5.54,1.77,5.54,5.3Zm-1.85,4.37v-2.24h-4.29c-2.65,0-3.51,1.04-3.51,2.44,0,1.59,1.27,2.57,3.46,2.57s3.61-.99,4.34-2.78Zm-3.51-11.67h-1.82l3.56-3.22h2.47l-4.21,3.22Z"/>
    <path class="cls-7" d="m291.41,215.17v7.93h-1.85v-7.75c0-2.89-1.51-4.37-4.11-4.37-2.94,0-4.78,1.82-4.78,4.94v7.18h-1.85v-13.68h1.77v2.52c.99-1.66,2.83-2.63,5.2-2.63,3.33,0,5.62,1.92,5.62,5.85Z"/>
    <path class="cls-7" d="m306.75,214.62v8.48h-1.77v-2.13c-.83,1.4-2.44,2.26-4.71,2.26-3.09,0-4.99-1.61-4.99-3.98,0-2.11,1.35-3.87,5.28-3.87h4.34v-.83c0-2.34-1.33-3.61-3.88-3.61-1.77,0-3.43.62-4.55,1.61l-.83-1.38c1.38-1.17,3.41-1.85,5.56-1.85,3.54,0,5.54,1.77,5.54,5.3Zm-1.85,4.37v-2.24h-4.29c-2.65,0-3.51,1.04-3.51,2.44,0,1.59,1.27,2.57,3.46,2.57s3.61-.99,4.34-2.78Z"/>
    <path class="cls-7" d="m317.36,214c0-5.33,4.06-9.26,9.54-9.26,2.65,0,5.04.88,6.66,2.65l-1.22,1.22c-1.48-1.51-3.3-2.16-5.38-2.16-4.39,0-7.7,3.22-7.7,7.54s3.3,7.54,7.7,7.54c2.08,0,3.9-.65,5.38-2.18l1.22,1.22c-1.61,1.77-4,2.68-6.68,2.68-5.46,0-9.52-3.93-9.52-9.26Z"/>
    <path class="cls-7" d="m335.3,216.26c0-4.06,2.96-6.94,6.97-6.94s6.94,2.89,6.94,6.94-2.94,6.97-6.94,6.97-6.97-2.91-6.97-6.97Zm12.04,0c0-3.2-2.16-5.33-5.07-5.33s-5.1,2.13-5.1,5.33,2.18,5.33,5.1,5.33,5.07-2.13,5.07-5.33Z"/>
    <path class="cls-7" d="m365.56,215.17v7.93h-1.85v-7.75c0-2.89-1.51-4.37-4.11-4.37-2.94,0-4.78,1.82-4.78,4.94v7.18h-1.85v-13.68h1.77v2.52c.99-1.66,2.83-2.63,5.2-2.63,3.33,0,5.62,1.92,5.62,5.85Z"/>
    <path class="cls-7" d="m368.68,221.54l.83-1.46c1.09.86,2.94,1.53,4.86,1.53,2.6,0,3.67-.88,3.67-2.24,0-3.56-8.87-.75-8.87-6.16,0-2.24,1.92-3.9,5.41-3.9,1.77,0,3.69.49,4.84,1.27l-.81,1.48c-1.2-.83-2.63-1.17-4.03-1.17-2.47,0-3.56.96-3.56,2.26,0,3.69,8.87.91,8.87,6.16,0,2.37-2.08,3.9-5.64,3.9-2.26,0-4.45-.73-5.56-1.69Z"/>
    <path class="cls-7" d="m390.49,222.26c-.73.65-1.82.96-2.89.96-2.57,0-4-1.46-4-3.98v-8.27h-2.44v-1.56h2.44v-2.99h1.85v2.99h4.16v1.56h-4.16v8.16c0,1.61.83,2.5,2.37,2.5.75,0,1.51-.23,2.03-.7l.65,1.33Z"/>
    <path class="cls-7" d="m393.43,205.1c0-.7.6-1.3,1.35-1.3s1.35.57,1.35,1.27c0,.75-.57,1.35-1.35,1.35s-1.35-.6-1.35-1.33Zm.42,4.32h1.85v13.68h-1.85v-13.68Z"/>
    <path class="cls-7" d="m408.04,222.26c-.73.65-1.82.96-2.89.96-2.57,0-4-1.46-4-3.98v-8.27h-2.44v-1.56h2.44v-2.99h1.85v2.99h4.16v1.56h-4.16v8.16c0,1.61.83,2.5,2.37,2.5.75,0,1.51-.23,2.03-.7l.65,1.33Z"/>
    <path class="cls-7" d="m423.72,209.42v13.68h-1.77v-2.5c-.96,1.66-2.73,2.63-4.92,2.63-3.48,0-5.77-1.95-5.77-5.88v-7.93h1.85v7.75c0,2.91,1.51,4.39,4.11,4.39,2.86,0,4.65-1.85,4.65-4.97v-7.18h1.85Z"/>
    <path class="cls-7" d="m428.48,205.1c0-.7.6-1.3,1.35-1.3s1.35.57,1.35,1.27c0,.75-.57,1.35-1.35,1.35s-1.35-.6-1.35-1.33Zm.42,4.32h1.85v13.68h-1.85v-13.68Z"/>
    <path class="cls-7" d="m445.54,219.59l1.38.94c-1.09,1.77-3.04,2.7-5.36,2.7h-.05l-.31,1.22c1.43.13,2.21.96,2.21,2.11,0,1.4-1.2,2.26-2.94,2.26-.86,0-1.56-.18-2.18-.6l.44-.99c.52.34,1.09.49,1.72.49,1.04,0,1.61-.44,1.61-1.22,0-.7-.52-1.2-1.61-1.2h-.6l.57-2.16c-3.48-.49-5.9-3.2-5.9-6.89,0-4.08,2.96-6.94,7.05-6.94,2.31,0,4.26.91,5.36,2.7l-1.38.94c-.94-1.38-2.39-2.03-3.98-2.03-2.99,0-5.17,2.13-5.17,5.33s2.18,5.33,5.17,5.33c1.59,0,3.04-.62,3.98-2Z"/>
    <path class="cls-7" d="m460.85,214.62v8.48h-1.77v-2.13c-.83,1.4-2.44,2.26-4.71,2.26-3.09,0-4.99-1.61-4.99-3.98,0-2.11,1.35-3.87,5.28-3.87h4.34v-.83c0-2.34-1.33-3.61-3.88-3.61-1.77,0-3.43.62-4.55,1.61l-.83-1.38c1.38-1.17,3.41-1.85,5.56-1.85,3.54,0,5.54,1.77,5.54,5.3Zm-1.85,4.37v-2.24h-4.29c-2.65,0-3.51,1.04-3.51,2.44,0,1.59,1.27,2.57,3.46,2.57s3.61-.99,4.34-2.78Zm-6.63-11.93h-1.12c.05-1.74.96-2.86,2.34-2.86,1.61,0,2.39,1.77,3.41,1.77.78,0,1.3-.62,1.35-1.61h1.12c-.05,1.69-.96,2.81-2.34,2.81-1.61,0-2.37-1.77-3.41-1.77-.78,0-1.3.62-1.35,1.66Z"/>
    <path class="cls-7" d="m464.54,216.26c0-4.06,2.96-6.94,6.97-6.94s6.94,2.89,6.94,6.94-2.94,6.97-6.94,6.97-6.97-2.91-6.97-6.97Zm12.04,0c0-3.2-2.16-5.33-5.07-5.33s-5.1,2.13-5.1,5.33,2.18,5.33,5.1,5.33,5.07-2.13,5.07-5.33Z"/>
    <path class="cls-7" d="m491.35,206.56v7.15h9.41v1.66h-9.41v7.72h-1.92v-18.2h12.48v1.66h-10.56Z"/>
    <path class="cls-7" d="m516.93,216.83h-11.44c.21,2.86,2.39,4.76,5.38,4.76,1.66,0,3.15-.6,4.19-1.79l1.04,1.2c-1.22,1.46-3.12,2.24-5.28,2.24-4.26,0-7.18-2.91-7.18-6.97s2.83-6.94,6.68-6.94,6.63,2.83,6.63,6.94c0,.16-.03.36-.03.57Zm-11.44-1.38h9.7c-.23-2.68-2.18-4.55-4.86-4.55s-4.6,1.87-4.84,4.55Z"/>
    <path class="cls-7" d="m533.21,203.81v19.29h-1.77v-2.7c-1.12,1.85-3.02,2.83-5.28,2.83-3.9,0-6.81-2.83-6.81-6.97s2.91-6.94,6.81-6.94c2.18,0,4.06.94,5.2,2.7v-8.22h1.85Zm-1.82,12.45c0-3.2-2.18-5.33-5.07-5.33s-5.1,2.13-5.1,5.33,2.18,5.33,5.1,5.33,5.07-2.13,5.07-5.33Z"/>
    <path class="cls-7" d="m550.26,216.83h-11.44c.21,2.86,2.39,4.76,5.38,4.76,1.66,0,3.15-.6,4.19-1.79l1.04,1.2c-1.22,1.46-3.12,2.24-5.28,2.24-4.26,0-7.18-2.91-7.18-6.97s2.83-6.94,6.68-6.94,6.63,2.83,6.63,6.94c0,.16-.03.36-.03.57Zm-11.44-1.38h9.7c-.23-2.68-2.18-4.55-4.86-4.55s-4.6,1.87-4.84,4.55Z"/>
    <path class="cls-7" d="m560.95,209.32v1.79c-.16,0-.31-.03-.44-.03-2.86,0-4.6,1.82-4.6,5.04v6.97h-1.85v-13.68h1.77v2.68c.86-1.82,2.6-2.78,5.12-2.78Z"/>
    <path class="cls-7" d="m574.57,214.62v8.48h-1.77v-2.13c-.83,1.4-2.44,2.26-4.71,2.26-3.09,0-4.99-1.61-4.99-3.98,0-2.11,1.35-3.87,5.28-3.87h4.34v-.83c0-2.34-1.33-3.61-3.87-3.61-1.77,0-3.43.62-4.55,1.61l-.83-1.38c1.38-1.17,3.41-1.85,5.56-1.85,3.54,0,5.54,1.77,5.54,5.3Zm-1.85,4.37v-2.24h-4.29c-2.65,0-3.51,1.04-3.51,2.44,0,1.59,1.27,2.57,3.46,2.57s3.61-.99,4.34-2.78Z"/>
    <path class="cls-7" d="m579.59,203.81h1.85v19.29h-1.85v-19.29Z"/>
    <path class="cls-7" d="m592.02,216.26c0-4.06,2.96-6.94,6.97-6.94s6.94,2.89,6.94,6.94-2.94,6.97-6.94,6.97-6.97-2.91-6.97-6.97Zm12.04,0c0-3.2-2.16-5.33-5.07-5.33s-5.1,2.13-5.1,5.33,2.18,5.33,5.1,5.33,5.07-2.13,5.07-5.33Z"/>
    <path class="cls-7" d="m622.02,209.42v13.68h-1.77v-2.5c-.96,1.66-2.73,2.63-4.92,2.63-3.48,0-5.77-1.95-5.77-5.88v-7.93h1.85v7.75c0,2.91,1.51,4.39,4.11,4.39,2.86,0,4.65-1.85,4.65-4.97v-7.18h1.85Z"/>
    <path class="cls-7" d="m645.92,216.83h-11.44c.21,2.86,2.39,4.76,5.38,4.76,1.66,0,3.15-.6,4.19-1.79l1.04,1.2c-1.22,1.46-3.12,2.24-5.28,2.24-4.26,0-7.18-2.91-7.18-6.97s2.83-6.94,6.68-6.94,6.63,2.83,6.63,6.94c0,.16-.03.36-.03.57Zm-11.44-1.38h9.7c-.23-2.68-2.18-4.55-4.86-4.55s-4.6,1.87-4.84,4.55Z"/>
    <path class="cls-7" d="m672.28,215.17v7.93h-1.85v-7.75c0-2.89-1.46-4.37-3.93-4.37-2.81,0-4.58,1.82-4.58,4.94v7.18h-1.85v-7.75c0-2.89-1.46-4.37-3.95-4.37-2.78,0-4.58,1.82-4.58,4.94v7.18h-1.85v-13.68h1.77v2.5c.96-1.64,2.73-2.6,5.02-2.6s4.03.96,4.86,2.89c.99-1.77,2.94-2.89,5.41-2.89,3.33,0,5.51,1.92,5.51,5.85Z"/>
    <path class="cls-7" d="m684.11,203.81h1.85v19.29h-1.85v-19.29Z"/>
    <path class="cls-7" d="m703.01,216.83h-11.44c.21,2.86,2.39,4.76,5.38,4.76,1.66,0,3.15-.6,4.19-1.79l1.04,1.2c-1.22,1.46-3.12,2.24-5.28,2.24-4.26,0-7.18-2.91-7.18-6.97s2.83-6.94,6.68-6.94,6.63,2.83,6.63,6.94c0,.16-.03.36-.03.57Zm-11.44-1.38h9.7c-.23-2.68-2.18-4.55-4.86-4.55s-4.6,1.87-4.84,4.55Z"/>
    <path class="cls-7" d="m706.39,205.1c0-.7.6-1.3,1.35-1.3s1.35.57,1.35,1.27c0,.75-.57,1.35-1.35,1.35s-1.35-.6-1.35-1.33Zm.42,4.32h1.85v13.68h-1.85v-13.68Z"/>
    <path class="cls-7" d="m733.09,203.81v19.29h-1.77v-2.7c-1.12,1.85-3.02,2.83-5.28,2.83-3.9,0-6.81-2.83-6.81-6.97s2.91-6.94,6.81-6.94c2.18,0,4.06.94,5.2,2.7v-8.22h1.85Zm-1.82,12.45c0-3.2-2.18-5.33-5.07-5.33s-5.1,2.13-5.1,5.33,2.18,5.33,5.1,5.33,5.07-2.13,5.07-5.33Z"/>
    <path class="cls-7" d="m750.15,216.83h-11.44c.21,2.86,2.39,4.76,5.38,4.76,1.66,0,3.15-.6,4.19-1.79l1.04,1.2c-1.22,1.46-3.12,2.24-5.28,2.24-4.26,0-7.18-2.91-7.18-6.97s2.83-6.94,6.68-6.94,6.63,2.83,6.63,6.94c0,.16-.03.36-.03.57Zm-11.44-1.38h9.7c-.23-2.68-2.18-4.55-4.86-4.55s-4.6,1.87-4.84,4.55Z"/>
    <path class="cls-7" d="m771.08,214.62v8.48h-1.77v-2.13c-.83,1.4-2.44,2.26-4.71,2.26-3.09,0-4.99-1.61-4.99-3.98,0-2.11,1.35-3.87,5.28-3.87h4.34v-.83c0-2.34-1.33-3.61-3.87-3.61-1.77,0-3.43.62-4.55,1.61l-.83-1.38c1.38-1.17,3.41-1.85,5.56-1.85,3.54,0,5.54,1.77,5.54,5.3Zm-1.85,4.37v-2.24h-4.29c-2.65,0-3.51,1.04-3.51,2.44,0,1.59,1.27,2.57,3.46,2.57s3.61-.99,4.34-2.78Z"/>
    <path class="cls-7" d="m789.96,216.26c0,4.13-2.91,6.97-6.81,6.97-2.26,0-4.16-.99-5.28-2.83v2.7h-1.77v-19.29h1.85v8.22c1.14-1.77,3.02-2.7,5.2-2.7,3.9,0,6.81,2.81,6.81,6.94Zm-1.85,0c0-3.2-2.21-5.33-5.1-5.33s-5.1,2.13-5.1,5.33,2.18,5.33,5.1,5.33,5.1-2.13,5.1-5.33Z"/>
    <path class="cls-7" d="m800.62,209.32v1.79c-.16,0-.31-.03-.44-.03-2.86,0-4.6,1.82-4.6,5.04v6.97h-1.85v-13.68h1.77v2.68c.86-1.82,2.6-2.78,5.12-2.78Z"/>
    <path class="cls-7" d="m814.24,214.62v8.48h-1.77v-2.13c-.83,1.4-2.44,2.26-4.71,2.26-3.09,0-4.99-1.61-4.99-3.98,0-2.11,1.35-3.87,5.28-3.87h4.34v-.83c0-2.34-1.33-3.61-3.87-3.61-1.77,0-3.43.62-4.55,1.61l-.83-1.38c1.38-1.17,3.41-1.85,5.56-1.85,3.54,0,5.54,1.77,5.54,5.3Zm-1.85,4.37v-2.24h-4.29c-2.65,0-3.51,1.04-3.51,2.44,0,1.59,1.27,2.57,3.46,2.57s3.61-.99,4.34-2.78Z"/>
    <path class="cls-7" d="m831.84,215.17v7.93h-1.85v-7.75c0-2.89-1.51-4.37-4.11-4.37-2.94,0-4.78,1.82-4.78,4.94v7.18h-1.85v-13.68h1.77v2.52c.99-1.66,2.83-2.63,5.2-2.63,3.33,0,5.62,1.92,5.62,5.85Z"/>
    <path class="cls-7" d="m849.57,209.42v12.01c0,4.71-2.31,6.84-6.84,6.84-2.5,0-4.94-.75-6.37-2.11l.94-1.4c1.3,1.17,3.28,1.87,5.38,1.87,3.46,0,5.04-1.59,5.04-4.97v-1.74c-1.14,1.74-3.09,2.65-5.33,2.65-3.9,0-6.86-2.73-6.86-6.66s2.96-6.6,6.86-6.6c2.29,0,4.26.94,5.41,2.73v-2.63h1.77Zm-1.79,6.5c0-2.96-2.18-4.99-5.2-4.99s-5.17,2.03-5.17,4.99,2.16,5.02,5.17,5.02,5.2-2.05,5.2-5.02Z"/>
    <path class="cls-7" d="m866.65,216.83h-11.44c.21,2.86,2.39,4.76,5.38,4.76,1.66,0,3.15-.6,4.19-1.79l1.04,1.2c-1.22,1.46-3.12,2.24-5.28,2.24-4.26,0-7.18-2.91-7.18-6.97s2.83-6.94,6.68-6.94,6.63,2.83,6.63,6.94c0,.16-.03.36-.03.57Zm-11.44-1.38h9.7c-.23-2.68-2.18-4.55-4.86-4.55s-4.6,1.87-4.84,4.55Zm2.26-8.14h-1.72l3.35-3.22h1.87l3.35,3.22h-1.72l-2.57-2.16-2.57,2.16Z"/>
    <path class="cls-7" d="m883.03,215.17v7.93h-1.85v-7.75c0-2.89-1.51-4.37-4.11-4.37-2.94,0-4.78,1.82-4.78,4.94v7.18h-1.85v-13.68h1.77v2.52c.99-1.66,2.83-2.63,5.2-2.63,3.33,0,5.62,1.92,5.62,5.85Z"/>
    <path class="cls-7" d="m886.73,216.26c0-4.08,2.96-6.94,7.05-6.94,2.31,0,4.26.91,5.36,2.7l-1.38.94c-.94-1.38-2.39-2.03-3.98-2.03-2.99,0-5.17,2.13-5.17,5.33s2.18,5.33,5.17,5.33c1.59,0,3.04-.62,3.98-2l1.38.94c-1.09,1.77-3.04,2.7-5.36,2.7-4.08,0-7.05-2.89-7.05-6.97Z"/>
    <path class="cls-7" d="m902.33,205.1c0-.7.6-1.3,1.35-1.3s1.35.57,1.35,1.27c0,.75-.57,1.35-1.35,1.35s-1.35-.6-1.35-1.33Zm.42,4.32h1.85v13.68h-1.85v-13.68Z"/>
    <path class="cls-7" d="m920.06,214.62v8.48h-1.77v-2.13c-.83,1.4-2.44,2.26-4.71,2.26-3.09,0-4.99-1.61-4.99-3.98,0-2.11,1.35-3.87,5.28-3.87h4.34v-.83c0-2.34-1.33-3.61-3.87-3.61-1.77,0-3.43.62-4.55,1.61l-.83-1.38c1.38-1.17,3.41-1.85,5.56-1.85,3.54,0,5.54,1.77,5.54,5.3Zm-1.85,4.37v-2.24h-4.29c-2.65,0-3.51,1.04-3.51,2.44,0,1.59,1.27,2.57,3.46,2.57s3.61-.99,4.34-2.78Z"/>
    <path class="cls-7" d="m944.47,215.17v7.93h-1.85v-7.75c0-2.89-1.51-4.37-4.11-4.37-2.94,0-4.78,1.82-4.78,4.94v7.18h-1.85v-13.68h1.77v2.52c.99-1.66,2.83-2.63,5.2-2.63,3.33,0,5.62,1.92,5.62,5.85Z"/>
    <path class="cls-7" d="m959.81,214.62v8.48h-1.77v-2.13c-.83,1.4-2.44,2.26-4.71,2.26-3.09,0-4.99-1.61-4.99-3.98,0-2.11,1.35-3.87,5.28-3.87h4.34v-.83c0-2.34-1.33-3.61-3.88-3.61-1.77,0-3.43.62-4.55,1.61l-.83-1.38c1.38-1.17,3.41-1.85,5.56-1.85,3.54,0,5.54,1.77,5.54,5.3Zm-1.85,4.37v-2.24h-4.29c-2.65,0-3.51,1.04-3.51,2.44,0,1.59,1.27,2.57,3.46,2.57s3.61-.99,4.34-2.78Z"/>
    <path class="cls-7" d="m963.5,216.26c0-4.08,2.96-6.94,7.05-6.94,2.31,0,4.26.91,5.36,2.7l-1.38.94c-.94-1.38-2.39-2.03-3.98-2.03-2.99,0-5.17,2.13-5.17,5.33s2.18,5.33,5.17,5.33c1.59,0,3.04-.62,3.98-2l1.38.94c-1.09,1.77-3.04,2.7-5.36,2.7-4.08,0-7.05-2.89-7.05-6.97Z"/>
    <path class="cls-7" d="m979.1,205.1c0-.7.6-1.3,1.35-1.3s1.35.57,1.35,1.27c0,.75-.57,1.35-1.35,1.35s-1.35-.6-1.35-1.33Zm.42,4.32h1.85v13.68h-1.85v-13.68Z"/>
    <path class="cls-7" d="m985.13,216.26c0-4.06,2.96-6.94,6.97-6.94s6.94,2.89,6.94,6.94-2.94,6.97-6.94,6.97-6.97-2.91-6.97-6.97Zm12.04,0c0-3.2-2.16-5.33-5.07-5.33s-5.1,2.13-5.1,5.33,2.18,5.33,5.1,5.33,5.07-2.13,5.07-5.33Z"/>
    <path class="cls-7" d="m1015.4,215.17v7.93h-1.85v-7.75c0-2.89-1.51-4.37-4.11-4.37-2.94,0-4.78,1.82-4.78,4.94v7.18h-1.85v-13.68h1.77v2.52c.99-1.66,2.83-2.63,5.2-2.63,3.33,0,5.62,1.92,5.62,5.85Z"/>
    <path class="cls-7" d="m1030.74,214.62v8.48h-1.77v-2.13c-.83,1.4-2.44,2.26-4.71,2.26-3.09,0-4.99-1.61-4.99-3.98,0-2.11,1.35-3.87,5.28-3.87h4.34v-.83c0-2.34-1.33-3.61-3.87-3.61-1.77,0-3.43.62-4.55,1.61l-.83-1.38c1.38-1.17,3.41-1.85,5.56-1.85,3.54,0,5.54,1.77,5.54,5.3Zm-1.85,4.37v-2.24h-4.29c-2.65,0-3.51,1.04-3.51,2.44,0,1.59,1.27,2.57,3.46,2.57s3.61-.99,4.34-2.78Z"/>
    <path class="cls-7" d="m1035.75,203.81h1.85v19.29h-1.85v-19.29Z"/>
    <path class="cls-7" d="m1061.88,209.42v13.68h-1.77v-2.5c-.96,1.66-2.73,2.63-4.91,2.63-3.48,0-5.77-1.95-5.77-5.88v-7.93h1.85v7.75c0,2.91,1.51,4.39,4.11,4.39,2.86,0,4.65-1.85,4.65-4.97v-7.18h1.85Z"/>
    <path class="cls-7" d="m1089.63,215.17v7.93h-1.85v-7.75c0-2.89-1.46-4.37-3.93-4.37-2.81,0-4.58,1.82-4.58,4.94v7.18h-1.85v-7.75c0-2.89-1.46-4.37-3.95-4.37-2.78,0-4.58,1.82-4.58,4.94v7.18h-1.85v-13.68h1.77v2.5c.96-1.64,2.73-2.6,5.02-2.6s4.03.96,4.86,2.89c.99-1.77,2.94-2.89,5.41-2.89,3.33,0,5.51,1.92,5.51,5.85Z"/>
    <path class="cls-7" d="m1104.97,214.62v8.48h-1.77v-2.13c-.83,1.4-2.44,2.26-4.71,2.26-3.09,0-4.99-1.61-4.99-3.98,0-2.11,1.35-3.87,5.28-3.87h4.34v-.83c0-2.34-1.33-3.61-3.88-3.61-1.77,0-3.43.62-4.55,1.61l-.83-1.38c1.38-1.17,3.41-1.85,5.56-1.85,3.54,0,5.54,1.77,5.54,5.3Zm-1.85,4.37v-2.24h-4.29c-2.65,0-3.51,1.04-3.51,2.44,0,1.59,1.27,2.57,3.46,2.57s3.61-.99,4.34-2.78Z"/>
    <path class="cls-7" d="m1128.7,216.83h-11.44c.21,2.86,2.39,4.76,5.38,4.76,1.66,0,3.15-.6,4.19-1.79l1.04,1.2c-1.22,1.46-3.12,2.24-5.28,2.24-4.26,0-7.18-2.91-7.18-6.97s2.83-6.94,6.68-6.94,6.63,2.83,6.63,6.94c0,.16-.03.36-.03.57Zm-11.44-1.38h9.7c-.23-2.68-2.18-4.55-4.86-4.55s-4.6,1.87-4.84,4.55Z"/>
    <path class="cls-7" d="m1140.82,223.1l-4.34-5.72-4.37,5.72h-2.08l5.41-7.02-5.15-6.66h2.08l4.11,5.36,4.11-5.36h2.03l-5.15,6.66,5.46,7.02h-2.11Z"/>
    <path class="cls-7" d="m1145.58,205.1c0-.7.6-1.3,1.35-1.3s1.35.57,1.35,1.27c0,.75-.57,1.35-1.35,1.35s-1.35-.6-1.35-1.33Zm.42,4.32h1.85v13.68h-1.85v-13.68Z"/>
    <path class="cls-7" d="m1165.65,209.42v12.01c0,4.71-2.31,6.84-6.84,6.84-2.5,0-4.94-.75-6.37-2.11l.94-1.4c1.3,1.17,3.28,1.87,5.38,1.87,3.46,0,5.04-1.59,5.04-4.97v-1.74c-1.14,1.74-3.09,2.65-5.33,2.65-3.9,0-6.86-2.73-6.86-6.66s2.96-6.6,6.86-6.6c2.29,0,4.26.94,5.41,2.73v-2.63h1.77Zm-1.79,6.5c0-2.96-2.18-4.99-5.2-4.99s-5.17,2.03-5.17,4.99,2.16,5.02,5.17,5.02,5.2-2.05,5.2-5.02Z"/>
    <path class="cls-7" d="m1182.73,216.83h-11.44c.21,2.86,2.39,4.76,5.38,4.76,1.66,0,3.15-.6,4.19-1.79l1.04,1.2c-1.22,1.46-3.12,2.24-5.28,2.24-4.26,0-7.18-2.91-7.18-6.97s2.83-6.94,6.68-6.94,6.63,2.83,6.63,6.94c0,.16-.03.36-.03.57Zm-11.44-1.38h9.7c-.23-2.68-2.18-4.55-4.86-4.55s-4.6,1.87-4.84,4.55Zm2.26-8.14h-1.72l3.35-3.22h1.87l3.35,3.22h-1.72l-2.57-2.16-2.57,2.16Z"/>
    <path class="cls-7" d="m1199.11,215.17v7.93h-1.85v-7.75c0-2.89-1.51-4.37-4.11-4.37-2.94,0-4.78,1.82-4.78,4.94v7.18h-1.85v-13.68h1.77v2.52c.99-1.66,2.83-2.63,5.2-2.63,3.33,0,5.62,1.92,5.62,5.85Z"/>
    <path class="cls-7" d="m1202.8,216.26c0-4.08,2.96-6.94,7.05-6.94,2.31,0,4.26.91,5.36,2.7l-1.38.94c-.94-1.38-2.39-2.03-3.98-2.03-2.99,0-5.17,2.13-5.17,5.33s2.18,5.33,5.17,5.33c1.59,0,3.04-.62,3.98-2l1.38.94c-1.09,1.77-3.04,2.7-5.36,2.7-4.08,0-7.05-2.89-7.05-6.97Z"/>
    <path class="cls-7" d="m1218.4,205.1c0-.7.6-1.3,1.35-1.3s1.35.57,1.35,1.27c0,.75-.57,1.35-1.35,1.35s-1.35-.6-1.35-1.33Zm.42,4.32h1.85v13.68h-1.85v-13.68Z"/>
    <path class="cls-7" d="m1236.14,214.62v8.48h-1.77v-2.13c-.83,1.4-2.44,2.26-4.71,2.26-3.09,0-4.99-1.61-4.99-3.98,0-2.11,1.35-3.87,5.28-3.87h4.34v-.83c0-2.34-1.33-3.61-3.87-3.61-1.77,0-3.43.62-4.55,1.61l-.83-1.38c1.38-1.17,3.41-1.85,5.56-1.85,3.54,0,5.54,1.77,5.54,5.3Zm-1.85,4.37v-2.24h-4.29c-2.65,0-3.51,1.04-3.51,2.44,0,1.59,1.27,2.57,3.46,2.57s3.61-.99,4.34-2.78Z"/>
    <path class="cls-7" d="m1247.96,203.81h1.85v19.29h-1.85v-19.29Z"/>
    <path class="cls-7" d="m1266.87,216.83h-11.44c.21,2.86,2.39,4.76,5.38,4.76,1.66,0,3.15-.6,4.19-1.79l1.04,1.2c-1.22,1.46-3.12,2.24-5.28,2.24-4.26,0-7.18-2.91-7.18-6.97s2.83-6.94,6.68-6.94,6.63,2.83,6.63,6.94c0,.16-.03.36-.03.57Zm-11.44-1.38h9.7c-.23-2.68-2.18-4.55-4.86-4.55s-4.6,1.87-4.84,4.55Z"/>
    <path class="cls-7" d="m1283.33,209.42v12.01c0,4.71-2.31,6.84-6.84,6.84-2.5,0-4.94-.75-6.37-2.11l.94-1.4c1.3,1.17,3.28,1.87,5.38,1.87,3.46,0,5.04-1.59,5.04-4.97v-1.74c-1.14,1.74-3.09,2.65-5.33,2.65-3.9,0-6.86-2.73-6.86-6.66s2.96-6.6,6.86-6.6c2.29,0,4.26.94,5.41,2.73v-2.63h1.77Zm-1.79,6.5c0-2.96-2.18-4.99-5.2-4.99s-5.17,2.03-5.17,4.99,2.16,5.02,5.17,5.02,5.2-2.05,5.2-5.02Z"/>
    <path class="cls-7" d="m1298.82,214.62v8.48h-1.77v-2.13c-.83,1.4-2.44,2.26-4.71,2.26-3.09,0-4.99-1.61-4.99-3.98,0-2.11,1.35-3.87,5.28-3.87h4.34v-.83c0-2.34-1.33-3.61-3.87-3.61-1.77,0-3.43.62-4.55,1.61l-.83-1.38c1.38-1.17,3.41-1.85,5.56-1.85,3.54,0,5.54,1.77,5.54,5.3Zm-1.85,4.37v-2.24h-4.29c-2.65,0-3.51,1.04-3.51,2.44,0,1.59,1.27,2.57,3.46,2.57s3.61-.99,4.34-2.78Z"/>
    <path class="cls-7" d="m1303.84,203.81h1.85v19.29h-1.85v-19.29Z"/>
    <path class="cls-7" d="m1330.12,209.42v18.72h-1.85v-7.62c-1.14,1.77-3.02,2.7-5.2,2.7-3.9,0-6.81-2.81-6.81-6.97s2.91-6.94,6.81-6.94c2.26,0,4.16.99,5.28,2.81v-2.7h1.77Zm-1.82,6.84c0-3.17-2.18-5.33-5.07-5.33s-5.1,2.16-5.1,5.33,2.18,5.33,5.1,5.33,5.07-2.13,5.07-5.33Z"/>
    <path class="cls-7" d="m1347.6,209.42v13.68h-1.77v-2.5c-.96,1.66-2.73,2.63-4.92,2.63-3.48,0-5.77-1.95-5.77-5.88v-7.93h1.85v7.75c0,2.91,1.51,4.39,4.11,4.39,2.86,0,4.65-1.85,4.65-4.97v-7.18h1.85Z"/>
    <path class="cls-7" d="m1364.68,216.83h-11.44c.21,2.86,2.39,4.76,5.38,4.76,1.66,0,3.15-.6,4.19-1.79l1.04,1.2c-1.22,1.46-3.12,2.24-5.28,2.24-4.26,0-7.18-2.91-7.18-6.97s2.83-6.94,6.68-6.94,6.63,2.83,6.63,6.94c0,.16-.03.36-.03.57Zm-11.44-1.38h9.7c-.23-2.68-2.18-4.55-4.86-4.55s-4.6,1.87-4.84,4.55Z"/>
    <path class="cls-7" d="m1373.39,221.54l.83-1.46c1.09.86,2.94,1.53,4.86,1.53,2.6,0,3.67-.88,3.67-2.24,0-3.56-8.87-.75-8.87-6.16,0-2.24,1.92-3.9,5.41-3.9,1.77,0,3.69.49,4.84,1.27l-.81,1.48c-1.2-.83-2.63-1.17-4.03-1.17-2.47,0-3.56.96-3.56,2.26,0,3.69,8.87.91,8.87,6.16,0,2.37-2.08,3.9-5.64,3.9-2.26,0-4.45-.73-5.56-1.69Z"/>
    <path class="cls-7" d="m1399.91,216.83h-11.44c.21,2.86,2.39,4.76,5.38,4.76,1.66,0,3.15-.6,4.19-1.79l1.04,1.2c-1.22,1.46-3.12,2.24-5.28,2.24-4.26,0-7.18-2.91-7.18-6.97s2.83-6.94,6.68-6.94,6.63,2.83,6.63,6.94c0,.16-.03.36-.03.57Zm-11.44-1.38h9.7c-.23-2.68-2.18-4.55-4.86-4.55s-4.6,1.87-4.84,4.55Z"/>
    <path class="cls-7" d="m189.75,259.82v8.48h-1.77v-2.13c-.83,1.4-2.44,2.26-4.71,2.26-3.09,0-4.99-1.61-4.99-3.98,0-2.11,1.35-3.87,5.28-3.87h4.34v-.83c0-2.34-1.33-3.61-3.87-3.61-1.77,0-3.43.62-4.55,1.61l-.83-1.38c1.38-1.17,3.41-1.85,5.56-1.85,3.54,0,5.54,1.77,5.54,5.3Zm-1.85,4.37v-2.24h-4.29c-2.65,0-3.51,1.04-3.51,2.44,0,1.59,1.27,2.57,3.46,2.57s3.61-.99,4.34-2.78Z"/>
    <path class="cls-7" d="m208.63,261.46c0,4.16-2.91,6.97-6.81,6.97-2.18,0-4.06-.94-5.2-2.7v7.62h-1.85v-18.72h1.77v2.7c1.12-1.82,3.02-2.81,5.28-2.81,3.9,0,6.81,2.81,6.81,6.94Zm-1.85,0c0-3.17-2.21-5.33-5.1-5.33s-5.1,2.16-5.1,5.33,2.18,5.33,5.1,5.33,5.1-2.13,5.1-5.33Z"/>
    <path class="cls-7" d="m212.4,249.01h1.85v19.29h-1.85v-19.29Z"/>
    <path class="cls-7" d="m218.98,250.31c0-.7.6-1.3,1.35-1.3s1.35.57,1.35,1.27c0,.75-.57,1.35-1.35,1.35s-1.35-.6-1.35-1.33Zm.42,4.32h1.85v13.68h-1.85v-13.68Z"/>
    <path class="cls-7" d="m238.87,254.62v18.72h-1.85v-7.62c-1.14,1.77-3.02,2.7-5.2,2.7-3.9,0-6.81-2.81-6.81-6.97s2.91-6.94,6.81-6.94c2.26,0,4.16.99,5.28,2.81v-2.7h1.77Zm-1.82,6.84c0-3.17-2.18-5.33-5.07-5.33s-5.1,2.16-5.1,5.33,2.18,5.33,5.1,5.33,5.07-2.13,5.07-5.33Z"/>
    <path class="cls-7" d="m256.34,254.62v13.68h-1.77v-2.5c-.96,1.66-2.73,2.63-4.92,2.63-3.48,0-5.77-1.95-5.77-5.88v-7.93h1.85v7.75c0,2.91,1.51,4.39,4.11,4.39,2.86,0,4.65-1.85,4.65-4.97v-7.18h1.85Z"/>
    <path class="cls-7" d="m273.42,262.03h-11.44c.21,2.86,2.39,4.76,5.38,4.76,1.66,0,3.15-.6,4.19-1.79l1.04,1.2c-1.22,1.46-3.12,2.24-5.28,2.24-4.26,0-7.18-2.91-7.18-6.97s2.83-6.94,6.68-6.94,6.63,2.83,6.63,6.94c0,.16-.03.36-.03.57Zm-11.44-1.38h9.7c-.23-2.68-2.18-4.55-4.86-4.55s-4.6,1.87-4.84,4.55Z"/>
    <path class="cls-7" d="m293.37,259.82v8.48h-1.77v-2.13c-.83,1.4-2.44,2.26-4.71,2.26-3.09,0-4.99-1.61-4.99-3.98,0-2.11,1.35-3.87,5.28-3.87h4.34v-.83c0-2.34-1.33-3.61-3.88-3.61-1.77,0-3.43.62-4.55,1.61l-.83-1.38c1.38-1.17,3.41-1.85,5.56-1.85,3.54,0,5.54,1.77,5.54,5.3Zm-1.85,4.37v-2.24h-4.29c-2.65,0-3.51,1.04-3.51,2.44,0,1.59,1.27,2.57,3.46,2.57s3.61-.99,4.34-2.78Z"/>
    <path class="cls-7" d="m304.45,260.52v-10.43h1.92v10.35c0,4.32,2.03,6.29,5.56,6.29s5.59-1.98,5.59-6.29v-10.35h1.87v10.43c0,5.23-2.81,7.93-7.46,7.93s-7.49-2.7-7.49-7.93Z"/>
    <path class="cls-7" d="m337.39,260.37v7.93h-1.85v-7.75c0-2.89-1.51-4.37-4.11-4.37-2.94,0-4.78,1.82-4.78,4.94v7.18h-1.85v-13.68h1.77v2.52c.99-1.66,2.83-2.63,5.2-2.63,3.33,0,5.62,1.92,5.62,5.85Z"/>
    <path class="cls-7" d="m341.99,250.31c0-.7.6-1.3,1.35-1.3s1.35.57,1.35,1.27c0,.75-.57,1.35-1.35,1.35s-1.35-.6-1.35-1.33Zm.42,4.32h1.85v13.68h-1.85v-13.68Z"/>
    <path class="cls-7" d="m359.72,259.82v8.48h-1.77v-2.13c-.83,1.4-2.44,2.26-4.71,2.26-3.09,0-4.99-1.61-4.99-3.98,0-2.11,1.35-3.87,5.28-3.87h4.34v-.83c0-2.34-1.33-3.61-3.87-3.61-1.77,0-3.43.62-4.55,1.61l-.83-1.38c1.38-1.17,3.41-1.85,5.56-1.85,3.54,0,5.54,1.77,5.54,5.3Zm-1.85,4.37v-2.24h-4.29c-2.65,0-3.51,1.04-3.51,2.44,0,1.59,1.27,2.57,3.46,2.57s3.61-.99,4.34-2.78Zm-6.63-11.93h-1.12c.05-1.74.96-2.86,2.34-2.86,1.61,0,2.39,1.77,3.41,1.77.78,0,1.3-.62,1.35-1.61h1.12c-.05,1.69-.96,2.81-2.34,2.81-1.61,0-2.37-1.77-3.41-1.77-.78,0-1.3.62-1.35,1.66Z"/>
    <path class="cls-7" d="m363.42,261.46c0-4.06,2.96-6.94,6.97-6.94s6.94,2.89,6.94,6.94-2.94,6.97-6.94,6.97-6.97-2.91-6.97-6.97Zm12.04,0c0-3.2-2.16-5.33-5.07-5.33s-5.1,2.13-5.1,5.33,2.18,5.33,5.1,5.33,5.07-2.13,5.07-5.33Z"/>
    <path class="cls-7" d="m382.29,267c0,.44-.1.78-.36,1.51l-1.09,3.59h-1.25l.88-3.77c-.55-.16-.94-.65-.94-1.33,0-.81.6-1.4,1.38-1.4s1.38.62,1.38,1.4Z"/>
    <path class="cls-7" d="m405.31,266.63v1.66h-12.87v-18.2h12.48v1.66h-10.56v6.47h9.41v1.64h-9.41v6.76h10.95Z"/>
    <path class="cls-7" d="m407.33,266.74l.83-1.46c1.09.86,2.94,1.53,4.86,1.53,2.6,0,3.67-.88,3.67-2.24,0-3.56-8.87-.75-8.87-6.16,0-2.24,1.92-3.9,5.41-3.9,1.77,0,3.69.49,4.84,1.27l-.81,1.48c-1.2-.83-2.63-1.17-4.03-1.17-2.47,0-3.56.96-3.56,2.26,0,3.69,8.87.91,8.87,6.16,0,2.37-2.08,3.9-5.64,3.9-2.26,0-4.45-.73-5.56-1.69Z"/>
    <path class="cls-7" d="m429.15,267.47c-.73.65-1.82.96-2.89.96-2.57,0-4-1.46-4-3.98v-8.27h-2.44v-1.56h2.44v-2.99h1.85v2.99h4.16v1.56h-4.16v8.16c0,1.61.83,2.5,2.37,2.5.75,0,1.51-.23,2.03-.7l.65,1.33Z"/>
    <path class="cls-7" d="m442.82,259.82v8.48h-1.77v-2.13c-.83,1.4-2.44,2.26-4.71,2.26-3.09,0-4.99-1.61-4.99-3.98,0-2.11,1.35-3.87,5.28-3.87h4.34v-.83c0-2.34-1.33-3.61-3.88-3.61-1.77,0-3.43.62-4.55,1.61l-.83-1.38c1.38-1.17,3.41-1.85,5.56-1.85,3.54,0,5.54,1.77,5.54,5.3Zm-1.85,4.37v-2.24h-4.29c-2.65,0-3.51,1.04-3.51,2.44,0,1.59,1.27,2.57,3.46,2.57s3.61-.99,4.34-2.78Z"/>
    <path class="cls-7" d="m460.37,249.01v19.29h-1.77v-2.7c-1.12,1.85-3.02,2.83-5.28,2.83-3.9,0-6.81-2.83-6.81-6.97s2.91-6.94,6.81-6.94c2.18,0,4.06.94,5.2,2.7v-8.22h1.85Zm-1.82,12.45c0-3.2-2.18-5.33-5.07-5.33s-5.1,2.13-5.1,5.33,2.18,5.33,5.1,5.33,5.07-2.13,5.07-5.33Z"/>
    <path class="cls-7" d="m464.14,261.46c0-4.06,2.96-6.94,6.97-6.94s6.94,2.89,6.94,6.94-2.94,6.97-6.94,6.97-6.97-2.91-6.97-6.97Zm12.04,0c0-3.2-2.16-5.33-5.07-5.33s-5.1,2.13-5.1,5.33,2.18,5.33,5.1,5.33,5.07-2.13,5.07-5.33Z"/>
    <path class="cls-7" d="m479.92,266.74l.83-1.46c1.09.86,2.94,1.53,4.86,1.53,2.6,0,3.67-.88,3.67-2.24,0-3.56-8.87-.75-8.87-6.16,0-2.24,1.92-3.9,5.41-3.9,1.77,0,3.69.49,4.84,1.27l-.81,1.48c-1.2-.83-2.63-1.17-4.03-1.17-2.47,0-3.56.96-3.56,2.26,0,3.69,8.87.91,8.87,6.16,0,2.37-2.08,3.9-5.64,3.9-2.26,0-4.45-.73-5.56-1.69Z"/>
    <path class="cls-7" d="m496.12,267c0,.44-.1.78-.36,1.51l-1.09,3.59h-1.25l.88-3.77c-.55-.16-.94-.65-.94-1.33,0-.81.6-1.4,1.38-1.4s1.38.62,1.38,1.4Z"/>
    <path class="cls-7" d="m506.27,250.1h7.41c5.82,0,9.75,3.74,9.75,9.1s-3.93,9.1-9.75,9.1h-7.41v-18.2Zm7.31,16.54c4.84,0,7.96-3.07,7.96-7.44s-3.12-7.44-7.96-7.44h-5.38v14.87h5.38Z"/>
    <path class="cls-7" d="m526.94,250.31c0-.7.6-1.3,1.35-1.3s1.35.57,1.35,1.27c0,.75-.57,1.35-1.35,1.35s-1.35-.6-1.35-1.33Zm.42,4.32h1.85v13.68h-1.85v-13.68Z"/>
    <path class="cls-7" d="m532.45,266.74l.83-1.46c1.09.86,2.94,1.53,4.86,1.53,2.6,0,3.67-.88,3.67-2.24,0-3.56-8.87-.75-8.87-6.16,0-2.24,1.92-3.9,5.41-3.9,1.77,0,3.69.49,4.84,1.27l-.81,1.48c-1.2-.83-2.63-1.17-4.03-1.17-2.47,0-3.56.96-3.56,2.26,0,3.69,8.87.91,8.87,6.16,0,2.37-2.08,3.9-5.64,3.9-2.26,0-4.45-.73-5.56-1.69Z"/>
    <path class="cls-7" d="m554.26,267.47c-.73.65-1.82.96-2.89.96-2.57,0-4-1.46-4-3.98v-8.27h-2.44v-1.56h2.44v-2.99h1.85v2.99h4.16v1.56h-4.16v8.16c0,1.61.83,2.5,2.37,2.5.75,0,1.51-.23,2.03-.7l.65,1.33Z"/>
    <path class="cls-7" d="m564.51,254.52v1.79c-.16,0-.31-.03-.44-.03-2.86,0-4.6,1.82-4.6,5.04v6.97h-1.85v-13.68h1.77v2.68c.86-1.82,2.6-2.78,5.12-2.78Z"/>
    <path class="cls-7" d="m567.42,250.31c0-.7.6-1.3,1.35-1.3s1.35.57,1.35,1.27c0,.75-.57,1.35-1.35,1.35s-1.35-.6-1.35-1.33Zm.42,4.32h1.85v13.68h-1.85v-13.68Z"/>
    <path class="cls-7" d="m582.03,267.47c-.73.65-1.82.96-2.89.96-2.57,0-4-1.46-4-3.98v-8.27h-2.44v-1.56h2.44v-2.99h1.85v2.99h4.16v1.56h-4.16v8.16c0,1.61.83,2.5,2.37,2.5.75,0,1.51-.23,2.03-.7l.65,1.33Z"/>
    <path class="cls-7" d="m583.51,261.46c0-4.06,2.96-6.94,6.97-6.94s6.94,2.89,6.94,6.94-2.94,6.97-6.94,6.97-6.97-2.91-6.97-6.97Zm12.04,0c0-3.2-2.16-5.33-5.07-5.33s-5.1,2.13-5.1,5.33,2.18,5.33,5.1,5.33,5.07-2.13,5.07-5.33Z"/>
    <path class="cls-7" d="m609.33,251.76v7.15h9.41v1.66h-9.41v7.72h-1.92v-18.2h12.48v1.66h-10.56Z"/>
    <path class="cls-7" d="m634.92,262.03h-11.44c.21,2.86,2.39,4.76,5.38,4.76,1.66,0,3.15-.6,4.19-1.79l1.04,1.2c-1.22,1.46-3.12,2.24-5.28,2.24-4.26,0-7.18-2.91-7.18-6.97s2.83-6.94,6.68-6.94,6.63,2.83,6.63,6.94c0,.16-.03.36-.03.57Zm-11.44-1.38h9.7c-.23-2.68-2.18-4.55-4.86-4.55s-4.6,1.87-4.84,4.55Z"/>
    <path class="cls-7" d="m651.19,249.01v19.29h-1.77v-2.7c-1.12,1.85-3.02,2.83-5.28,2.83-3.9,0-6.81-2.83-6.81-6.97s2.91-6.94,6.81-6.94c2.18,0,4.06.94,5.2,2.7v-8.22h1.85Zm-1.82,12.45c0-3.2-2.18-5.33-5.07-5.33s-5.1,2.13-5.1,5.33,2.18,5.33,5.1,5.33,5.07-2.13,5.07-5.33Z"/>
    <path class="cls-7" d="m668.25,262.03h-11.44c.21,2.86,2.39,4.76,5.38,4.76,1.66,0,3.15-.6,4.19-1.79l1.04,1.2c-1.22,1.46-3.12,2.24-5.28,2.24-4.26,0-7.18-2.91-7.18-6.97s2.83-6.94,6.68-6.94,6.63,2.83,6.63,6.94c0,.16-.03.36-.03.57Zm-11.44-1.38h9.7c-.23-2.68-2.18-4.55-4.86-4.55s-4.6,1.87-4.84,4.55Z"/>
    <path class="cls-7" d="m678.94,254.52v1.79c-.16,0-.31-.03-.44-.03-2.86,0-4.6,1.82-4.6,5.04v6.97h-1.85v-13.68h1.77v2.68c.86-1.82,2.6-2.78,5.12-2.78Z"/>
    <path class="cls-7" d="m692.56,259.82v8.48h-1.77v-2.13c-.83,1.4-2.44,2.26-4.71,2.26-3.09,0-4.99-1.61-4.99-3.98,0-2.11,1.35-3.87,5.28-3.87h4.34v-.83c0-2.34-1.33-3.61-3.87-3.61-1.77,0-3.43.62-4.55,1.61l-.83-1.38c1.38-1.17,3.41-1.85,5.56-1.85,3.54,0,5.54,1.77,5.54,5.3Zm-1.85,4.37v-2.24h-4.29c-2.65,0-3.51,1.04-3.51,2.44,0,1.59,1.27,2.57,3.46,2.57s3.61-.99,4.34-2.78Z"/>
    <path class="cls-7" d="m697.58,249.01h1.85v19.29h-1.85v-19.29Z"/>
    <path class="cls-7" d="m722.31,262.03h-11.44c.21,2.86,2.39,4.76,5.38,4.76,1.66,0,3.15-.6,4.19-1.79l1.04,1.2c-1.22,1.46-3.12,2.24-5.28,2.24-4.26,0-7.18-2.91-7.18-6.97s2.83-6.94,6.68-6.94,6.63,2.83,6.63,6.94c0,.16-.03.36-.03.57Zm-11.44-1.38h9.7c-.23-2.68-2.18-4.55-4.86-4.55s-4.6,1.87-4.84,4.55Z"/>
    <path class="cls-7" d="m751.23,250.1v18.2h-1.85v-14.56l-7.15,12.25h-.91l-7.15-12.17v14.48h-1.85v-18.2h1.59l7.9,13.49,7.83-13.49h1.59Z"/>
    <path class="cls-7" d="m769.09,254.62v13.68h-1.77v-2.5c-.96,1.66-2.73,2.63-4.92,2.63-3.48,0-5.77-1.95-5.77-5.88v-7.93h1.85v7.75c0,2.91,1.51,4.39,4.11,4.39,2.86,0,4.65-1.85,4.65-4.97v-7.18h1.85Z"/>
    <path class="cls-7" d="m786.84,260.37v7.93h-1.85v-7.75c0-2.89-1.51-4.37-4.11-4.37-2.94,0-4.78,1.82-4.78,4.94v7.18h-1.85v-13.68h1.77v2.52c.99-1.66,2.83-2.63,5.2-2.63,3.33,0,5.62,1.92,5.62,5.85Z"/>
    <path class="cls-7" d="m791.45,250.31c0-.7.6-1.3,1.35-1.3s1.35.57,1.35,1.27c0,.75-.57,1.35-1.35,1.35s-1.35-.6-1.35-1.33Zm.42,4.32h1.85v13.68h-1.85v-13.68Z"/>
    <path class="cls-7" d="m797.48,261.46c0-4.08,2.96-6.94,7.05-6.94,2.31,0,4.26.91,5.36,2.7l-1.38.94c-.94-1.38-2.39-2.03-3.98-2.03-2.99,0-5.17,2.13-5.17,5.33s2.18,5.33,5.17,5.33c1.59,0,3.04-.62,3.98-2l1.38.94c-1.09,1.77-3.04,2.7-5.36,2.7-4.08,0-7.05-2.89-7.05-6.97Z"/>
    <path class="cls-7" d="m816.3,249.29h2.47l-4.21,3.22h-1.82l3.56-3.22Zm-2.81,5.33h1.85v13.68h-1.85v-13.68Z"/>
    <path class="cls-7" d="m834.35,261.46c0,4.16-2.91,6.97-6.81,6.97-2.18,0-4.06-.94-5.2-2.7v7.62h-1.85v-18.72h1.77v2.7c1.12-1.82,3.02-2.81,5.28-2.81,3.9,0,6.81,2.81,6.81,6.94Zm-1.85,0c0-3.17-2.21-5.33-5.1-5.33s-5.1,2.16-5.1,5.33,2.18,5.33,5.1,5.33,5.1-2.13,5.1-5.33Z"/>
    <path class="cls-7" d="m837.7,250.31c0-.7.6-1.3,1.35-1.3s1.35.57,1.35,1.27c0,.75-.57,1.35-1.35,1.35s-1.35-.6-1.35-1.33Zm.42,4.32h1.85v13.68h-1.85v-13.68Z"/>
    <path class="cls-7" d="m843.73,261.46c0-4.06,2.96-6.94,6.97-6.94s6.94,2.89,6.94,6.94-2.94,6.97-6.94,6.97-6.97-2.91-6.97-6.97Zm12.04,0c0-3.2-2.16-5.33-5.07-5.33s-5.1,2.13-5.1,5.33,2.18,5.33,5.1,5.33,5.07-2.13,5.07-5.33Z"/>
    <path class="cls-7" d="m859.51,266.74l.83-1.46c1.09.86,2.94,1.53,4.86,1.53,2.6,0,3.67-.88,3.67-2.24,0-3.56-8.87-.75-8.87-6.16,0-2.24,1.92-3.9,5.41-3.9,1.77,0,3.69.49,4.84,1.27l-.81,1.48c-1.2-.83-2.63-1.17-4.03-1.17-2.47,0-3.56.96-3.56,2.26,0,3.69,8.87.91,8.87,6.16,0,2.37-2.08,3.9-5.64,3.9-2.26,0-4.45-.73-5.56-1.69Z"/>
    <path class="cls-7" d="m878.06,266.74l.83-1.46c1.09.86,2.94,1.53,4.86,1.53,2.6,0,3.67-.88,3.67-2.24,0-3.56-8.87-.75-8.87-6.16,0-2.24,1.92-3.9,5.41-3.9,1.77,0,3.69.49,4.84,1.27l-.81,1.48c-1.2-.83-2.63-1.17-4.03-1.17-2.47,0-3.56.96-3.56,2.26,0,3.69,8.87.91,8.87,6.16,0,2.37-2.08,3.9-5.64,3.9-2.26,0-4.45-.73-5.56-1.69Z"/>
    <path class="cls-7" d="m891.29,261.46c0-4.06,2.96-6.94,6.97-6.94s6.94,2.89,6.94,6.94-2.94,6.97-6.94,6.97-6.97-2.91-6.97-6.97Zm12.04,0c0-3.2-2.16-5.33-5.07-5.33s-5.1,2.13-5.1,5.33,2.18,5.33,5.1,5.33,5.07-2.13,5.07-5.33Z"/>
    <path class="cls-7" d="m922.83,261.46c0,4.13-2.91,6.97-6.81,6.97-2.26,0-4.16-.99-5.28-2.83v2.7h-1.77v-19.29h1.85v8.22c1.14-1.77,3.02-2.7,5.2-2.7,3.9,0,6.81,2.81,6.81,6.94Zm-1.85,0c0-3.2-2.21-5.33-5.1-5.33s-5.1,2.13-5.1,5.33,2.18,5.33,5.1,5.33,5.1-2.13,5.1-5.33Z"/>
    <path class="cls-7" d="m933.49,254.52v1.79c-.16,0-.31-.03-.44-.03-2.86,0-4.6,1.82-4.6,5.04v6.97h-1.85v-13.68h1.77v2.68c.86-1.82,2.6-2.78,5.12-2.78Z"/>
    <path class="cls-7" d="m948.6,262.03h-11.44c.21,2.86,2.39,4.76,5.38,4.76,1.66,0,3.15-.6,4.19-1.79l1.04,1.2c-1.22,1.46-3.12,2.24-5.28,2.24-4.26,0-7.18-2.91-7.18-6.97s2.83-6.94,6.68-6.94,6.63,2.83,6.63,6.94c0,.16-.03.36-.03.57Zm-11.44-1.38h9.7c-.23-2.68-2.18-4.55-4.86-4.55s-4.6,1.87-4.84,4.55Z"/>
    <path class="cls-7" d="m968.54,259.82v8.48h-1.77v-2.13c-.83,1.4-2.44,2.26-4.71,2.26-3.09,0-4.99-1.61-4.99-3.98,0-2.11,1.35-3.87,5.28-3.87h4.34v-.83c0-2.34-1.33-3.61-3.87-3.61-1.77,0-3.43.62-4.55,1.61l-.83-1.38c1.38-1.17,3.41-1.85,5.56-1.85,3.54,0,5.54,1.77,5.54,5.3Zm-1.85,4.37v-2.24h-4.29c-2.65,0-3.51,1.04-3.51,2.44,0,1.59,1.27,2.57,3.46,2.57s3.61-.99,4.34-2.78Z"/>
    <path class="cls-7" d="m978.01,261.46c0-4.06,2.96-6.94,6.97-6.94s6.94,2.89,6.94,6.94-2.94,6.97-6.94,6.97-6.97-2.91-6.97-6.97Zm12.04,0c0-3.2-2.16-5.33-5.07-5.33s-5.1,2.13-5.1,5.33,2.18,5.33,5.1,5.33,5.07-2.13,5.07-5.33Z"/>
    <path class="cls-7" d="m1009.55,261.46c0,4.13-2.91,6.97-6.81,6.97-2.26,0-4.16-.99-5.28-2.83v2.7h-1.77v-19.29h1.85v8.22c1.14-1.77,3.02-2.7,5.2-2.7,3.9,0,6.81,2.81,6.81,6.94Zm-1.85,0c0-3.2-2.21-5.33-5.1-5.33s-5.1,2.13-5.1,5.33,2.18,5.33,5.1,5.33,5.1-2.13,5.1-5.33Z"/>
    <path class="cls-7" d="m1020.21,254.52v1.79c-.16,0-.31-.03-.44-.03-2.86,0-4.6,1.82-4.6,5.04v6.97h-1.85v-13.68h1.77v2.68c.86-1.82,2.6-2.78,5.12-2.78Z"/>
    <path class="cls-7" d="m1023.12,250.31c0-.7.6-1.3,1.35-1.3s1.35.57,1.35,1.27c0,.75-.57,1.35-1.35,1.35s-1.35-.6-1.35-1.33Zm.42,4.32h1.85v13.68h-1.85v-13.68Z"/>
    <path class="cls-7" d="m1043.19,254.62v12.01c0,4.71-2.31,6.84-6.84,6.84-2.5,0-4.94-.75-6.37-2.11l.94-1.4c1.3,1.17,3.28,1.87,5.38,1.87,3.46,0,5.04-1.59,5.04-4.97v-1.74c-1.14,1.74-3.09,2.65-5.33,2.65-3.9,0-6.86-2.73-6.86-6.66s2.96-6.6,6.86-6.6c2.29,0,4.26.94,5.41,2.73v-2.63h1.77Zm-1.79,6.5c0-2.96-2.18-4.99-5.2-4.99s-5.17,2.03-5.17,4.99,2.16,5.02,5.17,5.02,5.2-2.05,5.2-5.02Z"/>
    <path class="cls-7" d="m1058.69,259.82v8.48h-1.77v-2.13c-.83,1.4-2.44,2.26-4.71,2.26-3.09,0-4.99-1.61-4.99-3.98,0-2.11,1.35-3.87,5.28-3.87h4.34v-.83c0-2.34-1.33-3.61-3.87-3.61-1.77,0-3.43.62-4.55,1.61l-.83-1.38c1.38-1.17,3.41-1.85,5.56-1.85,3.54,0,5.54,1.77,5.54,5.3Zm-1.85,4.37v-2.24h-4.29c-2.65,0-3.51,1.04-3.51,2.44,0,1.59,1.27,2.57,3.46,2.57s3.61-.99,4.34-2.78Z"/>
    <path class="cls-7" d="m1070.91,267.47c-.73.65-1.82.96-2.89.96-2.57,0-4-1.46-4-3.98v-8.27h-2.44v-1.56h2.44v-2.99h1.85v2.99h4.16v1.56h-4.16v8.16c0,1.61.83,2.5,2.37,2.5.75,0,1.51-.23,2.03-.7l.65,1.33Z"/>
    <path class="cls-7" d="m1072.39,261.46c0-4.06,2.96-6.94,6.97-6.94s6.94,2.89,6.94,6.94-2.94,6.97-6.94,6.97-6.97-2.91-6.97-6.97Zm12.04,0c0-3.2-2.16-5.33-5.07-5.33s-5.1,2.13-5.1,5.33,2.18,5.33,5.1,5.33,5.07-2.13,5.07-5.33Z"/>
    <path class="cls-7" d="m1096.96,254.52v1.79c-.16,0-.31-.03-.44-.03-2.86,0-4.6,1.82-4.6,5.04v6.97h-1.85v-13.68h1.77v2.68c.86-1.82,2.6-2.78,5.12-2.78Z"/>
    <path class="cls-7" d="m1099.87,250.31c0-.7.6-1.3,1.35-1.3s1.35.57,1.35,1.27c0,.75-.57,1.35-1.35,1.35s-1.35-.6-1.35-1.33Zm.42,4.32h1.85v13.68h-1.85v-13.68Z"/>
    <path class="cls-7" d="m1119.19,262.03h-11.44c.21,2.86,2.39,4.76,5.38,4.76,1.66,0,3.15-.6,4.19-1.79l1.04,1.2c-1.22,1.46-3.12,2.24-5.28,2.24-4.26,0-7.18-2.91-7.18-6.97s2.83-6.94,6.68-6.94,6.63,2.83,6.63,6.94c0,.16-.03.36-.03.57Zm-11.44-1.38h9.7c-.23-2.68-2.18-4.55-4.86-4.55s-4.6,1.87-4.84,4.55Z"/>
    <path class="cls-7" d="m1135.47,249.01v19.29h-1.77v-2.7c-1.12,1.85-3.02,2.83-5.28,2.83-3.9,0-6.81-2.83-6.81-6.97s2.91-6.94,6.81-6.94c2.18,0,4.06.94,5.2,2.7v-8.22h1.85Zm-1.82,12.45c0-3.2-2.18-5.33-5.07-5.33s-5.1,2.13-5.1,5.33,2.18,5.33,5.1,5.33,5.07-2.13,5.07-5.33Z"/>
    <path class="cls-7" d="m1150.94,259.82v8.48h-1.77v-2.13c-.83,1.4-2.44,2.26-4.71,2.26-3.09,0-4.99-1.61-4.99-3.98,0-2.11,1.35-3.87,5.28-3.87h4.34v-.83c0-2.34-1.33-3.61-3.88-3.61-1.77,0-3.43.62-4.55,1.61l-.83-1.38c1.38-1.17,3.41-1.85,5.56-1.85,3.54,0,5.54,1.77,5.54,5.3Zm-1.85,4.37v-2.24h-4.29c-2.65,0-3.51,1.04-3.51,2.44,0,1.59,1.27,2.57,3.46,2.57s3.61-.99,4.34-2.78Z"/>
    <path class="cls-7" d="m1168.49,249.01v19.29h-1.77v-2.7c-1.12,1.85-3.02,2.83-5.28,2.83-3.9,0-6.81-2.83-6.81-6.97s2.91-6.94,6.81-6.94c2.18,0,4.06.94,5.2,2.7v-8.22h1.85Zm-1.82,12.45c0-3.2-2.18-5.33-5.07-5.33s-5.1,2.13-5.1,5.33,2.18,5.33,5.1,5.33,5.07-2.13,5.07-5.33Z"/>
    <path class="cls-7" d="m1185.54,262.03h-11.44c.21,2.86,2.39,4.76,5.38,4.76,1.66,0,3.15-.6,4.19-1.79l1.04,1.2c-1.22,1.46-3.12,2.24-5.28,2.24-4.26,0-7.18-2.91-7.18-6.97s2.83-6.94,6.68-6.94,6.63,2.83,6.63,6.94c0,.16-.03.36-.03.57Zm-11.44-1.38h9.7c-.23-2.68-2.18-4.55-4.86-4.55s-4.6,1.87-4.84,4.55Z"/>
    <path class="cls-7" d="m1207.65,249.01v19.29h-1.77v-2.7c-1.12,1.85-3.02,2.83-5.28,2.83-3.9,0-6.81-2.83-6.81-6.97s2.91-6.94,6.81-6.94c2.18,0,4.06.94,5.2,2.7v-8.22h1.85Zm-1.82,12.45c0-3.2-2.18-5.33-5.07-5.33s-5.1,2.13-5.1,5.33,2.18,5.33,5.1,5.33,5.07-2.13,5.07-5.33Z"/>
    <path class="cls-7" d="m1224.7,262.03h-11.44c.21,2.86,2.39,4.76,5.38,4.76,1.66,0,3.15-.6,4.19-1.79l1.04,1.2c-1.22,1.46-3.12,2.24-5.28,2.24-4.26,0-7.18-2.91-7.18-6.97s2.83-6.94,6.68-6.94,6.63,2.83,6.63,6.94c0,.16-.03.36-.03.57Zm-11.44-1.38h9.7c-.23-2.68-2.18-4.55-4.86-4.55s-4.6,1.87-4.84,4.55Z"/>
    <path class="cls-7" d="m1241.22,254.52v1.79c-.16,0-.31-.03-.44-.03-2.86,0-4.6,1.82-4.6,5.04v6.97h-1.85v-13.68h1.77v2.68c.86-1.82,2.6-2.78,5.12-2.78Z"/>
    <path class="cls-7" d="m1256.32,262.03h-11.44c.21,2.86,2.39,4.76,5.38,4.76,1.66,0,3.15-.6,4.19-1.79l1.04,1.2c-1.22,1.46-3.12,2.24-5.28,2.24-4.26,0-7.18-2.91-7.18-6.97s2.83-6.94,6.68-6.94,6.63,2.83,6.63,6.94c0,.16-.03.36-.03.57Zm-11.44-1.38h9.7c-.23-2.68-2.18-4.55-4.86-4.55s-4.6,1.87-4.84,4.55Z"/>
    <path class="cls-7" d="m1270.05,259.82v8.48h-1.77v-2.13c-.83,1.4-2.44,2.26-4.71,2.26-3.09,0-4.99-1.61-4.99-3.98,0-2.11,1.35-3.87,5.28-3.87h4.34v-.83c0-2.34-1.33-3.61-3.88-3.61-1.77,0-3.43.62-4.55,1.61l-.83-1.38c1.38-1.17,3.41-1.85,5.56-1.85,3.54,0,5.54,1.77,5.54,5.3Zm-1.85,4.37v-2.24h-4.29c-2.65,0-3.51,1.04-3.51,2.44,0,1.59,1.27,2.57,3.46,2.57s3.61-.99,4.34-2.78Z"/>
    <path class="cls-7" d="m1275.07,249.01h1.85v19.29h-1.85v-19.29Z"/>
    <path class="cls-7" d="m1281.65,250.31c0-.7.6-1.3,1.35-1.3s1.35.57,1.35,1.27c0,.75-.57,1.35-1.35,1.35s-1.35-.6-1.35-1.33Zm.42,4.32h1.85v13.68h-1.85v-13.68Z"/>
    <path class="cls-7" d="m1298.7,266.76v1.53h-11.13v-1.22l8.61-10.89h-8.45v-1.56h10.82v1.22l-8.61,10.92h8.76Z"/>
    <path class="cls-7" d="m1312.66,259.82v8.48h-1.77v-2.13c-.83,1.4-2.44,2.26-4.71,2.26-3.09,0-4.99-1.61-4.99-3.98,0-2.11,1.35-3.87,5.28-3.87h4.34v-.83c0-2.34-1.33-3.61-3.88-3.61-1.77,0-3.43.62-4.55,1.61l-.83-1.38c1.38-1.17,3.41-1.85,5.56-1.85,3.54,0,5.54,1.77,5.54,5.3Zm-1.85,4.37v-2.24h-4.29c-2.65,0-3.51,1.04-3.51,2.44,0,1.59,1.27,2.57,3.46,2.57s3.61-.99,4.34-2.78Z"/>
    <path class="cls-7" d="m1327.38,264.79l1.38.94c-1.09,1.77-3.04,2.7-5.36,2.7h-.05l-.31,1.22c1.43.13,2.21.96,2.21,2.11,0,1.4-1.2,2.26-2.94,2.26-.86,0-1.56-.18-2.18-.6l.44-.99c.52.34,1.09.49,1.72.49,1.04,0,1.61-.44,1.61-1.22,0-.7-.52-1.2-1.61-1.2h-.6l.57-2.16c-3.48-.49-5.9-3.2-5.9-6.89,0-4.08,2.96-6.94,7.05-6.94,2.31,0,4.26.91,5.36,2.7l-1.38.94c-.94-1.38-2.39-2.03-3.98-2.03-2.99,0-5.17,2.13-5.17,5.33s2.18,5.33,5.17,5.33c1.59,0,3.04-.62,3.98-2Z"/>
    <path class="cls-7" d="m1342.69,259.82v8.48h-1.77v-2.13c-.83,1.4-2.44,2.26-4.71,2.26-3.09,0-4.99-1.61-4.99-3.98,0-2.11,1.35-3.87,5.28-3.87h4.34v-.83c0-2.34-1.33-3.61-3.88-3.61-1.77,0-3.43.62-4.55,1.61l-.83-1.38c1.38-1.17,3.41-1.85,5.56-1.85,3.54,0,5.54,1.77,5.54,5.3Zm-1.85,4.37v-2.24h-4.29c-2.65,0-3.51,1.04-3.51,2.44,0,1.59,1.27,2.57,3.46,2.57s3.61-.99,4.34-2.78Zm-6.63-11.93h-1.12c.05-1.74.96-2.86,2.34-2.86,1.61,0,2.39,1.77,3.41,1.77.78,0,1.3-.62,1.35-1.61h1.12c-.05,1.69-.96,2.81-2.34,2.81-1.61,0-2.37-1.77-3.41-1.77-.78,0-1.3.62-1.35,1.66Z"/>
    <path class="cls-7" d="m1346.39,261.46c0-4.06,2.96-6.94,6.97-6.94s6.94,2.89,6.94,6.94-2.94,6.97-6.94,6.97-6.97-2.91-6.97-6.97Zm12.04,0c0-3.2-2.16-5.33-5.07-5.33s-5.1,2.13-5.1,5.33,2.18,5.33,5.1,5.33,5.07-2.13,5.07-5.33Z"/>
    <path class="cls-7" d="m1382.37,249.01v19.29h-1.77v-2.7c-1.12,1.85-3.02,2.83-5.28,2.83-3.9,0-6.81-2.83-6.81-6.97s2.91-6.94,6.81-6.94c2.18,0,4.06.94,5.2,2.7v-8.22h1.85Zm-1.82,12.45c0-3.2-2.18-5.33-5.07-5.33s-5.1,2.13-5.1,5.33,2.18,5.33,5.1,5.33,5.07-2.13,5.07-5.33Z"/>
    <path class="cls-7" d="m1399.43,262.03h-11.44c.21,2.86,2.39,4.76,5.38,4.76,1.66,0,3.15-.6,4.19-1.79l1.04,1.2c-1.22,1.46-3.12,2.24-5.28,2.24-4.26,0-7.18-2.91-7.18-6.97s2.83-6.94,6.68-6.94,6.63,2.83,6.63,6.94c0,.16-.03.36-.03.57Zm-11.44-1.38h9.7c-.23-2.68-2.18-4.55-4.86-4.55s-4.6,1.87-4.84,4.55Z"/>
    <path class="cls-7" d="m191.24,308.64h-10.14l-2.18,4.86h-2l8.32-18.2h1.9l8.32,18.2h-2.03l-2.18-4.86Zm-.7-1.56l-4.37-9.78-4.37,9.78h8.74Z"/>
    <path class="cls-7" d="m198.46,295.3h1.92v18.2h-1.92v-18.2Z"/>
    <path class="cls-7" d="m221.52,295.3v18.2h-1.59l-11.7-14.77v14.77h-1.92v-18.2h1.59l11.73,14.77v-14.77h1.9Z"/>
    <path class="cls-7" d="m246.14,307.23h-11.44c.21,2.86,2.39,4.76,5.38,4.76,1.66,0,3.15-.6,4.19-1.79l1.04,1.2c-1.22,1.46-3.12,2.24-5.28,2.24-4.26,0-7.18-2.91-7.18-6.97s2.83-6.94,6.68-6.94,6.63,2.83,6.63,6.94c0,.16-.03.36-.03.57Zm-11.44-1.38h9.7c-.23-2.68-2.18-4.55-4.86-4.55s-4.6,1.87-4.84,4.55Z"/>
    <path class="cls-7" d="m272.51,305.57v7.93h-1.85v-7.75c0-2.89-1.46-4.37-3.93-4.37-2.81,0-4.58,1.82-4.58,4.94v7.18h-1.85v-7.75c0-2.89-1.46-4.37-3.95-4.37-2.78,0-4.58,1.82-4.58,4.94v7.18h-1.85v-13.68h1.77v2.5c.96-1.64,2.73-2.6,5.02-2.6s4.03.96,4.86,2.89c.99-1.77,2.94-2.89,5.41-2.89,3.33,0,5.51,1.92,5.51,5.85Z"/>
    <path class="cls-7" d="m282.8,311.94l.83-1.46c1.09.86,2.94,1.53,4.86,1.53,2.6,0,3.67-.88,3.67-2.24,0-3.56-8.87-.75-8.87-6.16,0-2.24,1.92-3.9,5.41-3.9,1.77,0,3.69.49,4.84,1.27l-.81,1.48c-1.2-.83-2.63-1.17-4.03-1.17-2.47,0-3.56.96-3.56,2.26,0,3.69,8.87.91,8.87,6.16,0,2.37-2.08,3.9-5.64,3.9-2.26,0-4.45-.73-5.56-1.69Z"/>
    <path class="cls-7" d="m307.73,305.02v8.48h-1.77v-2.13c-.83,1.4-2.44,2.26-4.71,2.26-3.09,0-4.99-1.61-4.99-3.98,0-2.11,1.35-3.87,5.28-3.87h4.34v-.83c0-2.34-1.33-3.61-3.88-3.61-1.77,0-3.43.62-4.55,1.61l-.83-1.38c1.38-1.17,3.41-1.85,5.56-1.85,3.54,0,5.54,1.77,5.54,5.3Zm-1.85,4.37v-2.24h-4.29c-2.65,0-3.51,1.04-3.51,2.44,0,1.59,1.27,2.57,3.46,2.57s3.61-.99,4.34-2.78Z"/>
    <path class="cls-7" d="m325.08,299.82v13.68h-1.77v-2.5c-.96,1.66-2.73,2.63-4.91,2.63-3.48,0-5.77-1.95-5.77-5.88v-7.93h1.85v7.75c0,2.91,1.51,4.39,4.11,4.39,2.86,0,4.65-1.85,4.65-4.97v-7.18h1.85Zm-6.08-2.11h-1.82l3.56-3.22h2.47l-4.21,3.22Z"/>
    <path class="cls-7" d="m342.73,294.21v19.29h-1.77v-2.7c-1.12,1.85-3.02,2.83-5.28,2.83-3.9,0-6.81-2.83-6.81-6.97s2.91-6.94,6.81-6.94c2.18,0,4.06.94,5.2,2.7v-8.22h1.85Zm-1.82,12.45c0-3.2-2.18-5.33-5.07-5.33s-5.1,2.13-5.1,5.33,2.18,5.33,5.1,5.33,5.07-2.13,5.07-5.33Z"/>
    <path class="cls-7" d="m359.79,307.23h-11.44c.21,2.86,2.39,4.76,5.38,4.76,1.66,0,3.15-.6,4.19-1.79l1.04,1.2c-1.22,1.46-3.12,2.24-5.28,2.24-4.26,0-7.18-2.91-7.18-6.97s2.83-6.94,6.68-6.94,6.63,2.83,6.63,6.94c0,.16-.03.36-.03.57Zm-11.44-1.38h9.7c-.23-2.68-2.18-4.55-4.86-4.55s-4.6,1.87-4.84,4.55Z"/>
    <path class="cls-7" d="m362.39,312.2c0-.81.62-1.4,1.38-1.4s1.4.6,1.4,1.4-.65,1.43-1.4,1.43-1.38-.62-1.38-1.43Z"/>
    <path class="cls-7" d="m376.66,295.3h7.41c5.82,0,9.75,3.74,9.75,9.1s-3.93,9.1-9.75,9.1h-7.41v-18.2Zm7.31,16.54c4.84,0,7.96-3.07,7.96-7.44s-3.12-7.44-7.96-7.44h-5.38v14.87h5.38Z"/>
    <path class="cls-7" d="m409.65,307.23h-11.44c.21,2.86,2.39,4.76,5.38,4.76,1.66,0,3.15-.6,4.19-1.79l1.04,1.2c-1.22,1.46-3.12,2.24-5.28,2.24-4.26,0-7.18-2.91-7.18-6.97s2.83-6.94,6.68-6.94,6.63,2.83,6.63,6.94c0,.16-.03.36-.03.57Zm-11.44-1.38h9.7c-.23-2.68-2.18-4.55-4.86-4.55s-4.6,1.87-4.84,4.55Z"/>
    <path class="cls-7" d="m411.55,311.94l.83-1.46c1.09.86,2.94,1.53,4.86,1.53,2.6,0,3.67-.88,3.67-2.24,0-3.56-8.87-.75-8.87-6.16,0-2.24,1.92-3.9,5.41-3.9,1.77,0,3.69.49,4.84,1.27l-.81,1.48c-1.2-.83-2.63-1.17-4.03-1.17-2.47,0-3.56.96-3.56,2.26,0,3.69,8.87.91,8.87,6.16,0,2.37-2.08,3.9-5.64,3.9-2.26,0-4.45-.73-5.56-1.69Z"/>
    <path class="cls-7" d="m424.26,311.94l.83-1.46c1.09.86,2.94,1.53,4.86,1.53,2.6,0,3.67-.88,3.67-2.24,0-3.56-8.87-.75-8.87-6.16,0-2.24,1.92-3.9,5.41-3.9,1.77,0,3.69.49,4.84,1.27l-.81,1.48c-1.2-.83-2.63-1.17-4.03-1.17-2.47,0-3.56.96-3.56,2.26,0,3.69,8.87.91,8.87,6.16,0,2.37-2.08,3.9-5.64,3.9-2.26,0-4.45-.73-5.56-1.69Z"/>
    <path class="cls-7" d="m450.78,307.23h-11.44c.21,2.86,2.39,4.76,5.38,4.76,1.66,0,3.15-.6,4.19-1.79l1.04,1.2c-1.22,1.46-3.12,2.24-5.28,2.24-4.26,0-7.18-2.91-7.18-6.97s2.83-6.94,6.68-6.94,6.63,2.83,6.63,6.94c0,.16-.03.36-.03.57Zm-11.44-1.38h9.7c-.23-2.68-2.18-4.55-4.86-4.55s-4.6,1.87-4.84,4.55Z"/>
    <path class="cls-7" d="m484.32,305.57v7.93h-1.85v-7.75c0-2.89-1.46-4.37-3.93-4.37-2.81,0-4.58,1.82-4.58,4.94v7.18h-1.85v-7.75c0-2.89-1.46-4.37-3.95-4.37-2.78,0-4.58,1.82-4.58,4.94v7.18h-1.85v-13.68h1.77v2.5c.96-1.64,2.73-2.6,5.02-2.6s4.03.96,4.86,2.89c.99-1.77,2.94-2.89,5.41-2.89,3.33,0,5.51,1.92,5.51,5.85Z"/>
    <path class="cls-7" d="m488.01,306.66c0-4.06,2.96-6.94,6.97-6.94s6.94,2.89,6.94,6.94-2.94,6.97-6.94,6.97-6.97-2.91-6.97-6.97Zm12.04,0c0-3.2-2.16-5.33-5.07-5.33s-5.1,2.13-5.1,5.33,2.18,5.33,5.1,5.33,5.07-2.13,5.07-5.33Z"/>
    <path class="cls-7" d="m518.17,294.21v19.29h-1.77v-2.7c-1.12,1.85-3.02,2.83-5.28,2.83-3.9,0-6.81-2.83-6.81-6.97s2.91-6.94,6.81-6.94c2.18,0,4.06.94,5.2,2.7v-8.22h1.85Zm-1.82,12.45c0-3.2-2.18-5.33-5.07-5.33s-5.1,2.13-5.1,5.33,2.18,5.33,5.1,5.33,5.07-2.13,5.07-5.33Z"/>
    <path class="cls-7" d="m521.94,306.66c0-4.06,2.96-6.94,6.97-6.94s6.94,2.89,6.94,6.94-2.94,6.97-6.94,6.97-6.97-2.91-6.97-6.97Zm12.04,0c0-3.2-2.16-5.33-5.07-5.33s-5.1,2.13-5.1,5.33,2.18,5.33,5.1,5.33,5.07-2.13,5.07-5.33Z"/>
    <path class="cls-7" d="m540.82,312.2c0,.44-.1.78-.36,1.51l-1.09,3.59h-1.25l.88-3.77c-.55-.16-.94-.65-.94-1.33,0-.81.6-1.4,1.38-1.4s1.38.62,1.38,1.4Z"/>
    <path class="cls-7" d="m550.54,306.66c0-4.08,2.96-6.94,7.05-6.94,2.31,0,4.26.91,5.36,2.7l-1.38.94c-.94-1.38-2.39-2.03-3.98-2.03-2.99,0-5.17,2.13-5.17,5.33s2.18,5.33,5.17,5.33c1.59,0,3.04-.62,3.98-2l1.38.94c-1.09,1.77-3.04,2.7-5.36,2.7-4.08,0-7.05-2.89-7.05-6.97Z"/>
    <path class="cls-7" d="m576.88,305.02v8.48h-1.77v-2.13c-.83,1.4-2.44,2.26-4.71,2.26-3.09,0-4.99-1.61-4.99-3.98,0-2.11,1.35-3.87,5.28-3.87h4.34v-.83c0-2.34-1.33-3.61-3.87-3.61-1.77,0-3.43.62-4.55,1.61l-.83-1.38c1.38-1.17,3.41-1.85,5.56-1.85,3.54,0,5.54,1.77,5.54,5.3Zm-1.85,4.37v-2.24h-4.29c-2.65,0-3.51,1.04-3.51,2.44,0,1.59,1.27,2.57,3.46,2.57s3.61-.99,4.34-2.78Z"/>
    <path class="cls-7" d="m595.75,306.66c0,4.13-2.91,6.97-6.81,6.97-2.26,0-4.16-.99-5.28-2.83v2.7h-1.77v-19.29h1.85v8.22c1.14-1.77,3.02-2.7,5.2-2.7,3.9,0,6.81,2.81,6.81,6.94Zm-1.85,0c0-3.2-2.21-5.33-5.1-5.33s-5.1,2.13-5.1,5.33,2.18,5.33,5.1,5.33,5.1-2.13,5.1-5.33Z"/>
    <path class="cls-7" d="m611.43,307.23h-11.44c.21,2.86,2.39,4.76,5.38,4.76,1.66,0,3.15-.6,4.19-1.79l1.04,1.2c-1.22,1.46-3.12,2.24-5.28,2.24-4.26,0-7.18-2.91-7.18-6.97s2.83-6.94,6.68-6.94,6.63,2.83,6.63,6.94c0,.16-.03.36-.03.57Zm-11.44-1.38h9.7c-.23-2.68-2.18-4.55-4.86-4.55s-4.6,1.87-4.84,4.55Z"/>
    <path class="cls-7" d="m632.72,305.02v8.48h-1.77v-2.13c-.83,1.4-2.44,2.26-4.71,2.26-3.09,0-4.99-1.61-4.99-3.98,0-2.11,1.35-3.87,5.28-3.87h4.34v-.83c0-2.34-1.33-3.61-3.88-3.61-1.77,0-3.43.62-4.55,1.61l-.83-1.38c1.38-1.17,3.41-1.85,5.56-1.85,3.54,0,5.54,1.77,5.54,5.3Zm-1.85,4.37v-2.24h-4.29c-2.65,0-3.51,1.04-3.51,2.44,0,1.59,1.27,2.57,3.46,2.57s3.61-.99,4.34-2.78Z"/>
    <path class="cls-7" d="m643.53,306.66c0-4.08,2.96-6.94,7.05-6.94,2.31,0,4.26.91,5.36,2.7l-1.38.94c-.94-1.38-2.39-2.03-3.98-2.03-2.99,0-5.17,2.13-5.17,5.33s2.18,5.33,5.17,5.33c1.59,0,3.04-.62,3.98-2l1.38.94c-1.09,1.77-3.04,2.7-5.36,2.7-4.08,0-7.05-2.89-7.05-6.97Z"/>
    <path class="cls-7" d="m669.87,305.02v8.48h-1.77v-2.13c-.83,1.4-2.44,2.26-4.71,2.26-3.09,0-4.99-1.61-4.99-3.98,0-2.11,1.35-3.87,5.28-3.87h4.34v-.83c0-2.34-1.33-3.61-3.87-3.61-1.77,0-3.43.62-4.55,1.61l-.83-1.38c1.38-1.17,3.41-1.85,5.56-1.85,3.54,0,5.54,1.77,5.54,5.3Zm-1.85,4.37v-2.24h-4.29c-2.65,0-3.51,1.04-3.51,2.44,0,1.59,1.27,2.57,3.46,2.57s3.61-.99,4.34-2.78Z"/>
    <path class="cls-7" d="m687.42,294.21v19.29h-1.77v-2.7c-1.12,1.85-3.02,2.83-5.28,2.83-3.9,0-6.81-2.83-6.81-6.97s2.91-6.94,6.81-6.94c2.18,0,4.06.94,5.2,2.7v-8.22h1.85Zm-1.82,12.45c0-3.2-2.18-5.33-5.07-5.33s-5.1,2.13-5.1,5.33,2.18,5.33,5.1,5.33,5.07-2.13,5.07-5.33Z"/>
    <path class="cls-7" d="m702.89,305.02v8.48h-1.77v-2.13c-.83,1.4-2.44,2.26-4.71,2.26-3.09,0-4.99-1.61-4.99-3.98,0-2.11,1.35-3.87,5.28-3.87h4.34v-.83c0-2.34-1.33-3.61-3.87-3.61-1.77,0-3.43.62-4.55,1.61l-.83-1.38c1.38-1.17,3.41-1.85,5.56-1.85,3.54,0,5.54,1.77,5.54,5.3Zm-1.85,4.37v-2.24h-4.29c-2.65,0-3.51,1.04-3.51,2.44,0,1.59,1.27,2.57,3.46,2.57s3.61-.99,4.34-2.78Z"/>
    <path class="cls-7" d="m727.41,299.82v13.68h-1.77v-2.5c-.96,1.66-2.73,2.63-4.91,2.63-3.48,0-5.77-1.95-5.77-5.88v-7.93h1.85v7.75c0,2.91,1.51,4.39,4.11,4.39,2.86,0,4.65-1.85,4.65-4.97v-7.18h1.85Z"/>
    <path class="cls-7" d="m755.15,305.57v7.93h-1.85v-7.75c0-2.89-1.46-4.37-3.93-4.37-2.81,0-4.58,1.82-4.58,4.94v7.18h-1.85v-7.75c0-2.89-1.46-4.37-3.95-4.37-2.78,0-4.58,1.82-4.58,4.94v7.18h-1.85v-13.68h1.77v2.5c.96-1.64,2.73-2.6,5.02-2.6s4.03.96,4.86,2.89c.99-1.77,2.94-2.89,5.41-2.89,3.33,0,5.51,1.92,5.51,5.85Z"/>
    <path class="cls-7" d="m779.82,294.21v19.29h-1.77v-2.7c-1.12,1.85-3.02,2.83-5.28,2.83-3.9,0-6.81-2.83-6.81-6.97s2.91-6.94,6.81-6.94c2.18,0,4.06.94,5.2,2.7v-8.22h1.85Zm-1.82,12.45c0-3.2-2.18-5.33-5.07-5.33s-5.1,2.13-5.1,5.33,2.18,5.33,5.1,5.33,5.07-2.13,5.07-5.33Z"/>
    <path class="cls-7" d="m783.59,306.66c0-4.06,2.96-6.94,6.97-6.94s6.94,2.89,6.94,6.94-2.94,6.97-6.94,6.97-6.97-2.91-6.97-6.97Zm12.04,0c0-3.2-2.16-5.33-5.07-5.33s-5.1,2.13-5.1,5.33,2.18,5.33,5.1,5.33,5.07-2.13,5.07-5.33Z"/>
    <path class="cls-7" d="m799.37,311.94l.83-1.46c1.09.86,2.94,1.53,4.86,1.53,2.6,0,3.67-.88,3.67-2.24,0-3.56-8.87-.75-8.87-6.16,0-2.24,1.92-3.9,5.41-3.9,1.77,0,3.69.49,4.84,1.27l-.81,1.48c-1.2-.83-2.63-1.17-4.03-1.17-2.47,0-3.56.96-3.56,2.26,0,3.69,8.87.91,8.87,6.16,0,2.37-2.08,3.9-5.64,3.9-2.26,0-4.45-.73-5.56-1.69Z"/>
    <path class="cls-7" d="m833.06,307.23h-11.44c.21,2.86,2.39,4.76,5.38,4.76,1.66,0,3.15-.6,4.19-1.79l1.04,1.2c-1.22,1.46-3.12,2.24-5.28,2.24-4.26,0-7.18-2.91-7.18-6.97s2.83-6.94,6.68-6.94,6.63,2.83,6.63,6.94c0,.16-.03.36-.03.57Zm-11.44-1.38h9.7c-.23-2.68-2.18-4.55-4.86-4.55s-4.6,1.87-4.84,4.55Z"/>
    <path class="cls-7" d="m849.44,305.57v7.93h-1.85v-7.75c0-2.89-1.51-4.37-4.11-4.37-2.94,0-4.78,1.82-4.78,4.94v7.18h-1.85v-13.68h1.77v2.52c.99-1.66,2.83-2.63,5.2-2.63,3.33,0,5.62,1.92,5.62,5.85Z"/>
    <path class="cls-7" d="m861.66,312.67c-.73.65-1.82.96-2.89.96-2.57,0-4-1.46-4-3.98v-8.27h-2.44v-1.56h2.44v-2.99h1.85v2.99h4.16v1.56h-4.16v8.16c0,1.61.83,2.5,2.37,2.5.75,0,1.51-.23,2.03-.7l.65,1.33Z"/>
    <path class="cls-7" d="m876.43,307.23h-11.44c.21,2.86,2.39,4.76,5.38,4.76,1.66,0,3.15-.6,4.19-1.79l1.04,1.2c-1.22,1.46-3.12,2.24-5.28,2.24-4.26,0-7.18-2.91-7.18-6.97s2.83-6.94,6.68-6.94,6.63,2.83,6.63,6.94c0,.16-.03.36-.03.57Zm-11.44-1.38h9.7c-.23-2.68-2.18-4.55-4.86-4.55s-4.6,1.87-4.84,4.55Z"/>
    <path class="cls-7" d="m878.33,311.94l.83-1.46c1.09.86,2.94,1.53,4.86,1.53,2.6,0,3.67-.88,3.67-2.24,0-3.56-8.87-.75-8.87-6.16,0-2.24,1.92-3.9,5.41-3.9,1.77,0,3.69.49,4.84,1.27l-.81,1.48c-1.2-.83-2.63-1.17-4.03-1.17-2.47,0-3.56.96-3.56,2.26,0,3.69,8.87.91,8.87,6.16,0,2.37-2.08,3.9-5.64,3.9-2.26,0-4.45-.73-5.56-1.69Z"/>
    <path class="cls-7" d="m902.22,298.21v1.61h4.21v1.56h-4.16v12.12h-1.85v-12.12h-2.44v-1.56h2.44v-1.69c0-2.44,1.46-4.06,4.13-4.06,1.01,0,2.05.29,2.73.86l-.62,1.38c-.52-.44-1.25-.68-2.03-.68-1.59,0-2.42.88-2.42,2.57Z"/>
    <path class="cls-7" d="m920.6,307.23h-11.44c.21,2.86,2.39,4.76,5.38,4.76,1.66,0,3.15-.6,4.19-1.79l1.04,1.2c-1.22,1.46-3.12,2.24-5.28,2.24-4.26,0-7.18-2.91-7.18-6.97s2.83-6.94,6.68-6.94,6.63,2.83,6.63,6.94c0,.16-.03.36-.03.57Zm-11.44-1.38h9.7c-.23-2.68-2.18-4.55-4.86-4.55s-4.6,1.87-4.84,4.55Z"/>
    <path class="cls-7" d="m936.88,294.21v19.29h-1.77v-2.7c-1.12,1.85-3.02,2.83-5.28,2.83-3.9,0-6.81-2.83-6.81-6.97s2.91-6.94,6.81-6.94c2.18,0,4.06.94,5.2,2.7v-8.22h1.85Zm-1.82,12.45c0-3.2-2.18-5.33-5.07-5.33s-5.1,2.13-5.1,5.33,2.18,5.33,5.1,5.33,5.07-2.13,5.07-5.33Z"/>
    <path class="cls-7" d="m953.93,307.23h-11.44c.21,2.86,2.39,4.76,5.38,4.76,1.66,0,3.15-.6,4.19-1.79l1.04,1.2c-1.22,1.46-3.12,2.24-5.28,2.24-4.26,0-7.18-2.91-7.18-6.97s2.83-6.94,6.68-6.94,6.63,2.83,6.63,6.94c0,.16-.03.36-.03.57Zm-11.44-1.38h9.7c-.23-2.68-2.18-4.55-4.86-4.55s-4.6,1.87-4.84,4.55Z"/>
    <path class="cls-7" d="m964.62,299.72v1.79c-.16,0-.31-.03-.44-.03-2.86,0-4.6,1.82-4.6,5.04v6.97h-1.85v-13.68h1.77v2.68c.86-1.82,2.6-2.78,5.12-2.78Z"/>
    <path class="cls-7" d="m978.25,305.02v8.48h-1.77v-2.13c-.83,1.4-2.44,2.26-4.71,2.26-3.09,0-4.99-1.61-4.99-3.98,0-2.11,1.35-3.87,5.28-3.87h4.34v-.83c0-2.34-1.33-3.61-3.87-3.61-1.77,0-3.43.62-4.55,1.61l-.83-1.38c1.38-1.17,3.41-1.85,5.56-1.85,3.54,0,5.54,1.77,5.54,5.3Zm-1.85,4.37v-2.24h-4.29c-2.65,0-3.51,1.04-3.51,2.44,0,1.59,1.27,2.57,3.46,2.57s3.61-.99,4.34-2.78Z"/>
    <path class="cls-7" d="m990.46,312.67c-.73.65-1.82.96-2.89.96-2.57,0-4-1.46-4-3.98v-8.27h-2.44v-1.56h2.44v-2.99h1.85v2.99h4.16v1.56h-4.16v8.16c0,1.61.83,2.5,2.37,2.5.75,0,1.51-.23,2.03-.7l.65,1.33Z"/>
    <path class="cls-7" d="m993.4,295.51c0-.7.6-1.3,1.35-1.3s1.35.57,1.35,1.27c0,.75-.57,1.35-1.35,1.35s-1.35-.6-1.35-1.33Zm.42,4.32h1.85v13.68h-1.85v-13.68Z"/>
    <path class="cls-7" d="m1012.3,299.82l-6.08,13.68h-1.9l-6.06-13.68h1.92l5.12,11.65,5.17-11.65h1.82Z"/>
    <path class="cls-7" d="m1013.14,306.66c0-4.06,2.96-6.94,6.97-6.94s6.94,2.89,6.94,6.94-2.94,6.97-6.94,6.97-6.97-2.91-6.97-6.97Zm12.04,0c0-3.2-2.16-5.33-5.07-5.33s-5.1,2.13-5.1,5.33,2.18,5.33,5.1,5.33,5.07-2.13,5.07-5.33Z"/>
    <path class="cls-7" d="m1028.92,311.94l.83-1.46c1.09.86,2.94,1.53,4.86,1.53,2.6,0,3.67-.88,3.67-2.24,0-3.56-8.87-.75-8.87-6.16,0-2.24,1.92-3.9,5.41-3.9,1.77,0,3.69.49,4.84,1.27l-.81,1.48c-1.2-.83-2.63-1.17-4.03-1.17-2.47,0-3.56.96-3.56,2.26,0,3.69,8.87.91,8.87,6.16,0,2.37-2.08,3.9-5.64,3.9-2.26,0-4.45-.73-5.56-1.69Z"/>
    <path class="cls-7" d="m1063.18,294.21v19.29h-1.77v-2.7c-1.12,1.85-3.02,2.83-5.28,2.83-3.9,0-6.81-2.83-6.81-6.97s2.91-6.94,6.81-6.94c2.18,0,4.06.94,5.2,2.7v-8.22h1.85Zm-1.82,12.45c0-3.2-2.18-5.33-5.07-5.33s-5.1,2.13-5.1,5.33,2.18,5.33,5.1,5.33,5.07-2.13,5.07-5.33Z"/>
    <path class="cls-7" d="m1067.92,295.51c0-.7.6-1.3,1.35-1.3s1.35.57,1.35,1.27c0,.75-.57,1.35-1.35,1.35s-1.35-.6-1.35-1.33Zm.42,4.32h1.85v13.68h-1.85v-13.68Z"/>
    <path class="cls-7" d="m1073.43,311.94l.83-1.46c1.09.86,2.94,1.53,4.86,1.53,2.6,0,3.67-.88,3.67-2.24,0-3.56-8.87-.75-8.87-6.16,0-2.24,1.92-3.9,5.41-3.9,1.77,0,3.69.49,4.84,1.27l-.81,1.48c-1.2-.83-2.63-1.17-4.03-1.17-2.47,0-3.56.96-3.56,2.26,0,3.69,8.87.91,8.87,6.16,0,2.37-2.08,3.9-5.64,3.9-2.26,0-4.45-.73-5.56-1.69Z"/>
    <path class="cls-7" d="m1086.66,306.66c0-4.08,2.96-6.94,7.05-6.94,2.31,0,4.26.91,5.36,2.7l-1.38.94c-.94-1.38-2.39-2.03-3.98-2.03-2.99,0-5.17,2.13-5.17,5.33s2.18,5.33,5.17,5.33c1.59,0,3.04-.62,3.98-2l1.38.94c-1.09,1.77-3.04,2.7-5.36,2.7-4.08,0-7.05-2.89-7.05-6.97Z"/>
    <path class="cls-7" d="m1102.26,295.51c0-.7.6-1.3,1.35-1.3s1.35.57,1.35,1.27c0,.75-.57,1.35-1.35,1.35s-1.35-.6-1.35-1.33Zm.42,4.32h1.85v13.68h-1.85v-13.68Z"/>
    <path class="cls-7" d="m1123.53,306.66c0,4.16-2.91,6.97-6.81,6.97-2.18,0-4.06-.94-5.2-2.7v7.62h-1.85v-18.72h1.77v2.7c1.12-1.82,3.02-2.81,5.28-2.81,3.9,0,6.81,2.81,6.81,6.94Zm-1.85,0c0-3.17-2.21-5.33-5.1-5.33s-5.1,2.16-5.1,5.33,2.18,5.33,5.1,5.33,5.1-2.13,5.1-5.33Z"/>
    <path class="cls-7" d="m1127.3,294.21h1.85v19.29h-1.85v-19.29Z"/>
    <path class="cls-7" d="m1133.88,295.51c0-.7.6-1.3,1.35-1.3s1.35.57,1.35,1.27c0,.75-.57,1.35-1.35,1.35s-1.35-.6-1.35-1.33Zm.42,4.32h1.85v13.68h-1.85v-13.68Z"/>
    <path class="cls-7" d="m1153.87,305.57v7.93h-1.85v-7.75c0-2.89-1.51-4.37-4.11-4.37-2.94,0-4.78,1.82-4.78,4.94v7.18h-1.85v-13.68h1.77v2.52c.99-1.66,2.83-2.63,5.2-2.63,3.33,0,5.62,1.92,5.62,5.85Z"/>
    <path class="cls-7" d="m1169.21,305.02v8.48h-1.77v-2.13c-.83,1.4-2.44,2.26-4.71,2.26-3.09,0-4.99-1.61-4.99-3.98,0-2.11,1.35-3.87,5.28-3.87h4.34v-.83c0-2.34-1.33-3.61-3.88-3.61-1.77,0-3.43.62-4.55,1.61l-.83-1.38c1.38-1.17,3.41-1.85,5.56-1.85,3.54,0,5.54,1.77,5.54,5.3Zm-1.85,4.37v-2.24h-4.29c-2.65,0-3.51,1.04-3.51,2.44,0,1.59,1.27,2.57,3.46,2.57s3.61-.99,4.34-2.78Z"/>
    <path class="cls-7" d="m1181.12,299.72v1.79c-.16,0-.31-.03-.44-.03-2.86,0-4.6,1.82-4.6,5.04v6.97h-1.85v-13.68h1.77v2.68c.86-1.82,2.6-2.78,5.12-2.78Z"/>
    <path class="cls-7" d="m1205.69,306.66c0,4.16-2.91,6.97-6.81,6.97-2.18,0-4.06-.94-5.2-2.7v7.62h-1.85v-18.72h1.77v2.7c1.12-1.82,3.02-2.81,5.28-2.81,3.9,0,6.81,2.81,6.81,6.94Zm-1.85,0c0-3.17-2.21-5.33-5.1-5.33s-5.1,2.16-5.1,5.33,2.18,5.33,5.1,5.33,5.1-2.13,5.1-5.33Z"/>
    <path class="cls-7" d="m1208.08,306.66c0-4.06,2.96-6.94,6.97-6.94s6.94,2.89,6.94,6.94-2.94,6.97-6.94,6.97-6.97-2.91-6.97-6.97Zm12.04,0c0-3.2-2.16-5.33-5.07-5.33s-5.1,2.13-5.1,5.33,2.18,5.33,5.1,5.33,5.07-2.13,5.07-5.33Z"/>
    <path class="cls-7" d="m1232.65,299.72v1.79c-.16,0-.31-.03-.44-.03-2.86,0-4.6,1.82-4.6,5.04v6.97h-1.85v-13.68h1.77v2.68c.86-1.82,2.6-2.78,5.12-2.78Z"/>
    <path class="cls-7" d="m1265.92,305.57v7.93h-1.85v-7.75c0-2.89-1.46-4.37-3.93-4.37-2.81,0-4.58,1.82-4.58,4.94v7.18h-1.85v-7.75c0-2.89-1.46-4.37-3.95-4.37-2.78,0-4.58,1.82-4.58,4.94v7.18h-1.85v-13.68h1.77v2.5c.96-1.64,2.73-2.6,5.02-2.6s4.03.96,4.86,2.89c.99-1.77,2.94-2.89,5.41-2.89,3.33,0,5.51,1.92,5.51,5.85Z"/>
    <path class="cls-7" d="m1282.9,307.23h-11.44c.21,2.86,2.39,4.76,5.38,4.76,1.66,0,3.15-.6,4.19-1.79l1.04,1.2c-1.22,1.46-3.12,2.24-5.28,2.24-4.26,0-7.18-2.91-7.18-6.97s2.83-6.94,6.68-6.94,6.63,2.83,6.63,6.94c0,.16-.03.36-.03.57Zm-11.44-1.38h9.7c-.23-2.68-2.18-4.55-4.86-4.55s-4.6,1.87-4.84,4.55Z"/>
    <path class="cls-7" d="m1286.28,295.51c0-.7.6-1.3,1.35-1.3s1.35.57,1.35,1.27c0,.75-.57,1.35-1.35,1.35s-1.35-.6-1.35-1.33Zm.42,4.32h1.85v13.68h-1.85v-13.68Z"/>
    <path class="cls-7" d="m1292.31,306.66c0-4.06,2.96-6.94,6.97-6.94s6.94,2.89,6.94,6.94-2.94,6.97-6.94,6.97-6.97-2.91-6.97-6.97Zm12.04,0c0-3.2-2.16-5.33-5.07-5.33s-5.1,2.13-5.1,5.33,2.18,5.33,5.1,5.33,5.07-2.13,5.07-5.33Z"/>
    <path class="cls-7" d="m1329.65,294.21v19.29h-1.77v-2.7c-1.12,1.85-3.02,2.83-5.28,2.83-3.9,0-6.81-2.83-6.81-6.97s2.91-6.94,6.81-6.94c2.18,0,4.06.94,5.2,2.7v-8.22h1.85Zm-1.82,12.45c0-3.2-2.18-5.33-5.07-5.33s-5.1,2.13-5.1,5.33,2.18,5.33,5.1,5.33,5.07-2.13,5.07-5.33Z"/>
    <path class="cls-7" d="m1346.7,307.23h-11.44c.21,2.86,2.39,4.76,5.38,4.76,1.66,0,3.15-.6,4.19-1.79l1.04,1.2c-1.22,1.46-3.12,2.24-5.28,2.24-4.26,0-7.18-2.91-7.18-6.97s2.83-6.94,6.68-6.94,6.63,2.83,6.63,6.94c0,.16-.03.36-.03.57Zm-11.44-1.38h9.7c-.23-2.68-2.18-4.55-4.86-4.55s-4.6,1.87-4.84,4.55Z"/>
    <path class="cls-7" d="m1355.77,311.94l.83-1.46c1.09.86,2.94,1.53,4.86,1.53,2.6,0,3.67-.88,3.67-2.24,0-3.56-8.87-.75-8.87-6.16,0-2.24,1.92-3.9,5.41-3.9,1.77,0,3.69.49,4.84,1.27l-.81,1.48c-1.2-.83-2.63-1.17-4.03-1.17-2.47,0-3.56.96-3.56,2.26,0,3.69,8.87.91,8.87,6.16,0,2.37-2.08,3.9-5.64,3.9-2.26,0-4.45-.73-5.56-1.69Z"/>
    <path class="cls-7" d="m1382.71,299.82v13.68h-1.77v-2.5c-.96,1.66-2.73,2.63-4.91,2.63-3.48,0-5.77-1.95-5.77-5.88v-7.93h1.85v7.75c0,2.91,1.51,4.39,4.11,4.39,2.86,0,4.65-1.85,4.65-4.97v-7.18h1.85Z"/>
    <path class="cls-7" d="m1398.21,305.02v8.48h-1.77v-2.13c-.83,1.4-2.44,2.26-4.71,2.26-3.09,0-4.99-1.61-4.99-3.98,0-2.11,1.35-3.87,5.28-3.87h4.34v-.83c0-2.34-1.33-3.61-3.88-3.61-1.77,0-3.43.62-4.55,1.61l-.83-1.38c1.38-1.17,3.41-1.85,5.56-1.85,3.54,0,5.54,1.77,5.54,5.3Zm-1.85,4.37v-2.24h-4.29c-2.65,0-3.51,1.04-3.51,2.44,0,1.59,1.27,2.57,3.46,2.57s3.61-.99,4.34-2.78Z"/>
    <path class="cls-7" d="m179.43,339.4h1.85v19.29h-1.85v-19.29Z"/>
    <path class="cls-7" d="m198.33,352.43h-11.44c.21,2.86,2.39,4.76,5.38,4.76,1.66,0,3.15-.6,4.19-1.79l1.04,1.2c-1.22,1.46-3.12,2.24-5.28,2.24-4.26,0-7.18-2.91-7.18-6.97s2.83-6.94,6.68-6.94,6.63,2.83,6.63,6.94c0,.16-.03.36-.03.57Zm-11.44-1.38h9.7c-.23-2.68-2.18-4.55-4.86-4.55s-4.6,1.87-4.84,4.55Z"/>
    <path class="cls-7" d="m214.79,345.02v12.01c0,4.71-2.31,6.84-6.84,6.84-2.5,0-4.94-.75-6.37-2.11l.94-1.4c1.3,1.17,3.28,1.87,5.38,1.87,3.46,0,5.04-1.59,5.04-4.97v-1.74c-1.14,1.74-3.09,2.65-5.33,2.65-3.9,0-6.86-2.73-6.86-6.66s2.96-6.6,6.86-6.6c2.29,0,4.26.94,5.41,2.73v-2.63h1.77Zm-1.79,6.5c0-2.96-2.18-4.99-5.2-4.99s-5.17,2.03-5.17,4.99,2.16,5.02,5.17,5.02,5.2-2.05,5.2-5.02Z"/>
    <path class="cls-7" d="m219.55,340.7c0-.7.6-1.3,1.35-1.3s1.35.57,1.35,1.27c0,.75-.57,1.35-1.35,1.35s-1.35-.6-1.35-1.33Zm.42,4.32h1.85v13.68h-1.85v-13.68Z"/>
    <path class="cls-7" d="m225.06,357.14l.83-1.46c1.09.86,2.94,1.53,4.86,1.53,2.6,0,3.67-.88,3.67-2.24,0-3.56-8.87-.75-8.87-6.16,0-2.24,1.92-3.9,5.41-3.9,1.77,0,3.69.49,4.84,1.27l-.81,1.48c-1.2-.83-2.63-1.17-4.03-1.17-2.47,0-3.56.96-3.56,2.26,0,3.69,8.87.91,8.87,6.16,0,2.37-2.08,3.9-5.64,3.9-2.26,0-4.45-.73-5.56-1.69Z"/>
    <path class="cls-7" d="m239.67,339.4h1.85v19.29h-1.85v-19.29Z"/>
    <path class="cls-7" d="m256.99,350.22v8.48h-1.77v-2.13c-.83,1.4-2.44,2.26-4.71,2.26-3.09,0-4.99-1.61-4.99-3.98,0-2.11,1.35-3.87,5.28-3.87h4.34v-.83c0-2.34-1.33-3.61-3.87-3.61-1.77,0-3.43.62-4.55,1.61l-.83-1.38c1.38-1.17,3.41-1.85,5.56-1.85,3.54,0,5.54,1.77,5.54,5.3Zm-1.85,4.37v-2.24h-4.29c-2.65,0-3.51,1.04-3.51,2.44,0,1.59,1.27,2.57,3.46,2.57s3.61-.99,4.34-2.78Z"/>
    <path class="cls-7" d="m271.71,355.19l1.38.94c-1.09,1.77-3.04,2.7-5.36,2.7h-.05l-.31,1.22c1.43.13,2.21.96,2.21,2.11,0,1.4-1.2,2.26-2.94,2.26-.86,0-1.56-.18-2.18-.6l.44-.99c.52.34,1.09.49,1.72.49,1.04,0,1.61-.44,1.61-1.22,0-.7-.52-1.2-1.61-1.2h-.6l.57-2.16c-3.48-.49-5.9-3.2-5.9-6.89,0-4.08,2.96-6.94,7.05-6.94,2.31,0,4.26.91,5.36,2.7l-1.38.94c-.94-1.38-2.39-2.03-3.98-2.03-2.99,0-5.17,2.13-5.17,5.33s2.18,5.33,5.17,5.33c1.59,0,3.04-.62,3.98-2Z"/>
    <path class="cls-7" d="m287.02,350.22v8.48h-1.77v-2.13c-.83,1.4-2.44,2.26-4.71,2.26-3.09,0-4.99-1.61-4.99-3.98,0-2.11,1.35-3.87,5.28-3.87h4.34v-.83c0-2.34-1.33-3.61-3.87-3.61-1.77,0-3.43.62-4.55,1.61l-.83-1.38c1.38-1.17,3.41-1.85,5.56-1.85,3.54,0,5.54,1.77,5.54,5.3Zm-1.85,4.37v-2.24h-4.29c-2.65,0-3.51,1.04-3.51,2.44,0,1.59,1.27,2.57,3.46,2.57s3.61-.99,4.34-2.78Zm-6.63-11.93h-1.12c.05-1.74.96-2.86,2.34-2.86,1.61,0,2.39,1.77,3.41,1.77.78,0,1.3-.62,1.35-1.61h1.12c-.05,1.69-.96,2.81-2.34,2.81-1.61,0-2.37-1.77-3.41-1.77-.78,0-1.3.62-1.35,1.66Z"/>
    <path class="cls-7" d="m290.71,351.86c0-4.06,2.96-6.94,6.97-6.94s6.94,2.89,6.94,6.94-2.94,6.97-6.94,6.97-6.97-2.91-6.97-6.97Zm12.04,0c0-3.2-2.16-5.33-5.07-5.33s-5.1,2.13-5.1,5.33,2.18,5.33,5.1,5.33,5.07-2.13,5.07-5.33Z"/>
    <path class="cls-7" d="m325.52,350.22v8.48h-1.77v-2.13c-.83,1.4-2.44,2.26-4.71,2.26-3.09,0-4.99-1.61-4.99-3.98,0-2.11,1.35-3.87,5.28-3.87h4.34v-.83c0-2.34-1.33-3.61-3.88-3.61-1.77,0-3.43.62-4.55,1.61l-.83-1.38c1.38-1.17,3.41-1.85,5.56-1.85,3.54,0,5.54,1.77,5.54,5.3Zm-1.85,4.37v-2.24h-4.29c-2.65,0-3.51,1.04-3.51,2.44,0,1.59,1.27,2.57,3.46,2.57s3.61-.99,4.34-2.78Z"/>
    <path class="cls-7" d="m344.24,344.92v1.79c-.16,0-.31-.03-.44-.03-2.86,0-4.6,1.82-4.6,5.04v6.97h-1.85v-13.68h1.77v2.68c.86-1.82,2.6-2.78,5.12-2.78Z"/>
    <path class="cls-7" d="m359.35,352.43h-11.44c.21,2.86,2.39,4.76,5.38,4.76,1.66,0,3.15-.6,4.19-1.79l1.04,1.2c-1.22,1.46-3.12,2.24-5.28,2.24-4.26,0-7.18-2.91-7.18-6.97s2.83-6.94,6.68-6.94,6.63,2.83,6.63,6.94c0,.16-.03.36-.03.57Zm-11.44-1.38h9.7c-.23-2.68-2.18-4.55-4.86-4.55s-4.6,1.87-4.84,4.55Z"/>
    <path class="cls-7" d="m373.08,350.22v8.48h-1.77v-2.13c-.83,1.4-2.44,2.26-4.71,2.26-3.09,0-4.99-1.61-4.99-3.98,0-2.11,1.35-3.87,5.28-3.87h4.34v-.83c0-2.34-1.33-3.61-3.87-3.61-1.77,0-3.43.62-4.55,1.61l-.83-1.38c1.38-1.17,3.41-1.85,5.56-1.85,3.54,0,5.54,1.77,5.54,5.3Zm-1.85,4.37v-2.24h-4.29c-2.65,0-3.51,1.04-3.51,2.44,0,1.59,1.27,2.57,3.46,2.57s3.61-.99,4.34-2.78Z"/>
    <path class="cls-7" d="m378.09,339.4h1.85v19.29h-1.85v-19.29Z"/>
    <path class="cls-7" d="m384.67,340.7c0-.7.6-1.3,1.35-1.3s1.35.57,1.35,1.27c0,.75-.57,1.35-1.35,1.35s-1.35-.6-1.35-1.33Zm.42,4.32h1.85v13.68h-1.85v-13.68Z"/>
    <path class="cls-7" d="m401.73,357.16v1.53h-11.13v-1.22l8.61-10.89h-8.45v-1.56h10.82v1.22l-8.61,10.92h8.76Z"/>
    <path class="cls-7" d="m415.69,350.22v8.48h-1.77v-2.13c-.83,1.4-2.44,2.26-4.71,2.26-3.09,0-4.99-1.61-4.99-3.98,0-2.11,1.35-3.87,5.28-3.87h4.34v-.83c0-2.34-1.33-3.61-3.87-3.61-1.77,0-3.43.62-4.55,1.61l-.83-1.38c1.38-1.17,3.41-1.85,5.56-1.85,3.54,0,5.54,1.77,5.54,5.3Zm-1.85,4.37v-2.24h-4.29c-2.65,0-3.51,1.04-3.51,2.44,0,1.59,1.27,2.57,3.46,2.57s3.61-.99,4.34-2.78Z"/>
    <path class="cls-7" d="m430.41,355.19l1.38.94c-1.09,1.77-3.04,2.7-5.36,2.7h-.05l-.31,1.22c1.43.13,2.21.96,2.21,2.11,0,1.4-1.2,2.26-2.94,2.26-.86,0-1.56-.18-2.18-.6l.44-.99c.52.34,1.09.49,1.72.49,1.04,0,1.61-.44,1.61-1.22,0-.7-.52-1.2-1.61-1.2h-.6l.57-2.16c-3.48-.49-5.9-3.2-5.9-6.89,0-4.08,2.96-6.94,7.05-6.94,2.31,0,4.26.91,5.36,2.7l-1.38.94c-.94-1.38-2.39-2.03-3.98-2.03-2.99,0-5.17,2.13-5.17,5.33s2.18,5.33,5.17,5.33c1.59,0,3.04-.62,3.98-2Z"/>
    <path class="cls-7" d="m445.72,350.22v8.48h-1.77v-2.13c-.83,1.4-2.44,2.26-4.71,2.26-3.09,0-4.99-1.61-4.99-3.98,0-2.11,1.35-3.87,5.28-3.87h4.34v-.83c0-2.34-1.33-3.61-3.88-3.61-1.77,0-3.43.62-4.55,1.61l-.83-1.38c1.38-1.17,3.41-1.85,5.56-1.85,3.54,0,5.54,1.77,5.54,5.3Zm-1.85,4.37v-2.24h-4.29c-2.65,0-3.51,1.04-3.51,2.44,0,1.59,1.27,2.57,3.46,2.57s3.61-.99,4.34-2.78Zm-6.63-11.93h-1.12c.05-1.74.96-2.86,2.34-2.86,1.61,0,2.39,1.77,3.41,1.77.78,0,1.3-.62,1.35-1.61h1.12c-.05,1.69-.96,2.81-2.34,2.81-1.61,0-2.37-1.77-3.41-1.77-.78,0-1.3.62-1.35,1.66Z"/>
    <path class="cls-7" d="m449.41,351.86c0-4.06,2.96-6.94,6.97-6.94s6.94,2.89,6.94,6.94-2.94,6.97-6.94,6.97-6.97-2.91-6.97-6.97Zm12.04,0c0-3.2-2.16-5.33-5.07-5.33s-5.1,2.13-5.1,5.33,2.18,5.33,5.1,5.33,5.07-2.13,5.07-5.33Z"/>
    <path class="cls-7" d="m472.53,351.86c0-4.06,2.96-6.94,6.97-6.94s6.94,2.89,6.94,6.94-2.94,6.97-6.94,6.97-6.97-2.91-6.97-6.97Zm12.04,0c0-3.2-2.16-5.33-5.07-5.33s-5.1,2.13-5.1,5.33,2.18,5.33,5.1,5.33,5.07-2.13,5.07-5.33Z"/>
    <path class="cls-7" d="m504.06,351.86c0,4.13-2.91,6.97-6.81,6.97-2.26,0-4.16-.99-5.28-2.83v2.7h-1.77v-19.29h1.85v8.22c1.14-1.77,3.02-2.7,5.2-2.7,3.9,0,6.81,2.81,6.81,6.94Zm-1.85,0c0-3.2-2.21-5.33-5.1-5.33s-5.1,2.13-5.1,5.33,2.18,5.33,5.1,5.33,5.1-2.13,5.1-5.33Z"/>
    <path class="cls-7" d="m514.72,344.92v1.79c-.16,0-.31-.03-.44-.03-2.86,0-4.6,1.82-4.6,5.04v6.97h-1.85v-13.68h1.77v2.68c.86-1.82,2.6-2.78,5.12-2.78Z"/>
    <path class="cls-7" d="m517.63,340.7c0-.7.6-1.3,1.35-1.3s1.35.57,1.35,1.27c0,.75-.57,1.35-1.35,1.35s-1.35-.6-1.35-1.33Zm.42,4.32h1.85v13.68h-1.85v-13.68Z"/>
    <path class="cls-7" d="m537.71,345.02v12.01c0,4.71-2.31,6.84-6.84,6.84-2.5,0-4.94-.75-6.37-2.11l.94-1.4c1.3,1.17,3.28,1.87,5.38,1.87,3.46,0,5.04-1.59,5.04-4.97v-1.74c-1.14,1.74-3.09,2.65-5.33,2.65-3.9,0-6.86-2.73-6.86-6.66s2.96-6.6,6.86-6.6c2.29,0,4.26.94,5.41,2.73v-2.63h1.77Zm-1.79,6.5c0-2.96-2.18-4.99-5.2-4.99s-5.17,2.03-5.17,4.99,2.16,5.02,5.17,5.02,5.2-2.05,5.2-5.02Z"/>
    <path class="cls-7" d="m553.2,350.22v8.48h-1.77v-2.13c-.83,1.4-2.44,2.26-4.71,2.26-3.09,0-4.99-1.61-4.99-3.98,0-2.11,1.35-3.87,5.28-3.87h4.34v-.83c0-2.34-1.33-3.61-3.88-3.61-1.77,0-3.43.62-4.55,1.61l-.83-1.38c1.38-1.17,3.41-1.85,5.56-1.85,3.54,0,5.54,1.77,5.54,5.3Zm-1.85,4.37v-2.24h-4.29c-2.65,0-3.51,1.04-3.51,2.44,0,1.59,1.27,2.57,3.46,2.57s3.61-.99,4.34-2.78Z"/>
    <path class="cls-7" d="m565.42,357.87c-.73.65-1.82.96-2.89.96-2.57,0-4-1.46-4-3.98v-8.27h-2.44v-1.56h2.44v-2.99h1.85v2.99h4.16v1.56h-4.16v8.16c0,1.61.83,2.5,2.37,2.5.75,0,1.51-.23,2.03-.7l.65,1.33Z"/>
    <path class="cls-7" d="m566.9,351.86c0-4.06,2.96-6.94,6.97-6.94s6.94,2.89,6.94,6.94-2.94,6.97-6.94,6.97-6.97-2.91-6.97-6.97Zm12.04,0c0-3.2-2.16-5.33-5.07-5.33s-5.1,2.13-5.1,5.33,2.18,5.33,5.1,5.33,5.07-2.13,5.07-5.33Zm-3.22-12.17h2.47l-4.21,3.22h-1.82l3.56-3.22Z"/>
    <path class="cls-7" d="m591.47,344.92v1.79c-.16,0-.31-.03-.44-.03-2.86,0-4.6,1.82-4.6,5.04v6.97h-1.85v-13.68h1.77v2.68c.86-1.82,2.6-2.78,5.12-2.78Z"/>
    <path class="cls-7" d="m594.39,340.7c0-.7.6-1.3,1.35-1.3s1.35.57,1.35,1.27c0,.75-.57,1.35-1.35,1.35s-1.35-.6-1.35-1.33Zm.42,4.32h1.85v13.68h-1.85v-13.68Z"/>
    <path class="cls-7" d="m612.12,350.22v8.48h-1.77v-2.13c-.83,1.4-2.44,2.26-4.71,2.26-3.09,0-4.99-1.61-4.99-3.98,0-2.11,1.35-3.87,5.28-3.87h4.34v-.83c0-2.34-1.33-3.61-3.87-3.61-1.77,0-3.43.62-4.55,1.61l-.83-1.38c1.38-1.17,3.41-1.85,5.56-1.85,3.54,0,5.54,1.77,5.54,5.3Zm-1.85,4.37v-2.24h-4.29c-2.65,0-3.51,1.04-3.51,2.44,0,1.59,1.27,2.57,3.46,2.57s3.61-.99,4.34-2.78Z"/>
    <path class="cls-7" d="m622.57,351.86c0-4.06,2.96-6.94,6.97-6.94s6.94,2.89,6.94,6.94-2.94,6.97-6.94,6.97-6.97-2.91-6.97-6.97Zm12.04,0c0-3.2-2.16-5.33-5.07-5.33s-5.1,2.13-5.1,5.33,2.18,5.33,5.1,5.33,5.07-2.13,5.07-5.33Z"/>
    <path class="cls-7" d="m652.57,345.02v13.68h-1.77v-2.5c-.96,1.66-2.73,2.63-4.92,2.63-3.48,0-5.77-1.95-5.77-5.88v-7.93h1.85v7.75c0,2.91,1.51,4.39,4.11,4.39,2.86,0,4.65-1.85,4.65-4.97v-7.18h1.85Z"/>
    <path class="cls-7" d="m677.14,350.77v7.93h-1.85v-7.75c0-2.89-1.51-4.37-4.11-4.37-2.94,0-4.78,1.82-4.78,4.94v7.18h-1.85v-13.68h1.77v2.52c.99-1.66,2.83-2.63,5.2-2.63,3.33,0,5.62,1.92,5.62,5.85Z"/>
    <path class="cls-7" d="m692.48,350.22v8.48h-1.77v-2.13c-.83,1.4-2.44,2.26-4.71,2.26-3.09,0-4.99-1.61-4.99-3.98,0-2.11,1.35-3.87,5.28-3.87h4.34v-.83c0-2.34-1.33-3.61-3.88-3.61-1.77,0-3.43.62-4.55,1.61l-.83-1.38c1.38-1.17,3.41-1.85,5.56-1.85,3.54,0,5.54,1.77,5.54,5.3Zm-1.85,4.37v-2.24h-4.29c-2.65,0-3.51,1.04-3.51,2.44,0,1.59,1.27,2.57,3.46,2.57s3.61-.99,4.34-2.78Zm-6.63-11.93h-1.12c.05-1.74.96-2.86,2.34-2.86,1.61,0,2.39,1.77,3.41,1.77.78,0,1.3-.62,1.35-1.61h1.12c-.05,1.69-.96,2.81-2.34,2.81-1.61,0-2.37-1.77-3.41-1.77-.78,0-1.3.62-1.35,1.66Z"/>
    <path class="cls-7" d="m696.17,351.86c0-4.06,2.96-6.94,6.97-6.94s6.94,2.89,6.94,6.94-2.94,6.97-6.94,6.97-6.97-2.91-6.97-6.97Zm12.04,0c0-3.2-2.16-5.33-5.07-5.33s-5.1,2.13-5.1,5.33,2.18,5.33,5.1,5.33,5.07-2.13,5.07-5.33Z"/>
    <path class="cls-7" d="m733.15,339.4v19.29h-1.77v-2.7c-1.12,1.85-3.02,2.83-5.28,2.83-3.9,0-6.81-2.83-6.81-6.97s2.91-6.94,6.81-6.94c2.18,0,4.06.94,5.2,2.7v-8.22h1.85Zm-1.82,12.45c0-3.2-2.18-5.33-5.07-5.33s-5.1,2.13-5.1,5.33,2.18,5.33,5.1,5.33,5.07-2.13,5.07-5.33Z"/>
    <path class="cls-7" d="m750.2,352.43h-11.44c.21,2.86,2.39,4.76,5.38,4.76,1.66,0,3.15-.6,4.19-1.79l1.04,1.2c-1.22,1.46-3.12,2.24-5.28,2.24-4.26,0-7.18-2.91-7.18-6.97s2.83-6.94,6.68-6.94,6.63,2.83,6.63,6.94c0,.16-.03.36-.03.57Zm-11.44-1.38h9.7c-.23-2.68-2.18-4.55-4.86-4.55s-4.6,1.87-4.84,4.55Z"/>
    <path class="cls-7" d="m752.1,357.14l.83-1.46c1.09.86,2.94,1.53,4.86,1.53,2.6,0,3.67-.88,3.67-2.24,0-3.56-8.87-.75-8.87-6.16,0-2.24,1.92-3.9,5.41-3.9,1.77,0,3.69.49,4.84,1.27l-.81,1.48c-1.2-.83-2.63-1.17-4.03-1.17-2.47,0-3.56.96-3.56,2.26,0,3.69,8.87.91,8.87,6.16,0,2.37-2.08,3.9-5.64,3.9-2.26,0-4.45-.73-5.56-1.69Z"/>
    <path class="cls-7" d="m764.81,357.14l.83-1.46c1.09.86,2.94,1.53,4.86,1.53,2.6,0,3.67-.88,3.67-2.24,0-3.56-8.87-.75-8.87-6.16,0-2.24,1.92-3.9,5.41-3.9,1.77,0,3.69.49,4.84,1.27l-.81,1.48c-1.2-.83-2.63-1.17-4.03-1.17-2.47,0-3.56.96-3.56,2.26,0,3.69,8.87.91,8.87,6.16,0,2.37-2.08,3.9-5.64,3.9-2.26,0-4.45-.73-5.56-1.69Z"/>
    <path class="cls-7" d="m791.33,352.43h-11.44c.21,2.86,2.39,4.76,5.38,4.76,1.66,0,3.15-.6,4.19-1.79l1.04,1.2c-1.22,1.46-3.12,2.24-5.28,2.24-4.26,0-7.18-2.91-7.18-6.97s2.83-6.94,6.68-6.94,6.63,2.83,6.63,6.94c0,.16-.03.36-.03.57Zm-11.44-1.38h9.7c-.23-2.68-2.18-4.55-4.86-4.55s-4.6,1.87-4.84,4.55Z"/>
    <path class="cls-7" d="m815.8,351.86c0,4.16-2.91,6.97-6.81,6.97-2.18,0-4.06-.94-5.2-2.7v7.62h-1.85v-18.72h1.77v2.7c1.12-1.82,3.02-2.81,5.28-2.81,3.9,0,6.81,2.81,6.81,6.94Zm-1.85,0c0-3.17-2.21-5.33-5.1-5.33s-5.1,2.16-5.1,5.33,2.18,5.33,5.1,5.33,5.1-2.13,5.1-5.33Z"/>
    <path class="cls-7" d="m826.46,344.92v1.79c-.16,0-.31-.03-.44-.03-2.86,0-4.6,1.82-4.6,5.04v6.97h-1.85v-13.68h1.77v2.68c.86-1.82,2.6-2.78,5.12-2.78Z"/>
    <path class="cls-7" d="m828.28,351.86c0-4.06,2.96-6.94,6.97-6.94s6.94,2.89,6.94,6.94-2.94,6.97-6.94,6.97-6.97-2.91-6.97-6.97Zm12.04,0c0-3.2-2.16-5.33-5.07-5.33s-5.1,2.13-5.1,5.33,2.18,5.33,5.1,5.33,5.07-2.13,5.07-5.33Z"/>
    <path class="cls-7" d="m844.58,351.86c0-4.08,2.96-6.94,7.05-6.94,2.31,0,4.26.91,5.36,2.7l-1.38.94c-.94-1.38-2.39-2.03-3.98-2.03-2.99,0-5.17,2.13-5.17,5.33s2.18,5.33,5.17,5.33c1.59,0,3.04-.62,3.98-2l1.38.94c-1.09,1.77-3.04,2.7-5.36,2.7-4.08,0-7.05-2.89-7.05-6.97Z"/>
    <path class="cls-7" d="m872.27,352.43h-11.44c.21,2.86,2.39,4.76,5.38,4.76,1.66,0,3.15-.6,4.19-1.79l1.04,1.2c-1.22,1.46-3.12,2.24-5.28,2.24-4.26,0-7.18-2.91-7.18-6.97s2.83-6.94,6.68-6.94,6.63,2.83,6.63,6.94c0,.16-.03.36-.03.57Zm-11.44-1.38h9.7c-.23-2.68-2.18-4.55-4.86-4.55s-4.6,1.87-4.84,4.55Z"/>
    <path class="cls-7" d="m888.55,339.4v19.29h-1.77v-2.7c-1.12,1.85-3.02,2.83-5.28,2.83-3.9,0-6.81-2.83-6.81-6.97s2.91-6.94,6.81-6.94c2.18,0,4.06.94,5.2,2.7v-8.22h1.85Zm-1.82,12.45c0-3.2-2.18-5.33-5.07-5.33s-5.1,2.13-5.1,5.33,2.18,5.33,5.1,5.33,5.07-2.13,5.07-5.33Z"/>
    <path class="cls-7" d="m893.28,340.7c0-.7.6-1.3,1.35-1.3s1.35.57,1.35,1.27c0,.75-.57,1.35-1.35,1.35s-1.35-.6-1.35-1.33Zm.42,4.32h1.85v13.68h-1.85v-13.68Z"/>
    <path class="cls-7" d="m923.26,350.77v7.93h-1.85v-7.75c0-2.89-1.46-4.37-3.93-4.37-2.81,0-4.58,1.82-4.58,4.94v7.18h-1.85v-7.75c0-2.89-1.46-4.37-3.95-4.37-2.78,0-4.58,1.82-4.58,4.94v7.18h-1.85v-13.68h1.77v2.5c.96-1.64,2.73-2.6,5.02-2.6s4.03.96,4.86,2.89c.99-1.77,2.94-2.89,5.41-2.89,3.33,0,5.51,1.92,5.51,5.85Z"/>
    <path class="cls-7" d="m940.24,352.43h-11.44c.21,2.86,2.39,4.76,5.38,4.76,1.66,0,3.15-.6,4.19-1.79l1.04,1.2c-1.22,1.46-3.12,2.24-5.28,2.24-4.26,0-7.18-2.91-7.18-6.97s2.83-6.94,6.68-6.94,6.63,2.83,6.63,6.94c0,.16-.03.36-.03.57Zm-11.44-1.38h9.7c-.23-2.68-2.18-4.55-4.86-4.55s-4.6,1.87-4.84,4.55Z"/>
    <path class="cls-7" d="m956.62,350.77v7.93h-1.85v-7.75c0-2.89-1.51-4.37-4.11-4.37-2.94,0-4.78,1.82-4.78,4.94v7.18h-1.85v-13.68h1.77v2.52c.99-1.66,2.83-2.63,5.2-2.63,3.33,0,5.62,1.92,5.62,5.85Z"/>
    <path class="cls-7" d="m968.83,357.87c-.73.65-1.82.96-2.89.96-2.57,0-4-1.46-4-3.98v-8.27h-2.44v-1.56h2.44v-2.99h1.85v2.99h4.16v1.56h-4.16v8.16c0,1.61.83,2.5,2.37,2.5.75,0,1.51-.23,2.03-.7l.65,1.33Z"/>
    <path class="cls-7" d="m970.32,351.86c0-4.06,2.96-6.94,6.97-6.94s6.94,2.89,6.94,6.94-2.94,6.97-6.94,6.97-6.97-2.91-6.97-6.97Zm12.04,0c0-3.2-2.16-5.33-5.07-5.33s-5.1,2.13-5.1,5.33,2.18,5.33,5.1,5.33,5.07-2.13,5.07-5.33Z"/>
    <path class="cls-7" d="m986.41,357.4c0-.81.62-1.4,1.38-1.4s1.4.6,1.4,1.4-.65,1.43-1.4,1.43-1.38-.62-1.38-1.43Z"/>
  </g>
</svg>