<?xml version="1.0" encoding="UTF-8"?>
<svg id="Layer_2" data-name="Layer 2" xmlns="http://www.w3.org/2000/svg" xmlns:xlink="http://www.w3.org/1999/xlink" viewBox="0 0 695.29 140.73">
  <defs>
    <style>
      .cls-1 {
        fill: #fff;
      }

      .cls-2 {
        fill: #002c6b;
      }

      .cls-3 {
        fill: url(#radial-gradient);
      }

      .cls-4 {
        fill: url(#radial-gradient-2);
      }
    </style>
    <radialGradient id="radial-gradient" cx="74.44" cy="800.92" fx="74.44" fy="800.92" r="106.92" gradientTransform="translate(0 820.75) scale(1 -1)" gradientUnits="userSpaceOnUse">
      <stop offset="0" stop-color="#fff"/>
      <stop offset="1" stop-color="#e3d8d8"/>
    </radialGradient>
    <radialGradient id="radial-gradient-2" cx="98.45" cy="698.85" fx="98.45" fy="698.85" r="108.84" xlink:href="#radial-gradient"/>
  </defs>
  <g id="Layer_1-2" data-name="Layer 1">
    <g>
      <rect class="cls-2" width="695.29" height="140.73"/>
      <g>
        <path class="cls-1" d="m211.48,76.76v2.4h-10.9v-15.4h10.61v2.4h-7.91v4h7.02v2.35h-7.02v4.25h8.2Z"/>
        <path class="cls-1" d="m225.16,72.43v6.73h-2.6v-6.38c0-2.09-.98-3.1-2.64-3.1-1.85,0-3.09,1.19-3.09,3.54v5.94h-2.6v-11.75h2.47v1.52c.85-1.08,2.2-1.65,3.82-1.65,2.66,0,4.63,1.61,4.63,5.15h.01Z"/>
        <path class="cls-1" d="m235.52,79.16l-2.84-4.07-2.87,4.07h-2.87l4.32-5.96-4.13-5.79h2.89l2.72,3.85,2.72-3.85h2.8l-4.15,5.74,4.34,6.01h-2.93,0Z"/>
        <path class="cls-1" d="m250.88,67.41v11.75h-2.47v-1.5c-.83,1.08-2.14,1.65-3.57,1.65-2.85,0-4.78-1.65-4.78-5.19v-6.71h2.6v6.34c0,2.13.96,3.15,2.6,3.15,1.81,0,3.03-1.19,3.03-3.54v-5.94h2.6,0Z"/>
        <path class="cls-1" d="m265.29,67.41v9.97c0,4.27-2.1,6.21-5.98,6.21-2.08,0-4.13-.57-5.4-1.67l1.16-2.07c.98.86,2.55,1.41,4.09,1.41,2.45,0,3.53-1.19,3.53-3.56v-.62c-.91,1.06-2.22,1.56-3.72,1.56-3.18,0-5.61-2.29-5.61-5.7s2.43-5.66,5.61-5.66c1.56,0,2.93.53,3.84,1.69v-1.56h2.48Zm-2.55,5.52c0-1.98-1.41-3.32-3.36-3.32s-3.38,1.34-3.38,3.32,1.41,3.37,3.38,3.37,3.36-1.36,3.36-3.37Z"/>
        <path class="cls-1" d="m277.98,72.27v6.89h-2.45v-1.43c-.62,1.01-1.83,1.58-3.49,1.58-2.53,0-4.13-1.47-4.13-3.52s1.25-3.5,4.61-3.5h2.87v-.18c0-1.61-.91-2.55-2.76-2.55-1.25,0-2.53.44-3.36,1.17l-1.02-2c1.18-.97,2.91-1.45,4.69-1.45,3.2,0,5.05,1.61,5.05,5h0Zm-2.6,3.2v-1.36h-2.68c-1.77,0-2.24.7-2.24,1.56,0,.99.79,1.63,2.12,1.63s2.37-.62,2.8-1.83Z"/>
        <path class="cls-1" d="m299.84,72.43v6.73h-2.6v-6.38c0-2.09-.91-3.1-2.49-3.1-1.7,0-2.89,1.19-2.89,3.52v5.96h-2.6v-6.38c0-2.09-.91-3.1-2.49-3.1-1.72,0-2.89,1.19-2.89,3.52v5.96h-2.6v-11.75h2.47v1.5c.83-1.06,2.12-1.63,3.63-1.63,1.62,0,2.97.64,3.74,1.96.89-1.21,2.39-1.96,4.15-1.96,2.68,0,4.55,1.61,4.55,5.15h.02Z"/>
        <path class="cls-1" d="m313.64,74.16h-8.7c.31,1.72,1.66,2.82,3.59,2.82,1.25,0,2.22-.42,3.01-1.28l1.39,1.69c-1,1.25-2.55,1.92-4.47,1.92-3.72,0-6.13-2.53-6.13-6.03s2.43-6.01,5.73-6.01,5.61,2.4,5.61,6.07c0,.22-.02.55-.04.81h.01Zm-8.72-1.82h6.29c-.21-1.69-1.43-2.86-3.14-2.86s-2.91,1.14-3.16,2.86h.01Z"/>
        <path class="cls-1" d="m327.1,72.43v6.73h-2.6v-6.38c0-2.09-.98-3.1-2.64-3.1-1.85,0-3.09,1.19-3.09,3.54v5.94h-2.6v-11.75h2.47v1.52c.85-1.08,2.2-1.65,3.82-1.65,2.66,0,4.63,1.61,4.63,5.15h.01Z"/>
        <path class="cls-1" d="m337.06,78.52c-.62.53-1.56.79-2.49.79-2.43,0-3.82-1.36-3.82-3.96v-5.65h-1.83v-2.2h1.83v-2.68h2.6v2.68h2.97v2.2h-2.97v5.59c0,1.14.54,1.76,1.54,1.76.54,0,1.06-.15,1.45-.48l.73,1.96h-.01Z"/>
        <path class="cls-1" d="m337.91,73.28c0-3.52,2.49-6.01,5.9-6.01s5.92,2.49,5.92,6.01-2.47,6.03-5.92,6.03-5.9-2.51-5.9-6.03Zm9.2,0c0-2.24-1.41-3.67-3.3-3.67s-3.28,1.43-3.28,3.67,1.41,3.67,3.28,3.67,3.3-1.43,3.3-3.67Z"/>
        <path class="cls-1" d="m368.8,62.83v16.33h-2.49v-1.52c-.87,1.12-2.16,1.67-3.68,1.67-3.22,0-5.61-2.38-5.61-6.03s2.39-6.01,5.61-6.01c1.43,0,2.7.51,3.57,1.58v-6.03h2.6Zm-2.55,10.46c0-2.24-1.43-3.67-3.3-3.67s-3.3,1.43-3.3,3.67,1.43,3.67,3.3,3.67,3.3-1.43,3.3-3.67Z"/>
        <path class="cls-1" d="m381.49,72.27v6.89h-2.45v-1.43c-.62,1.01-1.83,1.58-3.49,1.58-2.53,0-4.13-1.47-4.13-3.52s1.25-3.5,4.61-3.5h2.87v-.18c0-1.61-.91-2.55-2.76-2.55-1.25,0-2.53.44-3.36,1.17l-1.02-2c1.18-.97,2.91-1.45,4.69-1.45,3.2,0,5.05,1.61,5.05,5h-.01Zm-2.6,3.2v-1.36h-2.68c-1.77,0-2.24.7-2.24,1.56,0,.99.79,1.63,2.12,1.63s2.37-.62,2.8-1.83Z"/>
        <path class="cls-1" d="m409.08,72.43v6.73h-2.6v-6.38c0-2.09-.91-3.1-2.49-3.1-1.7,0-2.89,1.19-2.89,3.52v5.96h-2.6v-6.38c0-2.09-.91-3.1-2.49-3.1-1.72,0-2.89,1.19-2.89,3.52v5.96h-2.6v-11.75h2.47v1.5c.83-1.06,2.12-1.63,3.63-1.63,1.62,0,2.97.64,3.74,1.96.89-1.21,2.39-1.96,4.15-1.96,2.68,0,4.55,1.61,4.55,5.15h.02Z"/>
        <path class="cls-1" d="m421.68,72.27v6.89h-2.45v-1.43c-.62,1.01-1.83,1.58-3.49,1.58-2.53,0-4.13-1.47-4.13-3.52s1.25-3.5,4.61-3.5h2.87v-.18c0-1.61-.91-2.55-2.76-2.55-1.25,0-2.53.44-3.36,1.17l-1.02-2c1.18-.97,2.91-1.45,4.69-1.45,3.2,0,5.05,1.61,5.05,5h-.01Zm-2.6,3.2v-1.36h-2.68c-1.77,0-2.24.7-2.24,1.56,0,.99.79,1.63,2.12,1.63s2.37-.62,2.8-1.83Zm-1.72-9.68h-2.24l2.8-3.01h3.05l-3.61,3.01h0Z"/>
        <path class="cls-1" d="m435.94,67.41v16.02h-2.6v-5.7c-.89,1.08-2.14,1.58-3.55,1.58-3.24,0-5.61-2.38-5.61-6.03s2.37-6.01,5.61-6.01c1.52,0,2.8.55,3.68,1.67v-1.54h2.47Zm-2.55,5.89c0-2.24-1.41-3.67-3.3-3.67s-3.28,1.43-3.28,3.67,1.41,3.67,3.28,3.67,3.3-1.43,3.3-3.67Z"/>
        <path class="cls-1" d="m450.08,67.41v11.75h-2.47v-1.5c-.83,1.08-2.14,1.65-3.57,1.65-2.85,0-4.78-1.65-4.78-5.19v-6.71h2.6v6.34c0,2.13.96,3.15,2.6,3.15,1.81,0,3.03-1.19,3.03-3.54v-5.94h2.6-.01Z"/>
        <path class="cls-1" d="m453.13,63.82c0-.92.71-1.65,1.66-1.65s1.66.68,1.66,1.58c0,.97-.69,1.72-1.66,1.72s-1.66-.73-1.66-1.65h0Zm.35,3.59h2.6v11.75h-2.6v-11.75Z"/>
        <path class="cls-1" d="m470.41,72.43v6.73h-2.6v-6.38c0-2.09-.98-3.1-2.64-3.1-1.85,0-3.09,1.19-3.09,3.54v5.94h-2.6v-11.75h2.47v1.52c.85-1.08,2.2-1.65,3.82-1.65,2.66,0,4.63,1.61,4.63,5.15h.01Z"/>
        <path class="cls-1" d="m482.99,72.27v6.89h-2.45v-1.43c-.62,1.01-1.83,1.58-3.49,1.58-2.53,0-4.13-1.47-4.13-3.52s1.25-3.5,4.61-3.5h2.87v-.18c0-1.61-.91-2.55-2.76-2.55-1.25,0-2.53.44-3.36,1.17l-1.02-2c1.18-.97,2.91-1.45,4.69-1.45,3.2,0,5.05,1.61,5.05,5h-.01Zm-2.6,3.2v-1.36h-2.68c-1.77,0-2.24.7-2.24,1.56,0,.99.79,1.63,2.12,1.63s2.37-.62,2.8-1.83Z"/>
        <path class="cls-1" d="m502.42,74.16h-8.7c.31,1.72,1.66,2.82,3.59,2.82,1.25,0,2.22-.42,3.01-1.28l1.39,1.69c-1,1.25-2.55,1.92-4.47,1.92-3.72,0-6.13-2.53-6.13-6.03s2.43-6.01,5.73-6.01,5.61,2.4,5.61,6.07c0,.22-.02.55-.04.81h.01Zm-8.72-1.82h6.29c-.21-1.69-1.43-2.86-3.14-2.86s-2.91,1.14-3.16,2.86h.01Z"/>
        <path class="cls-1" d="m503.69,77.99l1-2.09c.98.68,2.47,1.17,3.86,1.17,1.64,0,2.33-.48,2.33-1.3,0-2.24-6.85-.13-6.85-4.82,0-2.22,1.89-3.67,4.88-3.67,1.47,0,3.16.37,4.15,1.01l-1,2.09c-1.06-.66-2.12-.88-3.18-.88-1.58,0-2.33.55-2.33,1.32,0,2.38,6.85.26,6.85,4.86,0,2.2-1.91,3.63-5.03,3.63-1.85,0-3.7-.57-4.69-1.32h.01Z"/>
        <path class="cls-1" d="m522.31,78.52c-.62.53-1.56.79-2.49.79-2.43,0-3.82-1.36-3.82-3.96v-5.65h-1.83v-2.2h1.83v-2.68h2.6v2.68h2.97v2.2h-2.97v5.59c0,1.14.54,1.76,1.54,1.76.54,0,1.06-.15,1.45-.48l.73,1.96h-.01Z"/>
        <path class="cls-1" d="m533.73,72.27v6.89h-2.45v-1.43c-.62,1.01-1.83,1.58-3.49,1.58-2.53,0-4.13-1.47-4.13-3.52s1.25-3.5,4.61-3.5h2.87v-.18c0-1.61-.91-2.55-2.76-2.55-1.25,0-2.53.44-3.36,1.17l-1.02-2c1.18-.97,2.91-1.45,4.69-1.45,3.2,0,5.05,1.61,5.05,5h-.01Zm-2.6,3.2v-1.36h-2.68c-1.77,0-2.24.7-2.24,1.56,0,.99.79,1.63,2.12,1.63s2.37-.62,2.8-1.83Z"/>
        <path class="cls-1" d="m543.72,78.52c-.62.53-1.56.79-2.49.79-2.43,0-3.82-1.36-3.82-3.96v-5.65h-1.83v-2.2h1.83v-2.68h2.6v2.68h2.97v2.2h-2.97v5.59c0,1.14.54,1.76,1.54,1.76.54,0,1.06-.15,1.45-.48l.73,1.96h-.01Z"/>
        <path class="cls-1" d="m555.14,72.27v6.89h-2.45v-1.43c-.62,1.01-1.83,1.58-3.49,1.58-2.53,0-4.13-1.47-4.13-3.52s1.25-3.5,4.61-3.5h2.87v-.18c0-1.61-.91-2.55-2.76-2.55-1.25,0-2.53.44-3.36,1.17l-1.02-2c1.18-.97,2.91-1.45,4.69-1.45,3.2,0,5.05,1.61,5.05,5h-.01Zm-2.6,3.2v-1.36h-2.68c-1.77,0-2.24.7-2.24,1.56,0,.99.79,1.63,2.12,1.63s2.37-.62,2.8-1.83Z"/>
        <path class="cls-1" d="m558.45,62.83h2.6v16.33h-2.6v-16.33Z"/>
        <path class="cls-1" d="m563.58,77.49c0-1.1.77-1.83,1.7-1.83s1.7.73,1.7,1.83-.77,1.83-1.7,1.83-1.7-.77-1.7-1.83Z"/>
      </g>
      <g>
        <circle class="cls-3" cx="91.34" cy="70.55" r="56.09"/>
        <circle class="cls-4" cx="91.34" cy="70.55" r="52.61"/>
      </g>
      <path class="cls-2" d="m98.18,35.49v61.03h-14.12v-49.7h-12.21v-11.33h26.33Z"/>
    </g>
  </g>
</svg>