<?xml version="1.0" encoding="UTF-8"?>
<svg id="Layer_1" data-name="Layer 1" xmlns="http://www.w3.org/2000/svg" xmlns:xlink="http://www.w3.org/1999/xlink" viewBox="0 0 886.67 116">
  <defs>
    <style>
      .cls-1 {
        fill: #898e92;
      }

      .cls-2 {
        fill: #a0a0a0;
      }

      .cls-3 {
        clip-path: url(#clippath-2);
      }

      .cls-4 {
        clip-path: url(#clippath-6);
      }

      .cls-5, .cls-6 {
        fill: #174d8c;
      }

      .cls-7 {
        clip-path: url(#clippath-7);
      }

      .cls-8 {
        clip-path: url(#clippath-1);
      }

      .cls-9 {
        clip-path: url(#clippath-4);
      }

      .cls-10 {
        fill: #6a0c12;
      }

      .cls-6 {
        fill-rule: evenodd;
      }

      .cls-11 {
        clip-path: url(#clippath-9);
      }

      .cls-12 {
        clip-path: url(#clippath);
      }

      .cls-13 {
        fill: #a60014;
      }

      .cls-14 {
        fill: none;
      }

      .cls-15 {
        clip-path: url(#clippath-3);
      }

      .cls-16 {
        clip-path: url(#clippath-8);
      }

      .cls-17 {
        clip-path: url(#clippath-5);
      }

      .cls-18 {
        fill: #19181c;
      }
    </style>
    <clipPath id="clippath">
      <path class="cls-14" d="m55.58,55.47c7.57,4.15,7.05,10.88,4.35,16.69,3.21-5.18,5.18-10.78,5.29-16.38,0-1.97-.1-3.84-.62-6.12-1.76-8.6-8.5-15.76-18.14-19.7-.73-.1-1.35-.21-2.07-.21-9.74,0-12.85,12.54,11.2,25.71"/>
    </clipPath>
    <clipPath id="clippath-1">
      <rect class="cls-14" x="31.43" y="29.66" width="34.11" height="42.61"/>
    </clipPath>
    <clipPath id="clippath-2">
      <path class="cls-14" d="m18.99,26.97h-.21l-.62,29.34-1.24-.1-5.29,24.57,6.12,1.04-.31,15.76h.21c16.17-2.18,30.48-10.26,39.18-20.73,5.49-10.37-7.46-18.76-7.57-18.76-1.97-1.76-23.84-12.85-17.1-24.67,1.66-2.9,3.52-4.87,5.6-6.01-3.21-.62-6.53-.93-10.16-.93-2.9-.1-5.81.1-8.6.52"/>
    </clipPath>
    <clipPath id="clippath-3">
      <rect class="cls-14" x="11.42" y="26.14" width="50.9" height="71.73"/>
    </clipPath>
    <clipPath id="clippath-4">
      <path class="cls-14" d="m33.61,11.31l-1.45,9.02c19.49-.83,34.83,8.91,36.18,24.88.62,6.74-1.45,13.68-5.39,20.11,6.43-5.6,10.68-12.44,11.82-19.9,3.01-18.87-15.34-34.11-41.05-34.11h-.1Z"/>
    </clipPath>
    <clipPath id="clippath-5">
      <rect class="cls-14" x="31.95" y="11.11" width="46.13" height="54.42"/>
    </clipPath>
    <clipPath id="clippath-6">
      <rect class="cls-14" x="32.15" y="11.31" width="45.72" height="53.9"/>
    </clipPath>
    <clipPath id="clippath-7">
      <path class="cls-14" d="m19.4,20.75l-10.88,68.21h.21c18.04,0,34.93-7.46,44.37-18.56-10.68,6.63-25.19,9.95-39.91,8.19h-.21L29.36,21.58c-3.11-.52-6.43-.83-9.85-.83h-.1"/>
    </clipPath>
    <clipPath id="clippath-8">
      <rect class="cls-14" x="8.42" y="20.54" width="44.68" height="68.52"/>
    </clipPath>
    <clipPath id="clippath-9">
      <rect class="cls-14" x="8.52" y="20.75" width="44.57" height="68.21"/>
    </clipPath>
  </defs>
  <g>
    <g>
      <path class="cls-5" d="m558.88,60.82l1.3-.13c.08.44.24.75.47.96.24.2.56.31.97.31.43,0,.75-.09.97-.27.22-.18.33-.39.33-.64,0-.16-.05-.29-.14-.4s-.25-.2-.48-.29c-.16-.05-.51-.15-1.07-.29-.71-.18-1.22-.39-1.5-.65-.41-.36-.61-.81-.61-1.33,0-.34.1-.65.29-.94s.47-.52.82-.67c.36-.15.79-.23,1.3-.23.83,0,1.45.18,1.87.54.42.36.64.85.66,1.45l-1.33.06c-.06-.34-.18-.58-.37-.73-.19-.15-.47-.22-.84-.22s-.69.08-.91.24c-.14.1-.21.24-.21.41,0,.16.07.29.2.4.17.14.58.29,1.22.44.65.15,1.13.31,1.44.48.31.16.55.39.73.67s.26.63.26,1.05c0,.38-.11.73-.32,1.06-.21.33-.51.58-.89.74s-.86.24-1.44.24c-.83,0-1.48-.19-1.92-.58-.45-.39-.71-.95-.8-1.69Z"/>
      <path class="cls-5" d="m565.36,57.54v-1.17h1.27v1.17h-1.27Zm0,5.43v-4.78h1.27v4.78h-1.27Z"/>
      <path class="cls-5" d="m567.48,61.6l1.27-.19c.05.25.16.43.33.56.17.13.4.19.69.19.33,0,.57-.06.74-.18.11-.08.17-.2.17-.34,0-.1-.03-.18-.09-.24-.06-.06-.2-.12-.42-.17-1.02-.23-1.67-.43-1.94-.62-.38-.26-.57-.62-.57-1.08,0-.41.16-.76.49-1.04.33-.28.83-.42,1.52-.42s1.14.11,1.46.32c.32.21.54.53.66.95l-1.19.22c-.05-.19-.15-.33-.29-.43-.14-.1-.35-.15-.61-.15-.33,0-.57.05-.72.14-.1.07-.14.15-.14.26,0,.09.04.17.13.23.11.08.51.2,1.18.36.67.15,1.14.34,1.41.56.26.23.4.54.4.94,0,.44-.18.82-.55,1.13s-.91.47-1.63.47c-.65,0-1.17-.13-1.55-.4-.38-.26-.63-.62-.75-1.08Z"/>
      <path class="cls-5" d="m575.24,58.18v1.01h-.86v1.93c0,.39,0,.62.02.68.02.06.05.12.11.16.06.04.13.06.21.06.12,0,.29-.04.51-.12l.11.98c-.29.13-.63.19-1,.19-.23,0-.43-.04-.62-.11-.18-.08-.32-.18-.4-.3-.09-.12-.14-.29-.18-.49-.03-.15-.04-.44-.04-.89v-2.08h-.58v-1.01h.58v-.95l1.27-.74v1.69h.86Z"/>
      <path class="cls-5" d="m578.89,61.44l1.26.21c-.16.46-.42.81-.77,1.06-.35.24-.79.36-1.31.36-.83,0-1.45-.27-1.85-.82-.32-.44-.47-.98-.47-1.65,0-.79.21-1.41.62-1.86.41-.45.94-.67,1.57-.67.71,0,1.27.23,1.68.7s.61,1.19.59,2.16h-3.17c0,.38.11.67.31.88s.44.31.73.31c.2,0,.36-.05.5-.16s.24-.28.31-.52Zm.07-1.28c0-.37-.1-.64-.28-.84-.18-.19-.4-.29-.66-.29-.28,0-.5.1-.68.3-.18.2-.27.47-.27.82h1.89Z"/>
      <path class="cls-5" d="m581.16,58.18h1.17v.65c.42-.51.91-.76,1.49-.76.31,0,.57.06.8.19.23.13.41.32.55.57.21-.26.44-.45.68-.57.24-.13.5-.19.78-.19.35,0,.65.07.89.21.24.14.42.35.54.63.09.2.13.53.13.99v3.06h-1.27v-2.73c0-.47-.04-.78-.13-.92-.12-.18-.3-.27-.54-.27-.18,0-.34.05-.5.16-.16.11-.27.27-.34.47-.07.21-.1.54-.1.99v2.3h-1.27v-2.62c0-.47-.02-.77-.07-.9-.05-.13-.11-.24-.21-.3-.09-.07-.22-.1-.38-.1-.2,0-.37.05-.53.16-.16.11-.27.26-.34.45-.07.2-.1.53-.1.99v2.32h-1.27v-4.78Z"/>
      <path class="cls-5" d="m590.4,59.64l-1.15-.21c.13-.46.35-.8.67-1.03.32-.22.78-.33,1.4-.33.56,0,.98.07,1.26.2s.47.3.58.51c.11.21.17.58.17,1.13v1.48c-.01.42,0,.73.05.93.04.2.12.41.23.64h-1.25c-.03-.08-.07-.21-.12-.37-.02-.07-.04-.12-.05-.15-.22.21-.45.37-.69.47-.25.1-.51.16-.79.16-.49,0-.88-.13-1.16-.4-.28-.27-.43-.6-.43-1.01,0-.27.06-.51.19-.72.13-.21.31-.37.54-.49s.57-.21,1.01-.29c.59-.11,1-.21,1.23-.31v-.13c0-.24-.06-.42-.18-.52-.12-.1-.35-.16-.68-.16-.23,0-.4.04-.53.13-.13.09-.23.24-.31.47Zm1.69,1.03c-.16.05-.42.12-.77.19s-.58.15-.69.22c-.17.12-.25.27-.25.45s.07.33.2.46c.13.13.3.19.5.19.23,0,.45-.07.65-.23.15-.11.25-.25.3-.42.03-.11.05-.31.05-.62v-.25Z"/>
      <path class="cls-5" d="m559.21,65.69h1.33v3.58c0,.57.02.94.05,1.1.06.27.19.49.41.65s.51.25.88.25.66-.08.86-.23c.19-.15.31-.34.35-.57.04-.23.06-.6.06-1.12v-3.65h1.33v3.47c0,.79-.04,1.35-.11,1.68-.07.33-.2.6-.4.83-.19.22-.45.4-.78.54-.32.13-.75.2-1.27.2-.63,0-1.11-.07-1.43-.22-.33-.15-.58-.33-.77-.57s-.31-.48-.37-.73c-.09-.38-.13-.94-.13-1.67v-3.52Zm1.81-.38l.62-1.35h1.42l-1.24,1.35h-.8Z"/>
      <path class="cls-5" d="m570.22,72.29h-1.27v-2.44c0-.52-.03-.85-.08-1-.05-.15-.14-.27-.26-.35-.12-.08-.27-.13-.44-.13-.22,0-.42.06-.59.18s-.29.28-.36.48c-.06.2-.1.56-.1,1.1v2.17h-1.27v-4.78h1.18v.7c.42-.54.94-.81,1.58-.81.28,0,.53.05.77.15.23.1.41.23.52.38.12.16.2.33.25.53.05.2.07.48.07.85v2.97Z"/>
      <path class="cls-5" d="m571.5,66.86v-1.17h1.27v1.17h-1.27Zm0,5.43v-4.78h1.27v4.78h-1.27Z"/>
      <path class="cls-5" d="m578.23,68.92l-1.25.23c-.04-.25-.14-.44-.29-.56-.15-.13-.34-.19-.58-.19-.32,0-.57.11-.75.33-.19.22-.28.58-.28,1.09,0,.57.1.97.29,1.2.19.23.45.35.77.35.24,0,.44-.07.59-.2s.26-.37.32-.7l1.24.21c-.13.57-.38,1-.74,1.29-.37.29-.86.44-1.47.44-.7,0-1.26-.22-1.67-.66-.42-.44-.62-1.05-.62-1.83s.21-1.4.63-1.84.98-.66,1.69-.66c.58,0,1.05.13,1.39.38.34.25.59.63.74,1.15Z"/>
      <path class="cls-5" d="m578.9,69.83c0-.42.1-.83.31-1.22.21-.39.5-.69.88-.9s.8-.31,1.27-.31c.72,0,1.32.23,1.78.7s.69,1.06.69,1.78-.23,1.32-.7,1.8c-.47.48-1.05.71-1.76.71-.44,0-.86-.1-1.25-.3-.4-.2-.7-.49-.91-.87s-.31-.85-.31-1.4Zm1.3.07c0,.47.11.84.34,1.09s.5.38.83.38.61-.13.83-.38c.22-.25.34-.62.34-1.1s-.11-.83-.34-1.08c-.22-.25-.5-.38-.83-.38s-.61.13-.83.38-.34.62-.34,1.09Z"/>
      <path class="cls-5" d="m563.6,81.62h-1.18v-.7c-.2.27-.43.48-.69.61-.27.13-.53.2-.8.2-.55,0-1.02-.22-1.41-.66-.39-.44-.59-1.06-.59-1.85s.19-1.43.57-1.85c.38-.42.86-.63,1.45-.63.53,0,1,.22,1.39.67v-2.38h1.27v6.6Zm-3.38-2.49c0,.51.07.88.21,1.11.2.33.49.5.86.5.29,0,.54-.12.74-.37s.31-.62.31-1.11c0-.55-.1-.94-.3-1.19-.2-.24-.45-.36-.76-.36s-.55.12-.75.36c-.2.24-.3.6-.3,1.07Z"/>
      <path class="cls-5" d="m567.61,80.1l1.26.21c-.16.46-.42.81-.77,1.06-.35.24-.79.36-1.31.36-.83,0-1.45-.27-1.85-.82-.32-.44-.47-.98-.47-1.65,0-.79.21-1.41.62-1.86.41-.45.94-.67,1.57-.67.71,0,1.27.23,1.68.7s.61,1.19.59,2.16h-3.17c0,.38.11.67.31.88s.44.31.73.31c.2,0,.36-.05.5-.16s.24-.28.31-.52Zm.07-1.28c0-.37-.1-.64-.28-.84-.18-.19-.4-.29-.66-.29-.28,0-.5.1-.68.3-.18.2-.27.47-.27.82h1.89Z"/>
      <path class="cls-5" d="m572.21,79.47l1.3-.13c.08.44.24.75.47.96.24.2.56.31.97.31.43,0,.75-.09.97-.27.22-.18.33-.39.33-.64,0-.16-.05-.29-.14-.4s-.25-.2-.48-.29c-.16-.05-.51-.15-1.07-.29-.71-.18-1.22-.39-1.5-.65-.41-.36-.61-.81-.61-1.33,0-.34.1-.65.29-.94s.47-.52.82-.67c.36-.15.79-.23,1.3-.23.83,0,1.45.18,1.87.54.42.36.64.85.66,1.45l-1.33.06c-.06-.34-.18-.58-.37-.73-.19-.15-.47-.22-.84-.22s-.69.08-.91.24c-.14.1-.21.24-.21.41,0,.16.07.29.2.4.17.14.58.29,1.22.44.65.15,1.13.31,1.44.48.31.16.55.39.73.67s.26.63.26,1.05c0,.38-.11.73-.32,1.06-.21.33-.51.58-.89.74s-.86.24-1.44.24c-.83,0-1.48-.19-1.92-.58-.45-.39-.71-.95-.8-1.69Z"/>
      <path class="cls-5" d="m579.63,78.29l-1.15-.21c.13-.46.35-.8.67-1.03.32-.22.78-.33,1.4-.33.56,0,.98.07,1.26.2s.47.3.58.51c.11.21.17.58.17,1.13v1.48c-.01.42,0,.73.05.93.04.2.12.41.23.64h-1.25c-.03-.08-.07-.21-.12-.37-.02-.07-.04-.12-.05-.15-.22.21-.45.37-.69.47-.25.1-.51.16-.79.16-.49,0-.88-.13-1.16-.4-.28-.27-.43-.6-.43-1.01,0-.27.06-.51.19-.72.13-.21.31-.37.54-.49s.57-.21,1.01-.29c.59-.11,1-.21,1.23-.31v-.13c0-.24-.06-.42-.18-.52-.12-.1-.35-.16-.68-.16-.23,0-.4.04-.53.13-.13.09-.23.24-.31.47Zm1.69,1.03c-.16.05-.42.12-.77.19s-.58.15-.69.22c-.17.12-.25.27-.25.45s.07.33.2.46c.13.13.3.19.5.19.23,0,.45-.07.65-.23.15-.11.25-.25.3-.42.03-.11.05-.31.05-.62v-.25Z"/>
      <path class="cls-5" d="m586.96,81.62v-.72c-.17.26-.4.46-.69.6-.28.15-.58.22-.9.22s-.61-.07-.86-.21c-.26-.14-.44-.34-.55-.59-.11-.26-.17-.61-.17-1.06v-3.03h1.27v2.2c0,.67.02,1.08.07,1.24.05.15.13.27.25.36.12.09.28.13.47.13.22,0,.41-.06.58-.18.17-.12.29-.27.35-.44.06-.18.09-.61.09-1.29v-2.02h1.27v4.78h-1.18Zm-1.64-5.37l.62-1.35h1.42l-1.24,1.35h-.8Z"/>
      <path class="cls-5" d="m593.83,81.62h-1.18v-.7c-.2.27-.43.48-.69.61-.27.13-.53.2-.8.2-.55,0-1.02-.22-1.41-.66-.39-.44-.59-1.06-.59-1.85s.19-1.43.57-1.85c.38-.42.86-.63,1.45-.63.53,0,1,.22,1.39.67v-2.38h1.27v6.6Zm-3.38-2.49c0,.51.07.88.21,1.11.2.33.49.5.86.5.29,0,.54-.12.74-.37s.31-.62.31-1.11c0-.55-.1-.94-.3-1.19-.2-.24-.45-.36-.76-.36s-.55.12-.75.36c-.2.24-.3.6-.3,1.07Z"/>
      <path class="cls-5" d="m597.85,80.1l1.26.21c-.16.46-.42.81-.77,1.06-.35.24-.79.36-1.31.36-.83,0-1.45-.27-1.85-.82-.32-.44-.47-.98-.47-1.65,0-.79.21-1.41.62-1.86.41-.45.94-.67,1.57-.67.71,0,1.27.23,1.68.7s.61,1.19.59,2.16h-3.17c0,.38.11.67.31.88s.44.31.73.31c.2,0,.36-.05.5-.16s.24-.28.31-.52Zm.07-1.28c0-.37-.1-.64-.28-.84-.18-.19-.4-.29-.66-.29-.28,0-.5.1-.68.3-.18.2-.27.47-.27.82h1.89Z"/>
    </g>
    <path id="path562" class="cls-6" d="m610.02,42.51l-4.6-1.35c-2.98-.95-4.98-3.78-4.98-6.88,0-4.06,3.22-7.26,7.29-7.26h9.04v3.21h-6.34c-1.22,0-2.3.94-2.3,2.3,0,.81.53,1.76,1.49,2.02l4.45,1.49c3.11.95,4.74,4.04,4.74,7.56,0,4.45-3.66,8.1-8.12,8.1h-9.58v-3.65h8.23c1.21,0,2.57-1.2,2.57-2.82,0-1.22-.68-2.3-1.89-2.71m-42.14,0l-4.59-1.35c-2.82-.95-4.85-3.78-4.85-6.88,0-4.06,3.24-7.26,7.29-7.26h9.05v3.21h-6.35c-1.22,0-2.29.94-2.29,2.3,0,.81.53,1.76,1.48,2.02l4.46,1.49c2.97.95,4.59,4.04,4.59,7.56,0,4.45-3.5,8.1-7.96,8.1h-9.58v-3.65h8.23c1.2,0,2.56-1.2,2.56-2.82,0-1.22-.82-2.3-2.04-2.71m20.93,10c-5.53,0-9.85-3.92-9.85-8.78v-16.57h7.42v17.25c0,2.16,1.89,3.91,4.31,3.91,2.3,0,4.33-1.75,4.33-3.91v-17.25h3.5v16.57c0,4.86-4.32,8.78-9.72,8.78"/>
    <path id="path564" class="cls-6" d="m522.1,70.55s-13.55.92-25.08-.12c.23,14.01,1.93,21.21,2.2,22.75h25.19c-1.2-7.37-2.15-19.26-2.31-22.63m-42.72-29.11c1.68.14,16.52,1.44,17.52,1.44l23.5,23.9h30.21v-25.34h-71.24Zm19.67-1.48h25.37V15.39h-25.37v24.58Zm-.16,7.07h0l-3.3-3.36c-4.4.06-18.55-1.44-23.09-2.23v25.34c22.71,2.24,34.63,2.81,47.94,2.39h.21l-21.76-22.14Zm23.1,21.05h3.08v19.7c-.38-2.04-1.53-14.04-1.39-17.88-.39-.39-1.69-1.82-1.69-1.82"/>
  </g>
  <g id="_Layer_" data-name=" Layer ">
    <path class="cls-18" d="m87.72,85.23c.62,0,1.14-.1,1.55-.21s.83-.31,1.24-.73c.73-.62,1.04-1.45,1.04-2.38,0-.52-.1-1.04-.31-1.45-.21-.41-.52-.83-.93-1.14-.31-.31-.73-.41-1.24-.52-.41-.1-.93-.1-1.66-.1h-1.66v6.53h1.97Zm-1.87,8.5h-1.04v-16.07h2.8c.73,0,1.45.1,1.97.21s1.04.41,1.45.73c.52.41.83.93,1.04,1.45.21.62.31,1.14.31,1.87,0,.62-.1,1.14-.31,1.76-.21.62-.52,1.04-.93,1.45s-.93.62-1.55.83c-.62.1-1.24.21-1.97.21h-1.87l.1,7.57h0Z"/>
    <path class="cls-18" d="m96.74,85.23c.62,0,1.14-.1,1.55-.1.41-.1.83-.31,1.24-.62.31-.31.62-.62.83-1.14.21-.41.31-.93.31-1.45,0-.62-.1-1.24-.41-1.76s-.73-.93-1.24-1.14c-.31-.1-.73-.21-1.14-.31s-1.04-.1-1.76-.1h-.62v6.53l1.24.1h0Zm5.6,8.5h-1.14l-5.29-7.57h-.52v7.57h-1.04v-16.07h1.97c.83,0,1.55.1,2.07.1s1.04.31,1.55.62c.52.41.93.83,1.24,1.45.21.62.41,1.24.41,1.97,0,1.35-.41,2.38-1.24,3.11-.83.73-1.97,1.04-3.32,1.04l5.29,7.77h0Z"/>
    <path class="cls-18" d="m109.07,79.01c-.83.41-1.66.93-2.38,1.55-.73.62-1.24,1.45-1.55,2.38-.41.93-.62,1.87-.62,2.8s.21,1.87.62,2.8c.41.93.93,1.66,1.55,2.28s1.45,1.24,2.38,1.55c.93.31,1.87.62,2.8.62s1.87-.21,2.8-.62c.83-.41,1.66-.93,2.38-1.55s1.24-1.45,1.55-2.38c.41-.93.62-1.87.62-2.8s-.21-1.87-.52-2.8-.93-1.66-1.55-2.38-1.45-1.24-2.38-1.55-1.87-.52-2.8-.52-2.07.31-2.9.62m5.91-.83c1.04.41,1.87,1.04,2.7,1.76.83.73,1.35,1.66,1.87,2.7s.62,2.07.62,3.21-.21,2.18-.62,3.21-1.04,1.87-1.87,2.7-1.66,1.35-2.7,1.76-2.07.62-3.21.62-2.18-.21-3.21-.62c-1.04-.41-1.87-1.04-2.7-1.76-.83-.73-1.35-1.66-1.87-2.7-.41-1.04-.62-2.07-.62-3.21s.21-2.18.62-3.21,1.04-1.87,1.87-2.7c.83-.83,1.66-1.35,2.7-1.76s2.07-.62,3.21-.62,2.28.21,3.21.62"/>
    <path class="cls-18" d="m125.55,92.79c1.14,0,2.18-.1,3.01-.41.83-.31,1.66-.83,2.38-1.45.73-.73,1.24-1.45,1.55-2.38.31-.93.52-1.87.52-2.7,0-1.04-.21-1.97-.62-2.9-.41-.93-.93-1.76-1.76-2.38-.73-.62-1.45-1.14-2.28-1.35-.83-.21-1.76-.41-2.9-.41h-1.87v14.1l1.97-.1h0Zm-2.9-15.03h2.9c1.24,0,2.38.1,3.32.41s1.87.83,2.7,1.55c.83.83,1.45,1.66,1.87,2.7s.62,2.18.62,3.32-.21,2.18-.62,3.21-1.04,1.87-1.87,2.7-1.76,1.35-2.7,1.66-2.07.41-3.32.41h-2.9v-15.96h0Z"/>
    <rect class="cls-18" x="136.54" y="77.76" width="1.04" height="16.07"/>
    <path class="cls-18" d="m148.15,80.35c-.41-.62-.83-1.04-1.35-1.45-.52-.31-1.14-.52-1.87-.52-.83,0-1.55.31-2.18.93s-.83,1.35-.83,2.18c0,.41.1.73.21,1.04.21.31.31.52.62.83s.52.41.83.52.62.31,1.04.52l.1.1,3.01,1.55c.62.41,1.04.83,1.35,1.35s.41,1.14.41,1.87c0,.62-.1,1.24-.41,1.87-.31.52-.62,1.04-1.14,1.45-.41.41-1.04.73-1.66.93s-1.24.31-1.87.31c-1.14,0-2.07-.31-2.9-.93s-1.45-1.45-1.87-2.49l.93-.41c.31.93.83,1.55,1.45,2.07s1.45.83,2.38.83c.52,0,1.04-.1,1.45-.31s.93-.41,1.24-.83c.31-.31.62-.73.83-1.24s.31-.93.31-1.45c0-.41-.1-.73-.21-1.04-.21-.31-.41-.62-.73-.83s-.52-.41-.83-.62c-.31-.21-.73-.41-1.14-.62-.1-.1-.21-.1-.31-.1l-2.9-1.55c-1.14-.73-1.66-1.66-1.66-2.9s.41-2.18,1.14-2.9,1.76-1.14,2.9-1.14c.83,0,1.55.21,2.28.62.73.41,1.24.93,1.66,1.66l-.31.73h0Z"/>
    <path class="cls-18" d="m156.55,79.83l-3.11,7.77h6.22l-3.11-7.77h0Zm-3.52,8.71l-2.18,5.29h-1.04l6.74-16.59,6.74,16.59h-1.04l-2.18-5.29h-7.05Z"/>
    <path class="cls-1" d="m87.2,26.97h.31c.62,0,1.14.1,1.45.31.31.21.52.62.52,1.24s-.21,1.04-.41,1.35-.83.31-1.45.31h-.41v-3.21h0Zm0,4.87h1.04c1.14,0,1.97-.31,2.49-.83s.83-1.35.83-2.49-.31-1.97-.93-2.49-1.55-.83-2.7-.83h-2.8v10.57h2.07v-3.94h0Z"/>
    <path class="cls-1" d="m94.35,26.86h.31c.62,0,1.14.1,1.45.31s.52.62.52,1.24-.21,1.04-.52,1.24-.83.31-1.45.31h-.31v-3.11h0Zm0,4.66h0l2.59,4.25h2.49l-3.01-4.46c.73-.1,1.24-.41,1.55-1.04.41-.52.62-1.24.62-1.97,0-1.14-.31-1.87-.93-2.38s-1.45-.83-2.59-.83h-2.8v10.57h2.07v-4.15h0Z"/>
    <path class="cls-1" d="m101.92,29.14c.1-.41.31-.83.62-1.14s.62-.62,1.04-.83c.41-.21.83-.31,1.24-.31s.93.1,1.24.31c.41.21.73.41,1.04.83s.52.73.62,1.14.21.83.21,1.24-.1.83-.21,1.24c-.1.41-.31.83-.52,1.14-.21.31-.62.62-.93.83-.41.21-.83.31-1.45.31s-1.04-.1-1.45-.31c-.41-.21-.73-.52-.93-.83s-.41-.73-.52-1.14-.21-.83-.21-1.24.1-.83.21-1.24m-.93,5.39c.41.52,1.04.93,1.66,1.24.62.31,1.35.41,2.18.41s1.55-.1,2.18-.41,1.24-.73,1.66-1.24.83-1.14,1.04-1.76.31-1.45.31-2.18-.1-1.55-.41-2.18c-.21-.73-.62-1.24-1.04-1.76s-1.04-.93-1.66-1.14-1.35-.41-2.18-.41-1.45.1-2.18.41-1.24.73-1.66,1.24-.83,1.14-1.04,1.76c-.21.73-.41,1.45-.41,2.18s.1,1.55.31,2.18c.52.52.83,1.14,1.24,1.66"/>
    <path class="cls-1" d="m111.97,34.43c.41.52.93.93,1.66,1.24.62.31,1.35.41,2.07.41.83,0,1.45-.21,2.07-.41.62-.31,1.14-.73,1.55-1.24s.73-1.14.93-1.87c.21-.73.31-1.35.31-2.18v-.31h-4.56v1.76h2.28c0,.31-.1.62-.21.93s-.31.52-.52.83c-.21.21-.41.41-.73.52s-.62.21-.93.21c-.52,0-.93-.1-1.24-.31-.41-.21-.73-.52-.93-.83s-.41-.73-.62-1.24c-.1-.41-.21-.93-.21-1.35s.1-.93.21-1.35.31-.83.62-1.24c.21-.31.52-.73.93-.93.41-.21.83-.31,1.24-.31.52,0,1.04.21,1.45.41.41.31.73.73.93,1.24l1.87-.93c-.41-.83-.93-1.45-1.76-1.87-.73-.41-1.55-.62-2.49-.62-.83,0-1.45.21-2.07.41-.62.31-1.24.73-1.66,1.24s-.83,1.14-1.04,1.76c-.21.73-.31,1.35-.31,2.18s.1,1.45.31,2.07.41,1.24.83,1.76"/>
    <path class="cls-1" d="m123.58,26.86h.31c.62,0,1.14.1,1.45.31s.52.62.52,1.24-.21,1.04-.52,1.24-.83.31-1.45.31h-.31c0,.1,0-3.11,0-3.11Zm0,4.66h0l2.59,4.25h2.49l-3.01-4.46c.73-.1,1.24-.41,1.55-1.04.41-.52.62-1.24.62-1.97,0-1.14-.31-1.87-.93-2.38s-1.45-.83-2.59-.83h-2.8v10.57h2.07v-4.15h0Z"/>
    <path class="cls-1" d="m132.4,31.94l1.14-3.84h0l1.35,3.84h-2.49Zm3.84,3.94h2.18l-4.04-10.88h-1.66l-4.15,10.88h2.18l.83-2.28h3.73l.93,2.28h0Z"/>
    <polygon class="cls-1" points="141.52 29.25 141.52 29.25 143.9 35.99 144.63 35.99 147.01 29.25 147.01 29.25 147.94 35.88 150.02 35.88 148.36 24.89 146.91 24.89 144.42 31.94 141.73 24.89 140.27 24.89 138.51 35.88 140.58 35.88 141.52 29.25"/>
    <path class="cls-1" d="m153.65,31.94l1.14-3.84h0l1.35,3.84h-2.49Zm2.18-7.05h-1.66l-4.15,10.88h2.18l.83-2.28h3.73l.83,2.28h2.18l-3.94-10.88c-.1,0,0,0,0,0Z"/>
    <path class="cls-1" d="m87.2,50.91v-7.05h.31c2.38,0,3.52,1.14,3.52,3.52,0,1.14-.31,1.97-.83,2.59s-1.45.93-2.7.93h-.31Zm2.9,1.45c.62-.31,1.14-.62,1.66-1.14.41-.52.83-1.04,1.04-1.66s.41-1.35.41-2.07-.1-1.45-.31-2.07c-.21-.62-.62-1.24-1.04-1.66-.41-.52-1.04-.83-1.66-1.14-.62-.21-1.35-.41-2.07-.41h-3.01v10.57h2.9c.83,0,1.45-.21,2.07-.41"/>
    <polygon class="cls-1" points="99.74 43.97 99.74 42.1 94.25 42.1 94.25 52.78 99.74 52.78 99.74 50.91 96.32 50.91 96.32 48.11 99.53 48.11 99.53 46.25 96.32 46.25 96.32 43.97 99.74 43.97"/>
    <path class="cls-1" d="m110.32,50.08c-.52.62-1.45.93-2.7.93h-.31v-7.05h.31c2.38,0,3.52,1.14,3.52,3.52,0,1.04-.31,1.97-.83,2.59m2.9-2.59c0-.73-.1-1.45-.31-2.07-.21-.62-.62-1.24-1.04-1.66-.41-.52-1.04-.83-1.66-1.14-.62-.21-1.35-.41-2.07-.41h-3.01v10.57h2.9c.73,0,1.45-.1,2.07-.41s1.24-.62,1.66-1.14.83-1.04,1.04-1.66c.31-.62.52-1.35.41-2.07"/>
    <rect class="cls-1" x="114.25" y="42.1" width="2.07" height="10.57"/>
    <path class="cls-1" d="m120.06,43.86h.31c.62,0,1.14.1,1.45.31s.52.62.52,1.24-.21,1.04-.52,1.24-.83.31-1.45.31h-.31v-3.11h0Zm-2.07,8.91h2.07v-4.35h0l2.59,4.25h2.49l-3.01-4.46c.73-.1,1.24-.41,1.55-1.04.41-.52.62-1.24.62-1.97,0-1.14-.31-1.87-.93-2.38s-1.45-.83-2.59-.83h-2.8v10.78h0Z"/>
    <polygon class="cls-1" points="125.86 52.78 131.36 52.78 131.36 50.91 127.94 50.91 127.94 48.11 131.15 48.11 131.15 46.25 127.94 46.25 127.94 43.97 131.36 43.97 131.36 42.1 125.86 42.1 125.86 52.78"/>
    <rect class="cls-1" x="132.71" y="42.1" width="2.07" height="10.57"/>
    <polygon class="cls-1" points="141.62 42.1 135.3 42.1 135.3 43.97 137.48 43.97 137.48 52.78 139.55 52.78 139.55 43.97 141.62 43.97 141.62 42.1"/>
    <path class="cls-1" d="m143.69,48.63c-.1-.41-.21-.83-.21-1.24s.1-.83.21-1.24.31-.83.62-1.14.62-.62,1.04-.83c.41-.21.83-.31,1.24-.31s.93.1,1.24.31c.41.21.73.41.93.83s.52.73.62,1.14.21.83.21,1.24-.1.83-.21,1.24c-.1.41-.31.83-.52,1.14s-.62.62-.93.83c-.41.21-.83.31-1.45.31s-1.04-.1-1.45-.31c-.41-.21-.73-.52-.93-.83s-.21-.73-.41-1.14m3.01,4.35c.83,0,1.45-.1,2.18-.41s1.24-.73,1.66-1.24.83-1.14,1.04-1.76.31-1.45.31-2.18-.1-1.55-.41-2.18-.62-1.24-1.04-1.76-1.04-.93-1.66-1.14-1.35-.41-2.18-.41-1.45.1-2.18.41-1.24.73-1.66,1.24-.83,1.14-1.04,1.76c-.21.73-.41,1.45-.41,2.18s.1,1.55.31,2.18c.21.73.62,1.24,1.04,1.76s1.04.93,1.66,1.24c.93.21,1.66.41,2.38.31"/>
    <path class="cls-1" d="m91.24,65.11c-.21-.31-.31-.62-.62-.93-.21-.21-.52-.41-.83-.62-.31-.1-.62-.31-1.04-.41-.52-.21-.93-.41-1.24-.62-.21-.21-.41-.41-.41-.83s.1-.62.41-.83c.21-.21.52-.31.93-.31s.62.1.93.21.52.31.73.62l.93-1.45c-.31-.31-.73-.62-1.35-.83s-1.14-.31-1.55-.31-.83.1-1.24.21-.73.41-.93.73-.52.62-.62,1.04c-.21.41-.21.83-.21,1.24s.1.73.21,1.04.31.52.52.83.41.41.73.62c.31.21.62.31.93.52.1,0,.21.1.21.1.21.1.52.21.62.31.21.1.31.21.52.31s.31.31.41.41.1.41.1.62c0,.41-.1.83-.41,1.04-.21.31-.62.41-.93.41-.41,0-.83-.1-1.14-.41-.31-.31-.62-.62-.73-1.14l-1.35,1.35c.41.62.83,1.14,1.35,1.55s1.14.52,1.87.52c1.04,0,1.97-.31,2.59-1.04.62-.62.93-1.55.93-2.59-.1-.62-.21-1.04-.31-1.35"/>
    <path class="cls-1" d="m94.97,65.74l1.14-3.84h0l1.35,3.84h-2.49Zm.52-6.95l-4.15,10.88h2.18l.83-2.28h3.73l.83,2.28h2.18l-3.94-10.88h-1.66Z"/>
    <polygon class="cls-1" points="108.86 66.15 108.86 66.15 103.27 58.79 101.82 58.79 101.82 69.68 103.89 69.68 103.89 62.42 103.89 62.42 109.49 69.88 110.94 69.88 110.94 59 108.86 59 108.86 66.15"/>
    <rect class="cls-1" x="112.6" y="59" width="2.07" height="10.57"/>
    <polygon class="cls-1" points="121.51 59 115.19 59 115.19 60.86 117.36 60.86 117.36 69.68 119.44 69.68 119.44 60.86 121.51 60.86 121.51 59"/>
    <path class="cls-1" d="m125.04,65.74l1.14-3.84h0l1.35,3.84h-2.49Zm.52-6.95l-4.15,10.88h2.18l.83-2.28h3.73l.83,2.28h2.18l-3.94-10.88h-1.66Z"/>
    <polygon class="cls-1" points="128.35 56.41 126.9 55.58 125.14 57.96 126.18 58.58 128.35 56.41"/>
    <path class="cls-1" d="m134.16,63.97h-.31v-3.21h.31c.62,0,1.14.1,1.45.31s.52.62.52,1.24-.21,1.04-.52,1.24c-.31.31-.83.41-1.45.41m3.42.21c.41-.52.62-1.24.62-1.97,0-1.14-.31-1.87-.93-2.38s-1.45-.83-2.59-.83h-2.8v10.68h2.07v-4.25h0l2.59,4.25h2.49l-3.01-4.46c.62-.1,1.24-.41,1.55-1.04"/>
    <rect class="cls-1" x="139.76" y="59" width="2.07" height="10.57"/>
    <path class="cls-1" d="m151.05,65.53c-.1.41-.31.83-.52,1.14s-.62.62-.93.83c-.41.21-.83.31-1.45.31s-1.04-.1-1.45-.31-.73-.52-.93-.83-.41-.73-.52-1.14c-.1-.41-.21-.83-.21-1.24s.1-.83.21-1.24.31-.83.62-1.14.62-.62,1.04-.83c.41-.21.83-.31,1.24-.31s.93.1,1.24.31c.41.21.73.41,1.04.83.31.31.52.73.62,1.14.1.41.21.83.21,1.24s-.1.83-.21,1.24m.93-5.18c-.41-.52-1.04-.93-1.66-1.14-.62-.21-1.35-.41-2.18-.41s-1.45.1-2.18.41-1.24.73-1.66,1.24-.83,1.14-1.04,1.76c-.21.73-.41,1.45-.41,2.18s.1,1.55.31,2.18c.21.73.62,1.24,1.04,1.76s1.04.93,1.66,1.24,1.35.41,2.18.41,1.55-.1,2.18-.41c.62-.31,1.24-.73,1.66-1.24s.83-1.14,1.04-1.76.31-1.45.31-2.18-.1-1.55-.41-2.18-.31-1.35-.83-1.87"/>
    <g class="cls-12">
      <g class="cls-8">
        <rect class="cls-2" x="21.49" y="24.11" width="54.11" height="53.8" transform="translate(-21.87 51.33) rotate(-46.68)"/>
      </g>
    </g>
    <g class="cls-3">
      <g class="cls-15">
        <rect class="cls-2" x="-6.52" y="19.19" width="86.56" height="85.62" transform="translate(-33.57 46.2) rotate(-46.68)"/>
      </g>
    </g>
    <g class="cls-9">
      <g class="cls-17">
        <g class="cls-4">
          <rect class="cls-13" x="32.15" y="11.31" width="45.72" height="53.9"/>
        </g>
      </g>
    </g>
    <path d="m19.51,26.86c-.1,0,.21.52.1.62l-.62,1.35c24.15-1.87,41.36,10.99,41.05,29.44-.31,13.37-10.37,26.33-25.09,34.31,16.9-7.67,28.82-21.77,29.13-36.39.52-19.59-18.66-32.96-44.57-29.34"/>
    <path class="cls-10" d="m34.54,11h-.21l-.1.73c24.78.73,42.29,15.65,39.29,34.11-.93,5.81-3.84,11.3-8.09,16.17-.52,1.04-1.04,1.97-1.66,3.01,6.43-5.6,10.68-12.44,11.82-19.9,3.01-18.87-15.45-34.11-41.05-34.11M13.91,78.18h-.21L30.08,21.16c-3.11-.52-6.43-.83-9.85-.83h-.21l-.1.73c2.8.1,5.49.31,8.09.73l-16.38,57.01h.21c10.26,1.24,20.53,0,29.34-3.11-8.29,2.7-17.73,3.63-27.26,2.49m14.82,7.46c10.26-3.21,19.18-8.71,25.09-15.65-.93.62-1.97,1.14-3.01,1.76-5.49,5.91-13.27,10.78-22.08,13.89"/>
    <g class="cls-7">
      <g class="cls-16">
        <g class="cls-11">
          <rect class="cls-13" x="8.52" y="20.75" width="44.57" height="68.21"/>
        </g>
      </g>
    </g>
  </g>
  <g>
    <path d="m324.79,62.42h6.32v-1.35h-4.15l4.04-5.49v-1.35h-5.91v1.35h3.84l-4.04,5.49-.1,1.35h0Zm-2.9-8.19v4.46c0,1.35-.1,2.7-1.76,2.7s-1.76-1.24-1.76-2.7v-4.46h-1.76v5.08c0,2.18,1.55,3.21,3.52,3.21s3.52-1.04,3.52-3.21v-5.08h-1.76Zm-11.4,4.87h1.87c.62,0,.73.62.73,1.14.1.73.21,1.45.31,2.18h1.97c-.31-.41-.41-1.45-.52-1.97-.1-1.14-.1-1.97-1.45-2.07h0c1.04-.21,1.66-.93,1.66-1.97,0-1.66-1.45-2.07-2.8-2.18h-3.42v8.19h1.76l-.1-3.32h0Zm0-3.52h1.45c.83,0,1.24.31,1.24,1.04s-.41,1.14-1.24,1.14h-1.45v-2.18h0Zm-2.7,1.35c-.1-2.07-1.55-2.8-3.42-2.8-2.38,0-3.42,1.87-3.42,4.25s1.04,4.25,3.42,4.25c1.87,0,3.32-.73,3.42-2.8h-1.87c0,.83-.52,1.55-1.55,1.55-1.24,0-1.55-1.87-1.55-3.01s.31-3.01,1.55-3.01c1.04,0,1.55.73,1.55,1.55h1.87Zm-11.61-1.55c1.76,0,2.07,1.55,2.07,3.01s-.31,3.01-2.07,3.01-2.07-1.66-2.07-3.01.31-3.01,2.07-3.01m0,7.26c2.7,0,3.94-1.87,3.94-4.25s-1.24-4.25-3.94-4.25-3.94,1.87-3.94,4.25,1.24,4.25,3.94,4.25m-5.18-8.4h-1.76v8.19h1.76v-8.19Zm-6.22,8.19v-3.52h3.32v-1.35h-3.32v-1.97h3.52v-1.35h-5.29v8.19h1.76Z"/>
    <path d="m318.05,94.04c0-.31.21-.83.73-.83s.83.41.83.73v.52c-.73,0-1.55,0-2.28.31-1.04.41-1.24,1.45-1.24,1.87,0,1.14.83,1.66,1.87,1.66.73,0,1.35-.31,1.76-.93h0v.73h1.55c0-.21-.1-.31-.1-.62v-3.11c0-1.66-1.24-2.18-2.38-2.18-.62,0-1.24.1-1.66.41-.41.21-.73.73-.83,1.45h1.76Zm1.55,1.45c0,.62,0,1.66-.93,1.66-.52,0-.83-.31-.83-.83-.1-.93,1.14-.83,1.76-.83m-4.66-5.49h-1.87v1.45h1.87v-1.45Zm0,2.49h-1.76v5.7h1.76v-5.7Zm-3.21-2.49h-1.66v8.19h1.66v-8.19Zm-4.77,8.19h1.76v-5.7h-1.76v5.7Zm1.04-8.19l-.93,1.66h.93l1.55-1.66h-1.55Zm-2.38,3.94c-.1-1.24-1.14-1.66-2.28-1.66-.93,0-2.49.52-2.49,1.66,0,1.35,1.04,1.55,2.07,1.87.31.1,1.14.31,1.14.73s-.31.62-.83.62-.93-.21-.93-.73h-1.55c0,1.35,1.14,1.87,2.49,1.87,1.04,0,2.59-.62,2.59-1.87,0-2.18-3.21-1.66-3.21-2.49,0-.41.21-.52.73-.52.41,0,.73.21.73.62l1.56-.1h0Zm-9.02.1c0-.31.21-.83.73-.83s.83.41.83.73v.52c-.73,0-1.55,0-2.28.31-1.04.41-1.24,1.45-1.24,1.87,0,1.14.83,1.66,1.87,1.66.83,0,1.35-.31,1.76-.93h0c0,.21,0,.52.1.73h1.55c0-.21-.1-.31-.1-.62v-3.11c0-1.66-1.24-2.18-2.38-2.18-.62,0-1.24.1-1.66.41-.41.21-.73.73-.73,1.45h1.55Zm1.55,1.45c0,.62,0,1.66-.93,1.66-.52,0-.83-.31-.83-.83-.1-.93,1.14-.93,1.76-.83m-7.77-3.11c0,.41.1.93.1,1.14v4.56h1.66v-2.8c0-.41.1-.73.21-1.04.21-.21.52-.41.83-.41h.73v-1.55c-.83,0-1.55.21-1.97,1.14h0v-1.04h-1.55Zm-4.25,5.7c1.24.1,3.32-.52,3.32-2.07,0-1.24-.73-1.97-1.76-2.18h0c.83-.31,1.45-.93,1.45-1.76,0-1.66-1.45-2.18-2.9-2.07h-3.11v8.19l3.01-.1h0Zm-1.35-4.87v-1.97h1.35c.73,0,1.14.31,1.14.93s-.41.93-1.14.93l-1.35.1h0Zm0,3.52v-2.18h1.35c.83,0,1.35.1,1.35,1.14s-.62,1.14-1.35,1.14l-1.35-.1h0Z"/>
    <path d="m385.74,21.58c0-.93.52-1.66,1.45-1.66,1.04,0,1.45.73,1.45,1.66h-2.9Zm4.04.73v-.52c0-1.55-.83-2.7-2.49-2.7-1.87,0-2.7,1.35-2.7,3.11s.73,3.01,2.59,3.01c1.35,0,2.38-.62,2.59-1.97h-1.14c-.1.83-.62,1.14-1.35,1.14-1.14,0-1.45-1.04-1.45-2.07h3.94Zm-7.77-2.28h0c-.31-.73-1.04-.93-1.76-.93-1.76,0-2.59,1.45-2.59,3.01s.73,3.01,2.38,3.01c.83,0,1.55-.31,1.97-1.14h0v.93h1.14c0-.31-.1-.73-.1-1.04v-7.26h-1.04v3.42h0Zm-3.21,2.07c0-1.04.31-2.28,1.66-2.28s1.66,1.24,1.66,2.28-.31,2.28-1.66,2.28c-1.24,0-1.66-1.24-1.66-2.28m-3.84.1c0,.1,0,.83-.21,1.35-.21.62-.83.83-1.24.83-1.04,0-1.24-.73-1.24-1.76v-3.42h-1.04v3.84c0,1.14.73,2.07,1.87,2.07.83,0,1.55-.31,1.97-1.04h0v.83h1.04v-5.7h-1.14v3.01h0Zm-.93-5.49l-.93,1.66h.73l1.35-1.66h-1.14Zm-6.84,4.77c-1.35,0-2.8.52-2.8,2.07,0,1.14,1.04,1.66,1.97,1.66.73,0,1.45-.31,1.76-1.04h0c0,.31,0,.52.1.73,0,.1.21.1.31.1h.73v-3.94c0-1.55-1.14-1.97-2.28-1.97s-2.07.41-2.18,1.66h1.14c0-.62.52-.93,1.04-.93,1.14,0,1.24.62,1.24,1.55l-1.04.1h0Zm.93.73c0,1.04-.21,2.18-1.45,2.18-.62,0-1.14-.31-1.14-1.04,0-.83.83-1.04,1.55-1.14h1.04Zm-11.3.31c0,1.87,1.24,2.59,2.9,2.59s3.32-.73,3.32-2.49c0-2.07-2.07-2.07-3.52-2.59-.73-.21-1.35-.31-1.35-1.24s1.14-1.24,1.87-1.24,1.55.31,1.66,1.24h1.24c0-1.55-1.35-2.18-2.8-2.18-1.55,0-3.11.62-3.11,2.49s2.28,2.18,3.63,2.49c.73.1,1.35.52,1.35,1.24,0,1.14-1.14,1.45-2.07,1.45-1.14,0-1.76-.41-1.76-1.55l-1.35-.21h0Zm-6.74-1.04c-1.35,0-2.8.52-2.8,2.07,0,1.14,1.04,1.66,1.97,1.66.83,0,1.45-.31,1.76-1.04h0c0,.31,0,.52.1.73,0,.1.21.1.31.1h.73c0-.52-.1-.93-.1-1.24v-2.7c0-1.55-1.14-1.97-2.28-1.97s-2.07.41-2.18,1.66h1.14c0-.62.52-.93,1.04-.93,1.14,0,1.24.62,1.24,1.55l-.93.1h0Zm.93.73c0,1.04-.21,2.18-1.45,2.18-.62,0-1.14-.31-1.14-1.04,0-.83.83-1.04,1.55-1.14h1.04Zm-6.32-2.18h0c-.41-.73-1.04-.93-1.87-.93-1.76,0-2.59,1.45-2.59,3.01s.73,3.01,2.38,3.01c.83,0,1.55-.31,1.97-1.14h0v.93h1.14c0-.31-.1-.73-.1-1.04v-7.26h-1.04l.1,3.42h0Zm-3.21,2.07c0-1.04.31-2.28,1.66-2.28s1.66,1.24,1.66,2.28-.31,2.28-1.66,2.28c-1.24,0-1.66-1.14-1.66-2.28m-10.06,0c0-1.24.41-2.28,1.76-2.28s1.66,1.04,1.66,2.28-.41,2.28-1.66,2.28-1.76-1.04-1.76-2.28m1.66-3.01c-1.87,0-2.8,1.24-2.8,3.01s.93,3.01,2.8,3.01,2.8-1.24,2.8-3.01-.93-3.01-2.8-3.01m-5.7-1.14h1.24v-1.14h-1.24v1.14Zm.1,7.05h1.04v-5.7h-1.04v5.7Zm-3.32-2.8c0-1.24.21-1.97,1.66-1.97.1,0,.31,0,.41.1v-1.04h-.31c-.83,0-1.55.41-1.66,1.14h0v-1.14h-1.04v5.7h1.04l-.1-2.8h0Zm-6.74-.62c0-.93.52-1.66,1.45-1.66,1.04,0,1.45.73,1.45,1.66h-2.9Zm4.04.73v-.52c0-1.55-.83-2.7-2.49-2.7-1.76,0-2.7,1.35-2.7,3.11s.73,3.01,2.59,3.01c1.35,0,2.38-.62,2.59-1.97h-1.14c-.1.83-.52,1.14-1.35,1.14-1.14,0-1.55-1.04-1.45-2.07h3.94Zm-2.07-5.49l-.93,1.66h.73l1.35-1.66h-1.14Zm-7.36,2.38v.83h.93v3.63c0,.73.1.83.21,1.04.21.21.52.31.62.41.21.1.52.1.73.1s.52-.1.73-.1v-.83c-.21.1-.41.1-.62.1-.41,0-.73-.21-.73-.62v-3.73h1.35v-.83h-1.35v-1.55l-1.14.31v1.24h-.73Zm-5.18,1.66c0,2.18,3.42,1.24,3.42,2.59,0,.73-.62,1.04-1.24,1.04s-1.14-.41-1.14-1.14h-1.14c0,1.35.93,1.87,2.18,1.87s2.49-.41,2.49-1.87c0-1.24-1.14-1.35-2.07-1.76-.41-.1-1.35-.21-1.35-.83s.52-.93,1.04-.93c.62,0,1.14.21,1.14.93h1.14c.1-1.35-1.14-1.76-2.28-1.76s-2.18.73-2.18,1.87m-2.9-2.9h1.24v-1.14h-1.24v1.14Zm.1,7.05h1.14v-5.7h-1.14v5.7Zm-5.91-5.7h-1.04v5.7h1.04v-3.11c0-1.14.31-1.35.41-1.55.41-.41,1.04-.41,1.04-.41.93,0,1.35.52,1.35,1.45v3.63h1.04v-3.94c0-1.87-1.76-1.97-2.18-1.97-.62,0-1.35.31-1.76,1.04h0l.1-.83h0Zm-4.35-1.35h1.24v-1.14h-1.24v1.14Zm.21,7.05h1.14v-5.7h-1.14v5.7Zm-3.32,0h1.14v-8.29h-1.87l-2.28,6.74h0l-2.38-6.74h-2.07v8.19h1.14v-7.36h0l2.59,7.36h1.04l2.7-7.36h0v7.46h0Z"/>
    <path d="m425.65,73.41l-3.01,3.01v1.35h5.29v-1.35h-3.11l3.01-3.01v-1.35h-5.08v1.35h2.9Zm-6.32,4.35h2.18c-.1-.62-.1-.93-.1-1.45v-4.25h-2.18v3.32s.1,1.24-.93,1.24c-.73,0-.83-.62-.83-1.14v-3.52h-2.18v3.84c0,1.24.93,2.07,2.18,2.07.73,0,1.24-.21,1.76-.83l.1.73h0Zm-6.95-5.81h-2.18c.1.62.1.93.1,1.45v4.25h2.18v-2.28c0-1.14.31-1.76,1.45-1.76h.41v-1.87c-.93,0-1.66.31-1.87,1.24h0l-.1-1.04h0Zm-3.32.1c0-2.07-1.97-2.8-3.94-2.8-2.59,0-3.94,1.55-3.94,4.25s1.35,4.25,3.94,4.25c1.97,0,3.94-.73,3.94-2.8h-2.38c0,.83-.62,1.24-1.55,1.24-1.24,0-1.55-1.45-1.55-2.59s.21-2.8,1.55-2.8c.93,0,1.45.41,1.55,1.14l2.38.1h0Zm-15.96-.21c-1.76,0-3.32.93-3.32,3.01s1.55,3.01,3.32,3.01,3.32-.93,3.32-3.01-1.55-3.01-3.32-3.01m-1.14,3.01c0-.83.21-1.76,1.14-1.76s1.14.93,1.14,1.76-.21,1.76-1.14,1.76-1.14-.93-1.14-1.76m-6.53-1.76c.93,0,1.04,1.04,1.04,1.76s-.21,1.76-1.04,1.76-1.04-1.04-1.04-1.76.1-1.76,1.04-1.76m1.14,4.56h2.07v-8.19h-2.18v3.21h0c-.41-.62-1.14-.83-1.87-.83-1.66,0-2.49,1.55-2.49,3.01s.73,3.01,2.38,3.01c.83,0,1.66-.31,1.87-1.04h0l.21.83h0Zm-7.88,0h2.18v-8.19h-2.18v8.19Zm-1.35,0c-.1-.73-.1-.93-.1-1.14v-2.9c0-1.24-1.35-1.76-2.49-1.76-.62,0-1.35.1-1.97.31s-.93.73-.93,1.55h2.07c0-.41.21-.83.73-.83.83,0,.73.73.73,1.24h-.73c-1.87,0-3.11.52-3.11,1.97,0,1.14.73,1.97,2.07,1.97,1.04,0,1.55-.52,1.87-.93h0c0,.41,0,.62.1.83l1.76-.31h0Zm-3.94-1.76c0-.41.21-.62.62-.73.31-.1.73-.1,1.14-.1,0,.73-.1,1.66-1.04,1.66-.41-.1-.73-.41-.73-.83m-8.91,1.87l1.14-4.04h0l1.04,4.04h2.38l1.76-5.7h-1.87l-.93,4.04h0l-.93-4.04h-2.38l-1.04,4.04h0l-.93-4.04h-2.18l1.76,5.7h2.18Zm-4.77-3.94c-.1-1.66-1.35-1.97-2.7-1.97-1.14,0-2.7.41-2.7,1.76,0,2.07,3.32,1.45,3.32,2.49,0,.41-.31.52-.73.52-.21,0-.41-.1-.52-.21-.1-.1-.21-.31-.1-.52h-2.07c0,1.76,1.35,2.07,2.8,2.07,1.35,0,2.7-.41,2.7-1.97,0-.93-.52-1.35-1.14-1.55-1.35-.41-2.28-.41-2.28-.83,0-.31.21-.52.52-.52s.52.1.62.21c.1.1.1.31.1.52h2.18Zm-10.57,4.04c2.7,0,4.25-1.55,4.25-4.25s-1.55-4.25-4.25-4.25-4.25,1.55-4.25,4.25,1.55,4.25,4.25,4.25m1.87-4.25c0,1.24-.31,2.7-1.87,2.7s-1.87-1.45-1.87-2.7.31-2.7,1.87-2.7,1.87,1.45,1.87,2.7m-14.2-1.76c-1.76,0-3.32.93-3.32,3.01s1.55,3.01,3.32,3.01,3.32-.93,3.32-3.01-1.45-3.01-3.32-3.01m-1.04,3.01c0-.83.21-1.76,1.14-1.76s1.14.93,1.14,1.76-.21,1.76-1.14,1.76-1.14-.93-1.14-1.76m-3.32,2.8c-.1-.73-.1-.93-.1-1.14v-2.9c0-1.24-1.35-1.76-2.59-1.76-.62,0-1.35.1-1.97.31s-1.04.73-1.04,1.55h2.07c0-.41.1-.83.73-.83.83,0,.73.73.73,1.24h-.73c-1.87,0-3.11.52-3.21,1.97,0,1.14.73,1.97,2.07,1.97,1.04,0,1.55-.52,1.76-.93h0c0,.41,0,.62.1.83l2.18-.31h0Zm-3.94-1.76c0-.41.21-.62.62-.73.31-.1.73-.1,1.14-.1,0,.73-.1,1.66-1.04,1.66-.41-.1-.73-.41-.73-.83m-.52-4.77c.1-.21.21-.52.52-.52s.62.1.93.21c.31.1.73.21,1.14.21s.73-.21,1.04-.52.41-.73.52-1.14h-.93c0,.21-.1.41-.31.41s-.62-.1-.93-.21c-.41-.1-.83-.21-1.14-.21-.41,0-.83.21-1.14.52s-.52.73-.52,1.14l.83.1h0Zm-2.28,2.9c-.1-1.66-1.45-2.18-2.9-2.18-1.76,0-3.11.93-3.11,3.01,0,1.66.73,2.7,2.28,3.01l-.62.93.31.21c.21-.1.41-.1.62-.1s.62.21.62.41-.41.31-.83.31-.83-.1-1.14-.21l-.21.62c.41.1.83.21,1.24.21.52,0,1.04,0,1.55-.21.31-.21.62-.41.62-.73,0-.73-.62-.93-1.24-.93h-.41l.31-.41h0c.73,0,1.45-.21,1.97-.62.52-.41.93-.93.93-1.76h-2.18c0,.52-.1,1.14-.83,1.14-.83,0-.83-1.14-.83-1.76s0-1.76.83-1.76c.31,0,.52.1.73.21s.21.41.21.62h2.07Zm-7.15,3.63c-.1-.73-.1-.93-.1-1.14v-2.9c0-1.24-1.35-1.76-2.59-1.76-.62,0-1.35.1-1.97.31s-.93.73-.93,1.55h2.07c0-.41.21-.83.73-.83.83,0,.73.73.73,1.24h-.73c-1.87,0-3.11.52-3.21,1.97,0,1.14.73,1.97,1.97,1.97,1.04,0,1.55-.52,1.87-.93h0c0,.41,0,.62.1.83l2.07-.31h0Zm-3.94-1.76c0-.41.21-.62.62-.73.31-.1.73-.1,1.14-.1,0,.73-.1,1.66-1.04,1.66-.41-.1-.73-.41-.73-.83m-6.32-2.8c.93,0,1.04,1.04,1.04,1.76s-.21,1.76-1.04,1.76-1.04-1.04-1.04-1.76.1-1.76,1.04-1.76m1.14,4.66h2.07v-8.19h-2.18v3.21h0c-.41-.62-1.14-.83-1.87-.83-1.66,0-2.49,1.55-2.49,3.01s.73,3.01,2.38,3.01c.83,0,1.66-.31,1.87-1.04h0l.21.83h0Zm-9.54-5.81h-2.18c.1.62.1.93.1,1.45v4.25h2.18v-3.32s-.1-1.24.93-1.24c.73,0,.83.62.83,1.14v3.32h2.18v-3.84c0-1.24-.93-2.07-2.18-2.07-.73,0-1.24.21-1.76.83v-.52h-.1Zm-5.81,5.81h2.18c-.1-.62-.1-.93-.1-1.45v-4.25h-2.18v3.32s.1,1.24-.93,1.24c-.62,0-.83-.62-.83-1.14v-3.52h-2.18v3.84c0,1.24.93,2.07,2.18,2.07.73,0,1.24-.21,1.76-.83l.1.73h0Zm-8.6-3.21h3.32v-1.55h-3.32v-1.97h3.52v-1.55h-5.81v8.19h2.28v-3.11h0Z"/>
    <path d="m266.63,72.27h0l1.24,2.28v1.66h-57.95v-1.66l1.35-2.28h0v-31.82h1.97v-12.75h1.14v-1.97h0v-1.76c-.62-.73-.93-1.35-.93-2.18,0-1.76,1.55-3.11,3.21-3.21,1.76,0,3.21,1.45,3.21,3.21,0,.83-.31,1.66-.83,2.07h0v1.87h0v1.97h1.14v12.75h7.36v-11.2l-.31-.83h0l-.1-.21,1.45.21h21.15l.93-.21.31-.1-.1.21h.1l-.31.73v11.2h7.15v-12.54h1.14v-3.73c-.62-.73-.93-1.35-.93-2.18,0-1.76,1.55-3.11,3.21-3.21,1.76,0,3.21,1.45,3.21,3.21,0,.83-.31,1.66-.83,2.07v3.84h1.14v12.75h1.76v31.72h0v.1h.1Zm.21-33.9v-12.65h-1.14v-.93c.41-.83.83-1.97.83-3.01,0-2.59-1.87-4.77-4.35-5.18v-.52c.21-.21.31-.52.31-.83,0-.41-.21-.73-.52-.93l-.31-3.52v-.1c0-.21-.21-.41-.41-.41s-.41.21-.41.41v.1h0l-.31,3.63c-.31.21-.52.62-.52.93s.1.62.31.83l-.1.52c-2.38.52-4.25,2.59-4.25,5.08,0,1.04.41,2.18.83,3.01v.93h-1.14v12.75h-3.32v-8.91l1.04-.93v-1.45l-1.04-.62v-.1l-.52-1.04h-1.55l-.83.83h0l-.1.1-.1.1h0l-.1.1h-5.81l-.93-1.04h-1.45l-.93,1.04h-2.38l-.93-1.04h-1.45l-.93,1.04h-5.49l-.1-.1-1.04-1.04h-1.45l-.31.62-.31.52-.41.21-.73.31v1.45l1.04.93v8.91h-3.52v-12.65h-1.04v-.83c.41-.83.83-1.97.83-3.01,0-2.49-1.87-4.66-4.25-5.08v-.52c.21-.21.31-.52.31-.83,0-.41-.21-.73-.52-.93l-.31-3.63h-.1v-.1c0-.21-.1-.41-.31-.41s-.41.21-.41.41q0,.1.1.21l-.31,3.52c-.31.21-.52.62-.52.93s.1.62.31.83v.52c-2.38.41-4.35,2.59-4.35,5.18,0,1.04.41,2.18.83,3.01v.83h-1.04v12.75h-3.32v1.97h.1l1.24,1.04v10.68h-1.24v1.87l1.24,1.14v7.36h-1.24v1.87l1.24,1.14v6.74l-1.24,1.14v2.8h-.1v1.97h61.89v-1.97h-.1v-2.8l-1.24-1.14v-.1h0v-6.74l1.24-1.14v-1.87h-1.24v-7.36l1.24-1.14v-1.87h-1.24v-10.78l1.24-1.04h.1v-1.97h-2.9Z"/>
  </g>
  <g>
    <g>
      <path d="m685.8,52.78h-3.44v-13.04c0-1.07.07-2.38.2-3.92h-.06c-.21.88-.4,1.51-.57,1.9l-5.94,15.07h-2.93l-6-14.96c-.17-.44-.36-1.11-.55-2.01h-.06c.08.81.12,2.12.12,3.95v13.02h-3.2v-20.16h5.2l5.17,13.42c.42,1.03.69,1.8.82,2.3h.07c.36-1.06.65-1.85.87-2.36l5.11-13.37h5.19v20.16Z"/>
      <path d="m693.55,52.66h-3.15v-20.04h3.08l.07,20.04Z"/>
      <path d="m721.95,52.66h-3.15v-20.04h3.08l.07,20.04Z"/>
      <path d="m793.33,52.66h-3.15v-20.04h3.08l.07,20.04Z"/>
      <path d="m714.22,52.66h-4.05l-8.16-15c-.24-.36-.32-.11-.48-.5v.03c-.05-.12-.08.65-.08,2.02v13.44h-3.16l.1-20.04h3.92l8.53,15.29c.13.06.07-.1.14-.29l.03-.53v-1.99l.06-12.63h3.93l-.77,20.19Z"/>
      <path d="m725.84,52.31s.22-3.04.22-3.05c0,.16,1.92.56,2.17.65,1.38.47,3.14.46,4.45-.21,1.87-.96,1.96-3.75.26-4.94-.4-.28-.47-.27-1.02-.53-.54-.26-1.13-.53-1.75-.81-.67-.36-1.29-.71-1.87-1.08-.58-.36-1.08-.77-1.5-1.21-.43-.44-.76-.94-1-1.5-.24-.56-.36-1.21-.36-1.95,0-.92.21-1.72.62-2.4s.97-1.24,1.65-1.68,1.46-.77,2.33-.98c.87-.21,1.76-.32,2.67-.32,2.06,0,2.81.3,3.75.76l-.41,2.71c-1.54-.59-1.44-.59-3.15-.77-.48-.05-.97.05-1.45.14-.48.09-.91.24-1.29.45-.38.21-.69.48-.93.81-.24.33-.36.72-.36,1.19,0,.44.09.82.27,1.13.18.32.45.61.8.87.35.26.78.52,1.29.77.51.25,1.1.52,1.77.81.69.36,1.33.73,1.94,1.12.61.39,1.14.82,1.61,1.3,1.24,1.27,1.09,3.94.67,5.51-1,3.71-5.67,4.22-8.86,3.75-.25-.04-2.53-.43-2.52-.54Z"/>
      <path d="m776.57,80.59s.22-3.04.22-3.05c0,.16,1.92.56,2.17.65,1.38.47,3.14.46,4.45-.21,1.87-.96,1.96-3.75.26-4.94-.4-.28-.47-.27-1.02-.53-.54-.26-1.13-.53-1.75-.81-.67-.36-1.29-.71-1.87-1.08-.58-.36-1.08-.77-1.5-1.21-.43-.44-.76-.94-1-1.5-.24-.56-.36-1.21-.36-1.95,0-.92.21-1.72.62-2.4s.97-1.24,1.65-1.68,1.46-.77,2.33-.98c.87-.21,1.76-.32,2.67-.32,2.06,0,2.81.3,3.75.76l-.41,2.71c-1.54-.59-1.44-.59-3.15-.77-.48-.05-.97.05-1.45.14-.48.09-.91.24-1.29.45-.38.21-.69.48-.93.81-.24.33-.36.72-.36,1.19,0,.44.09.82.27,1.13.18.32.45.61.8.87.35.26.78.52,1.29.77.51.25,1.1.52,1.77.81.69.36,1.33.73,1.94,1.12.61.39,1.14.82,1.61,1.3,1.24,1.27,1.09,3.94.67,5.51-1,3.71-5.67,4.22-8.86,3.75-.25-.04-2.53-.43-2.52-.54Z"/>
      <path d="m754.37,35.23h-6.1v17.43h-3.09l-.07-17.43h-6.23v-2.76h15.49v2.76Z"/>
      <path d="m768.36,52.66h-11.23v-20.04h11.34v2.76h-8.35l.02,5.55h7.66v2.75h-7.57l.04,6.31,8.09-.07v2.75Zm-1.91-25.5l-3.79,4.26-2.25-.13,2.51-4.2,3.53.07Z"/>
      <path d="m864.91,81.06h-11.23v-20.04h11.34v2.76h-8.35l.02,5.55h7.66v2.75h-7.57l.04,6.31,8.09-.07v2.75Z"/>
      <path d="m787.05,52.76s-3.59-.09-3.59-.09c-.55-1.19-1.09-2.39-1.64-3.58-.4-.88-.81-1.77-1.17-2.67-.28-.68-.58-1.39-1.16-1.87s-1.37-.67-2.13-.69c-.1,0-1.5.02-1.5.02v8.89h-3.26v-20.14h6.48c.92,0,1.78.11,2.56.33.78.22,1.46.55,2.03.99.58.44,1.03.99,1.35,1.65.33.66.49,1.43.49,2.32,0,.69-.1,1.33-.31,1.91-.38,1.06-1.13,2-2.08,2.61-.39.25-.76.26-1.19.37,0,0,.26.26.3.3.13.13.24.29.35.44.21.29.42.61.6.92.38.65.69,1.33,1.01,2.02.96,2.08,1.9,4.17,2.85,6.26v.02Zm-11.19-17.5c0,1.14,0,2.28,0,3.43,0,.67,0,1.34,0,2.01,0,.09-.01.19,0,.28.02.18.04.16.26.15.91-.05,1.83.09,2.74-.02.82-.1,1.76-.37,2.42-.89.61-.48.79-1.23.79-1.97,0-.94-.3-1.67-.89-2.2-.6-.53-1.45-.79-2.57-.79,0,0-2.75,0-2.75,0Z"/>
      <path d="m806.76,53.11c-2.95,0-5.31-.95-7.09-2.85-1.77-1.9-2.66-4.38-2.66-7.42,0-3.27.9-5.89,2.71-7.84,1.81-1.95,4.26-2.92,7.36-2.92,2.87,0,5.19.95,6.94,2.84s2.63,4.37,2.63,7.42c0,3.32-.9,5.95-2.7,7.88-1.8,1.93-4.2,2.9-7.21,2.9Zm.16-18.07c-1.87,0-3.4.7-4.57,2.09-1.18,1.39-1.76,3.22-1.76,5.49s.57,4.08,1.71,5.47c1.14,1.38,2.64,2.07,4.48,2.07,1.96,0,3.51-.66,4.64-1.97,1.13-1.32,1.7-3.16,1.7-5.52s-.55-4.31-1.65-5.64c-1.1-1.32-2.61-1.99-4.55-1.99Z"/>
      <path d="m828.04,52.89v-20.27h5.83c7.44,0,11.16,3.29,11.16,9.88,0,3.13-1.03,5.64-3.1,7.54s-4.83,2.85-8.3,2.85h-5.59Zm3.34-17.41v14.57h2.67c2.35,0,4.19-.65,5.5-1.95s1.96-3.14,1.96-5.51c0-4.74-2.44-7.11-7.33-7.11h-2.8Z"/>
      <path d="m832.81,81.22v-20.27h5.83c7.44,0,11.16,3.29,11.16,9.88,0,3.13-1.03,5.64-3.1,7.54s-4.83,2.85-8.3,2.85h-5.59Zm3.34-17.41v14.57h2.67c2.35,0,4.19-.65,5.5-1.95s1.96-3.14,1.96-5.51c0-4.74-2.44-7.11-7.33-7.11h-2.8Z"/>
      <path d="m866.75,52.7h-3.2l-2.16-5.06h-9.44l-1.89,5.06h-3.57l8.36-20.08h3.68l8.21,20.08Zm-7.12-8.12s-2.7-7.71-2.73-7.82c-.06-.16-.06-.6-.25-.68-.18-.07-.94,2.41-1.04,2.69l-1.26,3.63c-.05.15-.63,2.17-.75,2.17h6.03Z"/>
      <path d="m809.59,81.06h-3.2l-2.16-5.06h-9.44l-1.89,5.06h-3.57l8.36-20.08h3.68l8.21,20.08Zm-7.12-8.12s-2.7-7.71-2.73-7.82c-.06-.16-.06-.6-.25-.68-.18-.07-.94,2.41-1.04,2.69l-1.26,3.63c-.05.15-.63,2.17-.75,2.17h6.03Z"/>
    </g>
    <polygon points="824.25 55.55 820.46 59.81 818.21 59.68 820.72 55.48 824.25 55.55"/>
    <path d="m828.07,73c0,5.65-2.68,8.48-8.03,8.48s-7.69-2.72-7.69-8.15v-12.31h3.34v11.62c0,3.95,1.53,5.92,4.6,5.92s4.44-1.9,4.44-5.71v-11.83h3.34v11.99Z"/>
  </g>
</svg>