<?xml version="1.0" encoding="UTF-8"?>
<svg id="Layer_2" data-name="Layer 2" xmlns="http://www.w3.org/2000/svg" viewBox="0 0 132.39 132.39">
  <defs>
    <style>
      .cls-1 {
        fill: #fff;
      }

      .cls-2 {
        fill: #ecb73f;
      }
    </style>
  </defs>
  <g id="Layer_1-2" data-name="Layer 1">
    <g>
      <circle class="cls-2" cx="66.19" cy="66.19" r="66.19"/>
      <path class="cls-1" d="m79.2,67.13c1.09.98,1.99,2.21,2.7,3.69.71,1.48,1.06,3.4,1.06,5.74s-.42,4.46-1.26,6.39c-.84,1.94-2.03,3.62-3.55,5.06-1.71,1.6-3.72,2.77-6.03,3.54-2.31.76-4.85,1.15-7.61,1.15s-5.61-.34-8.34-1.01c-2.73-.67-4.98-1.41-6.73-2.2v-7.14h.51c1.94,1.28,4.21,2.34,6.84,3.18,2.62.84,5.15,1.26,7.59,1.26,1.44,0,2.96-.24,4.58-.72,1.62-.48,2.93-1.18,3.93-2.12,1.05-1,1.83-2.11,2.34-3.32.51-1.21.77-2.73.77-4.58s-.29-3.33-.87-4.53c-.58-1.2-1.38-2.14-2.41-2.82-1.03-.71-2.27-1.19-3.73-1.45-1.46-.26-3.03-.39-4.72-.39h-3.08v-5.67h2.39c3.46,0,6.23-.72,8.29-2.17,2.06-1.45,3.09-3.56,3.09-6.34,0-1.23-.26-2.31-.79-3.23-.52-.92-1.25-1.68-2.19-2.27-.98-.59-2.03-1-3.14-1.23-1.12-.23-2.38-.34-3.79-.34-2.17,0-4.47.39-6.9,1.16-2.44.78-4.74,1.87-6.9,3.28h-.34v-7.14c1.62-.8,3.78-1.53,6.48-2.21,2.7-.67,5.32-1.01,7.84-1.01s4.67.23,6.56.68c1.89.46,3.6,1.19,5.13,2.19,1.64,1.09,2.88,2.42,3.73,3.96.84,1.55,1.26,3.36,1.26,5.43,0,2.83-1,5.29-2.99,7.4-1.99,2.11-4.35,3.44-7.06,3.98v.48c1.09.18,2.35.56,3.76,1.14,1.41.58,2.61,1.31,3.59,2.17Z"/>
    </g>
  </g>
</svg>