<svg xmlns="http://www.w3.org/2000/svg" xmlns:xlink="http://www.w3.org/1999/xlink" width="1185.822" height="377.763" viewBox="0 0 1185.822 377.763">
  <defs>
    <clipPath id="clip-path">
      <rect id="Retângulo_246" data-name="Retângulo 246" width="1185.822" height="377.74" fill="none"/>
    </clipPath>
  </defs>
  <g id="Janela1" transform="translate(-17.7 -13.33)">
    <g id="Grupo_2355" data-name="Grupo 2355" transform="translate(17.7 13.353)" clip-path="url(#clip-path)">
      <rect id="Retângulo_245" data-name="Retângulo 245" width="1126.181" height="301.981" transform="translate(58.444 74.586)" fill="none" stroke="#008082" stroke-width="1"/>
    </g>
    <rect id="Retângulo_247" data-name="Retângulo 247" width="1152.646" height="293.276" transform="translate(29.314 64.97)" fill="#f3f8f8"/>
    <path id="Caminho_3476" data-name="Caminho 3476" d="M78.955,27.71H39.492L19.76,61.894,39.492,96.079H78.955L98.687,61.894Z" transform="translate(2.773 19.359)" fill="#a3c7cc"/>
    <path id="Caminho_3477" data-name="Caminho 3477" d="M85.275,16.3H45.812L26.08,50.461,45.812,84.645H85.275l19.732-34.184Z" transform="translate(11.281 3.998)" fill="#a3c7cc"/>
    <path id="Caminho_3478" data-name="Caminho 3478" d="M43.366,17.87,18.05,61.744l25.316,43.874H94.02l25.339-43.874L94.02,17.87Z" transform="translate(0.471 6.112)" fill="#008082"/>
    <path id="Caminho_3479" data-name="Caminho 3479" d="M68.824,57.084,48.6,22.055l.657-.375L69.481,56.709Z" transform="translate(41.598 11.241)" fill="#fff"/>
    <path id="Caminho_3480" data-name="Caminho 3480" d="M42.964,72.014,22.74,36.985l.657-.375L43.621,71.639Z" transform="translate(6.785 31.34)" fill="#fff"/>
    <path id="Caminho_3481" data-name="Caminho 3481" d="M76.449,13.33,75.722,14.6H38.933L20.562,46.388H18.873L17.7,48.453l1.173,2.041h2.37l1.173-2.041-.845-1.5L39.59,15.723H75.464l.985,1.713H78.8l1.2-2.041L78.8,13.33Z" transform="translate(0)" fill="#008082"/>
    <path id="Caminho_3482" data-name="Caminho 3482" d="M96.992,46.231,95.819,44.19h-2.37l-1.173,2.041.845,1.478L75.1,78.937H39.228l-.985-1.713H35.9l-1.2,2.065,1.2,2.041h2.346l.727-1.243H75.759L94.13,48.272h1.689Z" transform="translate(22.886 41.544)" fill="#008082"/>
    <g id="Grupo_2356" data-name="Grupo 2356" transform="translate(17.7 13.353)" clip-path="url(#clip-path)">
      <path id="Caminho_3483" data-name="Caminho 3483" d="M50.66,61.64H36.255a4.248,4.248,0,0,1-4.082-2.229,1.8,1.8,0,0,1,.164-2.205c3.871-4.622,5.279-9.995,5.209-15.954A13.024,13.024,0,0,1,49.206,27.925,13.168,13.168,0,0,1,63.518,38.413a16.82,16.82,0,0,1,.375,3.918,22.2,22.2,0,0,0,4.88,14.523,2.941,2.941,0,0,1-1.666,4.5,7.057,7.057,0,0,1-2.205.305c-4.763.023-9.5,0-14.265,0" transform="translate(1.378 6.189)" fill="#fff"/>
    </g>
    <g id="Grupo_2357" data-name="Grupo 2357" transform="translate(17.7 13.353)" clip-path="url(#clip-path)">
      <path id="Caminho_3484" data-name="Caminho 3484" d="M42.97,43.049a13.825,13.825,0,0,1,2.792.047c.751.164,1.83.54,2.041,1.1a2.89,2.89,0,0,1-.493,2.393,5.788,5.788,0,0,1-9.361-.587A1.89,1.89,0,0,1,39.591,43.1a32.455,32.455,0,0,1,3.379,0h0Z" transform="translate(9.139 26.586)" fill="#fff"/>
    </g>
    <g id="Grupo_2358" data-name="Grupo 2358" transform="translate(17.7 13.353)" clip-path="url(#clip-path)">
      <path id="Caminho_3485" data-name="Caminho 3485" d="M50.912,47.294a3.161,3.161,0,0,1-3.238-3.355v-3.5h0l-1.549-.023H44.061a3.2,3.2,0,0,1-2.37-.938,3.263,3.263,0,0,1-.892-2.323,3.131,3.131,0,0,1,3.261-3.214h3.613V30.425a3.251,3.251,0,1,1,6.5,0v3.543h3.613a3.258,3.258,0,0,1,2.346.915,3.3,3.3,0,0,1,.915,2.346,3.131,3.131,0,0,1-3.261,3.214H54.173v3.519a3.161,3.161,0,0,1-3.238,3.355h0Z" transform="translate(13.397 5.143)" fill="#fff"/>
    </g>
    <g id="Grupo_2359" data-name="Grupo 2359" transform="translate(17.7 13.353)" clip-path="url(#clip-path)">
      <path id="Caminho_3486" data-name="Caminho 3486" d="M51.774,26.41h0a4.693,4.693,0,0,0-4.763,4.88v1.994H44.923A4.612,4.612,0,0,0,40.16,38a4.691,4.691,0,0,0,4.786,4.833h2.065v2.018a4.764,4.764,0,1,0,9.526-.023V42.833h2.088a4.626,4.626,0,0,0,4.763-4.716A4.691,4.691,0,0,0,58.6,33.284H56.513V31.267A4.66,4.66,0,0,0,51.75,26.41m0,3.05a1.636,1.636,0,0,1,1.713,1.83v5.044h5.115a1.621,1.621,0,0,1,1.76,1.736A1.6,1.6,0,0,1,58.6,39.76H53.486V44.8a1.625,1.625,0,0,1-1.713,1.83h0a1.636,1.636,0,0,1-1.713-1.83V39.76H44.946a1.621,1.621,0,0,1-1.76-1.736,1.6,1.6,0,0,1,1.736-1.689h5.138V31.29a1.625,1.625,0,0,1,1.713-1.83h0" transform="translate(12.536 4.255)" fill="#008082"/>
    </g>
    <g id="Grupo_2360" data-name="Grupo 2360" transform="translate(110.774 139.063)">
      <path id="Caminho_3487" data-name="Caminho 3487" d="M70.157,83.863v1.642H57.37V67.44H69.758v1.642H59.27v6.429h9.338V77.13H59.27v6.71H70.133Z" transform="translate(-57.37 -66.22)" fill="#1d1d1b"/>
      <path id="Caminho_3488" data-name="Caminho 3488" d="M63.68,81.463l.821-1.455a8.227,8.227,0,0,0,4.833,1.525c2.581,0,3.637-.868,3.637-2.229,0-3.543-8.8-.751-8.8-6.124,0-2.229,1.9-3.871,5.373-3.871a9.26,9.26,0,0,1,4.81,1.267l-.8,1.478a7.031,7.031,0,0,0-4.012-1.173c-2.44,0-3.543.962-3.543,2.252,0,3.66,8.8.892,8.8,6.124,0,2.346-2.065,3.871-5.607,3.871a9.115,9.115,0,0,1-5.514-1.666Z" transform="translate(-48.875 -63.703)" fill="#1d1d1b"/>
      <path id="Caminho_3489" data-name="Caminho 3489" d="M78.214,83.806a4.313,4.313,0,0,1-2.862.962,3.59,3.59,0,0,1-3.965-3.942V72.615H68.97V71.066h2.417V68.11h1.83v2.956h4.129v1.549H73.217v8.118a2.18,2.18,0,0,0,2.346,2.487,3.021,3.021,0,0,0,2.018-.7l.657,1.314Z" transform="translate(-41.754 -65.318)" fill="#1d1d1b"/>
      <path id="Caminho_3490" data-name="Caminho 3490" d="M81.181,69.333v1.783c-.164,0-.305-.023-.446-.023-2.839,0-4.575,1.807-4.575,5v6.921H74.33V69.427h1.76v2.651c.845-1.807,2.581-2.769,5.091-2.769Z" transform="translate(-34.538 -63.703)" fill="#1d1d1b"/>
      <path id="Caminho_3491" data-name="Caminho 3491" d="M91.055,69.373V82.958h-1.76V80.471a5.439,5.439,0,0,1-4.88,2.6c-3.449,0-5.725-1.947-5.725-5.842V69.35h1.83v7.7c0,2.886,1.5,4.364,4.082,4.364,2.839,0,4.622-1.83,4.622-4.927V69.35h1.83Z" transform="translate(-28.669 -63.649)" fill="#1d1d1b"/>
      <path id="Caminho_3492" data-name="Caminho 3492" d="M94.494,83.806a4.313,4.313,0,0,1-2.862.962,3.59,3.59,0,0,1-3.965-3.942V72.615H85.25V71.066h2.417V68.11H89.5v2.956h4.129v1.549H89.5v8.118a2.18,2.18,0,0,0,2.346,2.487,3.021,3.021,0,0,0,2.018-.7l.657,1.314Z" transform="translate(-19.838 -65.318)" fill="#1d1d1b"/>
      <path id="Caminho_3493" data-name="Caminho 3493" d="M102.925,69.373V82.958h-1.76V80.471a5.413,5.413,0,0,1-4.88,2.6c-3.449,0-5.725-1.947-5.725-5.842V69.35h1.83v7.7c0,2.886,1.5,4.364,4.082,4.364,2.839,0,4.622-1.83,4.622-4.927V69.35h1.83Z" transform="translate(-12.689 -63.649)" fill="#1d1d1b"/>
      <path id="Caminho_3494" data-name="Caminho 3494" d="M104.861,69.333v1.783c-.164,0-.305-.023-.446-.023-2.839,0-4.575,1.807-4.575,5v6.921H98.01V69.427h1.76v2.651c.845-1.807,2.581-2.769,5.091-2.769Z" transform="translate(-2.66 -63.703)" fill="#1d1d1b"/>
      <path id="Caminho_3495" data-name="Caminho 3495" d="M113.219,74.562v8.423h-1.76V80.873a5.1,5.1,0,0,1-4.669,2.252c-3.074,0-4.951-1.6-4.951-3.942,0-2.088,1.337-3.848,5.232-3.848h4.317v-.821c0-2.323-1.314-3.59-3.848-3.59a6.943,6.943,0,0,0-4.528,1.6l-.821-1.361a8.526,8.526,0,0,1,5.514-1.83c3.519,0,5.49,1.76,5.49,5.256Zm-1.83,4.34V76.674h-4.27c-2.628,0-3.5,1.032-3.5,2.417,0,1.572,1.267,2.557,3.425,2.557a4.278,4.278,0,0,0,4.317-2.769Z" transform="translate(2.496 -63.676)" fill="#1d1d1b"/>
      <path id="Caminho_3496" data-name="Caminho 3496" d="M112.81,68.28a1.312,1.312,0,0,1,1.337-1.29,1.293,1.293,0,0,1,1.337,1.267,1.337,1.337,0,0,1-2.675.023Zm.422,4.294h1.83V86.159h-1.83Z" transform="translate(17.264 -66.826)" fill="#1d1d1b"/>
      <path id="Caminho_3497" data-name="Caminho 3497" d="M129.109,67V86.149h-1.76V83.474a5.886,5.886,0,0,1-5.232,2.815,6.911,6.911,0,0,1,0-13.819,5.964,5.964,0,0,1,5.162,2.675V66.98h1.83ZM127.3,79.368a5.062,5.062,0,1,0-5.044,5.3A4.956,4.956,0,0,0,127.3,79.368Z" transform="translate(20.697 -66.839)" fill="#1d1d1b"/>
      <path id="Caminho_3498" data-name="Caminho 3498" d="M136.006,76.781H124.65A5.022,5.022,0,0,0,130,81.5a5.33,5.33,0,0,0,4.153-1.783l1.032,1.2a6.664,6.664,0,0,1-5.232,2.229,6.734,6.734,0,0,1-7.132-6.921,6.542,6.542,0,0,1,6.64-6.9c3.824,0,6.593,2.815,6.593,6.9,0,.164-.023.352-.023.563ZM124.65,75.42h9.619a4.831,4.831,0,0,0-9.643,0Z" transform="translate(30.739 -63.689)" fill="#1d1d1b"/>
      <path id="Caminho_3499" data-name="Caminho 3499" d="M142.532,75.115V83H140.7V75.3c0-2.862-1.5-4.34-4.082-4.34-2.909,0-4.739,1.807-4.739,4.9V83h-1.83V69.414h1.76v2.51a5.731,5.731,0,0,1,5.162-2.6c3.308,0,5.584,1.9,5.584,5.819Z" transform="translate(40.473 -63.689)" fill="#1d1d1b"/>
      <path id="Caminho_3500" data-name="Caminho 3500" d="M145.844,83.806a4.313,4.313,0,0,1-2.862.962,3.59,3.59,0,0,1-3.965-3.942V72.615H136.6V71.066h2.417V68.11h1.83v2.956h4.129v1.549h-4.129v8.118a2.18,2.18,0,0,0,2.346,2.487,3.022,3.022,0,0,0,2.018-.7l.657,1.314Z" transform="translate(49.29 -65.318)" fill="#1d1d1b"/>
      <path id="Caminho_3501" data-name="Caminho 3501" d="M141.78,68.28a1.312,1.312,0,0,1,1.337-1.29,1.293,1.293,0,0,1,1.337,1.267,1.337,1.337,0,0,1-2.675.023Zm.422,4.294h1.83V86.159H142.2Z" transform="translate(56.264 -66.826)" fill="#1d1d1b"/>
      <path id="Caminho_3502" data-name="Caminho 3502" d="M150.529,66.943a4.375,4.375,0,0,1,2.722.845l-.61,1.361a3.085,3.085,0,0,0-2.018-.68c-1.572,0-2.393.868-2.393,2.557v1.6h4.176V74.17h-4.129V86.206h-1.83V74.17H144.03V72.621h2.417V70.955a3.755,3.755,0,0,1,4.106-4.035Zm8.681,1.384a1.339,1.339,0,1,1-1.337-1.267A1.293,1.293,0,0,1,159.21,68.328Zm-2.276,4.317h1.83V86.229h-1.83Z" transform="translate(59.293 -66.92)" fill="#1d1d1b"/>
      <path id="Caminho_3503" data-name="Caminho 3503" d="M151.9,76.208a6.678,6.678,0,0,1,6.992-6.9,6,6,0,0,1,5.326,2.675l-1.361.938a4.638,4.638,0,0,0-3.942-2.018,5.293,5.293,0,0,0,0,10.581,4.533,4.533,0,0,0,3.942-1.994l1.361.938a5.975,5.975,0,0,1-5.326,2.675,6.7,6.7,0,0,1-6.992-6.921Z" transform="translate(69.887 -63.703)" fill="#1d1d1b"/>
      <path id="Caminho_3504" data-name="Caminho 3504" d="M169.579,74.562v8.423h-1.76V80.873a5.1,5.1,0,0,1-4.669,2.252c-3.074,0-4.951-1.6-4.951-3.942,0-2.088,1.337-3.848,5.232-3.848h4.317v-.821c0-2.323-1.314-3.59-3.848-3.59a6.943,6.943,0,0,0-4.528,1.6l-.821-1.361a8.525,8.525,0,0,1,5.514-1.83c3.519,0,5.49,1.76,5.49,5.256Zm-1.83,4.34V76.674h-4.27c-2.628,0-3.5,1.032-3.5,2.417,0,1.572,1.267,2.557,3.425,2.557a4.278,4.278,0,0,0,4.317-2.769Z" transform="translate(78.368 -63.676)" fill="#1d1d1b"/>
      <path id="Caminho_3505" data-name="Caminho 3505" d="M182.5,67V86.149h-1.76V83.474a5.886,5.886,0,0,1-5.232,2.815,6.911,6.911,0,0,1,0-13.819,5.964,5.964,0,0,1,5.162,2.675V66.98h1.83Zm-1.807,12.365a5.062,5.062,0,1,0-5.044,5.3A4.956,4.956,0,0,0,180.692,79.368Z" transform="translate(92.571 -66.839)" fill="#1d1d1b"/>
      <path id="Caminho_3506" data-name="Caminho 3506" d="M189.386,76.781H178.03a5.022,5.022,0,0,0,5.349,4.716,5.331,5.331,0,0,0,4.153-1.783l1.032,1.2a6.664,6.664,0,0,1-5.232,2.229,6.734,6.734,0,0,1-7.132-6.921,6.542,6.542,0,0,1,6.64-6.9c3.824,0,6.593,2.815,6.593,6.9,0,.164-.023.352-.023.563ZM178.03,75.42h9.619a4.831,4.831,0,0,0-9.643,0Z" transform="translate(102.6 -63.689)" fill="#1d1d1b"/>
      <path id="Caminho_3507" data-name="Caminho 3507" d="M210.006,75.115V83h-1.83V75.3c0-2.862-1.455-4.34-3.895-4.34-2.792,0-4.552,1.807-4.552,4.9V83H197.9V75.3c0-2.862-1.455-4.34-3.918-4.34-2.768,0-4.552,1.807-4.552,4.9V83H187.6V69.414h1.76V71.9a5.5,5.5,0,0,1,4.974-2.581,4.866,4.866,0,0,1,4.833,2.862,5.9,5.9,0,0,1,5.373-2.862c3.308,0,5.467,1.9,5.467,5.819Z" transform="translate(117.947 -63.689)" fill="#1d1d1b"/>
      <path id="Caminho_3508" data-name="Caminho 3508" d="M198.71,76.208a6.91,6.91,0,1,1,6.921,6.921A6.673,6.673,0,0,1,198.71,76.208Zm11.942,0a5.062,5.062,0,1,0-5.044,5.3A4.943,4.943,0,0,0,210.652,76.208Z" transform="translate(132.903 -63.703)" fill="#1d1d1b"/>
      <path id="Caminho_3509" data-name="Caminho 3509" d="M219.359,67V86.149H217.6V83.474a5.886,5.886,0,0,1-5.232,2.815,6.911,6.911,0,0,1,0-13.819,5.964,5.964,0,0,1,5.162,2.675V66.98h1.83Zm-1.807,12.365a5.062,5.062,0,1,0-5.044,5.3A4.956,4.956,0,0,0,217.552,79.368Z" transform="translate(142.192 -66.839)" fill="#1d1d1b"/>
      <path id="Caminho_3510" data-name="Caminho 3510" d="M213.06,76.208a6.91,6.91,0,1,1,6.921,6.921A6.673,6.673,0,0,1,213.06,76.208Zm11.942,0a5.062,5.062,0,1,0-5.044,5.3A4.943,4.943,0,0,0,225,76.208Z" transform="translate(152.222 -63.703)" fill="#1d1d1b"/>
      <path id="Caminho_3511" data-name="Caminho 3511" d="M237.015,69.373V82.958h-1.76V80.471a5.439,5.439,0,0,1-4.88,2.6c-3.449,0-5.725-1.947-5.725-5.842V69.35h1.83v7.7c0,2.886,1.5,4.364,4.082,4.364,2.839,0,4.622-1.83,4.622-4.927V69.35h1.83Z" transform="translate(167.824 -63.649)" fill="#1d1d1b"/>
      <path id="Caminho_3512" data-name="Caminho 3512" d="M244.6,75.115V83h-1.83V75.3c0-2.862-1.5-4.34-4.082-4.34-2.909,0-4.739,1.807-4.739,4.9V83h-1.83V69.414h1.76v2.51a5.731,5.731,0,0,1,5.162-2.6c3.308,0,5.584,1.9,5.584,5.819Z" transform="translate(177.88 -63.689)" fill="#1d1d1b"/>
      <path id="Caminho_3513" data-name="Caminho 3513" d="M239.38,68.28a1.312,1.312,0,0,1,1.337-1.29,1.293,1.293,0,0,1,1.337,1.267,1.337,1.337,0,0,1-2.675.023Zm.422,4.294h1.83V86.159H239.8Z" transform="translate(187.654 -66.826)" fill="#1d1d1b"/>
      <path id="Caminho_3514" data-name="Caminho 3514" d="M245.82,71.036v1.6H250V74.18h-4.129V86.216h-1.83V74.18H241.62V72.631h2.417V70.965a3.755,3.755,0,0,1,4.106-4.035,4.375,4.375,0,0,1,2.722.845l-.61,1.361a3.085,3.085,0,0,0-2.018-.68c-1.572,0-2.393.868-2.393,2.557Z" transform="translate(190.669 -66.907)" fill="#1d1d1b"/>
      <path id="Caminho_3515" data-name="Caminho 3515" d="M245.58,76.208a6.91,6.91,0,1,1,6.921,6.921A6.673,6.673,0,0,1,245.58,76.208Zm11.942,0a5.062,5.062,0,1,0-5.044,5.3A4.943,4.943,0,0,0,257.522,76.208Z" transform="translate(196 -63.703)" fill="#1d1d1b"/>
      <path id="Caminho_3516" data-name="Caminho 3516" d="M259.9,69.333v1.783c-.164,0-.305-.023-.446-.023-2.839,0-4.575,1.807-4.575,5v6.921h-1.83V69.427h1.76v2.651c.845-1.807,2.581-2.769,5.091-2.769Z" transform="translate(206.056 -63.703)" fill="#1d1d1b"/>
      <path id="Caminho_3517" data-name="Caminho 3517" d="M279.8,75.115V83h-1.83V75.3c0-2.862-1.455-4.34-3.895-4.34-2.792,0-4.552,1.807-4.552,4.9V83h-1.83V75.3c0-2.862-1.455-4.34-3.918-4.34-2.768,0-4.552,1.807-4.552,4.9V83h-1.83V69.414h1.76V71.9a5.494,5.494,0,0,1,4.974-2.581,4.866,4.866,0,0,1,4.833,2.862,5.9,5.9,0,0,1,5.373-2.862c3.308,0,5.467,1.9,5.467,5.819Z" transform="translate(211.899 -63.689)" fill="#1d1d1b"/>
      <path id="Caminho_3518" data-name="Caminho 3518" d="M281.686,76.781H270.33a5.022,5.022,0,0,0,5.349,4.716,5.33,5.33,0,0,0,4.153-1.783l1.032,1.2a6.664,6.664,0,0,1-5.232,2.229,6.734,6.734,0,0,1-7.133-6.921,6.542,6.542,0,0,1,6.64-6.9c3.824,0,6.593,2.815,6.593,6.9,0,.164-.023.352-.023.563ZM270.33,75.42h9.62a4.831,4.831,0,0,0-9.643,0Z" transform="translate(226.855 -63.689)" fill="#1d1d1b"/>
      <path id="Caminho_3519" data-name="Caminho 3519" d="M278.81,71.88h12.9v1.314h-12.9Z" transform="translate(240.735 -60.243)" fill="#1d1d1b"/>
      <path id="Caminho_3520" data-name="Caminho 3520" d="M301.865,69.373V82.958H300.1V80.471a5.413,5.413,0,0,1-4.88,2.6c-3.449,0-5.725-1.947-5.725-5.842V69.35h1.83v7.7c0,2.886,1.5,4.364,4.082,4.364,2.839,0,4.622-1.83,4.622-4.927V69.35h1.83Z" transform="translate(255.126 -63.649)" fill="#1d1d1b"/>
      <path id="Caminho_3521" data-name="Caminho 3521" d="M309.442,75.115V83h-1.83V75.3c0-2.862-1.5-4.34-4.082-4.34-2.909,0-4.739,1.807-4.739,4.9V83h-1.83V69.414h1.76v2.51a5.731,5.731,0,0,1,5.162-2.6c3.308,0,5.584,1.9,5.584,5.819Z" transform="translate(265.169 -63.689)" fill="#1d1d1b"/>
      <path id="Caminho_3522" data-name="Caminho 3522" d="M304.23,68.28a1.312,1.312,0,0,1,1.337-1.29,1.293,1.293,0,0,1,1.337,1.267,1.337,1.337,0,0,1-2.675.023Zm.422,4.294h1.83V86.159h-1.83Z" transform="translate(274.956 -66.826)" fill="#1d1d1b"/>
      <path id="Caminho_3523" data-name="Caminho 3523" d="M315.714,83.806a4.313,4.313,0,0,1-2.862.962,3.59,3.59,0,0,1-3.965-3.942V72.615H306.47V71.066h2.417V68.11h1.83v2.956h4.129v1.549h-4.129v8.118a2.18,2.18,0,0,0,2.346,2.487,3.021,3.021,0,0,0,2.018-.7l.657,1.314Z" transform="translate(277.971 -65.318)" fill="#1d1d1b"/>
      <path id="Caminho_3524" data-name="Caminho 3524" d="M322.729,77.551v8.423h-1.76V83.862a5.1,5.1,0,0,1-4.669,2.252c-3.073,0-4.95-1.6-4.95-3.942,0-2.088,1.337-3.848,5.232-3.848H320.9V77.5c0-2.323-1.314-3.59-3.848-3.59a6.943,6.943,0,0,0-4.528,1.6l-.821-1.361a8.526,8.526,0,0,1,5.514-1.83c3.519,0,5.49,1.76,5.49,5.256Zm-1.83,4.34V79.662h-4.27c-2.628,0-3.5,1.032-3.5,2.417,0,1.572,1.267,2.557,3.425,2.557a4.278,4.278,0,0,0,4.317-2.769ZM317.4,70.3H315.6l3.543-3.191H321.6L317.427,70.3Z" transform="translate(284.541 -66.664)" fill="#1d1d1b"/>
      <path id="Caminho_3525" data-name="Caminho 3525" d="M325.161,69.333v1.783c-.164,0-.3-.023-.446-.023-2.839,0-4.575,1.807-4.575,5v6.921h-1.83V69.427h1.76v2.651c.845-1.807,2.581-2.769,5.091-2.769Z" transform="translate(293.91 -63.703)" fill="#1d1d1b"/>
      <path id="Caminho_3526" data-name="Caminho 3526" d="M322.48,68.28a1.312,1.312,0,0,1,1.337-1.29,1.293,1.293,0,0,1,1.337,1.267,1.337,1.337,0,0,1-2.675.023Zm.422,4.294h1.83V86.159H322.9Z" transform="translate(299.524 -66.826)" fill="#1d1d1b"/>
      <path id="Caminho_3527" data-name="Caminho 3527" d="M325.03,76.208a6.91,6.91,0,1,1,6.921,6.921A6.673,6.673,0,0,1,325.03,76.208Zm11.942,0a5.062,5.062,0,1,0-5.044,5.3A4.943,4.943,0,0,0,336.972,76.208Z" transform="translate(302.957 -63.703)" fill="#1d1d1b"/>
      <path id="Caminho_3528" data-name="Caminho 3528" d="M349.286,76.781H337.93a5.022,5.022,0,0,0,5.349,4.716,5.33,5.33,0,0,0,4.153-1.783l1.032,1.2a6.664,6.664,0,0,1-5.232,2.229,6.734,6.734,0,0,1-7.133-6.921,6.542,6.542,0,0,1,6.64-6.9c3.824,0,6.593,2.815,6.593,6.9,0,.164-.023.352-.023.563ZM337.93,75.42h9.62a4.831,4.831,0,0,0-9.643,0Z" transform="translate(317.859 -63.689)" fill="#1d1d1b"/>
      <path id="Caminho_3529" data-name="Caminho 3529" d="M359.8,69.373V82.958h-1.76V80.471a5.439,5.439,0,0,1-4.88,2.6c-3.449,0-5.725-1.947-5.725-5.842V69.35h1.83v7.7c0,2.886,1.5,4.364,4.082,4.364,2.839,0,4.622-1.83,4.622-4.927V69.35h1.83Z" transform="translate(333.125 -63.649)" fill="#1d1d1b"/>
      <path id="Caminho_3530" data-name="Caminho 3530" d="M367.382,75.115V83h-1.83V75.3c0-2.862-1.5-4.34-4.082-4.34-2.909,0-4.739,1.807-4.739,4.9V83H354.9V69.414h1.76v2.51a5.731,5.731,0,0,1,5.162-2.6c3.308,0,5.584,1.9,5.584,5.819Z" transform="translate(343.168 -63.689)" fill="#1d1d1b"/>
      <path id="Caminho_3531" data-name="Caminho 3531" d="M365.563,67.11H368L363.827,70.3H362.02l3.543-3.191Zm-2.792,5.279h1.83V85.974h-1.83Z" transform="translate(352.753 -66.664)" fill="#1d1d1b"/>
      <path id="Caminho_3532" data-name="Caminho 3532" d="M378.143,69.36l-6.03,13.585h-1.877L364.23,69.36h1.9l5.091,11.567L376.36,69.36h1.807Z" transform="translate(355.728 -63.635)" fill="#1d1d1b"/>
      <path id="Caminho_3533" data-name="Caminho 3533" d="M370.52,76.208a6.91,6.91,0,1,1,6.921,6.921A6.673,6.673,0,0,1,370.52,76.208Zm11.942,0a5.062,5.062,0,1,0-5.044,5.3A4.943,4.943,0,0,0,382.462,76.208Z" transform="translate(364.196 -63.703)" fill="#1d1d1b"/>
      <path id="Caminho_3534" data-name="Caminho 3534" d="M377.42,76.208a6.678,6.678,0,0,1,6.992-6.9,6,6,0,0,1,5.326,2.675l-1.361.938a4.638,4.638,0,0,0-3.942-2.018,5.293,5.293,0,0,0,0,10.581,4.534,4.534,0,0,0,3.942-1.994l1.361.938a5.975,5.975,0,0,1-5.326,2.675,6.7,6.7,0,0,1-6.992-6.921Z" transform="translate(373.485 -63.703)" fill="#1d1d1b"/>
      <path id="Caminho_3535" data-name="Caminho 3535" d="M383.53,76.208a6.91,6.91,0,1,1,6.921,6.921A6.673,6.673,0,0,1,383.53,76.208Zm11.942,0a5.062,5.062,0,1,0-5.044,5.3A4.943,4.943,0,0,0,395.472,76.208Z" transform="translate(381.71 -63.703)" fill="#1d1d1b"/>
      <path id="Caminho_3536" data-name="Caminho 3536" d="M394.09,71.88h12.9v1.314h-12.9Z" transform="translate(395.926 -60.243)" fill="#1d1d1b"/>
      <path id="Caminho_3537" data-name="Caminho 3537" d="M404.25,76.208a6.91,6.91,0,1,1,6.921,6.921A6.673,6.673,0,0,1,404.25,76.208Zm11.942,0a5.062,5.062,0,1,0-5.044,5.3A4.943,4.943,0,0,0,416.192,76.208Z" transform="translate(409.603 -63.703)" fill="#1d1d1b"/>
      <path id="Caminho_3538" data-name="Caminho 3538" d="M429.649,76.208a6.574,6.574,0,0,1-6.757,6.921,5.964,5.964,0,0,1-5.162-2.675v7.555H415.9V69.427h1.76V72.1a5.916,5.916,0,0,1,5.232-2.792A6.568,6.568,0,0,1,429.649,76.208Zm-1.83,0a5.073,5.073,0,1,0-5.068,5.3A5,5,0,0,0,427.819,76.208Z" transform="translate(425.287 -63.703)" fill="#1d1d1b"/>
      <path id="Caminho_3539" data-name="Caminho 3539" d="M430.2,69.333v1.783c-.164,0-.3-.023-.446-.023-2.839,0-4.575,1.807-4.575,5v6.921h-1.83V69.427h1.76v2.651c.845-1.807,2.581-2.769,5.091-2.769Z" transform="translate(435.316 -63.703)" fill="#1d1d1b"/>
      <path id="Caminho_3540" data-name="Caminho 3540" d="M427.05,76.208a6.91,6.91,0,1,1,6.921,6.921A6.673,6.673,0,0,1,427.05,76.208Zm11.942,0a5.062,5.062,0,1,0-5.044,5.3A4.943,4.943,0,0,0,438.992,76.208Z" transform="translate(440.297 -63.703)" fill="#1d1d1b"/>
      <path id="Caminho_3541" data-name="Caminho 3541" d="M433.95,76.208a6.678,6.678,0,0,1,6.992-6.9,6,6,0,0,1,5.326,2.675l-1.361.938a4.638,4.638,0,0,0-3.942-2.018,5.293,5.293,0,0,0,0,10.581,4.533,4.533,0,0,0,3.942-1.994l1.361.938a5.975,5.975,0,0,1-5.326,2.675,6.7,6.7,0,0,1-6.992-6.921Z" transform="translate(449.586 -63.703)" fill="#1d1d1b"/>
      <path id="Caminho_3542" data-name="Caminho 3542" d="M453.246,76.781H441.89a5.022,5.022,0,0,0,5.349,4.716,5.33,5.33,0,0,0,4.153-1.783l1.032,1.2a6.664,6.664,0,0,1-5.232,2.229,6.734,6.734,0,0,1-7.133-6.921,6.542,6.542,0,0,1,6.64-6.9c3.824,0,6.593,2.815,6.593,6.9,0,.164-.024.352-.024.563ZM441.89,75.42h9.62a4.831,4.831,0,0,0-9.643,0Z" transform="translate(457.811 -63.689)" fill="#1d1d1b"/>
      <path id="Caminho_3543" data-name="Caminho 3543" d="M446.48,81.463l.821-1.455a8.227,8.227,0,0,0,4.833,1.525c2.581,0,3.637-.868,3.637-2.229,0-3.543-8.8-.751-8.8-6.124,0-2.229,1.9-3.871,5.373-3.871a9.26,9.26,0,0,1,4.81,1.267l-.8,1.478a7.031,7.031,0,0,0-4.012-1.173c-2.44,0-3.543.962-3.543,2.252,0,3.66,8.8.892,8.8,6.124,0,2.346-2.065,3.871-5.608,3.871A9.115,9.115,0,0,1,446.48,81.463Z" transform="translate(466.454 -63.703)" fill="#1d1d1b"/>
      <path id="Caminho_3544" data-name="Caminho 3544" d="M451.86,81.463l.821-1.455a8.227,8.227,0,0,0,4.833,1.525c2.581,0,3.637-.868,3.637-2.229,0-3.543-8.8-.751-8.8-6.124,0-2.229,1.9-3.871,5.373-3.871a9.26,9.26,0,0,1,4.81,1.267l-.8,1.478a7.031,7.031,0,0,0-4.012-1.173c-2.44,0-3.543.962-3.543,2.252,0,3.66,8.8.892,8.8,6.124,0,2.346-2.065,3.871-5.608,3.871A9.115,9.115,0,0,1,451.86,81.463Z" transform="translate(473.696 -63.703)" fill="#1d1d1b"/>
      <path id="Caminho_3545" data-name="Caminho 3545" d="M457.46,76.208a6.91,6.91,0,1,1,6.921,6.921A6.674,6.674,0,0,1,457.46,76.208Zm11.942,0a5.062,5.062,0,1,0-5.044,5.3A4.943,4.943,0,0,0,469.4,76.208Z" transform="translate(481.235 -63.703)" fill="#1d1d1b"/>
      <path id="Caminho_3546" data-name="Caminho 3546" d="M482.279,67V86.149h-1.76V83.474a5.886,5.886,0,0,1-5.232,2.815,6.911,6.911,0,0,1,0-13.819,5.963,5.963,0,0,1,5.162,2.675V66.98h1.83Zm-1.807,12.365a5.062,5.062,0,1,0-5.044,5.3A4.956,4.956,0,0,0,480.472,79.368Z" transform="translate(496.138 -66.839)" fill="#1d1d1b"/>
      <path id="Caminho_3547" data-name="Caminho 3547" d="M489.166,76.781H477.81A5.022,5.022,0,0,0,483.16,81.5a5.33,5.33,0,0,0,4.153-1.783l1.032,1.2a6.664,6.664,0,0,1-5.232,2.229,6.734,6.734,0,0,1-7.132-6.921,6.542,6.542,0,0,1,6.64-6.9c3.824,0,6.593,2.815,6.593,6.9,0,.164-.023.352-.023.563ZM477.81,75.42h9.62a4.831,4.831,0,0,0-9.643,0Z" transform="translate(506.167 -63.689)" fill="#1d1d1b"/>
    </g>
    <g id="Grupo_2361" data-name="Grupo 2361" transform="translate(109.249 181.413)">
      <path id="Caminho_3548" data-name="Caminho 3548" d="M68.1,92.562v8.423h-1.76V98.873a5.1,5.1,0,0,1-4.669,2.252c-3.074,0-4.951-1.6-4.951-3.942,0-2.088,1.337-3.848,5.232-3.848h4.317v-.821c0-2.323-1.314-3.59-3.848-3.59a6.943,6.943,0,0,0-4.528,1.6l-.821-1.361a8.525,8.525,0,0,1,5.514-1.83c3.519,0,5.49,1.76,5.49,5.256Zm-1.83,4.34V94.674H62c-2.628,0-3.5,1.032-3.5,2.417,0,1.572,1.267,2.557,3.425,2.557a4.279,4.279,0,0,0,4.317-2.769Z" transform="translate(-56.72 -81.793)" fill="#1d1d1b"/>
      <path id="Caminho_3549" data-name="Caminho 3549" d="M77.449,97.345a6.587,6.587,0,0,1-6.757,6.921,5.86,5.86,0,0,1-5.232-2.815v2.675H63.7V84.98h1.83v8.165a5.911,5.911,0,0,1,5.162-2.675,6.568,6.568,0,0,1,6.757,6.9Zm-1.83,0a5.073,5.073,0,1,0-5.068,5.3A4.987,4.987,0,0,0,75.619,97.345Z" transform="translate(-47.323 -84.957)" fill="#1d1d1b"/>
      <path id="Caminho_3550" data-name="Caminho 3550" d="M70.35,99.453,71.171,98A8.227,8.227,0,0,0,76,99.524c2.581,0,3.637-.868,3.637-2.229,0-3.543-8.8-.751-8.8-6.124,0-2.229,1.9-3.871,5.373-3.871a9.26,9.26,0,0,1,4.81,1.267l-.8,1.478a7.032,7.032,0,0,0-4.012-1.173c-2.44,0-3.543.962-3.543,2.252,0,3.66,8.8.892,8.8,6.124,0,2.346-2.065,3.871-5.607,3.871a9.115,9.115,0,0,1-5.514-1.666Z" transform="translate(-38.371 -81.833)" fill="#1d1d1b"/>
      <path id="Caminho_3551" data-name="Caminho 3551" d="M84.884,101.8a4.313,4.313,0,0,1-2.862.962,3.59,3.59,0,0,1-3.965-3.942V90.6H75.64V89.056h2.417V86.1h1.83v2.956h4.129V90.6H79.887v8.118a2.18,2.18,0,0,0,2.346,2.487,3.022,3.022,0,0,0,2.018-.7l.657,1.314Z" transform="translate(-31.25 -83.449)" fill="#1d1d1b"/>
      <path id="Caminho_3552" data-name="Caminho 3552" d="M87.841,87.323v1.783c-.164,0-.3-.023-.446-.023-2.839,0-4.575,1.807-4.575,5V101H80.99V87.417h1.76v2.651c.845-1.807,2.581-2.769,5.091-2.769Z" transform="translate(-24.047 -81.833)" fill="#1d1d1b"/>
      <path id="Caminho_3553" data-name="Caminho 3553" d="M96.219,92.562v8.423h-1.76V98.873a5.1,5.1,0,0,1-4.669,2.252c-3.074,0-4.951-1.6-4.951-3.942,0-2.088,1.337-3.848,5.232-3.848h4.317v-.821c0-2.323-1.314-3.59-3.848-3.59a6.943,6.943,0,0,0-4.528,1.6l-.821-1.361a8.525,8.525,0,0,1,5.514-1.83c3.519,0,5.49,1.76,5.49,5.256Zm-1.83,4.34V94.674h-4.27c-2.628,0-3.5,1.032-3.5,2.417,0,1.572,1.267,2.557,3.425,2.557a4.279,4.279,0,0,0,4.317-2.769Z" transform="translate(-18.865 -81.793)" fill="#1d1d1b"/>
      <path id="Caminho_3554" data-name="Caminho 3554" d="M102.17,97.516l1.361.938a5.975,5.975,0,0,1-5.326,2.675h-.047l-.3,1.22a2.119,2.119,0,0,1,2.205,2.088c0,1.384-1.2,2.252-2.909,2.252a3.814,3.814,0,0,1-2.159-.587l.446-.985a3.106,3.106,0,0,0,1.713.493c1.032,0,1.6-.446,1.6-1.22,0-.7-.516-1.2-1.6-1.2h-.587l.563-2.135A6.915,6.915,0,0,1,98.252,87.31a6,6,0,0,1,5.326,2.675l-1.361.938a4.638,4.638,0,0,0-3.942-2.018,5.293,5.293,0,0,0,0,10.581,4.534,4.534,0,0,0,3.942-1.994Z" transform="translate(-10.222 -81.82)" fill="#1d1d1b"/>
      <path id="Caminho_3555" data-name="Caminho 3555" d="M108.919,95.5v8.423h-1.76v-2.112a5.1,5.1,0,0,1-4.669,2.252c-3.074,0-4.951-1.6-4.951-3.942,0-2.088,1.337-3.848,5.232-3.848h4.317V95.45c0-2.323-1.314-3.59-3.848-3.59a6.943,6.943,0,0,0-4.528,1.6l-.821-1.361a8.526,8.526,0,0,1,5.514-1.83c3.519,0,5.49,1.76,5.49,5.256Zm-1.83,4.34V97.608h-4.27c-2.628,0-3.5,1.032-3.5,2.417,0,1.572,1.267,2.557,3.425,2.557a4.278,4.278,0,0,0,4.317-2.769ZM100.5,87.989h-1.1c.047-1.736.962-2.839,2.323-2.839,1.6,0,2.37,1.76,3.379,1.76.774,0,1.29-.61,1.337-1.6h1.1c-.047,1.689-.962,2.792-2.323,2.792-1.6,0-2.346-1.76-3.379-1.76C101.059,86.347,100.543,86.957,100.5,87.989Z" transform="translate(-1.768 -84.728)" fill="#1d1d1b"/>
      <path id="Caminho_3556" data-name="Caminho 3556" d="M103.95,94.208a6.91,6.91,0,1,1,6.921,6.921A6.673,6.673,0,0,1,103.95,94.208Zm11.942,0a5.062,5.062,0,1,0-5.044,5.3A4.943,4.943,0,0,0,115.892,94.208Z" transform="translate(6.862 -81.82)" fill="#1d1d1b"/>
      <path id="Caminho_3557" data-name="Caminho 3557" d="M127.766,94.771H116.41a5.022,5.022,0,0,0,5.349,4.716,5.33,5.33,0,0,0,4.153-1.783l1.032,1.2a6.664,6.664,0,0,1-5.232,2.229,6.734,6.734,0,0,1-7.133-6.921,6.542,6.542,0,0,1,6.64-6.9c3.824,0,6.593,2.815,6.593,6.9,0,.164-.023.352-.023.563ZM116.41,93.41h9.619a4.831,4.831,0,0,0-9.643,0Z" transform="translate(21.172 -81.82)" fill="#1d1d1b"/>
      <path id="Caminho_3558" data-name="Caminho 3558" d="M144.216,93.115V101h-1.83V93.3c0-2.862-1.455-4.34-3.895-4.34-2.792,0-4.552,1.807-4.552,4.9V101h-1.83V93.3c0-2.862-1.455-4.34-3.918-4.34-2.769,0-4.552,1.807-4.552,4.9V101h-1.83V87.414h1.76V89.9a5.5,5.5,0,0,1,4.974-2.581,4.866,4.866,0,0,1,4.833,2.862,5.9,5.9,0,0,1,5.373-2.862c3.308,0,5.467,1.9,5.467,5.819Z" transform="translate(30.905 -81.806)" fill="#1d1d1b"/>
      <path id="Caminho_3559" data-name="Caminho 3559" d="M145.554,101.8a4.313,4.313,0,0,1-2.862.962,3.59,3.59,0,0,1-3.965-3.942V90.6H136.31V89.056h2.417V86.1h1.83v2.956h4.129V90.6h-4.129v8.118a2.18,2.18,0,0,0,2.346,2.487,3.021,3.021,0,0,0,2.018-.7l.657,1.314Z" transform="translate(50.425 -83.449)" fill="#1d1d1b"/>
      <path id="Caminho_3560" data-name="Caminho 3560" d="M140.89,94.208a6.91,6.91,0,1,1,6.921,6.921A6.673,6.673,0,0,1,140.89,94.208Zm11.942,0a5.062,5.062,0,1,0-5.044,5.3A4.943,4.943,0,0,0,152.832,94.208Z" transform="translate(56.591 -81.82)" fill="#1d1d1b"/>
      <path id="Caminho_3561" data-name="Caminho 3561" d="M161.539,84.993v19.145h-1.76v-2.675a5.886,5.886,0,0,1-5.232,2.815,6.911,6.911,0,0,1,0-13.819,5.964,5.964,0,0,1,5.162,2.675V84.97h1.83Zm-1.807,12.365a5.062,5.062,0,1,0-5.044,5.3A4.956,4.956,0,0,0,159.732,97.358Z" transform="translate(65.879 -84.97)" fill="#1d1d1b"/>
      <path id="Caminho_3562" data-name="Caminho 3562" d="M155.25,94.208a6.91,6.91,0,1,1,6.921,6.921A6.673,6.673,0,0,1,155.25,94.208Zm11.942,0a5.062,5.062,0,1,0-5.044,5.3A4.943,4.943,0,0,0,167.192,94.208Z" transform="translate(75.922 -81.82)" fill="#1d1d1b"/>
      <path id="Caminho_3563" data-name="Caminho 3563" d="M161.92,99.453,162.741,98a8.227,8.227,0,0,0,4.833,1.525c2.581,0,3.637-.868,3.637-2.229,0-3.543-8.8-.751-8.8-6.124,0-2.229,1.9-3.871,5.373-3.871a9.26,9.26,0,0,1,4.81,1.267l-.8,1.478a7.032,7.032,0,0,0-4.012-1.173c-2.44,0-3.543.962-3.543,2.252,0,3.66,8.8.892,8.8,6.124,0,2.346-2.065,3.871-5.607,3.871A9.115,9.115,0,0,1,161.92,99.453Z" transform="translate(84.901 -81.833)" fill="#1d1d1b"/>
      <path id="Caminho_3564" data-name="Caminho 3564" d="M171.25,94.208a6.91,6.91,0,1,1,6.921,6.921A6.673,6.673,0,0,1,171.25,94.208Zm11.942,0a5.062,5.062,0,1,0-5.044,5.3A4.943,4.943,0,0,0,183.192,94.208Z" transform="translate(97.462 -81.82)" fill="#1d1d1b"/>
      <path id="Caminho_3565" data-name="Caminho 3565" d="M177.93,99.453,178.751,98a8.228,8.228,0,0,0,4.833,1.525c2.581,0,3.637-.868,3.637-2.229,0-3.543-8.8-.751-8.8-6.124,0-2.229,1.9-3.871,5.373-3.871a9.26,9.26,0,0,1,4.81,1.267l-.8,1.478a7.031,7.031,0,0,0-4.012-1.173c-2.44,0-3.543.962-3.543,2.252,0,3.66,8.8.892,8.8,6.124,0,2.346-2.065,3.871-5.607,3.871A9.115,9.115,0,0,1,177.93,99.453Z" transform="translate(106.454 -81.833)" fill="#1d1d1b"/>
      <path id="Caminho_3566" data-name="Caminho 3566" d="M200.312,93.115V101h-1.83V93.3c0-2.862-1.5-4.34-4.082-4.34-2.909,0-4.739,1.807-4.739,4.9V101h-1.83V87.414h1.76v2.51a5.731,5.731,0,0,1,5.162-2.6c3.308,0,5.584,1.9,5.584,5.819Z" transform="translate(119.782 -81.806)" fill="#1d1d1b"/>
      <path id="Caminho_3567" data-name="Caminho 3567" d="M198.493,85.1h2.44l-4.176,3.191H194.95l3.543-3.191ZM195.7,90.379h1.83v13.585H195.7Z" transform="translate(129.367 -84.795)" fill="#1d1d1b"/>
      <path id="Caminho_3568" data-name="Caminho 3568" d="M211.083,87.36l-6.03,13.585h-1.877L197.17,87.36h1.9l5.091,11.567L209.3,87.36h1.807Z" transform="translate(132.355 -81.753)" fill="#1d1d1b"/>
      <path id="Caminho_3569" data-name="Caminho 3569" d="M216.646,94.771H205.29a5.022,5.022,0,0,0,5.349,4.716,5.331,5.331,0,0,0,4.153-1.783l1.032,1.2a6.664,6.664,0,0,1-5.232,2.229,6.734,6.734,0,0,1-7.132-6.921,6.542,6.542,0,0,1,6.64-6.9c3.824,0,6.593,2.815,6.593,6.9,0,.164-.023.352-.023.563ZM205.29,93.41h9.619a4.831,4.831,0,0,0-9.643,0Z" transform="translate(140.823 -81.82)" fill="#1d1d1b"/>
      <path id="Caminho_3570" data-name="Caminho 3570" d="M210.51,86.27a1.312,1.312,0,0,1,1.337-1.29,1.293,1.293,0,0,1,1.337,1.267,1.337,1.337,0,0,1-2.675.023Zm.422,4.294h1.83v13.585h-1.83Z" transform="translate(150.314 -84.957)" fill="#1d1d1b"/>
      <path id="Caminho_3571" data-name="Caminho 3571" d="M212.84,99.453,213.661,98a8.228,8.228,0,0,0,4.833,1.525c2.581,0,3.637-.868,3.637-2.229,0-3.543-8.8-.751-8.8-6.124,0-2.229,1.9-3.871,5.373-3.871a9.26,9.26,0,0,1,4.81,1.267l-.8,1.478a7.032,7.032,0,0,0-4.012-1.173c-2.44,0-3.543.962-3.543,2.252,0,3.66,8.8.892,8.8,6.124,0,2.346-2.065,3.871-5.607,3.871A9.115,9.115,0,0,1,212.84,99.453Z" transform="translate(153.45 -81.833)" fill="#1d1d1b"/>
      <path id="Caminho_3572" data-name="Caminho 3572" d="M235.919,84.993v19.145h-1.76v-2.675a5.886,5.886,0,0,1-5.232,2.815,6.911,6.911,0,0,1,0-13.819,5.964,5.964,0,0,1,5.162,2.675V84.97h1.83Zm-1.807,12.365a5.062,5.062,0,1,0-5.044,5.3A4.956,4.956,0,0,0,234.112,97.358Z" transform="translate(166.011 -84.97)" fill="#1d1d1b"/>
      <path id="Caminho_3573" data-name="Caminho 3573" d="M229.63,94.208a6.91,6.91,0,1,1,6.921,6.921A6.673,6.673,0,0,1,229.63,94.208Zm11.942,0a5.062,5.062,0,1,0-5.044,5.3A4.943,4.943,0,0,0,241.572,94.208Z" transform="translate(176.053 -81.82)" fill="#1d1d1b"/>
      <path id="Caminho_3574" data-name="Caminho 3574" d="M240.03,99.453,240.851,98a8.228,8.228,0,0,0,4.833,1.525c2.581,0,3.637-.868,3.637-2.229,0-3.543-8.8-.751-8.8-6.124,0-2.229,1.9-3.871,5.373-3.871a9.26,9.26,0,0,1,4.81,1.267l-.8,1.478a7.031,7.031,0,0,0-4.012-1.173c-2.44,0-3.543.962-3.543,2.252,0,3.66,8.8.892,8.8,6.124,0,2.346-2.065,3.871-5.607,3.871A9.115,9.115,0,0,1,240.03,99.453Z" transform="translate(190.054 -81.833)" fill="#1d1d1b"/>
      <path id="Caminho_3575" data-name="Caminho 3575" d="M258.816,94.771H247.46a5.022,5.022,0,0,0,5.349,4.716,5.331,5.331,0,0,0,4.153-1.783l1.032,1.2a6.664,6.664,0,0,1-5.232,2.229,6.734,6.734,0,0,1-7.132-6.921,6.542,6.542,0,0,1,6.64-6.9c3.824,0,6.593,2.815,6.593,6.9,0,.164-.023.352-.023.563ZM247.46,93.41h9.619a4.831,4.831,0,0,0-9.643,0Z" transform="translate(197.593 -81.82)" fill="#1d1d1b"/>
      <path id="Caminho_3576" data-name="Caminho 3576" d="M265.165,87.373v13.585H263.4V98.471a5.439,5.439,0,0,1-4.88,2.6c-3.449,0-5.725-1.947-5.725-5.842V87.35h1.83v7.7c0,2.886,1.5,4.364,4.082,4.364,2.839,0,4.622-1.83,4.622-4.927V87.35h1.83Z" transform="translate(207.245 -81.766)" fill="#1d1d1b"/>
      <path id="Caminho_3577" data-name="Caminho 3577" d="M277.159,84.993v19.145H275.4v-2.675a5.886,5.886,0,0,1-5.232,2.815,6.911,6.911,0,0,1,0-13.819,5.964,5.964,0,0,1,5.162,2.675V84.97h1.83Zm-1.807,12.365a5.062,5.062,0,1,0-5.044,5.3A4.956,4.956,0,0,0,275.352,97.358Z" transform="translate(221.528 -84.97)" fill="#1d1d1b"/>
      <path id="Caminho_3578" data-name="Caminho 3578" d="M284.056,94.771H272.7a5.022,5.022,0,0,0,5.349,4.716A5.33,5.33,0,0,0,282.2,97.7l1.032,1.2A6.664,6.664,0,0,1,278,101.129a6.734,6.734,0,0,1-7.133-6.921,6.542,6.542,0,0,1,6.64-6.9c3.824,0,6.593,2.815,6.593,6.9,0,.164-.023.352-.023.563ZM272.7,93.41h9.619a4.831,4.831,0,0,0-9.643,0Z" transform="translate(231.571 -81.82)" fill="#1d1d1b"/>
      <path id="Caminho_3579" data-name="Caminho 3579" d="M277.29,99.453,278.111,98a8.227,8.227,0,0,0,4.833,1.525c2.581,0,3.637-.868,3.637-2.229,0-3.543-8.8-.751-8.8-6.124,0-2.229,1.9-3.871,5.373-3.871a9.26,9.26,0,0,1,4.81,1.267l-.8,1.478a7.031,7.031,0,0,0-4.012-1.173c-2.44,0-3.543.962-3.543,2.252,0,3.66,8.8.892,8.8,6.124,0,2.346-2.065,3.871-5.607,3.871a9.116,9.116,0,0,1-5.514-1.666Z" transform="translate(240.214 -81.833)" fill="#1d1d1b"/>
      <path id="Caminho_3580" data-name="Caminho 3580" d="M296.076,94.771H284.72a5.022,5.022,0,0,0,5.349,4.716,5.33,5.33,0,0,0,4.153-1.783l1.032,1.2a6.664,6.664,0,0,1-5.232,2.229,6.734,6.734,0,0,1-7.133-6.921,6.542,6.542,0,0,1,6.64-6.9c3.824,0,6.593,2.815,6.593,6.9,0,.164-.023.352-.023.563ZM284.72,93.41h9.62a4.831,4.831,0,0,0-9.643,0Z" transform="translate(247.752 -81.82)" fill="#1d1d1b"/>
      <path id="Caminho_3581" data-name="Caminho 3581" d="M302.6,93.115V101h-1.83V93.3c0-2.862-1.5-4.34-4.082-4.34-2.909,0-4.739,1.807-4.739,4.9V101h-1.83V87.414h1.76v2.51a5.731,5.731,0,0,1,5.162-2.6c3.308,0,5.584,1.9,5.584,5.819Z" transform="translate(257.486 -81.806)" fill="#1d1d1b"/>
      <path id="Caminho_3582" data-name="Caminho 3582" d="M310.3,87.36l-6.03,13.585H302.4L296.39,87.36h1.9l5.091,11.567L308.52,87.36h1.807Z" transform="translate(265.926 -81.753)" fill="#1d1d1b"/>
      <path id="Caminho_3583" data-name="Caminho 3583" d="M302.68,94.208a6.91,6.91,0,1,1,6.921,6.921A6.673,6.673,0,0,1,302.68,94.208Zm11.942,0a5.062,5.062,0,1,0-5.044,5.3A4.943,4.943,0,0,0,314.622,94.208Z" transform="translate(274.394 -81.82)" fill="#1d1d1b"/>
      <path id="Caminho_3584" data-name="Caminho 3584" d="M310.16,84.98h1.83v19.145h-1.83V84.98Z" transform="translate(284.464 -84.957)" fill="#1d1d1b"/>
      <path id="Caminho_3585" data-name="Caminho 3585" d="M325.963,87.36l-6.03,13.585h-1.877L312.05,87.36h1.9l5.091,11.567L324.18,87.36h1.807Z" transform="translate(287.008 -81.753)" fill="#1d1d1b"/>
      <path id="Caminho_3586" data-name="Caminho 3586" d="M318.9,86.27a1.312,1.312,0,0,1,1.337-1.29,1.293,1.293,0,0,1,1.337,1.267,1.337,1.337,0,0,1-2.675.023Zm.422,4.294h1.83v13.585h-1.83Z" transform="translate(296.229 -84.957)" fill="#1d1d1b"/>
      <path id="Caminho_3587" data-name="Caminho 3587" d="M344.446,93.115V101h-1.83V93.3c0-2.862-1.455-4.34-3.895-4.34-2.792,0-4.552,1.807-4.552,4.9V101h-1.83V93.3c0-2.862-1.455-4.34-3.918-4.34-2.768,0-4.552,1.807-4.552,4.9V101h-1.83V87.414h1.76V89.9a5.521,5.521,0,0,1,4.974-2.581,4.887,4.887,0,0,1,4.833,2.862,5.9,5.9,0,0,1,5.373-2.862c3.308,0,5.467,1.9,5.467,5.819Z" transform="translate(300.457 -81.806)" fill="#1d1d1b"/>
      <path id="Caminho_3588" data-name="Caminho 3588" d="M346.336,94.771H334.98a5.022,5.022,0,0,0,5.349,4.716,5.33,5.33,0,0,0,4.153-1.783l1.032,1.2a6.664,6.664,0,0,1-5.232,2.229,6.734,6.734,0,0,1-7.133-6.921,6.542,6.542,0,0,1,6.64-6.9c3.824,0,6.593,2.815,6.593,6.9,0,.164-.023.352-.023.563ZM334.98,93.41H344.6a4.831,4.831,0,0,0-9.643,0Z" transform="translate(315.413 -81.82)" fill="#1d1d1b"/>
      <path id="Caminho_3589" data-name="Caminho 3589" d="M352.862,93.115V101h-1.83V93.3c0-2.862-1.5-4.34-4.082-4.34-2.909,0-4.739,1.807-4.739,4.9V101h-1.83V87.414h1.76v2.51a5.731,5.731,0,0,1,5.162-2.6c3.308,0,5.584,1.9,5.584,5.819Z" transform="translate(325.146 -81.806)" fill="#1d1d1b"/>
      <path id="Caminho_3590" data-name="Caminho 3590" d="M356.174,101.8a4.313,4.313,0,0,1-2.862.962,3.59,3.59,0,0,1-3.965-3.942V90.6H346.93V89.056h2.417V86.1h1.83v2.956h4.129V90.6h-4.129v8.118a2.18,2.18,0,0,0,2.346,2.487,3.021,3.021,0,0,0,2.018-.7l.657,1.314Z" transform="translate(333.964 -83.449)" fill="#1d1d1b"/>
      <path id="Caminho_3591" data-name="Caminho 3591" d="M351.51,94.208a6.91,6.91,0,1,1,6.921,6.921A6.673,6.673,0,0,1,351.51,94.208Zm11.942,0a5.062,5.062,0,1,0-5.044,5.3A4.943,4.943,0,0,0,363.452,94.208Z" transform="translate(340.129 -81.82)" fill="#1d1d1b"/>
      <path id="Caminho_3592" data-name="Caminho 3592" d="M361.075,93.384a4.165,4.165,0,0,1-.352,1.5l-1.079,3.566H358.4l.868-3.754a1.312,1.312,0,0,1-.938-1.314A1.338,1.338,0,0,1,359.691,92a1.352,1.352,0,0,1,1.361,1.384Z" transform="translate(349.311 -75.506)" fill="#1d1d1b"/>
      <path id="Caminho_3593" data-name="Caminho 3593" d="M378.049,84.993v19.145h-1.76v-2.675a5.886,5.886,0,0,1-5.232,2.815,6.911,6.911,0,0,1,0-13.819,5.964,5.964,0,0,1,5.162,2.675V84.97h1.83Zm-1.807,12.365a5.062,5.062,0,1,0-5.044,5.3A4.956,4.956,0,0,0,376.242,97.358Z" transform="translate(357.347 -84.97)" fill="#1d1d1b"/>
      <path id="Caminho_3594" data-name="Caminho 3594" d="M383.239,92.562v8.423h-1.76V98.873a5.1,5.1,0,0,1-4.669,2.252c-3.074,0-4.95-1.6-4.95-3.942,0-2.088,1.337-3.848,5.232-3.848h4.317v-.821c0-2.323-1.314-3.59-3.848-3.59a6.833,6.833,0,0,0-4.5,1.6l-.821-1.361a8.525,8.525,0,0,1,5.514-1.83c3.519,0,5.49,1.76,5.49,5.256Zm-1.83,4.34V94.674h-4.27c-2.628,0-3.5,1.032-3.5,2.417,0,1.572,1.267,2.557,3.425,2.557a4.279,4.279,0,0,0,4.317-2.769Z" transform="translate(367.525 -81.793)" fill="#1d1d1b"/>
      <path id="Caminho_3595" data-name="Caminho 3595" d="M393.459,92.562v8.423H391.7V98.873a5.1,5.1,0,0,1-4.669,2.252c-3.073,0-4.95-1.6-4.95-3.942,0-2.088,1.337-3.848,5.232-3.848h4.317v-.821c0-2.323-1.314-3.59-3.848-3.59a6.832,6.832,0,0,0-4.5,1.6l-.821-1.361a8.525,8.525,0,0,1,5.514-1.83c3.519,0,5.49,1.76,5.49,5.256Zm-1.83,4.34V94.674h-4.27c-2.628,0-3.5,1.032-3.5,2.417,0,1.572,1.267,2.557,3.425,2.557a4.278,4.278,0,0,0,4.317-2.769Z" transform="translate(381.283 -81.793)" fill="#1d1d1b"/>
      <path id="Caminho_3596" data-name="Caminho 3596" d="M397.4,101.8a4.313,4.313,0,0,1-2.862.962,3.59,3.59,0,0,1-3.965-3.942V90.6H388.16V89.056h2.417V86.1h1.83v2.956h4.129V90.6h-4.129v8.118a2.18,2.18,0,0,0,2.346,2.487,3.021,3.021,0,0,0,2.018-.7l.657,1.314Z" transform="translate(389.468 -83.449)" fill="#1d1d1b"/>
      <path id="Caminho_3597" data-name="Caminho 3597" d="M393.34,86.27a1.312,1.312,0,0,1,1.337-1.29,1.293,1.293,0,0,1,1.337,1.267,1.337,1.337,0,0,1-2.675.023Zm.422,4.294h1.83v13.585h-1.83Z" transform="translate(396.441 -84.957)" fill="#1d1d1b"/>
      <path id="Caminho_3598" data-name="Caminho 3598" d="M409.323,87.36l-6.03,13.585h-1.877L395.41,87.36h1.9L402.4,98.927,407.54,87.36h1.807Z" transform="translate(399.228 -81.753)" fill="#1d1d1b"/>
      <path id="Caminho_3599" data-name="Caminho 3599" d="M402.26,86.27a1.312,1.312,0,0,1,1.337-1.29,1.293,1.293,0,0,1,1.337,1.267,1.337,1.337,0,0,1-2.675.023Zm.422,4.294h1.83v13.585h-1.83Z" transform="translate(408.45 -84.957)" fill="#1d1d1b"/>
      <path id="Caminho_3600" data-name="Caminho 3600" d="M418.569,84.993v19.145h-1.76v-2.675a5.886,5.886,0,0,1-5.232,2.815,6.911,6.911,0,0,1,0-13.819,5.964,5.964,0,0,1,5.162,2.675V84.97h1.83Zm-1.807,12.365a5.062,5.062,0,1,0-5.044,5.3A4.956,4.956,0,0,0,416.762,97.358Z" transform="translate(411.896 -84.97)" fill="#1d1d1b"/>
      <path id="Caminho_3601" data-name="Caminho 3601" d="M423.749,92.562v8.423h-1.76V98.873a5.1,5.1,0,0,1-4.669,2.252c-3.074,0-4.951-1.6-4.951-3.942,0-2.088,1.337-3.848,5.232-3.848h4.317v-.821c0-2.323-1.314-3.59-3.848-3.59a6.833,6.833,0,0,0-4.5,1.6l-.821-1.361a8.525,8.525,0,0,1,5.514-1.83c3.519,0,5.49,1.76,5.49,5.256Zm-1.83,4.34V94.674h-4.27c-2.628,0-3.5,1.032-3.5,2.417,0,1.572,1.267,2.557,3.425,2.557a4.279,4.279,0,0,0,4.317-2.769Z" transform="translate(422.06 -81.793)" fill="#1d1d1b"/>
      <path id="Caminho_3602" data-name="Caminho 3602" d="M432.519,84.993v19.145h-1.76v-2.675a5.886,5.886,0,0,1-5.232,2.815,6.911,6.911,0,0,1,0-13.819,5.964,5.964,0,0,1,5.162,2.675V84.97h1.83Zm-1.807,12.365a5.062,5.062,0,1,0-5.044,5.3A4.956,4.956,0,0,0,430.712,97.358Z" transform="translate(430.676 -84.97)" fill="#1d1d1b"/>
      <path id="Caminho_3603" data-name="Caminho 3603" d="M439.416,94.771H428.06a5.022,5.022,0,0,0,5.349,4.716,5.33,5.33,0,0,0,4.153-1.783l1.032,1.2a6.664,6.664,0,0,1-5.232,2.229,6.734,6.734,0,0,1-7.133-6.921,6.542,6.542,0,0,1,6.64-6.9c3.824,0,6.593,2.815,6.593,6.9,0,.164-.023.352-.023.563ZM428.06,93.41h9.619a4.831,4.831,0,0,0-9.643,0Z" transform="translate(440.718 -81.82)" fill="#1d1d1b"/>
      <path id="Caminho_3604" data-name="Caminho 3604" d="M450.339,87.427v18.582h-1.83V98.455a5.911,5.911,0,0,1-5.162,2.675,6.911,6.911,0,0,1,0-13.819,5.889,5.889,0,0,1,5.232,2.792V87.427Zm-1.807,6.781a5.062,5.062,0,1,0-5.044,5.3A4.969,4.969,0,0,0,448.532,94.208Z" transform="translate(454.665 -81.82)" fill="#1d1d1b"/>
      <path id="Caminho_3605" data-name="Caminho 3605" d="M456.945,87.373v13.585h-1.76V98.471a5.439,5.439,0,0,1-4.88,2.6c-3.449,0-5.725-1.947-5.725-5.842V87.35h1.83v7.7c0,2.886,1.5,4.364,4.082,4.364,2.839,0,4.622-1.83,4.622-4.927V87.35h1.83Z" transform="translate(465.421 -81.766)" fill="#1d1d1b"/>
      <path id="Caminho_3606" data-name="Caminho 3606" d="M464.636,94.771H453.28a5.022,5.022,0,0,0,5.349,4.716,5.33,5.33,0,0,0,4.153-1.783l1.032,1.2a6.664,6.664,0,0,1-5.232,2.229,6.734,6.734,0,0,1-7.133-6.921,6.542,6.542,0,0,1,6.64-6.9c3.824,0,6.593,2.815,6.593,6.9,0,.164-.023.352-.023.563ZM453.28,93.41h9.62a4.831,4.831,0,0,0-9.643,0Z" transform="translate(474.67 -81.82)" fill="#1d1d1b"/>
      <path id="Caminho_3607" data-name="Caminho 3607" d="M475.243,87.36l-6.03,13.585h-1.877L461.33,87.36h1.9l5.091,11.567L473.46,87.36h1.807Z" transform="translate(487.97 -81.753)" fill="#1d1d1b"/>
      <path id="Caminho_3608" data-name="Caminho 3608" d="M468.18,86.27a1.312,1.312,0,0,1,1.337-1.29,1.293,1.293,0,0,1,1.337,1.267,1.337,1.337,0,0,1-2.675.023Zm.422,4.294h1.83v13.585H468.6Z" transform="translate(497.192 -84.957)" fill="#1d1d1b"/>
      <path id="Caminho_3609" data-name="Caminho 3609" d="M470.51,99.453,471.331,98a8.227,8.227,0,0,0,4.833,1.525c2.581,0,3.637-.868,3.637-2.229,0-3.543-8.8-.751-8.8-6.124,0-2.229,1.9-3.871,5.373-3.871a9.259,9.259,0,0,1,4.81,1.267l-.8,1.478a7.032,7.032,0,0,0-4.012-1.173c-2.44,0-3.543.962-3.543,2.252,0,3.66,8.8.892,8.8,6.124,0,2.346-2.065,3.871-5.607,3.871a9.116,9.116,0,0,1-5.514-1.666Z" transform="translate(500.328 -81.833)" fill="#1d1d1b"/>
      <path id="Caminho_3610" data-name="Caminho 3610" d="M487.589,92.562v8.423h-1.76V98.873a5.1,5.1,0,0,1-4.669,2.252c-3.073,0-4.95-1.6-4.95-3.942,0-2.088,1.337-3.848,5.232-3.848h4.317v-.821c0-2.323-1.314-3.59-3.848-3.59a6.833,6.833,0,0,0-4.5,1.6l-.821-1.361a8.525,8.525,0,0,1,5.514-1.83c3.519,0,5.49,1.76,5.49,5.256Zm-1.83,4.34V94.674h-4.27c-2.628,0-3.5,1.032-3.5,2.417,0,1.572,1.267,2.557,3.425,2.557a4.279,4.279,0,0,0,4.317-2.769Z" transform="translate(508.002 -81.793)" fill="#1d1d1b"/>
    </g>
    <g id="Grupo_2362" data-name="Grupo 2362" transform="translate(109.249 223.644)">
      <path id="Caminho_3611" data-name="Caminho 3611" d="M68.1,113.541v8.423h-1.76v-2.112a5.1,5.1,0,0,1-4.669,2.252c-3.074,0-4.951-1.6-4.951-3.942,0-2.088,1.337-3.848,5.232-3.848h4.317v-.821c0-2.323-1.314-3.59-3.848-3.59a6.943,6.943,0,0,0-4.528,1.6l-.821-1.361a8.525,8.525,0,0,1,5.514-1.83c3.519,0,5.49,1.76,5.49,5.256Zm-5.584-7.25L58.339,103.1h2.44l3.543,3.191Zm3.754,11.59v-2.229H62c-2.628,0-3.5,1.032-3.5,2.417,0,1.572,1.267,2.557,3.425,2.557a4.279,4.279,0,0,0,4.317-2.769Z" transform="translate(-56.72 -102.795)" fill="#1d1d1b"/>
      <path id="Caminho_3612" data-name="Caminho 3612" d="M67.16,112.208a6.678,6.678,0,0,1,6.992-6.9,6,6,0,0,1,5.326,2.675l-1.361.938a4.638,4.638,0,0,0-3.942-2.018,5.293,5.293,0,0,0,0,10.581,4.534,4.534,0,0,0,3.942-1.994l1.361.938a5.975,5.975,0,0,1-5.326,2.675,6.7,6.7,0,0,1-6.992-6.921Z" transform="translate(-42.666 -99.82)" fill="#1d1d1b"/>
      <path id="Caminho_3613" data-name="Caminho 3613" d="M73.26,112.208a6.91,6.91,0,1,1,6.921,6.921A6.673,6.673,0,0,1,73.26,112.208Zm11.942,0a5.062,5.062,0,1,0-5.044,5.3A4.943,4.943,0,0,0,85.2,112.208Z" transform="translate(-34.454 -99.82)" fill="#1d1d1b"/>
      <path id="Caminho_3614" data-name="Caminho 3614" d="M93.232,111.115V119H91.4v-7.7c0-2.862-1.5-4.34-4.082-4.34-2.909,0-4.739,1.807-4.739,4.9V119H80.75V105.414h1.76v2.51a5.731,5.731,0,0,1,5.162-2.6c3.308,0,5.584,1.9,5.584,5.819Z" transform="translate(-24.371 -99.806)" fill="#1d1d1b"/>
      <path id="Caminho_3615" data-name="Caminho 3615" d="M87.39,117.453,88.211,116a8.227,8.227,0,0,0,4.833,1.525c2.581,0,3.637-.868,3.637-2.229,0-3.543-8.8-.751-8.8-6.124,0-2.229,1.9-3.871,5.373-3.871a9.26,9.26,0,0,1,4.81,1.267l-.8,1.478a7.032,7.032,0,0,0-4.012-1.173c-2.44,0-3.543.962-3.543,2.252,0,3.66,8.8.892,8.8,6.124,0,2.346-2.065,3.871-5.607,3.871a9.115,9.115,0,0,1-5.514-1.666Z" transform="translate(-15.432 -99.833)" fill="#1d1d1b"/>
      <path id="Caminho_3616" data-name="Caminho 3616" d="M101.924,119.8a4.313,4.313,0,0,1-2.862.962,3.59,3.59,0,0,1-3.965-3.942V108.6H92.68v-1.549H95.1V104.1h1.83v2.956h4.129V108.6H96.927v8.118a2.18,2.18,0,0,0,2.346,2.487,3.022,3.022,0,0,0,2.018-.7l.657,1.314Z" transform="translate(-8.31 -101.449)" fill="#1d1d1b"/>
      <path id="Caminho_3617" data-name="Caminho 3617" d="M104.881,105.323v1.783c-.164,0-.3-.023-.446-.023-2.839,0-4.575,1.807-4.575,5V119H98.03V105.417h1.76v2.651c.845-1.807,2.581-2.769,5.091-2.769Z" transform="translate(-1.108 -99.833)" fill="#1d1d1b"/>
      <path id="Caminho_3618" data-name="Caminho 3618" d="M114.755,105.363v13.585h-1.76v-2.487a5.413,5.413,0,0,1-4.88,2.6c-3.449,0-5.725-1.947-5.725-5.842V105.34h1.83v7.7c0,2.886,1.5,4.364,4.082,4.364,2.839,0,4.622-1.83,4.622-4.927V105.34h1.83Z" transform="translate(4.761 -99.779)" fill="#1d1d1b"/>
      <path id="Caminho_3619" data-name="Caminho 3619" d="M120.19,115.516l1.361.939a5.975,5.975,0,0,1-5.326,2.675h-.047l-.3,1.22a2.119,2.119,0,0,1,2.205,2.088c0,1.384-1.2,2.252-2.909,2.252a3.813,3.813,0,0,1-2.159-.587l.446-.985a3.106,3.106,0,0,0,1.713.493c1.032,0,1.6-.446,1.6-1.22,0-.7-.516-1.2-1.6-1.2h-.587l.563-2.135a6.915,6.915,0,0,1,1.126-13.749,6,6,0,0,1,5.326,2.675l-1.361.938a4.638,4.638,0,0,0-3.942-2.018,5.293,5.293,0,0,0,0,10.581,4.534,4.534,0,0,0,3.942-1.994Z" transform="translate(14.037 -99.82)" fill="#1d1d1b"/>
      <path id="Caminho_3620" data-name="Caminho 3620" d="M126.939,113.487v8.423h-1.76V119.8a5.1,5.1,0,0,1-4.669,2.252c-3.074,0-4.951-1.6-4.951-3.942,0-2.088,1.337-3.848,5.232-3.848h4.317v-.821c0-2.323-1.314-3.59-3.848-3.59a6.943,6.943,0,0,0-4.528,1.6l-.821-1.361a8.525,8.525,0,0,1,5.514-1.83c3.519,0,5.49,1.76,5.49,5.256Zm-1.83,4.34V115.6h-4.27c-2.628,0-3.5,1.032-3.5,2.417,0,1.572,1.267,2.557,3.425,2.557a4.279,4.279,0,0,0,4.317-2.769Zm-6.593-11.848h-1.1c.047-1.736.962-2.839,2.323-2.839,1.6,0,2.37,1.76,3.379,1.76.774,0,1.29-.61,1.337-1.6h1.1c-.047,1.689-.962,2.792-2.323,2.792-1.6,0-2.346-1.76-3.379-1.76C119.079,104.337,118.563,104.947,118.516,105.979Z" transform="translate(22.491 -102.741)" fill="#1d1d1b"/>
      <path id="Caminho_3621" data-name="Caminho 3621" d="M121.97,112.208a6.91,6.91,0,1,1,6.921,6.921A6.673,6.673,0,0,1,121.97,112.208Zm11.942,0a5.062,5.062,0,1,0-5.044,5.3A4.943,4.943,0,0,0,133.912,112.208Z" transform="translate(31.12 -99.82)" fill="#1d1d1b"/>
      <path id="Caminho_3622" data-name="Caminho 3622" d="M146.669,102.993v19.145h-1.76v-2.675a5.886,5.886,0,0,1-5.232,2.815,6.911,6.911,0,0,1,0-13.819,5.964,5.964,0,0,1,5.162,2.675V102.97h1.83Zm-1.807,12.365a5.062,5.062,0,1,0-5.044,5.3A4.956,4.956,0,0,0,144.862,115.358Z" transform="translate(45.861 -102.97)" fill="#1d1d1b"/>
      <path id="Caminho_3623" data-name="Caminho 3623" d="M153.566,112.771H142.21a5.022,5.022,0,0,0,5.349,4.716,5.33,5.33,0,0,0,4.153-1.783l1.032,1.2a6.664,6.664,0,0,1-5.232,2.229,6.734,6.734,0,0,1-7.132-6.921,6.542,6.542,0,0,1,6.64-6.9c3.824,0,6.593,2.815,6.593,6.9,0,.164-.023.352-.023.563ZM142.21,111.41h9.619a4.831,4.831,0,0,0-9.643,0Z" transform="translate(55.904 -99.82)" fill="#1d1d1b"/>
      <path id="Caminho_3624" data-name="Caminho 3624" d="M151.07,112.208a6.678,6.678,0,0,1,6.992-6.9,6,6,0,0,1,5.326,2.675l-1.361.938a4.638,4.638,0,0,0-3.942-2.018,5.293,5.293,0,0,0,0,10.581,4.534,4.534,0,0,0,3.942-1.994l1.361.938a5.975,5.975,0,0,1-5.326,2.675,6.7,6.7,0,0,1-6.992-6.921Z" transform="translate(70.295 -99.82)" fill="#1d1d1b"/>
      <path id="Caminho_3625" data-name="Caminho 3625" d="M168.739,110.552v8.423h-1.76v-2.112a5.1,5.1,0,0,1-4.669,2.252c-3.074,0-4.951-1.6-4.951-3.942,0-2.088,1.337-3.848,5.232-3.848h4.317v-.821c0-2.323-1.314-3.59-3.848-3.59a6.943,6.943,0,0,0-4.528,1.6l-.821-1.361a8.525,8.525,0,0,1,5.514-1.83c3.519,0,5.49,1.76,5.49,5.256Zm-1.83,4.34v-2.229h-4.27c-2.628,0-3.5,1.032-3.5,2.417,0,1.572,1.267,2.557,3.426,2.557a4.278,4.278,0,0,0,4.317-2.769Z" transform="translate(78.763 -99.806)" fill="#1d1d1b"/>
      <path id="Caminho_3626" data-name="Caminho 3626" d="M177.509,102.993v19.145h-1.76v-2.675a5.886,5.886,0,0,1-5.232,2.815,6.911,6.911,0,0,1,0-13.819,5.964,5.964,0,0,1,5.162,2.675V102.97h1.83ZM175.7,115.358a5.062,5.062,0,1,0-5.044,5.3A4.956,4.956,0,0,0,175.7,115.358Z" transform="translate(87.378 -102.97)" fill="#1d1d1b"/>
      <path id="Caminho_3627" data-name="Caminho 3627" d="M182.7,110.552v8.423h-1.76v-2.112a5.1,5.1,0,0,1-4.669,2.252c-3.074,0-4.951-1.6-4.951-3.942,0-2.088,1.337-3.848,5.232-3.848h4.317v-.821c0-2.323-1.314-3.59-3.848-3.59a6.943,6.943,0,0,0-4.528,1.6l-.821-1.361a8.525,8.525,0,0,1,5.514-1.83c3.519,0,5.49,1.76,5.49,5.256Zm-1.83,4.34v-2.229H176.6c-2.628,0-3.5,1.032-3.5,2.417,0,1.572,1.267,2.557,3.426,2.557a4.278,4.278,0,0,0,4.317-2.769Z" transform="translate(97.556 -99.806)" fill="#1d1d1b"/>
      <path id="Caminho_3628" data-name="Caminho 3628" d="M182.16,104.27a1.312,1.312,0,0,1,1.337-1.29,1.293,1.293,0,0,1,1.337,1.267,1.337,1.337,0,0,1-2.675.023Zm.422,4.294h1.83v13.585h-1.83Z" transform="translate(112.149 -102.957)" fill="#1d1d1b"/>
      <path id="Caminho_3629" data-name="Caminho 3629" d="M197.782,111.115V119h-1.83v-7.7c0-2.862-1.5-4.34-4.082-4.34-2.909,0-4.739,1.807-4.739,4.9V119H185.3V105.414h1.76v2.51a5.731,5.731,0,0,1,5.162-2.6c3.308,0,5.584,1.9,5.584,5.819Z" transform="translate(116.376 -99.806)" fill="#1d1d1b"/>
      <path id="Caminho_3630" data-name="Caminho 3630" d="M191.94,117.453l.821-1.455a8.227,8.227,0,0,0,4.833,1.525c2.581,0,3.637-.868,3.637-2.229,0-3.543-8.8-.751-8.8-6.124,0-2.229,1.9-3.871,5.373-3.871a9.26,9.26,0,0,1,4.81,1.267l-.8,1.478a7.032,7.032,0,0,0-4.012-1.173c-2.44,0-3.543.962-3.543,2.252,0,3.66,8.8.892,8.8,6.124,0,2.346-2.065,3.871-5.607,3.871A9.116,9.116,0,0,1,191.94,117.453Z" transform="translate(125.315 -99.833)" fill="#1d1d1b"/>
      <path id="Caminho_3631" data-name="Caminho 3631" d="M206.474,119.8a4.313,4.313,0,0,1-2.862.962,3.59,3.59,0,0,1-3.965-3.942V108.6H197.23v-1.549h2.417V104.1h1.83v2.956h4.129V108.6h-4.129v8.118a2.18,2.18,0,0,0,2.346,2.487,3.022,3.022,0,0,0,2.018-.7l.657,1.314Z" transform="translate(132.436 -101.449)" fill="#1d1d1b"/>
      <path id="Caminho_3632" data-name="Caminho 3632" d="M202.41,104.27a1.312,1.312,0,0,1,1.337-1.29,1.293,1.293,0,0,1,1.337,1.267,1.337,1.337,0,0,1-2.675.023Zm.422,4.294h1.83v13.585h-1.83Z" transform="translate(139.409 -102.957)" fill="#1d1d1b"/>
      <path id="Caminho_3633" data-name="Caminho 3633" d="M213.9,119.8a4.313,4.313,0,0,1-2.862.962,3.59,3.59,0,0,1-3.965-3.942V108.6H204.66v-1.549h2.417V104.1h1.83v2.956h4.129V108.6h-4.129v8.118a2.18,2.18,0,0,0,2.346,2.487,3.021,3.021,0,0,0,2.018-.7l.657,1.314Z" transform="translate(142.438 -101.449)" fill="#1d1d1b"/>
      <path id="Caminho_3634" data-name="Caminho 3634" d="M222.325,105.363v13.585h-1.76v-2.487a5.439,5.439,0,0,1-4.88,2.6c-3.449,0-5.725-1.947-5.725-5.842V105.34h1.83v7.7c0,2.886,1.5,4.364,4.082,4.364,2.839,0,4.622-1.83,4.622-4.927V105.34h1.83Z" transform="translate(149.573 -99.779)" fill="#1d1d1b"/>
      <path id="Caminho_3635" data-name="Caminho 3635" d="M225.764,119.8a4.313,4.313,0,0,1-2.862.962,3.59,3.59,0,0,1-3.965-3.942V108.6H216.52v-1.549h2.417V104.1h1.83v2.956H224.9V108.6h-4.129v8.118a2.18,2.18,0,0,0,2.346,2.487,3.021,3.021,0,0,0,2.018-.7l.657,1.314Z" transform="translate(158.404 -101.449)" fill="#1d1d1b"/>
      <path id="Caminho_3636" data-name="Caminho 3636" d="M221.1,112.208a6.91,6.91,0,1,1,6.921,6.921A6.673,6.673,0,0,1,221.1,112.208Zm11.942,0a5.062,5.062,0,1,0-5.044,5.3A4.943,4.943,0,0,0,233.042,112.208Z" transform="translate(164.57 -99.82)" fill="#1d1d1b"/>
      <path id="Caminho_3637" data-name="Caminho 3637" d="M230.55,126.4l.633-1.384a3.144,3.144,0,0,0,2.112.7c1.455,0,2.252-.868,2.252-2.557V108.564h1.83v14.593c0,2.51-1.384,4.129-3.965,4.129a4.475,4.475,0,0,1-2.862-.868Zm4.6-22.125a1.312,1.312,0,0,1,1.337-1.29,1.293,1.293,0,0,1,1.337,1.267,1.337,1.337,0,0,1-2.675.023Z" transform="translate(177.292 -102.957)" fill="#1d1d1b"/>
      <path id="Caminho_3638" data-name="Caminho 3638" d="M247.955,105.363v13.585h-1.76v-2.487a5.413,5.413,0,0,1-4.88,2.6c-3.449,0-5.725-1.947-5.725-5.842V105.34h1.83v7.7c0,2.886,1.5,4.364,4.082,4.364,2.839,0,4.622-1.83,4.622-4.927V105.34h1.83Z" transform="translate(184.077 -99.779)" fill="#1d1d1b"/>
      <path id="Caminho_3639" data-name="Caminho 3639" d="M249.891,105.323v1.783c-.164,0-.3-.023-.446-.023-2.839,0-4.575,1.807-4.575,5V119h-1.83V105.417h1.76v2.651c.845-1.807,2.581-2.769,5.091-2.769Z" transform="translate(194.106 -99.833)" fill="#1d1d1b"/>
      <path id="Caminho_3640" data-name="Caminho 3640" d="M250.6,103.1h2.44l-4.176,3.191H247.06L250.6,103.1Zm-2.792,5.279h1.83v13.585h-1.83Z" transform="translate(199.518 -102.795)" fill="#1d1d1b"/>
      <path id="Caminho_3641" data-name="Caminho 3641" d="M263.509,102.993v19.145h-1.76v-2.675a5.886,5.886,0,0,1-5.232,2.815,6.911,6.911,0,0,1,0-13.819,5.964,5.964,0,0,1,5.162,2.675V102.97h1.83ZM261.7,115.358a5.062,5.062,0,1,0-5.044,5.3A4.956,4.956,0,0,0,261.7,115.358Z" transform="translate(203.152 -102.97)" fill="#1d1d1b"/>
      <path id="Caminho_3642" data-name="Caminho 3642" d="M257.62,104.27a1.312,1.312,0,0,1,1.337-1.29,1.293,1.293,0,0,1,1.337,1.267,1.337,1.337,0,0,1-2.675.023Zm.422,4.294h1.83v13.585h-1.83Z" transform="translate(213.734 -102.957)" fill="#1d1d1b"/>
      <path id="Caminho_3643" data-name="Caminho 3643" d="M260.17,112.208a6.678,6.678,0,0,1,6.992-6.9,6,6,0,0,1,5.326,2.675l-1.361.938a4.638,4.638,0,0,0-3.942-2.018,5.293,5.293,0,0,0,0,10.581,4.533,4.533,0,0,0,3.942-1.994l1.361.938a5.975,5.975,0,0,1-5.326,2.675,6.7,6.7,0,0,1-6.992-6.921Z" transform="translate(217.167 -99.82)" fill="#1d1d1b"/>
      <path id="Caminho_3644" data-name="Caminho 3644" d="M266.28,112.208a6.91,6.91,0,1,1,6.921,6.921A6.673,6.673,0,0,1,266.28,112.208Zm11.942,0a5.062,5.062,0,1,0-5.044,5.3A4.943,4.943,0,0,0,278.222,112.208Z" transform="translate(225.392 -99.82)" fill="#1d1d1b"/>
      <path id="Caminho_3645" data-name="Caminho 3645" d="M288.7,113.541v8.423h-1.76v-2.112a5.1,5.1,0,0,1-4.669,2.252c-3.074,0-4.951-1.6-4.951-3.942,0-2.088,1.337-3.848,5.232-3.848h4.317v-.821c0-2.323-1.314-3.59-3.848-3.59a6.943,6.943,0,0,0-4.528,1.6l-.821-1.361a8.525,8.525,0,0,1,5.514-1.83c3.519,0,5.49,1.76,5.49,5.256Zm-5.584-7.25-4.176-3.191h2.44l3.543,3.191h-1.807Zm3.754,11.59v-2.229H282.6c-2.628,0-3.5,1.032-3.5,2.417,0,1.572,1.267,2.557,3.425,2.557a4.278,4.278,0,0,0,4.317-2.769Z" transform="translate(240.254 -102.795)" fill="#1d1d1b"/>
      <path id="Caminho_3646" data-name="Caminho 3646" d="M297.489,105.417V124h-1.83v-7.555a5.911,5.911,0,0,1-5.162,2.675,6.911,6.911,0,0,1,0-13.819,5.889,5.889,0,0,1,5.232,2.792v-2.675Zm-1.807,6.781a5.062,5.062,0,1,0-5.044,5.3A4.969,4.969,0,0,0,295.682,112.2Z" transform="translate(248.897 -99.833)" fill="#1d1d1b"/>
      <path id="Caminho_3647" data-name="Caminho 3647" d="M304.085,105.363v13.585h-1.76v-2.487a5.439,5.439,0,0,1-4.88,2.6c-3.449,0-5.725-1.947-5.725-5.842V105.34h1.83v7.7c0,2.886,1.5,4.364,4.082,4.364,2.839,0,4.622-1.83,4.622-4.927V105.34h1.83Z" transform="translate(259.639 -99.779)" fill="#1d1d1b"/>
      <path id="Caminho_3648" data-name="Caminho 3648" d="M311.786,112.771H300.43a5.022,5.022,0,0,0,5.349,4.716,5.33,5.33,0,0,0,4.153-1.783l1.032,1.2a6.664,6.664,0,0,1-5.232,2.229,6.734,6.734,0,0,1-7.132-6.921,6.542,6.542,0,0,1,6.64-6.9c3.824,0,6.569,2.815,6.569,6.9,0,.164-.023.352-.023.563ZM300.43,111.41h9.62a4.831,4.831,0,0,0-9.643,0Z" transform="translate(268.901 -99.82)" fill="#1d1d1b"/>
      <path id="Caminho_3649" data-name="Caminho 3649" d="M305.82,102.98h1.83v19.145h-1.83V102.98Z" transform="translate(278.621 -102.957)" fill="#1d1d1b"/>
      <path id="Caminho_3650" data-name="Caminho 3650" d="M319.679,110.552v8.423h-1.76v-2.112a5.1,5.1,0,0,1-4.669,2.252c-3.074,0-4.951-1.6-4.951-3.942,0-2.088,1.337-3.848,5.232-3.848h4.317v-.821c0-2.323-1.314-3.59-3.848-3.59a6.833,6.833,0,0,0-4.5,1.6l-.821-1.361a8.525,8.525,0,0,1,5.514-1.83c3.519,0,5.49,1.76,5.49,5.256Zm-1.83,4.34v-2.229h-4.27c-2.628,0-3.5,1.032-3.5,2.417,0,1.572,1.267,2.557,3.425,2.557a4.279,4.279,0,0,0,4.317-2.769Z" transform="translate(281.96 -99.806)" fill="#1d1d1b"/>
      <path id="Caminho_3651" data-name="Caminho 3651" d="M332.489,105.417V124h-1.83v-7.555a5.911,5.911,0,0,1-5.162,2.675,6.911,6.911,0,0,1,0-13.819,5.889,5.889,0,0,1,5.232,2.792v-2.675Zm-1.807,6.781a5.062,5.062,0,1,0-5.044,5.3A4.969,4.969,0,0,0,330.682,112.2Z" transform="translate(296.014 -99.833)" fill="#1d1d1b"/>
      <path id="Caminho_3652" data-name="Caminho 3652" d="M339.085,105.363v13.585h-1.76v-2.487a5.439,5.439,0,0,1-4.88,2.6c-3.449,0-5.725-1.947-5.725-5.842V105.34h1.83v7.7c0,2.886,1.5,4.364,4.082,4.364,2.839,0,4.622-1.83,4.622-4.927V105.34h1.83Z" transform="translate(306.757 -99.779)" fill="#1d1d1b"/>
      <path id="Caminho_3653" data-name="Caminho 3653" d="M346.786,112.771H335.43a5.022,5.022,0,0,0,5.349,4.716,5.33,5.33,0,0,0,4.153-1.783l1.032,1.2a6.664,6.664,0,0,1-5.232,2.229,6.734,6.734,0,0,1-7.133-6.921,6.542,6.542,0,0,1,6.64-6.9c3.824,0,6.593,2.815,6.593,6.9,0,.164-.023.352-.023.563ZM335.43,111.41h9.62a4.831,4.831,0,0,0-9.643,0Z" transform="translate(316.019 -99.82)" fill="#1d1d1b"/>
      <path id="Caminho_3654" data-name="Caminho 3654" d="M357.7,105.35l-6.03,13.585H349.8L343.79,105.35h1.9l5.091,11.567,5.138-11.567h1.807Z" transform="translate(329.737 -99.766)" fill="#1d1d1b"/>
      <path id="Caminho_3655" data-name="Caminho 3655" d="M350.65,104.27a1.312,1.312,0,0,1,1.337-1.29,1.293,1.293,0,0,1,1.337,1.267,1.337,1.337,0,0,1-2.675.023Zm.422,4.294h1.83v13.585h-1.83Z" transform="translate(338.972 -102.957)" fill="#1d1d1b"/>
      <path id="Caminho_3656" data-name="Caminho 3656" d="M352.98,117.453,353.8,116a8.227,8.227,0,0,0,4.833,1.525c2.581,0,3.637-.868,3.637-2.229,0-3.543-8.8-.751-8.8-6.124,0-2.229,1.9-3.871,5.373-3.871a9.259,9.259,0,0,1,4.81,1.267l-.8,1.478a7.031,7.031,0,0,0-4.012-1.173c-2.44,0-3.543.962-3.543,2.252,0,3.66,8.8.892,8.8,6.124,0,2.346-2.065,3.871-5.607,3.871a9.116,9.116,0,0,1-5.514-1.666Z" transform="translate(342.108 -99.833)" fill="#1d1d1b"/>
      <path id="Caminho_3657" data-name="Caminho 3657" d="M370.059,110.552v8.423H368.3v-2.112a5.1,5.1,0,0,1-4.669,2.252c-3.074,0-4.95-1.6-4.95-3.942,0-2.088,1.337-3.848,5.232-3.848h4.317v-.821c0-2.323-1.314-3.59-3.848-3.59a6.833,6.833,0,0,0-4.5,1.6l-.821-1.361a8.525,8.525,0,0,1,5.514-1.83c3.519,0,5.49,1.76,5.49,5.256Zm-1.83,4.34v-2.229h-4.27c-2.628,0-3.5,1.032-3.5,2.417,0,1.572,1.267,2.557,3.425,2.557a4.279,4.279,0,0,0,4.317-2.769Z" transform="translate(349.782 -99.806)" fill="#1d1d1b"/>
      <path id="Caminho_3658" data-name="Caminho 3658" d="M380.6,113.541v8.423h-1.76v-2.112a5.1,5.1,0,0,1-4.669,2.252c-3.073,0-4.95-1.6-4.95-3.942,0-2.088,1.337-3.848,5.232-3.848h4.317v-.821c0-2.323-1.314-3.59-3.848-3.59a6.833,6.833,0,0,0-4.5,1.6l-.821-1.361a8.525,8.525,0,0,1,5.514-1.83c3.519,0,5.49,1.76,5.49,5.256Zm-5.584-7.25-4.176-3.191H373.3l3.543,3.191h-1.807Zm3.754,11.59v-2.229H374.5c-2.628,0-3.5,1.032-3.5,2.417,0,1.572,1.267,2.557,3.425,2.557a4.278,4.278,0,0,0,4.317-2.769Z" transform="translate(363.971 -102.795)" fill="#1d1d1b"/>
      <path id="Caminho_3659" data-name="Caminho 3659" d="M379.64,112.208a6.678,6.678,0,0,1,6.992-6.9,6,6,0,0,1,5.326,2.675l-1.361.938a4.638,4.638,0,0,0-3.942-2.018,5.293,5.293,0,0,0,0,10.581,4.533,4.533,0,0,0,3.942-1.994l1.361.938a5.975,5.975,0,0,1-5.326,2.675,6.7,6.7,0,0,1-6.992-6.921Z" transform="translate(377.998 -99.82)" fill="#1d1d1b"/>
      <path id="Caminho_3660" data-name="Caminho 3660" d="M385.75,112.208a6.91,6.91,0,1,1,6.921,6.921A6.673,6.673,0,0,1,385.75,112.208Zm11.942,0a5.062,5.062,0,1,0-5.044,5.3A4.943,4.943,0,0,0,397.692,112.208Z" transform="translate(386.224 -99.82)" fill="#1d1d1b"/>
      <path id="Caminho_3661" data-name="Caminho 3661" d="M405.712,111.115V119h-1.83v-7.7c0-2.862-1.5-4.34-4.082-4.34-2.909,0-4.739,1.807-4.739,4.9V119h-1.83V105.414h1.76v2.51a5.731,5.731,0,0,1,5.162-2.6c3.308,0,5.584,1.9,5.584,5.819Z" transform="translate(396.293 -99.806)" fill="#1d1d1b"/>
      <path id="Caminho_3662" data-name="Caminho 3662" d="M399.87,117.453l.821-1.455a8.227,8.227,0,0,0,4.833,1.525c2.581,0,3.637-.868,3.637-2.229,0-3.543-8.8-.751-8.8-6.124,0-2.229,1.9-3.871,5.373-3.871a9.259,9.259,0,0,1,4.81,1.267l-.8,1.478a7.032,7.032,0,0,0-4.012-1.173c-2.44,0-3.543.962-3.543,2.252,0,3.66,8.8.892,8.8,6.124,0,2.346-2.065,3.871-5.607,3.871a9.116,9.116,0,0,1-5.514-1.666Z" transform="translate(405.232 -99.833)" fill="#1d1d1b"/>
      <path id="Caminho_3663" data-name="Caminho 3663" d="M414.4,119.8a4.313,4.313,0,0,1-2.862.962,3.59,3.59,0,0,1-3.965-3.942V108.6H405.16v-1.549h2.417V104.1h1.83v2.956h4.129V108.6h-4.129v8.118a2.18,2.18,0,0,0,2.346,2.487,3.021,3.021,0,0,0,2.018-.7l.657,1.314Z" transform="translate(412.354 -101.449)" fill="#1d1d1b"/>
      <path id="Caminho_3664" data-name="Caminho 3664" d="M417.371,105.323v1.783c-.164,0-.305-.023-.446-.023-2.839,0-4.575,1.807-4.575,5V119h-1.83V105.417h1.76v2.651c.845-1.807,2.581-2.769,5.091-2.769Z" transform="translate(419.569 -99.833)" fill="#1d1d1b"/>
      <path id="Caminho_3665" data-name="Caminho 3665" d="M427.245,105.363v13.585h-1.76v-2.487a5.439,5.439,0,0,1-4.88,2.6c-3.449,0-5.725-1.947-5.725-5.842V105.34h1.83v7.7c0,2.886,1.5,4.364,4.082,4.364,2.839,0,4.622-1.83,4.622-4.927V105.34h1.83Z" transform="translate(425.439 -99.779)" fill="#1d1d1b"/>
      <path id="Caminho_3666" data-name="Caminho 3666" d="M432.68,115.516l1.361.939a5.975,5.975,0,0,1-5.326,2.675h-.047l-.305,1.22a2.1,2.1,0,0,1,2.205,2.088c0,1.384-1.2,2.252-2.909,2.252a3.814,3.814,0,0,1-2.159-.587l.446-.985a3.107,3.107,0,0,0,1.713.493c1.032,0,1.6-.446,1.6-1.22,0-.7-.516-1.2-1.6-1.2h-.587l.563-2.135a6.915,6.915,0,0,1,1.126-13.749,6,6,0,0,1,5.326,2.675l-1.361.938a4.638,4.638,0,0,0-3.942-2.018,5.293,5.293,0,0,0,0,10.581,4.533,4.533,0,0,0,3.942-1.994Z" transform="translate(434.714 -99.82)" fill="#1d1d1b"/>
      <path id="Caminho_3667" data-name="Caminho 3667" d="M439.419,113.487v8.423h-1.76V119.8a5.1,5.1,0,0,1-4.669,2.252c-3.074,0-4.95-1.6-4.95-3.942,0-2.088,1.337-3.848,5.232-3.848h4.317v-.821c0-2.323-1.314-3.59-3.848-3.59a6.833,6.833,0,0,0-4.5,1.6l-.821-1.361a8.525,8.525,0,0,1,5.514-1.83c3.519,0,5.49,1.76,5.49,5.256Zm-1.83,4.34V115.6h-4.27c-2.628,0-3.5,1.032-3.5,2.417,0,1.572,1.267,2.557,3.425,2.557a4.279,4.279,0,0,0,4.317-2.769ZM431,105.979h-1.1c.047-1.736.962-2.839,2.323-2.839,1.6,0,2.37,1.76,3.379,1.76.774,0,1.29-.61,1.337-1.6h1.1c-.047,1.689-.962,2.792-2.323,2.792-1.6,0-2.346-1.76-3.379-1.76C431.559,104.337,431.043,104.947,431,105.979Z" transform="translate(443.155 -102.741)" fill="#1d1d1b"/>
      <path id="Caminho_3668" data-name="Caminho 3668" d="M434.46,112.208a6.91,6.91,0,1,1,6.921,6.921A6.673,6.673,0,0,1,434.46,112.208Zm11.942,0a5.062,5.062,0,1,0-5.044,5.3A4.943,4.943,0,0,0,446.4,112.208Z" transform="translate(451.797 -99.82)" fill="#1d1d1b"/>
      <path id="Caminho_3669" data-name="Caminho 3669" d="M459.139,102.993v19.145h-1.76v-2.675a5.886,5.886,0,0,1-5.232,2.815,6.911,6.911,0,0,1,0-13.819,5.964,5.964,0,0,1,5.162,2.675V102.97h1.83Zm-1.807,12.365a5.062,5.062,0,1,0-5.044,5.3A4.956,4.956,0,0,0,457.332,115.358Z" transform="translate(466.512 -102.97)" fill="#1d1d1b"/>
      <path id="Caminho_3670" data-name="Caminho 3670" d="M466.036,112.771H454.68a5.022,5.022,0,0,0,5.349,4.716,5.33,5.33,0,0,0,4.153-1.783l1.032,1.2a6.664,6.664,0,0,1-5.232,2.229,6.734,6.734,0,0,1-7.133-6.921,6.542,6.542,0,0,1,6.64-6.9c3.824,0,6.593,2.815,6.593,6.9,0,.164-.024.352-.024.563ZM454.68,111.41h9.62a4.831,4.831,0,0,0-9.643,0Z" transform="translate(476.554 -99.82)" fill="#1d1d1b"/>
      <path id="Caminho_3671" data-name="Caminho 3671" d="M476.425,105.363v13.585h-1.76v-2.487a5.439,5.439,0,0,1-4.88,2.6c-3.449,0-5.725-1.947-5.725-5.842V105.34h1.83v7.7c0,2.886,1.5,4.364,4.082,4.364,2.839,0,4.622-1.83,4.622-4.927V105.34h1.83Z" transform="translate(491.645 -99.779)" fill="#1d1d1b"/>
      <path id="Caminho_3672" data-name="Caminho 3672" d="M493.916,111.115V119h-1.83v-7.7c0-2.862-1.455-4.34-3.895-4.34-2.792,0-4.552,1.807-4.552,4.9V119h-1.83v-7.7c0-2.862-1.455-4.34-3.918-4.34-2.768,0-4.552,1.807-4.552,4.9V119h-1.83V105.414h1.76V107.9a5.521,5.521,0,0,1,4.974-2.581,4.887,4.887,0,0,1,4.833,2.862,5.9,5.9,0,0,1,5.373-2.862c3.308,0,5.467,1.9,5.467,5.819Z" transform="translate(501.675 -99.806)" fill="#1d1d1b"/>
    </g>
    <g id="Grupo_2363" data-name="Grupo 2363" transform="translate(108.498 265.853)">
      <path id="Caminho_3673" data-name="Caminho 3673" d="M56.4,135.453,57.221,134a8.227,8.227,0,0,0,4.833,1.525c2.581,0,3.637-.868,3.637-2.229,0-3.543-8.8-.751-8.8-6.124,0-2.229,1.9-3.871,5.373-3.871a9.26,9.26,0,0,1,4.81,1.267l-.8,1.478a7.031,7.031,0,0,0-4.012-1.173c-2.44,0-3.543.962-3.543,2.252,0,3.66,8.8.892,8.8,6.124,0,2.346-2.065,3.871-5.607,3.871a9.115,9.115,0,0,1-5.514-1.666Z" transform="translate(-56.4 -117.81)" fill="#1d1d1b"/>
      <path id="Caminho_3674" data-name="Caminho 3674" d="M62.41,122.26a1.312,1.312,0,0,1,1.337-1.29,1.293,1.293,0,0,1,1.337,1.267,1.337,1.337,0,0,1-2.675.023Zm.422,4.294h1.83v13.585h-1.83Z" transform="translate(-48.309 -120.947)" fill="#1d1d1b"/>
      <path id="Caminho_3675" data-name="Caminho 3675" d="M64.74,135.453,65.561,134a8.227,8.227,0,0,0,4.833,1.525c2.581,0,3.637-.868,3.637-2.229,0-3.543-8.8-.751-8.8-6.124,0-2.229,1.9-3.871,5.373-3.871a9.26,9.26,0,0,1,4.81,1.267l-.8,1.478a7.032,7.032,0,0,0-4.012-1.173c-2.44,0-3.543.962-3.543,2.252,0,3.66,8.8.892,8.8,6.124,0,2.346-2.065,3.871-5.607,3.871a9.115,9.115,0,0,1-5.514-1.666Z" transform="translate(-45.173 -117.81)" fill="#1d1d1b"/>
      <path id="Caminho_3676" data-name="Caminho 3676" d="M79.274,137.786a4.44,4.44,0,0,1-2.862.962,3.59,3.59,0,0,1-3.965-3.942v-8.212H70.03v-1.548h2.417V122.09h1.83v2.956h4.129v1.548H74.277v8.118a2.18,2.18,0,0,0,2.346,2.487,3.022,3.022,0,0,0,2.018-.7l.657,1.314Z" transform="translate(-38.051 -119.439)" fill="#1d1d1b"/>
      <path id="Caminho_3677" data-name="Caminho 3677" d="M87.8,130.761H76.44a5.022,5.022,0,0,0,5.349,4.716,5.33,5.33,0,0,0,4.153-1.783l1.032,1.2a6.664,6.664,0,0,1-5.232,2.229A6.734,6.734,0,0,1,74.61,130.2a6.542,6.542,0,0,1,6.64-6.9c3.824,0,6.593,2.815,6.593,6.9,0,.164-.023.352-.023.563ZM76.44,129.4H86.06a4.831,4.831,0,0,0-9.643,0Z" transform="translate(-31.886 -117.81)" fill="#1d1d1b"/>
      <path id="Caminho_3678" data-name="Caminho 3678" d="M104.236,129.105v7.883h-1.83v-7.7c0-2.862-1.455-4.34-3.895-4.34-2.792,0-4.552,1.807-4.552,4.9v7.132H92.13v-7.7c0-2.862-1.455-4.34-3.918-4.34-2.769,0-4.552,1.807-4.552,4.9v7.132H81.83V123.4h1.76v2.487a5.521,5.521,0,0,1,4.974-2.581,4.887,4.887,0,0,1,4.833,2.862,5.9,5.9,0,0,1,5.373-2.862c3.308,0,5.467,1.9,5.467,5.819Z" transform="translate(-22.166 -117.796)" fill="#1d1d1b"/>
      <path id="Caminho_3679" data-name="Caminho 3679" d="M104.4,128.552v8.423h-1.76v-2.112a5.1,5.1,0,0,1-4.669,2.252c-3.074,0-4.951-1.6-4.951-3.942,0-2.088,1.337-3.848,5.232-3.848h4.317v-.821c0-2.323-1.314-3.59-3.848-3.59a6.943,6.943,0,0,0-4.528,1.6l-.821-1.361a8.525,8.525,0,0,1,5.514-1.83c3.519,0,5.49,1.76,5.49,5.255Zm-1.83,4.34v-2.229H98.3c-2.628,0-3.5,1.032-3.5,2.417,0,1.572,1.267,2.557,3.425,2.557a4.279,4.279,0,0,0,4.317-2.769Z" transform="translate(-7.102 -117.783)" fill="#1d1d1b"/>
      <path id="Caminho_3680" data-name="Caminho 3680" d="M116.227,123.417v11.919c0,4.669-2.3,6.781-6.781,6.781a9.528,9.528,0,0,1-6.335-2.088l.938-1.384A8.04,8.04,0,0,0,109.4,140.5c3.425,0,5-1.572,5-4.927v-1.736a6.087,6.087,0,0,1-5.3,2.628,6.585,6.585,0,1,1,0-13.162,6.149,6.149,0,0,1,5.373,2.722v-2.6h1.76Zm-1.783,6.452a5.153,5.153,0,1,0-5.162,4.974A4.85,4.85,0,0,0,114.443,129.869Z" transform="translate(5.378 -117.81)" fill="#1d1d1b"/>
      <path id="Caminho_3681" data-name="Caminho 3681" d="M123.026,130.761H111.67a5.022,5.022,0,0,0,5.349,4.716,5.33,5.33,0,0,0,4.153-1.783l1.032,1.2a6.664,6.664,0,0,1-5.232,2.229,6.734,6.734,0,0,1-7.132-6.921,6.542,6.542,0,0,1,6.64-6.9c3.824,0,6.593,2.815,6.593,6.9,0,.164-.023.352-.023.563ZM111.67,129.4h9.619a4.831,4.831,0,0,0-9.643,0Z" transform="translate(15.541 -117.81)" fill="#1d1d1b"/>
      <path id="Caminho_3682" data-name="Caminho 3682" d="M123.911,123.313V125.1c-.164,0-.305-.023-.446-.023-2.839,0-4.575,1.807-4.575,5v6.921h-1.83V123.407h1.76v2.651c.845-1.807,2.581-2.769,5.091-2.769Z" transform="translate(25.261 -117.823)" fill="#1d1d1b"/>
      <path id="Caminho_3683" data-name="Caminho 3683" d="M132.269,128.552v8.423h-1.76v-2.112a5.1,5.1,0,0,1-4.669,2.252c-3.074,0-4.951-1.6-4.951-3.942,0-2.088,1.337-3.848,5.232-3.848h4.317v-.821c0-2.323-1.314-3.59-3.848-3.59a6.943,6.943,0,0,0-4.528,1.6l-.821-1.361a8.525,8.525,0,0,1,5.514-1.83c3.519,0,5.49,1.76,5.49,5.255Zm-1.83,4.34v-2.229h-4.27c-2.628,0-3.5,1.032-3.5,2.417,0,1.572,1.267,2.557,3.425,2.557a4.279,4.279,0,0,0,4.317-2.769Z" transform="translate(30.417 -117.783)" fill="#1d1d1b"/>
      <path id="Caminho_3684" data-name="Caminho 3684" d="M127.87,120.97h1.83v19.145h-1.83Z" transform="translate(39.814 -120.947)" fill="#1d1d1b"/>
      <path id="Caminho_3685" data-name="Caminho 3685" d="M146.879,120.983v19.145h-1.76v-2.675a5.886,5.886,0,0,1-5.232,2.815,6.911,6.911,0,0,1,0-13.819,5.964,5.964,0,0,1,5.162,2.675V120.96h1.83Zm-1.807,12.365a5.062,5.062,0,1,0-5.044,5.3A4.956,4.956,0,0,0,145.072,133.348Z" transform="translate(46.895 -120.96)" fill="#1d1d1b"/>
      <path id="Caminho_3686" data-name="Caminho 3686" d="M140.58,130.2a6.91,6.91,0,1,1,6.921,6.921,6.673,6.673,0,0,1-6.921-6.921Zm11.942,0a5.062,5.062,0,1,0-5.044,5.3A4.943,4.943,0,0,0,152.522,130.2Z" transform="translate(56.924 -117.81)" fill="#1d1d1b"/>
      <path id="Caminho_3687" data-name="Caminho 3687" d="M150.36,130.2a6.91,6.91,0,1,1,6.921,6.921,6.673,6.673,0,0,1-6.921-6.921Zm11.942,0a5.062,5.062,0,1,0-5.044,5.3A4.943,4.943,0,0,0,162.3,130.2Z" transform="translate(70.09 -117.81)" fill="#1d1d1b"/>
      <path id="Caminho_3688" data-name="Caminho 3688" d="M164.691,123.313V125.1c-.164,0-.305-.023-.446-.023-2.839,0-4.575,1.807-4.575,5v6.921h-1.83V123.407h1.76v2.651c.845-1.807,2.581-2.769,5.091-2.769Z" transform="translate(80.16 -117.823)" fill="#1d1d1b"/>
      <path id="Caminho_3689" data-name="Caminho 3689" d="M175.289,120.983v19.145h-1.76v-2.675a5.886,5.886,0,0,1-5.232,2.815,6.911,6.911,0,0,1,0-13.819,5.964,5.964,0,0,1,5.162,2.675V120.96h1.83Zm-1.807,12.365a5.062,5.062,0,1,0-5.044,5.3A4.956,4.956,0,0,0,173.482,133.348Z" transform="translate(85.141 -120.96)" fill="#1d1d1b"/>
      <path id="Caminho_3690" data-name="Caminho 3690" d="M182.186,130.761H170.83a5.022,5.022,0,0,0,5.349,4.716,5.331,5.331,0,0,0,4.153-1.783l1.032,1.2a6.664,6.664,0,0,1-5.232,2.229A6.734,6.734,0,0,1,169,130.2a6.542,6.542,0,0,1,6.64-6.9c3.824,0,6.593,2.815,6.593,6.9,0,.164-.023.352-.023.563ZM170.83,129.4h9.619a4.831,4.831,0,0,0-9.643,0Z" transform="translate(95.183 -117.81)" fill="#1d1d1b"/>
      <path id="Caminho_3691" data-name="Caminho 3691" d="M188.712,129.105v7.883h-1.83v-7.7c0-2.862-1.5-4.34-4.082-4.34-2.909,0-4.739,1.807-4.739,4.9v7.132h-1.83V123.4h1.76v2.51a5.731,5.731,0,0,1,5.162-2.6c3.308,0,5.584,1.9,5.584,5.819Z" transform="translate(104.916 -117.796)" fill="#1d1d1b"/>
      <path id="Caminho_3692" data-name="Caminho 3692" d="M194.569,128.552v8.423h-1.76v-2.112a5.1,5.1,0,0,1-4.669,2.252c-3.074,0-4.951-1.6-4.951-3.942,0-2.088,1.337-3.848,5.232-3.848h4.317v-.821c0-2.323-1.314-3.59-3.848-3.59a6.943,6.943,0,0,0-4.528,1.6l-.821-1.361a8.525,8.525,0,0,1,5.514-1.83c3.519,0,5.49,1.76,5.49,5.255Zm-1.83,4.34v-2.229h-4.27c-2.628,0-3.5,1.032-3.5,2.417,0,1.572,1.267,2.557,3.425,2.557a4.278,4.278,0,0,0,4.317-2.769Z" transform="translate(114.286 -117.783)" fill="#1d1d1b"/>
      <path id="Caminho_3693" data-name="Caminho 3693" d="M212.566,129.105v7.883h-1.83v-7.7c0-2.862-1.455-4.34-3.895-4.34-2.792,0-4.552,1.807-4.552,4.9v7.132h-1.83v-7.7c0-2.862-1.455-4.34-3.918-4.34-2.769,0-4.552,1.807-4.552,4.9v7.132h-1.83V123.4h1.76v2.487a5.521,5.521,0,0,1,4.974-2.581,4.887,4.887,0,0,1,4.833,2.862,5.9,5.9,0,0,1,5.373-2.862c3.308,0,5.467,1.9,5.467,5.819Z" transform="translate(123.669 -117.796)" fill="#1d1d1b"/>
      <path id="Caminho_3694" data-name="Caminho 3694" d="M214.456,130.761H203.1a5.022,5.022,0,0,0,5.349,4.716,5.331,5.331,0,0,0,4.153-1.783l1.032,1.2a6.664,6.664,0,0,1-5.232,2.229,6.734,6.734,0,0,1-7.132-6.921,6.542,6.542,0,0,1,6.64-6.9c3.824,0,6.593,2.815,6.593,6.9,0,.164-.023.352-.023.563ZM203.1,129.4h9.619a4.831,4.831,0,0,0-9.643,0Z" transform="translate(138.626 -117.81)" fill="#1d1d1b"/>
      <path id="Caminho_3695" data-name="Caminho 3695" d="M220.982,129.105v7.883h-1.83v-7.7c0-2.862-1.5-4.34-4.082-4.34-2.909,0-4.739,1.807-4.739,4.9v7.132H208.5V123.4h1.76v2.51a5.731,5.731,0,0,1,5.162-2.6c3.308,0,5.584,1.9,5.584,5.819Z" transform="translate(148.359 -117.796)" fill="#1d1d1b"/>
      <path id="Caminho_3696" data-name="Caminho 3696" d="M224.294,137.786a4.44,4.44,0,0,1-2.862.962,3.59,3.59,0,0,1-3.965-3.942v-8.212H215.05v-1.548h2.417V122.09h1.83v2.956h4.129v1.548H219.3v8.118a2.18,2.18,0,0,0,2.346,2.487,3.022,3.022,0,0,0,2.018-.7l.657,1.314Z" transform="translate(157.176 -119.439)" fill="#1d1d1b"/>
      <path id="Caminho_3697" data-name="Caminho 3697" d="M219.62,130.2a6.91,6.91,0,1,1,6.921,6.921,6.673,6.673,0,0,1-6.921-6.921Zm11.942,0a5.062,5.062,0,1,0-5.044,5.3A4.943,4.943,0,0,0,231.562,130.2Z" transform="translate(163.328 -117.81)" fill="#1d1d1b"/>
      <path id="Caminho_3698" data-name="Caminho 3698" d="M226.43,129.384A1.352,1.352,0,0,1,227.791,128a1.372,1.372,0,0,1,1.384,1.384,1.392,1.392,0,0,1-1.384,1.408A1.373,1.373,0,0,1,226.43,129.384Z" transform="translate(172.496 -111.483)" fill="#1d1d1b"/>
    </g>
  </g>
</svg>
