<?xml version="1.0" encoding="UTF-8"?>
<svg id="Layer_2" data-name="Layer 2" xmlns="http://www.w3.org/2000/svg" xmlns:xlink="http://www.w3.org/1999/xlink" viewBox="0 0 1365.17 101.65">
  <defs>
    <style>
      .cls-1 {
        fill: url(#linear-gradient-2);
      }

      .cls-2 {
        fill: #fff;
      }

      .cls-3 {
        fill: url(#linear-gradient-3);
      }

      .cls-4 {
        fill: url(#linear-gradient);
      }
    </style>
    <linearGradient id="linear-gradient" x1="687.49" y1="557.23" x2="687.49" y2="321.34" gradientTransform="translate(0 603.89) scale(1 -1)" gradientUnits="userSpaceOnUse">
      <stop offset="0" stop-color="#f0612b"/>
      <stop offset=".79" stop-color="#a64424"/>
    </linearGradient>
    <linearGradient id="linear-gradient-2" x1="91.25" y1="586.24" x2="267.72" y2="449.3" xlink:href="#linear-gradient"/>
    <linearGradient id="linear-gradient-3" x1="1307.68" y1="504.58" x2="1077.56" y2="658.47" xlink:href="#linear-gradient"/>
  </defs>
  <g id="Layer_2-2" data-name="Layer 2">
    <g>
      <g>
        <polygon class="cls-4" points="237.84 0 136.19 101.65 1137.13 101.65 1238.78 0 237.84 0"/>
        <path class="cls-1" d="m45.88,0C20.54,0,0,20.54,0,45.88v9.88c0,25.34,20.54,45.88,45.88,45.88h90.31L237.84,0H45.88Z"/>
        <path class="cls-3" d="m1319.29,0h-80.51l-101.65,101.65h182.16c25.34,0,45.88-20.54,45.88-45.88v-9.88C1365.17,20.55,1344.63,0,1319.29,0h0Z"/>
      </g>
      <g>
        <path class="cls-2" d="m280.94,64.59h-8.13l-2.13-6.17h-11.3l-2.13,6.17h-7.94l11.28-30.54h9.06l11.28,30.54h.01Zm-12.15-11.77l-3.76-10.94-3.76,10.94h7.52Z"/>
        <path class="cls-2" d="m308.05,64.59h-7.4v-11.42c0-.93-.05-1.86-.14-2.78-.1-.92-.26-1.6-.49-2.04-.27-.51-.67-.88-1.2-1.11s-1.26-.35-2.21-.35c-.67,0-1.35.11-2.04.33s-1.44.57-2.25,1.05v16.32h-7.4v-23.03h7.4v2.54c1.31-1.03,2.57-1.81,3.78-2.36s2.55-.82,4.03-.82c2.48,0,4.43.72,5.83,2.17s2.1,3.62,2.1,6.5v14.99h0Z"/>
        <path class="cls-2" d="m328.79,62.15c-.4.3-.89.66-1.48,1.09s-1.14.76-1.66,1c-.72.33-1.48.57-2.26.73s-1.63.24-2.56.24c-2.19,0-4.02-.68-5.5-2.03s-2.21-3.08-2.21-5.19c0-1.68.38-3.06,1.13-4.12s1.82-1.91,3.2-2.52c1.37-.62,3.06-1.05,5.09-1.31s4.12-.45,6.3-.57v-.12c0-1.27-.52-2.15-1.56-2.63s-2.57-.73-4.59-.73c-1.22,0-2.52.21-3.9.65-1.38.43-2.37.76-2.97.99h-.68v-5.56c.78-.21,2.05-.45,3.8-.73,1.76-.28,3.52-.42,5.28-.42,4.2,0,7.23.65,9.09,1.94,1.87,1.29,2.8,3.32,2.8,6.08v15.67h-7.32v-2.46Zm3.94-31.93v.41l-7.22,7.65h-5.04l5.07-8.06h7.2-.01Zm-3.94,28.35v-4.78c-1,.08-2.08.19-3.24.34-1.16.14-2.04.31-2.65.5-.74.23-1.3.57-1.69,1.01s-.58,1.03-.58,1.75c0,.48.04.87.12,1.17s.29.59.62.86c.31.27.69.47,1.13.6.44.13,1.12.19,2.05.19.74,0,1.49-.15,2.25-.45s1.43-.7,2-1.19h-.01Z"/>
        <path class="cls-2" d="m350.3,64.59h-7.4v-31.91h7.4v31.91Z"/>
        <path class="cls-2" d="m364.86,38.28h-7.81v-5.6h7.81v5.6Zm-.21,26.31h-7.4v-23.03h7.4v23.03Z"/>
        <path class="cls-2" d="m391.62,57.29c0,2.38-1.07,4.3-3.2,5.75-2.13,1.46-5.05,2.18-8.76,2.18-2.05,0-3.91-.19-5.58-.57s-3.01-.81-4.02-1.27v-6.07h.68c.37.26.8.54,1.28.85.49.31,1.17.64,2.06,1,.77.31,1.63.58,2.6.81s2.01.34,3.12.34c1.45,0,2.52-.16,3.22-.48s1.05-.8,1.05-1.43c0-.56-.21-.97-.62-1.22s-1.19-.5-2.34-.73c-.55-.12-1.29-.26-2.22-.4-.94-.14-1.79-.32-2.55-.52-2.09-.55-3.64-1.4-4.66-2.55s-1.52-2.59-1.52-4.32c0-2.21,1.05-4.06,3.15-5.53,2.1-1.47,4.97-2.21,8.6-2.21,1.72,0,3.37.17,4.95.52,1.58.35,2.81.72,3.7,1.12v5.82h-.64c-1.09-.75-2.34-1.36-3.74-1.84-1.4-.47-2.82-.71-4.26-.71-1.19,0-2.19.16-3,.49s-1.22.79-1.22,1.39c0,.55.18.96.55,1.25s1.24.57,2.6.86c.75.15,1.56.3,2.43.44s1.74.33,2.62.54c1.94.51,3.38,1.3,4.31,2.39s1.39,2.44,1.39,4.07l.02.03Z"/>
        <path class="cls-2" d="m419.2,54.44h-16.9c.11,1.8.8,3.19,2.06,4.14s3.13,1.44,5.59,1.44c1.56,0,3.07-.28,4.53-.84s2.62-1.16,3.47-1.8h.82v5.93c-1.67.67-3.24,1.16-4.72,1.46s-3.11.45-4.9.45c-4.62,0-8.16-1.04-10.62-3.12s-3.69-5.04-3.69-8.88,1.17-6.81,3.5-9.03c2.33-2.22,5.53-3.33,9.59-3.33,3.75,0,6.56.95,8.45,2.84s2.83,4.62,2.83,8.17v2.58h-.01Zm-7.34-4.33c-.04-1.54-.42-2.71-1.15-3.49s-1.85-1.17-3.38-1.17c-1.42,0-2.59.37-3.51,1.11s-1.43,1.92-1.54,3.55h9.58Z"/>
        <path class="cls-2" d="m461.16,64.59h-7.4v-2.4c-1.27,1.04-2.46,1.8-3.56,2.3-1.11.49-2.38.74-3.83.74-2.8,0-5.04-1.08-6.72-3.24s-2.52-5.07-2.52-8.74c0-1.96.28-3.69.85-5.2s1.34-2.81,2.33-3.89c.93-1.03,2.05-1.82,3.38-2.39,1.33-.57,2.65-.85,3.97-.85s2.51.15,3.39.44c.88.29,1.79.67,2.71,1.12v-9.8h7.4v31.91h0Zm-7.4-6.34v-11.32c-.52-.22-1.06-.38-1.64-.47s-1.1-.14-1.58-.14c-1.94,0-3.39.61-4.36,1.82-.97,1.21-1.45,2.89-1.45,5.04,0,2.26.39,3.9,1.17,4.92s2.03,1.53,3.75,1.53c.67,0,1.38-.13,2.13-.38s1.41-.59,1.98-1h0Z"/>
        <path class="cls-2" d="m490.82,54.44h-16.9c.11,1.8.8,3.19,2.06,4.14s3.13,1.44,5.59,1.44c1.56,0,3.07-.28,4.53-.84s2.62-1.16,3.47-1.8h.82v5.93c-1.67.67-3.24,1.16-4.72,1.46s-3.11.45-4.9.45c-4.62,0-8.16-1.04-10.62-3.12s-3.69-5.04-3.69-8.88,1.17-6.81,3.5-9.03c2.33-2.22,5.53-3.33,9.59-3.33,3.75,0,6.56.95,8.45,2.84s2.83,4.62,2.83,8.17v2.58h-.01Zm-7.34-4.33c-.04-1.54-.42-2.71-1.15-3.49s-1.85-1.17-3.38-1.17c-1.42,0-2.59.37-3.51,1.11s-1.43,1.92-1.54,3.55h9.58Z"/>
        <path class="cls-2" d="m527.3,64.59h-17.88v-5.41h5v-19.71h-5v-5.41h17.88v5.41h-5v19.71h5v5.41Z"/>
        <path class="cls-2" d="m555.81,48.27v16.32h-7.4v-11.5c0-1.12-.03-2.07-.08-2.86s-.21-1.43-.45-1.92-.62-.85-1.12-1.08c-.5-.23-1.2-.34-2.1-.34-.72,0-1.43.15-2.11.44-.68.29-1.3.61-1.85.93v16.32h-7.4v-23.03h7.4v2.54c1.27-1,2.49-1.78,3.65-2.34,1.16-.56,2.44-.84,3.85-.84,1.52,0,2.85.34,4.01,1.02,1.16.68,2.07,1.67,2.72,2.98,1.47-1.24,2.91-2.22,4.3-2.93s2.76-1.07,4.1-1.07c2.48,0,4.37.75,5.66,2.24s1.94,3.64,1.94,6.44v14.99h-7.4v-11.5c0-1.13-.02-2.09-.07-2.87s-.2-1.42-.44-1.91c-.23-.49-.6-.85-1.11-1.08-.51-.23-1.22-.34-2.13-.34-.62,0-1.22.11-1.8.32-.59.21-1.31.56-2.15,1.06h-.02Z"/>
        <path class="cls-2" d="m601.79,52.76c0,1.9-.29,3.63-.87,5.19-.58,1.56-1.34,2.84-2.28,3.86-.98,1.07-2.1,1.87-3.34,2.42-1.24.55-2.57.82-3.99.82-1.31,0-2.42-.14-3.34-.42-.92-.28-1.85-.67-2.81-1.18v9.6h-7.4v-31.48h7.4v2.4c1.13-.9,2.29-1.63,3.47-2.19,1.18-.56,2.54-.84,4.09-.84,2.87,0,5.1,1.05,6.69,3.16s2.39,5,2.39,8.67h0Zm-7.61.15c0-2.24-.38-3.86-1.15-4.87-.76-1.01-1.97-1.52-3.62-1.52-.7,0-1.41.11-2.15.32-.74.21-1.44.52-2.11.91v11.57c.49.19,1.02.31,1.58.37.56.05,1.11.08,1.66.08,1.95,0,3.4-.57,4.36-1.71.96-1.14,1.43-2.86,1.43-5.15h0Z"/>
        <path class="cls-2" d="m621.06,62.15c-.4.3-.89.66-1.48,1.09s-1.14.76-1.66,1c-.72.33-1.48.57-2.26.73s-1.63.24-2.56.24c-2.19,0-4.02-.68-5.5-2.03s-2.21-3.08-2.21-5.19c0-1.68.38-3.06,1.13-4.12s1.82-1.91,3.2-2.52c1.37-.62,3.06-1.05,5.09-1.31s4.12-.45,6.3-.57v-.12c0-1.27-.52-2.15-1.56-2.63s-2.57-.73-4.59-.73c-1.22,0-2.52.21-3.9.65-1.38.43-2.37.76-2.97.99h-.68v-5.56c.78-.21,2.05-.45,3.8-.73,1.76-.28,3.52-.42,5.28-.42,4.2,0,7.23.65,9.09,1.94,1.87,1.29,2.8,3.32,2.8,6.08v15.67h-7.32v-2.46Zm0-3.58v-4.78c-1,.08-2.08.19-3.24.34-1.16.14-2.04.31-2.65.5-.74.23-1.3.57-1.69,1.01s-.58,1.03-.58,1.75c0,.48.04.87.12,1.17s.29.59.62.86c.31.27.69.47,1.13.6.44.13,1.12.19,2.05.19.74,0,1.49-.15,2.25-.45s1.43-.7,2-1.19h0Z"/>
        <path class="cls-2" d="m647.17,65.21c-2.01,0-3.84-.24-5.51-.72-1.66-.48-3.11-1.22-4.34-2.21-1.22-1-2.16-2.26-2.83-3.77s-1-3.29-1-5.33c0-2.15.36-4,1.08-5.56.72-1.56,1.72-2.85,3-3.88,1.24-.97,2.68-1.68,4.31-2.13s3.32-.68,5.07-.68c1.57,0,3.02.17,4.35.51s2.56.79,3.71,1.33v6.3h-1.04c-.29-.25-.63-.53-1.04-.86-.4-.33-.9-.65-1.48-.96-.56-.3-1.17-.55-1.84-.75s-1.45-.3-2.33-.3c-1.97,0-3.48.63-4.54,1.88s-1.59,2.95-1.59,5.1.54,3.9,1.63,5.04,2.62,1.72,4.62,1.72c.93,0,1.76-.11,2.51-.32s1.36-.46,1.85-.75c.46-.27.87-.56,1.23-.86s.68-.59.98-.88h1.04v6.3c-1.16.55-2.38.98-3.64,1.3-1.27.32-2.66.48-4.19.48h0Z"/>
        <path class="cls-2" d="m674.61,64.39c-.79.21-1.63.36-2.52.48s-1.98.17-3.26.17c-2.87,0-5.01-.58-6.41-1.74-1.4-1.16-2.1-3.15-2.1-5.97v-10.77h-3.04v-5h3.04v-6.58h7.4v6.58h6.89v5h-6.89v8.17c0,.81,0,1.51.02,2.12s.12,1.14.33,1.62c.19.48.53.86,1.01,1.14s1.19.42,2.12.42c.38,0,.88-.08,1.5-.25s1.05-.31,1.3-.45h.61v5.05h0Z"/>
        <path class="cls-2" d="m702.56,53.09c0,3.79-1.1,6.77-3.31,8.95s-5.31,3.27-9.3,3.27-7.09-1.09-9.3-3.27c-2.21-2.18-3.31-5.17-3.31-8.95s1.11-6.81,3.33-8.98,5.32-3.26,9.28-3.26,7.13,1.09,9.32,3.28,3.29,5.17,3.29,8.96h0Zm-9.08,5.6c.48-.59.84-1.29,1.08-2.12.24-.83.36-1.97.36-3.43,0-1.35-.12-2.49-.37-3.4s-.59-1.65-1.03-2.19c-.44-.56-.96-.96-1.58-1.19s-1.28-.35-1.99-.35-1.34.1-1.9.29c-.55.19-1.08.57-1.59,1.15-.45.53-.81,1.26-1.08,2.19s-.4,2.1-.4,3.51c0,1.26.12,2.35.35,3.27.23.92.57,1.67,1.03,2.23.44.53.96.92,1.57,1.17s1.3.37,2.08.37c.67,0,1.31-.11,1.92-.34s1.12-.61,1.55-1.14v-.02Z"/>
        <path class="cls-2" d="m744.64,64.59h-22.03v-30.54h7.88v24.63h14.15v5.91Z"/>
        <path class="cls-2" d="m771.65,54.44h-16.9c.11,1.8.8,3.19,2.06,4.14s3.13,1.44,5.59,1.44c1.56,0,3.07-.28,4.53-.84s2.62-1.16,3.47-1.8h.82v5.93c-1.67.67-3.24,1.16-4.72,1.46s-3.11.45-4.9.45c-4.62,0-8.16-1.04-10.62-3.12s-3.69-5.04-3.69-8.88,1.17-6.81,3.5-9.03c2.33-2.22,5.53-3.33,9.59-3.33,3.75,0,6.56.95,8.45,2.84s2.83,4.62,2.83,8.17v2.58h-.01Zm-7.34-4.33c-.04-1.54-.42-2.71-1.15-3.49s-1.85-1.17-3.38-1.17c-1.42,0-2.59.37-3.51,1.11s-1.43,1.92-1.54,3.55h9.58Z"/>
        <path class="cls-2" d="m799.25,61.94c0,2.16-.31,3.98-.92,5.46s-1.48,2.63-2.58,3.47c-1.11.85-2.44,1.46-4.01,1.84s-3.33.56-5.3.56c-1.6,0-3.18-.1-4.73-.29s-2.89-.42-4.03-.7v-5.76h.9c.9.36,2,.68,3.3.97s2.46.44,3.48.44c1.36,0,2.47-.13,3.33-.38s1.5-.61,1.96-1.08c.42-.44.73-1,.92-1.68s.29-1.5.29-2.46v-.43c-.89.72-1.87,1.3-2.95,1.72-1.08.42-2.28.64-3.61.64-3.22,0-5.71-.97-7.46-2.91s-2.62-4.89-2.62-8.86c0-1.9.27-3.54.8-4.92s1.28-2.58,2.25-3.61c.9-.96,2.01-1.7,3.33-2.24,1.32-.53,2.67-.8,4.05-.8,1.24,0,2.37.15,3.39.44s1.94.7,2.78,1.22l.27-1.03h7.18v20.38h-.02Zm-7.4-4.61v-10.44c-.42-.18-.94-.32-1.55-.42s-1.17-.15-1.66-.15c-1.94,0-3.39.56-4.36,1.67-.97,1.12-1.45,2.67-1.45,4.67,0,2.21.41,3.76,1.24,4.63.82.88,2.05,1.31,3.67,1.31.74,0,1.46-.12,2.17-.35.71-.23,1.36-.54,1.94-.92Z"/>
        <path class="cls-2" d="m813.84,38.28h-7.81v-5.6h7.81v5.6Zm-.21,26.31h-7.4v-23.03h7.4v23.03Z"/>
        <path class="cls-2" d="m840.6,57.29c0,2.38-1.07,4.3-3.2,5.75-2.13,1.46-5.05,2.18-8.76,2.18-2.05,0-3.91-.19-5.58-.57s-3.01-.81-4.02-1.27v-6.07h.68c.37.26.8.54,1.28.85.49.31,1.17.64,2.06,1,.77.31,1.63.58,2.6.81s2.01.34,3.12.34c1.45,0,2.52-.16,3.22-.48s1.05-.8,1.05-1.43c0-.56-.21-.97-.62-1.22s-1.19-.5-2.34-.73c-.55-.12-1.29-.26-2.22-.4-.94-.14-1.79-.32-2.55-.52-2.09-.55-3.64-1.4-4.66-2.55s-1.52-2.59-1.52-4.32c0-2.21,1.05-4.06,3.15-5.53,2.1-1.47,4.97-2.21,8.6-2.21,1.72,0,3.37.17,4.95.52,1.58.35,2.81.72,3.7,1.12v5.82h-.64c-1.09-.75-2.34-1.36-3.74-1.84-1.4-.47-2.82-.71-4.26-.71-1.19,0-2.19.16-3,.49s-1.22.79-1.22,1.39c0,.55.18.96.55,1.25s1.24.57,2.6.86c.75.15,1.56.3,2.43.44s1.74.33,2.62.54c1.94.51,3.38,1.3,4.31,2.39s1.39,2.44,1.39,4.07l.02.03Z"/>
        <path class="cls-2" d="m852.9,64.59h-7.4v-31.91h7.4v31.91Z"/>
        <path class="cls-2" d="m873.8,62.15c-.4.3-.89.66-1.48,1.09s-1.14.76-1.66,1c-.72.33-1.48.57-2.26.73s-1.63.24-2.56.24c-2.19,0-4.02-.68-5.5-2.03s-2.21-3.08-2.21-5.19c0-1.68.38-3.06,1.13-4.12s1.82-1.91,3.2-2.52c1.37-.62,3.06-1.05,5.09-1.31s4.12-.45,6.3-.57v-.12c0-1.27-.52-2.15-1.56-2.63s-2.57-.73-4.59-.73c-1.22,0-2.52.21-3.9.65-1.38.43-2.37.76-2.97.99h-.68v-5.56c.78-.21,2.05-.45,3.8-.73,1.76-.28,3.52-.42,5.28-.42,4.2,0,7.23.65,9.09,1.94,1.87,1.29,2.8,3.32,2.8,6.08v15.67h-7.32v-2.46Zm0-3.58v-4.78c-1,.08-2.08.19-3.24.34-1.16.14-2.04.31-2.65.5-.74.23-1.3.57-1.69,1.01s-.58,1.03-.58,1.75c0,.48.04.87.12,1.17s.29.59.62.86c.31.27.69.47,1.13.6.44.13,1.12.19,2.05.19.74,0,1.49-.15,2.25-.45s1.43-.7,2-1.19h0Z"/>
        <path class="cls-2" d="m902.63,64.39c-.79.21-1.63.36-2.52.48s-1.98.17-3.26.17c-2.87,0-5.01-.58-6.41-1.74-1.4-1.16-2.1-3.15-2.1-5.97v-10.77h-3.04v-5h3.04v-6.58h7.4v6.58h6.89v5h-6.89v8.17c0,.81,0,1.51.02,2.12s.12,1.14.33,1.62c.19.48.53.86,1.01,1.14s1.19.42,2.12.42c.38,0,.88-.08,1.5-.25s1.05-.31,1.3-.45h.61v5.05h0Z"/>
        <path class="cls-2" d="m914.65,38.28h-7.81v-5.6h7.81v5.6Zm-.21,26.31h-7.4v-23.03h7.4v23.03Z"/>
        <path class="cls-2" d="m944.59,41.56l-8.88,23.03h-8.37l-8.82-23.03h7.8l5.34,15.85,5.28-15.85h7.65,0Z"/>
        <path class="cls-2" d="m972.24,53.09c0,3.79-1.1,6.77-3.31,8.95s-5.31,3.27-9.3,3.27-7.09-1.09-9.3-3.27c-2.21-2.18-3.31-5.17-3.31-8.95s1.11-6.81,3.33-8.98,5.32-3.26,9.28-3.26,7.13,1.09,9.32,3.28,3.29,5.17,3.29,8.96h0Zm-9.08,5.6c.48-.59.84-1.29,1.08-2.12.24-.83.36-1.97.36-3.43,0-1.35-.12-2.49-.37-3.4s-.59-1.65-1.03-2.19c-.44-.56-.96-.96-1.58-1.19s-1.28-.35-1.99-.35-1.34.1-1.9.29c-.55.19-1.08.57-1.59,1.15-.45.53-.81,1.26-1.08,2.19s-.4,2.1-.4,3.51c0,1.26.12,2.35.35,3.27.23.92.57,1.67,1.03,2.23.44.53.96.92,1.57,1.17s1.3.37,2.08.37c.67,0,1.31-.11,1.92-.34s1.12-.61,1.55-1.14v-.02Z"/>
        <path class="cls-2" d="m1007.82,73.04h-7.73c-2.62-3.08-4.57-6.24-5.83-9.5-1.27-3.25-1.9-6.82-1.9-10.68s.63-7.43,1.9-10.68c1.26-3.25,3.21-6.42,5.83-9.5h7.73v.59c-1.11,1-2.16,2.13-3.17,3.39-1,1.27-1.94,2.75-2.8,4.44-.82,1.63-1.49,3.43-2,5.41s-.77,4.09-.77,6.34.25,4.46.75,6.36,1.17,3.7,2.02,5.39c.82,1.61,1.75,3.08,2.78,4.4s2.09,2.46,3.19,3.43v.61Z"/>
        <path class="cls-2" d="m1043.34,64.59h-8.13l-2.13-6.17h-11.3l-2.13,6.17h-7.94l11.28-30.54h9.06l11.28,30.54h0Zm-12.15-11.77l-3.76-10.94-3.76,10.94h7.52Z"/>
        <path class="cls-2" d="m1064.24,64.59h-17.88v-5.41h5v-19.71h-5v-5.41h17.88v5.41h-5v19.71h5v5.41Z"/>
        <path class="cls-2" d="m1092.68,64.59h-22.03v-30.54h7.88v24.63h14.15v5.91Z"/>
        <path class="cls-2" d="m1112.39,52.86c0,3.87-.63,7.43-1.9,10.68s-3.21,6.42-5.83,9.5h-7.73v-.59c1.09-.97,2.16-2.11,3.2-3.42s1.96-2.78,2.77-4.41c.85-1.7,1.52-3.49,2.02-5.39.5-1.9.75-4.02.75-6.36s-.26-4.35-.77-6.34c-.51-1.98-1.18-3.79-2-5.41-.86-1.7-1.79-3.17-2.8-4.44-1-1.26-2.06-2.4-3.17-3.39v-.59h7.73c2.62,3.08,4.57,6.24,5.83,9.5,1.26,3.25,1.9,6.82,1.9,10.68v-.02Z"/>
      </g>
    </g>
  </g>
</svg>