<?xml version="1.0" encoding="UTF-8"?>
<svg id="Camada_2" data-name="Camada 2" xmlns="http://www.w3.org/2000/svg" xmlns:xlink="http://www.w3.org/1999/xlink" viewBox="0 0 1324.11 375.84">
  <defs>
    <style>
      .cls-1 {
        fill: #078686;
      }

      .cls-2 {
        fill: url(#linear-gradient);
      }

      .cls-3 {
        fill: #231f20;
      }
    </style>
    <linearGradient id="linear-gradient" x1="1440.71" y1="-398.74" x2="-38.41" y2="716.63" gradientUnits="userSpaceOnUse">
      <stop offset="0" stop-color="#afb1b4"/>
      <stop offset=".03" stop-color="#c3c5c7"/>
      <stop offset=".08" stop-color="#d9dadb"/>
      <stop offset=".13" stop-color="#eaebeb"/>
      <stop offset=".2" stop-color="#f6f6f6"/>
      <stop offset=".29" stop-color="#fdfdfd"/>
      <stop offset=".54" stop-color="#fff"/>
      <stop offset=".75" stop-color="#fdfdfd"/>
      <stop offset=".83" stop-color="#f6f6f6"/>
      <stop offset=".88" stop-color="#eaebeb"/>
      <stop offset=".92" stop-color="#d9dadb"/>
      <stop offset=".96" stop-color="#c3c5c7"/>
      <stop offset=".99" stop-color="#afb1b4"/>
    </linearGradient>
  </defs>
  <g id="Layer_1" data-name="Layer 1">
    <g>
      <g>
        <rect class="cls-1" x="1.44" y="0" width="1060.61" height="242.25" rx="79.76" ry="79.76"/>
        <rect class="cls-1" x="263.5" y="133.59" width="1060.61" height="242.25" rx="79.76" ry="79.76"/>
        <rect class="cls-2" x="6.43" y="2.98" width="1312.94" height="369.62" rx="79.76" ry="79.76"/>
        <g>
          <path class="cls-3" d="m82.11,69.76h4.54v19.6h-4.54v-19.6Z"/>
          <path class="cls-3" d="m106.38,80.74v8.62h-4.37v-7.95c0-2.44-1.12-3.56-3.05-3.56-2.1,0-3.61,1.29-3.61,4.06v7.45h-4.37v-15.06h4.17v1.76c1.18-1.29,2.94-1.99,4.98-1.99,3.56,0,6.24,2.07,6.24,6.66Z"/>
          <path class="cls-3" d="m109.38,81.83c0-4.54,3.5-7.76,8.4-7.76,3.16,0,5.66,1.37,6.75,3.84l-3.39,1.82c-.81-1.43-2.02-2.07-3.39-2.07-2.21,0-3.95,1.54-3.95,4.17s1.74,4.17,3.95,4.17c1.37,0,2.58-.62,3.39-2.07l3.39,1.85c-1.09,2.41-3.58,3.81-6.75,3.81-4.9,0-8.4-3.22-8.4-7.76Z"/>
          <path class="cls-3" d="m126.52,69.76c0-1.37,1.09-2.44,2.72-2.44s2.72,1.01,2.72,2.35c0,1.46-1.09,2.52-2.72,2.52s-2.72-1.06-2.72-2.44Zm.53,4.54h4.37v15.06h-4.37v-15.06Z"/>
          <path class="cls-3" d="m134.02,87.96l1.46-3.14c1.34.87,3.39,1.46,5.24,1.46,2.02,0,2.77-.53,2.77-1.37,0-2.46-9.1.06-9.1-5.96,0-2.86,2.58-4.87,6.97-4.87,2.07,0,4.37.48,5.8,1.32l-1.46,3.11c-1.48-.84-2.97-1.12-4.34-1.12-1.96,0-2.8.62-2.8,1.4,0,2.58,9.1.08,9.1,6.02,0,2.8-2.6,4.79-7.11,4.79-2.55,0-5.12-.7-6.52-1.62Z"/>
          <path class="cls-3" d="m149.22,81.83c0-4.54,3.5-7.76,8.29-7.76s8.26,3.22,8.26,7.76-3.47,7.76-8.26,7.76-8.29-3.22-8.29-7.76Zm12.12,0c0-2.6-1.65-4.17-3.84-4.17s-3.86,1.57-3.86,4.17,1.68,4.17,3.86,4.17,3.84-1.57,3.84-4.17Z"/>
          <path class="cls-3" d="m167.23,87.96l1.46-3.14c1.34.87,3.39,1.46,5.24,1.46,2.02,0,2.77-.53,2.77-1.37,0-2.46-9.1.06-9.1-5.96,0-2.86,2.58-4.87,6.97-4.87,2.07,0,4.37.48,5.8,1.32l-1.46,3.11c-1.48-.84-2.97-1.12-4.34-1.12-1.96,0-2.8.62-2.8,1.4,0,2.58,9.1.08,9.1,6.02,0,2.8-2.6,4.79-7.11,4.79-2.55,0-5.12-.7-6.52-1.62Z"/>
          <path class="cls-3" d="m187.92,86.84c0,.73-.11,1.26-.76,2.8l-1.6,4.03h-2.77l1.23-4.45c-.92-.36-1.51-1.23-1.51-2.38,0-1.62,1.18-2.69,2.72-2.69s2.69,1.09,2.69,2.69Z"/>
          <path class="cls-3" d="m212.14,80.77v8.6h-4.09v-1.88c-.81,1.37-2.38,2.1-4.59,2.1-3.53,0-5.63-1.96-5.63-4.56s1.88-4.51,6.47-4.51h3.47c0-1.88-1.12-2.97-3.47-2.97-1.6,0-3.25.53-4.34,1.4l-1.57-3.05c1.65-1.18,4.09-1.82,6.5-1.82,4.59,0,7.25,2.13,7.25,6.69Zm-4.37,3.84v-1.54h-3c-2.04,0-2.69.76-2.69,1.76,0,1.09.92,1.82,2.46,1.82,1.46,0,2.72-.67,3.22-2.04Z"/>
          <path class="cls-3" d="m216.09,68.59h4.37v20.78h-4.37v-20.78Z"/>
          <path class="cls-3" d="m227.93,68.33h4.7l-5.07,4.03h-3.42l3.78-4.03Zm-3.42,5.96h4.37v15.06h-4.37v-15.06Z"/>
          <path class="cls-3" d="m248.34,80.74v8.62h-4.37v-7.95c0-2.44-1.12-3.56-3.05-3.56-2.1,0-3.61,1.29-3.61,4.06v7.45h-4.37v-15.06h4.17v1.76c1.18-1.29,2.94-1.99,4.98-1.99,3.56,0,6.24,2.07,6.24,6.66Z"/>
          <path class="cls-3" d="m267.13,83.06h-11.4c.42,1.88,2.02,3.02,4.31,3.02,1.6,0,2.74-.48,3.78-1.46l2.32,2.52c-1.4,1.6-3.5,2.44-6.22,2.44-5.21,0-8.6-3.28-8.6-7.76s3.44-7.76,8.04-7.76,7.84,2.97,7.84,7.81c0,.34-.06.81-.08,1.18Zm-11.45-2.55h7.42c-.31-1.9-1.74-3.14-3.7-3.14s-3.42,1.2-3.72,3.14Z"/>
          <path class="cls-3" d="m283.03,80.77v8.6h-4.09v-1.88c-.81,1.37-2.38,2.1-4.59,2.1-3.53,0-5.63-1.96-5.63-4.56s1.88-4.51,6.47-4.51h3.47c0-1.88-1.12-2.97-3.47-2.97-1.6,0-3.25.53-4.34,1.4l-1.57-3.05c1.65-1.18,4.09-1.82,6.5-1.82,4.59,0,7.25,2.13,7.25,6.69Zm-4.37,3.84v-1.54h-3c-2.04,0-2.69.76-2.69,1.76,0,1.09.92,1.82,2.46,1.82,1.46,0,2.72-.67,3.22-2.04Z"/>
          <path class="cls-3" d="m285.52,87.96l1.46-3.14c1.34.87,3.39,1.46,5.24,1.46,2.02,0,2.77-.53,2.77-1.37,0-2.46-9.1.06-9.1-5.96,0-2.86,2.58-4.87,6.97-4.87,2.07,0,4.37.48,5.8,1.32l-1.46,3.11c-1.48-.84-2.97-1.12-4.34-1.12-1.96,0-2.8.62-2.8,1.4,0,2.58,9.1.08,9.1,6.02,0,2.8-2.6,4.79-7.11,4.79-2.55,0-5.12-.7-6.52-1.62Z"/>
          <path class="cls-3" d="m324.44,83.06h-11.4c.42,1.88,2.02,3.02,4.31,3.02,1.6,0,2.74-.48,3.78-1.46l2.32,2.52c-1.4,1.6-3.5,2.44-6.22,2.44-5.21,0-8.6-3.28-8.6-7.76s3.44-7.76,8.04-7.76,7.84,2.97,7.84,7.81c0,.34-.06.81-.08,1.18Zm-11.45-2.55h7.42c-.31-1.9-1.74-3.14-3.7-3.14s-3.42,1.2-3.72,3.14Z"/>
          <path class="cls-3" d="m334.83,69.76c0-1.37,1.09-2.44,2.72-2.44s2.72,1.01,2.72,2.35c0,1.46-1.09,2.52-2.72,2.52s-2.72-1.06-2.72-2.44Zm.53,4.54h4.37v15.06h-4.37v-15.06Z"/>
          <path class="cls-3" d="m353.51,88.63c-.9.64-2.21.95-3.56.95-3.56,0-5.63-1.82-5.63-5.4v-6.19h-2.32v-3.36h2.32v-3.67h4.37v3.67h3.75v3.36h-3.75v6.13c0,1.29.7,1.99,1.88,1.99.64,0,1.29-.2,1.76-.56l1.18,3.08Z"/>
          <path class="cls-3" d="m370.17,83.06h-11.4c.42,1.88,2.02,3.02,4.31,3.02,1.6,0,2.74-.48,3.78-1.46l2.32,2.52c-1.4,1.6-3.5,2.44-6.22,2.44-5.21,0-8.6-3.28-8.6-7.76s3.44-7.76,8.04-7.76,7.84,2.97,7.84,7.81c0,.34-.06.81-.08,1.18Zm-11.45-2.55h7.42c-.31-1.9-1.74-3.14-3.7-3.14s-3.42,1.2-3.72,3.14Z"/>
          <path class="cls-3" d="m388.56,80.74v8.62h-4.37v-7.95c0-2.44-1.12-3.56-3.05-3.56-2.1,0-3.61,1.29-3.61,4.06v7.45h-4.37v-15.06h4.17v1.76c1.18-1.29,2.94-1.99,4.98-1.99,3.56,0,6.24,2.07,6.24,6.66Z"/>
          <path class="cls-3" d="m391.05,87.96l1.46-3.14c1.34.87,3.39,1.46,5.24,1.46,2.02,0,2.77-.53,2.77-1.37,0-2.46-9.1.06-9.1-5.96,0-2.86,2.58-4.87,6.97-4.87,2.07,0,4.37.48,5.8,1.32l-1.46,3.11c-1.48-.84-2.97-1.12-4.34-1.12-1.96,0-2.8.62-2.8,1.4,0,2.58,9.1.08,9.1,6.02,0,2.8-2.6,4.79-7.11,4.79-2.55,0-5.12-.7-6.52-1.62Z"/>
          <path class="cls-3" d="m95.27,156.13h-10.92l-2.35,5.24h-2.16l8.96-19.6h2.04l8.96,19.6h-2.18l-2.35-5.24Zm-.76-1.68l-4.7-10.53-4.7,10.53h9.41Z"/>
          <path class="cls-3" d="m100.45,159.68l.9-1.57c1.18.92,3.16,1.65,5.24,1.65,2.8,0,3.95-.95,3.95-2.41,0-3.84-9.55-.81-9.55-6.64,0-2.41,2.07-4.2,5.82-4.2,1.9,0,3.98.53,5.21,1.37l-.87,1.6c-1.29-.9-2.83-1.26-4.34-1.26-2.66,0-3.84,1.04-3.84,2.44,0,3.98,9.55.98,9.55,6.64,0,2.55-2.24,4.2-6.08,4.2-2.44,0-4.79-.78-5.99-1.82Z"/>
          <path class="cls-3" d="m136.79,146.63v14.73h-1.9v-2.69c-1.04,1.79-2.94,2.83-5.29,2.83-3.75,0-6.22-2.1-6.22-6.33v-8.54h1.99v8.34c0,3.14,1.62,4.73,4.42,4.73,3.08,0,5.01-1.99,5.01-5.35v-7.73h1.99Z"/>
          <path class="cls-3" d="m155.92,152.82v8.54h-1.99v-8.34c0-3.11-1.62-4.7-4.42-4.7-3.16,0-5.15,1.96-5.15,5.32v7.73h-1.99v-14.73h1.9v2.72c1.06-1.79,3.05-2.83,5.6-2.83,3.58,0,6.05,2.07,6.05,6.3Z"/>
          <path class="cls-3" d="m160.87,141.99c0-.76.64-1.4,1.46-1.4s1.46.62,1.46,1.37c0,.81-.62,1.46-1.46,1.46s-1.46-.64-1.46-1.43Zm.45,4.65h1.99v14.73h-1.99v-14.73Z"/>
          <path class="cls-3" d="m182.29,140.59v20.78h-1.9v-2.91c-1.2,1.99-3.25,3.05-5.68,3.05-4.2,0-7.34-3.05-7.34-7.5s3.14-7.48,7.34-7.48c2.35,0,4.37,1.01,5.6,2.91v-8.85h1.99Zm-1.96,13.41c0-3.44-2.35-5.74-5.46-5.74s-5.49,2.3-5.49,5.74,2.35,5.74,5.49,5.74,5.46-2.3,5.46-5.74Z"/>
          <path class="cls-3" d="m198.95,152.23v9.13h-1.9v-2.3c-.9,1.51-2.63,2.44-5.07,2.44-3.33,0-5.38-1.74-5.38-4.28,0-2.27,1.46-4.17,5.68-4.17h4.68v-.9c0-2.52-1.43-3.89-4.17-3.89-1.9,0-3.7.67-4.9,1.74l-.9-1.48c1.48-1.26,3.67-1.99,5.99-1.99,3.81,0,5.96,1.9,5.96,5.71Zm-1.99,4.7v-2.41h-4.62c-2.86,0-3.78,1.12-3.78,2.63,0,1.71,1.37,2.77,3.72,2.77s3.89-1.06,4.68-3Z"/>
          <path class="cls-3" d="m217.85,140.59v20.78h-1.9v-2.91c-1.2,1.99-3.25,3.05-5.68,3.05-4.2,0-7.34-3.05-7.34-7.5s3.14-7.48,7.34-7.48c2.35,0,4.37,1.01,5.6,2.91v-8.85h1.99Zm-1.96,13.41c0-3.44-2.35-5.74-5.46-5.74s-5.49,2.3-5.49,5.74,2.35,5.74,5.49,5.74,5.46-2.3,5.46-5.74Z"/>
          <path class="cls-3" d="m236.22,154.61h-12.32c.22,3.08,2.58,5.12,5.8,5.12,1.79,0,3.39-.64,4.51-1.93l1.12,1.29c-1.32,1.57-3.36,2.41-5.68,2.41-4.59,0-7.73-3.14-7.73-7.5s3.05-7.48,7.2-7.48,7.14,3.05,7.14,7.48c0,.17-.03.39-.03.62Zm-12.32-1.48h10.44c-.25-2.88-2.35-4.9-5.24-4.9s-4.96,2.02-5.21,4.9Z"/>
          <path class="cls-3" d="m238.26,159.68l.9-1.57c1.18.92,3.16,1.65,5.24,1.65,2.8,0,3.95-.95,3.95-2.41,0-3.84-9.55-.81-9.55-6.64,0-2.41,2.07-4.2,5.82-4.2,1.9,0,3.98.53,5.21,1.37l-.87,1.6c-1.29-.9-2.83-1.26-4.34-1.26-2.66,0-3.84,1.04-3.84,2.44,0,3.98,9.55.98,9.55,6.64,0,2.55-2.24,4.2-6.08,4.2-2.44,0-4.79-.78-5.99-1.82Z"/>
          <path class="cls-3" d="m274.77,140.59v20.78h-1.9v-2.91c-1.2,1.99-3.25,3.05-5.68,3.05-4.2,0-7.34-3.05-7.34-7.5s3.14-7.48,7.34-7.48c2.35,0,4.37,1.01,5.6,2.91v-8.85h1.99Zm-1.96,13.41c0-3.44-2.35-5.74-5.46-5.74s-5.49,2.3-5.49,5.74,2.35,5.74,5.49,5.74,5.46-2.3,5.46-5.74Z"/>
          <path class="cls-3" d="m293.14,154.61h-12.32c.22,3.08,2.58,5.12,5.8,5.12,1.79,0,3.39-.64,4.51-1.93l1.12,1.29c-1.32,1.57-3.36,2.41-5.68,2.41-4.59,0-7.73-3.14-7.73-7.5s3.05-7.48,7.2-7.48,7.14,3.05,7.14,7.48c0,.17-.03.39-.03.62Zm-12.32-1.48h10.44c-.25-2.88-2.35-4.9-5.24-4.9s-4.96,2.02-5.21,4.9Z"/>
          <path class="cls-3" d="m317.39,154.61h-12.32c.22,3.08,2.58,5.12,5.8,5.12,1.79,0,3.39-.64,4.51-1.93l1.12,1.29c-1.32,1.57-3.36,2.41-5.68,2.41-4.59,0-7.73-3.14-7.73-7.5s3.05-7.48,7.2-7.48,7.14,3.05,7.14,7.48c0,.17-.03.39-.03.62Zm-12.32-1.48h10.44c-.25-2.88-2.35-4.9-5.24-4.9s-4.96,2.02-5.21,4.9Z"/>
          <path class="cls-3" d="m335.03,152.82v8.54h-1.99v-8.34c0-3.11-1.62-4.7-4.42-4.7-3.16,0-5.15,1.96-5.15,5.32v7.73h-1.99v-14.73h1.9v2.72c1.06-1.79,3.05-2.83,5.6-2.83,3.58,0,6.05,2.07,6.05,6.3Z"/>
          <path class="cls-3" d="m353.71,146.63v14.73h-1.9v-2.69c-1.04,1.79-2.94,2.83-5.29,2.83-3.75,0-6.22-2.1-6.22-6.33v-8.54h1.99v8.34c0,3.14,1.62,4.73,4.42,4.73,3.08,0,5.01-1.99,5.01-5.35v-7.73h1.99Z"/>
          <path class="cls-3" d="m383.58,152.82v8.54h-1.99v-8.34c0-3.11-1.57-4.7-4.23-4.7-3.02,0-4.93,1.96-4.93,5.32v7.73h-1.99v-8.34c0-3.11-1.57-4.7-4.26-4.7-3,0-4.93,1.96-4.93,5.32v7.73h-1.99v-14.73h1.9v2.69c1.04-1.76,2.94-2.8,5.4-2.8s4.34,1.04,5.24,3.11c1.06-1.9,3.16-3.11,5.82-3.11,3.58,0,5.94,2.07,5.94,6.3Z"/>
          <path class="cls-3" d="m401.87,154.61h-12.32c.22,3.08,2.58,5.12,5.8,5.12,1.79,0,3.39-.64,4.51-1.93l1.12,1.29c-1.32,1.57-3.36,2.41-5.68,2.41-4.59,0-7.73-3.14-7.73-7.5s3.05-7.48,7.2-7.48,7.14,3.05,7.14,7.48c0,.17-.03.39-.03.62Zm-12.32-1.48h10.44c-.25-2.88-2.35-4.9-5.24-4.9s-4.96,2.02-5.21,4.9Z"/>
          <path class="cls-3" d="m413.38,146.52v1.93c-.17,0-.34-.03-.48-.03-3.08,0-4.96,1.96-4.96,5.43v7.5h-1.99v-14.73h1.9v2.88c.92-1.96,2.8-3,5.52-3Z"/>
          <path class="cls-3" d="m428.05,152.23v9.13h-1.9v-2.3c-.9,1.51-2.63,2.44-5.07,2.44-3.33,0-5.38-1.74-5.38-4.28,0-2.27,1.46-4.17,5.68-4.17h4.68v-.9c0-2.52-1.43-3.89-4.17-3.89-1.9,0-3.7.67-4.9,1.74l-.9-1.48c1.48-1.26,3.67-1.99,5.99-1.99,3.81,0,5.96,1.9,5.96,5.71Zm-1.99,4.7v-2.41h-4.62c-2.86,0-3.78,1.12-3.78,2.63,0,1.71,1.37,2.77,3.72,2.77s3.89-1.06,4.68-3Z"/>
          <path class="cls-3" d="m443.89,157.58l1.48,1.01c-1.18,1.9-3.28,2.91-5.77,2.91h-.06l-.34,1.32c1.54.14,2.38,1.04,2.38,2.27,0,1.51-1.29,2.44-3.16,2.44-.92,0-1.68-.2-2.35-.64l.48-1.06c.56.36,1.18.53,1.85.53,1.12,0,1.74-.48,1.74-1.32,0-.76-.56-1.29-1.74-1.29h-.64l.62-2.32c-3.75-.53-6.36-3.44-6.36-7.42,0-4.4,3.19-7.48,7.59-7.48,2.49,0,4.59.98,5.77,2.91l-1.48,1.01c-1.01-1.48-2.58-2.18-4.28-2.18-3.22,0-5.57,2.3-5.57,5.74s2.35,5.74,5.57,5.74c1.71,0,3.28-.67,4.28-2.16Z"/>
          <path class="cls-3" d="m460.39,152.23v9.13h-1.9v-2.3c-.9,1.51-2.63,2.44-5.07,2.44-3.33,0-5.38-1.74-5.38-4.28,0-2.27,1.46-4.17,5.68-4.17h4.68v-.9c0-2.52-1.43-3.89-4.17-3.89-1.9,0-3.7.67-4.9,1.74l-.9-1.48c1.48-1.26,3.67-1.99,5.99-1.99,3.81,0,5.96,1.9,5.96,5.71Zm-1.99,4.7v-2.41h-4.62c-2.86,0-3.78,1.12-3.78,2.63,0,1.71,1.37,2.77,3.72,2.77s3.89-1.06,4.68-3Zm-7.14-12.85h-1.2c.06-1.88,1.04-3.08,2.52-3.08,1.74,0,2.58,1.9,3.67,1.9.84,0,1.4-.67,1.46-1.74h1.2c-.06,1.82-1.04,3.02-2.52,3.02-1.74,0-2.55-1.9-3.67-1.9-.84,0-1.4.67-1.46,1.79Z"/>
          <path class="cls-3" d="m464.36,154c0-4.37,3.19-7.48,7.5-7.48s7.48,3.11,7.48,7.48-3.16,7.5-7.48,7.5-7.5-3.14-7.5-7.5Zm12.96,0c0-3.44-2.32-5.74-5.46-5.74s-5.49,2.3-5.49,5.74,2.35,5.74,5.49,5.74,5.46-2.3,5.46-5.74Z"/>
          <path class="cls-3" d="m490.88,153.69c0-5.15,1.18-9.77,3.25-13.1h1.9c-2.21,3.84-3.19,8.12-3.19,13.1s.98,9.27,3.19,13.1h-1.9c-2.07-3.39-3.25-7.95-3.25-13.1Z"/>
          <path class="cls-3" d="m499.5,141.99c0-.76.64-1.4,1.46-1.4s1.46.62,1.46,1.37c0,.81-.62,1.46-1.46,1.46s-1.46-.64-1.46-1.43Zm.45,4.65h1.99v14.73h-1.99v-14.73Z"/>
          <path class="cls-3" d="m521.03,152.82v8.54h-1.99v-8.34c0-3.11-1.62-4.7-4.42-4.7-3.16,0-5.15,1.96-5.15,5.32v7.73h-1.99v-14.73h1.9v2.72c1.06-1.79,3.05-2.83,5.6-2.83,3.58,0,6.05,2.07,6.05,6.3Z"/>
          <path class="cls-3" d="m525.01,154c0-4.4,3.19-7.48,7.59-7.48,2.49,0,4.59.98,5.77,2.91l-1.48,1.01c-1.01-1.48-2.58-2.18-4.28-2.18-3.22,0-5.57,2.3-5.57,5.74s2.35,5.74,5.57,5.74c1.71,0,3.28-.67,4.28-2.16l1.48,1.01c-1.18,1.9-3.28,2.91-5.77,2.91-4.4,0-7.59-3.11-7.59-7.5Z"/>
          <path class="cls-3" d="m541.81,141.99c0-.76.64-1.4,1.46-1.4s1.46.62,1.46,1.37c0,.81-.62,1.46-1.46,1.46s-1.46-.64-1.46-1.43Zm.45,4.65h1.99v14.73h-1.99v-14.73Z"/>
          <path class="cls-3" d="m547.74,159.68l.9-1.57c1.18.92,3.16,1.65,5.24,1.65,2.8,0,3.95-.95,3.95-2.41,0-3.84-9.55-.81-9.55-6.64,0-2.41,2.07-4.2,5.82-4.2,1.9,0,3.98.53,5.21,1.37l-.87,1.6c-1.29-.9-2.83-1.26-4.34-1.26-2.66,0-3.84,1.04-3.84,2.44,0,3.98,9.55.98,9.55,6.64,0,2.55-2.24,4.2-6.08,4.2-2.44,0-4.79-.78-5.99-1.82Z"/>
          <path class="cls-3" d="m562,154c0-4.37,3.19-7.48,7.5-7.48s7.48,3.11,7.48,7.48-3.16,7.5-7.48,7.5-7.5-3.14-7.5-7.5Zm12.96,0c0-3.44-2.32-5.74-5.46-5.74s-5.49,2.3-5.49,5.74,2.35,5.74,5.49,5.74,5.46-2.3,5.46-5.74Z"/>
          <path class="cls-3" d="m578.99,159.68l.9-1.57c1.18.92,3.16,1.65,5.24,1.65,2.8,0,3.95-.95,3.95-2.41,0-3.84-9.55-.81-9.55-6.64,0-2.41,2.07-4.2,5.82-4.2,1.9,0,3.98.53,5.21,1.37l-.87,1.6c-1.29-.9-2.83-1.26-4.34-1.26-2.66,0-3.84,1.04-3.84,2.44,0,3.98,9.55.98,9.55,6.64,0,2.55-2.24,4.2-6.08,4.2-2.44,0-4.79-.78-5.99-1.82Z"/>
          <path class="cls-3" d="m596.44,159.96c0,.48-.11.84-.39,1.62l-1.18,3.86h-1.34l.95-4.06c-.59-.17-1.01-.7-1.01-1.43,0-.87.64-1.51,1.48-1.51s1.48.67,1.48,1.51Z"/>
          <path class="cls-3" d="m619.12,152.23v9.13h-1.9v-2.3c-.9,1.51-2.63,2.44-5.07,2.44-3.33,0-5.38-1.74-5.38-4.28,0-2.27,1.46-4.17,5.68-4.17h4.68v-.9c0-2.52-1.43-3.89-4.17-3.89-1.9,0-3.7.67-4.9,1.74l-.9-1.48c1.48-1.26,3.67-1.99,5.99-1.99,3.81,0,5.96,1.9,5.96,5.71Zm-1.99,4.7v-2.41h-4.62c-2.86,0-3.78,1.12-3.78,2.63,0,1.71,1.37,2.77,3.72,2.77s3.89-1.06,4.68-3Z"/>
          <path class="cls-3" d="m624.52,140.59h1.99v20.78h-1.99v-20.78Z"/>
          <path class="cls-3" d="m635.08,140.89h2.66l-4.54,3.47h-1.96l3.84-3.47Zm-3.02,5.74h1.99v14.73h-1.99v-14.73Z"/>
          <path class="cls-3" d="m653.14,152.82v8.54h-1.99v-8.34c0-3.11-1.62-4.7-4.42-4.7-3.16,0-5.15,1.96-5.15,5.32v7.73h-1.99v-14.73h1.9v2.72c1.06-1.79,3.05-2.83,5.6-2.83,3.58,0,6.05,2.07,6.05,6.3Z"/>
          <path class="cls-3" d="m671.42,154.61h-12.32c.22,3.08,2.58,5.12,5.8,5.12,1.79,0,3.39-.64,4.51-1.93l1.12,1.29c-1.32,1.57-3.36,2.41-5.68,2.41-4.59,0-7.73-3.14-7.73-7.5s3.05-7.48,7.2-7.48,7.14,3.05,7.14,7.48c0,.17-.03.39-.03.62Zm-12.32-1.48h10.44c-.25-2.88-2.35-4.9-5.24-4.9s-4.96,2.02-5.21,4.9Z"/>
          <path class="cls-3" d="m686.2,152.23v9.13h-1.9v-2.3c-.9,1.51-2.63,2.44-5.07,2.44-3.33,0-5.38-1.74-5.38-4.28,0-2.27,1.46-4.17,5.68-4.17h4.68v-.9c0-2.52-1.43-3.89-4.17-3.89-1.9,0-3.7.67-4.9,1.74l-.9-1.48c1.48-1.26,3.67-1.99,5.99-1.99,3.81,0,5.96,1.9,5.96,5.71Zm-1.99,4.7v-2.41h-4.62c-2.86,0-3.78,1.12-3.78,2.63,0,1.71,1.37,2.77,3.72,2.77s3.89-1.06,4.68-3Z"/>
          <path class="cls-3" d="m689.56,159.68l.9-1.57c1.18.92,3.16,1.65,5.24,1.65,2.8,0,3.95-.95,3.95-2.41,0-3.84-9.55-.81-9.55-6.64,0-2.41,2.07-4.2,5.82-4.2,1.9,0,3.98.53,5.21,1.37l-.87,1.6c-1.29-.9-2.83-1.26-4.34-1.26-2.66,0-3.84,1.04-3.84,2.44,0,3.98,9.55.98,9.55,6.64,0,2.55-2.24,4.2-6.08,4.2-2.44,0-4.79-.78-5.99-1.82Z"/>
          <path class="cls-3" d="m725.46,154.61h-12.32c.22,3.08,2.58,5.12,5.8,5.12,1.79,0,3.39-.64,4.51-1.93l1.12,1.29c-1.32,1.57-3.36,2.41-5.68,2.41-4.59,0-7.73-3.14-7.73-7.5s3.05-7.48,7.2-7.48,7.14,3.05,7.14,7.48c0,.17-.03.39-.03.62Zm-12.32-1.48h10.44c-.25-2.88-2.35-4.9-5.24-4.9s-4.96,2.02-5.21,4.9Z"/>
          <path class="cls-3" d="m736.44,141.99c0-.76.64-1.4,1.46-1.4s1.46.62,1.46,1.37c0,.81-.62,1.46-1.46,1.46s-1.46-.64-1.46-1.43Zm.45,4.65h1.99v14.73h-1.99v-14.73Z"/>
          <path class="cls-3" d="m752.17,160.47c-.78.7-1.96,1.04-3.11,1.04-2.77,0-4.31-1.57-4.31-4.28v-8.9h-2.63v-1.68h2.63v-3.22h1.99v3.22h4.48v1.68h-4.48v8.79c0,1.74.9,2.69,2.55,2.69.81,0,1.62-.25,2.18-.76l.7,1.43Z"/>
          <path class="cls-3" d="m768.08,154.61h-12.32c.22,3.08,2.58,5.12,5.8,5.12,1.79,0,3.39-.64,4.51-1.93l1.12,1.29c-1.32,1.57-3.36,2.41-5.68,2.41-4.59,0-7.73-3.14-7.73-7.5s3.05-7.48,7.2-7.48,7.14,3.05,7.14,7.48c0,.17-.03.39-.03.62Zm-12.32-1.48h10.44c-.25-2.88-2.35-4.9-5.24-4.9s-4.96,2.02-5.21,4.9Z"/>
          <path class="cls-3" d="m785.72,152.82v8.54h-1.99v-8.34c0-3.11-1.62-4.7-4.42-4.7-3.16,0-5.15,1.96-5.15,5.32v7.73h-1.99v-14.73h1.9v2.72c1.06-1.79,3.05-2.83,5.6-2.83,3.58,0,6.05,2.07,6.05,6.3Z"/>
          <path class="cls-3" d="m789.08,159.68l.9-1.57c1.18.92,3.16,1.65,5.24,1.65,2.8,0,3.95-.95,3.95-2.41,0-3.84-9.55-.81-9.55-6.64,0-2.41,2.07-4.2,5.82-4.2,1.9,0,3.98.53,5.21,1.37l-.87,1.6c-1.29-.9-2.83-1.26-4.34-1.26-2.66,0-3.84,1.04-3.84,2.44,0,3.98,9.55.98,9.55,6.64,0,2.55-2.24,4.2-6.08,4.2-2.44,0-4.79-.78-5.99-1.82Z"/>
          <path class="cls-3" d="m803.16,166.79c2.24-3.84,3.22-8.12,3.22-13.1s-.98-9.27-3.22-13.1h1.9c2.1,3.33,3.28,7.95,3.28,13.1s-1.18,9.72-3.28,13.1h-1.9Z"/>
          <path class="cls-3" d="m832.48,152.23v9.13h-1.9v-2.3c-.9,1.51-2.63,2.44-5.07,2.44-3.33,0-5.38-1.74-5.38-4.28,0-2.27,1.46-4.17,5.68-4.17h4.68v-.9c0-2.52-1.43-3.89-4.17-3.89-1.9,0-3.7.67-4.9,1.74l-.9-1.48c1.48-1.26,3.67-1.99,5.99-1.99,3.81,0,5.96,1.9,5.96,5.71Zm-1.99,4.7v-2.41h-4.62c-2.86,0-3.78,1.12-3.78,2.63,0,1.71,1.37,2.77,3.72,2.77s3.89-1.06,4.68-3Z"/>
          <path class="cls-3" d="m852.81,154c0,4.48-3.14,7.5-7.34,7.5-2.35,0-4.37-1.01-5.6-2.91v8.2h-1.99v-20.16h1.9v2.91c1.2-1.96,3.25-3.02,5.68-3.02,4.2,0,7.34,3.02,7.34,7.48Zm-1.99,0c0-3.42-2.38-5.74-5.49-5.74s-5.49,2.32-5.49,5.74,2.35,5.74,5.49,5.74,5.49-2.3,5.49-5.74Z"/>
          <path class="cls-3" d="m855.38,154c0-4.37,3.19-7.48,7.5-7.48s7.48,3.11,7.48,7.48-3.16,7.5-7.48,7.5-7.5-3.14-7.5-7.5Zm12.96,0c0-3.44-2.32-5.74-5.46-5.74s-5.49,2.3-5.49,5.74,2.35,5.74,5.49,5.74,5.46-2.3,5.46-5.74Z"/>
          <path class="cls-3" d="m887.97,152.82v8.54h-1.99v-8.34c0-3.11-1.62-4.7-4.42-4.7-3.16,0-5.15,1.96-5.15,5.32v7.73h-1.99v-14.73h1.9v2.72c1.06-1.79,3.05-2.83,5.6-2.83,3.58,0,6.05,2.07,6.05,6.3Z"/>
          <path class="cls-3" d="m901.13,160.47c-.78.7-1.96,1.04-3.11,1.04-2.77,0-4.31-1.57-4.31-4.28v-8.9h-2.63v-1.68h2.63v-3.22h1.99v3.22h4.48v1.68h-4.48v8.79c0,1.74.9,2.69,2.55,2.69.81,0,1.62-.25,2.18-.76l.7,1.43Z"/>
          <path class="cls-3" d="m915.86,152.23v9.13h-1.9v-2.3c-.9,1.51-2.63,2.44-5.07,2.44-3.33,0-5.38-1.74-5.38-4.28,0-2.27,1.46-4.17,5.68-4.17h4.68v-.9c0-2.52-1.43-3.89-4.17-3.89-1.9,0-3.7.67-4.9,1.74l-.9-1.48c1.48-1.26,3.67-1.99,5.99-1.99,3.81,0,5.96,1.9,5.96,5.71Zm-1.99,4.7v-2.41h-4.62c-2.86,0-3.78,1.12-3.78,2.63,0,1.71,1.37,2.77,3.72,2.77s3.89-1.06,4.68-3Z"/>
          <path class="cls-3" d="m945.57,152.82v8.54h-1.99v-8.34c0-3.11-1.57-4.7-4.23-4.7-3.02,0-4.93,1.96-4.93,5.32v7.73h-1.99v-8.34c0-3.11-1.57-4.7-4.26-4.7-3,0-4.93,1.96-4.93,5.32v7.73h-1.99v-14.73h1.9v2.69c1.04-1.76,2.94-2.8,5.4-2.8s4.34,1.04,5.24,3.11c1.06-1.9,3.16-3.11,5.82-3.11,3.58,0,5.94,2.07,5.94,6.3Z"/>
          <path class="cls-3" d="m973.23,154c0,4.48-3.14,7.5-7.34,7.5-2.35,0-4.37-1.01-5.6-2.91v8.2h-1.99v-20.16h1.9v2.91c1.2-1.96,3.25-3.02,5.68-3.02,4.2,0,7.34,3.02,7.34,7.48Zm-1.99,0c0-3.42-2.38-5.74-5.49-5.74s-5.49,2.32-5.49,5.74,2.35,5.74,5.49,5.74,5.49-2.3,5.49-5.74Z"/>
          <path class="cls-3" d="m988.32,152.23v9.13h-1.9v-2.3c-.9,1.51-2.63,2.44-5.07,2.44-3.33,0-5.38-1.74-5.38-4.28,0-2.27,1.46-4.17,5.68-4.17h4.68v-.9c0-2.52-1.43-3.89-4.17-3.89-1.9,0-3.7.67-4.9,1.74l-.9-1.48c1.48-1.26,3.67-1.99,5.99-1.99,3.81,0,5.96,1.9,5.96,5.71Zm-1.99,4.7v-2.41h-4.62c-2.86,0-3.78,1.12-3.78,2.63,0,1.71,1.37,2.77,3.72,2.77s3.89-1.06,4.68-3Z"/>
          <path class="cls-3" d="m1001.15,146.52v1.93c-.17,0-.34-.03-.48-.03-3.08,0-4.96,1.96-4.96,5.43v7.5h-1.99v-14.73h1.9v2.88c.92-1.96,2.8-3,5.52-3Z"/>
          <path class="cls-3" d="m1015.82,152.23v9.13h-1.9v-2.3c-.9,1.51-2.63,2.44-5.07,2.44-3.33,0-5.38-1.74-5.38-4.28,0-2.27,1.46-4.17,5.68-4.17h4.68v-.9c0-2.52-1.43-3.89-4.17-3.89-1.9,0-3.7.67-4.9,1.74l-.9-1.48c1.48-1.26,3.67-1.99,5.99-1.99,3.81,0,5.96,1.9,5.96,5.71Zm-1.99,4.7v-2.41h-4.62c-2.86,0-3.78,1.12-3.78,2.63,0,1.71,1.37,2.77,3.72,2.77s3.89-1.06,4.68-3Z"/>
          <path class="cls-3" d="m1042.11,152.82v8.54h-1.99v-8.34c0-3.11-1.62-4.7-4.42-4.7-3.16,0-5.15,1.96-5.15,5.32v7.73h-1.99v-20.78h1.99v8.62c1.09-1.71,3.02-2.69,5.52-2.69,3.58,0,6.05,2.07,6.05,6.3Z"/>
          <path class="cls-3" d="m1047.07,141.99c0-.76.64-1.4,1.46-1.4s1.46.62,1.46,1.37c0,.81-.62,1.46-1.46,1.46s-1.46-.64-1.46-1.43Zm.45,4.65h1.99v14.73h-1.99v-14.73Z"/>
          <path class="cls-3" d="m1069.97,154c0,4.48-3.14,7.5-7.34,7.5-2.35,0-4.37-1.01-5.6-2.91v8.2h-1.99v-20.16h1.9v2.91c1.2-1.96,3.25-3.02,5.68-3.02,4.2,0,7.34,3.02,7.34,7.48Zm-1.99,0c0-3.42-2.38-5.74-5.49-5.74s-5.49,2.32-5.49,5.74,2.35,5.74,5.49,5.74,5.49-2.3,5.49-5.74Z"/>
          <path class="cls-3" d="m1072.55,154c0-4.37,3.19-7.48,7.5-7.48s7.48,3.11,7.48,7.48-3.16,7.5-7.48,7.5-7.5-3.14-7.5-7.5Zm12.96,0c0-3.44-2.32-5.74-5.46-5.74s-5.49,2.3-5.49,5.74,2.35,5.74,5.49,5.74,5.46-2.3,5.46-5.74Zm-3.47-13.1h2.66l-4.54,3.47h-1.96l3.84-3.47Z"/>
          <path class="cls-3" d="m1099.34,160.47c-.78.7-1.96,1.04-3.11,1.04-2.77,0-4.31-1.57-4.31-4.28v-8.9h-2.63v-1.68h2.63v-3.22h1.99v3.22h4.48v1.68h-4.48v8.79c0,1.74.9,2.69,2.55,2.69.81,0,1.62-.25,2.18-.76l.7,1.43Z"/>
          <path class="cls-3" d="m1115.25,154.61h-12.32c.22,3.08,2.58,5.12,5.8,5.12,1.79,0,3.39-.64,4.51-1.93l1.12,1.29c-1.32,1.57-3.36,2.41-5.68,2.41-4.59,0-7.73-3.14-7.73-7.5s3.05-7.48,7.2-7.48,7.14,3.05,7.14,7.48c0,.17-.03.39-.03.62Zm-12.32-1.48h10.44c-.25-2.88-2.35-4.9-5.24-4.9s-4.96,2.02-5.21,4.9Z"/>
          <path class="cls-3" d="m1117.29,159.68l.9-1.57c1.18.92,3.16,1.65,5.24,1.65,2.8,0,3.95-.95,3.95-2.41,0-3.84-9.55-.81-9.55-6.64,0-2.41,2.07-4.2,5.82-4.2,1.9,0,3.98.53,5.21,1.37l-.87,1.6c-1.29-.9-2.83-1.26-4.34-1.26-2.66,0-3.84,1.04-3.84,2.44,0,3.98,9.55.98,9.55,6.64,0,2.55-2.24,4.2-6.08,4.2-2.44,0-4.79-.78-5.99-1.82Z"/>
          <path class="cls-3" d="m1145.85,154.61h-12.32c.22,3.08,2.58,5.12,5.8,5.12,1.79,0,3.39-.64,4.51-1.93l1.12,1.29c-1.32,1.57-3.36,2.41-5.68,2.41-4.59,0-7.73-3.14-7.73-7.5s3.05-7.48,7.2-7.48,7.14,3.05,7.14,7.48c0,.17-.03.39-.03.62Zm-12.32-1.48h10.44c-.25-2.88-2.35-4.9-5.24-4.9s-4.96,2.02-5.21,4.9Z"/>
          <path class="cls-3" d="m1147.89,159.68l.9-1.57c1.18.92,3.16,1.65,5.24,1.65,2.8,0,3.95-.95,3.95-2.41,0-3.84-9.55-.81-9.55-6.64,0-2.41,2.07-4.2,5.82-4.2,1.9,0,3.98.53,5.21,1.37l-.87,1.6c-1.29-.9-2.83-1.26-4.34-1.26-2.66,0-3.84,1.04-3.84,2.44,0,3.98,9.55.98,9.55,6.64,0,2.55-2.24,4.2-6.08,4.2-2.44,0-4.79-.78-5.99-1.82Z"/>
          <path class="cls-3" d="m1184.41,140.59v20.78h-1.9v-2.91c-1.2,1.99-3.25,3.05-5.68,3.05-4.2,0-7.34-3.05-7.34-7.5s3.14-7.48,7.34-7.48c2.35,0,4.37,1.01,5.6,2.91v-8.85h1.99Zm-1.96,13.41c0-3.44-2.35-5.74-5.46-5.74s-5.49,2.3-5.49,5.74,2.35,5.74,5.49,5.74,5.46-2.3,5.46-5.74Z"/>
          <path class="cls-3" d="m1202.77,154.61h-12.32c.22,3.08,2.58,5.12,5.8,5.12,1.79,0,3.39-.64,4.51-1.93l1.12,1.29c-1.32,1.57-3.36,2.41-5.68,2.41-4.59,0-7.73-3.14-7.73-7.5s3.05-7.48,7.2-7.48,7.14,3.05,7.14,7.48c0,.17-.03.39-.03.62Zm-12.32-1.48h10.44c-.25-2.88-2.35-4.9-5.24-4.9s-4.96,2.02-5.21,4.9Z"/>
          <path class="cls-3" d="m93.67,188.23v9.13h-1.9v-2.3c-.9,1.51-2.63,2.44-5.07,2.44-3.33,0-5.38-1.74-5.38-4.28,0-2.27,1.46-4.17,5.68-4.17h4.68v-.9c0-2.52-1.43-3.89-4.17-3.89-1.9,0-3.7.67-4.9,1.74l-.9-1.48c1.48-1.26,3.67-1.99,5.99-1.99,3.81,0,5.96,1.9,5.96,5.71Zm-1.99,4.7v-2.41h-4.62c-2.86,0-3.78,1.12-3.78,2.63,0,1.71,1.37,2.77,3.72,2.77s3.89-1.06,4.68-3Z"/>
          <path class="cls-3" d="m114,190c0,4.48-3.14,7.5-7.34,7.5-2.35,0-4.37-1.01-5.6-2.91v8.2h-1.99v-20.16h1.9v2.91c1.2-1.96,3.25-3.02,5.68-3.02,4.2,0,7.34,3.02,7.34,7.48Zm-1.99,0c0-3.42-2.38-5.74-5.49-5.74s-5.49,2.32-5.49,5.74,2.35,5.74,5.49,5.74,5.49-2.3,5.49-5.74Z"/>
          <path class="cls-3" d="m118.06,176.59h1.99v20.78h-1.99v-20.78Z"/>
          <path class="cls-3" d="m125.14,177.99c0-.76.64-1.4,1.46-1.4s1.46.62,1.46,1.37c0,.81-.62,1.46-1.46,1.46s-1.46-.64-1.46-1.43Zm.45,4.65h1.99v14.73h-1.99v-14.73Z"/>
          <path class="cls-3" d="m131.64,190c0-4.4,3.19-7.48,7.59-7.48,2.49,0,4.59.98,5.77,2.91l-1.48,1.01c-1.01-1.48-2.58-2.18-4.28-2.18-3.22,0-5.57,2.3-5.57,5.74s2.35,5.74,5.57,5.74c1.71,0,3.28-.67,4.28-2.16l1.48,1.01c-1.18,1.9-3.28,2.91-5.77,2.91-4.4,0-7.59-3.11-7.59-7.5Z"/>
          <path class="cls-3" d="m160,188.23v9.13h-1.9v-2.3c-.9,1.51-2.63,2.44-5.07,2.44-3.33,0-5.38-1.74-5.38-4.28,0-2.27,1.46-4.17,5.68-4.17h4.68v-.9c0-2.52-1.43-3.89-4.17-3.89-1.9,0-3.7.67-4.9,1.74l-.9-1.48c1.48-1.26,3.67-1.99,5.99-1.99,3.81,0,5.96,1.9,5.96,5.71Zm-1.99,4.7v-2.41h-4.62c-2.86,0-3.78,1.12-3.78,2.63,0,1.71,1.37,2.77,3.72,2.77s3.89-1.06,4.68-3Z"/>
          <path class="cls-3" d="m175.85,193.58l1.48,1.01c-1.18,1.9-3.28,2.91-5.77,2.91h-.06l-.34,1.32c1.54.14,2.38,1.04,2.38,2.27,0,1.51-1.29,2.44-3.16,2.44-.92,0-1.68-.2-2.35-.64l.48-1.06c.56.36,1.18.53,1.85.53,1.12,0,1.74-.48,1.74-1.32,0-.76-.56-1.29-1.74-1.29h-.64l.62-2.32c-3.75-.53-6.36-3.44-6.36-7.42,0-4.4,3.19-7.48,7.59-7.48,2.49,0,4.59.98,5.77,2.91l-1.48,1.01c-1.01-1.48-2.58-2.18-4.28-2.18-3.22,0-5.57,2.3-5.57,5.74s2.35,5.74,5.57,5.74c1.71,0,3.28-.67,4.28-2.16Z"/>
          <path class="cls-3" d="m192.34,188.23v9.13h-1.9v-2.3c-.9,1.51-2.63,2.44-5.07,2.44-3.33,0-5.38-1.74-5.38-4.28,0-2.27,1.46-4.17,5.68-4.17h4.68v-.9c0-2.52-1.43-3.89-4.17-3.89-1.9,0-3.7.67-4.9,1.74l-.9-1.48c1.48-1.26,3.67-1.99,5.99-1.99,3.81,0,5.96,1.9,5.96,5.71Zm-1.99,4.7v-2.41h-4.62c-2.86,0-3.78,1.12-3.78,2.63,0,1.71,1.37,2.77,3.72,2.77s3.89-1.06,4.68-3Zm-7.14-12.85h-1.2c.06-1.88,1.04-3.08,2.52-3.08,1.74,0,2.58,1.9,3.67,1.9.84,0,1.4-.67,1.46-1.74h1.2c-.06,1.82-1.04,3.02-2.52,3.02-1.74,0-2.55-1.9-3.67-1.9-.84,0-1.4.67-1.46,1.79Z"/>
          <path class="cls-3" d="m196.32,190c0-4.37,3.19-7.48,7.5-7.48s7.48,3.11,7.48,7.48-3.16,7.5-7.48,7.5-7.5-3.14-7.5-7.5Zm12.96,0c0-3.44-2.32-5.74-5.46-5.74s-5.49,2.3-5.49,5.74,2.35,5.74,5.49,5.74,5.46-2.3,5.46-5.74Z"/>
          <path class="cls-3" d="m216.65,195.96c0,.48-.11.84-.39,1.62l-1.18,3.86h-1.34l.95-4.06c-.59-.17-1.01-.7-1.01-1.43,0-.87.64-1.51,1.48-1.51s1.48.67,1.48,1.51Z"/>
          <path class="cls-3" d="m235.63,182.52v1.93c-.17,0-.34-.03-.48-.03-3.08,0-4.96,1.96-4.96,5.43v7.5h-1.99v-14.73h1.9v2.88c.92-1.96,2.8-3,5.52-3Z"/>
          <path class="cls-3" d="m251.9,190.61h-12.32c.22,3.08,2.58,5.12,5.8,5.12,1.79,0,3.39-.64,4.51-1.93l1.12,1.29c-1.32,1.57-3.36,2.41-5.68,2.41-4.59,0-7.73-3.14-7.73-7.5s3.05-7.48,7.2-7.48,7.14,3.05,7.14,7.48c0,.17-.03.39-.03.62Zm-12.32-1.48h10.44c-.25-2.88-2.35-4.9-5.24-4.9s-4.96,2.02-5.21,4.9Z"/>
          <path class="cls-3" d="m269.42,182.63v20.16h-1.99v-8.2c-1.23,1.9-3.25,2.91-5.6,2.91-4.2,0-7.34-3.02-7.34-7.5s3.14-7.48,7.34-7.48c2.44,0,4.48,1.06,5.68,3.02v-2.91h1.9Zm-1.96,7.36c0-3.42-2.35-5.74-5.46-5.74s-5.49,2.32-5.49,5.74,2.35,5.74,5.49,5.74,5.46-2.3,5.46-5.74Z"/>
          <path class="cls-3" d="m288.24,182.63v14.73h-1.9v-2.69c-1.04,1.79-2.94,2.83-5.29,2.83-3.75,0-6.22-2.1-6.22-6.33v-8.54h1.99v8.34c0,3.14,1.62,4.73,4.42,4.73,3.08,0,5.01-1.99,5.01-5.35v-7.73h1.99Z"/>
          <path class="cls-3" d="m293.36,177.99c0-.76.64-1.4,1.46-1.4s1.46.62,1.46,1.37c0,.81-.62,1.46-1.46,1.46s-1.46-.64-1.46-1.43Zm.45,4.65h1.99v14.73h-1.99v-14.73Z"/>
          <path class="cls-3" d="m299.3,195.68l.9-1.57c1.18.92,3.16,1.65,5.24,1.65,2.8,0,3.95-.95,3.95-2.41,0-3.84-9.55-.81-9.55-6.64,0-2.41,2.07-4.2,5.82-4.2,1.9,0,3.98.53,5.21,1.37l-.87,1.6c-1.29-.9-2.83-1.26-4.34-1.26-2.66,0-3.84,1.04-3.84,2.44,0,3.98,9.55.98,9.55,6.64,0,2.55-2.24,4.2-6.08,4.2-2.44,0-4.79-.78-5.99-1.82Z"/>
          <path class="cls-3" d="m314.59,177.99c0-.76.64-1.4,1.46-1.4s1.46.62,1.46,1.37c0,.81-.62,1.46-1.46,1.46s-1.46-.64-1.46-1.43Zm.45,4.65h1.99v14.73h-1.99v-14.73Z"/>
          <path class="cls-3" d="m330.32,196.47c-.78.7-1.96,1.04-3.11,1.04-2.77,0-4.31-1.57-4.31-4.28v-8.9h-2.63v-1.68h2.63v-3.22h1.99v3.22h4.48v1.68h-4.48v8.79c0,1.74.9,2.69,2.55,2.69.81,0,1.62-.25,2.18-.76l.7,1.43Z"/>
          <path class="cls-3" d="m331.92,190c0-4.37,3.19-7.48,7.5-7.48s7.48,3.11,7.48,7.48-3.16,7.5-7.48,7.5-7.5-3.14-7.5-7.5Zm12.96,0c0-3.44-2.32-5.74-5.46-5.74s-5.49,2.3-5.49,5.74,2.35,5.74,5.49,5.74,5.46-2.3,5.46-5.74Z"/>
          <path class="cls-3" d="m348.92,195.68l.9-1.57c1.18.92,3.16,1.65,5.24,1.65,2.8,0,3.95-.95,3.95-2.41,0-3.84-9.55-.81-9.55-6.64,0-2.41,2.07-4.2,5.82-4.2,1.9,0,3.98.53,5.21,1.37l-.87,1.6c-1.29-.9-2.83-1.26-4.34-1.26-2.66,0-3.84,1.04-3.84,2.44,0,3.98,9.55.98,9.55,6.64,0,2.55-2.24,4.2-6.08,4.2-2.44,0-4.79-.78-5.99-1.82Z"/>
          <path class="cls-3" d="m366.36,195.96c0,.48-.11.84-.39,1.62l-1.18,3.86h-1.34l.95-4.06c-.59-.17-1.01-.7-1.01-1.43,0-.87.64-1.51,1.48-1.51s1.48.67,1.48,1.51Z"/>
          <path class="cls-3" d="m391.36,176.59v20.78h-1.9v-2.91c-1.2,1.99-3.25,3.05-5.68,3.05-4.2,0-7.34-3.05-7.34-7.5s3.14-7.48,7.34-7.48c2.35,0,4.37,1.01,5.6,2.91v-8.85h1.99Zm-1.96,13.41c0-3.44-2.35-5.74-5.46-5.74s-5.49,2.3-5.49,5.74,2.35,5.74,5.49,5.74,5.46-2.3,5.46-5.74Z"/>
          <path class="cls-3" d="m409.73,190.61h-12.32c.22,3.08,2.58,5.12,5.8,5.12,1.79,0,3.39-.64,4.51-1.93l1.12,1.29c-1.32,1.57-3.36,2.41-5.68,2.41-4.59,0-7.73-3.14-7.73-7.5s3.05-7.48,7.2-7.48,7.14,3.05,7.14,7.48c0,.17-.03.39-.03.62Zm-12.32-1.48h10.44c-.25-2.88-2.35-4.9-5.24-4.9s-4.96,2.02-5.21,4.9Z"/>
          <path class="cls-3" d="m411.78,195.68l.9-1.57c1.18.92,3.16,1.65,5.24,1.65,2.8,0,3.95-.95,3.95-2.41,0-3.84-9.55-.81-9.55-6.64,0-2.41,2.07-4.2,5.82-4.2,1.9,0,3.98.53,5.21,1.37l-.87,1.6c-1.29-.9-2.83-1.26-4.34-1.26-2.66,0-3.84,1.04-3.84,2.44,0,3.98,9.55.98,9.55,6.64,0,2.55-2.24,4.2-6.08,4.2-2.44,0-4.79-.78-5.99-1.82Z"/>
          <path class="cls-3" d="m435.27,196.47c-.78.7-1.96,1.04-3.11,1.04-2.77,0-4.31-1.57-4.31-4.28v-8.9h-2.63v-1.68h2.63v-3.22h1.99v3.22h4.48v1.68h-4.48v8.79c0,1.74.9,2.69,2.55,2.69.81,0,1.62-.25,2.18-.76l.7,1.43Z"/>
          <path class="cls-3" d="m438.43,177.99c0-.76.64-1.4,1.46-1.4s1.46.62,1.46,1.37c0,.81-.62,1.46-1.46,1.46s-1.46-.64-1.46-1.43Zm.45,4.65h1.99v14.73h-1.99v-14.73Z"/>
          <path class="cls-3" d="m459.97,188.82v8.54h-1.99v-8.34c0-3.11-1.62-4.7-4.42-4.7-3.16,0-5.15,1.96-5.15,5.32v7.73h-1.99v-14.73h1.9v2.72c1.06-1.79,3.05-2.83,5.6-2.83,3.58,0,6.05,2.07,6.05,6.3Z"/>
          <path class="cls-3" d="m476.48,188.23v9.13h-1.9v-2.3c-.9,1.51-2.63,2.44-5.07,2.44-3.33,0-5.38-1.74-5.38-4.28,0-2.27,1.46-4.17,5.68-4.17h4.68v-.9c0-2.52-1.43-3.89-4.17-3.89-1.9,0-3.7.67-4.9,1.74l-.9-1.48c1.48-1.26,3.67-1.99,5.99-1.99,3.81,0,5.96,1.9,5.96,5.71Zm-1.99,4.7v-2.41h-4.62c-2.86,0-3.78,1.12-3.78,2.63,0,1.71,1.37,2.77,3.72,2.77s3.89-1.06,4.68-3Z"/>
          <path class="cls-3" d="m489.65,196.47c-.78.7-1.96,1.04-3.11,1.04-2.77,0-4.31-1.57-4.31-4.28v-8.9h-2.63v-1.68h2.63v-3.22h1.99v3.22h4.48v1.68h-4.48v8.79c0,1.74.9,2.69,2.55,2.69.81,0,1.62-.25,2.18-.76l.7,1.43Z"/>
          <path class="cls-3" d="m504.37,188.23v9.13h-1.9v-2.3c-.9,1.51-2.63,2.44-5.07,2.44-3.33,0-5.38-1.74-5.38-4.28,0-2.27,1.46-4.17,5.68-4.17h4.68v-.9c0-2.52-1.43-3.89-4.17-3.89-1.9,0-3.7.67-4.9,1.74l-.9-1.48c1.48-1.26,3.67-1.99,5.99-1.99,3.81,0,5.96,1.9,5.96,5.71Zm-1.99,4.7v-2.41h-4.62c-2.86,0-3.78,1.12-3.78,2.63,0,1.71,1.37,2.77,3.72,2.77s3.89-1.06,4.68-3Zm-3.78-12.57h-1.96l3.84-3.47h2.66l-4.54,3.47Z"/>
          <path class="cls-3" d="m517.2,182.52v1.93c-.17,0-.34-.03-.48-.03-3.08,0-4.96,1.96-4.96,5.43v7.5h-1.99v-14.73h1.9v2.88c.92-1.96,2.8-3,5.52-3Z"/>
          <path class="cls-3" d="m520.33,177.99c0-.76.64-1.4,1.46-1.4s1.46.62,1.46,1.37c0,.81-.62,1.46-1.46,1.46s-1.46-.64-1.46-1.43Zm.45,4.65h1.99v14.73h-1.99v-14.73Z"/>
          <path class="cls-3" d="m526.83,190c0-4.37,3.19-7.48,7.5-7.48s7.48,3.11,7.48,7.48-3.16,7.5-7.48,7.5-7.5-3.14-7.5-7.5Zm12.96,0c0-3.44-2.32-5.74-5.46-5.74s-5.49,2.3-5.49,5.74,2.35,5.74,5.49,5.74,5.46-2.3,5.46-5.74Z"/>
          <path class="cls-3" d="m543.82,195.68l.9-1.57c1.18.92,3.16,1.65,5.24,1.65,2.8,0,3.95-.95,3.95-2.41,0-3.84-9.55-.81-9.55-6.64,0-2.41,2.07-4.2,5.82-4.2,1.9,0,3.98.53,5.21,1.37l-.87,1.6c-1.29-.9-2.83-1.26-4.34-1.26-2.66,0-3.84,1.04-3.84,2.44,0,3.98,9.55.98,9.55,6.64,0,2.55-2.24,4.2-6.08,4.2-2.44,0-4.79-.78-5.99-1.82Z"/>
          <path class="cls-3" d="m561.27,195.96c0,.48-.11.84-.39,1.62l-1.18,3.86h-1.34l.95-4.06c-.59-.17-1.01-.7-1.01-1.43,0-.87.64-1.51,1.48-1.51s1.48.67,1.48,1.51Z"/>
          <path class="cls-3" d="m586.27,176.59v20.78h-1.9v-2.91c-1.2,1.99-3.25,3.05-5.68,3.05-4.2,0-7.34-3.05-7.34-7.5s3.14-7.48,7.34-7.48c2.35,0,4.37,1.01,5.6,2.91v-8.85h1.99Zm-1.96,13.41c0-3.44-2.35-5.74-5.46-5.74s-5.49,2.3-5.49,5.74,2.35,5.74,5.49,5.74,5.46-2.3,5.46-5.74Z"/>
          <path class="cls-3" d="m604.64,190.61h-12.32c.22,3.08,2.58,5.12,5.8,5.12,1.79,0,3.39-.64,4.51-1.93l1.12,1.29c-1.32,1.57-3.36,2.41-5.68,2.41-4.59,0-7.73-3.14-7.73-7.5s3.05-7.48,7.2-7.48,7.14,3.05,7.14,7.48c0,.17-.03.39-.03.62Zm-12.32-1.48h10.44c-.25-2.88-2.35-4.9-5.24-4.9s-4.96,2.02-5.21,4.9Z"/>
          <path class="cls-3" d="m613.51,176.45c1.09,0,2.21.31,2.94.92l-.67,1.48c-.56-.48-1.34-.73-2.18-.73-1.71,0-2.6.95-2.6,2.77v1.74h4.54v1.68h-4.48v13.05h-1.99v-13.05h-2.63v-1.68h2.63v-1.82c0-2.63,1.57-4.37,4.45-4.37Zm9.41,1.51c0,.81-.62,1.46-1.46,1.46s-1.46-.64-1.46-1.43.64-1.4,1.46-1.4,1.46.62,1.46,1.37Zm-2.46,4.68h1.99v14.73h-1.99v-14.73Z"/>
          <path class="cls-3" d="m641.54,188.82v8.54h-1.99v-8.34c0-3.11-1.62-4.7-4.42-4.7-3.16,0-5.15,1.96-5.15,5.32v7.73h-1.99v-14.73h1.9v2.72c1.06-1.79,3.05-2.83,5.6-2.83,3.58,0,6.05,2.07,6.05,6.3Z"/>
          <path class="cls-3" d="m646.5,177.99c0-.76.64-1.4,1.46-1.4s1.46.62,1.46,1.37c0,.81-.62,1.46-1.46,1.46s-1.46-.64-1.46-1.43Zm.45,4.65h1.99v14.73h-1.99v-14.73Z"/>
          <path class="cls-3" d="m664.87,193.58l1.48,1.01c-1.18,1.9-3.28,2.91-5.77,2.91h-.06l-.34,1.32c1.54.14,2.38,1.04,2.38,2.27,0,1.51-1.29,2.44-3.16,2.44-.92,0-1.68-.2-2.35-.64l.48-1.06c.56.36,1.18.53,1.85.53,1.12,0,1.74-.48,1.74-1.32,0-.76-.56-1.29-1.74-1.29h-.64l.62-2.32c-3.75-.53-6.36-3.44-6.36-7.42,0-4.4,3.19-7.48,7.59-7.48,2.49,0,4.59.98,5.77,2.91l-1.48,1.01c-1.01-1.48-2.58-2.18-4.28-2.18-3.22,0-5.57,2.3-5.57,5.74s2.35,5.74,5.57,5.74c1.71,0,3.28-.67,4.28-2.16Z"/>
          <path class="cls-3" d="m668.51,190c0-4.37,3.19-7.48,7.5-7.48s7.48,3.11,7.48,7.48-3.16,7.5-7.48,7.5-7.5-3.14-7.5-7.5Zm12.96,0c0-3.44-2.32-5.74-5.46-5.74s-5.49,2.3-5.49,5.74,2.35,5.74,5.49,5.74,5.46-2.3,5.46-5.74Zm-7.25-11.7c-.84,0-1.4.67-1.46,1.79h-1.2c.06-1.88,1.04-3.08,2.52-3.08,1.74,0,2.58,1.9,3.67,1.9.84,0,1.4-.67,1.46-1.74h1.2c-.06,1.82-1.04,3.02-2.52,3.02-1.74,0-2.55-1.9-3.67-1.9Z"/>
          <path class="cls-3" d="m700.37,190.61h-12.32c.22,3.08,2.58,5.12,5.8,5.12,1.79,0,3.39-.64,4.51-1.93l1.12,1.29c-1.32,1.57-3.36,2.41-5.68,2.41-4.59,0-7.73-3.14-7.73-7.5s3.05-7.48,7.2-7.48,7.14,3.05,7.14,7.48c0,.17-.03.39-.03.62Zm-12.32-1.48h10.44c-.25-2.88-2.35-4.9-5.24-4.9s-4.96,2.02-5.21,4.9Z"/>
          <path class="cls-3" d="m702.41,195.68l.9-1.57c1.18.92,3.16,1.65,5.24,1.65,2.8,0,3.95-.95,3.95-2.41,0-3.84-9.55-.81-9.55-6.64,0-2.41,2.07-4.2,5.82-4.2,1.9,0,3.98.53,5.21,1.37l-.87,1.6c-1.29-.9-2.83-1.26-4.34-1.26-2.66,0-3.84,1.04-3.84,2.44,0,3.98,9.55.98,9.55,6.64,0,2.55-2.24,4.2-6.08,4.2-2.44,0-4.79-.78-5.99-1.82Z"/>
          <path class="cls-3" d="m719.86,195.96c0,.48-.11.84-.39,1.62l-1.18,3.86h-1.34l.95-4.06c-.59-.17-1.01-.7-1.01-1.43,0-.87.64-1.51,1.48-1.51s1.48.67,1.48,1.51Z"/>
          <path class="cls-3" d="m744.25,190.61h-12.32c.22,3.08,2.58,5.12,5.8,5.12,1.79,0,3.39-.64,4.51-1.93l1.12,1.29c-1.32,1.57-3.36,2.41-5.68,2.41-4.59,0-7.73-3.14-7.73-7.5s3.05-7.48,7.2-7.48,7.14,3.05,7.14,7.48c0,.17-.03.39-.03.62Zm-12.32-1.48h10.44c-.25-2.88-2.35-4.9-5.24-4.9s-4.96,2.02-5.21,4.9Z"/>
          <path class="cls-3" d="m761.89,188.82v8.54h-1.99v-8.34c0-3.11-1.62-4.7-4.42-4.7-3.16,0-5.15,1.96-5.15,5.32v7.73h-1.99v-14.73h1.9v2.72c1.06-1.79,3.05-2.83,5.6-2.83,3.58,0,6.05,2.07,6.05,6.3Z"/>
          <path class="cls-3" d="m775.05,196.47c-.78.7-1.96,1.04-3.11,1.04-2.77,0-4.31-1.57-4.31-4.28v-8.9h-2.63v-1.68h2.63v-3.22h1.99v3.22h4.48v1.68h-4.48v8.79c0,1.74.9,2.69,2.55,2.69.81,0,1.62-.25,2.18-.76l.7,1.43Z"/>
          <path class="cls-3" d="m786.08,182.52v1.93c-.17,0-.34-.03-.48-.03-3.08,0-4.96,1.96-4.96,5.43v7.5h-1.99v-14.73h1.9v2.88c.92-1.96,2.8-3,5.52-3Z"/>
          <path class="cls-3" d="m802.35,190.61h-12.32c.22,3.08,2.58,5.12,5.8,5.12,1.79,0,3.39-.64,4.51-1.93l1.12,1.29c-1.32,1.57-3.36,2.41-5.68,2.41-4.59,0-7.73-3.14-7.73-7.5s3.05-7.48,7.2-7.48,7.14,3.05,7.14,7.48c0,.17-.03.39-.03.62Zm-12.32-1.48h10.44c-.25-2.88-2.35-4.9-5.24-4.9s-4.96,2.02-5.21,4.9Z"/>
          <path class="cls-3" d="m812.29,190c0-4.37,3.19-7.48,7.5-7.48s7.48,3.11,7.48,7.48-3.16,7.5-7.48,7.5-7.5-3.14-7.5-7.5Zm12.96,0c0-3.44-2.32-5.74-5.46-5.74s-5.49,2.3-5.49,5.74,2.35,5.74,5.49,5.74,5.46-2.3,5.46-5.74Z"/>
          <path class="cls-3" d="m844.6,182.63v14.73h-1.9v-2.69c-1.04,1.79-2.94,2.83-5.29,2.83-3.75,0-6.22-2.1-6.22-6.33v-8.54h1.99v8.34c0,3.14,1.62,4.73,4.42,4.73,3.08,0,5.01-1.99,5.01-5.35v-7.73h1.99Z"/>
          <path class="cls-3" d="m857.93,196.47c-.78.7-1.96,1.04-3.11,1.04-2.77,0-4.31-1.57-4.31-4.28v-8.9h-2.63v-1.68h2.63v-3.22h1.99v3.22h4.48v1.68h-4.48v8.79c0,1.74.9,2.69,2.55,2.69.81,0,1.62-.25,2.18-.76l.7,1.43Z"/>
          <path class="cls-3" d="m868.96,182.52v1.93c-.17,0-.34-.03-.48-.03-3.08,0-4.96,1.96-4.96,5.43v7.5h-1.99v-14.73h1.9v2.88c.92-1.96,2.8-3,5.52-3Z"/>
          <path class="cls-3" d="m870.92,190c0-4.37,3.19-7.48,7.5-7.48s7.48,3.11,7.48,7.48-3.16,7.5-7.48,7.5-7.5-3.14-7.5-7.5Zm12.96,0c0-3.44-2.32-5.74-5.46-5.74s-5.49,2.3-5.49,5.74,2.35,5.74,5.49,5.74,5.46-2.3,5.46-5.74Z"/>
          <path class="cls-3" d="m887.91,195.68l.9-1.57c1.18.92,3.16,1.65,5.24,1.65,2.8,0,3.95-.95,3.95-2.41,0-3.84-9.55-.81-9.55-6.64,0-2.41,2.07-4.2,5.82-4.2,1.9,0,3.98.53,5.21,1.37l-.87,1.6c-1.29-.9-2.83-1.26-4.34-1.26-2.66,0-3.84,1.04-3.84,2.44,0,3.98,9.55.98,9.55,6.64,0,2.55-2.24,4.2-6.08,4.2-2.44,0-4.79-.78-5.99-1.82Z"/>
          <path class="cls-3" d="m905.36,195.96c0,.48-.11.84-.39,1.62l-1.18,3.86h-1.34l.95-4.06c-.59-.17-1.01-.7-1.01-1.43,0-.87.64-1.51,1.48-1.51s1.48.67,1.48,1.51Z"/>
          <path class="cls-3" d="m929.75,190.61h-12.32c.22,3.08,2.58,5.12,5.8,5.12,1.79,0,3.39-.64,4.51-1.93l1.12,1.29c-1.32,1.57-3.36,2.41-5.68,2.41-4.59,0-7.73-3.14-7.73-7.5s3.05-7.48,7.2-7.48,7.14,3.05,7.14,7.48c0,.17-.03.39-.03.62Zm-12.32-1.48h10.44c-.25-2.88-2.35-4.9-5.24-4.9s-4.96,2.02-5.21,4.9Z"/>
          <path class="cls-3" d="m933.83,176.59h1.99v20.78h-1.99v-20.78Z"/>
          <path class="cls-3" d="m954.19,190.61h-12.32c.22,3.08,2.58,5.12,5.8,5.12,1.79,0,3.39-.64,4.51-1.93l1.12,1.29c-1.32,1.57-3.36,2.41-5.68,2.41-4.59,0-7.73-3.14-7.73-7.5s3.05-7.48,7.2-7.48,7.14,3.05,7.14,7.48c0,.17-.03.39-.03.62Zm-12.32-1.48h10.44c-.25-2.88-2.35-4.9-5.24-4.9s-4.96,2.02-5.21,4.9Z"/>
          <path class="cls-3" d="m982.58,188.82v8.54h-1.99v-8.34c0-3.11-1.57-4.7-4.23-4.7-3.02,0-4.93,1.96-4.93,5.32v7.73h-1.99v-8.34c0-3.11-1.57-4.7-4.26-4.7-3,0-4.93,1.96-4.93,5.32v7.73h-1.99v-14.73h1.9v2.69c1.04-1.76,2.94-2.8,5.4-2.8s4.34,1.04,5.24,3.11c1.06-1.9,3.16-3.11,5.82-3.11,3.58,0,5.94,2.07,5.94,6.3Z"/>
          <path class="cls-3" d="m1000.87,190.61h-12.32c.22,3.08,2.58,5.12,5.8,5.12,1.79,0,3.39-.64,4.51-1.93l1.12,1.29c-1.32,1.57-3.36,2.41-5.68,2.41-4.59,0-7.73-3.14-7.73-7.5s3.05-7.48,7.2-7.48,7.14,3.05,7.14,7.48c0,.17-.03.39-.03.62Zm-12.32-1.48h10.44c-.25-2.88-2.35-4.9-5.24-4.9s-4.96,2.02-5.21,4.9Z"/>
          <path class="cls-3" d="m1018.51,188.82v8.54h-1.99v-8.34c0-3.11-1.62-4.7-4.42-4.7-3.16,0-5.15,1.96-5.15,5.32v7.73h-1.99v-14.73h1.9v2.72c1.06-1.79,3.05-2.83,5.6-2.83,3.58,0,6.05,2.07,6.05,6.3Z"/>
          <path class="cls-3" d="m1031.67,196.47c-.78.7-1.96,1.04-3.11,1.04-2.77,0-4.31-1.57-4.31-4.28v-8.9h-2.63v-1.68h2.63v-3.22h1.99v3.22h4.48v1.68h-4.48v8.79c0,1.74.9,2.69,2.55,2.69.81,0,1.62-.25,2.18-.76l.7,1.43Z"/>
          <path class="cls-3" d="m1033.26,190c0-4.37,3.19-7.48,7.5-7.48s7.48,3.11,7.48,7.48-3.16,7.5-7.48,7.5-7.5-3.14-7.5-7.5Zm12.96,0c0-3.44-2.32-5.74-5.46-5.74s-5.49,2.3-5.49,5.74,2.35,5.74,5.49,5.74,5.46-2.3,5.46-5.74Z"/>
          <path class="cls-3" d="m1050.26,195.68l.9-1.57c1.18.92,3.16,1.65,5.24,1.65,2.8,0,3.95-.95,3.95-2.41,0-3.84-9.55-.81-9.55-6.64,0-2.41,2.07-4.2,5.82-4.2,1.9,0,3.98.53,5.21,1.37l-.87,1.6c-1.29-.9-2.83-1.26-4.34-1.26-2.66,0-3.84,1.04-3.84,2.44,0,3.98,9.55.98,9.55,6.64,0,2.55-2.24,4.2-6.08,4.2-2.44,0-4.79-.78-5.99-1.82Z"/>
          <path class="cls-3" d="m1086.77,182.63v20.16h-1.99v-8.2c-1.23,1.9-3.25,2.91-5.6,2.91-4.2,0-7.34-3.02-7.34-7.5s3.14-7.48,7.34-7.48c2.44,0,4.48,1.06,5.68,3.02v-2.91h1.9Zm-1.96,7.36c0-3.42-2.35-5.74-5.46-5.74s-5.49,2.32-5.49,5.74,2.35,5.74,5.49,5.74,5.46-2.3,5.46-5.74Z"/>
          <path class="cls-3" d="m1105.59,182.63v14.73h-1.9v-2.69c-1.04,1.79-2.94,2.83-5.29,2.83-3.75,0-6.22-2.1-6.22-6.33v-8.54h1.99v8.34c0,3.14,1.62,4.73,4.42,4.73,3.08,0,5.01-1.99,5.01-5.35v-7.73h1.99Z"/>
          <path class="cls-3" d="m1123.98,190.61h-12.32c.22,3.08,2.58,5.12,5.8,5.12,1.79,0,3.39-.64,4.51-1.93l1.12,1.29c-1.32,1.57-3.36,2.41-5.68,2.41-4.59,0-7.73-3.14-7.73-7.5s3.05-7.48,7.2-7.48,7.14,3.05,7.14,7.48c0,.17-.03.39-.03.62Zm-12.32-1.48h10.44c-.25-2.88-2.35-4.9-5.24-4.9s-4.96,2.02-5.21,4.9Z"/>
          <path class="cls-3" d="m1133.36,195.68l.9-1.57c1.18.92,3.16,1.65,5.24,1.65,2.8,0,3.95-.95,3.95-2.41,0-3.84-9.55-.81-9.55-6.64,0-2.41,2.07-4.2,5.82-4.2,1.9,0,3.98.53,5.21,1.37l-.87,1.6c-1.29-.9-2.83-1.26-4.34-1.26-2.66,0-3.84,1.04-3.84,2.44,0,3.98,9.55.98,9.55,6.64,0,2.55-2.24,4.2-6.08,4.2-2.44,0-4.79-.78-5.99-1.82Z"/>
          <path class="cls-3" d="m1160.21,188.23v9.13h-1.9v-2.3c-.9,1.51-2.63,2.44-5.07,2.44-3.33,0-5.38-1.74-5.38-4.28,0-2.27,1.46-4.17,5.68-4.17h4.68v-.9c0-2.52-1.43-3.89-4.17-3.89-1.9,0-3.7.67-4.9,1.74l-.9-1.48c1.48-1.26,3.67-1.99,5.99-1.99,3.81,0,5.96,1.9,5.96,5.71Zm-1.99,4.7v-2.41h-4.62c-2.86,0-3.78,1.12-3.78,2.63,0,1.71,1.37,2.77,3.72,2.77s3.89-1.06,4.68-3Zm-7.14-12.85h-1.2c.06-1.88,1.04-3.08,2.52-3.08,1.74,0,2.58,1.9,3.67,1.9.84,0,1.4-.67,1.46-1.74h1.2c-.06,1.82-1.04,3.02-2.52,3.02-1.74,0-2.55-1.9-3.67-1.9-.84,0-1.4.67-1.46,1.79Z"/>
          <path class="cls-3" d="m1164.19,190c0-4.37,3.19-7.48,7.5-7.48s7.48,3.11,7.48,7.48-3.16,7.5-7.48,7.5-7.5-3.14-7.5-7.5Zm12.96,0c0-3.44-2.32-5.74-5.46-5.74s-5.49,2.3-5.49,5.74,2.35,5.74,5.49,5.74,5.46-2.3,5.46-5.74Z"/>
          <path class="cls-3" d="m96,212.59v20.78h-1.9v-2.91c-1.2,1.99-3.25,3.05-5.68,3.05-4.2,0-7.34-3.05-7.34-7.5s3.14-7.48,7.34-7.48c2.35,0,4.37,1.01,5.6,2.91v-8.85h1.99Zm-1.96,13.41c0-3.44-2.35-5.74-5.46-5.74s-5.49,2.3-5.49,5.74,2.35,5.74,5.49,5.74,5.46-2.3,5.46-5.74Z"/>
          <path class="cls-3" d="m101.09,213.99c0-.76.64-1.4,1.46-1.4s1.46.62,1.46,1.37c0,.81-.62,1.46-1.46,1.46s-1.46-.64-1.46-1.43Zm.45,4.65h1.99v14.73h-1.99v-14.73Z"/>
          <path class="cls-3" d="m107.03,231.68l.9-1.57c1.18.92,3.16,1.65,5.24,1.65,2.8,0,3.95-.95,3.95-2.41,0-3.84-9.55-.81-9.55-6.64,0-2.41,2.07-4.2,5.82-4.2,1.9,0,3.98.53,5.21,1.37l-.87,1.6c-1.29-.9-2.83-1.26-4.34-1.26-2.66,0-3.84,1.04-3.84,2.44,0,3.98,9.55.98,9.55,6.64,0,2.55-2.24,4.2-6.08,4.2-2.44,0-4.79-.78-5.99-1.82Z"/>
          <path class="cls-3" d="m121.28,226c0-4.4,3.19-7.48,7.59-7.48,2.49,0,4.59.98,5.77,2.91l-1.48,1.01c-1.01-1.48-2.58-2.18-4.28-2.18-3.22,0-5.57,2.3-5.57,5.74s2.35,5.74,5.57,5.74c1.71,0,3.28-.67,4.28-2.16l1.48,1.01c-1.18,1.9-3.28,2.91-5.77,2.91-4.4,0-7.59-3.11-7.59-7.5Z"/>
          <path class="cls-3" d="m145.95,218.52v1.93c-.17,0-.34-.03-.48-.03-3.08,0-4.96,1.96-4.96,5.43v7.5h-1.99v-14.73h1.9v2.88c.92-1.96,2.8-3,5.52-3Z"/>
          <path class="cls-3" d="m149.08,213.99c0-.76.64-1.4,1.46-1.4s1.46.62,1.46,1.37c0,.81-.62,1.46-1.46,1.46s-1.46-.64-1.46-1.43Zm.45,4.65h1.99v14.73h-1.99v-14.73Z"/>
          <path class="cls-3" d="m181.37,224.82v8.54h-1.99v-8.34c0-3.11-1.57-4.7-4.23-4.7-3.02,0-4.93,1.96-4.93,5.32v7.73h-1.99v-8.34c0-3.11-1.57-4.7-4.26-4.7-3,0-4.93,1.96-4.93,5.32v7.73h-1.99v-14.73h1.9v2.69c1.04-1.76,2.94-2.8,5.4-2.8s4.34,1.04,5.24,3.11c1.06-1.9,3.16-3.11,5.82-3.11,3.58,0,5.94,2.07,5.94,6.3Z"/>
          <path class="cls-3" d="m186.32,213.99c0-.76.64-1.4,1.46-1.4s1.46.62,1.46,1.37c0,.81-.62,1.46-1.46,1.46s-1.46-.64-1.46-1.43Zm.45,4.65h1.99v14.73h-1.99v-14.73Z"/>
          <path class="cls-3" d="m207.86,224.82v8.54h-1.99v-8.34c0-3.11-1.62-4.7-4.42-4.7-3.16,0-5.15,1.96-5.15,5.32v7.73h-1.99v-14.73h1.9v2.72c1.06-1.79,3.05-2.83,5.6-2.83,3.58,0,6.05,2.07,6.05,6.3Z"/>
          <path class="cls-3" d="m224.38,224.23v9.13h-1.9v-2.3c-.9,1.51-2.63,2.44-5.07,2.44-3.33,0-5.38-1.74-5.38-4.28,0-2.27,1.46-4.17,5.68-4.17h4.68v-.9c0-2.52-1.43-3.89-4.17-3.89-1.9,0-3.7.67-4.9,1.74l-.9-1.48c1.48-1.26,3.67-1.99,5.99-1.99,3.81,0,5.96,1.9,5.96,5.71Zm-1.99,4.7v-2.41h-4.62c-2.86,0-3.78,1.12-3.78,2.63,0,1.71,1.37,2.77,3.72,2.77s3.89-1.06,4.68-3Z"/>
          <path class="cls-3" d="m243.27,212.59v20.78h-1.9v-2.91c-1.2,1.99-3.25,3.05-5.68,3.05-4.2,0-7.34-3.05-7.34-7.5s3.14-7.48,7.34-7.48c2.35,0,4.37,1.01,5.6,2.91v-8.85h1.99Zm-1.96,13.41c0-3.44-2.35-5.74-5.46-5.74s-5.49,2.3-5.49,5.74,2.35,5.74,5.49,5.74,5.46-2.3,5.46-5.74Z"/>
          <path class="cls-3" d="m247.33,226c0-4.37,3.19-7.48,7.5-7.48s7.48,3.11,7.48,7.48-3.16,7.5-7.48,7.5-7.5-3.14-7.5-7.5Zm12.96,0c0-3.44-2.32-5.74-5.46-5.74s-5.49,2.3-5.49,5.74,2.35,5.74,5.49,5.74,5.46-2.3,5.46-5.74Z"/>
          <path class="cls-3" d="m264.33,231.68l.9-1.57c1.18.92,3.16,1.65,5.24,1.65,2.8,0,3.95-.95,3.95-2.41,0-3.84-9.55-.81-9.55-6.64,0-2.41,2.07-4.2,5.82-4.2,1.9,0,3.98.53,5.21,1.37l-.87,1.6c-1.29-.9-2.83-1.26-4.34-1.26-2.66,0-3.84,1.04-3.84,2.44,0,3.98,9.55.98,9.55,6.64,0,2.55-2.24,4.2-6.08,4.2-2.44,0-4.79-.78-5.99-1.82Z"/>
          <path class="cls-3" d="m300.23,226.61h-12.32c.22,3.08,2.58,5.12,5.8,5.12,1.79,0,3.39-.64,4.51-1.93l1.12,1.29c-1.32,1.57-3.36,2.41-5.68,2.41-4.59,0-7.73-3.14-7.73-7.5s3.05-7.48,7.2-7.48,7.14,3.05,7.14,7.48c0,.17-.03.39-.03.62Zm-12.32-1.48h10.44c-.25-2.88-2.35-4.9-5.24-4.9s-4.96,2.02-5.21,4.9Z"/>
          <path class="cls-3" d="m328.62,224.82v8.54h-1.99v-8.34c0-3.11-1.57-4.7-4.23-4.7-3.02,0-4.93,1.96-4.93,5.32v7.73h-1.99v-8.34c0-3.11-1.57-4.7-4.26-4.7-3,0-4.93,1.96-4.93,5.32v7.73h-1.99v-14.73h1.9v2.69c1.04-1.76,2.94-2.8,5.4-2.8s4.34,1.04,5.24,3.11c1.06-1.9,3.16-3.11,5.82-3.11,3.58,0,5.94,2.07,5.94,6.3Z"/>
          <path class="cls-3" d="m352.47,224.23v9.13h-1.9v-2.3c-.9,1.51-2.63,2.44-5.07,2.44-3.33,0-5.38-1.74-5.38-4.28,0-2.27,1.46-4.17,5.68-4.17h4.68v-.9c0-2.52-1.43-3.89-4.17-3.89-1.9,0-3.7.67-4.9,1.74l-.9-1.48c1.48-1.26,3.67-1.99,5.99-1.99,3.81,0,5.96,1.9,5.96,5.71Zm-1.99,4.7v-2.41h-4.62c-2.86,0-3.78,1.12-3.78,2.63,0,1.71,1.37,2.77,3.72,2.77s3.89-1.06,4.68-3Z"/>
          <path class="cls-3" d="m365.3,218.52v1.93c-.17,0-.34-.03-.48-.03-3.08,0-4.96,1.96-4.96,5.43v7.5h-1.99v-14.73h1.9v2.88c.92-1.96,2.8-3,5.52-3Z"/>
          <path class="cls-3" d="m377.28,232.47c-.78.7-1.96,1.04-3.11,1.04-2.77,0-4.31-1.57-4.31-4.28v-8.9h-2.63v-1.68h2.63v-3.22h1.99v3.22h4.48v1.68h-4.48v8.79c0,1.74.9,2.69,2.55,2.69.81,0,1.62-.25,2.18-.76l.7,1.43Z"/>
          <path class="cls-3" d="m380.45,213.99c0-.76.64-1.4,1.46-1.4s1.46.62,1.46,1.37c0,.81-.62,1.46-1.46,1.46s-1.46-.64-1.46-1.43Zm.45,4.65h1.99v14.73h-1.99v-14.73Z"/>
          <path class="cls-3" d="m402.06,218.63v12.94c0,5.07-2.49,7.36-7.36,7.36-2.69,0-5.32-.81-6.86-2.27l1.01-1.51c1.4,1.26,3.53,2.02,5.8,2.02,3.72,0,5.43-1.71,5.43-5.35v-1.88c-1.23,1.88-3.33,2.86-5.74,2.86-4.2,0-7.39-2.94-7.39-7.17s3.19-7.11,7.39-7.11c2.46,0,4.59,1.01,5.82,2.94v-2.83h1.9Zm-1.93,7c0-3.19-2.35-5.38-5.6-5.38s-5.57,2.18-5.57,5.38,2.32,5.4,5.57,5.4,5.6-2.21,5.6-5.4Z"/>
          <path class="cls-3" d="m406.15,226c0-4.37,3.19-7.48,7.5-7.48s7.48,3.11,7.48,7.48-3.16,7.5-7.48,7.5-7.5-3.14-7.5-7.5Zm12.96,0c0-3.44-2.32-5.74-5.46-5.74s-5.49,2.3-5.49,5.74,2.35,5.74,5.49,5.74,5.46-2.3,5.46-5.74Z"/>
          <path class="cls-3" d="m431.04,226c0-4.37,3.19-7.48,7.5-7.48s7.48,3.11,7.48,7.48-3.16,7.5-7.48,7.5-7.5-3.14-7.5-7.5Zm12.96,0c0-3.44-2.32-5.74-5.46-5.74s-5.49,2.3-5.49,5.74,2.35,5.74,5.49,5.74,5.46-2.3,5.46-5.74Z"/>
          <path class="cls-3" d="m463.35,218.63v14.73h-1.9v-2.69c-1.04,1.79-2.94,2.83-5.29,2.83-3.75,0-6.22-2.1-6.22-6.33v-8.54h1.99v8.34c0,3.14,1.62,4.73,4.42,4.73,3.08,0,5.01-1.99,5.01-5.35v-7.73h1.99Z"/>
          <path class="cls-3" d="m491.19,226c0,4.48-3.14,7.5-7.34,7.5-2.35,0-4.37-1.01-5.6-2.91v8.2h-1.99v-20.16h1.9v2.91c1.2-1.96,3.25-3.02,5.68-3.02,4.2,0,7.34,3.02,7.34,7.48Zm-1.99,0c0-3.42-2.38-5.74-5.49-5.74s-5.49,2.32-5.49,5.74,2.35,5.74,5.49,5.74,5.49-2.3,5.49-5.74Z"/>
          <path class="cls-3" d="m506.28,224.23v9.13h-1.9v-2.3c-.9,1.51-2.63,2.44-5.07,2.44-3.33,0-5.38-1.74-5.38-4.28,0-2.27,1.46-4.17,5.68-4.17h4.68v-.9c0-2.52-1.43-3.89-4.17-3.89-1.9,0-3.7.67-4.9,1.74l-.9-1.48c1.48-1.26,3.67-1.99,5.99-1.99,3.81,0,5.96,1.9,5.96,5.71Zm-1.99,4.7v-2.41h-4.62c-2.86,0-3.78,1.12-3.78,2.63,0,1.71,1.37,2.77,3.72,2.77s3.89-1.06,4.68-3Z"/>
          <path class="cls-3" d="m519.1,218.52v1.93c-.17,0-.34-.03-.48-.03-3.08,0-4.96,1.96-4.96,5.43v7.5h-1.99v-14.73h1.9v2.88c.92-1.96,2.8-3,5.52-3Z"/>
          <path class="cls-3" d="m533.77,224.23v9.13h-1.9v-2.3c-.9,1.51-2.63,2.44-5.07,2.44-3.33,0-5.38-1.74-5.38-4.28,0-2.27,1.46-4.17,5.68-4.17h4.68v-.9c0-2.52-1.43-3.89-4.17-3.89-1.9,0-3.7.67-4.9,1.74l-.9-1.48c1.48-1.26,3.67-1.99,5.99-1.99,3.81,0,5.96,1.9,5.96,5.71Zm-1.99,4.7v-2.41h-4.62c-2.86,0-3.78,1.12-3.78,2.63,0,1.71,1.37,2.77,3.72,2.77s3.89-1.06,4.68-3Zm-3.78-12.57h-1.96l3.84-3.47h2.66l-4.54,3.47Z"/>
          <path class="cls-3" d="m552.87,218.63v12.94c0,5.07-2.49,7.36-7.36,7.36-2.69,0-5.32-.81-6.86-2.27l1.01-1.51c1.4,1.26,3.53,2.02,5.8,2.02,3.72,0,5.43-1.71,5.43-5.35v-1.88c-1.23,1.88-3.33,2.86-5.74,2.86-4.2,0-7.39-2.94-7.39-7.17s3.19-7.11,7.39-7.11c2.46,0,4.59,1.01,5.82,2.94v-2.83h1.9Zm-1.93,7c0-3.19-2.35-5.38-5.6-5.38s-5.57,2.18-5.57,5.38,2.32,5.4,5.57,5.4,5.6-2.21,5.6-5.4Z"/>
          <path class="cls-3" d="m565.86,218.52v1.93c-.17,0-.34-.03-.48-.03-3.08,0-4.96,1.96-4.96,5.43v7.5h-1.99v-14.73h1.9v2.88c.92-1.96,2.8-3,5.52-3Z"/>
          <path class="cls-3" d="m580.53,224.23v9.13h-1.9v-2.3c-.9,1.51-2.63,2.44-5.07,2.44-3.33,0-5.38-1.74-5.38-4.28,0-2.27,1.46-4.17,5.68-4.17h4.68v-.9c0-2.52-1.43-3.89-4.17-3.89-1.9,0-3.7.67-4.9,1.74l-.9-1.48c1.48-1.26,3.67-1.99,5.99-1.99,3.81,0,5.96,1.9,5.96,5.71Zm-1.99,4.7v-2.41h-4.62c-2.86,0-3.78,1.12-3.78,2.63,0,1.71,1.37,2.77,3.72,2.77s3.89-1.06,4.68-3Z"/>
          <path class="cls-3" d="m588.2,216.9v1.74h4.54v1.68h-4.48v13.05h-1.99v-13.05h-2.63v-1.68h2.63v-1.82c0-2.63,1.57-4.37,4.45-4.37,1.09,0,2.21.31,2.94.92l-.67,1.48c-.56-.48-1.34-.73-2.18-.73-1.71,0-2.6.95-2.6,2.77Z"/>
          <path class="cls-3" d="m593.69,226c0-4.37,3.19-7.48,7.5-7.48s7.48,3.11,7.48,7.48-3.16,7.5-7.48,7.5-7.5-3.14-7.5-7.5Zm12.96,0c0-3.44-2.32-5.74-5.46-5.74s-5.49,2.3-5.49,5.74,2.35,5.74,5.49,5.74,5.46-2.3,5.46-5.74Z"/>
          <path class="cls-3" d="m611.02,231.96c0-.87.67-1.51,1.48-1.51s1.51.64,1.51,1.51-.7,1.54-1.51,1.54-1.48-.67-1.48-1.54Z"/>
          <path class="cls-3" d="m624.13,230.98l.81-1.6c1.4,1.37,3.89,2.38,6.47,2.38,3.67,0,5.26-1.54,5.26-3.47,0-5.38-12.07-2.07-12.07-9.32,0-2.88,2.24-5.38,7.22-5.38,2.21,0,4.51.64,6.08,1.74l-.7,1.65c-1.68-1.09-3.64-1.62-5.38-1.62-3.58,0-5.18,1.6-5.18,3.56,0,5.38,12.07,2.13,12.07,9.27,0,2.88-2.3,5.35-7.31,5.35-2.94,0-5.82-1.04-7.28-2.55Z"/>
          <path class="cls-3" d="m655.63,226.61h-12.32c.22,3.08,2.58,5.12,5.8,5.12,1.79,0,3.39-.64,4.51-1.93l1.12,1.29c-1.32,1.57-3.36,2.41-5.68,2.41-4.59,0-7.73-3.14-7.73-7.5s3.05-7.48,7.2-7.48,7.14,3.05,7.14,7.48c0,.17-.03.39-.03.62Zm-12.32-1.48h10.44c-.25-2.88-2.35-4.9-5.24-4.9s-4.96,2.02-5.21,4.9Z"/>
          <path class="cls-3" d="m673.35,218.63v12.94c0,5.07-2.49,7.36-7.36,7.36-2.69,0-5.32-.81-6.86-2.27l1.01-1.51c1.4,1.26,3.53,2.02,5.8,2.02,3.72,0,5.43-1.71,5.43-5.35v-1.88c-1.23,1.88-3.33,2.86-5.74,2.86-4.2,0-7.39-2.94-7.39-7.17s3.19-7.11,7.39-7.11c2.46,0,4.59,1.01,5.82,2.94v-2.83h1.9Zm-1.93,7c0-3.19-2.35-5.38-5.6-5.38s-5.57,2.18-5.57,5.38,2.32,5.4,5.57,5.4,5.6-2.21,5.6-5.4Z"/>
          <path class="cls-3" d="m692.19,218.63v14.73h-1.9v-2.69c-1.04,1.79-2.94,2.83-5.29,2.83-3.75,0-6.22-2.1-6.22-6.33v-8.54h1.99v8.34c0,3.14,1.62,4.73,4.42,4.73,3.08,0,5.01-1.99,5.01-5.35v-7.73h1.99Z"/>
          <path class="cls-3" d="m697.32,213.99c0-.76.64-1.4,1.46-1.4s1.46.62,1.46,1.37c0,.81-.62,1.46-1.46,1.46s-1.46-.64-1.46-1.43Zm.45,4.65h1.99v14.73h-1.99v-14.73Z"/>
          <path class="cls-3" d="m718.85,224.82v8.54h-1.99v-8.34c0-3.11-1.62-4.7-4.42-4.7-3.16,0-5.15,1.96-5.15,5.32v7.73h-1.99v-14.73h1.9v2.72c1.06-1.79,3.05-2.83,5.6-2.83,3.58,0,6.05,2.07,6.05,6.3Z"/>
          <path class="cls-3" d="m737.75,212.59v20.78h-1.9v-2.91c-1.2,1.99-3.25,3.05-5.68,3.05-4.2,0-7.34-3.05-7.34-7.5s3.14-7.48,7.34-7.48c2.35,0,4.37,1.01,5.6,2.91v-8.85h1.99Zm-1.96,13.41c0-3.44-2.35-5.74-5.46-5.74s-5.49,2.3-5.49,5.74,2.35,5.74,5.49,5.74,5.46-2.3,5.46-5.74Z"/>
          <path class="cls-3" d="m741.81,226c0-4.37,3.19-7.48,7.5-7.48s7.48,3.11,7.48,7.48-3.16,7.5-7.48,7.5-7.5-3.14-7.5-7.5Zm12.96,0c0-3.44-2.32-5.74-5.46-5.74s-5.49,2.3-5.49,5.74,2.35,5.74,5.49,5.74,5.46-2.3,5.46-5.74Z"/>
          <path class="cls-3" d="m779.3,224.23v9.13h-1.9v-2.3c-.9,1.51-2.63,2.44-5.07,2.44-3.33,0-5.38-1.74-5.38-4.28,0-2.27,1.46-4.17,5.68-4.17h4.68v-.9c0-2.52-1.43-3.89-4.17-3.89-1.9,0-3.7.67-4.9,1.74l-.9-1.48c1.48-1.26,3.67-1.99,5.99-1.99,3.81,0,5.96,1.9,5.96,5.71Zm-1.99,4.7v-2.41h-4.62c-2.86,0-3.78,1.12-3.78,2.63,0,1.71,1.37,2.77,3.72,2.77s3.89-1.06,4.68-3Z"/>
          <path class="cls-3" d="m792.46,213.76h2.07v17.81h10.98v1.79h-13.05v-19.6Z"/>
          <path class="cls-3" d="m821.13,226.61h-12.32c.22,3.08,2.58,5.12,5.8,5.12,1.79,0,3.39-.64,4.51-1.93l1.12,1.29c-1.32,1.57-3.36,2.41-5.68,2.41-4.59,0-7.73-3.14-7.73-7.5s3.05-7.48,7.2-7.48,7.14,3.05,7.14,7.48c0,.17-.03.39-.03.62Zm-12.32-1.48h10.44c-.25-2.88-2.35-4.9-5.24-4.9s-4.96,2.02-5.21,4.9Z"/>
          <path class="cls-3" d="m824.77,213.99c0-.76.64-1.4,1.46-1.4s1.46.62,1.46,1.37c0,.81-.62,1.46-1.46,1.46s-1.46-.64-1.46-1.43Zm.45,4.65h1.99v14.73h-1.99v-14.73Z"/>
          <path class="cls-3" d="m838.77,223.56c0-5.74,4.37-9.97,10.28-9.97,2.86,0,5.43.95,7.17,2.86l-1.32,1.32c-1.6-1.62-3.56-2.32-5.8-2.32-4.73,0-8.29,3.47-8.29,8.12s3.56,8.12,8.29,8.12c2.24,0,4.2-.7,5.8-2.35l1.32,1.32c-1.74,1.9-4.31,2.88-7.2,2.88-5.88,0-10.25-4.23-10.25-9.97Z"/>
          <path class="cls-3" d="m858.09,226c0-4.37,3.19-7.48,7.5-7.48s7.48,3.11,7.48,7.48-3.16,7.5-7.48,7.5-7.5-3.14-7.5-7.5Zm12.96,0c0-3.44-2.32-5.74-5.46-5.74s-5.49,2.3-5.49,5.74,2.35,5.74,5.49,5.74,5.46-2.3,5.46-5.74Z"/>
          <path class="cls-3" d="m901.44,224.82v8.54h-1.99v-8.34c0-3.11-1.57-4.7-4.23-4.7-3.02,0-4.93,1.96-4.93,5.32v7.73h-1.99v-8.34c0-3.11-1.57-4.7-4.26-4.7-3,0-4.93,1.96-4.93,5.32v7.73h-1.99v-14.73h1.9v2.69c1.04-1.76,2.94-2.8,5.4-2.8s4.34,1.04,5.24,3.11c1.06-1.9,3.16-3.11,5.82-3.11,3.58,0,5.94,2.07,5.94,6.3Z"/>
          <path class="cls-3" d="m921.76,226c0,4.48-3.14,7.5-7.34,7.5-2.35,0-4.37-1.01-5.6-2.91v8.2h-1.99v-20.16h1.9v2.91c1.2-1.96,3.25-3.02,5.68-3.02,4.2,0,7.34,3.02,7.34,7.48Zm-1.99,0c0-3.42-2.38-5.74-5.49-5.74s-5.49,2.32-5.49,5.74,2.35,5.74,5.49,5.74,5.49-2.3,5.49-5.74Z"/>
          <path class="cls-3" d="m925.82,212.59h1.99v20.78h-1.99v-20.78Z"/>
          <path class="cls-3" d="m946.18,226.61h-12.32c.22,3.08,2.58,5.12,5.8,5.12,1.79,0,3.39-.64,4.51-1.93l1.12,1.29c-1.32,1.57-3.36,2.41-5.68,2.41-4.59,0-7.73-3.14-7.73-7.5s3.05-7.48,7.2-7.48,7.14,3.05,7.14,7.48c0,.17-.03.39-.03.62Zm-12.32-1.48h10.44c-.25-2.88-2.35-4.9-5.24-4.9s-4.96,2.02-5.21,4.9Z"/>
          <path class="cls-3" d="m974.57,224.82v8.54h-1.99v-8.34c0-3.11-1.57-4.7-4.23-4.7-3.02,0-4.93,1.96-4.93,5.32v7.73h-1.99v-8.34c0-3.11-1.57-4.7-4.26-4.7-3,0-4.93,1.96-4.93,5.32v7.73h-1.99v-14.73h1.9v2.69c1.04-1.76,2.94-2.8,5.4-2.8s4.34,1.04,5.24,3.11c1.06-1.9,3.16-3.11,5.82-3.11,3.58,0,5.94,2.07,5.94,6.3Z"/>
          <path class="cls-3" d="m992.86,226.61h-12.32c.22,3.08,2.58,5.12,5.8,5.12,1.79,0,3.39-.64,4.51-1.93l1.12,1.29c-1.32,1.57-3.36,2.41-5.68,2.41-4.59,0-7.73-3.14-7.73-7.5s3.05-7.48,7.2-7.48,7.14,3.05,7.14,7.48c0,.17-.03.39-.03.62Zm-12.32-1.48h10.44c-.25-2.88-2.35-4.9-5.24-4.9s-4.96,2.02-5.21,4.9Z"/>
          <path class="cls-3" d="m1010.5,224.82v8.54h-1.99v-8.34c0-3.11-1.62-4.7-4.42-4.7-3.16,0-5.15,1.96-5.15,5.32v7.73h-1.99v-14.73h1.9v2.72c1.06-1.79,3.05-2.83,5.6-2.83,3.58,0,6.05,2.07,6.05,6.3Z"/>
          <path class="cls-3" d="m1023.66,232.47c-.78.7-1.96,1.04-3.11,1.04-2.77,0-4.31-1.57-4.31-4.28v-8.9h-2.63v-1.68h2.63v-3.22h1.99v3.22h4.48v1.68h-4.48v8.79c0,1.74.9,2.69,2.55,2.69.81,0,1.62-.25,2.18-.76l.7,1.43Z"/>
          <path class="cls-3" d="m1038.38,224.23v9.13h-1.9v-2.3c-.9,1.51-2.63,2.44-5.07,2.44-3.33,0-5.38-1.74-5.38-4.28,0-2.27,1.46-4.17,5.68-4.17h4.68v-.9c0-2.52-1.43-3.89-4.17-3.89-1.9,0-3.7.67-4.9,1.74l-.9-1.48c1.48-1.26,3.67-1.99,5.99-1.99,3.81,0,5.96,1.9,5.96,5.71Zm-1.99,4.7v-2.41h-4.62c-2.86,0-3.78,1.12-3.78,2.63,0,1.71,1.37,2.77,3.72,2.77s3.89-1.06,4.68-3Z"/>
          <path class="cls-3" d="m1051.21,218.52v1.93c-.17,0-.34-.03-.48-.03-3.08,0-4.96,1.96-4.96,5.43v7.5h-1.99v-14.73h1.9v2.88c.92-1.96,2.8-3,5.52-3Z"/>
          <path class="cls-3" d="m1075.18,223.39c0,6.66-3.64,10.14-8.96,10.14-1.76,0-3.42-.31-4.65-1.06l.81-1.62c1.01.67,2.35.92,3.81.92,4.23,0,6.94-2.72,6.94-8.04,0-.45-.03-1.01-.08-1.6-.98,2.16-3.28,3.36-5.99,3.36-3.89,0-6.61-2.3-6.61-5.88s2.88-6.02,6.69-6.02c5.21,0,8.04,3.61,8.04,9.8Zm-2.77-3.89c0-2.16-1.79-4.2-5.18-4.2-2.83,0-4.79,1.65-4.79,4.26s1.9,4.23,4.93,4.23,5.04-1.85,5.04-4.28Z"/>
          <path class="cls-3" d="m1091.39,227.59c0,3.33-2.32,5.94-7.11,5.94-2.83,0-5.52-.98-7.03-2.52l.98-1.6c1.26,1.32,3.5,2.27,6.02,2.27,3.33,0,5.1-1.62,5.1-4,0-2.52-1.57-4.09-6.55-4.09h-4.17l1.01-9.83h10.72v1.79h-8.96l-.67,6.24h2.52c5.91,0,8.15,2.32,8.15,5.8Z"/>
          <path class="cls-3" d="m1101.02,209.79h1.82l-9.24,26.38h-1.82l9.24-26.38Z"/>
          <path class="cls-3" d="m1109.59,213.76v19.6h-2.02v-17.81h-4.62v-1.79h6.64Z"/>
          <path class="cls-3" d="m1128.4,223.39c0,6.66-3.64,10.14-8.96,10.14-1.76,0-3.42-.31-4.65-1.06l.81-1.62c1.01.67,2.35.92,3.81.92,4.23,0,6.94-2.72,6.94-8.04,0-.45-.03-1.01-.08-1.6-.98,2.16-3.28,3.36-5.99,3.36-3.89,0-6.61-2.3-6.61-5.88s2.88-6.02,6.69-6.02c5.21,0,8.04,3.61,8.04,9.8Zm-2.77-3.89c0-2.16-1.79-4.2-5.18-4.2-2.83,0-4.79,1.65-4.79,4.26s1.9,4.23,4.93,4.23,5.04-1.85,5.04-4.28Z"/>
          <path class="cls-3" d="m1145.45,223.39c0,6.66-3.64,10.14-8.96,10.14-1.76,0-3.42-.31-4.65-1.06l.81-1.62c1.01.67,2.35.92,3.81.92,4.23,0,6.94-2.72,6.94-8.04,0-.45-.03-1.01-.08-1.6-.98,2.16-3.28,3.36-5.99,3.36-3.89,0-6.61-2.3-6.61-5.88s2.88-6.02,6.69-6.02c5.21,0,8.04,3.61,8.04,9.8Zm-2.77-3.89c0-2.16-1.79-4.2-5.18-4.2-2.83,0-4.79,1.65-4.79,4.26s1.9,4.23,4.93,4.23,5.04-1.85,5.04-4.28Z"/>
          <path class="cls-3" d="m1163.43,227.9c0,3.47-2.94,5.63-7.62,5.63s-7.56-2.16-7.56-5.63c0-2.35,1.34-4,3.78-4.82-1.99-.78-3.08-2.27-3.08-4.31,0-3.19,2.72-5.18,6.86-5.18s6.92,1.99,6.92,5.18c0,2.04-1.12,3.53-3.14,4.31,2.46.81,3.84,2.49,3.84,4.82Zm-2.07-.03c0-2.41-2.07-3.92-5.54-3.92s-5.52,1.51-5.52,3.92,2.04,3.95,5.52,3.95,5.54-1.51,5.54-3.95Zm-5.54-5.52c3.05,0,4.87-1.37,4.87-3.5s-1.93-3.56-4.87-3.56-4.84,1.34-4.84,3.53,1.79,3.53,4.84,3.53Z"/>
          <path class="cls-3" d="m1166.26,220.03c0-.87.67-1.51,1.48-1.51s1.51.64,1.51,1.51-.7,1.54-1.51,1.54-1.48-.67-1.48-1.54Zm0,11.93c0-.87.67-1.51,1.48-1.51s1.51.64,1.51,1.51-.7,1.54-1.51,1.54-1.48-.67-1.48-1.54Z"/>
          <path class="cls-3" d="m1182.47,218.05c0,.9-.64,1.51-1.46,1.51-.9,0-1.48-.67-1.48-1.51,0-.45.08-.78.36-1.6l1.18-3.86h1.34l-.95,4.03c.62.2,1.01.73,1.01,1.43Zm4.76,0c0,.9-.64,1.51-1.46,1.51-.9,0-1.48-.67-1.48-1.51,0-.45.08-.78.36-1.6l1.18-3.86h1.34l-.95,4.03c.62.2,1.01.73,1.01,1.43Z"/>
          <path class="cls-3" d="m1189.66,226c0-4.37,3.19-7.48,7.5-7.48s7.48,3.11,7.48,7.48-3.16,7.5-7.48,7.5-7.5-3.14-7.5-7.5Zm12.96,0c0-3.44-2.32-5.74-5.46-5.74s-5.49,2.3-5.49,5.74,2.35,5.74,5.49,5.74,5.46-2.3,5.46-5.74Z"/>
          <path class="cls-3" d="m1206.66,231.68l.9-1.57c1.18.92,3.16,1.65,5.24,1.65,2.8,0,3.95-.95,3.95-2.41,0-3.84-9.55-.81-9.55-6.64,0-2.41,2.07-4.2,5.82-4.2,1.9,0,3.98.53,5.21,1.37l-.87,1.6c-1.29-.9-2.83-1.26-4.34-1.26-2.66,0-3.84,1.04-3.84,2.44,0,3.98,9.55.98,9.55,6.64,0,2.55-2.24,4.2-6.08,4.2-2.44,0-4.79-.78-5.99-1.82Z"/>
          <path class="cls-3" d="m93.67,260.23v9.13h-1.9v-2.3c-.9,1.51-2.63,2.44-5.07,2.44-3.33,0-5.38-1.74-5.38-4.28,0-2.27,1.46-4.17,5.68-4.17h4.68v-.9c0-2.52-1.43-3.89-4.17-3.89-1.9,0-3.7.67-4.9,1.74l-.9-1.48c1.48-1.26,3.67-1.99,5.99-1.99,3.81,0,5.96,1.9,5.96,5.71Zm-1.99,4.7v-2.41h-4.62c-2.86,0-3.78,1.12-3.78,2.63,0,1.71,1.37,2.77,3.72,2.77s3.89-1.06,4.68-3Z"/>
          <path class="cls-3" d="m106.5,254.52v1.93c-.17,0-.34-.03-.48-.03-3.08,0-4.96,1.96-4.96,5.43v7.5h-1.99v-14.73h1.9v2.88c.92-1.96,2.8-3,5.52-3Z"/>
          <path class="cls-3" d="m118.48,268.47c-.78.7-1.96,1.04-3.11,1.04-2.77,0-4.31-1.57-4.31-4.28v-8.9h-2.63v-1.68h2.63v-3.22h1.99v3.22h4.48v1.68h-4.48v8.79c0,1.74.9,2.69,2.55,2.69.81,0,1.62-.25,2.18-.76l.7,1.43Z"/>
          <path class="cls-3" d="m121.64,249.99c0-.76.64-1.4,1.46-1.4s1.46.62,1.46,1.37c0,.81-.62,1.46-1.46,1.46s-1.46-.64-1.46-1.43Zm.45,4.65h1.99v14.73h-1.99v-14.73Z"/>
          <path class="cls-3" d="m143.26,254.63v12.94c0,5.07-2.49,7.36-7.36,7.36-2.69,0-5.32-.81-6.86-2.27l1.01-1.51c1.4,1.26,3.53,2.02,5.8,2.02,3.72,0,5.43-1.71,5.43-5.35v-1.88c-1.23,1.88-3.33,2.86-5.74,2.86-4.2,0-7.39-2.94-7.39-7.17s3.19-7.11,7.39-7.11c2.46,0,4.59,1.01,5.82,2.94v-2.83h1.9Zm-1.93,7c0-3.19-2.35-5.38-5.6-5.38s-5.57,2.18-5.57,5.38,2.32,5.4,5.57,5.4,5.6-2.21,5.6-5.4Z"/>
          <path class="cls-3" d="m147.35,262c0-4.37,3.19-7.48,7.5-7.48s7.48,3.11,7.48,7.48-3.16,7.5-7.48,7.5-7.5-3.14-7.5-7.5Zm12.96,0c0-3.44-2.32-5.74-5.46-5.74s-5.49,2.3-5.49,5.74,2.35,5.74,5.49,5.74,5.46-2.3,5.46-5.74Z"/>
          <path class="cls-3" d="m164.34,267.68l.9-1.57c1.18.92,3.16,1.65,5.24,1.65,2.8,0,3.95-.95,3.95-2.41,0-3.84-9.55-.81-9.55-6.64,0-2.41,2.07-4.2,5.82-4.2,1.9,0,3.98.53,5.21,1.37l-.87,1.6c-1.29-.9-2.83-1.26-4.34-1.26-2.66,0-3.84,1.04-3.84,2.44,0,3.98,9.55.98,9.55,6.64,0,2.55-2.24,4.2-6.08,4.2-2.44,0-4.79-.78-5.99-1.82Z"/>
          <path class="cls-3" d="m200.86,248.59v20.78h-1.9v-2.91c-1.2,1.99-3.25,3.05-5.68,3.05-4.2,0-7.34-3.05-7.34-7.5s3.14-7.48,7.34-7.48c2.35,0,4.37,1.01,5.6,2.91v-8.85h1.99Zm-1.96,13.41c0-3.44-2.35-5.74-5.46-5.74s-5.49,2.3-5.49,5.74,2.35,5.74,5.49,5.74,5.46-2.3,5.46-5.74Z"/>
          <path class="cls-3" d="m219.22,262.61h-12.32c.22,3.08,2.58,5.12,5.8,5.12,1.79,0,3.39-.64,4.51-1.93l1.12,1.29c-1.32,1.57-3.36,2.41-5.68,2.41-4.59,0-7.73-3.14-7.73-7.5s3.05-7.48,7.2-7.48,7.14,3.05,7.14,7.48c0,.17-.03.39-.03.62Zm-12.32-1.48h10.44c-.25-2.88-2.35-4.9-5.24-4.9s-4.96,2.02-5.21,4.9Z"/>
          <path class="cls-3" d="m221.27,267.68l.9-1.57c1.18.92,3.16,1.65,5.24,1.65,2.8,0,3.95-.95,3.95-2.41,0-3.84-9.55-.81-9.55-6.64,0-2.41,2.07-4.2,5.82-4.2,1.9,0,3.98.53,5.21,1.37l-.87,1.6c-1.29-.9-2.83-1.26-4.34-1.26-2.66,0-3.84,1.04-3.84,2.44,0,3.98,9.55.98,9.55,6.64,0,2.55-2.24,4.2-6.08,4.2-2.44,0-4.79-.78-5.99-1.82Z"/>
          <path class="cls-3" d="m250.44,248.59v20.78h-1.9v-2.91c-1.2,1.99-3.25,3.05-5.68,3.05-4.2,0-7.34-3.05-7.34-7.5s3.14-7.48,7.34-7.48c2.35,0,4.37,1.01,5.6,2.91v-8.85h1.99Zm-1.96,13.41c0-3.44-2.35-5.74-5.46-5.74s-5.49,2.3-5.49,5.74,2.35,5.74,5.49,5.74,5.46-2.3,5.46-5.74Z"/>
          <path class="cls-3" d="m254.5,262c0-4.37,3.19-7.48,7.5-7.48s7.48,3.11,7.48,7.48-3.16,7.5-7.48,7.5-7.5-3.14-7.5-7.5Zm12.96,0c0-3.44-2.32-5.74-5.46-5.74s-5.49,2.3-5.49,5.74,2.35,5.74,5.49,5.74,5.46-2.3,5.46-5.74Z"/>
          <path class="cls-3" d="m288.47,262c0,4.45-3.14,7.5-7.34,7.5-2.44,0-4.48-1.06-5.68-3.05v2.91h-1.9v-20.78h1.99v8.85c1.23-1.9,3.25-2.91,5.6-2.91,4.2,0,7.34,3.02,7.34,7.48Zm-1.99,0c0-3.44-2.38-5.74-5.49-5.74s-5.49,2.3-5.49,5.74,2.35,5.74,5.49,5.74,5.49-2.3,5.49-5.74Z"/>
          <path class="cls-3" d="m299.95,254.52v1.93c-.17,0-.34-.03-.48-.03-3.08,0-4.96,1.96-4.96,5.43v7.5h-1.99v-14.73h1.9v2.88c.92-1.96,2.8-3,5.52-3Z"/>
          <path class="cls-3" d="m314.62,260.23v9.13h-1.9v-2.3c-.9,1.51-2.63,2.44-5.07,2.44-3.33,0-5.38-1.74-5.38-4.28,0-2.27,1.46-4.17,5.68-4.17h4.68v-.9c0-2.52-1.43-3.89-4.17-3.89-1.9,0-3.7.67-4.9,1.74l-.9-1.48c1.48-1.26,3.67-1.99,5.99-1.99,3.81,0,5.96,1.9,5.96,5.71Zm-1.99,4.7v-2.41h-4.62c-2.86,0-3.78,1.12-3.78,2.63,0,1.71,1.37,2.77,3.72,2.77s3.89-1.06,4.68-3Z"/>
          <path class="cls-3" d="m327.44,254.52v1.93c-.17,0-.34-.03-.48-.03-3.08,0-4.96,1.96-4.96,5.43v7.5h-1.99v-14.73h1.9v2.88c.92-1.96,2.8-3,5.52-3Z"/>
          <path class="cls-3" d="m329.85,260.91h7.34v1.74h-7.34v-1.74Z"/>
          <path class="cls-3" d="m339.59,267.68l.9-1.57c1.18.92,3.16,1.65,5.24,1.65,2.8,0,3.95-.95,3.95-2.41,0-3.84-9.55-.81-9.55-6.64,0-2.41,2.07-4.2,5.82-4.2,1.9,0,3.98.53,5.21,1.37l-.87,1.6c-1.29-.9-2.83-1.26-4.34-1.26-2.66,0-3.84,1.04-3.84,2.44,0,3.98,9.55.98,9.55,6.64,0,2.55-2.24,4.2-6.08,4.2-2.44,0-4.79-.78-5.99-1.82Z"/>
          <path class="cls-3" d="m368.15,262.61h-12.32c.22,3.08,2.58,5.12,5.8,5.12,1.79,0,3.39-.64,4.51-1.93l1.12,1.29c-1.32,1.57-3.36,2.41-5.68,2.41-4.59,0-7.73-3.14-7.73-7.5s3.05-7.48,7.2-7.48,7.14,3.05,7.14,7.48c0,.17-.03.39-.03.62Zm-12.32-1.48h10.44c-.25-2.88-2.35-4.9-5.24-4.9s-4.96,2.02-5.21,4.9Z"/>
          <path class="cls-3" d="m371.43,260.91h7.34v1.74h-7.34v-1.74Z"/>
          <path class="cls-3" d="m394.33,260.23v9.13h-1.9v-2.3c-.9,1.51-2.63,2.44-5.07,2.44-3.33,0-5.38-1.74-5.38-4.28,0-2.27,1.46-4.17,5.68-4.17h4.68v-.9c0-2.52-1.43-3.89-4.17-3.89-1.9,0-3.7.67-4.9,1.74l-.9-1.48c1.48-1.26,3.67-1.99,5.99-1.99,3.81,0,5.96,1.9,5.96,5.71Zm-1.99,4.7v-2.41h-4.62c-2.86,0-3.78,1.12-3.78,2.63,0,1.71,1.37,2.77,3.72,2.77s3.89-1.06,4.68-3Zm-7.14-12.85h-1.2c.06-1.88,1.04-3.08,2.52-3.08,1.74,0,2.58,1.9,3.67,1.9.84,0,1.4-.67,1.46-1.74h1.2c-.06,1.82-1.04,3.02-2.52,3.02-1.74,0-2.55-1.9-3.67-1.9-.84,0-1.4.67-1.46,1.79Z"/>
          <path class="cls-3" d="m398.31,262c0-4.37,3.19-7.48,7.5-7.48s7.48,3.11,7.48,7.48-3.16,7.5-7.48,7.5-7.5-3.14-7.5-7.5Zm12.96,0c0-3.44-2.32-5.74-5.46-5.74s-5.49,2.3-5.49,5.74,2.35,5.74,5.49,5.74,5.46-2.3,5.46-5.74Z"/>
          <path class="cls-3" d="m437.51,262.61h-12.32c.22,3.08,2.58,5.12,5.8,5.12,1.79,0,3.39-.64,4.51-1.93l1.12,1.29c-1.32,1.57-3.36,2.41-5.68,2.41-4.59,0-7.73-3.14-7.73-7.5s3.05-7.48,7.2-7.48,7.14,3.05,7.14,7.48c0,.17-.03.39-.03.62Zm-12.32-1.48h10.44c-.25-2.88-2.35-4.9-5.24-4.9s-4.96,2.02-5.21,4.9Z"/>
          <path class="cls-3" d="m465.9,260.82v8.54h-1.99v-8.34c0-3.11-1.57-4.7-4.23-4.7-3.02,0-4.93,1.96-4.93,5.32v7.73h-1.99v-8.34c0-3.11-1.57-4.7-4.26-4.7-3,0-4.93,1.96-4.93,5.32v7.73h-1.99v-14.73h1.9v2.69c1.04-1.76,2.94-2.8,5.4-2.8s4.34,1.04,5.24,3.11c1.06-1.9,3.16-3.11,5.82-3.11,3.58,0,5.94,2.07,5.94,6.3Z"/>
          <path class="cls-3" d="m493.56,262c0,4.48-3.14,7.5-7.34,7.5-2.35,0-4.37-1.01-5.6-2.91v8.2h-1.99v-20.16h1.9v2.91c1.2-1.96,3.25-3.02,5.68-3.02,4.2,0,7.34,3.02,7.34,7.48Zm-1.99,0c0-3.42-2.38-5.74-5.49-5.74s-5.49,2.32-5.49,5.74,2.35,5.74,5.49,5.74,5.49-2.3,5.49-5.74Z"/>
          <path class="cls-3" d="m508.65,260.23v9.13h-1.9v-2.3c-.9,1.51-2.63,2.44-5.07,2.44-3.33,0-5.38-1.74-5.38-4.28,0-2.27,1.46-4.17,5.68-4.17h4.68v-.9c0-2.52-1.43-3.89-4.17-3.89-1.9,0-3.7.67-4.9,1.74l-.9-1.48c1.48-1.26,3.67-1.99,5.99-1.99,3.81,0,5.96,1.9,5.96,5.71Zm-1.99,4.7v-2.41h-4.62c-2.86,0-3.78,1.12-3.78,2.63,0,1.71,1.37,2.77,3.72,2.77s3.89-1.06,4.68-3Z"/>
          <path class="cls-3" d="m521.48,254.52v1.93c-.17,0-.34-.03-.48-.03-3.08,0-4.96,1.96-4.96,5.43v7.5h-1.99v-14.73h1.9v2.88c.92-1.96,2.8-3,5.52-3Z"/>
          <path class="cls-3" d="m536.15,260.23v9.13h-1.9v-2.3c-.9,1.51-2.63,2.44-5.07,2.44-3.33,0-5.38-1.74-5.38-4.28,0-2.27,1.46-4.17,5.68-4.17h4.68v-.9c0-2.52-1.43-3.89-4.17-3.89-1.9,0-3.7.67-4.9,1.74l-.9-1.48c1.48-1.26,3.67-1.99,5.99-1.99,3.81,0,5.96,1.9,5.96,5.71Zm-1.99,4.7v-2.41h-4.62c-2.86,0-3.78,1.12-3.78,2.63,0,1.71,1.37,2.77,3.72,2.77s3.89-1.06,4.68-3Zm-3.78-12.57h-1.96l3.84-3.47h2.66l-4.54,3.47Z"/>
          <path class="cls-3" d="m555.25,254.63v12.94c0,5.07-2.49,7.36-7.36,7.36-2.69,0-5.32-.81-6.86-2.27l1.01-1.51c1.4,1.26,3.53,2.02,5.8,2.02,3.72,0,5.43-1.71,5.43-5.35v-1.88c-1.23,1.88-3.33,2.86-5.74,2.86-4.2,0-7.39-2.94-7.39-7.17s3.19-7.11,7.39-7.11c2.46,0,4.59,1.01,5.82,2.94v-2.83h1.9Zm-1.93,7c0-3.19-2.35-5.38-5.6-5.38s-5.57,2.18-5.57,5.38,2.32,5.4,5.57,5.4,5.6-2.21,5.6-5.4Z"/>
          <path class="cls-3" d="m568.24,254.52v1.93c-.17,0-.34-.03-.48-.03-3.08,0-4.96,1.96-4.96,5.43v7.5h-1.99v-14.73h1.9v2.88c.92-1.96,2.8-3,5.52-3Z"/>
          <path class="cls-3" d="m582.91,260.23v9.13h-1.9v-2.3c-.9,1.51-2.63,2.44-5.07,2.44-3.33,0-5.38-1.74-5.38-4.28,0-2.27,1.46-4.17,5.68-4.17h4.68v-.9c0-2.52-1.43-3.89-4.17-3.89-1.9,0-3.7.67-4.9,1.74l-.9-1.48c1.48-1.26,3.67-1.99,5.99-1.99,3.81,0,5.96,1.9,5.96,5.71Zm-1.99,4.7v-2.41h-4.62c-2.86,0-3.78,1.12-3.78,2.63,0,1.71,1.37,2.77,3.72,2.77s3.89-1.06,4.68-3Z"/>
          <path class="cls-3" d="m590.58,252.9v1.74h4.54v1.68h-4.48v13.05h-1.99v-13.05h-2.63v-1.68h2.63v-1.82c0-2.63,1.57-4.37,4.45-4.37,1.09,0,2.21.31,2.94.92l-.67,1.48c-.56-.48-1.34-.73-2.18-.73-1.71,0-2.6.95-2.6,2.77Z"/>
          <path class="cls-3" d="m596.07,262c0-4.37,3.19-7.48,7.5-7.48s7.48,3.11,7.48,7.48-3.16,7.5-7.48,7.5-7.5-3.14-7.5-7.5Zm12.96,0c0-3.44-2.32-5.74-5.46-5.74s-5.49,2.3-5.49,5.74,2.35,5.74,5.49,5.74,5.46-2.3,5.46-5.74Z"/>
          <path class="cls-3" d="m613.07,267.68l.9-1.57c1.18.92,3.16,1.65,5.24,1.65,2.8,0,3.95-.95,3.95-2.41,0-3.84-9.55-.81-9.55-6.64,0-2.41,2.07-4.2,5.82-4.2,1.9,0,3.98.53,5.21,1.37l-.87,1.6c-1.29-.9-2.83-1.26-4.34-1.26-2.66,0-3.84,1.04-3.84,2.44,0,3.98,9.55.98,9.55,6.64,0,2.55-2.24,4.2-6.08,4.2-2.44,0-4.79-.78-5.99-1.82Z"/>
          <path class="cls-3" d="m634.65,262c0-4.37,3.19-7.48,7.5-7.48s7.48,3.11,7.48,7.48-3.16,7.5-7.48,7.5-7.5-3.14-7.5-7.5Zm12.96,0c0-3.44-2.32-5.74-5.46-5.74s-5.49,2.3-5.49,5.74,2.35,5.74,5.49,5.74,5.46-2.3,5.46-5.74Z"/>
          <path class="cls-3" d="m666.97,254.63v14.73h-1.9v-2.69c-1.04,1.79-2.94,2.83-5.29,2.83-3.75,0-6.22-2.1-6.22-6.33v-8.54h1.99v8.34c0,3.14,1.62,4.73,4.42,4.73,3.08,0,5.01-1.99,5.01-5.35v-7.73h1.99Z"/>
          <path class="cls-3" d="m692.7,262.61h-12.32c.22,3.08,2.58,5.12,5.8,5.12,1.79,0,3.39-.64,4.51-1.93l1.12,1.29c-1.32,1.57-3.36,2.41-5.68,2.41-4.59,0-7.73-3.14-7.73-7.5s3.05-7.48,7.2-7.48,7.14,3.05,7.14,7.48c0,.17-.03.39-.03.62Zm-12.32-1.48h10.44c-.25-2.88-2.35-4.9-5.24-4.9s-4.96,2.02-5.21,4.9Z"/>
          <path class="cls-3" d="m721.09,260.82v8.54h-1.99v-8.34c0-3.11-1.57-4.7-4.23-4.7-3.02,0-4.93,1.96-4.93,5.32v7.73h-1.99v-8.34c0-3.11-1.57-4.7-4.26-4.7-3,0-4.93,1.96-4.93,5.32v7.73h-1.99v-14.73h1.9v2.69c1.04-1.76,2.94-2.8,5.4-2.8s4.34,1.04,5.24,3.11c1.06-1.9,3.16-3.11,5.82-3.11,3.58,0,5.94,2.07,5.94,6.3Z"/>
          <path class="cls-3" d="m733.38,249.99c0-.76.64-1.4,1.46-1.4s1.46.62,1.46,1.37c0,.81-.62,1.46-1.46,1.46s-1.46-.64-1.46-1.43Zm.45,4.65h1.99v14.73h-1.99v-14.73Z"/>
          <path class="cls-3" d="m754.91,260.82v8.54h-1.99v-8.34c0-3.11-1.62-4.7-4.42-4.7-3.16,0-5.15,1.96-5.15,5.32v7.73h-1.99v-14.73h1.9v2.72c1.06-1.79,3.05-2.83,5.6-2.83,3.58,0,6.05,2.07,6.05,6.3Z"/>
          <path class="cls-3" d="m758.89,262c0-4.4,3.19-7.48,7.59-7.48,2.49,0,4.59.98,5.77,2.91l-1.48,1.01c-1.01-1.48-2.58-2.18-4.28-2.18-3.22,0-5.57,2.3-5.57,5.74s2.35,5.74,5.57,5.74c1.71,0,3.28-.67,4.28-2.16l1.48,1.01c-1.18,1.9-3.28,2.91-5.77,2.91-4.4,0-7.59-3.11-7.59-7.5Z"/>
          <path class="cls-3" d="m775.69,249.99c0-.76.64-1.4,1.46-1.4s1.46.62,1.46,1.37c0,.81-.62,1.46-1.46,1.46s-1.46-.64-1.46-1.43Zm.45,4.65h1.99v14.73h-1.99v-14.73Z"/>
          <path class="cls-3" d="m781.62,267.68l.9-1.57c1.18.92,3.16,1.65,5.24,1.65,2.8,0,3.95-.95,3.95-2.41,0-3.84-9.55-.81-9.55-6.64,0-2.41,2.07-4.2,5.82-4.2,1.9,0,3.98.53,5.21,1.37l-.87,1.6c-1.29-.9-2.83-1.26-4.34-1.26-2.66,0-3.84,1.04-3.84,2.44,0,3.98,9.55.98,9.55,6.64,0,2.55-2.24,4.2-6.08,4.2-2.44,0-4.79-.78-5.99-1.82Z"/>
          <path class="cls-3" d="m795.88,262c0-4.37,3.19-7.48,7.5-7.48s7.48,3.11,7.48,7.48-3.16,7.5-7.48,7.5-7.5-3.14-7.5-7.5Zm12.96,0c0-3.44-2.32-5.74-5.46-5.74s-5.49,2.3-5.49,5.74,2.35,5.74,5.49,5.74,5.46-2.3,5.46-5.74Z"/>
          <path class="cls-3" d="m812.87,267.68l.9-1.57c1.18.92,3.16,1.65,5.24,1.65,2.8,0,3.95-.95,3.95-2.41,0-3.84-9.55-.81-9.55-6.64,0-2.41,2.07-4.2,5.82-4.2,1.9,0,3.98.53,5.21,1.37l-.87,1.6c-1.29-.9-2.83-1.26-4.34-1.26-2.66,0-3.84,1.04-3.84,2.44,0,3.98,9.55.98,9.55,6.64,0,2.55-2.24,4.2-6.08,4.2-2.44,0-4.79-.78-5.99-1.82Z"/>
          <path class="cls-3" d="m827.32,256.03c0-.87.67-1.51,1.48-1.51s1.51.64,1.51,1.51-.7,1.54-1.51,1.54-1.48-.67-1.48-1.54Zm3,11.93c0,.48-.11.84-.39,1.62l-1.18,3.86h-1.34l.95-4.06c-.59-.17-1.01-.7-1.01-1.43,0-.87.64-1.51,1.48-1.51s1.48.67,1.48,1.51Z"/>
          <path class="cls-3" d="m840.4,262c0-4.37,3.19-7.48,7.5-7.48s7.48,3.11,7.48,7.48-3.16,7.5-7.48,7.5-7.5-3.14-7.5-7.5Zm12.96,0c0-3.44-2.32-5.74-5.46-5.74s-5.49,2.3-5.49,5.74,2.35,5.74,5.49,5.74,5.46-2.3,5.46-5.74Z"/>
          <path class="cls-3" d="m857.39,267.68l.9-1.57c1.18.92,3.16,1.65,5.24,1.65,2.8,0,3.95-.95,3.95-2.41,0-3.84-9.55-.81-9.55-6.64,0-2.41,2.07-4.2,5.82-4.2,1.9,0,3.98.53,5.21,1.37l-.87,1.6c-1.29-.9-2.83-1.26-4.34-1.26-2.66,0-3.84,1.04-3.84,2.44,0,3.98,9.55.98,9.55,6.64,0,2.55-2.24,4.2-6.08,4.2-2.44,0-4.79-.78-5.99-1.82Z"/>
          <path class="cls-3" d="m895.39,262c0,4.48-3.14,7.5-7.34,7.5-2.35,0-4.37-1.01-5.6-2.91v8.2h-1.99v-20.16h1.9v2.91c1.2-1.96,3.25-3.02,5.68-3.02,4.2,0,7.34,3.02,7.34,7.48Zm-1.99,0c0-3.42-2.38-5.74-5.49-5.74s-5.49,2.32-5.49,5.74,2.35,5.74,5.49,5.74,5.49-2.3,5.49-5.74Z"/>
          <path class="cls-3" d="m910.48,260.23v9.13h-1.9v-2.3c-.9,1.51-2.63,2.44-5.07,2.44-3.33,0-5.38-1.74-5.38-4.28,0-2.27,1.46-4.17,5.68-4.17h4.68v-.9c0-2.52-1.43-3.89-4.17-3.89-1.9,0-3.7.67-4.9,1.74l-.9-1.48c1.48-1.26,3.67-1.99,5.99-1.99,3.81,0,5.96,1.9,5.96,5.71Zm-1.99,4.7v-2.41h-4.62c-2.86,0-3.78,1.12-3.78,2.63,0,1.71,1.37,2.77,3.72,2.77s3.89-1.06,4.68-3Z"/>
          <path class="cls-3" d="m923.3,254.52v1.93c-.17,0-.34-.03-.48-.03-3.08,0-4.96,1.96-4.96,5.43v7.5h-1.99v-14.73h1.9v2.88c.92-1.96,2.8-3,5.52-3Z"/>
          <path class="cls-3" d="m937.98,260.23v9.13h-1.9v-2.3c-.9,1.51-2.63,2.44-5.07,2.44-3.33,0-5.38-1.74-5.38-4.28,0-2.27,1.46-4.17,5.68-4.17h4.68v-.9c0-2.52-1.43-3.89-4.17-3.89-1.9,0-3.7.67-4.9,1.74l-.9-1.48c1.48-1.26,3.67-1.99,5.99-1.99,3.81,0,5.96,1.9,5.96,5.71Zm-1.99,4.7v-2.41h-4.62c-2.86,0-3.78,1.12-3.78,2.63,0,1.71,1.37,2.77,3.72,2.77s3.89-1.06,4.68-3Zm-3.78-12.57h-1.96l3.84-3.47h2.66l-4.54,3.47Z"/>
          <path class="cls-3" d="m957.07,254.63v12.94c0,5.07-2.49,7.36-7.36,7.36-2.69,0-5.32-.81-6.86-2.27l1.01-1.51c1.4,1.26,3.53,2.02,5.8,2.02,3.72,0,5.43-1.71,5.43-5.35v-1.88c-1.23,1.88-3.33,2.86-5.74,2.86-4.2,0-7.39-2.94-7.39-7.17s3.19-7.11,7.39-7.11c2.46,0,4.59,1.01,5.82,2.94v-2.83h1.9Zm-1.93,7c0-3.19-2.35-5.38-5.6-5.38s-5.57,2.18-5.57,5.38,2.32,5.4,5.57,5.4,5.6-2.21,5.6-5.4Z"/>
          <path class="cls-3" d="m970.06,254.52v1.93c-.17,0-.34-.03-.48-.03-3.08,0-4.96,1.96-4.96,5.43v7.5h-1.99v-14.73h1.9v2.88c.92-1.96,2.8-3,5.52-3Z"/>
          <path class="cls-3" d="m984.73,260.23v9.13h-1.9v-2.3c-.9,1.51-2.63,2.44-5.07,2.44-3.33,0-5.38-1.74-5.38-4.28,0-2.27,1.46-4.17,5.68-4.17h4.68v-.9c0-2.52-1.43-3.89-4.17-3.89-1.9,0-3.7.67-4.9,1.74l-.9-1.48c1.48-1.26,3.67-1.99,5.99-1.99,3.81,0,5.96,1.9,5.96,5.71Zm-1.99,4.7v-2.41h-4.62c-2.86,0-3.78,1.12-3.78,2.63,0,1.71,1.37,2.77,3.72,2.77s3.89-1.06,4.68-3Z"/>
          <path class="cls-3" d="m992.41,252.9v1.74h4.54v1.68h-4.48v13.05h-1.99v-13.05h-2.63v-1.68h2.63v-1.82c0-2.63,1.57-4.37,4.45-4.37,1.09,0,2.21.31,2.94.92l-.67,1.48c-.56-.48-1.34-.73-2.18-.73-1.71,0-2.6.95-2.6,2.77Z"/>
          <path class="cls-3" d="m997.9,262c0-4.37,3.19-7.48,7.5-7.48s7.48,3.11,7.48,7.48-3.16,7.5-7.48,7.5-7.5-3.14-7.5-7.5Zm12.96,0c0-3.44-2.32-5.74-5.46-5.74s-5.49,2.3-5.49,5.74,2.35,5.74,5.49,5.74,5.46-2.3,5.46-5.74Z"/>
          <path class="cls-3" d="m1014.89,267.68l.9-1.57c1.18.92,3.16,1.65,5.24,1.65,2.8,0,3.95-.95,3.95-2.41,0-3.84-9.55-.81-9.55-6.64,0-2.41,2.07-4.2,5.82-4.2,1.9,0,3.98.53,5.21,1.37l-.87,1.6c-1.29-.9-2.83-1.26-4.34-1.26-2.66,0-3.84,1.04-3.84,2.44,0,3.98,9.55.98,9.55,6.64,0,2.55-2.24,4.2-6.08,4.2-2.44,0-4.79-.78-5.99-1.82Z"/>
          <path class="cls-3" d="m1050.79,262.61h-12.32c.22,3.08,2.58,5.12,5.8,5.12,1.79,0,3.39-.64,4.51-1.93l1.12,1.29c-1.32,1.57-3.36,2.41-5.68,2.41-4.59,0-7.73-3.14-7.73-7.5s3.05-7.48,7.2-7.48,7.14,3.05,7.14,7.48c0,.17-.03.39-.03.62Zm-12.32-1.48h10.44c-.25-2.88-2.35-4.9-5.24-4.9s-4.96,2.02-5.21,4.9Z"/>
          <path class="cls-3" d="m1079.18,260.82v8.54h-1.99v-8.34c0-3.11-1.57-4.7-4.23-4.7-3.02,0-4.93,1.96-4.93,5.32v7.73h-1.99v-8.34c0-3.11-1.57-4.7-4.26-4.7-3,0-4.93,1.96-4.93,5.32v7.73h-1.99v-14.73h1.9v2.69c1.04-1.76,2.94-2.8,5.4-2.8s4.34,1.04,5.24,3.11c1.06-1.9,3.16-3.11,5.82-3.11,3.58,0,5.94,2.07,5.94,6.3Z"/>
          <path class="cls-3" d="m1091.47,249.99c0-.76.64-1.4,1.46-1.4s1.46.62,1.46,1.37c0,.81-.62,1.46-1.46,1.46s-1.46-.64-1.46-1.43Zm.45,4.65h1.99v14.73h-1.99v-14.73Z"/>
          <path class="cls-3" d="m1113,260.82v8.54h-1.99v-8.34c0-3.11-1.62-4.7-4.42-4.7-3.16,0-5.15,1.96-5.15,5.32v7.73h-1.99v-14.73h1.9v2.72c1.06-1.79,3.05-2.83,5.6-2.83,3.58,0,6.05,2.07,6.05,6.3Z"/>
          <path class="cls-3" d="m1116.98,262c0-4.4,3.19-7.48,7.59-7.48,2.49,0,4.59.98,5.77,2.91l-1.48,1.01c-1.01-1.48-2.58-2.18-4.28-2.18-3.22,0-5.57,2.3-5.57,5.74s2.35,5.74,5.57,5.74c1.71,0,3.28-.67,4.28-2.16l1.48,1.01c-1.18,1.9-3.28,2.91-5.77,2.91-4.4,0-7.59-3.11-7.59-7.5Z"/>
          <path class="cls-3" d="m1133.78,249.99c0-.76.64-1.4,1.46-1.4s1.46.62,1.46,1.37c0,.81-.62,1.46-1.46,1.46s-1.46-.64-1.46-1.43Zm.45,4.65h1.99v14.73h-1.99v-14.73Z"/>
          <path class="cls-3" d="m1139.72,267.68l.9-1.57c1.18.92,3.16,1.65,5.24,1.65,2.8,0,3.95-.95,3.95-2.41,0-3.84-9.55-.81-9.55-6.64,0-2.41,2.07-4.2,5.82-4.2,1.9,0,3.98.53,5.21,1.37l-.87,1.6c-1.29-.9-2.83-1.26-4.34-1.26-2.66,0-3.84,1.04-3.84,2.44,0,3.98,9.55.98,9.55,6.64,0,2.55-2.24,4.2-6.08,4.2-2.44,0-4.79-.78-5.99-1.82Z"/>
          <path class="cls-3" d="m1153.97,262c0-4.37,3.19-7.48,7.5-7.48s7.48,3.11,7.48,7.48-3.16,7.5-7.48,7.5-7.5-3.14-7.5-7.5Zm12.96,0c0-3.44-2.32-5.74-5.46-5.74s-5.49,2.3-5.49,5.74,2.35,5.74,5.49,5.74,5.46-2.3,5.46-5.74Z"/>
          <path class="cls-3" d="m1170.96,267.68l.9-1.57c1.18.92,3.16,1.65,5.24,1.65,2.8,0,3.95-.95,3.95-2.41,0-3.84-9.55-.81-9.55-6.64,0-2.41,2.07-4.2,5.82-4.2,1.9,0,3.98.53,5.21,1.37l-.87,1.6c-1.29-.9-2.83-1.26-4.34-1.26-2.66,0-3.84,1.04-3.84,2.44,0,3.98,9.55.98,9.55,6.64,0,2.55-2.24,4.2-6.08,4.2-2.44,0-4.79-.78-5.99-1.82Z"/>
          <path class="cls-3" d="m1188.41,267.96c0,.48-.11.84-.39,1.62l-1.18,3.86h-1.34l.95-4.06c-.59-.17-1.01-.7-1.01-1.43,0-.87.64-1.51,1.48-1.51s1.48.67,1.48,1.51Z"/>
          <path class="cls-3" d="m1198.49,262c0-4.37,3.19-7.48,7.5-7.48s7.48,3.11,7.48,7.48-3.16,7.5-7.48,7.5-7.5-3.14-7.5-7.5Zm12.96,0c0-3.44-2.32-5.74-5.46-5.74s-5.49,2.3-5.49,5.74,2.35,5.74,5.49,5.74,5.46-2.3,5.46-5.74Z"/>
          <path class="cls-3" d="m1215.48,267.68l.9-1.57c1.18.92,3.16,1.65,5.24,1.65,2.8,0,3.95-.95,3.95-2.41,0-3.84-9.55-.81-9.55-6.64,0-2.41,2.07-4.2,5.82-4.2,1.9,0,3.98.53,5.21,1.37l-.87,1.6c-1.29-.9-2.83-1.26-4.34-1.26-2.66,0-3.84,1.04-3.84,2.44,0,3.98,9.55.98,9.55,6.64,0,2.55-2.24,4.2-6.08,4.2-2.44,0-4.79-.78-5.99-1.82Z"/>
          <path class="cls-3" d="m82.11,285.99c0-.76.64-1.4,1.46-1.4s1.46.62,1.46,1.37c0,.81-.62,1.46-1.46,1.46s-1.46-.64-1.46-1.43Zm.45,4.65h1.99v14.73h-1.99v-14.73Z"/>
          <path class="cls-3" d="m103.64,296.82v8.54h-1.99v-8.34c0-3.11-1.62-4.7-4.42-4.7-3.16,0-5.15,1.96-5.15,5.32v7.73h-1.99v-14.73h1.9v2.72c1.06-1.79,3.05-2.83,5.6-2.83,3.58,0,6.05,2.07,6.05,6.3Z"/>
          <path class="cls-3" d="m107.62,298c0-4.4,3.19-7.48,7.59-7.48,2.49,0,4.59.98,5.77,2.91l-1.48,1.01c-1.01-1.48-2.58-2.18-4.28-2.18-3.22,0-5.57,2.3-5.57,5.74s2.35,5.74,5.57,5.74c1.71,0,3.28-.67,4.28-2.16l1.48,1.01c-1.18,1.9-3.28,2.91-5.77,2.91-4.4,0-7.59-3.11-7.59-7.5Z"/>
          <path class="cls-3" d="m124.42,285.99c0-.76.64-1.4,1.46-1.4s1.46.62,1.46,1.37c0,.81-.62,1.46-1.46,1.46s-1.46-.64-1.46-1.43Zm.45,4.65h1.99v14.73h-1.99v-14.73Z"/>
          <path class="cls-3" d="m130.35,303.68l.9-1.57c1.18.92,3.16,1.65,5.24,1.65,2.8,0,3.95-.95,3.95-2.41,0-3.84-9.55-.81-9.55-6.64,0-2.41,2.07-4.2,5.82-4.2,1.9,0,3.98.53,5.21,1.37l-.87,1.6c-1.29-.9-2.83-1.26-4.34-1.26-2.66,0-3.84,1.04-3.84,2.44,0,3.98,9.55.98,9.55,6.64,0,2.55-2.24,4.2-6.08,4.2-2.44,0-4.79-.78-5.99-1.82Z"/>
          <path class="cls-3" d="m144.6,298c0-4.37,3.19-7.48,7.5-7.48s7.48,3.11,7.48,7.48-3.16,7.5-7.48,7.5-7.5-3.14-7.5-7.5Zm12.96,0c0-3.44-2.32-5.74-5.46-5.74s-5.49,2.3-5.49,5.74,2.35,5.74,5.49,5.74,5.46-2.3,5.46-5.74Z"/>
          <path class="cls-3" d="m161.6,303.68l.9-1.57c1.18.92,3.16,1.65,5.24,1.65,2.8,0,3.95-.95,3.95-2.41,0-3.84-9.55-.81-9.55-6.64,0-2.41,2.07-4.2,5.82-4.2,1.9,0,3.98.53,5.21,1.37l-.87,1.6c-1.29-.9-2.83-1.26-4.34-1.26-2.66,0-3.84,1.04-3.84,2.44,0,3.98,9.55.98,9.55,6.64,0,2.55-2.24,4.2-6.08,4.2-2.44,0-4.79-.78-5.99-1.82Z"/>
          <path class="cls-3" d="m197.5,298.61h-12.32c.22,3.08,2.58,5.12,5.8,5.12,1.79,0,3.39-.64,4.51-1.93l1.12,1.29c-1.32,1.57-3.36,2.41-5.68,2.41-4.59,0-7.73-3.14-7.73-7.5s3.05-7.48,7.2-7.48,7.14,3.05,7.14,7.48c0,.17-.03.39-.03.62Zm-12.32-1.48h10.44c-.25-2.88-2.35-4.9-5.24-4.9s-4.96,2.02-5.21,4.9Z"/>
          <path class="cls-3" d="m225.89,296.82v8.54h-1.99v-8.34c0-3.11-1.57-4.7-4.23-4.7-3.02,0-4.93,1.96-4.93,5.32v7.73h-1.99v-8.34c0-3.11-1.57-4.7-4.26-4.7-3,0-4.93,1.96-4.93,5.32v7.73h-1.99v-14.73h1.9v2.69c1.04-1.76,2.94-2.8,5.4-2.8s4.34,1.04,5.24,3.11c1.06-1.9,3.16-3.11,5.82-3.11,3.58,0,5.94,2.07,5.94,6.3Z"/>
          <path class="cls-3" d="m249.74,296.23v9.13h-1.9v-2.3c-.9,1.51-2.63,2.44-5.07,2.44-3.33,0-5.38-1.74-5.38-4.28,0-2.27,1.46-4.17,5.68-4.17h4.68v-.9c0-2.52-1.43-3.89-4.17-3.89-1.9,0-3.7.67-4.9,1.74l-.9-1.48c1.48-1.26,3.67-1.99,5.99-1.99,3.81,0,5.96,1.9,5.96,5.71Zm-1.99,4.7v-2.41h-4.62c-2.86,0-3.78,1.12-3.78,2.63,0,1.71,1.37,2.77,3.72,2.77s3.89-1.06,4.68-3Z"/>
          <path class="cls-3" d="m255.15,284.59h1.99v20.78h-1.99v-20.78Z"/>
          <path class="cls-3" d="m265.7,284.89h2.66l-4.54,3.47h-1.96l3.84-3.47Zm-3.02,5.74h1.99v14.73h-1.99v-14.73Z"/>
          <path class="cls-3" d="m283.76,296.82v8.54h-1.99v-8.34c0-3.11-1.62-4.7-4.42-4.7-3.16,0-5.15,1.96-5.15,5.32v7.73h-1.99v-14.73h1.9v2.72c1.06-1.79,3.05-2.83,5.6-2.83,3.58,0,6.05,2.07,6.05,6.3Z"/>
          <path class="cls-3" d="m302.05,298.61h-12.32c.22,3.08,2.58,5.12,5.8,5.12,1.79,0,3.39-.64,4.51-1.93l1.12,1.29c-1.32,1.57-3.36,2.41-5.68,2.41-4.59,0-7.73-3.14-7.73-7.5s3.05-7.48,7.2-7.48,7.14,3.05,7.14,7.48c0,.17-.03.39-.03.62Zm-12.32-1.48h10.44c-.25-2.88-2.35-4.9-5.24-4.9s-4.96,2.02-5.21,4.9Z"/>
          <path class="cls-3" d="m316.83,296.23v9.13h-1.9v-2.3c-.9,1.51-2.63,2.44-5.07,2.44-3.33,0-5.38-1.74-5.38-4.28,0-2.27,1.46-4.17,5.68-4.17h4.68v-.9c0-2.52-1.43-3.89-4.17-3.89-1.9,0-3.7.67-4.9,1.74l-.9-1.48c1.48-1.26,3.67-1.99,5.99-1.99,3.81,0,5.96,1.9,5.96,5.71Zm-1.99,4.7v-2.41h-4.62c-2.86,0-3.78,1.12-3.78,2.63,0,1.71,1.37,2.77,3.72,2.77s3.89-1.06,4.68-3Z"/>
          <path class="cls-3" d="m320.19,303.68l.9-1.57c1.18.92,3.16,1.65,5.24,1.65,2.8,0,3.95-.95,3.95-2.41,0-3.84-9.55-.81-9.55-6.64,0-2.41,2.07-4.2,5.82-4.2,1.9,0,3.98.53,5.21,1.37l-.87,1.6c-1.29-.9-2.83-1.26-4.34-1.26-2.66,0-3.84,1.04-3.84,2.44,0,3.98,9.55.98,9.55,6.64,0,2.55-2.24,4.2-6.08,4.2-2.44,0-4.79-.78-5.99-1.82Z"/>
          <path class="cls-3" d="m356.09,298.61h-12.32c.22,3.08,2.58,5.12,5.8,5.12,1.79,0,3.39-.64,4.51-1.93l1.12,1.29c-1.32,1.57-3.36,2.41-5.68,2.41-4.59,0-7.73-3.14-7.73-7.5s3.05-7.48,7.2-7.48,7.14,3.05,7.14,7.48c0,.17-.03.39-.03.62Zm-12.32-1.48h10.44c-.25-2.88-2.35-4.9-5.24-4.9s-4.96,2.02-5.21,4.9Z"/>
          <path class="cls-3" d="m378.63,296.23v9.13h-1.9v-2.3c-.9,1.51-2.63,2.44-5.07,2.44-3.33,0-5.38-1.74-5.38-4.28,0-2.27,1.46-4.17,5.68-4.17h4.68v-.9c0-2.52-1.43-3.89-4.17-3.89-1.9,0-3.7.67-4.9,1.74l-.9-1.48c1.48-1.26,3.67-1.99,5.99-1.99,3.81,0,5.96,1.9,5.96,5.71Zm-1.99,4.7v-2.41h-4.62c-2.86,0-3.78,1.12-3.78,2.63,0,1.71,1.37,2.77,3.72,2.77s3.89-1.06,4.68-3Z"/>
          <path class="cls-3" d="m381.99,303.68l.9-1.57c1.18.92,3.16,1.65,5.24,1.65,2.8,0,3.95-.95,3.95-2.41,0-3.84-9.55-.81-9.55-6.64,0-2.41,2.07-4.2,5.82-4.2,1.9,0,3.98.53,5.21,1.37l-.87,1.6c-1.29-.9-2.83-1.26-4.34-1.26-2.66,0-3.84,1.04-3.84,2.44,0,3.98,9.55.98,9.55,6.64,0,2.55-2.24,4.2-6.08,4.2-2.44,0-4.79-.78-5.99-1.82Z"/>
          <path class="cls-3" d="m416.18,296.23v9.13h-1.9v-2.3c-.9,1.51-2.63,2.44-5.07,2.44-3.33,0-5.38-1.74-5.38-4.28,0-2.27,1.46-4.17,5.68-4.17h4.68v-.9c0-2.52-1.43-3.89-4.17-3.89-1.9,0-3.7.67-4.9,1.74l-.9-1.48c1.48-1.26,3.67-1.99,5.99-1.99,3.81,0,5.96,1.9,5.96,5.71Zm-1.99,4.7v-2.41h-4.62c-2.86,0-3.78,1.12-3.78,2.63,0,1.71,1.37,2.77,3.72,2.77s3.89-1.06,4.68-3Z"/>
          <path class="cls-3" d="m421.58,284.59h1.99v20.78h-1.99v-20.78Z"/>
          <path class="cls-3" d="m432.14,284.89h2.66l-4.54,3.47h-1.96l3.84-3.47Zm-3.02,5.74h1.99v14.73h-1.99v-14.73Z"/>
          <path class="cls-3" d="m450.2,296.82v8.54h-1.99v-8.34c0-3.11-1.62-4.7-4.42-4.7-3.16,0-5.15,1.96-5.15,5.32v7.73h-1.99v-14.73h1.9v2.72c1.06-1.79,3.05-2.83,5.6-2.83,3.58,0,6.05,2.07,6.05,6.3Z"/>
          <path class="cls-3" d="m468.48,298.61h-12.32c.22,3.08,2.58,5.12,5.8,5.12,1.79,0,3.39-.64,4.51-1.93l1.12,1.29c-1.32,1.57-3.36,2.41-5.68,2.41-4.59,0-7.73-3.14-7.73-7.5s3.05-7.48,7.2-7.48,7.14,3.05,7.14,7.48c0,.17-.03.39-.03.62Zm-12.32-1.48h10.44c-.25-2.88-2.35-4.9-5.24-4.9s-4.96,2.02-5.21,4.9Z"/>
          <path class="cls-3" d="m483.26,296.23v9.13h-1.9v-2.3c-.9,1.51-2.63,2.44-5.07,2.44-3.33,0-5.38-1.74-5.38-4.28,0-2.27,1.46-4.17,5.68-4.17h4.68v-.9c0-2.52-1.43-3.89-4.17-3.89-1.9,0-3.7.67-4.9,1.74l-.9-1.48c1.48-1.26,3.67-1.99,5.99-1.99,3.81,0,5.96,1.9,5.96,5.71Zm-1.99,4.7v-2.41h-4.62c-2.86,0-3.78,1.12-3.78,2.63,0,1.71,1.37,2.77,3.72,2.77s3.89-1.06,4.68-3Z"/>
          <path class="cls-3" d="m486.62,303.68l.9-1.57c1.18.92,3.16,1.65,5.24,1.65,2.8,0,3.95-.95,3.95-2.41,0-3.84-9.55-.81-9.55-6.64,0-2.41,2.07-4.2,5.82-4.2,1.9,0,3.98.53,5.21,1.37l-.87,1.6c-1.29-.9-2.83-1.26-4.34-1.26-2.66,0-3.84,1.04-3.84,2.44,0,3.98,9.55.98,9.55,6.64,0,2.55-2.24,4.2-6.08,4.2-2.44,0-4.79-.78-5.99-1.82Z"/>
          <path class="cls-3" d="m522.52,298.61h-12.32c.22,3.08,2.58,5.12,5.8,5.12,1.79,0,3.39-.64,4.51-1.93l1.12,1.29c-1.32,1.57-3.36,2.41-5.68,2.41-4.59,0-7.73-3.14-7.73-7.5s3.05-7.48,7.2-7.48,7.14,3.05,7.14,7.48c0,.17-.03.39-.03.62Zm-12.32-1.48h10.44c-.25-2.88-2.35-4.9-5.24-4.9s-4.96,2.02-5.21,4.9Z"/>
          <path class="cls-3" d="m550.91,296.82v8.54h-1.99v-8.34c0-3.11-1.57-4.7-4.23-4.7-3.02,0-4.93,1.96-4.93,5.32v7.73h-1.99v-8.34c0-3.11-1.57-4.7-4.26-4.7-3,0-4.93,1.96-4.93,5.32v7.73h-1.99v-14.73h1.9v2.69c1.04-1.76,2.94-2.8,5.4-2.8s4.34,1.04,5.24,3.11c1.06-1.9,3.16-3.11,5.82-3.11,3.58,0,5.94,2.07,5.94,6.3Z"/>
          <path class="cls-3" d="m563.2,285.99c0-.76.64-1.4,1.46-1.4s1.46.62,1.46,1.37c0,.81-.62,1.46-1.46,1.46s-1.46-.64-1.46-1.43Zm.45,4.65h1.99v14.73h-1.99v-14.73Z"/>
          <path class="cls-3" d="m578.94,304.47c-.78.7-1.96,1.04-3.11,1.04-2.77,0-4.31-1.57-4.31-4.28v-8.9h-2.63v-1.68h2.63v-3.22h1.99v3.22h4.48v1.68h-4.48v8.79c0,1.74.9,2.69,2.55,2.69.81,0,1.62-.25,2.18-.76l.7,1.43Z"/>
          <path class="cls-3" d="m594.84,298.61h-12.32c.22,3.08,2.58,5.12,5.8,5.12,1.79,0,3.39-.64,4.51-1.93l1.12,1.29c-1.32,1.57-3.36,2.41-5.68,2.41-4.59,0-7.73-3.14-7.73-7.5s3.05-7.48,7.2-7.48,7.14,3.05,7.14,7.48c0,.17-.03.39-.03.62Zm-12.32-1.48h10.44c-.25-2.88-2.35-4.9-5.24-4.9s-4.96,2.02-5.21,4.9Z"/>
          <path class="cls-3" d="m612.48,296.82v8.54h-1.99v-8.34c0-3.11-1.62-4.7-4.42-4.7-3.16,0-5.15,1.96-5.15,5.32v7.73h-1.99v-14.73h1.9v2.72c1.06-1.79,3.05-2.83,5.6-2.83,3.58,0,6.05,2.07,6.05,6.3Z"/>
          <path class="cls-3" d="m615.84,303.68l.9-1.57c1.18.92,3.16,1.65,5.24,1.65,2.8,0,3.95-.95,3.95-2.41,0-3.84-9.55-.81-9.55-6.64,0-2.41,2.07-4.2,5.82-4.2,1.9,0,3.98.53,5.21,1.37l-.87,1.6c-1.29-.9-2.83-1.26-4.34-1.26-2.66,0-3.84,1.04-3.84,2.44,0,3.98,9.55.98,9.55,6.64,0,2.55-2.24,4.2-6.08,4.2-2.44,0-4.79-.78-5.99-1.82Z"/>
          <path class="cls-3" d="m633.29,285.96c0,.48-.11.81-.36,1.6l-1.2,3.86h-1.34l.98-4.03c-.62-.2-1.04-.7-1.04-1.43,0-.9.64-1.51,1.48-1.51s1.48.67,1.48,1.51Zm4.76,0c0,.48-.11.81-.36,1.6l-1.2,3.86h-1.34l.98-4.03c-.62-.2-1.04-.7-1.04-1.43,0-.9.64-1.51,1.48-1.51s1.48.67,1.48,1.51Z"/>
          <path class="cls-3" d="m640.51,303.96c0-.87.67-1.51,1.48-1.51s1.51.64,1.51,1.51-.7,1.54-1.51,1.54-1.48-.67-1.48-1.54Z"/>
        </g>
      </g>
      <rect class="cls-1" x="0" y="96.87" width="15.27" height="114.47" rx="7.63" ry="7.63"/>
    </g>
  </g>
</svg>