<?xml version="1.0" encoding="UTF-8"?>
<svg id="Layer_1" data-name="Layer 1" xmlns="http://www.w3.org/2000/svg" viewBox="0 0 116.71 86.59">
  <defs>
    <style>
      .cls-1 {
        fill: #7b3dd9;
      }
    </style>
  </defs>
  <g id="Grupo_2349" data-name="Grupo 2349">
    <path id="Caminho_3017" data-name="Caminho 3017" class="cls-1" d="m25.28,73.27c-4.48-2.81-8.04-6.89-10.22-11.71-2.58-5.73-3.83-11.97-3.67-18.26-.16-6.29,1.1-12.53,3.67-18.26,2.18-4.82,5.74-8.9,10.22-11.71,4.5-2.71,9.68-4.11,14.93-4.02,5.22-.09,10.37,1.3,14.83,4.02,4.48,2.81,8.04,6.89,10.22,11.71,2.58,5.73,3.83,11.98,3.67,18.26.16,6.29-1.1,12.53-3.67,18.26-2.18,4.82-5.74,8.9-10.22,11.71-4.47,2.71-9.61,4.1-14.83,4.02-5.26.08-10.43-1.31-14.93-4.02h0Zm22.34-15.63c1.84-3.01,2.74-7.8,2.74-14.31s-.9-11.3-2.74-14.31-4.3-4.54-7.42-4.54c-3.15,0-6.04,1.75-7.52,4.54-1.83,3.01-2.77,7.8-2.77,14.31s.94,11.3,2.77,14.31,4.33,4.54,7.52,4.54,5.58-1.52,7.41-4.54Z"/>
    <path id="Caminho_3018" data-name="Caminho 3018" class="cls-1" d="m105.33,10.65v65.32h-18.47V24.93h-12.13v-14.28h30.6,0Z"/>
  </g>
</svg>