<svg xmlns="http://www.w3.org/2000/svg" xmlns:xlink="http://www.w3.org/1999/xlink" width="1204.444" height="663.32" viewBox="0 0 1204.444 663.32">
  <defs>
    <linearGradient id="linear-gradient" x1="1.172" y1="-2.225" x2="-3.722" y2="0.832" gradientUnits="objectBoundingBox">
      <stop offset="0" stop-color="#1267a1"/>
      <stop offset="1" stop-color="#198ede"/>
    </linearGradient>
    <linearGradient id="linear-gradient-2" x1="0.5" y1="1" x2="0.5" gradientUnits="objectBoundingBox">
      <stop offset="0" stop-color="#198ede"/>
      <stop offset="1" stop-color="#21badc"/>
    </linearGradient>
    <linearGradient id="linear-gradient-4" x1="-5.962" y1="-8.909" x2="-5.172" y2="-8.909" gradientUnits="objectBoundingBox">
      <stop offset="0" stop-color="#3a2a61"/>
      <stop offset="0.14" stop-color="#463578"/>
      <stop offset="0.38" stop-color="#584498"/>
      <stop offset="0.6" stop-color="#644faf"/>
      <stop offset="0.82" stop-color="#6c56bd"/>
      <stop offset="1" stop-color="#6f59c2"/>
    </linearGradient>
    <linearGradient id="linear-gradient-5" x1="0.5" y1="0.916" x2="0.5" y2="0.018" gradientUnits="objectBoundingBox">
      <stop offset="0" stop-color="#5f42a1"/>
      <stop offset="0.16" stop-color="#6347af"/>
      <stop offset="0.47" stop-color="#6951c7"/>
      <stop offset="0.76" stop-color="#6d57d6"/>
      <stop offset="1" stop-color="#6f59db"/>
    </linearGradient>
    <linearGradient id="linear-gradient-6" x1="0.5" x2="0.5" y2="1" gradientUnits="objectBoundingBox">
      <stop offset="0" stop-color="#6f59db"/>
      <stop offset="0.24" stop-color="#6f59d6"/>
      <stop offset="0.53" stop-color="#6f59c7"/>
      <stop offset="0.84" stop-color="#6f59af"/>
      <stop offset="1" stop-color="#6f59a1"/>
    </linearGradient>
    <linearGradient id="linear-gradient-7" x1="0.5" y1="0.63" x2="0.5" y2="0.116" gradientUnits="objectBoundingBox">
      <stop offset="0" stop-color="#ffba3b"/>
      <stop offset="0.29" stop-color="#ffa03b"/>
      <stop offset="0.75" stop-color="#ff7d3b"/>
      <stop offset="1" stop-color="#ff703b"/>
    </linearGradient>
    <linearGradient id="linear-gradient-8" x1="0.5" y1="0.074" x2="0.5" y2="0.989" gradientUnits="objectBoundingBox">
      <stop offset="0" stop-color="#ffba3b"/>
      <stop offset="0.28" stop-color="#ffb53b"/>
      <stop offset="0.56" stop-color="#ffa93b"/>
      <stop offset="0.84" stop-color="#ff953b"/>
      <stop offset="1" stop-color="#ff863b"/>
    </linearGradient>
    <linearGradient id="linear-gradient-9" x1="0.5" y1="-0.145" x2="0.5" y2="0.828" xlink:href="#linear-gradient-8"/>
  </defs>
  <g id="Grafico_6" data-name="Grafico 6" transform="translate(-7.76 -5.65)">
    <rect id="Retângulo_392" data-name="Retângulo 392" width="1204.444" height="663.32" rx="89.65" transform="translate(7.76 5.65)" fill="#efefef"/>
    <path id="Caminho_10331" data-name="Caminho 10331" d="M163.539,365.245l103.155-62.971-24.111-.194H154.23v57.954a6.13,6.13,0,0,0,9.309,5.228Z" transform="translate(112.248 227.171)" fill="url(#linear-gradient)"/>
    <rect id="Retângulo_393" data-name="Retângulo 393" width="308.883" height="387.998" rx="17.3" transform="translate(89.701 144.079)" fill="url(#linear-gradient-2)"/>
    <g id="Grupo_2843" data-name="Grupo 2843" transform="translate(187.31 439.397)">
      <path id="Caminho_10332" data-name="Caminho 10332" d="M139.915,316.989q-11,0-17.681-3.815a22.333,22.333,0,0,1-9.75-11.146q-3.073-7.339-3.073-17.928t3.073-17.929a22.416,22.416,0,0,1,9.75-11.146q6.677-3.815,17.681-3.815,16.454,0,23.475,8.461,7.021,8.479,7.03,24.429c0,10.633-2.349,18.688-7.03,24.376Q156.342,317.007,139.915,316.989Zm0-15.844q6.438,0,8.973-4.31c1.7-2.879,2.526-7.118,2.526-12.735s-.848-9.945-2.526-12.788-4.681-4.257-8.973-4.257-7.277,1.413-8.973,4.257q-2.517,4.266-2.526,12.788c0,5.688.848,9.856,2.526,12.735s4.681,4.31,8.973,4.31Z" transform="translate(-109.41 -251.21)" fill="#fff"/>
      <path id="Caminho_10333" data-name="Caminho 10333" d="M157.358,316V269.439l-10.6,1.59V255.467l29.233-4.257V316H157.376Z" transform="translate(-80.787 -251.21)" fill="#fff"/>
    </g>
    <path id="Caminho_10334" data-name="Caminho 10334" d="M283.383,57.15H104.1A30.557,30.557,0,0,0,73.54,87.708v208.5A30.557,30.557,0,0,0,104.1,326.767h60.321L188.866,366.3c2.544,4.1,7.207,4.1,9.733,0l24.446-39.531h60.321a30.557,30.557,0,0,0,30.558-30.558V87.708A30.557,30.557,0,0,0,283.366,57.15Z" transform="translate(50.411 39.467)" fill="#fff"/>
    <g id="Grupo_2844" data-name="Grupo 2844" transform="translate(182.665 167.501)">
      <path id="Caminho_10335" data-name="Caminho 10335" d="M110.28,114.82l.813-1.607a9.776,9.776,0,0,0,6.536,2.4c3.709,0,5.317-1.554,5.317-3.5,0-5.423-12.188-2.084-12.188-9.415,0-2.914,2.261-5.423,7.3-5.423a11.2,11.2,0,0,1,6.129,1.749l-.707,1.66a10.25,10.25,0,0,0-5.423-1.643c-3.621,0-5.228,1.607-5.228,3.586,0,5.423,12.188,2.155,12.188,9.362,0,2.914-2.314,5.405-7.383,5.405-2.967,0-5.882-1.042-7.348-2.579Z" transform="translate(-104.098 -97.28)"/>
      <path id="Caminho_10336" data-name="Caminho 10336" d="M120.11,107.632a7.56,7.56,0,1,1,7.578,7.578A7.3,7.3,0,0,1,120.11,107.632Zm13.089,0a5.535,5.535,0,1,0-5.511,5.794C130.867,113.426,133.2,111.112,133.2,107.632Z" transform="translate(-96.564 -95.127)"/>
      <path id="Caminho_10337" data-name="Caminho 10337" d="M155.54,106.449v8.62h-2.014v-8.426c0-3.144-1.59-4.752-4.275-4.752-3.056,0-4.981,1.978-4.981,5.37v7.807h-2.014v-8.426c0-3.144-1.59-4.752-4.292-4.752-3.02,0-4.981,1.978-4.981,5.37v7.807H130.97V100.2H132.9v2.72a6,6,0,0,1,5.458-2.826c2.491,0,4.381,1.042,5.281,3.144a6.481,6.481,0,0,1,5.882-3.144c3.621,0,5.988,2.084,5.988,6.359Z" transform="translate(-88.242 -95.127)"/>
      <path id="Caminho_10338" data-name="Caminho 10338" d="M161.6,108.253H149.164a5.5,5.5,0,0,0,5.847,5.175,5.915,5.915,0,0,0,4.557-1.943l1.13,1.307a7.3,7.3,0,0,1-5.741,2.438c-4.646,0-7.807-3.162-7.807-7.578s3.073-7.542,7.26-7.542,7.207,3.073,7.207,7.542c0,.177-.035.389-.035.618Zm-12.435-1.5h10.545a5.283,5.283,0,0,0-10.545,0Z" transform="translate(-75.842 -95.111)"/>
      <path id="Caminho_10339" data-name="Caminho 10339" d="M171.357,106.457v8.62h-2.014v-8.426c0-3.144-1.643-4.752-4.469-4.752-3.2,0-5.211,1.978-5.211,5.37v7.807H157.65V100.2h1.925v2.738a6.283,6.283,0,0,1,5.652-2.862c3.621,0,6.112,2.084,6.112,6.359Z" transform="translate(-67.795 -95.134)"/>
      <path id="Caminho_10340" data-name="Caminho 10340" d="M177.319,115.532a4.789,4.789,0,0,1-3.144,1.042c-2.791,0-4.345-1.59-4.345-4.328v-8.991h-2.65v-1.7h2.65V98.31h2.014v3.25h4.522v1.7h-4.522v8.885c0,1.749.9,2.72,2.579,2.72a3.322,3.322,0,0,0,2.208-.76l.707,1.448Z" transform="translate(-60.492 -96.491)"/>
      <path id="Caminho_10341" data-name="Caminho 10341" d="M188.279,108.253H175.844a5.5,5.5,0,0,0,5.847,5.175,5.915,5.915,0,0,0,4.557-1.943l1.13,1.307a7.3,7.3,0,0,1-5.741,2.438c-4.646,0-7.807-3.162-7.807-7.578s3.073-7.542,7.26-7.542,7.207,3.073,7.207,7.542c0,.177-.035.389-.035.618Zm-12.435-1.5h10.545a5.283,5.283,0,0,0-10.545,0Z" transform="translate(-55.396 -95.111)"/>
      <path id="Caminho_10342" data-name="Caminho 10342" d="M112.41,126.832a7.56,7.56,0,1,1,7.578,7.578A7.3,7.3,0,0,1,112.41,126.832Zm13.089,0a5.535,5.535,0,1,0-5.511,5.794C123.167,132.626,125.5,130.312,125.5,126.832Z" transform="translate(-102.465 -80.412)"/>
      <path id="Caminho_10343" data-name="Caminho 10343" d="M143.008,115.9v20.984h-4.2v-1.749a5.862,5.862,0,0,1-4.752,1.978,7.4,7.4,0,0,1-7.613-7.825c0-4.769,3.3-7.825,7.613-7.825a5.886,5.886,0,0,1,4.557,1.837v-7.383h4.416Zm-4.328,13.371c0-2.632-1.7-4.222-3.868-4.222a4.225,4.225,0,0,0,0,8.426C137.02,133.475,138.681,131.886,138.681,129.271Z" transform="translate(-91.713 -83.01)"/>
      <path id="Caminho_10344" data-name="Caminho 10344" d="M137.82,117.635a2.516,2.516,0,0,1,2.738-2.455,2.473,2.473,0,0,1,2.738,2.367,2.75,2.75,0,0,1-5.476.088Zm.53,4.575h4.416v15.208H138.35Z" transform="translate(-82.992 -83.562)"/>
      <path id="Caminho_10345" data-name="Caminho 10345" d="M152.38,119.03v4.08a9.8,9.8,0,0,0-.989-.053c-2.438,0-4.045,1.325-4.045,4.239v7.189H142.93V119.277h4.222v2.014a6.142,6.142,0,0,1,5.228-2.226Z" transform="translate(-79.076 -80.612)"/>
      <path id="Caminho_10346" data-name="Caminho 10346" d="M164.993,128.1h-11.5c.424,1.89,2.031,3.056,4.345,3.056a5.152,5.152,0,0,0,3.815-1.466L164,132.235a7.971,7.971,0,0,1-6.271,2.455c-5.264,0-8.673-3.3-8.673-7.825a7.756,7.756,0,0,1,8.108-7.825c4.628,0,7.913,3,7.913,7.9,0,.336-.053.813-.088,1.183Zm-11.57-2.579h7.489a3.8,3.8,0,0,0-7.489,0Z" transform="translate(-74.378 -80.604)"/>
      <path id="Caminho_10347" data-name="Caminho 10347" d="M159.48,117.635a2.516,2.516,0,0,1,2.738-2.455,2.473,2.473,0,0,1,2.738,2.367,2.75,2.75,0,0,1-5.476.088Zm.53,4.575h4.416v15.208H160.01Z" transform="translate(-66.393 -83.562)"/>
      <path id="Caminho_10348" data-name="Caminho 10348" d="M175.2,135.108a6.244,6.244,0,0,1-3.586.954c-3.586,0-5.688-1.837-5.688-5.458v-6.253H163.58v-3.391h2.349V117.25h4.416v3.709h3.8v3.391h-3.8v6.2a1.775,1.775,0,0,0,1.89,2.014,2.943,2.943,0,0,0,1.784-.565Z" transform="translate(-63.251 -81.976)"/>
      <path id="Caminho_10349" data-name="Caminho 10349" d="M170.65,126.865c0-4.575,3.533-7.825,8.373-7.825s8.337,3.25,8.337,7.825-3.5,7.825-8.337,7.825S170.65,131.44,170.65,126.865Zm12.241,0c0-2.632-1.66-4.222-3.868-4.222s-3.9,1.59-3.9,4.222a3.851,3.851,0,0,0,3.9,4.2C181.23,131.069,182.891,129.479,182.891,126.865Z" transform="translate(-57.833 -80.604)"/>
      <path id="Caminho_10350" data-name="Caminho 10350" d="M123.348,146.073c0,4.787-3.3,7.825-7.578,7.825a5.925,5.925,0,0,1-4.575-1.837v7.1H106.78v-20.7H111v1.749a5.912,5.912,0,0,1,4.787-1.978c4.275,0,7.578,3.056,7.578,7.825Zm-4.469,0c0-2.632-1.66-4.222-3.868-4.222s-3.868,1.59-3.868,4.222,1.66,4.2,3.868,4.2S118.88,148.687,118.88,146.073Z" transform="translate(-106.78 -65.898)"/>
      <path id="Caminho_10351" data-name="Caminho 10351" d="M117.18,146.065c0-4.575,3.533-7.825,8.373-7.825s8.337,3.25,8.337,7.825-3.5,7.825-8.337,7.825S117.18,150.64,117.18,146.065Zm12.241,0c0-2.632-1.66-4.222-3.868-4.222s-3.9,1.59-3.9,4.222a3.851,3.851,0,0,0,3.9,4.2C127.76,150.269,129.421,148.679,129.421,146.065Z" transform="translate(-98.81 -65.89)"/>
      <path id="Caminho_10352" data-name="Caminho 10352" d="M127.478,152.255l1.466-3.162a10.358,10.358,0,0,0,5.281,1.466c2.031,0,2.791-.53,2.791-1.378,0-2.491-9.185.053-9.185-6.023,0-2.879,2.6-4.928,7.048-4.928a12.477,12.477,0,0,1,5.847,1.325l-1.466,3.144a8.758,8.758,0,0,0-4.381-1.13c-1.978,0-2.826.618-2.826,1.413,0,2.6,9.185.088,9.185,6.076,0,2.826-2.632,4.84-7.189,4.84a13.01,13.01,0,0,1-6.589-1.643Z" transform="translate(-90.932 -65.898)"/>
      <path id="Caminho_10353" data-name="Caminho 10353" d="M136.49,136.835a2.516,2.516,0,0,1,2.738-2.455,2.473,2.473,0,0,1,2.738,2.367,2.75,2.75,0,0,1-5.476.088Zm.53,4.575h4.416v15.208H137.02Z" transform="translate(-84.011 -68.848)"/>
      <path id="Caminho_10354" data-name="Caminho 10354" d="M152.2,154.308a6.244,6.244,0,0,1-3.586.954c-3.586,0-5.688-1.837-5.688-5.458v-6.253H140.58v-3.391h2.349V136.45h4.416v3.709h3.8v3.391h-3.8v6.2a1.775,1.775,0,0,0,1.89,2.014,2.943,2.943,0,0,0,1.784-.565l1.183,3.109Z" transform="translate(-80.877 -67.262)"/>
      <path id="Caminho_10355" data-name="Caminho 10355" d="M148.27,136.835a2.516,2.516,0,0,1,2.738-2.455,2.473,2.473,0,0,1,2.738,2.367,2.75,2.75,0,0,1-5.476.088Zm.53,4.575h4.416v15.208H148.8Z" transform="translate(-74.984 -68.848)"/>
      <path id="Caminho_10356" data-name="Caminho 10356" d="M169.463,138.36l-6.412,15.208h-4.557L152.1,138.36h4.557l4.2,10.351,4.345-10.351h4.239Z" transform="translate(-72.049 -65.798)"/>
      <path id="Caminho_10357" data-name="Caminho 10357" d="M162.07,146.065c0-4.575,3.533-7.825,8.373-7.825s8.337,3.25,8.337,7.825-3.5,7.825-8.337,7.825S162.07,150.64,162.07,146.065Zm12.241,0c0-2.632-1.66-4.222-3.868-4.222s-3.9,1.59-3.9,4.222a3.851,3.851,0,0,0,3.9,4.2C172.65,150.269,174.311,148.679,174.311,146.065Z" transform="translate(-64.408 -65.89)"/>
      <path id="Caminho_10358" data-name="Caminho 10358" d="M193.023,149.83h-11.5c.424,1.89,2.031,3.056,4.345,3.056a5.152,5.152,0,0,0,3.815-1.466l2.349,2.544a7.971,7.971,0,0,1-6.271,2.455c-5.264,0-8.673-3.3-8.673-7.825a7.756,7.756,0,0,1,8.108-7.825c4.628,0,7.913,3,7.913,7.9,0,.336-.053.813-.088,1.183Zm-11.57-2.579h7.489a3.8,3.8,0,0,0-7.489,0Zm4.522-8.231H182.53l3.815-4.08H191.1l-5.122,4.08Z" transform="translate(-52.897 -68.419)"/>
      <path id="Caminho_10359" data-name="Caminho 10359" d="M133.858,154.3v20.984h-4.2v-1.749a5.862,5.862,0,0,1-4.751,1.978,7.4,7.4,0,0,1-7.613-7.825c0-4.769,3.3-7.825,7.613-7.825a5.886,5.886,0,0,1,4.557,1.837v-7.383h4.416Zm-4.328,13.371c0-2.632-1.7-4.222-3.868-4.222a4.225,4.225,0,0,0,0,8.426C127.87,171.875,129.531,170.286,129.531,167.671Z" transform="translate(-98.726 -53.582)"/>
      <path id="Caminho_10360" data-name="Caminho 10360" d="M128.67,156.035a2.516,2.516,0,0,1,2.738-2.455,2.473,2.473,0,0,1,2.738,2.367,2.75,2.75,0,0,1-5.476.088Zm.53,4.575h4.416v15.208H129.2Z" transform="translate(-90.004 -54.134)"/>
      <path id="Caminho_10361" data-name="Caminho 10361" d="M143.23,157.43v4.08a9.792,9.792,0,0,0-.989-.053c-2.438,0-4.045,1.325-4.045,4.239v7.189H133.78V157.677H138v2.014a6.142,6.142,0,0,1,5.228-2.226Z" transform="translate(-86.088 -51.184)"/>
      <path id="Caminho_10362" data-name="Caminho 10362" d="M155.843,166.5h-11.5c.424,1.89,2.031,3.056,4.345,3.056a5.152,5.152,0,0,0,3.815-1.466l2.349,2.544a7.971,7.971,0,0,1-6.271,2.455c-5.264,0-8.673-3.3-8.673-7.825a7.756,7.756,0,0,1,8.108-7.825c4.628,0,7.913,3,7.913,7.9,0,.336-.053.813-.088,1.183Zm-11.57-2.579h7.489a3.8,3.8,0,0,0-7.489,0Z" transform="translate(-81.391 -51.176)"/>
      <path id="Caminho_10363" data-name="Caminho 10363" d="M150.33,156.035a2.516,2.516,0,0,1,2.738-2.455,2.473,2.473,0,0,1,2.738,2.367,2.75,2.75,0,0,1-5.476.088Zm.53,4.575h4.416v15.208H150.86Z" transform="translate(-73.405 -54.134)"/>
      <path id="Caminho_10364" data-name="Caminho 10364" d="M166.043,173.508a6.244,6.244,0,0,1-3.586.954c-3.586,0-5.688-1.837-5.688-5.458v-6.253H154.42v-3.391h2.349V155.65h4.416v3.709h3.8v3.391h-3.8v6.2a1.775,1.775,0,0,0,1.89,2.014,2.943,2.943,0,0,0,1.784-.565l1.183,3.109Z" transform="translate(-70.271 -52.548)"/>
      <path id="Caminho_10365" data-name="Caminho 10365" d="M161.5,165.265c0-4.575,3.533-7.825,8.373-7.825s8.337,3.25,8.337,7.825-3.5,7.825-8.337,7.825S161.5,169.84,161.5,165.265Zm12.241,0c0-2.632-1.66-4.222-3.868-4.222s-3.9,1.59-3.9,4.222a3.851,3.851,0,0,0,3.9,4.2C172.08,169.469,173.741,167.879,173.741,165.265Z" transform="translate(-64.845 -51.176)"/>
      <path id="Caminho_10366" data-name="Caminho 10366" d="M171.9,165.91a2.738,2.738,0,0,1,5.476,0,2.738,2.738,0,1,1-5.476,0Z" transform="translate(-56.875 -46.769)"/>
    </g>
    <circle id="Elipse_20" data-name="Elipse 20" cx="38.1" cy="38.1" r="38.1" transform="translate(196.484 69.139) rotate(-22.82)" fill="url(#linear-gradient-2)"/>
    <path id="Caminho_10367" data-name="Caminho 10367" d="M149.33,41.348c-8.92,0-16.18,7.012-16.18,15.65,0,5.6,2.279,8.938,3.939,11.375,1.042,1.519,1.625,2.42,1.625,3.321a6.722,6.722,0,0,0,3.02,5.37c.053,1.2.23,4.133.23,4.133.018.813.442,2.544,3.338,3.5A4.915,4.915,0,0,0,146.627,86a2.047,2.047,0,0,0,1.148.353H150.9A2.047,2.047,0,0,0,152.05,86a4.915,4.915,0,0,0,1.325-1.307c2.879-.954,3.321-2.667,3.356-3.5h0s.177-2.932.23-4.151a6.747,6.747,0,0,0,3.02-5.37c0-.9.583-1.8,1.607-3.3a18.626,18.626,0,0,0,3.939-11.393c0-8.637-7.26-15.65-16.18-15.65h0ZM140.48,66.077c-1.519-2.226-3.232-4.751-3.232-9.079a12.1,12.1,0,0,1,24.181,0c0,4.328-1.713,6.836-3.215,9.061-1.219,1.766-2.332,3.427-2.332,5.635a3.065,3.065,0,0,1-1.537,2.208h-10a3.065,3.065,0,0,1-1.537-2.208c0-2.208-1.13-3.868-2.314-5.617h0Z" transform="translate(96.094 27.344)" fill="#fff"/>
    <path id="Caminho_10368" data-name="Caminho 10368" d="M372.839,365.245l103.155-62.971-24.111-.194H363.53v57.954a6.13,6.13,0,0,0,9.309,5.228Z" transform="translate(272.647 227.171)" fill="url(#linear-gradient-4)"/>
    <rect id="Retângulo_394" data-name="Retângulo 394" width="308.883" height="387.998" rx="17.3" transform="translate(457.987 144.079)" fill="url(#linear-gradient-5)"/>
    <g id="Grupo_2845" data-name="Grupo 2845" transform="translate(553.724 439.397)">
      <path id="Caminho_10369" data-name="Caminho 10369" d="M347.355,316.989q-11,0-17.681-3.815a22.333,22.333,0,0,1-9.75-11.146q-3.074-7.339-3.073-17.928t3.073-17.929a22.416,22.416,0,0,1,9.75-11.146q6.677-3.815,17.681-3.815,16.454,0,23.475,8.461,7.021,8.479,7.03,24.429c0,10.633-2.349,18.688-7.03,24.376Q363.782,317.007,347.355,316.989Zm0-15.844q6.438,0,8.973-4.31,2.517-4.319,2.526-12.735c0-5.617-.848-9.945-2.526-12.788s-4.681-4.257-8.973-4.257-7.277,1.413-8.973,4.257q-2.517,4.266-2.526,12.788c0,5.688.848,9.856,2.526,12.735S343.045,301.145,347.355,301.145Z" transform="translate(-316.85 -251.21)" fill="#fff"/>
      <path id="Caminho_10370" data-name="Caminho 10370" d="M354.2,315.992v-8.514a42.572,42.572,0,0,1,6.73-9.415q3.974-4.16,8.814-8.514c2.7-2.438,4.91-4.451,6.589-6.041a21.3,21.3,0,0,0,3.762-4.5,9.524,9.524,0,0,0,1.236-4.91q0-7.021-9.22-7.03a34.613,34.613,0,0,0-8.267.989,52.136,52.136,0,0,0-7.578,2.473V254.682a49.861,49.861,0,0,1,9.5-2.526,65.484,65.484,0,0,1,11-.936q11.9,0,17.734,5.6c3.9,3.727,5.847,8.743,5.847,15.014a25.341,25.341,0,0,1-1.042,7.684,18.156,18.156,0,0,1-3.215,5.9,50.024,50.024,0,0,1-5.652,5.741q-3.074,2.676-6.041,5.352a30.813,30.813,0,0,0-4.751,5.246h21.3v14.272H354.2Z" transform="translate(-288.227 -251.202)" fill="#fff"/>
    </g>
    <path id="Caminho_10371" data-name="Caminho 10371" d="M491.883,57.15H312.6A30.557,30.557,0,0,0,282.04,87.708v208.5A30.557,30.557,0,0,0,312.6,326.767h60.321L397.365,366.3c2.544,4.1,7.207,4.1,9.733,0l24.446-39.531h60.321a30.557,30.557,0,0,0,30.558-30.558V87.708A30.557,30.557,0,0,0,491.866,57.15Z" transform="translate(210.197 39.467)" fill="#fff"/>
    <circle id="Elipse_21" data-name="Elipse 21" cx="38.1" cy="38.1" r="38.1" transform="translate(564.754 69.113) rotate(-22.82)" fill="url(#linear-gradient-6)"/>
    <path id="Caminho_10372" data-name="Caminho 10372" d="M581.509,365.245l103.155-62.971-24.111-.194H572.2v57.954a6.13,6.13,0,0,0,9.309,5.228Z" transform="translate(432.563 227.171)" fill="url(#linear-gradient-7)"/>
    <rect id="Retângulo_395" data-name="Retângulo 395" width="308.883" height="387.998" rx="17.3" transform="translate(826.273 144.079)" fill="url(#linear-gradient-8)"/>
    <g id="Grupo_2846" data-name="Grupo 2846" transform="translate(921.885 439.379)">
      <path id="Caminho_10373" data-name="Caminho 10373" d="M555.785,316.989q-11,0-17.681-3.815a22.333,22.333,0,0,1-9.75-11.146q-3.073-7.339-3.073-17.928t3.073-17.929a22.416,22.416,0,0,1,9.75-11.146q6.677-3.815,17.681-3.815,16.454,0,23.475,8.461,7.021,8.479,7.03,24.429c0,10.633-2.349,18.688-7.03,24.376Q572.212,317.007,555.785,316.989Zm0-15.844q6.438,0,8.973-4.31,2.517-4.319,2.526-12.735c0-5.617-.848-9.945-2.526-12.788s-4.681-4.257-8.973-4.257-7.277,1.413-8.973,4.257q-2.517,4.266-2.526,12.788c0,5.688.848,9.856,2.526,12.735S551.475,301.145,555.785,301.145Z" transform="translate(-525.28 -251.192)" fill="#fff"/>
      <path id="Caminho_10374" data-name="Caminho 10374" d="M583.536,317a60.52,60.52,0,0,1-6.73-.442c-2.65-.3-5.228-.707-7.772-1.237a42.667,42.667,0,0,1-6.394-1.784V298.68a39.241,39.241,0,0,0,9.114,2.72,51.678,51.678,0,0,0,8.814.848c3.692,0,6.465-.459,8.267-1.4,1.819-.919,2.72-2.65,2.72-5.158q0-5.538-8.726-5.546H572.037l1.183-12.488h9.008c2.9,0,4.981-.459,6.235-1.4a5.151,5.151,0,0,0,1.89-4.451,4.829,4.829,0,0,0-2.42-4.363c-1.625-.989-4.239-1.484-7.878-1.484a40.86,40.86,0,0,0-8.814.989,32.945,32.945,0,0,0-7.631,2.579V254.768a48.627,48.627,0,0,1,9.114-2.526,58.391,58.391,0,0,1,10.9-1.042,36.653,36.653,0,0,1,14.06,2.385,19.674,19.674,0,0,1,8.726,6.536,15.859,15.859,0,0,1,2.967,9.5,19.757,19.757,0,0,1-1.731,8.32,13.859,13.859,0,0,1-5.1,5.953q8.028,3.365,8.019,13.371,0,6.836-3.515,11.2a20.53,20.53,0,0,1-9.609,6.447A42.783,42.783,0,0,1,583.518,317Z" transform="translate(-496.649 -251.2)" fill="#fff"/>
    </g>
    <path id="Caminho_10375" data-name="Caminho 10375" d="M700.383,57.15H521.1A30.557,30.557,0,0,0,490.54,87.708v208.5A30.557,30.557,0,0,0,521.1,326.767h60.321L605.866,366.3c2.544,4.1,7.207,4.1,9.733,0l24.446-39.531h60.321a30.557,30.557,0,0,0,30.558-30.558V87.708A30.557,30.557,0,0,0,700.366,57.15Z" transform="translate(369.982 39.467)" fill="#fff"/>
    <circle id="Elipse_22" data-name="Elipse 22" cx="38.1" cy="38.1" r="38.1" transform="translate(933.04 69.087) rotate(-22.82)" fill="url(#linear-gradient-9)"/>
    <g id="Grupo_2847" data-name="Grupo 2847" transform="translate(524.314 168.879)">
      <path id="Caminho_10376" data-name="Caminho 10376" d="M300.2,107.374a8.726,8.726,0,0,1,9.114-8.814c5.246,0,9.079,3.727,9.079,8.814a9.1,9.1,0,0,1-18.193,0Zm16.356,0a7.269,7.269,0,1,0-7.242,7.171A7.009,7.009,0,0,0,316.556,107.374Z" transform="translate(-300.2 -97.677)"/>
      <path id="Caminho_10377" data-name="Caminho 10377" d="M328.707,98.06v18.352h-1.678v-2.579a5.641,5.641,0,0,1-5.016,2.7,6.616,6.616,0,0,1,0-13.23,5.656,5.656,0,0,1,4.946,2.579V98.06h1.766Zm-1.731,11.852a4.845,4.845,0,1,0-4.822,5.069A4.763,4.763,0,0,0,326.976,109.912Z" transform="translate(-288.452 -98.06)"/>
      <path id="Caminho_10378" data-name="Caminho 10378" d="M325.54,99.3a1.264,1.264,0,0,1,1.289-1.236,1.249,1.249,0,0,1,1.289,1.219,1.29,1.29,0,0,1-2.579.035Zm.389,4.116h1.766V116.43h-1.766Z" transform="translate(-280.78 -98.06)"/>
      <path id="Caminho_10379" data-name="Caminho 10379" d="M336.083,101.03v1.713c-.141,0-.3-.018-.424-.018-2.72,0-4.381,1.731-4.381,4.8v6.624H329.53V101.136h1.678v2.544c.813-1.731,2.473-2.65,4.875-2.65Z" transform="translate(-277.723 -95.784)"/>
      <path id="Caminho_10380" data-name="Caminho 10380" d="M346.857,108.191H335.976a4.813,4.813,0,0,0,5.122,4.522A5.073,5.073,0,0,0,345.073,111l.989,1.13a6.887,6.887,0,0,1-11.852-4.5,6.276,6.276,0,0,1,6.359-6.606c3.656,0,6.306,2.7,6.306,6.606,0,.141-.018.353-.018.548Zm-10.881-1.307h9.238a4.629,4.629,0,0,0-9.238,0Z" transform="translate(-274.136 -95.792)"/>
      <path id="Caminho_10381" data-name="Caminho 10381" d="M343.19,99.3a1.264,1.264,0,0,1,1.289-1.236,1.249,1.249,0,0,1,1.289,1.219,1.29,1.29,0,0,1-2.579.035Zm.389,4.116h1.766V116.43h-1.766Z" transform="translate(-267.254 -98.06)"/>
      <path id="Caminho_10382" data-name="Caminho 10382" d="M354.915,114.539a4.171,4.171,0,0,1-2.738.919,3.443,3.443,0,0,1-3.815-3.78v-7.86H346.03v-1.484h2.332V99.49h1.749v2.844h3.957v1.484H350.11v7.772a2.081,2.081,0,0,0,2.261,2.367,2.9,2.9,0,0,0,1.925-.671Z" transform="translate(-265.078 -96.964)"/>
      <path id="Caminho_10383" data-name="Caminho 10383" d="M351.86,107.636a6.615,6.615,0,1,1,6.624,6.624A6.4,6.4,0,0,1,351.86,107.636Zm11.464,0a4.845,4.845,0,1,0-4.822,5.069A4.743,4.743,0,0,0,363.324,107.636Z" transform="translate(-260.61 -95.784)"/>
      <path id="Caminho_10384" data-name="Caminho 10384" d="M375.336,106.074v8.072h-1.678v-2.031a4.89,4.89,0,0,1-4.487,2.155c-2.95,0-4.752-1.537-4.752-3.78,0-2,1.289-3.692,5.016-3.692h4.133V106c0-2.226-1.254-3.444-3.692-3.444a6.647,6.647,0,0,0-4.328,1.537l-.795-1.307a8.24,8.24,0,0,1,5.3-1.749c3.356,0,5.264,1.678,5.264,5.052Zm-1.766,4.151v-2.12h-4.08c-2.526,0-3.338.989-3.338,2.332,0,1.5,1.219,2.455,3.285,2.455a4.082,4.082,0,0,0,4.133-2.65Z" transform="translate(-250.984 -95.776)"/>
      <path id="Caminho_10385" data-name="Caminho 10385" d="M372.28,112.655l.795-1.378a7.886,7.886,0,0,0,4.628,1.466c2.473,0,3.5-.848,3.5-2.12,0-3.391-8.443-.724-8.443-5.864,0-2.12,1.837-3.709,5.14-3.709a8.884,8.884,0,0,1,4.61,1.219l-.76,1.413a6.649,6.649,0,0,0-3.833-1.113c-2.349,0-3.391.919-3.391,2.155,0,3.515,8.443.866,8.443,5.864,0,2.243-1.978,3.709-5.37,3.709a8.674,8.674,0,0,1-5.3-1.607Z" transform="translate(-244.961 -95.769)"/>
      <path id="Caminho_10386" data-name="Caminho 10386" d="M379.13,112.655l.795-1.378a7.886,7.886,0,0,0,4.628,1.466c2.473,0,3.48-.848,3.48-2.12,0-3.391-8.443-.724-8.443-5.864,0-2.12,1.837-3.709,5.14-3.709a8.884,8.884,0,0,1,4.61,1.219l-.76,1.413a6.649,6.649,0,0,0-3.833-1.113c-2.349,0-3.391.919-3.391,2.155,0,3.515,8.443.866,8.443,5.864,0,2.243-1.978,3.709-5.37,3.709a8.674,8.674,0,0,1-5.3-1.607Z" transform="translate(-239.711 -95.769)"/>
      <path id="Caminho_10387" data-name="Caminho 10387" d="M386.77,99.3a1.264,1.264,0,0,1,1.289-1.236,1.249,1.249,0,0,1,1.289,1.219,1.29,1.29,0,0,1-2.579.035Zm.389,4.116h1.766V116.43h-1.766Z" transform="translate(-233.856 -98.06)"/>
      <path id="Caminho_10388" data-name="Caminho 10388" d="M412.239,106.586v7.542H410.49v-7.366c0-2.738-1.378-4.151-3.745-4.151-2.667,0-4.363,1.731-4.363,4.7v6.836h-1.749v-7.366c0-2.738-1.378-4.151-3.762-4.151-2.65,0-4.363,1.731-4.363,4.7v6.836H390.76V101.146h1.678v2.367a5.269,5.269,0,0,1,4.769-2.473,4.671,4.671,0,0,1,4.628,2.738,5.656,5.656,0,0,1,5.14-2.738c3.162,0,5.246,1.837,5.246,5.564Z" transform="translate(-230.799 -95.776)"/>
      <path id="Caminho_10389" data-name="Caminho 10389" d="M314.107,124.444a6.3,6.3,0,0,1-6.483,6.624,5.635,5.635,0,0,1-4.946-2.579v7.242H300.93V117.908h1.678v2.579a5.649,5.649,0,0,1,5.016-2.667,6.294,6.294,0,0,1,6.483,6.606Zm-1.749,0a4.862,4.862,0,1,0-4.857,5.069A4.791,4.791,0,0,0,312.358,124.444Z" transform="translate(-299.641 -82.917)"/>
      <path id="Caminho_10390" data-name="Caminho 10390" d="M309.67,124.436a6.615,6.615,0,1,1,6.624,6.624A6.4,6.4,0,0,1,309.67,124.436Zm11.464,0a4.845,4.845,0,1,0-4.822,5.069A4.744,4.744,0,0,0,321.134,124.436Z" transform="translate(-292.943 -82.909)"/>
      <path id="Caminho_10391" data-name="Caminho 10391" d="M318.17,129.455l.795-1.378a7.886,7.886,0,0,0,4.628,1.466c2.473,0,3.48-.848,3.48-2.12,0-3.391-8.443-.724-8.443-5.864,0-2.12,1.837-3.709,5.14-3.709a8.884,8.884,0,0,1,4.61,1.219l-.76,1.413a6.649,6.649,0,0,0-3.833-1.113c-2.349,0-3.391.919-3.391,2.155,0,3.515,8.443.866,8.443,5.864,0,2.243-1.978,3.709-5.37,3.709a8.674,8.674,0,0,1-5.3-1.607Z" transform="translate(-286.429 -82.894)"/>
      <path id="Caminho_10392" data-name="Caminho 10392" d="M333.782,131.339a4.186,4.186,0,0,1-2.756.919,3.443,3.443,0,0,1-3.815-3.78v-7.86H324.88v-1.484h2.332V116.29h1.766v2.844h3.957v1.484h-3.957v7.772a2.076,2.076,0,0,0,2.243,2.367,2.9,2.9,0,0,0,1.925-.671l.618,1.254Z" transform="translate(-281.286 -84.089)"/>
      <path id="Caminho_10393" data-name="Caminho 10393" d="M330.71,124.436a6.615,6.615,0,1,1,6.624,6.624A6.4,6.4,0,0,1,330.71,124.436Zm11.464,0a4.845,4.845,0,1,0-4.822,5.069A4.743,4.743,0,0,0,342.174,124.436Z" transform="translate(-276.818 -82.909)"/>
      <path id="Caminho_10394" data-name="Caminho 10394" d="M357.492,114.868V133.22H353.8v-1.537a5.1,5.1,0,0,1-4.151,1.731,6.856,6.856,0,0,1,0-13.707,5.067,5.067,0,0,1,3.974,1.607V114.85h3.868Zm-3.78,11.711a3.412,3.412,0,1,0-3.391,3.692A3.379,3.379,0,0,0,353.712,126.579Z" transform="translate(-267.408 -85.193)"/>
      <path id="Caminho_10395" data-name="Caminho 10395" d="M366.6,125.549H356.536c.371,1.66,1.784,2.667,3.815,2.667a4.513,4.513,0,0,0,3.338-1.289l2.049,2.226a6.961,6.961,0,0,1-5.493,2.155c-4.61,0-7.6-2.9-7.6-6.853a6.789,6.789,0,0,1,7.1-6.853c4.063,0,6.924,2.614,6.924,6.906,0,.3-.053.724-.071,1.042Zm-10.121-2.243h6.553a3.322,3.322,0,0,0-6.553,0Z" transform="translate(-260.004 -83.085)"/>
      <path id="Caminho_10396" data-name="Caminho 10396" d="M375.981,117.72l-5.617,13.318h-3.974l-5.6-13.318h3.974l3.692,9.061,3.815-9.061Z" transform="translate(-253.766 -82.993)"/>
      <path id="Caminho_10397" data-name="Caminho 10397" d="M383.464,125.549H373.4c.371,1.66,1.784,2.667,3.815,2.667a4.513,4.513,0,0,0,3.338-1.289l2.049,2.226a6.961,6.961,0,0,1-5.493,2.155c-4.61,0-7.6-2.9-7.6-6.853a6.789,6.789,0,0,1,7.1-6.853c4.063,0,6.924,2.614,6.924,6.906,0,.3-.053.724-.071,1.042Zm-10.121-2.243H379.9a3.322,3.322,0,0,0-6.553,0Z" transform="translate(-247.084 -83.085)"/>
      <path id="Caminho_10398" data-name="Caminho 10398" d="M382.14,129.886l1.289-2.773a9.147,9.147,0,0,0,4.628,1.289c1.784,0,2.455-.477,2.455-1.219,0-2.173-8.037.053-8.037-5.264,0-2.526,2.279-4.31,6.165-4.31a10.965,10.965,0,0,1,5.122,1.166l-1.289,2.738a7.613,7.613,0,0,0-3.833-.989c-1.731,0-2.473.548-2.473,1.236,0,2.279,8.037.071,8.037,5.317,0,2.473-2.3,4.239-6.288,4.239a11.415,11.415,0,0,1-5.758-1.431Z" transform="translate(-237.405 -83.078)"/>
      <path id="Caminho_10399" data-name="Caminho 10399" d="M403.694,125.549H393.626c.371,1.66,1.784,2.667,3.815,2.667a4.513,4.513,0,0,0,3.338-1.289l2.049,2.226a6.961,6.961,0,0,1-5.493,2.155c-4.61,0-7.6-2.9-7.6-6.853a6.789,6.789,0,0,1,7.1-6.853c4.063,0,6.924,2.614,6.924,6.906,0,.3-.053.724-.071,1.042Zm-10.121-2.243h6.553a3.322,3.322,0,0,0-6.553,0Z" transform="translate(-231.58 -83.085)"/>
      <path id="Caminho_10400" data-name="Caminho 10400" d="M407.4,117.618v3.568c-.318-.018-.565-.053-.865-.053-2.137,0-3.533,1.166-3.533,3.709v6.288H399.13V117.812h3.692v1.749A5.364,5.364,0,0,1,407.4,117.6Z" transform="translate(-224.384 -83.085)"/>
      <path id="Caminho_10401" data-name="Caminho 10401" d="M300.31,133.185a2.209,2.209,0,0,1,2.4-2.155,2.168,2.168,0,0,1,2.4,2.084,2.413,2.413,0,0,1-4.8.071Zm.477,4.01h3.851v13.318h-3.851Z" transform="translate(-300.116 -72.793)"/>
      <path id="Caminho_10402" data-name="Caminho 10402" d="M318.4,140.3v7.613H314.53v-7.03c0-2.155-.989-3.144-2.7-3.144-1.855,0-3.2,1.13-3.2,3.586v6.589H304.78V134.594h3.692v1.554a5.849,5.849,0,0,1,4.4-1.749c3.144,0,5.511,1.837,5.511,5.882Z" transform="translate(-296.69 -70.211)"/>
      <path id="Caminho_10403" data-name="Caminho 10403" d="M313.99,141.263c0-4.01,3.091-6.853,7.419-6.853,2.791,0,5,1.219,5.97,3.391l-3,1.607a3.347,3.347,0,0,0-2.985-1.837,3.7,3.7,0,0,0,0,7.383,3.246,3.246,0,0,0,2.985-1.837l3,1.625c-.971,2.12-3.162,3.356-5.97,3.356-4.328,0-7.419-2.844-7.419-6.853Z" transform="translate(-289.632 -70.203)"/>
      <path id="Caminho_10404" data-name="Caminho 10404" d="M322.16,141.263c0-4.01,3.091-6.853,7.33-6.853s7.3,2.844,7.3,6.853-3.073,6.853-7.3,6.853S322.16,145.273,322.16,141.263Zm10.722,0a3.412,3.412,0,1,0-3.391,3.692A3.37,3.37,0,0,0,332.882,141.263Z" transform="translate(-283.371 -70.203)"/>
      <path id="Caminho_10405" data-name="Caminho 10405" d="M345.516,140.3v7.613h-3.868v-7.03c0-2.155-.989-3.144-2.7-3.144-1.855,0-3.2,1.13-3.2,3.586v6.589H331.88V134.594h3.692v1.554a5.849,5.849,0,0,1,4.4-1.749c3.144,0,5.511,1.837,5.511,5.882Z" transform="translate(-275.922 -70.211)"/>
      <path id="Caminho_10406" data-name="Caminho 10406" d="M355.622,131.668V150.02H351.93v-1.537a5.1,5.1,0,0,1-4.151,1.731,6.856,6.856,0,0,1,0-13.707,5.067,5.067,0,0,1,3.974,1.607V131.65h3.868Zm-3.78,11.711a3.412,3.412,0,1,0-3.391,3.692A3.379,3.379,0,0,0,351.842,143.379Z" transform="translate(-268.841 -72.318)"/>
      <path id="Caminho_10407" data-name="Caminho 10407" d="M351.07,133.185a2.209,2.209,0,0,1,2.4-2.155,2.168,2.168,0,0,1,2.4,2.084,2.413,2.413,0,0,1-4.8.071Zm.477,4.01H355.4v13.318h-3.851Z" transform="translate(-261.215 -72.793)"/>
      <path id="Caminho_10408" data-name="Caminho 10408" d="M354.99,141.263c0-4.01,3.091-6.853,7.419-6.853,2.791,0,5,1.219,5.97,3.391l-3,1.607a3.346,3.346,0,0,0-2.985-1.837,3.7,3.7,0,0,0,0,7.383,3.246,3.246,0,0,0,2.985-1.837l3,1.625c-.971,2.12-3.162,3.356-5.97,3.356-4.328,0-7.419-2.844-7.419-6.853Z" transform="translate(-258.211 -70.203)"/>
      <path id="Caminho_10409" data-name="Caminho 10409" d="M363.56,133.185a2.209,2.209,0,0,1,2.4-2.155,2.168,2.168,0,0,1,2.4,2.084,2.413,2.413,0,0,1-4.8.071Zm.477,4.01h3.851v13.318h-3.851Z" transform="translate(-251.644 -72.793)"/>
      <path id="Caminho_10410" data-name="Caminho 10410" d="M367.48,141.263c0-4.01,3.091-6.853,7.33-6.853s7.3,2.844,7.3,6.853-3.073,6.853-7.3,6.853S367.48,145.273,367.48,141.263Zm10.722,0a3.412,3.412,0,1,0-3.391,3.692A3.37,3.37,0,0,0,378.2,141.263Z" transform="translate(-248.639 -70.203)"/>
      <path id="Caminho_10411" data-name="Caminho 10411" d="M390.819,140.3v7.613H386.95v-7.03c0-2.155-.989-3.144-2.7-3.144-1.855,0-3.2,1.13-3.2,3.586v6.589H377.2V134.594h3.692v1.554a5.849,5.849,0,0,1,4.4-1.749c3.144,0,5.511,1.837,5.511,5.882Z" transform="translate(-241.19 -70.211)"/>
      <path id="Caminho_10412" data-name="Caminho 10412" d="M399.037,140.32v7.6h-3.6v-1.66c-.724,1.219-2.1,1.855-4.063,1.855-3.126,0-4.981-1.731-4.981-4.027s1.66-3.974,5.723-3.974h3.073c0-1.66-.989-2.614-3.073-2.614a6.453,6.453,0,0,0-3.833,1.236l-1.4-2.7a10.244,10.244,0,0,1,5.741-1.607c4.063,0,6.412,1.872,6.412,5.917Zm-3.851,3.391v-1.36h-2.65c-1.8,0-2.367.671-2.367,1.554,0,.971.813,1.607,2.173,1.607A2.848,2.848,0,0,0,395.186,143.711Z" transform="translate(-234.148 -70.195)"/>
      <path id="Caminho_10413" data-name="Caminho 10413" d="M395.52,131.66h3.851v18.352H395.52Z" transform="translate(-227.151 -72.31)"/>
      <path id="Caminho_10414" data-name="Caminho 10414" d="M399.45,137.24h6.995v3.091H399.45Z" transform="translate(-224.139 -68.034)"/>
      <path id="Caminho_10415" data-name="Caminho 10415" d="M323.593,157.1v7.613h-3.851v-7.03c0-2.155-.971-3.144-2.526-3.144-1.731,0-2.95,1.113-2.95,3.5v6.677H310.4v-7.03c0-2.155-.918-3.144-2.526-3.144-1.713,0-2.914,1.113-2.914,3.5v6.677H301.09V151.394h3.692v1.537a5.417,5.417,0,0,1,4.186-1.731,4.989,4.989,0,0,1,4.381,2.173,5.974,5.974,0,0,1,4.8-2.173c3.162,0,5.44,1.837,5.44,5.882Z" transform="translate(-299.518 -57.336)"/>
      <path id="Caminho_10416" data-name="Caminho 10416" d="M329.264,159.149H319.2c.371,1.66,1.784,2.667,3.815,2.667a4.513,4.513,0,0,0,3.338-1.289l2.049,2.226a6.961,6.961,0,0,1-5.493,2.155c-4.61,0-7.6-2.9-7.6-6.853a6.789,6.789,0,0,1,7.1-6.853c4.063,0,6.924,2.614,6.924,6.906,0,.3-.053.724-.071,1.042Zm-10.121-2.243H325.7a3.322,3.322,0,0,0-6.553,0Z" transform="translate(-288.62 -57.336)"/>
      <path id="Caminho_10417" data-name="Caminho 10417" d="M338.319,157.1v7.613H334.45v-7.03c0-2.155-.989-3.144-2.7-3.144-1.855,0-3.2,1.13-3.2,3.586v6.589H324.7V151.394h3.692v1.554a5.849,5.849,0,0,1,4.4-1.749c3.144,0,5.511,1.837,5.511,5.882Z" transform="translate(-281.424 -57.336)"/>
      <path id="Caminho_10418" data-name="Caminho 10418" d="M343.654,165.257a5.571,5.571,0,0,1-3.144.848c-3.144,0-4.981-1.607-4.981-4.769V155.86H333.48v-2.967h2.049V149.66H339.4v3.232h3.321v2.967H339.4v5.423a1.55,1.55,0,0,0,1.66,1.749,2.629,2.629,0,0,0,1.554-.495Z" transform="translate(-274.696 -58.516)"/>
      <path id="Caminho_10419" data-name="Caminho 10419" d="M353.624,159.149H343.556c.371,1.66,1.784,2.667,3.815,2.667a4.513,4.513,0,0,0,3.338-1.289l2.049,2.226a6.961,6.961,0,0,1-5.493,2.155c-4.61,0-7.6-2.9-7.6-6.853a6.789,6.789,0,0,1,7.1-6.853c4.063,0,6.924,2.614,6.924,6.906,0,.3-.053.724-.071,1.042ZM343.5,156.905h6.553a3.322,3.322,0,0,0-6.553,0Z" transform="translate(-269.952 -57.336)"/>
      <path id="Caminho_10420" data-name="Caminho 10420" d="M352.46,158.063c0-4.01,3.091-6.853,7.33-6.853s7.3,2.844,7.3,6.853-3.073,6.853-7.3,6.853S352.46,162.073,352.46,158.063Zm10.722,0a3.412,3.412,0,1,0-3.391,3.692A3.37,3.37,0,0,0,363.182,158.063Z" transform="translate(-260.15 -57.328)"/>
      <path id="Caminho_10421" data-name="Caminho 10421" d="M376.692,160.163a6.462,6.462,0,0,1-6.624,6.853,5.178,5.178,0,0,1-4.186-1.731v1.537H362.19V148.47h3.868v6.465a5.144,5.144,0,0,1,4.01-1.607,6.452,6.452,0,0,1,6.624,6.853Zm-3.9,0a3.4,3.4,0,1,0-3.391,3.692A3.37,3.37,0,0,0,372.788,160.163Z" transform="translate(-252.694 -59.428)"/>
      <path id="Caminho_10422" data-name="Caminho 10422" d="M385.244,159.149H375.176c.371,1.66,1.784,2.667,3.815,2.667a4.513,4.513,0,0,0,3.338-1.289l2.049,2.226a6.961,6.961,0,0,1-5.493,2.155c-4.61,0-7.6-2.9-7.6-6.853a6.789,6.789,0,0,1,7.1-6.853c4.063,0,6.924,2.614,6.924,6.906,0,.3-.053.724-.071,1.042Zm-10.121-2.243h6.553a3.322,3.322,0,0,0-6.553,0Z" transform="translate(-245.72 -57.336)"/>
      <path id="Caminho_10423" data-name="Caminho 10423" d="M394.652,148.468V166.82H390.96v-1.537a5.1,5.1,0,0,1-4.151,1.731,6.856,6.856,0,0,1,0-13.707,5.067,5.067,0,0,1,3.974,1.607V148.45h3.868Zm-3.78,11.711a3.412,3.412,0,1,0-3.391,3.692A3.379,3.379,0,0,0,390.872,160.179Z" transform="translate(-238.93 -59.443)"/>
      <path id="Caminho_10424" data-name="Caminho 10424" d="M403.774,159.149H393.706c.371,1.66,1.784,2.667,3.815,2.667a4.513,4.513,0,0,0,3.338-1.289l2.049,2.226a6.961,6.961,0,0,1-5.493,2.155c-4.61,0-7.6-2.9-7.6-6.853a6.789,6.789,0,0,1,7.1-6.853c4.063,0,6.924,2.614,6.924,6.906,0,.3-.053.724-.071,1.042Zm-10.121-2.243h6.553a3.322,3.322,0,0,0-6.553,0Z" transform="translate(-231.519 -57.336)"/>
      <path id="Caminho_10425" data-name="Caminho 10425" d="M398.93,154.04h6.995v3.091H398.93Z" transform="translate(-224.537 -55.159)"/>
      <path id="Caminho_10426" data-name="Caminho 10426" d="M334.84,174.863c0-4.01,3.091-6.853,7.419-6.853,2.791,0,5,1.219,5.97,3.391l-3,1.607a3.346,3.346,0,0,0-2.985-1.837,3.7,3.7,0,0,0,0,7.383,3.246,3.246,0,0,0,2.985-1.837l3,1.625c-.971,2.12-3.162,3.374-5.97,3.374C337.931,181.717,334.84,178.873,334.84,174.863Z" transform="translate(-273.653 -44.453)"/>
      <path id="Caminho_10427" data-name="Caminho 10427" d="M343.41,166.785a2.209,2.209,0,0,1,2.4-2.155,2.168,2.168,0,0,1,2.4,2.084,2.413,2.413,0,0,1-4.8.071Zm.477,4.01h3.868v13.318h-3.868Z" transform="translate(-267.086 -47.044)"/>
      <path id="Caminho_10428" data-name="Caminho 10428" d="M361.852,165.268V183.62H358.16v-1.537a5.1,5.1,0,0,1-4.151,1.731,6.856,6.856,0,0,1,0-13.707A5.13,5.13,0,0,1,358,171.715V165.25h3.851Zm-3.78,11.711a3.412,3.412,0,1,0-3.391,3.692A3.379,3.379,0,0,0,358.072,176.979Z" transform="translate(-264.066 -46.568)"/>
      <path id="Caminho_10429" data-name="Caminho 10429" d="M357.01,174.863c0-4.01,3.091-6.853,7.33-6.853s7.3,2.844,7.3,6.853-3.073,6.853-7.3,6.853S357.01,178.873,357.01,174.863Zm10.722,0a3.412,3.412,0,1,0-3.391,3.692A3.37,3.37,0,0,0,367.732,174.863Z" transform="translate(-256.663 -44.453)"/>
      <path id="Caminho_10430" data-name="Caminho 10430" d="M366.11,175.427a2.4,2.4,0,0,1,4.8,0,2.4,2.4,0,1,1-4.8,0Z" transform="translate(-249.689 -40.583)"/>
    </g>
    <g id="Grupo_2848" data-name="Grupo 2848" transform="translate(899.135 168.897)">
      <path id="Caminho_10431" data-name="Caminho 10431" d="M519.58,106.042a7.785,7.785,0,1,1,7.79,7.542A7.457,7.457,0,0,1,519.58,106.042Zm14.007,0a6.227,6.227,0,1,0-6.2,6.147A6.012,6.012,0,0,0,533.587,106.042Z" transform="translate(-506.898 -97.74)"/>
      <path id="Caminho_10432" data-name="Caminho 10432" d="M544.647,106.288a5.385,5.385,0,0,1-5.546,5.67,4.857,4.857,0,0,1-4.239-2.208v6.2h-1.5V100.688h1.448V102.9a4.861,4.861,0,0,1,4.292-2.3,5.39,5.39,0,0,1,5.546,5.652Zm-1.5,0a4.155,4.155,0,1,0-4.151,4.345A4.109,4.109,0,0,0,543.146,106.288Z" transform="translate(-496.337 -96.131)"/>
      <path id="Caminho_10433" data-name="Caminho 10433" d="M540.85,106.272a5.661,5.661,0,1,1,5.67,5.67A5.48,5.48,0,0,1,540.85,106.272Zm9.8,0a4.147,4.147,0,1,0-4.133,4.345A4.066,4.066,0,0,0,550.653,106.272Z" transform="translate(-490.597 -96.116)"/>
      <path id="Caminho_10434" data-name="Caminho 10434" d="M548.14,110.565l.671-1.183a6.68,6.68,0,0,0,3.957,1.254c2.12,0,2.985-.724,2.985-1.819,0-2.9-7.224-.618-7.224-5.016,0-1.819,1.572-3.179,4.416-3.179a7.534,7.534,0,0,1,3.939,1.042l-.654,1.2a5.753,5.753,0,0,0-3.285-.954c-2.014,0-2.9.777-2.9,1.837,0,3,7.224.742,7.224,5.016,0,1.925-1.7,3.179-4.593,3.179A7.539,7.539,0,0,1,548.14,110.565Z" transform="translate(-485.01 -96.116)"/>
      <path id="Caminho_10435" data-name="Caminho 10435" d="M554.69,99.13a1.094,1.094,0,0,1,1.1-1.06,1.069,1.069,0,1,1-1.1,1.06Zm.336,3.515h1.5v11.146h-1.5Z" transform="translate(-479.991 -98.07)"/>
      <path id="Caminho_10436" data-name="Caminho 10436" d="M564.733,112.184a3.589,3.589,0,0,1-2.349.777,2.95,2.95,0,0,1-3.268-3.232V103h-2v-1.272h2V99.29h1.5v2.438h3.391V103h-3.391v6.659a1.782,1.782,0,0,0,1.925,2.031,2.554,2.554,0,0,0,1.66-.565l.53,1.077Z" transform="translate(-478.129 -97.135)"/>
      <path id="Caminho_10437" data-name="Caminho 10437" d="M562.79,99.13a1.094,1.094,0,0,1,1.1-1.06,1.069,1.069,0,1,1-1.1,1.06Zm.336,3.515h1.5v11.146h-1.5Z" transform="translate(-473.783 -98.07)"/>
      <path id="Caminho_10438" data-name="Caminho 10438" d="M576.476,100.66l-4.963,11.146h-1.554L565.03,100.66H566.6l4.169,9.485,4.222-9.485h1.484Z" transform="translate(-472.067 -96.085)"/>
      <path id="Caminho_10439" data-name="Caminho 10439" d="M572.52,99.13a1.094,1.094,0,0,1,1.1-1.06,1.069,1.069,0,1,1-1.1,1.06Zm.336,3.515h1.5v11.146h-1.5Z" transform="translate(-466.327 -98.07)"/>
      <path id="Caminho_10440" data-name="Caminho 10440" d="M575.078,110.565l.671-1.183a6.639,6.639,0,0,0,3.957,1.254c2.12,0,2.985-.724,2.985-1.819,0-2.9-7.224-.618-7.224-5.016,0-1.819,1.572-3.179,4.4-3.179a7.533,7.533,0,0,1,3.939,1.042l-.654,1.2a5.753,5.753,0,0,0-3.285-.954c-2.014,0-2.9.777-2.9,1.837,0,3,7.224.742,7.224,5.016,0,1.925-1.7,3.179-4.592,3.179a7.539,7.539,0,0,1-4.54-1.378Z" transform="translate(-464.38 -96.116)"/>
      <path id="Caminho_10441" data-name="Caminho 10441" d="M600.19,105.364v6.465h-1.5v-6.306c0-2.349-1.183-3.55-3.2-3.55-2.3,0-3.727,1.484-3.727,4.027v5.847h-1.5V105.54c0-2.349-1.183-3.55-3.215-3.55-2.261,0-3.727,1.484-3.727,4.027v5.847h-1.5V100.718h1.448v2.031a4.481,4.481,0,0,1,4.08-2.12,3.972,3.972,0,0,1,3.957,2.349,4.858,4.858,0,0,1,4.416-2.349c2.72,0,4.486,1.572,4.486,4.769Z" transform="translate(-459.199 -96.108)"/>
      <path id="Caminho_10442" data-name="Caminho 10442" d="M593.93,106.272a5.661,5.661,0,1,1,5.67,5.67A5.48,5.48,0,0,1,593.93,106.272Zm9.8,0a4.147,4.147,0,1,0-4.133,4.345A4.066,4.066,0,0,0,603.733,106.272Z" transform="translate(-449.919 -96.116)"/>
      <path id="Caminho_10443" data-name="Caminho 10443" d="M524.406,115.06l-4.964,11.146h-1.554L512.96,115.06h1.572l4.169,9.485,4.222-9.485Z" transform="translate(-511.971 -85.05)"/>
      <path id="Caminho_10444" data-name="Caminho 10444" d="M520.45,113.53a1.094,1.094,0,0,1,1.1-1.06,1.069,1.069,0,1,1-1.1,1.06Zm.336,3.515h1.5v11.146h-1.5Z" transform="translate(-506.231 -87.034)"/>
      <path id="Caminho_10445" data-name="Caminho 10445" d="M534.122,119.771v6.465h-1.5V119.93c0-2.349-1.236-3.55-3.356-3.55a3.663,3.663,0,0,0-3.9,4.027v5.847h-1.5V115.108h1.448v2.049a4.688,4.688,0,0,1,4.239-2.137c2.72,0,4.575,1.572,4.575,4.769Z" transform="translate(-503.618 -85.08)"/>
      <path id="Caminho_10446" data-name="Caminho 10446" d="M531.38,120.672a5.487,5.487,0,0,1,5.741-5.652,4.847,4.847,0,0,1,4.363,2.208l-1.13.76a3.762,3.762,0,0,0-3.232-1.66,4.347,4.347,0,0,0,0,8.69,3.772,3.772,0,0,0,3.232-1.625l1.13.76a4.884,4.884,0,0,1-4.363,2.208,5.5,5.5,0,0,1-5.741-5.67Z" transform="translate(-497.854 -85.08)"/>
      <path id="Caminho_10447" data-name="Caminho 10447" d="M548.867,115.06v11.146h-1.448v-2.031a4.419,4.419,0,0,1-4.01,2.137c-2.844,0-4.7-1.59-4.7-4.787V115.06h1.5v6.306c0,2.367,1.236,3.586,3.338,3.586,2.332,0,3.8-1.5,3.8-4.045V115.06h1.5Z" transform="translate(-492.237 -85.05)"/>
      <path id="Caminho_10448" data-name="Caminho 10448" d="M546.85,112.47h1.5v15.721h-1.5Z" transform="translate(-485.999 -87.034)"/>
      <path id="Caminho_10449" data-name="Caminho 10449" d="M558.894,119.338v6.906h-1.448v-1.731a4.169,4.169,0,0,1-3.833,1.837c-2.526,0-4.063-1.307-4.063-3.232,0-1.713,1.1-3.162,4.292-3.162h3.533v-.671c0-1.908-1.077-2.95-3.162-2.95a5.732,5.732,0,0,0-3.709,1.307l-.671-1.13a7.087,7.087,0,0,1,4.54-1.5c2.879,0,4.5,1.448,4.5,4.328Zm-1.5,3.55v-1.819h-3.5c-2.155,0-2.862.848-2.862,2,0,1.289,1.042,2.1,2.826,2.1a3.486,3.486,0,0,0,3.533-2.261Z" transform="translate(-483.93 -85.088)"/>
      <path id="Caminho_10450" data-name="Caminho 10450" d="M559.67,120.672a5.661,5.661,0,1,1,5.67,5.67A5.48,5.48,0,0,1,559.67,120.672Zm9.8,0a4.147,4.147,0,1,0-4.133,4.345A4.066,4.066,0,0,0,569.473,120.672Z" transform="translate(-476.174 -85.08)"/>
      <path id="Caminho_10451" data-name="Caminho 10451" d="M568.708,131.688l.53-1.148a2.556,2.556,0,0,0,1.731.565c1.183,0,1.837-.724,1.837-2.1V117.027h1.5V129a3.061,3.061,0,0,1-3.268,3.391,3.623,3.623,0,0,1-2.349-.724Zm3.762-18.158a1.094,1.094,0,0,1,1.1-1.06,1.069,1.069,0,1,1-1.1,1.06Z" transform="translate(-469.262 -87.034)"/>
      <path id="Caminho_10452" data-name="Caminho 10452" d="M584.347,115.06v11.146H582.9v-2.031a4.419,4.419,0,0,1-4.01,2.137c-2.844,0-4.7-1.59-4.7-4.787V115.06h1.5v6.306c0,2.367,1.237,3.586,3.356,3.586,2.332,0,3.8-1.5,3.8-4.045V115.06h1.5Z" transform="translate(-465.047 -85.05)"/>
      <path id="Caminho_10453" data-name="Caminho 10453" d="M587.939,115.02v1.466c-.124,0-.247-.018-.353-.018-2.332,0-3.745,1.484-3.745,4.116v5.67h-1.5V115.108h1.448v2.19c.707-1.484,2.12-2.261,4.169-2.261Z" transform="translate(-458.801 -85.08)"/>
      <path id="Caminho_10454" data-name="Caminho 10454" d="M586.86,113.53a1.094,1.094,0,0,1,1.1-1.06,1.069,1.069,0,1,1-1.1,1.06Zm.336,3.515h1.5v11.146h-1.5Z" transform="translate(-455.337 -87.034)"/>
      <path id="Caminho_10455" data-name="Caminho 10455" d="M589.408,124.965l.671-1.183a6.639,6.639,0,0,0,3.957,1.254c2.12,0,2.985-.724,2.985-1.819,0-2.9-7.224-.618-7.224-5.016,0-1.819,1.572-3.179,4.4-3.179a7.534,7.534,0,0,1,3.939,1.042l-.654,1.2a5.753,5.753,0,0,0-3.285-.954c-2.014,0-2.9.777-2.9,1.837,0,3,7.224.742,7.224,5.016,0,1.925-1.7,3.179-4.592,3.179a7.538,7.538,0,0,1-4.54-1.378Z" transform="translate(-453.398 -85.08)"/>
      <path id="Caminho_10456" data-name="Caminho 10456" d="M602.773,126.584a3.589,3.589,0,0,1-2.349.777,2.95,2.95,0,0,1-3.268-3.232V117.4h-2v-1.272h2V113.69h1.5v2.438h3.391V117.4h-3.391v6.659a1.782,1.782,0,0,0,1.925,2.031,2.554,2.554,0,0,0,1.66-.565l.53,1.077Z" transform="translate(-448.976 -86.099)"/>
      <path id="Caminho_10457" data-name="Caminho 10457" d="M609.834,119.338v6.906h-1.448v-1.731a4.169,4.169,0,0,1-3.833,1.837c-2.526,0-4.063-1.307-4.063-3.232,0-1.713,1.1-3.162,4.292-3.162h3.533v-.671c0-1.908-1.077-2.95-3.162-2.95a5.732,5.732,0,0,0-3.709,1.307l-.671-1.13a7.087,7.087,0,0,1,4.54-1.5c2.879,0,4.5,1.448,4.5,4.328Zm-1.5,3.55v-1.819h-3.5c-2.155,0-2.861.848-2.861,2,0,1.289,1.042,2.1,2.826,2.1a3.486,3.486,0,0,0,3.533-2.261Z" transform="translate(-444.891 -85.088)"/>
      <path id="Caminho_10458" data-name="Caminho 10458" d="M529.032,129.328v11.393h-3.144v-1.36a4.617,4.617,0,0,1-3.533,1.519c-2.861,0-4.875-1.607-4.875-5.122V129.31h3.3v5.953c0,1.908.848,2.756,2.314,2.756s2.632-.971,2.632-3.073V129.31h3.3Z" transform="translate(-508.507 -74.129)"/>
      <path id="Caminho_10459" data-name="Caminho 10459" d="M537.418,134.264v6.518h-3.3v-6.023c0-1.837-.848-2.685-2.314-2.685-1.59,0-2.738.971-2.738,3.073v5.635h-3.3V129.389h3.162v1.342a4.985,4.985,0,0,1,3.762-1.5c2.685,0,4.716,1.572,4.716,5.034Z" transform="translate(-502.161 -74.19)"/>
      <path id="Caminho_10460" data-name="Caminho 10460" d="M533.82,128.177a1.882,1.882,0,0,1,2.049-1.837,1.854,1.854,0,0,1,2.049,1.784,2.058,2.058,0,0,1-4.1.071Zm.406,3.427h3.3V143h-3.3Z" transform="translate(-495.985 -76.405)"/>
      <path id="Caminho_10461" data-name="Caminho 10461" d="M537.18,135.094c0-3.427,2.65-5.864,6.359-5.864a5.242,5.242,0,0,1,5.1,2.9l-2.561,1.378a2.849,2.849,0,0,0-2.561-1.572,3.167,3.167,0,0,0,0,6.324,2.785,2.785,0,0,0,2.561-1.572l2.561,1.4a5.3,5.3,0,0,1-5.1,2.879c-3.709,0-6.359-2.438-6.359-5.864Z" transform="translate(-493.41 -74.19)"/>
      <path id="Caminho_10462" data-name="Caminho 10462" d="M555.158,134.282v6.5h-3.091v-1.413a3.741,3.741,0,0,1-3.48,1.59c-2.667,0-4.257-1.484-4.257-3.444s1.413-3.409,4.893-3.409h2.632c0-1.413-.848-2.243-2.632-2.243a5.53,5.53,0,0,0-3.285,1.06l-1.183-2.314a8.816,8.816,0,0,1,4.911-1.378c3.48,0,5.493,1.607,5.493,5.069Zm-3.3,2.9v-1.166h-2.261c-1.554,0-2.031.565-2.031,1.342,0,.83.707,1.378,1.872,1.378a2.45,2.45,0,0,0,2.438-1.554Z" transform="translate(-487.93 -74.19)"/>
      <path id="Caminho_10463" data-name="Caminho 10463" d="M571.413,134.272v6.518h-3.3v-6.023c0-1.837-.83-2.685-2.155-2.685-1.484,0-2.526.954-2.526,2.985v5.723h-3.3v-6.023c0-1.837-.777-2.685-2.155-2.685-1.466,0-2.508.954-2.508,2.985v5.723h-3.3V129.4h3.162V130.7a4.633,4.633,0,0,1,3.586-1.484,4.23,4.23,0,0,1,3.745,1.872,5.13,5.13,0,0,1,4.116-1.872c2.72,0,4.663,1.572,4.663,5.034Z" transform="translate(-481.93 -74.198)"/>
      <path id="Caminho_10464" data-name="Caminho 10464" d="M576.273,136.013h-8.62a3.049,3.049,0,0,0,3.268,2.3,3.86,3.86,0,0,0,2.861-1.1l1.766,1.908a5.987,5.987,0,0,1-4.7,1.837c-3.939,0-6.5-2.473-6.5-5.864a5.8,5.8,0,0,1,6.076-5.864,5.576,5.576,0,0,1,5.935,5.917,7.755,7.755,0,0,1-.071.883Zm-8.673-1.925h5.617a2.689,2.689,0,0,0-2.791-2.367A2.736,2.736,0,0,0,567.6,134.087Z" transform="translate(-472.588 -74.19)"/>
      <path id="Caminho_10465" data-name="Caminho 10465" d="M584.048,134.264v6.518h-3.3v-6.023c0-1.837-.848-2.685-2.314-2.685-1.59,0-2.738.971-2.738,3.073v5.635h-3.3V129.389h3.162v1.342a4.985,4.985,0,0,1,3.762-1.5c2.685,0,4.716,1.572,4.716,5.034Z" transform="translate(-466.426 -74.19)"/>
      <path id="Caminho_10466" data-name="Caminho 10466" d="M588.618,141.254a4.656,4.656,0,0,1-2.685.724c-2.685,0-4.257-1.378-4.257-4.08v-4.681H579.91v-2.544h1.766V127.9h3.3v2.773h2.844v2.544h-2.844v4.646a1.327,1.327,0,0,0,1.413,1.5,2.123,2.123,0,0,0,1.325-.424l.883,2.332Z" transform="translate(-460.663 -75.21)"/>
      <path id="Caminho_10467" data-name="Caminho 10467" d="M597.153,136.013h-8.62a3.049,3.049,0,0,0,3.268,2.3,3.888,3.888,0,0,0,2.861-1.1l1.766,1.908a5.987,5.987,0,0,1-4.7,1.837c-3.939,0-6.5-2.473-6.5-5.864a5.815,5.815,0,0,1,6.076-5.864,5.585,5.585,0,0,1,5.935,5.917,7.756,7.756,0,0,1-.071.883Zm-8.673-1.925H594.1a2.839,2.839,0,0,0-5.6,0Z" transform="translate(-456.586 -74.19)"/>
      <path id="Caminho_10468" data-name="Caminho 10468" d="M607.078,136.175v6.5h-3.091v-1.413a3.742,3.742,0,0,1-3.48,1.59c-2.667,0-4.257-1.484-4.257-3.444S597.663,136,601.143,136h2.632c0-1.413-.848-2.243-2.632-2.243a5.53,5.53,0,0,0-3.285,1.06l-1.183-2.314a8.816,8.816,0,0,1,4.911-1.378c3.48,0,5.493,1.607,5.493,5.069Zm-5.811-6.359-3.833-3.056H601l2.861,3.056h-2.579Zm2.508,9.256v-1.166h-2.261c-1.554,0-2.031.565-2.031,1.342,0,.83.707,1.378,1.872,1.378a2.449,2.449,0,0,0,2.438-1.554Z" transform="translate(-448.141 -76.083)"/>
      <path id="Caminho_10469" data-name="Caminho 10469" d="M517.74,142.577a1.882,1.882,0,0,1,2.049-1.837,1.854,1.854,0,0,1,2.049,1.784,2.058,2.058,0,0,1-4.1.071Zm.406,3.427h3.3V157.4h-3.3Z" transform="translate(-508.308 -65.369)"/>
      <path id="Caminho_10470" data-name="Caminho 10470" d="M533.228,148.664v6.518h-3.3v-6.023c0-1.837-.848-2.685-2.314-2.685-1.59,0-2.738.971-2.738,3.073v5.635h-3.3V143.789h3.162v1.342a4.985,4.985,0,0,1,3.762-1.5c2.685,0,4.716,1.572,4.716,5.034Z" transform="translate(-505.372 -63.155)"/>
      <path id="Caminho_10471" data-name="Caminho 10471" d="M537.808,155.654a4.656,4.656,0,0,1-2.685.724c-2.685,0-4.257-1.378-4.257-4.08v-4.681H529.1v-2.544h1.766V142.3h3.3v2.773h2.844v2.544h-2.844v4.646a1.327,1.327,0,0,0,1.413,1.5,2.123,2.123,0,0,0,1.325-.424l.883,2.332Z" transform="translate(-499.602 -64.174)"/>
      <path id="Caminho_10472" data-name="Caminho 10472" d="M546.343,150.413h-8.62a3.049,3.049,0,0,0,3.268,2.3,3.888,3.888,0,0,0,2.862-1.1l1.766,1.908a5.987,5.987,0,0,1-4.7,1.837c-3.939,0-6.5-2.473-6.5-5.864a5.815,5.815,0,0,1,6.076-5.864,5.585,5.585,0,0,1,5.935,5.917,7.754,7.754,0,0,1-.071.883Zm-8.673-1.925h5.617a2.839,2.839,0,0,0-5.6,0Z" transform="translate(-495.525 -63.155)"/>
      <path id="Caminho_10473" data-name="Caminho 10473" d="M549.525,143.62v3.056c-.282-.018-.495-.035-.742-.035-1.819,0-3.021.989-3.021,3.179v5.387h-3.3V143.814h3.162v1.5a4.623,4.623,0,0,1,3.921-1.678Z" transform="translate(-489.363 -63.162)"/>
      <path id="Caminho_10474" data-name="Caminho 10474" d="M559.99,149.5a5.525,5.525,0,0,1-5.67,5.864,4.41,4.41,0,0,1-3.427-1.378v5.317h-3.3V143.8h3.162V145.1a4.45,4.45,0,0,1,3.586-1.484,5.534,5.534,0,0,1,5.67,5.864Zm-3.356,0a2.908,2.908,0,1,0-2.9,3.162A2.878,2.878,0,0,0,556.634,149.5Z" transform="translate(-485.432 -63.162)"/>
      <path id="Caminho_10475" data-name="Caminho 10475" d="M562.943,143.62v3.056c-.283-.018-.495-.035-.742-.035-1.819,0-3.038.989-3.038,3.179v5.387h-3.3V143.814h3.162v1.5a4.623,4.623,0,0,1,3.921-1.678Z" transform="translate(-479.094 -63.162)"/>
      <path id="Caminho_10476" data-name="Caminho 10476" d="M572.383,150.413h-8.62a3.049,3.049,0,0,0,3.268,2.3,3.861,3.861,0,0,0,2.862-1.1l1.766,1.908a5.987,5.987,0,0,1-4.7,1.837c-3.939,0-6.5-2.473-6.5-5.864a5.8,5.8,0,0,1,6.076-5.864,5.576,5.576,0,0,1,5.935,5.917,7.754,7.754,0,0,1-.071.883Zm-8.673-1.925h5.617a2.689,2.689,0,0,0-2.791-2.367A2.736,2.736,0,0,0,563.71,148.487Z" transform="translate(-475.569 -63.155)"/>
      <path id="Caminho_10477" data-name="Caminho 10477" d="M576.438,155.654a4.657,4.657,0,0,1-2.685.724c-2.685,0-4.257-1.378-4.257-4.08v-4.681H567.73v-2.544H569.5V142.3h3.3v2.773h2.844v2.544H572.8v4.646a1.327,1.327,0,0,0,1.413,1.5,2.123,2.123,0,0,0,1.325-.424l.883,2.332Z" transform="translate(-469.997 -64.174)"/>
      <path id="Caminho_10478" data-name="Caminho 10478" d="M584.118,148.689v6.5h-3.091v-1.413a3.742,3.742,0,0,1-3.48,1.59c-2.667,0-4.257-1.484-4.257-3.462s1.413-3.409,4.893-3.409h2.632c0-1.413-.848-2.243-2.632-2.243a5.53,5.53,0,0,0-3.285,1.06L573.714,145a8.816,8.816,0,0,1,4.911-1.378c3.48,0,5.493,1.607,5.493,5.069Zm-3.3,2.9V150.42h-2.261c-1.554,0-2.031.565-2.031,1.342,0,.83.707,1.378,1.872,1.378a2.449,2.449,0,0,0,2.438-1.554Z" transform="translate(-465.736 -63.162)"/>
      <path id="Caminho_10479" data-name="Caminho 10479" d="M589.612,151.076l2.561,1.4a5.176,5.176,0,0,1-4.822,2.879l-.212.883c1.289.141,1.837.883,1.837,1.766,0,1.289-1.236,2.1-3.109,2.1a4.422,4.422,0,0,1-1.978-.442l.512-1.413a3.163,3.163,0,0,0,1.378.318c.777,0,1.1-.283,1.1-.671,0-.353-.3-.618-1.042-.618h-.724l.512-2.031a5.7,5.7,0,0,1-4.911-5.741c0-3.427,2.65-5.864,6.359-5.864a5.259,5.259,0,0,1,5.1,2.9l-2.561,1.378a2.849,2.849,0,0,0-2.561-1.572,3.167,3.167,0,0,0,0,6.324,2.786,2.786,0,0,0,2.561-1.572Z" transform="translate(-460.05 -63.147)"/>
      <path id="Caminho_10480" data-name="Caminho 10480" d="M598.688,150.628v6.5H595.6v-1.413a3.742,3.742,0,0,1-3.48,1.59c-2.667,0-4.257-1.484-4.257-3.462s1.413-3.409,4.893-3.409h2.632c0-1.413-.848-2.243-2.632-2.243a5.53,5.53,0,0,0-3.285,1.06l-1.183-2.314a8.815,8.815,0,0,1,4.911-1.378c3.48,0,5.493,1.607,5.493,5.069Zm-7.542-6.447h-1.678c.035-1.89.989-3.091,2.473-3.091s2.208,1.36,2.967,1.36c.565,0,.972-.442,1.025-1.148h1.678c-.035,1.819-.989,3.02-2.473,3.02s-2.208-1.342-2.968-1.342c-.565,0-.971.424-1.025,1.183Zm4.239,9.344v-1.166h-2.261c-1.554,0-2.031.565-2.031,1.342,0,.83.707,1.378,1.872,1.378a2.45,2.45,0,0,0,2.438-1.554Z" transform="translate(-454.571 -65.101)"/>
      <path id="Caminho_10481" data-name="Caminho 10481" d="M595.28,149.494c0-3.427,2.65-5.864,6.271-5.864s6.253,2.438,6.253,5.864-2.632,5.864-6.253,5.864S595.28,152.921,595.28,149.494Zm9.167,0a2.916,2.916,0,1,0-2.9,3.162A2.878,2.878,0,0,0,604.447,149.494Z" transform="translate(-448.884 -63.155)"/>
      <path id="Caminho_10482" data-name="Caminho 10482" d="M512.4,155.67h3.3v15.721h-3.3Z" transform="translate(-512.4 -53.928)"/>
      <path id="Caminho_10483" data-name="Caminho 10483" d="M515.78,156.977a1.882,1.882,0,0,1,2.049-1.837,1.854,1.854,0,0,1,2.049,1.784,2.058,2.058,0,0,1-4.1.071Zm.406,3.427h3.3V171.8h-3.3Z" transform="translate(-509.81 -54.334)"/>
      <path id="Caminho_10484" data-name="Caminho 10484" d="M527.558,170.054a4.656,4.656,0,0,1-2.685.724c-2.685,0-4.257-1.378-4.257-4.08v-4.681H518.85v-2.544h1.766V156.7h3.3v2.773h2.844v2.544h-2.844v4.646a1.327,1.327,0,0,0,1.413,1.5,2.122,2.122,0,0,0,1.325-.424l.883,2.332Z" transform="translate(-507.457 -53.138)"/>
      <path id="Caminho_10485" data-name="Caminho 10485" d="M536.093,164.813h-8.62a3.049,3.049,0,0,0,3.268,2.3,3.888,3.888,0,0,0,2.862-1.1l1.766,1.908a5.987,5.987,0,0,1-4.7,1.837c-3.939,0-6.5-2.473-6.5-5.864a5.815,5.815,0,0,1,6.076-5.864,5.585,5.585,0,0,1,5.935,5.917,7.754,7.754,0,0,1-.071.883Zm-8.673-1.925h5.617a2.839,2.839,0,0,0-5.6,0Z" transform="translate(-503.38 -52.119)"/>
      <path id="Caminho_10486" data-name="Caminho 10486" d="M539.275,158.02v3.056c-.282-.018-.495-.035-.742-.035-1.819,0-3.021.989-3.021,3.179v5.387h-3.3V158.214h3.162v1.5a4.623,4.623,0,0,1,3.921-1.678Z" transform="translate(-497.218 -52.127)"/>
      <path id="Caminho_10487" data-name="Caminho 10487" d="M547.7,163.082v6.5h-3.091v-1.413a3.741,3.741,0,0,1-3.48,1.59c-2.667,0-4.257-1.484-4.257-3.444s1.413-3.409,4.893-3.409h2.632c0-1.413-.848-2.243-2.632-2.243a5.53,5.53,0,0,0-3.285,1.06l-1.183-2.314a8.816,8.816,0,0,1,4.911-1.378c3.48,0,5.493,1.607,5.493,5.069Zm-3.3,2.9v-1.166h-2.261c-1.554,0-2.031.565-2.031,1.342,0,.83.707,1.378,1.872,1.378a2.449,2.449,0,0,0,2.438-1.554Z" transform="translate(-493.647 -52.119)"/>
      <path id="Caminho_10488" data-name="Caminho 10488" d="M544.7,155.67H548v15.721h-3.3Z" transform="translate(-487.647 -53.928)"/>
      <path id="Caminho_10489" data-name="Caminho 10489" d="M551.23,163.894c0-3.427,2.65-5.864,6.271-5.864s6.253,2.438,6.253,5.864-2.632,5.864-6.253,5.864S551.23,167.321,551.23,163.894Zm9.167,0a2.916,2.916,0,1,0-2.9,3.162A2.878,2.878,0,0,0,560.4,163.894Z" transform="translate(-482.642 -52.119)"/>
      <path id="Caminho_10490" data-name="Caminho 10490" d="M571.082,158.128v11.393h-3.144v-1.36a4.617,4.617,0,0,1-3.533,1.519c-2.861,0-4.875-1.607-4.875-5.122V158.11h3.3v5.953c0,1.908.848,2.755,2.314,2.755s2.632-.971,2.632-3.073V158.11h3.3Z" transform="translate(-476.282 -52.058)"/>
      <path id="Caminho_10491" data-name="Caminho 10491" d="M571.21,155.67h3.3v15.721h-3.3Z" transform="translate(-467.33 -53.928)"/>
      <path id="Caminho_10492" data-name="Caminho 10492" d="M574.34,165.78c0-3.427,2.65-5.864,6.271-5.864s6.253,2.438,6.253,5.864-2.632,5.864-6.253,5.864S574.34,169.206,574.34,165.78Zm9.167,0a2.916,2.916,0,1,0-2.9,3.162A2.878,2.878,0,0,0,583.507,165.78Zm-2.014-10.21h3.568l-3.833,3.056H578.65l2.861-3.056Z" transform="translate(-464.932 -54.004)"/>
      <path id="Caminho_10493" data-name="Caminho 10493" d="M594.812,158.2v9.485c0,4.239-2.3,6.182-6.394,6.182a9.412,9.412,0,0,1-5.6-1.572l1.307-2.367a6.846,6.846,0,0,0,4.027,1.289c2.332,0,3.356-1.06,3.356-3.109v-.495a4.685,4.685,0,0,1-3.6,1.413,5.514,5.514,0,1,1,0-11.022,4.567,4.567,0,0,1,3.762,1.625v-1.466h3.144Zm-3.268,5.334a3,3,0,1,0-2.985,2.791A2.763,2.763,0,0,0,591.544,163.539Z" transform="translate(-458.908 -52.134)"/>
      <path id="Caminho_10494" data-name="Caminho 10494" d="M590.85,156.977a1.882,1.882,0,0,1,2.049-1.837,1.854,1.854,0,0,1,2.049,1.784,2.058,2.058,0,0,1-4.1.071Zm.406,3.427h3.3V171.8h-3.3Z" transform="translate(-452.279 -54.334)"/>
      <path id="Caminho_10495" data-name="Caminho 10495" d="M594.21,163.894c0-3.427,2.65-5.864,6.359-5.864a5.259,5.259,0,0,1,5.1,2.9l-2.561,1.378a2.849,2.849,0,0,0-2.561-1.572,3.167,3.167,0,0,0,0,6.324,2.786,2.786,0,0,0,2.561-1.572l2.561,1.4a5.3,5.3,0,0,1-5.1,2.879c-3.709,0-6.359-2.438-6.359-5.864Z" transform="translate(-449.704 -52.119)"/>
      <path id="Caminho_10496" data-name="Caminho 10496" d="M612.188,163.082v6.5H609.1v-1.413a3.742,3.742,0,0,1-3.48,1.59c-2.667,0-4.257-1.484-4.257-3.444s1.413-3.409,4.893-3.409h2.632c0-1.413-.848-2.243-2.632-2.243a5.531,5.531,0,0,0-3.285,1.06l-1.183-2.314a8.815,8.815,0,0,1,4.911-1.378c3.48,0,5.493,1.607,5.493,5.069Zm-3.3,2.9v-1.166h-2.261c-1.554,0-2.031.565-2.031,1.342,0,.83.707,1.378,1.872,1.378a2.45,2.45,0,0,0,2.438-1.554Z" transform="translate(-444.225 -52.119)"/>
      <path id="Caminho_10497" data-name="Caminho 10497" d="M540.957,170.07v15.721H537.8v-1.307a4.4,4.4,0,0,1-3.55,1.484,5.867,5.867,0,0,1,0-11.729,4.372,4.372,0,0,1,3.409,1.378v-5.529h3.3Zm-3.232,10.015a2.924,2.924,0,1,0-2.9,3.162A2.887,2.887,0,0,0,537.725,180.085Z" transform="translate(-500.031 -42.892)"/>
      <path id="Caminho_10498" data-name="Caminho 10498" d="M547.708,177.489v6.5h-3.091v-1.413a3.741,3.741,0,0,1-3.48,1.59c-2.667,0-4.257-1.484-4.257-3.462s1.413-3.409,4.893-3.409H544.4c0-1.413-.848-2.243-2.632-2.243a5.53,5.53,0,0,0-3.285,1.06L537.3,173.8a8.815,8.815,0,0,1,4.911-1.378c3.48,0,5.493,1.607,5.493,5.069Zm-3.3,2.9V179.22h-2.261c-1.554,0-2.031.565-2.031,1.342,0,.83.707,1.378,1.872,1.378a2.45,2.45,0,0,0,2.438-1.554Z" transform="translate(-493.639 -41.091)"/>
      <path id="Caminho_10499" data-name="Caminho 10499" d="M559.758,177.464v6.518h-3.3v-6.023c0-1.837-.848-2.685-2.314-2.685-1.59,0-2.738.971-2.738,3.073v5.635h-3.3V172.589h3.162v1.342a4.985,4.985,0,0,1,3.762-1.5c2.685,0,4.716,1.572,4.716,5.034Z" transform="translate(-485.041 -41.084)"/>
      <path id="Caminho_10500" data-name="Caminho 10500" d="M555.99,178.294c0-3.427,2.65-5.864,6.271-5.864s6.253,2.438,6.253,5.864-2.632,5.864-6.253,5.864S555.99,181.721,555.99,178.294Zm9.167,0a2.916,2.916,0,1,0-2.9,3.162A2.878,2.878,0,0,0,565.157,178.294Z" transform="translate(-478.995 -41.084)"/>
      <path id="Caminho_10501" data-name="Caminho 10501" d="M571.4,172.42v3.056c-.282-.018-.495-.035-.742-.035-1.819,0-3.021.989-3.021,3.179v5.387h-3.3V172.614h3.162v1.5a4.623,4.623,0,0,1,3.921-1.678Z" transform="translate(-472.603 -41.091)"/>
      <path id="Caminho_10502" data-name="Caminho 10502" d="M588.7,177.472v6.518h-3.3v-6.023c0-1.837-.83-2.685-2.155-2.685-1.484,0-2.526.954-2.526,2.985v5.723h-3.3v-6.023c0-1.837-.777-2.685-2.155-2.685-1.466,0-2.508.954-2.508,2.985v5.723h-3.3V172.6h3.162V173.9a4.633,4.633,0,0,1,3.586-1.484,4.23,4.23,0,0,1,3.745,1.872,5.155,5.155,0,0,1,4.116-1.872c2.72,0,4.663,1.572,4.663,5.034Z" transform="translate(-468.679 -41.091)"/>
      <path id="Caminho_10503" data-name="Caminho 10503" d="M592.448,177.489v6.5h-3.091v-1.413a3.741,3.741,0,0,1-3.48,1.59c-2.667,0-4.257-1.484-4.257-3.462s1.413-3.409,4.893-3.409h2.632c0-1.413-.848-2.243-2.632-2.243a5.53,5.53,0,0,0-3.285,1.06l-1.183-2.314a8.816,8.816,0,0,1,4.911-1.378c3.48,0,5.493,1.607,5.493,5.069Zm-3.3,2.9V179.22h-2.261c-1.554,0-2.031.565-2.031,1.342,0,.83.707,1.378,1.872,1.378a2.449,2.449,0,0,0,2.438-1.554Z" transform="translate(-459.353 -41.091)"/>
      <path id="Caminho_10504" data-name="Caminho 10504" d="M588.99,178.771a2.049,2.049,0,0,1,4.1,0,2.049,2.049,0,1,1-4.1,0Z" transform="translate(-453.705 -37.781)"/>
    </g>
    <path id="Caminho_10505" data-name="Caminho 10505" d="M358.37,41.348c-8.92,0-16.18,7.012-16.18,15.65,0,5.6,2.279,8.938,3.939,11.375,1.042,1.519,1.625,2.42,1.625,3.321a6.722,6.722,0,0,0,3.02,5.37c.053,1.2.23,4.133.23,4.133.018.813.442,2.544,3.338,3.5A4.914,4.914,0,0,0,355.667,86a2.047,2.047,0,0,0,1.148.353h3.126A2.047,2.047,0,0,0,361.09,86a4.916,4.916,0,0,0,1.325-1.307c2.879-.954,3.321-2.667,3.356-3.5h0s.177-2.932.23-4.151a6.747,6.747,0,0,0,3.02-5.37c0-.9.583-1.8,1.607-3.3a18.626,18.626,0,0,0,3.939-11.393c0-8.637-7.26-15.65-16.18-15.65h0ZM349.52,66.077C348,63.851,346.288,61.325,346.288,57a12.1,12.1,0,0,1,24.181,0c0,4.328-1.713,6.836-3.215,9.061-1.219,1.766-2.332,3.427-2.332,5.635a3.065,3.065,0,0,1-1.537,2.208h-10a3.065,3.065,0,0,1-1.537-2.208c0-2.208-1.13-3.868-2.314-5.617h0Z" transform="translate(256.293 27.344)" fill="#fff"/>
    <path id="Caminho_10506" data-name="Caminho 10506" d="M566.87,41.348c-8.92,0-16.18,7.012-16.18,15.65,0,5.6,2.279,8.938,3.939,11.375,1.042,1.519,1.625,2.42,1.625,3.321a6.722,6.722,0,0,0,3.021,5.37c.053,1.2.23,4.133.23,4.133.018.813.442,2.544,3.339,3.5A4.915,4.915,0,0,0,564.167,86a2.048,2.048,0,0,0,1.148.353h3.126A2.047,2.047,0,0,0,569.59,86a4.914,4.914,0,0,0,1.325-1.307c2.879-.954,3.321-2.667,3.356-3.5h0s.177-2.932.23-4.151a6.747,6.747,0,0,0,3.021-5.37c0-.9.583-1.8,1.607-3.3a18.627,18.627,0,0,0,3.939-11.393c0-8.637-7.26-15.65-16.18-15.65h0ZM558.02,66.077c-1.519-2.226-3.232-4.751-3.232-9.079a12.1,12.1,0,0,1,24.181,0c0,4.328-1.713,6.836-3.215,9.061-1.219,1.766-2.332,3.427-2.332,5.635a3.065,3.065,0,0,1-1.537,2.208h-10a3.065,3.065,0,0,1-1.537-2.208c0-2.208-1.13-3.868-2.314-5.617h0Z" transform="translate(416.079 27.344)" fill="#fff"/>
  </g>
</svg>
