<?xml version="1.0" encoding="UTF-8"?>
<svg id="Layer_1" data-name="Layer 1" xmlns="http://www.w3.org/2000/svg" viewBox="0 0 1276.94 532.94">
  <defs>
    <style>
      .cls-1 {
        fill: #fff;
      }

      .cls-2 {
        fill: #a4c8cb;
      }

      .cls-3 {
        stroke: #c0ffe1;
      }

      .cls-3, .cls-4 {
        fill: none;
        stroke-miterlimit: 10;
      }

      .cls-5 {
        fill: #f4f9f9;
      }

      .cls-4 {
        stroke: #008082;
      }

      .cls-6 {
        fill: #008082;
      }
    </style>
  </defs>
  <rect class="cls-4" x="86.42" y="123.5" width="1161.11" height="383.18"/>
  <rect class="cls-5" x="46.84" y="72.03" width="1176.18" height="403.11"/>
  <g>
    <polygon class="cls-2" points="110.56 60.32 70.71 60.32 50.78 94.83 70.71 129.34 110.56 129.34 130.48 94.83 110.56 60.32"/>
    <polygon class="cls-2" points="125.52 33.27 85.67 33.27 65.75 67.78 85.67 102.29 125.52 102.29 145.44 67.78 125.52 33.27"/>
    <polygon class="cls-6" points="123.45 37.01 72.3 37.01 46.73 81.31 72.3 125.6 123.45 125.6 149.02 81.31 123.45 37.01"/>
    <line class="cls-3" x1="139.86" y1="81.59" x2="119.44" y2="46.22"/>
    <line class="cls-3" x1="58.18" y1="81.59" x2="78.6" y2="116.96"/>
    <polygon class="cls-6" points="107.6 26.26 105.22 26.26 104.49 27.52 67.34 27.52 48.8 59.64 47.09 59.64 45.9 61.7 47.09 63.77 49.48 63.77 50.67 61.7 49.8 60.2 68 28.67 104.22 28.67 105.22 30.39 107.6 30.39 108.8 28.33 107.6 26.26"/>
    <polygon class="cls-6" points="149.08 101.41 147.89 99.35 145.5 99.35 144.31 101.41 145.18 102.92 126.98 134.45 90.76 134.45 89.76 132.73 87.38 132.73 86.18 134.79 87.38 136.86 89.76 136.86 90.49 135.6 127.64 135.6 146.18 103.48 147.89 103.48 149.08 101.41"/>
    <path class="cls-1" d="m94.14,86.47c0,4.86-.01,9.54,0,14.22.01,3.22,1.85,5.14,4.85,5.13,3,0,4.8-1.93,4.82-5.17.02-4.18,0-8.37,0-12.55,0-.53,0-1.06,0-1.63,4.98,0,9.71.02,14.45,0,3-.02,4.88-1.89,4.9-4.78.02-2.96-1.87-4.86-4.94-4.88-4.23-.03-8.47,0-12.7,0-.53,0-1.07,0-1.71,0,0-4.87.01-9.55,0-14.23-.01-3.22-1.85-5.14-4.86-5.13-3,0-4.8,1.93-4.81,5.17-.01,4.18,0,8.37,0,12.55,0,.53,0,1.06,0,1.63-4.98,0-9.71-.02-14.45,0-3,.02-4.88,1.89-4.9,4.77-.02,2.96,1.87,4.87,4.94,4.89,4.73.03,9.46,0,14.41,0Z"/>
  </g>
  <g>
    <path d="m169.82,224.41h-10.14l-2.18,4.86h-2l8.32-18.2h1.9l8.32,18.2h-2.03l-2.18-4.86Zm-.7-1.56l-4.37-9.78-4.37,9.78h8.74Z"/>
    <path d="m182.25,220.17c0-5.33,4.06-9.26,9.54-9.26,2.65,0,5.04.88,6.66,2.65l-1.22,1.22c-1.48-1.51-3.3-2.16-5.38-2.16-4.39,0-7.7,3.22-7.7,7.54s3.3,7.54,7.7,7.54c2.08,0,3.9-.65,5.38-2.18l1.22,1.22c-1.61,1.77-4,2.68-6.68,2.68-5.46,0-9.52-3.93-9.52-9.26Z"/>
    <path d="m200.19,222.43c0-4.06,2.96-6.94,6.97-6.94s6.94,2.89,6.94,6.94-2.94,6.97-6.94,6.97-6.97-2.91-6.97-6.97Zm12.04,0c0-3.2-2.16-5.33-5.07-5.33s-5.1,2.13-5.1,5.33,2.18,5.33,5.1,5.33,5.07-2.13,5.07-5.33Z"/>
    <path d="m230.46,221.34v7.93h-1.85v-7.75c0-2.89-1.51-4.37-4.11-4.37-2.94,0-4.78,1.82-4.78,4.94v7.18h-1.85v-13.68h1.77v2.52c.99-1.66,2.83-2.63,5.2-2.63,3.33,0,5.62,1.92,5.62,5.85Z"/>
    <path d="m233.58,227.71l.83-1.46c1.09.86,2.94,1.53,4.86,1.53,2.6,0,3.67-.88,3.67-2.24,0-3.56-8.87-.75-8.87-6.16,0-2.24,1.92-3.9,5.41-3.9,1.77,0,3.69.49,4.84,1.27l-.81,1.48c-1.2-.83-2.63-1.17-4.03-1.17-2.47,0-3.56.96-3.56,2.26,0,3.69,8.87.91,8.87,6.16,0,2.37-2.08,3.9-5.64,3.9-2.26,0-4.45-.73-5.56-1.69Z"/>
    <path d="m255.39,228.44c-.73.65-1.82.96-2.89.96-2.57,0-4-1.46-4-3.98v-8.27h-2.44v-1.56h2.44v-2.99h1.85v2.99h4.16v1.56h-4.16v8.16c0,1.61.83,2.5,2.37,2.5.75,0,1.51-.23,2.03-.7l.65,1.33Z"/>
    <path d="m258.33,211.28c0-.7.6-1.3,1.35-1.3s1.35.57,1.35,1.27c0,.75-.57,1.35-1.35,1.35s-1.35-.6-1.35-1.33Zm.42,4.32h1.85v13.68h-1.85v-13.68Z"/>
    <path d="m272.94,228.44c-.73.65-1.82.96-2.89.96-2.57,0-4-1.46-4-3.98v-8.27h-2.44v-1.56h2.44v-2.99h1.85v2.99h4.16v1.56h-4.16v8.16c0,1.61.83,2.5,2.37,2.5.75,0,1.51-.23,2.03-.7l.65,1.33Z"/>
    <path d="m288.62,215.59v13.68h-1.77v-2.5c-.96,1.66-2.73,2.63-4.91,2.63-3.48,0-5.77-1.95-5.77-5.88v-7.93h1.85v7.75c0,2.91,1.51,4.39,4.11,4.39,2.86,0,4.65-1.85,4.65-4.97v-7.18h1.85Z"/>
    <path d="m293.37,211.28c0-.7.6-1.3,1.35-1.3s1.35.57,1.35,1.27c0,.75-.57,1.35-1.35,1.35s-1.35-.6-1.35-1.33Zm.42,4.32h1.85v13.68h-1.85v-13.68Z"/>
    <path d="m310.43,225.76l1.38.94c-1.09,1.77-3.04,2.7-5.36,2.7h-.05l-.31,1.22c1.43.13,2.21.96,2.21,2.11,0,1.4-1.2,2.26-2.94,2.26-.86,0-1.56-.18-2.18-.6l.44-.99c.52.34,1.09.49,1.72.49,1.04,0,1.61-.44,1.61-1.22,0-.7-.52-1.2-1.61-1.2h-.6l.57-2.16c-3.48-.49-5.9-3.2-5.9-6.89,0-4.08,2.96-6.94,7.05-6.94,2.31,0,4.26.91,5.36,2.7l-1.38.94c-.94-1.38-2.39-2.03-3.98-2.03-2.99,0-5.17,2.13-5.17,5.33s2.18,5.33,5.17,5.33c1.59,0,3.04-.62,3.98-2Z"/>
    <path d="m325.74,220.79v8.48h-1.77v-2.13c-.83,1.4-2.44,2.26-4.71,2.26-3.09,0-4.99-1.61-4.99-3.98,0-2.11,1.35-3.87,5.28-3.87h4.34v-.83c0-2.34-1.33-3.61-3.87-3.61-1.77,0-3.43.62-4.55,1.61l-.83-1.38c1.38-1.17,3.41-1.85,5.56-1.85,3.54,0,5.54,1.77,5.54,5.3Zm-1.85,4.37v-2.24h-4.29c-2.65,0-3.51,1.04-3.51,2.44,0,1.59,1.27,2.57,3.46,2.57s3.61-.99,4.34-2.78Zm-6.63-11.93h-1.12c.05-1.74.96-2.86,2.34-2.86,1.61,0,2.39,1.77,3.41,1.77.78,0,1.3-.62,1.35-1.61h1.12c-.05,1.69-.96,2.81-2.34,2.81-1.61,0-2.37-1.77-3.41-1.77-.78,0-1.3.62-1.35,1.66Z"/>
    <path d="m329.44,222.43c0-4.06,2.96-6.94,6.97-6.94s6.94,2.89,6.94,6.94-2.94,6.97-6.94,6.97-6.97-2.91-6.97-6.97Zm12.04,0c0-3.2-2.16-5.33-5.07-5.33s-5.1,2.13-5.1,5.33,2.18,5.33,5.1,5.33,5.07-2.13,5.07-5.33Z"/>
    <path d="m352.71,220.17c0-5.33,4.06-9.26,9.54-9.26,2.65,0,5.04.88,6.66,2.65l-1.22,1.22c-1.48-1.51-3.3-2.16-5.38-2.16-4.39,0-7.7,3.22-7.7,7.54s3.3,7.54,7.7,7.54c2.08,0,3.9-.65,5.38-2.18l1.22,1.22c-1.61,1.77-4,2.68-6.68,2.68-5.46,0-9.52-3.93-9.52-9.26Z"/>
    <path d="m372.21,211.28c0-.7.6-1.3,1.35-1.3s1.35.57,1.35,1.27c0,.75-.57,1.35-1.35,1.35s-1.35-.6-1.35-1.33Zm.42,4.32h1.85v13.68h-1.85v-13.68Z"/>
    <path d="m392.1,209.98v19.29h-1.77v-2.7c-1.12,1.85-3.02,2.83-5.28,2.83-3.9,0-6.81-2.83-6.81-6.97s2.91-6.94,6.81-6.94c2.18,0,4.06.94,5.2,2.7v-8.22h1.85Zm-1.82,12.45c0-3.2-2.18-5.33-5.07-5.33s-5.1,2.13-5.1,5.33,2.18,5.33,5.1,5.33,5.07-2.13,5.07-5.33Z"/>
    <path d="m407.57,220.79v8.48h-1.77v-2.13c-.83,1.4-2.44,2.26-4.71,2.26-3.09,0-4.99-1.61-4.99-3.98,0-2.11,1.35-3.87,5.28-3.87h4.34v-.83c0-2.34-1.33-3.61-3.87-3.61-1.77,0-3.43.62-4.55,1.61l-.83-1.38c1.38-1.17,3.41-1.85,5.56-1.85,3.54,0,5.54,1.77,5.54,5.3Zm-1.85,4.37v-2.24h-4.29c-2.65,0-3.51,1.04-3.51,2.44,0,1.59,1.27,2.57,3.46,2.57s3.61-.99,4.34-2.78Z"/>
    <path d="m425.12,209.98v19.29h-1.77v-2.7c-1.12,1.85-3.02,2.83-5.28,2.83-3.9,0-6.81-2.83-6.81-6.97s2.91-6.94,6.81-6.94c2.18,0,4.06.94,5.2,2.7v-8.22h1.85Zm-1.82,12.45c0-3.2-2.18-5.33-5.07-5.33s-5.1,2.13-5.1,5.33,2.18,5.33,5.1,5.33,5.07-2.13,5.07-5.33Z"/>
    <path d="m440.59,220.79v8.48h-1.77v-2.13c-.83,1.4-2.44,2.26-4.71,2.26-3.09,0-4.99-1.61-4.99-3.98,0-2.11,1.35-3.87,5.28-3.87h4.34v-.83c0-2.34-1.33-3.61-3.87-3.61-1.77,0-3.43.62-4.55,1.61l-.83-1.38c1.38-1.17,3.41-1.85,5.56-1.85,3.54,0,5.54,1.77,5.54,5.3Zm-1.85,4.37v-2.24h-4.29c-2.65,0-3.51,1.04-3.51,2.44,0,1.59,1.27,2.57,3.46,2.57s3.61-.99,4.34-2.78Zm-6.63-11.93h-1.12c.05-1.74.96-2.86,2.34-2.86,1.61,0,2.39,1.77,3.41,1.77.78,0,1.3-.62,1.35-1.61h1.12c-.05,1.69-.96,2.81-2.34,2.81-1.61,0-2.37-1.77-3.41-1.77-.78,0-1.3.62-1.35,1.66Z"/>
    <path d="m464.9,209.98v19.29h-1.77v-2.7c-1.12,1.85-3.02,2.83-5.28,2.83-3.9,0-6.81-2.83-6.81-6.97s2.91-6.94,6.81-6.94c2.18,0,4.06.94,5.2,2.7v-8.22h1.85Zm-1.82,12.45c0-3.2-2.18-5.33-5.07-5.33s-5.1,2.13-5.1,5.33,2.18,5.33,5.1,5.33,5.07-2.13,5.07-5.33Z"/>
    <path d="m481.95,223h-11.44c.21,2.86,2.39,4.76,5.38,4.76,1.66,0,3.15-.6,4.19-1.79l1.04,1.2c-1.22,1.46-3.12,2.24-5.28,2.24-4.26,0-7.18-2.91-7.18-6.97s2.83-6.94,6.68-6.94,6.63,2.83,6.63,6.94c0,.16-.03.36-.03.57Zm-11.44-1.38h9.7c-.23-2.68-2.18-4.55-4.86-4.55s-4.6,1.87-4.84,4.55Z"/>
    <path d="m496.38,211.07v18.2h-1.87v-16.54h-4.29v-1.66h6.16Z"/>
    <path d="m513.85,220.01c0,6.19-3.38,9.41-8.32,9.41-1.64,0-3.17-.29-4.32-.99l.75-1.51c.94.62,2.18.86,3.54.86,3.93,0,6.45-2.52,6.45-7.46,0-.42-.03-.94-.08-1.48-.91,2-3.04,3.12-5.56,3.12-3.61,0-6.14-2.13-6.14-5.46s2.68-5.59,6.21-5.59c4.84,0,7.46,3.35,7.46,9.1Zm-2.57-3.61c0-2-1.66-3.9-4.81-3.9-2.63,0-4.45,1.53-4.45,3.95s1.77,3.93,4.58,3.93,4.68-1.72,4.68-3.98Z"/>
    <path d="m530.55,224.2c0,3.22-2.73,5.23-7.07,5.23s-7.02-2-7.02-5.23c0-2.18,1.25-3.72,3.51-4.47-1.85-.73-2.86-2.11-2.86-4,0-2.96,2.52-4.81,6.37-4.81s6.42,1.85,6.42,4.81c0,1.9-1.04,3.28-2.91,4,2.29.75,3.56,2.31,3.56,4.47Zm-1.92-.03c0-2.24-1.92-3.64-5.15-3.64s-5.12,1.4-5.12,3.64,1.9,3.67,5.12,3.67,5.15-1.4,5.15-3.67Zm-5.15-5.12c2.83,0,4.52-1.27,4.52-3.25s-1.79-3.3-4.52-3.3-4.5,1.25-4.5,3.28,1.66,3.28,4.5,3.28Z"/>
    <path d="m547.13,224.2c0,3.22-2.73,5.23-7.07,5.23s-7.02-2-7.02-5.23c0-2.18,1.25-3.72,3.51-4.47-1.85-.73-2.86-2.11-2.86-4,0-2.96,2.52-4.81,6.37-4.81s6.42,1.85,6.42,4.81c0,1.9-1.04,3.28-2.91,4,2.29.75,3.56,2.31,3.56,4.47Zm-1.92-.03c0-2.24-1.92-3.64-5.15-3.64s-5.12,1.4-5.12,3.64,1.9,3.67,5.12,3.67,5.15-1.4,5.15-3.67Zm-5.15-5.12c2.83,0,4.52-1.27,4.52-3.25s-1.79-3.3-4.52-3.3-4.5,1.25-4.5,3.28,1.66,3.28,4.5,3.28Z"/>
    <path d="m564.97,228.44c-.73.65-1.82.96-2.89.96-2.57,0-4-1.46-4-3.98v-8.27h-2.44v-1.56h2.44v-2.99h1.85v2.99h4.16v1.56h-4.16v8.16c0,1.61.83,2.5,2.37,2.5.75,0,1.51-.23,2.03-.7l.65,1.33Z"/>
    <path d="m575.21,215.49v1.79c-.16,0-.31-.03-.44-.03-2.86,0-4.6,1.82-4.6,5.04v6.97h-1.85v-13.68h1.77v2.68c.86-1.82,2.6-2.78,5.12-2.78Z"/>
    <path d="m577.03,222.43c0-4.06,2.96-6.94,6.97-6.94s6.94,2.89,6.94,6.94-2.94,6.97-6.94,6.97-6.97-2.91-6.97-6.97Zm12.04,0c0-3.2-2.16-5.33-5.07-5.33s-5.1,2.13-5.1,5.33,2.18,5.33,5.1,5.33,5.07-2.13,5.07-5.33Z"/>
    <path d="m607.03,215.59v13.68h-1.77v-2.5c-.96,1.66-2.73,2.63-4.91,2.63-3.48,0-5.77-1.95-5.77-5.88v-7.93h1.85v7.75c0,2.91,1.51,4.39,4.11,4.39,2.86,0,4.65-1.85,4.65-4.97v-7.18h1.85Z"/>
    <path d="m620.92,229.27l-4.34-5.72-4.37,5.72h-2.08l5.41-7.02-5.15-6.66h2.08l4.11,5.36,4.11-5.36h2.03l-5.15,6.66,5.46,7.02h-2.11Z"/>
    <path d="m637.51,223h-11.44c.21,2.86,2.39,4.76,5.38,4.76,1.66,0,3.15-.6,4.19-1.79l1.04,1.2c-1.22,1.46-3.12,2.24-5.28,2.24-4.26,0-7.18-2.91-7.18-6.97s2.83-6.94,6.68-6.94,6.63,2.83,6.63,6.94c0,.16-.03.36-.03.57Zm-11.44-1.38h9.7c-.23-2.68-2.18-4.55-4.86-4.55s-4.6,1.87-4.84,4.55Z"/>
    <path d="m661.97,222.43c0,4.16-2.91,6.97-6.81,6.97-2.18,0-4.06-.94-5.2-2.7v7.62h-1.85v-18.72h1.77v2.7c1.12-1.82,3.02-2.81,5.28-2.81,3.9,0,6.81,2.81,6.81,6.94Zm-1.85,0c0-3.17-2.21-5.33-5.1-5.33s-5.1,2.16-5.1,5.33,2.18,5.33,5.1,5.33,5.1-2.13,5.1-5.33Z"/>
    <path d="m675.99,220.79v8.48h-1.77v-2.13c-.83,1.4-2.44,2.26-4.71,2.26-3.09,0-4.99-1.61-4.99-3.98,0-2.11,1.35-3.87,5.28-3.87h4.34v-.83c0-2.34-1.33-3.61-3.87-3.61-1.77,0-3.43.62-4.55,1.61l-.83-1.38c1.38-1.17,3.41-1.85,5.56-1.85,3.54,0,5.54,1.77,5.54,5.3Zm-1.85,4.37v-2.24h-4.29c-2.65,0-3.51,1.04-3.51,2.44,0,1.59,1.27,2.57,3.46,2.57s3.61-.99,4.34-2.78Z"/>
    <path d="m687.89,215.49v1.79c-.16,0-.31-.03-.44-.03-2.86,0-4.6,1.82-4.6,5.04v6.97h-1.85v-13.68h1.77v2.68c.86-1.82,2.6-2.78,5.12-2.78Z"/>
    <path d="m701.52,220.79v8.48h-1.77v-2.13c-.83,1.4-2.44,2.26-4.71,2.26-3.09,0-4.99-1.61-4.99-3.98,0-2.11,1.35-3.87,5.28-3.87h4.34v-.83c0-2.34-1.33-3.61-3.87-3.61-1.77,0-3.43.62-4.55,1.61l-.83-1.38c1.38-1.17,3.41-1.85,5.56-1.85,3.54,0,5.54,1.77,5.54,5.3Zm-1.85,4.37v-2.24h-4.29c-2.65,0-3.51,1.04-3.51,2.44,0,1.59,1.27,2.57,3.46,2.57s3.61-.99,4.34-2.78Z"/>
    <path d="m725.83,209.98v19.29h-1.77v-2.7c-1.12,1.85-3.02,2.83-5.28,2.83-3.9,0-6.81-2.83-6.81-6.97s2.91-6.94,6.81-6.94c2.18,0,4.06.94,5.2,2.7v-8.22h1.85Zm-1.82,12.45c0-3.2-2.18-5.33-5.07-5.33s-5.1,2.13-5.1,5.33,2.18,5.33,5.1,5.33,5.07-2.13,5.07-5.33Z"/>
    <path d="m742.88,223h-11.44c.21,2.86,2.39,4.76,5.38,4.76,1.66,0,3.15-.6,4.19-1.79l1.04,1.2c-1.22,1.46-3.12,2.24-5.28,2.24-4.26,0-7.18-2.91-7.18-6.97s2.83-6.94,6.68-6.94,6.63,2.83,6.63,6.94c0,.16-.03.36-.03.57Zm-11.44-1.38h9.7c-.23-2.68-2.18-4.55-4.86-4.55s-4.6,1.87-4.84,4.55Z"/>
    <path d="m759.26,221.34v7.93h-1.85v-7.75c0-2.89-1.51-4.37-4.11-4.37-2.94,0-4.78,1.82-4.78,4.94v7.18h-1.85v-13.68h1.77v2.52c.99-1.66,2.83-2.63,5.2-2.63,3.33,0,5.62,1.92,5.62,5.85Z"/>
    <path d="m771.48,228.44c-.73.65-1.82.96-2.89.96-2.57,0-4-1.46-4-3.98v-8.27h-2.44v-1.56h2.44v-2.99h1.85v2.99h4.16v1.56h-4.16v8.16c0,1.61.83,2.5,2.37,2.5.75,0,1.51-.23,2.03-.7l.65,1.33Z"/>
    <path d="m781.73,215.49v1.79c-.16,0-.31-.03-.44-.03-2.86,0-4.6,1.82-4.6,5.04v6.97h-1.85v-13.68h1.77v2.68c.86-1.82,2.6-2.78,5.12-2.78Z"/>
    <path d="m783.55,222.43c0-4.06,2.96-6.94,6.97-6.94s6.94,2.89,6.94,6.94-2.94,6.97-6.94,6.97-6.97-2.91-6.97-6.97Zm12.04,0c0-3.2-2.16-5.33-5.07-5.33s-5.1,2.13-5.1,5.33,2.18,5.33,5.1,5.33,5.07-2.13,5.07-5.33Z"/>
    <path d="m820.52,209.98v19.29h-1.77v-2.7c-1.12,1.85-3.02,2.83-5.28,2.83-3.9,0-6.81-2.83-6.81-6.97s2.91-6.94,6.81-6.94c2.18,0,4.06.94,5.2,2.7v-8.22h1.85Zm-1.82,12.45c0-3.2-2.18-5.33-5.07-5.33s-5.1,2.13-5.1,5.33,2.18,5.33,5.1,5.33,5.07-2.13,5.07-5.33Z"/>
    <path d="m837.57,223h-11.44c.21,2.86,2.39,4.76,5.38,4.76,1.66,0,3.15-.6,4.19-1.79l1.04,1.2c-1.22,1.46-3.12,2.24-5.28,2.24-4.26,0-7.18-2.91-7.18-6.97s2.83-6.94,6.68-6.94,6.63,2.83,6.63,6.94c0,.16-.03.36-.03.57Zm-11.44-1.38h9.7c-.23-2.68-2.18-4.55-4.86-4.55s-4.6,1.87-4.84,4.55Z"/>
    <path d="m846.28,227.71l.83-1.46c1.09.86,2.94,1.53,4.86,1.53,2.6,0,3.67-.88,3.67-2.24,0-3.56-8.87-.75-8.87-6.16,0-2.24,1.92-3.9,5.41-3.9,1.77,0,3.69.49,4.84,1.27l-.81,1.48c-1.2-.83-2.63-1.17-4.03-1.17-2.47,0-3.56.96-3.56,2.26,0,3.69,8.87.91,8.87,6.16,0,2.37-2.08,3.9-5.64,3.9-2.26,0-4.45-.73-5.56-1.69Z"/>
    <path d="m872.8,223h-11.44c.21,2.86,2.39,4.76,5.38,4.76,1.66,0,3.15-.6,4.19-1.79l1.04,1.2c-1.22,1.46-3.12,2.24-5.28,2.24-4.26,0-7.18-2.91-7.18-6.97s2.83-6.94,6.68-6.94,6.63,2.83,6.63,6.94c0,.16-.03.36-.03.57Zm-11.44-1.38h9.7c-.23-2.68-2.18-4.55-4.86-4.55s-4.6,1.87-4.84,4.55Z"/>
    <path d="m888.92,215.59v13.68h-1.77v-2.5c-.96,1.66-2.73,2.63-4.92,2.63-3.48,0-5.77-1.95-5.77-5.88v-7.93h1.85v7.75c0,2.91,1.51,4.39,4.11,4.39,2.86,0,4.65-1.85,4.65-4.97v-7.18h1.85Z"/>
    <path d="m899.53,222.43c0-4.08,2.96-6.94,7.05-6.94,2.31,0,4.26.91,5.36,2.7l-1.38.94c-.94-1.38-2.39-2.03-3.98-2.03-2.99,0-5.17,2.13-5.17,5.33s2.18,5.33,5.17,5.33c1.59,0,3.04-.62,3.98-2l1.38.94c-1.09,1.77-3.04,2.7-5.36,2.7-4.08,0-7.05-2.89-7.05-6.97Z"/>
    <path d="m913.94,222.43c0-4.06,2.96-6.94,6.97-6.94s6.94,2.89,6.94,6.94-2.94,6.97-6.94,6.97-6.97-2.91-6.97-6.97Zm12.04,0c0-3.2-2.16-5.33-5.07-5.33s-5.1,2.13-5.1,5.33,2.18,5.33,5.1,5.33,5.07-2.13,5.07-5.33Z"/>
    <path d="m938.5,215.49v1.79c-.16,0-.31-.03-.44-.03-2.86,0-4.6,1.82-4.6,5.04v6.97h-1.85v-13.68h1.77v2.68c.86-1.82,2.6-2.78,5.12-2.78Z"/>
    <path d="m955.69,222.43c0,4.16-2.91,6.97-6.81,6.97-2.18,0-4.06-.94-5.2-2.7v7.62h-1.85v-18.72h1.77v2.7c1.12-1.82,3.02-2.81,5.28-2.81,3.9,0,6.81,2.81,6.81,6.94Zm-1.85,0c0-3.17-2.21-5.33-5.1-5.33s-5.1,2.16-5.1,5.33,2.18,5.33,5.1,5.33,5.1-2.13,5.1-5.33Z"/>
    <path d="m958.08,222.43c0-4.06,2.96-6.94,6.97-6.94s6.94,2.89,6.94,6.94-2.94,6.97-6.94,6.97-6.97-2.91-6.97-6.97Zm12.04,0c0-3.2-2.16-5.33-5.07-5.33s-5.1,2.13-5.1,5.33,2.18,5.33,5.1,5.33,5.07-2.13,5.07-5.33Z"/>
    <path d="m995.16,221.34v7.93h-1.85v-7.75c0-2.89-1.51-4.37-4.11-4.37-2.94,0-4.78,1.82-4.78,4.94v7.18h-1.85v-13.68h1.77v2.52c.99-1.66,2.83-2.63,5.2-2.63,3.33,0,5.62,1.92,5.62,5.85Z"/>
    <path d="m998.85,222.43c0-4.06,2.96-6.94,6.97-6.94s6.94,2.89,6.94,6.94-2.94,6.97-6.94,6.97-6.97-2.91-6.97-6.97Zm12.04,0c0-3.2-2.16-5.33-5.07-5.33s-5.1,2.13-5.1,5.33,2.18,5.33,5.1,5.33,5.07-2.13,5.07-5.33Z"/>
    <path d="m1023.42,215.49v1.79c-.16,0-.31-.03-.44-.03-2.86,0-4.6,1.82-4.6,5.04v6.97h-1.85v-13.68h1.77v2.68c.86-1.82,2.6-2.78,5.12-2.78Z"/>
    <path d="m1049.32,221.34v7.93h-1.85v-7.75c0-2.89-1.46-4.37-3.93-4.37-2.81,0-4.58,1.82-4.58,4.94v7.18h-1.85v-7.75c0-2.89-1.46-4.37-3.95-4.37-2.78,0-4.58,1.82-4.58,4.94v7.18h-1.85v-13.68h1.77v2.5c.96-1.64,2.73-2.6,5.02-2.6s4.03.96,4.86,2.89c.99-1.77,2.94-2.89,5.41-2.89,3.33,0,5.51,1.92,5.51,5.85Z"/>
    <path d="m1064.65,220.79v8.48h-1.77v-2.13c-.83,1.4-2.44,2.26-4.71,2.26-3.09,0-4.99-1.61-4.99-3.98,0-2.11,1.35-3.87,5.28-3.87h4.34v-.83c0-2.34-1.33-3.61-3.88-3.61-1.77,0-3.43.62-4.55,1.61l-.83-1.38c1.38-1.17,3.41-1.85,5.56-1.85,3.54,0,5.54,1.77,5.54,5.3Zm-1.85,4.37v-2.24h-4.29c-2.65,0-3.51,1.04-3.51,2.44,0,1.59,1.27,2.57,3.46,2.57s3.61-.99,4.34-2.78Z"/>
    <path d="m1076.87,228.44c-.73.65-1.82.96-2.89.96-2.57,0-4-1.46-4-3.98v-8.27h-2.44v-1.56h2.44v-2.99h1.85v2.99h4.16v1.56h-4.16v8.16c0,1.61.83,2.5,2.37,2.5.75,0,1.51-.23,2.03-.7l.65,1.33Z"/>
    <path d="m1079.81,211.28c0-.7.6-1.3,1.35-1.3s1.35.57,1.35,1.27c0,.75-.57,1.35-1.35,1.35s-1.35-.6-1.35-1.33Zm.42,4.32h1.85v13.68h-1.85v-13.68Z"/>
    <path d="m1098.71,215.59l-6.08,13.68h-1.9l-6.06-13.68h1.92l5.12,11.65,5.17-11.65h1.82Z"/>
    <path d="m1099.55,222.43c0-4.06,2.96-6.94,6.97-6.94s6.94,2.89,6.94,6.94-2.94,6.97-6.94,6.97-6.97-2.91-6.97-6.97Zm12.04,0c0-3.2-2.16-5.33-5.07-5.33s-5.1,2.13-5.1,5.33,2.18,5.33,5.1,5.33,5.07-2.13,5.07-5.33Z"/>
    <path d="m170.34,255.59v13.68h-1.77v-2.5c-.96,1.66-2.73,2.63-4.91,2.63-3.48,0-5.77-1.95-5.77-5.88v-7.93h1.85v7.75c0,2.91,1.51,4.39,4.11,4.39,2.86,0,4.65-1.85,4.65-4.97v-7.18h1.85Z"/>
    <path d="m198.09,261.34v7.93h-1.85v-7.75c0-2.89-1.46-4.37-3.93-4.37-2.81,0-4.58,1.82-4.58,4.94v7.18h-1.85v-7.75c0-2.89-1.46-4.37-3.95-4.37-2.78,0-4.58,1.82-4.58,4.94v7.18h-1.85v-13.68h1.77v2.5c.96-1.64,2.73-2.6,5.02-2.6s4.03.96,4.86,2.89c.99-1.77,2.94-2.89,5.41-2.89,3.33,0,5.51,1.92,5.51,5.85Z"/>
    <path d="m208.54,262.43c0-4.08,2.96-6.94,7.05-6.94,2.31,0,4.26.91,5.36,2.7l-1.38.94c-.94-1.38-2.39-2.03-3.98-2.03-2.99,0-5.17,2.13-5.17,5.33s2.18,5.33,5.17,5.33c1.59,0,3.04-.62,3.98-2l1.38.94c-1.09,1.77-3.04,2.7-5.36,2.7-4.08,0-7.05-2.89-7.05-6.97Z"/>
    <path d="m222.94,262.43c0-4.06,2.96-6.94,6.97-6.94s6.94,2.89,6.94,6.94-2.94,6.97-6.94,6.97-6.97-2.91-6.97-6.97Zm12.04,0c0-3.2-2.16-5.33-5.07-5.33s-5.1,2.13-5.1,5.33,2.18,5.33,5.1,5.33,5.07-2.13,5.07-5.33Z"/>
    <path d="m253.21,261.34v7.93h-1.85v-7.75c0-2.89-1.51-4.37-4.11-4.37-2.94,0-4.78,1.82-4.78,4.94v7.18h-1.85v-13.68h1.77v2.52c.99-1.66,2.83-2.63,5.2-2.63,3.33,0,5.62,1.92,5.62,5.85Z"/>
    <path d="m253.31,273.56l.65-1.4c.55.47,1.27.7,2.13.7,1.46,0,2.26-.88,2.26-2.57v-14.69h1.85v14.69c0,2.52-1.4,4.16-4,4.16-1.09,0-2.21-.29-2.89-.88Zm4.63-22.28c0-.7.6-1.3,1.35-1.3s1.35.57,1.35,1.27c0,.75-.57,1.35-1.35,1.35s-1.35-.6-1.35-1.33Z"/>
    <path d="m277.67,255.59v13.68h-1.77v-2.5c-.96,1.66-2.73,2.63-4.91,2.63-3.48,0-5.77-1.95-5.77-5.88v-7.93h1.85v7.75c0,2.91,1.51,4.39,4.11,4.39,2.86,0,4.65-1.85,4.65-4.97v-7.18h1.85Z"/>
    <path d="m295.43,261.34v7.93h-1.85v-7.75c0-2.89-1.51-4.37-4.11-4.37-2.94,0-4.78,1.82-4.78,4.94v7.18h-1.85v-13.68h1.77v2.52c.99-1.66,2.83-2.63,5.2-2.63,3.33,0,5.62,1.92,5.62,5.85Z"/>
    <path d="m307.65,268.44c-.73.65-1.82.96-2.89.96-2.57,0-4-1.46-4-3.98v-8.27h-2.44v-1.56h2.44v-2.99h1.85v2.99h4.16v1.56h-4.16v8.16c0,1.61.83,2.5,2.37,2.5.75,0,1.51-.23,2.03-.7l.65,1.33Z"/>
    <path d="m309.13,262.43c0-4.06,2.96-6.94,6.97-6.94s6.94,2.89,6.94,6.94-2.94,6.97-6.94,6.97-6.97-2.91-6.97-6.97Zm12.04,0c0-3.2-2.16-5.33-5.07-5.33s-5.1,2.13-5.1,5.33,2.18,5.33,5.1,5.33,5.07-2.13,5.07-5.33Z"/>
    <path d="m346.1,249.98v19.29h-1.77v-2.7c-1.12,1.85-3.02,2.83-5.28,2.83-3.9,0-6.81-2.83-6.81-6.97s2.91-6.94,6.81-6.94c2.18,0,4.06.94,5.2,2.7v-8.22h1.85Zm-1.82,12.45c0-3.2-2.18-5.33-5.07-5.33s-5.1,2.13-5.1,5.33,2.18,5.33,5.1,5.33,5.07-2.13,5.07-5.33Z"/>
    <path d="m363.16,263h-11.44c.21,2.86,2.39,4.76,5.38,4.76,1.66,0,3.15-.6,4.19-1.79l1.04,1.2c-1.22,1.46-3.12,2.24-5.28,2.24-4.26,0-7.18-2.91-7.18-6.97s2.83-6.94,6.68-6.94,6.63,2.83,6.63,6.94c0,.16-.03.36-.03.57Zm-11.44-1.38h9.7c-.23-2.68-2.18-4.55-4.86-4.55s-4.6,1.87-4.84,4.55Z"/>
    <path d="m387.62,262.43c0,4.16-2.91,6.97-6.81,6.97-2.18,0-4.06-.94-5.2-2.7v7.62h-1.85v-18.72h1.77v2.7c1.12-1.82,3.02-2.81,5.28-2.81,3.9,0,6.81,2.81,6.81,6.94Zm-1.85,0c0-3.17-2.21-5.33-5.1-5.33s-5.1,2.16-5.1,5.33,2.18,5.33,5.1,5.33,5.1-2.13,5.1-5.33Z"/>
    <path d="m390.01,262.43c0-4.06,2.96-6.94,6.97-6.94s6.94,2.89,6.94,6.94-2.94,6.97-6.94,6.97-6.97-2.91-6.97-6.97Zm12.04,0c0-3.2-2.16-5.33-5.07-5.33s-5.1,2.13-5.1,5.33,2.18,5.33,5.1,5.33,5.07-2.13,5.07-5.33Z"/>
    <path d="m407.69,249.98h1.85v19.29h-1.85v-19.29Z"/>
    <path d="m417.5,250.26h2.47l-4.21,3.22h-1.82l3.56-3.22Zm-2.81,5.33h1.85v13.68h-1.85v-13.68Z"/>
    <path d="m428.88,268.44c-.73.65-1.82.96-2.89.96-2.57,0-4-1.46-4-3.98v-8.27h-2.44v-1.56h2.44v-2.99h1.85v2.99h4.16v1.56h-4.16v8.16c0,1.61.83,2.5,2.37,2.5.75,0,1.51-.23,2.03-.7l.65,1.33Z"/>
    <path d="m431.82,251.28c0-.7.6-1.3,1.35-1.3s1.35.57,1.35,1.27c0,.75-.57,1.35-1.35,1.35s-1.35-.6-1.35-1.33Zm.42,4.32h1.85v13.68h-1.85v-13.68Z"/>
    <path d="m437.85,262.43c0-4.08,2.96-6.94,7.05-6.94,2.31,0,4.26.91,5.36,2.7l-1.38.94c-.94-1.38-2.39-2.03-3.98-2.03-2.99,0-5.17,2.13-5.17,5.33s2.18,5.33,5.17,5.33c1.59,0,3.04-.62,3.98-2l1.38.94c-1.09,1.77-3.04,2.7-5.36,2.7-4.08,0-7.05-2.89-7.05-6.97Z"/>
    <path d="m464.19,260.79v8.48h-1.77v-2.13c-.83,1.4-2.44,2.26-4.71,2.26-3.09,0-4.99-1.61-4.99-3.98,0-2.11,1.35-3.87,5.28-3.87h4.34v-.83c0-2.34-1.33-3.61-3.87-3.61-1.77,0-3.43.62-4.55,1.61l-.83-1.38c1.38-1.17,3.41-1.85,5.56-1.85,3.54,0,5.54,1.77,5.54,5.3Zm-1.85,4.37v-2.24h-4.29c-2.65,0-3.51,1.04-3.51,2.44,0,1.59,1.27,2.57,3.46,2.57s3.61-.99,4.34-2.78Z"/>
    <path d="m467.31,267.71l.83-1.46c1.09.86,2.94,1.53,4.86,1.53,2.6,0,3.67-.88,3.67-2.24,0-3.56-8.87-.75-8.87-6.16,0-2.24,1.92-3.9,5.41-3.9,1.77,0,3.69.49,4.84,1.27l-.81,1.48c-1.2-.83-2.63-1.17-4.03-1.17-2.47,0-3.56.96-3.56,2.26,0,3.69,8.87.91,8.87,6.16,0,2.37-2.08,3.9-5.64,3.9-2.26,0-4.45-.73-5.56-1.69Z"/>
    <path d="m486.84,267.71l.83-1.46c1.09.86,2.94,1.53,4.86,1.53,2.6,0,3.67-.88,3.67-2.24,0-3.56-8.87-.75-8.87-6.16,0-2.24,1.92-3.9,5.41-3.9,1.77,0,3.69.49,4.84,1.27l-.81,1.48c-1.2-.83-2.63-1.17-4.03-1.17-2.47,0-3.56.96-3.56,2.26,0,3.69,8.87.91,8.87,6.16,0,2.37-2.08,3.9-5.64,3.9-2.26,0-4.45-.73-5.56-1.69Z"/>
    <path d="m500.07,262.43c0-4.06,2.96-6.94,6.97-6.94s6.94,2.89,6.94,6.94-2.94,6.97-6.94,6.97-6.97-2.91-6.97-6.97Zm12.04,0c0-3.2-2.16-5.33-5.07-5.33s-5.1,2.13-5.1,5.33,2.18,5.33,5.1,5.33,5.07-2.13,5.07-5.33Z"/>
    <path d="m516.37,262.43c0-4.08,2.96-6.94,7.05-6.94,2.31,0,4.26.91,5.36,2.7l-1.38.94c-.94-1.38-2.39-2.03-3.98-2.03-2.99,0-5.17,2.13-5.17,5.33s2.18,5.33,5.17,5.33c1.59,0,3.04-.62,3.98-2l1.38.94c-1.09,1.77-3.04,2.7-5.36,2.7-4.08,0-7.05-2.89-7.05-6.97Z"/>
    <path d="m531.97,251.28c0-.7.6-1.3,1.35-1.3s1.35.57,1.35,1.27c0,.75-.57,1.35-1.35,1.35s-1.35-.6-1.35-1.33Zm.42,4.32h1.85v13.68h-1.85v-13.68Z"/>
    <path d="m549.71,260.79v8.48h-1.77v-2.13c-.83,1.4-2.44,2.26-4.71,2.26-3.09,0-4.99-1.61-4.99-3.98,0-2.11,1.35-3.87,5.28-3.87h4.34v-.83c0-2.34-1.33-3.61-3.87-3.61-1.77,0-3.43.62-4.55,1.61l-.83-1.38c1.38-1.17,3.41-1.85,5.56-1.85,3.54,0,5.54,1.77,5.54,5.3Zm-1.85,4.37v-2.24h-4.29c-2.65,0-3.51,1.04-3.51,2.44,0,1.59,1.27,2.57,3.46,2.57s3.61-.99,4.34-2.78Z"/>
    <path d="m554.31,251.28c0-.7.6-1.3,1.35-1.3s1.35.57,1.35,1.27c0,.75-.57,1.35-1.35,1.35s-1.35-.6-1.35-1.33Zm.42,4.32h1.85v13.68h-1.85v-13.68Z"/>
    <path d="m559.82,267.71l.83-1.46c1.09.86,2.94,1.53,4.86,1.53,2.6,0,3.67-.88,3.67-2.24,0-3.56-8.87-.75-8.87-6.16,0-2.24,1.92-3.9,5.41-3.9,1.77,0,3.69.49,4.84,1.27l-.81,1.48c-1.2-.83-2.63-1.17-4.03-1.17-2.47,0-3.56.96-3.56,2.26,0,3.69,8.87.91,8.87,6.16,0,2.37-2.08,3.9-5.64,3.9-2.26,0-4.45-.73-5.56-1.69Z"/>
    <path d="m576.02,267.97c0,.44-.1.78-.36,1.51l-1.09,3.59h-1.25l.88-3.77c-.55-.16-.94-.65-.94-1.33,0-.81.6-1.4,1.38-1.4s1.38.62,1.38,1.4Z"/>
    <path d="m597.08,260.79v8.48h-1.77v-2.13c-.83,1.4-2.44,2.26-4.71,2.26-3.09,0-4.99-1.61-4.99-3.98,0-2.11,1.35-3.87,5.28-3.87h4.34v-.83c0-2.34-1.33-3.61-3.87-3.61-1.77,0-3.43.62-4.55,1.61l-.83-1.38c1.38-1.17,3.41-1.85,5.56-1.85,3.54,0,5.54,1.77,5.54,5.3Zm-1.85,4.37v-2.24h-4.29c-2.65,0-3.51,1.04-3.51,2.44,0,1.59,1.27,2.57,3.46,2.57s3.61-.99,4.34-2.78Z"/>
    <path d="m600.2,267.71l.83-1.46c1.09.86,2.94,1.53,4.86,1.53,2.6,0,3.67-.88,3.67-2.24,0-3.56-8.87-.75-8.87-6.16,0-2.24,1.92-3.9,5.41-3.9,1.77,0,3.69.49,4.84,1.27l-.81,1.48c-1.2-.83-2.63-1.17-4.03-1.17-2.47,0-3.56.96-3.56,2.26,0,3.69,8.87.91,8.87,6.16,0,2.37-2.08,3.9-5.64,3.9-2.26,0-4.45-.73-5.56-1.69Z"/>
    <path d="m620.24,262.43c0-4.08,2.96-6.94,7.05-6.94,2.31,0,4.26.91,5.36,2.7l-1.38.94c-.94-1.38-2.39-2.03-3.98-2.03-2.99,0-5.17,2.13-5.17,5.33s2.18,5.33,5.17,5.33c1.59,0,3.04-.62,3.98-2l1.38.94c-1.09,1.77-3.04,2.7-5.36,2.7-4.08,0-7.05-2.89-7.05-6.97Z"/>
    <path d="m648.63,261.34v7.93h-1.85v-7.75c0-2.89-1.51-4.37-4.11-4.37-2.94,0-4.78,1.82-4.78,4.94v7.18h-1.85v-19.29h1.85v8.01c1.01-1.59,2.81-2.5,5.12-2.5,3.33,0,5.62,1.92,5.62,5.85Z"/>
    <path d="m663.97,260.79v8.48h-1.77v-2.13c-.83,1.4-2.44,2.26-4.71,2.26-3.09,0-4.99-1.61-4.99-3.98,0-2.11,1.35-3.87,5.28-3.87h4.34v-.83c0-2.34-1.33-3.61-3.87-3.61-1.77,0-3.43.62-4.55,1.61l-.83-1.38c1.38-1.17,3.41-1.85,5.56-1.85,3.54,0,5.54,1.77,5.54,5.3Zm-1.85,4.37v-2.24h-4.29c-2.65,0-3.51,1.04-3.51,2.44,0,1.59,1.27,2.57,3.46,2.57s3.61-.99,4.34-2.78Z"/>
    <path d="m691.56,261.34v7.93h-1.85v-7.75c0-2.89-1.46-4.37-3.93-4.37-2.81,0-4.58,1.82-4.58,4.94v7.18h-1.85v-7.75c0-2.89-1.46-4.37-3.95-4.37-2.78,0-4.58,1.82-4.58,4.94v7.18h-1.85v-13.68h1.77v2.5c.96-1.64,2.73-2.6,5.02-2.6s4.03.96,4.86,2.89c.99-1.77,2.94-2.89,5.41-2.89,3.33,0,5.51,1.92,5.51,5.85Z"/>
    <path d="m706.9,260.79v8.48h-1.77v-2.13c-.83,1.4-2.44,2.26-4.71,2.26-3.09,0-4.99-1.61-4.99-3.98,0-2.11,1.35-3.87,5.28-3.87h4.34v-.83c0-2.34-1.33-3.61-3.87-3.61-1.77,0-3.43.62-4.55,1.61l-.83-1.38c1.38-1.17,3.41-1.85,5.56-1.85,3.54,0,5.54,1.77,5.54,5.3Zm-1.85,4.37v-2.24h-4.29c-2.65,0-3.51,1.04-3.51,2.44,0,1.59,1.27,2.57,3.46,2.57s3.61-.99,4.34-2.78Z"/>
    <path d="m724.45,249.98v19.29h-1.77v-2.7c-1.12,1.85-3.02,2.83-5.28,2.83-3.9,0-6.81-2.83-6.81-6.97s2.91-6.94,6.81-6.94c2.18,0,4.06.94,5.2,2.7v-8.22h1.85Zm-1.82,12.45c0-3.2-2.18-5.33-5.07-5.33s-5.1,2.13-5.1,5.33,2.18,5.33,5.1,5.33,5.07-2.13,5.07-5.33Z"/>
    <path d="m739.92,260.79v8.48h-1.77v-2.13c-.83,1.4-2.44,2.26-4.71,2.26-3.09,0-4.99-1.61-4.99-3.98,0-2.11,1.35-3.87,5.28-3.87h4.34v-.83c0-2.34-1.33-3.61-3.88-3.61-1.77,0-3.43.62-4.55,1.61l-.83-1.38c1.38-1.17,3.41-1.85,5.56-1.85,3.54,0,5.54,1.77,5.54,5.3Zm-1.85,4.37v-2.24h-4.29c-2.65,0-3.51,1.04-3.51,2.44,0,1.59,1.27,2.57,3.46,2.57s3.61-.99,4.34-2.78Z"/>
    <path d="m743.04,267.71l.83-1.46c1.09.86,2.94,1.53,4.86,1.53,2.6,0,3.67-.88,3.67-2.24,0-3.56-8.87-.75-8.87-6.16,0-2.24,1.92-3.9,5.41-3.9,1.77,0,3.69.49,4.84,1.27l-.81,1.48c-1.2-.83-2.63-1.17-4.03-1.17-2.47,0-3.56.96-3.56,2.26,0,3.69,8.87.91,8.87,6.16,0,2.37-2.08,3.9-5.64,3.9-2.26,0-4.45-.73-5.56-1.69Z"/>
    <path d="m779.54,262.28c0,4.39-3.04,7.2-6.97,7.2-1.74,0-3.17-.55-4.21-1.69v6.53h-4.06v-19.03h3.87v1.61c1.01-1.22,2.52-1.82,4.39-1.82,3.93,0,6.97,2.81,6.97,7.2Zm-4.11,0c0-2.42-1.53-3.87-3.56-3.87s-3.56,1.46-3.56,3.87,1.53,3.87,3.56,3.87,3.56-1.46,3.56-3.87Z"/>
    <path d="m781.2,262.28c0-4.21,3.25-7.2,7.7-7.2s7.67,2.99,7.67,7.2-3.22,7.2-7.67,7.2-7.7-2.99-7.7-7.2Zm11.26,0c0-2.42-1.53-3.87-3.56-3.87s-3.59,1.46-3.59,3.87,1.56,3.87,3.59,3.87,3.56-1.46,3.56-3.87Z"/>
    <path d="m799.27,249.98h4.06v19.29h-4.06v-19.29Z"/>
    <path d="m810.27,249.74h4.37l-4.71,3.74h-3.17l3.51-3.74Zm-3.17,5.54h4.06v13.99h-4.06v-13.99Z"/>
    <path d="m823.95,268.6c-.83.6-2.05.88-3.3.88-3.3,0-5.23-1.69-5.23-5.02v-5.75h-2.16v-3.12h2.16v-3.41h4.06v3.41h3.48v3.12h-3.48v5.69c0,1.2.65,1.85,1.74,1.85.6,0,1.2-.18,1.64-.52l1.09,2.86Z"/>
    <path d="m825.74,251.07c0-1.27,1.01-2.26,2.52-2.26s2.52.94,2.52,2.18c0,1.35-1.01,2.34-2.52,2.34s-2.52-.99-2.52-2.26Zm.49,4.21h4.06v13.99h-4.06v-13.99Z"/>
    <path d="m833.02,262.28c0-4.21,3.25-7.2,7.8-7.2,2.94,0,5.25,1.27,6.27,3.56l-3.15,1.69c-.75-1.33-1.87-1.92-3.15-1.92-2.05,0-3.67,1.43-3.67,3.87s1.61,3.87,3.67,3.87c1.27,0,2.39-.57,3.15-1.92l3.15,1.72c-1.01,2.24-3.33,3.54-6.27,3.54-4.55,0-7.8-2.99-7.8-7.2Z"/>
    <path d="m861.81,261.29v7.98h-3.8v-1.74c-.75,1.27-2.21,1.95-4.26,1.95-3.28,0-5.23-1.82-5.23-4.24s1.74-4.19,6.01-4.19h3.22c0-1.74-1.04-2.76-3.22-2.76-1.48,0-3.02.49-4.03,1.3l-1.46-2.83c1.53-1.09,3.8-1.69,6.03-1.69,4.26,0,6.73,1.98,6.73,6.21Zm-4.06,3.56v-1.43h-2.78c-1.9,0-2.5.7-2.5,1.64,0,1.01.86,1.69,2.29,1.69,1.35,0,2.52-.62,2.99-1.9Z"/>
    <path d="m864.12,267.97l1.35-2.91c1.25.81,3.15,1.35,4.86,1.35,1.87,0,2.57-.49,2.57-1.27,0-2.29-8.45.05-8.45-5.54,0-2.65,2.39-4.52,6.47-4.52,1.92,0,4.06.44,5.38,1.22l-1.35,2.89c-1.38-.78-2.76-1.04-4.03-1.04-1.82,0-2.6.57-2.6,1.3,0,2.39,8.45.08,8.45,5.59,0,2.6-2.42,4.45-6.6,4.45-2.37,0-4.76-.65-6.06-1.51Z"/>
    <path d="m900.88,249.98v19.29h-3.87v-1.61c-1.01,1.22-2.5,1.82-4.37,1.82-3.95,0-6.99-2.81-6.99-7.2s3.04-7.2,6.99-7.2c1.72,0,3.17.55,4.19,1.69v-6.79h4.06Zm-3.98,12.3c0-2.42-1.56-3.87-3.56-3.87s-3.59,1.46-3.59,3.87,1.56,3.87,3.59,3.87,3.56-1.46,3.56-3.87Z"/>
    <path d="m918.25,263.42h-10.58c.39,1.74,1.87,2.81,4,2.81,1.48,0,2.55-.44,3.51-1.35l2.16,2.34c-1.3,1.48-3.25,2.26-5.77,2.26-4.84,0-7.98-3.04-7.98-7.2s3.2-7.2,7.46-7.2,7.28,2.76,7.28,7.25c0,.31-.05.75-.08,1.09Zm-10.63-2.37h6.89c-.29-1.77-1.61-2.91-3.43-2.91s-3.17,1.12-3.46,2.91Z"/>
    <path d="m942.77,265.89v3.38h-14.09v-18.2h13.75v3.38h-9.57v3.95h8.45v3.28h-8.45v4.21h9.91Z"/>
    <path d="m944.38,267.97l1.35-2.91c1.25.81,3.15,1.35,4.86,1.35,1.87,0,2.57-.49,2.57-1.27,0-2.29-8.45.05-8.45-5.54,0-2.65,2.39-4.52,6.47-4.52,1.92,0,4.06.44,5.38,1.22l-1.35,2.89c-1.38-.78-2.76-1.04-4.03-1.04-1.82,0-2.6.57-2.6,1.3,0,2.39,8.45.08,8.45,5.59,0,2.6-2.42,4.45-6.6,4.45-2.37,0-4.76-.65-6.06-1.51Z"/>
    <path d="m968.56,268.6c-.83.6-2.05.88-3.3.88-3.3,0-5.23-1.69-5.23-5.02v-5.75h-2.16v-3.12h2.16v-3.41h4.06v3.41h3.48v3.12h-3.48v5.69c0,1.2.65,1.85,1.74,1.85.6,0,1.2-.18,1.64-.52l1.09,2.86Z"/>
    <path d="m983.22,261.29v7.98h-3.8v-1.74c-.75,1.27-2.21,1.95-4.26,1.95-3.28,0-5.23-1.82-5.23-4.24s1.74-4.19,6.01-4.19h3.22c0-1.74-1.04-2.76-3.22-2.76-1.48,0-3.02.49-4.03,1.3l-1.46-2.83c1.53-1.09,3.8-1.69,6.03-1.69,4.26,0,6.73,1.98,6.73,6.21Zm-4.06,3.56v-1.43h-2.78c-1.9,0-2.5.7-2.5,1.64,0,1.01.86,1.69,2.29,1.69,1.35,0,2.52-.62,2.99-1.9Z"/>
    <path d="m1001.29,249.98v19.29h-3.88v-1.61c-1.01,1.22-2.5,1.82-4.37,1.82-3.95,0-6.99-2.81-6.99-7.2s3.04-7.2,6.99-7.2c1.72,0,3.17.55,4.19,1.69v-6.79h4.06Zm-3.98,12.3c0-2.42-1.56-3.87-3.56-3.87s-3.59,1.46-3.59,3.87,1.56,3.87,3.59,3.87,3.56-1.46,3.56-3.87Z"/>
    <path d="m1003.99,262.28c0-4.21,3.25-7.2,7.7-7.2s7.67,2.99,7.67,7.2-3.22,7.2-7.67,7.2-7.7-2.99-7.7-7.2Zm11.26,0c0-2.42-1.53-3.87-3.56-3.87s-3.59,1.46-3.59,3.87,1.56,3.87,3.59,3.87,3.56-1.46,3.56-3.87Z"/>
    <path d="m1024.35,267.97c0,.44-.1.78-.36,1.51l-1.09,3.59h-1.25l.88-3.77c-.55-.16-.94-.65-.94-1.33,0-.81.6-1.4,1.38-1.4s1.38.62,1.38,1.4Z"/>
    <path d="m1045.41,260.79v8.48h-1.77v-2.13c-.83,1.4-2.44,2.26-4.71,2.26-3.09,0-4.99-1.61-4.99-3.98,0-2.11,1.35-3.87,5.28-3.87h4.34v-.83c0-2.34-1.33-3.61-3.87-3.61-1.77,0-3.43.62-4.55,1.61l-.83-1.38c1.38-1.17,3.41-1.85,5.56-1.85,3.54,0,5.54,1.77,5.54,5.3Zm-1.85,4.37v-2.24h-4.29c-2.65,0-3.51,1.04-3.51,2.44,0,1.59,1.27,2.57,3.46,2.57s3.61-.99,4.34-2.78Z"/>
    <path d="m1064.29,262.43c0,4.13-2.91,6.97-6.81,6.97-2.26,0-4.16-.99-5.28-2.83v2.7h-1.77v-19.29h1.85v8.22c1.14-1.77,3.02-2.7,5.2-2.7,3.9,0,6.81,2.81,6.81,6.94Zm-1.85,0c0-3.2-2.21-5.33-5.1-5.33s-5.1,2.13-5.1,5.33,2.18,5.33,5.1,5.33,5.1-2.13,5.1-5.33Z"/>
    <path d="m1074.95,255.49v1.79c-.16,0-.31-.03-.44-.03-2.86,0-4.6,1.82-4.6,5.04v6.97h-1.85v-13.68h1.77v2.68c.86-1.82,2.6-2.78,5.12-2.78Z"/>
    <path d="m1077.86,251.28c0-.7.6-1.3,1.35-1.3s1.35.57,1.35,1.27c0,.75-.57,1.35-1.35,1.35s-1.35-.6-1.35-1.33Zm.42,4.32h1.85v13.68h-1.85v-13.68Z"/>
    <path d="m1097.85,261.34v7.93h-1.85v-7.75c0-2.89-1.51-4.37-4.11-4.37-2.94,0-4.78,1.82-4.78,4.94v7.18h-1.85v-13.68h1.77v2.52c.99-1.66,2.83-2.63,5.2-2.63,3.33,0,5.62,1.92,5.62,5.85Z"/>
    <path d="m1115.4,249.98v19.29h-1.77v-2.7c-1.12,1.85-3.02,2.83-5.28,2.83-3.9,0-6.81-2.83-6.81-6.97s2.91-6.94,6.81-6.94c2.18,0,4.06.94,5.2,2.7v-8.22h1.85Zm-1.82,12.45c0-3.2-2.18-5.33-5.07-5.33s-5.1,2.13-5.1,5.33,2.18,5.33,5.1,5.33,5.07-2.13,5.07-5.33Z"/>
    <path d="m1119.17,262.43c0-4.06,2.96-6.94,6.97-6.94s6.94,2.89,6.94,6.94-2.94,6.97-6.94,6.97-6.97-2.91-6.97-6.97Zm12.04,0c0-3.2-2.16-5.33-5.07-5.33s-5.1,2.13-5.1,5.33,2.18,5.33,5.1,5.33,5.07-2.13,5.07-5.33Z"/>
    <path d="m156.64,302.43c0-4.08,2.96-6.94,7.05-6.94,2.31,0,4.26.91,5.36,2.7l-1.38.94c-.94-1.38-2.39-2.03-3.98-2.03-2.99,0-5.17,2.13-5.17,5.33s2.18,5.33,5.17,5.33c1.59,0,3.04-.62,3.98-2l1.38.94c-1.09,1.77-3.04,2.7-5.36,2.7-4.08,0-7.05-2.89-7.05-6.97Z"/>
    <path d="m182.98,300.79v8.48h-1.77v-2.13c-.83,1.4-2.44,2.26-4.71,2.26-3.09,0-4.99-1.61-4.99-3.98,0-2.11,1.35-3.87,5.28-3.87h4.34v-.83c0-2.34-1.33-3.61-3.87-3.61-1.77,0-3.43.62-4.55,1.61l-.83-1.38c1.38-1.17,3.41-1.85,5.56-1.85,3.54,0,5.54,1.77,5.54,5.3Zm-1.85,4.37v-2.24h-4.29c-2.65,0-3.51,1.04-3.51,2.44,0,1.59,1.27,2.57,3.46,2.57s3.61-.99,4.34-2.78Z"/>
    <path d="m210.57,301.34v7.93h-1.85v-7.75c0-2.89-1.46-4.37-3.93-4.37-2.81,0-4.58,1.82-4.58,4.94v7.18h-1.85v-7.75c0-2.89-1.46-4.37-3.95-4.37-2.78,0-4.58,1.82-4.58,4.94v7.18h-1.85v-13.68h1.77v2.5c.96-1.64,2.73-2.6,5.02-2.6s4.03.96,4.86,2.89c.99-1.77,2.94-2.89,5.41-2.89,3.33,0,5.51,1.92,5.51,5.85Z"/>
    <path d="m215.17,291.28c0-.7.6-1.3,1.35-1.3s1.35.57,1.35,1.27c0,.75-.57,1.35-1.35,1.35s-1.35-.6-1.35-1.33Zm.42,4.32h1.85v13.68h-1.85v-13.68Z"/>
    <path d="m235.16,301.34v7.93h-1.85v-7.75c0-2.89-1.51-4.37-4.11-4.37-2.94,0-4.78,1.82-4.78,4.94v7.18h-1.85v-13.68h1.77v2.52c.99-1.66,2.83-2.63,5.2-2.63,3.33,0,5.62,1.92,5.62,5.85Z"/>
    <path d="m252.76,301.34v7.93h-1.85v-7.75c0-2.89-1.51-4.37-4.11-4.37-2.94,0-4.78,1.82-4.78,4.94v7.18h-1.85v-19.29h1.85v8.01c1.01-1.59,2.81-2.5,5.12-2.5,3.33,0,5.62,1.92,5.62,5.85Z"/>
    <path d="m256.45,302.43c0-4.06,2.96-6.94,6.97-6.94s6.94,2.89,6.94,6.94-2.94,6.97-6.94,6.97-6.97-2.91-6.97-6.97Zm12.04,0c0-3.2-2.16-5.33-5.07-5.33s-5.1,2.13-5.1,5.33,2.18,5.33,5.1,5.33,5.07-2.13,5.07-5.33Z"/>
    <path d="m294.8,302.43c0,4.16-2.91,6.97-6.81,6.97-2.18,0-4.06-.94-5.2-2.7v7.62h-1.85v-18.72h1.77v2.7c1.12-1.82,3.02-2.81,5.28-2.81,3.9,0,6.81,2.81,6.81,6.94Zm-1.85,0c0-3.17-2.21-5.33-5.1-5.33s-5.1,2.16-5.1,5.33,2.18,5.33,5.1,5.33,5.1-2.13,5.1-5.33Z"/>
    <path d="m308.82,300.79v8.48h-1.77v-2.13c-.83,1.4-2.44,2.26-4.71,2.26-3.09,0-4.99-1.61-4.99-3.98,0-2.11,1.35-3.87,5.28-3.87h4.34v-.83c0-2.34-1.33-3.61-3.87-3.61-1.77,0-3.43.62-4.55,1.61l-.83-1.38c1.38-1.17,3.41-1.85,5.56-1.85,3.54,0,5.54,1.77,5.54,5.3Zm-1.85,4.37v-2.24h-4.29c-2.65,0-3.51,1.04-3.51,2.44,0,1.59,1.27,2.57,3.46,2.57s3.61-.99,4.34-2.78Z"/>
    <path d="m320.73,295.49v1.79c-.16,0-.31-.03-.44-.03-2.86,0-4.6,1.82-4.6,5.04v6.97h-1.85v-13.68h1.77v2.68c.86-1.82,2.6-2.78,5.12-2.78Z"/>
    <path d="m334.35,300.79v8.48h-1.77v-2.13c-.83,1.4-2.44,2.26-4.71,2.26-3.09,0-4.99-1.61-4.99-3.98,0-2.11,1.35-3.87,5.28-3.87h4.34v-.83c0-2.34-1.33-3.61-3.87-3.61-1.77,0-3.43.62-4.55,1.61l-.83-1.38c1.38-1.17,3.41-1.85,5.56-1.85,3.54,0,5.54,1.77,5.54,5.3Zm-1.85,4.37v-2.24h-4.29c-2.65,0-3.51,1.04-3.51,2.44,0,1.59,1.27,2.57,3.46,2.57s3.61-.99,4.34-2.78Z"/>
    <path d="m358.5,295.59v13.68h-1.77v-2.5c-.96,1.66-2.73,2.63-4.91,2.63-3.48,0-5.77-1.95-5.77-5.88v-7.93h1.85v7.75c0,2.91,1.51,4.39,4.11,4.39,2.86,0,4.65-1.85,4.65-4.97v-7.18h1.85Z"/>
    <path d="m386.25,301.34v7.93h-1.85v-7.75c0-2.89-1.46-4.37-3.93-4.37-2.81,0-4.58,1.82-4.58,4.94v7.18h-1.85v-7.75c0-2.89-1.46-4.37-3.95-4.37-2.78,0-4.58,1.82-4.58,4.94v7.18h-1.85v-13.68h1.77v2.5c.96-1.64,2.73-2.6,5.02-2.6s4.03.96,4.86,2.89c.99-1.77,2.94-2.89,5.41-2.89,3.33,0,5.51,1.92,5.51,5.85Z"/>
    <path d="m400.18,293.98v1.61h4.21v1.56h-4.16v12.12h-1.85v-12.12h-2.44v-1.56h2.44v-1.69c0-2.44,1.46-4.06,4.13-4.06,1.01,0,2.05.29,2.73.86l-.62,1.38c-.52-.44-1.25-.68-2.03-.68-1.59,0-2.42.88-2.42,2.57Z"/>
    <path d="m418.56,303h-11.44c.21,2.86,2.39,4.76,5.38,4.76,1.66,0,3.15-.6,4.19-1.79l1.04,1.2c-1.22,1.46-3.12,2.24-5.28,2.24-4.26,0-7.18-2.91-7.18-6.97s2.83-6.94,6.68-6.94,6.63,2.83,6.63,6.94c0,.16-.03.36-.03.57Zm-11.44-1.38h9.7c-.23-2.68-2.18-4.55-4.86-4.55s-4.6,1.87-4.84,4.55Z"/>
    <path d="m434.94,301.34v7.93h-1.85v-7.75c0-2.89-1.51-4.37-4.11-4.37-2.94,0-4.78,1.82-4.78,4.94v7.18h-1.85v-13.68h1.77v2.52c.99-1.66,2.83-2.63,5.2-2.63,3.33,0,5.62,1.92,5.62,5.85Z"/>
    <path d="m452.55,302.43c0,4.06-2.94,6.97-6.94,6.97s-6.97-2.91-6.97-6.97,2.96-6.94,6.97-6.94,6.94,2.89,6.94,6.94Zm-1.87,0c0-3.2-2.16-5.33-5.07-5.33s-5.1,2.13-5.1,5.33,2.18,5.33,5.1,5.33,5.07-2.13,5.07-5.33Zm-7.67-8.94h-1.72l3.35-3.22h1.87l3.35,3.22h-1.72l-2.57-2.16-2.57,2.16Z"/>
    <path d="m478.88,301.34v7.93h-1.85v-7.75c0-2.89-1.46-4.37-3.93-4.37-2.81,0-4.58,1.82-4.58,4.94v7.18h-1.85v-7.75c0-2.89-1.46-4.37-3.95-4.37-2.78,0-4.58,1.82-4.58,4.94v7.18h-1.85v-13.68h1.77v2.5c.96-1.64,2.73-2.6,5.02-2.6s4.03.96,4.86,2.89c.99-1.77,2.94-2.89,5.41-2.89,3.33,0,5.51,1.92,5.51,5.85Z"/>
    <path d="m495.86,303h-11.44c.21,2.86,2.39,4.76,5.38,4.76,1.66,0,3.15-.6,4.19-1.79l1.04,1.2c-1.22,1.46-3.12,2.24-5.28,2.24-4.26,0-7.18-2.91-7.18-6.97s2.83-6.94,6.68-6.94,6.63,2.83,6.63,6.94c0,.16-.03.36-.03.57Zm-11.44-1.38h9.7c-.23-2.68-2.18-4.55-4.86-4.55s-4.6,1.87-4.84,4.55Z"/>
    <path d="m512.24,301.34v7.93h-1.85v-7.75c0-2.89-1.51-4.37-4.11-4.37-2.94,0-4.78,1.82-4.78,4.94v7.18h-1.85v-13.68h1.77v2.52c.99-1.66,2.83-2.63,5.2-2.63,3.33,0,5.62,1.92,5.62,5.85Z"/>
    <path d="m515.93,302.43c0-4.06,2.96-6.94,6.97-6.94s6.94,2.89,6.94,6.94-2.94,6.97-6.94,6.97-6.97-2.91-6.97-6.97Zm12.04,0c0-3.2-2.16-5.33-5.07-5.33s-5.1,2.13-5.1,5.33,2.18,5.33,5.1,5.33,5.07-2.13,5.07-5.33Z"/>
    <path d="m552.9,295.59v18.72h-1.85v-7.62c-1.14,1.77-3.02,2.7-5.2,2.7-3.9,0-6.81-2.81-6.81-6.97s2.91-6.94,6.81-6.94c2.26,0,4.16.99,5.28,2.81v-2.7h1.77Zm-1.82,6.84c0-3.17-2.18-5.33-5.07-5.33s-5.1,2.16-5.1,5.33,2.18,5.33,5.1,5.33,5.07-2.13,5.07-5.33Z"/>
    <path d="m570.38,295.59v13.68h-1.77v-2.5c-.96,1.66-2.73,2.63-4.91,2.63-3.48,0-5.77-1.95-5.77-5.88v-7.93h1.85v7.75c0,2.91,1.51,4.39,4.11,4.39,2.86,0,4.65-1.85,4.65-4.97v-7.18h1.85Z"/>
    <path d="m587.46,303h-11.44c.21,2.86,2.39,4.76,5.38,4.76,1.66,0,3.15-.6,4.19-1.79l1.04,1.2c-1.22,1.46-3.12,2.24-5.28,2.24-4.26,0-7.18-2.91-7.18-6.97s2.83-6.94,6.68-6.94,6.63,2.83,6.63,6.94c0,.16-.03.36-.03.57Zm-11.44-1.38h9.7c-.23-2.68-2.18-4.55-4.86-4.55s-4.6,1.87-4.84,4.55Z"/>
    <path d="m609.56,295.59l-6.08,13.68h-1.9l-6.06-13.68h1.92l5.12,11.65,5.17-11.65h1.82Z"/>
    <path d="m623.68,303h-11.44c.21,2.86,2.39,4.76,5.38,4.76,1.66,0,3.15-.6,4.19-1.79l1.04,1.2c-1.22,1.46-3.12,2.24-5.28,2.24-4.26,0-7.18-2.91-7.18-6.97s2.83-6.94,6.68-6.94,6.63,2.83,6.63,6.94c0,.16-.03.36-.03.57Zm-11.44-1.38h9.7c-.23-2.68-2.18-4.55-4.86-4.55s-4.6,1.87-4.84,4.55Z"/>
    <path d="m650.04,301.34v7.93h-1.85v-7.75c0-2.89-1.46-4.37-3.93-4.37-2.81,0-4.58,1.82-4.58,4.94v7.18h-1.85v-7.75c0-2.89-1.46-4.37-3.95-4.37-2.78,0-4.58,1.82-4.58,4.94v7.18h-1.85v-13.68h1.77v2.5c.96-1.64,2.73-2.6,5.02-2.6s4.03.96,4.86,2.89c.99-1.77,2.94-2.89,5.41-2.89,3.33,0,5.51,1.92,5.51,5.85Z"/>
    <path d="m659.97,307.71l.83-1.46c1.09.86,2.94,1.53,4.86,1.53,2.6,0,3.67-.88,3.67-2.24,0-3.56-8.87-.75-8.87-6.16,0-2.24,1.92-3.9,5.41-3.9,1.77,0,3.69.49,4.84,1.27l-.81,1.48c-1.2-.83-2.63-1.17-4.03-1.17-2.47,0-3.56.96-3.56,2.26,0,3.69,8.87.91,8.87,6.16,0,2.37-2.08,3.9-5.64,3.9-2.26,0-4.45-.73-5.56-1.69Z"/>
    <path d="m686.49,303h-11.44c.21,2.86,2.39,4.76,5.38,4.76,1.66,0,3.15-.6,4.19-1.79l1.04,1.2c-1.22,1.46-3.12,2.24-5.28,2.24-4.26,0-7.18-2.91-7.18-6.97s2.83-6.94,6.68-6.94,6.63,2.83,6.63,6.94c0,.16-.03.36-.03.57Zm-11.44-1.38h9.7c-.23-2.68-2.18-4.55-4.86-4.55s-4.6,1.87-4.84,4.55Z"/>
    <path d="m703.99,295.49v1.79c-.16,0-.31-.03-.44-.03-2.86,0-4.6,1.82-4.6,5.04v6.97h-1.85v-13.68h1.77v2.68c.86-1.82,2.6-2.78,5.12-2.78Z"/>
    <path d="m719.09,303h-11.44c.21,2.86,2.39,4.76,5.38,4.76,1.66,0,3.15-.6,4.19-1.79l1.04,1.2c-1.22,1.46-3.12,2.24-5.28,2.24-4.26,0-7.18-2.91-7.18-6.97s2.83-6.94,6.68-6.94,6.63,2.83,6.63,6.94c0,.16-.03.36-.03.57Zm-11.44-1.38h9.7c-.23-2.68-2.18-4.55-4.86-4.55s-4.6,1.87-4.84,4.55Z"/>
    <path d="m736.75,302.43c0,4.16-2.91,6.97-6.81,6.97-2.18,0-4.06-.94-5.2-2.7v7.62h-1.85v-18.72h1.77v2.7c1.12-1.82,3.02-2.81,5.28-2.81,3.9,0,6.81,2.81,6.81,6.94Zm-1.85,0c0-3.17-2.21-5.33-5.1-5.33s-5.1,2.16-5.1,5.33,2.18,5.33,5.1,5.33,5.1-2.13,5.1-5.33Z"/>
    <path d="m752.43,303h-11.44c.21,2.86,2.39,4.76,5.38,4.76,1.66,0,3.15-.6,4.19-1.79l1.04,1.2c-1.22,1.46-3.12,2.24-5.28,2.24-4.26,0-7.18-2.91-7.18-6.97s2.83-6.94,6.68-6.94,6.63,2.83,6.63,6.94c0,.16-.03.36-.03.57Zm-11.44-1.38h9.7c-.23-2.68-2.18-4.55-4.86-4.55s-4.6,1.87-4.84,4.55Z"/>
    <path d="m763.42,308.44c-.73.65-1.82.96-2.89.96-2.57,0-4-1.46-4-3.98v-8.27h-2.44v-1.56h2.44v-2.99h1.85v2.99h4.16v1.56h-4.16v8.16c0,1.61.83,2.5,2.37,2.5.75,0,1.51-.23,2.03-.7l.65,1.33Z"/>
    <path d="m766.36,291.28c0-.7.6-1.3,1.35-1.3s1.35.57,1.35,1.27c0,.75-.57,1.35-1.35,1.35s-1.35-.6-1.35-1.33Zm.42,4.32h1.85v13.68h-1.85v-13.68Z"/>
    <path d="m786.36,301.34v7.93h-1.85v-7.75c0-2.89-1.51-4.37-4.11-4.37-2.94,0-4.78,1.82-4.78,4.94v7.18h-1.85v-13.68h1.77v2.52c.99-1.66,2.83-2.63,5.2-2.63,3.33,0,5.62,1.92,5.62,5.85Z"/>
    <path d="m803.9,289.98v19.29h-1.77v-2.7c-1.12,1.85-3.02,2.83-5.28,2.83-3.9,0-6.81-2.83-6.81-6.97s2.91-6.94,6.81-6.94c2.18,0,4.06.94,5.2,2.7v-8.22h1.85Zm-1.82,12.45c0-3.2-2.18-5.33-5.07-5.33s-5.1,2.13-5.1,5.33,2.18,5.33,5.1,5.33,5.07-2.13,5.07-5.33Z"/>
    <path d="m807.67,302.43c0-4.06,2.96-6.94,6.97-6.94s6.94,2.89,6.94,6.94-2.94,6.97-6.94,6.97-6.97-2.91-6.97-6.97Zm12.04,0c0-3.2-2.16-5.33-5.07-5.33s-5.1,2.13-5.1,5.33,2.18,5.33,5.1,5.33,5.07-2.13,5.07-5.33Z"/>
    <path d="m844.75,301.34v7.93h-1.85v-7.75c0-2.89-1.51-4.37-4.11-4.37-2.94,0-4.78,1.82-4.78,4.94v7.18h-1.85v-13.68h1.77v2.52c.99-1.66,2.83-2.63,5.2-2.63,3.33,0,5.62,1.92,5.62,5.85Z"/>
    <path d="m848.44,302.43c0-4.06,2.96-6.94,6.97-6.94s6.94,2.89,6.94,6.94-2.94,6.97-6.94,6.97-6.97-2.91-6.97-6.97Zm12.04,0c0-3.2-2.16-5.33-5.07-5.33s-5.1,2.13-5.1,5.33,2.18,5.33,5.1,5.33,5.07-2.13,5.07-5.33Z"/>
    <path d="m864.22,307.71l.83-1.46c1.09.86,2.94,1.53,4.86,1.53,2.6,0,3.67-.88,3.67-2.24,0-3.56-8.87-.75-8.87-6.16,0-2.24,1.92-3.9,5.41-3.9,1.77,0,3.69.49,4.84,1.27l-.81,1.48c-1.2-.83-2.63-1.17-4.03-1.17-2.47,0-3.56.96-3.56,2.26,0,3.69,8.87.91,8.87,6.16,0,2.37-2.08,3.9-5.64,3.9-2.26,0-4.45-.73-5.56-1.69Z"/>
    <path d="m897.55,303h-11.44c.21,2.86,2.39,4.76,5.38,4.76,1.66,0,3.15-.6,4.19-1.79l1.04,1.2c-1.22,1.46-3.12,2.24-5.28,2.24-4.26,0-7.18-2.91-7.18-6.97s2.83-6.94,6.68-6.94,6.63,2.83,6.63,6.94c0,.16-.03.36-.03.57Zm-11.44-1.38h9.7c-.23-2.68-2.18-4.55-4.86-4.55s-4.6,1.87-4.84,4.55Z"/>
    <path d="m899.45,307.71l.83-1.46c1.09.86,2.94,1.53,4.86,1.53,2.6,0,3.67-.88,3.67-2.24,0-3.56-8.87-.75-8.87-6.16,0-2.24,1.92-3.9,5.41-3.9,1.77,0,3.69.49,4.84,1.27l-.81,1.48c-1.2-.83-2.63-1.17-4.03-1.17-2.47,0-3.56.96-3.56,2.26,0,3.69,8.87.91,8.87,6.16,0,2.37-2.08,3.9-5.64,3.9-2.26,0-4.45-.73-5.56-1.69Z"/>
    <path d="m921.27,308.44c-.73.65-1.82.96-2.89.96-2.57,0-4-1.46-4-3.98v-8.27h-2.44v-1.56h2.44v-2.99h1.85v2.99h4.16v1.56h-4.16v8.16c0,1.61.83,2.5,2.37,2.5.75,0,1.51-.23,2.03-.7l.65,1.33Z"/>
    <path d="m934.94,300.79v8.48h-1.77v-2.13c-.83,1.4-2.44,2.26-4.71,2.26-3.09,0-4.99-1.61-4.99-3.98,0-2.11,1.35-3.87,5.28-3.87h4.34v-.83c0-2.34-1.33-3.61-3.88-3.61-1.77,0-3.43.62-4.55,1.61l-.83-1.38c1.38-1.17,3.41-1.85,5.56-1.85,3.54,0,5.54,1.77,5.54,5.3Zm-1.85,4.37v-2.24h-4.29c-2.65,0-3.51,1.04-3.51,2.44,0,1.59,1.27,2.57,3.46,2.57s3.61-.99,4.34-2.78Z"/>
    <path d="m952.49,289.98v19.29h-1.77v-2.7c-1.12,1.85-3.02,2.83-5.28,2.83-3.9,0-6.81-2.83-6.81-6.97s2.91-6.94,6.81-6.94c2.18,0,4.06.94,5.2,2.7v-8.22h1.85Zm-1.82,12.45c0-3.2-2.18-5.33-5.07-5.33s-5.1,2.13-5.1,5.33,2.18,5.33,5.1,5.33,5.07-2.13,5.07-5.33Z"/>
    <path d="m956.26,302.43c0-4.06,2.96-6.94,6.97-6.94s6.94,2.89,6.94,6.94-2.94,6.97-6.94,6.97-6.97-2.91-6.97-6.97Zm12.04,0c0-3.2-2.16-5.33-5.07-5.33s-5.1,2.13-5.1,5.33,2.18,5.33,5.1,5.33,5.07-2.13,5.07-5.33Z"/>
    <path d="m972.04,307.71l.83-1.46c1.09.86,2.94,1.53,4.86,1.53,2.6,0,3.67-.88,3.67-2.24,0-3.56-8.87-.75-8.87-6.16,0-2.24,1.92-3.9,5.41-3.9,1.77,0,3.69.49,4.84,1.27l-.81,1.48c-1.2-.83-2.63-1.17-4.03-1.17-2.47,0-3.56.96-3.56,2.26,0,3.69,8.87.91,8.87,6.16,0,2.37-2.08,3.9-5.64,3.9-2.26,0-4.45-.73-5.56-1.69Z"/>
    <path d="m1005.37,303h-11.44c.21,2.86,2.39,4.76,5.38,4.76,1.66,0,3.15-.6,4.19-1.79l1.04,1.2c-1.22,1.46-3.12,2.24-5.28,2.24-4.26,0-7.18-2.91-7.18-6.97s2.83-6.94,6.68-6.94,6.63,2.83,6.63,6.94c0,.16-.03.36-.03.57Zm-11.44-1.38h9.7c-.23-2.68-2.18-4.55-4.86-4.55s-4.6,1.87-4.84,4.55Z"/>
    <path d="m1021.49,295.59v13.68h-1.77v-2.5c-.96,1.66-2.73,2.63-4.91,2.63-3.48,0-5.77-1.95-5.77-5.88v-7.93h1.85v7.75c0,2.91,1.51,4.39,4.11,4.39,2.86,0,4.65-1.85,4.65-4.97v-7.18h1.85Z"/>
    <path d="m1033.56,295.49v1.79c-.16,0-.31-.03-.44-.03-2.86,0-4.6,1.82-4.6,5.04v6.97h-1.85v-13.68h1.77v2.68c.86-1.82,2.6-2.78,5.12-2.78Z"/>
    <path d="m1035.38,302.43c0-4.06,2.96-6.94,6.97-6.94s6.94,2.89,6.94,6.94-2.94,6.97-6.94,6.97-6.97-2.91-6.97-6.97Zm12.04,0c0-3.2-2.16-5.33-5.07-5.33s-5.1,2.13-5.1,5.33,2.18,5.33,5.1,5.33,5.07-2.13,5.07-5.33Z"/>
    <path d="m1066.92,302.43c0,4.16-2.91,6.97-6.81,6.97-2.18,0-4.06-.94-5.2-2.7v7.62h-1.85v-18.72h1.77v2.7c1.12-1.82,3.02-2.81,5.28-2.81,3.9,0,6.81,2.81,6.81,6.94Zm-1.85,0c0-3.17-2.21-5.33-5.1-5.33s-5.1,2.16-5.1,5.33,2.18,5.33,5.1,5.33,5.1-2.13,5.1-5.33Z"/>
    <path d="m1082.6,303h-11.44c.21,2.86,2.39,4.76,5.38,4.76,1.66,0,3.15-.6,4.19-1.79l1.04,1.2c-1.22,1.46-3.12,2.24-5.28,2.24-4.26,0-7.18-2.91-7.18-6.97s2.83-6.94,6.68-6.94,6.63,2.83,6.63,6.94c0,.16-.03.36-.03.57Zm-11.44-1.38h9.7c-.23-2.68-2.18-4.55-4.86-4.55s-4.6,1.87-4.84,4.55Z"/>
    <path d="m1098.72,295.59v13.68h-1.77v-2.5c-.96,1.66-2.73,2.63-4.91,2.63-3.48,0-5.77-1.95-5.77-5.88v-7.93h1.85v7.75c0,2.91,1.51,4.39,4.11,4.39,2.86,0,4.65-1.85,4.65-4.97v-7.18h1.85Z"/>
    <path d="m1101.99,307.71l.83-1.46c1.09.86,2.94,1.53,4.86,1.53,2.6,0,3.67-.88,3.67-2.24,0-3.56-8.87-.75-8.87-6.16,0-2.24,1.92-3.9,5.41-3.9,1.77,0,3.69.49,4.84,1.27l-.81,1.48c-1.2-.83-2.63-1.17-4.03-1.17-2.47,0-3.56.96-3.56,2.26,0,3.69,8.87.91,8.87,6.16,0,2.37-2.08,3.9-5.64,3.9-2.26,0-4.45-.73-5.56-1.69Z"/>
    <path d="m1135.32,303h-11.44c.21,2.86,2.39,4.76,5.38,4.76,1.66,0,3.15-.6,4.19-1.79l1.04,1.2c-1.22,1.46-3.12,2.24-5.28,2.24-4.26,0-7.18-2.91-7.18-6.97s2.83-6.94,6.68-6.94,6.63,2.83,6.63,6.94c0,.16-.03.36-.03.57Zm-11.44-1.38h9.7c-.23-2.68-2.18-4.55-4.86-4.55s-4.6,1.87-4.84,4.55Z"/>
    <path d="m169.93,343h-11.44c.21,2.86,2.39,4.76,5.38,4.76,1.66,0,3.15-.6,4.19-1.79l1.04,1.2c-1.22,1.46-3.12,2.24-5.28,2.24-4.26,0-7.18-2.91-7.18-6.97s2.83-6.94,6.68-6.94,6.63,2.83,6.63,6.94c0,.16-.03.36-.03.57Zm-11.44-1.38h9.7c-.23-2.68-2.18-4.55-4.86-4.55s-4.6,1.87-4.84,4.55Z"/>
    <path d="m196.29,341.34v7.93h-1.85v-7.75c0-2.89-1.46-4.37-3.93-4.37-2.81,0-4.58,1.82-4.58,4.94v7.18h-1.85v-7.75c0-2.89-1.46-4.37-3.95-4.37-2.78,0-4.58,1.82-4.58,4.94v7.18h-1.85v-13.68h1.77v2.5c.96-1.64,2.73-2.6,5.02-2.6s4.03.96,4.86,2.89c.99-1.77,2.94-2.89,5.41-2.89,3.33,0,5.51,1.92,5.51,5.85Z"/>
    <path d="m206.74,342.43c0-4.06,2.96-6.94,6.97-6.94s6.94,2.89,6.94,6.94-2.94,6.97-6.94,6.97-6.97-2.91-6.97-6.97Zm12.04,0c0-3.2-2.16-5.33-5.07-5.33s-5.1,2.13-5.1,5.33,2.18,5.33,5.1,5.33,5.07-2.13,5.07-5.33Z"/>
    <path d="m236.75,335.59v13.68h-1.77v-2.5c-.96,1.66-2.73,2.63-4.91,2.63-3.48,0-5.77-1.95-5.77-5.88v-7.93h1.85v7.75c0,2.91,1.51,4.39,4.11,4.39,2.86,0,4.65-1.85,4.65-4.97v-7.18h1.85Z"/>
    <path d="m249.12,348.44c-.73.65-1.82.96-2.89.96-2.57,0-4-1.46-4-3.98v-8.27h-2.44v-1.56h2.44v-2.99h1.85v2.99h4.16v1.56h-4.16v8.16c0,1.61.83,2.5,2.37,2.5.75,0,1.51-.23,2.03-.7l.65,1.33Z"/>
    <path d="m259.37,335.49v1.79c-.16,0-.31-.03-.44-.03-2.86,0-4.6,1.82-4.6,5.04v6.97h-1.85v-13.68h1.77v2.68c.86-1.82,2.6-2.78,5.12-2.78Z"/>
    <path d="m261.19,342.43c0-4.06,2.96-6.94,6.97-6.94s6.94,2.89,6.94,6.94-2.94,6.97-6.94,6.97-6.97-2.91-6.97-6.97Zm12.04,0c0-3.2-2.16-5.33-5.07-5.33s-5.1,2.13-5.1,5.33,2.18,5.33,5.1,5.33,5.07-2.13,5.07-5.33Z"/>
    <path d="m276.97,347.71l.83-1.46c1.09.86,2.94,1.53,4.86,1.53,2.6,0,3.67-.88,3.67-2.24,0-3.56-8.87-.75-8.87-6.16,0-2.24,1.92-3.9,5.41-3.9,1.77,0,3.69.49,4.84,1.27l-.81,1.48c-1.2-.83-2.63-1.17-4.03-1.17-2.47,0-3.56.96-3.56,2.26,0,3.69,8.87.91,8.87,6.16,0,2.37-2.08,3.9-5.64,3.9-2.26,0-4.45-.73-5.56-1.69Z"/>
    <path d="m297.01,342.43c0-4.08,2.96-6.94,7.05-6.94,2.31,0,4.26.91,5.36,2.7l-1.38.94c-.94-1.38-2.39-2.03-3.98-2.03-2.99,0-5.17,2.13-5.17,5.33s2.18,5.33,5.17,5.33c1.59,0,3.04-.62,3.98-2l1.38.94c-1.09,1.77-3.04,2.7-5.36,2.7-4.08,0-7.05-2.89-7.05-6.97Z"/>
    <path d="m311.42,342.43c0-4.06,2.96-6.94,6.97-6.94s6.94,2.89,6.94,6.94-2.94,6.97-6.94,6.97-6.97-2.91-6.97-6.97Zm12.04,0c0-3.2-2.16-5.33-5.07-5.33s-5.1,2.13-5.1,5.33,2.18,5.33,5.1,5.33,5.07-2.13,5.07-5.33Z"/>
    <path d="m341.68,341.34v7.93h-1.85v-7.75c0-2.89-1.51-4.37-4.11-4.37-2.94,0-4.78,1.82-4.78,4.94v7.18h-1.85v-13.68h1.77v2.52c.99-1.66,2.83-2.63,5.2-2.63,3.33,0,5.62,1.92,5.62,5.85Z"/>
    <path d="m353.9,348.44c-.73.65-1.82.96-2.89.96-2.57,0-4-1.46-4-3.98v-8.27h-2.44v-1.56h2.44v-2.99h1.85v2.99h4.16v1.56h-4.16v8.16c0,1.61.83,2.5,2.37,2.5.75,0,1.51-.23,2.03-.7l.65,1.33Z"/>
    <path d="m356.84,331.28c0-.7.6-1.3,1.35-1.3s1.35.57,1.35,1.27c0,.75-.57,1.35-1.35,1.35s-1.35-.6-1.35-1.33Zm.42,4.32h1.85v13.68h-1.85v-13.68Z"/>
    <path d="m376.83,341.34v7.93h-1.85v-7.75c0-2.89-1.51-4.37-4.11-4.37-2.94,0-4.78,1.82-4.78,4.94v7.18h-1.85v-13.68h1.77v2.52c.99-1.66,2.83-2.63,5.2-2.63,3.33,0,5.62,1.92,5.62,5.85Z"/>
    <path d="m393.81,343h-11.44c.21,2.86,2.39,4.76,5.38,4.76,1.66,0,3.15-.6,4.19-1.79l1.04,1.2c-1.22,1.46-3.12,2.24-5.28,2.24-4.26,0-7.18-2.91-7.18-6.97s2.83-6.94,6.68-6.94,6.63,2.83,6.63,6.94c0,.16-.03.36-.03.57Zm-11.44-1.38h9.7c-.23-2.68-2.18-4.55-4.86-4.55s-4.6,1.87-4.84,4.55Z"/>
    <path d="m410.19,341.34v7.93h-1.85v-7.75c0-2.89-1.51-4.37-4.11-4.37-2.94,0-4.78,1.82-4.78,4.94v7.18h-1.85v-13.68h1.77v2.52c.99-1.66,2.83-2.63,5.2-2.63,3.33,0,5.62,1.92,5.62,5.85Z"/>
    <path d="m422.41,348.44c-.73.65-1.82.96-2.89.96-2.57,0-4-1.46-4-3.98v-8.27h-2.44v-1.56h2.44v-2.99h1.85v2.99h4.16v1.56h-4.16v8.16c0,1.61.83,2.5,2.37,2.5.75,0,1.51-.23,2.03-.7l.65,1.33Z"/>
    <path d="m437.18,343h-11.44c.21,2.86,2.39,4.76,5.38,4.76,1.66,0,3.15-.6,4.19-1.79l1.04,1.2c-1.22,1.46-3.12,2.24-5.28,2.24-4.26,0-7.18-2.91-7.18-6.97s2.83-6.94,6.68-6.94,6.63,2.83,6.63,6.94c0,.16-.03.36-.03.57Zm-11.44-1.38h9.7c-.23-2.68-2.18-4.55-4.86-4.55s-4.6,1.87-4.84,4.55Z"/>
    <path d="m439.08,347.71l.83-1.46c1.09.86,2.94,1.53,4.86,1.53,2.6,0,3.67-.88,3.67-2.24,0-3.56-8.87-.75-8.87-6.16,0-2.24,1.92-3.9,5.41-3.9,1.77,0,3.69.49,4.84,1.27l-.81,1.48c-1.2-.83-2.63-1.17-4.03-1.17-2.47,0-3.56.96-3.56,2.26,0,3.69,8.87.91,8.87,6.16,0,2.37-2.08,3.9-5.64,3.9-2.26,0-4.45-.73-5.56-1.69Z"/>
    <path d="m452.49,336.89c0-.81.62-1.4,1.38-1.4s1.4.6,1.4,1.4-.65,1.43-1.4,1.43-1.38-.62-1.38-1.43Zm0,11.08c0-.81.62-1.4,1.38-1.4s1.4.6,1.4,1.4-.65,1.43-1.4,1.43-1.38-.62-1.38-1.43Z"/>
    <path d="m476.33,340.79v8.48h-1.77v-2.13c-.83,1.4-2.44,2.26-4.71,2.26-3.09,0-4.99-1.61-4.99-3.98,0-2.11,1.35-3.88,5.28-3.88h4.34v-.83c0-2.34-1.33-3.61-3.87-3.61-1.77,0-3.43.62-4.55,1.61l-.83-1.38c1.38-1.17,3.41-1.85,5.56-1.85,3.54,0,5.54,1.77,5.54,5.3Zm-1.85,4.37v-2.24h-4.29c-2.65,0-3.51,1.04-3.51,2.44,0,1.59,1.27,2.57,3.46,2.57s3.61-.99,4.34-2.78Z"/>
    <path d="m483.17,353.74l1.09-2.94c.44.31,1.04.49,1.72.49,1.01,0,1.66-.65,1.66-2.03v-13.99h4.06v13.96c0,3.22-1.9,5.28-5.28,5.28-1.25,0-2.47-.23-3.25-.78Zm3.98-22.67c0-1.27,1.01-2.26,2.52-2.26s2.52.94,2.52,2.18c0,1.35-1.01,2.34-2.52,2.34s-2.52-.99-2.52-2.26Z"/>
    <path d="m509.54,335.28v13.99h-3.85v-1.66c-1.07,1.22-2.63,1.87-4.34,1.87-3.51,0-5.98-1.98-5.98-6.29v-7.9h4.06v7.31c0,2.34,1.04,3.38,2.83,3.38s3.22-1.2,3.22-3.77v-6.92h4.06Z"/>
    <path d="m521.99,335.07v3.74c-.34-.03-.6-.05-.91-.05-2.24,0-3.72,1.22-3.72,3.9v6.6h-4.06v-13.99h3.87v1.85c.99-1.35,2.65-2.05,4.81-2.05Z"/>
    <path d="m523.91,331.07c0-1.27,1.01-2.26,2.52-2.26s2.52.94,2.52,2.18c0,1.35-1.01,2.34-2.52,2.34s-2.52-.99-2.52-2.26Zm.49,4.21h4.06v13.99h-4.06v-13.99Z"/>
    <path d="m530.88,347.97l1.35-2.91c1.25.81,3.15,1.35,4.86,1.35,1.87,0,2.57-.49,2.57-1.27,0-2.29-8.45.05-8.45-5.54,0-2.65,2.39-4.52,6.47-4.52,1.92,0,4.06.44,5.38,1.22l-1.35,2.89c-1.38-.78-2.76-1.04-4.03-1.04-1.82,0-2.6.57-2.6,1.3,0,2.39,8.45.08,8.45,5.59,0,2.6-2.42,4.45-6.6,4.45-2.37,0-4.76-.65-6.06-1.51Z"/>
    <path d="m560.29,329.98v19.29h-3.87v-1.61c-1.01,1.22-2.5,1.82-4.37,1.82-3.95,0-6.99-2.81-6.99-7.2s3.04-7.2,6.99-7.2c1.72,0,3.17.55,4.19,1.69v-6.79h4.06Zm-3.98,12.3c0-2.42-1.56-3.87-3.56-3.87s-3.59,1.46-3.59,3.87,1.56,3.87,3.59,3.87,3.56-1.46,3.56-3.87Z"/>
    <path d="m563.54,331.07c0-1.27,1.01-2.26,2.52-2.26s2.52.94,2.52,2.18c0,1.35-1.01,2.34-2.52,2.34s-2.52-.99-2.52-2.26Zm.49,4.21h4.06v13.99h-4.06v-13.99Z"/>
    <path d="m581.74,344.23l3.15,1.72c-.96,2.16-3.15,3.43-5.93,3.54l-.26,1.09c1.59.18,2.26,1.09,2.26,2.16,0,1.59-1.51,2.57-3.82,2.57-.91,0-1.82-.21-2.42-.55l.62-1.74c.49.23,1.07.39,1.69.39.96,0,1.35-.34,1.35-.83,0-.44-.36-.75-1.27-.75h-.88l.62-2.5c-3.61-.68-6.03-3.41-6.03-7.05,0-4.21,3.25-7.2,7.8-7.2,2.94,0,5.25,1.27,6.27,3.56l-3.15,1.69c-.75-1.33-1.87-1.92-3.15-1.92-2.05,0-3.67,1.43-3.67,3.87s1.61,3.87,3.67,3.87c1.27,0,2.39-.57,3.15-1.92Z"/>
    <path d="m599.6,341.29v7.98h-3.8v-1.74c-.75,1.27-2.21,1.95-4.26,1.95-3.28,0-5.23-1.82-5.23-4.24s1.74-4.19,6.01-4.19h3.22c0-1.74-1.04-2.76-3.22-2.76-1.48,0-3.02.49-4.03,1.3l-1.46-2.83c1.53-1.09,3.8-1.69,6.03-1.69,4.26,0,6.73,1.98,6.73,6.21Zm-9.26-7.9h-2.05c.05-2.31,1.22-3.8,3.04-3.8s2.7,1.66,3.64,1.66c.7,0,1.2-.55,1.25-1.4h2.05c-.05,2.24-1.22,3.72-3.04,3.72s-2.7-1.64-3.64-1.64c-.7,0-1.2.52-1.25,1.46Zm5.2,11.47v-1.43h-2.78c-1.9,0-2.5.7-2.5,1.64,0,1.01.86,1.69,2.29,1.69,1.35,0,2.52-.62,2.99-1.9Z"/>
    <path d="m602.38,342.28c0-4.21,3.25-7.2,7.7-7.2s7.67,2.99,7.67,7.2-3.22,7.2-7.67,7.2-7.7-2.99-7.7-7.2Zm11.26,0c0-2.42-1.53-3.87-3.56-3.87s-3.59,1.46-3.59,3.87,1.56,3.87,3.59,3.87,3.56-1.46,3.56-3.87Z"/>
    <path d="m626.77,342.28c0-4.21,3.25-7.2,7.8-7.2,2.94,0,5.25,1.27,6.27,3.56l-3.15,1.69c-.75-1.33-1.87-1.92-3.15-1.92-2.05,0-3.67,1.43-3.67,3.87s1.61,3.87,3.67,3.87c1.27,0,2.39-.57,3.15-1.92l3.15,1.72c-1.01,2.24-3.33,3.54-6.27,3.54-4.55,0-7.8-2.99-7.8-7.2Z"/>
    <path d="m641.95,342.28c0-4.21,3.25-7.2,7.7-7.2s7.67,2.99,7.67,7.2-3.22,7.2-7.67,7.2-7.7-2.99-7.7-7.2Zm11.26,0c0-2.42-1.53-3.87-3.56-3.87s-3.59,1.46-3.59,3.87,1.56,3.87,3.59,3.87,3.56-1.46,3.56-3.87Z"/>
    <path d="m674.32,341.26v8.01h-4.06v-7.38c0-2.26-1.04-3.3-2.83-3.3-1.95,0-3.35,1.2-3.35,3.77v6.92h-4.06v-13.99h3.87v1.64c1.09-1.2,2.73-1.85,4.63-1.85,3.3,0,5.8,1.92,5.8,6.19Z"/>
    <path d="m676.63,347.97l1.35-2.91c1.25.81,3.15,1.35,4.86,1.35,1.87,0,2.57-.49,2.57-1.27,0-2.29-8.45.05-8.45-5.54,0-2.65,2.39-4.52,6.47-4.52,1.92,0,4.06.44,5.38,1.22l-1.35,2.89c-1.38-.78-2.76-1.04-4.03-1.04-1.82,0-2.6.57-2.6,1.3,0,2.39,8.45.08,8.45,5.59,0,2.6-2.42,4.45-6.6,4.45-2.37,0-4.76-.65-6.06-1.51Z"/>
    <path d="m700.81,348.6c-.83.6-2.05.88-3.3.88-3.3,0-5.23-1.69-5.23-5.02v-5.75h-2.16v-3.12h2.16v-3.41h4.06v3.41h3.48v3.12h-3.48v5.69c0,1.2.65,1.85,1.74,1.85.6,0,1.2-.18,1.64-.52l1.09,2.86Z"/>
    <path d="m702.61,331.07c0-1.27,1.01-2.26,2.52-2.26s2.52.94,2.52,2.18c0,1.35-1.01,2.34-2.52,2.34s-2.52-.99-2.52-2.26Zm.49,4.21h4.06v13.99h-4.06v-13.99Z"/>
    <path d="m719.95,348.6c-.83.6-2.05.88-3.3.88-3.3,0-5.23-1.69-5.23-5.02v-5.75h-2.16v-3.12h2.16v-3.41h4.06v3.41h3.48v3.12h-3.48v5.69c0,1.2.65,1.85,1.74,1.85.6,0,1.2-.18,1.64-.52l1.09,2.86Z"/>
    <path d="m736.33,335.28v13.99h-3.85v-1.66c-1.07,1.22-2.63,1.87-4.34,1.87-3.51,0-5.98-1.98-5.98-6.29v-7.9h4.06v7.31c0,2.34,1.04,3.38,2.83,3.38s3.22-1.2,3.22-3.77v-6.92h4.06Z"/>
    <path d="m739.06,342.28c0-4.21,3.25-7.2,7.8-7.2,2.94,0,5.25,1.27,6.27,3.56l-3.15,1.69c-.75-1.33-1.87-1.92-3.15-1.92-2.05,0-3.67,1.43-3.67,3.87s1.61,3.87,3.67,3.87c1.27,0,2.39-.57,3.15-1.92l3.15,1.72c-1.01,2.24-3.33,3.54-6.27,3.54-4.55,0-7.8-2.99-7.8-7.2Z"/>
    <path d="m754.97,331.07c0-1.27,1.01-2.26,2.52-2.26s2.52.94,2.52,2.18c0,1.35-1.01,2.34-2.52,2.34s-2.52-.99-2.52-2.26Zm.49,4.21h4.06v13.99h-4.06v-13.99Z"/>
    <path d="m762.25,342.28c0-4.21,3.25-7.2,7.7-7.2s7.67,2.99,7.67,7.2-3.22,7.2-7.67,7.2-7.7-2.99-7.7-7.2Zm11.26,0c0-2.42-1.53-3.87-3.56-3.87s-3.59,1.46-3.59,3.87,1.56,3.87,3.59,3.87,3.56-1.46,3.56-3.87Z"/>
    <path d="m794.62,341.26v8.01h-4.06v-7.38c0-2.26-1.04-3.3-2.83-3.3-1.95,0-3.35,1.2-3.35,3.77v6.92h-4.06v-13.99h3.87v1.64c1.09-1.2,2.73-1.85,4.63-1.85,3.3,0,5.8,1.92,5.8,6.19Z"/>
    <path d="m810.66,341.29v7.98h-3.8v-1.74c-.75,1.27-2.21,1.95-4.26,1.95-3.28,0-5.23-1.82-5.23-4.24s1.74-4.19,6.01-4.19h3.22c0-1.74-1.04-2.76-3.22-2.76-1.48,0-3.02.49-4.03,1.3l-1.46-2.83c1.53-1.09,3.8-1.69,6.03-1.69,4.26,0,6.73,1.98,6.73,6.21Zm-4.06,3.56v-1.43h-2.78c-1.9,0-2.5.7-2.5,1.64,0,1.01.86,1.69,2.29,1.69,1.35,0,2.52-.62,2.99-1.9Z"/>
    <path d="m814.33,329.98h4.06v19.29h-4.06v-19.29Z"/>
    <path d="m821.66,347.97c0-.81.62-1.4,1.38-1.4s1.4.6,1.4,1.4-.65,1.43-1.4,1.43-1.38-.62-1.38-1.43Z"/>
  </g>
</svg>