<?xml version="1.0" encoding="UTF-8"?>
<svg id="Layer_1" data-name="Layer 1" xmlns="http://www.w3.org/2000/svg" viewBox="0 0 1342.59 203.29">
  <defs>
    <style>
      .cls-1 {
        fill: #fff;
      }

      .cls-2 {
        fill: none;
        stroke: #017f81;
        stroke-miterlimit: 10;
      }

      .cls-3 {
        fill: #017f81;
      }
    </style>
  </defs>
  <g>
    <rect class="cls-2" x="60.51" y="66.76" width="1262.93" height="113.9"/>
    <rect class="cls-3" x="27.47" y="36.16" width="1277.81" height="131.3"/>
  </g>
  <g>
    <path class="cls-1" d="m65.41,97.1h-1.7l-3.44-7.1h3.05l2.09,7.1Zm5.13,0h-1.7l-3.44-7.1h3.05l2.09,7.1Z"/>
    <path class="cls-1" d="m86.94,109.76h-11.96v-18.9h2.51v16.67h9.45v2.23Z"/>
    <path class="cls-1" d="m101.14,102.92h-10.45c0,.87.13,1.63.39,2.28.26.65.62,1.18,1.08,1.59.44.41.96.71,1.57.91.61.2,1.27.3,2,.3.96,0,1.94-.19,2.91-.58.98-.38,1.67-.76,2.09-1.14h.13v2.6c-.8.34-1.62.62-2.46.85s-1.72.34-2.64.34c-2.35,0-4.19-.64-5.51-1.91-1.32-1.27-1.98-3.08-1.98-5.43s.63-4.16,1.9-5.52c1.26-1.36,2.93-2.04,5-2.04,1.91,0,3.39.56,4.42,1.68,1.04,1.12,1.55,2.7,1.55,4.76v1.29Zm-2.32-1.83c0-1.25-.32-2.22-.95-2.91-.62-.69-1.57-1.03-2.84-1.03s-2.3.38-3.05,1.13c-.76.75-1.19,1.69-1.29,2.81h8.12Z"/>
    <path class="cls-1" d="m107.32,93.21h-2.69v-2.48h2.69v2.48Zm-.15,16.55h-2.39v-14.18h2.39v14.18Z"/>
    <path class="cls-1" d="m131.52,108.87c-.8.38-1.55.68-2.27.89-.71.21-1.47.32-2.28.32-1.02,0-1.96-.15-2.82-.45-.85-.3-1.59-.76-2.2-1.37-.62-.61-1.1-1.38-1.43-2.31s-.51-2.02-.51-3.26c0-2.32.64-4.14,1.91-5.46,1.27-1.32,2.96-1.98,5.05-1.98.81,0,1.61.11,2.39.34.78.23,1.5.51,2.15.84v2.65h-.13c-.73-.57-1.48-1-2.25-1.31-.78-.3-1.53-.46-2.27-.46-1.35,0-2.42.46-3.21,1.37-.78.91-1.17,2.24-1.17,4s.38,3.02,1.15,3.94c.77.92,1.84,1.38,3.23,1.38.48,0,.97-.06,1.47-.19s.95-.29,1.35-.5c.35-.18.67-.37.98-.56.3-.2.55-.37.72-.51h.13v2.63Z"/>
    <path class="cls-1" d="m146.66,102.68c0,2.31-.59,4.13-1.78,5.47s-2.77,2.01-4.76,2.01-3.6-.67-4.78-2.01c-1.18-1.34-1.77-3.16-1.77-5.47s.59-4.14,1.77-5.48c1.18-1.34,2.77-2.01,4.78-2.01s3.58.67,4.76,2.01c1.18,1.34,1.78,3.17,1.78,5.48Zm-2.46,0c0-1.84-.36-3.2-1.08-4.09-.72-.89-1.72-1.34-3-1.34s-2.3.45-3.02,1.34c-.71.89-1.07,2.26-1.07,4.09s.36,3.12,1.08,4.04c.72.92,1.72,1.38,3.01,1.38s2.27-.46,2.99-1.36c.72-.91,1.08-2.26,1.08-4.06Z"/>
    <path class="cls-1" d="m171.05,109.76h-2.39v-8.07c0-.61-.03-1.2-.08-1.76-.05-.57-.17-1.02-.35-1.36-.19-.36-.47-.64-.84-.83s-.89-.28-1.57-.28-1.34.17-2.01.5c-.67.33-1.34.76-2.01,1.28.03.19.05.42.06.68.02.26.03.51.03.77v9.08h-2.39v-8.07c0-.63-.03-1.22-.08-1.78-.06-.56-.17-1.01-.35-1.35-.19-.36-.47-.64-.84-.82-.36-.18-.89-.27-1.57-.27s-1.31.16-1.96.48c-.66.32-1.31.73-1.96,1.23v10.59h-2.39v-14.18h2.39v1.57c.75-.62,1.49-1.1,2.23-1.45.74-.35,1.53-.52,2.37-.52.96,0,1.78.2,2.46.61.67.41,1.17.97,1.5,1.69.96-.81,1.84-1.4,2.64-1.76.8-.36,1.65-.54,2.55-.54,1.56,0,2.71.47,3.45,1.42.74.94,1.11,2.26,1.11,3.95v9.2Z"/>
    <path class="cls-1" d="m188.12,102.5c0,1.15-.17,2.2-.5,3.15-.33.95-.8,1.76-1.4,2.42-.56.63-1.22,1.11-1.97,1.45-.76.34-1.56.51-2.41.51-.74,0-1.4-.08-2-.24-.6-.16-1.2-.41-1.82-.75v5.94h-2.39v-19.41h2.39v1.49c.63-.53,1.35-.98,2.14-1.34.79-.36,1.63-.54,2.53-.54,1.71,0,3.04.65,3.99,1.94.95,1.29,1.43,3.08,1.43,5.38Zm-2.46.06c0-1.71-.29-2.99-.88-3.83s-1.48-1.27-2.69-1.27c-.69,0-1.38.15-2.07.44s-1.36.69-1.99,1.17v8.04c.68.3,1.26.51,1.75.62.49.11,1.04.17,1.66.17,1.33,0,2.37-.45,3.11-1.35s1.12-2.23,1.12-3.99Z"/>
    <path class="cls-1" d="m194.26,109.76h-2.39v-19.75h2.39v19.75Z"/>
    <path class="cls-1" d="m210.85,102.92h-10.45c0,.87.13,1.63.39,2.28.26.65.62,1.18,1.08,1.59.44.41.96.71,1.57.91.61.2,1.27.3,2,.3.96,0,1.94-.19,2.91-.58.98-.38,1.67-.76,2.09-1.14h.13v2.6c-.8.34-1.62.62-2.46.85s-1.72.34-2.64.34c-2.35,0-4.19-.64-5.51-1.91-1.32-1.27-1.98-3.08-1.98-5.43s.63-4.16,1.9-5.52c1.26-1.36,2.93-2.04,5-2.04,1.91,0,3.39.56,4.42,1.68,1.04,1.12,1.55,2.7,1.55,4.76v1.29Zm-2.32-1.83c0-1.25-.32-2.22-.95-2.91-.62-.69-1.57-1.03-2.84-1.03s-2.3.38-3.05,1.13c-.76.75-1.19,1.69-1.29,2.81h8.12Z"/>
    <path class="cls-1" d="m235.16,109.76h-2.39v-8.07c0-.61-.03-1.2-.08-1.76-.05-.57-.17-1.02-.35-1.36-.19-.36-.47-.64-.84-.83s-.89-.28-1.57-.28-1.34.17-2.01.5c-.67.33-1.34.76-2.01,1.28.03.19.05.42.06.68.02.26.03.51.03.77v9.08h-2.39v-8.07c0-.63-.03-1.22-.08-1.78-.06-.56-.17-1.01-.35-1.35-.19-.36-.47-.64-.84-.82-.36-.18-.89-.27-1.57-.27s-1.31.16-1.96.48c-.66.32-1.31.73-1.96,1.23v10.59h-2.39v-14.18h2.39v1.57c.75-.62,1.49-1.1,2.23-1.45.74-.35,1.53-.52,2.37-.52.96,0,1.78.2,2.46.61.67.41,1.17.97,1.5,1.69.96-.81,1.84-1.4,2.64-1.76.8-.36,1.65-.54,2.55-.54,1.56,0,2.71.47,3.45,1.42.74.94,1.11,2.26,1.11,3.95v9.2Z"/>
    <path class="cls-1" d="m251.63,102.92h-10.45c0,.87.13,1.63.39,2.28.26.65.62,1.18,1.08,1.59.44.41.96.71,1.57.91.61.2,1.27.3,2,.3.96,0,1.94-.19,2.91-.58.98-.38,1.67-.76,2.09-1.14h.13v2.6c-.8.34-1.62.62-2.46.85s-1.72.34-2.64.34c-2.35,0-4.19-.64-5.51-1.91-1.32-1.27-1.98-3.08-1.98-5.43s.63-4.16,1.9-5.52c1.26-1.36,2.93-2.04,5-2.04,1.91,0,3.39.56,4.42,1.68,1.04,1.12,1.55,2.7,1.55,4.76v1.29Zm-2.32-1.83c0-1.25-.32-2.22-.95-2.91-.62-.69-1.57-1.03-2.84-1.03s-2.3.38-3.05,1.13c-.76.75-1.19,1.69-1.29,2.81h8.12Z"/>
    <path class="cls-1" d="m267.1,109.76h-2.39v-8.07c0-.65-.04-1.26-.11-1.83-.08-.57-.22-1.02-.42-1.34-.21-.36-.52-.62-.91-.79-.4-.17-.91-.26-1.55-.26s-1.33.16-2.04.48-1.39.73-2.04,1.23v10.59h-2.39v-14.18h2.39v1.57c.75-.62,1.51-1.1,2.31-1.45s1.61-.52,2.45-.52c1.53,0,2.7.46,3.5,1.38s1.21,2.25,1.21,3.99v9.2Z"/>
    <path class="cls-1" d="m279.06,109.63c-.45.12-.94.22-1.47.29-.53.08-1,.11-1.42.11-1.45,0-2.55-.39-3.3-1.17s-1.13-2.03-1.13-3.75v-7.54h-1.61v-2.01h1.61v-4.08h2.39v4.08h4.93v2.01h-4.93v6.46c0,.75.02,1.33.05,1.75.03.42.15.81.36,1.17.19.34.44.59.77.74.33.16.82.24,1.49.24.39,0,.8-.06,1.22-.17.42-.12.73-.21.91-.29h.13v2.15Z"/>
    <path class="cls-1" d="m292.96,109.76h-2.37v-1.51c-.21.14-.5.34-.86.6-.36.26-.71.46-1.05.62-.4.19-.85.36-1.37.49-.52.13-1.12.2-1.82.2-1.28,0-2.36-.42-3.25-1.27s-1.33-1.93-1.33-3.24c0-1.08.23-1.94.69-2.61.46-.66,1.12-1.19,1.97-1.57.86-.38,1.9-.64,3.11-.77s2.51-.24,3.9-.3v-.37c0-.54-.1-.99-.29-1.35-.19-.36-.46-.63-.82-.84-.34-.19-.75-.33-1.22-.39s-.97-.1-1.49-.1c-.63,0-1.32.08-2.09.25-.77.16-1.57.4-2.39.72h-.13v-2.42c.47-.13,1.14-.27,2.02-.42s1.75-.23,2.6-.23c1,0,1.87.08,2.61.25.74.16,1.38.45,1.92.84.53.39.94.89,1.22,1.51s.42,1.38.42,2.3v9.62Zm-2.37-3.49v-3.95c-.73.04-1.58.11-2.57.19-.99.08-1.77.21-2.34.37-.69.19-1.24.5-1.66.91-.42.41-.63.97-.63,1.69,0,.81.25,1.42.74,1.83.49.41,1.24.62,2.25.62.84,0,1.6-.16,2.3-.49.69-.33,1.34-.72,1.93-1.17Z"/>
    <path class="cls-1" d="m306.41,98.18h-.13c-.36-.08-.7-.15-1.04-.18-.33-.04-.73-.06-1.19-.06-.74,0-1.45.16-2.13.49-.69.33-1.35.75-1.98,1.26v10.07h-2.39v-14.18h2.39v2.09c.95-.76,1.78-1.3,2.51-1.62.72-.32,1.46-.48,2.22-.48.42,0,.71.01.9.03.19.02.47.06.84.12v2.45Z"/>
    <path class="cls-1" d="m329.3,109.76h-2.39v-1.49c-.69.59-1.4,1.05-2.15,1.38s-1.55.5-2.42.5c-1.69,0-3.04-.65-4.03-1.96-1-1.3-1.49-3.11-1.49-5.42,0-1.2.17-2.27.51-3.21.34-.94.81-1.74,1.39-2.4.58-.64,1.25-1.13,2.01-1.47.77-.34,1.56-.51,2.38-.51.75,0,1.41.08,1.98.23.58.16,1.18.4,1.82.73v-6.14h2.39v19.75Zm-2.39-3.49v-8.14c-.64-.29-1.22-.49-1.73-.6s-1.06-.17-1.66-.17c-1.34,0-2.38.47-3.12,1.4s-1.12,2.25-1.12,3.96.29,2.96.86,3.84c.58.88,1.5,1.31,2.77,1.31.68,0,1.36-.15,2.06-.45.69-.3,1.34-.69,1.94-1.16Z"/>
    <path class="cls-1" d="m336.56,93.21h-2.69v-2.48h2.69v2.48Zm-.15,16.55h-2.39v-14.18h2.39v14.18Z"/>
    <path class="cls-1" d="m351.26,105.67c0,1.29-.54,2.36-1.61,3.19-1.07.83-2.53,1.24-4.39,1.24-1.05,0-2.01-.12-2.89-.37-.88-.25-1.61-.52-2.2-.82v-2.68h.13c.75.57,1.59,1.02,2.51,1.35.92.33,1.81.5,2.65.5,1.05,0,1.87-.17,2.46-.51s.89-.87.89-1.6c0-.56-.16-.98-.48-1.27s-.94-.53-1.85-.74c-.34-.08-.78-.17-1.33-.27-.54-.1-1.04-.21-1.49-.33-1.24-.33-2.13-.81-2.65-1.45-.52-.64-.78-1.42-.78-2.35,0-.58.12-1.13.36-1.65.24-.52.61-.98,1.1-1.38.47-.4,1.08-.71,1.81-.95.73-.23,1.55-.35,2.46-.35.85,0,1.7.1,2.57.31.87.21,1.59.46,2.17.76v2.55h-.13c-.61-.45-1.35-.83-2.22-1.14-.87-.31-1.73-.46-2.56-.46s-1.61.17-2.21.5c-.6.33-.9.83-.9,1.49,0,.58.18,1.02.55,1.32.36.3.93.54,1.73.72.44.1.93.2,1.48.3.55.1,1,.19,1.37.28,1.11.25,1.96.69,2.56,1.31.6.63.9,1.46.9,2.49Z"/>
    <path class="cls-1" d="m367.15,102.5c0,1.15-.17,2.2-.5,3.15-.33.95-.8,1.76-1.4,2.42-.56.63-1.22,1.11-1.97,1.45-.76.34-1.56.51-2.41.51-.74,0-1.4-.08-2-.24-.6-.16-1.2-.41-1.82-.75v5.94h-2.39v-19.41h2.39v1.49c.63-.53,1.35-.98,2.14-1.34.79-.36,1.63-.54,2.53-.54,1.71,0,3.04.65,3.99,1.94.95,1.29,1.43,3.08,1.43,5.38Zm-2.46.06c0-1.71-.29-2.99-.88-3.83s-1.48-1.27-2.69-1.27c-.69,0-1.38.15-2.07.44s-1.36.69-1.99,1.17v8.04c.68.3,1.26.51,1.75.62.49.11,1.04.17,1.66.17,1.33,0,2.37-.45,3.11-1.35s1.12-2.23,1.12-3.99Z"/>
    <path class="cls-1" d="m382.96,102.68c0,2.31-.59,4.13-1.78,5.47s-2.77,2.01-4.76,2.01-3.6-.67-4.78-2.01c-1.18-1.34-1.77-3.16-1.77-5.47s.59-4.14,1.77-5.48c1.18-1.34,2.77-2.01,4.78-2.01s3.58.67,4.76,2.01c1.18,1.34,1.78,3.17,1.78,5.48Zm-2.46,0c0-1.84-.36-3.2-1.08-4.09-.72-.89-1.72-1.34-3-1.34s-2.3.45-3.02,1.34c-.71.89-1.07,2.26-1.07,4.09s.36,3.12,1.08,4.04c.72.92,1.72,1.38,3.01,1.38s2.27-.46,2.99-1.36c.72-.91,1.08-2.26,1.08-4.06Z"/>
    <path class="cls-1" d="m395.5,98.18h-.13c-.36-.08-.7-.15-1.04-.18-.33-.04-.73-.06-1.19-.06-.74,0-1.45.16-2.13.49-.69.33-1.35.75-1.98,1.26v10.07h-2.39v-14.18h2.39v2.09c.95-.76,1.78-1.3,2.51-1.62.72-.32,1.46-.48,2.22-.48.42,0,.71.01.9.03.19.02.47.06.84.12v2.45Z"/>
    <path class="cls-1" d="m408.77,109.76h-2.37v-1.51c-.21.14-.5.34-.86.6-.36.26-.71.46-1.05.62-.4.19-.85.36-1.37.49-.52.13-1.12.2-1.82.2-1.28,0-2.36-.42-3.25-1.27s-1.33-1.93-1.33-3.24c0-1.08.23-1.94.69-2.61.46-.66,1.12-1.19,1.97-1.57.86-.38,1.9-.64,3.11-.77s2.51-.24,3.9-.3v-.37c0-.54-.1-.99-.29-1.35-.19-.36-.46-.63-.82-.84-.34-.19-.75-.33-1.22-.39s-.97-.1-1.49-.1c-.63,0-1.32.08-2.09.25-.77.16-1.57.4-2.39.72h-.13v-2.42c.47-.13,1.14-.27,2.02-.42s1.75-.23,2.6-.23c1,0,1.87.08,2.61.25.74.16,1.38.45,1.92.84.53.39.94.89,1.22,1.51s.42,1.38.42,2.3v9.62Zm-2.37-3.49v-3.95c-.73.04-1.58.11-2.57.19-.99.08-1.77.21-2.34.37-.69.19-1.24.5-1.66.91-.42.41-.63.97-.63,1.69,0,.81.25,1.42.74,1.83.49.41,1.24.62,2.25.62.84,0,1.6-.16,2.3-.49.69-.33,1.34-.72,1.93-1.17Zm.86-17.79l-3.47,4.75h-1.89l2.27-4.75h3.08Z"/>
    <path class="cls-1" d="m432.64,105.67c0,1.29-.54,2.36-1.61,3.19-1.07.83-2.53,1.24-4.39,1.24-1.05,0-2.01-.12-2.89-.37-.88-.25-1.61-.52-2.2-.82v-2.68h.13c.75.57,1.59,1.02,2.51,1.35.92.33,1.81.5,2.65.5,1.05,0,1.87-.17,2.46-.51s.89-.87.89-1.6c0-.56-.16-.98-.48-1.27s-.94-.53-1.85-.74c-.34-.08-.78-.17-1.33-.27-.54-.1-1.04-.21-1.49-.33-1.24-.33-2.13-.81-2.65-1.45-.52-.64-.78-1.42-.78-2.35,0-.58.12-1.13.36-1.65.24-.52.61-.98,1.1-1.38.47-.4,1.08-.71,1.81-.95.73-.23,1.55-.35,2.46-.35.85,0,1.7.1,2.57.31.87.21,1.59.46,2.17.76v2.55h-.13c-.61-.45-1.35-.83-2.22-1.14-.87-.31-1.73-.46-2.56-.46s-1.61.17-2.21.5c-.6.33-.9.83-.9,1.49,0,.58.18,1.02.55,1.32.36.3.93.54,1.73.72.44.1.93.2,1.48.3.55.1,1,.19,1.37.28,1.11.25,1.96.69,2.56,1.31.6.63.9,1.46.9,2.49Z"/>
    <path class="cls-1" d="m448.14,102.68c0,2.31-.59,4.13-1.78,5.47s-2.77,2.01-4.76,2.01-3.6-.67-4.78-2.01c-1.18-1.34-1.77-3.16-1.77-5.47s.59-4.14,1.77-5.48c1.18-1.34,2.77-2.01,4.78-2.01s3.58.67,4.76,2.01c1.18,1.34,1.78,3.17,1.78,5.48Zm-2.46,0c0-1.84-.36-3.2-1.08-4.09-.72-.89-1.72-1.34-3-1.34s-2.3.45-3.02,1.34c-.71.89-1.07,2.26-1.07,4.09s.36,3.12,1.08,4.04c.72.92,1.72,1.38,3.01,1.38s2.27-.46,2.99-1.36c.72-.91,1.08-2.26,1.08-4.06Z"/>
    <path class="cls-1" d="m464.31,102.56c0,1.18-.17,2.25-.5,3.2-.33.95-.78,1.74-1.35,2.39-.6.67-1.26,1.17-1.98,1.5-.72.33-1.51.5-2.37.5-.8,0-1.51-.09-2.11-.29-.6-.19-1.19-.45-1.78-.77l-.15.66h-2.23v-19.75h2.39v7.06c.67-.55,1.38-1,2.13-1.35.75-.35,1.6-.53,2.54-.53,1.68,0,3,.64,3.97,1.93.97,1.29,1.45,3.1,1.45,5.45Zm-2.46.06c0-1.69-.28-2.98-.84-3.85-.56-.88-1.46-1.31-2.7-1.31-.69,0-1.4.15-2.11.45-.71.3-1.37.69-1.98,1.16v8.12c.68.3,1.26.52,1.75.63.49.12,1.04.18,1.66.18,1.32,0,2.35-.43,3.1-1.3.75-.87,1.12-2.23,1.12-4.08Z"/>
    <path class="cls-1" d="m476.88,98.18h-.13c-.36-.08-.7-.15-1.04-.18-.33-.04-.73-.06-1.19-.06-.74,0-1.45.16-2.13.49-.69.33-1.35.75-1.98,1.26v10.07h-2.39v-14.18h2.39v2.09c.95-.76,1.78-1.3,2.51-1.62.72-.32,1.46-.48,2.22-.48.42,0,.71.01.9.03.19.02.47.06.84.12v2.45Z"/>
    <path class="cls-1" d="m491,102.92h-10.45c0,.87.13,1.63.39,2.28.26.65.62,1.18,1.08,1.59.44.41.96.71,1.57.91.61.2,1.27.3,2,.3.96,0,1.94-.19,2.91-.58.98-.38,1.67-.76,2.09-1.14h.13v2.6c-.8.34-1.62.62-2.46.85s-1.72.34-2.64.34c-2.35,0-4.19-.64-5.51-1.91-1.32-1.27-1.98-3.08-1.98-5.43s.63-4.16,1.9-5.52c1.26-1.36,2.93-2.04,5-2.04,1.91,0,3.39.56,4.42,1.68,1.04,1.12,1.55,2.7,1.55,4.76v1.29Zm-2.32-1.83c0-1.25-.32-2.22-.95-2.91-.62-.69-1.57-1.03-2.84-1.03s-2.3.38-3.05,1.13c-.76.75-1.19,1.69-1.29,2.81h8.12Z"/>
    <path class="cls-1" d="m514.77,109.76h-2.37v-1.51c-.21.14-.5.34-.86.6-.36.26-.71.46-1.05.62-.4.19-.85.36-1.37.49-.52.13-1.12.2-1.82.2-1.28,0-2.36-.42-3.25-1.27s-1.33-1.93-1.33-3.24c0-1.08.23-1.94.69-2.61.46-.66,1.12-1.19,1.97-1.57.86-.38,1.9-.64,3.11-.77s2.51-.24,3.9-.3v-.37c0-.54-.1-.99-.29-1.35-.19-.36-.46-.63-.82-.84-.34-.19-.75-.33-1.22-.39s-.97-.1-1.49-.1c-.63,0-1.32.08-2.09.25-.77.16-1.57.4-2.39.72h-.13v-2.42c.47-.13,1.14-.27,2.02-.42s1.75-.23,2.6-.23c1,0,1.87.08,2.61.25.74.16,1.38.45,1.92.84.53.39.94.89,1.22,1.51s.42,1.38.42,2.3v9.62Zm-2.37-3.49v-3.95c-.73.04-1.58.11-2.57.19-.99.08-1.77.21-2.34.37-.69.19-1.24.5-1.66.91-.42.41-.63.97-.63,1.69,0,.81.25,1.42.74,1.83.49.41,1.24.62,2.25.62.84,0,1.6-.16,2.3-.49.69-.33,1.34-.72,1.93-1.17Z"/>
    <path class="cls-1" d="m540.38,102.92h-10.45c0,.87.13,1.63.39,2.28.26.65.62,1.18,1.08,1.59.44.41.96.71,1.57.91.61.2,1.27.3,2,.3.96,0,1.94-.19,2.91-.58.98-.38,1.67-.76,2.09-1.14h.13v2.6c-.8.34-1.62.62-2.46.85s-1.72.34-2.64.34c-2.35,0-4.19-.64-5.51-1.91-1.32-1.27-1.98-3.08-1.98-5.43s.63-4.16,1.9-5.52c1.26-1.36,2.93-2.04,5-2.04,1.91,0,3.39.56,4.42,1.68,1.04,1.12,1.55,2.7,1.55,4.76v1.29Zm-2.32-1.83c0-1.25-.32-2.22-.95-2.91-.62-.69-1.57-1.03-2.84-1.03s-2.3.38-3.05,1.13c-.76.75-1.19,1.69-1.29,2.81h8.12Z"/>
    <path class="cls-1" d="m546.41,109.76h-2.39v-19.75h2.39v19.75Z"/>
    <path class="cls-1" d="m562.15,109.76h-2.37v-1.51c-.21.14-.5.34-.86.6-.36.26-.71.46-1.05.62-.4.19-.85.36-1.37.49-.52.13-1.12.2-1.82.2-1.28,0-2.36-.42-3.25-1.27s-1.33-1.93-1.33-3.24c0-1.08.23-1.94.69-2.61.46-.66,1.12-1.19,1.97-1.57.86-.38,1.9-.64,3.11-.77s2.51-.24,3.9-.3v-.37c0-.54-.1-.99-.29-1.35-.19-.36-.46-.63-.82-.84-.34-.19-.75-.33-1.22-.39s-.97-.1-1.49-.1c-.63,0-1.32.08-2.09.25-.77.16-1.57.4-2.39.72h-.13v-2.42c.47-.13,1.14-.27,2.02-.42s1.75-.23,2.6-.23c1,0,1.87.08,2.61.25.74.16,1.38.45,1.92.84.53.39.94.89,1.22,1.51s.42,1.38.42,2.3v9.62Zm-2.37-3.49v-3.95c-.73.04-1.58.11-2.57.19-.99.08-1.77.21-2.34.37-.69.19-1.24.5-1.66.91-.42.41-.63.97-.63,1.69,0,.81.25,1.42.74,1.83.49.41,1.24.62,2.25.62.84,0,1.6-.16,2.3-.49.69-.33,1.34-.72,1.93-1.17Z"/>
    <path class="cls-1" d="m579.23,102.56c0,1.18-.17,2.25-.5,3.2-.33.95-.78,1.74-1.35,2.39-.6.67-1.26,1.17-1.98,1.5-.72.33-1.51.5-2.37.5-.8,0-1.51-.09-2.11-.29-.6-.19-1.19-.45-1.78-.77l-.15.66h-2.23v-19.75h2.39v7.06c.67-.55,1.38-1,2.13-1.35.75-.35,1.6-.53,2.54-.53,1.68,0,3,.64,3.97,1.93.97,1.29,1.45,3.1,1.45,5.45Zm-2.46.06c0-1.69-.28-2.98-.84-3.85-.56-.88-1.46-1.31-2.7-1.31-.69,0-1.4.15-2.11.45-.71.3-1.37.69-1.98,1.16v8.12c.68.3,1.26.52,1.75.63.49.12,1.04.18,1.66.18,1.32,0,2.35-.43,3.1-1.3.75-.87,1.12-2.23,1.12-4.08Z"/>
    <path class="cls-1" d="m595.03,102.68c0,2.31-.59,4.13-1.78,5.47s-2.77,2.01-4.76,2.01-3.6-.67-4.78-2.01c-1.18-1.34-1.77-3.16-1.77-5.47s.59-4.14,1.77-5.48c1.18-1.34,2.77-2.01,4.78-2.01s3.58.67,4.76,2.01c1.18,1.34,1.78,3.17,1.78,5.48Zm-2.46,0c0-1.84-.36-3.2-1.08-4.09-.72-.89-1.72-1.34-3-1.34s-2.3.45-3.02,1.34c-.71.89-1.07,2.26-1.07,4.09s.36,3.12,1.08,4.04c.72.92,1.72,1.38,3.01,1.38s2.27-.46,2.99-1.36c.72-.91,1.08-2.26,1.08-4.06Z"/>
    <path class="cls-1" d="m607.58,98.18h-.13c-.36-.08-.7-.15-1.04-.18-.33-.04-.73-.06-1.19-.06-.74,0-1.45.16-2.13.49-.69.33-1.35.75-1.98,1.26v10.07h-2.39v-14.18h2.39v2.09c.95-.76,1.78-1.3,2.51-1.62.72-.32,1.46-.48,2.22-.48.42,0,.71.01.9.03.19.02.47.06.84.12v2.45Z"/>
    <path class="cls-1" d="m620.39,109.76h-2.37v-1.51c-.21.14-.5.34-.86.6-.36.26-.71.46-1.05.62-.4.19-.85.36-1.37.49-.52.13-1.12.2-1.82.2-1.28,0-2.36-.42-3.25-1.27s-1.33-1.93-1.33-3.24c0-1.08.23-1.94.69-2.61.46-.66,1.12-1.19,1.97-1.57.86-.38,1.9-.64,3.11-.77s2.51-.24,3.9-.3v-.37c0-.54-.1-.99-.29-1.35-.19-.36-.46-.63-.82-.84-.34-.19-.75-.33-1.22-.39s-.97-.1-1.49-.1c-.63,0-1.32.08-2.09.25-.77.16-1.57.4-2.39.72h-.13v-2.42c.47-.13,1.14-.27,2.02-.42s1.75-.23,2.6-.23c1,0,1.87.08,2.61.25.74.16,1.38.45,1.92.84.53.39.94.89,1.22,1.51s.42,1.38.42,2.3v9.62Zm-2.37-3.49v-3.95c-.73.04-1.58.11-2.57.19-.99.08-1.77.21-2.34.37-.69.19-1.24.5-1.66.91-.42.41-.63.97-.63,1.69,0,.81.25,1.42.74,1.83.49.41,1.24.62,2.25.62.84,0,1.6-.16,2.3-.49.69-.33,1.34-.72,1.93-1.17Z"/>
    <path class="cls-1" d="m635.47,108.87c-.28.13-.58.26-.91.39-.33.13-.61.24-.86.31.03.16.05.36.07.6.02.24.03.48.03.72,0,1.37-.39,2.42-1.16,3.15-.77.73-1.78,1.09-3.01,1.09-.31,0-.71-.03-1.21-.09s-.93-.14-1.31-.24v-2.03h.11c.22.08.52.18.89.29s.77.17,1.19.17c.88,0,1.53-.17,1.94-.5s.62-.87.62-1.61c0-.19,0-.38-.02-.57-.01-.19-.03-.38-.04-.55-.14.02-.26.03-.39.05-.12.02-.29.03-.5.03-1.02,0-1.96-.15-2.82-.45-.85-.3-1.59-.76-2.2-1.37-.62-.61-1.1-1.38-1.43-2.31s-.51-2.02-.51-3.26c0-2.32.64-4.14,1.91-5.46,1.27-1.32,2.96-1.98,5.05-1.98.81,0,1.61.11,2.39.34.78.23,1.5.51,2.15.84v2.65h-.13c-.73-.57-1.48-1-2.25-1.31-.78-.3-1.53-.46-2.27-.46-1.35,0-2.42.46-3.21,1.37-.78.91-1.17,2.24-1.17,4s.38,3.02,1.15,3.94c.77.92,1.84,1.38,3.23,1.38.48,0,.97-.06,1.47-.19s.95-.29,1.35-.5c.35-.18.67-.37.98-.56.3-.2.55-.37.72-.51h.13v2.63Z"/>
    <path class="cls-1" d="m649.55,109.76h-2.37v-1.51c-.21.14-.5.34-.86.6-.36.26-.71.46-1.05.62-.4.19-.85.36-1.37.49-.52.13-1.12.2-1.82.2-1.28,0-2.36-.42-3.25-1.27s-1.33-1.93-1.33-3.24c0-1.08.23-1.94.69-2.61.46-.66,1.12-1.19,1.97-1.57.86-.38,1.9-.64,3.11-.77s2.51-.24,3.9-.3v-.37c0-.54-.1-.99-.29-1.35-.19-.36-.46-.63-.82-.84-.34-.19-.75-.33-1.22-.39s-.97-.1-1.49-.1c-.63,0-1.32.08-2.09.25-.77.16-1.57.4-2.39.72h-.13v-2.42c.47-.13,1.14-.27,2.02-.42s1.75-.23,2.6-.23c1,0,1.87.08,2.61.25.74.16,1.38.45,1.92.84.53.39.94.89,1.22,1.51s.42,1.38.42,2.3v9.62Zm-.19-20.55c-.09,1.29-.42,2.26-.98,2.91s-1.31.98-2.25.98c-.46,0-.88-.08-1.27-.25-.39-.17-.76-.4-1.1-.72-.4-.36-.73-.64-1.01-.82-.28-.18-.58-.27-.91-.27-.44,0-.77.19-.99.57s-.35.89-.38,1.54h-1.66c.07-1.28.4-2.24,1-2.89s1.34-.98,2.21-.98c.42,0,.83.08,1.22.25.39.16.77.4,1.12.7.4.35.75.61,1.06.78.31.17.6.26.88.26.43,0,.77-.19,1.01-.58.24-.39.37-.88.4-1.47h1.64Zm-2.18,17.06v-3.95c-.73.04-1.58.11-2.57.19-.99.08-1.77.21-2.34.37-.69.19-1.24.5-1.66.91-.42.41-.63.97-.63,1.69,0,.81.25,1.42.74,1.83.49.41,1.24.62,2.25.62.84,0,1.6-.16,2.3-.49.69-.33,1.34-.72,1.93-1.17Z"/>
    <path class="cls-1" d="m666.23,102.68c0,2.31-.59,4.13-1.78,5.47s-2.77,2.01-4.76,2.01-3.6-.67-4.78-2.01c-1.18-1.34-1.77-3.16-1.77-5.47s.59-4.14,1.77-5.48c1.18-1.34,2.77-2.01,4.78-2.01s3.58.67,4.76,2.01c1.18,1.34,1.78,3.17,1.78,5.48Zm-2.46,0c0-1.84-.36-3.2-1.08-4.09-.72-.89-1.72-1.34-3-1.34s-2.3.45-3.02,1.34c-.71.89-1.07,2.26-1.07,4.09s.36,3.12,1.08,4.04c.72.92,1.72,1.38,3.01,1.38s2.27-.46,2.99-1.36c.72-.91,1.08-2.26,1.08-4.06Z"/>
    <path class="cls-1" d="m674.49,106.14l-3.58,8.32h-1.85l2.21-8.32h3.22Z"/>
    <path class="cls-1" d="m696.99,98.18h-.13c-.36-.08-.7-.15-1.04-.18-.33-.04-.73-.06-1.19-.06-.74,0-1.45.16-2.13.49-.69.33-1.35.75-1.98,1.26v10.07h-2.39v-14.18h2.39v2.09c.95-.76,1.78-1.3,2.51-1.62.72-.32,1.46-.48,2.22-.48.42,0,.71.01.9.03.19.02.47.06.84.12v2.45Z"/>
    <path class="cls-1" d="m711.11,102.92h-10.45c0,.87.13,1.63.39,2.28.26.65.62,1.18,1.08,1.59.44.41.96.71,1.57.91.61.2,1.27.3,2,.3.96,0,1.94-.19,2.91-.58.98-.38,1.67-.76,2.09-1.14h.13v2.6c-.8.34-1.62.62-2.46.85s-1.72.34-2.64.34c-2.35,0-4.19-.64-5.51-1.91-1.32-1.27-1.98-3.08-1.98-5.43s.63-4.16,1.9-5.52c1.26-1.36,2.93-2.04,5-2.04,1.91,0,3.39.56,4.42,1.68,1.04,1.12,1.55,2.7,1.55,4.76v1.29Zm-2.32-1.83c0-1.25-.32-2.22-.95-2.91-.62-.69-1.57-1.03-2.84-1.03s-2.3.38-3.05,1.13c-.76.75-1.19,1.69-1.29,2.81h8.12Z"/>
    <path class="cls-1" d="m726.23,109.76h-2.39v-1.49c-.69.59-1.4,1.05-2.15,1.38s-1.55.5-2.42.5c-1.69,0-3.04-.65-4.03-1.96-1-1.3-1.49-3.11-1.49-5.42,0-1.2.17-2.27.51-3.21.34-.94.81-1.74,1.39-2.4.58-.64,1.25-1.13,2.01-1.47.77-.34,1.56-.51,2.38-.51.75,0,1.41.08,1.98.23.58.16,1.18.4,1.82.73v-6.14h2.39v19.75Zm-2.39-3.49v-8.14c-.64-.29-1.22-.49-1.73-.6s-1.06-.17-1.66-.17c-1.34,0-2.38.47-3.12,1.4s-1.12,2.25-1.12,3.96.29,2.96.86,3.84c.58.88,1.5,1.31,2.77,1.31.68,0,1.36-.15,2.06-.45.69-.3,1.34-.69,1.94-1.16Z"/>
    <path class="cls-1" d="m741.94,109.76h-2.37v-1.51c-.21.14-.5.34-.86.6-.36.26-.71.46-1.05.62-.4.19-.85.36-1.37.49-.52.13-1.12.2-1.82.2-1.28,0-2.36-.42-3.25-1.27s-1.33-1.93-1.33-3.24c0-1.08.23-1.94.69-2.61.46-.66,1.12-1.19,1.97-1.57.86-.38,1.9-.64,3.11-.77s2.51-.24,3.9-.3v-.37c0-.54-.1-.99-.29-1.35-.19-.36-.46-.63-.82-.84-.34-.19-.75-.33-1.22-.39s-.97-.1-1.49-.1c-.63,0-1.32.08-2.09.25-.77.16-1.57.4-2.39.72h-.13v-2.42c.47-.13,1.14-.27,2.02-.42s1.75-.23,2.6-.23c1,0,1.87.08,2.61.25.74.16,1.38.45,1.92.84.53.39.94.89,1.22,1.51s.42,1.38.42,2.3v9.62Zm-2.37-3.49v-3.95c-.73.04-1.58.11-2.57.19-.99.08-1.77.21-2.34.37-.69.19-1.24.5-1.66.91-.42.41-.63.97-.63,1.69,0,.81.25,1.42.74,1.83.49.41,1.24.62,2.25.62.84,0,1.6-.16,2.3-.49.69-.33,1.34-.72,1.93-1.17Z"/>
    <path class="cls-1" d="m757.03,108.87c-.28.13-.58.26-.91.39-.33.13-.61.24-.86.31.03.16.05.36.07.6.02.24.03.48.03.72,0,1.37-.39,2.42-1.16,3.15-.77.73-1.78,1.09-3.01,1.09-.31,0-.71-.03-1.21-.09s-.93-.14-1.31-.24v-2.03h.11c.22.08.52.18.89.29s.77.17,1.19.17c.88,0,1.53-.17,1.94-.5s.62-.87.62-1.61c0-.19,0-.38-.02-.57-.01-.19-.03-.38-.04-.55-.14.02-.26.03-.39.05-.12.02-.29.03-.5.03-1.02,0-1.96-.15-2.82-.45-.85-.3-1.59-.76-2.2-1.37-.62-.61-1.1-1.38-1.43-2.31s-.51-2.02-.51-3.26c0-2.32.64-4.14,1.91-5.46,1.27-1.32,2.96-1.98,5.05-1.98.81,0,1.61.11,2.39.34.78.23,1.5.51,2.15.84v2.65h-.13c-.73-.57-1.48-1-2.25-1.31-.78-.3-1.53-.46-2.27-.46-1.35,0-2.42.46-3.21,1.37-.78.91-1.17,2.24-1.17,4s.38,3.02,1.15,3.94c.77.92,1.84,1.38,3.23,1.38.48,0,.97-.06,1.47-.19s.95-.29,1.35-.5c.35-.18.67-.37.98-.56.3-.2.55-.37.72-.51h.13v2.63Z"/>
    <path class="cls-1" d="m771.11,109.76h-2.37v-1.51c-.21.14-.5.34-.86.6-.36.26-.71.46-1.05.62-.4.19-.85.36-1.37.49-.52.13-1.12.2-1.82.2-1.28,0-2.36-.42-3.25-1.27s-1.33-1.93-1.33-3.24c0-1.08.23-1.94.69-2.61.46-.66,1.12-1.19,1.97-1.57.86-.38,1.9-.64,3.11-.77s2.51-.24,3.9-.3v-.37c0-.54-.1-.99-.29-1.35-.19-.36-.46-.63-.82-.84-.34-.19-.75-.33-1.22-.39s-.97-.1-1.49-.1c-.63,0-1.32.08-2.09.25-.77.16-1.57.4-2.39.72h-.13v-2.42c.47-.13,1.14-.27,2.02-.42s1.75-.23,2.6-.23c1,0,1.87.08,2.61.25.74.16,1.38.45,1.92.84.53.39.94.89,1.22,1.51s.42,1.38.42,2.3v9.62Zm-.19-20.55c-.09,1.29-.42,2.26-.98,2.91s-1.31.98-2.25.98c-.46,0-.88-.08-1.27-.25-.39-.17-.76-.4-1.1-.72-.4-.36-.73-.64-1.01-.82-.28-.18-.58-.27-.91-.27-.44,0-.77.19-.99.57s-.35.89-.38,1.54h-1.66c.07-1.28.4-2.24,1-2.89s1.34-.98,2.21-.98c.42,0,.83.08,1.22.25.39.16.77.4,1.12.7.4.35.75.61,1.06.78.31.17.6.26.88.26.43,0,.77-.19,1.01-.58.24-.39.37-.88.4-1.47h1.64Zm-2.18,17.06v-3.95c-.73.04-1.58.11-2.57.19-.99.08-1.77.21-2.34.37-.69.19-1.24.5-1.66.91-.42.41-.63.97-.63,1.69,0,.81.25,1.42.74,1.83.49.41,1.24.62,2.25.62.84,0,1.6-.16,2.3-.49.69-.33,1.34-.72,1.93-1.17Z"/>
    <path class="cls-1" d="m787.79,102.68c0,2.31-.59,4.13-1.78,5.47s-2.77,2.01-4.76,2.01-3.6-.67-4.78-2.01c-1.18-1.34-1.77-3.16-1.77-5.47s.59-4.14,1.77-5.48c1.18-1.34,2.77-2.01,4.78-2.01s3.58.67,4.76,2.01c1.18,1.34,1.78,3.17,1.78,5.48Zm-2.46,0c0-1.84-.36-3.2-1.08-4.09-.72-.89-1.72-1.34-3-1.34s-2.3.45-3.02,1.34c-.71.89-1.07,2.26-1.07,4.09s.36,3.12,1.08,4.04c.72.92,1.72,1.38,3.01,1.38s2.27-.46,2.99-1.36c.72-.91,1.08-2.26,1.08-4.06Z"/>
    <path class="cls-1" d="m796.05,106.14l-3.58,8.32h-1.85l2.21-8.32h3.22Z"/>
    <path class="cls-1" d="m820.72,109.76h-2.37v-1.51c-.21.14-.5.34-.86.6-.36.26-.71.46-1.05.62-.4.19-.85.36-1.37.49-.52.13-1.12.2-1.82.2-1.28,0-2.36-.42-3.25-1.27s-1.33-1.93-1.33-3.24c0-1.08.23-1.94.69-2.61.46-.66,1.12-1.19,1.97-1.57.86-.38,1.9-.64,3.11-.77s2.51-.24,3.9-.3v-.37c0-.54-.1-.99-.29-1.35-.19-.36-.46-.63-.82-.84-.34-.19-.75-.33-1.22-.39s-.97-.1-1.49-.1c-.63,0-1.32.08-2.09.25-.77.16-1.57.4-2.39.72h-.13v-2.42c.47-.13,1.14-.27,2.02-.42s1.75-.23,2.6-.23c1,0,1.87.08,2.61.25.74.16,1.38.45,1.92.84.53.39.94.89,1.22,1.51s.42,1.38.42,2.3v9.62Zm-2.37-3.49v-3.95c-.73.04-1.58.11-2.57.19-.99.08-1.77.21-2.34.37-.69.19-1.24.5-1.66.91-.42.41-.63.97-.63,1.69,0,.81.25,1.42.74,1.83.49.41,1.24.62,2.25.62.84,0,1.6-.16,2.3-.49.69-.33,1.34-.72,1.93-1.17Z"/>
    <path class="cls-1" d="m827.73,109.76h-2.39v-19.75h2.39v19.75Z"/>
    <path class="cls-1" d="m839.81,109.63c-.45.12-.94.22-1.47.29-.53.08-1,.11-1.42.11-1.45,0-2.55-.39-3.3-1.17s-1.13-2.03-1.13-3.75v-7.54h-1.61v-2.01h1.61v-4.08h2.39v4.08h4.93v2.01h-4.93v6.46c0,.75.02,1.33.05,1.75.03.42.15.81.36,1.17.19.34.44.59.77.74.33.16.82.24,1.49.24.39,0,.8-.06,1.22-.17.42-.12.73-.21.91-.29h.13v2.15Z"/>
    <path class="cls-1" d="m854.56,102.92h-10.45c0,.87.13,1.63.39,2.28.26.65.62,1.18,1.08,1.59.44.41.96.71,1.57.91.61.2,1.27.3,2,.3.96,0,1.94-.19,2.91-.58.98-.38,1.67-.76,2.09-1.14h.13v2.6c-.8.34-1.62.62-2.46.85s-1.72.34-2.64.34c-2.35,0-4.19-.64-5.51-1.91-1.32-1.27-1.98-3.08-1.98-5.43s.63-4.16,1.9-5.52c1.26-1.36,2.93-2.04,5-2.04,1.91,0,3.39.56,4.42,1.68,1.04,1.12,1.55,2.7,1.55,4.76v1.29Zm-2.32-1.83c0-1.25-.32-2.22-.95-2.91-.62-.69-1.57-1.03-2.84-1.03s-2.3.38-3.05,1.13c-.76.75-1.19,1.69-1.29,2.81h8.12Z"/>
    <path class="cls-1" d="m867.03,98.18h-.13c-.36-.08-.7-.15-1.04-.18-.33-.04-.73-.06-1.19-.06-.74,0-1.45.16-2.13.49-.69.33-1.35.75-1.98,1.26v10.07h-2.39v-14.18h2.39v2.09c.95-.76,1.78-1.3,2.51-1.62.72-.32,1.46-.48,2.22-.48.42,0,.71.01.9.03.19.02.47.06.84.12v2.45Z"/>
    <path class="cls-1" d="m879.84,109.76h-2.37v-1.51c-.21.14-.5.34-.86.6-.36.26-.71.46-1.05.62-.4.19-.85.36-1.37.49-.52.13-1.12.2-1.82.2-1.28,0-2.36-.42-3.25-1.27s-1.33-1.93-1.33-3.24c0-1.08.23-1.94.69-2.61.46-.66,1.12-1.19,1.97-1.57.86-.38,1.9-.64,3.11-.77s2.51-.24,3.9-.3v-.37c0-.54-.1-.99-.29-1.35-.19-.36-.46-.63-.82-.84-.34-.19-.75-.33-1.22-.39s-.97-.1-1.49-.1c-.63,0-1.32.08-2.09.25-.77.16-1.57.4-2.39.72h-.13v-2.42c.47-.13,1.14-.27,2.02-.42s1.75-.23,2.6-.23c1,0,1.87.08,2.61.25.74.16,1.38.45,1.92.84.53.39.94.89,1.22,1.51s.42,1.38.42,2.3v9.62Zm-2.37-3.49v-3.95c-.73.04-1.58.11-2.57.19-.99.08-1.77.21-2.34.37-.69.19-1.24.5-1.66.91-.42.41-.63.97-.63,1.69,0,.81.25,1.42.74,1.83.49.41,1.24.62,2.25.62.84,0,1.6-.16,2.3-.49.69-.33,1.34-.72,1.93-1.17Z"/>
    <path class="cls-1" d="m894.92,108.87c-.28.13-.58.26-.91.39-.33.13-.61.24-.86.31.03.16.05.36.07.6.02.24.03.48.03.72,0,1.37-.39,2.42-1.16,3.15-.77.73-1.78,1.09-3.01,1.09-.31,0-.71-.03-1.21-.09s-.93-.14-1.31-.24v-2.03h.11c.22.08.52.18.89.29s.77.17,1.19.17c.88,0,1.53-.17,1.94-.5s.62-.87.62-1.61c0-.19,0-.38-.02-.57-.01-.19-.03-.38-.04-.55-.14.02-.26.03-.39.05-.12.02-.29.03-.5.03-1.02,0-1.96-.15-2.82-.45-.85-.3-1.59-.76-2.2-1.37-.62-.61-1.1-1.38-1.43-2.31s-.51-2.02-.51-3.26c0-2.32.64-4.14,1.91-5.46,1.27-1.32,2.96-1.98,5.05-1.98.81,0,1.61.11,2.39.34.78.23,1.5.51,2.15.84v2.65h-.13c-.73-.57-1.48-1-2.25-1.31-.78-.3-1.53-.46-2.27-.46-1.35,0-2.42.46-3.21,1.37-.78.91-1.17,2.24-1.17,4s.38,3.02,1.15,3.94c.77.92,1.84,1.38,3.23,1.38.48,0,.97-.06,1.47-.19s.95-.29,1.35-.5c.35-.18.67-.37.98-.56.3-.2.55-.37.72-.51h.13v2.63Z"/>
    <path class="cls-1" d="m909,109.76h-2.37v-1.51c-.21.14-.5.34-.86.6-.36.26-.71.46-1.05.62-.4.19-.85.36-1.37.49-.52.13-1.12.2-1.82.2-1.28,0-2.36-.42-3.25-1.27s-1.33-1.93-1.33-3.24c0-1.08.23-1.94.69-2.61.46-.66,1.12-1.19,1.97-1.57.86-.38,1.9-.64,3.11-.77s2.51-.24,3.9-.3v-.37c0-.54-.1-.99-.29-1.35-.19-.36-.46-.63-.82-.84-.34-.19-.75-.33-1.22-.39s-.97-.1-1.49-.1c-.63,0-1.32.08-2.09.25-.77.16-1.57.4-2.39.72h-.13v-2.42c.47-.13,1.14-.27,2.02-.42s1.75-.23,2.6-.23c1,0,1.87.08,2.61.25.74.16,1.38.45,1.92.84.53.39.94.89,1.22,1.51s.42,1.38.42,2.3v9.62Zm-.19-20.55c-.09,1.29-.42,2.26-.98,2.91s-1.31.98-2.25.98c-.46,0-.88-.08-1.27-.25-.39-.17-.76-.4-1.1-.72-.4-.36-.73-.64-1.01-.82-.28-.18-.58-.27-.91-.27-.44,0-.77.19-.99.57s-.35.89-.38,1.54h-1.66c.07-1.28.4-2.24,1-2.89s1.34-.98,2.21-.98c.42,0,.83.08,1.22.25.39.16.77.4,1.12.7.4.35.75.61,1.06.78.31.17.6.26.88.26.43,0,.77-.19,1.01-.58.24-.39.37-.88.4-1.47h1.64Zm-2.18,17.06v-3.95c-.73.04-1.58.11-2.57.19-.99.08-1.77.21-2.34.37-.69.19-1.24.5-1.66.91-.42.41-.63.97-.63,1.69,0,.81.25,1.42.74,1.83.49.41,1.24.62,2.25.62.84,0,1.6-.16,2.3-.49.69-.33,1.34-.72,1.93-1.17Z"/>
    <path class="cls-1" d="m925.68,102.68c0,2.31-.59,4.13-1.78,5.47s-2.77,2.01-4.76,2.01-3.6-.67-4.78-2.01c-1.18-1.34-1.77-3.16-1.77-5.47s.59-4.14,1.77-5.48c1.18-1.34,2.77-2.01,4.78-2.01s3.58.67,4.76,2.01c1.18,1.34,1.78,3.17,1.78,5.48Zm-2.46,0c0-1.84-.36-3.2-1.08-4.09-.72-.89-1.72-1.34-3-1.34s-2.3.45-3.02,1.34c-.71.89-1.07,2.26-1.07,4.09s.36,3.12,1.08,4.04c.72.92,1.72,1.38,3.01,1.38s2.27-.46,2.99-1.36c.72-.91,1.08-2.26,1.08-4.06Z"/>
    <path class="cls-1" d="m950.39,102.92h-10.45c0,.87.13,1.63.39,2.28.26.65.62,1.18,1.08,1.59.44.41.96.71,1.57.91.61.2,1.27.3,2,.3.96,0,1.94-.19,2.91-.58.98-.38,1.67-.76,2.09-1.14h.13v2.6c-.8.34-1.62.62-2.46.85s-1.72.34-2.64.34c-2.35,0-4.19-.64-5.51-1.91-1.32-1.27-1.98-3.08-1.98-5.43s.63-4.16,1.9-5.52c1.26-1.36,2.93-2.04,5-2.04,1.91,0,3.39.56,4.42,1.68,1.04,1.12,1.55,2.7,1.55,4.76v1.29Zm-2.32-1.83c0-1.25-.32-2.22-.95-2.91-.62-.69-1.57-1.03-2.84-1.03s-2.3.38-3.05,1.13c-.76.75-1.19,1.69-1.29,2.81h8.12Z"/>
    <path class="cls-1" d="m973.63,108.87c-.8.38-1.55.68-2.27.89-.71.21-1.47.32-2.28.32-1.02,0-1.96-.15-2.82-.45-.85-.3-1.59-.76-2.2-1.37-.62-.61-1.1-1.38-1.43-2.31s-.51-2.02-.51-3.26c0-2.32.64-4.14,1.91-5.46,1.27-1.32,2.96-1.98,5.05-1.98.81,0,1.61.11,2.39.34.78.23,1.5.51,2.15.84v2.65h-.13c-.73-.57-1.48-1-2.25-1.31-.78-.3-1.53-.46-2.27-.46-1.35,0-2.42.46-3.21,1.37-.78.91-1.17,2.24-1.17,4s.38,3.02,1.15,3.94c.77.92,1.84,1.38,3.23,1.38.48,0,.97-.06,1.47-.19s.95-.29,1.35-.5c.35-.18.67-.37.98-.56.3-.2.55-.37.72-.51h.13v2.63Z"/>
    <path class="cls-1" d="m988.78,102.68c0,2.31-.59,4.13-1.78,5.47s-2.77,2.01-4.76,2.01-3.6-.67-4.78-2.01c-1.18-1.34-1.77-3.16-1.77-5.47s.59-4.14,1.77-5.48c1.18-1.34,2.77-2.01,4.78-2.01s3.58.67,4.76,2.01c1.18,1.34,1.78,3.17,1.78,5.48Zm-2.46,0c0-1.84-.36-3.2-1.08-4.09-.72-.89-1.72-1.34-3-1.34s-2.3.45-3.02,1.34c-.71.89-1.07,2.26-1.07,4.09s.36,3.12,1.08,4.04c.72.92,1.72,1.38,3.01,1.38s2.27-.46,2.99-1.36c.72-.91,1.08-2.26,1.08-4.06Z"/>
    <path class="cls-1" d="m1004.33,109.76h-2.39v-8.07c0-.65-.04-1.26-.11-1.83-.08-.57-.22-1.02-.42-1.34-.21-.36-.52-.62-.91-.79-.4-.17-.91-.26-1.55-.26s-1.33.16-2.04.48-1.39.73-2.04,1.23v10.59h-2.39v-14.18h2.39v1.57c.75-.62,1.51-1.1,2.31-1.45s1.61-.52,2.45-.52c1.53,0,2.7.46,3.5,1.38s1.21,2.25,1.21,3.99v9.2Z"/>
    <path class="cls-1" d="m1019.06,105.67c0,1.29-.54,2.36-1.61,3.19-1.07.83-2.53,1.24-4.39,1.24-1.05,0-2.01-.12-2.89-.37-.88-.25-1.61-.52-2.2-.82v-2.68h.13c.75.57,1.59,1.02,2.51,1.35.92.33,1.81.5,2.65.5,1.05,0,1.87-.17,2.46-.51s.89-.87.89-1.6c0-.56-.16-.98-.48-1.27s-.94-.53-1.85-.74c-.34-.08-.78-.17-1.33-.27-.54-.1-1.04-.21-1.49-.33-1.24-.33-2.13-.81-2.65-1.45-.52-.64-.78-1.42-.78-2.35,0-.58.12-1.13.36-1.65.24-.52.61-.98,1.1-1.38.47-.4,1.08-.71,1.81-.95.73-.23,1.55-.35,2.46-.35.85,0,1.7.1,2.57.31.87.21,1.59.46,2.17.76v2.55h-.13c-.61-.45-1.35-.83-2.22-1.14-.87-.31-1.73-.46-2.56-.46s-1.61.17-2.21.5c-.6.33-.9.83-.9,1.49,0,.58.18,1.02.55,1.32.36.3.93.54,1.73.72.44.1.93.2,1.48.3.55.1,1,.19,1.37.28,1.11.25,1.96.69,2.56,1.31.6.63.9,1.46.9,2.49Z"/>
    <path class="cls-1" d="m1034.56,102.68c0,2.31-.59,4.13-1.78,5.47s-2.77,2.01-4.76,2.01-3.6-.67-4.78-2.01c-1.18-1.34-1.77-3.16-1.77-5.47s.59-4.14,1.77-5.48c1.18-1.34,2.77-2.01,4.78-2.01s3.58.67,4.76,2.01c1.18,1.34,1.78,3.17,1.78,5.48Zm-2.46,0c0-1.84-.36-3.2-1.08-4.09-.72-.89-1.72-1.34-3-1.34s-2.3.45-3.02,1.34c-.71.89-1.07,2.26-1.07,4.09s.36,3.12,1.08,4.04c.72.92,1.72,1.38,3.01,1.38s2.27-.46,2.99-1.36c.72-.91,1.08-2.26,1.08-4.06Z"/>
    <path class="cls-1" d="m1040.67,109.76h-2.39v-19.75h2.39v19.75Z"/>
    <path class="cls-1" d="m1047.95,93.21h-2.69v-2.48h2.69v2.48Zm-.15,16.55h-2.39v-14.18h2.39v14.18Z"/>
    <path class="cls-1" d="m1064.02,109.76h-2.39v-1.49c-.69.59-1.4,1.05-2.15,1.38s-1.55.5-2.42.5c-1.69,0-3.04-.65-4.03-1.96-1-1.3-1.49-3.11-1.49-5.42,0-1.2.17-2.27.51-3.21.34-.94.81-1.74,1.39-2.4.58-.64,1.25-1.13,2.01-1.47.77-.34,1.56-.51,2.38-.51.75,0,1.41.08,1.98.23.58.16,1.18.4,1.82.73v-6.14h2.39v19.75Zm-2.39-3.49v-8.14c-.64-.29-1.22-.49-1.73-.6s-1.06-.17-1.66-.17c-1.34,0-2.38.47-3.12,1.4s-1.12,2.25-1.12,3.96.29,2.96.86,3.84c.58.88,1.5,1.31,2.77,1.31.68,0,1.36-.15,2.06-.45.69-.3,1.34-.69,1.94-1.16Z"/>
    <path class="cls-1" d="m1079.74,109.76h-2.37v-1.51c-.21.14-.5.34-.86.6-.36.26-.71.46-1.05.62-.4.19-.85.36-1.37.49-.52.13-1.12.2-1.82.2-1.28,0-2.36-.42-3.25-1.27s-1.33-1.93-1.33-3.24c0-1.08.23-1.94.69-2.61.46-.66,1.12-1.19,1.97-1.57.86-.38,1.9-.64,3.11-.77s2.51-.24,3.9-.3v-.37c0-.54-.1-.99-.29-1.35-.19-.36-.46-.63-.82-.84-.34-.19-.75-.33-1.22-.39s-.97-.1-1.49-.1c-.63,0-1.32.08-2.09.25-.77.16-1.57.4-2.39.72h-.13v-2.42c.47-.13,1.14-.27,2.02-.42s1.75-.23,2.6-.23c1,0,1.87.08,2.61.25.74.16,1.38.45,1.92.84.53.39.94.89,1.22,1.51s.42,1.38.42,2.3v9.62Zm-2.37-3.49v-3.95c-.73.04-1.58.11-2.57.19-.99.08-1.77.21-2.34.37-.69.19-1.24.5-1.66.91-.42.41-.63.97-.63,1.69,0,.81.25,1.42.74,1.83.49.41,1.24.62,2.25.62.84,0,1.6-.16,2.3-.49.69-.33,1.34-.72,1.93-1.17Z"/>
    <path class="cls-1" d="m1094.82,108.87c-.28.13-.58.26-.91.39-.33.13-.61.24-.86.31.03.16.05.36.07.6.02.24.03.48.03.72,0,1.37-.39,2.42-1.16,3.15-.77.73-1.78,1.09-3.01,1.09-.31,0-.71-.03-1.21-.09s-.93-.14-1.31-.24v-2.03h.11c.22.08.52.18.89.29s.77.17,1.19.17c.88,0,1.53-.17,1.94-.5s.62-.87.62-1.61c0-.19,0-.38-.02-.57-.01-.19-.03-.38-.04-.55-.14.02-.26.03-.39.05-.12.02-.29.03-.5.03-1.02,0-1.96-.15-2.82-.45-.85-.3-1.59-.76-2.2-1.37-.62-.61-1.1-1.38-1.43-2.31s-.51-2.02-.51-3.26c0-2.32.64-4.14,1.91-5.46,1.27-1.32,2.96-1.98,5.05-1.98.81,0,1.61.11,2.39.34.78.23,1.5.51,2.15.84v2.65h-.13c-.73-.57-1.48-1-2.25-1.31-.78-.3-1.53-.46-2.27-.46-1.35,0-2.42.46-3.21,1.37-.78.91-1.17,2.24-1.17,4s.38,3.02,1.15,3.94c.77.92,1.84,1.38,3.23,1.38.48,0,.97-.06,1.47-.19s.95-.29,1.35-.5c.35-.18.67-.37.98-.56.3-.2.55-.37.72-.51h.13v2.63Z"/>
    <path class="cls-1" d="m1108.9,109.76h-2.37v-1.51c-.21.14-.5.34-.86.6-.36.26-.71.46-1.05.62-.4.19-.85.36-1.37.49-.52.13-1.12.2-1.82.2-1.28,0-2.36-.42-3.25-1.27s-1.33-1.93-1.33-3.24c0-1.08.23-1.94.69-2.61.46-.66,1.12-1.19,1.97-1.57.86-.38,1.9-.64,3.11-.77s2.51-.24,3.9-.3v-.37c0-.54-.1-.99-.29-1.35-.19-.36-.46-.63-.82-.84-.34-.19-.75-.33-1.22-.39s-.97-.1-1.49-.1c-.63,0-1.32.08-2.09.25-.77.16-1.57.4-2.39.72h-.13v-2.42c.47-.13,1.14-.27,2.02-.42s1.75-.23,2.6-.23c1,0,1.87.08,2.61.25.74.16,1.38.45,1.92.84.53.39.94.89,1.22,1.51s.42,1.38.42,2.3v9.62Zm-.19-20.55c-.09,1.29-.42,2.26-.98,2.91s-1.31.98-2.25.98c-.46,0-.88-.08-1.27-.25-.39-.17-.76-.4-1.1-.72-.4-.36-.73-.64-1.01-.82-.28-.18-.58-.27-.91-.27-.44,0-.77.19-.99.57s-.35.89-.38,1.54h-1.66c.07-1.28.4-2.24,1-2.89s1.34-.98,2.21-.98c.42,0,.83.08,1.22.25.39.16.77.4,1.12.7.4.35.75.61,1.06.78.31.17.6.26.88.26.43,0,.77-.19,1.01-.58.24-.39.37-.88.4-1.47h1.64Zm-2.18,17.06v-3.95c-.73.04-1.58.11-2.57.19-.99.08-1.77.21-2.34.37-.69.19-1.24.5-1.66.91-.42.41-.63.97-.63,1.69,0,.81.25,1.42.74,1.83.49.41,1.24.62,2.25.62.84,0,1.6-.16,2.3-.49.69-.33,1.34-.72,1.93-1.17Z"/>
    <path class="cls-1" d="m1125.58,102.68c0,2.31-.59,4.13-1.78,5.47s-2.77,2.01-4.76,2.01-3.6-.67-4.78-2.01c-1.18-1.34-1.77-3.16-1.77-5.47s.59-4.14,1.77-5.48c1.18-1.34,2.77-2.01,4.78-2.01s3.58.67,4.76,2.01c1.18,1.34,1.78,3.17,1.78,5.48Zm-2.46,0c0-1.84-.36-3.2-1.08-4.09-.72-.89-1.72-1.34-3-1.34s-2.3.45-3.02,1.34c-.71.89-1.07,2.26-1.07,4.09s.36,3.12,1.08,4.04c.72.92,1.72,1.38,3.01,1.38s2.27-.46,2.99-1.36c.72-.91,1.08-2.26,1.08-4.06Z"/>
    <path class="cls-1" d="m1149.92,109.76h-2.39v-1.49c-.69.59-1.4,1.05-2.15,1.38s-1.55.5-2.42.5c-1.69,0-3.04-.65-4.03-1.96-1-1.3-1.49-3.11-1.49-5.42,0-1.2.17-2.27.51-3.21.34-.94.81-1.74,1.39-2.4.58-.64,1.25-1.13,2.01-1.47.77-.34,1.56-.51,2.38-.51.75,0,1.41.08,1.98.23.58.16,1.18.4,1.82.73v-6.14h2.39v19.75Zm-2.39-3.49v-8.14c-.64-.29-1.22-.49-1.73-.6s-1.06-.17-1.66-.17c-1.34,0-2.38.47-3.12,1.4s-1.12,2.25-1.12,3.96.29,2.96.86,3.84c.58.88,1.5,1.31,2.77,1.31.68,0,1.36-.15,2.06-.45.69-.3,1.34-.69,1.94-1.16Z"/>
    <path class="cls-1" d="m1165.64,109.76h-2.37v-1.51c-.21.14-.5.34-.86.6-.36.26-.71.46-1.05.62-.4.19-.85.36-1.37.49-.52.13-1.12.2-1.82.2-1.28,0-2.36-.42-3.25-1.27s-1.33-1.93-1.33-3.24c0-1.08.23-1.94.69-2.61.46-.66,1.12-1.19,1.97-1.57.86-.38,1.9-.64,3.11-.77s2.51-.24,3.9-.3v-.37c0-.54-.1-.99-.29-1.35-.19-.36-.46-.63-.82-.84-.34-.19-.75-.33-1.22-.39s-.97-.1-1.49-.1c-.63,0-1.32.08-2.09.25-.77.16-1.57.4-2.39.72h-.13v-2.42c.47-.13,1.14-.27,2.02-.42s1.75-.23,2.6-.23c1,0,1.87.08,2.61.25.74.16,1.38.45,1.92.84.53.39.94.89,1.22,1.51s.42,1.38.42,2.3v9.62Zm-2.37-3.49v-3.95c-.73.04-1.58.11-2.57.19-.99.08-1.77.21-2.34.37-.69.19-1.24.5-1.66.91-.42.41-.63.97-.63,1.69,0,.81.25,1.42.74,1.83.49.41,1.24.62,2.25.62.84,0,1.6-.16,2.3-.49.69-.33,1.34-.72,1.93-1.17Z"/>
    <path class="cls-1" d="m1180.36,105.67c0,1.29-.54,2.36-1.61,3.19-1.07.83-2.53,1.24-4.39,1.24-1.05,0-2.01-.12-2.89-.37-.88-.25-1.61-.52-2.2-.82v-2.68h.13c.75.57,1.59,1.02,2.51,1.35.92.33,1.81.5,2.65.5,1.05,0,1.87-.17,2.46-.51s.89-.87.89-1.6c0-.56-.16-.98-.48-1.27s-.94-.53-1.85-.74c-.34-.08-.78-.17-1.33-.27-.54-.1-1.04-.21-1.49-.33-1.24-.33-2.13-.81-2.65-1.45-.52-.64-.78-1.42-.78-2.35,0-.58.12-1.13.36-1.65.24-.52.61-.98,1.1-1.38.47-.4,1.08-.71,1.81-.95.73-.23,1.55-.35,2.46-.35.85,0,1.7.1,2.57.31.87.21,1.59.46,2.17.76v2.55h-.13c-.61-.45-1.35-.83-2.22-1.14-.87-.31-1.73-.46-2.56-.46s-1.61.17-2.21.5c-.6.33-.9.83-.9,1.49,0,.58.18,1.02.55,1.32.36.3.93.54,1.73.72.44.1.93.2,1.48.3.55.1,1,.19,1.37.28,1.11.25,1.96.69,2.56,1.31.6.63.9,1.46.9,2.49Z"/>
    <path class="cls-1" d="m1195.33,109.76h-2.39v-19.75h2.39v19.75Z"/>
    <path class="cls-1" d="m1211.93,102.92h-10.45c0,.87.13,1.63.39,2.28.26.65.62,1.18,1.08,1.59.44.41.96.71,1.57.91.61.2,1.27.3,2,.3.96,0,1.94-.19,2.91-.58.98-.38,1.67-.76,2.09-1.14h.13v2.6c-.8.34-1.62.62-2.46.85s-1.72.34-2.64.34c-2.35,0-4.19-.64-5.51-1.91-1.32-1.27-1.98-3.08-1.98-5.43s.63-4.16,1.9-5.52c1.26-1.36,2.93-2.04,5-2.04,1.91,0,3.39.56,4.42,1.68,1.04,1.12,1.55,2.7,1.55,4.76v1.29Zm-2.32-1.83c0-1.25-.32-2.22-.95-2.91-.62-.69-1.57-1.03-2.84-1.03s-2.3.38-3.05,1.13c-.76.75-1.19,1.69-1.29,2.81h8.12Z"/>
    <path class="cls-1" d="m1218.11,93.21h-2.69v-2.48h2.69v2.48Zm-.15,16.55h-2.39v-14.18h2.39v14.18Z"/>
    <path class="cls-1" d="m1232.81,105.67c0,1.29-.54,2.36-1.61,3.19-1.07.83-2.53,1.24-4.39,1.24-1.05,0-2.01-.12-2.89-.37-.88-.25-1.61-.52-2.2-.82v-2.68h.13c.75.57,1.59,1.02,2.51,1.35.92.33,1.81.5,2.65.5,1.05,0,1.87-.17,2.46-.51s.89-.87.89-1.6c0-.56-.16-.98-.48-1.27s-.94-.53-1.85-.74c-.34-.08-.78-.17-1.33-.27-.54-.1-1.04-.21-1.49-.33-1.24-.33-2.13-.81-2.65-1.45-.52-.64-.78-1.42-.78-2.35,0-.58.12-1.13.36-1.65.24-.52.61-.98,1.1-1.38.47-.4,1.08-.71,1.81-.95.73-.23,1.55-.35,2.46-.35.85,0,1.7.1,2.57.31.87.21,1.59.46,2.17.76v2.55h-.13c-.61-.45-1.35-.83-2.22-1.14-.87-.31-1.73-.46-2.56-.46s-1.61.17-2.21.5c-.6.33-.9.83-.9,1.49,0,.58.18,1.02.55,1.32.36.3.93.54,1.73.72.44.1.93.2,1.48.3.55.1,1,.19,1.37.28,1.11.25,1.96.69,2.56,1.31.6.63.9,1.46.9,2.49Z"/>
    <path class="cls-1" d="m1240.12,109.76h-3.03v-3.62h3.03v3.62Z"/>
    <path class="cls-1" d="m1247.71,90.01l-3.44,7.1h-1.7l2.09-7.1h3.05Zm5.13,0l-3.44,7.1h-1.7l2.09-7.1h3.05Z"/>
  </g>
</svg>