<?xml version="1.0" encoding="UTF-8"?>
<svg id="Layer_2" data-name="Layer 2" xmlns="http://www.w3.org/2000/svg" xmlns:xlink="http://www.w3.org/1999/xlink" viewBox="0 0 695.29 140.73">
  <defs>
    <style>
      .cls-1 {
        fill: #fff;
      }

      .cls-2 {
        fill: #f6a200;
      }

      .cls-3 {
        fill: url(#radial-gradient);
      }

      .cls-4 {
        fill: url(#radial-gradient-2);
      }

      .cls-5 {
        fill: url(#linear-gradient);
      }
    </style>
    <linearGradient id="linear-gradient" x1="0" y1="406.05" x2="695.29" y2="406.05" gradientTransform="translate(0 476.41) scale(1 -1)" gradientUnits="userSpaceOnUse">
      <stop offset="0" stop-color="#ffc21f"/>
      <stop offset="1" stop-color="#fa920b"/>
    </linearGradient>
    <radialGradient id="radial-gradient" cx="74.44" cy="456.84" fx="74.44" fy="456.84" r="106.92" gradientTransform="translate(0 476.41) scale(1 -1)" gradientUnits="userSpaceOnUse">
      <stop offset="0" stop-color="#fff"/>
      <stop offset="1" stop-color="#e3d8d8"/>
    </radialGradient>
    <radialGradient id="radial-gradient-2" cx="98.45" cy="354.78" fx="98.45" fy="354.78" r="108.84" xlink:href="#radial-gradient"/>
  </defs>
  <g id="Layer_1-2" data-name="Layer 1">
    <g>
      <rect class="cls-5" width="695.29" height="140.73"/>
      <g>
        <path class="cls-1" d="m212.74,71.58c0,3.39-2.37,5.48-6.19,5.48h-3.28v4.44h-2.7v-15.4h5.98c3.82,0,6.19,2.07,6.19,5.48h0Zm-2.72,0c0-1.94-1.23-3.06-3.59-3.06h-3.16v6.12h3.16c2.37,0,3.59-1.12,3.59-3.06Z"/>
        <path class="cls-1" d="m221.5,69.62v2.62c-.23-.04-.42-.07-.6-.07-1.97,0-3.22,1.23-3.22,3.63v5.7h-2.6v-11.75h2.47v1.72c.75-1.23,2.1-1.85,3.95-1.85h0Z"/>
        <path class="cls-1" d="m223.35,66.17c0-.92.71-1.65,1.66-1.65s1.66.68,1.66,1.58c0,.97-.69,1.72-1.66,1.72s-1.66-.73-1.66-1.65Zm.35,3.59h2.6v11.75h-2.6v-11.75Z"/>
        <path class="cls-1" d="m240.09,69.75l-4.76,11.75h-2.68l-4.75-11.75h2.7l3.45,8.71,3.55-8.71h2.49Z"/>
        <path class="cls-1" d="m250.63,74.62v6.89h-2.45v-1.43c-.62,1.01-1.83,1.58-3.49,1.58-2.53,0-4.13-1.47-4.13-3.52s1.25-3.5,4.61-3.5h2.87v-.18c0-1.61-.91-2.55-2.76-2.55-1.25,0-2.53.44-3.36,1.17l-1.02-2c1.18-.97,2.91-1.45,4.69-1.45,3.2,0,5.05,1.61,5.05,5h0Zm-2.6,3.2v-1.36h-2.68c-1.77,0-2.24.7-2.24,1.56,0,.99.79,1.63,2.12,1.63s2.37-.62,2.8-1.83h0Z"/>
        <path class="cls-1" d="m260.62,80.87c-.62.53-1.56.79-2.49.79-2.43,0-3.82-1.36-3.82-3.96v-5.65h-1.83v-2.2h1.83v-2.68h2.6v2.68h2.97v2.2h-2.97v5.59c0,1.14.54,1.76,1.54,1.76.54,0,1.06-.15,1.45-.48l.73,1.96h0Z"/>
        <path class="cls-1" d="m262.4,66.17c0-.92.71-1.65,1.66-1.65s1.66.68,1.66,1.58c0,.97-.69,1.72-1.66,1.72s-1.66-.73-1.66-1.65Zm.35,3.59h2.6v11.75h-2.6v-11.75Z"/>
        <path class="cls-1" d="m277.41,79.3v2.2h-9.57v-1.74l6.08-7.81h-5.96v-2.2h9.28v1.74l-6.11,7.81h6.28Z"/>
        <path class="cls-1" d="m289.08,74.62v6.89h-2.45v-1.43c-.62,1.01-1.83,1.58-3.49,1.58-2.53,0-4.13-1.47-4.13-3.52s1.25-3.5,4.61-3.5h2.87v-.18c0-1.61-.91-2.55-2.76-2.55-1.25,0-2.53.44-3.36,1.17l-1.02-2c1.18-.97,2.91-1.45,4.69-1.45,3.2,0,5.05,1.61,5.05,5h0Zm-2.6,3.2v-1.36h-2.68c-1.77,0-2.24.7-2.24,1.56,0,.99.79,1.63,2.12,1.63s2.37-.62,2.8-1.83h0Z"/>
        <path class="cls-1" d="m300.33,77.67l1.99,1.23c-.83,1.72-2.49,2.71-4.57,2.75l-.23.92c1.23.15,1.81.9,1.81,1.85,0,1.28-1.12,2.09-2.82,2.09-.75,0-1.39-.15-1.91-.46l.48-1.3c.44.24.89.35,1.41.35.77,0,1.1-.31,1.1-.79,0-.42-.31-.73-1.1-.73h-.64l.52-2.05c-2.84-.51-4.78-2.82-4.78-5.92,0-3.52,2.49-6.01,6-6.01,2.16,0,3.88.95,4.73,2.73l-1.99,1.23c-.67-1.12-1.66-1.63-2.76-1.63-1.91,0-3.36,1.41-3.36,3.67s1.45,3.67,3.36,3.67c1.1,0,2.1-.51,2.76-1.63v.03Z"/>
        <path class="cls-1" d="m303.49,75.63c0-3.52,2.49-6.01,5.9-6.01s5.92,2.49,5.92,6.01-2.47,6.03-5.92,6.03-5.9-2.51-5.9-6.03Zm4.55-8.93c-.58,0-.98.48-1.02,1.32h-1.39c.04-1.8.91-2.95,2.24-2.95s2.08,1.45,2.82,1.45c.58,0,.98-.46,1.02-1.25h1.39c-.04,1.72-.91,2.88-2.24,2.88s-2.08-1.45-2.82-1.45Zm4.65,8.93c0-2.24-1.41-3.67-3.3-3.67s-3.28,1.43-3.28,3.67,1.41,3.67,3.28,3.67,3.3-1.43,3.3-3.67Z"/>
        <path class="cls-1" d="m328.17,76.51h-8.7c.31,1.72,1.66,2.82,3.59,2.82,1.25,0,2.22-.42,3.01-1.28l1.39,1.69c-1,1.25-2.55,1.92-4.47,1.92-3.72,0-6.13-2.53-6.13-6.03s2.43-6.01,5.73-6.01,5.61,2.4,5.61,6.07c0,.22-.02.55-.04.81h.01Zm-8.72-1.82h6.29c-.21-1.69-1.43-2.86-3.14-2.86s-2.91,1.14-3.16,2.86h.01Z"/>
        <path class="cls-1" d="m329.44,80.34l1-2.09c.98.68,2.47,1.17,3.86,1.17,1.64,0,2.33-.48,2.33-1.3,0-2.24-6.85-.13-6.85-4.82,0-2.22,1.89-3.67,4.88-3.67,1.47,0,3.16.37,4.15,1.01l-1,2.09c-1.06-.66-2.12-.88-3.18-.88-1.58,0-2.33.55-2.33,1.32,0,2.38,6.85.26,6.85,4.86,0,2.2-1.91,3.63-5.03,3.63-1.85,0-3.7-.57-4.69-1.32h.01Z"/>
        <path class="cls-1" d="m357.99,65.18v16.33h-2.49v-1.52c-.87,1.12-2.16,1.67-3.68,1.67-3.22,0-5.61-2.38-5.61-6.03s2.39-6.01,5.61-6.01c1.43,0,2.7.51,3.57,1.58v-6.03h2.6Zm-2.55,10.46c0-2.24-1.43-3.67-3.3-3.67s-3.3,1.43-3.3,3.67,1.43,3.67,3.3,3.67,3.3-1.43,3.3-3.67Z"/>
        <path class="cls-1" d="m370.67,74.62v6.89h-2.45v-1.43c-.62,1.01-1.83,1.58-3.49,1.58-2.53,0-4.13-1.47-4.13-3.52s1.25-3.5,4.61-3.5h2.87v-.18c0-1.61-.91-2.55-2.76-2.55-1.25,0-2.53.44-3.36,1.17l-1.02-2c1.18-.97,2.91-1.45,4.69-1.45,3.2,0,5.05,1.61,5.05,5h-.01Zm-2.6,3.2v-1.36h-2.68c-1.77,0-2.24.7-2.24,1.56,0,.99.79,1.63,2.12,1.63s2.37-.62,2.8-1.83h0Z"/>
        <path class="cls-1" d="m372.72,80.34l1-2.09c.98.68,2.47,1.17,3.86,1.17,1.64,0,2.33-.48,2.33-1.3,0-2.24-6.85-.13-6.85-4.82,0-2.22,1.89-3.67,4.88-3.67,1.47,0,3.16.37,4.15,1.01l-1,2.09c-1.06-.66-2.12-.88-3.18-.88-1.58,0-2.33.55-2.33,1.32,0,2.38,6.85.26,6.85,4.86,0,2.2-1.91,3.63-5.03,3.63-1.85,0-3.7-.57-4.69-1.32h.01Z"/>
        <path class="cls-1" d="m400.8,76.51h-8.7c.31,1.72,1.66,2.82,3.59,2.82,1.25,0,2.22-.42,3.01-1.28l1.39,1.69c-1,1.25-2.55,1.92-4.47,1.92-3.72,0-6.13-2.53-6.13-6.03s2.43-6.01,5.73-6.01,5.61,2.4,5.61,6.07c0,.22-.02.55-.04.81h.01Zm-8.72-1.82h6.29c-.21-1.69-1.43-2.86-3.14-2.86s-2.91,1.14-3.16,2.86h.01Z"/>
        <path class="cls-1" d="m421.87,74.77v6.73h-2.6v-6.38c0-2.09-.91-3.1-2.49-3.1-1.7,0-2.89,1.19-2.89,3.52v5.96h-2.6v-6.38c0-2.09-.91-3.1-2.49-3.1-1.72,0-2.89,1.19-2.89,3.52v5.96h-2.6v-11.75h2.47v1.5c.83-1.06,2.12-1.63,3.63-1.63,1.62,0,2.97.64,3.74,1.96.89-1.21,2.39-1.96,4.15-1.96,2.68,0,4.55,1.61,4.55,5.15h.02Z"/>
        <path class="cls-1" d="m436.96,75.63c0,3.65-2.39,6.03-5.63,6.03-1.41,0-2.66-.51-3.55-1.58v5.7h-2.6v-16.02h2.47v1.54c.87-1.12,2.16-1.67,3.68-1.67,3.24,0,5.63,2.38,5.63,6.01h0Zm-2.64-.01c0-2.24-1.41-3.67-3.28-3.67s-3.3,1.43-3.3,3.67,1.43,3.67,3.3,3.67,3.28-1.43,3.28-3.67Z"/>
        <path class="cls-1" d="m445.85,69.62v2.62c-.23-.04-.42-.07-.6-.07-1.97,0-3.22,1.23-3.22,3.63v5.7h-2.6v-11.75h2.47v1.72c.75-1.23,2.1-1.85,3.95-1.85Z"/>
        <path class="cls-1" d="m458.32,76.51h-8.7c.31,1.72,1.66,2.82,3.59,2.82,1.25,0,2.22-.42,3.01-1.28l1.39,1.69c-1,1.25-2.55,1.92-4.47,1.92-3.72,0-6.13-2.53-6.13-6.03s2.43-6.01,5.73-6.01,5.61,2.4,5.61,6.07c0,.22-.02.55-.04.81h.01Zm-8.72-1.82h6.29c-.21-1.69-1.43-2.86-3.14-2.86s-2.91,1.14-3.16,2.86h.01Z"/>
        <path class="cls-1" d="m459.59,80.34l1-2.09c.98.68,2.47,1.17,3.86,1.17,1.64,0,2.33-.48,2.33-1.3,0-2.24-6.85-.13-6.85-4.82,0-2.22,1.89-3.67,4.88-3.67,1.47,0,3.16.37,4.15,1.01l-1,2.09c-1.06-.66-2.12-.88-3.18-.88-1.58,0-2.33.55-2.33,1.32,0,2.38,6.85.26,6.85,4.86,0,2.2-1.91,3.63-5.03,3.63-1.85,0-3.7-.57-4.69-1.32h.01Z"/>
        <path class="cls-1" d="m480.83,74.62v6.89h-2.45v-1.43c-.62,1.01-1.83,1.58-3.49,1.58-2.53,0-4.13-1.47-4.13-3.52s1.25-3.5,4.61-3.5h2.87v-.18c0-1.61-.91-2.55-2.76-2.55-1.25,0-2.53.44-3.36,1.17l-1.02-2c1.18-.97,2.91-1.45,4.69-1.45,3.2,0,5.05,1.61,5.05,5h-.01Zm-2.6,3.2v-1.36h-2.68c-1.77,0-2.24.7-2.24,1.56,0,.99.79,1.63,2.12,1.63s2.37-.62,2.8-1.83h0Z"/>
        <path class="cls-1" d="m482.88,80.34l1-2.09c.98.68,2.47,1.17,3.86,1.17,1.64,0,2.33-.48,2.33-1.3,0-2.24-6.85-.13-6.85-4.82,0-2.22,1.89-3.67,4.88-3.67,1.47,0,3.16.37,4.15,1.01l-1,2.09c-1.06-.66-2.12-.88-3.18-.88-1.58,0-2.33.55-2.33,1.32,0,2.38,6.85.26,6.85,4.86,0,2.2-1.91,3.63-5.03,3.63-1.85,0-3.7-.57-4.69-1.32h.01Z"/>
        <path class="cls-1" d="m512.34,75.63c0,3.65-2.39,6.03-5.63,6.03-1.41,0-2.66-.51-3.55-1.58v5.7h-2.6v-16.02h2.47v1.54c.87-1.12,2.16-1.67,3.68-1.67,3.24,0,5.63,2.38,5.63,6.01h0Zm-2.64-.01c0-2.24-1.41-3.67-3.28-3.67s-3.3,1.43-3.3,3.67,1.43,3.67,3.3,3.67,3.28-1.43,3.28-3.67Z"/>
        <path class="cls-1" d="m525.55,69.75v11.75h-2.47v-1.5c-.83,1.08-2.14,1.65-3.57,1.65-2.85,0-4.78-1.65-4.78-5.19v-6.71h2.6v6.34c0,2.13.96,3.15,2.6,3.15,1.81,0,3.03-1.19,3.03-3.54v-5.94h2.6-.01Zm-4.92-1.62h-2.24l2.8-3.01h3.05l-3.61,3.01h0Z"/>
        <path class="cls-1" d="m540.72,75.63c0,3.65-2.39,6.03-5.63,6.03-1.52,0-2.8-.55-3.68-1.67v1.52h-2.47v-16.33h2.6v6.01c.89-1.06,2.14-1.56,3.55-1.56,3.24,0,5.63,2.35,5.63,6.01h0Zm-2.64-.01c0-2.24-1.41-3.67-3.28-3.67s-3.3,1.43-3.3,3.67,1.43,3.67,3.3,3.67,3.28-1.43,3.28-3.67Z"/>
        <path class="cls-1" d="m543.19,65.18h2.6v16.33h-2.6v-16.33Z"/>
        <path class="cls-1" d="m548.84,66.17c0-.92.71-1.65,1.66-1.65s1.66.68,1.66,1.58c0,.97-.69,1.72-1.66,1.72s-1.66-.73-1.66-1.65Zm.35,3.59h2.6v11.75h-2.6v-11.75Z"/>
        <path class="cls-1" d="m554.28,75.63c0-3.52,2.49-6.01,6-6.01,2.16,0,3.88.95,4.73,2.73l-1.99,1.23c-.67-1.12-1.66-1.63-2.76-1.63-1.91,0-3.36,1.41-3.36,3.67s1.45,3.67,3.36,3.67c1.1,0,2.1-.51,2.76-1.63l1.99,1.23c-.85,1.76-2.58,2.75-4.73,2.75-3.51,0-6-2.51-6-6.03v.02Z"/>
        <path class="cls-1" d="m576.54,74.62v6.89h-2.45v-1.43c-.62,1.01-1.83,1.58-3.49,1.58-2.53,0-4.13-1.47-4.13-3.52s1.25-3.5,4.61-3.5h2.87v-.18c0-1.61-.91-2.55-2.76-2.55-1.25,0-2.53.44-3.36,1.17l-1.02-2c1.18-.97,2.91-1.45,4.69-1.45,3.2,0,5.05,1.61,5.05,5h-.01Zm-2.6,3.2v-1.36h-2.68c-1.77,0-2.24.7-2.24,1.56,0,.99.79,1.63,2.12,1.63s2.37-.62,2.8-1.83h0Z"/>
        <path class="cls-1" d="m578.59,80.34l1-2.09c.98.68,2.47,1.17,3.86,1.17,1.64,0,2.33-.48,2.33-1.3,0-2.24-6.85-.13-6.85-4.82,0-2.22,1.89-3.67,4.88-3.67,1.47,0,3.16.37,4.15,1.01l-1,2.09c-1.06-.66-2.12-.88-3.18-.88-1.58,0-2.33.55-2.33,1.32,0,2.38,6.85.26,6.85,4.86,0,2.2-1.91,3.63-5.03,3.63-1.85,0-3.7-.57-4.69-1.32h.01Z"/>
        <path class="cls-1" d="m589.68,79.83c0-1.1.77-1.83,1.7-1.83s1.7.73,1.7,1.83-.77,1.83-1.7,1.83-1.7-.77-1.7-1.83Z"/>
      </g>
      <g>
        <circle class="cls-3" cx="91.34" cy="70.29" r="56.09"/>
        <circle class="cls-4" cx="91.34" cy="70.29" r="52.61"/>
      </g>
      <path class="cls-2" d="m111.61,88.55v11.51h-46.12v-9.16l23.54-22.23c5.41-5.14,6.37-8.28,6.37-11.25,0-4.79-3.31-7.58-9.77-7.58-5.23,0-9.68,2-12.64,6.1l-10.29-6.63c4.71-6.89,13.25-11.33,24.24-11.33,13.6,0,22.67,6.97,22.67,18.05,0,5.93-1.66,11.33-10.2,19.27l-14.04,13.25h26.24Z"/>
    </g>
  </g>
</svg>