<svg xmlns="http://www.w3.org/2000/svg" width="1640" height="64.288" viewBox="0 0 1640 64.288">
  <g id="RIM_PRODISA_D2_Img30" transform="translate(-50.714 -41.574)">
    <g id="Grupo_2908" data-name="Grupo 2908" transform="translate(50.714 41.574)">
      <g id="Grupo_2859" data-name="Grupo 2859" transform="translate(181.329 0.194)">
        <g id="Grupo_2857" data-name="Grupo 2857">
          <path id="Caminho_10679" data-name="Caminho 10679" d="M386.542,82.9H363.471L352,102.8l11.471,19.96h23.071l11.471-19.96Z" transform="translate(-349.148 -63.199)" fill="#f9c2a0"/>
          <path id="Caminho_10680" data-name="Caminho 10680" d="M399.842,58.7H376.836L365.3,78.66l11.536,19.96h23.006l11.536-19.96Z" transform="translate(-353.829 -54.682)" fill="#f9c2a0"/>
          <path id="Caminho_10681" data-name="Caminho 10681" d="M392.628,62.1H363.076L348.3,87.7l14.776,25.6h29.552l14.841-25.6Z" transform="translate(-347.846 -55.879)" fill="#f26a41"/>
          <line id="Linha_22" data-name="Linha 22" x1="11.795" y1="20.414" transform="translate(42.513 11.536)" fill="none"/>
          <line id="Linha_23" data-name="Linha 23" x2="11.86" y2="20.479" transform="translate(7.064 31.95)" fill="none"/>
          <path id="Caminho_10682" data-name="Caminho 10682" d="M383.244,52.5h-1.361l-.454.713H359.978L349.285,71.748h-.972l-.713,1.231.713,1.167h1.361l.713-1.167-.518-.907,10.5-18.211H381.3l.583,1.037h1.361l.713-1.231Z" transform="translate(-347.6 -52.5)" fill="#e85624"/>
          <path id="Caminho_10683" data-name="Caminho 10683" d="M419.857,118.867l-.713-1.167h-1.361l-.713,1.167.518.842-10.5,18.275H386.157l-.583-1.037h-1.361l-.713,1.231.713,1.167h1.361l.454-.713h21.451l10.693-18.6h.972Z" transform="translate(-360.234 -75.446)" fill="#e85624"/>
          <g id="Grupo_2856" data-name="Grupo 2856" transform="translate(18.032 17.863)">
            <path id="Caminho_10684" data-name="Caminho 10684" d="M395.693,82.161a13.076,13.076,0,0,0-11.017-1.491,13.322,13.322,0,0,0-9.2,11.6,12.329,12.329,0,0,0,1.167,6.481,1.942,1.942,0,0,0,.259.518c.518.972,1.231,1.879,1.879,2.916a.9.9,0,0,1-.259.194l-2.852,2.852a.634.634,0,0,0,.065,1.037,1.548,1.548,0,0,0,.583.13h12.248a15.164,15.164,0,0,0,2.463-.194,13.2,13.2,0,0,0,4.666-24.043Z" transform="translate(-375.425 -80.063)" fill="#ffeec2"/>
            <path id="Caminho_10685" data-name="Caminho 10685" d="M393.661,97.1a12.54,12.54,0,0,1-.389-1.3,24.085,24.085,0,0,1-.972-5.7,4.746,4.746,0,0,1,.518-2.527,2.094,2.094,0,0,1,1.815-.778c1.426,0,2.139,1.167,2.139,3.435a34.9,34.9,0,0,1-1.037,5.509c-.194.778-.324,1.231-.389,1.426a.873.873,0,0,1-.842.648c-.389,0-.648-.259-.842-.713Zm-.648,6.61a2.19,2.19,0,0,0,3.111,0,2.19,2.19,0,0,0,0-3.111,2.19,2.19,0,0,0-3.111,0,2.19,2.19,0,0,0,0,3.111Z" transform="translate(-381.364 -82.434)" fill="#f26a41"/>
          </g>
        </g>
        <g id="Grupo_2858" data-name="Grupo 2858" transform="translate(72.324 22.423)">
          <path id="Caminho_10686" data-name="Caminho 10686" d="M467.042,100.43h-3.759l-.648,1.75H459.2l4.342-9.98h3.305l4.342,9.98h-3.5l-.648-1.75Zm-.972-2.4-.972-2.527-.972,2.527Z" transform="translate(-459.2 -88.895)" fill="#010101"/>
          <path id="Caminho_10687" data-name="Caminho 10687" d="M479.516,94.792H476.6V92.2h9.2v2.592h-2.916v7.388h-3.37V94.792Z" transform="translate(-465.324 -88.895)" fill="#010101"/>
          <path id="Caminho_10688" data-name="Caminho 10688" d="M500.4,99.653v2.527h-8.3V92.2h8.1v2.527h-4.8v1.167h4.212v2.4h-4.212v1.3h4.99Z" transform="translate(-470.779 -88.895)" fill="#010101"/>
          <path id="Caminho_10689" data-name="Caminho 10689" d="M516.751,92.2v9.98h-2.787l-3.759-4.536v4.536H506.9V92.2h2.787l3.759,4.536V92.2Z" transform="translate(-475.987 -88.895)" fill="#010101"/>
          <path id="Caminho_10690" data-name="Caminho 10690" d="M531.906,98.416l2.139,1.879A5.56,5.56,0,0,1,529.9,102.3l-.13.518c.907.13,1.231.648,1.231,1.167,0,.972-.972,1.555-2.4,1.555a3.3,3.3,0,0,1-1.426-.324l.389-1.167a2.693,2.693,0,0,0,.843.194c.454,0,.713-.13.713-.324s-.194-.259-.583-.259h-.583l.324-1.361A5.1,5.1,0,0,1,524,97.185c0-3.046,2.333-5.185,5.573-5.185a5.351,5.351,0,0,1,4.472,2.009l-2.139,1.879a2.8,2.8,0,0,0-2.2-1.167,2.248,2.248,0,0,0-2.333,2.463,2.216,2.216,0,0,0,2.333,2.463,2.867,2.867,0,0,0,2.2-1.231Z" transform="translate(-482.005 -88.824)" fill="#010101"/>
          <path id="Caminho_10691" data-name="Caminho 10691" d="M546.942,98.636h-3.759l-.648,1.75H539.1l4.342-9.98h3.305l4.342,9.98h-3.5l-.648-1.75Zm-3.435-9.073h-1.555c0-1.491.778-2.463,1.944-2.463,1.037,0,1.62.842,2.139.842.389,0,.583-.259.648-.648h1.555c0,1.426-.778,2.4-1.944,2.4-1.037,0-1.62-.842-2.139-.842A.707.707,0,0,0,543.507,89.563Zm2.527,6.675-.972-2.527-.972,2.527Z" transform="translate(-487.319 -87.1)" fill="#010101"/>
          <path id="Caminho_10692" data-name="Caminho 10692" d="M557.6,97.085c0-3.046,2.4-5.185,5.638-5.185s5.638,2.2,5.638,5.185c0,3.046-2.4,5.185-5.638,5.185S557.6,100.13,557.6,97.085Zm7.906,0a2.217,2.217,0,1,0-2.2,2.463A2.221,2.221,0,0,0,565.506,97.085Z" transform="translate(-493.83 -88.789)" fill="#010101"/>
        </g>
      </g>
      <g id="Grupo_2862" data-name="Grupo 2862" transform="translate(0 0.194)">
        <g id="Grupo_2860" data-name="Grupo 2860">
          <path id="Caminho_10693" data-name="Caminho 10693" d="M106.642,82.9H83.636L72.1,102.8l11.536,19.96h23.006l11.536-19.96Z" transform="translate(-69.313 -63.199)" fill="#a4c8cc"/>
          <path id="Caminho_10694" data-name="Caminho 10694" d="M120.042,58.7H96.971L85.5,78.66l11.471,19.96h23.071l11.471-19.96Z" transform="translate(-74.029 -54.682)" fill="#a4c8cc"/>
          <path id="Caminho_10695" data-name="Caminho 10695" d="M112.828,62.1H83.276L68.5,87.7l14.776,25.6h29.552L127.6,87.7Z" transform="translate(-68.046 -55.879)" fill="#038183"/>
          <rect id="Retângulo_411" data-name="Retângulo 411" width="0.454" height="23.59" transform="matrix(0.866, -0.5, 0.5, 0.866, 42.263, 11.613)" fill="#c9e6d6"/>
          <rect id="Retângulo_412" data-name="Retângulo 412" width="0.454" height="23.59" transform="matrix(0.866, -0.5, 0.5, 0.866, 6.901, 32.076)" fill="#c9e6d6"/>
          <path id="Caminho_10696" data-name="Caminho 10696" d="M103.444,52.5h-1.361l-.454.713H80.178L69.42,71.748h-.972L67.8,72.979l.648,1.167h1.426l.648-1.167L70,72.072,80.567,53.861H101.5l.583,1.037h1.361l.713-1.231Z" transform="translate(-67.8 -52.5)" fill="#038183"/>
          <path id="Caminho_10697" data-name="Caminho 10697" d="M140.057,118.867l-.713-1.167h-1.361l-.713,1.167.518.842-10.5,18.275H106.357l-.583-1.037h-1.426l-.648,1.231.648,1.167h1.426l.389-.713h21.516l10.693-18.6h.972Z" transform="translate(-80.434 -75.446)" fill="#038183"/>
          <path id="Caminho_10698" data-name="Caminho 10698" d="M104.747,97.05v8.23c0,1.879,1.037,2.981,2.787,2.981s2.787-1.1,2.787-2.981V97.05h8.36a2.671,2.671,0,0,0,2.851-2.787,2.721,2.721,0,0,0-2.851-2.852h-8.3v-8.23c0-1.879-1.037-2.981-2.787-2.981s-2.787,1.1-2.787,2.981v8.23h-8.36A2.671,2.671,0,0,0,93.6,94.2a2.721,2.721,0,0,0,2.852,2.852Z" transform="translate(-76.88 -62.249)" fill="#fff"/>
        </g>
        <g id="Grupo_2861" data-name="Grupo 2861" transform="translate(72.778 25.858)">
          <path id="Caminho_10699" data-name="Caminho 10699" d="M180.1,101.8l1.1-2.463a6.493,6.493,0,0,0,3.305.907c.972,0,1.3-.194,1.3-.518,0-1.231-5.509-.259-5.509-3.953,0-1.879,1.555-3.37,4.666-3.37a7.838,7.838,0,0,1,3.759.842l-1.037,2.463a5.75,5.75,0,0,0-2.787-.713c-.972,0-1.3.259-1.3.648,0,1.167,5.509.194,5.509,3.888,0,1.815-1.555,3.37-4.666,3.37a10.891,10.891,0,0,1-4.342-1.1Z" transform="translate(-180.1 -92.4)" fill="#010101"/>
          <path id="Caminho_10700" data-name="Caminho 10700" d="M201.742,100.93h-3.759l-.648,1.75H193.9l4.342-9.98h3.305l4.342,9.98h-3.5l-.648-1.75Zm-.972-2.4-.972-2.527-.972,2.527Z" transform="translate(-184.957 -92.506)" fill="#010101"/>
          <path id="Caminho_10701" data-name="Caminho 10701" d="M213.2,92.7h3.37v9.98H213.2Z" transform="translate(-191.749 -92.506)" fill="#010101"/>
          <path id="Caminho_10702" data-name="Caminho 10702" d="M230.751,99.894c0,1.75-1.491,2.722-4.212,2.722H220.9V92.7h5.314c2.722,0,4.018,1.1,4.018,2.592a2.31,2.31,0,0,1-1.361,2.139,2.605,2.605,0,0,1,1.879,2.463Zm-6.545-4.861v1.491h1.555c.778,0,1.1-.259,1.1-.713s-.324-.713-1.1-.713l-1.555-.065Zm3.111,4.472c0-.518-.389-.778-1.1-.778h-2.009v1.555h2.009c.778.065,1.1-.259,1.1-.778Z" transform="translate(-194.459 -92.506)" fill="#010101"/>
          <path id="Caminho_10703" data-name="Caminho 10703" d="M244.142,100.93h-3.759l-.648,1.75H236.3l4.342-9.98h3.305l4.342,9.98h-3.5l-.648-1.75Zm-.972-2.4-.972-2.527-.972,2.527Z" transform="translate(-199.879 -92.506)" fill="#010101"/>
          <path id="Caminho_10704" data-name="Caminho 10704" d="M271.114,102.68V98.144l-2.139,3.629h-1.491l-2.139-3.5v4.407H262.3V92.7h2.787l3.24,5.314L271.5,92.7h2.787v9.98Z" transform="translate(-209.029 -92.506)" fill="#010101"/>
          <path id="Caminho_10705" data-name="Caminho 10705" d="M289.442,100.93h-3.759l-.648,1.75H281.6l4.342-9.98h3.305l4.342,9.98h-3.5l-.648-1.75Zm-.972-2.4-.972-2.527-.972,2.527Z" transform="translate(-215.821 -92.506)" fill="#010101"/>
          <path id="Caminho_10706" data-name="Caminho 10706" d="M300.9,92.7h3.37v9.98H300.9Z" transform="translate(-222.613 -92.506)" fill="#010101"/>
          <path id="Caminho_10707" data-name="Caminho 10707" d="M307.6,101.8l1.1-2.463a6.493,6.493,0,0,0,3.305.907c.972,0,1.3-.194,1.3-.518,0-1.231-5.509-.259-5.509-3.953,0-1.879,1.555-3.37,4.666-3.37a7.838,7.838,0,0,1,3.759.842l-1.037,2.463a5.75,5.75,0,0,0-2.787-.713c-.972,0-1.3.259-1.3.648,0,1.167,5.509.194,5.509,3.888,0,1.815-1.555,3.37-4.666,3.37a11.515,11.515,0,0,1-4.342-1.1Z" transform="translate(-224.971 -92.4)" fill="#010101"/>
        </g>
      </g>
      <g id="Grupo_2869" data-name="Grupo 2869" transform="translate(345.614 0.194)">
        <g id="Grupo_2863" data-name="Grupo 2863" transform="translate(73.556 18.47)">
          <path id="Caminho_10708" data-name="Caminho 10708" d="M723.932,84.759c0,2.333-1.75,3.759-4.537,3.759H717.97V90.98H714.6V81h4.8C722.182,81,723.932,82.426,723.932,84.759Zm-3.37,0c0-.713-.454-1.167-1.361-1.167H717.97v2.333H719.2c.907,0,1.361-.454,1.361-1.167Z" transform="translate(-714.6 -81)" fill="#010101"/>
          <path id="Caminho_10709" data-name="Caminho 10709" d="M736.142,89.23h-3.759l-.648,1.75H728.3L732.642,81h3.305l4.342,9.98h-3.5Zm-.907-2.463-.972-2.527-.972,2.527Z" transform="translate(-719.421 -81)" fill="#010101"/>
          <path id="Caminho_10710" data-name="Caminho 10710" d="M751.977,88.453h-.907V90.98H747.7V81h4.8c2.787,0,4.536,1.426,4.536,3.759a3.337,3.337,0,0,1-1.879,3.111l2.074,3.046h-3.564l-1.685-2.463Zm.259-4.861h-1.231v2.333h1.231c.907,0,1.361-.454,1.361-1.167q.1-1.167-1.361-1.167Z" transform="translate(-726.249 -81)" fill="#010101"/>
          <path id="Caminho_10711" data-name="Caminho 10711" d="M770.242,89.23h-3.759l-.648,1.75H762.4L766.742,81h3.305l4.342,9.98h-3.5Zm-.907-2.463-.972-2.527-.972,2.527Z" transform="translate(-731.422 -81)" fill="#010101"/>
          <path id="Caminho_10712" data-name="Caminho 10712" d="M718.877,114.853h-.907v2.527H714.6V107.4h4.8c2.787,0,4.537,1.426,4.537,3.759a3.337,3.337,0,0,1-1.88,3.111l2.074,3.046h-3.564l-1.685-2.463Zm.324-4.925H717.97v2.333H719.2c.907,0,1.361-.454,1.361-1.167s-.454-1.1-1.361-1.167Z" transform="translate(-714.6 -90.291)" fill="#010101"/>
          <path id="Caminho_10713" data-name="Caminho 10713" d="M739.3,114.753v2.527H731V107.3h8.1v2.527h-4.8v1.167h4.212v2.4h-4.212v1.3h4.99Z" transform="translate(-720.372 -90.256)" fill="#010101"/>
          <path id="Caminho_10714" data-name="Caminho 10714" d="M745.2,112.185c0-3.046,2.333-5.185,5.573-5.185a5.351,5.351,0,0,1,4.472,2.009l-2.139,1.879a2.8,2.8,0,0,0-2.2-1.167,2.466,2.466,0,0,0,0,4.925,2.8,2.8,0,0,0,2.2-1.167l2.139,1.879a5.351,5.351,0,0,1-4.472,2.009c-3.24.065-5.573-2.074-5.573-5.185Z" transform="translate(-725.369 -90.15)" fill="#010101"/>
          <path id="Caminho_10715" data-name="Caminho 10715" d="M761.2,112.185c0-3.046,2.4-5.185,5.638-5.185s5.638,2.2,5.638,5.185c0,3.046-2.4,5.185-5.638,5.185A5.2,5.2,0,0,1,761.2,112.185Zm7.842,0a2.217,2.217,0,1,0-2.2,2.463A2.187,2.187,0,0,0,769.042,112.185Z" transform="translate(-731 -90.15)" fill="#010101"/>
          <path id="Caminho_10716" data-name="Caminho 10716" d="M784.777,114.853h-.907v2.527H780.5V107.4h4.8c2.787,0,4.536,1.426,4.536,3.759a3.337,3.337,0,0,1-1.879,3.111l2.074,3.046h-3.564l-1.685-2.463Zm.259-4.925h-1.231v2.333h1.231c.907,0,1.361-.454,1.361-1.167s-.389-1.1-1.361-1.167Z" transform="translate(-737.792 -90.291)" fill="#010101"/>
          <path id="Caminho_10717" data-name="Caminho 10717" d="M796.8,107.3h4.925c3.305,0,5.638,1.879,5.638,4.99s-2.268,4.99-5.638,4.99H796.8Zm4.8,7.388a2.2,2.2,0,0,0,2.4-2.333,2.164,2.164,0,0,0-2.4-2.333H800.17v4.731H801.6Z" transform="translate(-743.529 -90.256)" fill="#010101"/>
          <path id="Caminho_10718" data-name="Caminho 10718" d="M821.042,115.63h-3.759l-.648,1.75H813.2l4.342-9.98h3.305l4.342,9.98h-3.5Zm-.972-2.463-.972-2.527-.972,2.527Z" transform="translate(-749.3 -90.291)" fill="#010101"/>
          <path id="Caminho_10719" data-name="Caminho 10719" d="M836.777,114.853h-.907v2.527H832.5V107.4h4.8c2.787,0,4.536,1.426,4.536,3.759a3.338,3.338,0,0,1-1.879,3.111l2.074,3.046h-3.564l-1.685-2.463Zm.324-4.925H835.87v2.333H837.1c.907,0,1.361-.454,1.361-1.167s-.454-1.1-1.361-1.167Z" transform="translate(-756.093 -90.291)" fill="#010101"/>
        </g>
        <g id="Grupo_2868" data-name="Grupo 2868">
          <g id="Grupo_2864" data-name="Grupo 2864">
            <path id="Caminho_10720" data-name="Caminho 10720" d="M639.942,82.9H616.936L605.4,102.8l11.536,19.96h23.006l11.536-19.96Z" transform="translate(-602.613 -63.199)" fill="#a4c8cc"/>
            <path id="Caminho_10721" data-name="Caminho 10721" d="M653.342,58.7H630.336L618.8,78.66l11.536,19.96h23.006l11.536-19.96Z" transform="translate(-607.329 -54.682)" fill="#a4c8cc"/>
            <path id="Caminho_10722" data-name="Caminho 10722" d="M646.128,62.1H616.576L601.8,87.7l14.776,25.6h29.552L660.9,87.7Z" transform="translate(-601.346 -55.879)" fill="#038183"/>
            <rect id="Retângulo_413" data-name="Retângulo 413" width="0.454" height="23.59" transform="matrix(0.866, -0.5, 0.5, 0.866, 42.259, 11.621)" fill="#c9e6d6"/>
            <rect id="Retângulo_414" data-name="Retângulo 414" width="0.454" height="23.59" transform="matrix(0.866, -0.5, 0.5, 0.866, 6.893, 32.082)" fill="#c9e6d6"/>
            <path id="Caminho_10723" data-name="Caminho 10723" d="M636.744,52.5h-1.361l-.454.713H613.478L602.785,71.748h-.972l-.713,1.231.713,1.167h1.361l.648-1.167-.454-.907,10.5-18.211H634.8l.583,1.037h1.361l.713-1.231Z" transform="translate(-601.1 -52.5)" fill="#038183"/>
            <path id="Caminho_10724" data-name="Caminho 10724" d="M673.357,118.867l-.713-1.167h-1.361l-.713,1.167.518.842-10.5,18.275H639.657l-.583-1.037h-1.361L637,138.179l.713,1.167h1.361l.454-.713h21.451l10.693-18.6h.972Z" transform="translate(-613.734 -75.446)" fill="#038183"/>
          </g>
          <g id="Grupo_2867" data-name="Grupo 2867" transform="translate(19.326 17.887)">
            <g id="Grupo_2865" data-name="Grupo 2865" transform="translate(0 1.958)">
              <path id="Caminho_10725" data-name="Caminho 10725" d="M641.925,102.873H633.5a2.566,2.566,0,0,1-2.4-1.3.991.991,0,0,1,.13-1.3,13.847,13.847,0,0,0,3.046-9.332,7.659,7.659,0,0,1,15.165-1.685,6.737,6.737,0,0,1,.194,2.268,13.062,13.062,0,0,0,2.852,8.49,1.678,1.678,0,0,1-.972,2.592,4.179,4.179,0,0,1-1.3.194c-2.722.065-5.509.065-8.3.065Z" transform="translate(-630.921 -83.121)" fill="#fff"/>
              <path id="Caminho_10726" data-name="Caminho 10726" d="M646.32,115.184a13.511,13.511,0,0,1,1.62,0,1.607,1.607,0,0,1,1.167.648,1.9,1.9,0,0,1-.259,1.426,3.374,3.374,0,0,1-5.444-.324,1.091,1.091,0,0,1,.972-1.685,9.761,9.761,0,0,1,1.944-.065Z" transform="translate(-635.252 -94.395)" fill="#fff"/>
            </g>
            <g id="Grupo_2866" data-name="Grupo 2866" transform="translate(11.392)">
              <path id="Caminho_10727" data-name="Caminho 10727" d="M655.833,93.33a1.821,1.821,0,0,1-1.879-1.944V89.312h-2.074a1.856,1.856,0,0,1-1.361-.518A1.968,1.968,0,0,1,650,87.433a1.8,1.8,0,0,1,1.879-1.879h2.139V83.544a1.881,1.881,0,1,1,3.759,0v2.074h2.074a1.674,1.674,0,0,1,1.361.583,1.968,1.968,0,0,1,.518,1.361,1.8,1.8,0,0,1-1.879,1.879h-2.074v2.074a1.883,1.883,0,0,1-1.944,1.815Z" transform="translate(-649.028 -80.628)" fill="#fff"/>
              <path id="Caminho_10728" data-name="Caminho 10728" d="M655.3,81.915a.907.907,0,0,1,.972,1.037v2.981h2.916a.954.954,0,0,1,1.037,1.037.937.937,0,0,1-1.037.972h-2.981v2.916a1.028,1.028,0,0,1-.972,1.1h0a.907.907,0,0,1-.972-1.037V88.006h-2.981a.954.954,0,0,1-1.037-1.037A.937.937,0,0,1,651.287,86h2.981V83.081c0-.778.389-1.167,1.037-1.167h0m0-1.815h0a2.742,2.742,0,0,0-2.787,2.852v1.167h-1.231A2.689,2.689,0,0,0,648.5,86.9a2.788,2.788,0,0,0,.778,2.009,2.843,2.843,0,0,0,2.009.842h1.231v1.167a2.787,2.787,0,1,0,5.573,0V89.756h1.231a2.689,2.689,0,0,0,2.787-2.787,2.788,2.788,0,0,0-.778-2.009,2.843,2.843,0,0,0-2.009-.842h-1.231V82.951A2.742,2.742,0,0,0,655.3,80.1Z" transform="translate(-648.5 -80.1)" fill="#038183"/>
            </g>
          </g>
        </g>
      </g>
      <g id="Grupo_2876" data-name="Grupo 2876" transform="translate(522.083)">
        <g id="Grupo_2874" data-name="Grupo 2874">
          <g id="Grupo_2870" data-name="Grupo 2870" transform="translate(4.277)">
            <path id="Caminho_10729" data-name="Caminho 10729" d="M934.6,70.976v29.552L909,115.3l-25.6-14.776V70.976L909,56.2Z" transform="translate(-881.197 -53.608)" fill="#fff"/>
            <path id="Caminho_10730" data-name="Caminho 10730" d="M907.8,116.488,880,100.416V68.272L907.8,52.2l27.8,16.072v32.144l-27.8,16.072Zm-23.4-18.664,23.4,13.48,23.4-13.48V70.864l-23.4-13.48-23.4,13.48Z" transform="translate(-880 -52.2)" fill="#096798"/>
          </g>
          <g id="Grupo_2871" data-name="Grupo 2871" transform="translate(31.687 44.284)">
            <line id="Linha_24" data-name="Linha 24" y1="11.795" x2="20.479" transform="translate(0.198 0.304)" fill="none"/>
            <rect id="Retângulo_415" data-name="Retângulo 415" width="23.59" height="0.907" transform="translate(0 11.79) rotate(-29.988)" fill="#096798"/>
          </g>
          <g id="Grupo_2872" data-name="Grupo 2872" transform="translate(11.194 8.858)">
            <line id="Linha_25" data-name="Linha 25" x1="20.414" y2="11.795" transform="translate(0.277 0.345)" fill="none"/>
            <rect id="Retângulo_416" data-name="Retângulo 416" width="23.59" height="0.907" transform="translate(0 11.79) rotate(-29.988)" fill="#096798"/>
          </g>
          <path id="Caminho_10731" data-name="Caminho 10731" d="M960.21,91.109V89.683l-.778-.389V67.843L940.9,57.085v-.972l-1.167-.713-1.231.713v1.361l1.231.713.842-.518,18.211,10.563V89.1l-.972.583v1.426l1.167.648Z" transform="translate(-896.311 -53.326)" fill="#096798"/>
          <path id="Caminho_10732" data-name="Caminho 10732" d="M893.879,127.757l1.167-.713v-1.361l-1.167-.713-.907.518-18.211-10.564V93.992l.972-.518V92.048l-1.167-.648-1.167.648v1.426l.713.389v21.451l18.535,10.758v.972Z" transform="translate(-873.4 -65.996)" fill="#096798"/>
          <g id="Grupo_2873" data-name="Grupo 2873" transform="translate(21.687 20.316)">
            <path id="Caminho_10733" data-name="Caminho 10733" d="M926.07,88.637a10.273,10.273,0,0,1-3.111,13.674.356.356,0,0,0-.194.324v3.046a5.95,5.95,0,0,1-3.37,5.379,5.481,5.481,0,0,1-7.129-2.463,5.936,5.936,0,0,1-.713-2.787v-3.176a.357.357,0,0,0-.194-.324,10.125,10.125,0,0,1-4.213-5.962,10.577,10.577,0,0,1,2.333-9.4,9.992,9.992,0,0,1,6.351-3.305,10.3,10.3,0,0,1,10.24,4.99Zm-4.083,12.054a8.419,8.419,0,1,0-9.4.065,1.938,1.938,0,0,1,.842,1.62v.907h7.453v-.713a2.419,2.419,0,0,1,1.1-1.879Z" transform="translate(-906.864 -83.549)" fill="#013f57"/>
            <path id="Caminho_10734" data-name="Caminho 10734" d="M926.455,92.86a8.432,8.432,0,0,1-3.37,8.943,2.37,2.37,0,0,0-1.037,1.944v.713H914.6v-.907a2.027,2.027,0,0,0-.842-1.62,8.341,8.341,0,0,1-3.24-4.083A8.445,8.445,0,0,1,916.734,86.7a8.226,8.226,0,0,1,9.721,6.157Z" transform="translate(-907.962 -84.597)" fill="#fff"/>
          </g>
          <path id="Caminho_10735" data-name="Caminho 10735" d="M934.191,78.968v1.037a.389.389,0,1,0,.778,0V78.9h1.1a.344.344,0,0,0,.389-.389.374.374,0,0,0-.389-.389h-1.1V77.089a.389.389,0,1,0-.778,0v1.1h-1.1a.344.344,0,0,0-.389.389.374.374,0,0,0,.389.389Z" transform="translate(-894.27 -60.822)" fill="#013f57"/>
          <path id="Caminho_10736" data-name="Caminho 10736" d="M940.67,84.39v2.463a.845.845,0,1,0,1.685,0v-2.4h2.463a.842.842,0,0,0,0-1.685H942.29V80.307a.845.845,0,1,0-1.685,0v2.4h-2.463a.842.842,0,0,0,0,1.685Z" transform="translate(-895.889 -61.773)" fill="#013f57"/>
        </g>
        <g id="Grupo_2875" data-name="Grupo 2875" transform="translate(75.5 25.793)">
          <path id="Caminho_10737" data-name="Caminho 10737" d="M989.9,92.3h4.925c3.305,0,5.638,1.879,5.638,4.99s-2.268,4.99-5.638,4.99H989.9V92.3Zm4.8,7.388a2.2,2.2,0,0,0,2.4-2.333,2.164,2.164,0,0,0-2.4-2.333H993.27v4.731H994.7Z" transform="translate(-989.9 -92.106)" fill="#010101"/>
          <path id="Caminho_10738" data-name="Caminho 10738" d="M1008.1,92.3h3.37v9.98h-3.37Z" transform="translate(-996.305 -92.106)" fill="#010101"/>
          <path id="Caminho_10739" data-name="Caminho 10739" d="M1015.2,97.185c0-3.046,2.333-5.185,5.573-5.185a5.351,5.351,0,0,1,4.472,2.009l-2.139,1.879a2.8,2.8,0,0,0-2.2-1.167,2.466,2.466,0,0,0,0,4.925,2.8,2.8,0,0,0,2.2-1.167l2.139,1.879a5.351,5.351,0,0,1-4.472,2.009c-3.24.065-5.573-2.074-5.573-5.185Z" transform="translate(-998.804 -92)" fill="#010101"/>
          <path id="Caminho_10740" data-name="Caminho 10740" d="M1038.142,100.63h-3.759l-.648,1.75H1030.3l4.342-9.98h3.305l4.342,9.98h-3.5l-.648-1.75Zm-.907-2.463-.972-2.527-.972,2.527Z" transform="translate(-1004.118 -92.141)" fill="#010101"/>
          <path id="Caminho_10741" data-name="Caminho 10741" d="M1048.7,101.4l1.1-2.463a6.493,6.493,0,0,0,3.305.907c.972,0,1.3-.194,1.3-.518,0-1.231-5.509-.259-5.509-3.953,0-1.879,1.556-3.37,4.666-3.37a7.839,7.839,0,0,1,3.759.842l-1.037,2.463a5.75,5.75,0,0,0-2.787-.713c-.972,0-1.3.259-1.3.648,0,1.167,5.509.194,5.509,3.888,0,1.815-1.556,3.37-4.666,3.37a9.91,9.91,0,0,1-4.342-1.1Z" transform="translate(-1010.594 -92)" fill="#010101"/>
        </g>
      </g>
      <g id="Grupo_2881" data-name="Grupo 2881" transform="translate(883.446 11.025)">
        <g id="Grupo_2877" data-name="Grupo 2877" transform="translate(42.448 14.249)">
          <path id="Caminho_10742" data-name="Caminho 10742" d="M1496.5,100.6l1.1-2.463a6.493,6.493,0,0,0,3.305.907c.972,0,1.3-.194,1.3-.518,0-1.231-5.509-.259-5.509-3.953,0-1.879,1.555-3.37,4.666-3.37a7.839,7.839,0,0,1,3.759.842l-1.037,2.463a5.75,5.75,0,0,0-2.787-.713c-.972,0-1.3.259-1.3.648,0,1.167,5.509.194,5.509,3.888,0,1.815-1.555,3.37-4.666,3.37a10.891,10.891,0,0,1-4.342-1.1Z" transform="translate(-1496.5 -91.2)" fill="#010101"/>
          <path id="Caminho_10743" data-name="Caminho 10743" d="M1511.9,91.5h3.37v9.98h-3.37Z" transform="translate(-1501.92 -91.306)" fill="#010101"/>
          <path id="Caminho_10744" data-name="Caminho 10744" d="M1529.45,91.5v9.98h-2.787l-3.759-4.536v4.536H1519.6V91.5h2.787l3.759,4.536V91.5Z" transform="translate(-1504.629 -91.306)" fill="#010101"/>
          <path id="Caminho_10745" data-name="Caminho 10745" d="M1539.016,94.092H1536.1V91.5h9.2v2.592h-2.916v7.388h-3.37V94.092Z" transform="translate(-1510.437 -91.306)" fill="#010101"/>
          <path id="Caminho_10746" data-name="Caminho 10746" d="M1560,98.953v2.527h-8.3V91.5h8.1v2.527h-4.8v1.167h4.212v2.4h-4.212v1.3l4.99.065Z" transform="translate(-1515.927 -91.306)" fill="#010101"/>
          <path id="Caminho_10747" data-name="Caminho 10747" d="M1568.217,94.092H1565.3V91.5h9.2v2.592h-2.916v7.388h-3.37V94.092Z" transform="translate(-1520.713 -91.306)" fill="#010101"/>
          <path id="Caminho_10748" data-name="Caminho 10748" d="M1580.8,91.5h3.37v9.98h-3.37Z" transform="translate(-1526.168 -91.306)" fill="#010101"/>
          <path id="Caminho_10749" data-name="Caminho 10749" d="M1597.138,98.888v2.592H1588V99.406l4.536-5.314h-4.407V91.5h8.814v2.074l-4.536,5.314Z" transform="translate(-1528.702 -91.306)" fill="#010101"/>
          <path id="Caminho_10750" data-name="Caminho 10750" d="M1609.842,99.73h-3.759l-.648,1.75H1602l4.342-9.98h3.305l4.342,9.98h-3.5Zm-.907-2.4-.972-2.527-.972,2.527Z" transform="translate(-1533.629 -91.306)" fill="#010101"/>
          <path id="Caminho_10751" data-name="Caminho 10751" d="M1631.151,91.5v9.98h-2.787l-3.759-4.536v4.536H1621.3V91.5h2.787l3.759,4.536V91.5Z" transform="translate(-1540.421 -91.306)" fill="#010101"/>
          <path id="Caminho_10752" data-name="Caminho 10752" d="M1639.1,91.5h4.925c3.305,0,5.638,1.879,5.638,4.99s-2.268,4.99-5.638,4.99H1639.1V91.5Zm4.731,7.323a2.2,2.2,0,0,0,2.4-2.333,2.164,2.164,0,0,0-2.4-2.333h-1.426v4.731h1.426Z" transform="translate(-1546.686 -91.306)" fill="#010101"/>
          <path id="Caminho_10753" data-name="Caminho 10753" d="M1656.6,96.385c0-3.046,2.4-5.185,5.638-5.185s5.638,2.2,5.638,5.185-2.4,5.185-5.638,5.185S1656.6,99.366,1656.6,96.385Zm7.842,0a2.217,2.217,0,1,0-2.2,2.463A2.221,2.221,0,0,0,1664.441,96.385Z" transform="translate(-1552.844 -91.2)" fill="#010101"/>
        </g>
        <g id="Grupo_2880" data-name="Grupo 2880">
          <g id="Grupo_2878" data-name="Grupo 2878">
            <path id="Caminho_10754" data-name="Caminho 10754" d="M1446.63,70.63a2.15,2.15,0,0,1,1.555,2.592l-7.453,29.422-9.332-2.4,7.453-29.422a2.12,2.12,0,0,1,2.592-1.555Zm-2.009,1.361a.464.464,0,0,0-.324-.583l-1.1-.259a.464.464,0,0,0-.583.324l-7.129,28,2.009.518Z" transform="translate(-1431.141 -69.212)" fill="#038562"/>
            <path id="Caminho_10755" data-name="Caminho 10755" d="M1446.514,72.55a.464.464,0,0,1,.324.583l-7.129,28-2.009-.518,7.129-28a.464.464,0,0,1,.583-.324Z" transform="translate(-1433.358 -70.29)" fill="#fff"/>
            <path id="Caminho_10756" data-name="Caminho 10756" d="M1440.332,120.933l-3.435,3.759-1.62,1.75-2.463-.518-.583-2.4L1431,118.6l4.666,1.167Z" transform="translate(-1431 -86.594)" fill="#038562"/>
            <path id="Caminho_10757" data-name="Caminho 10757" d="M1435.75,131.689l-1.361,1.555L1434,131.3Z" transform="translate(-1432.056 -91.063)" fill="#015038"/>
          </g>
          <g id="Grupo_2879" data-name="Grupo 2879" transform="translate(4.472 36.608)">
            <path id="Caminho_10758" data-name="Caminho 10758" d="M1461.533,126.607V125.7h-16.591l-.843.907Z" transform="translate(-1440.082 -125.7)" fill="#015038"/>
            <path id="Caminho_10759" data-name="Caminho 10759" d="M1460.442,129.907V129h-18.6l-.843.907Z" transform="translate(-1438.991 -126.861)" fill="#015038"/>
            <path id="Caminho_10760" data-name="Caminho 10760" d="M1459.351,133.207V132.3h-20.544l-.907.907Z" transform="translate(-1437.9 -128.023)" fill="#015038"/>
          </g>
        </g>
      </g>
      <g id="Grupo_2889" data-name="Grupo 2889" transform="translate(661.547 0.648)">
        <g id="Grupo_2887" data-name="Grupo 2887">
          <g id="Grupo_2882" data-name="Grupo 2882" transform="translate(4.796)">
            <path id="Caminho_10761" data-name="Caminho 10761" d="M1150.567,68.948v31.5l-27.284,15.748L1096,100.444v-31.5L1123.284,53.2l27.284,15.748ZM1147.262,98.5V70.892l-23.914-13.8-23.914,13.8V98.5l23.914,13.8Z" transform="translate(-1096 -53.2)" fill="#038562"/>
            <path id="Caminho_10762" data-name="Caminho 10762" d="M1149.092,72.969v27.608l-23.914,13.8-23.979-13.8V72.969L1125.178,59.1Z" transform="translate(-1097.83 -55.276)" fill="#fff"/>
          </g>
          <path id="Caminho_10763" data-name="Caminho 10763" d="M1175.51,91.109V89.683l-.778-.389V67.843L1156.2,57.085v-.972l-1.231-.713-1.167.713v1.361l1.167.713.907-.518,18.211,10.563V89.164l-.972.518v1.426l1.167.648Z" transform="translate(-1111.546 -53.974)" fill="#038562"/>
          <path id="Caminho_10764" data-name="Caminho 10764" d="M1109.079,127.757l1.231-.713v-1.361l-1.231-.713-.842.518-18.211-10.564V94.057l.972-.583V92.048l-1.167-.648-1.231.648v1.426l.778.389v21.451l18.535,10.758v.972Z" transform="translate(-1088.6 -66.644)" fill="#038562"/>
          <g id="Grupo_2886" data-name="Grupo 2886" transform="translate(18.948 14.061)">
            <g id="Grupo_2885" data-name="Grupo 2885">
              <g id="Grupo_2883" data-name="Grupo 2883">
                <path id="Caminho_10765" data-name="Caminho 10765" d="M1141.532,104c0,2.139-.129,2.4-2.268,2.657-2.787.389-5.638.583-8.425.713-3.176-.13-12.767.972-12.573-2.852,0-6.157-.259-12.313-.324-18.47-.065-5.055-.713-7.842,2.2-7.971.648-.065,1.037-.324,1.037-1.1-.13-2.074,2.787-1.879,2.527.518.389,0,.778.065,1.167.065.389-.972-.324-2.463,1.361-2.4,1.49,0,1.037,1.3,1.361,2.268a6.285,6.285,0,0,0,1.1-.065c.519-.907-.454-2.527,1.361-2.463,1.75.065.843,1.555,1.3,2.527.259,0,.583.065,1.037.065.195-.972.13-2.657,1.3-2.4.389,0,.843-.065,1.167.389.324.713-.389,2.592,1.167,2.139.324-.778-.259-2.139,1.426-2.009,1.555.13.972,1.361,1.167,2.268,2.916.972,2.852.13,2.787,3.37.065,7.518.065,15.1.129,22.747Zm-1.944-21.84a3.382,3.382,0,0,0-.259-1.361c-.065-.259-.389-.389-.713-.713-.324,1.1.13,1.815-1.49,1.62-1.62-.259-.843-.972-1.167-2.009a5.084,5.084,0,0,1-.907-.13c-.324.972.324,1.75-1.3,1.815-1.685,0-1.1-.907-1.49-1.879h-1.037c-.454.907.454,1.75-1.231,1.75-1.75.065-.972-.907-1.49-1.75a5.576,5.576,0,0,1-1.037-.065c-.389.972.454,1.879-1.3,1.944s-1.037-.842-1.426-1.75c-.389.065-.777.065-1.037.13-.324,1.037.324,1.685-1.167,1.944s-1.3-.454-1.88-1.361a3.978,3.978,0,0,0-.583,1.815c0,6.351,0,12.7.065,19.053.065,3.564.195,4.212,10.369,4.342,3.824-.13,4.8-.259,7.194-.454,1.167-.065,1.685-.648,1.685-1.879.065-7.064.13-14.063.195-21.062Z" transform="translate(-1117.837 -74.897)" fill="#038562"/>
                <path id="Caminho_10766" data-name="Caminho 10766" d="M1140.583,83.226a3.384,3.384,0,0,1,.259,1.361c-.065,7-.13,14-.13,21,0,1.231-.454,1.75-1.685,1.879-2.4.194-3.37.324-7.193.454-10.175-.13-10.3-.778-10.369-4.342-.065-6.351-.065-12.7-.065-19.053a3.975,3.975,0,0,1,.583-1.815c.583.842.389,1.555,1.879,1.361,1.491-.259.778-.907,1.167-1.944.324-.065.713-.065,1.037-.13.454.907-.259,1.815,1.426,1.75,1.75-.065.907-.972,1.3-1.944a5.929,5.929,0,0,1,1.037.065c.518.842-.259,1.815,1.491,1.75,1.685-.065.842-.842,1.231-1.75h1.037c.324,1.037-.259,1.944,1.491,1.879,1.555,0,.907-.842,1.3-1.815a3.824,3.824,0,0,1,.907.13c.324,1.037-.454,1.75,1.167,2.009s1.167-.518,1.49-1.62c.194.389.518.518.648.778Z" transform="translate(-1119.091 -77.326)" fill="#fff"/>
              </g>
              <g id="Grupo_2884" data-name="Grupo 2884" transform="translate(4.707 9.982)">
                <path id="Caminho_10767" data-name="Caminho 10767" d="M1127.433,121.721h-.194a2.158,2.158,0,0,1-2.139-2.139V100.4h4.472v19.183a2.116,2.116,0,0,1-2.139,2.139Z" transform="translate(-1125.1 -93.855)" fill="#038562"/>
                <path id="Caminho_10768" data-name="Caminho 10768" d="M1127.368,90.3l1.1,2.916,1.1,2.916H1125.1l1.1-2.916Z" transform="translate(-1125.1 -90.3)" fill="#038562"/>
                <path id="Caminho_10769" data-name="Caminho 10769" d="M1127.8,102.1h.972v18.794a.443.443,0,0,1-.454.454h-.065a.443.443,0,0,1-.454-.454V102.1Z" transform="translate(-1126.05 -94.453)" fill="#fff"/>
              </g>
            </g>
            <circle id="Elipse_26" data-name="Elipse 26" cx="8.814" cy="8.814" r="8.814" transform="translate(13.456 8.816)" fill="#038562"/>
            <path id="Caminho_10770" data-name="Caminho 10770" d="M1147.937,100.17v3.37a1.168,1.168,0,1,0,2.333,0v-3.37h3.435a1.073,1.073,0,0,0,1.167-1.1A1.089,1.089,0,0,0,1153.7,97.9h-3.37v-3.37a1.168,1.168,0,1,0-2.333,0V97.9h-3.435A1.073,1.073,0,0,0,1143.4,99a1.089,1.089,0,0,0,1.166,1.167Z" transform="translate(-1126.833 -81.374)" fill="#fff"/>
          </g>
        </g>
        <g id="Grupo_2888" data-name="Grupo 2888" transform="translate(75.176 16.915)">
          <path id="Caminho_10771" data-name="Caminho 10771" d="M1213.5,87.153V89.68h-8.3V79.7h8.1v2.527h-4.8v1.167h4.213v2.4h-4.213v1.3l4.99.065Z" transform="translate(-1204.811 -79.441)" fill="#010101"/>
          <path id="Caminho_10772" data-name="Caminho 10772" d="M1219,88.7l1.1-2.463a6.493,6.493,0,0,0,3.305.907c.972,0,1.3-.194,1.3-.518,0-1.231-5.509-.259-5.509-3.953,0-1.879,1.555-3.37,4.666-3.37a7.839,7.839,0,0,1,3.759.842l-1.037,2.463a5.749,5.749,0,0,0-2.787-.713c-.972,0-1.3.259-1.3.648,0,1.167,5.509.194,5.509,3.888,0,1.815-1.555,3.37-4.666,3.37A9.524,9.524,0,0,1,1219,88.7Z" transform="translate(-1209.668 -79.3)" fill="#010101"/>
          <path id="Caminho_10773" data-name="Caminho 10773" d="M1236.016,82.292H1233.1V79.7h9.2v2.592h-2.917V89.68h-3.37Z" transform="translate(-1214.63 -79.441)" fill="#010101"/>
          <path id="Caminho_10774" data-name="Caminho 10774" d="M1248.2,85.109V79.6h3.37v5.444c0,1.555.583,2.074,1.555,2.074s1.555-.583,1.555-2.074V79.665h3.305v5.509c0,2.981-1.815,4.731-4.86,4.731-3.111-.065-4.925-1.75-4.925-4.8Z" transform="translate(-1219.944 -79.406)" fill="#010101"/>
          <path id="Caminho_10775" data-name="Caminho 10775" d="M1265.6,79.7h4.925c3.305,0,5.638,1.879,5.638,4.99s-2.268,4.99-5.638,4.99H1265.6V79.7Zm4.8,7.323a2.334,2.334,0,1,0,0-4.666h-1.426v4.666Z" transform="translate(-1226.068 -79.441)" fill="#010101"/>
          <path id="Caminho_10776" data-name="Caminho 10776" d="M1283.2,84.585c0-3.046,2.4-5.185,5.638-5.185s5.638,2.2,5.638,5.185-2.4,5.185-5.638,5.185S1283.2,87.566,1283.2,84.585Zm7.842,0a2.217,2.217,0,1,0-2.2,2.463A2.221,2.221,0,0,0,1291.042,84.585Z" transform="translate(-1232.262 -79.335)" fill="#010101"/>
          <path id="Caminho_10777" data-name="Caminho 10777" d="M1204.6,110.985c0-3.046,2.333-5.185,5.573-5.185a5.351,5.351,0,0,1,4.471,2.009l-2.138,1.879a2.8,2.8,0,0,0-2.2-1.167,2.466,2.466,0,0,0,0,4.925,2.8,2.8,0,0,0,2.2-1.167l2.138,1.879a5.351,5.351,0,0,1-4.471,2.009c-3.241,0-5.573-2.139-5.573-5.185Z" transform="translate(-1204.6 -88.626)" fill="#010101"/>
          <path id="Caminho_10778" data-name="Caminho 10778" d="M1220.6,110.985c0-3.046,2.4-5.185,5.638-5.185s5.638,2.2,5.638,5.185-2.4,5.185-5.638,5.185S1220.6,113.966,1220.6,110.985Zm7.842,0a2.217,2.217,0,1,0-2.2,2.463A2.221,2.221,0,0,0,1228.442,110.985Z" transform="translate(-1210.231 -88.626)" fill="#010101"/>
          <path id="Caminho_10779" data-name="Caminho 10779" d="M1248.814,116.08v-4.536l-2.139,3.629h-1.491l-2.139-3.5v4.407H1240V106.1h2.787l3.24,5.314,3.176-5.314h2.787v9.98Z" transform="translate(-1217.058 -88.732)" fill="#010101"/>
          <path id="Caminho_10780" data-name="Caminho 10780" d="M1270.232,109.859c0,2.333-1.75,3.759-4.536,3.759h-1.426v2.463h-3.37V106.1h4.8c2.722,0,4.536,1.426,4.536,3.759Zm-3.435,0c0-.713-.454-1.167-1.361-1.167h-1.231v2.333h1.231c.972,0,1.361-.454,1.361-1.167Z" transform="translate(-1224.414 -88.732)" fill="#010101"/>
          <path id="Caminho_10781" data-name="Caminho 10781" d="M1277,106.1h3.37v7.388h4.472v2.592H1277Z" transform="translate(-1230.08 -88.732)" fill="#010101"/>
          <path id="Caminho_10782" data-name="Caminho 10782" d="M1298.8,113.453v2.527h-8.3V106h8.1v2.527h-4.8v1.167h4.212v2.4h-4.212v1.3l4.99.065Z" transform="translate(-1234.831 -88.697)" fill="#010101"/>
          <path id="Caminho_10783" data-name="Caminho 10783" d="M1314.314,116.08v-4.536l-2.139,3.629h-1.49l-2.139-3.5v4.407H1305.5V106.1h2.787l3.24,5.314,3.176-5.314h2.787v9.98Z" transform="translate(-1240.11 -88.732)" fill="#010101"/>
          <path id="Caminho_10784" data-name="Caminho 10784" d="M1334.6,113.453v2.527h-8.3V106h8.1v2.527h-4.8v1.167h4.212v2.4H1329.6v1.3l4.99.065Z" transform="translate(-1247.43 -88.697)" fill="#010101"/>
          <path id="Caminho_10785" data-name="Caminho 10785" d="M1350.951,106.1v9.98h-2.787l-3.759-4.536v4.536H1341.1V106.1h2.787l3.759,4.536V106.1Z" transform="translate(-1252.639 -88.732)" fill="#010101"/>
          <path id="Caminho_10786" data-name="Caminho 10786" d="M1360.516,108.692H1357.6V106.1h9.2v2.592h-2.916v7.388h-3.37v-7.388Z" transform="translate(-1258.446 -88.732)" fill="#010101"/>
          <path id="Caminho_10787" data-name="Caminho 10787" d="M1378.641,114.33h-3.759l-.648,1.75H1370.8l4.342-9.98h3.305l4.342,9.98h-3.5Zm-.907-2.463-.972-2.527-.972,2.527Z" transform="translate(-1263.091 -88.732)" fill="#010101"/>
          <path id="Caminho_10788" data-name="Caminho 10788" d="M1394.377,113.553h-.907v2.527h-3.37V106.1h4.8c2.787,0,4.536,1.426,4.536,3.759a3.337,3.337,0,0,1-1.88,3.111l2.074,3.046h-3.564l-1.685-2.463Zm.324-4.86h-1.231v2.333h1.231c.907,0,1.361-.454,1.361-1.167s-.454-1.167-1.361-1.167Z" transform="translate(-1269.884 -88.732)" fill="#010101"/>
        </g>
      </g>
      <g id="Grupo_2895" data-name="Grupo 2895" transform="translate(1249.19 5.962)">
        <g id="Grupo_2890" data-name="Grupo 2890" transform="translate(68.721 16.655)">
          <path id="Caminho_10789" data-name="Caminho 10789" d="M2110.732,95.959c0,2.333-1.75,3.759-4.536,3.759h-1.426v2.463h-3.37V92.2h4.8c2.786,0,4.536,1.426,4.536,3.759Zm-3.37,0c0-.713-.454-1.167-1.361-1.167h-1.231v2.333H2106c.907,0,1.361-.454,1.361-1.167Z" transform="translate(-2101.4 -88.895)" fill="#010101"/>
          <path id="Caminho_10790" data-name="Caminho 10790" d="M2121.777,99.653h-.907v2.527h-3.37V92.2h4.8c2.787,0,4.537,1.426,4.537,3.759a3.337,3.337,0,0,1-1.88,3.111l2.074,3.046h-3.565l-1.685-2.463Zm.324-4.861h-1.231v2.333h1.231c.907,0,1.361-.454,1.361-1.167s-.454-1.167-1.361-1.167Z" transform="translate(-2107.066 -88.895)" fill="#010101"/>
          <path id="Caminho_10791" data-name="Caminho 10791" d="M2133.3,97.085c0-3.046,2.4-5.185,5.638-5.185s5.638,2.2,5.638,5.185c0,3.046-2.4,5.185-5.638,5.185S2133.3,100.13,2133.3,97.085Zm7.842,0a2.217,2.217,0,1,0-2.2,2.463A2.221,2.221,0,0,0,2141.142,97.085Z" transform="translate(-2112.627 -88.789)" fill="#010101"/>
          <path id="Caminho_10792" data-name="Caminho 10792" d="M2162.13,92.2l-4.212,9.98h-3.305L2150.4,92.2h3.629l2.4,5.833,2.462-5.833Z" transform="translate(-2118.645 -88.895)" fill="#010101"/>
          <path id="Caminho_10793" data-name="Caminho 10793" d="M2168.1,97.085c0-3.046,2.4-5.185,5.638-5.185s5.638,2.2,5.638,5.185c0,3.046-2.4,5.185-5.638,5.185S2168.1,100.13,2168.1,97.085Zm7.906,0a2.217,2.217,0,1,0-2.2,2.463A2.221,2.221,0,0,0,2176.007,97.085Z" transform="translate(-2124.874 -88.789)" fill="#010101"/>
          <path id="Caminho_10794" data-name="Caminho 10794" d="M2186.8,97.085c0-3.046,2.333-5.185,5.573-5.185a5.349,5.349,0,0,1,4.471,2.009l-2.138,1.879a2.8,2.8,0,0,0-2.2-1.167,2.466,2.466,0,0,0,0,4.925,2.8,2.8,0,0,0,2.2-1.167l2.138,1.879a5.349,5.349,0,0,1-4.471,2.009,5.146,5.146,0,0,1-5.573-5.185Z" transform="translate(-2131.455 -88.789)" fill="#010101"/>
          <path id="Caminho_10795" data-name="Caminho 10795" d="M2209.742,100.43h-3.759l-.648,1.75H2201.9l4.342-9.98h3.3l4.342,9.98h-3.5l-.648-1.75Zm-.907-2.4-.972-2.527-.972,2.527Z" transform="translate(-2136.769 -88.895)" fill="#010101"/>
          <path id="Caminho_10796" data-name="Caminho 10796" d="M2228.306,98.416l2.139,1.879a5.56,5.56,0,0,1-4.148,2.009l-.13.518c.907.13,1.231.648,1.231,1.167,0,.972-.972,1.555-2.4,1.555a3.3,3.3,0,0,1-1.426-.324l.389-1.167a2.7,2.7,0,0,0,.843.194c.454,0,.713-.13.713-.324s-.195-.259-.583-.259h-.583l.324-1.361a5.1,5.1,0,0,1-4.277-5.12c0-3.046,2.333-5.185,5.573-5.185a5.351,5.351,0,0,1,4.472,2.009l-2.139,1.879a2.8,2.8,0,0,0-2.2-1.167,2.466,2.466,0,0,0,0,4.925,2.608,2.608,0,0,0,2.2-1.231Z" transform="translate(-2143.28 -88.824)" fill="#010101"/>
          <path id="Caminho_10797" data-name="Caminho 10797" d="M2243.441,98.636h-3.759l-.648,1.75H2235.6l4.342-9.98h3.305l4.342,9.98h-3.5l-.648-1.75Zm-3.5-9.073h-1.555c0-1.491.778-2.463,1.944-2.463,1.037,0,1.62.842,2.138.842.389,0,.583-.259.648-.648h1.555c0,1.426-.778,2.4-1.944,2.4-1.037,0-1.62-.842-2.139-.842a.83.83,0,0,0-.648.713Zm2.527,6.675-.972-2.527-.972,2.527Z" transform="translate(-2148.629 -87.1)" fill="#010101"/>
          <path id="Caminho_10798" data-name="Caminho 10798" d="M2254.1,97.085c0-3.046,2.4-5.185,5.638-5.185s5.638,2.2,5.638,5.185c0,3.046-2.4,5.185-5.638,5.185s-5.638-2.139-5.638-5.185Zm7.842,0a2.217,2.217,0,1,0-2.2,2.463A2.221,2.221,0,0,0,2261.942,97.085Z" transform="translate(-2155.14 -88.789)" fill="#010101"/>
        </g>
        <g id="Grupo_2894" data-name="Grupo 2894">
          <g id="Grupo_2891" data-name="Grupo 2891">
            <path id="Caminho_10799" data-name="Caminho 10799" d="M2016.124,61.4a13.134,13.134,0,0,0-2.139.583,26.355,26.355,0,0,0-18.535,23.33,21.163,21.163,0,0,0,.065,4.536h.389a34.3,34.3,0,0,1-.065-4.472,26.032,26.032,0,0,1,18.211-23.006l2.139-.583c0-.13-.065-.259-.065-.389Z" transform="translate(-1995.36 -61.4)" fill="#e85624"/>
            <path id="Caminho_10800" data-name="Caminho 10800" d="M2056.794,117.2a26.842,26.842,0,0,1-1.879,3.564,26.12,26.12,0,0,1-17.3,11.795,36.493,36.493,0,0,1-4.861.454H2026.4a2.813,2.813,0,0,0,.065.324v.065h6.286a24,24,0,0,0,4.925-.454,26.308,26.308,0,0,0,17.563-11.989,24.925,24.925,0,0,0,1.815-3.435c-.065-.13-.195-.194-.259-.324Z" transform="translate(-2006.284 -81.038)" fill="#e85624"/>
          </g>
          <path id="Caminho_10801" data-name="Caminho 10801" d="M2036.229,72.175a20.954,20.954,0,0,0-32.274,16.137,20.062,20.062,0,0,0,1.879,10.3l.389.778c.843,1.555,1.944,3.046,2.981,4.666-.065.065-.259.194-.389.324l-4.537,4.536a1.026,1.026,0,0,0,.065,1.685,2.068,2.068,0,0,0,.907.194h19.572a27.1,27.1,0,0,0,3.953-.324,21.006,21.006,0,0,0,16.4-26.182,21.383,21.383,0,0,0-8.944-12.119Z" transform="translate(-1998.356 -64.009)" fill="#e85624"/>
          <g id="Grupo_2892" data-name="Grupo 2892" transform="translate(15.061 23.395)">
            <circle id="Elipse_27" data-name="Elipse 27" cx="2.463" cy="2.463" r="2.463" fill="#fff"/>
            <circle id="Elipse_28" data-name="Elipse 28" cx="2.463" cy="2.463" r="2.463" transform="translate(9.008)" fill="#fff"/>
            <circle id="Elipse_29" data-name="Elipse 29" cx="2.463" cy="2.463" r="2.463" transform="translate(17.952)" fill="#fff"/>
          </g>
          <g id="Grupo_2893" data-name="Grupo 2893" transform="translate(32.883 2.722)">
            <circle id="Elipse_30" data-name="Elipse 30" cx="6.027" cy="6.027" r="6.027" transform="translate(0.713 0.713)" fill="#f26a41"/>
            <path id="Caminho_10802" data-name="Caminho 10802" d="M2052.84,66.961a5.379,5.379,0,1,1-5.379,5.379,5.366,5.366,0,0,1,5.379-5.379m0-1.361a6.74,6.74,0,1,0,6.74,6.74,6.777,6.777,0,0,0-6.74-6.74Z" transform="translate(-2046.1 -65.6)" fill="#fff"/>
          </g>
        </g>
      </g>
      <g id="Grupo_2898" data-name="Grupo 2898" transform="translate(1057.841 0.194)">
        <g id="Grupo_2896" data-name="Grupo 2896">
          <path id="Caminho_10803" data-name="Caminho 10803" d="M1738.942,82.9h-23.006L1704.4,102.8l11.536,19.96h23.006l11.536-19.96Z" transform="translate(-1701.613 -63.199)" fill="#f9c2a0"/>
          <path id="Caminho_10804" data-name="Caminho 10804" d="M1752.342,58.7h-23.071L1717.8,78.66l11.471,19.96h23.071l11.471-19.96Z" transform="translate(-1706.329 -54.682)" fill="#f9c2a0"/>
          <path id="Caminho_10805" data-name="Caminho 10805" d="M1745.128,62.1h-29.552L1700.8,87.7l14.776,25.6h29.552L1759.9,87.7Z" transform="translate(-1700.346 -55.879)" fill="#f26a41"/>
          <line id="Linha_26" data-name="Linha 26" x1="11.795" y1="20.414" transform="translate(42.448 11.536)" fill="none"/>
          <line id="Linha_27" data-name="Linha 27" x2="11.795" y2="20.479" transform="translate(7.064 31.95)" fill="none"/>
          <path id="Caminho_10806" data-name="Caminho 10806" d="M1735.744,52.5h-1.361l-.454.713h-21.451L1701.72,71.748h-.972l-.648,1.231.648,1.167h1.426l.648-1.167-.519-.907,10.563-18.211H1733.8l.583,1.037h1.361l.648-1.231Z" transform="translate(-1700.1 -52.5)" fill="#e85624"/>
          <path id="Caminho_10807" data-name="Caminho 10807" d="M1772.357,118.867l-.713-1.167h-1.361l-.713,1.167.519.842-10.5,18.275h-20.932l-.583-1.037h-1.426l-.648,1.231.648,1.167h1.426l.389-.713h21.516l10.693-18.6h.972Z" transform="translate(-1712.734 -75.446)" fill="#e85624"/>
          <path id="Caminho_10808" data-name="Caminho 10808" d="M1743.933,96.563a16.888,16.888,0,0,1-.648-2.268,38.438,38.438,0,0,1-1.685-9.656,8.021,8.021,0,0,1,.907-4.342,3.612,3.612,0,0,1,3.111-1.3c2.4,0,3.564,1.944,3.564,5.9a66.064,66.064,0,0,1-1.75,9.332,22.346,22.346,0,0,1-.648,2.4,1.633,1.633,0,0,1-1.491,1.1q-.875,0-1.361-1.167Zm-1.166,11.212a3.67,3.67,0,0,0,2.657,1.1,3.781,3.781,0,0,0,2.657-1.1,3.389,3.389,0,0,0,1.1-2.592,3.525,3.525,0,0,0-1.1-2.592,3.67,3.67,0,0,0-2.657-1.1,3.781,3.781,0,0,0-2.657,1.1,3.6,3.6,0,0,0,0,5.185Z" transform="translate(-1714.705 -61.826)" fill="#ffeec2"/>
        </g>
        <g id="Grupo_2897" data-name="Grupo 2897" transform="translate(73.361 25.858)">
          <path id="Caminho_10809" data-name="Caminho 10809" d="M1813.3,92.7h3.37v9.98h-3.37Z" transform="translate(-1813.3 -92.506)" fill="#010101"/>
          <path id="Caminho_10810" data-name="Caminho 10810" d="M1829.914,102.68V98.144l-2.139,3.629h-1.49l-2.139-3.5v4.407H1821.1V92.7h2.787l3.24,5.314L1830.3,92.7h2.787v9.98Z" transform="translate(-1816.045 -92.506)" fill="#010101"/>
          <path id="Caminho_10811" data-name="Caminho 10811" d="M1851.332,96.459c0,2.333-1.75,3.759-4.536,3.759h-1.426v2.463H1842V92.7h4.8C1849.582,92.7,1851.332,94.126,1851.332,96.459Zm-3.37,0c0-.713-.454-1.167-1.361-1.167h-1.231v2.333h1.231c.907,0,1.361-.454,1.361-1.167Z" transform="translate(-1823.401 -92.506)" fill="#010101"/>
          <path id="Caminho_10812" data-name="Caminho 10812" d="M1857.7,97.585c0-3.046,2.4-5.185,5.638-5.185s5.638,2.2,5.638,5.185-2.4,5.185-5.638,5.185S1857.7,100.566,1857.7,97.585Zm7.842,0a2.217,2.217,0,1,0-2.2,2.463A2.221,2.221,0,0,0,1865.542,97.585Z" transform="translate(-1828.926 -92.4)" fill="#010101"/>
          <path id="Caminho_10813" data-name="Caminho 10813" d="M1881.277,100.153h-.907v2.527H1877V92.7h4.8c2.787,0,4.536,1.426,4.536,3.759a3.338,3.338,0,0,1-1.879,3.111l2.074,3.046h-3.564l-1.685-2.463Zm.259-4.86h-1.231v2.333h1.231c.907,0,1.361-.454,1.361-1.167.065-.713-.389-1.167-1.361-1.167Z" transform="translate(-1835.718 -92.506)" fill="#010101"/>
          <path id="Caminho_10814" data-name="Caminho 10814" d="M1894.916,95.292H1892V92.7h9.2v2.592h-2.916v7.388h-3.37V95.292Z" transform="translate(-1840.997 -92.506)" fill="#010101"/>
          <path id="Caminho_10815" data-name="Caminho 10815" d="M1912.941,100.93h-3.759l-.648,1.75H1905.1l4.342-9.98h3.305l4.342,9.98h-3.5l-.648-1.75Zm-.907-2.4-.972-2.527-.972,2.527Z" transform="translate(-1845.607 -92.506)" fill="#010101"/>
          <path id="Caminho_10816" data-name="Caminho 10816" d="M1934.251,92.7v9.98h-2.787l-3.759-4.536v4.536H1924.4V92.7h2.787l3.759,4.536V92.7Z" transform="translate(-1852.4 -92.506)" fill="#010101"/>
          <path id="Caminho_10817" data-name="Caminho 10817" d="M1943.916,95.292H1941V92.7h9.2v2.592h-2.916v7.388h-3.37V95.292Z" transform="translate(-1858.242 -92.506)" fill="#010101"/>
          <path id="Caminho_10818" data-name="Caminho 10818" d="M1964.8,100.153v2.527h-8.3V92.7h8.1v2.527h-4.8v1.167h4.212v2.4h-4.212v1.3h4.99Z" transform="translate(-1863.697 -92.506)" fill="#010101"/>
        </g>
      </g>
      <g id="Grupo_2907" data-name="Grupo 2907" transform="translate(1444.996)">
        <g id="Grupo_2899" data-name="Grupo 2899" transform="translate(75.565 25.275)">
          <path id="Caminho_10819" data-name="Caminho 10819" d="M2423.432,94.959c0,2.333-1.75,3.759-4.536,3.759h-1.426v2.463h-3.37V91.2h4.8C2421.682,91.2,2423.432,92.626,2423.432,94.959Zm-3.37,0c0-.713-.454-1.167-1.361-1.167h-1.231v2.333h1.231c.907,0,1.361-.454,1.361-1.167Z" transform="translate(-2414.1 -91.2)" fill="#010101"/>
          <path id="Caminho_10820" data-name="Caminho 10820" d="M2435.641,99.43h-3.759l-.648,1.75H2427.8l4.342-9.98h3.305l4.342,9.98h-3.5Zm-.907-2.463-.972-2.527-.972,2.527Z" transform="translate(-2418.921 -91.2)" fill="#010101"/>
          <path id="Caminho_10821" data-name="Caminho 10821" d="M2451.477,98.653h-.907v2.527h-3.37V91.2h4.8c2.787,0,4.536,1.426,4.536,3.759a3.337,3.337,0,0,1-1.879,3.111l2.074,3.046h-3.565l-1.685-2.463Zm.259-4.861h-1.231v2.333h1.231c.907,0,1.361-.454,1.361-1.167q.1-1.167-1.361-1.167Z" transform="translate(-2425.749 -91.2)" fill="#010101"/>
          <path id="Caminho_10822" data-name="Caminho 10822" d="M2469.741,99.43h-3.759l-.648,1.75H2461.9l4.342-9.98h3.305l4.342,9.98h-3.5Zm-.907-2.463-.972-2.527-.972,2.527Z" transform="translate(-2430.922 -91.2)" fill="#010101"/>
          <path id="Caminho_10823" data-name="Caminho 10823" d="M2492.177,98.653h-.907v2.527h-3.37V91.2h4.8c2.787,0,4.536,1.426,4.536,3.759a3.338,3.338,0,0,1-1.879,3.111l2.074,3.046h-3.564l-1.685-2.463Zm.259-4.861h-1.231v2.333h1.231c.907,0,1.361-.454,1.361-1.167q.1-1.167-1.361-1.167Z" transform="translate(-2440.073 -91.2)" fill="#010101"/>
          <path id="Caminho_10824" data-name="Caminho 10824" d="M2512.495,98.588v2.527H2504.2V91.2h8.1v2.527h-4.8v1.167h4.212v2.4h-4.212v1.3Z" transform="translate(-2445.809 -91.2)" fill="#010101"/>
          <path id="Caminho_10825" data-name="Caminho 10825" d="M2522.37,93.727v1.685h4.147V97.94h-4.147v3.176H2519V91.2h8.1v2.527Z" transform="translate(-2451.018 -91.2)" fill="#010101"/>
          <path id="Caminho_10826" data-name="Caminho 10826" d="M2533.2,91.2h3.37v7.388h4.471v2.592H2533.2V91.2Z" transform="translate(-2456.015 -91.2)" fill="#010101"/>
          <path id="Caminho_10827" data-name="Caminho 10827" d="M2555.1,98.588v2.527h-8.3V91.2h8.1v2.527h-4.8v1.167h4.212v2.4h-4.212v1.3Z" transform="translate(-2460.801 -91.2)" fill="#010101"/>
          <path id="Caminho_10828" data-name="Caminho 10828" d="M2563.316,93.792H2560.4V91.2h9.2v2.592h-2.916v7.388h-3.37V93.792Z" transform="translate(-2465.588 -91.2)" fill="#010101"/>
          <path id="Caminho_10829" data-name="Caminho 10829" d="M2576,91.2h3.37v9.98H2576Z" transform="translate(-2471.078 -91.2)" fill="#010101"/>
          <path id="Caminho_10830" data-name="Caminho 10830" d="M2587.978,98.653h-.907v2.527h-3.37V91.2h4.8c2.787,0,4.537,1.426,4.537,3.759a3.338,3.338,0,0,1-1.88,3.111l2.074,3.046h-3.564l-1.685-2.463Zm.259-4.861h-1.231v2.333h1.231c.907,0,1.361-.454,1.361-1.167,0-.778-.389-1.167-1.361-1.167Z" transform="translate(-2473.788 -91.2)" fill="#010101"/>
        </g>
        <g id="Grupo_2906" data-name="Grupo 2906">
          <g id="Grupo_2903" data-name="Grupo 2903">
            <g id="Grupo_2900" data-name="Grupo 2900" transform="translate(4.342)">
              <path id="Caminho_10831" data-name="Caminho 10831" d="M2358.8,70.976v29.552L2333.2,115.3l-25.6-14.776V70.976L2333.2,56.2Z" transform="translate(-2305.397 -53.608)" fill="#fff"/>
              <path id="Caminho_10832" data-name="Caminho 10832" d="M2332,116.488l-27.8-16.072V68.272L2332,52.2l27.8,16.072v32.144Zm-23.4-18.664L2332,111.3l23.4-13.48V70.864L2332,57.385l-23.4,13.48Z" transform="translate(-2304.2 -52.2)" fill="#096798"/>
            </g>
            <g id="Grupo_2901" data-name="Grupo 2901" transform="translate(31.721 44.337)">
              <line id="Linha_28" data-name="Linha 28" y1="11.795" x2="20.479" transform="translate(0.229 0.25)" fill="none"/>
              <rect id="Retângulo_417" data-name="Retângulo 417" width="23.59" height="0.907" transform="translate(0 11.79) rotate(-29.988)" fill="#096798"/>
            </g>
            <g id="Grupo_2902" data-name="Grupo 2902" transform="translate(11.316 8.937)">
              <line id="Linha_29" data-name="Linha 29" x1="20.414" y2="11.795" transform="translate(0.219 0.265)" fill="none"/>
              <rect id="Retângulo_418" data-name="Retângulo 418" width="23.59" height="0.907" transform="translate(0 11.79) rotate(-29.988)" fill="#096798"/>
            </g>
            <path id="Caminho_10833" data-name="Caminho 10833" d="M2384.41,91.109V89.683l-.778-.389V67.843L2365.1,57.085v-.972l-1.166-.713-1.232.713v1.361l1.232.713.842-.518,18.211,10.563V89.164l-.972.518v1.426l1.167.648Z" transform="translate(-2320.446 -53.326)" fill="#096798"/>
            <path id="Caminho_10834" data-name="Caminho 10834" d="M2317.979,127.757l1.232-.713v-1.361l-1.232-.713-.842.518-18.211-10.564V93.992l.972-.518V92.048l-1.166-.648-1.232.648v1.426l.778.389v21.451l18.535,10.758v.972Z" transform="translate(-2297.5 -65.996)" fill="#096798"/>
          </g>
          <g id="Grupo_2905" data-name="Grupo 2905" transform="translate(18.23 17.109)">
            <path id="Caminho_10835" data-name="Caminho 10835" d="M2343.367,111.018a.613.613,0,0,0,.453-.518c.13-.972-.194-3.5-.064-4.472.194-1.491,1.231-2.074,2.009-3.305a16.535,16.535,0,0,0,2.592-5.638,10.465,10.465,0,0,0-6.091-11.341,14.622,14.622,0,0,0-1.556-.518,10.875,10.875,0,0,0-9.008,1.75,10.582,10.582,0,0,0-2.982,3.564,9.157,9.157,0,0,0-.907,2.852,11.993,11.993,0,0,1-.518,2.981,22.256,22.256,0,0,1-1.49,2.722c-.519,1.037.194,1.426,1.1,1.75,1.1.454.712,1.555.583,2.592-.259,2.851.453,3.564,3.37,3.694,1.62.065,1.62,1.361,1.62,2.981a3.669,3.669,0,0,0,0,.842c0,.065.065.13.13.259l.194.194.065.065h0a4.488,4.488,0,0,0,1.3.194c.778.065,1.426,0,2.2.065a33.361,33.361,0,0,0,4.342-.13,13.523,13.523,0,0,0,2.657-.583Z" transform="translate(-2325.63 -80.818)" fill="#013f57"/>
            <path id="Caminho_10836" data-name="Caminho 10836" d="M2362.861,83.274v1.037c0,.259.13.389.324.389s.324-.13.324-.389V83.274h1.037a.324.324,0,0,0,0-.648h-1.037V81.589c0-.259-.13-.389-.324-.389s-.324.13-.324.389v1.037h-1.037a.324.324,0,0,0,0,.648Z" transform="translate(-2338.254 -79.515)" fill="#013f57"/>
            <path id="Caminho_10837" data-name="Caminho 10837" d="M2357.877,79.7v.583a.194.194,0,1,0,.389,0v-.518h.583a.194.194,0,1,0,0-.389h-.583v-.583a.194.194,0,1,0-.389,0v.518h-.583a.194.194,0,0,0,0,.389Z" transform="translate(-2336.706 -78.6)" fill="#013f57"/>
            <g id="Grupo_2904" data-name="Grupo 2904" transform="translate(12.058 0.842)">
              <path id="Caminho_10838" data-name="Caminho 10838" d="M2349.98,95.13A3.417,3.417,0,0,1,2347,93.315a3.852,3.852,0,0,1-.454-1.685V90.269a5.609,5.609,0,0,1-2.139-3.176,5.731,5.731,0,0,1,1.3-5.249,5.668,5.668,0,0,1,3.564-1.879,2.91,2.91,0,0,1,.713-.065,5.69,5.69,0,0,1,4.926,2.852,5.753,5.753,0,0,1-1.555,7.453v1.3a3.518,3.518,0,0,1-2.074,3.24,1.918,1.918,0,0,1-1.3.389Z" transform="translate(-2344.235 -79.9)" fill="#fff"/>
              <path id="Caminho_10839" data-name="Caminho 10839" d="M2354.788,83.54a4.993,4.993,0,0,1-1.555,6.74c-.064.065-.064.065-.064.194v1.491a2.928,2.928,0,0,1-1.685,2.657,2.747,2.747,0,0,1-3.823-2.592V90.41c0-.065,0-.13-.065-.13a5.007,5.007,0,0,1-2.074-2.916,5.154,5.154,0,0,1,1.167-4.666,4.6,4.6,0,0,1,3.111-1.62,5.153,5.153,0,0,1,4.99,2.463Z" transform="translate(-2344.637 -80.3)" fill="#013f57"/>
              <path id="Caminho_10840" data-name="Caminho 10840" d="M2353.176,90.005a4.172,4.172,0,0,0,1.685-4.407,4.147,4.147,0,1,0-7.906,2.463,3.829,3.829,0,0,0,1.62,2.009.925.925,0,0,1,.389.778V91.3h3.694v-.324a1.23,1.23,0,0,1,.518-.972Z" transform="translate(-2345.098 -80.803)" fill="#013f57"/>
              <path id="Caminho_10841" data-name="Caminho 10841" d="M2354.861,85.6a4.172,4.172,0,0,1-1.685,4.407,1.143,1.143,0,0,0-.519.972V91.3h-3.694v-.454a.849.849,0,0,0-.389-.778,4.092,4.092,0,0,1-1.62-2.009,4.147,4.147,0,1,1,7.907-2.463Z" transform="translate(-2345.098 -80.803)" fill="#fff"/>
            </g>
          </g>
        </g>
      </g>
    </g>
  </g>
</svg>
