<?xml version="1.0" encoding="UTF-8"?>
<svg id="Camada_2" data-name="Camada 2" xmlns="http://www.w3.org/2000/svg" viewBox="0 0 282.78 266.6">
  <defs>
    <style>
      .cls-1 {
        fill: #fff;
      }

      .cls-2 {
        fill: #116c98;
      }
    </style>
  </defs>
  <g id="Layer_1" data-name="Layer 1">
    <g>
      <polygon class="cls-2" points="76.96 0 95.78 0 240.46 0 282.78 0 282.78 266.6 217.61 266.6 95.78 266.6 76.96 266.6 0 133.3 76.96 0"/>
      <g>
        <path class="cls-1" d="m173.01,131.08c0,25.99-10.48,43.84-31.94,43.84s-31.3-19.53-31.43-43.32c0-24.31,10.35-43.58,32.07-43.58s31.3,20.04,31.3,43.07Zm-43.58.52c-.13,19.27,4.53,28.45,12.16,28.45s11.77-9.57,11.77-28.71-4.01-28.45-11.9-28.45c-7.24,0-12.16,9.18-12.03,28.71Z"/>
        <path class="cls-1" d="m207.8,106.89h-.26l-16.04,7.63-3.23-14.74,22.24-10.35h16.3v84.06h-19.01v-66.6Z"/>
      </g>
    </g>
  </g>
</svg>