<?xml version="1.0" encoding="UTF-8"?>
<svg id="Layer_1" data-name="Layer 1" xmlns="http://www.w3.org/2000/svg" xmlns:xlink="http://www.w3.org/1999/xlink" viewBox="0 0 1247.65 1537.41">
  <defs>
    <style>
      .cls-1 {
        fill: #2dabe2;
      }

      .cls-2 {
        fill: url(#linear-gradient-2);
      }

      .cls-3 {
        fill: #d6d6d6;
      }

      .cls-4 {
        fill: #3a3435;
      }

      .cls-5 {
        fill: #2a96bc;
      }

      .cls-6 {
        fill: url(#linear-gradient-3);
      }

      .cls-7 {
        fill: url(#linear-gradient);
      }

      .cls-8 {
        fill: #231f20;
      }

      .cls-9 {
        fill: url(#linear-gradient-4);
      }
    </style>
    <linearGradient id="linear-gradient" x1="76.68" y1="136.73" x2="1220.56" y2="1146.52" gradientUnits="userSpaceOnUse">
      <stop offset="0" stop-color="#fcd626"/>
      <stop offset=".36" stop-color="#fcdf5a"/>
      <stop offset=".72" stop-color="#fce88a"/>
      <stop offset=".72" stop-color="#fce785"/>
      <stop offset=".82" stop-color="#fcdd52"/>
      <stop offset=".89" stop-color="#fcd832"/>
      <stop offset=".92" stop-color="#fcd626"/>
    </linearGradient>
    <linearGradient id="linear-gradient-2" y1="166.43" x2="1220.56" y2="1176.22" xlink:href="#linear-gradient"/>
    <linearGradient id="linear-gradient-3" x1="76.68" y1="196.13" x2="1220.56" y2="1205.92" xlink:href="#linear-gradient"/>
    <linearGradient id="linear-gradient-4" x1="76.68" y1="225.83" x2="1220.56" y2="1235.62" gradientUnits="userSpaceOnUse">
      <stop offset="0" stop-color="#fcd626"/>
      <stop offset=".36" stop-color="#fcdf5a"/>
      <stop offset=".72" stop-color="#fce88a"/>
      <stop offset=".72" stop-color="#fce785"/>
      <stop offset=".82" stop-color="#fcdd52"/>
      <stop offset=".89" stop-color="#fcd832"/>
      <stop offset=".92" stop-color="#fcd626"/>
    </linearGradient>
  </defs>
  <g>
    <path class="cls-3" d="m1136.12,578.21c.05-114.44-.43-223.12-1.94-298.66-.09-4.55-.16-9.51-.22-14.76.19-29.16.47-51.55.47-51.55h-.3c.15-17.77.3-29.7.3-29.7h-.3c.15-17.77.3-29.7.3-29.7h-.3c.15-17.77.3-29.7.3-29.7l-997.89.17.36,29.7h-.36s.36,29.7.36,29.7h-.36s.36,29.7.36,29.7h-.36s12.42,1032.48,12.42,1032.48c0,0,399.17,18.17,530.09,16.93,130.92-1.24,454.67-72.33,454.67-72.33.42-78.99,2.5-331.5,2.4-552.88,0-9.95,0-19.85,0-29.7,0-9.95,0-19.85,0-29.7Z"/>
    <path class="cls-7" d="m111.52,97.27l997.89-.17s-1.28,103.69-.25,155.41c4.34,216.64.16,705.95-.46,821.83,0,0-323.75,71.09-454.67,72.33-130.92,1.24-530.09-16.93-530.09-16.93L111.52,97.27Z"/>
    <path class="cls-2" d="m111.52,126.97l997.89-.17s-1.28,103.69-.25,155.41c4.34,216.64.16,705.95-.46,821.83,0,0-323.75,71.09-454.67,72.33-130.92,1.24-530.09-16.93-530.09-16.93L111.52,126.97Z"/>
    <path class="cls-6" d="m111.52,156.66l997.89-.17s-1.28,103.69-.25,155.41c4.34,216.64.16,705.95-.46,821.83,0,0-323.75,71.09-454.67,72.33-130.92,1.24-530.09-16.93-530.09-16.93l-12.42-1032.48Z"/>
    <path class="cls-9" d="m111.52,186.36l997.89-.17s-1.28,103.69-.25,155.41c4.34,216.64.16,705.95-.46,821.83,0,0-323.75,71.09-454.67,72.33-130.92,1.24-530.09-16.93-530.09-16.93l-12.42-1032.48Z"/>
    <g>
      <path class="cls-4" d="m588.78,308.27s-.01,5.51-4.04,8.59c-4.03,3.08-9.1,0-9.1,0l-36.44-49.1,17.7-10.77,31.88,51.28Z"/>
      <g>
        <path class="cls-1" d="m554.92,278.53c-30.31,15.86-64.31,11.99-80.89-7.76.71,3.38,1.87,6.65,3.5,9.78,12.96,24.78,50.9,30.51,84.73,12.81,33.83-17.7,50.75-52.14,37.78-76.91-1.34-2.56-3-4.87-4.84-7.02,5.53,24.52-10.69,53.62-40.27,69.09Z"/>
        <path class="cls-5" d="m554.92,278.53c29.58-15.48,45.8-44.57,40.27-69.09-15.97-18.65-49.55-21.67-79.88-5.8-29.57,15.47-46.21,43.72-41.28,67.14,16.58,19.74,50.58,23.61,80.89,7.76Z"/>
      </g>
      <path class="cls-1" d="m456.77,166.92s20.65,18.24,36.21,71.68c0,0,15.5,16.56,41.26,1.98,25.08-14.19,19.68-34.92,19.68-34.92,0,0-41.53-46.89-42.19-73.49,0,0-45.74,10.67-54.96,34.74Z"/>
      <path class="cls-1" d="m526.29,120.45c9.27,17.72-3.44,42.66-28.39,55.72-24.95,13.05-52.69,9.27-61.96-8.45-9.27-17.72,3.44-42.66,28.39-55.72,24.95-13.05,52.69-9.27,61.96,8.45Z"/>
      <path class="cls-5" d="m525.67,119.14c7.52,14.38-6.6,36.62-31.55,49.67-24.95,13.05-51.27,11.98-58.8-2.4-7.52-14.38,4.06-41.34,29.01-54.4,24.95-13.05,53.82-7.25,61.34,7.13Z"/>
      <path class="cls-1" d="m511.24,110.66c5.04,9.64-10.33,27.28-28.23,36.64-17.89,9.36-41.35,11.21-46.39,1.58-5.04-9.64,8.96-26.16,26.86-35.52,17.89-9.36,42.72-12.34,47.76-2.7Z"/>
    </g>
  </g>
  <g>
    <path class="cls-8" d="m275.34,486.09h16.71c13.13,0,21.98,8.44,21.98,20.52s-8.85,20.52-21.98,20.52h-16.71v-41.04Zm16.47,37.29c10.9,0,17.94-6.92,17.94-16.77s-7.04-16.77-17.94-16.77h-12.13v33.53h12.13Z"/>
    <path class="cls-8" d="m349.73,513h-25.79c.47,6.45,5.39,10.73,12.13,10.73,3.75,0,7.09-1.35,9.44-4.04l2.34,2.7c-2.75,3.28-7.03,5.04-11.9,5.04-9.61,0-16.18-6.57-16.18-15.71s6.39-15.65,15.07-15.65,14.95,6.39,14.95,15.65c0,.35-.06.82-.06,1.29Zm-25.79-3.11h21.87c-.53-6.04-4.92-10.26-10.96-10.26s-10.38,4.22-10.9,10.26Z"/>
    <path class="cls-8" d="m368.32,483.34c2.29,0,4.63.64,6.16,1.93l-1.41,3.11c-1.17-1-2.81-1.52-4.57-1.52-3.58,0-5.45,1.99-5.45,5.8v3.63h9.5v3.52h-9.38v27.32h-4.16v-27.32h-5.51v-3.52h5.51v-3.81c0-5.51,3.28-9.15,9.32-9.15Zm19.7,3.17c0,1.7-1.29,3.05-3.05,3.05s-3.05-1.35-3.05-2.99,1.35-2.93,3.05-2.93,3.05,1.29,3.05,2.87Zm-5.16,9.79h4.16v30.84h-4.16v-30.84Z"/>
    <path class="cls-8" d="m427,509.25v17.88h-4.16v-17.47c0-6.51-3.4-9.85-9.26-9.85-6.62,0-10.79,4.1-10.79,11.14v16.18h-4.16v-30.84h3.99v5.69c2.23-3.75,6.39-5.92,11.72-5.92,7.5,0,12.66,4.34,12.66,13.19Z"/>
    <path class="cls-8" d="m437.37,486.56c0-1.58,1.35-2.93,3.05-2.93s3.05,1.29,3.05,2.87c0,1.7-1.29,3.05-3.05,3.05s-3.05-1.35-3.05-2.99Zm.94,9.73h4.16v30.84h-4.16v-30.84Z"/>
    <path class="cls-8" d="m475.83,519.21l3.11,2.11c-2.46,3.99-6.86,6.1-12.08,6.1h-.12l-.7,2.76c3.22.29,4.98,2.17,4.98,4.75,0,3.17-2.7,5.1-6.62,5.1-1.93,0-3.52-.41-4.92-1.35l1-2.23c1.17.76,2.46,1.11,3.87,1.11,2.34,0,3.63-1,3.63-2.76,0-1.58-1.17-2.7-3.63-2.7h-1.35l1.29-4.87c-7.86-1.11-13.31-7.21-13.31-15.54,0-9.2,6.68-15.65,15.89-15.65,5.22,0,9.61,2.05,12.08,6.1l-3.11,2.11c-2.11-3.11-5.39-4.57-8.97-4.57-6.74,0-11.67,4.81-11.67,12.02s4.92,12.02,11.67,12.02c3.58,0,6.86-1.41,8.97-4.51Z"/>
    <path class="cls-8" d="m510.36,508.02v19.11h-3.99v-4.81c-1.88,3.17-5.51,5.1-10.61,5.1-6.98,0-11.26-3.63-11.26-8.97,0-4.75,3.05-8.73,11.9-8.73h9.79v-1.88c0-5.28-2.99-8.15-8.73-8.15-3.99,0-7.74,1.41-10.26,3.63l-1.88-3.11c3.11-2.64,7.68-4.16,12.55-4.16,7.97,0,12.49,3.99,12.49,11.96Zm-4.16,9.85v-5.04h-9.67c-5.98,0-7.91,2.35-7.91,5.51,0,3.58,2.87,5.8,7.8,5.8s8.15-2.23,9.79-6.27Zm-14.95-26.91h-2.52c.12-3.93,2.17-6.45,5.28-6.45,3.63,0,5.39,3.99,7.68,3.99,1.76,0,2.93-1.41,3.05-3.63h2.52c-.12,3.81-2.17,6.33-5.28,6.33-3.63,0-5.33-3.99-7.68-3.99-1.76,0-2.93,1.41-3.05,3.75Z"/>
    <path class="cls-8" d="m518.68,511.71c0-9.15,6.68-15.65,15.71-15.65s15.65,6.51,15.65,15.65-6.62,15.71-15.65,15.71-15.71-6.57-15.71-15.71Zm27.14,0c0-7.21-4.87-12.02-11.43-12.02s-11.49,4.81-11.49,12.02,4.92,12.02,11.49,12.02,11.43-4.81,11.43-12.02Z"/>
    <path class="cls-8" d="m602.04,483.63v43.5h-3.99v-6.1c-2.52,4.16-6.8,6.39-11.9,6.39-8.79,0-15.36-6.39-15.36-15.71s6.57-15.65,15.36-15.65c4.92,0,9.14,2.11,11.72,6.1v-18.53h4.16Zm-4.1,28.08c0-7.21-4.92-12.02-11.43-12.02s-11.49,4.81-11.49,12.02,4.92,12.02,11.49,12.02,11.43-4.81,11.43-12.02Z"/>
    <path class="cls-8" d="m610.54,511.71c0-9.15,6.68-15.65,15.71-15.65s15.65,6.51,15.65,15.65-6.62,15.71-15.65,15.71-15.71-6.57-15.71-15.71Zm27.14,0c0-7.21-4.87-12.02-11.43-12.02s-11.49,4.81-11.49,12.02,4.92,12.02,11.49,12.02,11.43-4.81,11.43-12.02Z"/>
    <path class="cls-8" d="m697.01,511.71c0,9.38-6.57,15.71-15.36,15.71-4.92,0-9.15-2.11-11.73-6.1v17.18h-4.16v-42.21h3.99v6.1c2.52-4.1,6.8-6.33,11.9-6.33,8.79,0,15.36,6.33,15.36,15.65Zm-4.16,0c0-7.15-4.98-12.02-11.49-12.02s-11.49,4.87-11.49,12.02,4.92,12.02,11.49,12.02,11.49-4.81,11.49-12.02Z"/>
    <path class="cls-8" d="m721.04,496.06v4.05c-.35,0-.7-.06-1-.06-6.45,0-10.38,4.1-10.38,11.37v15.71h-4.16v-30.84h3.99v6.04c1.93-4.1,5.86-6.27,11.55-6.27Z"/>
    <path class="cls-8" d="m725.15,511.71c0-9.15,6.68-15.65,15.71-15.65s15.65,6.51,15.65,15.65-6.62,15.71-15.65,15.71-15.71-6.57-15.71-15.71Zm27.14,0c0-7.21-4.87-12.02-11.43-12.02s-11.49,4.81-11.49,12.02,4.92,12.02,11.49,12.02,11.43-4.81,11.43-12.02Z"/>
    <path class="cls-8" d="m796.26,511.71c0,9.32-6.57,15.71-15.36,15.71-5.1,0-9.38-2.23-11.9-6.39v6.1h-3.99v-43.5h4.16v18.53c2.58-3.99,6.8-6.1,11.73-6.1,8.79,0,15.36,6.33,15.36,15.65Zm-4.16,0c0-7.21-4.98-12.02-11.49-12.02s-11.49,4.81-11.49,12.02,4.92,12.02,11.49,12.02,11.49-4.81,11.49-12.02Z"/>
    <path class="cls-8" d="m804.76,483.63h4.16v43.5h-4.16v-43.5Z"/>
    <path class="cls-8" d="m847.38,513h-25.79c.47,6.45,5.39,10.73,12.13,10.73,3.75,0,7.09-1.35,9.44-4.04l2.34,2.7c-2.75,3.28-7.03,5.04-11.9,5.04-9.61,0-16.18-6.57-16.18-15.71s6.39-15.65,15.07-15.65,14.95,6.39,14.95,15.65c0,.35-.06.82-.06,1.29Zm-25.79-3.11h21.87c-.53-6.04-4.92-10.26-10.96-10.26s-10.38,4.22-10.9,10.26Z"/>
    <path class="cls-8" d="m906.82,509.25v17.88h-4.16v-17.47c0-6.51-3.28-9.85-8.85-9.85-6.33,0-10.32,4.1-10.32,11.14v16.18h-4.16v-17.47c0-6.51-3.28-9.85-8.91-9.85-6.27,0-10.32,4.1-10.32,11.14v16.18h-4.16v-30.84h3.99v5.63c2.17-3.69,6.16-5.86,11.31-5.86s9.09,2.17,10.96,6.51c2.23-3.99,6.62-6.51,12.19-6.51,7.5,0,12.43,4.34,12.43,13.19Z"/>
    <path class="cls-8" d="m941.41,508.02v19.11h-3.99v-4.81c-1.88,3.17-5.51,5.1-10.61,5.1-6.98,0-11.26-3.63-11.26-8.97,0-4.75,3.05-8.73,11.9-8.73h9.79v-1.88c0-5.28-2.99-8.15-8.73-8.15-3.99,0-7.74,1.41-10.26,3.63l-1.88-3.11c3.11-2.64,7.68-4.16,12.55-4.16,7.97,0,12.49,3.99,12.49,11.96Zm-4.16,9.85v-5.04h-9.67c-5.98,0-7.91,2.35-7.91,5.51,0,3.58,2.87,5.8,7.8,5.8s8.15-2.23,9.79-6.27Z"/>
    <path class="cls-8" d="m956.29,524.2c0,1-.23,1.76-.82,3.4l-2.46,8.09h-2.81l1.99-8.5c-1.23-.35-2.11-1.47-2.11-2.99,0-1.82,1.35-3.17,3.11-3.17s3.11,1.41,3.11,3.17Z"/>
    <path class="cls-8" d="m293.6,578.06c0-9.15,6.68-15.65,15.71-15.65s15.65,6.51,15.65,15.65-6.62,15.71-15.65,15.71-15.71-6.57-15.71-15.71Zm27.14,0c0-7.21-4.87-12.02-11.43-12.02s-11.49,4.81-11.49,12.02,4.92,12.02,11.49,12.02,11.43-4.81,11.43-12.02Z"/>
    <path class="cls-8" d="m364.71,578.06c0,9.32-6.57,15.71-15.36,15.71-5.1,0-9.38-2.23-11.9-6.39v6.1h-3.99v-43.5h4.16v18.53c2.58-3.99,6.8-6.1,11.73-6.1,8.79,0,15.36,6.33,15.36,15.65Zm-4.16,0c0-7.21-4.98-12.02-11.49-12.02s-11.49,4.81-11.49,12.02,4.92,12.02,11.49,12.02,11.49-4.81,11.49-12.02Z"/>
    <path class="cls-8" d="m362.13,603.15l1.47-3.17c1.23,1.06,2.87,1.58,4.81,1.58,3.28,0,5.1-1.99,5.1-5.8v-33.12h4.16v33.12c0,5.69-3.17,9.38-9.03,9.38-2.46,0-4.98-.64-6.51-1.99Zm10.44-50.24c0-1.58,1.35-2.93,3.05-2.93s3.05,1.29,3.05,2.87c0,1.7-1.29,3.05-3.05,3.05s-3.05-1.35-3.05-2.99Z"/>
    <path class="cls-8" d="m416.12,579.35h-25.79c.47,6.45,5.39,10.73,12.13,10.73,3.75,0,7.09-1.35,9.44-4.04l2.34,2.7c-2.75,3.28-7.03,5.04-11.9,5.04-9.61,0-16.18-6.57-16.18-15.71s6.39-15.65,15.07-15.65,14.95,6.39,14.95,15.65c0,.35-.06.82-.06,1.29Zm-25.79-3.11h21.87c-.53-6.04-4.92-10.26-10.96-10.26s-10.38,4.22-10.9,10.26Z"/>
    <path class="cls-8" d="m440.92,591.6c-1.64,1.47-4.1,2.17-6.51,2.17-5.8,0-9.03-3.28-9.03-8.97v-18.64h-5.51v-3.52h5.51v-6.74h4.16v6.74h9.38v3.52h-9.38v18.41c0,3.63,1.88,5.63,5.33,5.63,1.7,0,3.4-.53,4.57-1.58l1.47,2.99Z"/>
    <path class="cls-8" d="m447.54,552.91c0-1.58,1.35-2.93,3.05-2.93s3.05,1.29,3.05,2.87c0,1.7-1.29,3.05-3.05,3.05s-3.05-1.35-3.05-2.99Zm.94,9.73h4.16v30.84h-4.16v-30.84Z"/>
    <path class="cls-8" d="m490.16,562.64l-13.72,30.84h-4.28l-13.66-30.84h4.34l11.55,26.26,11.67-26.26h4.1Z"/>
    <path class="cls-8" d="m492.04,578.06c0-9.15,6.68-15.65,15.71-15.65s15.65,6.51,15.65,15.65-6.62,15.71-15.65,15.71-15.71-6.57-15.71-15.71Zm27.14,0c0-7.21-4.87-12.02-11.43-12.02s-11.49,4.81-11.49,12.02,4.92,12.02,11.49,12.02,11.43-4.81,11.43-12.02Z"/>
    <path class="cls-8" d="m527.62,589.96l1.88-3.28c2.46,1.93,6.62,3.46,10.96,3.46,5.86,0,8.27-1.99,8.27-5.04,0-8.03-19.99-1.7-19.99-13.89,0-5.04,4.34-8.79,12.19-8.79,3.99,0,8.32,1.11,10.9,2.87l-1.82,3.34c-2.7-1.88-5.92-2.64-9.09-2.64-5.57,0-8.03,2.17-8.03,5.1,0,8.33,19.99,2.05,19.99,13.89,0,5.33-4.69,8.79-12.72,8.79-5.1,0-10.03-1.64-12.55-3.81Z"/>
    <path class="cls-8" d="m564.14,590.54c0,1-.23,1.76-.82,3.4l-2.46,8.09h-2.81l1.99-8.5c-1.23-.35-2.11-1.47-2.11-2.99,0-1.82,1.35-3.17,3.11-3.17s3.11,1.41,3.11,3.17Z"/>
    <path class="cls-8" d="m587.42,552.91c0-1.58,1.35-2.93,3.05-2.93s3.05,1.29,3.05,2.87c0,1.7-1.29,3.05-3.05,3.05s-3.05-1.35-3.05-2.99Zm.94,9.73h4.16v30.84h-4.16v-30.84Z"/>
    <path class="cls-8" d="m632.5,575.59v17.88h-4.16v-17.47c0-6.51-3.4-9.85-9.26-9.85-6.62,0-10.79,4.1-10.79,11.14v16.18h-4.16v-30.84h3.99v5.69c2.23-3.75,6.39-5.92,11.72-5.92,7.5,0,12.66,4.34,12.66,13.19Z"/>
    <path class="cls-8" d="m672.07,549.98v43.5h-3.99v-6.1c-2.52,4.16-6.8,6.39-11.9,6.39-8.79,0-15.36-6.39-15.36-15.71s6.57-15.65,15.36-15.65c4.92,0,9.14,2.11,11.72,6.1v-18.53h4.16Zm-4.1,28.08c0-7.21-4.92-12.02-11.43-12.02s-11.49,4.81-11.49,12.02,4.92,12.02,11.49,12.02,11.43-4.81,11.43-12.02Z"/>
    <path class="cls-8" d="m682.73,552.91c0-1.58,1.35-2.93,3.05-2.93s3.05,1.29,3.05,2.87c0,1.7-1.29,3.05-3.05,3.05s-3.05-1.35-3.05-2.99Zm.94,9.73h4.16v30.84h-4.16v-30.84Z"/>
    <path class="cls-8" d="m696.33,578.06c0-9.2,6.68-15.65,15.89-15.65,5.22,0,9.61,2.05,12.08,6.1l-3.11,2.11c-2.11-3.11-5.39-4.57-8.97-4.57-6.74,0-11.67,4.81-11.67,12.02s4.92,12.02,11.67,12.02c3.58,0,6.86-1.41,8.97-4.51l3.11,2.11c-2.46,3.99-6.86,6.1-12.08,6.1-9.2,0-15.89-6.51-15.89-15.71Z"/>
    <path class="cls-8" d="m755.72,574.36v19.11h-3.99v-4.81c-1.88,3.17-5.51,5.1-10.61,5.1-6.98,0-11.26-3.63-11.26-8.97,0-4.75,3.05-8.73,11.9-8.73h9.79v-1.88c0-5.28-2.99-8.15-8.73-8.15-3.99,0-7.74,1.41-10.26,3.63l-1.88-3.11c3.11-2.64,7.68-4.16,12.55-4.16,7.97,0,12.49,3.99,12.49,11.96Zm-4.16,9.85v-5.04h-9.67c-5.98,0-7.91,2.35-7.91,5.51,0,3.58,2.87,5.8,7.8,5.8s8.15-2.23,9.79-6.27Z"/>
    <path class="cls-8" d="m795.29,549.98v43.5h-3.99v-6.1c-2.52,4.16-6.8,6.39-11.9,6.39-8.79,0-15.36-6.39-15.36-15.71s6.57-15.65,15.36-15.65c4.92,0,9.15,2.11,11.72,6.1v-18.53h4.16Zm-4.1,28.08c0-7.21-4.92-12.02-11.43-12.02s-11.49,4.81-11.49,12.02,4.92,12.02,11.49,12.02,11.43-4.81,11.43-12.02Z"/>
    <path class="cls-8" d="m803.79,578.06c0-9.15,6.68-15.65,15.71-15.65s15.65,6.51,15.65,15.65-6.62,15.71-15.65,15.71-15.71-6.57-15.71-15.71Zm27.14,0c0-7.21-4.87-12.02-11.43-12.02s-11.49,4.81-11.49,12.02,4.92,12.02,11.49,12.02,11.43-4.81,11.43-12.02Z"/>
    <path class="cls-8" d="m859.19,562.4v4.05c-.35,0-.7-.06-1-.06-6.45,0-10.38,4.1-10.38,11.37v15.71h-4.16v-30.84h3.99v6.04c1.93-4.1,5.86-6.27,11.55-6.27Z"/>
    <path class="cls-8" d="m893.25,579.35h-25.79c.47,6.45,5.39,10.73,12.13,10.73,3.75,0,7.09-1.35,9.44-4.04l2.34,2.7c-2.75,3.28-7.03,5.04-11.9,5.04-9.61,0-16.18-6.57-16.18-15.71s6.39-15.65,15.07-15.65,14.95,6.39,14.95,15.65c0,.35-.06.82-.06,1.29Zm-25.79-3.11h21.87c-.53-6.04-4.92-10.26-10.96-10.26s-10.38,4.22-10.9,10.26Z"/>
    <path class="cls-8" d="m897.52,589.96l1.88-3.28c2.46,1.93,6.62,3.46,10.96,3.46,5.86,0,8.27-1.99,8.27-5.04,0-8.03-19.99-1.7-19.99-13.89,0-5.04,4.34-8.79,12.19-8.79,3.99,0,8.32,1.11,10.9,2.87l-1.82,3.34c-2.7-1.88-5.92-2.64-9.09-2.64-5.57,0-8.03,2.17-8.03,5.1,0,8.33,19.99,2.05,19.99,13.89,0,5.33-4.69,8.79-12.72,8.79-5.1,0-10.02-1.64-12.54-3.81Z"/>
    <path class="cls-8" d="m934.05,590.54c0,1-.23,1.76-.82,3.4l-2.46,8.09h-2.81l1.99-8.5c-1.23-.35-2.11-1.47-2.11-2.99,0-1.82,1.35-3.17,3.11-3.17s3.11,1.41,3.11,3.17Z"/>
    <path class="cls-8" d="m382.27,619.25c0-1.58,1.35-2.93,3.05-2.93s3.05,1.29,3.05,2.87c0,1.7-1.29,3.05-3.05,3.05s-3.05-1.35-3.05-2.99Zm.94,9.73h4.16v30.84h-4.16v-30.84Z"/>
    <path class="cls-8" d="m427.12,616.32v43.5h-3.99v-6.1c-2.52,4.16-6.8,6.39-11.9,6.39-8.79,0-15.36-6.39-15.36-15.71s6.57-15.65,15.36-15.65c4.92,0,9.14,2.11,11.72,6.1v-18.53h4.16Zm-4.1,28.08c0-7.21-4.92-12.02-11.43-12.02s-11.49,4.81-11.49,12.02,4.92,12.02,11.49,12.02,11.43-4.81,11.43-12.02Z"/>
    <path class="cls-8" d="m465.57,645.69h-25.79c.47,6.45,5.39,10.73,12.13,10.73,3.75,0,7.09-1.35,9.44-4.04l2.34,2.7c-2.75,3.28-7.03,5.04-11.9,5.04-9.61,0-16.18-6.57-16.18-15.71s6.39-15.65,15.07-15.65,14.95,6.39,14.95,15.65c0,.35-.06.82-.06,1.29Zm-25.79-3.11h21.87c-.53-6.04-4.92-10.26-10.96-10.26s-10.38,4.22-10.9,10.26Z"/>
    <path class="cls-8" d="m502.5,641.94v17.88h-4.16v-17.47c0-6.51-3.4-9.85-9.26-9.85-6.62,0-10.79,4.1-10.79,11.14v16.18h-4.16v-30.84h3.99v5.69c2.23-3.75,6.39-5.92,11.72-5.92,7.5,0,12.66,4.34,12.66,13.19Z"/>
    <path class="cls-8" d="m530.06,657.95c-1.64,1.47-4.1,2.17-6.51,2.17-5.8,0-9.03-3.28-9.03-8.97v-18.64h-5.51v-3.52h5.51v-6.74h4.16v6.74h9.38v3.52h-9.38v18.41c0,3.63,1.88,5.63,5.33,5.63,1.7,0,3.4-.53,4.57-1.58l1.47,2.99Z"/>
    <path class="cls-8" d="m536.68,619.25c0-1.58,1.35-2.93,3.05-2.93s3.05,1.29,3.05,2.87c0,1.7-1.29,3.05-3.05,3.05s-3.05-1.35-3.05-2.99Zm.94,9.73h4.16v30.84h-4.16v-30.84Z"/>
    <path class="cls-8" d="m563.41,616.03c2.29,0,4.63.64,6.16,1.93l-1.41,3.11c-1.17-1-2.81-1.52-4.57-1.52-3.58,0-5.45,1.99-5.45,5.8v3.63h9.5v3.52h-9.38v27.32h-4.16v-27.32h-5.51v-3.52h5.51v-3.81c0-5.51,3.28-9.15,9.32-9.15Zm19.7,3.17c0,1.7-1.29,3.05-3.05,3.05s-3.05-1.35-3.05-2.99,1.35-2.93,3.05-2.93,3.05,1.29,3.05,2.87Zm-5.16,9.79h4.16v30.84h-4.16v-30.84Z"/>
    <path class="cls-8" d="m590.61,644.4c0-9.2,6.68-15.65,15.89-15.65,5.22,0,9.61,2.05,12.08,6.1l-3.11,2.11c-2.11-3.11-5.39-4.57-8.97-4.57-6.74,0-11.67,4.81-11.67,12.02s4.92,12.02,11.67,12.02c3.58,0,6.86-1.41,8.97-4.51l3.11,2.11c-2.46,3.99-6.86,6.1-12.08,6.1-9.2,0-15.89-6.51-15.89-15.71Z"/>
    <path class="cls-8" d="m650,640.71v19.11h-3.99v-4.81c-1.88,3.17-5.51,5.1-10.61,5.1-6.98,0-11.26-3.63-11.26-8.97,0-4.75,3.05-8.73,11.9-8.73h9.79v-1.88c0-5.28-2.99-8.15-8.73-8.15-3.99,0-7.74,1.41-10.26,3.63l-1.88-3.11c3.11-2.64,7.68-4.16,12.55-4.16,7.97,0,12.49,3.99,12.49,11.96Zm-4.16,9.85v-5.04h-9.67c-5.98,0-7.91,2.35-7.91,5.51,0,3.58,2.87,5.8,7.8,5.8s8.15-2.23,9.79-6.27Z"/>
    <path class="cls-8" d="m683.18,651.91l3.11,2.11c-2.46,3.99-6.86,6.1-12.08,6.1h-.12l-.7,2.76c3.22.29,4.98,2.17,4.98,4.75,0,3.17-2.7,5.1-6.62,5.1-1.93,0-3.52-.41-4.92-1.35l1-2.23c1.17.76,2.46,1.11,3.87,1.11,2.34,0,3.63-1,3.63-2.76,0-1.58-1.17-2.7-3.63-2.7h-1.35l1.29-4.87c-7.86-1.11-13.31-7.21-13.31-15.54,0-9.2,6.68-15.65,15.89-15.65,5.22,0,9.61,2.05,12.08,6.1l-3.11,2.11c-2.11-3.11-5.39-4.57-8.97-4.57-6.74,0-11.67,4.81-11.67,12.02s4.92,12.02,11.67,12.02c3.58,0,6.86-1.41,8.97-4.51Z"/>
    <path class="cls-8" d="m717.7,640.71v19.11h-3.99v-4.81c-1.88,3.17-5.51,5.1-10.61,5.1-6.98,0-11.26-3.63-11.26-8.97,0-4.75,3.05-8.73,11.9-8.73h9.79v-1.88c0-5.28-2.99-8.15-8.73-8.15-3.99,0-7.74,1.41-10.26,3.63l-1.88-3.11c3.11-2.64,7.68-4.16,12.55-4.16,7.97,0,12.49,3.99,12.49,11.96Zm-4.16,9.85v-5.04h-9.67c-5.98,0-7.91,2.35-7.91,5.51,0,3.58,2.87,5.8,7.8,5.8s8.15-2.23,9.79-6.27Zm-14.95-26.91h-2.52c.12-3.93,2.17-6.45,5.28-6.45,3.63,0,5.39,3.99,7.68,3.99,1.76,0,2.93-1.41,3.05-3.63h2.52c-.12,3.81-2.17,6.33-5.28,6.33-3.63,0-5.33-3.99-7.68-3.99-1.76,0-2.93,1.41-3.05,3.75Z"/>
    <path class="cls-8" d="m726.03,644.4c0-9.15,6.68-15.65,15.71-15.65s15.65,6.51,15.65,15.65-6.62,15.71-15.65,15.71-15.71-6.57-15.71-15.71Zm27.14,0c0-7.21-4.87-12.02-11.43-12.02s-11.49,4.81-11.49,12.02,4.92,12.02,11.49,12.02,11.43-4.81,11.43-12.02Z"/>
    <path class="cls-8" d="m809.39,616.32v43.5h-3.99v-6.1c-2.52,4.16-6.8,6.39-11.9,6.39-8.79,0-15.36-6.39-15.36-15.71s6.57-15.65,15.36-15.65c4.92,0,9.14,2.11,11.72,6.1v-18.53h4.16Zm-4.1,28.08c0-7.21-4.92-12.02-11.43-12.02s-11.49,4.81-11.49,12.02,4.92,12.02,11.49,12.02,11.43-4.81,11.43-12.02Z"/>
    <path class="cls-8" d="m847.84,645.69h-25.79c.47,6.45,5.39,10.73,12.13,10.73,3.75,0,7.09-1.35,9.44-4.04l2.34,2.7c-2.75,3.28-7.03,5.04-11.9,5.04-9.61,0-16.18-6.57-16.18-15.71s6.39-15.65,15.07-15.65,14.95,6.39,14.95,15.65c0,.35-.06.82-.06,1.29Zm-25.79-3.11h21.87c-.53-6.04-4.92-10.26-10.96-10.26s-10.38,4.22-10.9,10.26Z"/>
    <path class="cls-8" d="m265.41,707.06v19.11h-3.99v-4.81c-1.88,3.17-5.51,5.1-10.61,5.1-6.98,0-11.26-3.63-11.26-8.97,0-4.75,3.05-8.73,11.9-8.73h9.79v-1.88c0-5.28-2.99-8.15-8.73-8.15-3.99,0-7.74,1.41-10.26,3.63l-1.88-3.11c3.11-2.64,7.68-4.16,12.55-4.16,7.97,0,12.49,3.99,12.49,11.96Zm-4.16,9.85v-5.04h-9.67c-5.98,0-7.91,2.35-7.91,5.51,0,3.58,2.87,5.8,7.8,5.8s8.15-2.23,9.79-6.27Z"/>
    <path class="cls-8" d="m276.72,682.67h4.16v43.5h-4.16v-43.5Z"/>
    <path class="cls-8" d="m308.85,724.29c-1.64,1.47-4.1,2.17-6.51,2.17-5.8,0-9.03-3.28-9.03-8.97v-18.64h-5.51v-3.52h5.51v-6.74h4.16v6.74h9.38v3.52h-9.38v18.41c0,3.63,1.88,5.63,5.33,5.63,1.7,0,3.4-.53,4.57-1.58l1.47,2.99Z"/>
    <path class="cls-8" d="m342.14,712.04h-25.79c.47,6.45,5.39,10.73,12.13,10.73,3.75,0,7.09-1.35,9.44-4.04l2.34,2.7c-2.75,3.28-7.03,5.04-11.9,5.04-9.61,0-16.18-6.57-16.18-15.71s6.39-15.65,15.07-15.65,14.95,6.39,14.95,15.65c0,.35-.06.82-.06,1.29Zm-25.79-3.11h21.87c-.53-6.04-4.92-10.26-10.96-10.26s-10.38,4.22-10.9,10.26Z"/>
    <path class="cls-8" d="m366.24,695.1v4.05c-.35,0-.7-.06-1-.06-6.45,0-10.38,4.1-10.38,11.37v15.71h-4.16v-30.84h3.99v6.04c1.93-4.1,5.86-6.27,11.55-6.27Z"/>
    <path class="cls-8" d="m402.11,708.29v17.88h-4.16v-17.47c0-6.51-3.4-9.85-9.26-9.85-6.62,0-10.79,4.1-10.79,11.14v16.18h-4.16v-30.84h3.99v5.69c2.23-3.75,6.39-5.92,11.72-5.92,7.5,0,12.66,4.34,12.66,13.19Z"/>
    <path class="cls-8" d="m436.7,707.06v19.11h-3.99v-4.81c-1.88,3.17-5.51,5.1-10.61,5.1-6.98,0-11.26-3.63-11.26-8.97,0-4.75,3.05-8.73,11.9-8.73h9.79v-1.88c0-5.28-2.99-8.15-8.73-8.15-3.99,0-7.74,1.41-10.26,3.63l-1.88-3.11c3.11-2.64,7.68-4.16,12.55-4.16,7.97,0,12.49,3.99,12.49,11.96Zm-4.16,9.85v-5.04h-9.67c-5.98,0-7.91,2.35-7.91,5.51,0,3.58,2.87,5.8,7.8,5.8s8.15-2.23,9.79-6.27Z"/>
    <path class="cls-8" d="m464.25,724.29c-1.64,1.47-4.1,2.17-6.51,2.17-5.8,0-9.03-3.28-9.03-8.97v-18.64h-5.51v-3.52h5.51v-6.74h4.16v6.74h9.38v3.52h-9.38v18.41c0,3.63,1.88,5.63,5.33,5.63,1.7,0,3.4-.53,4.57-1.58l1.47,2.99Z"/>
    <path class="cls-8" d="m470.88,685.6c0-1.58,1.35-2.93,3.05-2.93s3.05,1.29,3.05,2.87c0,1.7-1.29,3.05-3.05,3.05s-3.05-1.35-3.05-2.99Zm.94,9.73h4.16v30.84h-4.16v-30.84Z"/>
    <path class="cls-8" d="m513.49,695.33l-13.72,30.84h-4.28l-13.66-30.84h4.34l11.55,26.26,11.67-26.26h4.1Z"/>
    <path class="cls-8" d="m541.69,707.06v19.11h-3.99v-4.81c-1.88,3.17-5.51,5.1-10.61,5.1-6.98,0-11.26-3.63-11.26-8.97,0-4.75,3.05-8.73,11.9-8.73h9.79v-1.88c0-5.28-2.99-8.15-8.73-8.15-3.99,0-7.74,1.41-10.26,3.63l-1.88-3.11c3.11-2.64,7.68-4.16,12.55-4.16,7.97,0,12.49,3.99,12.49,11.96Zm-4.16,9.85v-5.04h-9.67c-5.98,0-7.91,2.35-7.91,5.51,0,3.58,2.87,5.8,7.8,5.8s8.15-2.23,9.79-6.27Z"/>
    <path class="cls-8" d="m548.72,722.65l1.88-3.28c2.46,1.93,6.62,3.46,10.96,3.46,5.86,0,8.27-1.99,8.27-5.04,0-8.03-19.99-1.7-19.99-13.89,0-5.04,4.34-8.79,12.19-8.79,3.99,0,8.32,1.11,10.9,2.87l-1.82,3.34c-2.7-1.88-5.92-2.64-9.09-2.64-5.57,0-8.03,2.17-8.03,5.1,0,8.33,19.99,2.05,19.99,13.89,0,5.33-4.69,8.79-12.72,8.79-5.1,0-10.03-1.64-12.55-3.81Z"/>
    <path class="cls-8" d="m612.56,695.1v4.05c-.35,0-.7-.06-1-.06-6.45,0-10.38,4.1-10.38,11.37v15.71h-4.16v-30.84h3.99v6.04c1.93-4.1,5.86-6.27,11.55-6.27Z"/>
    <path class="cls-8" d="m646.62,712.04h-25.79c.47,6.45,5.39,10.73,12.13,10.73,3.75,0,7.09-1.35,9.44-4.04l2.34,2.7c-2.75,3.28-7.03,5.04-11.9,5.04-9.61,0-16.18-6.57-16.18-15.71s6.39-15.65,15.07-15.65,14.95,6.39,14.95,15.65c0,.35-.06.82-.06,1.29Zm-25.79-3.11h21.87c-.53-6.04-4.92-10.26-10.96-10.26s-10.38,4.22-10.9,10.26Z"/>
    <path class="cls-8" d="m683.73,695.33v27.08c0,10.61-5.22,15.42-15.42,15.42-5.63,0-11.14-1.7-14.36-4.75l2.11-3.17c2.93,2.64,7.39,4.22,12.13,4.22,7.8,0,11.37-3.58,11.37-11.2v-3.93c-2.58,3.93-6.98,5.98-12.02,5.98-8.79,0-15.48-6.16-15.48-15.01s6.68-14.89,15.48-14.89c5.16,0,9.61,2.11,12.19,6.16v-5.92h3.99Zm-4.04,14.66c0-6.68-4.92-11.26-11.72-11.26s-11.67,4.57-11.67,11.26,4.87,11.31,11.67,11.31,11.72-4.63,11.72-11.31Z"/>
    <path class="cls-8" d="m723.18,695.33v30.84h-3.99v-5.63c-2.17,3.75-6.16,5.92-11.08,5.92-7.86,0-13.01-4.4-13.01-13.25v-17.88h4.16v17.47c0,6.57,3.4,9.91,9.26,9.91,6.45,0,10.49-4.16,10.49-11.2v-16.18h4.16Z"/>
    <path class="cls-8" d="m734.85,682.67h4.16v43.5h-4.16v-43.5Z"/>
    <path class="cls-8" d="m773.89,707.06v19.11h-3.99v-4.81c-1.88,3.17-5.51,5.1-10.61,5.1-6.98,0-11.26-3.63-11.26-8.97,0-4.75,3.05-8.73,11.9-8.73h9.79v-1.88c0-5.28-2.99-8.15-8.73-8.15-3.99,0-7.74,1.41-10.26,3.63l-1.88-3.11c3.11-2.64,7.68-4.16,12.55-4.16,7.97,0,12.49,3.99,12.49,11.96Zm-4.16,9.85v-5.04h-9.67c-5.98,0-7.91,2.35-7.91,5.51,0,3.58,2.87,5.8,7.8,5.8s8.15-2.23,9.79-6.27Z"/>
    <path class="cls-8" d="m801.44,724.29c-1.64,1.47-4.1,2.17-6.51,2.17-5.8,0-9.03-3.28-9.03-8.97v-18.64h-5.51v-3.52h5.51v-6.74h4.16v6.74h9.38v3.52h-9.38v18.41c0,3.63,1.88,5.63,5.33,5.63,1.7,0,3.4-.53,4.57-1.58l1.47,2.99Z"/>
    <path class="cls-8" d="m804.78,710.75c0-9.15,6.68-15.65,15.71-15.65s15.65,6.51,15.65,15.65-6.62,15.71-15.65,15.71-15.71-6.57-15.71-15.71Zm27.14,0c0-7.21-4.87-12.02-11.43-12.02s-11.49,4.81-11.49,12.02,4.92,12.02,11.49,12.02,11.43-4.81,11.43-12.02Zm-7.27-27.44h5.57l-9.5,7.27h-4.1l8.03-7.27Z"/>
    <path class="cls-8" d="m860.18,695.1v4.05c-.35,0-.7-.06-1-.06-6.45,0-10.38,4.1-10.38,11.37v15.71h-4.16v-30.84h3.99v6.04c1.93-4.1,5.86-6.27,11.55-6.27Z"/>
    <path class="cls-8" d="m866.75,685.6c0-1.58,1.35-2.93,3.05-2.93s3.05,1.29,3.05,2.87c0,1.7-1.29,3.05-3.05,3.05s-3.05-1.35-3.05-2.99Zm.94,9.73h4.16v30.84h-4.16v-30.84Z"/>
    <path class="cls-8" d="m906.73,707.06v19.11h-3.99v-4.81c-1.88,3.17-5.51,5.1-10.61,5.1-6.98,0-11.26-3.63-11.26-8.97,0-4.75,3.05-8.73,11.9-8.73h9.79v-1.88c0-5.28-2.99-8.15-8.73-8.15-3.99,0-7.74,1.41-10.26,3.63l-1.88-3.11c3.11-2.64,7.68-4.16,12.55-4.16,7.97,0,12.49,3.99,12.49,11.96Zm-4.16,9.85v-5.04h-9.67c-5.98,0-7.91,2.35-7.91,5.51,0,3.58,2.87,5.8,7.8,5.8s8.15-2.23,9.79-6.27Z"/>
    <path class="cls-8" d="m913.76,722.65l1.88-3.28c2.46,1.93,6.62,3.46,10.96,3.46,5.86,0,8.27-1.99,8.27-5.04,0-8.03-19.99-1.7-19.99-13.89,0-5.04,4.34-8.79,12.19-8.79,3.99,0,8.32,1.11,10.9,2.87l-1.82,3.34c-2.7-1.88-5.92-2.64-9.09-2.64-5.57,0-8.03,2.17-8.03,5.1,0,8.33,19.99,2.05,19.99,13.89,0,5.33-4.69,8.79-12.72,8.79-5.1,0-10.03-1.64-12.55-3.81Z"/>
    <path class="cls-8" d="m988.92,712.04h-25.79c.47,6.45,5.39,10.73,12.13,10.73,3.75,0,7.09-1.35,9.44-4.04l2.34,2.7c-2.75,3.28-7.03,5.04-11.9,5.04-9.61,0-16.18-6.57-16.18-15.71s6.39-15.65,15.07-15.65,14.95,6.39,14.95,15.65c0,.35-.06.82-.06,1.29Zm-25.79-3.11h21.87c-.53-6.04-4.92-10.26-10.96-10.26s-10.38,4.22-10.9,10.26Z"/>
    <path class="cls-8" d="m329.69,777.1c0,9.38-6.57,15.71-15.36,15.71-4.92,0-9.15-2.11-11.73-6.1v17.18h-4.16v-42.21h3.99v6.1c2.52-4.1,6.8-6.33,11.9-6.33,8.79,0,15.36,6.33,15.36,15.65Zm-4.16,0c0-7.15-4.98-12.02-11.49-12.02s-11.49,4.87-11.49,12.02,4.92,12.02,11.49,12.02,11.49-4.81,11.49-12.02Z"/>
    <path class="cls-8" d="m335.08,777.1c0-9.15,6.68-15.65,15.71-15.65s15.65,6.51,15.65,15.65-6.62,15.71-15.65,15.71-15.71-6.57-15.71-15.71Zm27.14,0c0-7.21-4.87-12.02-11.43-12.02s-11.49,4.81-11.49,12.02,4.92,12.02,11.49,12.02,11.43-4.81,11.43-12.02Z"/>
    <path class="cls-8" d="m370.66,789l1.88-3.28c2.46,1.93,6.62,3.46,10.96,3.46,5.86,0,8.27-1.99,8.27-5.04,0-8.03-19.99-1.7-19.99-13.89,0-5.04,4.34-8.79,12.19-8.79,3.99,0,8.32,1.11,10.9,2.87l-1.82,3.34c-2.7-1.88-5.92-2.64-9.09-2.64-5.57,0-8.03,2.17-8.03,5.1,0,8.32,19.99,2.05,19.99,13.89,0,5.33-4.69,8.79-12.72,8.79-5.1,0-10.03-1.64-12.55-3.81Z"/>
    <path class="cls-8" d="m399.33,789l1.88-3.28c2.46,1.93,6.62,3.46,10.96,3.46,5.86,0,8.27-1.99,8.27-5.04,0-8.03-19.99-1.7-19.99-13.89,0-5.04,4.34-8.79,12.19-8.79,3.99,0,8.32,1.11,10.9,2.87l-1.82,3.34c-2.7-1.88-5.92-2.64-9.09-2.64-5.57,0-8.03,2.17-8.03,5.1,0,8.32,19.99,2.05,19.99,13.89,0,5.33-4.69,8.79-12.72,8.79-5.1,0-10.03-1.64-12.55-3.81Z"/>
    <path class="cls-8" d="m438.6,749.66h5.57l-9.5,7.27h-4.1l8.03-7.27Zm-6.33,12.02h4.16v30.84h-4.16v-30.84Z"/>
    <path class="cls-8" d="m473.96,761.68l-13.72,30.84h-4.28l-13.66-30.84h4.34l11.55,26.26,11.67-26.26h4.1Z"/>
    <path class="cls-8" d="m505.79,778.39h-25.79c.47,6.45,5.39,10.73,12.13,10.73,3.75,0,7.09-1.35,9.44-4.04l2.34,2.7c-2.75,3.28-7.03,5.04-11.9,5.04-9.61,0-16.18-6.57-16.18-15.71s6.39-15.65,15.07-15.65,14.95,6.39,14.95,15.65c0,.35-.06.82-.06,1.29Zm-25.79-3.11h21.87c-.53-6.04-4.92-10.26-10.96-10.26s-10.38,4.22-10.9,10.26Z"/>
    <path class="cls-8" d="m513.41,751.95c0-1.58,1.35-2.93,3.05-2.93s3.05,1.29,3.05,2.87c0,1.7-1.29,3.05-3.05,3.05s-3.05-1.35-3.05-2.99Zm.94,9.73h4.16v30.84h-4.16v-30.84Z"/>
    <path class="cls-8" d="m525.83,789l1.88-3.28c2.46,1.93,6.62,3.46,10.96,3.46,5.86,0,8.27-1.99,8.27-5.04,0-8.03-19.99-1.7-19.99-13.89,0-5.04,4.34-8.79,12.19-8.79,3.99,0,8.32,1.11,10.9,2.87l-1.82,3.34c-2.7-1.88-5.92-2.64-9.09-2.64-5.57,0-8.03,2.17-8.03,5.1,0,8.32,19.99,2.05,19.99,13.89,0,5.33-4.69,8.79-12.72,8.79-5.1,0-10.03-1.64-12.55-3.81Z"/>
    <path class="cls-8" d="m600.99,778.39h-25.79c.47,6.45,5.39,10.73,12.13,10.73,3.75,0,7.09-1.35,9.44-4.04l2.34,2.7c-2.75,3.28-7.03,5.04-11.9,5.04-9.61,0-16.18-6.57-16.18-15.71s6.39-15.65,15.07-15.65,14.95,6.39,14.95,15.65c0,.35-.06.82-.06,1.29Zm-25.79-3.11h21.87c-.53-6.04-4.92-10.26-10.96-10.26s-10.38,4.22-10.9,10.26Z"/>
    <path class="cls-8" d="m628.3,792.51l-9.79-12.9-9.85,12.9h-4.69l12.19-15.83-11.61-15.01h4.69l9.26,12.08,9.26-12.08h4.57l-11.61,15.01,12.31,15.83h-4.75Z"/>
    <path class="cls-8" d="m671.22,777.1c0,9.38-6.57,15.71-15.36,15.71-4.92,0-9.15-2.11-11.73-6.1v17.18h-4.16v-42.21h3.99v6.1c2.52-4.1,6.8-6.33,11.9-6.33,8.79,0,15.36,6.33,15.36,15.65Zm-4.16,0c0-7.15-4.98-12.02-11.49-12.02s-11.49,4.87-11.49,12.02,4.92,12.02,11.49,12.02,11.49-4.81,11.49-12.02Z"/>
    <path class="cls-8" d="m706.57,778.39h-25.79c.47,6.45,5.39,10.73,12.13,10.73,3.75,0,7.09-1.35,9.44-4.04l2.34,2.7c-2.75,3.28-7.03,5.04-11.9,5.04-9.61,0-16.18-6.57-16.18-15.71s6.39-15.65,15.07-15.65,14.95,6.39,14.95,15.65c0,.35-.06.82-.06,1.29Zm-25.79-3.11h21.87c-.53-6.04-4.92-10.26-10.96-10.26s-10.38,4.22-10.9,10.26Z"/>
    <path class="cls-8" d="m730.66,761.44v4.05c-.35,0-.7-.06-1-.06-6.45,0-10.38,4.1-10.38,11.37v15.71h-4.16v-30.84h3.99v6.04c1.93-4.1,5.86-6.27,11.55-6.27Z"/>
    <path class="cls-8" d="m737.22,751.95c0-1.58,1.35-2.93,3.05-2.93s3.05,1.29,3.05,2.87c0,1.7-1.29,3.05-3.05,3.05s-3.05-1.35-3.05-2.99Zm.94,9.73h4.16v30.84h-4.16v-30.84Z"/>
    <path class="cls-8" d="m780.78,778.39h-25.79c.47,6.45,5.39,10.73,12.13,10.73,3.75,0,7.09-1.35,9.44-4.04l2.34,2.7c-2.75,3.28-7.03,5.04-11.9,5.04-9.61,0-16.18-6.57-16.18-15.71s6.39-15.65,15.07-15.65,14.95,6.39,14.95,15.65c0,.35-.06.82-.06,1.29Zm-25.79-3.11h21.87c-.53-6.04-4.92-10.26-10.96-10.26s-10.38,4.22-10.9,10.26Zm5.1-18.35h-3.87l7.56-7.27h4.22l7.56,7.27h-3.87l-5.8-4.87-5.8,4.87Z"/>
    <path class="cls-8" d="m817.71,774.63v17.88h-4.16v-17.47c0-6.51-3.4-9.85-9.26-9.85-6.62,0-10.79,4.1-10.79,11.14v16.18h-4.16v-30.84h3.99v5.69c2.23-3.75,6.39-5.92,11.72-5.92,7.5,0,12.66,4.34,12.66,13.19Z"/>
    <path class="cls-8" d="m826.03,777.1c0-9.2,6.68-15.65,15.89-15.65,5.22,0,9.61,2.05,12.08,6.1l-3.11,2.11c-2.11-3.11-5.39-4.57-8.97-4.57-6.74,0-11.67,4.81-11.67,12.02s4.92,12.02,11.67,12.02c3.58,0,6.86-1.41,8.97-4.51l3.11,2.11c-2.46,3.99-6.86,6.1-12.08,6.1-9.2,0-15.89-6.51-15.89-15.71Z"/>
    <path class="cls-8" d="m861.21,751.95c0-1.58,1.35-2.93,3.05-2.93s3.05,1.29,3.05,2.87c0,1.7-1.29,3.05-3.05,3.05s-3.05-1.35-3.05-2.99Zm.94,9.73h4.16v30.84h-4.16v-30.84Z"/>
    <path class="cls-8" d="m901.19,773.4v19.11h-3.99v-4.81c-1.88,3.17-5.51,5.1-10.61,5.1-6.98,0-11.26-3.63-11.26-8.97,0-4.75,3.05-8.73,11.9-8.73h9.79v-1.88c0-5.28-2.99-8.15-8.73-8.15-3.99,0-7.74,1.41-10.26,3.63l-1.88-3.11c3.11-2.64,7.68-4.16,12.55-4.16,7.97,0,12.49,3.99,12.49,11.96Zm-4.16,9.85v-5.04h-9.67c-5.98,0-7.91,2.35-7.91,5.51,0,3.58,2.87,5.8,7.8,5.8s8.15-2.23,9.79-6.27Z"/>
    <path class="cls-8" d="m908.22,789l1.88-3.28c2.46,1.93,6.62,3.46,10.96,3.46,5.86,0,8.27-1.99,8.27-5.04,0-8.03-19.99-1.7-19.99-13.89,0-5.04,4.34-8.79,12.19-8.79,3.99,0,8.32,1.11,10.9,2.87l-1.82,3.34c-2.7-1.88-5.92-2.64-9.09-2.64-5.57,0-8.03,2.17-8.03,5.1,0,8.32,19.99,2.05,19.99,13.89,0,5.33-4.69,8.79-12.72,8.79-5.1,0-10.03-1.64-12.55-3.81Z"/>
    <path class="cls-8" d="m276.9,843.44c0,9.32-6.57,15.71-15.36,15.71-5.1,0-9.38-2.23-11.9-6.39v6.1h-3.99v-43.5h4.16v18.53c2.58-3.99,6.8-6.1,11.73-6.1,8.79,0,15.36,6.33,15.36,15.65Zm-4.16,0c0-7.21-4.98-12.02-11.49-12.02s-11.49,4.81-11.49,12.02,4.92,12.02,11.49,12.02,11.49-4.81,11.49-12.02Z"/>
    <path class="cls-8" d="m312.25,844.73h-25.79c.47,6.45,5.39,10.73,12.13,10.73,3.75,0,7.09-1.35,9.44-4.04l2.34,2.7c-2.75,3.28-7.03,5.04-11.9,5.04-9.61,0-16.18-6.57-16.18-15.71s6.39-15.65,15.07-15.65,14.95,6.39,14.95,15.65c0,.35-.06.82-.06,1.29Zm-25.79-3.11h21.87c-.53-6.04-4.92-10.26-10.96-10.26s-10.38,4.22-10.9,10.26Z"/>
    <path class="cls-8" d="m371.69,840.98v17.88h-4.16v-17.47c0-6.51-3.28-9.85-8.85-9.85-6.33,0-10.32,4.1-10.32,11.14v16.18h-4.16v-17.47c0-6.51-3.28-9.85-8.91-9.85-6.27,0-10.32,4.1-10.32,11.14v16.18h-4.16v-30.84h3.99v5.63c2.17-3.69,6.16-5.86,11.31-5.86s9.09,2.17,10.96,6.51c2.23-3.99,6.62-6.51,12.19-6.51,7.5,0,12.43,4.34,12.43,13.19Z"/>
    <path class="cls-8" d="m380.72,841.16h15.36v3.63h-15.36v-3.63Z"/>
    <path class="cls-8" d="m401.12,855.34l1.88-3.28c2.46,1.93,6.62,3.46,10.96,3.46,5.86,0,8.27-1.99,8.27-5.04,0-8.03-19.99-1.7-19.99-13.89,0-5.04,4.34-8.79,12.19-8.79,3.99,0,8.32,1.11,10.9,2.87l-1.82,3.34c-2.7-1.88-5.92-2.64-9.09-2.64-5.57,0-8.03,2.17-8.03,5.1,0,8.32,19.99,2.05,19.99,13.89,0,5.33-4.69,8.79-12.72,8.79-5.1,0-10.02-1.64-12.54-3.81Z"/>
    <path class="cls-8" d="m461.85,828.03v30.84h-3.99v-5.63c-2.17,3.75-6.16,5.92-11.08,5.92-7.86,0-13.01-4.4-13.01-13.25v-17.88h4.16v17.47c0,6.57,3.4,9.91,9.26,9.91,6.45,0,10.49-4.16,10.49-11.2v-16.18h4.16Z"/>
    <path class="cls-8" d="m470.41,843.44c0-9.2,6.68-15.65,15.89-15.65,5.22,0,9.61,2.05,12.08,6.1l-3.11,2.11c-2.11-3.11-5.39-4.57-8.97-4.57-6.74,0-11.67,4.81-11.67,12.02s4.92,12.02,11.67,12.02c3.58,0,6.86-1.41,8.97-4.51l3.11,2.11c-2.46,3.99-6.86,6.1-12.08,6.1-9.2,0-15.89-6.51-15.89-15.71Z"/>
    <path class="cls-8" d="m532.84,844.73h-25.79c.47,6.45,5.39,10.73,12.13,10.73,3.75,0,7.09-1.35,9.44-4.04l2.34,2.7c-2.75,3.28-7.03,5.04-11.9,5.04-9.61,0-16.18-6.57-16.18-15.71s6.39-15.65,15.07-15.65,14.95,6.39,14.95,15.65c0,.35-.06.82-.06,1.29Zm-25.79-3.11h21.87c-.53-6.04-4.92-10.26-10.96-10.26s-10.38,4.22-10.9,10.26Z"/>
    <path class="cls-8" d="m569.54,815.36v43.5h-3.99v-6.1c-2.52,4.16-6.8,6.39-11.9,6.39-8.79,0-15.36-6.39-15.36-15.71s6.57-15.65,15.36-15.65c4.92,0,9.14,2.11,11.72,6.1v-18.53h4.16Zm-4.1,28.08c0-7.21-4.92-12.02-11.43-12.02s-11.49,4.81-11.49,12.02,4.92,12.02,11.49,12.02,11.43-4.81,11.43-12.02Z"/>
    <path class="cls-8" d="m580.21,818.29c0-1.58,1.35-2.93,3.05-2.93s3.05,1.29,3.05,2.87c0,1.7-1.29,3.05-3.05,3.05s-3.05-1.35-3.05-2.99Zm.94,9.73h4.16v30.84h-4.16v-30.84Z"/>
    <path class="cls-8" d="m625.05,815.36v43.5h-3.99v-6.1c-2.52,4.16-6.8,6.39-11.9,6.39-8.79,0-15.36-6.39-15.36-15.71s6.57-15.65,15.36-15.65c4.92,0,9.14,2.11,11.72,6.1v-18.53h4.16Zm-4.1,28.08c0-7.21-4.92-12.02-11.43-12.02s-11.49,4.81-11.49,12.02,4.92,12.02,11.49,12.02,11.43-4.81,11.43-12.02Z"/>
    <path class="cls-8" d="m659.93,839.75v19.11h-3.99v-4.81c-1.88,3.17-5.51,5.1-10.61,5.1-6.98,0-11.26-3.63-11.26-8.97,0-4.75,3.05-8.73,11.9-8.73h9.79v-1.88c0-5.28-2.99-8.15-8.73-8.15-3.99,0-7.74,1.41-10.26,3.63l-1.88-3.11c3.11-2.64,7.68-4.16,12.55-4.16,7.97,0,12.49,3.99,12.49,11.96Zm-4.16,9.85v-5.04h-9.67c-5.98,0-7.91,2.35-7.91,5.51,0,3.58,2.87,5.8,7.8,5.8s8.15-2.23,9.79-6.27Z"/>
    <path class="cls-8" d="m666.97,855.34l1.88-3.28c2.46,1.93,6.62,3.46,10.96,3.46,5.86,0,8.27-1.99,8.27-5.04,0-8.03-19.99-1.7-19.99-13.89,0-5.04,4.34-8.79,12.19-8.79,3.99,0,8.32,1.11,10.9,2.87l-1.82,3.34c-2.7-1.88-5.92-2.64-9.09-2.64-5.57,0-8.03,2.17-8.03,5.1,0,8.32,19.99,2.05,19.99,13.89,0,5.33-4.69,8.79-12.72,8.79-5.1,0-10.03-1.64-12.55-3.81Z"/>
    <path class="cls-8" d="m743.41,815.36v43.5h-3.99v-6.1c-2.52,4.16-6.8,6.39-11.9,6.39-8.79,0-15.36-6.39-15.36-15.71s6.57-15.65,15.36-15.65c4.92,0,9.14,2.11,11.72,6.1v-18.53h4.16Zm-4.1,28.08c0-7.21-4.92-12.02-11.43-12.02s-11.49,4.81-11.49,12.02,4.92,12.02,11.49,12.02,11.43-4.81,11.43-12.02Z"/>
    <path class="cls-8" d="m781.87,844.73h-25.79c.47,6.45,5.39,10.73,12.13,10.73,3.75,0,7.09-1.35,9.44-4.04l2.34,2.7c-2.75,3.28-7.03,5.04-11.9,5.04-9.61,0-16.18-6.57-16.18-15.71s6.39-15.65,15.07-15.65,14.95,6.39,14.95,15.65c0,.35-.06.82-.06,1.29Zm-25.79-3.11h21.87c-.53-6.04-4.92-10.26-10.96-10.26s-10.38,4.22-10.9,10.26Z"/>
    <path class="cls-8" d="m802.68,843.44c0-9.15,6.68-15.65,15.71-15.65s15.65,6.51,15.65,15.65-6.62,15.71-15.65,15.71-15.71-6.57-15.71-15.71Zm27.14,0c0-7.21-4.87-12.02-11.43-12.02s-11.49,4.81-11.49,12.02,4.92,12.02,11.49,12.02,11.43-4.81,11.43-12.02Z"/>
    <path class="cls-8" d="m870.33,828.03v30.84h-3.99v-5.63c-2.17,3.75-6.16,5.92-11.08,5.92-7.86,0-13.01-4.4-13.01-13.25v-17.88h4.16v17.47c0,6.57,3.4,9.91,9.26,9.91,6.45,0,10.49-4.16,10.49-11.2v-16.18h4.16Z"/>
    <path class="cls-8" d="m898.23,856.99c-1.64,1.47-4.1,2.17-6.51,2.17-5.8,0-9.03-3.28-9.03-8.97v-18.64h-5.51v-3.52h5.51v-6.74h4.16v6.74h9.38v3.52h-9.38v18.41c0,3.63,1.88,5.63,5.33,5.63,1.7,0,3.4-.53,4.57-1.58l1.47,2.99Z"/>
    <path class="cls-8" d="m921.33,827.79v4.05c-.35,0-.7-.06-1-.06-6.45,0-10.38,4.1-10.38,11.37v15.71h-4.16v-30.84h3.99v6.04c1.93-4.1,5.86-6.27,11.55-6.27Z"/>
    <path class="cls-8" d="m925.43,843.44c0-9.15,6.68-15.65,15.71-15.65s15.65,6.51,15.65,15.65-6.62,15.71-15.65,15.71-15.71-6.57-15.71-15.71Zm27.14,0c0-7.21-4.87-12.02-11.43-12.02s-11.49,4.81-11.49,12.02,4.92,12.02,11.49,12.02,11.43-4.81,11.43-12.02Z"/>
    <path class="cls-8" d="m961.01,855.34l1.88-3.28c2.46,1.93,6.62,3.46,10.96,3.46,5.86,0,8.27-1.99,8.27-5.04,0-8.03-19.99-1.7-19.99-13.89,0-5.04,4.34-8.79,12.19-8.79,3.99,0,8.32,1.11,10.9,2.87l-1.82,3.34c-2.7-1.88-5.92-2.64-9.09-2.64-5.57,0-8.03,2.17-8.03,5.1,0,8.32,19.99,2.05,19.99,13.89,0,5.33-4.69,8.79-12.72,8.79-5.1,0-10.02-1.64-12.54-3.81Z"/>
    <path class="cls-8" d="m245.36,911.08h-25.79c.47,6.45,5.39,10.73,12.13,10.73,3.75,0,7.09-1.35,9.44-4.04l2.34,2.7c-2.75,3.28-7.03,5.04-11.9,5.04-9.61,0-16.18-6.57-16.18-15.71s6.39-15.65,15.07-15.65,14.95,6.39,14.95,15.65c0,.35-.06.82-.06,1.29Zm-25.79-3.11h21.87c-.53-6.04-4.92-10.26-10.96-10.26s-10.38,4.22-10.9,10.26Z"/>
    <path class="cls-8" d="m282.29,907.33v17.88h-4.16v-17.47c0-6.51-3.4-9.85-9.26-9.85-6.62,0-10.79,4.1-10.79,11.14v16.18h-4.16v-30.84h3.99v5.69c2.23-3.75,6.39-5.92,11.72-5.92,7.5,0,12.66,4.34,12.66,13.19Z"/>
    <path class="cls-8" d="m309.84,923.33c-1.64,1.47-4.1,2.17-6.51,2.17-5.8,0-9.03-3.28-9.03-8.97v-18.64h-5.51v-3.52h5.51v-6.74h4.16v6.74h9.38v3.52h-9.38v18.41c0,3.63,1.88,5.63,5.33,5.63,1.7,0,3.4-.53,4.57-1.58l1.47,2.99Z"/>
    <path class="cls-8" d="m343.14,911.08h-25.79c.47,6.45,5.39,10.73,12.13,10.73,3.75,0,7.09-1.35,9.44-4.04l2.34,2.7c-2.75,3.28-7.03,5.04-11.9,5.04-9.61,0-16.18-6.57-16.18-15.71s6.39-15.65,15.07-15.65,14.95,6.39,14.95,15.65c0,.35-.06.82-.06,1.29Zm-25.79-3.11h21.87c-.53-6.04-4.92-10.26-10.96-10.26s-10.38,4.22-10.9,10.26Z"/>
    <path class="cls-8" d="m347.42,921.69l1.88-3.28c2.46,1.93,6.62,3.46,10.96,3.46,5.86,0,8.27-1.99,8.27-5.04,0-8.03-19.99-1.7-19.99-13.89,0-5.04,4.34-8.79,12.19-8.79,3.99,0,8.32,1.11,10.9,2.87l-1.82,3.34c-2.7-1.88-5.92-2.64-9.09-2.64-5.57,0-8.03,2.17-8.03,5.1,0,8.33,19.99,2.05,19.99,13.89,0,5.33-4.69,8.79-12.72,8.79-5.1,0-10.02-1.64-12.54-3.81Z"/>
    <path class="cls-8" d="m400.47,890.74v3.63h9.5v3.52h-9.38v27.32h-4.16v-27.32h-5.51v-3.52h5.51v-3.81c0-5.51,3.28-9.15,9.32-9.15,2.29,0,4.63.64,6.16,1.93l-1.41,3.11c-1.17-1-2.81-1.52-4.57-1.52-3.58,0-5.45,1.99-5.45,5.8Z"/>
    <path class="cls-8" d="m441.92,911.08h-25.79c.47,6.45,5.39,10.73,12.13,10.73,3.75,0,7.09-1.35,9.44-4.04l2.34,2.7c-2.75,3.28-7.03,5.04-11.9,5.04-9.61,0-16.18-6.57-16.18-15.71s6.39-15.65,15.07-15.65,14.95,6.39,14.95,15.65c0,.35-.06.82-.06,1.29Zm-25.79-3.11h21.87c-.53-6.04-4.92-10.26-10.96-10.26s-10.38,4.22-10.9,10.26Z"/>
    <path class="cls-8" d="m478.61,881.71v43.5h-3.99v-6.1c-2.52,4.16-6.8,6.39-11.9,6.39-8.79,0-15.36-6.39-15.36-15.71s6.57-15.65,15.36-15.65c4.92,0,9.14,2.11,11.72,6.1v-18.53h4.16Zm-4.1,28.08c0-7.21-4.92-12.02-11.43-12.02s-11.49,4.81-11.49,12.02,4.92,12.02,11.49,12.02,11.43-4.81,11.43-12.02Z"/>
    <path class="cls-8" d="m517.07,911.08h-25.79c.47,6.45,5.39,10.73,12.13,10.73,3.75,0,7.09-1.35,9.44-4.04l2.34,2.7c-2.75,3.28-7.03,5.04-11.9,5.04-9.61,0-16.18-6.57-16.18-15.71s6.39-15.65,15.07-15.65,14.95,6.39,14.95,15.65c0,.35-.06.82-.06,1.29Zm-25.79-3.11h21.87c-.53-6.04-4.92-10.26-10.96-10.26s-10.38,4.22-10.9,10.26Z"/>
    <path class="cls-8" d="m541.16,894.14v4.05c-.35,0-.7-.06-1-.06-6.45,0-10.38,4.1-10.38,11.37v15.71h-4.16v-30.84h3.99v6.04c1.93-4.1,5.86-6.27,11.55-6.27Z"/>
    <path class="cls-8" d="m571.88,906.1v19.11h-3.99v-4.81c-1.88,3.17-5.51,5.1-10.61,5.1-6.98,0-11.26-3.63-11.26-8.97,0-4.75,3.05-8.73,11.9-8.73h9.79v-1.88c0-5.28-2.99-8.15-8.73-8.15-3.99,0-7.74,1.41-10.26,3.63l-1.88-3.11c3.11-2.64,7.68-4.16,12.55-4.16,7.97,0,12.49,3.99,12.49,11.96Zm-4.16,9.85v-5.04h-9.67c-5.98,0-7.91,2.35-7.91,5.51,0,3.58,2.87,5.8,7.8,5.8s8.15-2.23,9.79-6.27Z"/>
    <path class="cls-8" d="m599.43,923.33c-1.64,1.47-4.1,2.17-6.51,2.17-5.8,0-9.03-3.28-9.03-8.97v-18.64h-5.51v-3.52h5.51v-6.74h4.16v6.74h9.38v3.52h-9.38v18.41c0,3.63,1.88,5.63,5.33,5.63,1.7,0,3.4-.53,4.57-1.58l1.47,2.99Z"/>
    <path class="cls-8" d="m606.06,884.64c0-1.58,1.35-2.93,3.05-2.93s3.05,1.29,3.05,2.87c0,1.7-1.29,3.05-3.05,3.05s-3.05-1.35-3.05-2.99Zm.94,9.73h4.16v30.84h-4.16v-30.84Z"/>
    <path class="cls-8" d="m648.67,894.37l-13.72,30.84h-4.28l-13.66-30.84h4.34l11.55,26.26,11.67-26.26h4.1Z"/>
    <path class="cls-8" d="m650.55,909.79c0-9.15,6.68-15.65,15.71-15.65s15.65,6.51,15.65,15.65-6.62,15.71-15.65,15.71-15.71-6.57-15.71-15.71Zm27.14,0c0-7.21-4.87-12.02-11.43-12.02s-11.49,4.81-11.49,12.02,4.92,12.02,11.49,12.02,11.43-4.81,11.43-12.02Z"/>
    <path class="cls-8" d="m686.13,921.69l1.88-3.28c2.46,1.93,6.62,3.46,10.96,3.46,5.86,0,8.27-1.99,8.27-5.04,0-8.03-19.99-1.7-19.99-13.89,0-5.04,4.34-8.79,12.19-8.79,3.99,0,8.32,1.11,10.9,2.87l-1.82,3.34c-2.7-1.88-5.92-2.64-9.09-2.64-5.57,0-8.03,2.17-8.03,5.1,0,8.33,19.99,2.05,19.99,13.89,0,5.33-4.69,8.79-12.72,8.79-5.1,0-10.02-1.64-12.54-3.81Z"/>
    <path class="cls-8" d="m731.33,909.79c0-9.15,6.68-15.65,15.71-15.65s15.65,6.51,15.65,15.65-6.62,15.71-15.65,15.71-15.71-6.57-15.71-15.71Zm27.14,0c0-7.21-4.87-12.02-11.43-12.02s-11.49,4.81-11.49,12.02,4.92,12.02,11.49,12.02,11.43-4.81,11.43-12.02Z"/>
    <path class="cls-8" d="m798.98,894.37v30.84h-3.99v-5.63c-2.17,3.75-6.16,5.92-11.08,5.92-7.86,0-13.01-4.4-13.01-13.25v-17.88h4.16v17.47c0,6.57,3.4,9.91,9.26,9.91,6.45,0,10.49-4.16,10.49-11.2v-16.18h4.16Z"/>
    <path class="cls-8" d="m857.25,909.79c0,9.38-6.57,15.71-15.36,15.71-4.92,0-9.15-2.11-11.73-6.1v17.18h-4.16v-42.21h3.99v6.1c2.52-4.1,6.8-6.33,11.9-6.33,8.79,0,15.36,6.33,15.36,15.65Zm-4.16,0c0-7.15-4.98-12.02-11.49-12.02s-11.49,4.87-11.49,12.02,4.92,12.02,11.49,12.02,11.49-4.81,11.49-12.02Z"/>
    <path class="cls-8" d="m888.85,906.1v19.11h-3.99v-4.81c-1.88,3.17-5.51,5.1-10.61,5.1-6.98,0-11.26-3.63-11.26-8.97,0-4.75,3.05-8.73,11.9-8.73h9.79v-1.88c0-5.28-2.99-8.15-8.73-8.15-3.99,0-7.74,1.41-10.26,3.63l-1.88-3.11c3.11-2.64,7.68-4.16,12.55-4.16,7.97,0,12.49,3.99,12.49,11.96Zm-4.16,9.85v-5.04h-9.67c-5.98,0-7.91,2.35-7.91,5.51,0,3.58,2.87,5.8,7.8,5.8s8.15-2.23,9.79-6.27Z"/>
    <path class="cls-8" d="m906.49,882.35h5.57l-9.5,7.27h-4.1l8.03-7.27Zm-6.33,12.02h4.16v30.84h-4.16v-30.84Z"/>
    <path class="cls-8" d="m911.65,921.69l1.88-3.28c2.46,1.93,6.62,3.46,10.96,3.46,5.86,0,8.27-1.99,8.27-5.04,0-8.03-19.99-1.7-19.99-13.89,0-5.04,4.34-8.79,12.19-8.79,3.99,0,8.32,1.11,10.9,2.87l-1.82,3.34c-2.7-1.88-5.92-2.64-9.09-2.64-5.57,0-8.03,2.17-8.03,5.1,0,8.33,19.99,2.05,19.99,13.89,0,5.33-4.69,8.79-12.72,8.79-5.1,0-10.03-1.64-12.55-3.81Z"/>
    <path class="cls-8" d="m971.45,911.08h-25.79c.47,6.45,5.39,10.73,12.13,10.73,3.75,0,7.09-1.35,9.44-4.04l2.34,2.7c-2.75,3.28-7.03,5.04-11.9,5.04-9.61,0-16.18-6.57-16.18-15.71s6.39-15.65,15.07-15.65,14.95,6.39,14.95,15.65c0,.35-.06.82-.06,1.29Zm-25.79-3.11h21.87c-.53-6.04-4.92-10.26-10.96-10.26s-10.38,4.22-10.9,10.26Z"/>
    <path class="cls-8" d="m975.72,921.69l1.88-3.28c2.46,1.93,6.62,3.46,10.96,3.46,5.86,0,8.27-1.99,8.27-5.04,0-8.03-19.99-1.7-19.99-13.89,0-5.04,4.34-8.79,12.19-8.79,3.99,0,8.32,1.11,10.9,2.87l-1.82,3.34c-2.7-1.88-5.92-2.64-9.09-2.64-5.57,0-8.03,2.17-8.03,5.1,0,8.33,19.99,2.05,19.99,13.89,0,5.33-4.69,8.79-12.72,8.79-5.1,0-10.02-1.64-12.54-3.81Z"/>
    <path class="cls-8" d="m1005.97,922.28c0-1.82,1.41-3.17,3.11-3.17s3.17,1.35,3.17,3.17-1.47,3.22-3.17,3.22-3.11-1.41-3.11-3.22Z"/>
  </g>
</svg>