<svg xmlns="http://www.w3.org/2000/svg" width="1436.52" height="372.72" viewBox="0 0 1436.52 372.72">
  <g id="_07" data-name="07" transform="translate(-66.48 -66.28)">
    <rect id="Ret창ngulo_849" data-name="Ret창ngulo 849" width="1406.2" height="299.74" transform="translate(96.3 138.76)" fill="none" stroke="#008081" stroke-width="1"/>
    <rect id="Ret창ngulo_850" data-name="Ret창ngulo 850" width="1407.57" height="298.95" transform="translate(67.43 112.05)" fill="#f3f8f8"/>
    <g id="Grupo_3946" data-name="Grupo 3946">
      <path id="Caminho_31239" data-name="Caminho 31239" d="M131.15,100.34H91.3L71.37,134.85,91.3,169.36h39.85l19.92-34.51Z" fill="#a3c7ca"/>
      <path id="Caminho_31240" data-name="Caminho 31240" d="M146.11,73.29H106.26L86.34,107.8l19.92,34.51h39.85l19.92-34.51Z" fill="#a3c7ca"/>
      <path id="Caminho_31241" data-name="Caminho 31241" d="M144.03,77.03H92.89l-25.58,44.3,25.58,44.29h51.14l25.58-44.29Z" fill="#008081"/>
      <line id="Linha_32" data-name="Linha 32" x1="20.42" y1="35.37" transform="translate(140.03 86.24)" fill="none" stroke="#c7e5d5" stroke-width="1"/>
      <line id="Linha_33" data-name="Linha 33" x2="20.42" y2="35.37" transform="translate(78.77 121.61)" fill="none" stroke="#c7e5d5" stroke-width="1"/>
      <path id="Caminho_31242" data-name="Caminho 31242" d="M128.19,66.28h-2.38l-.74,1.26H87.93L69.39,99.66H67.68l-1.2,2.07,1.2,2.06h2.39l1.19-2.06-.87-1.51,18.2-31.53h36.22l1,1.72h2.38l1.2-2.06Z" fill="#008081"/>
      <path id="Caminho_31243" data-name="Caminho 31243" d="M169.67,141.44l-1.19-2.07h-2.39l-1.19,2.07.87,1.5-18.21,31.53H111.35l-1-1.72h-2.39l-1.19,2.07,1.19,2.06h2.39l.73-1.26h37.15l18.54-32.12h1.71Z" fill="#008081"/>
      <path id="Caminho_31244" data-name="Caminho 31244" d="M114.73,126.49c0,4.86-.01,9.54,0,14.22.01,3.22,1.85,5.14,4.85,5.13s4.8-1.93,4.82-5.17c.02-4.18,0-8.37,0-12.55v-1.63c4.98,0,9.71.02,14.45,0a4.552,4.552,0,0,0,4.9-4.78c.02-2.96-1.87-4.86-4.94-4.88-4.23-.03-8.47,0-12.7,0H124.4c0-4.87.01-9.55,0-14.23-.01-3.22-1.85-5.14-4.86-5.13s-4.8,1.93-4.81,5.17c-.01,4.18,0,8.37,0,12.55v1.63c-4.98,0-9.71-.02-14.45,0a4.549,4.549,0,0,0-4.9,4.77c-.02,2.96,1.87,4.87,4.94,4.89,4.73.03,9.46,0,14.41,0Z" fill="#fff"/>
    </g>
    <g id="Grupo_3947" data-name="Grupo 3947">
      <path id="Caminho_31245" data-name="Caminho 31245" d="M183.83,218.67v18.2h-1.59l-11.7-14.77v14.77h-1.92v-18.2h1.59l11.73,14.77V218.67h1.9Z" fill="#231f20"/>
      <path id="Caminho_31246" data-name="Caminho 31246" d="M201.27,230.6H189.83a5.063,5.063,0,0,0,5.38,4.76,5.422,5.422,0,0,0,4.19-1.79l1.04,1.2a6.72,6.72,0,0,1-5.28,2.24c-4.26,0-7.18-2.91-7.18-6.97a6.58,6.58,0,0,1,6.68-6.94c3.85,0,6.63,2.83,6.63,6.94,0,.16-.03.36-.03.57Zm-11.44-1.38h9.7a4.86,4.86,0,0,0-9.7,0Z" fill="#231f20"/>
      <path id="Caminho_31247" data-name="Caminho 31247" d="M203.17,235.31l.83-1.46a8.244,8.244,0,0,0,4.86,1.53c2.6,0,3.67-.88,3.67-2.24,0-3.56-8.87-.75-8.87-6.16,0-2.24,1.92-3.9,5.41-3.9a9.292,9.292,0,0,1,4.84,1.27l-.81,1.48a7.042,7.042,0,0,0-4.03-1.17c-2.47,0-3.56.96-3.56,2.26,0,3.69,8.87.91,8.87,6.16,0,2.37-2.08,3.9-5.64,3.9a9.123,9.123,0,0,1-5.56-1.69Z" fill="#231f20"/>
      <path id="Caminho_31248" data-name="Caminho 31248" d="M224.98,236.03a4.4,4.4,0,0,1-2.89.96,3.624,3.624,0,0,1-4-3.98v-8.27h-2.44v-1.56h2.44v-2.99h1.85v2.99h4.16v1.56h-4.16v8.17a2.194,2.194,0,0,0,2.37,2.5,3.056,3.056,0,0,0,2.03-.7l.65,1.33Z" fill="#231f20"/>
      <path id="Caminho_31249" data-name="Caminho 31249" d="M239.75,230.6H228.31a5.063,5.063,0,0,0,5.38,4.76,5.422,5.422,0,0,0,4.19-1.79l1.04,1.2a6.72,6.72,0,0,1-5.28,2.24c-4.26,0-7.18-2.91-7.18-6.97a6.58,6.58,0,0,1,6.68-6.94c3.85,0,6.63,2.83,6.63,6.94,0,.16-.03.36-.03.57Zm-11.44-1.38h9.7a4.86,4.86,0,0,0-9.7,0Z" fill="#231f20"/>
      <path id="Caminho_31250" data-name="Caminho 31250" d="M264.28,223.19v13.68h-1.77v-2.5a5.452,5.452,0,0,1-4.92,2.63c-3.48,0-5.77-1.95-5.77-5.88v-7.93h1.85v7.75c0,2.91,1.51,4.39,4.11,4.39,2.86,0,4.65-1.85,4.65-4.97v-7.18h1.85Zm-6.08-2.11h-1.82l3.56-3.22h2.47Z" fill="#231f20"/>
      <path id="Caminho_31251" data-name="Caminho 31251" d="M269.45,217.57h1.85v19.29h-1.85Z" fill="#231f20"/>
      <path id="Caminho_31252" data-name="Caminho 31252" d="M283.7,236.03a4.4,4.4,0,0,1-2.89.96,3.624,3.624,0,0,1-4-3.98v-8.27h-2.44v-1.56h2.44v-2.99h1.85v2.99h4.16v1.56h-4.16v8.17a2.194,2.194,0,0,0,2.37,2.5,3.056,3.056,0,0,0,2.03-.7l.65,1.33Z" fill="#231f20"/>
      <path id="Caminho_31253" data-name="Caminho 31253" d="M286.64,218.87a1.335,1.335,0,0,1,1.35-1.3,1.31,1.31,0,0,1,1.35,1.27,1.35,1.35,0,0,1-2.7.02Zm.42,4.32h1.85v13.68h-1.85Z" fill="#231f20"/>
      <path id="Caminho_31254" data-name="Caminho 31254" d="M316.62,228.94v7.93h-1.85v-7.75c0-2.89-1.46-4.37-3.93-4.37-2.81,0-4.58,1.82-4.58,4.94v7.18h-1.85v-7.75c0-2.89-1.46-4.37-3.95-4.37-2.78,0-4.58,1.82-4.58,4.94v7.18h-1.85V223.19h1.77v2.5a5.525,5.525,0,0,1,5.02-2.6,4.877,4.877,0,0,1,4.86,2.89,5.96,5.96,0,0,1,5.41-2.89c3.33,0,5.51,1.92,5.51,5.85Z" fill="#231f20"/>
      <path id="Caminho_31255" data-name="Caminho 31255" d="M320.31,230.03a6.955,6.955,0,1,1,6.97,6.97A6.721,6.721,0,0,1,320.31,230.03Zm12.04,0a5.091,5.091,0,1,0-5.07,5.33A4.987,4.987,0,0,0,332.35,230.03Z" fill="#231f20"/>
      <path id="Caminho_31256" data-name="Caminho 31256" d="M345.02,230.03a6.73,6.73,0,0,1,7.05-6.94,6,6,0,0,1,5.36,2.7l-1.38.94a4.65,4.65,0,0,0-3.98-2.03,5.332,5.332,0,0,0,0,10.66,4.623,4.623,0,0,0,3.98-2l1.38.94a6.019,6.019,0,0,1-5.36,2.7A6.76,6.76,0,0,1,345.02,230.03Z" fill="#231f20"/>
      <path id="Caminho_31257" data-name="Caminho 31257" d="M371.35,228.39v8.48h-1.77v-2.13a5.138,5.138,0,0,1-4.71,2.26c-3.09,0-4.99-1.61-4.99-3.98,0-2.11,1.35-3.87,5.28-3.87h4.34v-.83c0-2.34-1.33-3.61-3.87-3.61a6.955,6.955,0,0,0-4.55,1.61l-.83-1.38a8.694,8.694,0,0,1,5.56-1.85c3.54,0,5.54,1.77,5.54,5.3Zm-1.85,4.37v-2.24h-4.29c-2.65,0-3.51,1.04-3.51,2.44,0,1.59,1.27,2.57,3.46,2.57a4.284,4.284,0,0,0,4.34-2.78Z" fill="#231f20"/>
      <path id="Caminho_31258" data-name="Caminho 31258" d="M374.47,235.31l.83-1.46a8.244,8.244,0,0,0,4.86,1.53c2.6,0,3.67-.88,3.67-2.24,0-3.56-8.87-.75-8.87-6.16,0-2.24,1.92-3.9,5.41-3.9a9.292,9.292,0,0,1,4.84,1.27l-.81,1.48a7.042,7.042,0,0,0-4.03-1.17c-2.47,0-3.56.96-3.56,2.26,0,3.69,8.87.91,8.87,6.16,0,2.37-2.08,3.9-5.64,3.9a9.123,9.123,0,0,1-5.56-1.69Z" fill="#231f20"/>
      <path id="Caminho_31259" data-name="Caminho 31259" d="M387.71,230.03a6.955,6.955,0,1,1,6.97,6.97A6.721,6.721,0,0,1,387.71,230.03Zm12.04,0a5.091,5.091,0,1,0-5.07,5.33A4.987,4.987,0,0,0,399.75,230.03Z" fill="#231f20"/>
      <path id="Caminho_31260" data-name="Caminho 31260" d="M406.58,235.57a4.245,4.245,0,0,1-.36,1.51l-1.09,3.59h-1.25l.88-3.77a1.318,1.318,0,0,1-.94-1.33,1.357,1.357,0,0,1,1.38-1.4,1.375,1.375,0,0,1,1.38,1.4Z" fill="#231f20"/>
      <path id="Caminho_31261" data-name="Caminho 31261" d="M417.54,230.03a6.955,6.955,0,1,1,6.97,6.97A6.721,6.721,0,0,1,417.54,230.03Zm12.04,0a5.091,5.091,0,1,0-5.07,5.33A4.987,4.987,0,0,0,429.58,230.03Z" fill="#231f20"/>
      <path id="Caminho_31262" data-name="Caminho 31262" d="M456.1,217.57v19.29h-1.77v-2.7a5.92,5.92,0,0,1-5.28,2.83,6.957,6.957,0,0,1,0-13.91,5.988,5.988,0,0,1,5.2,2.7v-8.22h1.85Zm-1.82,12.45a5.091,5.091,0,1,0-5.07,5.33A5,5,0,0,0,454.28,230.02Z" fill="#231f20"/>
      <path id="Caminho_31263" data-name="Caminho 31263" d="M459.87,230.03a6.955,6.955,0,1,1,6.97,6.97A6.721,6.721,0,0,1,459.87,230.03Zm12.04,0a5.091,5.091,0,1,0-5.07,5.33A4.987,4.987,0,0,0,471.91,230.03Z" fill="#231f20"/>
      <path id="Caminho_31264" data-name="Caminho 31264" d="M475.65,235.31l.83-1.46a8.244,8.244,0,0,0,4.86,1.53c2.6,0,3.67-.88,3.67-2.24,0-3.56-8.87-.75-8.87-6.16,0-2.24,1.92-3.9,5.41-3.9a9.292,9.292,0,0,1,4.84,1.27l-.81,1.48a7.042,7.042,0,0,0-4.03-1.17c-2.47,0-3.56.96-3.56,2.26,0,3.69,8.87.91,8.87,6.16,0,2.37-2.08,3.9-5.64,3.9a9.123,9.123,0,0,1-5.56-1.69Z" fill="#231f20"/>
      <path id="Caminho_31265" data-name="Caminho 31265" d="M512.53,230.03a6.623,6.623,0,0,1-6.81,6.97,5.988,5.988,0,0,1-5.2-2.7v7.62h-1.85V223.2h1.77v2.7a5.966,5.966,0,0,1,5.28-2.81A6.615,6.615,0,0,1,512.53,230.03Zm-1.85,0a5.1,5.1,0,1,0-5.1,5.33A5.038,5.038,0,0,0,510.68,230.03Z" fill="#231f20"/>
      <path id="Caminho_31266" data-name="Caminho 31266" d="M516.3,217.57h1.85v19.29H516.3Z" fill="#231f20"/>
      <path id="Caminho_31267" data-name="Caminho 31267" d="M533.62,228.39v8.48h-1.77v-2.13a5.138,5.138,0,0,1-4.71,2.26c-3.09,0-4.99-1.61-4.99-3.98,0-2.11,1.35-3.87,5.28-3.87h4.34v-.83c0-2.34-1.33-3.61-3.88-3.61a6.955,6.955,0,0,0-4.55,1.61l-.83-1.38a8.694,8.694,0,0,1,5.56-1.85c3.54,0,5.54,1.77,5.54,5.3Zm-1.85,4.37v-2.24h-4.29c-2.65,0-3.51,1.04-3.51,2.44,0,1.59,1.27,2.57,3.46,2.57a4.284,4.284,0,0,0,4.34-2.78Z" fill="#231f20"/>
      <path id="Caminho_31268" data-name="Caminho 31268" d="M551.22,228.94v7.93h-1.85v-7.75c0-2.89-1.51-4.37-4.11-4.37-2.94,0-4.78,1.82-4.78,4.94v7.18h-1.85V223.19h1.77v2.52a5.756,5.756,0,0,1,5.2-2.63c3.33,0,5.62,1.92,5.62,5.85Z" fill="#231f20"/>
      <path id="Caminho_31269" data-name="Caminho 31269" d="M554.91,230.03a6.955,6.955,0,1,1,6.97,6.97A6.721,6.721,0,0,1,554.91,230.03Zm12.04,0a5.091,5.091,0,1,0-5.07,5.33A4.987,4.987,0,0,0,566.95,230.03Z" fill="#231f20"/>
      <path id="Caminho_31270" data-name="Caminho 31270" d="M570.69,235.31l.83-1.46a8.244,8.244,0,0,0,4.86,1.53c2.6,0,3.67-.88,3.67-2.24,0-3.56-8.87-.75-8.87-6.16,0-2.24,1.92-3.9,5.41-3.9a9.292,9.292,0,0,1,4.84,1.27l-.81,1.48a7.042,7.042,0,0,0-4.03-1.17c-2.47,0-3.56.96-3.56,2.26,0,3.69,8.87.91,8.87,6.16,0,2.37-2.08,3.9-5.64,3.9a9.123,9.123,0,0,1-5.56-1.69Z" fill="#231f20"/>
      <path id="Caminho_31271" data-name="Caminho 31271" d="M605.62,230.6H594.18a5.063,5.063,0,0,0,5.38,4.76,5.422,5.422,0,0,0,4.19-1.79l1.04,1.2a6.72,6.72,0,0,1-5.28,2.24c-4.26,0-7.18-2.91-7.18-6.97a6.58,6.58,0,0,1,6.68-6.94c3.85,0,6.63,2.83,6.63,6.94,0,.16-.03.36-.03.57Zm-11.44-1.38h9.7a4.86,4.86,0,0,0-9.7,0Z" fill="#231f20"/>
      <path id="Caminho_31272" data-name="Caminho 31272" d="M615.92,235.31l.83-1.46a8.244,8.244,0,0,0,4.86,1.53c2.6,0,3.67-.88,3.67-2.24,0-3.56-8.87-.75-8.87-6.16,0-2.24,1.92-3.9,5.41-3.9a9.292,9.292,0,0,1,4.84,1.27l-.81,1.48a7.042,7.042,0,0,0-4.03-1.17c-2.47,0-3.56.96-3.56,2.26,0,3.69,8.87.91,8.87,6.16,0,2.37-2.08,3.9-5.64,3.9a9.123,9.123,0,0,1-5.56-1.69Z" fill="#231f20"/>
      <path id="Caminho_31273" data-name="Caminho 31273" d="M642.44,230.6H631a5.063,5.063,0,0,0,5.38,4.76,5.422,5.422,0,0,0,4.19-1.79l1.04,1.2a6.72,6.72,0,0,1-5.28,2.24c-4.26,0-7.18-2.91-7.18-6.97a6.58,6.58,0,0,1,6.68-6.94c3.85,0,6.63,2.83,6.63,6.94,0,.16-.03.36-.03.57ZM631,229.22h9.7a4.86,4.86,0,0,0-9.7,0Z" fill="#231f20"/>
      <path id="Caminho_31274" data-name="Caminho 31274" d="M658.9,223.19V235.2c0,4.71-2.31,6.84-6.84,6.84a9.491,9.491,0,0,1-6.37-2.11l.94-1.4a8.145,8.145,0,0,0,5.38,1.87c3.46,0,5.04-1.59,5.04-4.97v-1.74a6.148,6.148,0,0,1-5.33,2.65,6.634,6.634,0,1,1,0-13.26,6.189,6.189,0,0,1,5.41,2.73v-2.63h1.77Zm-1.79,6.5a5.188,5.188,0,1,0-5.2,5.02A4.888,4.888,0,0,0,657.11,229.69Z" fill="#231f20"/>
      <path id="Caminho_31275" data-name="Caminho 31275" d="M676.4,223.19v13.68h-1.77v-2.5a5.452,5.452,0,0,1-4.92,2.63c-3.48,0-5.77-1.95-5.77-5.88v-7.93h1.85v7.75c0,2.91,1.51,4.39,4.11,4.39,2.86,0,4.65-1.85,4.65-4.97v-7.18h1.85Z" fill="#231f20"/>
      <path id="Caminho_31276" data-name="Caminho 31276" d="M688.46,223.08v1.79c-.16,0-.31-.03-.44-.03-2.86,0-4.6,1.82-4.6,5.04v6.97h-1.85V223.17h1.77v2.68c.86-1.82,2.6-2.78,5.12-2.78Z" fill="#231f20"/>
      <path id="Caminho_31277" data-name="Caminho 31277" d="M690.28,230.03a6.955,6.955,0,1,1,6.97,6.97A6.721,6.721,0,0,1,690.28,230.03Zm12.04,0a5.091,5.091,0,1,0-5.07,5.33A4.987,4.987,0,0,0,702.32,230.03Z" fill="#231f20"/>
      <path id="Caminho_31278" data-name="Caminho 31278" d="M706.06,235.31l.83-1.46a8.244,8.244,0,0,0,4.86,1.53c2.6,0,3.67-.88,3.67-2.24,0-3.56-8.87-.75-8.87-6.16,0-2.24,1.92-3.9,5.41-3.9a9.292,9.292,0,0,1,4.84,1.27l-.81,1.48a7.042,7.042,0,0,0-4.03-1.17c-2.47,0-3.56.96-3.56,2.26,0,3.69,8.87.91,8.87,6.16,0,2.37-2.08,3.9-5.64,3.9a9.123,9.123,0,0,1-5.56-1.69Z" fill="#231f20"/>
      <path id="Caminho_31279" data-name="Caminho 31279" d="M741.56,217.57v19.29h-1.77v-2.7a5.92,5.92,0,0,1-5.28,2.83,6.957,6.957,0,0,1,0-13.91,5.988,5.988,0,0,1,5.2,2.7v-8.22h1.85Zm-1.82,12.45a5.091,5.091,0,1,0-5.07,5.33A5,5,0,0,0,739.74,230.02Z" fill="#231f20"/>
      <path id="Caminho_31280" data-name="Caminho 31280" d="M758.62,230.6H747.18a5.063,5.063,0,0,0,5.38,4.76,5.422,5.422,0,0,0,4.19-1.79l1.04,1.2a6.72,6.72,0,0,1-5.28,2.24c-4.26,0-7.18-2.91-7.18-6.97a6.58,6.58,0,0,1,6.68-6.94c3.85,0,6.63,2.83,6.63,6.94,0,.16-.03.36-.03.57Zm-11.44-1.38h9.7a4.86,4.86,0,0,0-9.7,0Z" fill="#231f20"/>
      <path id="Caminho_31281" data-name="Caminho 31281" d="M768.92,235.31l.83-1.46a8.244,8.244,0,0,0,4.86,1.53c2.6,0,3.67-.88,3.67-2.24,0-3.56-8.87-.75-8.87-6.16,0-2.24,1.92-3.9,5.41-3.9a9.292,9.292,0,0,1,4.84,1.27l-.81,1.48a7.042,7.042,0,0,0-4.03-1.17c-2.47,0-3.56.96-3.56,2.26,0,3.69,8.87.91,8.87,6.16,0,2.37-2.08,3.9-5.64,3.9a9.123,9.123,0,0,1-5.56-1.69Z" fill="#231f20"/>
      <path id="Caminho_31282" data-name="Caminho 31282" d="M793.86,228.39v8.48h-1.77v-2.13a5.138,5.138,0,0,1-4.71,2.26c-3.09,0-4.99-1.61-4.99-3.98,0-2.11,1.35-3.87,5.28-3.87h4.34v-.83c0-2.34-1.33-3.61-3.88-3.61a6.955,6.955,0,0,0-4.55,1.61l-.83-1.38a8.694,8.694,0,0,1,5.56-1.85c3.54,0,5.54,1.77,5.54,5.3Zm-1.85,4.37v-2.24h-4.29c-2.65,0-3.51,1.04-3.51,2.44,0,1.59,1.27,2.57,3.46,2.57a4.284,4.284,0,0,0,4.34-2.78Z" fill="#231f20"/>
      <path id="Caminho_31283" data-name="Caminho 31283" d="M811.2,223.19v13.68h-1.77v-2.5a5.447,5.447,0,0,1-4.91,2.63c-3.48,0-5.77-1.95-5.77-5.88v-7.93h1.85v7.75c0,2.91,1.51,4.39,4.11,4.39,2.86,0,4.65-1.85,4.65-4.97v-7.18h1.85Zm-6.08-2.11H803.3l3.56-3.22h2.47l-4.21,3.22Z" fill="#231f20"/>
      <path id="Caminho_31284" data-name="Caminho 31284" d="M828.85,217.57v19.29h-1.77v-2.7a5.92,5.92,0,0,1-5.28,2.83,6.957,6.957,0,0,1,0-13.91,5.988,5.988,0,0,1,5.2,2.7v-8.22h1.85Zm-1.82,12.45a5.091,5.091,0,1,0-5.07,5.33A5,5,0,0,0,827.03,230.02Z" fill="#231f20"/>
      <path id="Caminho_31285" data-name="Caminho 31285" d="M845.91,230.6H834.47a5.063,5.063,0,0,0,5.38,4.76,5.422,5.422,0,0,0,4.19-1.79l1.04,1.2a6.72,6.72,0,0,1-5.28,2.24c-4.26,0-7.18-2.91-7.18-6.97a6.58,6.58,0,0,1,6.68-6.94c3.85,0,6.63,2.83,6.63,6.94,0,.16-.03.36-.03.57Zm-11.44-1.38h9.7a4.86,4.86,0,0,0-9.7,0Z" fill="#231f20"/>
      <path id="Caminho_31286" data-name="Caminho 31286" d="M851.29,235.57a4.244,4.244,0,0,1-.36,1.51l-1.09,3.59h-1.25l.88-3.77a1.318,1.318,0,0,1-.94-1.33,1.357,1.357,0,0,1,1.38-1.4,1.375,1.375,0,0,1,1.38,1.4Z" fill="#231f20"/>
      <path id="Caminho_31287" data-name="Caminho 31287" d="M865.73,221.58v1.61h4.21v1.56h-4.16v12.12h-1.85V224.75h-2.44v-1.56h2.44V221.5a3.771,3.771,0,0,1,4.13-4.06,4.363,4.363,0,0,1,2.73.86l-.62,1.38a3.147,3.147,0,0,0-2.03-.68c-1.59,0-2.42.88-2.42,2.57Z" fill="#231f20"/>
      <path id="Caminho_31288" data-name="Caminho 31288" d="M870.82,230.03a6.955,6.955,0,1,1,6.97,6.97A6.721,6.721,0,0,1,870.82,230.03Zm12.04,0a5.091,5.091,0,1,0-5.07,5.33A4.987,4.987,0,0,0,882.86,230.03Z" fill="#231f20"/>
      <path id="Caminho_31289" data-name="Caminho 31289" d="M895.39,223.08v1.79c-.16,0-.31-.03-.44-.03-2.86,0-4.6,1.82-4.6,5.04v6.97H888.5V223.17h1.77v2.68c.86-1.82,2.6-2.78,5.12-2.78Z" fill="#231f20"/>
      <path id="Caminho_31290" data-name="Caminho 31290" d="M909.02,228.39v8.48h-1.77v-2.13a5.138,5.138,0,0,1-4.71,2.26c-3.09,0-4.99-1.61-4.99-3.98,0-2.11,1.35-3.87,5.28-3.87h4.34v-.83c0-2.34-1.33-3.61-3.87-3.61a6.955,6.955,0,0,0-4.55,1.61l-.83-1.38a8.694,8.694,0,0,1,5.56-1.85c3.54,0,5.54,1.77,5.54,5.3Zm-1.85,4.37v-2.24h-4.29c-2.65,0-3.51,1.04-3.51,2.44,0,1.59,1.27,2.57,3.46,2.57a4.284,4.284,0,0,0,4.34-2.78Z" fill="#231f20"/>
      <path id="Caminho_31291" data-name="Caminho 31291" d="M936.6,228.94v7.93h-1.85v-7.75c0-2.89-1.46-4.37-3.93-4.37-2.81,0-4.58,1.82-4.58,4.94v7.18h-1.85v-7.75c0-2.89-1.46-4.37-3.95-4.37-2.78,0-4.58,1.82-4.58,4.94v7.18h-1.85V223.19h1.77v2.5a5.525,5.525,0,0,1,5.02-2.6,4.877,4.877,0,0,1,4.86,2.89,5.96,5.96,0,0,1,5.41-2.89c3.33,0,5.51,1.92,5.51,5.85Z" fill="#231f20"/>
      <path id="Caminho_31292" data-name="Caminho 31292" d="M961.94,230.6H950.5a5.063,5.063,0,0,0,5.38,4.76,5.422,5.422,0,0,0,4.19-1.79l1.04,1.2a6.72,6.72,0,0,1-5.28,2.24c-4.26,0-7.18-2.91-7.18-6.97a6.58,6.58,0,0,1,6.68-6.94c3.85,0,6.63,2.83,6.63,6.94,0,.16-.03.36-.03.57Zm-11.44-1.38h9.7a4.86,4.86,0,0,0-9.7,0Z" fill="#231f20"/>
      <path id="Caminho_31293" data-name="Caminho 31293" d="M965.73,217.57h1.85v19.29h-1.85Z" fill="#231f20"/>
      <path id="Caminho_31294" data-name="Caminho 31294" d="M984.63,230.6H973.19a5.063,5.063,0,0,0,5.38,4.76,5.422,5.422,0,0,0,4.19-1.79l1.04,1.2a6.72,6.72,0,0,1-5.28,2.24c-4.26,0-7.18-2.91-7.18-6.97a6.58,6.58,0,0,1,6.68-6.94c3.85,0,6.63,2.83,6.63,6.94,0,.16-.03.36-.03.57Zm-11.44-1.38h9.7a4.86,4.86,0,0,0-9.7,0Z" fill="#231f20"/>
      <path id="Caminho_31295" data-name="Caminho 31295" d="M986.53,235.31l.83-1.46a8.244,8.244,0,0,0,4.86,1.53c2.6,0,3.67-.88,3.67-2.24,0-3.56-8.87-.75-8.87-6.16,0-2.24,1.92-3.9,5.41-3.9a9.292,9.292,0,0,1,4.84,1.27l-.81,1.48a7.042,7.042,0,0,0-4.03-1.17c-2.47,0-3.56.96-3.56,2.26,0,3.69,8.87.91,8.87,6.16,0,2.37-2.08,3.9-5.64,3.9a9.123,9.123,0,0,1-5.56-1.69Z" fill="#231f20"/>
      <path id="Caminho_31296" data-name="Caminho 31296" d="M1016.44,223.08v1.79c-.16,0-.31-.03-.44-.03-2.86,0-4.6,1.82-4.6,5.04v6.97h-1.85V223.17h1.77v2.68c.86-1.82,2.6-2.78,5.12-2.78Z" fill="#231f20"/>
      <path id="Caminho_31297" data-name="Caminho 31297" d="M1031.55,230.6h-11.44a5.063,5.063,0,0,0,5.38,4.76,5.422,5.422,0,0,0,4.19-1.79l1.04,1.2a6.72,6.72,0,0,1-5.28,2.24c-4.26,0-7.18-2.91-7.18-6.97a6.58,6.58,0,0,1,6.68-6.94c3.85,0,6.63,2.83,6.63,6.94,0,.16-.03.36-.03.57Zm-11.44-1.38h9.7a4.86,4.86,0,0,0-9.7,0Z" fill="#231f20"/>
      <path id="Caminho_31298" data-name="Caminho 31298" d="M1048,223.19V235.2c0,4.71-2.31,6.84-6.84,6.84a9.491,9.491,0,0,1-6.37-2.11l.94-1.4a8.145,8.145,0,0,0,5.38,1.87c3.46,0,5.04-1.59,5.04-4.97v-1.74a6.148,6.148,0,0,1-5.33,2.65,6.634,6.634,0,1,1,0-13.26,6.189,6.189,0,0,1,5.41,2.73v-2.63H1048Zm-1.79,6.5a5.188,5.188,0,1,0-5.2,5.02A4.888,4.888,0,0,0,1046.21,229.69Z" fill="#231f20"/>
      <path id="Caminho_31299" data-name="Caminho 31299" d="M1065.5,223.19v13.68h-1.77v-2.5a5.447,5.447,0,0,1-4.91,2.63c-3.48,0-5.77-1.95-5.77-5.88v-7.93h1.85v7.75c0,2.91,1.51,4.39,4.11,4.39,2.86,0,4.65-1.85,4.65-4.97v-7.18h1.85Z" fill="#231f20"/>
      <path id="Caminho_31300" data-name="Caminho 31300" d="M1070.68,217.57h1.85v19.29h-1.85Z" fill="#231f20"/>
      <path id="Caminho_31301" data-name="Caminho 31301" d="M1087.99,228.39v8.48h-1.77v-2.13a5.138,5.138,0,0,1-4.71,2.26c-3.09,0-4.99-1.61-4.99-3.98,0-2.11,1.35-3.87,5.28-3.87h4.34v-.83c0-2.34-1.33-3.61-3.88-3.61a6.955,6.955,0,0,0-4.55,1.61l-.83-1.38a8.694,8.694,0,0,1,5.56-1.85c3.54,0,5.54,1.77,5.54,5.3Zm-1.85,4.37v-2.24h-4.29c-2.65,0-3.51,1.04-3.51,2.44,0,1.59,1.27,2.57,3.46,2.57a4.284,4.284,0,0,0,4.34-2.78Z" fill="#231f20"/>
      <path id="Caminho_31302" data-name="Caminho 31302" d="M1105.54,217.57v19.29h-1.77v-2.7a5.92,5.92,0,0,1-5.28,2.83,6.957,6.957,0,0,1,0-13.91,5.988,5.988,0,0,1,5.2,2.7v-8.22h1.85Zm-1.82,12.45a5.091,5.091,0,1,0-5.07,5.33A5,5,0,0,0,1103.72,230.02Z" fill="#231f20"/>
      <path id="Caminho_31303" data-name="Caminho 31303" d="M1109.31,230.03a6.955,6.955,0,1,1,6.97,6.97A6.721,6.721,0,0,1,1109.31,230.03Zm12.04,0a5.091,5.091,0,1,0-5.07,5.33A4.987,4.987,0,0,0,1121.35,230.03Z" fill="#231f20"/>
      <path id="Caminho_31304" data-name="Caminho 31304" d="M1125.09,235.31l.83-1.46a8.244,8.244,0,0,0,4.86,1.53c2.6,0,3.67-.88,3.67-2.24,0-3.56-8.87-.75-8.87-6.16,0-2.24,1.92-3.9,5.41-3.9a9.292,9.292,0,0,1,4.84,1.27l-.81,1.48a7.042,7.042,0,0,0-4.03-1.17c-2.47,0-3.56.96-3.56,2.26,0,3.69,8.87.91,8.87,6.16,0,2.37-2.08,3.9-5.64,3.9a9.124,9.124,0,0,1-5.56-1.69Z" fill="#231f20"/>
      <path id="Caminho_31305" data-name="Caminho 31305" d="M1161.97,230.03a6.623,6.623,0,0,1-6.81,6.97,5.988,5.988,0,0,1-5.2-2.7v7.62h-1.85V223.2h1.77v2.7a5.967,5.967,0,0,1,5.28-2.81,6.615,6.615,0,0,1,6.81,6.94Zm-1.85,0a5.1,5.1,0,1,0-5.1,5.33A5.038,5.038,0,0,0,1160.12,230.03Z" fill="#231f20"/>
      <path id="Caminho_31306" data-name="Caminho 31306" d="M1164.36,230.03a6.955,6.955,0,1,1,6.97,6.97A6.721,6.721,0,0,1,1164.36,230.03Zm12.04,0a5.091,5.091,0,1,0-5.07,5.33A4.987,4.987,0,0,0,1176.4,230.03Z" fill="#231f20"/>
      <path id="Caminho_31307" data-name="Caminho 31307" d="M1188.93,223.08v1.79c-.16,0-.31-.03-.44-.03-2.86,0-4.6,1.82-4.6,5.04v6.97h-1.85V223.17h1.77v2.68c.86-1.82,2.6-2.78,5.12-2.78Z" fill="#231f20"/>
      <path id="Caminho_31308" data-name="Caminho 31308" d="M1200.87,217.57h1.85v19.29h-1.85Z" fill="#231f20"/>
      <path id="Caminho_31309" data-name="Caminho 31309" d="M1219.78,230.6h-11.44a5.063,5.063,0,0,0,5.38,4.76,5.422,5.422,0,0,0,4.19-1.79l1.04,1.2a6.72,6.72,0,0,1-5.28,2.24c-4.26,0-7.18-2.91-7.18-6.97a6.58,6.58,0,0,1,6.68-6.94c3.85,0,6.63,2.83,6.63,6.94,0,.16-.03.36-.03.57Zm-11.44-1.38h9.7a4.86,4.86,0,0,0-9.7,0Z" fill="#231f20"/>
      <path id="Caminho_31310" data-name="Caminho 31310" d="M1223.16,218.87a1.335,1.335,0,0,1,1.35-1.3,1.31,1.31,0,0,1,1.35,1.27,1.35,1.35,0,0,1-2.7.02Zm.42,4.32h1.85v13.68h-1.85Z" fill="#231f20"/>
      <path id="Caminho_31311" data-name="Caminho 31311" d="M1250.88,230.6h-11.44a5.063,5.063,0,0,0,5.38,4.76,5.422,5.422,0,0,0,4.19-1.79l1.04,1.2a6.72,6.72,0,0,1-5.28,2.24c-4.26,0-7.18-2.91-7.18-6.97a6.58,6.58,0,0,1,6.68-6.94c3.85,0,6.63,2.83,6.63,6.94,0,.16-.03.36-.03.57Zm-11.44-1.38h9.7a4.86,4.86,0,0,0-9.7,0Z" fill="#231f20"/>
      <path id="Caminho_31312" data-name="Caminho 31312" d="M1265.19,221.58v1.61h4.21v1.56h-4.16v12.12h-1.85V224.75h-2.44v-1.56h2.44V221.5a3.771,3.771,0,0,1,4.13-4.06,4.363,4.363,0,0,1,2.73.86l-.62,1.38a3.147,3.147,0,0,0-2.03-.68c-1.59,0-2.42.88-2.42,2.57Z" fill="#231f20"/>
      <path id="Caminho_31313" data-name="Caminho 31313" d="M1270.28,230.03a6.955,6.955,0,1,1,6.97,6.97A6.721,6.721,0,0,1,1270.28,230.03Zm12.04,0a5.091,5.091,0,1,0-5.07,5.33A4.987,4.987,0,0,0,1282.32,230.03Z" fill="#231f20"/>
      <path id="Caminho_31314" data-name="Caminho 31314" d="M1287.55,218.87a1.335,1.335,0,0,1,1.35-1.3,1.31,1.31,0,0,1,1.35,1.27,1.35,1.35,0,0,1-2.7.02Zm.42,4.32h1.85v13.68h-1.85Z" fill="#231f20"/>
      <path id="Caminho_31315" data-name="Caminho 31315" d="M1301.99,230.03a6.73,6.73,0,0,1,7.05-6.94,6,6,0,0,1,5.36,2.7l-1.38.94a4.65,4.65,0,0,0-3.98-2.03,5.332,5.332,0,0,0,0,10.66,4.623,4.623,0,0,0,3.98-2l1.38.94a6.019,6.019,0,0,1-5.36,2.7A6.76,6.76,0,0,1,1301.99,230.03Z" fill="#231f20"/>
      <path id="Caminho_31316" data-name="Caminho 31316" d="M1324.89,223.08v1.79c-.16,0-.31-.03-.44-.03-2.86,0-4.6,1.82-4.6,5.04v6.97H1318V223.17h1.77v2.68c.86-1.82,2.6-2.78,5.12-2.78Z" fill="#231f20"/>
      <path id="Caminho_31317" data-name="Caminho 31317" d="M1327.8,218.87a1.335,1.335,0,0,1,1.35-1.3,1.31,1.31,0,0,1,1.35,1.27,1.35,1.35,0,0,1-2.7.02Zm.42,4.32h1.85v13.68h-1.85Z" fill="#231f20"/>
      <path id="Caminho_31318" data-name="Caminho 31318" d="M1345.54,228.39v8.48h-1.77v-2.13a5.138,5.138,0,0,1-4.71,2.26c-3.09,0-4.99-1.61-4.99-3.98,0-2.11,1.35-3.87,5.28-3.87h4.34v-.83c0-2.34-1.33-3.61-3.88-3.61a6.955,6.955,0,0,0-4.55,1.61l-.83-1.38a8.694,8.694,0,0,1,5.56-1.85c3.54,0,5.54,1.77,5.54,5.3Zm-1.85,4.37v-2.24h-4.29c-2.65,0-3.51,1.04-3.51,2.44,0,1.59,1.27,2.57,3.46,2.57a4.284,4.284,0,0,0,4.34-2.78Z" fill="#231f20"/>
      <path id="Caminho_31319" data-name="Caminho 31319" d="M1363.09,217.57v19.29h-1.77v-2.7a5.92,5.92,0,0,1-5.28,2.83,6.957,6.957,0,0,1,0-13.91,5.988,5.988,0,0,1,5.2,2.7v-8.22h1.85Zm-1.82,12.45a5.091,5.091,0,1,0-5.07,5.33A5,5,0,0,0,1361.27,230.02Z" fill="#231f20"/>
      <path id="Caminho_31320" data-name="Caminho 31320" d="M1378.56,228.39v8.48h-1.77v-2.13a5.138,5.138,0,0,1-4.71,2.26c-3.09,0-4.99-1.61-4.99-3.98,0-2.11,1.35-3.87,5.28-3.87h4.34v-.83c0-2.34-1.33-3.61-3.88-3.61a6.955,6.955,0,0,0-4.55,1.61l-.83-1.38a8.694,8.694,0,0,1,5.56-1.85c3.54,0,5.54,1.77,5.54,5.3Zm-1.85,4.37v-2.24h-4.29c-2.65,0-3.51,1.04-3.51,2.44,0,1.59,1.27,2.57,3.46,2.57a4.284,4.284,0,0,0,4.34-2.78Z" fill="#231f20"/>
      <path id="Caminho_31321" data-name="Caminho 31321" d="M180.55,268.39v13.68h-1.77v-2.5a5.447,5.447,0,0,1-4.91,2.63c-3.48,0-5.77-1.95-5.77-5.88v-7.93h1.85v7.75c0,2.91,1.51,4.39,4.11,4.39,2.86,0,4.65-1.85,4.65-4.97v-7.18h1.85Z" fill="#231f20"/>
      <path id="Caminho_31322" data-name="Caminho 31322" d="M208.29,274.14v7.93h-1.85v-7.75c0-2.89-1.46-4.37-3.93-4.37-2.81,0-4.58,1.82-4.58,4.94v7.18h-1.85v-7.75c0-2.89-1.46-4.37-3.95-4.37-2.78,0-4.58,1.82-4.58,4.94v7.18H185.7V268.39h1.77v2.5a5.525,5.525,0,0,1,5.02-2.6,4.877,4.877,0,0,1,4.86,2.89,5.96,5.96,0,0,1,5.41-2.89c3.33,0,5.51,1.92,5.51,5.85Z" fill="#231f20"/>
      <path id="Caminho_31323" data-name="Caminho 31323" d="M223.63,273.59v8.48h-1.77v-2.13a5.138,5.138,0,0,1-4.71,2.26c-3.09,0-4.99-1.61-4.99-3.98,0-2.11,1.35-3.87,5.28-3.87h4.34v-.83c0-2.34-1.33-3.61-3.88-3.61a6.955,6.955,0,0,0-4.55,1.61l-.83-1.38a8.694,8.694,0,0,1,5.56-1.85c3.54,0,5.54,1.77,5.54,5.3Zm-1.85,4.37v-2.24h-4.29c-2.65,0-3.51,1.04-3.51,2.44,0,1.59,1.27,2.57,3.46,2.57a4.284,4.284,0,0,0,4.34-2.78Z" fill="#231f20"/>
      <path id="Caminho_31324" data-name="Caminho 31324" d="M246.47,273.59v8.48H244.7v-2.13a5.138,5.138,0,0,1-4.71,2.26c-3.09,0-4.99-1.61-4.99-3.98,0-2.11,1.35-3.87,5.28-3.87h4.34v-.83c0-2.34-1.33-3.61-3.87-3.61a6.955,6.955,0,0,0-4.55,1.61l-.83-1.38a8.694,8.694,0,0,1,5.56-1.85c3.54,0,5.54,1.77,5.54,5.3Zm-1.85,4.37v-2.24h-4.29c-2.65,0-3.51,1.04-3.51,2.44,0,1.59,1.27,2.57,3.46,2.57a4.284,4.284,0,0,0,4.34-2.78Z" fill="#231f20"/>
      <path id="Caminho_31325" data-name="Caminho 31325" d="M264.2,268.39V280.4c0,4.71-2.31,6.84-6.84,6.84a9.491,9.491,0,0,1-6.37-2.11l.94-1.4a8.145,8.145,0,0,0,5.38,1.87c3.46,0,5.04-1.59,5.04-4.97v-1.74a6.148,6.148,0,0,1-5.33,2.65,6.634,6.634,0,1,1,0-13.26,6.189,6.189,0,0,1,5.41,2.73v-2.63h1.77Zm-1.79,6.5a5.188,5.188,0,1,0-5.2,5.02A4.888,4.888,0,0,0,262.41,274.89Z" fill="#231f20"/>
      <path id="Caminho_31326" data-name="Caminho 31326" d="M281.28,275.8H269.84a5.063,5.063,0,0,0,5.38,4.76,5.422,5.422,0,0,0,4.19-1.79l1.04,1.2a6.72,6.72,0,0,1-5.28,2.24c-4.26,0-7.18-2.91-7.18-6.97a6.58,6.58,0,0,1,6.68-6.94c3.85,0,6.63,2.83,6.63,6.94,0,.16-.03.36-.03.57Zm-11.44-1.38h9.7a4.86,4.86,0,0,0-9.7,0Zm2.26-8.14h-1.72l3.35-3.22h1.87l3.35,3.22h-1.72l-2.57-2.16-2.57,2.16Z" fill="#231f20"/>
      <path id="Caminho_31327" data-name="Caminho 31327" d="M297.66,274.14v7.93h-1.85v-7.75c0-2.89-1.51-4.37-4.11-4.37-2.94,0-4.78,1.82-4.78,4.94v7.18h-1.85V268.39h1.77v2.52a5.756,5.756,0,0,1,5.2-2.63c3.33,0,5.62,1.92,5.62,5.85Z" fill="#231f20"/>
      <path id="Caminho_31328" data-name="Caminho 31328" d="M301.36,275.23a6.73,6.73,0,0,1,7.05-6.94,6,6,0,0,1,5.36,2.7l-1.38.94a4.65,4.65,0,0,0-3.98-2.03,5.332,5.332,0,0,0,0,10.66,4.623,4.623,0,0,0,3.98-2l1.38.94a6.019,6.019,0,0,1-5.36,2.7A6.76,6.76,0,0,1,301.36,275.23Z" fill="#231f20"/>
      <path id="Caminho_31329" data-name="Caminho 31329" d="M316.96,264.07a1.335,1.335,0,0,1,1.35-1.3,1.31,1.31,0,0,1,1.35,1.27,1.35,1.35,0,0,1-2.7.02Zm.42,4.32h1.85v13.68h-1.85Z" fill="#231f20"/>
      <path id="Caminho_31330" data-name="Caminho 31330" d="M334.69,273.59v8.48h-1.77v-2.13a5.138,5.138,0,0,1-4.71,2.26c-3.09,0-4.99-1.61-4.99-3.98,0-2.11,1.35-3.87,5.28-3.87h4.34v-.83c0-2.34-1.33-3.61-3.87-3.61a6.955,6.955,0,0,0-4.55,1.61l-.83-1.38a8.694,8.694,0,0,1,5.56-1.85c3.54,0,5.54,1.77,5.54,5.3Zm-1.85,4.37v-2.24h-4.29c-2.65,0-3.51,1.04-3.51,2.44,0,1.59,1.27,2.57,3.46,2.57a4.284,4.284,0,0,0,4.34-2.78Z" fill="#231f20"/>
      <path id="Caminho_31331" data-name="Caminho 31331" d="M354.09,268.29v1.79c-.16,0-.31-.03-.44-.03-2.86,0-4.6,1.82-4.6,5.04v6.97H347.2V268.38h1.77v2.68c.86-1.82,2.6-2.78,5.12-2.78Z" fill="#231f20"/>
      <path id="Caminho_31332" data-name="Caminho 31332" d="M369.2,275.8H357.76a5.063,5.063,0,0,0,5.38,4.76,5.422,5.422,0,0,0,4.19-1.79l1.04,1.2a6.72,6.72,0,0,1-5.28,2.24c-4.26,0-7.18-2.91-7.18-6.97a6.58,6.58,0,0,1,6.68-6.94c3.85,0,6.63,2.83,6.63,6.94,0,.16-.03.36-.03.57Zm-11.44-1.38h9.7a4.86,4.86,0,0,0-9.7,0Z" fill="#231f20"/>
      <path id="Caminho_31333" data-name="Caminho 31333" d="M385.66,268.39V280.4c0,4.71-2.31,6.84-6.84,6.84a9.491,9.491,0,0,1-6.37-2.11l.94-1.4a8.145,8.145,0,0,0,5.38,1.87c3.46,0,5.04-1.59,5.04-4.97v-1.74a6.148,6.148,0,0,1-5.33,2.65,6.634,6.634,0,1,1,0-13.26,6.189,6.189,0,0,1,5.41,2.73v-2.63h1.77Zm-1.79,6.5a5.188,5.188,0,1,0-5.2,5.02A4.888,4.888,0,0,0,383.87,274.89Z" fill="#231f20"/>
      <path id="Caminho_31334" data-name="Caminho 31334" d="M403.16,268.39v13.68h-1.77v-2.5a5.447,5.447,0,0,1-4.91,2.63c-3.48,0-5.77-1.95-5.77-5.88v-7.93h1.85v7.75c0,2.91,1.51,4.39,4.11,4.39,2.86,0,4.65-1.85,4.65-4.97v-7.18h1.85Z" fill="#231f20"/>
      <path id="Caminho_31335" data-name="Caminho 31335" d="M408.33,262.77h1.85v19.29h-1.85Z" fill="#231f20"/>
      <path id="Caminho_31336" data-name="Caminho 31336" d="M425.65,273.59v8.48h-1.77v-2.13a5.138,5.138,0,0,1-4.71,2.26c-3.09,0-4.99-1.61-4.99-3.98,0-2.11,1.35-3.87,5.28-3.87h4.34v-.83c0-2.34-1.33-3.61-3.88-3.61a6.955,6.955,0,0,0-4.55,1.61l-.83-1.38a8.694,8.694,0,0,1,5.56-1.85c3.54,0,5.54,1.77,5.54,5.3Zm-1.85,4.37v-2.24h-4.29c-2.65,0-3.51,1.04-3.51,2.44,0,1.59,1.27,2.57,3.46,2.57a4.284,4.284,0,0,0,4.34-2.78Z" fill="#231f20"/>
      <path id="Caminho_31337" data-name="Caminho 31337" d="M443.2,262.77v19.29h-1.77v-2.7a5.92,5.92,0,0,1-5.28,2.83,6.957,6.957,0,0,1,0-13.91,5.988,5.988,0,0,1,5.2,2.7v-8.22h1.85Zm-1.82,12.45a5.091,5.091,0,1,0-5.07,5.33A5,5,0,0,0,441.38,275.22Z" fill="#231f20"/>
      <path id="Caminho_31338" data-name="Caminho 31338" d="M446.97,275.23a6.955,6.955,0,1,1,6.97,6.97A6.721,6.721,0,0,1,446.97,275.23Zm12.04,0a5.091,5.091,0,1,0-5.07,5.33A4.987,4.987,0,0,0,459.01,275.23Z" fill="#231f20"/>
      <path id="Caminho_31339" data-name="Caminho 31339" d="M471.54,268.29v1.79c-.16,0-.31-.03-.44-.03-2.86,0-4.6,1.82-4.6,5.04v6.97h-1.85V268.38h1.77v2.68c.86-1.82,2.6-2.78,5.12-2.78Z" fill="#231f20"/>
      <path id="Caminho_31340" data-name="Caminho 31340" d="M485.16,273.59v8.48h-1.77v-2.13a5.138,5.138,0,0,1-4.71,2.26c-3.09,0-4.99-1.61-4.99-3.98,0-2.11,1.35-3.87,5.28-3.87h4.34v-.83c0-2.34-1.33-3.61-3.88-3.61a6.955,6.955,0,0,0-4.55,1.61l-.83-1.38a8.694,8.694,0,0,1,5.56-1.85c3.54,0,5.54,1.77,5.54,5.3Zm-1.85,4.37v-2.24h-4.29c-2.65,0-3.51,1.04-3.51,2.44,0,1.59,1.27,2.57,3.46,2.57a4.284,4.284,0,0,0,4.34-2.78Z" fill="#231f20"/>
      <path id="Caminho_31341" data-name="Caminho 31341" d="M511.54,275.23a6.623,6.623,0,0,1-6.81,6.97,5.988,5.988,0,0,1-5.2-2.7v7.62h-1.85V268.4h1.77v2.7a5.966,5.966,0,0,1,5.28-2.81,6.615,6.615,0,0,1,6.81,6.94Zm-1.85,0a5.1,5.1,0,1,0-5.1,5.33A5.038,5.038,0,0,0,509.69,275.23Z" fill="#231f20"/>
      <path id="Caminho_31342" data-name="Caminho 31342" d="M525.55,273.59v8.48h-1.77v-2.13a5.138,5.138,0,0,1-4.71,2.26c-3.09,0-4.99-1.61-4.99-3.98,0-2.11,1.35-3.87,5.28-3.87h4.34v-.83c0-2.34-1.33-3.61-3.88-3.61a6.955,6.955,0,0,0-4.55,1.61l-.83-1.38a8.694,8.694,0,0,1,5.56-1.85c3.54,0,5.54,1.77,5.54,5.3Zm-1.85,4.37v-2.24h-4.29c-2.65,0-3.51,1.04-3.51,2.44,0,1.59,1.27,2.57,3.46,2.57a4.284,4.284,0,0,0,4.34-2.78Z" fill="#231f20"/>
      <path id="Caminho_31343" data-name="Caminho 31343" d="M537.46,268.29v1.79c-.16,0-.31-.03-.44-.03-2.86,0-4.6,1.82-4.6,5.04v6.97h-1.85V268.38h1.77v2.68c.86-1.82,2.6-2.78,5.12-2.78Z" fill="#231f20"/>
      <path id="Caminho_31344" data-name="Caminho 31344" d="M551.08,273.59v8.48h-1.77v-2.13a5.138,5.138,0,0,1-4.71,2.26c-3.09,0-4.99-1.61-4.99-3.98,0-2.11,1.35-3.87,5.28-3.87h4.34v-.83c0-2.34-1.33-3.61-3.87-3.61a6.955,6.955,0,0,0-4.55,1.61l-.83-1.38a8.694,8.694,0,0,1,5.56-1.85C549.08,268.29,551.08,270.06,551.08,273.59Zm-1.85,4.37v-2.24h-4.29c-2.65,0-3.51,1.04-3.51,2.44,0,1.59,1.27,2.57,3.46,2.57a4.284,4.284,0,0,0,4.34-2.78Z" fill="#231f20"/>
      <path id="Caminho_31345" data-name="Caminho 31345" d="M573.92,273.59v8.48h-1.77v-2.13a5.138,5.138,0,0,1-4.71,2.26c-3.09,0-4.99-1.61-4.99-3.98,0-2.11,1.35-3.87,5.28-3.87h4.34v-.83c0-2.34-1.33-3.61-3.88-3.61a6.955,6.955,0,0,0-4.55,1.61l-.83-1.38a8.694,8.694,0,0,1,5.56-1.85c3.54,0,5.54,1.77,5.54,5.3Zm-1.85,4.37v-2.24h-4.29c-2.65,0-3.51,1.04-3.51,2.44,0,1.59,1.27,2.57,3.46,2.57a4.284,4.284,0,0,0,4.34-2.78Z" fill="#231f20"/>
      <path id="Caminho_31346" data-name="Caminho 31346" d="M590.88,262.64a4.363,4.363,0,0,1,2.73.86l-.62,1.38a3.147,3.147,0,0,0-2.03-.68c-1.59,0-2.42.88-2.42,2.57v1.61h4.21v1.56h-4.16v12.12h-1.85V269.94H584.3v-1.56h2.44v-1.69a3.771,3.771,0,0,1,4.13-4.06Zm8.74,1.4a1.351,1.351,0,1,1-1.35-1.28,1.31,1.31,0,0,1,1.35,1.27Zm-2.29,4.34h1.85v13.68h-1.85Z" fill="#231f20"/>
      <path id="Caminho_31347" data-name="Caminho 31347" d="M602.43,280.51l.83-1.46a8.244,8.244,0,0,0,4.86,1.53c2.6,0,3.67-.88,3.67-2.24,0-3.56-8.87-.75-8.87-6.16,0-2.24,1.92-3.9,5.41-3.9a9.292,9.292,0,0,1,4.84,1.27l-.81,1.48a7.042,7.042,0,0,0-4.03-1.17c-2.47,0-3.56.96-3.56,2.26,0,3.69,8.87.91,8.87,6.16,0,2.37-2.08,3.9-5.64,3.9a9.123,9.123,0,0,1-5.56-1.69Z" fill="#231f20"/>
      <path id="Caminho_31348" data-name="Caminho 31348" d="M615.66,275.23a6.73,6.73,0,0,1,7.05-6.94,6,6,0,0,1,5.36,2.7l-1.38.94a4.65,4.65,0,0,0-3.98-2.03,5.332,5.332,0,0,0,0,10.66,4.623,4.623,0,0,0,3.98-2l1.38.94a6.019,6.019,0,0,1-5.36,2.7A6.76,6.76,0,0,1,615.66,275.23Z" fill="#231f20"/>
      <path id="Caminho_31349" data-name="Caminho 31349" d="M642,273.59v8.48h-1.77v-2.13a5.138,5.138,0,0,1-4.71,2.26c-3.09,0-4.99-1.61-4.99-3.98,0-2.11,1.35-3.87,5.28-3.87h4.34v-.83c0-2.34-1.33-3.61-3.87-3.61a6.955,6.955,0,0,0-4.55,1.61l-.83-1.38a8.694,8.694,0,0,1,5.56-1.85C640,268.29,642,270.06,642,273.59Zm-1.85,4.37v-2.24h-4.29c-2.65,0-3.51,1.04-3.51,2.44,0,1.59,1.27,2.57,3.46,2.57a4.284,4.284,0,0,0,4.34-2.78Z" fill="#231f20"/>
      <path id="Caminho_31350" data-name="Caminho 31350" d="M647.02,262.77h1.85v19.29h-1.85Z" fill="#231f20"/>
      <path id="Caminho_31351" data-name="Caminho 31351" d="M653.6,264.07a1.335,1.335,0,0,1,1.35-1.3,1.31,1.31,0,0,1,1.35,1.27,1.35,1.35,0,0,1-2.7.02Zm.42,4.32h1.85v13.68h-1.85Z" fill="#231f20"/>
      <path id="Caminho_31352" data-name="Caminho 31352" d="M670.65,280.53v1.53H659.52v-1.22l8.61-10.89h-8.45v-1.56H670.5v1.22l-8.61,10.92Z" fill="#231f20"/>
      <path id="Caminho_31353" data-name="Caminho 31353" d="M684.61,273.59v8.48h-1.77v-2.13a5.138,5.138,0,0,1-4.71,2.26c-3.09,0-4.99-1.61-4.99-3.98,0-2.11,1.35-3.87,5.28-3.87h4.34v-.83c0-2.34-1.33-3.61-3.87-3.61a6.955,6.955,0,0,0-4.55,1.61l-.83-1.38a8.694,8.694,0,0,1,5.56-1.85C682.61,268.29,684.61,270.06,684.61,273.59Zm-1.85,4.37v-2.24h-4.29c-2.65,0-3.51,1.04-3.51,2.44,0,1.59,1.27,2.57,3.46,2.57a4.284,4.284,0,0,0,4.34-2.78Z" fill="#231f20"/>
      <path id="Caminho_31354" data-name="Caminho 31354" d="M699.33,278.56l1.38.94a6.019,6.019,0,0,1-5.36,2.7h-.05l-.31,1.22a2.119,2.119,0,0,1,2.21,2.11c0,1.4-1.2,2.26-2.94,2.26a3.719,3.719,0,0,1-2.18-.6l.44-.99a3.052,3.052,0,0,0,1.72.49c1.04,0,1.61-.44,1.61-1.22,0-.7-.52-1.2-1.61-1.2h-.6l.57-2.16a6.956,6.956,0,0,1,1.15-13.83,6,6,0,0,1,5.36,2.7l-1.38.94a4.65,4.65,0,0,0-3.98-2.03,5.332,5.332,0,0,0,0,10.66,4.623,4.623,0,0,0,3.98-2Z" fill="#231f20"/>
      <path id="Caminho_31355" data-name="Caminho 31355" d="M714.64,273.59v8.48h-1.77v-2.13a5.138,5.138,0,0,1-4.71,2.26c-3.09,0-4.99-1.61-4.99-3.98,0-2.11,1.35-3.87,5.28-3.87h4.34v-.83c0-2.34-1.33-3.61-3.87-3.61a6.955,6.955,0,0,0-4.55,1.61l-.83-1.38a8.694,8.694,0,0,1,5.56-1.85C712.64,268.29,714.64,270.06,714.64,273.59Zm-1.85,4.37v-2.24H708.5c-2.65,0-3.51,1.04-3.51,2.44,0,1.59,1.27,2.57,3.46,2.57a4.284,4.284,0,0,0,4.34-2.78Zm-6.63-11.93h-1.12c.05-1.74.96-2.86,2.34-2.86,1.61,0,2.39,1.77,3.41,1.77.78,0,1.3-.62,1.35-1.61h1.12c-.05,1.69-.96,2.81-2.34,2.81-1.61,0-2.37-1.77-3.41-1.77-.78,0-1.3.62-1.35,1.66Z" fill="#231f20"/>
      <path id="Caminho_31356" data-name="Caminho 31356" d="M718.33,275.23a6.955,6.955,0,1,1,6.97,6.97A6.721,6.721,0,0,1,718.33,275.23Zm12.04,0a5.091,5.091,0,1,0-5.07,5.33A4.987,4.987,0,0,0,730.37,275.23Z" fill="#231f20"/>
      <path id="Caminho_31357" data-name="Caminho 31357" d="M755.99,262.77v19.29h-1.77v-2.7a5.92,5.92,0,0,1-5.28,2.83,6.957,6.957,0,0,1,0-13.91,5.988,5.988,0,0,1,5.2,2.7v-8.22h1.85Zm-1.82,12.45a5.091,5.091,0,1,0-5.07,5.33A5,5,0,0,0,754.17,275.22Z" fill="#231f20"/>
      <path id="Caminho_31358" data-name="Caminho 31358" d="M773.05,275.8H761.61a5.063,5.063,0,0,0,5.38,4.76,5.422,5.422,0,0,0,4.19-1.79l1.04,1.2a6.72,6.72,0,0,1-5.28,2.24c-4.26,0-7.18-2.91-7.18-6.97a6.58,6.58,0,0,1,6.68-6.94c3.85,0,6.63,2.83,6.63,6.94,0,.16-.03.36-.03.57Zm-11.44-1.38h9.7a4.86,4.86,0,0,0-9.7,0Z" fill="#231f20"/>
      <path id="Caminho_31359" data-name="Caminho 31359" d="M782.45,280.51l.83-1.46a8.244,8.244,0,0,0,4.86,1.53c2.6,0,3.67-.88,3.67-2.24,0-3.56-8.87-.75-8.87-6.16,0-2.24,1.92-3.9,5.41-3.9a9.292,9.292,0,0,1,4.84,1.27l-.81,1.48a7.042,7.042,0,0,0-4.03-1.17c-2.47,0-3.56.96-3.56,2.26,0,3.69,8.87.91,8.87,6.16,0,2.37-2.08,3.9-5.64,3.9a9.123,9.123,0,0,1-5.56-1.69Z" fill="#231f20"/>
      <path id="Caminho_31360" data-name="Caminho 31360" d="M809.38,268.39v13.68h-1.77v-2.5a5.447,5.447,0,0,1-4.91,2.63c-3.48,0-5.77-1.95-5.77-5.88v-7.93h1.85v7.75c0,2.91,1.51,4.39,4.11,4.39,2.86,0,4.65-1.85,4.65-4.97v-7.18h1.85Z" fill="#231f20"/>
      <path id="Caminho_31361" data-name="Caminho 31361" d="M824.88,273.59v8.48h-1.77v-2.13a5.138,5.138,0,0,1-4.71,2.26c-3.09,0-4.99-1.61-4.99-3.98,0-2.11,1.35-3.87,5.28-3.87h4.34v-.83c0-2.34-1.33-3.61-3.88-3.61a6.955,6.955,0,0,0-4.55,1.61l-.83-1.38a8.694,8.694,0,0,1,5.56-1.85c3.54,0,5.54,1.77,5.54,5.3Zm-1.85,4.37v-2.24h-4.29c-2.65,0-3.51,1.04-3.51,2.44,0,1.59,1.27,2.57,3.46,2.57a4.284,4.284,0,0,0,4.34-2.78Z" fill="#231f20"/>
      <path id="Caminho_31362" data-name="Caminho 31362" d="M828,280.51l.83-1.46a8.244,8.244,0,0,0,4.86,1.53c2.6,0,3.67-.88,3.67-2.24,0-3.56-8.87-.75-8.87-6.16,0-2.24,1.92-3.9,5.41-3.9a9.292,9.292,0,0,1,4.84,1.27l-.81,1.48a7.042,7.042,0,0,0-4.03-1.17c-2.47,0-3.56.96-3.56,2.26,0,3.69,8.87.91,8.87,6.16,0,2.37-2.08,3.9-5.64,3.9a9.123,9.123,0,0,1-5.56-1.69Z" fill="#231f20"/>
      <path id="Caminho_31363" data-name="Caminho 31363" d="M860.43,273.59v8.48h-1.77v-2.13a5.138,5.138,0,0,1-4.71,2.26c-3.09,0-4.99-1.61-4.99-3.98,0-2.11,1.35-3.87,5.28-3.87h4.34v-.83c0-2.34-1.33-3.61-3.88-3.61a6.955,6.955,0,0,0-4.55,1.61l-.83-1.38a8.694,8.694,0,0,1,5.56-1.85c3.54,0,5.54,1.77,5.54,5.3Zm-1.85,4.37v-2.24h-4.29c-2.65,0-3.51,1.04-3.51,2.44,0,1.59,1.27,2.57,3.46,2.57a4.284,4.284,0,0,0,4.34-2.78Z" fill="#231f20"/>
      <path id="Caminho_31364" data-name="Caminho 31364" d="M872.65,281.23a4.4,4.4,0,0,1-2.89.96,3.624,3.624,0,0,1-4-3.98v-8.27h-2.44v-1.56h2.44v-2.99h1.85v2.99h4.16v1.56h-4.16v8.17a2.194,2.194,0,0,0,2.37,2.5,3.056,3.056,0,0,0,2.03-.7l.65,1.33Z" fill="#231f20"/>
      <path id="Caminho_31365" data-name="Caminho 31365" d="M875.59,264.07a1.335,1.335,0,0,1,1.35-1.3,1.31,1.31,0,0,1,1.35,1.27,1.35,1.35,0,0,1-2.7.02Zm.42,4.32h1.85v13.68h-1.85Z" fill="#231f20"/>
      <path id="Caminho_31366" data-name="Caminho 31366" d="M894.49,268.39l-6.08,13.68h-1.9l-6.06-13.68h1.92l5.12,11.65,5.17-11.65h1.82Z" fill="#231f20"/>
      <path id="Caminho_31367" data-name="Caminho 31367" d="M896.67,264.07a1.335,1.335,0,0,1,1.35-1.3,1.31,1.31,0,0,1,1.35,1.27,1.35,1.35,0,0,1-2.7.02Zm.42,4.32h1.85v13.68h-1.85Z" fill="#231f20"/>
      <path id="Caminho_31368" data-name="Caminho 31368" d="M916.56,262.77v19.29h-1.77v-2.7a5.92,5.92,0,0,1-5.28,2.83,6.957,6.957,0,0,1,0-13.91,5.988,5.988,0,0,1,5.2,2.7v-8.22h1.85Zm-1.82,12.45a5.091,5.091,0,1,0-5.07,5.33A5,5,0,0,0,914.74,275.22Z" fill="#231f20"/>
      <path id="Caminho_31369" data-name="Caminho 31369" d="M932.03,273.59v8.48h-1.77v-2.13a5.138,5.138,0,0,1-4.71,2.26c-3.09,0-4.99-1.61-4.99-3.98,0-2.11,1.35-3.87,5.28-3.87h4.34v-.83c0-2.34-1.33-3.61-3.88-3.61a6.955,6.955,0,0,0-4.55,1.61l-.83-1.38a8.694,8.694,0,0,1,5.56-1.85c3.54,0,5.54,1.77,5.54,5.3Zm-1.85,4.37v-2.24h-4.29c-2.65,0-3.51,1.04-3.51,2.44,0,1.59,1.27,2.57,3.46,2.57a4.284,4.284,0,0,0,4.34-2.78Z" fill="#231f20"/>
      <path id="Caminho_31370" data-name="Caminho 31370" d="M949.58,262.77v19.29h-1.77v-2.7a5.92,5.92,0,0,1-5.28,2.83,6.957,6.957,0,0,1,0-13.91,5.988,5.988,0,0,1,5.2,2.7v-8.22h1.85Zm-1.82,12.45a5.091,5.091,0,1,0-5.07,5.33A5,5,0,0,0,947.76,275.22Z" fill="#231f20"/>
      <path id="Caminho_31371" data-name="Caminho 31371" d="M966.64,275.8H955.2a5.063,5.063,0,0,0,5.38,4.76,5.422,5.422,0,0,0,4.19-1.79l1.04,1.2a6.72,6.72,0,0,1-5.28,2.24c-4.26,0-7.18-2.91-7.18-6.97a6.58,6.58,0,0,1,6.68-6.94c3.85,0,6.63,2.83,6.63,6.94,0,.16-.03.36-.03.57Zm-11.44-1.38h9.7a4.86,4.86,0,0,0-9.7,0Z" fill="#231f20"/>
      <path id="Caminho_31372" data-name="Caminho 31372" d="M968.54,280.51l.83-1.46a8.244,8.244,0,0,0,4.86,1.53c2.6,0,3.67-.88,3.67-2.24,0-3.56-8.87-.75-8.87-6.16,0-2.24,1.92-3.9,5.41-3.9a9.292,9.292,0,0,1,4.84,1.27l-.81,1.48a7.042,7.042,0,0,0-4.03-1.17c-2.47,0-3.56.96-3.56,2.26,0,3.69,8.87.91,8.87,6.16,0,2.37-2.08,3.9-5.64,3.9a9.123,9.123,0,0,1-5.56-1.69Z" fill="#231f20"/>
      <path id="Caminho_31373" data-name="Caminho 31373" d="M984.74,280.77a4.245,4.245,0,0,1-.36,1.51l-1.09,3.59h-1.25l.88-3.77a1.318,1.318,0,0,1-.94-1.33,1.357,1.357,0,0,1,1.38-1.4,1.375,1.375,0,0,1,1.38,1.4Z" fill="#231f20"/>
      <path id="Caminho_31374" data-name="Caminho 31374" d="M1006.48,273.59v8.48h-1.77v-2.13a5.138,5.138,0,0,1-4.71,2.26c-3.09,0-4.99-1.61-4.99-3.98,0-2.11,1.35-3.87,5.28-3.87h4.34v-.83c0-2.34-1.33-3.61-3.87-3.61a6.955,6.955,0,0,0-4.55,1.61l-.83-1.38a8.694,8.694,0,0,1,5.56-1.85C1004.48,268.29,1006.48,270.06,1006.48,273.59Zm-1.85,4.37v-2.24h-4.29c-2.65,0-3.51,1.04-3.51,2.44,0,1.59,1.27,2.57,3.46,2.57a4.284,4.284,0,0,0,4.34-2.78Z" fill="#231f20"/>
      <path id="Caminho_31375" data-name="Caminho 31375" d="M1030.8,277.2h-10.14l-2.18,4.86h-2l8.32-18.2h1.9l8.32,18.2h-2.03l-2.18-4.86Zm-.7-1.56-4.37-9.78-4.37,9.78Z" fill="#231f20"/>
      <path id="Caminho_31376" data-name="Caminho 31376" d="M1050.17,268.39V280.4c0,4.71-2.31,6.84-6.84,6.84a9.491,9.491,0,0,1-6.37-2.11l.94-1.4a8.145,8.145,0,0,0,5.38,1.87c3.46,0,5.04-1.59,5.04-4.97v-1.74a6.148,6.148,0,0,1-5.33,2.65,6.634,6.634,0,1,1,0-13.26,6.189,6.189,0,0,1,5.41,2.73v-2.63h1.77Zm-1.79,6.5a5.188,5.188,0,1,0-5.2,5.02A4.888,4.888,0,0,0,1048.38,274.89Z" fill="#231f20"/>
      <path id="Caminho_31377" data-name="Caminho 31377" d="M1067.26,275.8h-11.44a5.063,5.063,0,0,0,5.38,4.76,5.422,5.422,0,0,0,4.19-1.79l1.04,1.2a6.72,6.72,0,0,1-5.28,2.24c-4.26,0-7.18-2.91-7.18-6.97a6.58,6.58,0,0,1,6.68-6.94c3.85,0,6.63,2.83,6.63,6.94,0,.16-.03.36-.03.57Zm-11.44-1.38h9.7a4.86,4.86,0,0,0-9.7,0Zm2.26-8.14h-1.72l3.35-3.22h1.87l3.35,3.22h-1.72l-2.57-2.16-2.57,2.16Z" fill="#231f20"/>
      <path id="Caminho_31378" data-name="Caminho 31378" d="M1083.64,274.14v7.93h-1.85v-7.75c0-2.89-1.51-4.37-4.11-4.37-2.94,0-4.78,1.82-4.78,4.94v7.18h-1.85V268.39h1.77v2.52a5.756,5.756,0,0,1,5.2-2.63c3.33,0,5.62,1.92,5.62,5.85Z" fill="#231f20"/>
      <path id="Caminho_31379" data-name="Caminho 31379" d="M1087.33,275.23a6.73,6.73,0,0,1,7.05-6.94,6,6,0,0,1,5.36,2.7l-1.38.94a4.65,4.65,0,0,0-3.98-2.03,5.332,5.332,0,0,0,0,10.66,4.623,4.623,0,0,0,3.98-2l1.38.94a6.019,6.019,0,0,1-5.36,2.7A6.76,6.76,0,0,1,1087.33,275.23Z" fill="#231f20"/>
      <path id="Caminho_31380" data-name="Caminho 31380" d="M1102.93,264.07a1.335,1.335,0,0,1,1.35-1.3,1.31,1.31,0,0,1,1.35,1.27,1.35,1.35,0,0,1-2.7.02Zm.42,4.32h1.85v13.68h-1.85Z" fill="#231f20"/>
      <path id="Caminho_31381" data-name="Caminho 31381" d="M1120.66,273.59v8.48h-1.77v-2.13a5.138,5.138,0,0,1-4.71,2.26c-3.09,0-4.99-1.61-4.99-3.98,0-2.11,1.35-3.87,5.28-3.87h4.34v-.83c0-2.34-1.33-3.61-3.88-3.61a6.955,6.955,0,0,0-4.55,1.61l-.83-1.38a8.694,8.694,0,0,1,5.56-1.85c3.54,0,5.54,1.77,5.54,5.3Zm-1.85,4.37v-2.24h-4.29c-2.65,0-3.51,1.04-3.51,2.44,0,1.59,1.27,2.57,3.46,2.57a4.284,4.284,0,0,0,4.34-2.78Z" fill="#231f20"/>
      <path id="Caminho_31382" data-name="Caminho 31382" d="M1148.78,263.87v18.2h-1.59l-11.7-14.77v14.77h-1.92v-18.2h1.59l11.73,14.77V263.87h1.9Z" fill="#231f20"/>
      <path id="Caminho_31383" data-name="Caminho 31383" d="M1164.64,273.59v8.48h-1.77v-2.13a5.138,5.138,0,0,1-4.71,2.26c-3.09,0-4.99-1.61-4.99-3.98,0-2.11,1.35-3.87,5.28-3.87h4.34v-.83c0-2.34-1.33-3.61-3.88-3.61a6.955,6.955,0,0,0-4.55,1.61l-.83-1.38a8.694,8.694,0,0,1,5.56-1.85c3.54,0,5.54,1.77,5.54,5.3Zm-1.85,4.37v-2.24h-4.29c-2.65,0-3.51,1.04-3.51,2.44,0,1.59,1.27,2.57,3.46,2.57a4.284,4.284,0,0,0,4.34-2.78Z" fill="#231f20"/>
      <path id="Caminho_31384" data-name="Caminho 31384" d="M1168.33,275.23a6.73,6.73,0,0,1,7.05-6.94,6,6,0,0,1,5.36,2.7l-1.38.94a4.65,4.65,0,0,0-3.98-2.03,5.332,5.332,0,0,0,0,10.66,4.623,4.623,0,0,0,3.98-2l1.38.94a6.019,6.019,0,0,1-5.36,2.7A6.76,6.76,0,0,1,1168.33,275.23Z" fill="#231f20"/>
      <path id="Caminho_31385" data-name="Caminho 31385" d="M1183.93,264.07a1.335,1.335,0,0,1,1.35-1.3,1.31,1.31,0,0,1,1.35,1.27,1.35,1.35,0,0,1-2.7.02Zm.42,4.32h1.85v13.68h-1.85Z" fill="#231f20"/>
      <path id="Caminho_31386" data-name="Caminho 31386" d="M1189.96,275.23a6.955,6.955,0,1,1,6.97,6.97A6.721,6.721,0,0,1,1189.96,275.23Zm12.04,0a5.091,5.091,0,1,0-5.07,5.33A4.987,4.987,0,0,0,1202,275.23Z" fill="#231f20"/>
      <path id="Caminho_31387" data-name="Caminho 31387" d="M1220.22,274.14v7.93h-1.85v-7.75c0-2.89-1.51-4.37-4.11-4.37-2.94,0-4.78,1.82-4.78,4.94v7.18h-1.85V268.39h1.77v2.52a5.756,5.756,0,0,1,5.2-2.63c3.33,0,5.62,1.92,5.62,5.85Z" fill="#231f20"/>
      <path id="Caminho_31388" data-name="Caminho 31388" d="M1235.56,273.59v8.48h-1.77v-2.13a5.138,5.138,0,0,1-4.71,2.26c-3.09,0-4.99-1.61-4.99-3.98,0-2.11,1.35-3.87,5.28-3.87h4.34v-.83c0-2.34-1.33-3.61-3.87-3.61a6.955,6.955,0,0,0-4.55,1.61l-.83-1.38a8.694,8.694,0,0,1,5.56-1.85c3.54,0,5.54,1.77,5.54,5.3Zm-1.85,4.37v-2.24h-4.29c-2.65,0-3.51,1.04-3.51,2.44,0,1.59,1.27,2.57,3.46,2.57a4.284,4.284,0,0,0,4.34-2.78Z" fill="#231f20"/>
      <path id="Caminho_31389" data-name="Caminho 31389" d="M1240.58,262.77h1.85v19.29h-1.85Z" fill="#231f20"/>
      <path id="Caminho_31390" data-name="Caminho 31390" d="M1267.55,262.77v19.29h-1.77v-2.7a5.92,5.92,0,0,1-5.28,2.83,6.957,6.957,0,0,1,0-13.91,5.988,5.988,0,0,1,5.2,2.7v-8.22h1.85Zm-1.82,12.45a5.091,5.091,0,1,0-5.07,5.33A5,5,0,0,0,1265.73,275.22Z" fill="#231f20"/>
      <path id="Caminho_31391" data-name="Caminho 31391" d="M1284.61,275.8h-11.44a5.063,5.063,0,0,0,5.38,4.76,5.422,5.422,0,0,0,4.19-1.79l1.04,1.2a6.72,6.72,0,0,1-5.28,2.24c-4.26,0-7.18-2.91-7.18-6.97a6.58,6.58,0,0,1,6.68-6.94c3.85,0,6.63,2.83,6.63,6.94,0,.16-.03.36-.03.57Zm-11.44-1.38h9.7a4.86,4.86,0,0,0-9.7,0Z" fill="#231f20"/>
      <path id="Caminho_31392" data-name="Caminho 31392" d="M1294.55,279.86l.75-1.48a8.952,8.952,0,0,0,6.01,2.21c3.41,0,4.89-1.43,4.89-3.22,0-4.99-11.21-1.92-11.21-8.66,0-2.68,2.08-4.99,6.71-4.99a10.294,10.294,0,0,1,5.64,1.61l-.65,1.53a9.407,9.407,0,0,0-4.99-1.51c-3.33,0-4.81,1.48-4.81,3.3,0,4.99,11.21,1.98,11.21,8.61,0,2.68-2.13,4.97-6.79,4.97-2.73,0-5.41-.96-6.76-2.37Z" fill="#231f20"/>
      <path id="Caminho_31393" data-name="Caminho 31393" d="M1322.22,273.59v8.48h-1.77v-2.13a5.138,5.138,0,0,1-4.71,2.26c-3.09,0-4.99-1.61-4.99-3.98,0-2.11,1.35-3.87,5.28-3.87h4.34v-.83c0-2.34-1.33-3.61-3.88-3.61a6.955,6.955,0,0,0-4.55,1.61l-.83-1.38a8.694,8.694,0,0,1,5.56-1.85c3.54,0,5.54,1.77,5.54,5.3Zm-1.85,4.37v-2.24h-4.29c-2.65,0-3.51,1.04-3.51,2.44,0,1.59,1.27,2.57,3.46,2.57a4.284,4.284,0,0,0,4.34-2.78Z" fill="#231f20"/>
      <path id="Caminho_31394" data-name="Caminho 31394" d="M1339.56,268.39v13.68h-1.77v-2.5a5.447,5.447,0,0,1-4.91,2.63c-3.48,0-5.77-1.95-5.77-5.88v-7.93h1.85v7.75c0,2.91,1.51,4.39,4.11,4.39,2.86,0,4.65-1.85,4.65-4.97v-7.18h1.85Zm-6.08-2.11h-1.82l3.56-3.22h2.47l-4.21,3.22Z" fill="#231f20"/>
      <path id="Caminho_31395" data-name="Caminho 31395" d="M1357.21,262.77v19.29h-1.77v-2.7a5.92,5.92,0,0,1-5.28,2.83,6.957,6.957,0,0,1,0-13.91,5.988,5.988,0,0,1,5.2,2.7v-8.22h1.85Zm-1.82,12.45a5.091,5.091,0,1,0-5.07,5.33A5,5,0,0,0,1355.39,275.22Z" fill="#231f20"/>
      <path id="Caminho_31396" data-name="Caminho 31396" d="M1374.27,275.8h-11.44a5.063,5.063,0,0,0,5.38,4.76,5.422,5.422,0,0,0,4.19-1.79l1.04,1.2a6.72,6.72,0,0,1-5.28,2.24c-4.26,0-7.18-2.91-7.18-6.97a6.58,6.58,0,0,1,6.68-6.94c3.85,0,6.63,2.83,6.63,6.94,0,.16-.03.36-.03.57Zm-11.44-1.38h9.7a4.86,4.86,0,0,0-9.7,0Z" fill="#231f20"/>
      <path id="Caminho_31397" data-name="Caminho 31397" d="M1376.87,280.77a1.368,1.368,0,0,1,1.38-1.4,1.391,1.391,0,0,1,1.4,1.4,1.424,1.424,0,0,1-1.4,1.43A1.4,1.4,0,0,1,1376.87,280.77Z" fill="#231f20"/>
      <path id="Caminho_31398" data-name="Caminho 31398" d="M180.03,322.4H169.89l-2.18,4.86h-2l8.32-18.2h1.9l8.32,18.2h-2.03l-2.18-4.86Zm-.7-1.56-4.37-9.78-4.37,9.78h8.74Z" fill="#231f20"/>
      <path id="Caminho_31399" data-name="Caminho 31399" d="M205.59,321H194.15a5.063,5.063,0,0,0,5.38,4.76,5.422,5.422,0,0,0,4.19-1.79l1.04,1.2a6.72,6.72,0,0,1-5.28,2.24c-4.26,0-7.18-2.91-7.18-6.97a6.58,6.58,0,0,1,6.68-6.94c3.85,0,6.63,2.83,6.63,6.94,0,.16-.03.36-.03.57Zm-11.44-1.38h9.7a4.86,4.86,0,0,0-9.7,0Z" fill="#231f20"/>
      <path id="Caminho_31400" data-name="Caminho 31400" d="M207.48,325.71l.83-1.46a8.244,8.244,0,0,0,4.86,1.53c2.6,0,3.67-.88,3.67-2.24,0-3.56-8.87-.75-8.87-6.16,0-2.24,1.92-3.9,5.41-3.9a9.292,9.292,0,0,1,4.84,1.27l-.81,1.48a7.042,7.042,0,0,0-4.03-1.17c-2.47,0-3.56.96-3.56,2.26,0,3.69,8.87.91,8.87,6.16,0,2.37-2.08,3.9-5.64,3.9a9.123,9.123,0,0,1-5.56-1.69Z" fill="#231f20"/>
      <path id="Caminho_31401" data-name="Caminho 31401" d="M220.2,325.71l.83-1.46a8.244,8.244,0,0,0,4.86,1.53c2.6,0,3.67-.88,3.67-2.24,0-3.56-8.87-.75-8.87-6.16,0-2.24,1.92-3.9,5.41-3.9a9.292,9.292,0,0,1,4.84,1.27l-.81,1.48a7.042,7.042,0,0,0-4.03-1.17c-2.47,0-3.56.96-3.56,2.26,0,3.69,8.87.91,8.87,6.16,0,2.37-2.08,3.9-5.64,3.9a9.123,9.123,0,0,1-5.56-1.69Z" fill="#231f20"/>
      <path id="Caminho_31402" data-name="Caminho 31402" d="M245.13,318.79v8.48h-1.77v-2.13a5.138,5.138,0,0,1-4.71,2.26c-3.09,0-4.99-1.61-4.99-3.98,0-2.11,1.35-3.87,5.28-3.87h4.34v-.83c0-2.34-1.33-3.61-3.87-3.61a6.955,6.955,0,0,0-4.55,1.61l-.83-1.38a8.694,8.694,0,0,1,5.56-1.85c3.54,0,5.54,1.77,5.54,5.3Zm-1.85,4.37v-2.24h-4.29c-2.65,0-3.51,1.04-3.51,2.44,0,1.59,1.27,2.57,3.46,2.57a4.284,4.284,0,0,0,4.34-2.78Z" fill="#231f20"/>
      <path id="Caminho_31403" data-name="Caminho 31403" d="M267.28,318.79v8.48h-1.77v-2.13a5.138,5.138,0,0,1-4.71,2.26c-3.09,0-4.99-1.61-4.99-3.98,0-2.11,1.35-3.87,5.28-3.87h4.34v-.83c0-2.34-1.33-3.61-3.88-3.61a6.955,6.955,0,0,0-4.55,1.61l-.83-1.38a8.694,8.694,0,0,1,5.56-1.85c3.54,0,5.54,1.77,5.54,5.3Zm-1.85,4.37v-2.24h-4.29c-2.65,0-3.51,1.04-3.51,2.44,0,1.59,1.27,2.57,3.46,2.57a4.284,4.284,0,0,0,4.34-2.78Z" fill="#231f20"/>
      <path id="Caminho_31404" data-name="Caminho 31404" d="M279.5,326.43a4.4,4.4,0,0,1-2.89.96,3.624,3.624,0,0,1-4-3.98v-8.27h-2.44v-1.56h2.44v-2.99h1.85v2.99h4.16v1.56h-4.16v8.17a2.194,2.194,0,0,0,2.37,2.5,3.056,3.056,0,0,0,2.03-.7l.65,1.33Z" fill="#231f20"/>
      <path id="Caminho_31405" data-name="Caminho 31405" d="M282.44,309.27a1.335,1.335,0,0,1,1.35-1.3,1.31,1.31,0,0,1,1.35,1.27,1.35,1.35,0,0,1-2.7.02Zm.42,4.32h1.85v13.68h-1.85Z" fill="#231f20"/>
      <path id="Caminho_31406" data-name="Caminho 31406" d="M301.34,313.59l-6.08,13.68h-1.9l-6.06-13.68h1.92l5.12,11.65,5.17-11.65h1.82Z" fill="#231f20"/>
      <path id="Caminho_31407" data-name="Caminho 31407" d="M303.53,309.27a1.335,1.335,0,0,1,1.35-1.3,1.31,1.31,0,0,1,1.35,1.27,1.35,1.35,0,0,1-2.7.02Zm.42,4.32h1.85v13.68h-1.85Z" fill="#231f20"/>
      <path id="Caminho_31408" data-name="Caminho 31408" d="M323.42,307.97v19.29h-1.77v-2.7a5.92,5.92,0,0,1-5.28,2.83,6.957,6.957,0,0,1,0-13.91,5.988,5.988,0,0,1,5.2,2.7v-8.22h1.85Zm-1.82,12.45a5.091,5.091,0,1,0-5.07,5.33A5,5,0,0,0,321.6,320.42Z" fill="#231f20"/>
      <path id="Caminho_31409" data-name="Caminho 31409" d="M338.89,318.79v8.48h-1.77v-2.13a5.138,5.138,0,0,1-4.71,2.26c-3.09,0-4.99-1.61-4.99-3.98,0-2.11,1.35-3.87,5.28-3.87h4.34v-.83c0-2.34-1.33-3.61-3.88-3.61a6.955,6.955,0,0,0-4.55,1.61l-.83-1.38a8.694,8.694,0,0,1,5.56-1.85c3.54,0,5.54,1.77,5.54,5.3Zm-1.85,4.37v-2.24h-4.29c-2.65,0-3.51,1.04-3.51,2.44,0,1.59,1.27,2.57,3.46,2.57a4.284,4.284,0,0,0,4.34-2.78Z" fill="#231f20"/>
      <path id="Caminho_31410" data-name="Caminho 31410" d="M356.44,307.97v19.29h-1.77v-2.7a5.92,5.92,0,0,1-5.28,2.83,6.957,6.957,0,0,1,0-13.91,5.988,5.988,0,0,1,5.2,2.7v-8.22h1.85Zm-1.82,12.45a5.091,5.091,0,1,0-5.07,5.33A5,5,0,0,0,354.62,320.42Z" fill="#231f20"/>
      <path id="Caminho_31411" data-name="Caminho 31411" d="M373.49,321H362.05a5.063,5.063,0,0,0,5.38,4.76,5.422,5.422,0,0,0,4.19-1.79l1.04,1.2a6.72,6.72,0,0,1-5.28,2.24c-4.26,0-7.18-2.91-7.18-6.97a6.58,6.58,0,0,1,6.68-6.94c3.85,0,6.63,2.83,6.63,6.94,0,.16-.03.36-.03.57Zm-11.44-1.38h9.7a4.86,4.86,0,0,0-9.7,0Z" fill="#231f20"/>
      <path id="Caminho_31412" data-name="Caminho 31412" d="M396.58,307.97v19.29h-1.77v-2.7a5.92,5.92,0,0,1-5.28,2.83,6.957,6.957,0,0,1,0-13.91,5.988,5.988,0,0,1,5.2,2.7v-8.22h1.85Zm-1.82,12.45a5.091,5.091,0,1,0-5.07,5.33A5,5,0,0,0,394.76,320.42Z" fill="#231f20"/>
      <path id="Caminho_31413" data-name="Caminho 31413" d="M413.64,321H402.2a5.063,5.063,0,0,0,5.38,4.76,5.422,5.422,0,0,0,4.19-1.79l1.04,1.2a6.72,6.72,0,0,1-5.28,2.24c-4.26,0-7.18-2.91-7.18-6.97a6.58,6.58,0,0,1,6.68-6.94c3.85,0,6.63,2.83,6.63,6.94,0,.16-.03.36-.03.57Zm-11.44-1.38h9.7a4.86,4.86,0,0,0-9.7,0Z" fill="#231f20"/>
      <path id="Caminho_31414" data-name="Caminho 31414" d="M429.76,313.59v13.68h-1.77v-2.5a5.447,5.447,0,0,1-4.91,2.63c-3.48,0-5.77-1.95-5.77-5.88v-7.93h1.85v7.75c0,2.91,1.51,4.39,4.11,4.39,2.86,0,4.65-1.85,4.65-4.97v-7.18h1.85Z" fill="#231f20"/>
      <path id="Caminho_31415" data-name="Caminho 31415" d="M433.92,319.41h6.81v1.61h-6.81Z" fill="#231f20"/>
      <path id="Caminho_31416" data-name="Caminho 31416" d="M442.96,325.71l.83-1.46a8.244,8.244,0,0,0,4.86,1.53c2.6,0,3.67-.88,3.67-2.24,0-3.56-8.87-.75-8.87-6.16,0-2.24,1.92-3.9,5.41-3.9a9.292,9.292,0,0,1,4.84,1.27l-.81,1.48a7.042,7.042,0,0,0-4.03-1.17c-2.47,0-3.56.96-3.56,2.26,0,3.69,8.87.91,8.87,6.16,0,2.37-2.08,3.9-5.64,3.9a9.123,9.123,0,0,1-5.56-1.69Z" fill="#231f20"/>
      <path id="Caminho_31417" data-name="Caminho 31417" d="M469.48,321H458.04a5.063,5.063,0,0,0,5.38,4.76,5.422,5.422,0,0,0,4.19-1.79l1.04,1.2a6.72,6.72,0,0,1-5.28,2.24c-4.26,0-7.18-2.91-7.18-6.97a6.58,6.58,0,0,1,6.68-6.94c3.85,0,6.63,2.83,6.63,6.94,0,.16-.03.36-.03.57Zm-11.44-1.38h9.7a4.86,4.86,0,0,0-9.7,0Z" fill="#231f20"/>
      <path id="Caminho_31418" data-name="Caminho 31418" d="M478.71,320.43a6.955,6.955,0,1,1,6.97,6.97A6.721,6.721,0,0,1,478.71,320.43Zm12.04,0a5.091,5.091,0,1,0-5.07,5.33A4.987,4.987,0,0,0,490.75,320.43Z" fill="#231f20"/>
      <path id="Caminho_31419" data-name="Caminho 31419" d="M515.79,319.34v7.93h-1.85v-7.75c0-2.89-1.51-4.37-4.11-4.37-2.94,0-4.78,1.82-4.78,4.94v7.18H503.2V313.59h1.77v2.52a5.756,5.756,0,0,1,5.2-2.63c3.33,0,5.62,1.92,5.62,5.85Z" fill="#231f20"/>
      <path id="Caminho_31420" data-name="Caminho 31420" d="M519.48,320.43a6.955,6.955,0,1,1,6.97,6.97A6.721,6.721,0,0,1,519.48,320.43Zm12.04,0a5.091,5.091,0,1,0-5.07,5.33A4.987,4.987,0,0,0,531.52,320.43Z" fill="#231f20"/>
      <path id="Caminho_31421" data-name="Caminho 31421" d="M559.73,319.34v7.93h-1.85v-7.75c0-2.89-1.46-4.37-3.93-4.37-2.81,0-4.58,1.82-4.58,4.94v7.18h-1.85v-7.75c0-2.89-1.46-4.37-3.95-4.37-2.78,0-4.58,1.82-4.58,4.94v7.18h-1.85V313.59h1.77v2.5a5.525,5.525,0,0,1,5.02-2.6,4.877,4.877,0,0,1,4.86,2.89,5.96,5.96,0,0,1,5.41-2.89c3.33,0,5.51,1.92,5.51,5.85Z" fill="#231f20"/>
      <path id="Caminho_31422" data-name="Caminho 31422" d="M576.71,321H565.27a5.063,5.063,0,0,0,5.38,4.76,5.422,5.422,0,0,0,4.19-1.79l1.04,1.2a6.72,6.72,0,0,1-5.28,2.24c-4.26,0-7.18-2.91-7.18-6.97a6.58,6.58,0,0,1,6.68-6.94c3.85,0,6.63,2.83,6.63,6.94,0,.16-.03.36-.03.57Zm-11.44-1.38h9.7a4.86,4.86,0,0,0-9.7,0Z" fill="#231f20"/>
      <path id="Caminho_31423" data-name="Caminho 31423" d="M599.79,307.97v19.29h-1.77v-2.7a5.92,5.92,0,0,1-5.28,2.83,6.957,6.957,0,0,1,0-13.91,5.988,5.988,0,0,1,5.2,2.7v-8.22h1.85Zm-1.82,12.45a5.091,5.091,0,1,0-5.07,5.33A5,5,0,0,0,597.97,320.42Z" fill="#231f20"/>
      <path id="Caminho_31424" data-name="Caminho 31424" d="M616.85,321H605.41a5.063,5.063,0,0,0,5.38,4.76,5.422,5.422,0,0,0,4.19-1.79l1.04,1.2a6.72,6.72,0,0,1-5.28,2.24c-4.26,0-7.18-2.91-7.18-6.97a6.58,6.58,0,0,1,6.68-6.94c3.85,0,6.63,2.83,6.63,6.94,0,.16-.03.36-.03.57Zm-11.44-1.38h9.7a4.86,4.86,0,0,0-9.7,0Z" fill="#231f20"/>
      <path id="Caminho_31425" data-name="Caminho 31425" d="M625.4,325.97l1.35-2.91a9.545,9.545,0,0,0,4.86,1.35c1.87,0,2.57-.49,2.57-1.27,0-2.29-8.45.05-8.45-5.54,0-2.65,2.39-4.52,6.47-4.52a11.488,11.488,0,0,1,5.38,1.22l-1.35,2.89a8.048,8.048,0,0,0-4.03-1.04c-1.82,0-2.6.57-2.6,1.3,0,2.39,8.45.08,8.45,5.59,0,2.6-2.42,4.45-6.6,4.45a11.983,11.983,0,0,1-6.06-1.51Z" fill="#231f20"/>
      <path id="Caminho_31426" data-name="Caminho 31426" d="M652.94,319.28v7.98h-3.8v-1.74c-.75,1.27-2.21,1.95-4.26,1.95-3.28,0-5.23-1.82-5.23-4.24s1.74-4.19,6.01-4.19h3.22c0-1.74-1.04-2.76-3.22-2.76a6.7,6.7,0,0,0-4.03,1.3l-1.46-2.83a10.767,10.767,0,0,1,6.03-1.69c4.26,0,6.73,1.98,6.73,6.21Zm-4.06,3.56v-1.43H646.1c-1.9,0-2.5.7-2.5,1.64,0,1.01.86,1.69,2.29,1.69a2.986,2.986,0,0,0,2.99-1.9Z" fill="#231f20"/>
      <path id="Caminho_31427" data-name="Caminho 31427" d="M670.7,313.28v13.99h-3.85v-1.66a5.675,5.675,0,0,1-4.34,1.87c-3.51,0-5.98-1.98-5.98-6.29v-7.9h4.06v7.31c0,2.34,1.04,3.38,2.83,3.38s3.22-1.2,3.22-3.77v-6.92h4.06Zm-6.29-1.79h-3.17l3.51-3.74h4.37Z" fill="#231f20"/>
      <path id="Caminho_31428" data-name="Caminho 31428" d="M688.71,307.97v19.29h-3.87v-1.61a5.388,5.388,0,0,1-4.37,1.82,7.2,7.2,0,0,1,0-14.4,5.4,5.4,0,0,1,4.19,1.69v-6.79h4.06Zm-3.98,12.3a3.586,3.586,0,1,0-3.56,3.87A3.548,3.548,0,0,0,684.73,320.27Z" fill="#231f20"/>
      <path id="Caminho_31429" data-name="Caminho 31429" d="M706.08,321.42H695.5c.39,1.74,1.87,2.81,4,2.81a4.74,4.74,0,0,0,3.51-1.35l2.16,2.34a7.33,7.33,0,0,1-5.77,2.26c-4.84,0-7.98-3.04-7.98-7.2a7.136,7.136,0,0,1,7.46-7.2c4.26,0,7.28,2.76,7.28,7.25,0,.31-.05.75-.08,1.09Zm-10.63-2.37h6.89a3.494,3.494,0,0,0-6.89,0Z" fill="#231f20"/>
      <path id="Caminho_31430" data-name="Caminho 31430" d="M714.87,325.97l1.35-2.91a9.545,9.545,0,0,0,4.86,1.35c1.87,0,2.57-.49,2.57-1.27,0-2.29-8.45.05-8.45-5.54,0-2.65,2.39-4.52,6.47-4.52a11.488,11.488,0,0,1,5.38,1.22l-1.35,2.89a8.048,8.048,0,0,0-4.03-1.04c-1.82,0-2.6.57-2.6,1.3,0,2.39,8.45.08,8.45,5.59,0,2.6-2.42,4.45-6.6,4.45a11.983,11.983,0,0,1-6.06-1.51Z" fill="#231f20"/>
      <path id="Caminho_31431" data-name="Caminho 31431" d="M744.12,313.28v13.99h-3.85v-1.66a5.675,5.675,0,0,1-4.34,1.87c-3.51,0-5.98-1.98-5.98-6.29v-7.9h4.06v7.31c0,2.34,1.04,3.38,2.83,3.38s3.22-1.2,3.22-3.77v-6.92h4.06Z" fill="#231f20"/>
      <path id="Caminho_31432" data-name="Caminho 31432" d="M763.12,320.27a6.794,6.794,0,0,1-6.97,7.2,5.443,5.443,0,0,1-4.21-1.69v6.53h-4.06V313.28h3.87v1.61a5.43,5.43,0,0,1,4.39-1.82,6.794,6.794,0,0,1,6.97,7.2Zm-4.11,0c0-2.42-1.53-3.88-3.56-3.88s-3.56,1.46-3.56,3.88,1.53,3.87,3.56,3.87A3.528,3.528,0,0,0,759.01,320.27Z" fill="#231f20"/>
      <path id="Caminho_31433" data-name="Caminho 31433" d="M765.83,307.97h4.06v19.29h-4.06Z" fill="#231f20"/>
      <path id="Caminho_31434" data-name="Caminho 31434" d="M787.28,321.42H776.7c.39,1.74,1.87,2.81,4,2.81a4.74,4.74,0,0,0,3.51-1.35l2.16,2.34a7.33,7.33,0,0,1-5.77,2.26c-4.84,0-7.98-3.04-7.98-7.2a7.136,7.136,0,0,1,7.46-7.2c4.26,0,7.28,2.76,7.28,7.25,0,.31-.05.75-.08,1.09Zm-10.63-2.37h6.89a3.494,3.494,0,0,0-6.89,0Z" fill="#231f20"/>
      <path id="Caminho_31435" data-name="Caminho 31435" d="M813.7,319.26v8.01h-4.06v-7.38c0-2.26-1.01-3.3-2.65-3.3-1.82,0-3.09,1.17-3.09,3.67v7.02h-4.06V319.9c0-2.26-.96-3.3-2.65-3.3-1.79,0-3.07,1.17-3.07,3.67v7.02h-4.06V313.3h3.87v1.61a5.649,5.649,0,0,1,4.39-1.82,5.208,5.208,0,0,1,4.6,2.29,6.294,6.294,0,0,1,5.04-2.29c3.33,0,5.72,1.92,5.72,6.19Z" fill="#231f20"/>
      <path id="Caminho_31436" data-name="Caminho 31436" d="M831.11,321.42H820.53c.39,1.74,1.87,2.81,4,2.81a4.74,4.74,0,0,0,3.51-1.35l2.16,2.34a7.33,7.33,0,0,1-5.77,2.26c-4.84,0-7.98-3.04-7.98-7.2a7.136,7.136,0,0,1,7.46-7.2c4.26,0,7.28,2.76,7.28,7.25,0,.31-.05.75-.08,1.09Zm-10.63-2.37h6.89a3.494,3.494,0,0,0-6.89,0Z" fill="#231f20"/>
      <path id="Caminho_31437" data-name="Caminho 31437" d="M848.2,319.26v8.01h-4.06v-7.38c0-2.26-1.04-3.3-2.83-3.3-1.95,0-3.35,1.2-3.35,3.77v6.92H833.9V313.29h3.87v1.64a6.111,6.111,0,0,1,4.63-1.85c3.3,0,5.8,1.92,5.8,6.19Z" fill="#231f20"/>
      <path id="Caminho_31438" data-name="Caminho 31438" d="M860.88,326.59a5.764,5.764,0,0,1-3.3.88c-3.3,0-5.23-1.69-5.23-5.02V316.7h-2.16v-3.12h2.16v-3.41h4.06v3.41h3.48v3.12h-3.48v5.69a1.632,1.632,0,0,0,1.74,1.85,2.718,2.718,0,0,0,1.64-.52l1.09,2.86Z" fill="#231f20"/>
      <path id="Caminho_31439" data-name="Caminho 31439" d="M875.55,319.28v7.98h-3.8v-1.74c-.75,1.27-2.21,1.95-4.26,1.95-3.28,0-5.23-1.82-5.23-4.24s1.74-4.19,6.01-4.19h3.22c0-1.74-1.04-2.76-3.22-2.76a6.7,6.7,0,0,0-4.03,1.3l-1.46-2.83a10.767,10.767,0,0,1,6.03-1.69c4.26,0,6.73,1.98,6.73,6.21Zm-4.06,3.56v-1.43h-2.78c-1.9,0-2.5.7-2.5,1.64,0,1.01.86,1.69,2.29,1.69a2.986,2.986,0,0,0,2.99-1.9Z" fill="#231f20"/>
      <path id="Caminho_31440" data-name="Caminho 31440" d="M887.9,313.07v3.74c-.34-.03-.6-.05-.91-.05-2.24,0-3.72,1.22-3.72,3.9v6.6h-4.06V313.27h3.87v1.85a5.648,5.648,0,0,1,4.81-2.05Z" fill="#231f20"/>
      <path id="Caminho_31441" data-name="Caminho 31441" d="M889.93,325.97a1.368,1.368,0,0,1,1.38-1.4,1.391,1.391,0,0,1,1.4,1.4,1.424,1.424,0,0,1-1.4,1.43A1.4,1.4,0,0,1,889.93,325.97Z" fill="#231f20"/>
    </g>
  </g>
</svg>
