<?xml version="1.0" encoding="utf-8"?>
<!-- Generator: Adobe Illustrator 27.2.0, SVG Export Plug-In . SVG Version: 6.00 Build 0)  -->
<svg version="1.1" id="Layer_1" xmlns="http://www.w3.org/2000/svg" xmlns:xlink="http://www.w3.org/1999/xlink" x="0px" y="0px"
	 viewBox="0 0 1288 502.7" style="enable-background:new 0 0 1288 502.7;" xml:space="preserve">
<style type="text/css">
	.st0{fill:none;stroke:#E9551C;stroke-miterlimit:10;}
	.st1{fill:#F7F1F0;}
	.st2{fill:#F9C2A0;}
	.st3{fill:#F26A41;}
	.st4{fill:none;}
	.st5{fill:#E85624;}
	.st6{fill:#FFEEC2;}
</style>
<rect x="53.9" y="102.3" class="st0" width="1206.3" height="372.3"/>
<rect x="22" y="75.8" class="st1" width="1206.3" height="372.3"/>
<g>
	<path d="M171.7,217.7l0.8-1.5c1.3,1.3,3.6,2.2,6,2.2c3.4,0,4.9-1.4,4.9-3.2c0-5-11.2-1.9-11.2-8.7c0-2.7,2.1-5,6.7-5
		c2.1,0,4.2,0.6,5.6,1.6l-0.6,1.5c-1.6-1-3.4-1.5-5-1.5c-3.3,0-4.8,1.5-4.8,3.3c0,5,11.2,2,11.2,8.6c0,2.7-2.1,5-6.8,5
		C175.7,220.1,173,219.1,171.7,217.7L171.7,217.7z"/>
	<path d="M200.9,213.6h-11.4c0.2,2.9,2.4,4.8,5.4,4.8c1.7,0,3.1-0.6,4.2-1.8l1,1.2c-1.2,1.5-3.1,2.2-5.3,2.2c-4.3,0-7.2-2.9-7.2-7
		s2.8-6.9,6.7-6.9s6.6,2.8,6.6,6.9C200.9,213.2,200.9,213.4,200.9,213.6L200.9,213.6z M189.5,212.3h9.7c-0.2-2.7-2.2-4.6-4.9-4.6
		S189.7,209.6,189.5,212.3z"/>
	<path d="M217.3,212v7.9h-1.9v-7.8c0-2.9-1.5-4.4-4.1-4.4c-2.9,0-4.8,1.8-4.8,4.9v7.2h-1.9v-13.7h1.8v2.5c1-1.7,2.8-2.6,5.2-2.6
		C215,206.1,217.3,208,217.3,212L217.3,212z"/>
	<path d="M234.8,200.6v19.3h-1.8v-2.7c-1.1,1.9-3,2.8-5.3,2.8c-3.9,0-6.8-2.8-6.8-7s2.9-6.9,6.8-6.9c2.2,0,4.1,0.9,5.2,2.7v-8.2
		L234.8,200.6L234.8,200.6z M233,213.1c0-3.2-2.2-5.3-5.1-5.3s-5.1,2.1-5.1,5.3s2.2,5.3,5.1,5.3S233,216.3,233,213.1z"/>
	<path d="M238.6,213.1c0-4.1,3-6.9,7-6.9s6.9,2.9,6.9,6.9s-2.9,7-6.9,7S238.6,217.1,238.6,213.1z M250.6,213.1
		c0-3.2-2.2-5.3-5.1-5.3s-5.1,2.1-5.1,5.3s2.2,5.3,5.1,5.3S250.6,216.3,250.6,213.1z"/>
	<path d="M265.2,204.6v1.6h4.2v1.6h-4.2v12.1h-1.9v-12.1H261v-1.6h2.4v-1.7c0-2.4,1.5-4.1,4.1-4.1c1,0,2,0.3,2.7,0.9l-0.6,1.4
		c-0.5-0.4-1.2-0.7-2-0.7C266,202,265.2,202.9,265.2,204.6L265.2,204.6z"/>
	<path d="M284.2,206.2v13.7h-1.8v-2.5c-1,1.7-2.7,2.6-4.9,2.6c-3.5,0-5.8-1.9-5.8-5.9v-7.9h1.9v7.8c0,2.9,1.5,4.4,4.1,4.4
		c2.9,0,4.6-1.9,4.6-5v-7.2L284.2,206.2L284.2,206.2z"/>
	<path d="M302,212v7.9h-1.9v-7.8c0-2.9-1.5-4.4-4.1-4.4c-2.9,0-4.8,1.8-4.8,4.9v7.2h-1.9v-13.7h1.8v2.5c1-1.7,2.8-2.6,5.2-2.6
		C299.7,206.1,302,208,302,212L302,212z"/>
	<path d="M316.7,216.4l1.4,0.9c-1.1,1.8-3,2.7-5.4,2.7h0l-0.3,1.2c1.4,0.1,2.2,1,2.2,2.1c0,1.4-1.2,2.3-2.9,2.3
		c-0.9,0-1.6-0.2-2.2-0.6l0.4-1c0.5,0.3,1.1,0.5,1.7,0.5c1,0,1.6-0.4,1.6-1.2c0-0.7-0.5-1.2-1.6-1.2H311l0.6-2.2
		c-3.5-0.5-5.9-3.2-5.9-6.9c0-4.1,3-6.9,7-6.9c2.3,0,4.3,0.9,5.4,2.7l-1.4,0.9c-0.9-1.4-2.4-2-4-2c-3,0-5.2,2.1-5.2,5.3
		s2.2,5.3,5.2,5.3C314.3,218.4,315.8,217.8,316.7,216.4L316.7,216.4z"/>
	<path d="M332,211.4v8.5h-1.8v-2.1c-0.8,1.4-2.4,2.3-4.7,2.3c-3.1,0-5-1.6-5-4c0-2.1,1.4-3.9,5.3-3.9h4.3v-0.8
		c0-2.3-1.3-3.6-3.9-3.6c-1.8,0-3.4,0.6-4.5,1.6l-0.8-1.4c1.4-1.2,3.4-1.9,5.6-1.9C330,206.1,332,207.9,332,211.4L332,211.4z
		 M330.2,215.8v-2.2h-4.3c-2.6,0-3.5,1-3.5,2.4c0,1.6,1.3,2.6,3.5,2.6S329.4,217.6,330.2,215.8L330.2,215.8z M323.5,203.9h-1.1
		c0-1.7,1-2.9,2.3-2.9c1.6,0,2.4,1.8,3.4,1.8c0.8,0,1.3-0.6,1.4-1.6h1.1c0,1.7-1,2.8-2.3,2.8c-1.6,0-2.4-1.8-3.4-1.8
		C324.1,202.2,323.6,202.8,323.5,203.9z"/>
	<path d="M335.7,213.1c0-4.1,3-6.9,7-6.9s6.9,2.9,6.9,6.9s-2.9,7-6.9,7S335.7,217.1,335.7,213.1z M347.8,213.1
		c0-3.2-2.2-5.3-5.1-5.3s-5.1,2.1-5.1,5.3s2.2,5.3,5.1,5.3S347.8,216.3,347.8,213.1z"/>
	<path d="M374.1,213.1c0,4.2-2.9,7-6.8,7c-2.2,0-4.1-0.9-5.2-2.7v7.6h-1.9v-18.7h1.8v2.7c1.1-1.8,3-2.8,5.3-2.8
		C371.1,206.1,374.1,208.9,374.1,213.1L374.1,213.1z M372.2,213.1c0-3.2-2.2-5.3-5.1-5.3s-5.1,2.2-5.1,5.3s2.2,5.3,5.1,5.3
		S372.2,216.3,372.2,213.1z"/>
	<path d="M384.7,206.1v1.8c-0.2,0-0.3,0-0.4,0c-2.9,0-4.6,1.8-4.6,5v7h-1.9v-13.7h1.8v2.7C380.5,207.1,382.2,206.1,384.7,206.1
		L384.7,206.1z"/>
	<path d="M399.8,213.6h-11.4c0.2,2.9,2.4,4.8,5.4,4.8c1.7,0,3.1-0.6,4.2-1.8l1,1.2c-1.2,1.5-3.1,2.2-5.3,2.2c-4.3,0-7.2-2.9-7.2-7
		s2.8-6.9,6.7-6.9s6.6,2.8,6.6,6.9C399.9,213.2,399.8,213.4,399.8,213.6L399.8,213.6z M388.4,212.3h9.7c-0.2-2.7-2.2-4.6-4.9-4.6
		S388.6,209.6,388.4,212.3L388.4,212.3z"/>
	<path d="M402.2,213.1c0-4.1,3-6.9,7-6.9c2.3,0,4.3,0.9,5.4,2.7l-1.4,0.9c-0.9-1.4-2.4-2-4-2c-3,0-5.2,2.1-5.2,5.3s2.2,5.3,5.2,5.3
		c1.6,0,3-0.6,4-2l1.4,0.9c-1.1,1.8-3,2.7-5.4,2.7C405.2,220,402.2,217.1,402.2,213.1z"/>
	<path d="M421.1,200.9h2.5l-4.2,3.2h-1.8L421.1,200.9z M418.3,206.2h1.9v13.7h-1.9V206.2L418.3,206.2z"/>
	<path d="M439.1,213.1c0,4.2-2.9,7-6.8,7c-2.2,0-4.1-0.9-5.2-2.7v7.6h-1.9v-18.7h1.8v2.7c1.1-1.8,3-2.8,5.3-2.8
		C436.2,206.1,439.1,208.9,439.1,213.1L439.1,213.1z M437.3,213.1c0-3.2-2.2-5.3-5.1-5.3s-5.1,2.2-5.1,5.3s2.2,5.3,5.1,5.3
		S437.3,216.3,437.3,213.1z"/>
	<path d="M455.2,206.2v13.7h-1.8v-2.5c-1,1.7-2.7,2.6-4.9,2.6c-3.5,0-5.8-1.9-5.8-5.9v-7.9h1.9v7.8c0,2.9,1.5,4.4,4.1,4.4
		c2.9,0,4.6-1.9,4.6-5v-7.2L455.2,206.2L455.2,206.2z"/>
	<path d="M470.7,211.4v8.5h-1.8v-2.1c-0.8,1.4-2.4,2.3-4.7,2.3c-3.1,0-5-1.6-5-4c0-2.1,1.4-3.9,5.3-3.9h4.3v-0.8
		c0-2.3-1.3-3.6-3.9-3.6c-1.8,0-3.4,0.6-4.5,1.6l-0.8-1.4c1.4-1.2,3.4-1.9,5.6-1.9C468.7,206.1,470.7,207.9,470.7,211.4L470.7,211.4
		z M468.9,215.8v-2.2h-4.3c-2.6,0-3.5,1-3.5,2.4c0,1.6,1.3,2.6,3.5,2.6S468.1,217.6,468.9,215.8L468.9,215.8z"/>
	<path d="M495,200.6v19.3h-1.8v-2.7c-1.1,1.9-3,2.8-5.3,2.8c-3.9,0-6.8-2.8-6.8-7s2.9-6.9,6.8-6.9c2.2,0,4.1,0.9,5.2,2.7v-8.2
		L495,200.6L495,200.6z M493.2,213.1c0-3.2-2.2-5.3-5.1-5.3s-5.1,2.1-5.1,5.3s2.2,5.3,5.1,5.3S493.2,216.3,493.2,213.1z"/>
	<path d="M510.5,211.4v8.5h-1.8v-2.1c-0.8,1.4-2.4,2.3-4.7,2.3c-3.1,0-5-1.6-5-4c0-2.1,1.4-3.9,5.3-3.9h4.3v-0.8
		c0-2.3-1.3-3.6-3.9-3.6c-1.8,0-3.4,0.6-4.5,1.6l-0.8-1.4c1.4-1.2,3.4-1.9,5.6-1.9C508.5,206.1,510.5,207.9,510.5,211.4L510.5,211.4
		z M508.6,215.8v-2.2h-4.3c-2.6,0-3.5,1-3.5,2.4c0,1.6,1.3,2.6,3.5,2.6S507.9,217.6,508.6,215.8L508.6,215.8z"/>
	<path d="M513.6,218.3l0.8-1.5c1.1,0.9,2.9,1.5,4.9,1.5c2.6,0,3.7-0.9,3.7-2.2c0-3.6-8.9-0.8-8.9-6.2c0-2.2,1.9-3.9,5.4-3.9
		c1.8,0,3.7,0.5,4.8,1.3l-0.8,1.5c-1.2-0.8-2.6-1.2-4-1.2c-2.5,0-3.6,1-3.6,2.3c0,3.7,8.9,0.9,8.9,6.2c0,2.4-2.1,3.9-5.6,3.9
		C516.9,220,514.7,219.3,513.6,218.3L513.6,218.3z"/>
	<path d="M547.6,212v7.9h-1.8v-7.8c0-2.9-1.5-4.4-4.1-4.4c-2.9,0-4.8,1.8-4.8,4.9v7.2H535v-13.7h1.8v2.5c1-1.7,2.8-2.6,5.2-2.6
		C545.3,206.1,547.6,208,547.6,212L547.6,212z"/>
	<path d="M551.3,213.1c0-4.1,3-6.9,7-6.9s6.9,2.9,6.9,6.9s-2.9,7-6.9,7S551.3,217.1,551.3,213.1z M563.3,213.1
		c0-3.2-2.2-5.3-5.1-5.3s-5.1,2.1-5.1,5.3s2.2,5.3,5.1,5.3S563.3,216.3,563.3,213.1z"/>
	<path d="M575.9,206.1v1.8c-0.2,0-0.3,0-0.4,0c-2.9,0-4.6,1.8-4.6,5v7H569v-13.7h1.8v2.7C571.6,207.1,573.4,206.1,575.9,206.1
		L575.9,206.1z"/>
	<path d="M601.8,212v7.9h-1.8v-7.8c0-2.9-1.5-4.4-3.9-4.4c-2.8,0-4.6,1.8-4.6,4.9v7.2h-1.8v-7.8c0-2.9-1.5-4.4-4-4.4
		c-2.8,0-4.6,1.8-4.6,4.9v7.2h-1.8v-13.7h1.8v2.5c1-1.6,2.7-2.6,5-2.6s4,1,4.9,2.9c1-1.8,2.9-2.9,5.4-2.9
		C599.6,206.1,601.8,208,601.8,212L601.8,212z"/>
	<path d="M617.1,211.4v8.5h-1.8v-2.1c-0.8,1.4-2.4,2.3-4.7,2.3c-3.1,0-5-1.6-5-4c0-2.1,1.3-3.9,5.3-3.9h4.3v-0.8
		c0-2.3-1.3-3.6-3.9-3.6c-1.8,0-3.4,0.6-4.5,1.6L606,208c1.4-1.2,3.4-1.9,5.6-1.9C615.1,206.1,617.1,207.9,617.1,211.4L617.1,211.4z
		 M615.3,215.8v-2.2H611c-2.7,0-3.5,1-3.5,2.4c0,1.6,1.3,2.6,3.5,2.6S614.5,217.6,615.3,215.8L615.3,215.8z"/>
	<path d="M620.2,218.3l0.8-1.5c1.1,0.9,2.9,1.5,4.9,1.5c2.6,0,3.7-0.9,3.7-2.2c0-3.6-8.9-0.8-8.9-6.2c0-2.2,1.9-3.9,5.4-3.9
		c1.8,0,3.7,0.5,4.8,1.3l-0.8,1.5c-1.2-0.8-2.6-1.2-4-1.2c-2.5,0-3.6,1-3.6,2.3c0,3.7,8.9,0.9,8.9,6.2c0,2.4-2.1,3.9-5.6,3.9
		C623.5,220,621.3,219.3,620.2,218.3L620.2,218.3z"/>
	<path d="M636.7,224.2l0.7-1.4c0.5,0.5,1.3,0.7,2.1,0.7c1.5,0,2.3-0.9,2.3-2.6v-14.7h1.8v14.7c0,2.5-1.4,4.2-4,4.2
		C638.5,225.1,637.4,224.8,636.7,224.2L636.7,224.2z M641.4,201.9c0-0.7,0.6-1.3,1.3-1.3s1.3,0.6,1.3,1.3c0,0.8-0.6,1.4-1.3,1.4
		S641.4,202.6,641.4,201.9L641.4,201.9z"/>
	<path d="M661.1,206.2v13.7h-1.8v-2.5c-1,1.7-2.7,2.6-4.9,2.6c-3.5,0-5.8-1.9-5.8-5.9v-7.9h1.8v7.8c0,2.9,1.5,4.4,4.1,4.4
		c2.9,0,4.7-1.9,4.7-5v-7.2L661.1,206.2L661.1,206.2z"/>
	<path d="M673.2,206.1v1.8c-0.2,0-0.3,0-0.4,0c-2.9,0-4.6,1.8-4.6,5v7h-1.8v-13.7h1.8v2.7C668.9,207.1,670.6,206.1,673.2,206.1
		L673.2,206.1z"/>
	<path d="M679.3,200.9h2.5l-4.2,3.2h-1.8L679.3,200.9L679.3,200.9z M676.5,206.2h1.8v13.7h-1.8V206.2L676.5,206.2z"/>
	<path d="M696,200.6v19.3h-1.8v-2.7c-1.1,1.9-3,2.8-5.3,2.8c-3.9,0-6.8-2.8-6.8-7s2.9-6.9,6.8-6.9c2.2,0,4.1,0.9,5.2,2.7v-8.2
		L696,200.6L696,200.6z M694.1,213.1c0-3.2-2.2-5.3-5.1-5.3s-5.1,2.1-5.1,5.3s2.2,5.3,5.1,5.3S694.1,216.3,694.1,213.1z"/>
	<path d="M700.7,201.9c0-0.7,0.6-1.3,1.3-1.3s1.3,0.6,1.3,1.3c0,0.8-0.6,1.4-1.3,1.4S700.7,202.6,700.7,201.9L700.7,201.9z
		 M701.1,206.2h1.8v13.7h-1.8V206.2z"/>
	<path d="M706.7,213.1c0-4.1,3-6.9,7-6.9c2.3,0,4.3,0.9,5.4,2.7l-1.4,0.9c-0.9-1.4-2.4-2-4-2c-3,0-5.2,2.1-5.2,5.3s2.2,5.3,5.2,5.3
		c1.6,0,3-0.6,4-2l1.4,0.9c-1.1,1.8-3,2.7-5.4,2.7C709.7,220,706.7,217.1,706.7,213.1z"/>
	<path d="M733.1,211.4v8.5h-1.8v-2.1c-0.8,1.4-2.4,2.3-4.7,2.3c-3.1,0-5-1.6-5-4c0-2.1,1.3-3.9,5.3-3.9h4.3v-0.8
		c0-2.3-1.3-3.6-3.9-3.6c-1.8,0-3.4,0.6-4.5,1.6L722,208c1.4-1.2,3.4-1.9,5.6-1.9C731.1,206.1,733.1,207.9,733.1,211.4L733.1,211.4z
		 M731.2,215.8v-2.2h-4.3c-2.7,0-3.5,1-3.5,2.4c0,1.6,1.3,2.6,3.5,2.6S730.5,217.6,731.2,215.8L731.2,215.8z"/>
	<path d="M736.2,218.3l0.8-1.5c1.1,0.9,2.9,1.5,4.9,1.5c2.6,0,3.7-0.9,3.7-2.2c0-3.6-8.9-0.8-8.9-6.2c0-2.2,1.9-3.9,5.4-3.9
		c1.8,0,3.7,0.5,4.8,1.3l-0.8,1.5c-1.2-0.8-2.6-1.2-4-1.2c-2.5,0-3.6,1-3.6,2.3c0,3.7,8.9,0.9,8.9,6.2c0,2.4-2.1,3.9-5.6,3.9
		C739.5,220,737.3,219.3,736.2,218.3L736.2,218.3z"/>
	<path d="M770.3,206.2v12c0,4.7-2.3,6.8-6.8,6.8c-2.5,0-4.9-0.8-6.4-2.1l0.9-1.4c1.3,1.2,3.3,1.9,5.4,1.9c3.5,0,5-1.6,5-5v-1.7
		c-1.1,1.7-3.1,2.6-5.3,2.6c-3.9,0-6.9-2.7-6.9-6.7s3-6.6,6.9-6.6c2.3,0,4.3,0.9,5.4,2.7v-2.6L770.3,206.2L770.3,206.2z
		 M768.5,212.7c0-3-2.2-5-5.2-5s-5.2,2-5.2,5s2.2,5,5.2,5S768.5,215.7,768.5,212.7z"/>
	<path d="M785.8,211.4v8.5H784v-2.1c-0.8,1.4-2.4,2.3-4.7,2.3c-3.1,0-5-1.6-5-4c0-2.1,1.3-3.9,5.3-3.9h4.3v-0.8
		c0-2.3-1.3-3.6-3.9-3.6c-1.8,0-3.4,0.6-4.5,1.6l-0.8-1.4c1.4-1.2,3.4-1.9,5.6-1.9C783.8,206.1,785.8,207.9,785.8,211.4L785.8,211.4
		z M783.9,215.8v-2.2h-4.3c-2.7,0-3.5,1-3.5,2.4c0,1.6,1.3,2.6,3.5,2.6S783.2,217.6,783.9,215.8L783.9,215.8z"/>
	<path d="M797.7,206.1v1.8c-0.2,0-0.3,0-0.4,0c-2.9,0-4.6,1.8-4.6,5v7h-1.8v-13.7h1.8v2.7C793.4,207.1,795.2,206.1,797.7,206.1
		L797.7,206.1z"/>
	<path d="M811.3,211.4v8.5h-1.8v-2.1c-0.8,1.4-2.4,2.3-4.7,2.3c-3.1,0-5-1.6-5-4c0-2.1,1.3-3.9,5.3-3.9h4.3v-0.8
		c0-2.3-1.3-3.6-3.9-3.6c-1.8,0-3.4,0.6-4.5,1.6l-0.8-1.4c1.4-1.2,3.4-1.9,5.6-1.9C809.3,206.1,811.3,207.9,811.3,211.4L811.3,211.4
		z M809.5,215.8v-2.2h-4.3c-2.7,0-3.5,1-3.5,2.4c0,1.6,1.3,2.6,3.5,2.6S808.7,217.6,809.5,215.8L809.5,215.8z"/>
	<path d="M828.9,212v7.9h-1.8v-7.8c0-2.9-1.5-4.4-4.1-4.4c-2.9,0-4.8,1.8-4.8,4.9v7.2h-1.8v-13.7h1.8v2.5c1-1.7,2.8-2.6,5.2-2.6
		C826.6,206.1,828.9,208,828.9,212L828.9,212z"/>
	<path d="M841.1,219.1c-0.7,0.6-1.8,1-2.9,1c-2.6,0-4-1.5-4-4v-8.3h-2.4v-1.6h2.4v-3h1.8v3h4.2v1.6h-4.2v8.2c0,1.6,0.8,2.5,2.4,2.5
		c0.8,0,1.5-0.2,2-0.7L841.1,219.1L841.1,219.1z"/>
	<path d="M844.1,201.9c0-0.7,0.6-1.3,1.3-1.3s1.3,0.6,1.3,1.3c0,0.8-0.6,1.4-1.3,1.4S844.1,202.6,844.1,201.9L844.1,201.9z
		 M844.5,206.2h1.8v13.7h-1.8V206.2z"/>
	<path d="M858.4,206.1v1.8c-0.2,0-0.3,0-0.4,0c-2.9,0-4.6,1.8-4.6,5v7h-1.8v-13.7h1.8v2.7C854.1,207.1,855.8,206.1,858.4,206.1
		L858.4,206.1z"/>
	<path d="M879,211.4v8.5h-1.8v-2.1c-0.8,1.4-2.4,2.3-4.7,2.3c-3.1,0-5-1.6-5-4c0-2.1,1.3-3.9,5.3-3.9h4.3v-0.8
		c0-2.3-1.3-3.6-3.9-3.6c-1.8,0-3.4,0.6-4.5,1.6l-0.8-1.4c1.4-1.2,3.4-1.9,5.6-1.9C877,206.1,879,207.9,879,211.4L879,211.4z
		 M877.2,215.8v-2.2h-4.3c-2.7,0-3.5,1-3.5,2.4c0,1.6,1.3,2.6,3.5,2.6S876.5,217.6,877.2,215.8L877.2,215.8z"/>
	<path d="M913.4,212v7.9h-1.8v-7.8c0-2.9-1.5-4.4-3.9-4.4c-2.8,0-4.6,1.8-4.6,4.9v7.2h-1.8v-7.8c0-2.9-1.5-4.4-4-4.4
		c-2.8,0-4.6,1.8-4.6,4.9v7.2h-1.8v-13.7h1.8v2.5c1-1.6,2.7-2.6,5-2.6s4,1,4.9,2.9c1-1.8,2.9-2.9,5.4-2.9
		C911.2,206.1,913.4,208,913.4,212L913.4,212z"/>
	<path d="M928.8,211.4v8.5H927v-2.1c-0.8,1.4-2.4,2.3-4.7,2.3c-3.1,0-5-1.6-5-4c0-2.1,1.3-3.9,5.3-3.9h4.3v-0.8
		c0-2.3-1.3-3.6-3.9-3.6c-1.8,0-3.4,0.6-4.5,1.6l-0.8-1.4c1.4-1.2,3.4-1.9,5.6-1.9C926.8,206.1,928.8,207.9,928.8,211.4L928.8,211.4
		z M926.9,215.8v-2.2h-4.3c-2.7,0-3.5,1-3.5,2.4c0,1.6,1.3,2.6,3.5,2.6S926.2,217.6,926.9,215.8L926.9,215.8z"/>
	<path d="M946.4,212v7.9h-1.8v-7.8c0-2.9-1.5-4.4-4.1-4.4c-2.9,0-4.8,1.8-4.8,4.9v7.2h-1.8v-13.7h1.8v2.5c1-1.7,2.8-2.6,5.2-2.6
		C944.1,206.1,946.4,208,946.4,212L946.4,212z"/>
	<path d="M963.7,206.2v13.7h-1.8v-2.5c-1,1.7-2.7,2.6-4.9,2.6c-3.5,0-5.8-1.9-5.8-5.9v-7.9h1.8v7.8c0,2.9,1.5,4.4,4.1,4.4
		c2.9,0,4.7-1.9,4.7-5v-7.2L963.7,206.2L963.7,206.2z"/>
	<path d="M976.1,219.1c-0.7,0.6-1.8,1-2.9,1c-2.6,0-4-1.5-4-4v-8.3h-2.4v-1.6h2.4v-3h1.8v3h4.2v1.6H971v8.2c0,1.6,0.8,2.5,2.4,2.5
		c0.8,0,1.5-0.2,2-0.7L976.1,219.1L976.1,219.1z"/>
	<path d="M990.8,213.6h-11.4c0.2,2.9,2.4,4.8,5.4,4.8c1.7,0,3.2-0.6,4.2-1.8l1,1.2c-1.2,1.5-3.1,2.2-5.3,2.2c-4.3,0-7.2-2.9-7.2-7
		s2.8-6.9,6.7-6.9s6.6,2.8,6.6,6.9C990.9,213.2,990.8,213.4,990.8,213.6L990.8,213.6z M979.4,212.3h9.7c-0.2-2.7-2.2-4.6-4.9-4.6
		S979.7,209.6,979.4,212.3z"/>
	<path d="M1007.2,212v7.9h-1.8v-7.8c0-2.9-1.5-4.4-4.1-4.4c-2.9,0-4.8,1.8-4.8,4.9v7.2h-1.8v-13.7h1.8v2.5c1-1.7,2.8-2.6,5.2-2.6
		C1004.9,206.1,1007.2,208,1007.2,212L1007.2,212z"/>
	<path d="M1022,216.4l1.4,0.9c-1.1,1.8-3,2.7-5.4,2.7h0l-0.3,1.2c1.4,0.1,2.2,1,2.2,2.1c0,1.4-1.2,2.3-2.9,2.3
		c-0.9,0-1.6-0.2-2.2-0.6l0.4-1c0.5,0.3,1.1,0.5,1.7,0.5c1,0,1.6-0.4,1.6-1.2c0-0.7-0.5-1.2-1.6-1.2h-0.6l0.6-2.2
		c-3.5-0.5-5.9-3.2-5.9-6.9c0-4.1,3-6.9,7-6.9c2.3,0,4.3,0.9,5.4,2.7l-1.4,0.9c-0.9-1.4-2.4-2-4-2c-3,0-5.2,2.1-5.2,5.3
		s2.2,5.3,5.2,5.3C1019.6,218.4,1021,217.8,1022,216.4L1022,216.4z"/>
	<path d="M1037.3,211.4v8.5h-1.8v-2.1c-0.8,1.4-2.4,2.3-4.7,2.3c-3.1,0-5-1.6-5-4c0-2.1,1.3-3.9,5.3-3.9h4.3v-0.8
		c0-2.3-1.3-3.6-3.9-3.6c-1.8,0-3.4,0.6-4.6,1.6l-0.8-1.4c1.4-1.2,3.4-1.9,5.6-1.9C1035.3,206.1,1037.3,207.9,1037.3,211.4
		L1037.3,211.4z M1035.4,215.8v-2.2h-4.3c-2.7,0-3.5,1-3.5,2.4c0,1.6,1.3,2.6,3.5,2.6S1034.7,217.6,1035.4,215.8L1035.4,215.8z
		 M1028.8,203.9h-1.1c0.1-1.7,1-2.9,2.3-2.9c1.6,0,2.4,1.8,3.4,1.8c0.8,0,1.3-0.6,1.3-1.6h1.1c-0.1,1.7-1,2.8-2.3,2.8
		c-1.6,0-2.4-1.8-3.4-1.8C1029.3,202.2,1028.8,202.8,1028.8,203.9z"/>
	<path d="M1040.9,213.1c0-4.1,3-6.9,7-6.9s6.9,2.9,6.9,6.9s-2.9,7-6.9,7S1040.9,217.1,1040.9,213.1z M1053,213.1
		c0-3.2-2.2-5.3-5.1-5.3s-5.1,2.1-5.1,5.3s2.2,5.3,5.1,5.3S1053,216.3,1053,213.1z"/>
	<path d="M1077.9,200.6v19.3h-1.8v-2.7c-1.1,1.9-3,2.8-5.3,2.8c-3.9,0-6.8-2.8-6.8-7s2.9-6.9,6.8-6.9c2.2,0,4.1,0.9,5.2,2.7v-8.2
		L1077.9,200.6L1077.9,200.6z M1076.1,213.1c0-3.2-2.2-5.3-5.1-5.3s-5.1,2.1-5.1,5.3s2.2,5.3,5.1,5.3S1076.1,216.3,1076.1,213.1z"/>
	<path d="M1093.4,211.4v8.5h-1.8v-2.1c-0.8,1.4-2.4,2.3-4.7,2.3c-3.1,0-5-1.6-5-4c0-2.1,1.3-3.9,5.3-3.9h4.3v-0.8
		c0-2.3-1.3-3.6-3.9-3.6c-1.8,0-3.4,0.6-4.6,1.6l-0.8-1.4c1.4-1.2,3.4-1.9,5.6-1.9C1091.4,206.1,1093.4,207.9,1093.4,211.4
		L1093.4,211.4z M1091.6,215.8v-2.2h-4.3c-2.7,0-3.5,1-3.5,2.4c0,1.6,1.3,2.6,3.5,2.6S1090.8,217.6,1091.6,215.8L1091.6,215.8z"/>
	<path d="M171.6,253.1c0-4.1,3-6.9,7-6.9s6.9,2.9,6.9,6.9c0,4-2.9,7-6.9,7S171.6,257.1,171.6,253.1z M183.7,253.1
		c0-3.2-2.2-5.3-5.1-5.3s-5.1,2.1-5.1,5.3c0,3.2,2.2,5.3,5.1,5.3S183.7,256.3,183.7,253.1L183.7,253.1z"/>
	<path d="M196.2,246.1v1.8c-0.2,0-0.3,0-0.4,0c-2.9,0-4.6,1.8-4.6,5v7h-1.9v-13.7h1.8v2.7C191.9,247.1,193.7,246.1,196.2,246.1
		L196.2,246.1z"/>
	<path d="M211.9,240.6v19.3h-1.8v-2.7c-1.1,1.9-3,2.8-5.3,2.8c-3.9,0-6.8-2.8-6.8-7s2.9-6.9,6.8-6.9c2.2,0,4.1,0.9,5.2,2.7v-8.2
		L211.9,240.6L211.9,240.6z M210.1,253.1c0-3.2-2.2-5.3-5.1-5.3s-5.1,2.1-5.1,5.3c0,3.2,2.2,5.3,5.1,5.3S210.1,256.3,210.1,253.1
		L210.1,253.1z"/>
	<path d="M228.9,253.6h-11.4c0.2,2.9,2.4,4.8,5.4,4.8c1.7,0,3.1-0.6,4.2-1.8l1,1.2c-1.2,1.5-3.1,2.2-5.3,2.2c-4.3,0-7.2-2.9-7.2-7
		s2.8-6.9,6.7-6.9s6.6,2.8,6.6,6.9C228.9,253.2,228.9,253.4,228.9,253.6L228.9,253.6z M217.5,252.3h9.7c-0.2-2.7-2.2-4.6-4.9-4.6
		S217.7,249.6,217.5,252.3z"/>
	<path d="M255.3,252v7.9h-1.9v-7.8c0-2.9-1.5-4.4-3.9-4.4c-2.8,0-4.6,1.8-4.6,4.9v7.2h-1.9v-7.8c0-2.9-1.5-4.4-3.9-4.4
		c-2.8,0-4.6,1.8-4.6,4.9v7.2h-1.9v-13.7h1.8v2.5c1-1.6,2.7-2.6,5-2.6s4,1,4.9,2.9c1-1.8,2.9-2.9,5.4-2.9
		C253.1,246.1,255.3,248,255.3,252L255.3,252z"/>
	<path d="M265.2,258.3l0.8-1.5c1.1,0.9,2.9,1.5,4.9,1.5c2.6,0,3.7-0.9,3.7-2.2c0-3.6-8.9-0.8-8.9-6.2c0-2.2,1.9-3.9,5.4-3.9
		c1.8,0,3.7,0.5,4.8,1.3l-0.8,1.5c-1.2-0.8-2.6-1.2-4-1.2c-2.5,0-3.6,1-3.6,2.3c0,3.7,8.9,0.9,8.9,6.2c0,2.4-2.1,3.9-5.6,3.9
		C268.5,260,266.3,259.3,265.2,258.3L265.2,258.3z"/>
	<path d="M278.5,253.1c0-4.1,3-6.9,7-6.9s6.9,2.9,6.9,6.9c0,4-2.9,7-6.9,7S278.5,257.1,278.5,253.1z M290.5,253.1
		c0-3.2-2.2-5.3-5.1-5.3s-5.1,2.1-5.1,5.3c0,3.2,2.2,5.3,5.1,5.3S290.5,256.3,290.5,253.1L290.5,253.1z"/>
	<path d="M294.8,253.1c0-4.1,3-6.9,7-6.9c2.3,0,4.3,0.9,5.4,2.7l-1.4,0.9c-0.9-1.4-2.4-2-4-2c-3,0-5.2,2.1-5.2,5.3
		c0,3.2,2.2,5.3,5.2,5.3c1.6,0,3-0.6,4-2l1.4,0.9c-1.1,1.8-3,2.7-5.4,2.7C297.7,260,294.8,257.1,294.8,253.1z"/>
	<path d="M310.4,241.9c0-0.7,0.6-1.3,1.4-1.3s1.4,0.6,1.4,1.3c0,0.8-0.6,1.4-1.4,1.4S310.4,242.6,310.4,241.9L310.4,241.9z
		 M310.8,246.2h1.9v13.7h-1.9V246.2z"/>
	<path d="M328.1,251.4v8.5h-1.8v-2.1c-0.8,1.4-2.4,2.3-4.7,2.3c-3.1,0-5-1.6-5-4c0-2.1,1.4-3.9,5.3-3.9h4.3v-0.8
		c0-2.3-1.3-3.6-3.9-3.6c-1.8,0-3.4,0.6-4.5,1.6L317,248c1.4-1.2,3.4-1.9,5.6-1.9C326.1,246.1,328.1,247.9,328.1,251.4L328.1,251.4z
		 M326.2,255.8v-2.2H322c-2.6,0-3.5,1-3.5,2.4c0,1.6,1.3,2.6,3.5,2.6S325.5,257.6,326.2,255.8L326.2,255.8z"/>
	<path d="M333.1,240.6h1.9v19.3h-1.9V240.6L333.1,240.6z"/>
	<path d="M358.8,253.6h-11.4c0.2,2.9,2.4,4.8,5.4,4.8c1.7,0,3.1-0.6,4.2-1.8l1,1.2c-1.2,1.5-3.1,2.2-5.3,2.2c-4.3,0-7.2-2.9-7.2-7
		s2.8-6.9,6.7-6.9s6.6,2.8,6.6,6.9C358.9,253.2,358.8,253.4,358.8,253.6L358.8,253.6z M347.4,252.3h9.7c-0.2-2.7-2.2-4.6-4.9-4.6
		S347.6,249.6,347.4,252.3L347.4,252.3z"/>
	<path d="M360.7,258.3l0.8-1.5c1.1,0.9,2.9,1.5,4.9,1.5c2.6,0,3.7-0.9,3.7-2.2c0-3.6-8.9-0.8-8.9-6.2c0-2.2,1.9-3.9,5.4-3.9
		c1.8,0,3.7,0.5,4.8,1.3l-0.8,1.5c-1.2-0.8-2.6-1.2-4-1.2c-2.5,0-3.6,1-3.6,2.3c0,3.7,8.9,0.9,8.9,6.2c0,2.4-2.1,3.9-5.6,3.9
		C364,260,361.8,259.3,360.7,258.3L360.7,258.3z"/>
	<path d="M382.5,259.1c-0.7,0.6-1.8,1-2.9,1c-2.6,0-4-1.5-4-4v-8.3h-2.4v-1.6h2.4v-3h1.9v3h4.2v1.6h-4.2v8.2c0,1.6,0.8,2.5,2.4,2.5
		c0.8,0,1.5-0.2,2-0.7L382.5,259.1L382.5,259.1z"/>
	<path d="M396.2,251.4v8.5h-1.8v-2.1c-0.8,1.4-2.4,2.3-4.7,2.3c-3.1,0-5-1.6-5-4c0-2.1,1.4-3.9,5.3-3.9h4.3v-0.8
		c0-2.3-1.3-3.6-3.9-3.6c-1.8,0-3.4,0.6-4.5,1.6l-0.8-1.4c1.4-1.2,3.4-1.9,5.6-1.9C394.2,246.1,396.2,247.9,396.2,251.4L396.2,251.4
		z M394.4,255.8v-2.2h-4.3c-2.6,0-3.5,1-3.5,2.4c0,1.6,1.3,2.6,3.5,2.6S393.6,257.6,394.4,255.8L394.4,255.8z"/>
	<path d="M415.1,253.1c0,4.1-2.9,7-6.8,7c-2.3,0-4.2-1-5.3-2.8v2.7h-1.8v-19.3h1.9v8.2c1.1-1.8,3-2.7,5.2-2.7
		C412.2,246.1,415.1,248.9,415.1,253.1L415.1,253.1z M413.2,253.1c0-3.2-2.2-5.3-5.1-5.3s-5.1,2.1-5.1,5.3c0,3.2,2.2,5.3,5.1,5.3
		S413.2,256.3,413.2,253.1L413.2,253.1z"/>
	<path d="M430.8,253.6h-11.4c0.2,2.9,2.4,4.8,5.4,4.8c1.7,0,3.1-0.6,4.2-1.8l1,1.2c-1.2,1.5-3.1,2.2-5.3,2.2c-4.3,0-7.2-2.9-7.2-7
		s2.8-6.9,6.7-6.9s6.6,2.8,6.6,6.9C430.8,253.2,430.8,253.4,430.8,253.6L430.8,253.6z M419.3,252.3h9.7c-0.2-2.7-2.2-4.6-4.9-4.6
		S419.6,249.6,419.3,252.3L419.3,252.3z"/>
	<path d="M434.6,240.6h1.9v19.3h-1.9V240.6L434.6,240.6z"/>
	<path d="M453.5,253.6H442c0.2,2.9,2.4,4.8,5.4,4.8c1.7,0,3.1-0.6,4.2-1.8l1,1.2c-1.2,1.5-3.1,2.2-5.3,2.2c-4.3,0-7.2-2.9-7.2-7
		s2.8-6.9,6.7-6.9s6.6,2.8,6.6,6.9C453.5,253.2,453.5,253.4,453.5,253.6L453.5,253.6z M442,252.3h9.7c-0.2-2.7-2.2-4.6-4.9-4.6
		S442.3,249.6,442,252.3L442,252.3z"/>
	<path d="M455.9,253.1c0-4.1,3-6.9,7-6.9c2.3,0,4.3,0.9,5.4,2.7l-1.4,0.9c-0.9-1.4-2.4-2-4-2c-3,0-5.2,2.1-5.2,5.3
		c0,3.2,2.2,5.3,5.2,5.3c1.6,0,3-0.6,4-2l1.4,0.9c-1.1,1.8-3,2.7-5.4,2.7C458.9,260,455.9,257.1,455.9,253.1z"/>
	<path d="M471.5,241.9c0-0.7,0.6-1.3,1.4-1.3s1.4,0.6,1.4,1.3c0,0.8-0.6,1.4-1.4,1.4S471.5,242.6,471.5,241.9L471.5,241.9z
		 M471.9,246.2h1.9v13.7h-1.9V246.2z"/>
	<path d="M491.4,240.6v19.3h-1.8v-2.7c-1.1,1.9-3,2.8-5.3,2.8c-3.9,0-6.8-2.8-6.8-7s2.9-6.9,6.8-6.9c2.2,0,4.1,0.9,5.2,2.7v-8.2
		L491.4,240.6L491.4,240.6z M489.6,253.1c0-3.2-2.2-5.3-5.1-5.3s-5.1,2.1-5.1,5.3c0,3.2,2.2,5.3,5.1,5.3S489.6,256.3,489.6,253.1
		L489.6,253.1z"/>
	<path d="M506.9,251.4v8.5h-1.8v-2.1c-0.8,1.4-2.4,2.3-4.7,2.3c-3.1,0-5-1.6-5-4c0-2.1,1.4-3.9,5.3-3.9h4.3v-0.8
		c0-2.3-1.3-3.6-3.9-3.6c-1.8,0-3.4,0.6-4.5,1.6l-0.8-1.4c1.4-1.2,3.4-1.9,5.6-1.9C504.9,246.1,506.9,247.9,506.9,251.4L506.9,251.4
		z M505,255.8v-2.2h-4.3c-2.6,0-3.5,1-3.5,2.4c0,1.6,1.3,2.6,3.5,2.6S504.3,257.6,505,255.8L505,255.8z"/>
	<path d="M532.5,253.1c0,4.2-2.9,7-6.8,7c-2.2,0-4.1-0.9-5.2-2.7v7.6h-1.8v-18.7h1.8v2.7c1.1-1.8,3-2.8,5.3-2.8
		C529.6,246.1,532.5,248.9,532.5,253.1L532.5,253.1z M530.7,253.1c0-3.2-2.2-5.3-5.1-5.3s-5.1,2.2-5.1,5.3c0,3.2,2.2,5.3,5.1,5.3
		S530.7,256.3,530.7,253.1L530.7,253.1z"/>
	<path d="M548.2,253.6h-11.4c0.2,2.9,2.4,4.8,5.4,4.8c1.7,0,3.2-0.6,4.2-1.8l1,1.2c-1.2,1.5-3.1,2.2-5.3,2.2c-4.3,0-7.2-2.9-7.2-7
		s2.8-6.9,6.7-6.9s6.6,2.8,6.6,6.9C548.2,253.2,548.2,253.4,548.2,253.6L548.2,253.6z M536.8,252.3h9.7c-0.2-2.7-2.2-4.6-4.9-4.6
		S537,249.6,536.8,252.3z"/>
	<path d="M552,240.6h1.8v19.3H552V240.6L552,240.6z"/>
	<path d="M569.3,251.4v8.5h-1.8v-2.1c-0.8,1.4-2.4,2.3-4.7,2.3c-3.1,0-5-1.6-5-4c0-2.1,1.3-3.9,5.3-3.9h4.3v-0.8
		c0-2.3-1.3-3.6-3.9-3.6c-1.8,0-3.4,0.6-4.5,1.6l-0.8-1.4c1.4-1.2,3.4-1.9,5.6-1.9C567.3,246.1,569.3,247.9,569.3,251.4z
		 M567.5,255.8v-2.2h-4.3c-2.7,0-3.5,1-3.5,2.4c0,1.6,1.3,2.6,3.5,2.6S566.7,257.6,567.5,255.8L567.5,255.8z"/>
	<path d="M593.1,253.6h-11.4c0.2,2.9,2.4,4.8,5.4,4.8c1.7,0,3.2-0.6,4.2-1.8l1,1.2c-1.2,1.5-3.1,2.2-5.3,2.2c-4.3,0-7.2-2.9-7.2-7
		s2.8-6.9,6.7-6.9s6.6,2.8,6.6,6.9C593.1,253.2,593,253.4,593.1,253.6L593.1,253.6z M581.6,252.3h9.7c-0.2-2.7-2.2-4.6-4.9-4.6
		S581.9,249.6,581.6,252.3z"/>
	<path d="M595,258.3l0.8-1.5c1.1,0.9,2.9,1.5,4.9,1.5c2.6,0,3.7-0.9,3.7-2.2c0-3.6-8.9-0.8-8.9-6.2c0-2.2,1.9-3.9,5.4-3.9
		c1.8,0,3.7,0.5,4.8,1.3l-0.8,1.5c-1.2-0.8-2.6-1.2-4-1.2c-2.5,0-3.6,1-3.6,2.3c0,3.7,8.9,0.9,8.9,6.2c0,2.4-2.1,3.9-5.6,3.9
		C598.3,260,596.1,259.3,595,258.3L595,258.3z"/>
	<path d="M616.8,259.1c-0.7,0.6-1.8,1-2.9,1c-2.6,0-4-1.5-4-4v-8.3h-2.4v-1.6h2.4v-3h1.8v3h4.2v1.6h-4.2v8.2c0,1.6,0.8,2.5,2.4,2.5
		c0.8,0,1.5-0.2,2-0.7L616.8,259.1L616.8,259.1z"/>
	<path d="M627,246.1v1.8c-0.2,0-0.3,0-0.4,0c-2.9,0-4.6,1.8-4.6,5v7h-1.8v-13.7h1.8v2.7C622.8,247.1,624.5,246.1,627,246.1
		L627,246.1z"/>
	<path d="M642.9,246.2v13.7h-1.8v-2.5c-1,1.7-2.7,2.6-4.9,2.6c-3.5,0-5.8-2-5.8-5.9v-7.9h1.8v7.8c0,2.9,1.5,4.4,4.1,4.4
		c2.9,0,4.7-1.9,4.7-5v-7.2L642.9,246.2L642.9,246.2z"/>
	<path d="M655.2,259.1c-0.7,0.6-1.8,1-2.9,1c-2.6,0-4-1.5-4-4v-8.3h-2.4v-1.6h2.4v-3h1.8v3h4.2v1.6h-4.2v8.2c0,1.6,0.8,2.5,2.4,2.5
		c0.8,0,1.5-0.2,2-0.7L655.2,259.1L655.2,259.1z"/>
	<path d="M670.9,246.2v13.7h-1.8v-2.5c-1,1.7-2.7,2.6-4.9,2.6c-3.5,0-5.8-2-5.8-5.9v-7.9h1.8v7.8c0,2.9,1.5,4.4,4.1,4.4
		c2.9,0,4.7-1.9,4.7-5v-7.2L670.9,246.2L670.9,246.2z"/>
	<path d="M683,246.1v1.8c-0.2,0-0.3,0-0.4,0c-2.9,0-4.6,1.8-4.6,5v7h-1.8v-13.7h1.8v2.7C678.7,247.1,680.5,246.1,683,246.1
		L683,246.1z"/>
	<path d="M696.6,251.4v8.5h-1.8v-2.1c-0.8,1.4-2.4,2.3-4.7,2.3c-3.1,0-5-1.6-5-4c0-2.1,1.3-3.9,5.3-3.9h4.3v-0.8
		c0-2.3-1.3-3.6-3.9-3.6c-1.8,0-3.4,0.6-4.5,1.6l-0.8-1.4c1.4-1.2,3.4-1.9,5.6-1.9C694.6,246.1,696.6,247.9,696.6,251.4z
		 M694.8,255.8v-2.2h-4.3c-2.7,0-3.5,1-3.5,2.4c0,1.6,1.3,2.6,3.5,2.6S694,257.6,694.8,255.8L694.8,255.8z"/>
	<path d="M720.9,240.6v19.3h-1.8v-2.7c-1.1,1.9-3,2.8-5.3,2.8c-3.9,0-6.8-2.8-6.8-7s2.9-6.9,6.8-6.9c2.2,0,4.1,0.9,5.2,2.7v-8.2
		L720.9,240.6L720.9,240.6z M719.1,253.1c0-3.2-2.2-5.3-5.1-5.3s-5.1,2.1-5.1,5.3c0,3.2,2.2,5.3,5.1,5.3S719.1,256.3,719.1,253.1
		L719.1,253.1z"/>
	<path d="M738,253.6h-11.4c0.2,2.9,2.4,4.8,5.4,4.8c1.7,0,3.2-0.6,4.2-1.8l1,1.2c-1.2,1.5-3.1,2.2-5.3,2.2c-4.3,0-7.2-2.9-7.2-7
		s2.8-6.9,6.7-6.9s6.6,2.8,6.6,6.9C738,253.2,738,253.4,738,253.6L738,253.6z M726.5,252.3h9.7c-0.2-2.7-2.2-4.6-4.9-4.6
		S726.8,249.6,726.5,252.3z"/>
	<path d="M762.5,253.1c0,4.2-2.9,7-6.8,7c-2.2,0-4.1-0.9-5.2-2.7v7.6h-1.8v-18.7h1.8v2.7c1.1-1.8,3-2.8,5.3-2.8
		C759.5,246.1,762.5,248.9,762.5,253.1L762.5,253.1z M760.6,253.1c0-3.2-2.2-5.3-5.1-5.3s-5.1,2.2-5.1,5.3c0,3.2,2.2,5.3,5.1,5.3
		S760.6,256.3,760.6,253.1L760.6,253.1z"/>
	<path d="M764.8,253.1c0-4.1,3-6.9,7-6.9s6.9,2.9,6.9,6.9c0,4-2.9,7-6.9,7S764.8,257.1,764.8,253.1z M776.9,253.1
		c0-3.2-2.2-5.3-5.1-5.3s-5.1,2.1-5.1,5.3c0,3.2,2.2,5.3,5.1,5.3S776.9,256.3,776.9,253.1L776.9,253.1z"/>
	<path d="M795,240.6v19.3h-1.8v-2.7c-1.1,1.9-3,2.8-5.3,2.8c-3.9,0-6.8-2.8-6.8-7s2.9-6.9,6.8-6.9c2.2,0,4.1,0.9,5.2,2.7v-8.2
		L795,240.6L795,240.6z M793.2,253.1c0-3.2-2.2-5.3-5.1-5.3s-5.1,2.1-5.1,5.3c0,3.2,2.2,5.3,5.1,5.3S793.2,256.3,793.2,253.1
		L793.2,253.1z"/>
	<path d="M812.1,253.6h-11.4c0.2,2.9,2.4,4.8,5.4,4.8c1.7,0,3.2-0.6,4.2-1.8l1,1.2c-1.2,1.5-3.1,2.2-5.3,2.2c-4.3,0-7.2-2.9-7.2-7
		s2.8-6.9,6.7-6.9s6.6,2.8,6.6,6.9C812.1,253.2,812,253.4,812.1,253.6L812.1,253.6z M800.6,252.3h9.7c-0.2-2.7-2.2-4.6-4.9-4.6
		S800.9,249.6,800.6,252.3z"/>
	<path d="M822.7,246.1v1.8c-0.2,0-0.3,0-0.4,0c-2.9,0-4.6,1.8-4.6,5v7h-1.8v-13.7h1.8v2.7C818.5,247.1,820.2,246.1,822.7,246.1
		L822.7,246.1z"/>
	<path d="M844.6,246.2l-6.1,13.7h-1.9l-6.1-13.7h1.9l5.1,11.6l5.2-11.6L844.6,246.2L844.6,246.2z"/>
	<path d="M846.8,241.9c0-0.7,0.6-1.3,1.3-1.3s1.3,0.6,1.3,1.3c0,0.8-0.6,1.4-1.3,1.4S846.8,242.6,846.8,241.9L846.8,241.9z
		 M847.2,246.2h1.8v13.7h-1.8V246.2z"/>
	<path d="M866.8,246.2v12c0,4.7-2.3,6.8-6.8,6.8c-2.5,0-4.9-0.8-6.4-2.1l0.9-1.4c1.3,1.2,3.3,1.9,5.4,1.9c3.5,0,5-1.6,5-5v-1.7
		c-1.1,1.7-3.1,2.6-5.3,2.6c-3.9,0-6.9-2.7-6.9-6.7s3-6.6,6.9-6.6c2.3,0,4.3,0.9,5.4,2.7v-2.6L866.8,246.2L866.8,246.2z
		 M865.1,252.7c0-3-2.2-5-5.2-5s-5.2,2-5.2,5s2.2,5,5.2,5S865.1,255.7,865.1,252.7z"/>
	<path d="M883.9,253.6h-11.4c0.2,2.9,2.4,4.8,5.4,4.8c1.7,0,3.2-0.6,4.2-1.8l1,1.2c-1.2,1.5-3.1,2.2-5.3,2.2c-4.3,0-7.2-2.9-7.2-7
		s2.8-6.9,6.7-6.9s6.6,2.8,6.6,6.9C883.9,253.2,883.9,253.4,883.9,253.6L883.9,253.6z M872.5,252.3h9.7c-0.2-2.7-2.2-4.6-4.9-4.6
		S872.7,249.6,872.5,252.3z"/>
	<path d="M900.3,252v7.9h-1.8v-7.8c0-2.9-1.5-4.4-4.1-4.4c-2.9,0-4.8,1.8-4.8,4.9v7.2h-1.8v-13.7h1.8v2.5c1-1.7,2.8-2.6,5.2-2.6
		C898,246.1,900.3,248,900.3,252L900.3,252z"/>
	<path d="M912.5,259.1c-0.7,0.6-1.8,1-2.9,1c-2.6,0-4-1.5-4-4v-8.3h-2.4v-1.6h2.4v-3h1.8v3h4.2v1.6h-4.2v8.2c0,1.6,0.8,2.5,2.4,2.5
		c0.8,0,1.5-0.2,2-0.7L912.5,259.1L912.5,259.1z"/>
	<path d="M927.3,253.6h-11.4c0.2,2.9,2.4,4.8,5.4,4.8c1.7,0,3.2-0.6,4.2-1.8l1,1.2c-1.2,1.5-3.1,2.2-5.3,2.2c-4.3,0-7.2-2.9-7.2-7
		s2.8-6.9,6.7-6.9s6.6,2.8,6.6,6.9C927.3,253.2,927.3,253.4,927.3,253.6L927.3,253.6z M915.8,252.3h9.7c-0.2-2.7-2.2-4.6-4.9-4.6
		S916.1,249.6,915.8,252.3z"/>
	<path d="M932.7,258.6c0,0.4-0.1,0.8-0.4,1.5l-1.1,3.6H930l0.9-3.8c-0.5-0.2-0.9-0.6-0.9-1.3c0-0.8,0.6-1.4,1.4-1.4
		S932.7,257.8,932.7,258.6L932.7,258.6z"/>
	<path d="M955.7,246.2v13.7H954v-2.5c-1,1.7-2.7,2.6-4.9,2.6c-3.5,0-5.8-2-5.8-5.9v-7.9h1.8v7.8c0,2.9,1.5,4.4,4.1,4.4
		c2.9,0,4.7-1.9,4.7-5v-7.2L955.7,246.2L955.7,246.2z"/>
	<path d="M983.5,252v7.9h-1.8v-7.8c0-2.9-1.5-4.4-3.9-4.4c-2.8,0-4.6,1.8-4.6,4.9v7.2h-1.8v-7.8c0-2.9-1.5-4.4-4-4.4
		c-2.8,0-4.6,1.8-4.6,4.9v7.2h-1.8v-13.7h1.8v2.5c1-1.6,2.7-2.6,5-2.6s4,1,4.9,2.9c1-1.8,2.9-2.9,5.4-2.9
		C981.3,246.1,983.5,248,983.5,252L983.5,252z"/>
	<path d="M993.4,258.3l0.8-1.5c1.1,0.9,2.9,1.5,4.9,1.5c2.6,0,3.7-0.9,3.7-2.2c0-3.6-8.9-0.8-8.9-6.2c0-2.2,1.9-3.9,5.4-3.9
		c1.8,0,3.7,0.5,4.8,1.3l-0.8,1.5c-1.2-0.8-2.6-1.2-4-1.2c-2.5,0-3.6,1-3.6,2.3c0,3.7,8.9,0.9,8.9,6.2c0,2.4-2.1,3.9-5.6,3.9
		C996.7,260,994.5,259.3,993.4,258.3L993.4,258.3z"/>
	<path d="M1007.6,241.9c0-0.7,0.6-1.3,1.3-1.3s1.3,0.6,1.3,1.3c0,0.8-0.6,1.4-1.3,1.4S1007.6,242.6,1007.6,241.9L1007.6,241.9z
		 M1008,246.2h1.8v13.7h-1.8V246.2z"/>
	<path d="M1013.1,258.3l0.8-1.5c1.1,0.9,2.9,1.5,4.9,1.5c2.6,0,3.7-0.9,3.7-2.2c0-3.6-8.9-0.8-8.9-6.2c0-2.2,1.9-3.9,5.4-3.9
		c1.8,0,3.7,0.5,4.8,1.3l-0.8,1.5c-1.2-0.8-2.6-1.2-4-1.2c-2.5,0-3.6,1-3.6,2.3c0,3.7,8.9,0.9,8.9,6.2c0,2.4-2.1,3.9-5.6,3.9
		C1016.4,260,1014.2,259.3,1013.1,258.3L1013.1,258.3z"/>
	<path d="M1034.9,259.1c-0.7,0.6-1.8,1-2.9,1c-2.6,0-4-1.5-4-4v-8.3h-2.4v-1.6h2.4v-3h1.8v3h4.2v1.6h-4.2v8.2c0,1.6,0.8,2.5,2.4,2.5
		c0.8,0,1.5-0.2,2-0.7L1034.9,259.1L1034.9,259.1z"/>
	<path d="M1049.7,253.6h-11.4c0.2,2.9,2.4,4.8,5.4,4.8c1.7,0,3.2-0.6,4.2-1.8l1,1.2c-1.2,1.5-3.1,2.2-5.3,2.2c-4.3,0-7.2-2.9-7.2-7
		s2.8-6.9,6.7-6.9s6.6,2.8,6.6,6.9C1049.7,253.2,1049.7,253.4,1049.7,253.6L1049.7,253.6z M1038.2,252.3h9.7
		c-0.2-2.7-2.2-4.6-4.9-4.6S1038.5,249.6,1038.2,252.3z"/>
	<path d="M1076.1,252v7.9h-1.8v-7.8c0-2.9-1.5-4.4-3.9-4.4c-2.8,0-4.6,1.8-4.6,4.9v7.2h-1.8v-7.8c0-2.9-1.5-4.4-3.9-4.4
		c-2.8,0-4.6,1.8-4.6,4.9v7.2h-1.8v-13.7h1.8v2.5c1-1.6,2.7-2.6,5-2.6s4,1,4.9,2.9c1-1.8,2.9-2.9,5.4-2.9
		C1073.9,246.1,1076,248,1076.1,252L1076.1,252z"/>
	<path d="M1091.4,251.4v8.5h-1.8v-2.1c-0.8,1.4-2.4,2.3-4.7,2.3c-3.1,0-5-1.6-5-4c0-2.1,1.3-3.9,5.3-3.9h4.3v-0.8
		c0-2.3-1.3-3.6-3.9-3.6c-1.8,0-3.4,0.6-4.6,1.6l-0.8-1.4c1.4-1.2,3.4-1.9,5.6-1.9C1089.4,246.1,1091.4,247.9,1091.4,251.4
		L1091.4,251.4z M1089.6,255.8v-2.2h-4.3c-2.7,0-3.5,1-3.5,2.4c0,1.6,1.3,2.6,3.5,2.6S1088.8,257.6,1089.6,255.8L1089.6,255.8z"/>
	<path d="M168.1,304.2l0.6-1.4c0.6,0.5,1.3,0.7,2.1,0.7c1.5,0,2.3-0.9,2.3-2.6v-14.7h1.9v14.7c0,2.5-1.4,4.2-4,4.2
		C169.9,305.1,168.8,304.8,168.1,304.2L168.1,304.2z M172.7,281.9c0-0.7,0.6-1.3,1.4-1.3s1.4,0.6,1.4,1.3c0,0.8-0.6,1.4-1.4,1.4
		S172.7,282.6,172.7,281.9L172.7,281.9z"/>
	<path d="M192.5,286.2v13.7h-1.8v-2.5c-1,1.7-2.7,2.6-4.9,2.6c-3.5,0-5.8-2-5.8-5.9v-7.9h1.9v7.8c0,2.9,1.5,4.4,4.1,4.4
		c2.9,0,4.6-1.9,4.6-5v-7.2L192.5,286.2L192.5,286.2z"/>
	<path d="M204.5,286.1v1.8c-0.2,0-0.3,0-0.4,0c-2.9,0-4.6,1.8-4.6,5v7h-1.9v-13.7h1.8v2.7C200.3,287.1,202,286.1,204.5,286.1
		L204.5,286.1z"/>
	<path d="M210.7,280.9h2.5l-4.2,3.2h-1.8L210.7,280.9L210.7,280.9z M207.9,286.2h1.9v13.7h-1.9V286.2z"/>
	<path d="M227.3,280.6v19.3h-1.8v-2.7c-1.1,1.9-3,2.8-5.3,2.8c-3.9,0-6.8-2.8-6.8-7s2.9-6.9,6.8-6.9c2.2,0,4.1,0.9,5.2,2.7v-8.2
		L227.3,280.6L227.3,280.6z M225.5,293.1c0-3.2-2.2-5.3-5.1-5.3s-5.1,2.1-5.1,5.3s2.2,5.3,5.1,5.3S225.5,296.3,225.5,293.1z"/>
	<path d="M232.1,281.9c0-0.7,0.6-1.3,1.4-1.3s1.4,0.6,1.4,1.3c0,0.8-0.6,1.4-1.4,1.4S232.1,282.6,232.1,281.9L232.1,281.9z
		 M232.5,286.2h1.9v13.7h-1.9V286.2z"/>
	<path d="M238.1,293.1c0-4.1,3-6.9,7.1-6.9c2.3,0,4.3,0.9,5.4,2.7l-1.4,0.9c-0.9-1.4-2.4-2-4-2c-3,0-5.2,2.1-5.2,5.3
		s2.2,5.3,5.2,5.3c1.6,0,3-0.6,4-2l1.4,0.9c-1.1,1.8-3,2.7-5.4,2.7C241.1,300,238.1,297.1,238.1,293.1z"/>
	<path d="M252.5,293.1c0-4.1,3-6.9,7-6.9s6.9,2.9,6.9,6.9s-2.9,7-6.9,7S252.5,297.1,252.5,293.1L252.5,293.1z M264.5,293.1
		c0-3.2-2.2-5.3-5.1-5.3s-5.1,2.1-5.1,5.3s2.2,5.3,5.1,5.3S264.5,296.3,264.5,293.1z"/>
	<path d="M289.6,292v7.9h-1.9v-7.8c0-2.9-1.5-4.4-4.1-4.4c-2.9,0-4.8,1.8-4.8,4.9v7.2H277v-13.7h1.8v2.5c1-1.7,2.8-2.6,5.2-2.6
		C287.3,286.1,289.6,288,289.6,292L289.6,292z"/>
	<path d="M293.3,293.1c0-4.1,3-6.9,7-6.9s6.9,2.9,6.9,6.9s-2.9,7-6.9,7S293.3,297.1,293.3,293.1z M305.3,293.1
		c0-3.2-2.2-5.3-5.1-5.3s-5.1,2.1-5.1,5.3s2.2,5.3,5.1,5.3S305.3,296.3,305.3,293.1z"/>
	<path d="M317.8,286.1v1.8c-0.2,0-0.3,0-0.4,0c-2.9,0-4.6,1.8-4.6,5v7h-1.9v-13.7h1.8v2.7C313.6,287.1,315.3,286.1,317.8,286.1
		L317.8,286.1z"/>
	<path d="M343.7,292v7.9h-1.9v-7.8c0-2.9-1.5-4.4-3.9-4.4c-2.8,0-4.6,1.8-4.6,4.9v7.2h-1.9v-7.8c0-2.9-1.5-4.4-4-4.4
		c-2.8,0-4.6,1.8-4.6,4.9v7.2h-1.9v-13.7h1.8v2.5c1-1.6,2.7-2.6,5-2.6s4,1,4.9,2.9c1-1.8,2.9-2.9,5.4-2.9
		C341.5,286.1,343.7,288,343.7,292L343.7,292z"/>
	<path d="M359.1,291.4v8.5h-1.8v-2.1c-0.8,1.4-2.4,2.3-4.7,2.3c-3.1,0-5-1.6-5-4c0-2.1,1.4-3.9,5.3-3.9h4.3v-0.8
		c0-2.3-1.3-3.6-3.9-3.6c-1.8,0-3.4,0.6-4.5,1.6L348,288c1.4-1.2,3.4-1.9,5.6-1.9C357.1,286.1,359.1,287.9,359.1,291.4L359.1,291.4z
		 M357.2,295.8v-2.2h-4.3c-2.6,0-3.5,1-3.5,2.4c0,1.6,1.3,2.6,3.5,2.6S356.5,297.6,357.2,295.8L357.2,295.8z"/>
	<path d="M371.3,299.1c-0.7,0.6-1.8,1-2.9,1c-2.6,0-4-1.5-4-4v-8.3h-2.4v-1.6h2.4v-3h1.9v3h4.2v1.6h-4.2v8.2c0,1.6,0.8,2.5,2.4,2.5
		c0.8,0,1.5-0.2,2-0.7L371.3,299.1L371.3,299.1z"/>
	<path d="M374.2,281.9c0-0.7,0.6-1.3,1.4-1.3s1.4,0.6,1.4,1.3c0,0.8-0.6,1.4-1.4,1.4S374.2,282.6,374.2,281.9L374.2,281.9z
		 M374.6,286.2h1.9v13.7h-1.9V286.2z"/>
	<path d="M393.1,286.2l-6.1,13.7h-1.9l-6.1-13.7h1.9l5.1,11.6l5.2-11.6H393.1L393.1,286.2z"/>
	<path d="M394,293.1c0-4.1,3-6.9,7-6.9s6.9,2.9,6.9,6.9s-2.9,7-6.9,7S394,297.1,394,293.1z M406,293.1c0-3.2-2.2-5.3-5.1-5.3
		s-5.1,2.1-5.1,5.3s2.2,5.3,5.1,5.3S406,296.3,406,293.1z"/>
	<path d="M432.3,293.1c0,4.2-2.9,7-6.8,7c-2.2,0-4.1-0.9-5.2-2.7v7.6h-1.9v-18.7h1.8v2.7c1.1-1.8,3-2.8,5.3-2.8
		C429.4,286.1,432.3,288.9,432.3,293.1L432.3,293.1z M430.4,293.1c0-3.2-2.2-5.3-5.1-5.3s-5.1,2.2-5.1,5.3s2.2,5.3,5.1,5.3
		S430.4,296.3,430.4,293.1z"/>
	<path d="M443,286.1v1.8c-0.2,0-0.3,0-0.4,0c-2.9,0-4.6,1.8-4.6,5v7h-1.9v-13.7h1.8v2.7C438.7,287.1,440.4,286.1,443,286.1
		L443,286.1z"/>
	<path d="M458.1,293.6h-11.4c0.2,2.9,2.4,4.8,5.4,4.8c1.7,0,3.1-0.6,4.2-1.8l1,1.2c-1.2,1.5-3.1,2.2-5.3,2.2c-4.3,0-7.2-2.9-7.2-7
		s2.8-6.9,6.7-6.9s6.6,2.8,6.6,6.9C458.1,293.2,458.1,293.4,458.1,293.6L458.1,293.6z M446.6,292.3h9.7c-0.2-2.7-2.2-4.5-4.9-4.5
		S446.9,289.6,446.6,292.3L446.6,292.3z"/>
	<path d="M460,298.3l0.8-1.5c1.1,0.9,2.9,1.5,4.9,1.5c2.6,0,3.7-0.9,3.7-2.2c0-3.6-8.9-0.8-8.9-6.2c0-2.2,1.9-3.9,5.4-3.9
		c1.8,0,3.7,0.5,4.8,1.3l-0.8,1.5c-1.2-0.8-2.6-1.2-4-1.2c-2.5,0-3.6,1-3.6,2.3c0,3.7,8.9,0.9,8.9,6.2c0,2.4-2.1,3.9-5.6,3.9
		C463.3,300,461.1,299.3,460,298.3L460,298.3z"/>
	<path d="M472.7,298.3l0.8-1.5c1.1,0.9,2.9,1.5,4.9,1.5c2.6,0,3.7-0.9,3.7-2.2c0-3.6-8.9-0.8-8.9-6.2c0-2.2,1.9-3.9,5.4-3.9
		c1.8,0,3.7,0.5,4.8,1.3l-0.8,1.5c-1.2-0.8-2.6-1.2-4-1.2c-2.5,0-3.6,1-3.6,2.3c0,3.7,8.9,0.9,8.9,6.2c0,2.4-2.1,3.9-5.6,3.9
		C476,300,473.8,299.3,472.7,298.3L472.7,298.3z"/>
	<path d="M499.6,286.2v13.7h-1.8v-2.5c-1,1.7-2.7,2.6-4.9,2.6c-3.5,0-5.8-2-5.8-5.9v-7.9h1.9v7.8c0,2.9,1.5,4.4,4.1,4.4
		c2.9,0,4.6-1.9,4.6-5v-7.2L499.6,286.2L499.6,286.2z"/>
	<path d="M518.7,293.1c0,4.2-2.9,7-6.8,7c-2.2,0-4.1-0.9-5.2-2.7v7.6h-1.9v-18.7h1.8v2.7c1.1-1.8,3-2.8,5.3-2.8
		C515.7,286.1,518.7,288.9,518.7,293.1z M516.8,293.1c0-3.2-2.2-5.3-5.1-5.3s-5.1,2.2-5.1,5.3s2.2,5.3,5.1,5.3
		S516.8,296.3,516.8,293.1z"/>
	<path d="M521,293.1c0-4.1,3-6.9,7-6.9s6.9,2.9,6.9,6.9s-2.9,7-6.9,7S521,297.1,521,293.1z M533.1,293.1c0-3.2-2.2-5.3-5.1-5.3
		s-5.1,2.1-5.1,5.3s2.2,5.3,5.1,5.3S533.1,296.3,533.1,293.1z M526.3,282.2c-0.8,0-1.3,0.6-1.3,1.7h-1.1c0-1.7,1-2.9,2.3-2.9
		c1.6,0,2.4,1.8,3.4,1.8c0.8,0,1.3-0.6,1.3-1.6h1.1c0,1.7-1,2.8-2.3,2.8C528.1,284,527.4,282.2,526.3,282.2L526.3,282.2z"/>
	<path d="M550.6,293.6h-11.4c0.2,2.9,2.4,4.8,5.4,4.8c1.7,0,3.2-0.6,4.2-1.8l1,1.2c-1.2,1.5-3.1,2.2-5.3,2.2c-4.3,0-7.2-2.9-7.2-7
		s2.8-6.9,6.7-6.9s6.6,2.8,6.6,6.9C550.6,293.2,550.6,293.4,550.6,293.6L550.6,293.6z M539.2,292.3h9.7c-0.2-2.7-2.2-4.5-4.9-4.5
		S539.4,289.6,539.2,292.3z"/>
	<path d="M559.3,298.3l0.8-1.5c1.1,0.9,2.9,1.5,4.9,1.5c2.6,0,3.7-0.9,3.7-2.2c0-3.6-8.9-0.8-8.9-6.2c0-2.2,1.9-3.9,5.4-3.9
		c1.8,0,3.7,0.5,4.8,1.3l-0.8,1.5c-1.2-0.8-2.6-1.2-4-1.2c-2.5,0-3.6,1-3.6,2.3c0,3.7,8.9,0.9,8.9,6.2c0,2.4-2.1,3.9-5.6,3.9
		C562.6,300,560.5,299.3,559.3,298.3L559.3,298.3z"/>
	<path d="M572.6,293.1c0-4.1,3-6.9,7-6.9s6.9,2.9,6.9,6.9s-2.9,7-6.9,7S572.6,297.1,572.6,293.1z M584.6,293.1
		c0-3.2-2.2-5.3-5.1-5.3s-5.1,2.1-5.1,5.3s2.2,5.3,5.1,5.3S584.6,296.3,584.6,293.1z M581.4,280.9h2.5l-4.2,3.2h-1.8L581.4,280.9
		L581.4,280.9z"/>
	<path d="M590.2,280.6h1.8v19.3h-1.8V280.6z"/>
	<path d="M596.8,281.9c0-0.7,0.6-1.3,1.3-1.3s1.3,0.6,1.3,1.3c0,0.8-0.6,1.4-1.3,1.4S596.8,282.6,596.8,281.9L596.8,281.9z
		 M597.2,286.2h1.8v13.7h-1.8V286.2z"/>
	<path d="M616.7,280.6v19.3h-1.8v-2.7c-1.1,1.9-3,2.8-5.3,2.8c-3.9,0-6.8-2.8-6.8-7s2.9-6.9,6.8-6.9c2.2,0,4.1,0.9,5.2,2.7v-8.2
		L616.7,280.6L616.7,280.6z M614.9,293.1c0-3.2-2.2-5.3-5.1-5.3s-5.1,2.1-5.1,5.3s2.2,5.3,5.1,5.3S614.9,296.3,614.9,293.1z"/>
	<path d="M632.2,291.4v8.5h-1.8v-2.1c-0.8,1.4-2.4,2.3-4.7,2.3c-3.1,0-5-1.6-5-4c0-2.1,1.3-3.9,5.3-3.9h4.3v-0.8
		c0-2.3-1.3-3.6-3.9-3.6c-1.8,0-3.4,0.6-4.5,1.6l-0.8-1.4c1.4-1.2,3.4-1.9,5.6-1.9C630.2,286.1,632.2,287.9,632.2,291.4z
		 M630.3,295.8v-2.2h-4.3c-2.7,0-3.5,1-3.5,2.4c0,1.6,1.3,2.6,3.5,2.6S629.6,297.6,630.3,295.8L630.3,295.8z"/>
	<path d="M635.3,298.3l0.8-1.5c1.1,0.9,2.9,1.5,4.9,1.5c2.6,0,3.7-0.9,3.7-2.2c0-3.6-8.9-0.8-8.9-6.2c0-2.2,1.9-3.9,5.4-3.9
		c1.8,0,3.7,0.5,4.8,1.3l-0.8,1.5c-1.2-0.8-2.6-1.2-4-1.2c-2.5,0-3.6,1-3.6,2.3c0,3.7,8.9,0.9,8.9,6.2c0,2.4-2.1,3.9-5.6,3.9
		C638.6,300,636.4,299.3,635.3,298.3L635.3,298.3z"/>
	<path d="M663.6,286.1v1.8c-0.2,0-0.3,0-0.4,0c-2.9,0-4.6,1.8-4.6,5v7h-1.8v-13.7h1.8v2.7C659.4,287.1,661.1,286.1,663.6,286.1
		L663.6,286.1z"/>
	<path d="M678.7,293.6h-11.4c0.2,2.9,2.4,4.8,5.4,4.8c1.7,0,3.2-0.6,4.2-1.8l1,1.2c-1.2,1.5-3.1,2.2-5.3,2.2c-4.3,0-7.2-2.9-7.2-7
		s2.8-6.9,6.7-6.9s6.6,2.8,6.6,6.9C678.7,293.2,678.7,293.4,678.7,293.6L678.7,293.6z M667.3,292.3h9.7c-0.2-2.7-2.2-4.5-4.9-4.5
		S667.5,289.6,667.3,292.3z"/>
	<path d="M695.2,286.2v12c0,4.7-2.3,6.8-6.8,6.8c-2.5,0-4.9-0.8-6.4-2.1l0.9-1.4c1.3,1.2,3.3,1.9,5.4,1.9c3.5,0,5-1.6,5-5v-1.7
		c-1.1,1.7-3.1,2.6-5.3,2.6c-3.9,0-6.9-2.7-6.9-6.7s3-6.6,6.9-6.6c2.3,0,4.3,0.9,5.4,2.7v-2.6L695.2,286.2L695.2,286.2z
		 M693.4,292.7c0-3-2.2-5-5.2-5s-5.2,2-5.2,5s2.2,5,5.2,5S693.4,295.7,693.4,292.7z"/>
	<path d="M707.2,286.1v1.8c-0.2,0-0.3,0-0.4,0c-2.9,0-4.6,1.8-4.6,5v7h-1.8v-13.7h1.8v2.7C703,287.1,704.7,286.1,707.2,286.1
		L707.2,286.1z"/>
	<path d="M720.9,291.4v8.5h-1.8v-2.1c-0.8,1.4-2.4,2.3-4.7,2.3c-3.1,0-5-1.6-5-4c0-2.1,1.3-3.9,5.3-3.9h4.3v-0.8
		c0-2.3-1.3-3.6-3.9-3.6c-1.8,0-3.4,0.6-4.5,1.6l-0.8-1.4c1.4-1.2,3.4-1.9,5.6-1.9C718.9,286.1,720.9,287.9,720.9,291.4z M719,295.8
		v-2.2h-4.3c-2.7,0-3.5,1-3.5,2.4c0,1.6,1.3,2.6,3.5,2.6S718.3,297.6,719,295.8L719,295.8z"/>
	<path d="M724,298.3l0.8-1.5c1.1,0.9,2.9,1.5,4.9,1.5c2.6,0,3.7-0.9,3.7-2.2c0-3.6-8.9-0.8-8.9-6.2c0-2.2,1.9-3.9,5.4-3.9
		c1.8,0,3.7,0.5,4.8,1.3l-0.8,1.5c-1.2-0.8-2.6-1.2-4-1.2c-2.5,0-3.6,1-3.6,2.3c0,3.7,8.9,0.9,8.9,6.2c0,2.4-2.1,3.9-5.6,3.9
		C727.3,300,725.1,299.3,724,298.3L724,298.3z"/>
	<path d="M757.9,280.6v19.3h-1.8v-2.7c-1.1,1.9-3,2.8-5.3,2.8c-3.9,0-6.8-2.8-6.8-7s2.9-6.9,6.8-6.9c2.2,0,4.1,0.9,5.2,2.7v-8.2
		L757.9,280.6L757.9,280.6z M756.1,293.1c0-3.2-2.2-5.3-5.1-5.3s-5.1,2.1-5.1,5.3s2.2,5.3,5.1,5.3S756.1,296.3,756.1,293.1z"/>
	<path d="M775,293.6h-11.4c0.2,2.9,2.4,4.8,5.4,4.8c1.7,0,3.2-0.6,4.2-1.8l1,1.2c-1.2,1.5-3.1,2.2-5.3,2.2c-4.3,0-7.2-2.9-7.2-7
		s2.8-6.9,6.7-6.9s6.6,2.8,6.6,6.9C775,293.2,774.9,293.4,775,293.6L775,293.6z M763.5,292.3h9.7c-0.2-2.7-2.2-4.5-4.9-4.5
		S763.8,289.6,763.5,292.3z"/>
	<path d="M783.7,298.3l0.8-1.5c1.1,0.9,2.9,1.5,4.9,1.5c2.6,0,3.7-0.9,3.7-2.2c0-3.6-8.9-0.8-8.9-6.2c0-2.2,1.9-3.9,5.4-3.9
		c1.8,0,3.7,0.5,4.8,1.3l-0.8,1.5c-1.2-0.8-2.6-1.2-4-1.2c-2.5,0-3.6,1-3.6,2.3c0,3.7,8.9,0.9,8.9,6.2c0,2.4-2.1,3.9-5.6,3.9
		C787,300,784.8,299.3,783.7,298.3L783.7,298.3z"/>
	<path d="M796.9,293.1c0-4.1,3-6.9,7-6.9s6.9,2.9,6.9,6.9s-2.9,7-6.9,7S796.9,297.1,796.9,293.1z M808.9,293.1
		c0-3.2-2.2-5.3-5.1-5.3s-5.1,2.1-5.1,5.3s2.2,5.3,5.1,5.3S808.9,296.3,808.9,293.1z"/>
	<path d="M814.6,280.6h1.8v19.3h-1.8V280.6z"/>
	<path d="M833.9,286.2v13.7h-1.8v-2.5c-1,1.7-2.7,2.6-4.9,2.6c-3.5,0-5.8-2-5.8-5.9v-7.9h1.8v7.8c0,2.9,1.5,4.4,4.1,4.4
		c2.9,0,4.7-1.9,4.7-5v-7.2L833.9,286.2L833.9,286.2z"/>
	<path d="M848.7,296.4l1.4,0.9c-1.1,1.8-3,2.7-5.4,2.7h0l-0.3,1.2c1.4,0.1,2.2,1,2.2,2.1c0,1.4-1.2,2.3-2.9,2.3
		c-0.9,0-1.6-0.2-2.2-0.6l0.4-1c0.5,0.3,1.1,0.5,1.7,0.5c1,0,1.6-0.4,1.6-1.2c0-0.7-0.5-1.2-1.6-1.2H843l0.6-2.2
		c-3.5-0.5-5.9-3.2-5.9-6.9c0-4.1,3-6.9,7-6.9c2.3,0,4.3,0.9,5.4,2.7l-1.4,0.9c-0.9-1.4-2.4-2-4-2c-3,0-5.2,2.1-5.2,5.3
		s2.2,5.3,5.2,5.3C846.3,298.4,847.8,297.8,848.7,296.4L848.7,296.4z"/>
	<path d="M864,291.4v8.5h-1.8v-2.1c-0.8,1.4-2.4,2.3-4.7,2.3c-3.1,0-5-1.6-5-4c0-2.1,1.3-3.9,5.3-3.9h4.3v-0.8
		c0-2.3-1.3-3.6-3.9-3.6c-1.8,0-3.4,0.6-4.5,1.6l-0.8-1.4c1.4-1.2,3.4-1.9,5.6-1.9C862,286.1,864,287.9,864,291.4L864,291.4z
		 M862.2,295.8v-2.2h-4.3c-2.7,0-3.5,1-3.5,2.4c0,1.6,1.3,2.6,3.5,2.6S861.5,297.6,862.2,295.8L862.2,295.8z M855.6,283.9h-1.1
		c0-1.7,1-2.9,2.3-2.9c1.6,0,2.4,1.8,3.4,1.8c0.8,0,1.3-0.6,1.3-1.6h1.1c0,1.7-1,2.8-2.3,2.8c-1.6,0-2.4-1.8-3.4-1.8
		C856.1,282.2,855.6,282.8,855.6,283.9L855.6,283.9z"/>
	<path d="M867.7,293.1c0-4.1,3-6.9,7-6.9s6.9,2.9,6.9,6.9s-2.9,7-6.9,7S867.7,297.1,867.7,293.1z M879.8,293.1
		c0-3.2-2.2-5.3-5.1-5.3s-5.1,2.1-5.1,5.3s2.2,5.3,5.1,5.3S879.8,296.3,879.8,293.1z"/>
	<path d="M904.7,280.6v19.3h-1.8v-2.7c-1.1,1.9-3,2.8-5.3,2.8c-3.9,0-6.8-2.8-6.8-7s2.9-6.9,6.8-6.9c2.2,0,4.1,0.9,5.2,2.7v-8.2
		L904.7,280.6L904.7,280.6z M902.9,293.1c0-3.2-2.2-5.3-5.1-5.3s-5.1,2.1-5.1,5.3s2.2,5.3,5.1,5.3S902.9,296.3,902.9,293.1z"/>
	<path d="M921.8,293.6h-11.4c0.2,2.9,2.4,4.8,5.4,4.8c1.7,0,3.2-0.6,4.2-1.8l1,1.2c-1.2,1.5-3.1,2.2-5.3,2.2c-4.3,0-7.2-2.9-7.2-7
		s2.8-6.9,6.7-6.9s6.6,2.8,6.6,6.9C921.8,293.2,921.7,293.4,921.8,293.6L921.8,293.6z M910.3,292.3h9.7c-0.2-2.7-2.2-4.5-4.9-4.5
		S910.6,289.6,910.3,292.3z"/>
	<path d="M942.7,291.4v8.5h-1.8v-2.1c-0.8,1.4-2.4,2.3-4.7,2.3c-3.1,0-5-1.6-5-4c0-2.1,1.3-3.9,5.3-3.9h4.3v-0.8
		c0-2.3-1.3-3.6-3.9-3.6c-1.8,0-3.4,0.6-4.5,1.6l-0.8-1.4c1.4-1.2,3.4-1.9,5.6-1.9C940.7,286.1,942.7,287.9,942.7,291.4L942.7,291.4
		z M940.8,295.8v-2.2h-4.3c-2.7,0-3.5,1-3.5,2.4c0,1.6,1.3,2.6,3.5,2.6S940.1,297.6,940.8,295.8L940.8,295.8z"/>
	<path d="M960.3,292v7.9h-1.8v-7.8c0-2.9-1.5-4.4-4.1-4.4c-2.9,0-4.8,1.8-4.8,4.9v7.2h-1.8v-13.7h1.8v2.5c1-1.7,2.8-2.6,5.2-2.6
		C958,286.1,960.3,288,960.3,292L960.3,292z"/>
	<path d="M972.5,299.1c-0.7,0.6-1.8,1-2.9,1c-2.6,0-4-1.5-4-4v-8.3h-2.4v-1.6h2.4v-3h1.8v3h4.2v1.6h-4.2v8.2c0,1.6,0.8,2.5,2.4,2.5
		c0.8,0,1.5-0.2,2-0.7L972.5,299.1L972.5,299.1z"/>
	<path d="M975.4,281.9c0-0.7,0.6-1.3,1.3-1.3s1.3,0.6,1.3,1.3c0,0.8-0.6,1.4-1.3,1.4S975.4,282.6,975.4,281.9L975.4,281.9z
		 M975.9,286.2h1.8v13.7h-1.8V286.2z"/>
	<path d="M995.4,292v7.9h-1.8v-7.8c0-2.9-1.5-4.4-4.1-4.4c-2.9,0-4.8,1.8-4.8,4.9v7.2h-1.8v-13.7h1.8v2.5c1-1.7,2.8-2.6,5.2-2.6
		C993.1,286.1,995.4,288,995.4,292L995.4,292z"/>
	<path d="M999.1,293.1c0-4.1,3-6.9,7-6.9s6.9,2.9,6.9,6.9s-2.9,7-6.9,7S999.1,297.1,999.1,293.1z M1011.2,293.1
		c0-3.2-2.2-5.3-5.1-5.3s-5.1,2.1-5.1,5.3s2.2,5.3,5.1,5.3S1011.2,296.3,1011.2,293.1z"/>
	<path d="M1039.4,292v7.9h-1.8v-7.8c0-2.9-1.5-4.4-3.9-4.4c-2.8,0-4.6,1.8-4.6,4.9v7.2h-1.8v-7.8c0-2.9-1.5-4.4-4-4.4
		c-2.8,0-4.6,1.8-4.6,4.9v7.2h-1.8v-13.7h1.8v2.5c1-1.6,2.7-2.6,5-2.6s4,1,4.9,2.9c1-1.8,2.9-2.9,5.4-2.9
		C1037.2,286.1,1039.4,288,1039.4,292L1039.4,292z"/>
	<path d="M1044,281.9c0-0.7,0.6-1.3,1.3-1.3s1.3,0.6,1.3,1.3c0,0.8-0.6,1.4-1.3,1.4S1044,282.6,1044,281.9L1044,281.9z
		 M1044.4,286.2h1.8v13.7h-1.8V286.2z"/>
	<path d="M1061.7,291.4v8.5h-1.8v-2.1c-0.8,1.4-2.4,2.3-4.7,2.3c-3.1,0-5-1.6-5-4c0-2.1,1.3-3.9,5.3-3.9h4.3v-0.8
		c0-2.3-1.3-3.6-3.9-3.6c-1.8,0-3.4,0.6-4.6,1.6l-0.8-1.4c1.4-1.2,3.4-1.9,5.6-1.9C1059.7,286.1,1061.7,287.9,1061.7,291.4
		L1061.7,291.4z M1059.9,295.8v-2.2h-4.3c-2.7,0-3.5,1-3.5,2.4c0,1.6,1.3,2.6,3.5,2.6S1059.1,297.6,1059.9,295.8L1059.9,295.8z"/>
	<path d="M1064.8,298.3l0.8-1.5c1.1,0.9,2.9,1.5,4.9,1.5c2.6,0,3.7-0.9,3.7-2.2c0-3.6-8.9-0.8-8.9-6.2c0-2.2,1.9-3.9,5.4-3.9
		c1.8,0,3.7,0.5,4.8,1.3l-0.8,1.5c-1.2-0.8-2.6-1.2-4-1.2c-2.5,0-3.6,1-3.6,2.3c0,3.7,8.9,0.9,8.9,6.2c0,2.4-2.1,3.9-5.6,3.9
		C1068.1,300,1065.9,299.3,1064.8,298.3L1064.8,298.3z"/>
	<path d="M1078.2,298.6c0-0.8,0.6-1.4,1.4-1.4s1.4,0.6,1.4,1.4s-0.7,1.4-1.4,1.4S1078.2,299.4,1078.2,298.6z"/>
	<path d="M186.3,338.2v1.7h-12.9v-18.2h12.5v1.7h-10.6v6.5h9.4v1.6h-9.4v6.8L186.3,338.2L186.3,338.2z M179.8,320.2H178l3.6-3.2h2.5
		L179.8,320.2L179.8,320.2z"/>
	<path d="M211.1,333.1c0,4.2-2.9,7-6.8,7c-2.2,0-4.1-0.9-5.2-2.7v7.6h-1.9v-18.7h1.8v2.7c1.1-1.8,3-2.8,5.3-2.8
		C208.2,326.1,211.1,328.9,211.1,333.1z M209.2,333.1c0-3.2-2.2-5.3-5.1-5.3s-5.1,2.2-5.1,5.3s2.2,5.3,5.1,5.3
		S209.2,336.3,209.2,333.1z"/>
	<path d="M221.7,326.1v1.8c-0.2,0-0.3,0-0.4,0c-2.9,0-4.6,1.8-4.6,5v7h-1.9v-13.7h1.8v2.7C217.5,327.1,219.2,326.1,221.7,326.1
		L221.7,326.1z"/>
	<path d="M236.8,333.6h-11.4c0.2,2.9,2.4,4.8,5.4,4.8c1.7,0,3.1-0.6,4.2-1.8l1,1.2c-1.2,1.5-3.1,2.2-5.3,2.2c-4.3,0-7.2-2.9-7.2-7
		s2.8-6.9,6.7-6.9s6.6,2.8,6.6,6.9C236.9,333.2,236.8,333.4,236.8,333.6L236.8,333.6z M225.4,332.3h9.7c-0.2-2.7-2.2-4.5-4.9-4.5
		S225.6,329.6,225.4,332.3z"/>
	<path d="M239.3,333.1c0-4.1,3-6.9,7.1-6.9c2.3,0,4.3,0.9,5.4,2.7l-1.4,0.9c-0.9-1.4-2.4-2-4-2c-3,0-5.2,2.1-5.2,5.3
		s2.2,5.3,5.2,5.3c1.6,0,3-0.6,4-2l1.4,0.9c-1.1,1.8-3,2.7-5.4,2.7C242.2,340,239.3,337.1,239.3,333.1z"/>
	<path d="M254.9,321.9c0-0.7,0.6-1.3,1.3-1.3c0.7,0,1.4,0.6,1.4,1.3c0,0.8-0.6,1.4-1.4,1.4S254.9,322.6,254.9,321.9L254.9,321.9z
		 M255.3,326.2h1.9v13.7h-1.9V326.2z"/>
	<path d="M260.4,338.3l0.8-1.5c1.1,0.9,2.9,1.5,4.9,1.5c2.6,0,3.7-0.9,3.7-2.2c0-3.6-8.9-0.8-8.9-6.2c0-2.2,1.9-3.9,5.4-3.9
		c1.8,0,3.7,0.5,4.8,1.3l-0.8,1.5c-1.2-0.8-2.6-1.2-4-1.2c-2.5,0-3.6,1-3.6,2.3c0,3.7,8.9,0.9,8.9,6.2c0,2.4-2.1,3.9-5.6,3.9
		C263.7,340,261.5,339.3,260.4,338.3L260.4,338.3z"/>
	<path d="M273.6,333.1c0-4.1,3-6.9,7-6.9s6.9,2.9,6.9,6.9s-2.9,7-6.9,7S273.6,337.1,273.6,333.1z M285.6,333.1
		c0-3.2-2.2-5.3-5.1-5.3s-5.1,2.1-5.1,5.3s2.2,5.3,5.1,5.3S285.6,336.3,285.6,333.1z"/>
	<path d="M310.8,326.2v12c0,4.7-2.3,6.8-6.8,6.8c-2.5,0-4.9-0.8-6.4-2.1l0.9-1.4c1.3,1.2,3.3,1.9,5.4,1.9c3.5,0,5-1.6,5-5v-1.7
		c-1.1,1.7-3.1,2.6-5.3,2.6c-3.9,0-6.9-2.7-6.9-6.7s3-6.6,6.9-6.6c2.3,0,4.3,0.9,5.4,2.7v-2.6L310.8,326.2L310.8,326.2z M309,332.7
		c0-3-2.2-5-5.2-5s-5.2,2-5.2,5s2.2,5,5.2,5S309,335.7,309,332.7z"/>
	<path d="M326.2,331.4v8.5h-1.8v-2.1c-0.8,1.4-2.4,2.3-4.7,2.3c-3.1,0-5-1.6-5-4c0-2.1,1.4-3.9,5.3-3.9h4.3v-0.8
		c0-2.3-1.3-3.6-3.9-3.6c-1.8,0-3.4,0.6-4.5,1.6l-0.8-1.4c1.4-1.2,3.4-1.9,5.6-1.9C324.3,326.1,326.3,327.9,326.2,331.4L326.2,331.4
		z M324.4,335.8v-2.2h-4.3c-2.6,0-3.5,1-3.5,2.4c0,1.6,1.3,2.6,3.5,2.6S323.7,337.6,324.4,335.8L324.4,335.8z"/>
	<path d="M338.2,326.1v1.8c-0.2,0-0.3,0-0.4,0c-2.9,0-4.6,1.8-4.6,5v7h-1.9v-13.7h1.8v2.7C333.9,327.1,335.6,326.1,338.2,326.1
		L338.2,326.1z"/>
	<path d="M351.8,331.4v8.5H350v-2.1c-0.8,1.4-2.4,2.3-4.7,2.3c-3.1,0-5-1.6-5-4c0-2.1,1.4-3.9,5.3-3.9h4.3v-0.8
		c0-2.3-1.3-3.6-3.9-3.6c-1.8,0-3.4,0.6-4.5,1.6l-0.8-1.4c1.4-1.2,3.4-1.9,5.6-1.9C349.8,326.1,351.8,327.9,351.8,331.4L351.8,331.4
		z M349.9,335.8v-2.2h-4.3c-2.6,0-3.5,1-3.5,2.4c0,1.6,1.3,2.6,3.5,2.6S349.2,337.6,349.9,335.8L349.9,335.8z"/>
	<path d="M369.4,332v7.9h-1.9v-7.8c0-2.9-1.5-4.4-4.1-4.4c-2.9,0-4.8,1.8-4.8,4.9v7.2h-1.9v-13.7h1.8v2.5c1-1.7,2.8-2.6,5.2-2.6
		C367.1,326.1,369.4,328,369.4,332L369.4,332z"/>
	<path d="M381.6,339.1c-0.7,0.6-1.8,1-2.9,1c-2.6,0-4-1.5-4-4v-8.3h-2.4v-1.6h2.4v-3h1.9v3h4.2v1.6h-4.2v8.2c0,1.6,0.8,2.5,2.4,2.5
		c0.8,0,1.5-0.2,2-0.7L381.6,339.1L381.6,339.1z"/>
	<path d="M384.5,321.9c0-0.7,0.6-1.3,1.4-1.3s1.4,0.6,1.4,1.3c0,0.8-0.6,1.4-1.4,1.4S384.5,322.6,384.5,321.9L384.5,321.9z
		 M385,326.2h1.9v13.7H385V326.2z"/>
	<path d="M398.8,326.1v1.8c-0.2,0-0.3,0-0.4,0c-2.9,0-4.6,1.8-4.6,5v7h-1.9v-13.7h1.8v2.7C394.6,327.1,396.3,326.1,398.8,326.1
		L398.8,326.1z"/>
	<path d="M419.5,331.4v8.5h-1.8v-2.1c-0.8,1.4-2.4,2.3-4.7,2.3c-3.1,0-5-1.6-5-4c0-2.1,1.4-3.9,5.3-3.9h4.3v-0.8
		c0-2.3-1.3-3.6-3.9-3.6c-1.8,0-3.4,0.6-4.5,1.6l-0.8-1.4c1.4-1.2,3.4-1.9,5.6-1.9C417.5,326.1,419.5,327.9,419.5,331.4L419.5,331.4
		z M417.7,335.8v-2.2h-4.3c-2.6,0-3.5,1-3.5,2.4c0,1.6,1.3,2.6,3.5,2.6S416.9,337.6,417.7,335.8L417.7,335.8z"/>
	<path d="M429.4,338.3l0.8-1.5c1.1,0.9,2.9,1.5,4.9,1.5c2.6,0,3.7-0.9,3.7-2.2c0-3.6-8.9-0.8-8.9-6.2c0-2.2,1.9-3.9,5.4-3.9
		c1.8,0,3.7,0.5,4.8,1.3l-0.8,1.5c-1.2-0.8-2.6-1.2-4-1.2c-2.5,0-3.6,1-3.6,2.3c0,3.7,8.9,0.9,8.9,6.2c0,2.4-2.1,3.9-5.6,3.9
		C432.7,340,430.6,339.3,429.4,338.3L429.4,338.3z"/>
	<path d="M456.4,326.2v13.7h-1.8v-2.5c-1,1.7-2.7,2.6-4.9,2.6c-3.5,0-5.8-2-5.8-5.9v-7.9h1.9v7.8c0,2.9,1.5,4.4,4.1,4.4
		c2.9,0,4.6-1.9,4.6-5v-7.2L456.4,326.2L456.4,326.2z"/>
	<path d="M471.9,331.4v8.5h-1.8v-2.1c-0.8,1.4-2.4,2.3-4.7,2.3c-3.1,0-5-1.6-5-4c0-2.1,1.4-3.9,5.3-3.9h4.3v-0.8
		c0-2.3-1.3-3.6-3.9-3.6c-1.8,0-3.4,0.6-4.5,1.6l-0.8-1.4c1.4-1.2,3.4-1.9,5.6-1.9C469.9,326.1,471.9,327.9,471.9,331.4L471.9,331.4
		z M470,335.8v-2.2h-4.3c-2.6,0-3.5,1-3.5,2.4c0,1.6,1.3,2.6,3.5,2.6S469.3,337.6,470,335.8L470,335.8z"/>
	<path d="M496,326.2v13.7h-1.8v-2.5c-1,1.7-2.7,2.6-4.9,2.6c-3.5,0-5.8-2-5.8-5.9v-7.9h1.9v7.8c0,2.9,1.5,4.4,4.1,4.4
		c2.9,0,4.6-1.9,4.6-5v-7.2L496,326.2L496,326.2z"/>
	<path d="M513.8,332v7.9h-1.9v-7.8c0-2.9-1.5-4.4-4.1-4.4c-2.9,0-4.8,1.8-4.8,4.9v7.2h-1.9v-13.7h1.8v2.5c1-1.7,2.8-2.6,5.2-2.6
		C511.5,326.1,513.8,328,513.8,332L513.8,332z"/>
	<path d="M518.4,321.9c0-0.7,0.6-1.3,1.3-1.3s1.3,0.6,1.3,1.3c0,0.8-0.6,1.4-1.3,1.4S518.4,322.6,518.4,321.9L518.4,321.9z
		 M518.8,326.2h1.8v13.7h-1.8V326.2z"/>
	<path d="M538.3,320.6v19.3h-1.8v-2.7c-1.1,1.9-3,2.8-5.3,2.8c-3.9,0-6.8-2.8-6.8-7s2.9-6.9,6.8-6.9c2.2,0,4.1,0.9,5.2,2.7v-8.2
		L538.3,320.6L538.3,320.6z M536.5,333.1c0-3.2-2.2-5.3-5.1-5.3s-5.1,2.1-5.1,5.3s2.2,5.3,5.1,5.3S536.5,336.3,536.5,333.1z"/>
	<path d="M553.8,331.4v8.5H552v-2.1c-0.8,1.4-2.4,2.3-4.7,2.3c-3.1,0-5-1.6-5-4c0-2.1,1.3-3.9,5.3-3.9h4.3v-0.8
		c0-2.3-1.3-3.6-3.9-3.6c-1.8,0-3.4,0.6-4.5,1.6l-0.8-1.4c1.4-1.2,3.4-1.9,5.6-1.9C551.8,326.1,553.8,327.9,553.8,331.4z
		 M551.9,335.8v-2.2h-4.3c-2.7,0-3.5,1-3.5,2.4c0,1.6,1.3,2.6,3.5,2.6S551.2,337.6,551.9,335.8L551.9,335.8z"/>
	<path d="M571.3,320.6v19.3h-1.8v-2.7c-1.1,1.9-3,2.8-5.3,2.8c-3.9,0-6.8-2.8-6.8-7s2.9-6.9,6.8-6.9c2.2,0,4.1,0.9,5.2,2.7v-8.2
		L571.3,320.6L571.3,320.6z M569.5,333.1c0-3.2-2.2-5.3-5.1-5.3s-5.1,2.1-5.1,5.3s2.2,5.3,5.1,5.3S569.5,336.3,569.5,333.1z"/>
	<path d="M588.3,333.6h-11.4c0.2,2.9,2.4,4.8,5.4,4.8c1.7,0,3.2-0.6,4.2-1.8l1,1.2c-1.2,1.5-3.1,2.2-5.3,2.2c-4.3,0-7.2-2.9-7.2-7
		s2.8-6.9,6.7-6.9s6.6,2.8,6.6,6.9C588.4,333.2,588.3,333.4,588.3,333.6L588.3,333.6z M576.9,332.3h9.7c-0.2-2.7-2.2-4.5-4.9-4.5
		S577.2,329.6,576.9,332.3z"/>
	<path d="M611.5,332v7.9h-1.8v-7.8c0-2.9-1.5-4.4-4.1-4.4c-2.9,0-4.8,1.8-4.8,4.9v7.2H599v-13.7h1.8v2.5c1-1.7,2.8-2.6,5.2-2.6
		C609.3,326.1,611.6,328,611.5,332L611.5,332z"/>
	<path d="M615.2,333.1c0-4.1,3-6.9,7-6.9s6.9,2.9,6.9,6.9s-2.9,7-6.9,7S615.2,337.1,615.2,333.1z M627.3,333.1
		c0-3.2-2.2-5.3-5.1-5.3s-5.1,2.1-5.1,5.3s2.2,5.3,5.1,5.3S627.3,336.3,627.3,333.1z"/>
	<path d="M639.8,326.1v1.8c-0.2,0-0.3,0-0.4,0c-2.9,0-4.6,1.8-4.6,5v7h-1.8v-13.7h1.8v2.7C635.6,327.1,637.3,326.1,639.8,326.1
		L639.8,326.1z"/>
	<path d="M665.7,332v7.9h-1.8v-7.8c0-2.9-1.5-4.4-3.9-4.4c-2.8,0-4.6,1.8-4.6,4.9v7.2h-1.8v-7.8c0-2.9-1.5-4.4-4-4.4
		c-2.8,0-4.6,1.8-4.6,4.9v7.2h-1.8v-13.7h1.8v2.5c1-1.6,2.7-2.6,5-2.6s4,1,4.9,2.9c1-1.8,2.9-2.9,5.4-2.9
		C663.5,326.1,665.7,328,665.7,332L665.7,332z"/>
	<path d="M681,331.4v8.5h-1.8v-2.1c-0.8,1.4-2.4,2.3-4.7,2.3c-3.1,0-5-1.6-5-4c0-2.1,1.3-3.9,5.3-3.9h4.3v-0.8
		c0-2.3-1.3-3.6-3.9-3.6c-1.8,0-3.4,0.6-4.5,1.6l-0.8-1.4c1.4-1.2,3.4-1.9,5.6-1.9C679,326.1,681,327.9,681,331.4z M679.2,335.8
		v-2.2h-4.3c-2.7,0-3.5,1-3.5,2.4c0,1.6,1.3,2.6,3.5,2.6S678.5,337.6,679.2,335.8L679.2,335.8z"/>
	<path d="M693.3,339.1c-0.7,0.6-1.8,1-2.9,1c-2.6,0-4-1.5-4-4v-8.3h-2.4v-1.6h2.4v-3h1.8v3h4.2v1.6h-4.2v8.2c0,1.6,0.8,2.5,2.4,2.5
		c0.8,0,1.5-0.2,2-0.7L693.3,339.1L693.3,339.1z"/>
	<path d="M696.2,321.9c0-0.7,0.6-1.3,1.3-1.3s1.3,0.6,1.3,1.3c0,0.8-0.6,1.4-1.3,1.4S696.2,322.6,696.2,321.9L696.2,321.9z
		 M696.6,326.2h1.8v13.7h-1.8V326.2z"/>
	<path d="M715.1,326.2l-6.1,13.7h-1.9l-6.1-13.7h1.9l5.1,11.6l5.2-11.6H715.1L715.1,326.2z"/>
	<path d="M727.6,331.4v8.5h-1.8v-2.1c-0.8,1.4-2.4,2.3-4.7,2.3c-3.1,0-5-1.6-5-4c0-2.1,1.3-3.9,5.3-3.9h4.3v-0.8
		c0-2.3-1.3-3.6-3.9-3.6c-1.8,0-3.4,0.6-4.5,1.6l-0.8-1.4c1.4-1.2,3.4-1.9,5.6-1.9C725.6,326.1,727.6,327.9,727.6,331.4z
		 M725.8,335.8v-2.2h-4.3c-2.7,0-3.5,1-3.5,2.4c0,1.6,1.3,2.6,3.5,2.6S725,337.6,725.8,335.8L725.8,335.8z"/>
	<path d="M731.4,338.6c0-0.8,0.6-1.4,1.4-1.4s1.4,0.6,1.4,1.4s-0.7,1.4-1.4,1.4S731.4,339.4,731.4,338.6z"/>
</g>
<g id="Grupo_2859" transform="translate(181.329 0.194)">
	<g id="Grupo_2857">
		<path id="Caminho_10679" class="st2" d="M-91.3,54.9h-43.9l-21.8,37.9l21.8,38h43.9l21.8-38L-91.3,54.9z"/>
		<path id="Caminho_10680" class="st2" d="M-74.9,25h-43.8l-22,38l22,38h43.8l22-38L-74.9,25z"/>
		<path id="Caminho_10681" class="st3" d="M-77.3,29.2h-56.2l-28.1,48.7l28.1,48.7h56.2L-49,77.9L-77.3,29.2z"/>
		<line id="Linha_22" class="st4" x1="-59.1" y1="78.2" x2="-81.6" y2="39.3"/>
		<line id="Linha_23" class="st4" x1="-149.1" y1="78.2" x2="-126.5" y2="117.2"/>
		<path id="Caminho_10682" class="st5" d="M-94.7,17.4h-2.6l-0.9,1.4h-40.8L-159.3,54h-1.9l-1.4,2.3l1.4,2.2h2.6l1.4-2.2l-1-1.7
			l20-34.7h39.8l1.1,2h2.6l1.4-2.3L-94.7,17.4z"/>
		<path id="Caminho_10683" class="st5" d="M-49,100l-1.4-2.2H-53l-1.4,2.2l1,1.6l-20,34.8h-39.8l-1.1-2h-2.6l-1.4,2.3l1.4,2.2h2.6
			l0.9-1.4h40.8l20.4-35.4h1.9L-49,100z"/>
		<g id="Grupo_2856" transform="translate(18.032 17.863)">
			<path id="Caminho_10684" class="st6" d="M-107.6,37.5c-6.2-4-13.9-5.1-21-2.8c-9.8,3.1-16.7,11.9-17.5,22.1
				c-0.4,4.2,0.4,8.5,2.2,12.3c0.1,0.4,0.3,0.7,0.5,1c1,1.9,2.3,3.6,3.6,5.6c-0.1,0.2-0.3,0.3-0.5,0.4l-5.4,5.4
				c-0.5,0.4-0.6,1.2-0.2,1.7c0.1,0.1,0.2,0.2,0.3,0.3c0.4,0.2,0.7,0.2,1.1,0.2h23.3c1.6,0,3.1-0.1,4.7-0.4
				c13.6-2.6,22.5-15.8,19.9-29.4C-97.9,47.1-101.9,41.2-107.6,37.5L-107.6,37.5z"/>
			<path id="Caminho_10685" class="st3" d="M-122.8,61.4c-0.3-0.8-0.5-1.6-0.7-2.5c-1.1-3.5-1.7-7.2-1.9-10.8
				c-0.1-1.7,0.2-3.3,1-4.8c0.8-1,2.1-1.6,3.5-1.5c2.7,0,4.1,2.2,4.1,6.5c-0.4,3.5-1,7-2,10.5c-0.4,1.5-0.6,2.3-0.7,2.7
				c-0.2,0.7-0.9,1.2-1.6,1.2C-121.9,62.8-122.4,62.3-122.8,61.4L-122.8,61.4z M-124,74c1.6,1.6,4.3,1.6,5.9,0c0,0,0,0,0,0
				c1.6-1.6,1.6-4.3,0-5.9c0,0,0,0,0,0c-1.6-1.6-4.3-1.6-5.9,0c0,0,0,0,0,0C-125.7,69.7-125.7,72.3-124,74C-124.1,74-124,74-124,74z
				"/>
		</g>
	</g>
</g>
</svg>
