<?xml version="1.0" encoding="utf-8"?>
<!-- Generator: Adobe Illustrator 27.2.0, SVG Export Plug-In . SVG Version: 6.00 Build 0)  -->
<svg version="1.1" id="Layer_1" xmlns="http://www.w3.org/2000/svg" xmlns:xlink="http://www.w3.org/1999/xlink" x="0px" y="0px"
	 viewBox="0 0 888.5 258.4" style="enable-background:new 0 0 888.5 258.4;" xml:space="preserve">
<style type="text/css">
	.st0{fill:none;stroke:#007E80;stroke-miterlimit:10;}
	.st1{fill:#007E80;}
	.st2{fill:#FFFFFF;}
</style>
<g>
	<rect x="71.7" y="87.5" class="st0" width="765.1" height="113.9"/>
	<rect x="51.7" y="56.9" class="st1" width="774.1" height="131.3"/>
	<g>
		<path class="st2" d="M106.9,119.1h-3l-3.7-7.5h4.7L106.9,119.1z M113.8,119.1h-3l-3.7-7.5h4.7L113.8,119.1z"/>
		<path class="st2" d="M132.9,125.4c0,1.9-0.8,3.4-2.4,4.5c-1.6,1.2-3.7,1.7-6.4,1.7c-1.6,0-2.9-0.1-4.1-0.4c-1.2-0.3-2.3-0.6-3.3-1
			v-4.5h0.5c1,0.8,2.1,1.4,3.4,1.9s2.4,0.6,3.6,0.6c0.3,0,0.7,0,1.2-0.1s0.9-0.1,1.2-0.3c0.4-0.2,0.7-0.3,0.9-0.6s0.4-0.6,0.4-1
			c0-0.4-0.2-0.8-0.5-1.1c-0.4-0.3-0.9-0.5-1.5-0.7c-0.7-0.2-1.5-0.3-2.3-0.5c-0.8-0.1-1.5-0.3-2.2-0.6c-1.6-0.5-2.7-1.2-3.4-2.1
			c-0.7-0.9-1-2-1-3.3c0-1.8,0.8-3.2,2.4-4.3c1.6-1.1,3.6-1.7,6.1-1.7c1.2,0,2.5,0.1,3.7,0.4c1.2,0.2,2.3,0.5,3.2,0.9v4.4h-0.5
			c-0.8-0.6-1.7-1.1-2.8-1.5c-1.1-0.4-2.2-0.6-3.4-0.6c-0.4,0-0.8,0-1.2,0.1c-0.4,0.1-0.8,0.2-1.2,0.3c-0.3,0.1-0.6,0.3-0.9,0.6
			c-0.2,0.3-0.4,0.6-0.4,0.9c0,0.5,0.2,0.9,0.6,1.1c0.4,0.3,1.1,0.5,2.2,0.7c0.7,0.1,1.4,0.3,2,0.4s1.3,0.3,2.1,0.6
			c1.4,0.5,2.5,1.1,3.2,1.9C132.6,123,132.9,124.1,132.9,125.4z"/>
		<path class="st2" d="M150.6,124.2c0,2.3-0.7,4.2-2.1,5.5c-1.4,1.3-3.3,2-5.8,2s-4.4-0.7-5.8-2c-1.4-1.4-2.1-3.2-2.1-5.5
			c0-2.4,0.7-4.2,2.1-5.6s3.3-2,5.7-2c2.5,0,4.4,0.7,5.8,2S150.6,121.9,150.6,124.2z M144.9,127.7c0.3-0.4,0.5-0.8,0.7-1.3
			c0.1-0.5,0.2-1.2,0.2-2.1c0-0.8-0.1-1.5-0.2-2.1s-0.4-1-0.6-1.4c-0.3-0.3-0.6-0.6-1-0.7s-0.8-0.2-1.2-0.2s-0.8,0.1-1.2,0.2
			s-0.7,0.4-1,0.7c-0.3,0.3-0.5,0.8-0.7,1.4s-0.2,1.3-0.2,2.2c0,0.8,0.1,1.5,0.2,2c0.1,0.6,0.4,1,0.6,1.4c0.3,0.3,0.6,0.6,1,0.7
			s0.8,0.2,1.3,0.2c0.4,0,0.8-0.1,1.2-0.2C144.4,128.2,144.7,128,144.9,127.7z"/>
		<path class="st2" d="M168.7,124c0,2.2-0.6,4.1-1.9,5.5c-1.2,1.4-2.8,2.1-4.6,2.1c-0.8,0-1.5-0.1-2.1-0.3c-0.6-0.2-1.2-0.4-1.7-0.7
			l-0.2,0.7h-4.4v-19.8h4.6v7c0.7-0.6,1.4-1,2.1-1.4c0.7-0.3,1.6-0.5,2.5-0.5c1.8,0,3.2,0.6,4.2,1.9
			C168.2,119.9,168.7,121.7,168.7,124z M164,124.1c0-1.3-0.2-2.2-0.6-2.9c-0.4-0.7-1.2-1-2.3-1c-0.4,0-0.9,0.1-1.3,0.2
			c-0.5,0.1-0.9,0.3-1.3,0.6v7.1c0.3,0.1,0.6,0.2,0.9,0.2c0.3,0,0.6,0.1,1.1,0.1c1.2,0,2.1-0.4,2.7-1.1S164,125.5,164,124.1z"/>
		<path class="st2" d="M186.1,125.1h-10.5c0.1,1.1,0.5,2,1.3,2.6s1.9,0.9,3.5,0.9c1,0,1.9-0.2,2.8-0.5s1.6-0.7,2.1-1.1h0.5v3.7
			c-1,0.4-2,0.7-2.9,0.9s-1.9,0.3-3,0.3c-2.9,0-5.1-0.6-6.6-1.9s-2.3-3.1-2.3-5.5c0-2.4,0.7-4.2,2.2-5.6c1.4-1.4,3.4-2.1,5.9-2.1
			c2.3,0,4.1,0.6,5.2,1.8c1.2,1.2,1.8,2.9,1.8,5.1V125.1z M181.5,122.4c0-1-0.3-1.7-0.7-2.2s-1.1-0.7-2.1-0.7
			c-0.9,0-1.6,0.2-2.2,0.7s-0.9,1.2-1,2.2H181.5z"/>
		<path class="st2" d="M199.6,121.4h-0.4c-0.2-0.1-0.5-0.1-0.9-0.2s-0.8-0.1-1.1-0.1c-0.7,0-1.2,0-1.7,0.1c-0.5,0.1-1,0.2-1.6,0.4
			v9.5h-4.6v-14.3h4.6v2.1c1-0.9,1.9-1.4,2.6-1.7c0.7-0.3,1.4-0.4,2.1-0.4c0.2,0,0.3,0,0.5,0c0.2,0,0.4,0,0.5,0V121.4z"/>
		<path class="st2" d="M210.8,129.8c-0.2,0.2-0.6,0.4-0.9,0.7s-0.7,0.5-1,0.6c-0.4,0.2-0.9,0.4-1.4,0.5c-0.5,0.1-1,0.1-1.6,0.1
			c-1.4,0-2.5-0.4-3.4-1.3s-1.4-1.9-1.4-3.2c0-1,0.2-1.9,0.7-2.6s1.1-1.2,2-1.6c0.8-0.4,1.9-0.7,3.1-0.8s2.6-0.3,3.9-0.4v-0.1
			c0-0.8-0.3-1.3-1-1.6c-0.6-0.3-1.6-0.5-2.8-0.5c-0.8,0-1.6,0.1-2.4,0.4c-0.9,0.3-1.5,0.5-1.8,0.6h-0.4v-3.4
			c0.5-0.1,1.3-0.3,2.4-0.5c1.1-0.2,2.2-0.3,3.3-0.3c2.6,0,4.5,0.4,5.6,1.2c1.2,0.8,1.7,2.1,1.7,3.8v9.7h-4.5V129.8z M210.8,127.6
			v-3c-0.6,0.1-1.3,0.1-2,0.2c-0.7,0.1-1.3,0.2-1.6,0.3c-0.5,0.1-0.8,0.4-1,0.6s-0.4,0.6-0.4,1.1c0,0.3,0,0.5,0.1,0.7
			c0.1,0.2,0.2,0.4,0.4,0.5c0.2,0.2,0.4,0.3,0.7,0.4s0.7,0.1,1.3,0.1c0.5,0,0.9-0.1,1.4-0.3S210.5,127.9,210.8,127.6z"/>
		<path class="st2" d="M233.9,131.3h-4.6v-7.1c0-0.6,0-1.1-0.1-1.7c-0.1-0.6-0.2-1-0.3-1.3c-0.2-0.3-0.4-0.5-0.7-0.7
			s-0.8-0.2-1.4-0.2c-0.4,0-0.8,0.1-1.3,0.2s-0.9,0.4-1.4,0.6v10.1h-4.6v-14.3h4.6v1.6c0.8-0.6,1.6-1.1,2.3-1.5
			c0.7-0.3,1.6-0.5,2.5-0.5c1.5,0,2.7,0.4,3.6,1.3c0.9,0.9,1.3,2.2,1.3,4V131.3z"/>
		<path class="st2" d="M252.7,124.2c0,2.3-0.7,4.2-2.1,5.5c-1.4,1.3-3.3,2-5.8,2s-4.4-0.7-5.8-2c-1.4-1.4-2.1-3.2-2.1-5.5
			c0-2.4,0.7-4.2,2.1-5.6s3.3-2,5.7-2c2.5,0,4.4,0.7,5.8,2S252.7,121.9,252.7,124.2z M247,127.7c0.3-0.4,0.5-0.8,0.7-1.3
			c0.1-0.5,0.2-1.2,0.2-2.1c0-0.8-0.1-1.5-0.2-2.1s-0.4-1-0.6-1.4c-0.3-0.3-0.6-0.6-1-0.7s-0.8-0.2-1.2-0.2s-0.8,0.1-1.2,0.2
			s-0.7,0.4-1,0.7c-0.3,0.3-0.5,0.8-0.7,1.4s-0.2,1.3-0.2,2.2c0,0.8,0.1,1.5,0.2,2c0.1,0.6,0.4,1,0.6,1.4c0.3,0.3,0.6,0.6,1,0.7
			s0.8,0.2,1.3,0.2c0.4,0,0.8-0.1,1.2-0.2C246.5,128.2,246.8,128,247,127.7z"/>
		<path class="st2" d="M278.9,125.1h-10.5c0.1,1.1,0.5,2,1.3,2.6s1.9,0.9,3.5,0.9c1,0,1.9-0.2,2.8-0.5s1.6-0.7,2.1-1.1h0.5v3.7
			c-1,0.4-2,0.7-2.9,0.9s-1.9,0.3-3,0.3c-2.9,0-5.1-0.6-6.6-1.9s-2.3-3.1-2.3-5.5c0-2.4,0.7-4.2,2.2-5.6c1.4-1.4,3.4-2.1,5.9-2.1
			c2.3,0,4.1,0.6,5.2,1.8c1.2,1.2,1.8,2.9,1.8,5.1V125.1z M274.3,122.4c0-1-0.3-1.7-0.7-2.2s-1.1-0.7-2.1-0.7
			c-0.9,0-1.6,0.2-2.2,0.7s-0.9,1.2-1,2.2H274.3z M276.2,110.1v0.3l-4.5,4.7h-3.1l3.1-5H276.2z"/>
		<path class="st2" d="M305.6,124.2c0,2.3-0.7,4.2-2.1,5.5c-1.4,1.3-3.3,2-5.8,2s-4.4-0.7-5.8-2c-1.4-1.4-2.1-3.2-2.1-5.5
			c0-2.4,0.7-4.2,2.1-5.6s3.3-2,5.7-2c2.5,0,4.4,0.7,5.8,2C304.9,120,305.6,121.9,305.6,124.2z M299.9,127.7
			c0.3-0.4,0.5-0.8,0.7-1.3c0.1-0.5,0.2-1.2,0.2-2.1c0-0.8-0.1-1.5-0.2-2.1s-0.4-1-0.6-1.4c-0.3-0.3-0.6-0.6-1-0.7s-0.8-0.2-1.2-0.2
			s-0.8,0.1-1.2,0.2c-0.3,0.1-0.7,0.4-1,0.7c-0.3,0.3-0.5,0.8-0.7,1.4c-0.2,0.6-0.2,1.3-0.2,2.2c0,0.8,0.1,1.5,0.2,2
			c0.1,0.6,0.4,1,0.6,1.4c0.3,0.3,0.6,0.6,1,0.7c0.4,0.2,0.8,0.2,1.3,0.2c0.4,0,0.8-0.1,1.2-0.2C299.4,128.2,299.7,128,299.9,127.7z
			"/>
		<path class="st2" d="M332.6,124c0,1.2-0.2,2.2-0.5,3.2s-0.8,1.8-1.4,2.4c-0.6,0.7-1.3,1.2-2.1,1.5s-1.6,0.5-2.5,0.5
			c-0.8,0-1.5-0.1-2.1-0.3c-0.6-0.2-1.1-0.4-1.7-0.7v5.9h-4.6v-19.5h4.6v1.5c0.7-0.6,1.4-1,2.1-1.4c0.7-0.3,1.6-0.5,2.5-0.5
			c1.8,0,3.2,0.7,4.1,2C332.1,119.9,332.6,121.7,332.6,124z M327.9,124.1c0-1.4-0.2-2.4-0.7-3c-0.5-0.6-1.2-0.9-2.2-0.9
			c-0.4,0-0.9,0.1-1.3,0.2s-0.9,0.3-1.3,0.6v7.2c0.3,0.1,0.6,0.2,1,0.2c0.3,0,0.7,0.1,1,0.1c1.2,0,2.1-0.4,2.7-1.1
			C327.6,126.6,327.9,125.5,327.9,124.1z"/>
		<path class="st2" d="M350.5,124.2c0,2.3-0.7,4.2-2.1,5.5c-1.4,1.3-3.3,2-5.8,2s-4.4-0.7-5.8-2c-1.4-1.4-2.1-3.2-2.1-5.5
			c0-2.4,0.7-4.2,2.1-5.6c1.4-1.3,3.3-2,5.7-2c2.5,0,4.4,0.7,5.8,2C349.8,120,350.5,121.9,350.5,124.2z M344.9,127.7
			c0.3-0.4,0.5-0.8,0.7-1.3c0.1-0.5,0.2-1.2,0.2-2.1c0-0.8-0.1-1.5-0.2-2.1s-0.4-1-0.6-1.4c-0.3-0.3-0.6-0.6-1-0.7s-0.8-0.2-1.2-0.2
			s-0.8,0.1-1.2,0.2c-0.3,0.1-0.7,0.4-1,0.7c-0.3,0.3-0.5,0.8-0.7,1.4c-0.2,0.6-0.2,1.3-0.2,2.2c0,0.8,0.1,1.5,0.2,2
			c0.1,0.6,0.4,1,0.6,1.4c0.3,0.3,0.6,0.6,1,0.7c0.4,0.2,0.8,0.2,1.3,0.2c0.4,0,0.8-0.1,1.2-0.2C344.3,128.2,344.6,128,344.9,127.7z
			"/>
		<path class="st2" d="M367.6,131.3H363v-1.5c-0.8,0.6-1.5,1.1-2.2,1.4c-0.7,0.3-1.5,0.5-2.4,0.5c-1.7,0-3.1-0.7-4.2-2
			s-1.6-3.1-1.6-5.4c0-1.2,0.2-2.3,0.5-3.2c0.4-0.9,0.8-1.7,1.4-2.4c0.6-0.6,1.3-1.1,2.1-1.5c0.8-0.4,1.6-0.5,2.5-0.5
			c0.9,0,1.6,0.1,2.1,0.3c0.5,0.2,1.1,0.4,1.7,0.7v-6.1h4.6V131.3z M363,127.4v-7c-0.3-0.1-0.7-0.2-1-0.3c-0.4-0.1-0.7-0.1-1-0.1
			c-1.2,0-2.1,0.4-2.7,1.1c-0.6,0.8-0.9,1.8-0.9,3.1c0,1.4,0.2,2.4,0.7,3s1.3,0.9,2.3,0.9c0.4,0,0.9-0.1,1.3-0.2
			C362.3,127.9,362.7,127.7,363,127.4z"/>
		<path class="st2" d="M386,125.1h-10.5c0.1,1.1,0.5,2,1.3,2.6c0.8,0.6,1.9,0.9,3.5,0.9c1,0,1.9-0.2,2.8-0.5s1.6-0.7,2.1-1.1h0.5
			v3.7c-1,0.4-2,0.7-2.9,0.9s-1.9,0.3-3,0.3c-2.9,0-5.1-0.6-6.6-1.9s-2.3-3.1-2.3-5.5c0-2.4,0.7-4.2,2.2-5.6
			c1.4-1.4,3.4-2.1,5.9-2.1c2.3,0,4.1,0.6,5.2,1.8c1.2,1.2,1.8,2.9,1.8,5.1V125.1z M381.4,122.4c0-1-0.3-1.7-0.7-2.2
			s-1.1-0.7-2.1-0.7c-0.9,0-1.6,0.2-2.2,0.7s-0.9,1.2-1,2.2H381.4z"/>
		<path class="st2" d="M399.5,121.4h-0.4c-0.2-0.1-0.5-0.1-0.9-0.2s-0.8-0.1-1.1-0.1c-0.6,0-1.2,0-1.7,0.1c-0.5,0.1-1,0.2-1.6,0.4
			v9.5h-4.6v-14.3h4.6v2.1c1-0.9,1.9-1.4,2.6-1.7c0.7-0.3,1.4-0.4,2.1-0.4c0.2,0,0.3,0,0.5,0c0.2,0,0.4,0,0.5,0V121.4z"/>
		<path class="st2" d="M424.9,131.3h-4.6v-1.5c-0.8,0.6-1.5,1.1-2.2,1.4c-0.7,0.3-1.5,0.5-2.4,0.5c-1.7,0-3.1-0.7-4.2-2
			s-1.6-3.1-1.6-5.4c0-1.2,0.2-2.3,0.5-3.2c0.4-0.9,0.8-1.7,1.4-2.4c0.6-0.6,1.3-1.1,2.1-1.5c0.8-0.4,1.6-0.5,2.5-0.5
			c0.9,0,1.6,0.1,2.1,0.3c0.5,0.2,1.1,0.4,1.7,0.7v-6.1h4.6V131.3z M420.3,127.4v-7c-0.3-0.1-0.7-0.2-1-0.3c-0.4-0.1-0.7-0.1-1-0.1
			c-1.2,0-2.1,0.4-2.7,1.1c-0.6,0.8-0.9,1.8-0.9,3.1c0,1.4,0.2,2.4,0.7,3s1.3,0.9,2.3,0.9c0.4,0,0.9-0.1,1.3-0.2
			C419.5,127.9,419.9,127.7,420.3,127.4z"/>
		<path class="st2" d="M443.2,125.1h-10.5c0.1,1.1,0.5,2,1.3,2.6c0.8,0.6,1.9,0.9,3.5,0.9c1,0,1.9-0.2,2.8-0.5s1.6-0.7,2.1-1.1h0.5
			v3.7c-1,0.4-2,0.7-2.9,0.9s-1.9,0.3-3,0.3c-2.9,0-5.1-0.6-6.6-1.9s-2.3-3.1-2.3-5.5c0-2.4,0.7-4.2,2.2-5.6
			c1.4-1.4,3.4-2.1,5.9-2.1c2.3,0,4.1,0.6,5.2,1.8c1.2,1.2,1.8,2.9,1.8,5.1V125.1z M438.7,122.4c0-1-0.3-1.7-0.7-2.2
			s-1.1-0.7-2.1-0.7c-0.9,0-1.6,0.2-2.2,0.7s-0.9,1.2-1,2.2H438.7z"/>
		<path class="st2" d="M469.2,131.3h-4.6v-1.5c-0.8,0.6-1.5,1.1-2.2,1.4c-0.7,0.3-1.5,0.5-2.4,0.5c-1.7,0-3.1-0.7-4.2-2
			s-1.6-3.1-1.6-5.4c0-1.2,0.2-2.3,0.5-3.2c0.4-0.9,0.8-1.7,1.4-2.4c0.6-0.6,1.3-1.1,2.1-1.5c0.8-0.4,1.6-0.5,2.5-0.5
			c0.9,0,1.6,0.1,2.1,0.3c0.5,0.2,1.1,0.4,1.7,0.7v-6.1h4.6V131.3z M464.6,127.4v-7c-0.3-0.1-0.7-0.2-1-0.3c-0.4-0.1-0.7-0.1-1-0.1
			c-1.2,0-2.1,0.4-2.7,1.1c-0.6,0.8-0.9,1.8-0.9,3.1c0,1.4,0.2,2.4,0.7,3s1.3,0.9,2.3,0.9c0.4,0,0.9-0.1,1.3-0.2
			C463.9,127.9,464.3,127.7,464.6,127.4z"/>
		<path class="st2" d="M478.2,115.1h-4.8v-3.5h4.8V115.1z M478.1,131.3h-4.6v-14.3h4.6V131.3z"/>
		<path class="st2" d="M491.5,131.2c-0.5,0.1-1,0.2-1.6,0.3c-0.5,0.1-1.2,0.1-2,0.1c-1.8,0-3.1-0.4-4-1.1c-0.9-0.7-1.3-2-1.3-3.7
			v-6.7h-1.9v-3.1h1.9V113h4.6v4.1h4.3v3.1h-4.3v5.1c0,0.5,0,0.9,0,1.3s0.1,0.7,0.2,1c0.1,0.3,0.3,0.5,0.6,0.7s0.7,0.3,1.3,0.3
			c0.2,0,0.5-0.1,0.9-0.2s0.7-0.2,0.8-0.3h0.4V131.2z"/>
		<path class="st2" d="M502.9,129.8c-0.2,0.2-0.5,0.4-0.9,0.7s-0.7,0.5-1,0.6c-0.4,0.2-0.9,0.4-1.4,0.5c-0.5,0.1-1,0.1-1.6,0.1
			c-1.4,0-2.5-0.4-3.4-1.3s-1.4-1.9-1.4-3.2c0-1,0.2-1.9,0.7-2.6s1.1-1.2,2-1.6c0.8-0.4,1.9-0.7,3.1-0.8s2.6-0.3,3.9-0.4v-0.1
			c0-0.8-0.3-1.3-1-1.6c-0.6-0.3-1.6-0.5-2.8-0.5c-0.8,0-1.6,0.1-2.4,0.4c-0.9,0.3-1.5,0.5-1.8,0.6h-0.4v-3.4
			c0.5-0.1,1.3-0.3,2.4-0.5c1.1-0.2,2.2-0.3,3.3-0.3c2.6,0,4.5,0.4,5.6,1.2c1.2,0.8,1.7,2.1,1.7,3.8v9.7h-4.5V129.8z M502.9,127.6
			v-3c-0.6,0.1-1.3,0.1-2,0.2c-0.7,0.1-1.3,0.2-1.6,0.3c-0.5,0.1-0.8,0.4-1,0.6c-0.2,0.3-0.4,0.6-0.4,1.1c0,0.3,0,0.5,0.1,0.7
			c0.1,0.2,0.2,0.4,0.4,0.5c0.2,0.2,0.4,0.3,0.7,0.4s0.7,0.1,1.3,0.1c0.5,0,0.9-0.1,1.4-0.3C502.1,128.2,502.5,127.9,502.9,127.6z"
			/>
		<path class="st2" d="M522,121.4h-0.4c-0.2-0.1-0.5-0.1-0.9-0.2s-0.8-0.1-1.1-0.1c-0.6,0-1.2,0-1.7,0.1c-0.5,0.1-1,0.2-1.6,0.4v9.5
			h-4.6v-14.3h4.6v2.1c1-0.9,1.9-1.4,2.6-1.7c0.7-0.3,1.4-0.4,2.1-0.4c0.2,0,0.3,0,0.5,0c0.2,0,0.4,0,0.5,0V121.4z"/>
		<path class="st2" d="M547.7,131.3h-4.6v-7.1c0-0.6,0-1.1-0.1-1.7c-0.1-0.6-0.2-1-0.3-1.3c-0.2-0.3-0.4-0.5-0.7-0.7
			c-0.3-0.1-0.8-0.2-1.4-0.2c-0.4,0-0.8,0.1-1.3,0.2c-0.4,0.1-0.9,0.4-1.4,0.6v10.1h-4.6v-14.3h4.6v1.6c0.8-0.6,1.6-1.1,2.3-1.5
			s1.6-0.5,2.5-0.5c1.5,0,2.7,0.4,3.6,1.3s1.3,2.2,1.3,4V131.3z"/>
		<path class="st2" d="M566.5,124.2c0,2.3-0.7,4.2-2.1,5.5c-1.4,1.3-3.3,2-5.8,2s-4.4-0.7-5.8-2c-1.4-1.4-2.1-3.2-2.1-5.5
			c0-2.4,0.7-4.2,2.1-5.6c1.4-1.3,3.3-2,5.7-2c2.5,0,4.4,0.7,5.8,2C565.8,120,566.5,121.9,566.5,124.2z M560.9,127.7
			c0.3-0.4,0.5-0.8,0.7-1.3c0.1-0.5,0.2-1.2,0.2-2.1c0-0.8-0.1-1.5-0.2-2.1s-0.4-1-0.6-1.4c-0.3-0.3-0.6-0.6-1-0.7s-0.8-0.2-1.2-0.2
			s-0.8,0.1-1.2,0.2c-0.3,0.1-0.7,0.4-1,0.7c-0.3,0.3-0.5,0.8-0.7,1.4c-0.2,0.6-0.2,1.3-0.2,2.2c0,0.8,0.1,1.5,0.2,2
			c0.1,0.6,0.4,1,0.6,1.4c0.3,0.3,0.6,0.6,1,0.7c0.4,0.2,0.8,0.2,1.3,0.2c0.4,0,0.8-0.1,1.2-0.2C560.3,128.2,560.6,128,560.9,127.7z
			"/>
		<path class="st2" d="M580.1,121.4h-0.4c-0.2-0.1-0.5-0.1-0.9-0.2s-0.8-0.1-1.1-0.1c-0.6,0-1.2,0-1.7,0.1c-0.5,0.1-1,0.2-1.6,0.4
			v9.5h-4.6v-14.3h4.6v2.1c1-0.9,1.9-1.4,2.6-1.7c0.7-0.3,1.4-0.4,2.1-0.4c0.2,0,0.3,0,0.5,0c0.2,0,0.4,0,0.5,0V121.4z"/>
		<path class="st2" d="M596.7,121.2v10.1h-4.6v-7.1c0-0.7,0-1.3-0.1-1.8c0-0.5-0.1-0.9-0.3-1.2s-0.4-0.5-0.7-0.7
			c-0.3-0.1-0.7-0.2-1.3-0.2c-0.4,0-0.9,0.1-1.3,0.3c-0.4,0.2-0.8,0.4-1.1,0.6v10.1h-4.6v-14.3h4.6v1.6c0.8-0.6,1.5-1.1,2.3-1.4
			s1.5-0.5,2.4-0.5c0.9,0,1.8,0.2,2.5,0.6c0.7,0.4,1.3,1,1.7,1.8c0.9-0.8,1.8-1.4,2.7-1.8c0.9-0.4,1.7-0.7,2.5-0.7
			c1.5,0,2.7,0.5,3.5,1.4s1.2,2.3,1.2,4v9.3h-4.6v-7.1c0-0.7,0-1.3,0-1.8c0-0.5-0.1-0.9-0.3-1.2c-0.1-0.3-0.4-0.5-0.7-0.7
			c-0.3-0.1-0.8-0.2-1.3-0.2c-0.4,0-0.8,0.1-1.1,0.2C597.6,120.7,597.2,120.9,596.7,121.2z"/>
		<path class="st2" d="M618.9,129.8c-0.2,0.2-0.5,0.4-0.9,0.7s-0.7,0.5-1,0.6c-0.4,0.2-0.9,0.4-1.4,0.5c-0.5,0.1-1,0.1-1.6,0.1
			c-1.4,0-2.5-0.4-3.4-1.3s-1.4-1.9-1.4-3.2c0-1,0.2-1.9,0.7-2.6s1.1-1.2,2-1.6c0.8-0.4,1.9-0.7,3.1-0.8s2.6-0.3,3.9-0.4v-0.1
			c0-0.8-0.3-1.3-1-1.6c-0.6-0.3-1.6-0.5-2.8-0.5c-0.8,0-1.6,0.1-2.4,0.4c-0.9,0.3-1.5,0.5-1.8,0.6h-0.4v-3.4
			c0.5-0.1,1.3-0.3,2.4-0.5c1.1-0.2,2.2-0.3,3.3-0.3c2.6,0,4.5,0.4,5.6,1.2c1.2,0.8,1.7,2.1,1.7,3.8v9.7h-4.5V129.8z M618.9,127.6
			v-3c-0.6,0.1-1.3,0.1-2,0.2c-0.7,0.1-1.3,0.2-1.6,0.3c-0.5,0.1-0.8,0.4-1,0.6c-0.2,0.3-0.4,0.6-0.4,1.1c0,0.3,0,0.5,0.1,0.7
			c0.1,0.2,0.2,0.4,0.4,0.5c0.2,0.2,0.4,0.3,0.7,0.4s0.7,0.1,1.3,0.1c0.5,0,0.9-0.1,1.4-0.3C618.1,128.2,618.5,127.9,618.9,127.6z"
			/>
		<path class="st2" d="M640,126.8c0,1.5-0.7,2.7-2,3.6c-1.3,0.9-3.1,1.4-5.4,1.4c-1.3,0-2.4-0.1-3.5-0.4s-1.9-0.5-2.5-0.8v-3.8h0.4
			c0.2,0.2,0.5,0.3,0.8,0.5c0.3,0.2,0.7,0.4,1.3,0.6c0.5,0.2,1,0.4,1.6,0.5c0.6,0.1,1.2,0.2,1.9,0.2c0.9,0,1.6-0.1,2-0.3
			c0.4-0.2,0.6-0.5,0.6-0.9c0-0.3-0.1-0.6-0.4-0.8c-0.3-0.2-0.7-0.3-1.4-0.5c-0.3-0.1-0.8-0.2-1.4-0.2c-0.6-0.1-1.1-0.2-1.6-0.3
			c-1.3-0.3-2.3-0.9-2.9-1.6c-0.6-0.7-0.9-1.6-0.9-2.7c0-1.4,0.6-2.5,1.9-3.4c1.3-0.9,3.1-1.4,5.3-1.4c1.1,0,2.1,0.1,3.1,0.3
			c1,0.2,1.7,0.4,2.3,0.7v3.6H639c-0.7-0.5-1.4-0.8-2.3-1.1c-0.9-0.3-1.7-0.4-2.6-0.4c-0.7,0-1.4,0.1-1.9,0.3
			c-0.5,0.2-0.8,0.5-0.8,0.9c0,0.3,0.1,0.6,0.3,0.8s0.8,0.4,1.6,0.5c0.5,0.1,1,0.2,1.5,0.3c0.5,0.1,1.1,0.2,1.6,0.3
			c1.2,0.3,2.1,0.8,2.7,1.5C639.7,125,640,125.8,640,126.8z"/>
		<path class="st2" d="M666.3,117.1l-5.5,14.3h-5.2l-5.5-14.3h4.8l3.3,9.8l3.3-9.8H666.3z"/>
		<path class="st2" d="M677.4,129.8c-0.2,0.2-0.5,0.4-0.9,0.7s-0.7,0.5-1,0.6c-0.4,0.2-0.9,0.4-1.4,0.5c-0.5,0.1-1,0.1-1.6,0.1
			c-1.4,0-2.5-0.4-3.4-1.3s-1.4-1.9-1.4-3.2c0-1,0.2-1.9,0.7-2.6s1.1-1.2,2-1.6c0.8-0.4,1.9-0.7,3.1-0.8s2.6-0.3,3.9-0.4v-0.1
			c0-0.8-0.3-1.3-1-1.6c-0.6-0.3-1.6-0.5-2.8-0.5c-0.8,0-1.6,0.1-2.4,0.4c-0.9,0.3-1.5,0.5-1.8,0.6H669v-3.4
			c0.5-0.1,1.3-0.3,2.4-0.5c1.1-0.2,2.2-0.3,3.3-0.3c2.6,0,4.5,0.4,5.6,1.2c1.2,0.8,1.7,2.1,1.7,3.8v9.7h-4.5V129.8z M679.9,110.1
			v0.3l-4.5,4.7h-3.1l3.1-5H679.9z M677.4,127.6v-3c-0.6,0.1-1.3,0.1-2,0.2c-0.7,0.1-1.3,0.2-1.6,0.3c-0.5,0.1-0.8,0.4-1,0.6
			c-0.2,0.3-0.4,0.6-0.4,1.1c0,0.3,0,0.5,0.1,0.7c0.1,0.2,0.2,0.4,0.4,0.5c0.2,0.2,0.4,0.3,0.7,0.4s0.7,0.1,1.3,0.1
			c0.5,0,0.9-0.1,1.4-0.3C676.7,128.2,677.1,127.9,677.4,127.6z"/>
		<path class="st2" d="M690.8,131.3h-4.6v-19.8h4.6V131.3z"/>
		<path class="st2" d="M699.8,115.1h-4.8v-3.5h4.8V115.1z M699.6,131.3h-4.6v-14.3h4.6V131.3z"/>
		<path class="st2" d="M717.8,131.3h-4.6v-1.5c-0.8,0.6-1.5,1.1-2.2,1.4c-0.7,0.3-1.5,0.5-2.4,0.5c-1.7,0-3.1-0.7-4.2-2
			s-1.6-3.1-1.6-5.4c0-1.2,0.2-2.3,0.5-3.2c0.4-0.9,0.8-1.7,1.4-2.4c0.6-0.6,1.3-1.1,2.1-1.5c0.8-0.4,1.6-0.5,2.5-0.5
			c0.9,0,1.6,0.1,2.1,0.3c0.5,0.2,1.1,0.4,1.7,0.7v-6.1h4.6V131.3z M713.2,127.4v-7c-0.3-0.1-0.7-0.2-1-0.3c-0.4-0.1-0.7-0.1-1-0.1
			c-1.2,0-2.1,0.4-2.7,1.1c-0.6,0.8-0.9,1.8-0.9,3.1c0,1.4,0.2,2.4,0.7,3s1.3,0.9,2.3,0.9c0.4,0,0.9-0.1,1.3-0.2
			C712.5,127.9,712.9,127.7,713.2,127.4z"/>
		<path class="st2" d="M730.8,129.8c-0.2,0.2-0.5,0.4-0.9,0.7s-0.7,0.5-1,0.6c-0.4,0.2-0.9,0.4-1.4,0.5c-0.5,0.1-1,0.1-1.6,0.1
			c-1.4,0-2.5-0.4-3.4-1.3s-1.4-1.9-1.4-3.2c0-1,0.2-1.9,0.7-2.6s1.1-1.2,2-1.6c0.8-0.4,1.9-0.7,3.1-0.8s2.6-0.3,3.9-0.4v-0.1
			c0-0.8-0.3-1.3-1-1.6c-0.6-0.3-1.6-0.5-2.8-0.5c-0.8,0-1.6,0.1-2.4,0.4c-0.9,0.3-1.5,0.5-1.8,0.6h-0.4v-3.4
			c0.5-0.1,1.3-0.3,2.4-0.5c1.1-0.2,2.2-0.3,3.3-0.3c2.6,0,4.5,0.4,5.6,1.2c1.2,0.8,1.7,2.1,1.7,3.8v9.7h-4.5V129.8z M730.8,127.6
			v-3c-0.6,0.1-1.3,0.1-2,0.2c-0.7,0.1-1.3,0.2-1.6,0.3c-0.5,0.1-0.8,0.4-1,0.6c-0.2,0.3-0.4,0.6-0.4,1.1c0,0.3,0,0.5,0.1,0.7
			c0.1,0.2,0.2,0.4,0.4,0.5c0.2,0.2,0.4,0.3,0.7,0.4s0.7,0.1,1.3,0.1c0.5,0,0.9-0.1,1.4-0.3C730,128.2,730.4,127.9,730.8,127.6z"/>
		<path class="st2" d="M751.9,126.8c0,1.5-0.7,2.7-2,3.6c-1.3,0.9-3.1,1.4-5.4,1.4c-1.3,0-2.4-0.1-3.5-0.4s-1.9-0.5-2.5-0.8v-3.8
			h0.4c0.2,0.2,0.5,0.3,0.8,0.5c0.3,0.2,0.7,0.4,1.3,0.6c0.5,0.2,1,0.4,1.6,0.5c0.6,0.1,1.2,0.2,1.9,0.2c0.9,0,1.6-0.1,2-0.3
			c0.4-0.2,0.6-0.5,0.6-0.9c0-0.3-0.1-0.6-0.4-0.8c-0.3-0.2-0.7-0.3-1.4-0.5c-0.3-0.1-0.8-0.2-1.4-0.2c-0.6-0.1-1.1-0.2-1.6-0.3
			c-1.3-0.3-2.3-0.9-2.9-1.6c-0.6-0.7-0.9-1.6-0.9-2.7c0-1.4,0.6-2.5,1.9-3.4c1.3-0.9,3.1-1.4,5.3-1.4c1.1,0,2.1,0.1,3.1,0.3
			c1,0.2,1.7,0.4,2.3,0.7v3.6h-0.4c-0.7-0.5-1.4-0.8-2.3-1.1c-0.9-0.3-1.7-0.4-2.6-0.4c-0.7,0-1.4,0.1-1.9,0.3
			c-0.5,0.2-0.8,0.5-0.8,0.9c0,0.3,0.1,0.6,0.3,0.8s0.8,0.4,1.6,0.5c0.5,0.1,1,0.2,1.5,0.3c0.5,0.1,1.1,0.2,1.6,0.3
			c1.2,0.3,2.1,0.8,2.7,1.5C751.6,125,751.9,125.8,751.9,126.8z"/>
		<path class="st2" d="M759.8,131.3h-4.7v-5h4.7V131.3z"/>
		<path class="st2" d="M770.4,111.6l-3.7,7.5h-3l2-7.5H770.4z M777.3,111.6l-3.7,7.5h-3l2-7.5H777.3z"/>
	</g>
</g>
</svg>
