<?xml version="1.0" encoding="UTF-8"?>
<svg id="Layer_1" data-name="Layer 1" xmlns="http://www.w3.org/2000/svg" viewBox="0 0 296.23 290.12">
  <defs>
    <style>
      .cls-1 {
        fill: #fff;
      }

      .cls-2 {
        fill: #0d6048;
      }

      .cls-3 {
        fill: #0b8969;
      }
    </style>
  </defs>
  <g>
    <path class="cls-3" d="m148.11,30.63c-63.2,0-114.43,51.23-114.43,114.43h228.86c0-63.2-51.23-114.43-114.43-114.43Z"/>
    <path class="cls-2" d="m148.11,259.49c63.2,0,114.43-51.23,114.43-114.43h0s-228.86,0-228.86,0h0c0,63.2,51.23,114.43,114.43,114.43Z"/>
  </g>
  <path class="cls-1" d="m210.64,213.39h-107.29v-22.58c8.2-5.93,16.41-12.24,24.64-18.91,8.23-6.67,14.82-12.42,19.78-17.25,7.4-7.16,12.67-13.4,15.79-18.72,3.12-5.32,4.68-10.58,4.68-15.79,0-6.24-2-11.06-6.01-14.45-4.01-3.4-9.77-5.09-17.3-5.09-5.63,0-11.55,1.16-17.76,3.49-6.21,2.33-11.98,5.29-17.3,8.9h-2.94v-30.38c4.34-1.9,10.75-3.79,19.23-5.69,8.47-1.9,16.96-2.84,25.47-2.84,17.13,0,30.19,3.59,39.19,10.78,8.99,7.19,13.49,17.36,13.49,30.52,0,8.63-2.16,16.83-6.47,24.6-4.31,7.77-10.91,15.79-19.78,24.05-5.57,5.14-11.17,9.87-16.8,14.18-5.63,4.31-9.64,7.33-12.02,9.04h61.4v26.16Z"/>
</svg>