<?xml version="1.0" encoding="UTF-8"?>
<svg id="Layer_1" data-name="Layer 1" xmlns="http://www.w3.org/2000/svg" viewBox="0 0 108.71 105.88">
  <defs>
    <style>
      .cls-1 {
        fill: #fff;
      }

      .cls-2 {
        fill: #354a61;
      }

      .cls-3 {
        fill: #159799;
      }
    </style>
  </defs>
  <g>
    <circle class="cls-3" cx="43.87" cy="52.94" r="32.32"/>
    <g>
      <path class="cls-1" d="m33.14,60.22c-1.06-.65-1.89-1.6-2.48-2.85-.6-1.25-.9-2.73-.9-4.43s.3-3.19.9-4.43c.6-1.25,1.43-2.2,2.48-2.85,1.06-.65,2.27-.98,3.63-.98s2.55.32,3.61.98c1.06.65,1.89,1.6,2.48,2.85.6,1.25.9,2.73.9,4.43s-.3,3.19-.9,4.43c-.6,1.25-1.43,2.2-2.48,2.85-1.06.65-2.26.98-3.61.98s-2.57-.32-3.63-.98Zm5.43-3.8c.45-.73.67-1.89.67-3.48s-.22-2.75-.67-3.48-1.05-1.1-1.8-1.1-1.38.37-1.82,1.1c-.45.73-.67,1.89-.67,3.48s.22,2.75.67,3.48,1.05,1.1,1.82,1.1,1.36-.37,1.8-1.1h0Z"/>
      <path class="cls-1" d="m56.92,52.97c.7.81,1.05,1.79,1.05,2.94,0,.94-.25,1.81-.76,2.61s-1.28,1.45-2.31,1.94c-1.04.49-2.32.74-3.85.74-1.12,0-2.23-.14-3.32-.41-1.1-.27-2.05-.66-2.85-1.16l1.63-3.38c.62.42,1.32.75,2.1.98s1.55.34,2.3.34,1.38-.14,1.84-.43c.45-.29.68-.7.68-1.22,0-1.03-.81-1.54-2.43-1.54h-1.88v-2.84l2.84-3.06h-6.26v-3.47h11.48v2.81l-3.29,3.54c1.32.27,2.33.81,3.03,1.62h0Z"/>
    </g>
  </g>
  <rect class="cls-2" x="95.16" y="20.56" width="2" height="64.76"/>
</svg>