<?xml version="1.0" encoding="utf-8"?>
<!-- Generator: Adobe Illustrator 27.2.0, SVG Export Plug-In . SVG Version: 6.00 Build 0)  -->
<svg version="1.1" id="Layer_1" xmlns="http://www.w3.org/2000/svg" xmlns:xlink="http://www.w3.org/1999/xlink" x="0px" y="0px"
	 viewBox="0 0 1284.4 448.1" style="enable-background:new 0 0 1284.4 448.1;" xml:space="preserve">
<style type="text/css">
	.st0{clip-path:url(#SVGID_00000018206243362974892290000014947885148259061395_);}
	.st1{fill:none;stroke:#008461;}
	.st2{fill:#E4F0E4;}
	.st3{fill:#1D1D1B;}
	.st4{fill:#008561;}
	.st5{fill:#FFFFFF;}
	.st6{clip-path:url(#SVGID_00000000914071976249075970000013791896822630493584_);}
	.st7{clip-path:url(#SVGID_00000144308081874114121780000015378080766976138624_);}
	.st8{clip-path:url(#SVGID_00000021091410473676203570000006879247762724588720_);}
	.st9{clip-path:url(#SVGID_00000173859648328270144410000014354694917543266463_);}
	.st10{clip-path:url(#SVGID_00000111168929795580348160000016512593420058772358_);}
	.st11{clip-path:url(#SVGID_00000113342126704057134970000001130853863359001490_);}
</style>
<g id="Janela5" transform="translate(-19.72 -16.41)">
	<g>
		<defs>
			<rect id="SVGID_1_" x="19.7" y="16.4" width="1284.4" height="448.1"/>
		</defs>
		<clipPath id="SVGID_00000096778276523386396070000006032479795802481802_">
			<use xlink:href="#SVGID_1_"  style="overflow:visible;"/>
		</clipPath>
		
			<g id="Grupo_2451" transform="translate(19.72 16.41)" style="clip-path:url(#SVGID_00000096778276523386396070000006032479795802481802_);">
			<rect id="Retângulo_305" x="60.1" y="120.2" class="st1" width="1223.1" height="326.6"/>
		</g>
	</g>
	<rect id="Retângulo_307" x="40.9" y="91" class="st2" width="1235.2" height="341.6"/>
	<g id="Grupo_2453" transform="translate(175.513 241.475)">
		<path id="Caminho_6373" class="st3" d="M14.1-6.1v1.8H0v-19.9h13.7v1.8H2.1v7.1h10.3v1.8H2.1v7.4L14.1-6.1L14.1-6.1z"/>
		<path id="Caminho_6374" class="st3" d="M27.7-4.3L23-10.6l-4.8,6.3h-2.3l5.9-7.7l-5.6-7.3h2.3l4.5,5.9l4.5-5.9h2.2L24.1-12l6,7.7
			H27.7z"/>
		<path id="Caminho_6375" class="st3" d="M45.9-11.2H33.4c0.2,3.1,2.8,5.4,5.8,5.2c0,0,0,0,0.1,0c1.7,0.1,3.4-0.7,4.6-2L45-6.6
			c-1.5,1.6-3.6,2.5-5.8,2.5c-4.7,0-7.9-3.2-7.9-7.6s3.1-7.6,7.3-7.6s7.3,3.1,7.3,7.6C46-11.6,46-11.4,45.9-11.2L45.9-11.2z
			 M33.4-12.7H44c-0.2-2.9-2.7-5.2-5.6-5C35.7-17.5,33.5-15.4,33.4-12.7L33.4-12.7z"/>
		<path id="Caminho_6376" class="st3" d="M57.6-19.4v2c-0.2,0-0.3,0-0.5,0c-3.1,0-5,2-5,5.5v7.6h-2v-15H52v2.9
			C52.9-18.4,54.8-19.4,57.6-19.4L57.6-19.4z"/>
		<path id="Caminho_6377" class="st3" d="M71.7-8.1l1.5,1c-1.3,2-3.5,3.1-5.9,2.9h-0.1l-0.3,1.3c1.3-0.1,2.4,0.9,2.4,2.2
			c0,0,0,0,0,0.1C69.4,1,68,2,66.1,2c-0.8,0-1.7-0.2-2.4-0.6l0.5-1.1c0.6,0.4,1.2,0.6,1.9,0.5c1.1,0,1.8-0.5,1.8-1.3
			c0-0.8-0.6-1.3-1.8-1.3h-0.6l0.6-2.4c-4.2-0.6-7-4.5-6.4-8.7c0.6-3.7,3.8-6.5,7.6-6.5c2.3-0.1,4.6,1,5.9,2.9l-1.5,1
			c-1-1.4-2.6-2.3-4.3-2.2c-3.2,0.1-5.8,2.8-5.7,6c0.1,3.1,2.6,5.6,5.7,5.7C69.1-5.9,70.8-6.7,71.7-8.1L71.7-8.1z"/>
		<path id="Caminho_6378" class="st3" d="M88.4-13.6v9.3h-1.9v-2.3c-0.9,1.5-2.7,2.5-5.1,2.5c-3.4,0-5.5-1.8-5.5-4.3
			c0-2.3,1.5-4.2,5.8-4.2h4.8v-0.9c0-2.6-1.4-4-4.2-4c-1.8,0-3.6,0.6-5,1.8l-0.9-1.5c1.7-1.4,3.9-2.1,6.1-2
			C86.2-19.4,88.4-17.4,88.4-13.6L88.4-13.6z M86.4-8.8v-2.5h-4.7c-2.9,0-3.9,1.1-3.9,2.7c0,1.7,1.4,2.8,3.8,2.8
			C83.7-5.6,85.7-6.9,86.4-8.8L86.4-8.8z"/>
		<path id="Caminho_6379" class="st3" d="M100.8-6l0.9-1.6c1.6,1.1,3.4,1.7,5.3,1.7c2.8,0,4-1,4-2.5c0-3.9-9.7-0.8-9.7-6.7
			c0-2.5,2.1-4.3,5.9-4.3c1.9,0,3.7,0.5,5.3,1.4l-0.9,1.6c-1.3-0.9-2.9-1.3-4.4-1.3c-2.7,0-3.9,1.1-3.9,2.5c0,4,9.7,1,9.7,6.7
			c0,2.6-2.3,4.3-6.2,4.3C104.7-4.1,102.5-4.8,100.8-6L100.8-6z"/>
		<path id="Caminho_6380" class="st3" d="M130.2-19.3v15h-1.9v-2.7c-1.1,1.9-3.2,3-5.4,2.9c-3.8,0-6.3-2.1-6.3-6.4v-8.7h2v8.5
			c0,3.2,1.7,4.8,4.5,4.8c3.1,0,5.1-2,5.1-5.4v-7.9L130.2-19.3L130.2-19.3z"/>
		<path id="Caminho_6381" class="st3" d="M147.2-13.6v9.3h-1.9v-2.3c-0.9,1.5-2.7,2.5-5.1,2.5c-3.4,0-5.5-1.8-5.5-4.3
			c0-2.3,1.5-4.2,5.8-4.2h4.8v-0.9c0-2.6-1.4-4-4.2-4c-1.8,0-3.6,0.6-5,1.8l-0.9-1.5c1.7-1.4,3.9-2.1,6.1-2
			C145-19.4,147.2-17.4,147.2-13.6L147.2-13.6z M145.2-8.8v-2.5h-4.7c-2.9,0-3.9,1.1-3.9,2.7c0,1.7,1.4,2.8,3.8,2.8
			C142.5-5.6,144.4-6.9,145.2-8.8L145.2-8.8z"/>
		<path id="Caminho_6382" class="st3" d="M160-11.8c-0.1-4.1,3-7.5,7.1-7.6c0.2,0,0.4,0,0.6,0c2.3-0.1,4.6,1,5.9,2.9l-1.5,1
			c-1-1.4-2.6-2.3-4.3-2.2c-3.2,0.1-5.8,2.8-5.7,6c0.1,3.1,2.6,5.6,5.7,5.7c1.7,0.1,3.4-0.8,4.3-2.2l1.5,1c-1.3,2-3.5,3.1-5.9,2.9
			c-4.1,0.2-7.5-3-7.7-7C160-11.4,160-11.6,160-11.8L160-11.8z"/>
		<path id="Caminho_6383" class="st3" d="M191-19.3v15h-1.9v-2.7c-1.1,1.9-3.2,3-5.4,2.9c-3.8,0-6.3-2.1-6.3-6.4v-8.7h2v8.5
			c0,3.2,1.7,4.8,4.5,4.8c3.1,0,5.1-2,5.1-5.4v-7.9L191-19.3L191-19.3z"/>
		<path id="Caminho_6384" class="st3" d="M204.2-19.4v2c-0.2,0-0.3,0-0.5,0c-3.1,0-5,2-5,5.5v7.6h-2v-15h1.9v2.9
			C199.5-18.4,201.5-19.4,204.2-19.4L204.2-19.4z"/>
		<path id="Caminho_6385" class="st3" d="M207.5-24c0-0.8,0.7-1.4,1.5-1.4c0,0,0,0,0,0c0.8,0,1.4,0.6,1.5,1.4c0,0,0,0,0,0
			c0,0.8-0.6,1.5-1.5,1.5S207.5-23.2,207.5-24L207.5-24L207.5-24z M207.9-19.3h2v15h-2V-19.3z"/>
		<path id="Caminho_6386" class="st3" d="M214.1-11.8c0-4.2,3.4-7.6,7.6-7.6c4.2,0,7.6,3.4,7.6,7.6c0,4.2-3.4,7.6-7.6,7.6
			c-4.1,0.2-7.5-3-7.6-7.1C214-11.4,214-11.6,214.1-11.8z M227.2-11.8c-0.1-3.1-2.8-5.5-5.8-5.3c-3.1,0.1-5.5,2.8-5.3,5.8
			c0.1,3,2.6,5.3,5.6,5.3C224.9-5.9,227.2-8.3,227.2-11.8z"/>
		<path id="Caminho_6387" class="st3" d="M231.3-6l0.9-1.6c1.6,1.1,3.4,1.7,5.3,1.7c2.8,0,4-1,4-2.5c0-3.9-9.7-0.8-9.7-6.7
			c0-2.5,2.1-4.3,5.9-4.3c1.9,0,3.7,0.5,5.3,1.4l-0.9,1.6c-1.3-0.9-2.9-1.3-4.4-1.3c-2.7,0-3.9,1.1-3.9,2.5c0,4,9.7,1,9.7,6.7
			c0,2.6-2.3,4.3-6.2,4.3C235.2-4.1,233.1-4.8,231.3-6z"/>
		<path id="Caminho_6388" class="st3" d="M246.8-24c0-0.8,0.7-1.4,1.5-1.4c0,0,0,0,0,0c0.8,0,1.4,0.6,1.5,1.4c0,0,0,0,0,0
			c0,0.8-0.6,1.5-1.5,1.5S246.8-23.2,246.8-24L246.8-24z M247.3-19.3h2v15h-2L247.3-19.3z"/>
		<path id="Caminho_6389" class="st3" d="M268.6-25.4v21.1h-1.9v-2.9c-1.2,2-3.4,3.2-5.8,3.1c-4.2-0.1-7.5-3.6-7.4-7.8
			c0.1-4.1,3.4-7.3,7.4-7.4c2.3-0.1,4.4,1,5.7,2.9v-9L268.6-25.4L268.6-25.4z M266.6-11.8c-0.1-3.1-2.8-5.5-5.8-5.3
			c-3.1,0.1-5.5,2.8-5.3,5.8c0.1,3,2.6,5.3,5.6,5.3C264.3-5.9,266.6-8.3,266.6-11.8z"/>
		<path id="Caminho_6390" class="st3" d="M285.5-13.6v9.3h-1.9v-2.3c-0.9,1.5-2.7,2.5-5.1,2.5c-3.4,0-5.5-1.8-5.5-4.3
			c0-2.3,1.5-4.2,5.8-4.2h4.8v-0.9c0-2.6-1.4-4-4.2-4c-1.8,0-3.6,0.6-5,1.8l-0.9-1.5c1.7-1.4,3.9-2.1,6.1-2
			C283.3-19.4,285.5-17.4,285.5-13.6L285.5-13.6z M283.5-8.8v-2.5h-4.7c-2.9,0-3.9,1.1-3.9,2.7c0,1.7,1.4,2.8,3.8,2.8
			C280.8-5.6,282.7-6.9,283.5-8.8L283.5-8.8z"/>
		<path id="Caminho_6391" class="st3" d="M304.7-25.4v21.1h-1.9v-2.9c-1.2,2-3.4,3.2-5.8,3.1c-4.2-0.1-7.5-3.6-7.4-7.8
			c0.1-4.1,3.4-7.3,7.4-7.4c2.3-0.1,4.4,1,5.7,2.9v-9L304.7-25.4L304.7-25.4z M302.7-11.8c-0.1-3.1-2.8-5.5-5.8-5.3
			c-3.1,0.1-5.5,2.8-5.3,5.8c0.1,3,2.6,5.3,5.6,5.3C300.4-5.9,302.7-8.3,302.7-11.8z"/>
		<path id="Caminho_6392" class="st3" d="M323.4-11.2h-12.5c0.2,3.1,2.8,5.4,5.8,5.2c0,0,0,0,0.1,0c1.7,0.1,3.4-0.7,4.6-2l1.1,1.3
			c-1.5,1.6-3.6,2.5-5.8,2.5c-4.7,0-7.9-3.2-7.9-7.6s3.1-7.6,7.3-7.6s7.3,3.1,7.3,7.6C323.4-11.6,323.4-11.4,323.4-11.2L323.4-11.2z
			 M310.9-12.7h10.6c-0.2-2.9-2.7-5.2-5.6-5C313.1-17.5,311-15.4,310.9-12.7L310.9-12.7z"/>
		<path id="Caminho_6393" class="st3" d="M335.9-24c0-0.8,0.7-1.4,1.5-1.4c0,0,0,0,0,0c0.8,0,1.4,0.6,1.5,1.4c0,0,0,0,0,0
			c0,0.8-0.6,1.5-1.5,1.5C336.6-22.5,336-23.2,335.9-24L335.9-24L335.9-24z M336.4-19.3h2v15h-2V-19.3z"/>
		<path id="Caminho_6394" class="st3" d="M357.8-13v8.7h-2v-8.5c0-3.2-1.7-4.8-4.5-4.8c-3.2,0-5.2,2-5.2,5.4v7.9h-2v-15h1.9v2.8
			c1.2-1.9,3.4-3,5.7-2.9C355.3-19.4,357.8-17.3,357.8-13L357.8-13z"/>
		<path id="Caminho_6395" class="st3" d="M371.2-5.2c-0.9,0.7-2,1.1-3.2,1.1c-2.8,0-4.4-1.6-4.4-4.3v-9.1H361v-1.7h2.7v-3.3h2v3.3
			h4.6v1.7h-4.6v8.9c0,1.8,0.9,2.7,2.6,2.7c0.8,0,1.6-0.3,2.2-0.8L371.2-5.2L371.2-5.2z"/>
		<path id="Caminho_6396" class="st3" d="M387.4-11.2h-12.5c0.2,3.1,2.8,5.4,5.8,5.2c0,0,0,0,0.1,0c1.7,0.1,3.4-0.7,4.6-2l1.1,1.3
			c-1.5,1.6-3.6,2.5-5.8,2.5c-4.7,0-7.9-3.2-7.9-7.6s3.1-7.6,7.3-7.6s7.3,3.1,7.3,7.6C387.4-11.6,387.4-11.4,387.4-11.2L387.4-11.2z
			 M374.9-12.7h10.6c-0.2-2.9-2.7-5.2-5.6-5C377.1-17.5,375-15.3,374.9-12.7L374.9-12.7z"/>
		<path id="Caminho_6397" class="st3" d="M391.5-25.4h2v21.1h-2V-25.4z"/>
		<path id="Caminho_6398" class="st3" d="M412.2-11.2h-12.5c0.2,3.1,2.8,5.4,5.8,5.2c0,0,0,0,0.1,0c1.7,0.1,3.4-0.7,4.6-2l1.1,1.3
			c-1.5,1.6-3.6,2.5-5.8,2.5c-4.7,0-7.9-3.2-7.9-7.6s3.1-7.6,7.3-7.6s7.3,3.1,7.3,7.6C412.3-11.6,412.2-11.4,412.2-11.2L412.2-11.2z
			 M399.7-12.7h10.6c-0.2-2.9-2.7-5.2-5.6-5C402-17.5,399.8-15.4,399.7-12.7L399.7-12.7z"/>
		<path id="Caminho_6399" class="st3" d="M414.9-11.8c-0.1-4.1,3-7.5,7.1-7.6c0.2,0,0.4,0,0.6,0c2.3-0.1,4.6,1,5.9,2.9l-1.5,1
			c-1-1.4-2.6-2.3-4.3-2.2c-3.2,0.1-5.8,2.8-5.7,6c0.1,3.1,2.6,5.6,5.7,5.7c1.7,0.1,3.4-0.8,4.3-2.2l1.5,1c-1.3,2-3.5,3.1-5.9,2.9
			c-4.1,0.2-7.5-3-7.7-7C414.9-11.4,414.9-11.6,414.9-11.8L414.9-11.8z"/>
		<path id="Caminho_6400" class="st3" d="M440.4-5.2c-0.9,0.7-2,1.1-3.2,1.1c-2.8,0-4.4-1.6-4.4-4.3v-9.1h-2.7v-1.7h2.7v-3.3h2v3.3
			h4.6v1.7h-4.6v8.9c0,1.8,0.9,2.7,2.6,2.7c0.8,0,1.6-0.3,2.2-0.8L440.4-5.2L440.4-5.2z"/>
		<path id="Caminho_6401" class="st3" d="M457.6-19.3v15h-1.9v-2.7c-1.1,1.9-3.2,3-5.4,2.9c-3.8,0-6.3-2.1-6.3-6.4v-8.7h2v8.5
			c0,3.2,1.7,4.8,4.5,4.8c3.1,0,5.1-2,5.1-5.4v-7.9L457.6-19.3L457.6-19.3z"/>
		<path id="Caminho_6402" class="st3" d="M474.5-13.6v9.3h-1.9v-2.3c-0.9,1.5-2.7,2.5-5.1,2.5c-3.4,0-5.5-1.8-5.5-4.3
			c0-2.3,1.5-4.2,5.8-4.2h4.8v-0.9c0-2.6-1.4-4-4.2-4c-1.8,0-3.6,0.6-5,1.8l-0.9-1.5c1.7-1.4,3.9-2.1,6.1-2
			C472.3-19.4,474.5-17.4,474.5-13.6L474.5-13.6z M472.5-8.8v-2.5h-4.7c-2.9,0-3.9,1.1-3.9,2.7c0,1.7,1.4,2.8,3.8,2.8
			C469.8-5.6,471.7-6.9,472.5-8.8L472.5-8.8z"/>
		<path id="Caminho_6403" class="st3" d="M480-25.4h2v21.1h-2V-25.4z"/>
		<path id="Caminho_6404" class="st3" d="M509.6-11.2h-12.5c0.2,3.1,2.8,5.4,5.8,5.2c0,0,0,0,0.1,0c1.7,0.1,3.4-0.7,4.6-2l1.1,1.3
			c-1.5,1.6-3.6,2.5-5.8,2.5c-4.7,0-7.9-3.2-7.9-7.6s3.1-7.6,7.3-7.6s7.3,3.1,7.3,7.6C509.6-11.6,509.6-11.4,509.6-11.2L509.6-11.2z
			 M497.1-12.7h10.6c-0.2-2.9-2.7-5.2-5.6-5C499.3-17.5,497.2-15.3,497.1-12.7L497.1-12.7z"/>
		<path id="Caminho_6405" class="st3" d="M537.8-11.8c0.2,4-2.9,7.4-6.9,7.6c-0.2,0-0.4,0-0.6,0c-2.3,0.1-4.4-1-5.7-2.9v8.3h-2
			v-20.5h1.9v2.9c1.2-2,3.4-3.2,5.8-3.1c4-0.1,7.3,3,7.5,7C537.8-12.2,537.8-12,537.8-11.8z M535.8-11.8c-0.1-3.1-2.8-5.5-5.8-5.3
			c-3.1,0.1-5.5,2.8-5.3,5.8c0.1,3,2.6,5.3,5.6,5.3c3,0,5.5-2.4,5.6-5.4C535.8-11.5,535.8-11.7,535.8-11.8z"/>
		<path id="Caminho_6406" class="st3" d="M554.9-11.2h-12.5c0.2,3.1,2.8,5.4,5.8,5.2c0,0,0,0,0.1,0c1.7,0.1,3.4-0.7,4.6-2l1.1,1.3
			c-1.5,1.6-3.6,2.5-5.8,2.5c-4.7,0-7.9-3.2-7.9-7.6s3.1-7.6,7.3-7.6c4.2,0,7.3,3.1,7.3,7.6C555-11.6,555-11.4,554.9-11.2
			L554.9-11.2z M542.4-12.7H553c-0.2-2.9-2.7-5.2-5.6-5C544.7-17.5,542.6-15.4,542.4-12.7L542.4-12.7z"/>
		<path id="Caminho_6407" class="st3" d="M557-6l0.9-1.6c1.6,1.1,3.4,1.7,5.3,1.7c2.8,0,4-1,4-2.5c0-3.9-9.7-0.8-9.7-6.7
			c0-2.5,2.1-4.3,5.9-4.3c1.9,0,3.7,0.5,5.3,1.4l-0.9,1.6c-1.3-0.9-2.9-1.3-4.4-1.3c-2.7,0-3.9,1.1-3.9,2.5c0,4,9.7,1,9.7,6.7
			c0,2.6-2.3,4.3-6.2,4.3C560.9-4.1,558.8-4.8,557-6L557-6z"/>
		<path id="Caminho_6408" class="st3" d="M586.7-19.3V1.2h-2v-8.3c-1.2,1.9-3.4,3-5.7,2.9c-4.2-0.1-7.5-3.6-7.4-7.8
			c0.1-4.1,3.4-7.3,7.4-7.4c2.3-0.1,4.5,1.1,5.8,3.1v-2.9L586.7-19.3z M584.7-11.8c-0.1-3.1-2.8-5.5-5.8-5.3
			c-3.1,0.1-5.5,2.8-5.3,5.8c0.1,3,2.6,5.3,5.6,5.3C582.3-6,584.7-8.3,584.7-11.8z"/>
		<path id="Caminho_6409" class="st3" d="M605.8-19.3v15h-1.9v-2.7c-1.1,1.9-3.2,3-5.4,2.9c-3.8,0-6.3-2.1-6.3-6.4v-8.7h2v8.5
			c0,3.2,1.7,4.8,4.5,4.8c3.1,0,5.1-2,5.1-5.4v-7.9L605.8-19.3L605.8-19.3z"/>
		<path id="Caminho_6410" class="st3" d="M611-24c0-0.8,0.7-1.4,1.5-1.4c0,0,0,0,0,0c0.8,0,1.4,0.6,1.5,1.4c0,0,0,0,0,0
			c0,0.8-0.6,1.5-1.5,1.5C611.6-22.5,611-23.2,611-24L611-24z M611.4-19.3h2v15h-2V-19.3z"/>
		<path id="Caminho_6411" class="st3" d="M617-6l0.9-1.6c1.6,1.1,3.4,1.7,5.3,1.7c2.8,0,4-1,4-2.5c0-3.9-9.7-0.8-9.7-6.7
			c0-2.5,2.1-4.3,5.9-4.3c1.9,0,3.7,0.5,5.3,1.4l-0.9,1.6c-1.3-0.9-2.9-1.3-4.4-1.3c-2.7,0-3.9,1.1-3.9,2.5c0,4,9.7,1,9.7,6.7
			c0,2.6-2.3,4.3-6.2,4.3C620.9-4.1,618.8-4.8,617-6L617-6z"/>
		<path id="Caminho_6412" class="st3" d="M646-11.2h-12.5c0.2,3.1,2.8,5.4,5.8,5.2c0,0,0,0,0.1,0c1.7,0.1,3.4-0.7,4.6-2l1.1,1.3
			c-1.5,1.6-3.6,2.5-5.8,2.5c-4.7,0-7.9-3.2-7.9-7.6s3.1-7.6,7.3-7.6c4.2,0,7.3,3.1,7.3,7.6C646.1-11.6,646-11.4,646-11.2L646-11.2z
			 M633.5-12.7h10.6c-0.2-2.9-2.7-5.2-5.6-5C635.8-17.5,633.6-15.3,633.5-12.7L633.5-12.7z"/>
		<path id="Caminho_6413" class="st3" d="M657-6l0.9-1.6c1.6,1.1,3.4,1.7,5.3,1.7c2.8,0,4-1,4-2.5c0-3.9-9.7-0.8-9.7-6.7
			c0-2.5,2.1-4.3,5.9-4.3c1.9,0,3.7,0.5,5.3,1.4l-0.9,1.6c-1.3-0.9-2.9-1.3-4.4-1.3c-2.7,0-3.9,1.1-3.9,2.5c0,4,9.7,1,9.7,6.7
			c0,2.6-2.3,4.3-6.2,4.3C660.9-4.1,658.7-4.8,657-6L657-6z"/>
		<path id="Caminho_6414" class="st3" d="M671.4-11.8c0-4.2,3.4-7.6,7.6-7.6c4.2,0,7.6,3.4,7.6,7.6c0,4.2-3.4,7.6-7.6,7.6
			c-4.1,0.2-7.5-3-7.6-7.1C671.4-11.4,671.4-11.6,671.4-11.8z M684.6-11.8c-0.1-3.1-2.8-5.5-5.8-5.3c-3.1,0.1-5.5,2.8-5.3,5.8
			c0.1,3,2.6,5.3,5.6,5.3C682.3-5.9,684.6-8.3,684.6-11.8L684.6-11.8z"/>
		<path id="Caminho_6415" class="st3" d="M705.9-11.8c0.2,4-2.9,7.4-6.9,7.6c-0.2,0-0.4,0-0.6,0c-2.3,0.1-4.5-1.1-5.8-3.1v2.9h-1.9
			v-21.1h2v9c1.2-1.9,3.4-3,5.7-2.9c4-0.1,7.3,3,7.5,7C706-12.2,706-12,705.9-11.8L705.9-11.8z M703.9-11.8
			c-0.1-3.1-2.8-5.5-5.8-5.3c-3.1,0.1-5.5,2.8-5.3,5.8c0.1,3,2.6,5.3,5.6,5.3c3,0.1,5.5-2.4,5.6-5.4
			C703.9-11.5,703.9-11.6,703.9-11.8z"/>
		<path id="Caminho_6416" class="st3" d="M717.6-19.4v2c-0.2,0-0.3,0-0.5,0c-3.1,0-5,2-5,5.5v7.6h-2v-15h1.9v2.9
			C712.9-18.4,714.8-19.4,717.6-19.4L717.6-19.4z"/>
		<path id="Caminho_6417" class="st3" d="M734.1-11.2h-12.5c0.2,3.1,2.8,5.4,5.8,5.2c0,0,0,0,0.1,0c1.7,0.1,3.4-0.7,4.6-2l1.1,1.3
			c-1.5,1.6-3.6,2.5-5.8,2.5c-4.7,0-7.9-3.2-7.9-7.6s3.1-7.6,7.3-7.6c4.2,0,7.3,3.1,7.3,7.6C734.2-11.6,734.2-11.4,734.1-11.2
			L734.1-11.2z M721.6-12.7h10.6c-0.2-2.9-2.7-5.2-5.6-5C723.9-17.5,721.8-15.3,721.6-12.7L721.6-12.7z"/>
		<path id="Caminho_6418" class="st3" d="M758.5-13.6v9.3h-1.9v-2.3c-0.9,1.5-2.7,2.5-5.1,2.5c-3.4,0-5.5-1.8-5.5-4.3
			c0-2.3,1.5-4.2,5.8-4.2h4.8v-0.9c0-2.6-1.4-4-4.2-4c-1.8,0-3.6,0.6-5,1.8l-0.9-1.5c1.7-1.4,3.9-2.1,6.1-2
			C756.3-19.4,758.5-17.4,758.5-13.6L758.5-13.6z M756.5-8.8v-2.5h-4.7c-2.9,0-3.9,1.1-3.9,2.7c0,1.7,1.4,2.8,3.8,2.8
			C753.8-5.6,755.7-6.9,756.5-8.8L756.5-8.8z"/>
		<path id="Caminho_6419" class="st3" d="M785.5-19.3l-6.6,15h-2.1l-6.6-15h2.1l5.6,12.7l5.7-12.7L785.5-19.3L785.5-19.3z"/>
		<path id="Caminho_6420" class="st3" d="M787.9-24c0-0.8,0.7-1.4,1.5-1.4c0,0,0,0,0,0c0.8,0,1.4,0.6,1.5,1.4c0,0,0,0,0,0
			c0,0.8-0.6,1.5-1.5,1.5C788.5-22.5,787.9-23.2,787.9-24L787.9-24z M788.3-19.3h2v15h-2V-19.3z"/>
		<path id="Caminho_6421" class="st3" d="M809.6-25.4v21.1h-1.9v-2.9c-1.2,2-3.4,3.2-5.8,3.1c-4.2-0.1-7.5-3.6-7.4-7.8
			c0.1-4.1,3.4-7.3,7.4-7.4c2.3-0.1,4.4,1,5.7,2.9v-9L809.6-25.4L809.6-25.4z M807.6-11.8c-0.1-3.1-2.8-5.5-5.8-5.3
			c-3.1,0.1-5.5,2.8-5.3,5.8c0.1,3,2.6,5.3,5.6,5.3C805.3-5.9,807.6-8.3,807.6-11.8z"/>
		<path id="Caminho_6422" class="st3" d="M826.5-13.6v9.3h-1.9v-2.3c-0.9,1.5-2.7,2.5-5.1,2.5c-3.4,0-5.5-1.8-5.5-4.3
			c0-2.3,1.5-4.2,5.8-4.2h4.8v-0.9c0-2.6-1.4-4-4.2-4c-1.8,0-3.6,0.6-5,1.8l-0.9-1.5c1.7-1.4,3.9-2.1,6.1-2
			C824.4-19.4,826.5-17.4,826.5-13.6L826.5-13.6z M824.5-8.8v-2.5h-4.7c-2.9,0-3.9,1.1-3.9,2.7c0,1.7,1.4,2.8,3.8,2.8
			C821.8-5.6,823.8-6.9,824.5-8.8L824.5-8.8z"/>
		<path id="Caminho_6423" class="st3" d="M854-11.2h-12.5c0.2,3.1,2.8,5.4,5.8,5.2c0,0,0,0,0.1,0c1.7,0.1,3.4-0.7,4.6-2l1.1,1.3
			c-1.5,1.6-3.6,2.5-5.8,2.5c-4.7,0-7.9-3.2-7.9-7.6s3.1-7.6,7.3-7.6c4.2,0,7.3,3.1,7.3,7.6C854-11.6,854-11.4,854-11.2L854-11.2z
			 M841.4-12.7H852c-0.2-2.9-2.7-5.2-5.6-5C843.7-17.5,841.6-15.4,841.4-12.7L841.4-12.7z"/>
		<path id="Caminho_6424" class="st3" d="M865.5-11.8c0-4.2,3.4-7.6,7.6-7.6c4.2,0,7.6,3.4,7.6,7.6c0,4.2-3.4,7.6-7.6,7.6
			c-4.1,0.2-7.5-3-7.6-7.1C865.5-11.4,865.5-11.6,865.5-11.8z M878.6-11.8c-0.1-3.1-2.8-5.5-5.8-5.3c-3.1,0.1-5.5,2.8-5.3,5.8
			c0.1,3,2.6,5.3,5.6,5.3C876.3-5.9,878.6-8.3,878.6-11.8L878.6-11.8z"/>
		<path id="Caminho_6425" class="st3" d="M900-11.8c0.2,4-2.9,7.4-6.9,7.6c-0.2,0-0.4,0-0.6,0c-2.3,0.1-4.5-1.1-5.8-3.1v2.9h-1.9
			v-21.1h2v9c1.2-1.9,3.4-3,5.7-2.9c4-0.1,7.3,3,7.5,7C900-12.2,900-12,900-11.8L900-11.8z M898-11.8c-0.1-3.1-2.8-5.5-5.8-5.3
			c-3.1,0.1-5.5,2.8-5.3,5.8c0.1,3,2.6,5.3,5.6,5.3c3,0.1,5.5-2.4,5.6-5.4C898-11.5,898-11.6,898-11.8L898-11.8z"/>
		<path id="Caminho_6426" class="st3" d="M911.6-19.4v2c-0.2,0-0.3,0-0.5,0c-3.1,0-5,2-5,5.5v7.6h-2v-15h1.9v2.9
			C907-18.4,908.9-19.4,911.6-19.4L911.6-19.4z"/>
		<path id="Caminho_6427" class="st3" d="M926.6-13.6v9.3h-1.9v-2.3c-0.9,1.5-2.7,2.5-5.1,2.5c-3.4,0-5.5-1.8-5.5-4.3
			c0-2.3,1.5-4.2,5.8-4.2h4.8v-0.9c0-2.6-1.4-4-4.2-4c-1.8,0-3.6,0.6-5,1.8l-0.9-1.5c1.7-1.4,3.9-2.1,6.1-2
			C924.4-19.4,926.6-17.4,926.6-13.6L926.6-13.6z M924.6-8.8v-2.5h-4.7c-2.9,0-3.9,1.1-3.9,2.7c0,1.7,1.4,2.8,3.8,2.8
			C921.9-5.6,923.8-6.9,924.6-8.8L924.6-8.8z"/>
		<path id="Caminho_6428" class="st3" d="M954.6-25.4v21.1h-1.9v-2.9c-1.2,2-3.4,3.2-5.8,3.1c-4.2-0.1-7.5-3.6-7.4-7.8
			c0.1-4.1,3.4-7.3,7.4-7.4c2.3-0.1,4.4,1,5.7,2.9v-9L954.6-25.4L954.6-25.4z M952.6-11.8c-0.1-3.1-2.8-5.5-5.8-5.3
			c-3.1,0.1-5.5,2.8-5.3,5.8c0.1,3,2.6,5.3,5.6,5.3C950.2-5.9,952.6-8.3,952.6-11.8z"/>
		<path id="Caminho_6429" class="st3" d="M958.7-11.8c0-4.2,3.4-7.6,7.6-7.6c4.2,0,7.6,3.4,7.6,7.6c0,4.2-3.4,7.6-7.6,7.6
			c-4.1,0.2-7.5-3-7.6-7.1C958.7-11.4,958.7-11.6,958.7-11.8z M971.9-11.8c-0.1-3.1-2.8-5.5-5.8-5.3c-3.1,0.1-5.5,2.8-5.3,5.8
			c0.1,3,2.6,5.3,5.6,5.3C969.5-5.9,971.9-8.3,971.9-11.8z"/>
		<path id="Caminho_6430" class="st3" d="M976-6l0.9-1.6c1.6,1.1,3.4,1.7,5.3,1.7c2.8,0,4-1,4-2.5c0-3.9-9.7-0.8-9.7-6.7
			c0-2.5,2.1-4.3,5.9-4.3c1.9,0,3.7,0.5,5.3,1.4l-0.9,1.6c-1.3-0.9-2.9-1.3-4.4-1.3c-2.7,0-3.9,1.1-3.9,2.5c0,4,9.7,1,9.7,6.7
			c0,2.6-2.3,4.3-6.2,4.3C979.9-4.1,977.7-4.8,976-6L976-6z"/>
	</g>
	<g id="Grupo_2454" transform="translate(173.599 287.89)">
		<path id="Caminho_6431" class="st3" d="M15.4-19.2V-6c0,5.1-2.5,7.5-7.5,7.5c-2.5,0.1-5-0.7-7-2.3l1-1.5c1.7,1.4,3.8,2.1,5.9,2
			c3.8,0,5.5-1.7,5.5-5.4v-1.9c-1.3,1.9-3.5,3-5.8,2.9c-4,0.2-7.3-2.9-7.5-6.8c0-0.2,0-0.3,0-0.5c0-4.3,3.2-7.2,7.5-7.2
			c2.4-0.1,4.6,1,5.9,3v-2.9L15.4-19.2L15.4-19.2z M13.4-12.1c0.1-3.1-2.3-5.8-5.5-5.9S2.2-15.6,2-12.4s2.3,5.8,5.5,5.9
			c0.1,0,0.1,0,0.2,0c2.9,0.2,5.5-2,5.7-5C13.4-11.7,13.4-11.9,13.4-12.1L13.4-12.1z"/>
		<path id="Caminho_6432" class="st3" d="M28.5-19.3v2c-0.2,0-0.3,0-0.5,0c-3.1,0-5,2-5,5.5v7.6h-2v-15h1.9v2.9
			C23.9-18.2,25.8-19.3,28.5-19.3L28.5-19.3z"/>
		<path id="Caminho_6433" class="st3" d="M43.5-13.5v9.3h-1.9v-2.3C40.7-5,38.9-4,36.4-4C33-4,31-5.8,31-8.4c0-2.3,1.5-4.2,5.8-4.2
			h4.8v-0.9c0-2.6-1.4-4-4.2-4c-1.8,0-3.6,0.6-5,1.8l-0.9-1.5c1.7-1.4,3.9-2.1,6.1-2C41.3-19.2,43.5-17.3,43.5-13.5L43.5-13.5z
			 M41.5-8.7v-2.5h-4.7c-2.9,0-3.9,1.1-3.9,2.7c0,1.7,1.4,2.8,3.8,2.8C38.8-5.5,40.7-6.8,41.5-8.7L41.5-8.7z"/>
		<path id="Caminho_6434" class="st3" d="M62.7-12.9v8.7h-2v-8.5c0-3.2-1.7-4.8-4.5-4.8c-3.2,0-5.2,2-5.2,5.4v7.9h-2v-15h1.9v2.8
			c1.2-1.9,3.4-3,5.7-2.9C60.2-19.3,62.8-17.2,62.7-12.9L62.7-12.9z"/>
		<path id="Caminho_6435" class="st3" d="M81.9-25.3v21.1H80v-2.9c-1.2,2-3.4,3.2-5.8,3.1c-4.2-0.1-7.5-3.6-7.4-7.8
			c0.1-4.1,3.4-7.3,7.4-7.4c2.3-0.1,4.4,1,5.7,2.9v-9L81.9-25.3L81.9-25.3z M80-11.7c-0.1-3.1-2.8-5.5-5.8-5.3
			c-3.1,0.1-5.5,2.8-5.3,5.8c0.1,3,2.6,5.3,5.6,5.3C77.6-5.8,80-8.2,80-11.7z"/>
		<path id="Caminho_6436" class="st3" d="M100.6-11H88.1c0.2,3.1,2.8,5.4,5.8,5.2c0,0,0,0,0.1,0c1.7,0.1,3.4-0.7,4.6-2l1.1,1.3
			C98.2-4.9,96.1-4,93.9-4c-4.7,0-7.9-3.2-7.9-7.6s3.1-7.6,7.3-7.6s7.3,3.1,7.3,7.6C100.6-11.5,100.6-11.3,100.6-11L100.6-11z
			 M88.1-12.5h10.6c-0.2-2.9-2.7-5.2-5.6-5C90.3-17.4,88.2-15.2,88.1-12.5L88.1-12.5z"/>
		<path id="Caminho_6437" class="st3" d="M102.7-5.9l0.9-1.6c1.6,1.1,3.4,1.7,5.3,1.7c2.8,0,4-1,4-2.5c0-3.9-9.7-0.8-9.7-6.7
			c0-2.5,2.1-4.3,5.9-4.3c1.9,0,3.7,0.5,5.3,1.4l-0.9,1.6c-1.3-0.9-2.9-1.3-4.4-1.3c-2.7,0-3.9,1.1-3.9,2.5c0,4,9.7,1,9.7,6.7
			c0,2.6-2.3,4.3-6.2,4.3C106.6-4,104.5-4.6,102.7-5.9L102.7-5.9z"/>
		<path id="Caminho_6438" class="st3" d="M147.4-11.7c0.2,4-2.9,7.4-6.8,7.6c-0.2,0-0.4,0-0.6,0c-2.3,0.1-4.4-1-5.7-2.9v8.3h-2
			v-20.5h1.9v2.9c1.2-2,3.4-3.2,5.8-3.1c4-0.1,7.3,3,7.5,7C147.4-12.1,147.4-11.9,147.4-11.7z M145.4-11.7c-0.1-3.1-2.8-5.5-5.8-5.3
			c-3.1,0.1-5.5,2.8-5.3,5.8c0.1,3,2.6,5.3,5.6,5.3c3,0,5.5-2.4,5.6-5.4C145.4-11.4,145.4-11.5,145.4-11.7z"/>
		<path id="Caminho_6439" class="st3" d="M164.5-11H152c0.2,3.1,2.8,5.4,5.8,5.2c0,0,0,0,0.1,0c1.7,0.1,3.4-0.7,4.6-2l1.1,1.3
			c-1.5,1.6-3.6,2.5-5.8,2.5c-4.7,0-7.9-3.2-7.9-7.6s3.1-7.6,7.3-7.6s7.3,3.1,7.3,7.6C164.6-11.5,164.6-11.3,164.5-11L164.5-11z
			 M152-12.5h10.6c-0.2-2.9-2.7-5.2-5.6-5C154.3-17.4,152.2-15.2,152-12.5L152-12.5z"/>
		<path id="Caminho_6440" class="st3" d="M182.5-12.9v8.7h-2v-8.5c0-3.2-1.7-4.8-4.5-4.8c-3.2,0-5.2,2-5.2,5.4v7.9h-2v-15h1.9v2.8
			c1.2-1.9,3.4-3,5.7-2.9C180-19.3,182.5-17.2,182.5-12.9L182.5-12.9z"/>
		<path id="Caminho_6441" class="st3" d="M185.9-5.9l0.9-1.6c1.6,1.1,3.4,1.7,5.3,1.7c2.8,0,4-1,4-2.5c0-3.9-9.7-0.8-9.7-6.7
			c0-2.5,2.1-4.3,5.9-4.3c1.9,0,3.7,0.5,5.3,1.4l-0.9,1.6c-1.3-0.9-2.9-1.3-4.4-1.3c-2.7,0-3.9,1.1-3.9,2.5c0,4,9.7,1,9.7,6.7
			c0,2.6-2.3,4.3-6.2,4.3C189.8-4,187.6-4.6,185.9-5.9L185.9-5.9z"/>
		<path id="Caminho_6442" class="st3" d="M213.1-13.5v9.3h-1.9v-2.3C210.3-5,208.5-4,206.1-4c-3.4,0-5.5-1.8-5.5-4.3
			c0-2.3,1.5-4.2,5.8-4.2h4.8v-0.9c0-2.6-1.4-4-4.2-4c-1.8,0-3.6,0.6-5,1.8l-0.9-1.5c1.7-1.4,3.9-2.1,6.1-2
			C210.9-19.2,213.1-17.3,213.1-13.5L213.1-13.5z M211.1-8.7v-2.5h-4.7c-2.9,0-3.9,1.1-3.9,2.7c0,1.7,1.4,2.8,3.8,2.8
			C208.4-5.5,210.4-6.8,211.1-8.7L211.1-8.7z"/>
		<path id="Caminho_6443" class="st3" d="M232.3-25.3v21.1h-1.9v-2.9c-1.2,2-3.4,3.2-5.8,3.1c-4.2-0.1-7.5-3.6-7.4-7.8
			c0.1-4.1,3.4-7.3,7.4-7.4c2.3-0.1,4.4,1,5.7,2.9v-9L232.3-25.3L232.3-25.3z M230.3-11.7c-0.1-3.1-2.8-5.5-5.8-5.3
			c-3.1,0.1-5.5,2.8-5.3,5.8c0.1,3,2.6,5.3,5.6,5.3C228-5.8,230.3-8.2,230.3-11.7L230.3-11.7z"/>
		<path id="Caminho_6444" class="st3" d="M236.4-11.7c0-4.2,3.4-7.6,7.6-7.6c4.2,0,7.6,3.4,7.6,7.6c0,4.2-3.4,7.6-7.6,7.6
			c-4.1,0.2-7.5-3-7.6-7.1C236.4-11.3,236.4-11.5,236.4-11.7z M249.6-11.7c-0.1-3.1-2.8-5.5-5.8-5.3c-3.1,0.1-5.5,2.8-5.3,5.8
			c0.1,3,2.6,5.3,5.6,5.3C247.3-5.8,249.6-8.2,249.6-11.7z"/>
		<path id="Caminho_6445" class="st3" d="M263.3-19.3v2c-0.2,0-0.3,0-0.5,0c-3.1,0-5,2-5,5.5v7.6h-2v-15h1.9v2.9
			C258.6-18.2,260.5-19.3,263.3-19.3L263.3-19.3z"/>
		<path id="Caminho_6446" class="st3" d="M279.9-11h-12.5c0.2,3.1,2.8,5.4,5.8,5.2c0,0,0,0,0.1,0c1.7,0.1,3.4-0.7,4.6-2l1.1,1.3
			c-1.5,1.6-3.6,2.5-5.8,2.5c-4.7,0-7.9-3.2-7.9-7.6s3.1-7.6,7.3-7.6s7.3,3.1,7.3,7.6C279.9-11.5,279.9-11.3,279.9-11L279.9-11z
			 M267.4-12.5H278c-0.2-2.9-2.7-5.2-5.6-5C269.6-17.4,267.5-15.2,267.4-12.5L267.4-12.5z"/>
		<path id="Caminho_6447" class="st3" d="M282-5.9l0.9-1.6c1.6,1.1,3.4,1.7,5.3,1.7c2.8,0,4-1,4-2.5c0-3.9-9.7-0.8-9.7-6.7
			c0-2.5,2.1-4.3,5.9-4.3c1.9,0,3.7,0.5,5.3,1.4l-0.9,1.6c-1.3-0.9-2.9-1.3-4.4-1.3c-2.7,0-3.9,1.1-3.9,2.5c0,4,9.7,1,9.7,6.7
			c0,2.6-2.3,4.3-6.2,4.3C285.9-4,283.7-4.6,282-5.9L282-5.9z"/>
		<path id="Caminho_6448" class="st3" d="M325.2-25.3v21.1h-1.9v-2.9c-1.2,2-3.4,3.2-5.8,3.1c-4.2-0.1-7.5-3.6-7.4-7.8
			c0.1-4.1,3.4-7.3,7.4-7.4c2.3-0.1,4.4,1,5.7,2.9v-9L325.2-25.3L325.2-25.3z M323.2-11.7c-0.1-3.1-2.8-5.5-5.8-5.3
			c-3.1,0.1-5.5,2.8-5.3,5.8c0.1,3,2.6,5.3,5.6,5.3C320.8-5.8,323.2-8.2,323.2-11.7z"/>
		<path id="Caminho_6449" class="st3" d="M342.1-13.5v9.3h-1.9v-2.3C339.3-5,337.5-4,335-4c-3.4,0-5.5-1.8-5.5-4.3
			c0-2.3,1.5-4.2,5.8-4.2h4.8v-0.9c0-2.6-1.4-4-4.2-4c-1.8,0-3.6,0.6-5,1.8l-0.9-1.5c1.7-1.4,3.9-2.1,6.1-2
			C339.9-19.2,342.1-17.3,342.1-13.5L342.1-13.5z M340.1-8.7v-2.5h-4.7c-2.9,0-3.9,1.1-3.9,2.7c0,1.7,1.4,2.8,3.8,2.8
			C337.4-5.5,339.3-6.8,340.1-8.7L340.1-8.7z"/>
		<path id="Caminho_6450" class="st3" d="M374.9-12.9v8.7h-2v-8.5c0-3.2-1.7-4.8-4.5-4.8c-3.2,0-5.2,2-5.2,5.4v7.9h-2v-21.1h2v8.8
			c1.3-1.8,3.4-2.9,5.6-2.7C372.5-19.3,375-17.2,374.9-12.9L374.9-12.9z"/>
		<path id="Caminho_6451" class="st3" d="M393.9-19.2v15H392v-2.7c-1.1,1.9-3.2,3-5.4,2.9c-3.8,0-6.3-2.1-6.3-6.4v-8.7h2v8.5
			c0,3.2,1.7,4.8,4.5,4.8c3.1,0,5.1-2,5.1-5.4v-7.9L393.9-19.2L393.9-19.2z"/>
		<path id="Caminho_6452" class="st3" d="M424.2-12.9v8.7h-2v-8.5c0-3.2-1.6-4.8-4.3-4.8c-3.1,0-5,2-5,5.4v7.9h-2v-8.5
			c0-3.2-1.6-4.8-4.3-4.8c-3.1,0-5,2-5,5.4v7.9h-2v-15h1.9v2.7c1.2-1.9,3.3-3,5.5-2.8c2.3-0.2,4.4,1.1,5.3,3.2
			c1.2-2.1,3.5-3.3,5.9-3.2C421.9-19.3,424.2-17.2,424.2-12.9L424.2-12.9z"/>
		<path id="Caminho_6453" class="st3" d="M441-13.5v9.3h-1.9v-2.3C438.2-5,436.4-4,433.9-4c-3.4,0-5.5-1.8-5.5-4.3
			c0-2.3,1.5-4.2,5.8-4.2h4.8v-0.9c0-2.6-1.4-4-4.2-4c-1.8,0-3.6,0.6-5,1.8l-0.9-1.5c1.7-1.4,3.9-2.1,6.1-2
			C438.8-19.2,441-17.3,441-13.5L441-13.5z M439-8.7v-2.5h-4.7c-2.9,0-3.9,1.1-3.9,2.7c0,1.7,1.4,2.8,3.8,2.8
			C436.3-5.5,438.3-6.8,439-8.7L439-8.7z"/>
		<path id="Caminho_6454" class="st3" d="M460.3-12.9v8.7h-2v-8.5c0-3.2-1.7-4.8-4.5-4.8c-3.2,0-5.2,2-5.2,5.4v7.9h-2v-15h1.9v2.8
			c1.2-1.9,3.4-3,5.7-2.9C457.8-19.3,460.3-17.2,460.3-12.9L460.3-12.9z"/>
		<path id="Caminho_6455" class="st3" d="M465.3-23.9c0-0.8,0.7-1.4,1.5-1.4c0,0,0,0,0,0c0.8,0,1.4,0.6,1.5,1.4c0,0,0,0,0,0
			c0,0.8-0.6,1.5-1.5,1.5S465.3-23.1,465.3-23.9L465.3-23.9L465.3-23.9z M465.8-19.2h2v15h-2V-19.2z"/>
		<path id="Caminho_6456" class="st3" d="M487.1-25.3v21.1h-1.9v-2.9c-1.2,2-3.4,3.2-5.8,3.1c-4.2-0.1-7.5-3.6-7.4-7.8
			c0.1-4.1,3.4-7.3,7.4-7.4c2.3-0.1,4.4,1,5.7,2.9v-9L487.1-25.3L487.1-25.3z M485.1-11.7c-0.1-3.1-2.8-5.5-5.8-5.3
			c-3.1,0.1-5.5,2.8-5.3,5.8c0.1,3,2.6,5.3,5.6,5.3C482.7-5.8,485.1-8.2,485.1-11.7z"/>
		<path id="Caminho_6457" class="st3" d="M504-13.5v9.3h-1.9v-2.3C501.2-5,499.4-4,496.9-4c-3.4,0-5.5-1.8-5.5-4.3
			c0-2.3,1.5-4.2,5.8-4.2h4.8v-0.9c0-2.6-1.4-4-4.2-4c-1.8,0-3.6,0.6-5,1.8l-0.9-1.5c1.7-1.4,3.9-2.1,6.1-2
			C501.8-19.2,504-17.3,504-13.5L504-13.5z M502-8.7v-2.5h-4.7c-2.9,0-3.9,1.1-3.9,2.7c0,1.7,1.4,2.8,3.8,2.8
			C499.3-5.5,501.2-6.8,502-8.7L502-8.7z"/>
		<path id="Caminho_6458" class="st3" d="M523.2-25.3v21.1h-1.9v-2.9c-1.2,2-3.4,3.2-5.8,3.1c-4.2-0.1-7.5-3.6-7.4-7.8
			c0.1-4.1,3.4-7.3,7.4-7.4c2.3-0.1,4.4,1,5.7,2.9v-9L523.2-25.3L523.2-25.3z M521.2-11.7c-0.1-3.1-2.8-5.5-5.8-5.3
			s-5.5,2.8-5.3,5.8c0.1,3,2.6,5.3,5.6,5.3C518.8-5.8,521.2-8.2,521.2-11.7z"/>
		<path id="Caminho_6459" class="st3" d="M541.8-11h-12.5c0.2,3.1,2.8,5.4,5.8,5.2c0,0,0,0,0.1,0c1.7,0.1,3.4-0.7,4.6-2l1.1,1.3
			c-1.5,1.6-3.6,2.5-5.8,2.5c-4.7,0-7.9-3.2-7.9-7.6s3.1-7.6,7.3-7.6c4.2,0,7.3,3.1,7.3,7.6C541.9-11.5,541.9-11.3,541.8-11
			L541.8-11z M529.3-12.5h10.6c-0.2-2.9-2.7-5.2-5.6-5C531.6-17.4,529.4-15.2,529.3-12.5L529.3-12.5z"/>
		<path id="Caminho_6460" class="st3" d="M573.2-25.3v21.1h-1.9v-2.9c-1.2,2-3.4,3.2-5.8,3.1c-4.2-0.1-7.5-3.6-7.4-7.8
			c0.1-4.1,3.4-7.3,7.4-7.4c2.3-0.1,4.4,1,5.7,2.9v-9L573.2-25.3L573.2-25.3z M571.2-11.7c-0.1-3.1-2.8-5.5-5.8-5.3
			s-5.5,2.8-5.3,5.8c0.1,3,2.6,5.3,5.6,5.3C568.9-5.8,571.2-8.2,571.2-11.7L571.2-11.7z"/>
		<path id="Caminho_6461" class="st3" d="M591.9-11h-12.5c0.2,3.1,2.8,5.4,5.8,5.2c0,0,0,0,0.1,0c1.7,0.1,3.4-0.7,4.6-2l1.1,1.3
			c-1.5,1.6-3.6,2.5-5.8,2.5c-4.7,0-7.9-3.2-7.9-7.6s3.1-7.6,7.3-7.6c4.2,0,7.3,3.1,7.3,7.6C591.9-11.5,591.9-11.3,591.9-11
			L591.9-11z M579.4-12.5H590c-0.2-2.9-2.7-5.2-5.6-5C581.6-17.4,579.5-15.2,579.4-12.5L579.4-12.5z"/>
		<path id="Caminho_6462" class="st3" d="M598.3-20.9v1.8h4.6v1.7h-4.5v13.3h-2v-13.3h-2.7v-1.7h2.7V-21c-0.2-2.3,1.5-4.3,3.8-4.5
			c0.2,0,0.5,0,0.7,0c1.1,0,2.1,0.3,3,0.9l-0.7,1.5c-0.6-0.5-1.4-0.8-2.2-0.8C599.3-23.8,598.4-22.8,598.3-20.9L598.3-20.9z"/>
		<path id="Caminho_6463" class="st3" d="M618.5-11H606c0.2,3.1,2.8,5.4,5.8,5.2c0,0,0,0,0.1,0c1.7,0.1,3.4-0.7,4.6-2l1.1,1.3
			c-1.5,1.6-3.6,2.5-5.8,2.5c-4.7,0-7.9-3.2-7.9-7.6s3.1-7.6,7.3-7.6c4.2,0,7.3,3.1,7.3,7.6C618.5-11.5,618.5-11.3,618.5-11
			L618.5-11z M606-12.5h10.6c-0.2-2.9-2.7-5.2-5.6-5C608.3-17.4,606.1-15.2,606-12.5L606-12.5z"/>
		<path id="Caminho_6464" class="st3" d="M636.4-12.9v8.7h-2v-8.5c0-3.2-1.7-4.8-4.5-4.8c-3.2,0-5.2,2-5.2,5.4v7.9h-2v-15h1.9v2.8
			c1.2-1.9,3.4-3,5.7-2.9C633.9-19.3,636.4-17.2,636.4-12.9L636.4-12.9z"/>
		<path id="Caminho_6465" class="st3" d="M639.8-5.9l0.9-1.6c1.6,1.1,3.4,1.7,5.3,1.7c2.8,0,4-1,4-2.5c0-3.9-9.7-0.8-9.7-6.7
			c0-2.5,2.1-4.3,5.9-4.3c1.9,0,3.7,0.5,5.3,1.4l-0.9,1.6c-1.3-0.9-2.9-1.3-4.4-1.3c-2.7,0-3.9,1.1-3.9,2.5c0,4,9.7,1,9.7,6.7
			c0,2.6-2.3,4.3-6.2,4.3C643.7-4,641.6-4.6,639.8-5.9L639.8-5.9z"/>
		<path id="Caminho_6466" class="st3" d="M654.3-11.7c0-4.2,3.4-7.6,7.6-7.6c4.2,0,7.6,3.4,7.6,7.6c0,4.2-3.4,7.6-7.6,7.6
			c-4.1,0.2-7.5-3-7.6-7.1C654.3-11.3,654.3-11.5,654.3-11.7z M667.5-11.7c-0.1-3.1-2.8-5.5-5.8-5.3c-3.1,0.1-5.5,2.8-5.3,5.8
			c0.1,3,2.6,5.3,5.6,5.3C665.1-5.8,667.5-8.2,667.5-11.7z"/>
		<path id="Caminho_6467" class="st3" d="M681.2-19.3v2c-0.2,0-0.3,0-0.5,0c-3.1,0-5,2-5,5.5v7.6h-2v-15h1.9v2.9
			C676.5-18.2,678.4-19.3,681.2-19.3L681.2-19.3z"/>
		<path id="Caminho_6468" class="st3" d="M697.7-11h-12.5c0.2,3.1,2.8,5.4,5.8,5.2c0,0,0,0,0.1,0c1.7,0.1,3.4-0.7,4.6-2l1.1,1.3
			c-1.5,1.6-3.6,2.5-5.8,2.5c-4.7,0-7.9-3.2-7.9-7.6s3.1-7.6,7.3-7.6c4.2,0,7.3,3.1,7.3,7.6C697.7-11.5,697.7-11.3,697.7-11
			L697.7-11z M685.2-12.5h10.6c-0.2-2.9-2.7-5.2-5.6-5C687.5-17.4,685.3-15.2,685.2-12.5L685.2-12.5z"/>
		<path id="Caminho_6469" class="st3" d="M699.8-5.9l0.9-1.6c1.6,1.1,3.4,1.7,5.3,1.7c2.8,0,4-1,4-2.5c0-3.9-9.7-0.8-9.7-6.7
			c0-2.5,2.1-4.3,5.9-4.3c1.9,0,3.7,0.5,5.3,1.4l-0.9,1.6c-1.3-0.9-2.9-1.3-4.4-1.3c-2.7,0-3.9,1.1-3.9,2.5c0,4,9.7,1,9.7,6.7
			c0,2.6-2.3,4.3-6.2,4.3C703.7-4,701.6-4.6,699.8-5.9L699.8-5.9z"/>
		<path id="Caminho_6470" class="st3" d="M743-25.3v21.1h-1.9v-2.9c-1.2,2-3.4,3.2-5.8,3.1c-4.2-0.1-7.5-3.6-7.4-7.8
			c0.1-4.1,3.4-7.3,7.4-7.4c2.3-0.1,4.4,1,5.7,2.9v-9L743-25.3L743-25.3z M741-11.7c-0.1-3.1-2.8-5.5-5.8-5.3s-5.5,2.8-5.3,5.8
			c0.1,3,2.6,5.3,5.6,5.3C738.7-5.8,741-8.2,741-11.7z"/>
		<path id="Caminho_6471" class="st3" d="M747.1-11.7c0-4.2,3.4-7.6,7.6-7.6c4.2,0,7.6,3.4,7.6,7.6c0,4.2-3.4,7.6-7.6,7.6
			c-4.1,0.2-7.5-3-7.6-7.1C747.1-11.3,747.1-11.5,747.1-11.7z M760.3-11.7c-0.1-3.1-2.8-5.5-5.8-5.3c-3.1,0.1-5.5,2.8-5.3,5.8
			c0.1,3,2.6,5.3,5.6,5.3C757.9-5.8,760.3-8.2,760.3-11.7z"/>
		<path id="Caminho_6472" class="st3" d="M793.7-25.3v21.1h-1.9v-2.9c-1.2,2-3.4,3.2-5.8,3.1c-4.2-0.1-7.5-3.6-7.4-7.8
			c0.1-4.1,3.4-7.3,7.4-7.4c2.3-0.1,4.4,1,5.7,2.9v-9L793.7-25.3L793.7-25.3z M791.7-11.7c-0.1-3.1-2.8-5.5-5.8-5.3
			c-3.1,0.1-5.5,2.8-5.3,5.8c0.1,3,2.6,5.3,5.6,5.3C789.4-5.8,791.7-8.2,791.7-11.7z"/>
		<path id="Caminho_6473" class="st3" d="M798.9-23.9c0-0.8,0.7-1.4,1.5-1.4c0,0,0,0,0,0c0.8,0,1.4,0.6,1.5,1.4c0,0,0,0,0,0
			c0,0.8-0.6,1.5-1.5,1.5C799.6-22.4,798.9-23.1,798.9-23.9L798.9-23.9L798.9-23.9z M799.4-19.2h2v15h-2V-19.2z"/>
		<path id="Caminho_6474" class="st3" d="M814.5-19.3v2c-0.2,0-0.3,0-0.5,0c-3.1,0-5,2-5,5.5v7.6h-2v-15h1.9v2.9
			C809.9-18.2,811.8-19.3,814.5-19.3L814.5-19.3z"/>
		<path id="Caminho_6475" class="st3" d="M831.1-11h-12.5c0.2,3.1,2.8,5.4,5.8,5.2c0,0,0,0,0.1,0c1.7,0.1,3.4-0.7,4.6-2l1.1,1.3
			c-1.5,1.6-3.6,2.5-5.8,2.5c-4.7,0-7.9-3.2-7.9-7.6s3.1-7.6,7.3-7.6c4.2,0,7.3,3.1,7.3,7.6C831.1-11.5,831.1-11.3,831.1-11
			L831.1-11z M818.6-12.5h10.6c-0.2-2.9-2.7-5.2-5.6-5C820.9-17.4,818.7-15.2,818.6-12.5L818.6-12.5z"/>
		<path id="Caminho_6476" class="st3" d="M834.8-23.9c0-0.8,0.7-1.4,1.5-1.4c0,0,0,0,0,0c0.8,0,1.4,0.6,1.5,1.4c0,0,0,0,0,0
			c0,0.8-0.6,1.5-1.5,1.5C835.5-22.4,834.8-23.1,834.8-23.9L834.8-23.9L834.8-23.9z M835.3-19.2h2v15h-2V-19.2z"/>
		<path id="Caminho_6477" class="st3" d="M850.8-5.1c-0.9,0.7-2,1.1-3.2,1.1c-2.8,0-4.4-1.6-4.4-4.3v-9.1h-2.7v-1.7h2.7v-3.3h2v3.3
			h4.6v1.7h-4.6v8.9c0,1.8,0.9,2.7,2.6,2.7c0.8,0,1.6-0.3,2.2-0.8L850.8-5.1L850.8-5.1z"/>
		<path id="Caminho_6478" class="st3" d="M852.4-11.7c0-4.2,3.4-7.6,7.6-7.6c4.2,0,7.6,3.4,7.6,7.6c0,4.2-3.4,7.6-7.6,7.6
			c-4.1,0.2-7.5-3-7.6-7.1C852.4-11.3,852.4-11.5,852.4-11.7z M865.6-11.7c-0.1-3.1-2.8-5.5-5.8-5.3c-3.1,0.1-5.5,2.8-5.3,5.8
			c0.1,3,2.6,5.3,5.6,5.3C863.2-5.8,865.6-8.2,865.6-11.7z"/>
		<path id="Caminho_6479" class="st3" d="M899.1-12.9v8.7h-2v-8.5c0-3.2-1.7-4.8-4.5-4.8c-3.2,0-5.2,2-5.2,5.4v7.9h-2v-15h1.9v2.8
			c1.2-1.9,3.4-3,5.7-2.9C896.6-19.3,899.1-17.2,899.1-12.9L899.1-12.9z"/>
		<path id="Caminho_6480" class="st3" d="M915.9-13.5v9.3H914v-2.3C913.1-5,911.3-4,908.8-4c-3.4,0-5.5-1.8-5.5-4.3
			c0-2.3,1.5-4.2,5.8-4.2h4.8v-0.9c0-2.6-1.4-4-4.2-4c-1.8,0-3.6,0.6-5,1.8l-0.9-1.5c1.7-1.4,3.9-2.1,6.1-2
			C913.7-19.2,915.9-17.3,915.9-13.5L915.9-13.5z M913.9-8.7v-2.5h-4.7c-2.9,0-3.9,1.1-3.9,2.7c0,1.7,1.4,2.8,3.8,2.8
			C911.2-5.5,913.1-6.8,913.9-8.7L913.9-8.7z"/>
		<path id="Caminho_6481" class="st3" d="M929.3-5.1c-0.9,0.7-2,1.1-3.2,1.1c-2.8,0-4.4-1.6-4.4-4.3v-9.1h-2.7v-1.7h2.7v-3.3h2v3.3
			h4.5v1.7h-4.5v8.9c0,1.8,0.9,2.7,2.6,2.7c0.8,0,1.6-0.3,2.2-0.8L929.3-5.1L929.3-5.1z"/>
		<path id="Caminho_6482" class="st3" d="M946.4-19.2v15h-1.9v-2.7c-1.1,1.9-3.2,3-5.4,2.9c-3.8,0-6.3-2.1-6.3-6.4v-8.7h2v8.5
			c0,3.2,1.7,4.8,4.5,4.8c3.1,0,5.1-2,5.1-5.4v-7.9L946.4-19.2L946.4-19.2z"/>
		<path id="Caminho_6483" class="st3" d="M959.6-19.3v2c-0.2,0-0.3,0-0.5,0c-3.1,0-5,2-5,5.5v7.6h-2v-15h1.9v2.9
			C954.9-18.2,956.9-19.3,959.6-19.3L959.6-19.3z"/>
		<path id="Caminho_6484" class="st3" d="M974.6-13.5v9.3h-1.9v-2.3C971.7-5,970-4,967.5-4c-3.4,0-5.5-1.8-5.5-4.3
			c0-2.3,1.5-4.2,5.8-4.2h4.8v-0.9c0-2.6-1.4-4-4.2-4c-1.8,0-3.6,0.6-5,1.8l-0.9-1.5c1.7-1.4,3.9-2.1,6.1-2
			C972.4-19.2,974.6-17.3,974.6-13.5L974.6-13.5z M972.6-8.7v-2.5h-4.7c-2.9,0-3.9,1.1-3.9,2.7c0,1.7,1.4,2.8,3.8,2.8
			C969.9-5.5,971.8-6.8,972.6-8.7L972.6-8.7z"/>
		<path id="Caminho_6485" class="st3" d="M980.1-25.3h2v21.1h-2V-25.3z"/>
		<path id="Caminho_6486" class="st3" d="M986.4-17.7c0-0.8,0.6-1.5,1.5-1.5c0,0,0,0,0,0c0.8,0,1.5,0.7,1.5,1.5c0,0,0,0,0,0
			c0,0.8-0.7,1.5-1.5,1.6C987.1-16.2,986.4-16.9,986.4-17.7z M986.4-5.6c0-0.8,0.6-1.5,1.5-1.5c0,0,0,0,0,0c0.8,0,1.5,0.7,1.5,1.5
			c0,0,0,0,0,0c0,0.8-0.7,1.5-1.5,1.6C987.1-4.1,986.4-4.8,986.4-5.6L986.4-5.6z"/>
	</g>
	<g id="Grupo_2455" transform="translate(172.332 334.537)">
		<path id="Caminho_6487" class="st3" d="M15.7-9.6H4.6L2.2-4.3H0l9.1-19.9h2.1l9.1,19.9H18L15.7-9.6z M14.9-11.3L10.1-22L5.3-11.3
			L14.9-11.3z"/>
		<path id="Caminho_6488" class="st3" d="M30.7-19.4v2c-0.2,0-0.3,0-0.5,0c-3.1,0-5,2-5,5.5v7.6h-2v-15h1.9v2.9
			C26-18.4,27.9-19.4,30.7-19.4L30.7-19.4z"/>
		<path id="Caminho_6489" class="st3" d="M33.9-24c0-0.8,0.7-1.4,1.5-1.4c0,0,0,0,0,0c0.8,0,1.4,0.6,1.5,1.4c0,0,0,0,0,0
			c0,0.8-0.6,1.5-1.5,1.5S33.9-23.2,33.9-24L33.9-24L33.9-24z M34.4-19.3h2v15h-2L34.4-19.3z"/>
		<path id="Caminho_6490" class="st3" d="M40-6l0.9-1.6c1.6,1.1,3.4,1.7,5.3,1.7c2.8,0,4-1,4-2.5c0-3.9-9.7-0.8-9.7-6.7
			c0-2.5,2.1-4.3,5.9-4.3c1.9,0,3.7,0.5,5.3,1.4l-0.9,1.6c-1.3-0.9-2.9-1.3-4.4-1.3c-2.7,0-3.9,1.1-3.9,2.5c0,4,9.7,1,9.7,6.7
			c0,2.6-2.3,4.3-6.2,4.3C43.9-4.1,41.7-4.8,40-6L40-6z"/>
		<path id="Caminho_6491" class="st3" d="M63.8-5.2c-0.9,0.7-2,1.1-3.2,1.1c-2.8,0-4.4-1.6-4.4-4.3v-9.1h-2.7v-1.7h2.7v-3.3h2v3.3
			h4.6v1.7h-4.6v8.9c0,1.8,0.9,2.7,2.6,2.7c0.8,0,1.6-0.3,2.2-0.8L63.8-5.2L63.8-5.2z"/>
		<path id="Caminho_6492" class="st3" d="M65.4-11.8c0-4.2,3.4-7.6,7.6-7.6s7.6,3.4,7.6,7.6c0,4.2-3.4,7.6-7.6,7.6
			c-4.1,0.2-7.5-3-7.6-7.1C65.4-11.4,65.4-11.6,65.4-11.8z M78.6-11.8c-0.1-3.1-2.8-5.5-5.8-5.3c-3.1,0.1-5.5,2.8-5.3,5.8
			c0.1,3,2.6,5.3,5.6,5.3C76.3-5.9,78.6-8.3,78.6-11.8z M75.1-25.1h2.7l-4.6,3.5h-2L75.1-25.1L75.1-25.1z"/>
		<path id="Caminho_6493" class="st3" d="M92.7-5.2c-0.9,0.7-2,1.1-3.2,1.1c-2.8,0-4.4-1.6-4.4-4.3v-9.1h-2.7v-1.7h2.7v-3.3h2v3.3
			h4.6v1.7h-4.5v8.9c0,1.8,0.9,2.7,2.6,2.7c0.8,0,1.6-0.3,2.2-0.8L92.7-5.2L92.7-5.2z"/>
		<path id="Caminho_6494" class="st3" d="M108.9-11.2H96.3c0.2,3.1,2.8,5.4,5.8,5.2c0,0,0,0,0.1,0c1.7,0.1,3.4-0.7,4.6-2l1.1,1.3
			c-1.5,1.6-3.6,2.5-5.8,2.5c-4.7,0-7.9-3.2-7.9-7.6s3.1-7.6,7.3-7.6s7.3,3.1,7.3,7.6C108.9-11.6,108.9-11.4,108.9-11.2L108.9-11.2z
			 M96.3-12.7h10.6c-0.2-2.9-2.7-5.2-5.6-5C98.6-17.5,96.5-15.4,96.3-12.7L96.3-12.7z"/>
		<path id="Caminho_6495" class="st3" d="M113-25.4h2v21.1h-2V-25.4z"/>
		<path id="Caminho_6496" class="st3" d="M133.7-11.2h-12.5c0.2,3.1,2.8,5.4,5.8,5.2c0,0,0,0,0.1,0c1.7,0.1,3.4-0.7,4.6-2l1.1,1.3
			c-1.5,1.6-3.6,2.5-5.8,2.5c-4.7,0-7.9-3.2-7.9-7.6s3.1-7.6,7.3-7.6s7.3,3.1,7.3,7.6C133.7-11.6,133.7-11.4,133.7-11.2L133.7-11.2z
			 M121.2-12.7h10.6c-0.2-2.9-2.7-5.2-5.6-5C123.4-17.5,121.3-15.4,121.2-12.7L121.2-12.7z"/>
		<path id="Caminho_6497" class="st3" d="M135.8-6l0.9-1.6c1.6,1.1,3.4,1.7,5.3,1.7c2.8,0,4-1,4-2.5c0-3.9-9.7-0.8-9.7-6.7
			c0-2.5,2.1-4.3,5.9-4.3c1.9,0,3.7,0.5,5.3,1.4l-0.9,1.6c-1.3-0.9-2.8-1.3-4.4-1.3c-2.7,0-3.9,1.1-3.9,2.5c0,4,9.7,1,9.7,6.7
			c0,2.6-2.3,4.3-6.2,4.3C139.7-4.1,137.5-4.8,135.8-6z"/>
		<path id="Caminho_6498" class="st3" d="M153.5-5.7c0,0.6-0.2,1.1-0.4,1.7l-1.2,3.9h-1.4l1-4.1c-0.6-0.2-1.1-0.8-1-1.4
			c0-0.8,0.6-1.5,1.4-1.5c0,0,0.1,0,0.1,0C152.8-7.3,153.5-6.6,153.5-5.7C153.5-5.8,153.5-5.8,153.5-5.7L153.5-5.7z"/>
		<path id="Caminho_6499" class="st3" d="M169.5-22.4h-7v-1.8h16.1v1.8h-7v18.1h-2.1V-22.4z"/>
		<path id="Caminho_6500" class="st3" d="M178.5-11.8c0-4.2,3.4-7.6,7.6-7.6s7.6,3.4,7.6,7.6c0,4.2-3.4,7.6-7.6,7.6
			c-4.1,0.2-7.5-3-7.6-7.1C178.5-11.4,178.5-11.6,178.5-11.8z M191.7-11.8c-0.1-3.1-2.8-5.5-5.8-5.3c-3.1,0.1-5.5,2.8-5.3,5.8
			c0.1,3,2.6,5.3,5.6,5.3C189.3-5.9,191.7-8.3,191.7-11.8z"/>
		<path id="Caminho_6501" class="st3" d="M222.5-13v8.7h-2v-8.5c0-3.2-1.6-4.8-4.3-4.8c-3.1,0-5,2-5,5.4v7.9h-2v-8.5
			c0-3.2-1.6-4.8-4.3-4.8c-3.1,0-5,2-5,5.4v7.9h-2v-15h1.9v2.7c1.2-1.9,3.3-3,5.5-2.8c2.3-0.2,4.4,1.1,5.3,3.2
			c1.2-2.1,3.5-3.3,5.9-3.2C220.2-19.4,222.5-17.3,222.5-13L222.5-13z"/>
		<path id="Caminho_6502" class="st3" d="M239.3-13.6v9.3h-1.9v-2.3c-0.9,1.5-2.7,2.5-5.1,2.5c-3.4,0-5.5-1.8-5.5-4.3
			c0-2.3,1.5-4.2,5.8-4.2h4.8v-0.9c0-2.6-1.4-4-4.2-4c-1.8,0-3.6,0.6-5,1.8l-0.9-1.5c1.7-1.4,3.9-2.1,6.1-2
			C237.1-19.3,239.3-17.4,239.3-13.6L239.3-13.6z M237.3-8.8v-2.5h-4.7c-2.9,0-3.9,1.1-3.9,2.7c0,1.7,1.4,2.8,3.8,2.8
			C234.6-5.6,236.5-6.9,237.3-8.8L237.3-8.8z M233.4-21.6h-2l3.9-3.5h2.7L233.4-21.6L233.4-21.6z"/>
		<path id="Caminho_6503" class="st3" d="M242.7-6l0.9-1.6c1.6,1.1,3.4,1.7,5.3,1.7c2.8,0,4-1,4-2.5c0-3.9-9.7-0.8-9.7-6.7
			c0-2.5,2.1-4.3,5.9-4.3c1.9,0,3.7,0.5,5.3,1.4l-0.9,1.6c-1.3-0.9-2.9-1.3-4.4-1.3c-2.7,0-3.9,1.1-3.9,2.5c0,4,9.7,1,9.7,6.7
			c0,2.6-2.3,4.3-6.2,4.3C246.6-4.1,244.5-4.8,242.7-6z"/>
		<path id="Caminho_6504" class="st3" d="M279.8-25.4v21.1h-1.9v-2.9c-1.2,2-3.4,3.2-5.8,3.1c-4.2-0.1-7.5-3.6-7.4-7.8
			c0.1-4.1,3.4-7.3,7.4-7.4c2.3-0.1,4.4,1,5.7,2.9v-9L279.8-25.4L279.8-25.4z M277.8-11.8c-0.1-3.1-2.8-5.5-5.8-5.3
			c-3.1,0.1-5.5,2.8-5.3,5.8c0.1,3,2.6,5.3,5.6,5.3C275.5-5.9,277.8-8.3,277.8-11.8z"/>
		<path id="Caminho_6505" class="st3" d="M298.4-11.2h-12.5c0.2,3.1,2.8,5.4,5.8,5.2c0,0,0,0,0.1,0c1.7,0.1,3.4-0.7,4.6-2l1.1,1.3
			c-1.5,1.6-3.6,2.5-5.8,2.5c-4.7,0-7.9-3.2-7.9-7.6s3.1-7.6,7.3-7.6s7.3,3.1,7.3,7.6C298.5-11.6,298.5-11.4,298.4-11.2L298.4-11.2z
			 M285.9-12.7h10.6c-0.2-2.9-2.7-5.2-5.6-5C288.2-17.5,286.1-15.4,285.9-12.7L285.9-12.7z"/>
		<path id="Caminho_6506" class="st3" d="M323-9.6h-11.1l-2.4,5.3h-2.2l9.1-19.9h2.1l9.1,19.9h-2.2L323-9.6z M322.2-11.3L317.4-22
			l-4.8,10.7L322.2-11.3L322.2-11.3z"/>
		<path id="Caminho_6507" class="st3" d="M344-19.3V1.2h-2v-8.3c-1.2,1.9-3.4,3-5.7,2.9c-4.2-0.1-7.5-3.6-7.4-7.8
			c0.1-4.1,3.4-7.3,7.4-7.4c2.3-0.1,4.5,1.1,5.8,3.1v-2.9H344z M342-11.8c-0.1-3.1-2.8-5.5-5.8-5.3s-5.5,2.8-5.3,5.8
			c0.1,3,2.6,5.3,5.6,5.3C339.7-5.9,342-8.3,342-11.8z"/>
		<path id="Caminho_6508" class="st3" d="M363.1-19.3v15h-1.9V-7c-1.1,1.9-3.2,3-5.4,2.9c-3.8,0-6.3-2.1-6.3-6.4v-8.7h2v8.5
			c0,3.2,1.7,4.8,4.5,4.8c3.1,0,5.1-2,5.1-5.4v-7.9L363.1-19.3L363.1-19.3z"/>
		<path id="Caminho_6509" class="st3" d="M368.3-24c0-0.8,0.7-1.4,1.5-1.4c0,0,0,0,0,0c0.8,0,1.4,0.6,1.5,1.4c0,0,0,0,0,0
			c0,0.8-0.6,1.5-1.5,1.5C369-22.5,368.3-23.2,368.3-24L368.3-24z M368.8-19.3h2v15h-2V-19.3z"/>
		<path id="Caminho_6510" class="st3" d="M390.2-13v8.7h-2v-8.5c0-3.2-1.7-4.8-4.5-4.8c-3.2,0-5.2,2-5.2,5.4v7.9h-2v-15h1.9v2.8
			c1.2-1.9,3.4-3,5.7-2.9C387.7-19.4,390.2-17.3,390.2-13L390.2-13z"/>
		<path id="Caminho_6511" class="st3" d="M394.2-11.8c0-4.2,3.4-7.6,7.6-7.6c4.2,0,7.6,3.4,7.6,7.6c0,4.2-3.4,7.6-7.6,7.6
			c-4.1,0.2-7.5-3-7.6-7.1C394.2-11.4,394.2-11.6,394.2-11.8z M407.4-11.8c-0.1-3.1-2.8-5.5-5.8-5.3c-3.1,0.1-5.5,2.8-5.3,5.8
			c0.1,3,2.6,5.3,5.6,5.3C405-5.9,407.4-8.3,407.4-11.8z"/>
		<path id="Caminho_6512" class="st3" d="M434-11.2h-12.5c0.2,3.1,2.8,5.4,5.8,5.2c0,0,0,0,0.1,0c1.7,0.1,3.4-0.7,4.6-2l1.1,1.3
			c-1.5,1.6-3.6,2.5-5.8,2.5c-4.7,0-7.9-3.2-7.9-7.6s3.1-7.6,7.3-7.6s7.3,3.1,7.3,7.6C434.1-11.6,434.1-11.4,434-11.2L434-11.2z
			 M421.5-12.7h10.6c-0.2-2.9-2.7-5.2-5.6-5C423.8-17.5,421.6-15.4,421.5-12.7L421.5-12.7z"/>
		<path id="Caminho_6513" class="st3" d="M442.7-7l1.2-1.4c0.9,1.5,2.5,2.4,4.3,2.5c2.5,0,3.7-1.4,3.7-4.4v-12.1h-7.3v-1.8h9.4v13.8
			c0,4.2-2,6.3-5.8,6.3C446-4.1,443.9-5.1,442.7-7L442.7-7z"/>
		<path id="Caminho_6514" class="st3" d="M458.4-11.8c0-4.2,3.4-7.6,7.6-7.6c4.2,0,7.6,3.4,7.6,7.6c0,4.2-3.4,7.6-7.6,7.6
			c-4.1,0.2-7.5-3-7.6-7.1C458.3-11.4,458.3-11.6,458.4-11.8z M471.5-11.8c-0.1-3.1-2.8-5.5-5.8-5.3c-3.1,0.1-5.5,2.8-5.3,5.8
			c0.1,3,2.6,5.3,5.6,5.3C469.2-5.9,471.5-8.3,471.5-11.8z"/>
		<path id="Caminho_6515" class="st3" d="M491.5-13v8.7h-2v-8.5c0-3.2-1.7-4.8-4.5-4.8c-3.2,0-5.2,2-5.2,5.4v7.9h-2v-21.1h2v8.8
			c1.3-1.8,3.4-2.9,5.6-2.7C489-19.4,491.5-17.3,491.5-13L491.5-13z"/>
		<path id="Caminho_6516" class="st3" d="M510.7-13v8.7h-2v-8.5c0-3.2-1.7-4.8-4.5-4.8c-3.2,0-5.2,2-5.2,5.4v7.9h-2v-15h1.9v2.8
			c1.2-1.9,3.4-3,5.7-2.9C508.3-19.4,510.8-17.3,510.7-13L510.7-13z"/>
		<path id="Caminho_6517" class="st3" d="M524.1-24.2h2.1v18.1h11.1v1.8h-13.3L524.1-24.2L524.1-24.2z"/>
		<path id="Caminho_6518" class="st3" d="M538.7-11.8c0-4.2,3.4-7.6,7.6-7.6s7.6,3.4,7.6,7.6c0,4.2-3.4,7.6-7.6,7.6
			c-4.1,0.2-7.5-3-7.6-7.1C538.7-11.4,538.7-11.6,538.7-11.8z M551.9-11.8c-0.1-3.1-2.8-5.5-5.8-5.3c-3.1,0.1-5.5,2.8-5.3,5.8
			c0.1,3,2.6,5.3,5.6,5.3C549.5-5.9,551.9-8.3,551.9-11.8L551.9-11.8z"/>
		<path id="Caminho_6519" class="st3" d="M556.6-11.8c-0.1-4.1,3-7.5,7.1-7.6c0.2,0,0.4,0,0.6,0c2.3-0.1,4.6,1,5.9,2.9l-1.5,1
			c-1-1.4-2.6-2.3-4.3-2.2c-3.2,0.1-5.8,2.8-5.7,6c0.1,3.1,2.6,5.6,5.7,5.7c1.7,0.1,3.4-0.8,4.3-2.2l1.5,1c-1.3,2-3.5,3.1-5.9,2.9
			c-4.1,0.2-7.5-3-7.7-7C556.6-11.4,556.6-11.6,556.6-11.8L556.6-11.8z"/>
		<path id="Caminho_6520" class="st3" d="M579.4-11.8l-3.5,3.2v4.3h-2v-21.1h2v14.3l8.9-8.2h2.5l-6.4,6.1l7,8.8h-2.5L579.4-11.8
			L579.4-11.8z"/>
		<path id="Caminho_6521" class="st3" d="M603.4-11.2h-12.5c0.2,3.1,2.8,5.4,5.8,5.2c0,0,0,0,0.1,0c1.7,0.1,3.4-0.7,4.6-2l1.1,1.3
			c-1.5,1.6-3.6,2.5-5.8,2.5c-4.7,0-7.9-3.2-7.9-7.6s3.1-7.6,7.3-7.6c4.2,0,7.3,3.1,7.3,7.6C603.4-11.6,603.4-11.4,603.4-11.2
			L603.4-11.2z M590.9-12.7h10.6c-0.2-2.9-2.7-5.2-5.6-5C593.1-17.5,591-15.4,590.9-12.7L590.9-12.7z"/>
		<path id="Caminho_6522" class="st3" d="M606.2-5.7c0-0.8,0.6-1.5,1.5-1.5c0,0,0,0,0,0c0.8,0,1.5,0.7,1.5,1.5c0,0,0,0,0,0
			c0,0.8-0.7,1.5-1.5,1.6c0,0,0,0,0,0C606.9-4.2,606.2-4.9,606.2-5.7C606.2-5.7,606.2-5.7,606.2-5.7z"/>
	</g>
	<path id="Caminho_6523" class="st4" d="M40.1,129.5v-69L99.9,26l59.8,34.5v69L99.9,164L40.1,129.5z M99.9,16.4L31.8,55.7v78.6
		l68.1,39.3l68.1-39.3V55.7L99.9,16.4z"/>
	<path id="Caminho_6524" class="st5" d="M159.7,60.5v69L99.9,164l-59.8-34.5v-69L99.9,26L159.7,60.5z"/>
	<path id="Caminho_6525" class="st4" d="M179.3,109.1v-3.5l-1.8-1V51l-46.3-26.8v-2.5l-3-1.7l-3,1.7v3.4l3,1.7l2.2-1.3l45.5,26.3
		v52.3l-2.5,1.4v3.5l3,1.7L179.3,109.1z"/>
	<path id="Caminho_6526" class="st4" d="M19.7,79.9v3.4l1.8,1.1V138l46.3,26.8v2.5l3,1.7l3-1.7v-3.4l-3-1.7l-2.2,1.3L23.2,137V84.7
		l2.5-1.4v-3.4l-3-1.7L19.7,79.9z"/>
	<g>
		<defs>
			<rect id="SVGID_00000111884367030166927540000011647490456057514132_" x="19.7" y="16.4" width="1284.4" height="448.1"/>
		</defs>
		<clipPath id="SVGID_00000045595627848293860540000005194004864171381383_">
			<use xlink:href="#SVGID_00000111884367030166927540000011647490456057514132_"  style="overflow:visible;"/>
		</clipPath>
		
			<g id="Grupo_2456" transform="translate(19.72 16.41)" style="clip-path:url(#SVGID_00000045595627848293860540000005194004864171381383_);">
			<path id="Caminho_6527" class="st4" d="M101.2,105.7c0-17.5,0.2-35,0.4-52.5c0-1.2-0.2-2.3-0.6-3.4c-0.2-0.6-1-1-1.8-1.7
				c-0.8,2.7,0.3,4.6-3.7,4c-4.1-0.6-2.1-2.5-2.9-5.1c-0.7-0.1-1.5-0.2-2.3-0.2c-0.9,2.4,0.7,4.4-3.2,4.4c-4.2,0.1-2.8-2.2-3.7-4.8
				c-0.9,0-1.8,0.1-2.5,0.1c-1.1,2.3,1.2,4.3-3.1,4.4c-4.4,0.1-2.4-2.2-3.7-4.4c-0.9-0.1-1.7-0.1-2.5-0.1c-1.1,2.4,1.1,4.7-3.3,4.9
				c-4.3,0.2-2.5-2.1-3.6-4.4c-1,0.1-1.9,0.2-2.7,0.3C61,49.7,62.8,51.4,59,52c-3.7,0.6-3.2-1.2-4.6-3.3C53.5,50,53,51.6,53,53.2
				c0,15.8,0,31.7,0.2,47.5c0.1,8.8,0.4,10.6,25.9,10.8c9.5-0.3,12-0.7,18-1.2C100,110.1,101.2,108.7,101.2,105.7 M106.4,107.6
				c0,5.3-0.4,5.9-5.6,6.7c-7,1-14,1.5-21,1.9c-7.9-0.3-31.8,2.4-31.5-7.1c0-15.3-0.6-30.8-0.8-46.1c-0.2-12.7-1.7-19.5,5.6-19.8
				c1.7-0.1,2.6-0.8,2.5-2.7c-0.3-5.1,6.9-4.7,6.3,1.3l2.9,0.2c0.9-2.4-0.8-6.1,3.4-6.1c3.7,0,2.7,3.3,3.4,5.7
				c0.9,0,1.8-0.1,2.7-0.1c1.2-2.3-1.2-6.3,3.5-6.2c4.3,0.1,2,3.9,3.3,6.3c0.7,0.1,1.5,0.1,2.5,0.2c0.4-2.5,0.3-6.6,3.3-6
				c1,0.1,2-0.1,2.9,0.9c0.9,1.9-1,6.5,2.9,5.2c0.9-2-0.6-5.4,3.5-5.1c4,0.3,2.4,3.4,2.9,5.6c7.2,2.4,7.2,0.3,7,8.4
				C106.2,69.6,106.3,88.6,106.4,107.6"/>
		</g>
	</g>
	<g>
		<defs>
			<rect id="SVGID_00000007405773162827201120000015201789964749927605_" x="19.7" y="16.4" width="1284.4" height="448.1"/>
		</defs>
		<clipPath id="SVGID_00000140708736540877385040000016305817413500997040_">
			<use xlink:href="#SVGID_00000007405773162827201120000015201789964749927605_"  style="overflow:visible;"/>
		</clipPath>
		
			<g id="Grupo_2457" transform="translate(19.72 16.41)" style="clip-path:url(#SVGID_00000140708736540877385040000016305817413500997040_);">
			<path id="Caminho_6528" class="st5" d="M101.5,53.2c-0.1,17.5-0.3,35-0.4,52.5c0,3.1-1.2,4.4-4.2,4.7c-6,0.5-8.5,0.9-18,1.2
				c-25.5-0.3-25.8-2-25.9-10.8c-0.2-15.8-0.2-31.7-0.2-47.5c0.1-1.6,0.6-3.2,1.4-4.6c1.4,2.1,1,4,4.6,3.3c3.7-0.6,2-2.3,2.9-4.9
				c0.8-0.1,1.7-0.2,2.7-0.3c1.1,2.3-0.7,4.6,3.6,4.4c4.4-0.2,2.2-2.4,3.3-4.9c0.8,0.1,1.7,0.1,2.5,0.1c1.3,2.1-0.7,4.5,3.7,4.4
				c4.2-0.1,2-2.1,3.1-4.4c0.8,0,1.6-0.1,2.5-0.1c0.9,2.5-0.6,4.8,3.7,4.8c3.9,0,2.3-2,3.2-4.4c0.8,0.1,1.6,0.2,2.3,0.2
				c0.8,2.6-1.2,4.4,2.9,5.1c4,0.6,2.9-1.2,3.7-4c0.8,0.7,1.6,1.1,1.8,1.7C101.3,51,101.5,52.1,101.5,53.2"/>
		</g>
	</g>
	<g>
		<defs>
			<rect id="SVGID_00000137847028052397961740000011532140629404487335_" x="19.7" y="16.4" width="1284.4" height="448.1"/>
		</defs>
		<clipPath id="SVGID_00000139280017978042418010000002171498092637229979_">
			<use xlink:href="#SVGID_00000137847028052397961740000011532140629404487335_"  style="overflow:visible;"/>
		</clipPath>
		
			<g id="Grupo_2458" transform="translate(19.72 16.41)" style="clip-path:url(#SVGID_00000139280017978042418010000002171498092637229979_);">
			<path id="Caminho_6529" class="st4" d="M64.9,129.5h-0.5c-3,0-5.3-2.4-5.4-5.3c0,0,0,0,0,0v-48h11.2v48
				C70.2,127.1,67.8,129.5,64.9,129.5"/>
		</g>
	</g>
	<path id="Caminho_6530" class="st4" d="M84.3,76.3l2.8,7.3l2.8,7.3H78.7l2.8-7.3L84.3,76.3z"/>
	<g>
		<defs>
			<rect id="SVGID_00000078042143887570318560000000418011420989670037_" x="19.7" y="16.4" width="1284.4" height="448.1"/>
		</defs>
		<clipPath id="SVGID_00000134219431401084829660000009937025719803723950_">
			<use xlink:href="#SVGID_00000078042143887570318560000000418011420989670037_"  style="overflow:visible;"/>
		</clipPath>
		
			<g id="Grupo_2459" transform="translate(19.72 16.41)" style="clip-path:url(#SVGID_00000134219431401084829660000009937025719803723950_);">
			<path id="Caminho_6531" class="st5" d="M64.6,127.2h-0.1c-0.6,0-1.1-0.5-1.1-1.1c0,0,0,0,0,0v-47h2.4v47
				C65.7,126.7,65.2,127.2,64.6,127.2"/>
		</g>
	</g>
	<g>
		<defs>
			<rect id="SVGID_00000081614471020717805770000015201460237111846330_" x="19.7" y="16.4" width="1284.4" height="448.1"/>
		</defs>
		<clipPath id="SVGID_00000061458252965416611400000013266828716335479949_">
			<use xlink:href="#SVGID_00000081614471020717805770000015201460237111846330_"  style="overflow:visible;"/>
		</clipPath>
		
			<g id="Grupo_2460" transform="translate(19.72 16.41)" style="clip-path:url(#SVGID_00000061458252965416611400000013266828716335479949_);">
			<path id="Caminho_6532" class="st4" d="M124.8,79.2c0,12.1-9.8,22-22,22c-12.1,0-22-9.8-22-22c0-12.1,9.8-22,22-22
				C115,57.2,124.8,67,124.8,79.2"/>
		</g>
	</g>
	<g>
		<defs>
			<rect id="SVGID_00000111890241032873791980000006721925988193364608_" x="19.7" y="16.4" width="1284.4" height="448.1"/>
		</defs>
		<clipPath id="SVGID_00000160163768875972417340000013343627987941336196_">
			<use xlink:href="#SVGID_00000111890241032873791980000006721925988193364608_"  style="overflow:visible;"/>
		</clipPath>
		
			<g id="Grupo_2461" transform="translate(19.72 16.41)" style="clip-path:url(#SVGID_00000160163768875972417340000013343627987941336196_);">
			<path id="Caminho_6533" class="st5" d="M100,82v8.4c-0.2,1.5,0.9,2.8,2.3,3c0.2,0,0.3,0,0.5,0c1.8,0,2.8-1.1,2.8-3.1V82h8.5
				c1.5,0.1,2.8-1,2.9-2.5c0-0.1,0-0.2,0-0.4c0.1-1.5-1-2.8-2.5-2.9c-0.1,0-0.3,0-0.4,0h-8.5v-8.4c0.2-1.5-0.9-2.8-2.3-3
				c-0.2,0-0.3,0-0.5,0c-1.8,0-2.8,1.1-2.8,3.1v8.4h-8.5c-1.5-0.1-2.8,1-2.9,2.4c0,0.1,0,0.3,0,0.4c-0.1,1.5,1,2.8,2.5,2.9
				c0.1,0,0.3,0,0.4,0L100,82"/>
		</g>
	</g>
</g>
</svg>
