<?xml version="1.0" encoding="UTF-8"?>
<svg id="Camada_2" data-name="Camada 2" xmlns="http://www.w3.org/2000/svg" xmlns:xlink="http://www.w3.org/1999/xlink" viewBox="0 0 1324.11 268.98">
  <defs>
    <style>
      .cls-1 {
        fill: #116c98;
      }

      .cls-2 {
        fill: url(#linear-gradient);
      }

      .cls-3 {
        fill: #231f20;
      }
    </style>
    <linearGradient id="linear-gradient" x1="1342.49" y1="-273.31" x2="-93.28" y2="590.69" gradientUnits="userSpaceOnUse">
      <stop offset="0" stop-color="#afb1b4"/>
      <stop offset=".03" stop-color="#c3c5c7"/>
      <stop offset=".08" stop-color="#d9dadb"/>
      <stop offset=".13" stop-color="#eaebeb"/>
      <stop offset=".2" stop-color="#f6f6f6"/>
      <stop offset=".29" stop-color="#fdfdfd"/>
      <stop offset=".54" stop-color="#fff"/>
      <stop offset=".75" stop-color="#fdfdfd"/>
      <stop offset=".83" stop-color="#f6f6f6"/>
      <stop offset=".88" stop-color="#eaebeb"/>
      <stop offset=".92" stop-color="#d9dadb"/>
      <stop offset=".96" stop-color="#c3c5c7"/>
      <stop offset=".99" stop-color="#afb1b4"/>
    </linearGradient>
  </defs>
  <g id="Layer_1" data-name="Layer 1">
    <g>
      <g>
        <rect class="cls-1" x="4.44" width="1060.61" height="199.4" rx="79.76" ry="79.76"/>
        <rect class="cls-1" x="263.5" y="69.58" width="1060.61" height="199.4" rx="79.76" ry="79.76"/>
        <rect class="cls-2" x="7.91" y="3.72" width="1312.94" height="262.07" rx="79.76" ry="79.76"/>
        <g>
          <path class="cls-3" d="m108.1,75.06c0,4.37-3.28,7.08-8.51,7.08h-3.95v5.4h-4.54v-19.6h8.48c5.24,0,8.51,2.72,8.51,7.11Zm-4.59,0c0-2.16-1.4-3.42-4.17-3.42h-3.7v6.8h3.7c2.77,0,4.17-1.26,4.17-3.39Z"/>
          <path class="cls-3" d="m124.2,78.96v8.6h-4.09v-1.88c-.81,1.37-2.38,2.1-4.59,2.1-3.53,0-5.63-1.96-5.63-4.56s1.88-4.51,6.47-4.51h3.47c0-1.88-1.12-2.97-3.47-2.97-1.6,0-3.25.53-4.34,1.4l-1.57-3.05c1.65-1.18,4.09-1.82,6.5-1.82,4.59,0,7.25,2.13,7.25,6.69Zm-4.37,3.84v-1.54h-3c-2.04,0-2.69.76-2.69,1.76,0,1.09.92,1.82,2.46,1.82,1.46,0,2.72-.67,3.22-2.04Z"/>
          <path class="cls-3" d="m137.5,72.26v4.03c-.36-.03-.64-.06-.98-.06-2.41,0-4,1.32-4,4.2v7.11h-4.37v-15.06h4.17v1.99c1.06-1.46,2.86-2.21,5.18-2.21Z"/>
          <path class="cls-3" d="m153.35,78.96v8.6h-4.09v-1.88c-.81,1.37-2.38,2.1-4.59,2.1-3.53,0-5.63-1.96-5.63-4.56s1.88-4.51,6.47-4.51h3.47c0-1.88-1.12-2.97-3.47-2.97-1.6,0-3.25.53-4.34,1.4l-1.57-3.05c1.65-1.18,4.09-1.82,6.5-1.82,4.59,0,7.25,2.13,7.25,6.69Zm-4.37,3.84v-1.54h-3c-2.04,0-2.69.76-2.69,1.76,0,1.09.92,1.82,2.46,1.82,1.46,0,2.72-.67,3.22-2.04Zm-1.57-12.24h-3.42l3.78-4.03h4.7l-5.07,4.03Z"/>
          <path class="cls-3" d="m173.01,72.49v12.54c0,5.6-3.02,8.18-8.46,8.18-2.86,0-5.63-.7-7.39-2.07l1.74-3.14c1.29,1.04,3.39,1.71,5.32,1.71,3.08,0,4.42-1.4,4.42-4.12v-.64c-1.15,1.26-2.8,1.88-4.76,1.88-4.17,0-7.53-2.88-7.53-7.28s3.36-7.28,7.53-7.28c2.1,0,3.84.7,4.98,2.16v-1.93h4.14Zm-4.31,7.06c0-2.21-1.65-3.7-3.95-3.7s-3.98,1.48-3.98,3.7,1.68,3.7,3.98,3.7,3.95-1.48,3.95-3.7Z"/>
          <path class="cls-3" d="m186.42,72.26v4.03c-.36-.03-.64-.06-.98-.06-2.41,0-4,1.32-4,4.2v7.11h-4.37v-15.06h4.17v1.99c1.06-1.46,2.86-2.21,5.18-2.21Z"/>
          <path class="cls-3" d="m202.27,78.96v8.6h-4.09v-1.88c-.81,1.37-2.38,2.1-4.59,2.1-3.53,0-5.63-1.96-5.63-4.56s1.88-4.51,6.47-4.51h3.47c0-1.88-1.12-2.97-3.47-2.97-1.6,0-3.25.53-4.34,1.4l-1.57-3.05c1.65-1.18,4.09-1.82,6.5-1.82,4.59,0,7.25,2.13,7.25,6.69Zm-4.37,3.84v-1.54h-3c-2.04,0-2.69.76-2.69,1.76,0,1.09.92,1.82,2.46,1.82,1.46,0,2.72-.67,3.22-2.04Z"/>
          <path class="cls-3" d="m211,72.82h3.86v3.36h-3.75v11.37h-4.37v-11.37h-2.32v-3.36h2.32v-.67c0-3.39,2.07-5.6,5.82-5.6,1.23,0,2.52.25,3.33.81l-1.15,3.16c-.48-.34-1.09-.53-1.76-.53-1.29,0-1.99.7-1.99,2.18v.64Z"/>
          <path class="cls-3" d="m215.74,80.02c0-4.54,3.5-7.76,8.29-7.76s8.26,3.22,8.26,7.76-3.47,7.76-8.26,7.76-8.29-3.22-8.29-7.76Zm12.12,0c0-2.6-1.65-4.17-3.84-4.17s-3.86,1.57-3.86,4.17,1.68,4.17,3.86,4.17,3.84-1.57,3.84-4.17Z"/>
          <path class="cls-3" d="m233.74,86.15l1.46-3.14c1.34.87,3.39,1.46,5.24,1.46,2.02,0,2.77-.53,2.77-1.37,0-2.46-9.1.06-9.1-5.96,0-2.86,2.58-4.87,6.97-4.87,2.07,0,4.37.48,5.8,1.32l-1.46,3.11c-1.48-.84-2.97-1.12-4.34-1.12-1.96,0-2.8.62-2.8,1.4,0,2.58,9.1.08,9.1,6.02,0,2.8-2.6,4.79-7.11,4.79-2.55,0-5.12-.7-6.52-1.62Z"/>
          <path class="cls-3" d="m90.24,153.75c0-5.71,4.37-9.97,10.3-9.97s10.28,4.23,10.28,9.97-4.4,9.97-10.28,9.97-10.3-4.26-10.3-9.97Zm18.51,0c0-4.68-3.5-8.12-8.2-8.12s-8.26,3.44-8.26,8.12,3.53,8.12,8.26,8.12,8.2-3.44,8.2-8.12Z"/>
          <path class="cls-3" d="m113,161.87l.9-1.57c1.18.92,3.16,1.65,5.24,1.65,2.8,0,3.95-.95,3.95-2.41,0-3.84-9.55-.81-9.55-6.64,0-2.41,2.07-4.2,5.82-4.2,1.9,0,3.98.53,5.21,1.37l-.87,1.6c-1.29-.9-2.83-1.26-4.34-1.26-2.66,0-3.84,1.04-3.84,2.44,0,3.98,9.55.98,9.55,6.64,0,2.55-2.24,4.2-6.08,4.2-2.44,0-4.79-.78-5.99-1.82Z"/>
          <path class="cls-3" d="m151,156.19c0,4.48-3.14,7.5-7.34,7.5-2.35,0-4.37-1.01-5.6-2.91v8.2h-1.99v-20.16h1.9v2.91c1.2-1.96,3.25-3.02,5.68-3.02,4.2,0,7.34,3.02,7.34,7.48Zm-1.99,0c0-3.42-2.38-5.74-5.49-5.74s-5.49,2.32-5.49,5.74,2.35,5.74,5.49,5.74,5.49-2.3,5.49-5.74Z"/>
          <path class="cls-3" d="m166.09,154.42v9.13h-1.9v-2.3c-.9,1.51-2.63,2.44-5.07,2.44-3.33,0-5.38-1.74-5.38-4.28,0-2.27,1.46-4.17,5.68-4.17h4.68v-.9c0-2.52-1.43-3.89-4.17-3.89-1.9,0-3.7.67-4.9,1.74l-.9-1.48c1.48-1.26,3.67-1.99,5.99-1.99,3.81,0,5.96,1.9,5.96,5.71Zm-1.99,4.7v-2.41h-4.62c-2.86,0-3.78,1.12-3.78,2.63,0,1.71,1.37,2.77,3.72,2.77s3.89-1.06,4.68-3Z"/>
          <path class="cls-3" d="m178.91,148.71v1.93c-.17,0-.34-.03-.48-.03-3.08,0-4.96,1.96-4.96,5.43v7.5h-1.99v-14.73h1.9v2.88c.92-1.96,2.8-3,5.52-3Z"/>
          <path class="cls-3" d="m193.59,154.42v9.13h-1.9v-2.3c-.9,1.51-2.63,2.44-5.07,2.44-3.33,0-5.38-1.74-5.38-4.28,0-2.27,1.46-4.17,5.68-4.17h4.68v-.9c0-2.52-1.43-3.89-4.17-3.89-1.9,0-3.7.67-4.9,1.74l-.9-1.48c1.48-1.26,3.67-1.99,5.99-1.99,3.81,0,5.96,1.9,5.96,5.71Zm-1.99,4.7v-2.41h-4.62c-2.86,0-3.78,1.12-3.78,2.63,0,1.71,1.37,2.77,3.72,2.77s3.89-1.06,4.68-3Zm-3.78-12.57h-1.96l3.84-3.47h2.66l-4.54,3.47Z"/>
          <path class="cls-3" d="m212.68,148.82v12.94c0,5.07-2.49,7.36-7.36,7.36-2.69,0-5.32-.81-6.86-2.27l1.01-1.51c1.4,1.26,3.53,2.02,5.8,2.02,3.72,0,5.43-1.71,5.43-5.35v-1.88c-1.23,1.88-3.33,2.86-5.74,2.86-4.2,0-7.39-2.94-7.39-7.17s3.19-7.11,7.39-7.11c2.46,0,4.59,1.01,5.82,2.94v-2.83h1.9Zm-1.93,7c0-3.19-2.35-5.38-5.6-5.38s-5.57,2.18-5.57,5.38,2.32,5.4,5.57,5.4,5.6-2.21,5.6-5.4Z"/>
          <path class="cls-3" d="m225.67,148.71v1.93c-.17,0-.34-.03-.48-.03-3.08,0-4.96,1.96-4.96,5.43v7.5h-1.99v-14.73h1.9v2.88c.92-1.96,2.8-3,5.52-3Z"/>
          <path class="cls-3" d="m240.35,154.42v9.13h-1.9v-2.3c-.9,1.51-2.63,2.44-5.07,2.44-3.33,0-5.38-1.74-5.38-4.28,0-2.27,1.46-4.17,5.68-4.17h4.68v-.9c0-2.52-1.43-3.89-4.17-3.89-1.9,0-3.7.67-4.9,1.74l-.9-1.48c1.48-1.26,3.67-1.99,5.99-1.99,3.81,0,5.96,1.9,5.96,5.71Zm-1.99,4.7v-2.41h-4.62c-2.86,0-3.78,1.12-3.78,2.63,0,1.71,1.37,2.77,3.72,2.77s3.89-1.06,4.68-3Z"/>
          <path class="cls-3" d="m248.02,147.09v1.74h4.54v1.68h-4.48v13.05h-1.99v-13.05h-2.63v-1.68h2.63v-1.82c0-2.63,1.57-4.37,4.45-4.37,1.09,0,2.21.31,2.94.92l-.67,1.48c-.56-.48-1.34-.73-2.18-.73-1.71,0-2.6.95-2.6,2.77Z"/>
          <path class="cls-3" d="m253.5,156.19c0-4.37,3.19-7.48,7.5-7.48s7.48,3.11,7.48,7.48-3.16,7.5-7.48,7.5-7.5-3.14-7.5-7.5Zm12.96,0c0-3.44-2.32-5.74-5.46-5.74s-5.49,2.3-5.49,5.74,2.35,5.74,5.49,5.74,5.46-2.3,5.46-5.74Z"/>
          <path class="cls-3" d="m270.5,161.87l.9-1.57c1.18.92,3.16,1.65,5.24,1.65,2.8,0,3.95-.95,3.95-2.41,0-3.84-9.55-.81-9.55-6.64,0-2.41,2.07-4.2,5.82-4.2,1.9,0,3.98.53,5.21,1.37l-.87,1.6c-1.29-.9-2.83-1.26-4.34-1.26-2.66,0-3.84,1.04-3.84,2.44,0,3.98,9.55.98,9.55,6.64,0,2.55-2.24,4.2-6.08,4.2-2.44,0-4.79-.78-5.99-1.82Z"/>
          <path class="cls-3" d="m301.33,162.65c-.78.7-1.96,1.04-3.11,1.04-2.77,0-4.31-1.57-4.31-4.28v-8.9h-2.63v-1.68h2.63v-3.22h1.99v3.22h4.48v1.68h-4.48v8.79c0,1.74.9,2.69,2.55,2.69.81,0,1.62-.25,2.18-.76l.7,1.43Z"/>
          <path class="cls-3" d="m317.23,156.8h-12.32c.22,3.08,2.58,5.12,5.8,5.12,1.79,0,3.39-.64,4.51-1.93l1.12,1.29c-1.32,1.57-3.36,2.41-5.68,2.41-4.59,0-7.73-3.14-7.73-7.5s3.05-7.48,7.2-7.48,7.14,3.05,7.14,7.48c0,.17-.03.39-.03.62Zm-12.32-1.48h10.44c-.25-2.88-2.35-4.9-5.24-4.9s-4.96,2.02-5.21,4.9Zm2.44-8.76h-1.85l3.61-3.47h2.02l3.61,3.47h-1.85l-2.77-2.32-2.77,2.32Z"/>
          <path class="cls-3" d="m345.63,155.01v8.54h-1.99v-8.34c0-3.11-1.57-4.7-4.23-4.7-3.02,0-4.93,1.96-4.93,5.32v7.73h-1.99v-8.34c0-3.11-1.57-4.7-4.26-4.7-3,0-4.93,1.96-4.93,5.32v7.73h-1.99v-14.73h1.9v2.69c1.04-1.76,2.94-2.8,5.4-2.8s4.34,1.04,5.24,3.11c1.06-1.9,3.16-3.11,5.82-3.11,3.58,0,5.94,2.07,5.94,6.3Z"/>
          <path class="cls-3" d="m373.29,156.19c0,4.48-3.14,7.5-7.34,7.5-2.35,0-4.37-1.01-5.6-2.91v8.2h-1.99v-20.16h1.9v2.91c1.2-1.96,3.25-3.02,5.68-3.02,4.2,0,7.34,3.02,7.34,7.48Zm-1.99,0c0-3.42-2.38-5.74-5.49-5.74s-5.49,2.32-5.49,5.74,2.35,5.74,5.49,5.74,5.49-2.3,5.49-5.74Z"/>
          <path class="cls-3" d="m375.86,156.19c0-4.37,3.19-7.48,7.5-7.48s7.48,3.11,7.48,7.48-3.16,7.5-7.48,7.5-7.5-3.14-7.5-7.5Zm12.96,0c0-3.44-2.32-5.74-5.46-5.74s-5.49,2.3-5.49,5.74,2.35,5.74,5.49,5.74,5.46-2.3,5.46-5.74Z"/>
          <path class="cls-3" d="m402.32,148.71v1.93c-.17,0-.34-.03-.48-.03-3.08,0-4.96,1.96-4.96,5.43v7.5h-1.99v-14.73h1.9v2.88c.92-1.96,2.8-3,5.52-3Z"/>
          <path class="cls-3" d="m415.74,147.09v1.74h4.54v1.68h-4.48v13.05h-1.99v-13.05h-2.63v-1.68h2.63v-1.82c0-2.63,1.57-4.37,4.45-4.37,1.09,0,2.21.31,2.94.92l-.67,1.48c-.56-.48-1.34-.73-2.18-.73-1.71,0-2.6.95-2.6,2.77Z"/>
          <path class="cls-3" d="m436.23,148.82v14.73h-1.9v-2.69c-1.04,1.79-2.94,2.83-5.29,2.83-3.75,0-6.22-2.1-6.22-6.33v-8.54h1.99v8.34c0,3.14,1.62,4.73,4.42,4.73,3.08,0,5.01-1.99,5.01-5.35v-7.73h1.99Z"/>
          <path class="cls-3" d="m455.36,155.01v8.54h-1.99v-8.34c0-3.11-1.62-4.7-4.42-4.7-3.16,0-5.15,1.96-5.15,5.32v7.73h-1.99v-14.73h1.9v2.72c1.06-1.79,3.05-2.83,5.6-2.83,3.58,0,6.05,2.07,6.05,6.3Z"/>
          <path class="cls-3" d="m471.2,159.77l1.48,1.01c-1.18,1.9-3.28,2.91-5.77,2.91h-.06l-.34,1.32c1.54.14,2.38,1.04,2.38,2.27,0,1.51-1.29,2.44-3.16,2.44-.92,0-1.68-.2-2.35-.64l.48-1.06c.56.36,1.18.53,1.85.53,1.12,0,1.74-.48,1.74-1.32,0-.76-.56-1.29-1.74-1.29h-.64l.62-2.32c-3.75-.53-6.36-3.44-6.36-7.42,0-4.4,3.19-7.48,7.59-7.48,2.49,0,4.59.98,5.77,2.91l-1.48,1.01c-1.01-1.48-2.58-2.18-4.28-2.18-3.22,0-5.57,2.3-5.57,5.74s2.35,5.74,5.57,5.74c1.71,0,3.28-.67,4.28-2.16Z"/>
          <path class="cls-3" d="m487.69,154.42v9.13h-1.9v-2.3c-.9,1.51-2.63,2.44-5.07,2.44-3.33,0-5.38-1.74-5.38-4.28,0-2.27,1.46-4.17,5.68-4.17h4.68v-.9c0-2.52-1.43-3.89-4.17-3.89-1.9,0-3.7.67-4.9,1.74l-.9-1.48c1.48-1.26,3.67-1.99,5.99-1.99,3.81,0,5.96,1.9,5.96,5.71Zm-1.99,4.7v-2.41h-4.62c-2.86,0-3.78,1.12-3.78,2.63,0,1.71,1.37,2.77,3.72,2.77s3.89-1.06,4.68-3Zm-7.14-12.85h-1.2c.06-1.88,1.04-3.08,2.52-3.08,1.74,0,2.58,1.9,3.67,1.9.84,0,1.4-.67,1.46-1.74h1.2c-.06,1.82-1.04,3.02-2.52,3.02-1.74,0-2.55-1.9-3.67-1.9-.84,0-1.4.67-1.46,1.79Z"/>
          <path class="cls-3" d="m491.67,156.19c0-4.37,3.19-7.48,7.5-7.48s7.48,3.11,7.48,7.48-3.16,7.5-7.48,7.5-7.5-3.14-7.5-7.5Zm12.96,0c0-3.44-2.32-5.74-5.46-5.74s-5.49,2.3-5.49,5.74,2.35,5.74,5.49,5.74,5.46-2.3,5.46-5.74Z"/>
          <path class="cls-3" d="m516.56,156.19c0-4.4,3.19-7.48,7.59-7.48,2.49,0,4.59.98,5.77,2.91l-1.48,1.01c-1.01-1.48-2.58-2.18-4.28-2.18-3.22,0-5.57,2.3-5.57,5.74s2.35,5.74,5.57,5.74c1.71,0,3.28-.67,4.28-2.16l1.48,1.01c-1.18,1.9-3.28,2.91-5.77,2.91-4.4,0-7.59-3.11-7.59-7.5Z"/>
          <path class="cls-3" d="m532.07,156.19c0-4.37,3.19-7.48,7.5-7.48s7.48,3.11,7.48,7.48-3.16,7.5-7.48,7.5-7.5-3.14-7.5-7.5Zm12.96,0c0-3.44-2.32-5.74-5.46-5.74s-5.49,2.3-5.49,5.74,2.35,5.74,5.49,5.74,5.46-2.3,5.46-5.74Z"/>
          <path class="cls-3" d="m575.42,155.01v8.54h-1.99v-8.34c0-3.11-1.57-4.7-4.23-4.7-3.02,0-4.93,1.96-4.93,5.32v7.73h-1.99v-8.34c0-3.11-1.57-4.7-4.26-4.7-3,0-4.93,1.96-4.93,5.32v7.73h-1.99v-14.73h1.9v2.69c1.04-1.76,2.94-2.8,5.4-2.8s4.34,1.04,5.24,3.11c1.06-1.9,3.16-3.11,5.82-3.11,3.58,0,5.94,2.07,5.94,6.3Z"/>
          <path class="cls-3" d="m595.75,156.19c0,4.48-3.14,7.5-7.34,7.5-2.35,0-4.37-1.01-5.6-2.91v8.2h-1.99v-20.16h1.9v2.91c1.2-1.96,3.25-3.02,5.68-3.02,4.2,0,7.34,3.02,7.34,7.48Zm-1.99,0c0-3.42-2.38-5.74-5.49-5.74s-5.49,2.32-5.49,5.74,2.35,5.74,5.49,5.74,5.49-2.3,5.49-5.74Z"/>
          <path class="cls-3" d="m599.81,142.77h1.99v20.78h-1.99v-20.78Z"/>
          <path class="cls-3" d="m620.16,156.8h-12.32c.22,3.08,2.58,5.12,5.8,5.12,1.79,0,3.39-.64,4.51-1.93l1.12,1.29c-1.32,1.57-3.36,2.41-5.68,2.41-4.59,0-7.73-3.14-7.73-7.5s3.05-7.48,7.2-7.48,7.14,3.05,7.14,7.48c0,.17-.03.39-.03.62Zm-12.32-1.48h10.44c-.25-2.88-2.35-4.9-5.24-4.9s-4.96,2.02-5.21,4.9Z"/>
          <path class="cls-3" d="m648.55,155.01v8.54h-1.99v-8.34c0-3.11-1.57-4.7-4.23-4.7-3.02,0-4.93,1.96-4.93,5.32v7.73h-1.99v-8.34c0-3.11-1.57-4.7-4.26-4.7-3,0-4.93,1.96-4.93,5.32v7.73h-1.99v-14.73h1.9v2.69c1.04-1.76,2.94-2.8,5.4-2.8s4.34,1.04,5.24,3.11c1.06-1.9,3.16-3.11,5.82-3.11,3.58,0,5.94,2.07,5.94,6.3Z"/>
          <path class="cls-3" d="m666.84,156.8h-12.32c.22,3.08,2.58,5.12,5.8,5.12,1.79,0,3.39-.64,4.51-1.93l1.12,1.29c-1.32,1.57-3.36,2.41-5.68,2.41-4.59,0-7.73-3.14-7.73-7.5s3.05-7.48,7.2-7.48,7.14,3.05,7.14,7.48c0,.17-.03.39-.03.62Zm-12.32-1.48h10.44c-.25-2.88-2.35-4.9-5.24-4.9s-4.96,2.02-5.21,4.9Z"/>
          <path class="cls-3" d="m684.48,155.01v8.54h-1.99v-8.34c0-3.11-1.62-4.7-4.42-4.7-3.16,0-5.15,1.96-5.15,5.32v7.73h-1.99v-14.73h1.9v2.72c1.06-1.79,3.05-2.83,5.6-2.83,3.58,0,6.05,2.07,6.05,6.3Z"/>
          <path class="cls-3" d="m697.64,162.65c-.78.7-1.96,1.04-3.11,1.04-2.77,0-4.31-1.57-4.31-4.28v-8.9h-2.63v-1.68h2.63v-3.22h1.99v3.22h4.48v1.68h-4.48v8.79c0,1.74.9,2.69,2.55,2.69.81,0,1.62-.25,2.18-.76l.7,1.43Z"/>
          <path class="cls-3" d="m712.36,154.42v9.13h-1.9v-2.3c-.9,1.51-2.63,2.44-5.07,2.44-3.33,0-5.38-1.74-5.38-4.28,0-2.27,1.46-4.17,5.68-4.17h4.68v-.9c0-2.52-1.43-3.89-4.17-3.89-1.9,0-3.7.67-4.9,1.74l-.9-1.48c1.48-1.26,3.67-1.99,5.99-1.99,3.81,0,5.96,1.9,5.96,5.71Zm-1.99,4.7v-2.41h-4.62c-2.86,0-3.78,1.12-3.78,2.63,0,1.71,1.37,2.77,3.72,2.77s3.89-1.06,4.68-3Z"/>
          <path class="cls-3" d="m725.19,148.71v1.93c-.17,0-.34-.03-.48-.03-3.08,0-4.96,1.96-4.96,5.43v7.5h-1.99v-14.73h1.9v2.88c.92-1.96,2.8-3,5.52-3Z"/>
          <path class="cls-3" d="m734.85,156.19c0-4.37,3.19-7.48,7.5-7.48s7.48,3.11,7.48,7.48-3.16,7.5-7.48,7.5-7.5-3.14-7.5-7.5Zm12.96,0c0-3.44-2.32-5.74-5.46-5.74s-5.49,2.3-5.49,5.74,2.35,5.74,5.49,5.74,5.46-2.3,5.46-5.74Z"/>
          <path class="cls-3" d="m759.74,156.19c0-4.4,3.19-7.48,7.59-7.48,2.49,0,4.59.98,5.77,2.91l-1.48,1.01c-1.01-1.48-2.58-2.18-4.28-2.18-3.22,0-5.57,2.3-5.57,5.74s2.35,5.74,5.57,5.74c1.71,0,3.28-.67,4.28-2.16l1.48,1.01c-1.18,1.9-3.28,2.91-5.77,2.91-4.4,0-7.59-3.11-7.59-7.5Z"/>
          <path class="cls-3" d="m775.25,156.19c0-4.37,3.19-7.48,7.5-7.48s7.48,3.11,7.48,7.48-3.16,7.5-7.48,7.5-7.5-3.14-7.5-7.5Zm12.96,0c0-3.44-2.32-5.74-5.46-5.74s-5.49,2.3-5.49,5.74,2.35,5.74,5.49,5.74,5.46-2.3,5.46-5.74Z"/>
          <path class="cls-3" d="m807.84,155.01v8.54h-1.99v-8.34c0-3.11-1.62-4.7-4.42-4.7-3.16,0-5.15,1.96-5.15,5.32v7.73h-1.99v-14.73h1.9v2.72c1.06-1.79,3.05-2.83,5.6-2.83,3.58,0,6.05,2.07,6.05,6.3Z"/>
          <path class="cls-3" d="m821,162.65c-.78.7-1.96,1.04-3.11,1.04-2.77,0-4.31-1.57-4.31-4.28v-8.9h-2.63v-1.68h2.63v-3.22h1.99v3.22h4.48v1.68h-4.48v8.79c0,1.74.9,2.69,2.55,2.69.81,0,1.62-.25,2.18-.76l.7,1.43Z"/>
          <path class="cls-3" d="m836.91,156.8h-12.32c.22,3.08,2.58,5.12,5.8,5.12,1.79,0,3.39-.64,4.51-1.93l1.12,1.29c-1.32,1.57-3.36,2.41-5.68,2.41-4.59,0-7.73-3.14-7.73-7.5s3.05-7.48,7.2-7.48,7.14,3.05,7.14,7.48c0,.17-.03.39-.03.62Zm-12.32-1.48h10.44c-.25-2.88-2.35-4.9-5.24-4.9s-4.96,2.02-5.21,4.9Z"/>
          <path class="cls-3" d="m854.27,148.82v14.73h-1.9v-2.69c-1.04,1.79-2.94,2.83-5.29,2.83-3.75,0-6.22-2.1-6.22-6.33v-8.54h1.99v8.34c0,3.14,1.62,4.73,4.42,4.73,3.08,0,5.01-1.99,5.01-5.35v-7.73h1.99Zm-6.55-2.27h-1.96l3.84-3.47h2.66l-4.54,3.47Z"/>
          <path class="cls-3" d="m873.28,142.77v20.78h-1.9v-2.91c-1.2,1.99-3.25,3.05-5.68,3.05-4.2,0-7.34-3.05-7.34-7.5s3.14-7.48,7.34-7.48c2.35,0,4.37,1.01,5.6,2.91v-8.85h1.99Zm-1.96,13.41c0-3.44-2.35-5.74-5.46-5.74s-5.49,2.3-5.49,5.74,2.35,5.74,5.49,5.74,5.46-2.3,5.46-5.74Z"/>
          <path class="cls-3" d="m877.34,156.19c0-4.37,3.19-7.48,7.5-7.48s7.48,3.11,7.48,7.48-3.16,7.5-7.48,7.5-7.5-3.14-7.5-7.5Zm12.96,0c0-3.44-2.32-5.74-5.46-5.74s-5.49,2.3-5.49,5.74,2.35,5.74,5.49,5.74,5.46-2.3,5.46-5.74Z"/>
          <path class="cls-3" d="m917.27,155.01v8.54h-1.99v-8.34c0-3.11-1.62-4.7-4.42-4.7-3.16,0-5.15,1.96-5.15,5.32v7.73h-1.99v-14.73h1.9v2.72c1.06-1.79,3.05-2.83,5.6-2.83,3.58,0,6.05,2.07,6.05,6.3Z"/>
          <path class="cls-3" d="m921.24,156.19c0-4.37,3.19-7.48,7.5-7.48s7.48,3.11,7.48,7.48-3.16,7.5-7.48,7.5-7.5-3.14-7.5-7.5Zm12.96,0c0-3.44-2.32-5.74-5.46-5.74s-5.49,2.3-5.49,5.74,2.35,5.74,5.49,5.74,5.46-2.3,5.46-5.74Z"/>
          <path class="cls-3" d="m947.7,148.71v1.93c-.17,0-.34-.03-.48-.03-3.08,0-4.96,1.96-4.96,5.43v7.5h-1.99v-14.73h1.9v2.88c.92-1.96,2.8-3,5.52-3Z"/>
          <path class="cls-3" d="m975.59,155.01v8.54h-1.99v-8.34c0-3.11-1.57-4.7-4.23-4.7-3.02,0-4.93,1.96-4.93,5.32v7.73h-1.99v-8.34c0-3.11-1.57-4.7-4.26-4.7-3,0-4.93,1.96-4.93,5.32v7.73h-1.99v-14.73h1.9v2.69c1.04-1.76,2.94-2.8,5.4-2.8s4.34,1.04,5.24,3.11c1.06-1.9,3.16-3.11,5.82-3.11,3.58,0,5.94,2.07,5.94,6.3Z"/>
          <path class="cls-3" d="m992.11,154.42v9.13h-1.9v-2.3c-.9,1.51-2.63,2.44-5.07,2.44-3.33,0-5.38-1.74-5.38-4.28,0-2.27,1.46-4.17,5.68-4.17h4.68v-.9c0-2.52-1.43-3.89-4.17-3.89-1.9,0-3.7.67-4.9,1.74l-.9-1.48c1.48-1.26,3.67-1.99,5.99-1.99,3.81,0,5.96,1.9,5.96,5.71Zm-1.99,4.7v-2.41h-4.62c-2.86,0-3.78,1.12-3.78,2.63,0,1.71,1.37,2.77,3.72,2.77s3.89-1.06,4.68-3Z"/>
          <path class="cls-3" d="m1005.27,162.65c-.78.7-1.96,1.04-3.11,1.04-2.77,0-4.31-1.57-4.31-4.28v-8.9h-2.63v-1.68h2.63v-3.22h1.99v3.22h4.48v1.68h-4.48v8.79c0,1.74.9,2.69,2.55,2.69.81,0,1.62-.25,2.18-.76l.7,1.43Z"/>
          <path class="cls-3" d="m1008.43,144.18c0-.76.64-1.4,1.46-1.4s1.46.62,1.46,1.37c0,.81-.62,1.46-1.46,1.46s-1.46-.64-1.46-1.43Zm.45,4.65h1.99v14.73h-1.99v-14.73Z"/>
          <path class="cls-3" d="m1028.79,148.82l-6.55,14.73h-2.04l-6.52-14.73h2.07l5.52,12.54,5.57-12.54h1.96Z"/>
          <path class="cls-3" d="m1029.69,156.19c0-4.37,3.19-7.48,7.5-7.48s7.48,3.11,7.48,7.48-3.16,7.5-7.48,7.5-7.5-3.14-7.5-7.5Zm12.96,0c0-3.44-2.32-5.74-5.46-5.74s-5.49,2.3-5.49,5.74,2.35,5.74,5.49,5.74,5.46-2.3,5.46-5.74Z"/>
          <path class="cls-3" d="m1054.58,156.19c0-4.37,3.19-7.48,7.5-7.48s7.48,3.11,7.48,7.48-3.16,7.5-7.48,7.5-7.5-3.14-7.5-7.5Zm12.96,0c0-3.44-2.32-5.74-5.46-5.74s-5.49,2.3-5.49,5.74,2.35,5.74,5.49,5.74,5.46-2.3,5.46-5.74Z"/>
          <path class="cls-3" d="m1086.89,148.82v14.73h-1.9v-2.69c-1.04,1.79-2.94,2.83-5.29,2.83-3.75,0-6.22-2.1-6.22-6.33v-8.54h1.99v8.34c0,3.14,1.62,4.73,4.42,4.73,3.08,0,5.01-1.99,5.01-5.35v-7.73h1.99Z"/>
          <path class="cls-3" d="m1112.62,156.8h-12.32c.22,3.08,2.58,5.12,5.8,5.12,1.79,0,3.39-.64,4.51-1.93l1.12,1.29c-1.32,1.57-3.36,2.41-5.68,2.41-4.59,0-7.73-3.14-7.73-7.5s3.05-7.48,7.2-7.48,7.14,3.05,7.14,7.48c0,.17-.03.39-.03.62Zm-12.32-1.48h10.44c-.25-2.88-2.35-4.9-5.24-4.9s-4.96,2.02-5.21,4.9Z"/>
          <path class="cls-3" d="m1125.67,163.55l-4.68-6.16-4.7,6.16h-2.24l5.82-7.56-5.54-7.17h2.24l4.42,5.77,4.42-5.77h2.18l-5.54,7.17,5.88,7.56h-2.27Z"/>
          <path class="cls-3" d="m1143.53,156.8h-12.32c.22,3.08,2.58,5.12,5.8,5.12,1.79,0,3.39-.64,4.51-1.93l1.12,1.29c-1.32,1.57-3.36,2.41-5.68,2.41-4.59,0-7.73-3.14-7.73-7.5s3.05-7.48,7.2-7.48,7.14,3.05,7.14,7.48c0,.17-.03.39-.03.62Zm-12.32-1.48h10.44c-.25-2.88-2.35-4.9-5.24-4.9s-4.96,2.02-5.21,4.9Z"/>
          <path class="cls-3" d="m1171.93,155.01v8.54h-1.99v-8.34c0-3.11-1.57-4.7-4.23-4.7-3.02,0-4.93,1.96-4.93,5.32v7.73h-1.99v-8.34c0-3.11-1.57-4.7-4.26-4.7-3,0-4.93,1.96-4.93,5.32v7.73h-1.99v-14.73h1.9v2.69c1.04-1.76,2.94-2.8,5.4-2.8s4.34,1.04,5.24,3.11c1.06-1.9,3.16-3.11,5.82-3.11,3.58,0,5.94,2.07,5.94,6.3Z"/>
          <path class="cls-3" d="m1192.25,156.19c0,4.48-3.14,7.5-7.34,7.5-2.35,0-4.37-1.01-5.6-2.91v8.2h-1.99v-20.16h1.9v2.91c1.2-1.96,3.25-3.02,5.68-3.02,4.2,0,7.34,3.02,7.34,7.48Zm-1.99,0c0-3.42-2.38-5.74-5.49-5.74s-5.49,2.32-5.49,5.74,2.35,5.74,5.49,5.74,5.49-2.3,5.49-5.74Z"/>
          <path class="cls-3" d="m1196.31,142.77h1.99v20.78h-1.99v-20.78Z"/>
          <path class="cls-3" d="m1203.4,144.18c0-.76.64-1.4,1.46-1.4s1.46.62,1.46,1.37c0,.81-.62,1.46-1.46,1.46s-1.46-.64-1.46-1.43Zm.45,4.65h1.99v14.73h-1.99v-14.73Z"/>
          <path class="cls-3" d="m1216.16,142.63c1.09,0,2.21.31,2.94.92l-.67,1.48c-.56-.48-1.34-.73-2.18-.73-1.71,0-2.6.95-2.6,2.77v1.74h4.54v1.68h-4.48v13.05h-1.99v-13.05h-2.63v-1.68h2.63v-1.82c0-2.63,1.57-4.37,4.45-4.37Zm9.41,1.51c0,.81-.62,1.46-1.46,1.46s-1.46-.64-1.46-1.43.64-1.4,1.46-1.4,1.46.62,1.46,1.37Zm-2.46,4.68h1.99v14.73h-1.99v-14.73Z"/>
          <path class="cls-3" d="m1229.16,156.19c0-4.4,3.19-7.48,7.59-7.48,2.49,0,4.59.98,5.77,2.91l-1.48,1.01c-1.01-1.48-2.58-2.18-4.28-2.18-3.22,0-5.57,2.3-5.57,5.74s2.35,5.74,5.57,5.74c1.71,0,3.28-.67,4.28-2.16l1.48,1.01c-1.18,1.9-3.28,2.91-5.77,2.91-4.4,0-7.59-3.11-7.59-7.5Z"/>
          <path class="cls-3" d="m1257.52,154.42v9.13h-1.9v-2.3c-.9,1.51-2.63,2.44-5.07,2.44-3.33,0-5.38-1.74-5.38-4.28,0-2.27,1.46-4.17,5.68-4.17h4.68v-.9c0-2.52-1.43-3.89-4.17-3.89-1.9,0-3.7.67-4.9,1.74l-.9-1.48c1.48-1.26,3.67-1.99,5.99-1.99,3.81,0,5.96,1.9,5.96,5.71Zm-1.99,4.7v-2.41h-4.62c-2.86,0-3.78,1.12-3.78,2.63,0,1.71,1.37,2.77,3.72,2.77s3.89-1.06,4.68-3Z"/>
          <path class="cls-3" d="m1270.34,148.71v1.93c-.17,0-.34-.03-.48-.03-3.08,0-4.96,1.96-4.96,5.43v7.5h-1.99v-14.73h1.9v2.88c.92-1.96,2.8-3,5.52-3Z"/>
          <path class="cls-3" d="m104.38,194.8h-12.32c.22,3.08,2.58,5.12,5.8,5.12,1.79,0,3.39-.64,4.51-1.93l1.12,1.29c-1.32,1.57-3.36,2.41-5.68,2.41-4.59,0-7.73-3.14-7.73-7.5s3.05-7.48,7.2-7.48,7.14,3.05,7.14,7.48c0,.17-.03.39-.03.62Zm-12.32-1.48h10.44c-.25-2.88-2.35-4.9-5.24-4.9s-4.96,2.02-5.21,4.9Z"/>
          <path class="cls-3" d="m117.43,201.55l-4.68-6.16-4.7,6.16h-2.24l5.82-7.56-5.54-7.17h2.24l4.42,5.77,4.42-5.77h2.18l-5.54,7.17,5.88,7.56h-2.27Z"/>
          <path class="cls-3" d="m120.98,194.19c0-4.4,3.19-7.48,7.59-7.48,2.49,0,4.59.98,5.77,2.91l-1.48,1.01c-1.01-1.48-2.58-2.18-4.28-2.18-3.22,0-5.57,2.3-5.57,5.74s2.35,5.74,5.57,5.74c1.71,0,3.28-.67,4.28-2.16l1.48,1.01c-1.18,1.9-3.28,2.91-5.77,2.91-4.4,0-7.59-3.11-7.59-7.5Z"/>
          <path class="cls-3" d="m150.8,194.8h-12.32c.22,3.08,2.58,5.12,5.8,5.12,1.79,0,3.39-.64,4.51-1.93l1.12,1.29c-1.32,1.57-3.36,2.41-5.68,2.41-4.59,0-7.73-3.14-7.73-7.5s3.05-7.48,7.2-7.48,7.14,3.05,7.14,7.48c0,.17-.03.39-.03.62Zm-12.32-1.48h10.44c-.25-2.88-2.35-4.9-5.24-4.9s-4.96,2.02-5.21,4.9Z"/>
          <path class="cls-3" d="m165.28,197.77l1.48,1.01c-1.18,1.9-3.28,2.91-5.77,2.91h-.06l-.34,1.32c1.54.14,2.38,1.04,2.38,2.27,0,1.51-1.29,2.44-3.16,2.44-.92,0-1.68-.2-2.35-.64l.48-1.06c.56.36,1.18.53,1.85.53,1.12,0,1.74-.48,1.74-1.32,0-.76-.56-1.29-1.74-1.29h-.64l.62-2.32c-3.75-.53-6.36-3.44-6.36-7.42,0-4.4,3.19-7.48,7.59-7.48,2.49,0,4.59.98,5.77,2.91l-1.48,1.01c-1.01-1.48-2.58-2.18-4.28-2.18-3.22,0-5.57,2.3-5.57,5.74s2.35,5.74,5.57,5.74c1.71,0,3.28-.67,4.28-2.16Z"/>
          <path class="cls-3" d="m168.92,194.19c0-4.37,3.19-7.48,7.5-7.48s7.48,3.11,7.48,7.48-3.16,7.5-7.48,7.5-7.5-3.14-7.5-7.5Zm12.96,0c0-3.44-2.32-5.74-5.46-5.74s-5.49,2.3-5.49,5.74,2.35,5.74,5.49,5.74,5.46-2.3,5.46-5.74Zm-7.25-11.7c-.84,0-1.4.67-1.46,1.79h-1.2c.06-1.88,1.04-3.08,2.52-3.08,1.74,0,2.58,1.9,3.67,1.9.84,0,1.4-.67,1.46-1.74h1.2c-.06,1.82-1.04,3.02-2.52,3.02-1.74,0-2.55-1.9-3.67-1.9Z"/>
          <path class="cls-3" d="m200.78,194.8h-12.32c.22,3.08,2.58,5.12,5.8,5.12,1.79,0,3.39-.64,4.51-1.93l1.12,1.29c-1.32,1.57-3.36,2.41-5.68,2.41-4.59,0-7.73-3.14-7.73-7.5s3.05-7.48,7.2-7.48,7.14,3.05,7.14,7.48c0,.17-.03.39-.03.62Zm-12.32-1.48h10.44c-.25-2.88-2.35-4.9-5.24-4.9s-4.96,2.02-5.21,4.9Z"/>
          <path class="cls-3" d="m202.83,199.87l.9-1.57c1.18.92,3.16,1.65,5.24,1.65,2.8,0,3.95-.95,3.95-2.41,0-3.84-9.55-.81-9.55-6.64,0-2.41,2.07-4.2,5.82-4.2,1.9,0,3.98.53,5.21,1.37l-.87,1.6c-1.29-.9-2.83-1.26-4.34-1.26-2.66,0-3.84,1.04-3.84,2.44,0,3.98,9.55.98,9.55,6.64,0,2.55-2.24,4.2-6.08,4.2-2.44,0-4.79-.78-5.99-1.82Z"/>
          <path class="cls-3" d="m237.02,192.42v9.13h-1.9v-2.3c-.9,1.51-2.63,2.44-5.07,2.44-3.33,0-5.38-1.74-5.38-4.28,0-2.27,1.46-4.17,5.68-4.17h4.68v-.9c0-2.52-1.43-3.89-4.17-3.89-1.9,0-3.7.67-4.9,1.74l-.9-1.48c1.48-1.26,3.67-1.99,5.99-1.99,3.81,0,5.96,1.9,5.96,5.71Zm-1.99,4.7v-2.41h-4.62c-2.86,0-3.78,1.12-3.78,2.63,0,1.71,1.37,2.77,3.72,2.77s3.89-1.06,4.68-3Z"/>
          <path class="cls-3" d="m240.99,194.19c0-4.37,3.19-7.48,7.5-7.48s7.48,3.11,7.48,7.48-3.16,7.5-7.48,7.5-7.5-3.14-7.5-7.5Zm12.96,0c0-3.44-2.32-5.74-5.46-5.74s-5.49,2.3-5.49,5.74,2.35,5.74,5.49,5.74,5.46-2.3,5.46-5.74Z"/>
          <path class="cls-3" d="m265.77,195.45c0-5.04,3.56-8.74,8.57-8.74,2.69,0,4.7.98,5.8,2.94l-1.68.98c-.84-1.46-2.27-2.18-4.28-2.18-3.7,0-6.41,2.91-6.41,6.92,0,2.88,1.76,4.56,4.9,4.56,1.88,0,3.58-.73,4.65-2.13l1.43,1.09c-1.32,1.76-3.64,2.8-6.16,2.8-4.2,0-6.8-2.46-6.8-6.24Z"/>
          <path class="cls-3" d="m297.8,186.82l-2.94,14.73h-1.9l.48-2.32c-1.4,1.54-3.36,2.46-5.74,2.46-3.78,0-6.41-2.35-6.41-6.24,0-5.04,3.53-8.74,8.32-8.74,2.8,0,4.76,1.15,5.6,3.19l.62-3.08h1.99Zm-3.3,6.22c0-2.88-1.76-4.59-4.84-4.59-3.67,0-6.38,2.91-6.38,6.92,0,2.88,1.76,4.56,4.84,4.56,3.67,0,6.38-2.88,6.38-6.89Z"/>
          <path class="cls-3" d="m316.93,192.93c0,5.07-3.53,8.76-8.34,8.76-2.8,0-4.76-1.15-5.6-3.22l-1.68,8.51h-1.99l4-20.16h1.9l-.48,2.35c1.4-1.57,3.36-2.46,5.74-2.46,3.78,0,6.44,2.35,6.44,6.22Zm-2.02.11c0-2.88-1.76-4.59-4.84-4.59-3.67,0-6.36,2.88-6.36,6.92,0,2.88,1.76,4.56,4.84,4.56,3.67,0,6.36-2.88,6.36-6.89Z"/>
          <path class="cls-3" d="m335.6,186.82l-2.94,14.73h-1.9l.48-2.35c-1.43,1.71-3.42,2.49-5.68,2.49-3.3,0-5.24-1.79-5.24-4.82,0-.53.06-1.06.17-1.65l1.68-8.4h1.99l-1.68,8.4c-.08.48-.14.9-.14,1.32,0,2.13,1.23,3.36,3.75,3.36,3.11,0,5.26-1.74,5.96-5.15l1.57-7.92h1.99Z"/>
          <path class="cls-3" d="m341.43,197.1c-.06.34-.11.64-.11.92,0,1.26.7,1.96,2.13,1.96.81,0,1.6-.25,2.27-.76l.48,1.51c-.92.7-2.16.95-3.28.95-2.21,0-3.58-1.26-3.58-3.36,0-.36.03-.76.11-1.15l1.71-8.68h-2.6l.31-1.68h2.63l.64-3.22h1.99l-.64,3.22h4.48l-.34,1.68h-4.48l-1.71,8.6Z"/>
          <path class="cls-3" d="m358.53,193.88c0-5.15,1.18-9.77,3.25-13.1h1.9c-2.21,3.84-3.19,8.12-3.19,13.1s.98,9.27,3.19,13.1h-1.9c-2.07-3.39-3.25-7.95-3.25-13.1Z"/>
          <path class="cls-3" d="m369.26,186.23c0,.9-.64,1.51-1.46,1.51-.9,0-1.48-.67-1.48-1.51,0-.45.08-.78.36-1.6l1.18-3.86h1.34l-.95,4.03c.62.2,1.01.73,1.01,1.43Zm4.76,0c0,.9-.64,1.51-1.46,1.51-.9,0-1.48-.67-1.48-1.51,0-.45.08-.78.36-1.6l1.18-3.86h1.34l-.95,4.03c.62.2,1.01.73,1.01,1.43Z"/>
          <path class="cls-3" d="m376.45,194.19c0-4.4,3.19-7.48,7.59-7.48,2.49,0,4.59.98,5.77,2.91l-1.48,1.01c-1.01-1.48-2.58-2.18-4.28-2.18-3.22,0-5.57,2.3-5.57,5.74s2.35,5.74,5.57,5.74c1.71,0,3.28-.67,4.28-2.16l1.48,1.01c-1.18,1.9-3.28,2.91-5.77,2.91-4.4,0-7.59-3.11-7.59-7.5Z"/>
          <path class="cls-3" d="m404.82,192.42v9.13h-1.9v-2.3c-.9,1.51-2.63,2.44-5.07,2.44-3.33,0-5.38-1.74-5.38-4.28,0-2.27,1.46-4.17,5.68-4.17h4.68v-.9c0-2.52-1.43-3.89-4.17-3.89-1.9,0-3.7.67-4.9,1.74l-.9-1.48c1.48-1.26,3.67-1.99,5.99-1.99,3.81,0,5.96,1.9,5.96,5.71Zm-1.99,4.7v-2.41h-4.62c-2.86,0-3.78,1.12-3.78,2.63,0,1.71,1.37,2.77,3.72,2.77s3.89-1.06,4.68-3Z"/>
          <path class="cls-3" d="m425.15,194.19c0,4.45-3.14,7.5-7.34,7.5-2.44,0-4.48-1.06-5.68-3.05v2.91h-1.9v-20.78h1.99v8.85c1.23-1.9,3.25-2.91,5.6-2.91,4.2,0,7.34,3.02,7.34,7.48Zm-1.99,0c0-3.44-2.38-5.74-5.49-5.74s-5.49,2.3-5.49,5.74,2.35,5.74,5.49,5.74,5.49-2.3,5.49-5.74Z"/>
          <path class="cls-3" d="m442.03,194.8h-12.32c.22,3.08,2.58,5.12,5.8,5.12,1.79,0,3.39-.64,4.51-1.93l1.12,1.29c-1.32,1.57-3.36,2.41-5.68,2.41-4.59,0-7.73-3.14-7.73-7.5s3.05-7.48,7.2-7.48,7.14,3.05,7.14,7.48c0,.17-.03.39-.03.62Zm-12.32-1.48h10.44c-.25-2.88-2.35-4.9-5.24-4.9s-4.96,2.02-5.21,4.9Z"/>
          <path class="cls-3" d="m456.5,197.77l1.48,1.01c-1.18,1.9-3.28,2.91-5.77,2.91h-.06l-.34,1.32c1.54.14,2.38,1.04,2.38,2.27,0,1.51-1.29,2.44-3.16,2.44-.92,0-1.68-.2-2.35-.64l.48-1.06c.56.36,1.18.53,1.85.53,1.12,0,1.74-.48,1.74-1.32,0-.76-.56-1.29-1.74-1.29h-.64l.62-2.32c-3.75-.53-6.36-3.44-6.36-7.42,0-4.4,3.19-7.48,7.59-7.48,2.49,0,4.59.98,5.77,2.91l-1.48,1.01c-1.01-1.48-2.58-2.18-4.28-2.18-3.22,0-5.57,2.3-5.57,5.74s2.35,5.74,5.57,5.74c1.71,0,3.28-.67,4.28-2.16Z"/>
          <path class="cls-3" d="m473,192.42v9.13h-1.9v-2.3c-.9,1.51-2.63,2.44-5.07,2.44-3.33,0-5.38-1.74-5.38-4.28,0-2.27,1.46-4.17,5.68-4.17h4.68v-.9c0-2.52-1.43-3.89-4.17-3.89-1.9,0-3.7.67-4.9,1.74l-.9-1.48c1.48-1.26,3.67-1.99,5.99-1.99,3.81,0,5.96,1.9,5.96,5.71Zm-1.99,4.7v-2.41h-4.62c-2.86,0-3.78,1.12-3.78,2.63,0,1.71,1.37,2.77,3.72,2.77s3.89-1.06,4.68-3Z"/>
          <path class="cls-3" d="m479.88,182.15c0,.48-.11.81-.36,1.6l-1.2,3.86h-1.34l.98-4.03c-.62-.2-1.04-.7-1.04-1.43,0-.9.64-1.51,1.48-1.51s1.48.67,1.48,1.51Zm4.76,0c0,.48-.11.81-.36,1.6l-1.2,3.86h-1.34l.98-4.03c-.62-.2-1.04-.7-1.04-1.43,0-.9.64-1.51,1.48-1.51s1.48.67,1.48,1.51Z"/>
          <path class="cls-3" d="m509.65,180.77v20.78h-1.9v-2.91c-1.2,1.99-3.25,3.05-5.68,3.05-4.2,0-7.34-3.05-7.34-7.5s3.14-7.48,7.34-7.48c2.35,0,4.37,1.01,5.6,2.91v-8.85h1.99Zm-1.96,13.41c0-3.44-2.35-5.74-5.46-5.74s-5.49,2.3-5.49,5.74,2.35,5.74,5.49,5.74,5.46-2.3,5.46-5.74Z"/>
          <path class="cls-3" d="m513.71,194.19c0-4.37,3.19-7.48,7.5-7.48s7.48,3.11,7.48,7.48-3.16,7.5-7.48,7.5-7.5-3.14-7.5-7.5Zm12.96,0c0-3.44-2.32-5.74-5.46-5.74s-5.49,2.3-5.49,5.74,2.35,5.74,5.49,5.74,5.46-2.3,5.46-5.74Z"/>
          <path class="cls-3" d="m551.2,192.42v9.13h-1.9v-2.3c-.9,1.51-2.63,2.44-5.07,2.44-3.33,0-5.38-1.74-5.38-4.28,0-2.27,1.46-4.17,5.68-4.17h4.68v-.9c0-2.52-1.43-3.89-4.17-3.89-1.9,0-3.7.67-4.9,1.74l-.9-1.48c1.48-1.26,3.67-1.99,5.99-1.99,3.81,0,5.96,1.9,5.96,5.71Zm-1.99,4.7v-2.41h-4.62c-2.86,0-3.78,1.12-3.78,2.63,0,1.71,1.37,2.77,3.72,2.77s3.89-1.06,4.68-3Z"/>
          <path class="cls-3" d="m564.02,186.71v1.93c-.17,0-.34-.03-.48-.03-3.08,0-4.96,1.96-4.96,5.43v7.5h-1.99v-14.73h1.9v2.88c.92-1.96,2.8-3,5.52-3Z"/>
          <path class="cls-3" d="m576,200.65c-.78.7-1.96,1.04-3.11,1.04-2.77,0-4.31-1.57-4.31-4.28v-8.9h-2.63v-1.68h2.63v-3.22h1.99v3.22h4.48v1.68h-4.48v8.79c0,1.74.9,2.69,2.55,2.69.81,0,1.62-.25,2.18-.76l.7,1.43Z"/>
          <path class="cls-3" d="m579.17,182.18c0-.76.64-1.4,1.46-1.4s1.46.62,1.46,1.37c0,.81-.62,1.46-1.46,1.46s-1.46-.64-1.46-1.43Zm.45,4.65h1.99v14.73h-1.99v-14.73Z"/>
          <path class="cls-3" d="m600.78,186.82v12.94c0,5.07-2.49,7.36-7.36,7.36-2.69,0-5.32-.81-6.86-2.27l1.01-1.51c1.4,1.26,3.53,2.02,5.8,2.02,3.72,0,5.43-1.71,5.43-5.35v-1.88c-1.23,1.88-3.33,2.86-5.74,2.86-4.2,0-7.39-2.94-7.39-7.17s3.19-7.11,7.39-7.11c2.46,0,4.59,1.01,5.82,2.94v-2.83h1.9Zm-1.93,7c0-3.19-2.35-5.38-5.6-5.38s-5.57,2.18-5.57,5.38,2.32,5.4,5.57,5.4,5.6-2.21,5.6-5.4Z"/>
          <path class="cls-3" d="m604.87,194.19c0-4.37,3.19-7.48,7.5-7.48s7.48,3.11,7.48,7.48-3.16,7.5-7.48,7.5-7.5-3.14-7.5-7.5Zm12.96,0c0-3.44-2.32-5.74-5.46-5.74s-5.49,2.3-5.49,5.74,2.35,5.74,5.49,5.74,5.46-2.3,5.46-5.74Z"/>
          <path class="cls-3" d="m628.48,193.23h14v1.43h-14v-1.43Z"/>
          <path class="cls-3" d="m650.54,199.87l.9-1.57c1.18.92,3.16,1.65,5.24,1.65,2.8,0,3.95-.95,3.95-2.41,0-3.84-9.55-.81-9.55-6.64,0-2.41,2.07-4.2,5.82-4.2,1.9,0,3.98.53,5.21,1.37l-.87,1.6c-1.29-.9-2.83-1.26-4.34-1.26-2.66,0-3.84,1.04-3.84,2.44,0,3.98,9.55.98,9.55,6.64,0,2.55-2.24,4.2-6.08,4.2-2.44,0-4.79-.78-5.99-1.82Z"/>
          <path class="cls-3" d="m679.1,194.8h-12.32c.22,3.08,2.58,5.12,5.8,5.12,1.79,0,3.39-.64,4.51-1.93l1.12,1.29c-1.32,1.57-3.36,2.41-5.68,2.41-4.59,0-7.73-3.14-7.73-7.5s3.05-7.48,7.2-7.48,7.14,3.05,7.14,7.48c0,.17-.03.39-.03.62Zm-12.32-1.48h10.44c-.25-2.88-2.35-4.9-5.24-4.9s-4.96,2.02-5.21,4.9Z"/>
          <path class="cls-3" d="m696.46,186.82v14.73h-1.9v-2.69c-1.04,1.79-2.94,2.83-5.29,2.83-3.75,0-6.22-2.1-6.22-6.33v-8.54h1.99v8.34c0,3.14,1.62,4.73,4.42,4.73,3.08,0,5.01-1.99,5.01-5.35v-7.73h1.99Z"/>
          <path class="cls-3" d="m717.13,200.65c-.78.7-1.96,1.04-3.11,1.04-2.77,0-4.31-1.57-4.31-4.28v-8.9h-2.63v-1.68h2.63v-3.22h1.99v3.22h4.48v1.68h-4.48v8.79c0,1.74.9,2.69,2.55,2.69.81,0,1.62-.25,2.18-.76l.7,1.43Z"/>
          <path class="cls-3" d="m733.03,194.8h-12.32c.22,3.08,2.58,5.12,5.8,5.12,1.79,0,3.39-.64,4.51-1.93l1.12,1.29c-1.32,1.57-3.36,2.41-5.68,2.41-4.59,0-7.73-3.14-7.73-7.5s3.05-7.48,7.2-7.48,7.14,3.05,7.14,7.48c0,.17-.03.39-.03.62Zm-12.32-1.48h10.44c-.25-2.88-2.35-4.9-5.24-4.9s-4.96,2.02-5.21,4.9Z"/>
          <path class="cls-3" d="m746.08,201.55l-4.68-6.16-4.7,6.16h-2.24l5.82-7.56-5.54-7.17h2.24l4.42,5.77,4.42-5.77h2.18l-5.54,7.17,5.88,7.56h-2.27Z"/>
          <path class="cls-3" d="m759.41,200.65c-.78.7-1.96,1.04-3.11,1.04-2.77,0-4.31-1.57-4.31-4.28v-8.9h-2.63v-1.68h2.63v-3.22h1.99v3.22h4.48v1.68h-4.48v8.79c0,1.74.9,2.69,2.55,2.69.81,0,1.62-.25,2.18-.76l.7,1.43Z"/>
          <path class="cls-3" d="m761,194.19c0-4.37,3.19-7.48,7.5-7.48s7.48,3.11,7.48,7.48-3.16,7.5-7.48,7.5-7.5-3.14-7.5-7.5Zm12.96,0c0-3.44-2.32-5.74-5.46-5.74s-5.49,2.3-5.49,5.74,2.35,5.74,5.49,5.74,5.46-2.3,5.46-5.74Z"/>
          <path class="cls-3" d="m802.3,194.19c0,4.48-3.14,7.5-7.34,7.5-2.35,0-4.37-1.01-5.6-2.91v8.2h-1.99v-20.16h1.9v2.91c1.2-1.96,3.25-3.02,5.68-3.02,4.2,0,7.34,3.02,7.34,7.48Zm-1.99,0c0-3.42-2.38-5.74-5.49-5.74s-5.49,2.32-5.49,5.74,2.35,5.74,5.49,5.74,5.49-2.3,5.49-5.74Z"/>
          <path class="cls-3" d="m813.78,186.71v1.93c-.17,0-.34-.03-.48-.03-3.08,0-4.96,1.96-4.96,5.43v7.5h-1.99v-14.73h1.9v2.88c.92-1.96,2.8-3,5.52-3Z"/>
          <path class="cls-3" d="m816.92,182.18c0-.76.64-1.4,1.46-1.4s1.46.62,1.46,1.37c0,.81-.62,1.46-1.46,1.46s-1.46-.64-1.46-1.43Zm.45,4.65h1.99v14.73h-1.99v-14.73Z"/>
          <path class="cls-3" d="m838.45,193.01v8.54h-1.99v-8.34c0-3.11-1.62-4.7-4.42-4.7-3.16,0-5.15,1.96-5.15,5.32v7.73h-1.99v-14.73h1.9v2.72c1.06-1.79,3.05-2.83,5.6-2.83,3.58,0,6.05,2.07,6.05,6.3Z"/>
          <path class="cls-3" d="m842.42,194.19c0-4.4,3.19-7.48,7.59-7.48,2.49,0,4.59.98,5.77,2.91l-1.48,1.01c-1.01-1.48-2.58-2.18-4.28-2.18-3.22,0-5.57,2.3-5.57,5.74s2.35,5.74,5.57,5.74c1.71,0,3.28-.67,4.28-2.16l1.48,1.01c-1.18,1.9-3.28,2.91-5.77,2.91-4.4,0-7.59-3.11-7.59-7.5Z"/>
          <path class="cls-3" d="m859.22,182.18c0-.76.64-1.4,1.46-1.4s1.46.62,1.46,1.37c0,.81-.62,1.46-1.46,1.46s-1.46-.64-1.46-1.43Zm.45,4.65h1.99v14.73h-1.99v-14.73Z"/>
          <path class="cls-3" d="m882.13,194.19c0,4.48-3.14,7.5-7.34,7.5-2.35,0-4.37-1.01-5.6-2.91v8.2h-1.99v-20.16h1.9v2.91c1.2-1.96,3.25-3.02,5.68-3.02,4.2,0,7.34,3.02,7.34,7.48Zm-1.99,0c0-3.42-2.38-5.74-5.49-5.74s-5.49,2.32-5.49,5.74,2.35,5.74,5.49,5.74,5.49-2.3,5.49-5.74Z"/>
          <path class="cls-3" d="m897.22,192.42v9.13h-1.9v-2.3c-.9,1.51-2.63,2.44-5.07,2.44-3.33,0-5.38-1.74-5.38-4.28,0-2.27,1.46-4.17,5.68-4.17h4.68v-.9c0-2.52-1.43-3.89-4.17-3.89-1.9,0-3.7.67-4.9,1.74l-.9-1.48c1.48-1.26,3.67-1.99,5.99-1.99,3.81,0,5.96,1.9,5.96,5.71Zm-1.99,4.7v-2.41h-4.62c-2.86,0-3.78,1.12-3.78,2.63,0,1.71,1.37,2.77,3.72,2.77s3.89-1.06,4.68-3Z"/>
          <path class="cls-3" d="m902.62,180.77h1.99v20.78h-1.99v-20.78Z"/>
          <path class="cls-3" d="m908.5,206.98c2.24-3.84,3.22-8.12,3.22-13.1s-.98-9.27-3.22-13.1h1.9c2.1,3.33,3.28,7.95,3.28,13.1s-1.18,9.72-3.28,13.1h-1.9Z"/>
          <path class="cls-3" d="m918.08,200.15c0-.87.67-1.51,1.48-1.51s1.51.64,1.51,1.51-.7,1.54-1.51,1.54-1.48-.67-1.48-1.54Z"/>
        </g>
      </g>
      <rect class="cls-1" x="0" y="77.52" width="15.27" height="114.47" rx="7.63" ry="7.63"/>
    </g>
  </g>
</svg>