<?xml version="1.0" encoding="UTF-8"?>
<svg id="Layer_2" data-name="Layer 2" xmlns="http://www.w3.org/2000/svg" viewBox="0 0 132.39 132.39">
  <defs>
    <style>
      .cls-1 {
        fill: #fff;
      }

      .cls-2 {
        fill: #307697;
      }
    </style>
  </defs>
  <g id="Layer_1-2" data-name="Layer 1">
    <g>
      <circle class="cls-2" cx="66.19" cy="66.19" r="66.19"/>
      <path class="cls-1" d="m84.21,63.15c0,4.44-.51,8.48-1.52,12.1-1.01,3.62-2.55,6.71-4.6,9.26-2.07,2.6-4.67,4.6-7.79,6.02-3.12,1.41-6.79,2.12-11.01,2.12-1.19,0-2.3-.06-3.35-.19-1.05-.12-1.98-.32-2.8-.6v-6.53h.34c.66.34,1.59.67,2.8.97,1.21.31,2.55.46,4.03.46,5.04,0,8.98-1.51,11.84-4.53,2.86-3.02,4.52-7.18,4.97-12.49-2.12,1.28-4.11,2.19-5.98,2.73-1.87.55-3.91.82-6.12.82s-3.99-.21-5.69-.62-3.4-1.21-5.11-2.39c-2.01-1.39-3.52-3.16-4.53-5.3-1.01-2.14-1.52-4.71-1.52-7.69,0-5.2,1.71-9.42,5.13-12.68,3.42-3.26,7.59-4.89,12.51-4.89,2.46,0,4.74.38,6.84,1.15,2.1.76,3.93,1.91,5.5,3.43,1.94,1.89,3.43,4.32,4.48,7.3,1.05,2.97,1.57,6.82,1.57,11.54Zm-6.9-1.47c0-3.53-.37-6.37-1.09-8.51-.73-2.14-1.73-3.8-3.01-4.99-1.07-1.03-2.22-1.76-3.45-2.21-1.23-.44-2.56-.67-4-.67-3.28,0-5.87,1.03-7.78,3.08s-2.85,4.93-2.85,8.65c0,2.17.31,3.93.92,5.3s1.65,2.56,3.11,3.59c1.03.71,2.15,1.18,3.38,1.42,1.23.24,2.6.36,4.1.36,1.78,0,3.58-.24,5.4-.72,1.82-.48,3.53-1.17,5.13-2.08.02-.48.05-.95.08-1.42.04-.47.05-1.06.05-1.79Z"/>
    </g>
  </g>
</svg>