<?xml version="1.0" encoding="UTF-8"?>
<svg id="Layer_2" data-name="Layer 2" xmlns="http://www.w3.org/2000/svg" xmlns:xlink="http://www.w3.org/1999/xlink" viewBox="0 0 1920 321.88">
  <defs>
    <style>
      .cls-1 {
        fill: #fff;
      }

      .cls-2 {
        fill: #7fa79e;
      }

      .cls-3 {
        clip-path: url(#clippath-2);
      }

      .cls-4 {
        opacity: .07;
      }

      .cls-5 {
        clip-path: url(#clippath-1);
      }

      .cls-6 {
        clip-path: url(#clippath);
      }

      .cls-7 {
        fill: none;
      }

      .cls-8 {
        fill: #0b6b97;
      }

      .cls-9 {
        fill: url(#linear-gradient);
      }

      .cls-10 {
        fill: #edc56b;
      }

      .cls-11 {
        fill: #008686;
      }

      .cls-12 {
        fill: #231f20;
      }

      .cls-13 {
        fill: #58595b;
      }
    </style>
    <clipPath id="clippath">
      <rect class="cls-7" width="1920" height="321.88"/>
    </clipPath>
    <clipPath id="clippath-1">
      <rect class="cls-7" y="-493.88" width="1920" height="1079"/>
    </clipPath>
    <linearGradient id="linear-gradient" x1="259.68" y1="-538.43" x2="259.68" y2="680.07" gradientUnits="userSpaceOnUse">
      <stop offset="0" stop-color="#0b6b97"/>
      <stop offset="1" stop-color="#064059"/>
    </linearGradient>
    <clipPath id="clippath-2">
      <rect class="cls-7" x="1310.88" y="82.55" width="518.97" height="174.15"/>
    </clipPath>
  </defs>
  <g id="Layer_1-2" data-name="Layer 1">
    <g class="cls-6">
      <g class="cls-5">
        <g class="cls-4">
          <path class="cls-8" d="m2532.34,1276.27h-1020.11l-.58-1-509.48-882.44.58-1,509.48-882.44h1020.11l.58,1,509.48,882.44-.58,1-509.48,882.44Zm-1017.8-4h1015.49l507.75-879.44-507.75-879.44h-1015.49l-507.75,879.44,507.75,879.44Z"/>
          <polygon class="cls-11" points="2687.03 -549.78 1590.11 -549.78 1041.65 400.18 1590.11 1350.15 2687.03 1350.15 3235.49 400.18 2687.03 -549.78"/>
        </g>
        <path class="cls-8" d="m683.38,886.59H-339.04L-850.25,1.14l511.21-885.44h1022.42L1194.59,1.14l-1.16,2-510.05,883.44Zm-1017.8-8h1013.18L1185.35,1.14l-506.59-877.44H-334.42L-841.02,1.14l506.59,877.44Z"/>
        <polygon class="cls-10" points="819.61 -939.04 -60.37 -939.04 -500.36 -176.96 -60.37 585.12 819.61 585.12 1259.59 -176.96 819.61 -939.04"/>
        <polygon class="cls-9" points="699.67 -926.5 -180.31 -926.5 -620.29 -164.42 -263.29 527.46 739.35 527.46 1139.66 -164.42 699.67 -926.5"/>
        <path class="cls-1" d="m739.98,528.55H-60.19l-.16-.27L-460.28-164.42l.16-.27L-60.19-857.39h800.17l.16.27,399.93,692.7-.16.27-399.93,692.7Zm-799.54-1.09h798.91l399.46-691.88-399.46-691.88H-59.56L-459.02-164.42-59.56,527.46Z"/>
        <polygon class="cls-11" points="601.22 354 601.22 148.38 423.15 45.57 245.07 148.38 245.07 354 423.15 456.81 601.22 354"/>
        <path class="cls-2" d="m601.35,296.28l-128.29-74.07V74.07L601.35,0l128.29,74.07v148.14l-128.29,74.07Zm-119.83-78.96l119.83,69.18,119.83-69.18V78.96l-119.83-69.18-119.83,69.18v138.36Z"/>
        <g class="cls-3">
          <g id="Grupo_2081" data-name="Grupo 2081">
            <path id="Caminho_2526" data-name="Caminho 2526" class="cls-8" d="m1409.96,109.13c1.83,0,3.2,1.46,3.2,3.2h0v34.24h34.24c1.83,0,3.2,1.46,3.2,3.2h0v24.02c0,1.83-1.46,3.2-3.2,3.2h-34.24v34.24c0,1.83-1.46,3.2-3.2,3.2h-24.11c-1.83,0-3.2-1.46-3.2-3.2v-34.24h-34.24c-1.74,0-3.2-1.46-3.2-3.2v-24.02c0-1.83,1.46-3.2,3.2-3.2h34.24v-34.24c0-1.83,1.46-3.2,3.2-3.2h24.11Zm0-1.92h-24.11c-2.83,0-5.21,2.28-5.21,5.21v32.24h-32.24c-2.83,0-5.21,2.28-5.21,5.21v24.02c0,2.83,2.28,5.21,5.21,5.21h32.24v32.24c0,2.83,2.28,5.21,5.21,5.21h24.02c2.83,0,5.21-2.28,5.21-5.21v-32.24h32.24c2.83,0,5.21-2.28,5.21-5.21v-24.02c0-2.83-2.28-5.21-5.21-5.21h-32.24v-32.24c0-2.83-2.28-5.21-5.11-5.21"/>
            <path id="Caminho_2527" data-name="Caminho 2527" class="cls-12" d="m1454.53,183.28h-23.01c-.55,0-1-.46-1-1,0-.18,0-.37.09-.46l11.51-20.46c.27-.46.91-.64,1.37-.27l.27.27,11.51,20.46c.27.46.09,1.1-.37,1.37,0,0-.18.09-.37.09m-21.37-2.01h19.72l-9.86-17.44-9.86,17.44h0Z"/>
            <path id="Caminho_2528" data-name="Caminho 2528" class="cls-12" d="m1443.02,194.88c-6.85-.09-12.42-5.66-12.51-12.51,0-.55.46-1,.91-1h23.1c.55,0,1,.46,1,1h0c-.09,6.85-5.66,12.33-12.51,12.51m-10.5-11.6c.55,5.84,5.66,10.14,11.41,9.59,5.11-.46,9.13-4.47,9.59-9.59h-21Z"/>
            <path id="Caminho_2529" data-name="Caminho 2529" class="cls-12" d="m1364.31,183.28h-23.01c-.55,0-1-.46-1-1,0-.18,0-.37.09-.46l11.51-20.46c.27-.46.82-.64,1.37-.37.18.09.27.18.37.37l11.51,20.46c.27.46.09,1.1-.37,1.37-.09,0-.27.09-.46.09m-21.37-2.01h19.72l-9.86-17.44-9.86,17.44h0Z"/>
            <path id="Caminho_2530" data-name="Caminho 2530" class="cls-12" d="m1352.8,194.88c-6.85-.09-12.42-5.66-12.51-12.51,0-.55.46-1,.91-1h23.1c.55,0,1,.46,1,1h0c-.09,6.85-5.66,12.33-12.51,12.51m-10.5-11.6c.55,5.84,5.66,10.14,11.41,9.59,5.11-.46,9.13-4.47,9.59-9.59h-21Z"/>
            <path id="Caminho_2531" data-name="Caminho 2531" class="cls-12" d="m1443.11,162.82h-90.41c-.55,0-1-.37-1-.91s.37-1,.91-1h90.5c.55,0,1,.37,1,.91s-.37,1-1,1h0"/>
            <path id="Caminho_2532" data-name="Caminho 2532" class="cls-12" d="m1432.43,157.98h-69.13c-.55,0-1-.37-1-.91s.37-1,.91-1h69.22c.55,0,1,.37,1,.91.09.46-.37.91-1,1q.09,0,0,0"/>
            <path id="Caminho_2533" data-name="Caminho 2533" class="cls-12" d="m1432.43,167.75h-69.13c-.55,0-1-.37-1-.91s.37-1,.91-1h69.22c.55,0,1,.37,1,.91.09.55-.37,1-1,1q.09,0,0,0"/>
            <path id="Caminho_2534" data-name="Caminho 2534" class="cls-12" d="m1397.91,152.5c-.55,0-1-.46-1-1h0v-25.93c0-.55.46-1,1-1s1,.46,1,1h0v26.03c0,.55-.46.91-1,.91h0"/>
            <path id="Caminho_2535" data-name="Caminho 2535" class="cls-12" d="m1402.75,152.5c-.55,0-1-.46-1-1h0v-36.53c0-.55.46-1,1-1s1,.46,1,1v36.53c0,.64-.46,1-1,1h0"/>
            <path id="Caminho_2536" data-name="Caminho 2536" class="cls-12" d="m1392.98,152.5c-.55,0-1-.46-1-1v-36.53c0-.55.46-1,1-1s1,.46,1,1v36.53c0,.64-.46,1-1,1"/>
            <path id="Caminho_2537" data-name="Caminho 2537" class="cls-12" d="m1408.69,221.17h-21.55c-.55,0-1-.37-1-.91s.37-1,.91-1h21.64c.55,0,1,.37,1,.91s-.37,1-1,1h0"/>
            <path id="Caminho_2538" data-name="Caminho 2538" class="cls-12" d="m1411.79,226.01h-27.76c-.55,0-1-.37-1-.91s.37-1,.91-1h27.85c.55,0,1,.37,1,.91s-.37,1-1,1c.09,0,0,0,0,0"/>
            <path id="Caminho_2539" data-name="Caminho 2539" class="cls-12" d="m1417.82,230.95h-39.72c-.55,0-.91-.46-.91-1s.46-.91.91-.91h39.72c.55,0,1,.37,1,.91s-.46,1-1,1h0"/>
            <path id="Caminho_2540" data-name="Caminho 2540" class="cls-12" d="m1397.91,198.16c-.55,0-1-.46-1-1h0v-25.02c0-.55.46-1,1-1s1,.46,1,1v25.11c0,.55-.46.91-1,.91h0"/>
            <path id="Caminho_2541" data-name="Caminho 2541" class="cls-12" d="m1392.98,208.48c-.55,0-1-.46-1-1h0v-35.34c0-.55.46-1,1-1s1,.46,1,1v35.34c0,.55-.46,1-1,1h0"/>
            <path id="Caminho_2542" data-name="Caminho 2542" class="cls-12" d="m1402.75,208.48c-.55,0-1-.46-1-1h0v-35.34c0-.55.46-1,1-1s1,.46,1,1v35.34c0,.55-.46,1-1,1h0"/>
            <path id="Caminho_2543" data-name="Caminho 2543" class="cls-12" d="m1397.91,256.61c-48.13,0-87.03-38.99-87.03-87.03s38.99-87.03,87.03-87.03,87.03,38.99,87.03,87.03-38.99,87.03-87.03,87.03m0-172.14c-47.03,0-85.11,38.08-85.11,85.11s38.08,85.11,85.11,85.11,85.11-38.08,85.11-85.11h0c-.09-47.03-38.17-85.02-85.11-85.11"/>
            <path id="Caminho_2544" data-name="Caminho 2544" class="cls-12" d="m1397.91,248.75c-43.74,0-79.17-35.43-79.17-79.17s35.43-79.17,79.17-79.17,79.17,35.43,79.17,79.17-35.43,79.08-79.17,79.17m0-156.43c-42.65,0-77.26,34.61-77.26,77.26s34.61,77.26,77.26,77.26,77.26-34.61,77.26-77.26h0c-.09-42.65-34.61-77.16-77.26-77.26"/>
            <path id="Caminho_2545" data-name="Caminho 2545" class="cls-13" d="m1528.41,144.83v3.2h-18.45v-25.39h17.9v3.2h-14.25v7.76h12.69v3.1h-12.69v8.22h14.79v-.09Z"/>
            <path id="Caminho_2546" data-name="Caminho 2546" class="cls-13" d="m1531.97,145.11l1.37-2.83c2.37,1.92,5.3,2.92,8.4,2.92,4.38,0,6.3-1.74,6.3-3.93,0-6.21-15.34-2.28-15.34-11.69,0-3.93,3.01-7.21,9.68-7.21,2.92-.09,5.66.73,8.13,2.28l-1.19,2.92c-2.1-1.37-4.47-2.01-6.94-2.1-4.29,0-6.21,1.83-6.21,4.02,0,6.21,15.34,2.28,15.34,11.6,0,3.84-3.1,7.21-9.77,7.21-3.56.09-7.03-1-9.77-3.2"/>
            <path id="Caminho_2547" data-name="Caminho 2547" class="cls-13" d="m1577.17,131.5c0,5.48-4.02,8.86-10.59,8.86h-6.3v7.67h-3.65v-25.39h10.05c6.57,0,10.5,3.38,10.5,8.86m-3.56,0c0-3.65-2.47-5.66-7.03-5.66h-6.21v11.41h6.21c4.57-.09,7.03-2.1,7.03-5.75"/>
            <path id="Caminho_2548" data-name="Caminho 2548" class="cls-13" d="m1600.91,144.83v3.2h-18.36v-25.39h17.9v3.2h-14.25v7.76h12.69v3.1h-12.69v8.22h14.7v-.09Z"/>
            <path id="Caminho_2549" data-name="Caminho 2549" class="cls-13" d="m1604.57,135.34c0-7.49,5.75-12.97,13.42-12.97,3.65-.18,7.12,1.28,9.59,3.93l-2.37,2.28c-1.83-2.01-4.47-3.1-7.12-3.01-5.39-.09-9.86,4.11-9.95,9.5-.09,5.39,4.11,9.86,9.5,9.95h.46c2.74.09,5.3-1,7.12-3.01l2.37,2.28c-2.47,2.65-6.03,4.11-9.68,4.02-7.03.27-13.06-5.11-13.42-12.24.09-.18.09-.46.09-.73"/>
            <rect id="Retângulo_173" data-name="Retângulo 173" class="cls-13" x="1632.87" y="122.64" width="3.65" height="25.3"/>
            <path id="Caminho_2550" data-name="Caminho 2550" class="cls-13" d="m1660.18,141.64h-13.52l-2.83,6.3h-3.74l11.51-25.39h3.56l11.51,25.39h-3.84l-2.65-6.3h0Zm-1.19-2.83l-5.48-12.42-5.48,12.42h10.96Z"/>
            <path id="Caminho_2551" data-name="Caminho 2551" class="cls-13" d="m1670.59,122.64h3.65v22.19h13.7v3.2h-17.35v-25.39h0Z"/>
            <rect id="Retângulo_174" data-name="Retângulo 174" class="cls-13" x="1692.05" y="122.64" width="3.65" height="25.3"/>
            <path id="Caminho_2552" data-name="Caminho 2552" class="cls-13" d="m1722.18,144.83v3.2h-21.19v-2.47l15.89-19.72h-15.71v-3.2h20.46v2.47l-15.89,19.72h16.44Z"/>
            <path id="Caminho_2553" data-name="Caminho 2553" class="cls-13" d="m1743.19,141.64h-13.52l-2.83,6.3h-3.74l11.51-25.39h3.56l11.51,25.39h-3.84l-2.65-6.3h0Zm-1.19-2.83l-5.48-12.42-5.48,12.42h10.96Z"/>
            <path id="Caminho_2554" data-name="Caminho 2554" class="cls-13" d="m1771.86,142l2.37,2.28c-2.47,2.56-5.84,4.02-9.41,4.02l-.37,1.55c2.1.18,3.1,1.37,3.1,3.01,0,2.01-1.74,3.29-4.47,3.29-1.1,0-2.28-.27-3.2-.82l.73-1.74c.73.46,1.64.64,2.47.64,1.37,0,2.01-.55,2.01-1.46,0-.82-.64-1.37-2.1-1.37h-1l.82-3.1c-6.67-.55-11.78-6.12-11.69-12.88,0-7.49,5.75-12.97,13.42-12.97,3.65-.18,7.12,1.28,9.68,3.93l-2.37,2.28c-1.83-2.01-4.47-3.1-7.12-3.01-5.39-.09-9.86,4.2-9.95,9.59-.09,5.39,4.2,9.77,9.59,9.95h.37c2.65-.09,5.3-1.19,7.12-3.2"/>
            <path id="Caminho_2555" data-name="Caminho 2555" class="cls-13" d="m1794.97,141.64h-13.52l-2.83,6.3h-3.74l11.51-25.39h3.56l11.51,25.39h-3.84l-2.65-6.3h0Zm-10.87-21.28h-1.92c.09-2.65,1.46-4.38,3.56-4.38,2.28,0,3.47,2.47,4.84,2.47,1.1,0,1.74-.82,1.83-2.19h1.92c-.09,2.56-1.46,4.29-3.56,4.29-2.28,0-3.47-2.47-4.84-2.47-1,0-1.74.82-1.83,2.28m9.59,18.45l-5.48-12.42-5.48,12.42h10.96Z"/>
            <path id="Caminho_2556" data-name="Caminho 2556" class="cls-13" d="m1802.82,135.34c0-7.4,5.75-12.97,13.52-12.97,7.12-.27,13.15,5.39,13.42,12.51.27,7.12-5.39,13.15-12.51,13.42h-.91c-7.76,0-13.52-5.57-13.52-12.97m23.38,0c.09-5.48-4.29-9.86-9.77-9.95-5.48-.09-9.86,4.29-9.95,9.77-.09,5.48,4.29,9.86,9.77,9.95h.18c5.3.18,9.68-3.93,9.77-9.22,0-.18,0-.37,0-.55"/>
            <path id="Caminho_2557" data-name="Caminho 2557" class="cls-13" d="m1528.41,188.3v3.2h-18.45v-25.39h17.9v3.2h-14.25v7.76h12.69v3.1h-12.69v8.22l14.79-.09h0Z"/>
            <path id="Caminho_2558" data-name="Caminho 2558" class="cls-13" d="m1557.72,191.5v-18.45l-9.13,15.34h-1.64l-9.13-15.25v18.36h-3.47v-25.39h2.92l10.59,17.81,10.41-17.81h2.92v25.39h-3.47Z"/>
            <path id="Caminho_2559" data-name="Caminho 2559" class="cls-13" d="m1578.54,166.11h10.68c8.13,0,13.7,5.11,13.7,12.69s-5.57,12.69-13.7,12.69h-10.68v-25.39h0Zm10.5,22.19c6.3,0,10.32-3.84,10.32-9.5s-4.02-9.5-10.32-9.5h-6.85v18.99h6.85Z"/>
            <rect id="Retângulo_175" data-name="Retângulo 175" class="cls-13" x="1608.49" y="166.11" width="3.65" height="25.39"/>
            <path id="Caminho_2560" data-name="Caminho 2560" class="cls-13" d="m1636.62,191.5l-5.48-7.76c-.55,0-1.1.09-1.64.09h-6.3v7.76h-3.65v-25.39h9.86c6.57,0,10.59,3.38,10.59,8.86.18,3.65-2.1,6.94-5.57,8.04l6.03,8.49-3.84-.09h0Zm-.09-16.53c0-3.65-2.47-5.66-7.03-5.66h-6.21v11.41h6.21c4.57-.09,7.03-2.19,7.03-5.75"/>
            <path id="Caminho_2561" data-name="Caminho 2561" class="cls-13" d="m1664.38,188.3v3.2h-18.36v-25.39h17.9v3.2h-14.25v7.76h12.69v3.1h-12.69v8.22l14.7-.09h0Z"/>
            <rect id="Retângulo_176" data-name="Retângulo 176" class="cls-13" x="1670.22" y="166.11" width="3.65" height="25.39"/>
            <path id="Caminho_2562" data-name="Caminho 2562" class="cls-13" d="m1686.57,169.31h-8.68v-3.2h21v3.2h-8.68v22.19h-3.56l-.09-22.19h0Z"/>
            <path id="Caminho_2563" data-name="Caminho 2563" class="cls-13" d="m1700.36,178.8c0-7.4,5.75-12.97,13.52-12.97,7.12-.27,13.15,5.39,13.42,12.51.27,7.12-5.39,13.15-12.51,13.42h-.91c-7.85,0-13.52-5.57-13.52-12.97m23.29,0c.09-5.48-4.29-9.86-9.77-9.95-5.48-.09-9.86,4.29-9.95,9.77s4.29,9.86,9.77,9.95h.18c5.3.18,9.68-3.93,9.77-9.22,0-.18,0-.37,0-.55"/>
            <path id="Caminho_2564" data-name="Caminho 2564" class="cls-13" d="m1507.68,232.04l1.37-2.83c2.37,1.92,5.3,2.92,8.4,2.92,4.38,0,6.3-1.74,6.3-3.93,0-6.21-15.34-2.28-15.34-11.69,0-3.93,3.01-7.21,9.68-7.21,2.92-.09,5.66.73,8.13,2.28l-1.19,2.92c-2.1-1.37-4.47-2.01-6.94-2.1-4.29,0-6.21,1.83-6.21,4.02,0,6.21,15.34,2.28,15.34,11.6,0,3.84-3.1,7.21-9.77,7.21-3.56.09-7.03-1-9.77-3.2"/>
            <path id="Caminho_2565" data-name="Caminho 2565" class="cls-13" d="m1548.59,228.57h-13.52l-2.74,6.3h-3.74l11.51-25.39h3.56l11.51,25.39h-3.84l-2.74-6.3h0Zm-1.19-2.92l-5.48-12.42-5.48,12.42h10.96Z"/>
            <path id="Caminho_2566" data-name="Caminho 2566" class="cls-13" d="m1580.82,209.58v25.39h-2.92l-15.25-18.9v18.9h-3.65v-25.39h2.92l15.25,18.9v-18.9h3.65Z"/>
            <rect id="Retângulo_177" data-name="Retângulo 177" class="cls-13" x="1588.4" y="209.58" width="3.65" height="25.39"/>
            <path id="Caminho_2567" data-name="Caminho 2567" class="cls-13" d="m1604.66,212.68h-8.68v-3.2h21v3.2h-8.68v22.19h-3.56l-.09-22.19h0Z"/>
            <path id="Caminho_2568" data-name="Caminho 2568" class="cls-13" d="m1635.7,228.57h-13.52l-2.74,6.3h-3.74l11.51-25.39h3.56l11.51,25.39h-3.84l-2.74-6.3h0Zm-1.28-2.92l-5.48-12.42-5.48,12.42h10.96Zm-4.84-18.17h-3.29l4.93-4.75h4.38l-6.03,4.75h0Z"/>
            <path id="Caminho_2569" data-name="Caminho 2569" class="cls-13" d="m1663.01,234.87l-5.48-7.76c-.55,0-1.1.09-1.64.09h-6.3v7.76h-3.65v-25.39h9.86c6.57,0,10.59,3.38,10.59,8.86.18,3.65-2.1,6.94-5.57,8.04l6.03,8.49-3.84-.09h0Zm-.09-16.44c0-3.65-2.47-5.66-7.03-5.66h-6.21v11.41h6.21c4.66-.09,7.03-2.19,7.03-5.75"/>
            <rect id="Retângulo_178" data-name="Retângulo 178" class="cls-13" x="1672.42" y="209.58" width="3.65" height="25.39"/>
            <path id="Caminho_2570" data-name="Caminho 2570" class="cls-13" d="m1681.55,222.27c0-7.4,5.75-12.97,13.52-12.97,7.12-.27,13.15,5.39,13.42,12.51.27,7.12-5.39,13.15-12.51,13.42h-.91c-7.76,0-13.52-5.57-13.52-12.97m23.29,0c.09-5.48-4.29-9.86-9.77-9.95-5.48-.09-9.86,4.29-9.95,9.77s4.29,9.86,9.77,9.95h.18c5.3.18,9.68-3.93,9.77-9.22,0-.27,0-.46,0-.55"/>
            <path id="Caminho_2571" data-name="Caminho 2571" class="cls-8" d="m1509.68,97.16c.37-5.75,5.3-10.05,11.05-9.77,2.65.18,5.21,1.37,7.03,3.29l-2.83,2.56c-1.19-1.37-2.92-2.19-4.75-2.19-3.2-.18-5.94,2.28-6.03,5.48v.55c-.18,3.2,2.28,5.94,5.48,6.03h.55c1.83,0,3.56-.82,4.75-2.28l2.83,2.56c-3.84,4.2-10.41,4.47-14.61.64-2.1-1.64-3.29-4.2-3.47-6.85"/>
            <path id="Caminho_2572" data-name="Caminho 2572" class="cls-8" d="m1530.32,98.26v-10.59h4.38v10.41c0,3.56,1.55,5.02,4.2,5.02s4.2-1.46,4.2-5.02v-10.41h4.29v10.59c0,5.57-3.2,8.68-8.58,8.68s-8.49-3.1-8.49-8.68"/>
            <path id="Caminho_2573" data-name="Caminho 2573" class="cls-8" d="m1563.75,106.57l-3.65-5.3h-4.02v5.3h-4.38v-18.9h8.22c5.02,0,8.22,2.65,8.22,6.85.09,2.65-1.46,5.02-3.84,5.94l4.2,6.03h-4.75v.09Zm-4.11-15.34h-3.56v6.57h3.56c2.65,0,4.02-1.28,4.02-3.29s-1.28-3.29-4.02-3.29"/>
            <path id="Caminho_2574" data-name="Caminho 2574" class="cls-8" d="m1570.05,104.74l1.46-3.29c1.83,1.28,4.02,1.92,6.21,2.01,2.56,0,3.65-.82,3.65-2.01,0-3.56-10.96-1.1-10.96-8.13,0-3.2,2.56-5.84,7.94-5.84,2.28,0,4.57.55,6.57,1.64l-1.37,3.29c-1.55-.91-3.38-1.46-5.21-1.46-2.56,0-3.56,1-3.56,2.19,0,3.47,10.96,1.1,10.96,8.04,0,3.2-2.65,5.84-8.04,5.84-2.65-.09-5.39-.82-7.67-2.28"/>
            <path id="Caminho_2575" data-name="Caminho 2575" class="cls-8" d="m1587.58,97.16c0-5.39,4.38-9.77,9.77-9.77h.55c5.94,0,10.32,4.11,10.32,9.77s-4.38,9.77-10.32,9.77c-5.39.27-10.05-3.84-10.32-9.22v-.55m16.25,0c.09-3.29-2.56-5.94-5.84-6.03s-5.94,2.56-6.03,5.84v.18c-.09,3.29,2.56,5.94,5.84,6.03,3.29.09,5.94-2.56,6.03-5.84v-.18"/>
            <path id="Caminho_2576" data-name="Caminho 2576" class="cls-8" d="m1619.18,87.67h8.58c6.21,0,10.41,3.74,10.41,9.41s-4.2,9.41-10.41,9.41h-8.58v-18.81h0Zm8.31,15.34c3.74,0,6.21-2.28,6.21-5.84s-2.47-5.84-6.21-5.84h-4.02v11.69h4.02Z"/>
            <path id="Caminho_2577" data-name="Caminho 2577" class="cls-8" d="m1656.07,103.1v3.47h-14.61v-18.9h14.25v3.47h-9.95v4.11h8.77v3.38h-8.77v4.38l10.32.09h0Z"/>
          </g>
        </g>
      </g>
    </g>
  </g>
</svg>