<?xml version="1.0" encoding="utf-8"?>
<!-- Generator: Adobe Illustrator 27.1.1, SVG Export Plug-In . SVG Version: 6.00 Build 0)  -->
<svg version="1.1" id="Layer_1" xmlns="http://www.w3.org/2000/svg" xmlns:xlink="http://www.w3.org/1999/xlink" x="0px" y="0px"
	 viewBox="0 0 108.7 105.9" style="enable-background:new 0 0 108.7 105.9;" xml:space="preserve">
<style type="text/css">
	.st0{fill:#0B6B97;}
	.st1{fill:#FFFFFF;}
</style>
<g>
	<circle class="st0" cx="43.9" cy="52.9" r="32.3"/>
	<g>
		<path class="st1" d="M33.1,60.2c-1.1-0.7-1.9-1.6-2.5-2.8c-0.6-1.2-0.9-2.7-0.9-4.4s0.3-3.2,0.9-4.4c0.6-1.2,1.4-2.2,2.5-2.8
			c1.1-0.7,2.3-1,3.6-1s2.5,0.3,3.6,1c1.1,0.7,1.9,1.6,2.5,2.8c0.6,1.2,0.9,2.7,0.9,4.4s-0.3,3.2-0.9,4.4c-0.6,1.2-1.4,2.2-2.5,2.8
			c-1.1,0.7-2.3,1-3.6,1S34.2,60.9,33.1,60.2z M38.6,56.4c0.5-0.7,0.7-1.9,0.7-3.5s-0.2-2.8-0.7-3.5s-1-1.1-1.8-1.1
			s-1.4,0.4-1.8,1.1c-0.5,0.7-0.7,1.9-0.7,3.5s0.2,2.8,0.7,3.5s1,1.1,1.8,1.1S38.1,57.2,38.6,56.4L38.6,56.4z"/>
		<path class="st1" d="M56.9,53c0.7,0.8,1,1.8,1,2.9c0,0.9-0.2,1.8-0.8,2.6s-1.3,1.5-2.3,1.9c-1,0.5-2.3,0.7-3.8,0.7
			c-1.1,0-2.2-0.1-3.3-0.4c-1.1-0.3-2-0.7-2.8-1.2l1.6-3.4c0.6,0.4,1.3,0.8,2.1,1s1.5,0.3,2.3,0.3s1.4-0.1,1.8-0.4
			c0.5-0.3,0.7-0.7,0.7-1.2c0-1-0.8-1.5-2.4-1.5h-1.9v-2.8l2.8-3.1h-6.3V45h11.5v2.8l-3.3,3.5C55.2,51.6,56.2,52.2,56.9,53L56.9,53
			L56.9,53z"/>
	</g>
</g>
<rect x="95.2" y="20.6" class="st0" width="2" height="64.8"/>
</svg>
