<svg xmlns="http://www.w3.org/2000/svg" width="1545" height="586.002" viewBox="0 0 1545 586.002">
  <g id="Grupo_3948" data-name="Grupo 3948" transform="translate(-187.5 -751)">
    <rect id="Retângulo_786" data-name="Retângulo 786" width="1330.985" height="13.247" transform="translate(294.507 1032.28)" fill="#ebe9ea"/>
    <circle id="Elipse_85" data-name="Elipse 85" cx="14.27" cy="14.27" r="14.27" transform="translate(280.238 1023.108)" fill="#0b6b97"/>
    <circle id="Elipse_86" data-name="Elipse 86" cx="14.27" cy="14.27" r="14.27" transform="translate(534.001 1023.108)" fill="#008686"/>
    <circle id="Elipse_87" data-name="Elipse 87" cx="14.27" cy="14.27" r="14.27" transform="translate(796.937 1023.108)" fill="#f0602a"/>
    <circle id="Elipse_88" data-name="Elipse 88" cx="14.27" cy="14.27" r="14.27" transform="translate(1070.067 1023.108)" fill="#f7b000"/>
    <circle id="Elipse_89" data-name="Elipse 89" cx="14.27" cy="14.27" r="14.27" transform="translate(1338.093 1023.108)" fill="#797b7d"/>
    <circle id="Elipse_90" data-name="Elipse 90" cx="14.27" cy="14.27" r="14.27" transform="translate(1611.223 1023.108)" fill="#003049"/>
    <g id="Grupo_3867" data-name="Grupo 3867" transform="translate(1530.387 930.295)">
      <path id="Caminho_28453" data-name="Caminho 28453" d="M1858.462,306.508a12.512,12.512,0,0,1-4.15-.662,8.8,8.8,0,0,1-3.271-1.977,8.894,8.894,0,0,1-2.12-3.278,13.813,13.813,0,0,1-.038-8.879,9.27,9.27,0,0,1,2.083-3.346,8.727,8.727,0,0,1,3.255-2.068,11.943,11.943,0,0,1,4.248-.729,16.217,16.217,0,0,1,2.293.143,15.511,15.511,0,0,1,1.887.376,13.1,13.1,0,0,1,1.646.579c.489.211.925.406,1.293.586v4.887H1865c-.256-.218-.571-.474-.955-.767a14.093,14.093,0,0,0-1.308-.88,9.206,9.206,0,0,0-1.609-.729,5.722,5.722,0,0,0-1.857-.293,6.176,6.176,0,0,0-2.083.346,5.1,5.1,0,0,0-1.827,1.143,5.616,5.616,0,0,0-1.293,2.037,9.736,9.736,0,0,0,.037,6.248,5.466,5.466,0,0,0,1.346,2,4.894,4.894,0,0,0,1.842,1.06,6.731,6.731,0,0,0,2.007.316,6.093,6.093,0,0,0,1.88-.286,7.362,7.362,0,0,0,1.714-.767,12.647,12.647,0,0,0,1.233-.835c.376-.293.692-.549.932-.767h.541v4.819c-.5.226-.992.436-1.451.639a11.767,11.767,0,0,1-1.451.511c-.662.188-1.278.331-1.857.436a14.173,14.173,0,0,1-2.383.15Z" transform="translate(-1848.17 -284.209)" fill="#003049"/>
      <path id="Caminho_28454" data-name="Caminho 28454" d="M1891.25,300.122a7.915,7.915,0,0,1-2.188,5.909,9.822,9.822,0,0,1-12.285,0,9.081,9.081,0,0,1,.015-11.841,9.822,9.822,0,0,1,12.285.015,7.966,7.966,0,0,1,2.173,5.917Zm-6,3.7a3.967,3.967,0,0,0,.714-1.4,8.515,8.515,0,0,0,.241-2.271,9.01,9.01,0,0,0-.241-2.248,4.067,4.067,0,0,0-.677-1.451,2.347,2.347,0,0,0-1.045-.782,3.751,3.751,0,0,0-1.316-.233,3.8,3.8,0,0,0-1.256.188,2.527,2.527,0,0,0-1.052.759,3.9,3.9,0,0,0-.714,1.451,8.39,8.39,0,0,0-.263,2.316,8.693,8.693,0,0,0,.233,2.158,3.8,3.8,0,0,0,.677,1.466,2.552,2.552,0,0,0,1.038.774,3.85,3.85,0,0,0,2.639.015,2.331,2.331,0,0,0,1.022-.752Z" transform="translate(-1854.727 -285.815)" fill="#003049"/>
      <path id="Caminho_28455" data-name="Caminho 28455" d="M1916.669,307.743h-4.887V300.2a16.573,16.573,0,0,0-.1-1.834,3.843,3.843,0,0,0-.323-1.346,1.619,1.619,0,0,0-.79-.729,3.755,3.755,0,0,0-1.458-.233,4.457,4.457,0,0,0-1.346.218,7.127,7.127,0,0,0-1.481.692V307.75H1901.4V292.541h4.887v1.677a12.424,12.424,0,0,1,2.5-1.556,6.368,6.368,0,0,1,2.654-.541,5.115,5.115,0,0,1,3.849,1.436,5.955,5.955,0,0,1,1.383,4.293v9.9Z" transform="translate(-1861.38 -285.835)" fill="#003049"/>
      <path id="Caminho_28456" data-name="Caminho 28456" d="M1940.552,302.926a4.411,4.411,0,0,1-2.113,3.8,10.12,10.12,0,0,1-5.781,1.444,16.824,16.824,0,0,1-3.684-.376,13.538,13.538,0,0,1-2.654-.842v-4.007h.443c.241.173.526.361.85.564a8.63,8.63,0,0,0,1.361.654,10.851,10.851,0,0,0,1.722.534,9.059,9.059,0,0,0,2.06.226,5.426,5.426,0,0,0,2.128-.316,1.015,1.015,0,0,0,.692-.94.873.873,0,0,0-.406-.8,5.216,5.216,0,0,0-1.541-.481c-.361-.083-.85-.173-1.466-.263a14.723,14.723,0,0,1-1.684-.346,6,6,0,0,1-3.075-1.684,4.159,4.159,0,0,1-1-2.849,4.317,4.317,0,0,1,2.075-3.646,9.756,9.756,0,0,1,5.684-1.459,14.985,14.985,0,0,1,3.27.346,13.286,13.286,0,0,1,2.443.737v3.849h-.421a9.836,9.836,0,0,0-2.474-1.21,8.855,8.855,0,0,0-2.812-.466,5.328,5.328,0,0,0-1.985.323c-.534.218-.8.526-.8.917a.974.974,0,0,0,.368.827,5.123,5.123,0,0,0,1.722.571q.744.147,1.6.293c.571.1,1.15.218,1.729.361a5.339,5.339,0,0,1,2.842,1.579,4.028,4.028,0,0,1,.917,2.692Z" transform="translate(-1867.565 -285.837)" fill="#003049"/>
      <path id="Caminho_28457" data-name="Caminho 28457" d="M1958.71,306.31a13.42,13.42,0,0,1-1.669.316,17.348,17.348,0,0,1-2.15.113,6.54,6.54,0,0,1-4.233-1.15q-1.387-1.15-1.391-3.94v-7.112h-2.007v-3.3h2.007V286.89h4.887v4.346h4.549v3.3h-4.549v5.4c0,.534,0,1,.015,1.4a2.877,2.877,0,0,0,.218,1.075,1.5,1.5,0,0,0,.669.752,2.783,2.783,0,0,0,1.4.278,3.959,3.959,0,0,0,.992-.165,3.906,3.906,0,0,0,.857-.3h.406V306.3Z" transform="translate(-1872.762 -284.537)" fill="#003049"/>
      <path id="Caminho_28458" data-name="Caminho 28458" d="M1971.338,288.569h-5.157v-3.7h5.157Zm-.135,17.375h-4.887V290.734h4.887Z" transform="translate(-1877.457 -284.035)" fill="#003049"/>
      <path id="Caminho_28459" data-name="Caminho 28459" d="M1988.12,306.31a13.433,13.433,0,0,1-1.669.316,17.348,17.348,0,0,1-2.15.113,6.54,6.54,0,0,1-4.233-1.15q-1.387-1.15-1.391-3.94v-7.112h-2.008v-3.3h2.008V286.89h4.887v4.346h4.549v3.3h-4.549v5.4c0,.534,0,1,.015,1.4a2.887,2.887,0,0,0,.218,1.075,1.5,1.5,0,0,0,.669.752,2.785,2.785,0,0,0,1.4.278,3.96,3.96,0,0,0,.992-.165,3.9,3.9,0,0,0,.857-.3h.406V306.3Z" transform="translate(-1880.06 -284.537)" fill="#003049"/>
      <path id="Caminho_28460" data-name="Caminho 28460" d="M2010.89,307.877H2006V306.2a14.569,14.569,0,0,1-2.473,1.564,6.226,6.226,0,0,1-2.677.534,5.03,5.03,0,0,1-3.872-1.451,6.015,6.015,0,0,1-1.361-4.278v-9.9h4.887v7.541c0,.767.022,1.406.075,1.917a3.358,3.358,0,0,0,.346,1.263,1.541,1.541,0,0,0,.782.729,3.755,3.755,0,0,0,1.458.233,4.709,4.709,0,0,0,1.383-.233,5.855,5.855,0,0,0,1.466-.677V292.66h4.887v15.209Z" transform="translate(-1884.763 -285.969)" fill="#003049"/>
      <path id="Caminho_28461" data-name="Caminho 28461" d="M2027.027,288.569h-5.157v-3.7h5.157Zm-.135,17.375h-4.887V290.734h4.887Z" transform="translate(-1891.278 -284.035)" fill="#003049"/>
      <path id="Caminho_28462" data-name="Caminho 28462" d="M2041.816,308.116a12.7,12.7,0,0,1-3.489-.541,7.83,7.83,0,0,1-2.744-1.474,6.661,6.661,0,0,1-1.774-2.443,8.53,8.53,0,0,1-.639-3.443,8.727,8.727,0,0,1,.714-3.669,6.893,6.893,0,0,1,1.985-2.556,7.994,7.994,0,0,1,2.842-1.406,12.345,12.345,0,0,1,3.346-.444,11.529,11.529,0,0,1,2.872.338,13.477,13.477,0,0,1,2.451.88v4.158h-.692c-.188-.165-.414-.353-.684-.571a6.292,6.292,0,0,0-.977-.639,6.869,6.869,0,0,0-1.218-.5,5.563,5.563,0,0,0-1.541-.2,3.694,3.694,0,0,0-2.992,1.241,5.044,5.044,0,0,0-1.045,3.368,4.756,4.756,0,0,0,1.075,3.331,3.993,3.993,0,0,0,3.052,1.135,5.886,5.886,0,0,0,1.654-.211,5.591,5.591,0,0,0,1.225-.5,5.329,5.329,0,0,0,.812-.571c.233-.2.451-.391.647-.579h.692v4.158c-.323.135-.707.286-1.143.451a8.83,8.83,0,0,1-1.376.4,4.6,4.6,0,0,0,.023.526c.015.211.023.391.023.556a4.259,4.259,0,0,1-1.346,3.376,5.131,5.131,0,0,1-3.511,1.188c-.316,0-.774-.023-1.376-.075a8.538,8.538,0,0,1-1.511-.248v-2.722h.308a6.093,6.093,0,0,0,.947.308,4.853,4.853,0,0,0,1.188.165,2.287,2.287,0,0,0,1.646-.541,2.145,2.145,0,0,0,.564-1.616v-.632Z" transform="translate(-1894.083 -285.84)" fill="#003049"/>
      <path id="Caminho_28463" data-name="Caminho 28463" d="M2065.193,304.059c-.263.2-.587.436-.978.722a6.339,6.339,0,0,1-1.1.662,7.018,7.018,0,0,1-1.489.481,8.4,8.4,0,0,1-1.692.158,5.174,5.174,0,0,1-3.631-1.338,4.441,4.441,0,0,1-1.466-3.428,4.62,4.62,0,0,1,.744-2.722,5.05,5.05,0,0,1,2.113-1.669,11.993,11.993,0,0,1,3.361-.865c1.338-.173,2.722-.3,4.158-.376V295.6a1.745,1.745,0,0,0-1.03-1.737,7.386,7.386,0,0,0-3.03-.481,8.6,8.6,0,0,0-2.571.429q-1.365.429-1.962.654h-.444V290.8c.511-.135,1.353-.293,2.511-.481a21.751,21.751,0,0,1,3.488-.278q4.161,0,6.007,1.278a4.541,4.541,0,0,1,1.849,4.015v10.345H2065.2v-1.609Zm3.586-20.3a5.5,5.5,0,0,1-1.12,3.391,3.482,3.482,0,0,1-2.744,1.105,3.034,3.034,0,0,1-1.211-.248,9.156,9.156,0,0,1-1.052-.534q-.417-.259-.925-.519a1.991,1.991,0,0,0-.85-.263.9.9,0,0,0-.887.436,2.934,2.934,0,0,0-.263,1.218h-2.962a5.153,5.153,0,0,1,1.128-3.263,3.411,3.411,0,0,1,2.714-1.218,3.245,3.245,0,0,1,1.233.241,8.3,8.3,0,0,1,1.068.519c.331.18.646.353.932.511a1.688,1.688,0,0,0,.8.241.93.93,0,0,0,.895-.436,2.493,2.493,0,0,0,.271-1.165h2.962Zm-3.586,17.931v-3.158q-.992.079-2.143.226a9.746,9.746,0,0,0-1.744.331,2.416,2.416,0,0,0-1.12.669,1.693,1.693,0,0,0-.384,1.158,3.021,3.021,0,0,0,.083.767,1.144,1.144,0,0,0,.406.564,1.977,1.977,0,0,0,.744.4,5.281,5.281,0,0,0,1.353.128,4.027,4.027,0,0,0,1.481-.293,4.631,4.631,0,0,0,1.323-.782Z" transform="translate(-1899.46 -283.76)" fill="#003049"/>
      <path id="Caminho_28464" data-name="Caminho 28464" d="M2096.18,300.122a7.915,7.915,0,0,1-2.188,5.909,9.822,9.822,0,0,1-12.285,0,9.081,9.081,0,0,1,.015-11.841,9.821,9.821,0,0,1,12.285.015A7.966,7.966,0,0,1,2096.18,300.122Zm-6,3.7a3.967,3.967,0,0,0,.714-1.4,8.514,8.514,0,0,0,.241-2.271,9.01,9.01,0,0,0-.241-2.248,4.069,4.069,0,0,0-.677-1.451,2.348,2.348,0,0,0-1.045-.782,3.75,3.75,0,0,0-1.316-.233,3.8,3.8,0,0,0-1.256.188,2.526,2.526,0,0,0-1.052.759,3.9,3.9,0,0,0-.714,1.451,8.39,8.39,0,0,0-.263,2.316,8.693,8.693,0,0,0,.233,2.158,3.794,3.794,0,0,0,.677,1.466,2.552,2.552,0,0,0,1.037.774,3.85,3.85,0,0,0,2.639.015,2.331,2.331,0,0,0,1.023-.752Z" transform="translate(-1905.585 -285.815)" fill="#003049"/>
      <path id="Caminho_28465" data-name="Caminho 28465" d="M1908.384,365.194H1903.5v-1.586a11.07,11.07,0,0,1-2.353,1.519,6.18,6.18,0,0,1-2.526.489,5.326,5.326,0,0,1-4.436-2.143,9.144,9.144,0,0,1-1.661-5.767,9.714,9.714,0,0,1,.564-3.436,7.918,7.918,0,0,1,1.534-2.564,6.346,6.346,0,0,1,2.233-1.579,6.6,6.6,0,0,1,2.624-.564,7.361,7.361,0,0,1,2.24.293,14.546,14.546,0,0,1,1.789.737V344.12h4.887v21.074Zm-4.887-4.188v-7.473a5.143,5.143,0,0,0-1.083-.316,6.674,6.674,0,0,0-1.038-.1,3.456,3.456,0,0,0-2.879,1.2,5.2,5.2,0,0,0-.962,3.331,5.435,5.435,0,0,0,.767,3.248,2.9,2.9,0,0,0,2.474,1.007,4.44,4.44,0,0,0,1.406-.248,4.648,4.648,0,0,0,1.308-.662Z" transform="translate(-1859.177 -298.74)" fill="#003049"/>
      <path id="Caminho_28466" data-name="Caminho 28466" d="M1934.362,360.269H1923.2a3.526,3.526,0,0,0,1.361,2.737,6.062,6.062,0,0,0,3.692.947,8.314,8.314,0,0,0,2.992-.556,9.4,9.4,0,0,0,2.286-1.188h.541v3.917a18.629,18.629,0,0,1-3.113.962,16.475,16.475,0,0,1-3.233.3q-4.579,0-7.015-2.06a7.252,7.252,0,0,1-2.436-5.864,7.787,7.787,0,0,1,2.308-5.962,8.8,8.8,0,0,1,6.33-2.2,7.539,7.539,0,0,1,5.579,1.88,7.327,7.327,0,0,1,1.872,5.4v1.707Zm-4.849-2.857a3.4,3.4,0,0,0-.759-2.3,2.935,2.935,0,0,0-2.233-.774,3.557,3.557,0,0,0-2.316.729,3.15,3.15,0,0,0-1.015,2.346h6.323Z" transform="translate(-1865.57 -300.522)" fill="#003049"/>
      <path id="Caminho_28467" data-name="Caminho 28467" d="M1972.038,365.479H1958.58v-3.519h4.255V351.307h-4.255v-3.293a15.082,15.082,0,0,0,1.872-.113,4.966,4.966,0,0,0,1.489-.4,2.591,2.591,0,0,0,1.06-.88,2.817,2.817,0,0,0,.406-1.353h4.481v16.7h4.158v3.519Z" transform="translate(-1875.571 -299.025)" fill="#003049"/>
      <path id="Caminho_28468" data-name="Caminho 28468" d="M1998.377,354.128a16.579,16.579,0,0,1-.646,4.714,9.426,9.426,0,0,1-1.977,3.669,8.924,8.924,0,0,1-3.564,2.421,14.029,14.029,0,0,1-4.954.8,20.413,20.413,0,0,1-2.165-.12,12.663,12.663,0,0,1-1.534-.218v-3.97h.541a7.129,7.129,0,0,0,3.21.624,8.352,8.352,0,0,0,2.075-.263,4.645,4.645,0,0,0,1.744-.835,4.974,4.974,0,0,0,1.316-1.526,6.176,6.176,0,0,0,.692-2.2,13.455,13.455,0,0,1-2.188,1.038,7.551,7.551,0,0,1-2.511.361,8.236,8.236,0,0,1-2.173-.278,6.083,6.083,0,0,1-1.887-.865,5.777,5.777,0,0,1-1.8-2.105,7.242,7.242,0,0,1-.669-3.3,6.791,6.791,0,0,1,2.255-5.278,8.466,8.466,0,0,1,5.909-2.037,10.325,10.325,0,0,1,3.338.5,6.708,6.708,0,0,1,2.511,1.511,7.256,7.256,0,0,1,1.857,2.97,13.568,13.568,0,0,1,.624,4.391Zm-5.188-.752a9.793,9.793,0,0,0-.316-2.722,4,4,0,0,0-.872-1.647,2.325,2.325,0,0,0-.91-.624,3.1,3.1,0,0,0-1.083-.188,2.817,2.817,0,0,0-1.007.18,2.544,2.544,0,0,0-.925.632,3.189,3.189,0,0,0-.684,1.143,4.892,4.892,0,0,0-.263,1.684,3.9,3.9,0,0,0,.286,1.594,2.514,2.514,0,0,0,.782,1.022,2.9,2.9,0,0,0,1.12.519,6.11,6.11,0,0,0,2.729-.008,7.367,7.367,0,0,0,1.113-.316,3.364,3.364,0,0,1,.023-.429q.023-.282.022-.835Z" transform="translate(-1881.356 -298.899)" fill="#003049"/>
      <path id="Caminho_28469" data-name="Caminho 28469" d="M2025.147,358.5a7.461,7.461,0,0,1-.571,2.925,6.351,6.351,0,0,1-1.594,2.3,7.587,7.587,0,0,1-2.541,1.534,9.794,9.794,0,0,1-3.375.526,10.429,10.429,0,0,1-3.308-.5,6.745,6.745,0,0,1-2.564-1.511,7.443,7.443,0,0,1-1.88-3.007,13.355,13.355,0,0,1-.654-4.4,16.964,16.964,0,0,1,.609-4.714,9.517,9.517,0,0,1,1.992-3.639,8.78,8.78,0,0,1,3.443-2.353,13.6,13.6,0,0,1,5.045-.842,18.991,18.991,0,0,1,2.165.135q1.173.135,1.534.2v3.97h-.511a7.069,7.069,0,0,0-1.24-.4,7.92,7.92,0,0,0-1.985-.226,5.915,5.915,0,0,0-4.045,1.271,5.437,5.437,0,0,0-1.744,3.549,11.027,11.027,0,0,1,2.2-1.007,7.894,7.894,0,0,1,2.5-.383,8.466,8.466,0,0,1,2.188.271,6.015,6.015,0,0,1,1.88.865,5.709,5.709,0,0,1,1.8,2.113,7.275,7.275,0,0,1,.677,3.316Zm-6.165,3.045a3.539,3.539,0,0,0,.669-1.09,4.805,4.805,0,0,0,.248-1.714,3.966,3.966,0,0,0-.286-1.616,2.514,2.514,0,0,0-.782-1.007,2.686,2.686,0,0,0-1.15-.519,6.307,6.307,0,0,0-1.368-.143,6.146,6.146,0,0,0-1.248.135,7.693,7.693,0,0,0-1.188.338c0,.09,0,.241-.015.444s-.015.466-.015.782a9.631,9.631,0,0,0,.331,2.744,4,4,0,0,0,.887,1.646,2.281,2.281,0,0,0,.895.617,3.175,3.175,0,0,0,1.113.2,2.883,2.883,0,0,0,.992-.2,2.34,2.34,0,0,0,.917-.609Z" transform="translate(-1888 -298.914)" fill="#003049"/>
      <path id="Caminho_28470" data-name="Caminho 28470" d="M2051.073,349.337l-9.127,16.157h-5.8l9.473-16.307H2035.27V345.33h15.8Z" transform="translate(-1894.604 -299.04)" fill="#003049"/>
    </g>
    <g id="Grupo_3868" data-name="Grupo 3868" transform="translate(1259.301 1068.894)">
      <path id="Caminho_28471" data-name="Caminho 28471" d="M1497.893,490.868a12.511,12.511,0,0,1-4.15-.662,8.8,8.8,0,0,1-3.27-1.977,8.894,8.894,0,0,1-2.12-3.278,13.812,13.812,0,0,1-.038-8.879,9.269,9.269,0,0,1,2.083-3.346,8.728,8.728,0,0,1,3.255-2.068,11.944,11.944,0,0,1,4.248-.729,16.217,16.217,0,0,1,2.293.143,15.5,15.5,0,0,1,1.887.376,13.093,13.093,0,0,1,1.646.579c.489.211.925.406,1.293.586V476.5h-.594c-.256-.218-.571-.474-.955-.767a14.1,14.1,0,0,0-1.308-.88,9.207,9.207,0,0,0-1.609-.729,5.724,5.724,0,0,0-1.857-.293,6.177,6.177,0,0,0-2.083.346,5.1,5.1,0,0,0-1.827,1.143,5.619,5.619,0,0,0-1.293,2.037,9.735,9.735,0,0,0,.038,6.248,5.465,5.465,0,0,0,1.346,2,4.893,4.893,0,0,0,1.842,1.06,6.73,6.73,0,0,0,2.007.316,6.094,6.094,0,0,0,1.88-.286,7.361,7.361,0,0,0,1.714-.767,12.617,12.617,0,0,0,1.233-.835c.376-.293.692-.549.932-.767h.541v4.819c-.5.226-.992.436-1.451.639a11.762,11.762,0,0,1-1.451.511c-.662.188-1.278.331-1.857.436a14.173,14.173,0,0,1-2.383.15Z" transform="translate(-1487.6 -468.562)" fill="#797b7d"/>
      <path id="Caminho_28472" data-name="Caminho 28472" d="M1530.67,484.482a7.915,7.915,0,0,1-2.188,5.909,9.822,9.822,0,0,1-12.285,0,9.081,9.081,0,0,1,.015-11.841,9.822,9.822,0,0,1,12.285.015A7.965,7.965,0,0,1,1530.67,484.482Zm-6,3.7a3.962,3.962,0,0,0,.714-1.4,8.514,8.514,0,0,0,.241-2.271,9.009,9.009,0,0,0-.241-2.248,4.07,4.07,0,0,0-.677-1.451,2.348,2.348,0,0,0-1.045-.782,3.75,3.75,0,0,0-1.316-.233,3.8,3.8,0,0,0-1.256.188,2.526,2.526,0,0,0-1.052.759,3.9,3.9,0,0,0-.714,1.451,8.39,8.39,0,0,0-.263,2.316,8.692,8.692,0,0,0,.233,2.158,3.793,3.793,0,0,0,.677,1.466,2.553,2.553,0,0,0,1.038.774,3.85,3.85,0,0,0,2.639.015,2.33,2.33,0,0,0,1.022-.752Z" transform="translate(-1494.154 -470.167)" fill="#797b7d"/>
      <path id="Caminho_28473" data-name="Caminho 28473" d="M1556.1,492.093h-4.887v-7.541a16.572,16.572,0,0,0-.1-1.834,3.845,3.845,0,0,0-.323-1.346,1.619,1.619,0,0,0-.789-.729,3.756,3.756,0,0,0-1.458-.233,4.457,4.457,0,0,0-1.346.218,7.127,7.127,0,0,0-1.481.692V492.1h-4.887V476.891h4.887v1.677a12.43,12.43,0,0,1,2.5-1.556,6.369,6.369,0,0,1,2.654-.541,5.115,5.115,0,0,1,3.849,1.436,5.955,5.955,0,0,1,1.383,4.293v9.9Z" transform="translate(-1500.81 -470.185)" fill="#797b7d"/>
      <path id="Caminho_28474" data-name="Caminho 28474" d="M1579.982,487.276a4.411,4.411,0,0,1-2.113,3.8,10.12,10.12,0,0,1-5.781,1.444,16.822,16.822,0,0,1-3.684-.376,13.543,13.543,0,0,1-2.654-.842v-4.007h.444c.24.173.526.361.849.564a8.632,8.632,0,0,0,1.361.654,10.849,10.849,0,0,0,1.722.534,9.055,9.055,0,0,0,2.06.226,5.427,5.427,0,0,0,2.128-.316,1.015,1.015,0,0,0,.692-.94.873.873,0,0,0-.406-.8,5.214,5.214,0,0,0-1.541-.481c-.361-.083-.85-.173-1.466-.263a14.723,14.723,0,0,1-1.684-.346,6,6,0,0,1-3.075-1.684,4.159,4.159,0,0,1-1-2.849,4.317,4.317,0,0,1,2.075-3.646,9.756,9.756,0,0,1,5.684-1.459,14.983,14.983,0,0,1,3.27.346,13.284,13.284,0,0,1,2.443.737v3.849h-.421a9.837,9.837,0,0,0-2.474-1.21,8.855,8.855,0,0,0-2.812-.466,5.328,5.328,0,0,0-1.985.323c-.534.218-.8.526-.8.917a.974.974,0,0,0,.368.827,5.123,5.123,0,0,0,1.722.571q.744.147,1.6.293c.571.1,1.15.218,1.729.361a5.338,5.338,0,0,1,2.842,1.579,4.028,4.028,0,0,1,.917,2.692Z" transform="translate(-1506.995 -470.187)" fill="#797b7d"/>
      <path id="Caminho_28475" data-name="Caminho 28475" d="M1598.13,490.66a13.431,13.431,0,0,1-1.669.316,17.347,17.347,0,0,1-2.15.113,6.54,6.54,0,0,1-4.233-1.15q-1.387-1.15-1.391-3.94v-7.112h-2.007v-3.3h2.007V471.24h4.887v4.346h4.549v3.3h-4.549v5.4c0,.534,0,1,.015,1.4a2.884,2.884,0,0,0,.218,1.075,1.5,1.5,0,0,0,.669.752,2.785,2.785,0,0,0,1.4.278,3.956,3.956,0,0,0,.992-.165,3.9,3.9,0,0,0,.857-.3h.406v3.331Z" transform="translate(-1512.189 -468.887)" fill="#797b7d"/>
      <path id="Caminho_28476" data-name="Caminho 28476" d="M1610.767,472.919h-5.157v-3.7h5.157Zm-.135,17.375h-4.887V475.084h4.887Z" transform="translate(-1516.887 -468.385)" fill="#797b7d"/>
      <path id="Caminho_28477" data-name="Caminho 28477" d="M1627.55,490.66a13.431,13.431,0,0,1-1.669.316,17.347,17.347,0,0,1-2.15.113,6.54,6.54,0,0,1-4.233-1.15q-1.387-1.15-1.391-3.94v-7.112H1616.1v-3.3h2.007V471.24h4.887v4.346h4.549v3.3h-4.549v5.4c0,.534,0,1,.015,1.4a2.884,2.884,0,0,0,.218,1.075,1.5,1.5,0,0,0,.669.752,2.785,2.785,0,0,0,1.4.278,3.956,3.956,0,0,0,.992-.165,3.9,3.9,0,0,0,.857-.3h.406v3.331Z" transform="translate(-1519.491 -468.887)" fill="#797b7d"/>
      <path id="Caminho_28478" data-name="Caminho 28478" d="M1650.31,492.227h-4.887V490.55a14.559,14.559,0,0,1-2.474,1.564,6.225,6.225,0,0,1-2.677.534,5.03,5.03,0,0,1-3.872-1.451,6.015,6.015,0,0,1-1.361-4.278v-9.9h4.887v7.541c0,.767.022,1.406.075,1.917a3.358,3.358,0,0,0,.346,1.263,1.541,1.541,0,0,0,.782.729,3.755,3.755,0,0,0,1.458.233,4.71,4.71,0,0,0,1.383-.233,5.856,5.856,0,0,0,1.466-.677V477.01h4.887v15.209Z" transform="translate(-1524.191 -470.319)" fill="#797b7d"/>
      <path id="Caminho_28479" data-name="Caminho 28479" d="M1666.458,472.919H1661.3v-3.7h5.157Zm-.135,17.375h-4.887V475.084h4.887Z" transform="translate(-1530.708 -468.385)" fill="#797b7d"/>
      <path id="Caminho_28480" data-name="Caminho 28480" d="M1681.246,492.466a12.7,12.7,0,0,1-3.489-.541,7.83,7.83,0,0,1-2.744-1.474,6.661,6.661,0,0,1-1.774-2.443,8.528,8.528,0,0,1-.639-3.443,8.727,8.727,0,0,1,.714-3.669,6.894,6.894,0,0,1,1.985-2.556,7.992,7.992,0,0,1,2.842-1.406,12.345,12.345,0,0,1,3.346-.444,11.527,11.527,0,0,1,2.872.338,13.474,13.474,0,0,1,2.451.88v4.158h-.692c-.188-.165-.414-.353-.684-.571a6.3,6.3,0,0,0-.977-.639,6.867,6.867,0,0,0-1.218-.5,5.564,5.564,0,0,0-1.541-.2,3.694,3.694,0,0,0-2.992,1.241,5.044,5.044,0,0,0-1.045,3.368,4.756,4.756,0,0,0,1.075,3.331,3.993,3.993,0,0,0,3.052,1.135,5.884,5.884,0,0,0,1.654-.211,5.593,5.593,0,0,0,1.226-.5,5.325,5.325,0,0,0,.812-.571c.233-.2.451-.391.647-.579h.692v4.158c-.323.135-.707.286-1.143.451a8.827,8.827,0,0,1-1.376.4,4.6,4.6,0,0,0,.023.526c.015.211.023.391.023.556a4.259,4.259,0,0,1-1.346,3.376,5.131,5.131,0,0,1-3.511,1.188c-.316,0-.774-.023-1.376-.075a8.546,8.546,0,0,1-1.511-.248v-2.722h.308a6.084,6.084,0,0,0,.947.308,4.852,4.852,0,0,0,1.188.165,2.288,2.288,0,0,0,1.646-.541,2.145,2.145,0,0,0,.564-1.616v-.632Z" transform="translate(-1533.512 -470.19)" fill="#797b7d"/>
      <path id="Caminho_28481" data-name="Caminho 28481" d="M1704.623,488.409c-.263.2-.586.436-.977.722a6.346,6.346,0,0,1-1.1.662,7.02,7.02,0,0,1-1.489.481,8.4,8.4,0,0,1-1.692.158,5.174,5.174,0,0,1-3.631-1.338,4.441,4.441,0,0,1-1.466-3.428,4.62,4.62,0,0,1,.744-2.722,5.052,5.052,0,0,1,2.113-1.669,11.992,11.992,0,0,1,3.361-.865c1.338-.173,2.722-.3,4.158-.376v-.083a1.745,1.745,0,0,0-1.03-1.737,7.385,7.385,0,0,0-3.03-.481,8.6,8.6,0,0,0-2.571.429q-1.365.429-1.962.654h-.444v-3.669c.511-.135,1.353-.293,2.511-.481a21.753,21.753,0,0,1,3.489-.278q4.161,0,6.007,1.278a4.541,4.541,0,0,1,1.849,4.015v10.345h-4.834v-1.609Zm3.586-20.3a5.5,5.5,0,0,1-1.12,3.391,3.482,3.482,0,0,1-2.744,1.105,3.033,3.033,0,0,1-1.21-.248,9.148,9.148,0,0,1-1.053-.534q-.417-.259-.925-.519a1.99,1.99,0,0,0-.85-.263.9.9,0,0,0-.887.436,2.933,2.933,0,0,0-.263,1.218h-2.962a5.152,5.152,0,0,1,1.128-3.263,3.412,3.412,0,0,1,2.714-1.218,3.246,3.246,0,0,1,1.233.241,8.31,8.31,0,0,1,1.068.519c.331.18.646.353.932.511a1.688,1.688,0,0,0,.8.241.93.93,0,0,0,.895-.436,2.49,2.49,0,0,0,.271-1.165h2.962Zm-3.586,17.931v-3.158q-.992.079-2.143.226a9.746,9.746,0,0,0-1.744.331,2.415,2.415,0,0,0-1.12.669,1.694,1.694,0,0,0-.383,1.158,3.022,3.022,0,0,0,.083.767,1.143,1.143,0,0,0,.406.564,1.976,1.976,0,0,0,.744.4,5.282,5.282,0,0,0,1.353.128,4.026,4.026,0,0,0,1.481-.293,4.628,4.628,0,0,0,1.323-.782Z" transform="translate(-1538.891 -468.11)" fill="#797b7d"/>
      <path id="Caminho_28482" data-name="Caminho 28482" d="M1735.61,484.482a7.915,7.915,0,0,1-2.188,5.909,9.822,9.822,0,0,1-12.285,0,9.081,9.081,0,0,1,.015-11.841,9.822,9.822,0,0,1,12.285.015A7.966,7.966,0,0,1,1735.61,484.482Zm-6,3.7a3.967,3.967,0,0,0,.714-1.4,8.521,8.521,0,0,0,.24-2.271,9.016,9.016,0,0,0-.24-2.248,4.07,4.07,0,0,0-.677-1.451,2.347,2.347,0,0,0-1.045-.782,3.75,3.75,0,0,0-1.316-.233,3.8,3.8,0,0,0-1.255.188,2.526,2.526,0,0,0-1.053.759,3.9,3.9,0,0,0-.714,1.451,8.39,8.39,0,0,0-.263,2.316,8.693,8.693,0,0,0,.233,2.158,3.794,3.794,0,0,0,.677,1.466,2.551,2.551,0,0,0,1.037.774,3.85,3.85,0,0,0,2.639.015,2.331,2.331,0,0,0,1.022-.752Z" transform="translate(-1545.015 -470.167)" fill="#797b7d"/>
      <path id="Caminho_28483" data-name="Caminho 28483" d="M1547.814,549.544h-4.887v-1.586a11.07,11.07,0,0,1-2.353,1.519,6.18,6.18,0,0,1-2.526.489,5.326,5.326,0,0,1-4.436-2.143,9.144,9.144,0,0,1-1.661-5.766,9.714,9.714,0,0,1,.564-3.436,7.916,7.916,0,0,1,1.534-2.564,6.345,6.345,0,0,1,2.233-1.579,6.6,6.6,0,0,1,2.624-.564,7.36,7.36,0,0,1,2.24.293,14.532,14.532,0,0,1,1.789.737V528.47h4.887v21.074Zm-4.887-4.188v-7.473a5.14,5.14,0,0,0-1.083-.316,6.664,6.664,0,0,0-1.037-.1,3.456,3.456,0,0,0-2.88,1.2,5.2,5.2,0,0,0-.962,3.331,5.435,5.435,0,0,0,.767,3.248,2.9,2.9,0,0,0,2.474,1.007,4.438,4.438,0,0,0,1.406-.248,4.65,4.65,0,0,0,1.308-.662Z" transform="translate(-1498.607 -483.09)" fill="#797b7d"/>
      <path id="Caminho_28484" data-name="Caminho 28484" d="M1573.781,544.619h-11.157a3.526,3.526,0,0,0,1.361,2.737,6.062,6.062,0,0,0,3.691.947,8.314,8.314,0,0,0,2.992-.556,9.406,9.406,0,0,0,2.286-1.188h.541v3.917a18.629,18.629,0,0,1-3.113.962,16.473,16.473,0,0,1-3.233.3q-4.579,0-7.015-2.06a7.252,7.252,0,0,1-2.436-5.864,7.787,7.787,0,0,1,2.308-5.962,8.8,8.8,0,0,1,6.33-2.2,7.539,7.539,0,0,1,5.579,1.88,7.327,7.327,0,0,1,1.872,5.4v1.707Zm-4.849-2.857a3.4,3.4,0,0,0-.759-2.3,2.935,2.935,0,0,0-2.233-.774,3.557,3.557,0,0,0-2.316.729,3.15,3.15,0,0,0-1.015,2.346h6.323Z" transform="translate(-1504.997 -484.872)" fill="#797b7d"/>
      <path id="Caminho_28485" data-name="Caminho 28485" d="M1611.468,549.829H1598.01V546.31h4.255V535.657h-4.255v-3.293a15.087,15.087,0,0,0,1.872-.113,4.965,4.965,0,0,0,1.489-.4,2.591,2.591,0,0,0,1.06-.88,2.819,2.819,0,0,0,.406-1.353h4.481v16.7h4.158v3.518Z" transform="translate(-1515.001 -483.375)" fill="#797b7d"/>
      <path id="Caminho_28486" data-name="Caminho 28486" d="M1637.808,538.488a16.579,16.579,0,0,1-.647,4.714,9.424,9.424,0,0,1-1.977,3.669,8.925,8.925,0,0,1-3.563,2.421,14.031,14.031,0,0,1-4.955.8,20.413,20.413,0,0,1-2.165-.12,12.667,12.667,0,0,1-1.534-.218v-3.97h.541a7.128,7.128,0,0,0,3.21.624,8.35,8.35,0,0,0,2.075-.263,4.643,4.643,0,0,0,1.744-.834,4.974,4.974,0,0,0,1.316-1.526,6.178,6.178,0,0,0,.692-2.2,13.445,13.445,0,0,1-2.188,1.038,7.551,7.551,0,0,1-2.511.361,8.234,8.234,0,0,1-2.173-.278,6.084,6.084,0,0,1-1.887-.865,5.779,5.779,0,0,1-1.8-2.105,7.245,7.245,0,0,1-.669-3.3,6.791,6.791,0,0,1,2.255-5.278,8.467,8.467,0,0,1,5.909-2.037,10.323,10.323,0,0,1,3.338.5,6.707,6.707,0,0,1,2.511,1.511,7.258,7.258,0,0,1,1.857,2.97,13.567,13.567,0,0,1,.624,4.391Zm-5.188-.752a9.8,9.8,0,0,0-.316-2.722,4.007,4.007,0,0,0-.872-1.646,2.324,2.324,0,0,0-.91-.624,3.094,3.094,0,0,0-1.083-.188,2.815,2.815,0,0,0-1.007.18,2.542,2.542,0,0,0-.925.632,3.189,3.189,0,0,0-.684,1.143,4.885,4.885,0,0,0-.263,1.684,3.9,3.9,0,0,0,.286,1.594,2.515,2.515,0,0,0,.782,1.022,2.9,2.9,0,0,0,1.12.519,6.11,6.11,0,0,0,2.729-.008,7.369,7.369,0,0,0,1.113-.316,3.345,3.345,0,0,1,.023-.429q.022-.282.022-.835Z" transform="translate(-1520.786 -483.251)" fill="#797b7d"/>
      <path id="Caminho_28487" data-name="Caminho 28487" d="M1664.657,545.2h-2.752v4.7h-4.969v-4.7h-9.766v-3.819l9.435-11.7h5.293v11.834h2.752V545.2Zm-7.721-3.684v-7.3l-5.872,7.3Z" transform="translate(-1527.201 -483.39)" fill="#797b7d"/>
      <path id="Caminho_28488" data-name="Caminho 28488" d="M1690.8,542.856a7.456,7.456,0,0,1-.571,2.925,6.352,6.352,0,0,1-1.594,2.3,7.586,7.586,0,0,1-2.541,1.534,9.794,9.794,0,0,1-3.376.526,10.429,10.429,0,0,1-3.308-.5,6.745,6.745,0,0,1-2.564-1.511,7.446,7.446,0,0,1-1.88-3.007,13.354,13.354,0,0,1-.654-4.4,16.973,16.973,0,0,1,.609-4.714,9.515,9.515,0,0,1,1.992-3.639,8.779,8.779,0,0,1,3.443-2.353,13.606,13.606,0,0,1,5.045-.842,18.991,18.991,0,0,1,2.165.135q1.173.135,1.534.2v3.97h-.511a7.082,7.082,0,0,0-1.241-.4,7.923,7.923,0,0,0-1.985-.226,5.916,5.916,0,0,0-4.045,1.271,5.437,5.437,0,0,0-1.744,3.549,11.024,11.024,0,0,1,2.2-1.008,7.893,7.893,0,0,1,2.5-.383,8.467,8.467,0,0,1,2.188.271,6.015,6.015,0,0,1,1.88.865,5.709,5.709,0,0,1,1.8,2.113,7.274,7.274,0,0,1,.677,3.316Zm-6.165,3.045a3.543,3.543,0,0,0,.669-1.09,4.808,4.808,0,0,0,.248-1.714,3.968,3.968,0,0,0-.286-1.616,2.516,2.516,0,0,0-.782-1.007,2.686,2.686,0,0,0-1.15-.519,6.307,6.307,0,0,0-1.368-.143,6.145,6.145,0,0,0-1.248.135,7.694,7.694,0,0,0-1.188.338c0,.09,0,.241-.015.444s-.015.466-.015.782a9.631,9.631,0,0,0,.331,2.744,4,4,0,0,0,.887,1.646,2.281,2.281,0,0,0,.895.617,3.176,3.176,0,0,0,1.113.2,2.883,2.883,0,0,0,.992-.2,2.339,2.339,0,0,0,.917-.609Z" transform="translate(-1533.937 -483.266)" fill="#797b7d"/>
    </g>
    <g id="Grupo_3869" data-name="Grupo 3869" transform="translate(991.269 930.295)">
      <path id="Caminho_28489" data-name="Caminho 28489" d="M1141.383,306.508a12.512,12.512,0,0,1-4.15-.662,8.8,8.8,0,0,1-3.27-1.977,8.894,8.894,0,0,1-2.12-3.278,13.812,13.812,0,0,1-.038-8.879,9.268,9.268,0,0,1,2.083-3.346,8.727,8.727,0,0,1,3.255-2.068,11.944,11.944,0,0,1,4.248-.729,16.217,16.217,0,0,1,2.293.143,15.511,15.511,0,0,1,1.887.376,13.1,13.1,0,0,1,1.646.579c.489.211.925.406,1.293.586v4.887h-.594c-.256-.218-.571-.474-.955-.767a14.1,14.1,0,0,0-1.308-.88,9.205,9.205,0,0,0-1.609-.729,5.723,5.723,0,0,0-1.857-.293,6.176,6.176,0,0,0-2.083.346,5.1,5.1,0,0,0-1.827,1.143,5.619,5.619,0,0,0-1.293,2.037,9.735,9.735,0,0,0,.038,6.248,5.463,5.463,0,0,0,1.346,2,4.892,4.892,0,0,0,1.842,1.06,6.73,6.73,0,0,0,2.007.316,6.094,6.094,0,0,0,1.88-.286,7.359,7.359,0,0,0,1.714-.767,12.617,12.617,0,0,0,1.233-.835c.376-.293.692-.549.932-.767h.541v4.819c-.5.226-.992.436-1.451.639a11.76,11.76,0,0,1-1.451.511c-.662.188-1.278.331-1.857.436a14.175,14.175,0,0,1-2.383.15Z" transform="translate(-1131.09 -284.209)" fill="#f7b000"/>
      <path id="Caminho_28490" data-name="Caminho 28490" d="M1174.17,300.122a7.915,7.915,0,0,1-2.188,5.909,9.822,9.822,0,0,1-12.285,0,9.081,9.081,0,0,1,.015-11.841,9.822,9.822,0,0,1,12.285.015A7.966,7.966,0,0,1,1174.17,300.122Zm-6,3.7a3.965,3.965,0,0,0,.714-1.4,8.515,8.515,0,0,0,.241-2.271,9.01,9.01,0,0,0-.241-2.248,4.069,4.069,0,0,0-.677-1.451,2.348,2.348,0,0,0-1.045-.782,3.751,3.751,0,0,0-1.316-.233,3.8,3.8,0,0,0-1.256.188,2.526,2.526,0,0,0-1.052.759,3.905,3.905,0,0,0-.714,1.451,8.39,8.39,0,0,0-.263,2.316,8.693,8.693,0,0,0,.233,2.158,3.794,3.794,0,0,0,.677,1.466,2.552,2.552,0,0,0,1.038.774,3.85,3.85,0,0,0,2.639.015,2.331,2.331,0,0,0,1.022-.752Z" transform="translate(-1137.647 -285.815)" fill="#f7b000"/>
      <path id="Caminho_28491" data-name="Caminho 28491" d="M1199.59,307.743H1194.7V300.2a16.573,16.573,0,0,0-.1-1.834,3.845,3.845,0,0,0-.323-1.346,1.619,1.619,0,0,0-.789-.729,3.756,3.756,0,0,0-1.458-.233,4.457,4.457,0,0,0-1.346.218,7.127,7.127,0,0,0-1.481.692V307.75h-4.887V292.541h4.887v1.677a12.426,12.426,0,0,1,2.5-1.556,6.368,6.368,0,0,1,2.654-.541,5.115,5.115,0,0,1,3.849,1.436,5.955,5.955,0,0,1,1.383,4.293v9.9Z" transform="translate(-1144.3 -285.835)" fill="#f7b000"/>
      <path id="Caminho_28492" data-name="Caminho 28492" d="M1223.472,302.926a4.411,4.411,0,0,1-2.113,3.8,10.12,10.12,0,0,1-5.781,1.444,16.822,16.822,0,0,1-3.684-.376,13.539,13.539,0,0,1-2.654-.842v-4.007h.444c.24.173.526.361.849.564a8.626,8.626,0,0,0,1.361.654,10.843,10.843,0,0,0,1.722.534,9.057,9.057,0,0,0,2.06.226,5.426,5.426,0,0,0,2.128-.316,1.015,1.015,0,0,0,.692-.94.873.873,0,0,0-.406-.8,5.214,5.214,0,0,0-1.541-.481c-.361-.083-.85-.173-1.466-.263a14.723,14.723,0,0,1-1.684-.346,6,6,0,0,1-3.075-1.684,4.159,4.159,0,0,1-1-2.849,4.317,4.317,0,0,1,2.075-3.646,9.756,9.756,0,0,1,5.684-1.459,14.985,14.985,0,0,1,3.27.346,13.286,13.286,0,0,1,2.443.737v3.849h-.421a9.837,9.837,0,0,0-2.474-1.21,8.855,8.855,0,0,0-2.812-.466,5.328,5.328,0,0,0-1.985.323c-.534.218-.8.526-.8.917a.974.974,0,0,0,.368.827,5.122,5.122,0,0,0,1.722.571q.745.147,1.6.293c.571.1,1.15.218,1.729.361a5.339,5.339,0,0,1,2.842,1.579,4.028,4.028,0,0,1,.917,2.692Z" transform="translate(-1150.485 -285.837)" fill="#f7b000"/>
      <path id="Caminho_28493" data-name="Caminho 28493" d="M1241.63,306.31a13.431,13.431,0,0,1-1.669.316,17.349,17.349,0,0,1-2.15.113,6.54,6.54,0,0,1-4.233-1.15q-1.387-1.15-1.391-3.94v-7.112h-2.007v-3.3h2.007V286.89h4.887v4.346h4.549v3.3h-4.549v5.4c0,.534,0,1,.015,1.4a2.887,2.887,0,0,0,.218,1.075,1.5,1.5,0,0,0,.669.752,2.785,2.785,0,0,0,1.4.278,3.959,3.959,0,0,0,.992-.165,3.9,3.9,0,0,0,.857-.3h.406V306.3Z" transform="translate(-1155.682 -284.537)" fill="#f7b000"/>
      <path id="Caminho_28494" data-name="Caminho 28494" d="M1254.258,288.569H1249.1v-3.7h5.158Zm-.135,17.375h-4.887V290.734h4.887Z" transform="translate(-1160.377 -284.035)" fill="#f7b000"/>
      <path id="Caminho_28495" data-name="Caminho 28495" d="M1271.04,306.31a13.435,13.435,0,0,1-1.669.316,17.351,17.351,0,0,1-2.15.113,6.54,6.54,0,0,1-4.233-1.15q-1.387-1.15-1.391-3.94v-7.112h-2.007v-3.3h2.007V286.89h4.887v4.346h4.549v3.3h-4.549v5.4c0,.534,0,1,.015,1.4a2.887,2.887,0,0,0,.218,1.075,1.5,1.5,0,0,0,.669.752,2.785,2.785,0,0,0,1.4.278,3.959,3.959,0,0,0,.992-.165,3.9,3.9,0,0,0,.857-.3h.406V306.3Z" transform="translate(-1162.981 -284.537)" fill="#f7b000"/>
      <path id="Caminho_28496" data-name="Caminho 28496" d="M1293.81,307.877h-4.887V306.2a14.565,14.565,0,0,1-2.474,1.564,6.225,6.225,0,0,1-2.677.534,5.03,5.03,0,0,1-3.872-1.451,6.015,6.015,0,0,1-1.361-4.278v-9.9h4.887v7.541c0,.767.023,1.406.075,1.917a3.355,3.355,0,0,0,.346,1.263,1.541,1.541,0,0,0,.782.729,3.755,3.755,0,0,0,1.458.233,4.71,4.71,0,0,0,1.383-.233,5.854,5.854,0,0,0,1.466-.677V292.66h4.887v15.209Z" transform="translate(-1167.683 -285.969)" fill="#f7b000"/>
      <path id="Caminho_28497" data-name="Caminho 28497" d="M1309.948,288.569h-5.157v-3.7h5.157Zm-.135,17.375h-4.887V290.734h4.887Z" transform="translate(-1174.198 -284.035)" fill="#f7b000"/>
      <path id="Caminho_28498" data-name="Caminho 28498" d="M1324.736,308.116a12.7,12.7,0,0,1-3.488-.541,7.83,7.83,0,0,1-2.744-1.474,6.661,6.661,0,0,1-1.774-2.443,8.53,8.53,0,0,1-.639-3.443,8.727,8.727,0,0,1,.714-3.669,6.892,6.892,0,0,1,1.985-2.556,7.991,7.991,0,0,1,2.842-1.406,12.345,12.345,0,0,1,3.346-.444,11.527,11.527,0,0,1,2.872.338,13.477,13.477,0,0,1,2.451.88v4.158h-.692c-.188-.165-.414-.353-.684-.571a6.282,6.282,0,0,0-.977-.639,6.869,6.869,0,0,0-1.218-.5,5.562,5.562,0,0,0-1.541-.2,3.694,3.694,0,0,0-2.992,1.241,5.044,5.044,0,0,0-1.045,3.368,4.757,4.757,0,0,0,1.075,3.331,3.994,3.994,0,0,0,3.052,1.135,5.887,5.887,0,0,0,1.654-.211,5.6,5.6,0,0,0,1.225-.5,5.322,5.322,0,0,0,.812-.571c.233-.2.451-.391.647-.579h.692v4.158c-.323.135-.707.286-1.143.451a8.829,8.829,0,0,1-1.376.4,4.6,4.6,0,0,0,.023.526c.015.211.023.391.023.556a4.258,4.258,0,0,1-1.346,3.376,5.131,5.131,0,0,1-3.511,1.188c-.316,0-.774-.023-1.376-.075a8.536,8.536,0,0,1-1.511-.248v-2.722h.308a6.091,6.091,0,0,0,.947.308,4.853,4.853,0,0,0,1.188.165,2.288,2.288,0,0,0,1.646-.541,2.145,2.145,0,0,0,.564-1.616v-.632Z" transform="translate(-1177.002 -285.84)" fill="#f7b000"/>
      <path id="Caminho_28499" data-name="Caminho 28499" d="M1348.113,304.059c-.263.2-.586.436-.977.722a6.343,6.343,0,0,1-1.1.662,7.022,7.022,0,0,1-1.489.481,8.406,8.406,0,0,1-1.692.158,5.174,5.174,0,0,1-3.631-1.338,4.441,4.441,0,0,1-1.466-3.428,4.62,4.62,0,0,1,.744-2.722,5.052,5.052,0,0,1,2.113-1.669,11.993,11.993,0,0,1,3.361-.865q2.007-.259,4.157-.376V295.6a1.745,1.745,0,0,0-1.03-1.737,7.386,7.386,0,0,0-3.03-.481,8.6,8.6,0,0,0-2.571.429q-1.365.429-1.962.654h-.444V290.8c.511-.135,1.353-.293,2.511-.481a21.755,21.755,0,0,1,3.489-.278q4.161,0,6.007,1.278a4.541,4.541,0,0,1,1.849,4.015v10.345h-4.834v-1.609Zm3.586-20.3a5.5,5.5,0,0,1-1.12,3.391,3.482,3.482,0,0,1-2.744,1.105,3.033,3.033,0,0,1-1.21-.248,9.166,9.166,0,0,1-1.052-.534q-.417-.259-.925-.519a1.99,1.99,0,0,0-.85-.263.9.9,0,0,0-.887.436,2.933,2.933,0,0,0-.263,1.218h-2.962a5.153,5.153,0,0,1,1.128-3.263,3.412,3.412,0,0,1,2.714-1.218,3.245,3.245,0,0,1,1.233.241,8.29,8.29,0,0,1,1.068.519c.331.18.647.353.932.511a1.688,1.688,0,0,0,.8.241.93.93,0,0,0,.895-.436,2.49,2.49,0,0,0,.271-1.165h2.962Zm-3.586,17.931v-3.158q-.992.079-2.143.226a9.743,9.743,0,0,0-1.744.331,2.414,2.414,0,0,0-1.12.669,1.694,1.694,0,0,0-.383,1.158,3.016,3.016,0,0,0,.083.767,1.143,1.143,0,0,0,.406.564,1.974,1.974,0,0,0,.744.4,5.282,5.282,0,0,0,1.353.128,4.026,4.026,0,0,0,1.481-.293,4.631,4.631,0,0,0,1.323-.782Z" transform="translate(-1182.38 -283.76)" fill="#f7b000"/>
      <path id="Caminho_28500" data-name="Caminho 28500" d="M1379.1,300.122a7.915,7.915,0,0,1-2.188,5.909,9.822,9.822,0,0,1-12.285,0,9.081,9.081,0,0,1,.015-11.841,9.822,9.822,0,0,1,12.285.015,7.966,7.966,0,0,1,2.173,5.917Zm-6,3.7a3.967,3.967,0,0,0,.714-1.4,8.52,8.52,0,0,0,.241-2.271,9.016,9.016,0,0,0-.241-2.248,4.071,4.071,0,0,0-.677-1.451,2.348,2.348,0,0,0-1.045-.782,3.751,3.751,0,0,0-1.316-.233,3.8,3.8,0,0,0-1.256.188,2.527,2.527,0,0,0-1.053.759,3.9,3.9,0,0,0-.714,1.451,8.385,8.385,0,0,0-.263,2.316,8.693,8.693,0,0,0,.233,2.158,3.794,3.794,0,0,0,.677,1.466,2.551,2.551,0,0,0,1.037.774,3.85,3.85,0,0,0,2.639.015,2.329,2.329,0,0,0,1.022-.752Z" transform="translate(-1188.505 -285.815)" fill="#f7b000"/>
      <path id="Caminho_28501" data-name="Caminho 28501" d="M1191.3,365.194h-4.887v-1.586a11.071,11.071,0,0,1-2.353,1.519,6.18,6.18,0,0,1-2.526.489,5.326,5.326,0,0,1-4.436-2.143,9.144,9.144,0,0,1-1.661-5.767,9.712,9.712,0,0,1,.564-3.436,7.92,7.92,0,0,1,1.534-2.564,6.346,6.346,0,0,1,2.233-1.579,6.6,6.6,0,0,1,2.624-.564,7.361,7.361,0,0,1,2.24.293,14.538,14.538,0,0,1,1.789.737V344.12h4.887v21.074Zm-4.887-4.188v-7.473a5.144,5.144,0,0,0-1.083-.316,6.672,6.672,0,0,0-1.037-.1,3.456,3.456,0,0,0-2.88,1.2,5.2,5.2,0,0,0-.962,3.331,5.436,5.436,0,0,0,.767,3.248,2.9,2.9,0,0,0,2.474,1.007,4.44,4.44,0,0,0,1.406-.248,4.648,4.648,0,0,0,1.308-.662Z" transform="translate(-1142.097 -298.74)" fill="#f7b000"/>
      <path id="Caminho_28502" data-name="Caminho 28502" d="M1217.281,360.269h-11.157a3.525,3.525,0,0,0,1.361,2.737,6.062,6.062,0,0,0,3.691.947,8.314,8.314,0,0,0,2.992-.556,9.407,9.407,0,0,0,2.286-1.188H1217v3.917a18.622,18.622,0,0,1-3.113.962,16.474,16.474,0,0,1-3.233.3q-4.579,0-7.014-2.06a7.252,7.252,0,0,1-2.436-5.864,7.788,7.788,0,0,1,2.308-5.962,8.8,8.8,0,0,1,6.331-2.2,7.539,7.539,0,0,1,5.578,1.88,7.327,7.327,0,0,1,1.872,5.4v1.707Zm-4.849-2.857a3.4,3.4,0,0,0-.759-2.3,2.935,2.935,0,0,0-2.233-.774,3.557,3.557,0,0,0-2.316.729,3.15,3.15,0,0,0-1.015,2.346Z" transform="translate(-1148.49 -300.522)" fill="#f7b000"/>
      <path id="Caminho_28503" data-name="Caminho 28503" d="M1254.958,365.479H1241.5v-3.519h4.255V351.307H1241.5v-3.293a15.087,15.087,0,0,0,1.872-.113,4.962,4.962,0,0,0,1.489-.4,2.59,2.59,0,0,0,1.06-.88,2.819,2.819,0,0,0,.406-1.353h4.481v16.7h4.158v3.519Z" transform="translate(-1158.491 -299.025)" fill="#f7b000"/>
      <path id="Caminho_28504" data-name="Caminho 28504" d="M1281.3,354.128a16.579,16.579,0,0,1-.647,4.714,9.424,9.424,0,0,1-1.977,3.669,8.924,8.924,0,0,1-3.564,2.421,14.03,14.03,0,0,1-4.954.8,20.413,20.413,0,0,1-2.165-.12,12.659,12.659,0,0,1-1.534-.218v-3.97H1267a7.128,7.128,0,0,0,3.21.624,8.352,8.352,0,0,0,2.075-.263,4.646,4.646,0,0,0,1.744-.835,4.975,4.975,0,0,0,1.316-1.526,6.178,6.178,0,0,0,.692-2.2,13.45,13.45,0,0,1-2.188,1.038,7.552,7.552,0,0,1-2.511.361,8.235,8.235,0,0,1-2.173-.278,6.085,6.085,0,0,1-1.887-.865,5.779,5.779,0,0,1-1.8-2.105,7.244,7.244,0,0,1-.669-3.3,6.791,6.791,0,0,1,2.255-5.278,8.466,8.466,0,0,1,5.909-2.037,10.324,10.324,0,0,1,3.338.5,6.707,6.707,0,0,1,2.511,1.511,7.257,7.257,0,0,1,1.857,2.97,13.571,13.571,0,0,1,.624,4.391Zm-5.188-.752a9.793,9.793,0,0,0-.316-2.722,4.006,4.006,0,0,0-.872-1.647,2.324,2.324,0,0,0-.91-.624,3.094,3.094,0,0,0-1.083-.188,2.817,2.817,0,0,0-1.007.18,2.543,2.543,0,0,0-.925.632,3.189,3.189,0,0,0-.684,1.143,4.889,4.889,0,0,0-.263,1.684,3.9,3.9,0,0,0,.286,1.594,2.514,2.514,0,0,0,.782,1.022,2.9,2.9,0,0,0,1.12.519,6.11,6.11,0,0,0,2.729-.008,7.36,7.36,0,0,0,1.113-.316,3.364,3.364,0,0,1,.023-.429q.023-.282.023-.835Z" transform="translate(-1164.276 -298.899)" fill="#f7b000"/>
      <path id="Caminho_28505" data-name="Caminho 28505" d="M1306.135,355.89a4.324,4.324,0,0,1,1.06,1.331,4.389,4.389,0,0,1,.391,2.015,6.3,6.3,0,0,1-.564,2.654,5.464,5.464,0,0,1-1.729,2.113,8.231,8.231,0,0,1-2.677,1.308,13.386,13.386,0,0,1-3.729.451,20.317,20.317,0,0,1-4.3-.391,16.533,16.533,0,0,1-2.917-.88v-4.428h.526a12.939,12.939,0,0,0,2.782,1.218,9.738,9.738,0,0,0,2.962.511,12.878,12.878,0,0,0,1.707-.128,3.493,3.493,0,0,0,1.556-.564,2.329,2.329,0,0,0,1.1-2.21,2.015,2.015,0,0,0-.406-1.361,2.177,2.177,0,0,0-1.068-.684,5.693,5.693,0,0,0-1.594-.241q-.936-.023-1.737-.023h-1.113v-3.6h1.15q1.06,0,1.872-.068a4.643,4.643,0,0,0,1.383-.308,2.061,2.061,0,0,0,.895-.684,2.208,2.208,0,0,0,.3-1.256,1.512,1.512,0,0,0-.308-.985,2.187,2.187,0,0,0-.782-.586,3.938,3.938,0,0,0-1.248-.323,11.638,11.638,0,0,0-1.233-.083,10.034,10.034,0,0,0-2.759.436,12.866,12.866,0,0,0-2.887,1.263h-.5V346.01a18.381,18.381,0,0,1,3.022-.857,18.611,18.611,0,0,1,3.872-.413,14.929,14.929,0,0,1,3.345.331,8.3,8.3,0,0,1,2.368.887,4.539,4.539,0,0,1,1.654,1.609,4.407,4.407,0,0,1,.541,2.218,4.687,4.687,0,0,1-1.045,3,4.59,4.59,0,0,1-2.752,1.684v.188a7.019,7.019,0,0,1,1.466.376,4.5,4.5,0,0,1,1.406.827Z" transform="translate(-1170.942 -298.894)" fill="#f7b000"/>
      <path id="Caminho_28506" data-name="Caminho 28506" d="M1333.993,349.337l-9.127,16.157h-5.8l9.473-16.307H1318.19V345.33h15.8Z" transform="translate(-1177.524 -299.04)" fill="#f7b000"/>
    </g>
    <g id="Grupo_3870" data-name="Grupo 3870" transform="translate(453.165 930.295)">
      <path id="Caminho_28507" data-name="Caminho 28507" d="M425.652,306.508a12.512,12.512,0,0,1-4.15-.662,8.8,8.8,0,0,1-3.27-1.977,8.894,8.894,0,0,1-2.12-3.278,13.812,13.812,0,0,1-.038-8.879,9.268,9.268,0,0,1,2.083-3.346,8.726,8.726,0,0,1,3.255-2.068,11.944,11.944,0,0,1,4.248-.729,16.217,16.217,0,0,1,2.293.143,15.513,15.513,0,0,1,1.887.376,13.109,13.109,0,0,1,1.647.579c.489.211.925.406,1.293.586v4.887h-.594c-.256-.218-.571-.474-.955-.767a14.1,14.1,0,0,0-1.308-.88,9.206,9.206,0,0,0-1.609-.729,5.723,5.723,0,0,0-1.857-.293,6.176,6.176,0,0,0-2.083.346,5.1,5.1,0,0,0-1.827,1.143A5.618,5.618,0,0,0,421.254,293a9.735,9.735,0,0,0,.038,6.248,5.466,5.466,0,0,0,1.346,2,4.893,4.893,0,0,0,1.842,1.06,6.731,6.731,0,0,0,2.007.316,6.094,6.094,0,0,0,1.88-.286,7.36,7.36,0,0,0,1.714-.767,12.623,12.623,0,0,0,1.233-.835c.376-.293.692-.549.932-.767h.541v4.819c-.5.226-.992.436-1.451.639a11.767,11.767,0,0,1-1.451.511c-.662.188-1.278.331-1.857.436a14.174,14.174,0,0,1-2.383.15Z" transform="translate(-415.36 -284.209)" fill="#008686"/>
      <path id="Caminho_28508" data-name="Caminho 28508" d="M458.44,300.122a7.915,7.915,0,0,1-2.188,5.909,9.822,9.822,0,0,1-12.285,0,9.081,9.081,0,0,1,.015-11.841,9.822,9.822,0,0,1,12.285.015,7.966,7.966,0,0,1,2.173,5.917Zm-6,3.7a3.968,3.968,0,0,0,.714-1.4,8.517,8.517,0,0,0,.241-2.271,9.013,9.013,0,0,0-.241-2.248,4.07,4.07,0,0,0-.677-1.451,2.348,2.348,0,0,0-1.045-.782,3.751,3.751,0,0,0-1.316-.233,3.8,3.8,0,0,0-1.256.188,2.526,2.526,0,0,0-1.053.759,3.9,3.9,0,0,0-.714,1.451,8.389,8.389,0,0,0-.263,2.316,8.7,8.7,0,0,0,.233,2.158,3.794,3.794,0,0,0,.677,1.466,2.552,2.552,0,0,0,1.038.774,3.85,3.85,0,0,0,2.639.015,2.33,2.33,0,0,0,1.022-.752Z" transform="translate(-421.917 -285.815)" fill="#008686"/>
      <path id="Caminho_28509" data-name="Caminho 28509" d="M483.86,307.743h-4.887V300.2a16.565,16.565,0,0,0-.1-1.834,3.845,3.845,0,0,0-.323-1.346,1.619,1.619,0,0,0-.789-.729,3.756,3.756,0,0,0-1.459-.233,4.457,4.457,0,0,0-1.346.218,7.127,7.127,0,0,0-1.481.692V307.75H468.59V292.541h4.887v1.677a12.426,12.426,0,0,1,2.5-1.556,6.368,6.368,0,0,1,2.654-.541,5.115,5.115,0,0,1,3.849,1.436,5.955,5.955,0,0,1,1.383,4.293v9.9Z" transform="translate(-428.57 -285.835)" fill="#008686"/>
      <path id="Caminho_28510" data-name="Caminho 28510" d="M507.742,302.926a4.411,4.411,0,0,1-2.113,3.8,10.12,10.12,0,0,1-5.781,1.444,16.823,16.823,0,0,1-3.684-.376,13.538,13.538,0,0,1-2.654-.842v-4.007h.444c.241.173.526.361.85.564a8.623,8.623,0,0,0,1.361.654,10.847,10.847,0,0,0,1.722.534,9.058,9.058,0,0,0,2.06.226,5.427,5.427,0,0,0,2.128-.316,1.015,1.015,0,0,0,.692-.94.873.873,0,0,0-.406-.8,5.214,5.214,0,0,0-1.541-.481c-.361-.083-.85-.173-1.466-.263a14.717,14.717,0,0,1-1.684-.346,6,6,0,0,1-3.075-1.684,4.159,4.159,0,0,1-1-2.849,4.317,4.317,0,0,1,2.075-3.646,9.756,9.756,0,0,1,5.684-1.459,14.985,14.985,0,0,1,3.27.346,13.283,13.283,0,0,1,2.443.737v3.849h-.421a9.836,9.836,0,0,0-2.474-1.21,8.856,8.856,0,0,0-2.812-.466,5.328,5.328,0,0,0-1.985.323c-.534.218-.8.526-.8.917a.974.974,0,0,0,.368.827,5.123,5.123,0,0,0,1.722.571q.744.147,1.6.293c.571.1,1.15.218,1.729.361a5.338,5.338,0,0,1,2.842,1.579,4.028,4.028,0,0,1,.917,2.692Z" transform="translate(-434.755 -285.837)" fill="#008686"/>
      <path id="Caminho_28511" data-name="Caminho 28511" d="M525.9,306.31a13.431,13.431,0,0,1-1.669.316,17.349,17.349,0,0,1-2.15.113,6.54,6.54,0,0,1-4.233-1.15q-1.387-1.15-1.391-3.94v-7.112H514.45v-3.3h2.007V286.89h4.887v4.346h4.549v3.3h-4.549v5.4c0,.534,0,1,.015,1.4a2.885,2.885,0,0,0,.218,1.075,1.5,1.5,0,0,0,.669.752,2.784,2.784,0,0,0,1.4.278,3.959,3.959,0,0,0,.992-.165,3.9,3.9,0,0,0,.857-.3h.406V306.3Z" transform="translate(-439.952 -284.537)" fill="#008686"/>
      <path id="Caminho_28512" data-name="Caminho 28512" d="M538.538,288.569H533.38v-3.7h5.158Zm-.135,17.375h-4.887V290.734H538.4Z" transform="translate(-444.65 -284.035)" fill="#008686"/>
      <path id="Caminho_28513" data-name="Caminho 28513" d="M555.31,306.31a13.428,13.428,0,0,1-1.669.316,17.349,17.349,0,0,1-2.15.113,6.54,6.54,0,0,1-4.233-1.15q-1.387-1.15-1.391-3.94v-7.112H543.86v-3.3h2.007V286.89h4.887v4.346H555.3v3.3h-4.549v5.4c0,.534,0,1,.015,1.4a2.883,2.883,0,0,0,.218,1.075,1.5,1.5,0,0,0,.669.752,2.784,2.784,0,0,0,1.4.278,3.96,3.96,0,0,0,.992-.165,3.905,3.905,0,0,0,.857-.3h.406V306.3Z" transform="translate(-447.251 -284.537)" fill="#008686"/>
      <path id="Caminho_28514" data-name="Caminho 28514" d="M578.08,307.877h-4.887V306.2a14.567,14.567,0,0,1-2.473,1.564,6.225,6.225,0,0,1-2.677.534,5.03,5.03,0,0,1-3.872-1.451,6.015,6.015,0,0,1-1.361-4.278v-9.9H567.7v7.541c0,.767.023,1.406.075,1.917a3.354,3.354,0,0,0,.346,1.263,1.542,1.542,0,0,0,.782.729,3.755,3.755,0,0,0,1.458.233,4.71,4.71,0,0,0,1.383-.233,5.856,5.856,0,0,0,1.466-.677V292.66h4.887v15.209Z" transform="translate(-451.953 -285.969)" fill="#008686"/>
      <path id="Caminho_28515" data-name="Caminho 28515" d="M594.228,288.569H589.07v-3.7h5.158Zm-.135,17.375h-4.887V290.734h4.887Z" transform="translate(-458.471 -284.035)" fill="#008686"/>
      <path id="Caminho_28516" data-name="Caminho 28516" d="M609.016,308.116a12.7,12.7,0,0,1-3.489-.541,7.83,7.83,0,0,1-2.744-1.474,6.662,6.662,0,0,1-1.774-2.443,8.528,8.528,0,0,1-.639-3.443,8.727,8.727,0,0,1,.714-3.669,6.892,6.892,0,0,1,1.985-2.556,7.992,7.992,0,0,1,2.842-1.406,12.344,12.344,0,0,1,3.346-.444,11.529,11.529,0,0,1,2.872.338,13.48,13.48,0,0,1,2.451.88v4.158h-.692c-.188-.165-.414-.353-.684-.571a6.29,6.29,0,0,0-.977-.639,6.868,6.868,0,0,0-1.218-.5,5.564,5.564,0,0,0-1.541-.2,3.694,3.694,0,0,0-2.992,1.241,5.044,5.044,0,0,0-1.045,3.368,4.756,4.756,0,0,0,1.075,3.331,3.993,3.993,0,0,0,3.052,1.135,5.887,5.887,0,0,0,1.654-.211,5.592,5.592,0,0,0,1.225-.5,5.329,5.329,0,0,0,.812-.571c.233-.2.451-.391.647-.579h.692v4.158c-.323.135-.707.286-1.143.451a8.829,8.829,0,0,1-1.376.4,4.6,4.6,0,0,0,.023.526c.015.211.023.391.023.556a4.259,4.259,0,0,1-1.346,3.376,5.131,5.131,0,0,1-3.511,1.188c-.316,0-.774-.023-1.376-.075a8.536,8.536,0,0,1-1.511-.248v-2.722h.308a6.091,6.091,0,0,0,.947.308,4.854,4.854,0,0,0,1.188.165,2.288,2.288,0,0,0,1.647-.541,2.145,2.145,0,0,0,.564-1.616v-.632Z" transform="translate(-461.275 -285.84)" fill="#008686"/>
      <path id="Caminho_28517" data-name="Caminho 28517" d="M632.383,304.059c-.263.2-.586.436-.977.722a6.344,6.344,0,0,1-1.1.662,7.021,7.021,0,0,1-1.489.481,8.4,8.4,0,0,1-1.692.158,5.174,5.174,0,0,1-3.631-1.338,4.441,4.441,0,0,1-1.466-3.428,4.62,4.62,0,0,1,.744-2.722,5.051,5.051,0,0,1,2.113-1.669,11.993,11.993,0,0,1,3.361-.865c1.338-.173,2.722-.3,4.158-.376V295.6a1.745,1.745,0,0,0-1.03-1.737,7.385,7.385,0,0,0-3.03-.481,8.6,8.6,0,0,0-2.571.429q-1.365.429-1.962.654h-.444V290.8c.511-.135,1.353-.293,2.511-.481a21.754,21.754,0,0,1,3.488-.278q4.161,0,6.007,1.278a4.541,4.541,0,0,1,1.849,4.015v10.345H632.39v-1.609Zm3.586-20.3a5.5,5.5,0,0,1-1.12,3.391,3.482,3.482,0,0,1-2.744,1.105,3.033,3.033,0,0,1-1.21-.248,9.157,9.157,0,0,1-1.053-.534q-.417-.259-.925-.519a1.99,1.99,0,0,0-.85-.263.9.9,0,0,0-.887.436,2.932,2.932,0,0,0-.263,1.218h-2.962a5.154,5.154,0,0,1,1.128-3.263,3.412,3.412,0,0,1,2.714-1.218,3.246,3.246,0,0,1,1.233.241,8.294,8.294,0,0,1,1.068.519c.331.18.647.353.932.511a1.688,1.688,0,0,0,.8.241.93.93,0,0,0,.895-.436,2.491,2.491,0,0,0,.271-1.165h2.962Zm-3.586,17.931v-3.158q-.992.079-2.143.226a9.745,9.745,0,0,0-1.744.331,2.415,2.415,0,0,0-1.12.669,1.694,1.694,0,0,0-.383,1.158,3.016,3.016,0,0,0,.083.767,1.144,1.144,0,0,0,.406.564,1.974,1.974,0,0,0,.744.4,5.281,5.281,0,0,0,1.353.128,4.026,4.026,0,0,0,1.481-.293,4.628,4.628,0,0,0,1.323-.782Z" transform="translate(-466.65 -283.76)" fill="#008686"/>
      <path id="Caminho_28518" data-name="Caminho 28518" d="M663.37,300.122a7.915,7.915,0,0,1-2.188,5.909,9.822,9.822,0,0,1-12.285,0,9.081,9.081,0,0,1,.015-11.841,9.822,9.822,0,0,1,12.285.015,7.966,7.966,0,0,1,2.173,5.917Zm-6,3.7a3.969,3.969,0,0,0,.714-1.4,8.517,8.517,0,0,0,.241-2.271,9.013,9.013,0,0,0-.241-2.248,4.069,4.069,0,0,0-.677-1.451,2.348,2.348,0,0,0-1.045-.782,3.751,3.751,0,0,0-1.316-.233,3.8,3.8,0,0,0-1.255.188,2.527,2.527,0,0,0-1.053.759,3.9,3.9,0,0,0-.714,1.451,8.39,8.39,0,0,0-.263,2.316A8.7,8.7,0,0,0,652,302.31a3.794,3.794,0,0,0,.677,1.466,2.552,2.552,0,0,0,1.038.774,3.85,3.85,0,0,0,2.639.015,2.33,2.33,0,0,0,1.022-.752Z" transform="translate(-472.775 -285.815)" fill="#008686"/>
      <path id="Caminho_28519" data-name="Caminho 28519" d="M475.583,365.194H470.7v-1.586a11.071,11.071,0,0,1-2.353,1.519,6.18,6.18,0,0,1-2.526.489,5.326,5.326,0,0,1-4.436-2.143,9.144,9.144,0,0,1-1.661-5.767,9.713,9.713,0,0,1,.564-3.436,7.916,7.916,0,0,1,1.534-2.564,6.346,6.346,0,0,1,2.233-1.579,6.6,6.6,0,0,1,2.624-.564,7.361,7.361,0,0,1,2.24.293,14.543,14.543,0,0,1,1.789.737V344.12h4.887v21.074Zm-4.887-4.188v-7.473a5.142,5.142,0,0,0-1.083-.316,6.672,6.672,0,0,0-1.038-.1,3.456,3.456,0,0,0-2.879,1.2,5.2,5.2,0,0,0-.962,3.331,5.436,5.436,0,0,0,.767,3.248,2.9,2.9,0,0,0,2.474,1.007,4.44,4.44,0,0,0,1.406-.248,4.649,4.649,0,0,0,1.308-.662Z" transform="translate(-426.369 -298.74)" fill="#008686"/>
      <path id="Caminho_28520" data-name="Caminho 28520" d="M501.552,360.269H490.394a3.526,3.526,0,0,0,1.361,2.737,6.062,6.062,0,0,0,3.691.947,8.314,8.314,0,0,0,2.992-.556,9.408,9.408,0,0,0,2.286-1.188h.541v3.917a18.628,18.628,0,0,1-3.113.962,16.475,16.475,0,0,1-3.233.3q-4.579,0-7.015-2.06a7.252,7.252,0,0,1-2.436-5.864,7.787,7.787,0,0,1,2.308-5.962,8.8,8.8,0,0,1,6.33-2.2,7.539,7.539,0,0,1,5.579,1.88,7.327,7.327,0,0,1,1.872,5.4v1.707Zm-4.849-2.857a3.4,3.4,0,0,0-.759-2.3,2.935,2.935,0,0,0-2.233-.774,3.557,3.557,0,0,0-2.316.729,3.15,3.15,0,0,0-1.015,2.346Z" transform="translate(-432.76 -300.522)" fill="#008686"/>
      <path id="Caminho_28521" data-name="Caminho 28521" d="M539.238,365.479H525.78v-3.519h4.255V351.307H525.78v-3.293a15.085,15.085,0,0,0,1.872-.113,4.963,4.963,0,0,0,1.489-.4,2.589,2.589,0,0,0,1.06-.88,2.818,2.818,0,0,0,.406-1.353h4.481v16.7h4.158v3.519Z" transform="translate(-442.763 -299.025)" fill="#008686"/>
      <path id="Caminho_28522" data-name="Caminho 28522" d="M566.024,359.7a5.251,5.251,0,0,1-2.286,4.391,10.222,10.222,0,0,1-6.263,1.707,13.952,13.952,0,0,1-3.834-.459A7.707,7.707,0,0,1,551,364.069a5.083,5.083,0,0,1-1.526-1.872,5.407,5.407,0,0,1-.5-2.3,4.337,4.337,0,0,1,.887-2.692,7.121,7.121,0,0,1,3.067-2.052v-.083a6.071,6.071,0,0,1-2.586-2.045,5.021,5.021,0,0,1-.827-2.857,4.593,4.593,0,0,1,2.218-3.925,9.969,9.969,0,0,1,5.782-1.534,10.627,10.627,0,0,1,5.857,1.391,4.24,4.24,0,0,1,2.12,3.706,4,4,0,0,1-.895,2.556,6.846,6.846,0,0,1-2.737,1.91v.083a6.8,6.8,0,0,1,3.128,2.15,5.18,5.18,0,0,1,1.015,3.2Zm-5.173.233a2.037,2.037,0,0,0-.489-1.474,6.634,6.634,0,0,0-2.007-1.15c-.3-.135-.729-.3-1.3-.5s-1.045-.368-1.436-.511a6.163,6.163,0,0,0-1.053,1.278,3.153,3.153,0,0,0-.466,1.684,2.764,2.764,0,0,0,1.007,2.24,3.985,3.985,0,0,0,2.631.835,5.039,5.039,0,0,0,1.015-.128,2.933,2.933,0,0,0,1-.4,2.811,2.811,0,0,0,.782-.729,1.954,1.954,0,0,0,.3-1.135Zm-.421-9.548a1.966,1.966,0,0,0-.789-1.639,3.367,3.367,0,0,0-2.105-.609,4.162,4.162,0,0,0-.992.12,3.579,3.579,0,0,0-.925.353,1.908,1.908,0,0,0-.647.6,1.452,1.452,0,0,0-.256.85,1.683,1.683,0,0,0,.451,1.248,4.972,4.972,0,0,0,1.481.895c.256.105.594.241,1.038.4s.97.338,1.594.534a6.091,6.091,0,0,0,.895-1.316,3.4,3.4,0,0,0,.271-1.436Z" transform="translate(-448.521 -298.886)" fill="#008686"/>
      <path id="Caminho_28523" data-name="Caminho 28523" d="M591.8,354.128a16.574,16.574,0,0,1-.647,4.714,9.424,9.424,0,0,1-1.977,3.669,8.924,8.924,0,0,1-3.564,2.421,14.03,14.03,0,0,1-4.955.8,20.414,20.414,0,0,1-2.165-.12,12.663,12.663,0,0,1-1.534-.218v-3.97h.541a7.128,7.128,0,0,0,3.21.624,8.351,8.351,0,0,0,2.075-.263,4.646,4.646,0,0,0,1.744-.835,4.974,4.974,0,0,0,1.316-1.526,6.173,6.173,0,0,0,.692-2.2,13.45,13.45,0,0,1-2.188,1.038,7.551,7.551,0,0,1-2.511.361,8.236,8.236,0,0,1-2.173-.278,6.084,6.084,0,0,1-1.887-.865,5.778,5.778,0,0,1-1.8-2.105,7.242,7.242,0,0,1-.669-3.3,6.791,6.791,0,0,1,2.255-5.278,8.467,8.467,0,0,1,5.909-2.037,10.324,10.324,0,0,1,3.338.5,6.708,6.708,0,0,1,2.511,1.511,7.256,7.256,0,0,1,1.857,2.97,13.571,13.571,0,0,1,.624,4.391Zm-5.188-.752a9.8,9.8,0,0,0-.316-2.722,4.005,4.005,0,0,0-.872-1.647,2.324,2.324,0,0,0-.91-.624,3.1,3.1,0,0,0-1.083-.188,2.816,2.816,0,0,0-1.007.18,2.543,2.543,0,0,0-.925.632,3.188,3.188,0,0,0-.684,1.143,4.889,4.889,0,0,0-.263,1.684,3.9,3.9,0,0,0,.286,1.594,2.514,2.514,0,0,0,.782,1.022,2.9,2.9,0,0,0,1.12.519,6.11,6.11,0,0,0,2.729-.008,7.367,7.367,0,0,0,1.113-.316,3.364,3.364,0,0,1,.023-.429q.023-.282.023-.835Z" transform="translate(-455.056 -298.899)" fill="#008686"/>
      <path id="Caminho_28524" data-name="Caminho 28524" d="M617.908,365.479H604.45v-3.519h4.255V351.307H604.45v-3.293a15.087,15.087,0,0,0,1.872-.113,4.963,4.963,0,0,0,1.489-.4,2.588,2.588,0,0,0,1.06-.88,2.817,2.817,0,0,0,.406-1.353h4.481v16.7h4.158v3.519Z" transform="translate(-462.287 -299.025)" fill="#008686"/>
    </g>
    <g id="Grupo_3871" data-name="Grupo 3871" transform="translate(199.401 1068.894)">
      <path id="Caminho_28525" data-name="Caminho 28525" d="M88.122,490.868a12.511,12.511,0,0,1-4.15-.662,8.8,8.8,0,0,1-3.27-1.977,8.9,8.9,0,0,1-2.12-3.278,13.812,13.812,0,0,1-.038-8.879,9.372,9.372,0,0,1,2.083-3.346,8.727,8.727,0,0,1,3.255-2.068,11.944,11.944,0,0,1,4.248-.729,16.218,16.218,0,0,1,2.293.143,15.508,15.508,0,0,1,1.887.376,13.1,13.1,0,0,1,1.646.579c.489.211.925.406,1.293.586V476.5h-.594c-.256-.218-.571-.474-.955-.767a14.091,14.091,0,0,0-1.308-.88,9.208,9.208,0,0,0-1.609-.729,5.756,5.756,0,0,0-1.857-.293,6.177,6.177,0,0,0-2.083.346,5.1,5.1,0,0,0-1.827,1.143,5.618,5.618,0,0,0-1.293,2.037,9.735,9.735,0,0,0,.038,6.248,5.467,5.467,0,0,0,1.346,2,4.892,4.892,0,0,0,1.842,1.06,6.731,6.731,0,0,0,2.007.316,6.012,6.012,0,0,0,1.872-.286,7.359,7.359,0,0,0,1.714-.767,12.621,12.621,0,0,0,1.233-.835c.376-.293.692-.549.932-.767h.541v4.819c-.5.226-.985.436-1.451.639a11.76,11.76,0,0,1-1.451.511c-.662.188-1.278.331-1.857.436a15.02,15.02,0,0,1-2.383.15Z" transform="translate(-77.83 -468.562)" fill="#0b6b97"/>
      <path id="Caminho_28526" data-name="Caminho 28526" d="M120.91,484.482a7.915,7.915,0,0,1-2.188,5.909,9.821,9.821,0,0,1-12.285,0,9.081,9.081,0,0,1,.015-11.841,9.822,9.822,0,0,1,12.285.015A7.966,7.966,0,0,1,120.91,484.482Zm-6,3.7a3.968,3.968,0,0,0,.714-1.4,8.567,8.567,0,0,0,.233-2.271,9.014,9.014,0,0,0-.241-2.248,4.071,4.071,0,0,0-.677-1.451,2.348,2.348,0,0,0-1.045-.782,3.75,3.75,0,0,0-1.316-.233,3.8,3.8,0,0,0-1.256.188,2.526,2.526,0,0,0-1.053.759,3.9,3.9,0,0,0-.714,1.451,10.215,10.215,0,0,0-.03,4.473,3.793,3.793,0,0,0,.677,1.466,2.551,2.551,0,0,0,1.038.774,3.85,3.85,0,0,0,2.639.015,2.331,2.331,0,0,0,1.022-.752Z" transform="translate(-84.387 -470.167)" fill="#0b6b97"/>
      <path id="Caminho_28527" data-name="Caminho 28527" d="M146.33,492.093h-4.887v-7.541a16.561,16.561,0,0,0-.1-1.834,4.022,4.022,0,0,0-.323-1.346,1.619,1.619,0,0,0-.789-.729,3.756,3.756,0,0,0-1.459-.233,4.456,4.456,0,0,0-1.346.218,7.127,7.127,0,0,0-1.481.692V492.1H131.06V476.891h4.887v1.677a12.428,12.428,0,0,1,2.5-1.556,6.369,6.369,0,0,1,2.654-.541,5.115,5.115,0,0,1,3.849,1.436,5.955,5.955,0,0,1,1.383,4.293v9.9Z" transform="translate(-91.04 -470.185)" fill="#0b6b97"/>
      <path id="Caminho_28528" data-name="Caminho 28528" d="M170.212,487.276a4.411,4.411,0,0,1-2.113,3.8,10.12,10.12,0,0,1-5.782,1.444,16.822,16.822,0,0,1-3.684-.376,13.54,13.54,0,0,1-2.654-.842v-4.007h.444c.241.173.526.361.85.564a8.629,8.629,0,0,0,1.361.654,11.1,11.1,0,0,0,1.722.534,9.009,9.009,0,0,0,2.06.226,5.4,5.4,0,0,0,2.128-.316,1.015,1.015,0,0,0,.692-.94.873.873,0,0,0-.406-.8,5.215,5.215,0,0,0-1.541-.481c-.361-.083-.85-.173-1.466-.263a14.718,14.718,0,0,1-1.684-.346,6,6,0,0,1-3.075-1.684,4.159,4.159,0,0,1-1-2.849,4.317,4.317,0,0,1,2.075-3.646,9.756,9.756,0,0,1,5.684-1.459,14.983,14.983,0,0,1,3.27.346,13.283,13.283,0,0,1,2.443.737v3.849h-.421a9.836,9.836,0,0,0-2.473-1.21,8.856,8.856,0,0,0-2.812-.466,5.328,5.328,0,0,0-1.985.323c-.541.218-.8.526-.8.917a.974.974,0,0,0,.368.827,5.123,5.123,0,0,0,1.722.571q.744.147,1.6.293c.571.1,1.15.218,1.729.361a5.338,5.338,0,0,1,2.842,1.579,4,4,0,0,1,.925,2.692Z" transform="translate(-97.225 -470.187)" fill="#0b6b97"/>
      <path id="Caminho_28529" data-name="Caminho 28529" d="M188.37,490.66a13.7,13.7,0,0,1-1.669.316,17.349,17.349,0,0,1-2.15.113,6.54,6.54,0,0,1-4.233-1.15q-1.387-1.15-1.391-3.94v-7.112H176.92v-3.3h2.007V471.24h4.887v4.346h4.549v3.3h-4.549v5.4c0,.534,0,1,.015,1.4a2.884,2.884,0,0,0,.218,1.075,1.5,1.5,0,0,0,.669.752,2.8,2.8,0,0,0,1.4.278,3.956,3.956,0,0,0,.992-.165,4.059,4.059,0,0,0,.857-.3h.406v3.331Z" transform="translate(-102.422 -468.887)" fill="#0b6b97"/>
      <path id="Caminho_28530" data-name="Caminho 28530" d="M201.008,472.919H195.85v-3.7h5.158Zm-.135,17.375h-4.887V475.084h4.887Z" transform="translate(-107.12 -468.385)" fill="#0b6b97"/>
      <path id="Caminho_28531" data-name="Caminho 28531" d="M217.78,490.66a13.7,13.7,0,0,1-1.669.316,17.348,17.348,0,0,1-2.15.113,6.54,6.54,0,0,1-4.233-1.15q-1.387-1.15-1.391-3.94v-7.112H206.33v-3.3h2.007V471.24h4.887v4.346h4.549v3.3h-4.549v5.4c0,.534,0,1,.015,1.4a2.884,2.884,0,0,0,.218,1.075,1.5,1.5,0,0,0,.669.752,2.8,2.8,0,0,0,1.4.278,3.956,3.956,0,0,0,.992-.165,4.059,4.059,0,0,0,.857-.3h.406v3.331Z" transform="translate(-109.721 -468.887)" fill="#0b6b97"/>
      <path id="Caminho_28532" data-name="Caminho 28532" d="M240.55,492.227h-4.887V490.55a14.564,14.564,0,0,1-2.473,1.564,6.225,6.225,0,0,1-2.677.534,5.03,5.03,0,0,1-3.872-1.451,6.015,6.015,0,0,1-1.361-4.278v-9.9h4.887v7.541c0,.767.023,1.406.075,1.917a3.355,3.355,0,0,0,.346,1.263,1.542,1.542,0,0,0,.782.729,3.756,3.756,0,0,0,1.459.233,4.711,4.711,0,0,0,1.383-.233,5.69,5.69,0,0,0,1.459-.677V477.01h4.887v15.209Z" transform="translate(-114.423 -470.319)" fill="#0b6b97"/>
      <path id="Caminho_28533" data-name="Caminho 28533" d="M256.7,472.919H251.54v-3.7H256.7Zm-.135,17.375h-4.887V475.084h4.887Z" transform="translate(-120.941 -468.385)" fill="#0b6b97"/>
      <path id="Caminho_28534" data-name="Caminho 28534" d="M271.486,492.466a12.7,12.7,0,0,1-3.488-.541,7.83,7.83,0,0,1-2.744-1.474,6.579,6.579,0,0,1-1.774-2.443,9.69,9.69,0,0,1,.075-7.112,6.893,6.893,0,0,1,1.985-2.556,7.993,7.993,0,0,1,2.842-1.406,12.345,12.345,0,0,1,3.346-.444,11.527,11.527,0,0,1,2.872.338,13.684,13.684,0,0,1,2.451.88v4.158h-.692c-.188-.165-.414-.353-.684-.571a6.3,6.3,0,0,0-.977-.639,6.867,6.867,0,0,0-1.218-.5,5.564,5.564,0,0,0-1.541-.2,3.694,3.694,0,0,0-2.992,1.241,5.044,5.044,0,0,0-1.045,3.368,4.756,4.756,0,0,0,1.075,3.331,3.993,3.993,0,0,0,3.052,1.135,5.886,5.886,0,0,0,1.654-.211,5.593,5.593,0,0,0,1.225-.5,5.328,5.328,0,0,0,.812-.571c.233-.2.451-.391.647-.579h.692v4.158c-.323.135-.707.286-1.143.451a9.075,9.075,0,0,1-1.376.4,4.6,4.6,0,0,0,.023.526,4.909,4.909,0,0,1,.023.556,4.259,4.259,0,0,1-1.346,3.376,5.117,5.117,0,0,1-3.511,1.188c-.316,0-.774-.023-1.376-.075a8.545,8.545,0,0,1-1.511-.248v-2.722h.308a6.087,6.087,0,0,0,.947.308,4.852,4.852,0,0,0,1.188.165,2.288,2.288,0,0,0,1.646-.541,2.145,2.145,0,0,0,.564-1.616v-.632Z" transform="translate(-123.745 -470.19)" fill="#0b6b97"/>
      <path id="Caminho_28535" data-name="Caminho 28535" d="M294.853,488.409c-.263.2-.586.436-.977.722a6.344,6.344,0,0,1-1.1.662,7.022,7.022,0,0,1-1.489.481,8.456,8.456,0,0,1-1.692.158,5.174,5.174,0,0,1-3.631-1.338,4.441,4.441,0,0,1-1.466-3.428,4.62,4.62,0,0,1,.744-2.722,5.051,5.051,0,0,1,2.113-1.669,11.992,11.992,0,0,1,3.361-.865q2.007-.259,4.158-.376v-.083a1.745,1.745,0,0,0-1.03-1.737,7.385,7.385,0,0,0-3.03-.481,8.6,8.6,0,0,0-2.571.429q-1.365.429-1.962.654h-.444v-3.669c.511-.135,1.353-.293,2.511-.481a21.754,21.754,0,0,1,3.488-.278q4.161,0,6.007,1.278a4.541,4.541,0,0,1,1.849,4.015v10.345H294.86v-1.609Zm3.586-20.3a5.5,5.5,0,0,1-1.12,3.391,3.482,3.482,0,0,1-2.744,1.105,3.033,3.033,0,0,1-1.21-.248,9.155,9.155,0,0,1-1.053-.534q-.417-.259-.925-.519a1.99,1.99,0,0,0-.85-.263.9.9,0,0,0-.887.436,2.933,2.933,0,0,0-.263,1.218h-2.962a5.153,5.153,0,0,1,1.128-3.263,3.412,3.412,0,0,1,2.714-1.218,3.246,3.246,0,0,1,1.233.241,8.3,8.3,0,0,1,1.068.519c.331.18.647.353.932.511a1.688,1.688,0,0,0,.8.241.93.93,0,0,0,.895-.436,2.491,2.491,0,0,0,.271-1.165h2.962Zm-3.586,17.931v-3.158q-.992.079-2.143.226a9.61,9.61,0,0,0-1.744.331,2.415,2.415,0,0,0-1.12.669,1.658,1.658,0,0,0-.383,1.158,3.016,3.016,0,0,0,.083.767,1.143,1.143,0,0,0,.406.564,1.975,1.975,0,0,0,.744.4,5.283,5.283,0,0,0,1.353.128,4.027,4.027,0,0,0,1.481-.293,4.629,4.629,0,0,0,1.323-.782Z" transform="translate(-129.12 -468.11)" fill="#0b6b97"/>
      <path id="Caminho_28536" data-name="Caminho 28536" d="M325.84,484.482a7.915,7.915,0,0,1-2.188,5.909,9.822,9.822,0,0,1-12.285,0,9.081,9.081,0,0,1,.015-11.841,9.822,9.822,0,0,1,12.285.015,7.966,7.966,0,0,1,2.173,5.917Zm-6,3.7a4.1,4.1,0,0,0,.714-1.4,8.568,8.568,0,0,0,.233-2.271,9.013,9.013,0,0,0-.241-2.248,3.947,3.947,0,0,0-.677-1.451,2.348,2.348,0,0,0-1.045-.782,3.75,3.75,0,0,0-1.316-.233,3.8,3.8,0,0,0-1.256.188,2.526,2.526,0,0,0-1.053.759,3.9,3.9,0,0,0-.714,1.451,10.215,10.215,0,0,0-.03,4.473,3.794,3.794,0,0,0,.677,1.466,2.551,2.551,0,0,0,1.038.774,3.872,3.872,0,0,0,2.646.015,2.331,2.331,0,0,0,1.022-.752Z" transform="translate(-135.245 -470.167)" fill="#0b6b97"/>
      <path id="Caminho_28537" data-name="Caminho 28537" d="M138.053,549.544h-4.887v-1.586a11.069,11.069,0,0,1-2.353,1.519,6.18,6.18,0,0,1-2.526.489,5.336,5.336,0,0,1-4.436-2.143,9.144,9.144,0,0,1-1.662-5.766,9.713,9.713,0,0,1,.564-3.436,7.916,7.916,0,0,1,1.534-2.564,6.346,6.346,0,0,1,2.233-1.579,6.6,6.6,0,0,1,2.624-.564,7.36,7.36,0,0,1,2.24.293,14.535,14.535,0,0,1,1.789.737V528.47h4.887v21.074Zm-4.887-4.188v-7.473a5.14,5.14,0,0,0-1.083-.316,6.665,6.665,0,0,0-1.038-.1,3.456,3.456,0,0,0-2.879,1.2A5.2,5.2,0,0,0,127.2,542a5.436,5.436,0,0,0,.767,3.248,2.9,2.9,0,0,0,2.474,1.007,4.438,4.438,0,0,0,1.406-.248,4.648,4.648,0,0,0,1.308-.662Z" transform="translate(-88.839 -483.09)" fill="#0b6b97"/>
      <path id="Caminho_28538" data-name="Caminho 28538" d="M164.022,544.619H152.864a3.526,3.526,0,0,0,1.361,2.737,6.062,6.062,0,0,0,3.691.947,8.314,8.314,0,0,0,2.992-.556,9.409,9.409,0,0,0,2.286-1.188h.541v3.917a18.629,18.629,0,0,1-3.113.962,16.472,16.472,0,0,1-3.233.3q-4.579,0-7.015-2.06a7.252,7.252,0,0,1-2.436-5.864,7.787,7.787,0,0,1,2.308-5.962,8.8,8.8,0,0,1,6.33-2.2,7.539,7.539,0,0,1,5.579,1.88,7.316,7.316,0,0,1,1.872,5.4v1.707Zm-4.849-2.857a3.4,3.4,0,0,0-.759-2.3,2.935,2.935,0,0,0-2.233-.774,3.558,3.558,0,0,0-2.316.729,3.15,3.15,0,0,0-1.015,2.346h6.323Z" transform="translate(-95.23 -484.872)" fill="#0b6b97"/>
      <path id="Caminho_28539" data-name="Caminho 28539" d="M201.708,549.829H188.25V546.31h4.255V535.657H188.25v-3.293a15.086,15.086,0,0,0,1.872-.113,4.965,4.965,0,0,0,1.489-.4,2.518,2.518,0,0,0,1.053-.88,2.817,2.817,0,0,0,.406-1.353h4.481v16.7h4.158v3.518Z" transform="translate(-105.234 -483.375)" fill="#0b6b97"/>
      <path id="Caminho_28540" data-name="Caminho 28540" d="M228.5,544.061a5.263,5.263,0,0,1-2.278,4.391,10.257,10.257,0,0,1-6.263,1.707,13.952,13.952,0,0,1-3.834-.459,7.705,7.705,0,0,1-2.639-1.271,5.083,5.083,0,0,1-1.526-1.872,5.407,5.407,0,0,1-.5-2.3,4.337,4.337,0,0,1,.887-2.692,7.122,7.122,0,0,1,3.067-2.052v-.083a6.071,6.071,0,0,1-2.586-2.045,5.021,5.021,0,0,1-.827-2.857,4.593,4.593,0,0,1,2.218-3.924A9.969,9.969,0,0,1,220,529.07a10.627,10.627,0,0,1,5.857,1.391,4.24,4.24,0,0,1,2.12,3.706,4,4,0,0,1-.895,2.556,6.846,6.846,0,0,1-2.737,1.91v.083a6.8,6.8,0,0,1,3.128,2.15,5.181,5.181,0,0,1,1.015,3.2Zm-5.173.233a2.037,2.037,0,0,0-.489-1.474,6.634,6.634,0,0,0-2.007-1.15c-.3-.135-.729-.3-1.3-.5s-1.045-.368-1.436-.511a6.161,6.161,0,0,0-1.053,1.278,3.153,3.153,0,0,0-.466,1.684,2.763,2.763,0,0,0,1.007,2.24,3.985,3.985,0,0,0,2.631.835,5.04,5.04,0,0,0,1.015-.128,2.931,2.931,0,0,0,1-.4,2.811,2.811,0,0,0,.782-.729,1.954,1.954,0,0,0,.3-1.135Zm-.421-9.548a1.966,1.966,0,0,0-.789-1.639,3.367,3.367,0,0,0-2.105-.609,4.163,4.163,0,0,0-.992.12,3.58,3.58,0,0,0-.925.353,1.908,1.908,0,0,0-.647.6,1.508,1.508,0,0,0-.256.85,1.683,1.683,0,0,0,.451,1.248,4.971,4.971,0,0,0,1.481.895c.256.105.6.241,1.038.4s.97.338,1.594.534a6.091,6.091,0,0,0,.895-1.316,3.4,3.4,0,0,0,.271-1.436Z" transform="translate(-110.994 -483.239)" fill="#0b6b97"/>
      <path id="Caminho_28541" data-name="Caminho 28541" d="M255.063,549.712H239.23v-3.331c1.21-.88,2.421-1.8,3.639-2.789s2.188-1.834,2.917-2.549a14.175,14.175,0,0,0,2.331-2.759,4.6,4.6,0,0,0,.692-2.331,2.647,2.647,0,0,0-.887-2.135,3.841,3.841,0,0,0-2.556-.752,7.61,7.61,0,0,0-2.624.511,12.251,12.251,0,0,0-2.556,1.316h-.436v-4.481a19.038,19.038,0,0,1,6.594-1.263,9.086,9.086,0,0,1,5.782,1.594,5.448,5.448,0,0,1,1.992,4.5,7.366,7.366,0,0,1-.955,3.631,14.839,14.839,0,0,1-2.917,3.549q-1.229,1.139-2.481,2.09c-.827.639-1.421,1.083-1.774,1.331h9.059V549.7Z" transform="translate(-117.885 -483.259)" fill="#0b6b97"/>
      <path id="Caminho_28542" data-name="Caminho 28542" d="M281.117,545.2h-2.752v4.7H273.4v-4.7H263.63v-3.819l9.435-11.7h5.293v11.834h2.752V545.2Zm-7.721-3.684v-7.3l-5.872,7.3Z" transform="translate(-123.941 -483.39)" fill="#0b6b97"/>
    </g>
    <g id="Grupo_3872" data-name="Grupo 3872" transform="translate(716.101 1068.894)">
      <path id="Caminho_28543" data-name="Caminho 28543" d="M775.383,490.868a12.511,12.511,0,0,1-4.15-.662,8.8,8.8,0,0,1-3.27-1.977,8.894,8.894,0,0,1-2.12-3.278,13.812,13.812,0,0,1-.038-8.879,9.268,9.268,0,0,1,2.083-3.346,8.727,8.727,0,0,1,3.255-2.068,11.944,11.944,0,0,1,4.248-.729,16.217,16.217,0,0,1,2.293.143,15.51,15.51,0,0,1,1.887.376,13.107,13.107,0,0,1,1.647.579c.489.211.925.406,1.293.586V476.5h-.594c-.256-.218-.571-.474-.955-.767a14.1,14.1,0,0,0-1.308-.88,9.207,9.207,0,0,0-1.609-.729,5.724,5.724,0,0,0-1.857-.293,6.177,6.177,0,0,0-2.083.346,5.1,5.1,0,0,0-1.827,1.143,5.617,5.617,0,0,0-1.293,2.037,9.735,9.735,0,0,0,.038,6.248,5.467,5.467,0,0,0,1.346,2,4.892,4.892,0,0,0,1.842,1.06,6.731,6.731,0,0,0,2.007.316,6.094,6.094,0,0,0,1.88-.286,7.361,7.361,0,0,0,1.714-.767,12.616,12.616,0,0,0,1.233-.835c.376-.293.692-.549.932-.767h.541v4.819c-.5.226-.992.436-1.451.639a11.762,11.762,0,0,1-1.451.511c-.662.188-1.278.331-1.857.436a14.171,14.171,0,0,1-2.383.15Z" transform="translate(-765.09 -468.562)" fill="#f0602a"/>
      <path id="Caminho_28544" data-name="Caminho 28544" d="M808.17,484.482a7.915,7.915,0,0,1-2.188,5.909,9.821,9.821,0,0,1-12.285,0,9.081,9.081,0,0,1,.015-11.841,9.822,9.822,0,0,1,12.285.015,7.966,7.966,0,0,1,2.173,5.917Zm-6,3.7a3.969,3.969,0,0,0,.714-1.4,8.517,8.517,0,0,0,.241-2.271,9.013,9.013,0,0,0-.241-2.248,4.07,4.07,0,0,0-.677-1.451,2.348,2.348,0,0,0-1.045-.782,3.75,3.75,0,0,0-1.316-.233,3.8,3.8,0,0,0-1.255.188,2.526,2.526,0,0,0-1.053.759,3.9,3.9,0,0,0-.714,1.451,8.39,8.39,0,0,0-.263,2.316,8.7,8.7,0,0,0,.233,2.158,3.794,3.794,0,0,0,.677,1.466,2.552,2.552,0,0,0,1.038.774,3.85,3.85,0,0,0,2.639.015,2.331,2.331,0,0,0,1.022-.752Z" transform="translate(-771.647 -470.167)" fill="#f0602a"/>
      <path id="Caminho_28545" data-name="Caminho 28545" d="M833.59,492.093H828.7v-7.541a16.558,16.558,0,0,0-.1-1.834,3.846,3.846,0,0,0-.323-1.346,1.619,1.619,0,0,0-.789-.729,3.756,3.756,0,0,0-1.459-.233,4.456,4.456,0,0,0-1.346.218,7.126,7.126,0,0,0-1.481.692V492.1H818.32V476.891h4.887v1.677a12.429,12.429,0,0,1,2.5-1.556,6.369,6.369,0,0,1,2.654-.541,5.115,5.115,0,0,1,3.849,1.436,5.955,5.955,0,0,1,1.383,4.293v9.9Z" transform="translate(-778.3 -470.185)" fill="#f0602a"/>
      <path id="Caminho_28546" data-name="Caminho 28546" d="M857.472,487.276a4.411,4.411,0,0,1-2.113,3.8,10.12,10.12,0,0,1-5.781,1.444,16.822,16.822,0,0,1-3.684-.376,13.539,13.539,0,0,1-2.654-.842v-4.007h.444c.241.173.526.361.85.564a8.629,8.629,0,0,0,1.361.654,10.844,10.844,0,0,0,1.722.534,9.057,9.057,0,0,0,2.06.226,5.427,5.427,0,0,0,2.128-.316,1.015,1.015,0,0,0,.692-.94.873.873,0,0,0-.406-.8,5.214,5.214,0,0,0-1.541-.481c-.361-.083-.85-.173-1.466-.263a14.72,14.72,0,0,1-1.684-.346,6,6,0,0,1-3.075-1.684,4.159,4.159,0,0,1-1-2.849,4.317,4.317,0,0,1,2.075-3.646,9.756,9.756,0,0,1,5.684-1.459,14.982,14.982,0,0,1,3.27.346,13.283,13.283,0,0,1,2.443.737v3.849h-.421a9.835,9.835,0,0,0-2.473-1.21,8.856,8.856,0,0,0-2.812-.466,5.328,5.328,0,0,0-1.985.323c-.534.218-.8.526-.8.917a.974.974,0,0,0,.368.827,5.123,5.123,0,0,0,1.722.571q.744.147,1.6.293c.571.1,1.15.218,1.729.361a5.338,5.338,0,0,1,2.842,1.579,4.028,4.028,0,0,1,.917,2.692Z" transform="translate(-784.485 -470.187)" fill="#f0602a"/>
      <path id="Caminho_28547" data-name="Caminho 28547" d="M875.63,490.66a13.429,13.429,0,0,1-1.669.316,17.351,17.351,0,0,1-2.15.113,6.54,6.54,0,0,1-4.233-1.15q-1.387-1.15-1.391-3.94v-7.112H864.18v-3.3h2.007V471.24h4.887v4.346h4.549v3.3h-4.549v5.4c0,.534,0,1,.015,1.4a2.882,2.882,0,0,0,.218,1.075,1.5,1.5,0,0,0,.669.752,2.785,2.785,0,0,0,1.4.278,3.957,3.957,0,0,0,.992-.165,3.905,3.905,0,0,0,.857-.3h.406v3.331Z" transform="translate(-789.682 -468.887)" fill="#f0602a"/>
      <path id="Caminho_28548" data-name="Caminho 28548" d="M888.258,472.919H883.1v-3.7h5.157Zm-.135,17.375h-4.887V475.084h4.887Z" transform="translate(-794.377 -468.385)" fill="#f0602a"/>
      <path id="Caminho_28549" data-name="Caminho 28549" d="M905.04,490.66a13.431,13.431,0,0,1-1.669.316,17.348,17.348,0,0,1-2.15.113,6.54,6.54,0,0,1-4.233-1.15q-1.387-1.15-1.391-3.94v-7.112H893.59v-3.3H895.6V471.24h4.887v4.346h4.549v3.3h-4.549v5.4c0,.534,0,1,.015,1.4a2.883,2.883,0,0,0,.218,1.075,1.5,1.5,0,0,0,.669.752,2.784,2.784,0,0,0,1.4.278,3.957,3.957,0,0,0,.992-.165,3.9,3.9,0,0,0,.857-.3h.406v3.331Z" transform="translate(-796.981 -468.887)" fill="#f0602a"/>
      <path id="Caminho_28550" data-name="Caminho 28550" d="M927.81,492.227h-4.887V490.55a14.565,14.565,0,0,1-2.474,1.564,6.225,6.225,0,0,1-2.676.534A5.03,5.03,0,0,1,913.9,491.2a6.015,6.015,0,0,1-1.361-4.278v-9.9h4.887v7.541c0,.767.023,1.406.075,1.917a3.354,3.354,0,0,0,.346,1.263,1.542,1.542,0,0,0,.782.729,3.756,3.756,0,0,0,1.458.233,4.711,4.711,0,0,0,1.383-.233,5.857,5.857,0,0,0,1.466-.677V477.01h4.887v15.209Z" transform="translate(-801.683 -470.319)" fill="#f0602a"/>
      <path id="Caminho_28551" data-name="Caminho 28551" d="M943.958,472.919H938.8v-3.7h5.158Zm-.135,17.375h-4.887V475.084h4.887Z" transform="translate(-808.201 -468.385)" fill="#f0602a"/>
      <path id="Caminho_28552" data-name="Caminho 28552" d="M958.746,492.466a12.7,12.7,0,0,1-3.488-.541,7.831,7.831,0,0,1-2.744-1.474,6.663,6.663,0,0,1-1.774-2.443,8.529,8.529,0,0,1-.639-3.443,8.727,8.727,0,0,1,.714-3.669,6.893,6.893,0,0,1,1.985-2.556,7.993,7.993,0,0,1,2.842-1.406,12.344,12.344,0,0,1,3.346-.444,11.527,11.527,0,0,1,2.872.338,13.476,13.476,0,0,1,2.451.88v4.158h-.692c-.188-.165-.414-.353-.684-.571a6.292,6.292,0,0,0-.977-.639,6.868,6.868,0,0,0-1.218-.5,5.565,5.565,0,0,0-1.541-.2A3.694,3.694,0,0,0,956.2,481.2a5.044,5.044,0,0,0-1.045,3.368,4.756,4.756,0,0,0,1.075,3.331,3.993,3.993,0,0,0,3.052,1.135,5.885,5.885,0,0,0,1.654-.211,5.59,5.59,0,0,0,1.225-.5,5.327,5.327,0,0,0,.812-.571c.233-.2.451-.391.647-.579h.692v4.158c-.323.135-.707.286-1.143.451a8.831,8.831,0,0,1-1.376.4,4.6,4.6,0,0,0,.023.526c.015.211.023.391.023.556a4.259,4.259,0,0,1-1.346,3.376,5.131,5.131,0,0,1-3.511,1.188c-.316,0-.774-.023-1.376-.075a8.545,8.545,0,0,1-1.511-.248v-2.722h.308a6.088,6.088,0,0,0,.947.308,4.852,4.852,0,0,0,1.188.165,2.288,2.288,0,0,0,1.646-.541,2.145,2.145,0,0,0,.564-1.616v-.632Z" transform="translate(-811.005 -470.19)" fill="#f0602a"/>
      <path id="Caminho_28553" data-name="Caminho 28553" d="M982.113,488.409c-.263.2-.586.436-.977.722a6.342,6.342,0,0,1-1.1.662,7.021,7.021,0,0,1-1.489.481,8.4,8.4,0,0,1-1.692.158,5.174,5.174,0,0,1-3.631-1.338,4.441,4.441,0,0,1-1.466-3.428,4.62,4.62,0,0,1,.744-2.722,5.05,5.05,0,0,1,2.113-1.669,11.992,11.992,0,0,1,3.361-.865c1.338-.173,2.722-.3,4.158-.376v-.083a1.745,1.745,0,0,0-1.03-1.737,7.385,7.385,0,0,0-3.03-.481,8.6,8.6,0,0,0-2.571.429q-1.365.429-1.962.654H973.1v-3.669c.511-.135,1.353-.293,2.511-.481a21.754,21.754,0,0,1,3.488-.278q4.161,0,6.007,1.278a4.541,4.541,0,0,1,1.849,4.015v10.345H982.12v-1.609Zm3.586-20.3a5.5,5.5,0,0,1-1.12,3.391,3.482,3.482,0,0,1-2.744,1.105,3.033,3.033,0,0,1-1.21-.248,9.153,9.153,0,0,1-1.053-.534q-.417-.259-.925-.519a1.99,1.99,0,0,0-.85-.263.9.9,0,0,0-.887.436,2.933,2.933,0,0,0-.263,1.218h-2.962a5.153,5.153,0,0,1,1.128-3.263,3.412,3.412,0,0,1,2.714-1.218,3.246,3.246,0,0,1,1.233.241,8.3,8.3,0,0,1,1.068.519c.331.18.647.353.932.511a1.688,1.688,0,0,0,.8.241.93.93,0,0,0,.895-.436,2.489,2.489,0,0,0,.271-1.165h2.962Zm-3.586,17.931v-3.158q-.992.079-2.143.226a9.747,9.747,0,0,0-1.744.331,2.415,2.415,0,0,0-1.12.669,1.694,1.694,0,0,0-.383,1.158,3.013,3.013,0,0,0,.083.767,1.143,1.143,0,0,0,.406.564,1.976,1.976,0,0,0,.744.4,5.282,5.282,0,0,0,1.353.128,4.027,4.027,0,0,0,1.481-.293,4.63,4.63,0,0,0,1.323-.782Z" transform="translate(-816.38 -468.11)" fill="#f0602a"/>
      <path id="Caminho_28554" data-name="Caminho 28554" d="M1013.1,484.482a7.915,7.915,0,0,1-2.188,5.909,9.821,9.821,0,0,1-12.285,0,9.081,9.081,0,0,1,.015-11.841,9.822,9.822,0,0,1,12.285.015,7.966,7.966,0,0,1,2.173,5.917Zm-6,3.7a3.969,3.969,0,0,0,.714-1.4,8.521,8.521,0,0,0,.24-2.271,9.016,9.016,0,0,0-.24-2.248,4.07,4.07,0,0,0-.677-1.451,2.347,2.347,0,0,0-1.045-.782,3.75,3.75,0,0,0-1.316-.233,3.8,3.8,0,0,0-1.255.188,2.526,2.526,0,0,0-1.053.759,3.9,3.9,0,0,0-.714,1.451,8.39,8.39,0,0,0-.263,2.316,8.693,8.693,0,0,0,.233,2.158,3.792,3.792,0,0,0,.677,1.466,2.552,2.552,0,0,0,1.037.774,3.85,3.85,0,0,0,2.639.015,2.33,2.33,0,0,0,1.022-.752Z" transform="translate(-822.505 -470.167)" fill="#f0602a"/>
      <path id="Caminho_28555" data-name="Caminho 28555" d="M825.313,549.544h-4.887v-1.586a11.068,11.068,0,0,1-2.353,1.519,6.18,6.18,0,0,1-2.526.489,5.326,5.326,0,0,1-4.436-2.143,9.144,9.144,0,0,1-1.662-5.766,9.713,9.713,0,0,1,.564-3.436,7.916,7.916,0,0,1,1.534-2.564,6.346,6.346,0,0,1,2.233-1.579,6.6,6.6,0,0,1,2.624-.564,7.36,7.36,0,0,1,2.24.293,14.532,14.532,0,0,1,1.789.737V528.47h4.887v21.074Zm-4.887-4.188v-7.473a5.14,5.14,0,0,0-1.083-.316,6.666,6.666,0,0,0-1.038-.1,3.456,3.456,0,0,0-2.88,1.2,5.2,5.2,0,0,0-.962,3.331,5.436,5.436,0,0,0,.767,3.248,2.9,2.9,0,0,0,2.474,1.007,4.438,4.438,0,0,0,1.406-.248,4.648,4.648,0,0,0,1.308-.662Z" transform="translate(-776.099 -483.09)" fill="#f0602a"/>
      <path id="Caminho_28556" data-name="Caminho 28556" d="M851.281,544.619H840.124a3.526,3.526,0,0,0,1.361,2.737,6.062,6.062,0,0,0,3.691.947,8.313,8.313,0,0,0,2.992-.556,9.408,9.408,0,0,0,2.286-1.188H851v3.917a18.628,18.628,0,0,1-3.113.962,16.472,16.472,0,0,1-3.233.3q-4.579,0-7.015-2.06a7.252,7.252,0,0,1-2.436-5.864,7.787,7.787,0,0,1,2.308-5.962,8.8,8.8,0,0,1,6.33-2.2,7.539,7.539,0,0,1,5.579,1.88,7.328,7.328,0,0,1,1.872,5.4v1.707Zm-4.849-2.857a3.4,3.4,0,0,0-.759-2.3,2.935,2.935,0,0,0-2.233-.774,3.558,3.558,0,0,0-2.316.729,3.15,3.15,0,0,0-1.015,2.346h6.323Z" transform="translate(-782.49 -484.872)" fill="#f0602a"/>
      <path id="Caminho_28557" data-name="Caminho 28557" d="M888.968,549.829H875.51V546.31h4.255V535.657H875.51v-3.293a15.085,15.085,0,0,0,1.872-.113,4.965,4.965,0,0,0,1.489-.4,2.589,2.589,0,0,0,1.06-.88,2.817,2.817,0,0,0,.406-1.353h4.481v16.7h4.158v3.518Z" transform="translate(-792.494 -483.375)" fill="#f0602a"/>
      <path id="Caminho_28558" data-name="Caminho 28558" d="M915.307,538.488a16.577,16.577,0,0,1-.647,4.714,9.426,9.426,0,0,1-1.977,3.669,8.925,8.925,0,0,1-3.564,2.421,14.029,14.029,0,0,1-4.955.8,20.414,20.414,0,0,1-2.165-.12,12.667,12.667,0,0,1-1.534-.218v-3.97h.541a7.128,7.128,0,0,0,3.21.624,8.348,8.348,0,0,0,2.075-.263,4.644,4.644,0,0,0,1.744-.834,4.975,4.975,0,0,0,1.316-1.526,6.173,6.173,0,0,0,.692-2.2,13.455,13.455,0,0,1-2.188,1.038,7.55,7.55,0,0,1-2.511.361,8.235,8.235,0,0,1-2.173-.278,6.083,6.083,0,0,1-1.887-.865,5.778,5.778,0,0,1-1.8-2.105,7.242,7.242,0,0,1-.669-3.3,6.791,6.791,0,0,1,2.255-5.278,8.467,8.467,0,0,1,5.909-2.037,10.324,10.324,0,0,1,3.338.5,6.707,6.707,0,0,1,2.511,1.511,7.256,7.256,0,0,1,1.857,2.97,13.568,13.568,0,0,1,.624,4.391Zm-5.188-.752a9.8,9.8,0,0,0-.316-2.722,4.006,4.006,0,0,0-.872-1.646,2.326,2.326,0,0,0-.91-.624,3.1,3.1,0,0,0-1.083-.188,2.816,2.816,0,0,0-1.007.18,2.543,2.543,0,0,0-.925.632,3.188,3.188,0,0,0-.684,1.143,4.89,4.89,0,0,0-.263,1.684,3.9,3.9,0,0,0,.286,1.594,2.514,2.514,0,0,0,.782,1.022,2.9,2.9,0,0,0,1.12.519,6.11,6.11,0,0,0,2.729-.008,7.371,7.371,0,0,0,1.113-.316,3.363,3.363,0,0,1,.023-.429q.023-.282.023-.835Z" transform="translate(-798.278 -483.251)" fill="#f0602a"/>
      <path id="Caminho_28559" data-name="Caminho 28559" d="M940.145,540.25a4.322,4.322,0,0,1,1.06,1.331,4.387,4.387,0,0,1,.391,2.015,6.3,6.3,0,0,1-.564,2.654,5.465,5.465,0,0,1-1.729,2.113,8.232,8.232,0,0,1-2.677,1.308,13.383,13.383,0,0,1-3.729.451,20.318,20.318,0,0,1-4.3-.391,16.543,16.543,0,0,1-2.917-.88v-4.428h.526a12.942,12.942,0,0,0,2.782,1.218,9.738,9.738,0,0,0,2.962.511,12.883,12.883,0,0,0,1.707-.128,3.493,3.493,0,0,0,1.556-.564,2.329,2.329,0,0,0,1.1-2.21,2.015,2.015,0,0,0-.406-1.361,2.176,2.176,0,0,0-1.068-.684,5.692,5.692,0,0,0-1.594-.241q-.936-.023-1.737-.023h-1.113v-3.6h1.15q1.06,0,1.872-.068a4.646,4.646,0,0,0,1.383-.308,2.062,2.062,0,0,0,.895-.684,2.208,2.208,0,0,0,.3-1.255,1.513,1.513,0,0,0-.308-.985,2.188,2.188,0,0,0-.782-.586,3.939,3.939,0,0,0-1.248-.323,11.643,11.643,0,0,0-1.233-.083,10.034,10.034,0,0,0-2.759.436,12.863,12.863,0,0,0-2.887,1.263h-.5v-4.376a18.38,18.38,0,0,1,3.022-.857,18.613,18.613,0,0,1,3.872-.414,14.933,14.933,0,0,1,3.346.331,8.3,8.3,0,0,1,2.368.887,4.539,4.539,0,0,1,1.654,1.609,4.407,4.407,0,0,1,.541,2.218,4.687,4.687,0,0,1-1.045,3,4.59,4.59,0,0,1-2.752,1.684v.188a7.024,7.024,0,0,1,1.466.376,4.5,4.5,0,0,1,1.406.827Z" transform="translate(-804.944 -483.246)" fill="#f0602a"/>
      <path id="Caminho_28560" data-name="Caminho 28560" d="M968.377,545.2h-2.752v4.7h-4.97v-4.7H950.89v-3.819l9.435-11.7h5.293v11.834h2.752V545.2Zm-7.721-3.684v-7.3l-5.872,7.3Z" transform="translate(-811.201 -483.39)" fill="#f0602a"/>
    </g>
    <g id="Componente_57_1" data-name="Componente 57 – 1" transform="translate(977.33 1099.493)">
      <circle id="Elipse_78" data-name="Elipse 78" cx="107.007" cy="107.007" r="107.007" transform="translate(0 23.494)" fill="#f7b000"/>
      <circle id="Elipse_82" data-name="Elipse 82" cx="86.625" cy="86.625" r="86.625" transform="translate(20.382 43.876)" fill="#fff"/>
      <path id="Caminho_28425" data-name="Caminho 28425" d="M1249.433,508.81l8.247,14.292,8.255,14.292H1232.93l8.247-14.292Z" transform="translate(-1142.425 -508.81)" fill="#f7b000"/>
      <g id="Grupo_3864" data-name="Grupo 3864" transform="translate(58.011 118.36)">
        <path id="Caminho_28441" data-name="Caminho 28441" d="M1208.115,694.525h-18.4v-4.812h5.812v-14.57h-5.812v-4.5a19.949,19.949,0,0,0,2.556-.158,6.662,6.662,0,0,0,2.037-.549,3.453,3.453,0,0,0,1.443-1.2,3.83,3.83,0,0,0,.556-1.849h6.127v22.833h5.684v4.812Z" transform="translate(-1189.71 -666.399)" fill="#f7b000"/>
        <path id="Caminho_28442" data-name="Caminho 28442" d="M1244.14,679.021a22.487,22.487,0,0,1-.887,6.451,13.024,13.024,0,0,1-2.707,5.022,12.166,12.166,0,0,1-4.872,3.308,19.014,19.014,0,0,1-6.774,1.105,28.136,28.136,0,0,1-2.962-.165,19.4,19.4,0,0,1-2.09-.293V689.02h.744a10.8,10.8,0,0,0,1.586.556,10.686,10.686,0,0,0,2.8.293,11.226,11.226,0,0,0,2.834-.361,6.653,6.653,0,0,0,2.391-1.135,6.789,6.789,0,0,0,1.8-2.083,8.425,8.425,0,0,0,.947-3.007,18.867,18.867,0,0,1-2.992,1.421,10.264,10.264,0,0,1-3.436.489,11.6,11.6,0,0,1-2.97-.376,8.431,8.431,0,0,1-2.586-1.18,7.9,7.9,0,0,1-2.451-2.879,9.891,9.891,0,0,1-.917-4.511,9.287,9.287,0,0,1,3.082-7.218,11.6,11.6,0,0,1,8.082-2.789,14.143,14.143,0,0,1,4.563.677,9.164,9.164,0,0,1,3.436,2.068,9.9,9.9,0,0,1,2.534,4.06,18.447,18.447,0,0,1,.849,6.007Zm-7.09-1.03a13.146,13.146,0,0,0-.436-3.721,5.6,5.6,0,0,0-1.2-2.255,3.132,3.132,0,0,0-1.241-.857,4.231,4.231,0,0,0-1.481-.256,3.846,3.846,0,0,0-1.376.248,3.575,3.575,0,0,0-1.271.865,4.487,4.487,0,0,0-.932,1.556,6.6,6.6,0,0,0-.361,2.3,5.264,5.264,0,0,0,.391,2.18,3.426,3.426,0,0,0,1.075,1.4,3.962,3.962,0,0,0,1.526.707,8.5,8.5,0,0,0,3.729-.008,9.3,9.3,0,0,0,1.519-.436c0-.135.007-.331.03-.586s.03-.632.03-1.143Z" transform="translate(-1197.624 -666.24)" fill="#f7b000"/>
        <path id="Caminho_28443" data-name="Caminho 28443" d="M1278.1,681.442a5.376,5.376,0,0,1,1.977,4.571,8.691,8.691,0,0,1-.767,3.631,7.481,7.481,0,0,1-2.361,2.887,11.471,11.471,0,0,1-3.661,1.789,18.176,18.176,0,0,1-5.1.624,28.212,28.212,0,0,1-5.879-.534,22.364,22.364,0,0,1-3.992-1.2v-6.052h.722a18.114,18.114,0,0,0,3.8,1.669,13.565,13.565,0,0,0,4.045.707,17.567,17.567,0,0,0,2.331-.173,5.008,5.008,0,0,0,2.128-.767,3.678,3.678,0,0,0,1.09-1.12,3.62,3.62,0,0,0,.406-1.895,2.788,2.788,0,0,0-.556-1.865,2.98,2.98,0,0,0-1.466-.932,7.549,7.549,0,0,0-2.188-.323c-.85-.015-1.639-.03-2.368-.03h-1.519V677.5h1.571c.962,0,1.812-.03,2.556-.09a5.92,5.92,0,0,0,1.887-.429,2.877,2.877,0,0,0,1.225-.932,3.007,3.007,0,0,0,.406-1.714,2.034,2.034,0,0,0-.428-1.346,2.975,2.975,0,0,0-1.075-.8,5.5,5.5,0,0,0-1.707-.444,15.1,15.1,0,0,0-1.684-.113,13.459,13.459,0,0,0-3.774.6,17.265,17.265,0,0,0-3.947,1.729h-.684v-5.985a26.793,26.793,0,0,1,4.128-1.173,24.965,24.965,0,0,1,5.293-.564,20.255,20.255,0,0,1,4.571.451,11.375,11.375,0,0,1,3.24,1.21,6.108,6.108,0,0,1,2.255,2.2,6,6,0,0,1,.737,3.037,6.436,6.436,0,0,1-1.428,4.1,6.343,6.343,0,0,1-3.759,2.308v.256a9.6,9.6,0,0,1,2,.519,6.293,6.293,0,0,1,1.925,1.128Z" transform="translate(-1206.735 -666.24)" fill="#f7b000"/>
        <path id="Caminho_28444" data-name="Caminho 28444" d="M1316.187,672.461l-12.48,22.089h-7.924l12.954-22.292H1294.58V666.98h21.607v5.481Z" transform="translate(-1215.736 -666.424)" fill="#f7b000"/>
      </g>
    </g>
    <g id="Componente_58_1" data-name="Componente 58 – 1" transform="translate(1245.355 751)">
      <circle id="Elipse_75" data-name="Elipse 75" cx="107.007" cy="107.007" r="107.007" fill="#797b7d"/>
      <circle id="Elipse_84" data-name="Elipse 84" cx="86.625" cy="86.625" r="86.625" transform="translate(20.382 20.382)" fill="#fff"/>
      <path id="Caminho_28428" data-name="Caminho 28428" d="M1605.933,349.044l-8.248-14.292-8.255-14.292h33.005l-8.248,14.292Z" transform="translate(-1498.925 -113.573)" fill="#797b7d"/>
      <g id="Grupo_3865" data-name="Grupo 3865" transform="translate(58.011 94.993)">
        <path id="Caminho_28445" data-name="Caminho 28445" d="M1564.615,199.915h-18.4V195.1h5.812v-14.57h-5.812v-4.5a19.946,19.946,0,0,0,2.556-.158,6.661,6.661,0,0,0,2.037-.549,3.454,3.454,0,0,0,1.444-1.2,3.834,3.834,0,0,0,.556-1.849h6.127V195.1h5.684v4.812Z" transform="translate(-1546.21 -171.789)" fill="#797b7d"/>
        <path id="Caminho_28446" data-name="Caminho 28446" d="M1600.64,184.411a22.483,22.483,0,0,1-.887,6.451,13.021,13.021,0,0,1-2.707,5.022,12.165,12.165,0,0,1-4.872,3.308,19.013,19.013,0,0,1-6.774,1.105,28.131,28.131,0,0,1-2.962-.165,19.4,19.4,0,0,1-2.09-.293V194.41h.744a9.68,9.68,0,0,0,4.391.85,11.227,11.227,0,0,0,2.834-.361,6.655,6.655,0,0,0,2.391-1.135,6.79,6.79,0,0,0,1.8-2.083,8.428,8.428,0,0,0,.947-3.007,18.878,18.878,0,0,1-2.992,1.421,10.265,10.265,0,0,1-3.436.489,11.6,11.6,0,0,1-2.97-.376,8.431,8.431,0,0,1-2.586-1.18,7.9,7.9,0,0,1-2.451-2.879,9.893,9.893,0,0,1-.917-4.511,9.286,9.286,0,0,1,3.082-7.218,11.6,11.6,0,0,1,8.082-2.789,14.146,14.146,0,0,1,4.563.677,9.165,9.165,0,0,1,3.436,2.068,9.9,9.9,0,0,1,2.534,4.06,18.446,18.446,0,0,1,.85,6.007Zm-7.09-1.03a13.146,13.146,0,0,0-.436-3.722,5.6,5.6,0,0,0-1.2-2.255,3.134,3.134,0,0,0-1.241-.857,4.231,4.231,0,0,0-1.481-.256,3.846,3.846,0,0,0-1.376.248,3.577,3.577,0,0,0-1.271.865,4.489,4.489,0,0,0-.932,1.556,6.6,6.6,0,0,0-.361,2.3,5.262,5.262,0,0,0,.391,2.18,3.426,3.426,0,0,0,1.075,1.4,3.962,3.962,0,0,0,1.526.707,8.5,8.5,0,0,0,3.729-.008,9.29,9.29,0,0,0,1.519-.436c0-.135.008-.331.03-.586s.03-.632.03-1.143Z" transform="translate(-1554.125 -171.63)" fill="#797b7d"/>
        <path id="Caminho_28447" data-name="Caminho 28447" d="M1637.358,193.584H1633.6v6.428h-6.8v-6.428H1613.45v-5.225l12.909-16h7.24v16.187h3.759Zm-10.556-5.037v-9.984l-8.03,9.984Z" transform="translate(-1562.897 -171.811)" fill="#797b7d"/>
        <path id="Caminho_28448" data-name="Caminho 28448" d="M1673.095,190.373a10.3,10.3,0,0,1-.774,4,8.723,8.723,0,0,1-2.188,3.15,10.311,10.311,0,0,1-3.473,2.09,13.451,13.451,0,0,1-4.624.722,14.336,14.336,0,0,1-4.526-.677A9.2,9.2,0,0,1,1654,197.59a10.142,10.142,0,0,1-2.571-4.112,18.309,18.309,0,0,1-.887-6.015,23.109,23.109,0,0,1,.835-6.443,13.278,13.278,0,0,1,2.722-4.985,12.026,12.026,0,0,1,4.714-3.225,18.671,18.671,0,0,1,6.894-1.15,25.153,25.153,0,0,1,2.962.188c1.075.128,1.774.218,2.09.278v5.428h-.707a10.068,10.068,0,0,0-1.692-.549,11,11,0,0,0-2.714-.308,8.074,8.074,0,0,0-5.533,1.744,7.456,7.456,0,0,0-2.391,4.849,15.11,15.11,0,0,1,3.007-1.376,10.9,10.9,0,0,1,3.413-.526,11.82,11.82,0,0,1,2.992.368,8.211,8.211,0,0,1,2.564,1.188,7.8,7.8,0,0,1,2.466,2.887,9.835,9.835,0,0,1,.925,4.534Zm-8.428,4.165a4.814,4.814,0,0,0,.917-1.489,6.543,6.543,0,0,0,.346-2.346,5.316,5.316,0,0,0-.391-2.21,3.468,3.468,0,0,0-1.075-1.376,3.813,3.813,0,0,0-1.571-.714,8.984,8.984,0,0,0-1.872-.2,8.119,8.119,0,0,0-1.707.188,10.446,10.446,0,0,0-1.631.466c0,.12,0,.323-.015.609s-.015.639-.015,1.075a13.077,13.077,0,0,0,.451,3.752,5.466,5.466,0,0,0,1.21,2.248,3.148,3.148,0,0,0,1.218.842,4.191,4.191,0,0,0,1.519.271,3.847,3.847,0,0,0,1.353-.278,3.316,3.316,0,0,0,1.263-.835Z" transform="translate(-1572.102 -171.637)" fill="#797b7d"/>
      </g>
    </g>
    <g id="Componente_59_1" data-name="Componente 59 – 1" transform="translate(1518.485 1099.493)">
      <circle id="Elipse_76" data-name="Elipse 76" cx="107.007" cy="107.007" r="107.007" transform="translate(0 23.494)" fill="#003049"/>
      <circle id="Elipse_83" data-name="Elipse 83" cx="86.625" cy="86.625" r="86.625" transform="translate(20.382 43.876)" fill="#fff"/>
      <path id="Caminho_28426" data-name="Caminho 28426" d="M1969.223,508.81l8.247,14.292,8.255,14.292H1952.72l8.248-14.292Z" transform="translate(-1862.215 -508.81)" fill="#003049"/>
      <g id="Grupo_3866" data-name="Grupo 3866" transform="translate(58.011 118.36)">
        <path id="Caminho_28449" data-name="Caminho 28449" d="M1927.9,694.525h-18.4v-4.812h5.812v-14.57H1909.5v-4.5a19.949,19.949,0,0,0,2.556-.158,6.663,6.663,0,0,0,2.037-.549,3.453,3.453,0,0,0,1.443-1.2,3.833,3.833,0,0,0,.556-1.849h6.127v22.833h5.684Z" transform="translate(-1909.5 -666.399)" fill="#003049"/>
        <path id="Caminho_28450" data-name="Caminho 28450" d="M1963.93,679.021a22.483,22.483,0,0,1-.887,6.451,13.024,13.024,0,0,1-2.707,5.022,12.166,12.166,0,0,1-4.872,3.308,19.014,19.014,0,0,1-6.774,1.105,28.138,28.138,0,0,1-2.962-.165,19.4,19.4,0,0,1-2.09-.293V689.02h.744a10.8,10.8,0,0,0,1.586.556,10.688,10.688,0,0,0,2.8.293,11.226,11.226,0,0,0,2.834-.361,6.653,6.653,0,0,0,2.391-1.135,6.789,6.789,0,0,0,1.8-2.083,8.425,8.425,0,0,0,.947-3.007,18.862,18.862,0,0,1-2.992,1.421,10.264,10.264,0,0,1-3.436.489,11.6,11.6,0,0,1-2.97-.376,8.431,8.431,0,0,1-2.586-1.18,7.9,7.9,0,0,1-2.451-2.879,9.891,9.891,0,0,1-.917-4.511,9.287,9.287,0,0,1,3.083-7.218,11.6,11.6,0,0,1,8.082-2.789,14.143,14.143,0,0,1,4.564.677,9.164,9.164,0,0,1,3.436,2.068,9.894,9.894,0,0,1,2.534,4.06,18.447,18.447,0,0,1,.849,6.007Zm-7.09-1.03a13.146,13.146,0,0,0-.436-3.721,5.6,5.6,0,0,0-1.2-2.255,3.132,3.132,0,0,0-1.24-.857,4.232,4.232,0,0,0-1.481-.256,3.846,3.846,0,0,0-1.376.248,3.575,3.575,0,0,0-1.271.865,4.487,4.487,0,0,0-.932,1.556,6.6,6.6,0,0,0-.361,2.3,5.264,5.264,0,0,0,.391,2.18,3.426,3.426,0,0,0,1.075,1.4,3.963,3.963,0,0,0,1.526.707,8.5,8.5,0,0,0,3.729-.008,9.293,9.293,0,0,0,1.519-.436c0-.135.008-.331.03-.586s.03-.632.03-1.143Z" transform="translate(-1917.414 -666.24)" fill="#003049"/>
        <path id="Caminho_28451" data-name="Caminho 28451" d="M2000.525,684.983a10.3,10.3,0,0,1-.774,4,8.723,8.723,0,0,1-2.188,3.15,10.31,10.31,0,0,1-3.473,2.09,13.449,13.449,0,0,1-4.624.722,14.333,14.333,0,0,1-4.526-.677,9.2,9.2,0,0,1-3.511-2.068,10.141,10.141,0,0,1-2.571-4.112,18.309,18.309,0,0,1-.887-6.015,23.11,23.11,0,0,1,.835-6.443,13.278,13.278,0,0,1,2.722-4.985,12.026,12.026,0,0,1,4.714-3.225,18.67,18.67,0,0,1,6.894-1.15,25.154,25.154,0,0,1,2.962.188c1.075.128,1.774.218,2.09.278v5.428h-.707a10.068,10.068,0,0,0-1.692-.549,11,11,0,0,0-2.714-.308,8.073,8.073,0,0,0-5.533,1.744,7.456,7.456,0,0,0-2.391,4.849,15.115,15.115,0,0,1,3.007-1.376,10.9,10.9,0,0,1,3.413-.526,11.819,11.819,0,0,1,2.992.368,8.21,8.21,0,0,1,2.564,1.188,7.8,7.8,0,0,1,2.466,2.887,9.835,9.835,0,0,1,.925,4.534Zm-8.428,4.165a4.815,4.815,0,0,0,.917-1.489,6.543,6.543,0,0,0,.346-2.346,5.316,5.316,0,0,0-.391-2.21,3.469,3.469,0,0,0-1.075-1.376,3.813,3.813,0,0,0-1.571-.714,8.984,8.984,0,0,0-1.872-.2,8.12,8.12,0,0,0-1.707.188,10.436,10.436,0,0,0-1.631.466c0,.12,0,.323-.015.609s-.015.639-.015,1.075a13.077,13.077,0,0,0,.451,3.752,5.465,5.465,0,0,0,1.21,2.248,3.148,3.148,0,0,0,1.218.842,4.19,4.19,0,0,0,1.519.271,3.847,3.847,0,0,0,1.353-.278,3.316,3.316,0,0,0,1.263-.835Z" transform="translate(-1926.492 -666.247)" fill="#003049"/>
        <path id="Caminho_28452" data-name="Caminho 28452" d="M2035.987,672.461l-12.48,22.089h-7.924l12.954-22.292H2014.38V666.98h21.607v5.481Z" transform="translate(-1935.529 -666.424)" fill="#003049"/>
      </g>
    </g>
    <g id="Componente_55_1" data-name="Componente 55 – 1" transform="translate(441.263 1099.493)">
      <circle id="Elipse_77" data-name="Elipse 77" cx="107.007" cy="107.007" r="107.007" transform="translate(0 23.494)" fill="#008686"/>
      <circle id="Elipse_80" data-name="Elipse 80" cx="86.625" cy="86.625" r="86.625" transform="translate(20.382 43.876)" fill="#fff"/>
      <path id="Caminho_28424" data-name="Caminho 28424" d="M536.413,508.81l8.255,14.292,8.247,14.292H519.91l8.255-14.292Z" transform="translate(-429.405 -508.81)" fill="#008686"/>
      <g id="Grupo_3862" data-name="Grupo 3862" transform="translate(58.011 118.277)">
        <path id="Caminho_28433" data-name="Caminho 28433" d="M495.095,694.525h-18.4v-4.812H482.5v-14.57H476.69v-4.5a19.951,19.951,0,0,0,2.556-.158,6.663,6.663,0,0,0,2.037-.549,3.453,3.453,0,0,0,1.444-1.2,3.834,3.834,0,0,0,.556-1.849h6.127v22.833h5.684v4.812Z" transform="translate(-476.69 -666.316)" fill="#008686"/>
        <path id="Caminho_28434" data-name="Caminho 28434" d="M531.732,686.64a7.175,7.175,0,0,1-3.12,6q-3.124,2.334-8.563,2.331a19.044,19.044,0,0,1-5.24-.632,10.487,10.487,0,0,1-3.609-1.744,6.861,6.861,0,0,1-2.083-2.556,7.409,7.409,0,0,1-.677-3.15,5.949,5.949,0,0,1,1.21-3.676,9.723,9.723,0,0,1,4.2-2.8v-.113a8.363,8.363,0,0,1-3.541-2.8,6.82,6.82,0,0,1-1.128-3.909,6.287,6.287,0,0,1,3.037-5.368,13.636,13.636,0,0,1,7.909-2.09q5.109,0,8.007,1.895a5.8,5.8,0,0,1,2.894,5.067,5.469,5.469,0,0,1-1.225,3.5,9.33,9.33,0,0,1-3.737,2.609v.113a9.29,9.29,0,0,1,4.278,2.947,7.083,7.083,0,0,1,1.391,4.368Zm-7.075.316a2.772,2.772,0,0,0-.669-2.015,9.189,9.189,0,0,0-2.744-1.571c-.406-.188-1-.414-1.774-.684s-1.436-.5-1.962-.707a8.172,8.172,0,0,0-1.436,1.752,4.249,4.249,0,0,0-.639,2.308,3.776,3.776,0,0,0,1.376,3.067,5.466,5.466,0,0,0,3.6,1.135,6.854,6.854,0,0,0,1.391-.173,4.175,4.175,0,0,0,1.368-.549,3.827,3.827,0,0,0,1.075-1,2.653,2.653,0,0,0,.406-1.556Zm-.571-13.052a2.68,2.68,0,0,0-1.083-2.24,4.6,4.6,0,0,0-2.88-.835,5.7,5.7,0,0,0-1.361.165,5.12,5.12,0,0,0-1.271.481,2.67,2.67,0,0,0-.887.827,1.989,1.989,0,0,0-.353,1.158,2.3,2.3,0,0,0,.624,1.707,6.657,6.657,0,0,0,2.03,1.218c.346.15.82.331,1.413.549s1.323.459,2.173.729a8.494,8.494,0,0,0,1.226-1.8,4.641,4.641,0,0,0,.368-1.962Z" transform="translate(-484.57 -666.13)" fill="#008686"/>
        <path id="Caminho_28435" data-name="Caminho 28435" d="M566.98,679.021a22.485,22.485,0,0,1-.887,6.451,13.022,13.022,0,0,1-2.707,5.022,12.166,12.166,0,0,1-4.872,3.308,19.014,19.014,0,0,1-6.774,1.105,28.139,28.139,0,0,1-2.962-.165,19.4,19.4,0,0,1-2.09-.293V689.02h.744a10.8,10.8,0,0,0,1.586.556,10.687,10.687,0,0,0,2.8.293,11.225,11.225,0,0,0,2.834-.361,6.654,6.654,0,0,0,2.391-1.135,6.789,6.789,0,0,0,1.8-2.083,8.425,8.425,0,0,0,.947-3.007A18.861,18.861,0,0,1,556.8,684.7a10.265,10.265,0,0,1-3.436.489,11.6,11.6,0,0,1-2.97-.376,8.433,8.433,0,0,1-2.586-1.18,7.9,7.9,0,0,1-2.451-2.879,9.892,9.892,0,0,1-.917-4.511,9.287,9.287,0,0,1,3.082-7.218,11.6,11.6,0,0,1,8.082-2.789,14.144,14.144,0,0,1,4.564.677,9.164,9.164,0,0,1,3.436,2.068,9.894,9.894,0,0,1,2.534,4.06,18.445,18.445,0,0,1,.849,6.007Zm-7.09-1.03a13.143,13.143,0,0,0-.436-3.721,5.6,5.6,0,0,0-1.2-2.255,3.132,3.132,0,0,0-1.241-.857,4.231,4.231,0,0,0-1.481-.256,3.847,3.847,0,0,0-1.376.248,3.575,3.575,0,0,0-1.271.865,4.487,4.487,0,0,0-.932,1.556,6.6,6.6,0,0,0-.361,2.3,5.263,5.263,0,0,0,.391,2.18,3.428,3.428,0,0,0,1.075,1.4,3.963,3.963,0,0,0,1.526.707,8.5,8.5,0,0,0,3.729-.008,9.3,9.3,0,0,0,1.519-.436c0-.135.007-.331.03-.586s.03-.632.03-1.143Z" transform="translate(-493.504 -666.157)" fill="#008686"/>
        <path id="Caminho_28436" data-name="Caminho 28436" d="M602.685,694.525h-18.4v-4.812h5.812v-14.57H584.28v-4.5a19.95,19.95,0,0,0,2.556-.158,6.663,6.663,0,0,0,2.037-.549,3.454,3.454,0,0,0,1.443-1.2,3.833,3.833,0,0,0,.556-1.849H597v22.833h5.684Z" transform="translate(-503.391 -666.316)" fill="#008686"/>
      </g>
    </g>
    <g id="Componente_56_1" data-name="Componente 56 – 1" transform="translate(704.199 751)">
      <circle id="Elipse_74" data-name="Elipse 74" cx="107.007" cy="107.007" r="107.007" fill="#f0602a"/>
      <circle id="Elipse_81" data-name="Elipse 81" cx="86.625" cy="86.625" r="86.625" transform="translate(20.382 20.382)" fill="#fff"/>
      <path id="Caminho_28427" data-name="Caminho 28427" d="M886.143,349.044,877.9,334.752,869.64,320.46h33.005L894.4,334.752Z" transform="translate(-779.136 -113.573)" fill="#f0602a"/>
      <g id="Grupo_3863" data-name="Grupo 3863" transform="translate(58.011 94.993)">
        <path id="Caminho_28437" data-name="Caminho 28437" d="M844.825,199.915h-18.4V195.1h5.812v-14.57H826.42v-4.5a19.946,19.946,0,0,0,2.556-.158,6.661,6.661,0,0,0,2.037-.549,3.454,3.454,0,0,0,1.444-1.2,3.834,3.834,0,0,0,.556-1.849h6.127V195.1h5.684v4.812Z" transform="translate(-826.42 -171.789)" fill="#f0602a"/>
        <path id="Caminho_28438" data-name="Caminho 28438" d="M880.85,184.411a22.485,22.485,0,0,1-.887,6.451,13.024,13.024,0,0,1-2.707,5.022,12.166,12.166,0,0,1-4.872,3.308,19.014,19.014,0,0,1-6.774,1.105,28.132,28.132,0,0,1-2.962-.165,19.391,19.391,0,0,1-2.09-.293V194.41h.744a9.678,9.678,0,0,0,4.391.85,11.226,11.226,0,0,0,2.834-.361,6.653,6.653,0,0,0,2.391-1.135,6.79,6.79,0,0,0,1.8-2.083,8.424,8.424,0,0,0,.947-3.007,18.868,18.868,0,0,1-2.992,1.421,10.265,10.265,0,0,1-3.436.489,11.6,11.6,0,0,1-2.97-.376,8.433,8.433,0,0,1-2.586-1.18,7.9,7.9,0,0,1-2.451-2.879,9.892,9.892,0,0,1-.917-4.511,9.287,9.287,0,0,1,3.082-7.218,11.6,11.6,0,0,1,8.082-2.789,14.146,14.146,0,0,1,4.564.677,9.165,9.165,0,0,1,3.436,2.068,9.894,9.894,0,0,1,2.534,4.06,18.443,18.443,0,0,1,.85,6.007Zm-7.09-1.03a13.146,13.146,0,0,0-.436-3.722,5.6,5.6,0,0,0-1.2-2.255,3.133,3.133,0,0,0-1.241-.857,4.232,4.232,0,0,0-1.481-.256,3.847,3.847,0,0,0-1.376.248,3.576,3.576,0,0,0-1.271.865,4.49,4.49,0,0,0-.932,1.556,6.6,6.6,0,0,0-.361,2.3,5.262,5.262,0,0,0,.391,2.18,3.428,3.428,0,0,0,1.075,1.4,3.962,3.962,0,0,0,1.526.707,8.5,8.5,0,0,0,3.729-.008,9.294,9.294,0,0,0,1.519-.436c0-.135.008-.331.03-.586s.03-.632.03-1.143Z" transform="translate(-834.334 -171.63)" fill="#f0602a"/>
        <path id="Caminho_28439" data-name="Caminho 28439" d="M914.808,186.832a5.376,5.376,0,0,1,1.977,4.571,8.691,8.691,0,0,1-.767,3.631,7.479,7.479,0,0,1-2.361,2.887A11.47,11.47,0,0,1,910,199.711a18.175,18.175,0,0,1-5.1.624,28.215,28.215,0,0,1-5.879-.534,22.359,22.359,0,0,1-3.992-1.2v-6.052h.722a18.117,18.117,0,0,0,3.8,1.669,13.565,13.565,0,0,0,4.045.707,17.57,17.57,0,0,0,2.331-.173,5.01,5.01,0,0,0,2.128-.767,3.679,3.679,0,0,0,1.09-1.12,3.62,3.62,0,0,0,.406-1.895,2.789,2.789,0,0,0-.556-1.865,2.981,2.981,0,0,0-1.466-.932,7.549,7.549,0,0,0-2.188-.323c-.85-.015-1.639-.03-2.368-.03h-1.519v-4.924h1.571c.962,0,1.812-.03,2.556-.09a5.92,5.92,0,0,0,1.887-.429,2.876,2.876,0,0,0,1.225-.932,3.007,3.007,0,0,0,.406-1.714,2.035,2.035,0,0,0-.429-1.346,2.977,2.977,0,0,0-1.075-.8,5.5,5.5,0,0,0-1.707-.444,15.1,15.1,0,0,0-1.684-.113,13.456,13.456,0,0,0-3.774.6,17.265,17.265,0,0,0-3.947,1.729h-.684v-5.985a26.783,26.783,0,0,1,4.128-1.173,24.964,24.964,0,0,1,5.293-.564,20.25,20.25,0,0,1,4.571.451,11.373,11.373,0,0,1,3.24,1.21,6.108,6.108,0,0,1,2.255,2.2,6,6,0,0,1,.737,3.037,6.436,6.436,0,0,1-1.429,4.1,6.342,6.342,0,0,1-3.759,2.308v.256a9.591,9.591,0,0,1,2,.519,6.292,6.292,0,0,1,1.925,1.128Z" transform="translate(-843.445 -171.63)" fill="#f0602a"/>
        <path id="Caminho_28440" data-name="Caminho 28440" d="M953.428,193.584h-3.759v6.428h-6.8v-6.428H929.52v-5.225l12.909-16h7.24v16.187h3.759Zm-10.556-5.037v-9.984l-8.029,9.984Z" transform="translate(-852.007 -171.811)" fill="#f0602a"/>
      </g>
    </g>
    <g id="Componente_54_1" data-name="Componente 54 – 1" transform="translate(187.5 751)">
      <circle id="Elipse_73" data-name="Elipse 73" cx="107.007" cy="107.007" r="107.007" fill="#0b6b97"/>
      <circle id="Elipse_79" data-name="Elipse 79" cx="86.625" cy="86.625" r="86.625" transform="translate(20.382 20.382)" fill="#fff"/>
      <path id="Caminho_28423" data-name="Caminho 28423" d="M198.883,349.044l-8.248-14.292L182.38,320.46h33.005l-8.248,14.292Z" transform="translate(-91.875 -113.573)" fill="#0b6b97"/>
      <g id="Grupo_3861" data-name="Grupo 3861" transform="translate(56.063 94.903)">
        <path id="Caminho_28429" data-name="Caminho 28429" d="M154.975,199.915h-18.4V195.1h5.812v-14.57H136.57v-4.5a20.031,20.031,0,0,0,2.556-.158,6.661,6.661,0,0,0,2.037-.549,3.453,3.453,0,0,0,1.443-1.2,3.834,3.834,0,0,0,.556-1.849h6.127V195.1h5.684v4.812Z" transform="translate(-136.57 -171.699)" fill="#0b6b97"/>
        <path id="Caminho_28430" data-name="Caminho 28430" d="M191.612,192.02a7.175,7.175,0,0,1-3.12,6q-3.124,2.334-8.563,2.331a19.045,19.045,0,0,1-5.24-.632,10.488,10.488,0,0,1-3.609-1.744A6.862,6.862,0,0,1,169,195.418a7.409,7.409,0,0,1-.677-3.15,5.949,5.949,0,0,1,1.21-3.676,9.723,9.723,0,0,1,4.2-2.8v-.113a8.292,8.292,0,0,1-3.534-2.8,6.861,6.861,0,0,1-1.128-3.909A6.287,6.287,0,0,1,172.1,173.6a13.693,13.693,0,0,1,7.909-2.09q5.109,0,8.007,1.895a5.8,5.8,0,0,1,2.895,5.067,5.469,5.469,0,0,1-1.225,3.5,9.307,9.307,0,0,1-3.744,2.609v.113a9.29,9.29,0,0,1,4.278,2.947,7.083,7.083,0,0,1,1.391,4.368Zm-7.075.316a2.772,2.772,0,0,0-.669-2.015,9.027,9.027,0,0,0-2.744-1.571c-.406-.188-1-.413-1.774-.684s-1.436-.5-1.962-.707a8.172,8.172,0,0,0-1.436,1.752,4.249,4.249,0,0,0-.639,2.308,3.776,3.776,0,0,0,1.376,3.067,5.466,5.466,0,0,0,3.6,1.135,6.852,6.852,0,0,0,1.391-.173,4.173,4.173,0,0,0,1.368-.549,3.827,3.827,0,0,0,1.075-1,2.653,2.653,0,0,0,.406-1.556Zm-.571-13.052a2.68,2.68,0,0,0-1.083-2.24,4.6,4.6,0,0,0-2.879-.835,5.753,5.753,0,0,0-1.361.165,5.118,5.118,0,0,0-1.271.481,2.669,2.669,0,0,0-.887.827,1.989,1.989,0,0,0-.353,1.158,2.3,2.3,0,0,0,.617,1.707,6.657,6.657,0,0,0,2.03,1.218c.346.15.819.331,1.413.549s1.323.459,2.173.729a8.49,8.49,0,0,0,1.225-1.8,4.641,4.641,0,0,0,.368-1.962Z" transform="translate(-144.45 -171.51)" fill="#0b6b97"/>
        <path id="Caminho_28431" data-name="Caminho 28431" d="M227.945,199.763H206.3v-4.556q2.481-1.793,4.97-3.812t3.992-3.481a19.226,19.226,0,0,0,3.188-3.774,6.234,6.234,0,0,0,.947-3.188,3.628,3.628,0,0,0-1.21-2.917,5.263,5.263,0,0,0-3.488-1.03,10.152,10.152,0,0,0-3.586.707,16.272,16.272,0,0,0-3.488,1.8h-.594v-6.127a22.759,22.759,0,0,1,3.879-1.15,23.37,23.37,0,0,1,5.135-.571q5.188,0,7.909,2.173a7.439,7.439,0,0,1,2.722,6.157,10.058,10.058,0,0,1-1.308,4.962,20.354,20.354,0,0,1-3.992,4.849c-1.12,1.038-2.255,1.992-3.391,2.864s-1.947,1.481-2.428,1.827h12.39v5.278Z" transform="translate(-153.875 -171.547)" fill="#0b6b97"/>
        <path id="Caminho_28432" data-name="Caminho 28432" d="M263.578,193.584h-3.759v6.428h-6.8v-6.428H239.67v-5.225l12.909-16h7.24v16.187h3.759Zm-10.556-5.037v-9.984l-8.029,9.984Z" transform="translate(-162.157 -171.721)" fill="#0b6b97"/>
      </g>
    </g>
  </g>
</svg>
