<?xml version="1.0" encoding="UTF-8"?>
<svg id="Layer_1" data-name="Layer 1" xmlns="http://www.w3.org/2000/svg" xmlns:xlink="http://www.w3.org/1999/xlink" viewBox="0 0 1247.65 1537.41">
  <defs>
    <style>
      .cls-1 {
        fill: url(#linear-gradient-2);
      }

      .cls-2 {
        letter-spacing: 0em;
      }

      .cls-3 {
        fill: #fff;
      }

      .cls-4 {
        fill: #bc372a;
      }

      .cls-5 {
        font-family: Montserrat-Bold, Montserrat;
        font-size: 72.62px;
        font-weight: 700;
      }

      .cls-5, .cls-6 {
        fill: #231f20;
      }

      .cls-7 {
        fill: url(#linear-gradient-15);
      }

      .cls-8 {
        fill: #e25041;
      }

      .cls-9 {
        fill: url(#linear-gradient-14);
      }

      .cls-10 {
        fill: url(#linear-gradient-6);
      }

      .cls-11 {
        fill: #d6d6d6;
      }

      .cls-12 {
        fill: url(#linear-gradient-11);
      }

      .cls-13 {
        fill: url(#linear-gradient-10);
      }

      .cls-14 {
        fill: url(#linear-gradient-16);
      }

      .cls-15 {
        fill: url(#linear-gradient-5);
      }

      .cls-16 {
        fill: url(#linear-gradient-7);
      }

      .cls-17 {
        fill: url(#linear-gradient-9);
      }

      .cls-18 {
        fill: url(#linear-gradient-3);
      }

      .cls-19 {
        fill: url(#linear-gradient);
      }

      .cls-20 {
        fill: url(#linear-gradient-4);
      }

      .cls-21 {
        fill: #383a34;
      }

      .cls-22 {
        fill: url(#linear-gradient-8);
      }

      .cls-23 {
        fill: url(#linear-gradient-12);
      }

      .cls-24 {
        fill: url(#linear-gradient-13);
      }
    </style>
    <linearGradient id="linear-gradient" x1="965.93" y1="100.82" x2="-80.25" y2="1514.59" gradientUnits="userSpaceOnUse">
      <stop offset="0" stop-color="#c2e6f1"/>
      <stop offset=".18" stop-color="#c7e7f1"/>
      <stop offset=".4" stop-color="#d5eaf1"/>
      <stop offset=".61" stop-color="#eaf0f1"/>
      <stop offset=".73" stop-color="#cee9f1"/>
      <stop offset=".81" stop-color="#c2e6f1"/>
    </linearGradient>
    <linearGradient id="linear-gradient-2" y1="130.74" x2="-80.25" y2="1544.52" xlink:href="#linear-gradient"/>
    <linearGradient id="linear-gradient-3" x1="965.93" y1="160.67" x2="-80.25" y2="1574.45" xlink:href="#linear-gradient"/>
    <linearGradient id="linear-gradient-4" y1="190.6" x2="-80.25" y2="1604.38" xlink:href="#linear-gradient"/>
    <linearGradient id="linear-gradient-5" x1="529.63" y1="129.69" x2="635.61" y2="277.14" gradientUnits="userSpaceOnUse">
      <stop offset=".53" stop-color="#241f20"/>
      <stop offset=".98" stop-color="#bbbebf"/>
    </linearGradient>
    <linearGradient id="linear-gradient-6" x1="-31.72" y1="1312.19" x2="58.39" y2="1507.25" gradientTransform="translate(-109.36 -1076.92) rotate(-27.62)" gradientUnits="userSpaceOnUse">
      <stop offset=".08" stop-color="#ee2724"/>
      <stop offset=".19" stop-color="#e12826"/>
      <stop offset=".4" stop-color="#bf2e2c"/>
      <stop offset=".69" stop-color="#873636"/>
      <stop offset="1" stop-color="#434143"/>
    </linearGradient>
    <linearGradient id="linear-gradient-7" x1="-14.65" y1="1339.3" x2="75.46" y2="1534.35" gradientTransform="translate(-109.36 -1076.92) rotate(-27.62)" gradientUnits="userSpaceOnUse">
      <stop offset=".11" stop-color="#ee2724"/>
      <stop offset=".22" stop-color="#e82724"/>
      <stop offset=".36" stop-color="#d92a27"/>
      <stop offset=".51" stop-color="#c12d2c"/>
      <stop offset=".68" stop-color="#9e3332"/>
      <stop offset=".84" stop-color="#72393a"/>
      <stop offset="1" stop-color="#434143"/>
    </linearGradient>
    <linearGradient id="linear-gradient-8" x1="67.19" y1="1471.47" x2="-5.8" y2="1293.05" xlink:href="#linear-gradient-7"/>
    <linearGradient id="linear-gradient-9" x1="-43.52" y1="1251.44" x2="89.12" y2="1384.08" gradientTransform="translate(-109.36 -1076.92) rotate(-27.62)" gradientUnits="userSpaceOnUse">
      <stop offset=".28" stop-color="#ee2724"/>
      <stop offset=".37" stop-color="#e42825"/>
      <stop offset=".5" stop-color="#cb2c2a"/>
      <stop offset=".67" stop-color="#a23231"/>
      <stop offset=".87" stop-color="#693b3b"/>
      <stop offset="1" stop-color="#434143"/>
    </linearGradient>
    <linearGradient id="linear-gradient-10" x1="-24.2" y1="1268.46" x2="102.29" y2="1394.95" xlink:href="#linear-gradient-9"/>
    <linearGradient id="linear-gradient-11" x1="4.39" y1="1259.23" x2="45.64" y2="1348.53" gradientTransform="translate(-109.36 -1076.92) rotate(-27.62)" gradientUnits="userSpaceOnUse">
      <stop offset=".26" stop-color="#ee2724"/>
      <stop offset=".36" stop-color="#e82724"/>
      <stop offset=".47" stop-color="#d92a27"/>
      <stop offset=".6" stop-color="#c12d2c"/>
      <stop offset=".73" stop-color="#9e3332"/>
      <stop offset=".87" stop-color="#72393a"/>
      <stop offset="1" stop-color="#434143"/>
    </linearGradient>
    <linearGradient id="linear-gradient-12" x1="46.1" y1="1356.54" x2="37" y2="1334.31" gradientTransform="translate(-109.36 -1076.92) rotate(-27.62)" gradientUnits="userSpaceOnUse">
      <stop offset=".33" stop-color="#fff"/>
      <stop offset=".35" stop-color="#fdefee"/>
      <stop offset=".47" stop-color="#f79a98"/>
      <stop offset=".57" stop-color="#f25c59"/>
      <stop offset=".65" stop-color="#ef3532"/>
      <stop offset=".68" stop-color="#ee2724"/>
    </linearGradient>
    <linearGradient id="linear-gradient-13" x1="-339.53" y1="1912.25" x2="-348.63" y2="1890.01" gradientTransform="translate(-312.19 -1496.2) rotate(-39.32)" gradientUnits="userSpaceOnUse">
      <stop offset=".33" stop-color="#fff"/>
      <stop offset=".35" stop-color="#fdefee"/>
      <stop offset=".5" stop-color="#f79a98"/>
      <stop offset=".61" stop-color="#f25c59"/>
      <stop offset=".7" stop-color="#ef3532"/>
      <stop offset=".74" stop-color="#ee2724"/>
    </linearGradient>
    <linearGradient id="linear-gradient-14" y1="130.74" x2="-80.25" y2="1544.52" xlink:href="#linear-gradient"/>
    <linearGradient id="linear-gradient-15" x1="965.93" y1="160.67" x2="-80.25" y2="1574.45" xlink:href="#linear-gradient"/>
    <linearGradient id="linear-gradient-16" y1="190.6" x2="-80.25" y2="1604.38" xlink:href="#linear-gradient"/>
  </defs>
  <path class="cls-11" d="m1164.18,1043.46c.38-127.75-5.01-581.19-9.3-795.21-.09-4.59-.17-9.58-.22-14.87.19-29.38.47-51.95.47-51.95h-.3c.16-17.91.3-29.93.3-29.93h-.3c.16-17.91.3-29.93.3-29.93h-.3c.16-17.91.3-29.93.3-29.93l-1005.54.17-16,995.6s.17.03.48.07l-.48,29.86s.17.03.48.07l-.48,29.86s.17.03.48.07l-.48,29.86s430.75,63.11,562.67,61.86c131.92-1.25,467.89-98.52,467.89-98.52.05-9.97.06-22.51.03-37.22.02-8.57.02-18.59,0-29.93.02-8.57.02-18.6,0-29.93Z"/>
  <path class="cls-19" d="m126.86,69.72l1005.54-.17s-1.29,104.49-.25,156.6c4.37,218.3,9.89,685.73,9.27,802.5,0,0-335.97,97.27-467.89,98.52-131.92,1.25-562.67-61.86-562.67-61.86L126.86,69.72Z"/>
  <path class="cls-1" d="m126.86,99.65l1005.54-.17s-1.29,104.49-.25,156.6c4.37,218.3,9.89,685.73,9.27,802.5,0,0-335.97,97.27-467.89,98.52-131.92,1.25-562.67-61.86-562.67-61.86L126.86,99.65Z"/>
  <path class="cls-18" d="m126.86,129.58l1005.54-.17s-1.29,104.49-.25,156.6c4.37,218.3,9.89,685.73,9.27,802.5,0,0-335.97,97.27-467.89,98.52-131.92,1.25-562.67-61.86-562.67-61.86l16-995.6Z"/>
  <path class="cls-20" d="m126.86,159.5l1005.54-.17s-1.29,104.49-.25,156.6c4.37,218.3,9.89,685.73,9.27,802.5,0,0-335.97,97.27-467.89,98.52-131.92,1.25-562.67-61.86-562.67-61.86l16-995.6Z"/>
  <g>
    <path class="cls-15" d="m632.33,261.72s-.01,5.55-4.07,8.66c-4.06,3.11-9.17,0-9.17,0l-36.72-49.47,17.83-10.85,32.12,51.67Z"/>
    <g>
      <path class="cls-10" d="m599.03,216.33c-30.54,15.98-64.8,12.08-81.52-7.82.72,3.4,1.88,6.71,3.53,9.85,13.06,24.97,51.29,30.75,85.38,12.91,34.09-17.84,51.14-52.53,38.07-77.5-1.35-2.58-3.03-4.9-4.88-7.07,5.57,24.71-10.77,54.03-40.58,69.62Z"/>
      <path class="cls-16" d="m598.45,216.38c29.81-15.6,46.15-44.92,40.58-69.63-16.09-18.79-49.93-21.83-80.49-5.84-29.8,15.59-46.57,44.06-41.6,67.65,16.71,19.89,50.97,23.8,81.51,7.82Z"/>
    </g>
    <path class="cls-22" d="m499.56,103.91s20.81,18.38,36.49,72.24c0,0,15.62,16.68,41.57,2,25.27-14.3,19.84-35.19,19.84-35.19,0,0-41.85-47.25-42.51-74.05,0,0-46.09,10.75-55.38,35.01Z"/>
    <path class="cls-17" d="m569.6,57.09c9.34,17.85-3.47,42.99-28.61,56.15-25.14,13.15-53.09,9.34-62.44-8.51-9.34-17.85,3.47-42.99,28.61-56.15,25.14-13.15,53.09-9.34,62.44,8.51Z"/>
    <path class="cls-13" d="m568.98,55.76c7.58,14.49-6.65,36.9-31.79,50.05-25.14,13.15-51.67,12.07-59.25-2.42-7.58-14.49,4.09-41.66,29.23-54.82,25.14-13.15,54.23-7.31,61.81,7.18Z"/>
    <path class="cls-12" d="m554.44,47.22c5.08,9.71-10.41,27.49-28.44,36.93-18.03,9.43-41.67,11.3-46.75,1.59-5.08-9.71,9.03-26.36,27.06-35.79,18.03-9.43,43.05-12.43,48.13-2.72Z"/>
    <path class="cls-23" d="m522.17,112.12s17.8-7.59,30.74-18.67c12.78-10.94,15.28-18.99,17.01-22.26,0,0-3.72,25.43-47.76,40.93Z"/>
    <path class="cls-24" d="m601.04,214.2s15.89-11.04,26.32-24.52c10.29-13.3,11.11-21.69,12.15-25.25,0,0,1.52,25.66-38.47,49.77Z"/>
    <path class="cls-3" d="m620.79,143.28c5.57,1.18.13,14.24-1.97,20.11-2.09,5.87-8.59,20.54-10.93,19.71-2.34-.84-.07-16.41,2.03-22.28,2.1-5.87,4.13-18.96,10.87-17.54Z"/>
    <path class="cls-3" d="m606.56,184.67c.77.28.23,3.96-.47,5.9-.69,1.94-2.83,6.78-3.61,6.51-.77-.27.41-5,1.1-6.94.69-1.94,2.2-5.74,2.97-5.47Z"/>
    <path class="cls-3" d="m563.46,58.99c.77.28.23,3.96-.46,5.9-.69,1.94-2.84,6.78-3.61,6.51-.77-.28.41-5,1.1-6.94.69-1.94,2.2-5.74,2.97-5.47Z"/>
    <path class="cls-3" d="m558.8,72.78c.45.16.13,2.3-.27,3.43-.4,1.13-1.65,3.94-2.1,3.78-.45-.16.24-2.91.64-4.04.4-1.13,1.28-3.34,1.73-3.18Z"/>
  </g>
  <text class="cls-5" transform="translate(468.57 704.65)"><tspan x="0" y="0">DIREI</tspan><tspan class="cls-2" x="209.73" y="0">T</tspan><tspan x="253.88" y="0">O</tspan></text>
  <path class="cls-19" d="m126.86,69.72l1005.54-.17s-1.29,104.49-.25,156.6c4.37,218.3,9.89,685.73,9.27,802.5,0,0-335.97,97.27-467.89,98.52-131.92,1.25-562.67-61.86-562.67-61.86L126.86,69.72Z"/>
  <path class="cls-9" d="m126.86,99.65l1005.54-.17s-1.29,104.49-.25,156.6c4.37,218.3,9.89,685.73,9.27,802.5,0,0-335.97,97.27-467.89,98.52-131.92,1.25-562.67-61.86-562.67-61.86L126.86,99.65Z"/>
  <path class="cls-7" d="m126.86,129.58l1005.54-.17s-1.29,104.49-.25,156.6c4.37,218.3,9.89,685.73,9.27,802.5,0,0-335.97,97.27-467.89,98.52-131.92,1.25-562.67-61.86-562.67-61.86l16-995.6Z"/>
  <path class="cls-14" d="m126.86,159.5l1005.54-.17s-1.29,104.49-.25,156.6c4.37,218.3,9.89,685.73,9.27,802.5,0,0-335.97,97.27-467.89,98.52-131.92,1.25-562.67-61.86-562.67-61.86l16-995.6Z"/>
  <g>
    <path class="cls-6" d="m474.6,653.81h23.09c16.63,0,28.03,10.02,28.03,25.42s-11.4,25.42-28.03,25.42h-23.09v-50.83Zm22.51,41.17c10.09,0,16.7-6.03,16.7-15.76s-6.61-15.76-16.7-15.76h-10.75v31.52h10.75Z"/>
    <path class="cls-6" d="m534.59,653.81h11.76v50.83h-11.76v-50.83Z"/>
    <path class="cls-6" d="m590.79,704.64l-9.8-14.16h-10.82v14.16h-11.76v-50.83h22c13.58,0,22.08,7.04,22.08,18.45,0,7.62-3.85,13.22-10.46,16.05l11.4,16.34h-12.64Zm-11.04-41.25h-9.58v17.72h9.58c7.19,0,10.82-3.34,10.82-8.86s-3.63-8.86-10.82-8.86Z"/>
    <path class="cls-6" d="m651.14,695.2v9.44h-39.36v-50.83h38.41v9.44h-26.72v11.04h23.6v9.15h-23.6v11.76h27.67Z"/>
    <path class="cls-6" d="m660.51,653.81h11.76v50.83h-11.76v-50.83Z"/>
    <path class="cls-6" d="m694.86,663.4h-16.27v-9.59h44.3v9.59h-16.27v41.25h-11.76v-41.25Z"/>
    <path class="cls-6" d="m725.29,679.23c0-15.1,11.76-26.29,27.81-26.29s27.81,11.11,27.81,26.29-11.84,26.29-27.81,26.29-27.81-11.18-27.81-26.29Zm43.71,0c0-9.66-6.83-16.27-15.9-16.27s-15.9,6.61-15.9,16.27,6.83,16.27,15.9,16.27,15.9-6.61,15.9-16.27Z"/>
  </g>
  <g>
    <path class="cls-21" d="m631.62,245.59s-.01,5.51-4.04,8.59c-4.03,3.08-9.1,0-9.1,0l-36.44-49.1,17.7-10.77,31.88,51.28Z"/>
    <g>
      <path class="cls-8" d="m597.76,215.85c-30.31,15.86-64.31,11.99-80.89-7.76.71,3.38,1.87,6.65,3.5,9.78,12.96,24.78,50.9,30.51,84.73,12.81,33.83-17.7,50.75-52.14,37.78-76.91-1.34-2.56-3-4.87-4.84-7.02,5.53,24.52-10.69,53.62-40.27,69.09Z"/>
      <path class="cls-4" d="m597.76,215.85c29.58-15.48,45.8-44.57,40.27-69.09-15.97-18.65-49.55-21.67-79.88-5.8-29.57,15.47-46.21,43.72-41.28,67.14,16.58,19.74,50.58,23.61,80.89,7.76Z"/>
    </g>
    <path class="cls-8" d="m499.61,104.24s20.65,18.24,36.21,71.68c0,0,15.5,16.56,41.26,1.98,25.08-14.19,19.68-34.92,19.68-34.92,0,0-41.53-46.89-42.19-73.49,0,0-45.74,10.67-54.96,34.74Z"/>
    <path class="cls-8" d="m569.13,57.77c9.27,17.72-3.44,42.66-28.39,55.72-24.95,13.05-52.69,9.27-61.96-8.45-9.27-17.72,3.44-42.66,28.39-55.72,24.95-13.05,52.69-9.27,61.96,8.45Z"/>
    <path class="cls-4" d="m568.5,56.45c7.52,14.38-6.6,36.62-31.55,49.67-24.95,13.05-51.27,11.98-58.8-2.4-7.52-14.38,4.06-41.34,29.01-54.4,24.95-13.05,53.82-7.25,61.34,7.13Z"/>
    <path class="cls-8" d="m554.08,47.98c5.04,9.64-10.33,27.28-28.23,36.64-17.89,9.36-41.35,11.21-46.39,1.58-5.04-9.64,8.96-26.16,26.86-35.52,17.89-9.36,42.72-12.34,47.76-2.7Z"/>
  </g>
</svg>