<?xml version="1.0" encoding="UTF-8"?>
<svg id="Layer_2" data-name="Layer 2" xmlns="http://www.w3.org/2000/svg" xmlns:xlink="http://www.w3.org/1999/xlink" viewBox="0 0 1920 1079">
  <defs>
    <style>
      .cls-1 {
        clip-path: url(#clippath-11);
      }

      .cls-2 {
        fill: #fff;
      }

      .cls-3 {
        fill: #7fa79e;
      }

      .cls-4 {
        fill: #898e92;
      }

      .cls-5 {
        fill: #a0a0a0;
      }

      .cls-6 {
        clip-path: url(#clippath-2);
      }

      .cls-7 {
        clip-path: url(#clippath-6);
      }

      .cls-8 {
        opacity: .07;
      }

      .cls-9 {
        clip-path: url(#clippath-7);
      }

      .cls-10 {
        clip-path: url(#clippath-1);
      }

      .cls-11 {
        clip-path: url(#clippath-4);
      }

      .cls-12 {
        fill: #6a0c12;
      }

      .cls-13 {
        clip-path: url(#clippath-9);
      }

      .cls-14 {
        clip-path: url(#clippath);
      }

      .cls-15 {
        fill: #a60014;
      }

      .cls-16 {
        fill: none;
      }

      .cls-17 {
        clip-path: url(#clippath-3);
      }

      .cls-18 {
        fill: #0b6b97;
      }

      .cls-19 {
        clip-path: url(#clippath-8);
      }

      .cls-20 {
        fill: #efefef;
      }

      .cls-21 {
        clip-path: url(#clippath-5);
      }

      .cls-22 {
        fill: url(#linear-gradient);
      }

      .cls-23 {
        fill: #edc56b;
      }

      .cls-24 {
        clip-path: url(#clippath-10);
      }

      .cls-25 {
        fill: #19181c;
      }

      .cls-26 {
        fill: #008686;
      }

      .cls-27 {
        fill: #231f20;
      }

      .cls-28 {
        fill: #58595b;
      }
    </style>
    <clipPath id="clippath">
      <rect class="cls-16" width="1920" height="1079"/>
    </clipPath>
    <linearGradient id="linear-gradient" x1="259.68" y1="-44.55" x2="259.68" y2="1173.95" gradientUnits="userSpaceOnUse">
      <stop offset="0" stop-color="#0b6b97"/>
      <stop offset="1" stop-color="#064059"/>
    </linearGradient>
    <clipPath id="clippath-1">
      <rect class="cls-16" x="1310.88" y="576.44" width="518.97" height="174.15"/>
    </clipPath>
    <clipPath id="clippath-2">
      <path class="cls-16" d="m1498.86,987.49c7.57,4.15,7.05,10.88,4.35,16.69,3.21-5.18,5.18-10.78,5.29-16.38,0-1.97-.1-3.84-.62-6.12-1.76-8.6-8.5-15.76-18.14-19.7-.73-.1-1.35-.21-2.07-.21-9.74,0-12.85,12.54,11.2,25.71"/>
    </clipPath>
    <clipPath id="clippath-3">
      <rect class="cls-16" x="1474.7" y="961.68" width="34.11" height="42.61"/>
    </clipPath>
    <clipPath id="clippath-4">
      <path class="cls-16" d="m1462.26,958.98h-.21l-.62,29.34-1.24-.1-5.29,24.57,6.12,1.04-.31,15.76h.21c16.17-2.18,30.48-10.26,39.18-20.73,5.49-10.37-7.46-18.76-7.57-18.76-1.97-1.76-23.84-12.85-17.1-24.67,1.66-2.9,3.52-4.87,5.6-6.01-3.21-.62-6.53-.93-10.16-.93-2.9-.1-5.81.1-8.6.52"/>
    </clipPath>
    <clipPath id="clippath-5">
      <rect class="cls-16" x="1454.7" y="958.15" width="50.9" height="71.73"/>
    </clipPath>
    <clipPath id="clippath-6">
      <path class="cls-16" d="m1476.88,943.33l-1.45,9.02c19.49-.83,34.83,8.91,36.18,24.88.62,6.74-1.45,13.68-5.39,20.11,6.43-5.6,10.68-12.44,11.82-19.9,3.01-18.87-15.34-34.11-41.05-34.11h-.1Z"/>
    </clipPath>
    <clipPath id="clippath-7">
      <rect class="cls-16" x="1475.22" y="943.12" width="46.13" height="54.42"/>
    </clipPath>
    <clipPath id="clippath-8">
      <rect class="cls-16" x="1475.43" y="943.33" width="45.72" height="53.9"/>
    </clipPath>
    <clipPath id="clippath-9">
      <path class="cls-16" d="m1462.68,952.76l-10.88,68.21h.21c18.04,0,34.93-7.46,44.37-18.56-10.68,6.63-25.19,9.95-39.91,8.19h-.21l16.38-57.01c-3.11-.52-6.43-.83-9.85-.83h-.1"/>
    </clipPath>
    <clipPath id="clippath-10">
      <rect class="cls-16" x="1451.69" y="952.55" width="44.68" height="68.52"/>
    </clipPath>
    <clipPath id="clippath-11">
      <rect class="cls-16" x="1451.79" y="952.76" width="44.57" height="68.21"/>
    </clipPath>
  </defs>
  <g id="Layer_1-2" data-name="Layer 1">
    <rect class="cls-20" x="33.88" y="1028.98" width="25.53" height="25.53" transform="translate(93.3 2083.48) rotate(180)"/>
    <g class="cls-14">
      <g class="cls-8">
        <path class="cls-18" d="m2532.34,1770.15h-1020.11l-.58-1-509.48-882.44.58-1L1512.23,3.27h1020.11l.58,1,509.48,882.44-.58,1-509.48,882.44Zm-1017.8-4h1015.49l507.75-879.44L2530.03,7.27h-1015.49l-507.75,879.44,507.75,879.44Z"/>
        <polygon class="cls-26" points="2687.03 -55.9 1590.11 -55.9 1041.65 894.06 1590.11 1844.03 2687.03 1844.03 3235.49 894.06 2687.03 -55.9"/>
      </g>
      <path class="cls-18" d="m683.38,1380.47H-339.04l-511.21-885.44L-339.04-390.42h1022.42l511.21,885.44-1.16,2-510.05,883.44Zm-1017.8-8h1013.18l506.59-877.44-506.59-877.44H-334.42l-506.59,877.44,506.59,877.44Z"/>
      <polygon class="cls-23" points="819.61 -445.16 -60.37 -445.16 -500.36 316.92 -60.37 1079 819.61 1079 1259.59 316.92 819.61 -445.16"/>
      <polygon class="cls-22" points="699.67 -432.62 -180.31 -432.62 -620.29 329.46 -263.29 1021.34 739.35 1021.34 1139.66 329.46 699.67 -432.62"/>
      <path class="cls-2" d="m739.98,1022.43H-60.19l-.16-.27L-460.28,329.46l.16-.27L-60.19-363.51h800.17l.16.27,399.93,692.7-.16.27-399.93,692.7Zm-799.54-1.09h798.91l399.46-691.88-399.46-691.88H-59.56L-459.02,329.46-59.56,1021.34Z"/>
      <polygon class="cls-26" points="701.75 706.23 701.75 390.45 428.28 232.55 154.8 390.45 154.8 706.23 428.28 864.12 701.75 706.23"/>
      <path class="cls-3" d="m701.95,617.58l-197.02-113.75v-227.5l197.02-113.75,197.02,113.75v227.5l-197.02,113.75Zm-184.02-121.26l184.02,106.25,184.02-106.25v-212.49l-184.02-106.25-184.02,106.25v212.49Z"/>
      <g class="cls-10">
        <g id="Grupo_2081" data-name="Grupo 2081">
          <path id="Caminho_2526" data-name="Caminho 2526" class="cls-18" d="m1409.96,603.01c1.83,0,3.2,1.46,3.2,3.2h0v34.24h34.24c1.83,0,3.2,1.46,3.2,3.2h0v24.02c0,1.83-1.46,3.2-3.2,3.2h-34.24v34.24c0,1.83-1.46,3.2-3.2,3.2h-24.11c-1.83,0-3.2-1.46-3.2-3.2v-34.24h-34.24c-1.74,0-3.2-1.46-3.2-3.2v-24.02c0-1.83,1.46-3.2,3.2-3.2h34.24v-34.24c0-1.83,1.46-3.2,3.2-3.2h24.11Zm0-1.92h-24.11c-2.83,0-5.21,2.28-5.21,5.21v32.24h-32.24c-2.83,0-5.21,2.28-5.21,5.21v24.02c0,2.83,2.28,5.21,5.21,5.21h32.24v32.24c0,2.83,2.28,5.21,5.21,5.21h24.02c2.83,0,5.21-2.28,5.21-5.21v-32.24h32.24c2.83,0,5.21-2.28,5.21-5.21v-24.02c0-2.83-2.28-5.21-5.21-5.21h-32.24v-32.24c0-2.83-2.28-5.21-5.11-5.21"/>
          <path id="Caminho_2527" data-name="Caminho 2527" class="cls-27" d="m1454.53,677.16h-23.01c-.55,0-1-.46-1-1,0-.18,0-.37.09-.46l11.51-20.46c.27-.46.91-.64,1.37-.27l.27.27,11.51,20.46c.27.46.09,1.1-.37,1.37,0,0-.18.09-.37.09m-21.37-2.01h19.72l-9.86-17.44-9.86,17.44h0Z"/>
          <path id="Caminho_2528" data-name="Caminho 2528" class="cls-27" d="m1443.02,688.76c-6.85-.09-12.42-5.66-12.51-12.51,0-.55.46-1,.91-1h23.1c.55,0,1,.46,1,1h0c-.09,6.85-5.66,12.33-12.51,12.51m-10.5-11.6c.55,5.84,5.66,10.14,11.41,9.59,5.11-.46,9.13-4.47,9.59-9.59h-21Z"/>
          <path id="Caminho_2529" data-name="Caminho 2529" class="cls-27" d="m1364.31,677.16h-23.01c-.55,0-1-.46-1-1,0-.18,0-.37.09-.46l11.51-20.46c.27-.46.82-.64,1.37-.37.18.09.27.18.37.37l11.51,20.46c.27.46.09,1.1-.37,1.37-.09,0-.27.09-.46.09m-21.37-2.01h19.72l-9.86-17.44-9.86,17.44h0Z"/>
          <path id="Caminho_2530" data-name="Caminho 2530" class="cls-27" d="m1352.8,688.76c-6.85-.09-12.42-5.66-12.51-12.51,0-.55.46-1,.91-1h23.1c.55,0,1,.46,1,1h0c-.09,6.85-5.66,12.33-12.51,12.51m-10.5-11.6c.55,5.84,5.66,10.14,11.41,9.59,5.11-.46,9.13-4.47,9.59-9.59h-21Z"/>
          <path id="Caminho_2531" data-name="Caminho 2531" class="cls-27" d="m1443.11,656.7h-90.41c-.55,0-1-.37-1-.91s.37-1,.91-1h90.5c.55,0,1,.37,1,.91s-.37,1-1,1h0"/>
          <path id="Caminho_2532" data-name="Caminho 2532" class="cls-27" d="m1432.43,651.86h-69.13c-.55,0-1-.37-1-.91s.37-1,.91-1h69.22c.55,0,1,.37,1,.91.09.46-.37.91-1,1q.09,0,0,0"/>
          <path id="Caminho_2533" data-name="Caminho 2533" class="cls-27" d="m1432.43,661.64h-69.13c-.55,0-1-.37-1-.91s.37-1,.91-1h69.22c.55,0,1,.37,1,.91.09.55-.37,1-1,1q.09,0,0,0"/>
          <path id="Caminho_2534" data-name="Caminho 2534" class="cls-27" d="m1397.91,646.39c-.55,0-1-.46-1-1h0v-25.93c0-.55.46-1,1-1s1,.46,1,1h0v26.03c0,.55-.46.91-1,.91h0"/>
          <path id="Caminho_2535" data-name="Caminho 2535" class="cls-27" d="m1402.75,646.39c-.55,0-1-.46-1-1h0v-36.53c0-.55.46-1,1-1s1,.46,1,1v36.53c0,.64-.46,1-1,1h0"/>
          <path id="Caminho_2536" data-name="Caminho 2536" class="cls-27" d="m1392.98,646.39c-.55,0-1-.46-1-1v-36.53c0-.55.46-1,1-1s1,.46,1,1v36.53c0,.64-.46,1-1,1"/>
          <path id="Caminho_2537" data-name="Caminho 2537" class="cls-27" d="m1408.69,715.06h-21.55c-.55,0-1-.37-1-.91s.37-1,.91-1h21.64c.55,0,1,.37,1,.91s-.37,1-1,1h0"/>
          <path id="Caminho_2538" data-name="Caminho 2538" class="cls-27" d="m1411.79,719.9h-27.76c-.55,0-1-.37-1-.91s.37-1,.91-1h27.85c.55,0,1,.37,1,.91s-.37,1-1,1c.09,0,0,0,0,0"/>
          <path id="Caminho_2539" data-name="Caminho 2539" class="cls-27" d="m1417.82,724.83h-39.72c-.55,0-.91-.46-.91-1s.46-.91.91-.91h39.72c.55,0,1,.37,1,.91s-.46,1-1,1h0"/>
          <path id="Caminho_2540" data-name="Caminho 2540" class="cls-27" d="m1397.91,692.04c-.55,0-1-.46-1-1h0v-25.02c0-.55.46-1,1-1s1,.46,1,1v25.11c0,.55-.46.91-1,.91h0"/>
          <path id="Caminho_2541" data-name="Caminho 2541" class="cls-27" d="m1392.98,702.36c-.55,0-1-.46-1-1h0v-35.34c0-.55.46-1,1-1s1,.46,1,1v35.34c0,.55-.46,1-1,1h0"/>
          <path id="Caminho_2542" data-name="Caminho 2542" class="cls-27" d="m1402.75,702.36c-.55,0-1-.46-1-1h0v-35.34c0-.55.46-1,1-1s1,.46,1,1v35.34c0,.55-.46,1-1,1h0"/>
          <path id="Caminho_2543" data-name="Caminho 2543" class="cls-27" d="m1397.91,750.49c-48.13,0-87.03-38.99-87.03-87.03s38.99-87.03,87.03-87.03,87.03,38.99,87.03,87.03-38.99,87.03-87.03,87.03m0-172.14c-47.03,0-85.11,38.08-85.11,85.11s38.08,85.11,85.11,85.11,85.11-38.08,85.11-85.11h0c-.09-47.03-38.17-85.02-85.11-85.11"/>
          <path id="Caminho_2544" data-name="Caminho 2544" class="cls-27" d="m1397.91,742.64c-43.74,0-79.17-35.43-79.17-79.17s35.43-79.17,79.17-79.17,79.17,35.43,79.17,79.17-35.43,79.08-79.17,79.17m0-156.43c-42.65,0-77.26,34.61-77.26,77.26s34.61,77.26,77.26,77.26,77.26-34.61,77.26-77.26h0c-.09-42.65-34.61-77.16-77.26-77.26"/>
          <path id="Caminho_2545" data-name="Caminho 2545" class="cls-28" d="m1528.41,638.71v3.2h-18.45v-25.39h17.9v3.2h-14.25v7.76h12.69v3.1h-12.69v8.22h14.79v-.09Z"/>
          <path id="Caminho_2546" data-name="Caminho 2546" class="cls-28" d="m1531.97,638.99l1.37-2.83c2.37,1.92,5.3,2.92,8.4,2.92,4.38,0,6.3-1.74,6.3-3.93,0-6.21-15.34-2.28-15.34-11.69,0-3.93,3.01-7.21,9.68-7.21,2.92-.09,5.66.73,8.13,2.28l-1.19,2.92c-2.1-1.37-4.47-2.01-6.94-2.1-4.29,0-6.21,1.83-6.21,4.02,0,6.21,15.34,2.28,15.34,11.6,0,3.84-3.1,7.21-9.77,7.21-3.56.09-7.03-1-9.77-3.2"/>
          <path id="Caminho_2547" data-name="Caminho 2547" class="cls-28" d="m1577.17,625.38c0,5.48-4.02,8.86-10.59,8.86h-6.3v7.67h-3.65v-25.39h10.05c6.57,0,10.5,3.38,10.5,8.86m-3.56,0c0-3.65-2.47-5.66-7.03-5.66h-6.21v11.41h6.21c4.57-.09,7.03-2.1,7.03-5.75"/>
          <path id="Caminho_2548" data-name="Caminho 2548" class="cls-28" d="m1600.91,638.71v3.2h-18.36v-25.39h17.9v3.2h-14.25v7.76h12.69v3.1h-12.69v8.22h14.7v-.09Z"/>
          <path id="Caminho_2549" data-name="Caminho 2549" class="cls-28" d="m1604.57,629.22c0-7.49,5.75-12.97,13.42-12.97,3.65-.18,7.12,1.28,9.59,3.93l-2.37,2.28c-1.83-2.01-4.47-3.1-7.12-3.01-5.39-.09-9.86,4.11-9.95,9.5-.09,5.39,4.11,9.86,9.5,9.95h.46c2.74.09,5.3-1,7.12-3.01l2.37,2.28c-2.47,2.65-6.03,4.11-9.68,4.02-7.03.27-13.06-5.11-13.42-12.24.09-.18.09-.46.09-.73"/>
          <rect id="Retângulo_173" data-name="Retângulo 173" class="cls-28" x="1632.87" y="616.52" width="3.65" height="25.3"/>
          <path id="Caminho_2550" data-name="Caminho 2550" class="cls-28" d="m1660.18,635.52h-13.52l-2.83,6.3h-3.74l11.51-25.39h3.56l11.51,25.39h-3.84l-2.65-6.3h0Zm-1.19-2.83l-5.48-12.42-5.48,12.42h10.96Z"/>
          <path id="Caminho_2551" data-name="Caminho 2551" class="cls-28" d="m1670.59,616.52h3.65v22.19h13.7v3.2h-17.35v-25.39h0Z"/>
          <rect id="Retângulo_174" data-name="Retângulo 174" class="cls-28" x="1692.05" y="616.52" width="3.65" height="25.3"/>
          <path id="Caminho_2552" data-name="Caminho 2552" class="cls-28" d="m1722.18,638.71v3.2h-21.19v-2.47l15.89-19.72h-15.71v-3.2h20.46v2.47l-15.89,19.72h16.44Z"/>
          <path id="Caminho_2553" data-name="Caminho 2553" class="cls-28" d="m1743.19,635.52h-13.52l-2.83,6.3h-3.74l11.51-25.39h3.56l11.51,25.39h-3.84l-2.65-6.3h0Zm-1.19-2.83l-5.48-12.42-5.48,12.42h10.96Z"/>
          <path id="Caminho_2554" data-name="Caminho 2554" class="cls-28" d="m1771.86,635.88l2.37,2.28c-2.47,2.56-5.84,4.02-9.41,4.02l-.37,1.55c2.1.18,3.1,1.37,3.1,3.01,0,2.01-1.74,3.29-4.47,3.29-1.1,0-2.28-.27-3.2-.82l.73-1.74c.73.46,1.64.64,2.47.64,1.37,0,2.01-.55,2.01-1.46,0-.82-.64-1.37-2.1-1.37h-1l.82-3.1c-6.67-.55-11.78-6.12-11.69-12.88,0-7.49,5.75-12.97,13.42-12.97,3.65-.18,7.12,1.28,9.68,3.93l-2.37,2.28c-1.83-2.01-4.47-3.1-7.12-3.01-5.39-.09-9.86,4.2-9.95,9.59-.09,5.39,4.2,9.77,9.59,9.95h.37c2.65-.09,5.3-1.19,7.12-3.2"/>
          <path id="Caminho_2555" data-name="Caminho 2555" class="cls-28" d="m1794.97,635.52h-13.52l-2.83,6.3h-3.74l11.51-25.39h3.56l11.51,25.39h-3.84l-2.65-6.3h0Zm-10.87-21.28h-1.92c.09-2.65,1.46-4.38,3.56-4.38,2.28,0,3.47,2.47,4.84,2.47,1.1,0,1.74-.82,1.83-2.19h1.92c-.09,2.56-1.46,4.29-3.56,4.29-2.28,0-3.47-2.47-4.84-2.47-1,0-1.74.82-1.83,2.28m9.59,18.45l-5.48-12.42-5.48,12.42h10.96Z"/>
          <path id="Caminho_2556" data-name="Caminho 2556" class="cls-28" d="m1802.82,629.22c0-7.4,5.75-12.97,13.52-12.97,7.12-.27,13.15,5.39,13.42,12.51.27,7.12-5.39,13.15-12.51,13.42h-.91c-7.76,0-13.52-5.57-13.52-12.97m23.38,0c.09-5.48-4.29-9.86-9.77-9.95-5.48-.09-9.86,4.29-9.95,9.77-.09,5.48,4.29,9.86,9.77,9.95h.18c5.3.18,9.68-3.93,9.77-9.22,0-.18,0-.37,0-.55"/>
          <path id="Caminho_2557" data-name="Caminho 2557" class="cls-28" d="m1528.41,682.18v3.2h-18.45v-25.39h17.9v3.2h-14.25v7.76h12.69v3.1h-12.69v8.22l14.79-.09h0Z"/>
          <path id="Caminho_2558" data-name="Caminho 2558" class="cls-28" d="m1557.72,685.38v-18.45l-9.13,15.34h-1.64l-9.13-15.25v18.36h-3.47v-25.39h2.92l10.59,17.81,10.41-17.81h2.92v25.39h-3.47Z"/>
          <path id="Caminho_2559" data-name="Caminho 2559" class="cls-28" d="m1578.54,659.99h10.68c8.13,0,13.7,5.11,13.7,12.69s-5.57,12.69-13.7,12.69h-10.68v-25.39h0Zm10.5,22.19c6.3,0,10.32-3.84,10.32-9.5s-4.02-9.5-10.32-9.5h-6.85v18.99h6.85Z"/>
          <rect id="Retângulo_175" data-name="Retângulo 175" class="cls-28" x="1608.49" y="659.99" width="3.65" height="25.39"/>
          <path id="Caminho_2560" data-name="Caminho 2560" class="cls-28" d="m1636.62,685.38l-5.48-7.76c-.55,0-1.1.09-1.64.09h-6.3v7.76h-3.65v-25.39h9.86c6.57,0,10.59,3.38,10.59,8.86.18,3.65-2.1,6.94-5.57,8.04l6.03,8.49-3.84-.09h0Zm-.09-16.53c0-3.65-2.47-5.66-7.03-5.66h-6.21v11.41h6.21c4.57-.09,7.03-2.19,7.03-5.75"/>
          <path id="Caminho_2561" data-name="Caminho 2561" class="cls-28" d="m1664.38,682.18v3.2h-18.36v-25.39h17.9v3.2h-14.25v7.76h12.69v3.1h-12.69v8.22l14.7-.09h0Z"/>
          <rect id="Retângulo_176" data-name="Retângulo 176" class="cls-28" x="1670.22" y="659.99" width="3.65" height="25.39"/>
          <path id="Caminho_2562" data-name="Caminho 2562" class="cls-28" d="m1686.57,663.19h-8.68v-3.2h21v3.2h-8.68v22.19h-3.56l-.09-22.19h0Z"/>
          <path id="Caminho_2563" data-name="Caminho 2563" class="cls-28" d="m1700.36,672.69c0-7.4,5.75-12.97,13.52-12.97,7.12-.27,13.15,5.39,13.42,12.51.27,7.12-5.39,13.15-12.51,13.42h-.91c-7.85,0-13.52-5.57-13.52-12.97m23.29,0c.09-5.48-4.29-9.86-9.77-9.95-5.48-.09-9.86,4.29-9.95,9.77s4.29,9.86,9.77,9.95h.18c5.3.18,9.68-3.93,9.77-9.22,0-.18,0-.37,0-.55"/>
          <path id="Caminho_2564" data-name="Caminho 2564" class="cls-28" d="m1507.68,725.92l1.37-2.83c2.37,1.92,5.3,2.92,8.4,2.92,4.38,0,6.3-1.74,6.3-3.93,0-6.21-15.34-2.28-15.34-11.69,0-3.93,3.01-7.21,9.68-7.21,2.92-.09,5.66.73,8.13,2.28l-1.19,2.92c-2.1-1.37-4.47-2.01-6.94-2.1-4.29,0-6.21,1.83-6.21,4.02,0,6.21,15.34,2.28,15.34,11.6,0,3.84-3.1,7.21-9.77,7.21-3.56.09-7.03-1-9.77-3.2"/>
          <path id="Caminho_2565" data-name="Caminho 2565" class="cls-28" d="m1548.59,722.45h-13.52l-2.74,6.3h-3.74l11.51-25.39h3.56l11.51,25.39h-3.84l-2.74-6.3h0Zm-1.19-2.92l-5.48-12.42-5.48,12.42h10.96Z"/>
          <path id="Caminho_2566" data-name="Caminho 2566" class="cls-28" d="m1580.82,703.46v25.39h-2.92l-15.25-18.9v18.9h-3.65v-25.39h2.92l15.25,18.9v-18.9h3.65Z"/>
          <rect id="Retângulo_177" data-name="Retângulo 177" class="cls-28" x="1588.4" y="703.46" width="3.65" height="25.39"/>
          <path id="Caminho_2567" data-name="Caminho 2567" class="cls-28" d="m1604.66,706.56h-8.68v-3.2h21v3.2h-8.68v22.19h-3.56l-.09-22.19h0Z"/>
          <path id="Caminho_2568" data-name="Caminho 2568" class="cls-28" d="m1635.7,722.45h-13.52l-2.74,6.3h-3.74l11.51-25.39h3.56l11.51,25.39h-3.84l-2.74-6.3h0Zm-1.28-2.92l-5.48-12.42-5.48,12.42h10.96Zm-4.84-18.17h-3.29l4.93-4.75h4.38l-6.03,4.75h0Z"/>
          <path id="Caminho_2569" data-name="Caminho 2569" class="cls-28" d="m1663.01,728.76l-5.48-7.76c-.55,0-1.1.09-1.64.09h-6.3v7.76h-3.65v-25.39h9.86c6.57,0,10.59,3.38,10.59,8.86.18,3.65-2.1,6.94-5.57,8.04l6.03,8.49-3.84-.09h0Zm-.09-16.44c0-3.65-2.47-5.66-7.03-5.66h-6.21v11.41h6.21c4.66-.09,7.03-2.19,7.03-5.75"/>
          <rect id="Retângulo_178" data-name="Retângulo 178" class="cls-28" x="1672.42" y="703.46" width="3.65" height="25.39"/>
          <path id="Caminho_2570" data-name="Caminho 2570" class="cls-28" d="m1681.55,716.15c0-7.4,5.75-12.97,13.52-12.97,7.12-.27,13.15,5.39,13.42,12.51.27,7.12-5.39,13.15-12.51,13.42h-.91c-7.76,0-13.52-5.57-13.52-12.97m23.29,0c.09-5.48-4.29-9.86-9.77-9.95-5.48-.09-9.86,4.29-9.95,9.77s4.29,9.86,9.77,9.95h.18c5.3.18,9.68-3.93,9.77-9.22,0-.27,0-.46,0-.55"/>
          <path id="Caminho_2571" data-name="Caminho 2571" class="cls-18" d="m1509.68,591.05c.37-5.75,5.3-10.05,11.05-9.77,2.65.18,5.21,1.37,7.03,3.29l-2.83,2.56c-1.19-1.37-2.92-2.19-4.75-2.19-3.2-.18-5.94,2.28-6.03,5.48v.55c-.18,3.2,2.28,5.94,5.48,6.03h.55c1.83,0,3.56-.82,4.75-2.28l2.83,2.56c-3.84,4.2-10.41,4.47-14.61.64-2.1-1.64-3.29-4.2-3.47-6.85"/>
          <path id="Caminho_2572" data-name="Caminho 2572" class="cls-18" d="m1530.32,592.14v-10.59h4.38v10.41c0,3.56,1.55,5.02,4.2,5.02s4.2-1.46,4.2-5.02v-10.41h4.29v10.59c0,5.57-3.2,8.68-8.58,8.68s-8.49-3.1-8.49-8.68"/>
          <path id="Caminho_2573" data-name="Caminho 2573" class="cls-18" d="m1563.75,600.45l-3.65-5.3h-4.02v5.3h-4.38v-18.9h8.22c5.02,0,8.22,2.65,8.22,6.85.09,2.65-1.46,5.02-3.84,5.94l4.2,6.03h-4.75v.09Zm-4.11-15.34h-3.56v6.57h3.56c2.65,0,4.02-1.28,4.02-3.29s-1.28-3.29-4.02-3.29"/>
          <path id="Caminho_2574" data-name="Caminho 2574" class="cls-18" d="m1570.05,598.63l1.46-3.29c1.83,1.28,4.02,1.92,6.21,2.01,2.56,0,3.65-.82,3.65-2.01,0-3.56-10.96-1.1-10.96-8.13,0-3.2,2.56-5.84,7.94-5.84,2.28,0,4.57.55,6.57,1.64l-1.37,3.29c-1.55-.91-3.38-1.46-5.21-1.46-2.56,0-3.56,1-3.56,2.19,0,3.47,10.96,1.1,10.96,8.04,0,3.2-2.65,5.84-8.04,5.84-2.65-.09-5.39-.82-7.67-2.28"/>
          <path id="Caminho_2575" data-name="Caminho 2575" class="cls-18" d="m1587.58,591.05c0-5.39,4.38-9.77,9.77-9.77h.55c5.94,0,10.32,4.11,10.32,9.77s-4.38,9.77-10.32,9.77c-5.39.27-10.05-3.84-10.32-9.22v-.55m16.25,0c.09-3.29-2.56-5.94-5.84-6.03s-5.94,2.56-6.03,5.84v.18c-.09,3.29,2.56,5.94,5.84,6.03,3.29.09,5.94-2.56,6.03-5.84v-.18"/>
          <path id="Caminho_2576" data-name="Caminho 2576" class="cls-18" d="m1619.18,581.55h8.58c6.21,0,10.41,3.74,10.41,9.41s-4.2,9.41-10.41,9.41h-8.58v-18.81h0Zm8.31,15.34c3.74,0,6.21-2.28,6.21-5.84s-2.47-5.84-6.21-5.84h-4.02v11.69h4.02Z"/>
          <path id="Caminho_2577" data-name="Caminho 2577" class="cls-18" d="m1656.07,596.98v3.47h-14.61v-18.9h14.25v3.47h-9.95v4.11h8.77v3.38h-8.77v4.38l10.32.09h0Z"/>
        </g>
      </g>
    </g>
    <g>
      <g id="_Layer_" data-name=" Layer ">
        <path class="cls-25" d="m1530.99,1017.24c.62,0,1.14-.1,1.55-.21s.83-.31,1.24-.73c.73-.62,1.04-1.45,1.04-2.38,0-.52-.1-1.04-.31-1.45-.21-.41-.52-.83-.93-1.14-.31-.31-.73-.41-1.24-.52-.41-.1-.93-.1-1.66-.1h-1.66v6.53h1.97Zm-1.87,8.5h-1.04v-16.07h2.8c.73,0,1.45.1,1.97.21s1.04.41,1.45.73c.52.41.83.93,1.04,1.45.21.62.31,1.14.31,1.87,0,.62-.1,1.14-.31,1.76-.21.62-.52,1.04-.93,1.45s-.93.62-1.55.83c-.62.1-1.24.21-1.97.21h-1.87l.1,7.57h0Z"/>
        <path class="cls-25" d="m1540.01,1017.24c.62,0,1.14-.1,1.55-.1.41-.1.83-.31,1.24-.62.31-.31.62-.62.83-1.14.21-.41.31-.93.31-1.45,0-.62-.1-1.24-.41-1.76s-.73-.93-1.24-1.14c-.31-.1-.73-.21-1.14-.31s-1.04-.1-1.76-.1h-.62v6.53l1.24.1h0Zm5.6,8.5h-1.14l-5.29-7.57h-.52v7.57h-1.04v-16.07h1.97c.83,0,1.55.1,2.07.1s1.04.31,1.55.62c.52.41.93.83,1.24,1.45.21.62.41,1.24.41,1.97,0,1.35-.41,2.38-1.24,3.11-.83.73-1.97,1.04-3.32,1.04l5.29,7.77h0Z"/>
        <path class="cls-25" d="m1552.35,1011.02c-.83.41-1.66.93-2.38,1.55s-1.24,1.45-1.55,2.38c-.41.93-.62,1.87-.62,2.8s.21,1.87.62,2.8c.41.93.93,1.66,1.55,2.28.62.62,1.45,1.24,2.38,1.55.93.31,1.87.62,2.8.62s1.87-.21,2.8-.62c.83-.41,1.66-.93,2.38-1.55s1.24-1.45,1.55-2.38c.41-.93.62-1.87.62-2.8s-.21-1.87-.52-2.8c-.31-.93-.93-1.66-1.55-2.38s-1.45-1.24-2.38-1.55-1.87-.52-2.8-.52-2.07.31-2.9.62m5.91-.83c1.04.41,1.87,1.04,2.7,1.76.83.73,1.35,1.66,1.87,2.7.52,1.04.62,2.07.62,3.21s-.21,2.18-.62,3.21-1.04,1.87-1.87,2.7-1.66,1.35-2.7,1.76c-1.04.41-2.07.62-3.21.62s-2.18-.21-3.21-.62-1.87-1.04-2.7-1.76c-.83-.73-1.35-1.66-1.87-2.7-.41-1.04-.62-2.07-.62-3.21s.21-2.18.62-3.21,1.04-1.87,1.87-2.7,1.66-1.35,2.7-1.76,2.07-.62,3.21-.62,2.28.21,3.21.62"/>
        <path class="cls-25" d="m1568.83,1024.81c1.14,0,2.18-.1,3.01-.41.83-.31,1.66-.83,2.38-1.45.73-.73,1.24-1.45,1.55-2.38.31-.93.52-1.87.52-2.7,0-1.04-.21-1.97-.62-2.9-.41-.93-.93-1.76-1.76-2.38-.73-.62-1.45-1.14-2.28-1.35-.83-.21-1.76-.41-2.9-.41h-1.87v14.1l1.97-.1h0Zm-2.9-15.03h2.9c1.24,0,2.38.1,3.32.41.93.31,1.87.83,2.7,1.55.83.83,1.45,1.66,1.87,2.7s.62,2.18.62,3.32-.21,2.18-.62,3.21-1.04,1.87-1.87,2.7c-.83.83-1.76,1.35-2.7,1.66-.93.31-2.07.41-3.32.41h-2.9v-15.96h0Z"/>
        <rect class="cls-25" x="1579.82" y="1009.77" width="1.04" height="16.07"/>
        <path class="cls-25" d="m1591.43,1012.37c-.41-.62-.83-1.04-1.35-1.45-.52-.31-1.14-.52-1.87-.52-.83,0-1.55.31-2.18.93-.62.62-.83,1.35-.83,2.18,0,.41.1.73.21,1.04.21.31.31.52.62.83s.52.41.83.52.62.31,1.04.52l.1.1,3.01,1.55c.62.41,1.04.83,1.35,1.35s.41,1.14.41,1.87c0,.62-.1,1.24-.41,1.87-.31.52-.62,1.04-1.14,1.45-.41.41-1.04.73-1.66.93s-1.24.31-1.87.31c-1.14,0-2.07-.31-2.9-.93s-1.45-1.45-1.87-2.49l.93-.41c.31.93.83,1.55,1.45,2.07.62.52,1.45.83,2.38.83.52,0,1.04-.1,1.45-.31s.93-.41,1.24-.83c.31-.31.62-.73.83-1.24s.31-.93.31-1.45c0-.41-.1-.73-.21-1.04-.21-.31-.41-.62-.73-.83s-.52-.41-.83-.62c-.31-.21-.73-.41-1.14-.62-.1-.1-.21-.1-.31-.1l-2.9-1.55c-1.14-.73-1.66-1.66-1.66-2.9s.41-2.18,1.14-2.9c.73-.73,1.76-1.14,2.9-1.14.83,0,1.55.21,2.28.62.73.41,1.24.93,1.66,1.66l-.31.73h0Z"/>
        <path class="cls-25" d="m1599.82,1011.85l-3.11,7.77h6.22l-3.11-7.77h0Zm-3.52,8.71l-2.18,5.29h-1.04l6.74-16.59,6.74,16.59h-1.04l-2.18-5.29h-7.05Z"/>
        <path class="cls-4" d="m1530.47,958.98h.31c.62,0,1.14.1,1.45.31.31.21.52.62.52,1.24s-.21,1.04-.41,1.35-.83.31-1.45.31h-.41v-3.21h0Zm0,4.87h1.04c1.14,0,1.97-.31,2.49-.83s.83-1.35.83-2.49-.31-1.97-.93-2.49-1.55-.83-2.7-.83h-2.8v10.57h2.07v-3.94h0Z"/>
        <path class="cls-4" d="m1537.63,958.88h.31c.62,0,1.14.1,1.45.31s.52.62.52,1.24-.21,1.04-.52,1.24-.83.31-1.45.31h-.31v-3.11h0Zm0,4.66h0l2.59,4.25h2.49l-3.01-4.46c.73-.1,1.24-.41,1.55-1.04.41-.52.62-1.24.62-1.97,0-1.14-.31-1.87-.93-2.38s-1.45-.83-2.59-.83h-2.8v10.57h2.07v-4.15h0Z"/>
        <path class="cls-4" d="m1545.19,961.16c.1-.41.31-.83.62-1.14s.62-.62,1.04-.83c.41-.21.83-.31,1.24-.31s.93.1,1.24.31c.41.21.73.41,1.04.83s.52.73.62,1.14.21.83.21,1.24-.1.83-.21,1.24c-.1.41-.31.83-.52,1.14-.21.31-.62.62-.93.83-.41.21-.83.31-1.45.31s-1.04-.1-1.45-.31c-.41-.21-.73-.52-.93-.83-.21-.31-.41-.73-.52-1.14s-.21-.83-.21-1.24.1-.83.21-1.24m-.93,5.39c.41.52,1.04.93,1.66,1.24.62.31,1.35.41,2.18.41s1.55-.1,2.18-.41,1.24-.73,1.66-1.24c.41-.52.83-1.14,1.04-1.76s.31-1.45.31-2.18-.1-1.55-.41-2.18c-.21-.73-.62-1.24-1.04-1.76s-1.04-.93-1.66-1.14-1.35-.41-2.18-.41-1.45.1-2.18.41c-.73.31-1.24.73-1.66,1.24-.41.52-.83,1.14-1.04,1.76-.21.73-.41,1.45-.41,2.18s.1,1.55.31,2.18c.52.52.83,1.14,1.24,1.66"/>
        <path class="cls-4" d="m1555.25,966.44c.41.52.93.93,1.66,1.24.62.31,1.35.41,2.07.41.83,0,1.45-.21,2.07-.41.62-.31,1.14-.73,1.55-1.24s.73-1.14.93-1.87c.21-.73.31-1.35.31-2.18v-.31h-4.56v1.76h2.28c0,.31-.1.62-.21.93s-.31.52-.52.83c-.21.21-.41.41-.73.52s-.62.21-.93.21c-.52,0-.93-.1-1.24-.31-.41-.21-.73-.52-.93-.83s-.41-.73-.62-1.24c-.1-.41-.21-.93-.21-1.35s.1-.93.21-1.35.31-.83.62-1.24c.21-.31.52-.73.93-.93.41-.21.83-.31,1.24-.31.52,0,1.04.21,1.45.41.41.31.73.73.93,1.24l1.87-.93c-.41-.83-.93-1.45-1.76-1.87-.73-.41-1.55-.62-2.49-.62-.83,0-1.45.21-2.07.41-.62.31-1.24.73-1.66,1.24s-.83,1.14-1.04,1.76c-.21.73-.31,1.35-.31,2.18s.1,1.45.31,2.07.41,1.24.83,1.76"/>
        <path class="cls-4" d="m1566.86,958.88h.31c.62,0,1.14.1,1.45.31s.52.62.52,1.24-.21,1.04-.52,1.24-.83.31-1.45.31h-.31c0,.1,0-3.11,0-3.11Zm0,4.66h0l2.59,4.25h2.49l-3.01-4.46c.73-.1,1.24-.41,1.55-1.04.41-.52.62-1.24.62-1.97,0-1.14-.31-1.87-.93-2.38s-1.45-.83-2.59-.83h-2.8v10.57h2.07v-4.15h0Z"/>
        <path class="cls-4" d="m1575.67,963.96l1.14-3.84h0l1.35,3.84h-2.49Zm3.84,3.94h2.18l-4.04-10.88h-1.66l-4.15,10.88h2.18l.83-2.28h3.73l.93,2.28h0Z"/>
        <polygon class="cls-4" points="1584.79 961.26 1584.79 961.26 1587.18 968 1587.9 968 1590.29 961.26 1590.29 961.26 1591.22 967.89 1593.29 967.89 1591.63 956.91 1590.18 956.91 1587.69 963.96 1585 956.91 1583.55 956.91 1581.79 967.89 1583.86 967.89 1584.79 961.26"/>
        <path class="cls-4" d="m1596.92,963.96l1.14-3.84h0l1.35,3.84h-2.49Zm2.18-7.05h-1.66l-4.15,10.88h2.18l.83-2.28h3.73l.83,2.28h2.18l-3.94-10.88c-.1,0,0,0,0,0Z"/>
        <path class="cls-4" d="m1530.47,982.93v-7.05h.31c2.38,0,3.52,1.14,3.52,3.52,0,1.14-.31,1.97-.83,2.59s-1.45.93-2.7.93h-.31Zm2.9,1.45c.62-.31,1.14-.62,1.66-1.14.41-.52.83-1.04,1.04-1.66s.41-1.35.41-2.07-.1-1.45-.31-2.07c-.21-.62-.62-1.24-1.04-1.66-.41-.52-1.04-.83-1.66-1.14-.62-.21-1.35-.41-2.07-.41h-3.01v10.57h2.9c.83,0,1.45-.21,2.07-.41"/>
        <polygon class="cls-4" points="1543.02 975.98 1543.02 974.11 1537.52 974.11 1537.52 984.79 1543.02 984.79 1543.02 982.93 1539.6 982.93 1539.6 980.13 1542.81 980.13 1542.81 978.26 1539.6 978.26 1539.6 975.98 1543.02 975.98"/>
        <path class="cls-4" d="m1553.59,982.1c-.52.62-1.45.93-2.7.93h-.31v-7.05h.31c2.38,0,3.52,1.14,3.52,3.52,0,1.04-.31,1.97-.83,2.59m2.9-2.59c0-.73-.1-1.45-.31-2.07-.21-.62-.62-1.24-1.04-1.66-.41-.52-1.04-.83-1.66-1.14-.62-.21-1.35-.41-2.07-.41h-3.01v10.57h2.9c.73,0,1.45-.1,2.07-.41.62-.31,1.24-.62,1.66-1.14.41-.52.83-1.04,1.04-1.66.31-.62.52-1.35.41-2.07"/>
        <rect class="cls-4" x="1557.53" y="974.11" width="2.07" height="10.57"/>
        <path class="cls-4" d="m1563.33,975.88h.31c.62,0,1.14.1,1.45.31s.52.62.52,1.24-.21,1.04-.52,1.24-.83.31-1.45.31h-.31v-3.11h0Zm-2.07,8.91h2.07v-4.35h0l2.59,4.25h2.49l-3.01-4.46c.73-.1,1.24-.41,1.55-1.04.41-.52.62-1.24.62-1.97,0-1.14-.31-1.87-.93-2.38s-1.45-.83-2.59-.83h-2.8v10.78h0Z"/>
        <polygon class="cls-4" points="1569.14 984.79 1574.63 984.79 1574.63 982.93 1571.21 982.93 1571.21 980.13 1574.43 980.13 1574.43 978.26 1571.21 978.26 1571.21 975.98 1574.63 975.98 1574.63 974.11 1569.14 974.11 1569.14 984.79"/>
        <rect class="cls-4" x="1575.98" y="974.11" width="2.07" height="10.57"/>
        <polygon class="cls-4" points="1584.9 974.11 1578.57 974.11 1578.57 975.98 1580.75 975.98 1580.75 984.79 1582.82 984.79 1582.82 975.98 1584.9 975.98 1584.9 974.11"/>
        <path class="cls-4" d="m1586.97,980.65c-.1-.41-.21-.83-.21-1.24s.1-.83.21-1.24.31-.83.62-1.14.62-.62,1.04-.83c.41-.21.83-.31,1.24-.31s.93.1,1.24.31c.41.21.73.41.93.83s.52.73.62,1.14.21.83.21,1.24-.1.83-.21,1.24c-.1.41-.31.83-.52,1.14s-.62.62-.93.83c-.41.21-.83.31-1.45.31s-1.04-.1-1.45-.31c-.41-.21-.73-.52-.93-.83s-.21-.73-.41-1.14m3.01,4.35c.83,0,1.45-.1,2.18-.41s1.24-.73,1.66-1.24.83-1.14,1.04-1.76.31-1.45.31-2.18-.1-1.55-.41-2.18-.62-1.24-1.04-1.76-1.04-.93-1.66-1.14-1.35-.41-2.18-.41-1.45.1-2.18.41-1.24.73-1.66,1.24c-.41.52-.83,1.14-1.04,1.76-.21.73-.41,1.45-.41,2.18s.1,1.55.31,2.18c.21.73.62,1.24,1.04,1.76s1.04.93,1.66,1.24c.93.21,1.66.41,2.38.31"/>
        <path class="cls-4" d="m1534.52,997.13c-.21-.31-.31-.62-.62-.93-.21-.21-.52-.41-.83-.62-.31-.1-.62-.31-1.04-.41-.52-.21-.93-.41-1.24-.62-.21-.21-.41-.41-.41-.83s.1-.62.41-.83c.21-.21.52-.31.93-.31s.62.1.93.21.52.31.73.62l.93-1.45c-.31-.31-.73-.62-1.35-.83s-1.14-.31-1.55-.31-.83.1-1.24.21-.73.41-.93.73-.52.62-.62,1.04c-.21.41-.21.83-.21,1.24s.1.73.21,1.04.31.52.52.83.41.41.73.62c.31.21.62.31.93.52.1,0,.21.1.21.1.21.1.52.21.62.31.21.1.31.21.52.31s.31.31.41.41.1.41.1.62c0,.41-.1.83-.41,1.04-.21.31-.62.41-.93.41-.41,0-.83-.1-1.14-.41-.31-.31-.62-.62-.73-1.14l-1.35,1.35c.41.62.83,1.14,1.35,1.55s1.14.52,1.87.52c1.04,0,1.97-.31,2.59-1.04.62-.62.93-1.55.93-2.59-.1-.62-.21-1.04-.31-1.35"/>
        <path class="cls-4" d="m1538.25,997.75l1.14-3.84h0l1.35,3.84h-2.49Zm.52-6.95l-4.15,10.88h2.18l.83-2.28h3.73l.83,2.28h2.18l-3.94-10.88h-1.66Z"/>
        <polygon class="cls-4" points="1552.14 998.16 1552.14 998.16 1546.54 990.8 1545.09 990.8 1545.09 1001.69 1547.16 1001.69 1547.16 994.43 1547.16 994.43 1552.76 1001.9 1554.21 1001.9 1554.21 991.01 1552.14 991.01 1552.14 998.16"/>
        <rect class="cls-4" x="1555.87" y="991.01" width="2.07" height="10.57"/>
        <polygon class="cls-4" points="1564.79 991.01 1558.46 991.01 1558.46 992.88 1560.64 992.88 1560.64 1001.69 1562.71 1001.69 1562.71 992.88 1564.79 992.88 1564.79 991.01"/>
        <path class="cls-4" d="m1568.31,997.75l1.14-3.84h0l1.35,3.84h-2.49Zm.52-6.95l-4.15,10.88h2.18l.83-2.28h3.73l.83,2.28h2.18l-3.94-10.88h-1.66Z"/>
        <polygon class="cls-4" points="1571.63 988.42 1570.18 987.59 1568.41 989.97 1569.45 990.6 1571.63 988.42"/>
        <path class="cls-4" d="m1577.43,995.99h-.31v-3.21h.31c.62,0,1.14.1,1.45.31s.52.62.52,1.24-.21,1.04-.52,1.24c-.31.31-.83.41-1.45.41m3.42.21c.41-.52.62-1.24.62-1.97,0-1.14-.31-1.87-.93-2.38s-1.45-.83-2.59-.83h-2.8v10.68h2.07v-4.25h0l2.59,4.25h2.49l-3.01-4.46c.62-.1,1.24-.41,1.55-1.04"/>
        <rect class="cls-4" x="1583.03" y="991.01" width="2.07" height="10.57"/>
        <path class="cls-4" d="m1594.33,997.54c-.1.41-.31.83-.52,1.14s-.62.62-.93.83c-.41.21-.83.31-1.45.31s-1.04-.1-1.45-.31-.73-.52-.93-.83-.41-.73-.52-1.14c-.1-.41-.21-.83-.21-1.24s.1-.83.21-1.24.31-.83.62-1.14c.31-.31.62-.62,1.04-.83.41-.21.83-.31,1.24-.31s.93.1,1.24.31c.41.21.73.41,1.04.83.31.31.52.73.62,1.14.1.41.21.83.21,1.24s-.1.83-.21,1.24m.93-5.18c-.41-.52-1.04-.93-1.66-1.14s-1.35-.41-2.18-.41-1.45.1-2.18.41-1.24.73-1.66,1.24-.83,1.14-1.04,1.76c-.21.73-.41,1.45-.41,2.18s.1,1.55.31,2.18c.21.73.62,1.24,1.04,1.76s1.04.93,1.66,1.24,1.35.41,2.18.41,1.55-.1,2.18-.41c.62-.31,1.24-.73,1.66-1.24s.83-1.14,1.04-1.76.31-1.45.31-2.18-.1-1.55-.41-2.18-.31-1.35-.83-1.87"/>
        <g class="cls-6">
          <g class="cls-17">
            <rect class="cls-5" x="1464.76" y="956.12" width="54.11" height="53.8" transform="translate(-246.88 1393.87) rotate(-46.68)"/>
          </g>
        </g>
        <g class="cls-11">
          <g class="cls-21">
            <rect class="cls-5" x="1436.75" y="951.2" width="86.56" height="85.62" transform="translate(-258.57 1388.74) rotate(-46.68)"/>
          </g>
        </g>
        <g class="cls-7">
          <g class="cls-9">
            <g class="cls-19">
              <rect class="cls-15" x="1475.43" y="943.33" width="45.72" height="53.9"/>
            </g>
          </g>
        </g>
        <path d="m1462.78,958.88c-.1,0,.21.52.1.62l-.62,1.35c24.15-1.87,41.36,10.99,41.05,29.44-.31,13.37-10.37,26.33-25.09,34.31,16.9-7.67,28.82-21.77,29.13-36.39.52-19.59-18.66-32.96-44.57-29.34"/>
        <path class="cls-12" d="m1477.81,943.02h-.21l-.1.73c24.78.73,42.29,15.65,39.29,34.11-.93,5.81-3.84,11.3-8.09,16.17-.52,1.04-1.04,1.97-1.66,3.01,6.43-5.6,10.68-12.44,11.82-19.9,3.01-18.87-15.45-34.11-41.05-34.11m-20.63,67.17h-.21l16.38-57.01c-3.11-.52-6.43-.83-9.85-.83h-.21l-.1.73c2.8.1,5.49.31,8.09.73l-16.38,57.01h.21c10.26,1.24,20.53,0,29.34-3.11-8.29,2.7-17.73,3.63-27.26,2.49m14.82,7.46c10.26-3.21,19.18-8.71,25.09-15.65-.93.62-1.97,1.14-3.01,1.76-5.49,5.91-13.27,10.78-22.08,13.89"/>
        <g class="cls-13">
          <g class="cls-24">
            <g class="cls-1">
              <rect class="cls-15" x="1451.79" y="952.76" width="44.57" height="68.21"/>
            </g>
          </g>
        </g>
      </g>
      <g>
        <path d="m1768.06,994.43h6.32v-1.35h-4.15l4.04-5.49v-1.35h-5.91v1.35h3.84l-4.04,5.49-.1,1.35h0Zm-2.9-8.19v4.46c0,1.35-.1,2.7-1.76,2.7s-1.76-1.24-1.76-2.7v-4.46h-1.76v5.08c0,2.18,1.55,3.21,3.52,3.21s3.52-1.04,3.52-3.21v-5.08h-1.76Zm-11.4,4.87h1.87c.62,0,.73.62.73,1.14.1.73.21,1.45.31,2.18h1.97c-.31-.41-.41-1.45-.52-1.97-.1-1.14-.1-1.97-1.45-2.07h0c1.04-.21,1.66-.93,1.66-1.97,0-1.66-1.45-2.07-2.8-2.18h-3.42v8.19h1.76l-.1-3.32h0Zm0-3.52h1.45c.83,0,1.24.31,1.24,1.04s-.41,1.14-1.24,1.14h-1.45v-2.18h0Zm-2.7,1.35c-.1-2.07-1.55-2.8-3.42-2.8-2.38,0-3.42,1.87-3.42,4.25s1.04,4.25,3.42,4.25c1.87,0,3.32-.73,3.42-2.8h-1.87c0,.83-.52,1.55-1.55,1.55-1.24,0-1.55-1.87-1.55-3.01s.31-3.01,1.55-3.01c1.04,0,1.55.73,1.55,1.55h1.87Zm-11.61-1.55c1.76,0,2.07,1.55,2.07,3.01s-.31,3.01-2.07,3.01-2.07-1.66-2.07-3.01.31-3.01,2.07-3.01m0,7.26c2.7,0,3.94-1.87,3.94-4.25s-1.24-4.25-3.94-4.25-3.94,1.87-3.94,4.25,1.24,4.25,3.94,4.25m-5.18-8.4h-1.76v8.19h1.76v-8.19Zm-6.22,8.19v-3.52h3.32v-1.35h-3.32v-1.97h3.52v-1.35h-5.29v8.19h1.76Z"/>
        <path d="m1761.32,1026.05c0-.31.21-.83.73-.83s.83.41.83.73v.52c-.73,0-1.55,0-2.28.31-1.04.41-1.24,1.45-1.24,1.87,0,1.14.83,1.66,1.87,1.66.73,0,1.35-.31,1.76-.93h0v.73h1.55c0-.21-.1-.31-.1-.62v-3.11c0-1.66-1.24-2.18-2.38-2.18-.62,0-1.24.1-1.66.41-.41.21-.73.73-.83,1.45h1.76Zm1.55,1.45c0,.62,0,1.66-.93,1.66-.52,0-.83-.31-.83-.83-.1-.93,1.14-.83,1.76-.83m-4.66-5.49h-1.87v1.45h1.87v-1.45Zm0,2.49h-1.76v5.7h1.76v-5.7Zm-3.21-2.49h-1.66v8.19h1.66v-8.19Zm-4.77,8.19h1.76v-5.7h-1.76v5.7Zm1.04-8.19l-.93,1.66h.93l1.55-1.66h-1.55Zm-2.38,3.94c-.1-1.24-1.14-1.66-2.28-1.66-.93,0-2.49.52-2.49,1.66,0,1.35,1.04,1.55,2.07,1.87.31.1,1.14.31,1.14.73s-.31.62-.83.62-.93-.21-.93-.73h-1.55c0,1.35,1.14,1.87,2.49,1.87,1.04,0,2.59-.62,2.59-1.87,0-2.18-3.21-1.66-3.21-2.49,0-.41.21-.52.73-.52.41,0,.73.21.73.62l1.56-.1h0Zm-9.02.1c0-.31.21-.83.73-.83s.83.41.83.73v.52c-.73,0-1.55,0-2.28.31-1.04.41-1.24,1.45-1.24,1.87,0,1.14.83,1.66,1.87,1.66.83,0,1.35-.31,1.76-.93h0c0,.21,0,.52.1.73h1.55c0-.21-.1-.31-.1-.62v-3.11c0-1.66-1.24-2.18-2.38-2.18-.62,0-1.24.1-1.66.41-.41.21-.73.73-.73,1.45h1.55Zm1.55,1.45c0,.62,0,1.66-.93,1.66-.52,0-.83-.31-.83-.83-.1-.93,1.14-.93,1.76-.83m-7.77-3.11c0,.41.1.93.1,1.14v4.56h1.66v-2.8c0-.41.1-.73.21-1.04.21-.21.52-.41.83-.41h.73v-1.55c-.83,0-1.55.21-1.97,1.14h0v-1.04h-1.55Zm-4.25,5.7c1.24.1,3.32-.52,3.32-2.07,0-1.24-.73-1.97-1.76-2.18h0c.83-.31,1.45-.93,1.45-1.76,0-1.66-1.45-2.18-2.9-2.07h-3.11v8.19l3.01-.1h0Zm-1.35-4.87v-1.97h1.35c.73,0,1.14.31,1.14.93s-.41.93-1.14.93l-1.35.1h0Zm0,3.52v-2.18h1.35c.83,0,1.35.1,1.35,1.14s-.62,1.14-1.35,1.14l-1.35-.1h0Z"/>
        <path d="m1829.01,953.59c0-.93.52-1.66,1.45-1.66,1.04,0,1.45.73,1.45,1.66h-2.9Zm4.04.73v-.52c0-1.55-.83-2.7-2.49-2.7-1.87,0-2.7,1.35-2.7,3.11s.73,3.01,2.59,3.01c1.35,0,2.38-.62,2.59-1.97h-1.14c-.1.83-.62,1.14-1.35,1.14-1.14,0-1.45-1.04-1.45-2.07h3.94Zm-7.77-2.28h0c-.31-.73-1.04-.93-1.76-.93-1.76,0-2.59,1.45-2.59,3.01s.73,3.01,2.38,3.01c.83,0,1.55-.31,1.97-1.14h0v.93h1.14c0-.31-.1-.73-.1-1.04v-7.26h-1.04v3.42h0Zm-3.21,2.07c0-1.04.31-2.28,1.66-2.28s1.66,1.24,1.66,2.28-.31,2.28-1.66,2.28c-1.24,0-1.66-1.24-1.66-2.28m-3.84.1c0,.1,0,.83-.21,1.35-.21.62-.83.83-1.24.83-1.04,0-1.24-.73-1.24-1.76v-3.42h-1.04v3.84c0,1.14.73,2.07,1.87,2.07.83,0,1.55-.31,1.97-1.04h0v.83h1.04v-5.7h-1.14v3.01h0Zm-.93-5.49l-.93,1.66h.73l1.35-1.66h-1.14Zm-6.84,4.77c-1.35,0-2.8.52-2.8,2.07,0,1.14,1.04,1.66,1.97,1.66.73,0,1.45-.31,1.76-1.04h0c0,.31,0,.52.1.73,0,.1.21.1.31.1h.73v-3.94c0-1.55-1.14-1.97-2.28-1.97s-2.07.41-2.18,1.66h1.14c0-.62.52-.93,1.04-.93,1.14,0,1.24.62,1.24,1.55l-1.04.1h0Zm.93.73c0,1.04-.21,2.18-1.45,2.18-.62,0-1.14-.31-1.14-1.04,0-.83.83-1.04,1.55-1.14h1.04Zm-11.3.31c0,1.87,1.24,2.59,2.9,2.59s3.32-.73,3.32-2.49c0-2.07-2.07-2.07-3.52-2.59-.73-.21-1.35-.31-1.35-1.24s1.14-1.24,1.87-1.24,1.55.31,1.66,1.24h1.24c0-1.55-1.35-2.18-2.8-2.18-1.55,0-3.11.62-3.11,2.49s2.28,2.18,3.63,2.49c.73.1,1.35.52,1.35,1.24,0,1.14-1.14,1.45-2.07,1.45-1.14,0-1.76-.41-1.76-1.55l-1.35-.21h0Zm-6.74-1.04c-1.35,0-2.8.52-2.8,2.07,0,1.14,1.04,1.66,1.97,1.66.83,0,1.45-.31,1.76-1.04h0c0,.31,0,.52.1.73,0,.1.21.1.31.1h.73c0-.52-.1-.93-.1-1.24v-2.7c0-1.55-1.14-1.97-2.28-1.97s-2.07.41-2.18,1.66h1.14c0-.62.52-.93,1.04-.93,1.14,0,1.24.62,1.24,1.55l-.93.1h0Zm.93.73c0,1.04-.21,2.18-1.45,2.18-.62,0-1.14-.31-1.14-1.04,0-.83.83-1.04,1.55-1.14h1.04Zm-6.32-2.18h0c-.41-.73-1.04-.93-1.87-.93-1.76,0-2.59,1.45-2.59,3.01s.73,3.01,2.38,3.01c.83,0,1.55-.31,1.97-1.14h0v.93h1.14c0-.31-.1-.73-.1-1.04v-7.26h-1.04l.1,3.42h0Zm-3.21,2.07c0-1.04.31-2.28,1.66-2.28s1.66,1.24,1.66,2.28-.31,2.28-1.66,2.28c-1.24,0-1.66-1.14-1.66-2.28m-10.06,0c0-1.24.41-2.28,1.76-2.28s1.66,1.04,1.66,2.28-.41,2.28-1.66,2.28-1.76-1.04-1.76-2.28m1.66-3.01c-1.87,0-2.8,1.24-2.8,3.01s.93,3.01,2.8,3.01,2.8-1.24,2.8-3.01-.93-3.01-2.8-3.01m-5.7-1.14h1.24v-1.14h-1.24v1.14Zm.1,7.05h1.04v-5.7h-1.04v5.7Zm-3.32-2.8c0-1.24.21-1.97,1.66-1.97.1,0,.31,0,.41.1v-1.04h-.31c-.83,0-1.55.41-1.66,1.14h0v-1.14h-1.04v5.7h1.04l-.1-2.8h0Zm-6.74-.62c0-.93.52-1.66,1.45-1.66,1.04,0,1.45.73,1.45,1.66h-2.9Zm4.04.73v-.52c0-1.55-.83-2.7-2.49-2.7-1.76,0-2.7,1.35-2.7,3.11s.73,3.01,2.59,3.01c1.35,0,2.38-.62,2.59-1.97h-1.14c-.1.83-.52,1.14-1.35,1.14-1.14,0-1.55-1.04-1.45-2.07h3.94Zm-2.07-5.49l-.93,1.66h.73l1.35-1.66h-1.14Zm-7.36,2.38v.83h.93v3.63c0,.73.1.83.21,1.04.21.21.52.31.62.41.21.1.52.1.73.1s.52-.1.73-.1v-.83c-.21.1-.41.1-.62.1-.41,0-.73-.21-.73-.62v-3.73h1.35v-.83h-1.35v-1.55l-1.14.31v1.24h-.73Zm-5.18,1.66c0,2.18,3.42,1.24,3.42,2.59,0,.73-.62,1.04-1.24,1.04s-1.14-.41-1.14-1.14h-1.14c0,1.35.93,1.87,2.18,1.87s2.49-.41,2.49-1.87c0-1.24-1.14-1.35-2.07-1.76-.41-.1-1.35-.21-1.35-.83s.52-.93,1.04-.93c.62,0,1.14.21,1.14.93h1.14c.1-1.35-1.14-1.76-2.28-1.76s-2.18.73-2.18,1.87m-2.9-2.9h1.24v-1.14h-1.24v1.14Zm.1,7.05h1.14v-5.7h-1.14v5.7Zm-5.91-5.7h-1.04v5.7h1.04v-3.11c0-1.14.31-1.35.41-1.55.41-.41,1.04-.41,1.04-.41.93,0,1.35.52,1.35,1.45v3.63h1.04v-3.94c0-1.87-1.76-1.97-2.18-1.97-.62,0-1.35.31-1.76,1.04h0l.1-.83h0Zm-4.35-1.35h1.24v-1.14h-1.24v1.14Zm.21,7.05h1.14v-5.7h-1.14v5.7Zm-3.32,0h1.14v-8.29h-1.87l-2.28,6.74h0l-2.38-6.74h-2.07v8.19h1.14v-7.36h0l2.59,7.36h1.04l2.7-7.36h0v7.46h0Z"/>
        <path d="m1868.92,1005.42l-3.01,3.01v1.35h5.29v-1.35h-3.11l3.01-3.01v-1.35h-5.08v1.35h2.9Zm-6.32,4.35h2.18c-.1-.62-.1-.93-.1-1.45v-4.25h-2.18v3.32s.1,1.24-.93,1.24c-.73,0-.83-.62-.83-1.14v-3.52h-2.18v3.84c0,1.24.93,2.07,2.18,2.07.73,0,1.24-.21,1.76-.83l.1.73h0Zm-6.95-5.81h-2.18c.1.62.1.93.1,1.45v4.25h2.18v-2.28c0-1.14.31-1.76,1.45-1.76h.41v-1.87c-.93,0-1.66.31-1.87,1.24h0l-.1-1.04h0Zm-3.32.1c0-2.07-1.97-2.8-3.94-2.8-2.59,0-3.94,1.55-3.94,4.25s1.35,4.25,3.94,4.25c1.97,0,3.94-.73,3.94-2.8h-2.38c0,.83-.62,1.24-1.55,1.24-1.24,0-1.55-1.45-1.55-2.59s.21-2.8,1.55-2.8c.93,0,1.45.41,1.55,1.14l2.38.1h0Zm-15.96-.21c-1.76,0-3.32.93-3.32,3.01s1.55,3.01,3.32,3.01,3.32-.93,3.32-3.01-1.55-3.01-3.32-3.01m-1.14,3.01c0-.83.21-1.76,1.14-1.76s1.14.93,1.14,1.76-.21,1.76-1.14,1.76-1.14-.93-1.14-1.76m-6.53-1.76c.93,0,1.04,1.04,1.04,1.76s-.21,1.76-1.04,1.76-1.04-1.04-1.04-1.76.1-1.76,1.04-1.76m1.14,4.56h2.07v-8.19h-2.18v3.21h0c-.41-.62-1.14-.83-1.87-.83-1.66,0-2.49,1.55-2.49,3.01s.73,3.01,2.38,3.01c.83,0,1.66-.31,1.87-1.04h0l.21.83h0Zm-7.88,0h2.18v-8.19h-2.18v8.19Zm-1.35,0c-.1-.73-.1-.93-.1-1.14v-2.9c0-1.24-1.35-1.76-2.49-1.76-.62,0-1.35.1-1.97.31s-.93.73-.93,1.55h2.07c0-.41.21-.83.73-.83.83,0,.73.73.73,1.24h-.73c-1.87,0-3.11.52-3.11,1.97,0,1.14.73,1.97,2.07,1.97,1.04,0,1.55-.52,1.87-.93h0c0,.41,0,.62.1.83l1.76-.31h0Zm-3.94-1.76c0-.41.21-.62.62-.73.31-.1.73-.1,1.14-.1,0,.73-.1,1.66-1.04,1.66-.41-.1-.73-.41-.73-.83m-8.91,1.87l1.14-4.04h0l1.04,4.04h2.38l1.76-5.7h-1.87l-.93,4.04h0l-.93-4.04h-2.38l-1.04,4.04h0l-.93-4.04h-2.18l1.76,5.7h2.18Zm-4.77-3.94c-.1-1.66-1.35-1.97-2.7-1.97-1.14,0-2.7.41-2.7,1.76,0,2.07,3.32,1.45,3.32,2.49,0,.41-.31.52-.73.52-.21,0-.41-.1-.52-.21-.1-.1-.21-.31-.1-.52h-2.07c0,1.76,1.35,2.07,2.8,2.07,1.35,0,2.7-.41,2.7-1.97,0-.93-.52-1.35-1.14-1.55-1.35-.41-2.28-.41-2.28-.83,0-.31.21-.52.52-.52s.52.1.62.21c.1.1.1.31.1.52h2.18Zm-10.57,4.04c2.7,0,4.25-1.55,4.25-4.25s-1.55-4.25-4.25-4.25-4.25,1.55-4.25,4.25,1.55,4.25,4.25,4.25m1.87-4.25c0,1.24-.31,2.7-1.87,2.7s-1.87-1.45-1.87-2.7.31-2.7,1.87-2.7,1.87,1.45,1.87,2.7m-14.2-1.76c-1.76,0-3.32.93-3.32,3.01s1.55,3.01,3.32,3.01,3.32-.93,3.32-3.01-1.45-3.01-3.32-3.01m-1.04,3.01c0-.83.21-1.76,1.14-1.76s1.14.93,1.14,1.76-.21,1.76-1.14,1.76-1.14-.93-1.14-1.76m-3.32,2.8c-.1-.73-.1-.93-.1-1.14v-2.9c0-1.24-1.35-1.76-2.59-1.76-.62,0-1.35.1-1.97.31s-1.04.73-1.04,1.55h2.07c0-.41.1-.83.73-.83.83,0,.73.73.73,1.24h-.73c-1.87,0-3.11.52-3.21,1.97,0,1.14.73,1.97,2.07,1.97,1.04,0,1.55-.52,1.76-.93h0c0,.41,0,.62.1.83l2.18-.31h0Zm-3.94-1.76c0-.41.21-.62.62-.73.31-.1.73-.1,1.14-.1,0,.73-.1,1.66-1.04,1.66-.41-.1-.73-.41-.73-.83m-.52-4.77c.1-.21.21-.52.52-.52s.62.1.93.21c.31.1.73.21,1.14.21s.73-.21,1.04-.52.41-.73.52-1.14h-.93c0,.21-.1.41-.31.41s-.62-.1-.93-.21c-.41-.1-.83-.21-1.14-.21-.41,0-.83.21-1.14.52s-.52.73-.52,1.14l.83.1h0Zm-2.28,2.9c-.1-1.66-1.45-2.18-2.9-2.18-1.76,0-3.11.93-3.11,3.01,0,1.66.73,2.7,2.28,3.01l-.62.93.31.21c.21-.1.41-.1.62-.1s.62.21.62.41-.41.31-.83.31-.83-.1-1.14-.21l-.21.62c.41.1.83.21,1.24.21.52,0,1.04,0,1.55-.21.31-.21.62-.41.62-.73,0-.73-.62-.93-1.24-.93h-.41l.31-.41h0c.73,0,1.45-.21,1.97-.62.52-.41.93-.93.93-1.76h-2.18c0,.52-.1,1.14-.83,1.14-.83,0-.83-1.14-.83-1.76s0-1.76.83-1.76c.31,0,.52.1.73.21s.21.41.21.62h2.07Zm-7.15,3.63c-.1-.73-.1-.93-.1-1.14v-2.9c0-1.24-1.35-1.76-2.59-1.76-.62,0-1.35.1-1.97.31s-.93.73-.93,1.55h2.07c0-.41.21-.83.73-.83.83,0,.73.73.73,1.24h-.73c-1.87,0-3.11.52-3.21,1.97,0,1.14.73,1.97,1.97,1.97,1.04,0,1.55-.52,1.87-.93h0c0,.41,0,.62.1.83l2.07-.31h0Zm-3.94-1.76c0-.41.21-.62.62-.73.31-.1.73-.1,1.14-.1,0,.73-.1,1.66-1.04,1.66-.41-.1-.73-.41-.73-.83m-6.32-2.8c.93,0,1.04,1.04,1.04,1.76s-.21,1.76-1.04,1.76-1.04-1.04-1.04-1.76.1-1.76,1.04-1.76m1.14,4.66h2.07v-8.19h-2.18v3.21h0c-.41-.62-1.14-.83-1.87-.83-1.66,0-2.49,1.55-2.49,3.01s.73,3.01,2.38,3.01c.83,0,1.66-.31,1.87-1.04h0l.21.83h0Zm-9.54-5.81h-2.18c.1.62.1.93.1,1.45v4.25h2.18v-3.32s-.1-1.24.93-1.24c.73,0,.83.62.83,1.14v3.32h2.18v-3.84c0-1.24-.93-2.07-2.18-2.07-.73,0-1.24.21-1.76.83v-.52h-.1Zm-5.81,5.81h2.18c-.1-.62-.1-.93-.1-1.45v-4.25h-2.18v3.32s.1,1.24-.93,1.24c-.62,0-.83-.62-.83-1.14v-3.52h-2.18v3.84c0,1.24.93,2.07,2.18,2.07.73,0,1.24-.21,1.76-.83l.1.73h0Zm-8.6-3.21h3.32v-1.55h-3.32v-1.97h3.52v-1.55h-5.81v8.19h2.28v-3.11h0Z"/>
        <path d="m1709.9,1004.28h0l1.24,2.28v1.66h-57.95v-1.66l1.35-2.28h0v-31.82h1.97v-12.75h1.14v-1.97h0v-1.76c-.62-.73-.93-1.35-.93-2.18,0-1.76,1.55-3.11,3.21-3.21,1.76,0,3.21,1.45,3.21,3.21,0,.83-.31,1.66-.83,2.07h0v1.87h0v1.97h1.14v12.75h7.36v-11.2l-.31-.83h0l-.1-.21,1.45.21h21.15l.93-.21.31-.1-.1.21h.1l-.31.73v11.2h7.15v-12.54h1.14v-3.73c-.62-.73-.93-1.35-.93-2.18,0-1.76,1.55-3.11,3.21-3.21,1.76,0,3.21,1.45,3.21,3.21,0,.83-.31,1.66-.83,2.07v3.84h1.14v12.75h1.76v31.72h0v.1h.1Zm.21-33.9v-12.65h-1.14v-.93c.41-.83.83-1.97.83-3.01,0-2.59-1.87-4.77-4.35-5.18v-.52c.21-.21.31-.52.31-.83,0-.41-.21-.73-.52-.93l-.31-3.52v-.1c0-.21-.21-.41-.41-.41s-.41.21-.41.41v.1h0l-.31,3.63c-.31.21-.52.62-.52.93s.1.62.31.83l-.1.52c-2.38.52-4.25,2.59-4.25,5.08,0,1.04.41,2.18.83,3.01v.93h-1.14v12.75h-3.32v-8.91l1.04-.93v-1.45l-1.04-.62v-.1l-.52-1.04h-1.55l-.83.83h0l-.1.1-.1.1h0l-.1.1h-5.81l-.93-1.04h-1.45l-.93,1.04h-2.38l-.93-1.04h-1.45l-.93,1.04h-5.49l-.1-.1-1.04-1.04h-1.45l-.31.62-.31.52-.41.21-.73.31v1.45l1.04.93v8.91h-3.52v-12.65h-1.04v-.83c.41-.83.83-1.97.83-3.01,0-2.49-1.87-4.66-4.25-5.08v-.52c.21-.21.31-.52.31-.83,0-.41-.21-.73-.52-.93l-.31-3.63h-.1v-.1c0-.21-.1-.41-.31-.41s-.41.21-.41.41q0,.1.1.21l-.31,3.52c-.31.21-.52.62-.52.93s.1.62.31.83v.52c-2.38.41-4.35,2.59-4.35,5.18,0,1.04.41,2.18.83,3.01v.83h-1.04v12.75h-3.32v1.97h.1l1.24,1.04v10.68h-1.24v1.87l1.24,1.14v7.36h-1.24v1.87l1.24,1.14v6.74l-1.24,1.14v2.8h-.1v1.97h61.89v-1.97h-.1v-2.8l-1.24-1.14v-.1h0v-6.74l1.24-1.14v-1.87h-1.24v-7.36l1.24-1.14v-1.87h-1.24v-10.78l1.24-1.04h.1v-1.97h-2.9Z"/>
      </g>
    </g>
  </g>
</svg>