<?xml version="1.0" encoding="UTF-8"?>
<svg id="Layer_2" data-name="Layer 2" xmlns="http://www.w3.org/2000/svg" viewBox="0 0 534.03 474.23">
  <defs>
    <style>
      .cls-1 {
        fill: #078686;
      }

      .cls-2 {
        fill: #f0612b;
      }

      .cls-3 {
        fill: #f9f9fa;
      }

      .cls-4 {
        fill: #116c98;
      }

      .cls-5 {
        fill: none;
        stroke: #b0b0b0;
        stroke-miterlimit: 10;
      }

      .cls-6 {
        fill: #231f20;
      }

      .cls-7 {
        fill: #ededed;
      }
    </style>
  </defs>
  <g id="Layer_1-2" data-name="Layer 1">
    <g>
      <circle class="cls-7" cx="237.11" cy="237.11" r="237.11"/>
      <path class="cls-3" d="m.44,237.11C.44,106.16,106.6,0,237.56,0s237.11,106.16,237.11,237.11"/>
      <g>
        <path class="cls-6" d="m102.77,213.43v-21.72h8.98v21.39c0,7.37,3.21,10.42,8.65,10.42s8.65-3.05,8.65-10.42v-21.39h8.87v21.72c0,11.42-6.54,17.73-17.57,17.73s-17.57-6.32-17.57-17.73Z"/>
        <path class="cls-6" d="m176.65,213.43v17.07h-8.65v-15.74c0-4.82-2.22-7.04-6.04-7.04-4.16,0-7.15,2.55-7.15,8.04v14.74h-8.65v-29.82h8.26v3.49c2.33-2.55,5.82-3.94,9.86-3.94,7.04,0,12.36,4.1,12.36,13.19Z"/>
        <path class="cls-6" d="m183.41,191.71c0-2.72,2.16-4.82,5.38-4.82s5.38,2,5.38,4.66c0,2.88-2.16,4.99-5.38,4.99s-5.38-2.11-5.38-4.82Zm1.05,8.98h8.65v29.82h-8.65v-29.82Z"/>
        <path class="cls-6" d="m231.52,189.38v41.12h-8.26v-3.44c-2.16,2.6-5.32,3.88-9.31,3.88-8.42,0-14.91-5.99-14.91-15.35s6.48-15.35,14.91-15.35c3.66,0,6.76,1.16,8.92,3.6v-14.46h8.65Zm-8.48,26.21c0-5.15-3.33-8.26-7.59-8.26s-7.65,3.1-7.65,8.26,3.33,8.26,7.65,8.26,7.59-3.1,7.59-8.26Z"/>
        <path class="cls-6" d="m265.88,213.49v17.01h-8.09v-3.71c-1.61,2.71-4.71,4.16-9.09,4.16-6.98,0-11.14-3.88-11.14-9.03s3.71-8.92,12.8-8.92h6.87c0-3.71-2.22-5.87-6.87-5.87-3.16,0-6.43,1.05-8.59,2.77l-3.1-6.04c3.27-2.33,8.09-3.6,12.86-3.6,9.09,0,14.35,4.21,14.35,13.25Zm-8.65,7.59v-3.05h-5.93c-4.05,0-5.32,1.5-5.32,3.49,0,2.16,1.83,3.6,4.88,3.6,2.88,0,5.38-1.33,6.37-4.05Z"/>
        <path class="cls-6" d="m304.39,189.38v41.12h-8.26v-3.44c-2.16,2.6-5.32,3.88-9.31,3.88-8.42,0-14.91-5.99-14.91-15.35s6.48-15.35,14.91-15.35c3.66,0,6.76,1.16,8.92,3.6v-14.46h8.65Zm-8.48,26.21c0-5.15-3.33-8.26-7.59-8.26s-7.65,3.1-7.65,8.26,3.33,8.26,7.65,8.26,7.59-3.1,7.59-8.26Z"/>
        <path class="cls-6" d="m341.42,218.03h-22.56c.83,3.71,3.99,5.99,8.53,5.99,3.16,0,5.43-.94,7.48-2.88l4.6,4.99c-2.77,3.16-6.93,4.82-12.3,4.82-10.31,0-17.01-6.48-17.01-15.35s6.82-15.35,15.91-15.35,15.52,5.88,15.52,15.46c0,.67-.11,1.61-.17,2.33Zm-22.67-5.04h14.69c-.61-3.77-3.44-6.21-7.32-6.21s-6.76,2.38-7.37,6.21Z"/>
        <path class="cls-6" d="m344.46,227.73l2.88-6.21c2.66,1.72,6.71,2.88,10.36,2.88,3.99,0,5.49-1.05,5.49-2.72,0-4.88-18.01.11-18.01-11.8,0-5.65,5.1-9.64,13.8-9.64,4.1,0,8.65.94,11.47,2.61l-2.88,6.15c-2.94-1.66-5.88-2.22-8.59-2.22-3.88,0-5.54,1.22-5.54,2.77,0,5.1,18.01.17,18.01,11.92,0,5.54-5.15,9.48-14.08,9.48-5.04,0-10.14-1.39-12.91-3.21Z"/>
        <path class="cls-6" d="m142.48,285.46c-1.77,1.28-4.38,1.88-7.04,1.88-7.04,0-11.14-3.6-11.14-10.7v-12.25h-4.6v-6.65h4.6v-7.26h8.65v7.26h7.43v6.65h-7.43v12.14c0,2.55,1.39,3.93,3.71,3.93,1.27,0,2.55-.39,3.49-1.11l2.33,6.1Z"/>
        <path class="cls-6" d="m175.46,274.43h-22.56c.83,3.71,3.99,5.99,8.53,5.99,3.16,0,5.43-.94,7.48-2.88l4.6,4.99c-2.77,3.16-6.93,4.82-12.3,4.82-10.31,0-17.01-6.48-17.01-15.35s6.82-15.35,15.91-15.35,15.52,5.88,15.52,15.46c0,.67-.11,1.61-.17,2.33Zm-22.67-5.04h14.69c-.61-3.77-3.44-6.21-7.32-6.21s-6.76,2.38-7.37,6.21Z"/>
        <path class="cls-6" d="m199.51,286.9l-6.54-9.14-6.76,9.14h-9.42l11.47-15.02-11.08-14.8h9.7l6.32,8.7,6.48-8.7h9.2l-11.08,14.58,11.53,15.24h-9.81Z"/>
        <path class="cls-6" d="m232.76,285.46c-1.77,1.28-4.38,1.88-7.04,1.88-7.04,0-11.14-3.6-11.14-10.7v-12.25h-4.6v-6.65h4.6v-7.26h8.65v7.26h7.43v6.65h-7.43v12.14c0,2.55,1.39,3.93,3.71,3.93,1.27,0,2.55-.39,3.49-1.11l2.33,6.1Z"/>
        <path class="cls-6" d="m267.68,257.08v29.82h-8.2v-3.55c-2.27,2.6-5.6,3.99-9.25,3.99-7.48,0-12.75-4.21-12.75-13.41v-16.85h8.65v15.57c0,4.99,2.22,7.21,6.04,7.21s6.87-2.55,6.87-8.04v-14.74h8.65Z"/>
        <path class="cls-6" d="m302.1,269.89v17.01h-8.09v-3.71c-1.61,2.71-4.71,4.16-9.09,4.16-6.98,0-11.14-3.88-11.14-9.03s3.71-8.92,12.8-8.92h6.87c0-3.71-2.22-5.87-6.87-5.87-3.16,0-6.43,1.05-8.59,2.77l-3.1-6.04c3.27-2.33,8.09-3.6,12.86-3.6,9.09,0,14.35,4.21,14.35,13.25Zm-8.65,7.59v-3.05h-5.93c-4.05,0-5.32,1.5-5.32,3.49,0,2.16,1.83,3.6,4.88,3.6,2.88,0,5.38-1.33,6.37-4.05Z"/>
        <path class="cls-6" d="m308.86,248.11c0-2.72,2.16-4.82,5.38-4.82s5.38,2,5.38,4.66c0,2.88-2.16,4.99-5.38,4.99s-5.38-2.11-5.38-4.82Zm1.05,8.98h8.65v29.82h-8.65v-29.82Z"/>
        <path class="cls-6" d="m323.71,284.13l2.88-6.21c2.66,1.72,6.71,2.88,10.36,2.88,3.99,0,5.49-1.05,5.49-2.72,0-4.88-18.01.11-18.01-11.8,0-5.65,5.1-9.64,13.8-9.64,4.1,0,8.64.94,11.47,2.61l-2.88,6.15c-2.94-1.66-5.88-2.22-8.59-2.22-3.88,0-5.54,1.22-5.54,2.77,0,5.1,18.01.17,18.01,11.92,0,5.54-5.15,9.48-14.08,9.48-5.04,0-10.14-1.39-12.91-3.21Z"/>
      </g>
    </g>
    <path class="cls-4" d="m237.34,448.31c-56.41,0-109.45-21.97-149.34-61.86-39.89-39.89-61.86-92.93-61.86-149.34s21.97-109.45,61.86-149.34c39.89-39.89,92.93-61.86,149.34-61.86s109.45,21.97,149.34,61.86c39.89,39.89,61.86,92.93,61.86,149.34s-21.97,109.45-61.86,149.34c-39.89,39.89-92.93,61.86-149.34,61.86Zm0-421.57C121.34,26.75,26.97,121.12,26.97,237.11s94.37,210.37,210.37,210.37,210.37-94.37,210.37-210.37S353.33,26.75,237.34,26.75Z"/>
    <path class="cls-5" d="m429.8,44.65c51.41,51.41,79.72,119.76,79.72,192.47s-28.31,141.06-79.72,192.47"/>
    <circle class="cls-2" cx="412.5" cy="26.75" r="24.5"/>
    <circle class="cls-4" cx="509.52" cy="237.11" r="24.5"/>
    <circle class="cls-1" cx="423.2" cy="438.73" r="24.5"/>
  </g>
</svg>