<?xml version="1.0" encoding="UTF-8"?>
<svg id="Layer_2" data-name="Layer 2" xmlns="http://www.w3.org/2000/svg" xmlns:xlink="http://www.w3.org/1999/xlink" viewBox="0 0 695.29 140.73">
  <defs>
    <style>
      .cls-1 {
        fill: #fff;
      }

      .cls-2 {
        fill: url(#radial-gradient);
      }

      .cls-3 {
        fill: url(#radial-gradient-2);
      }

      .cls-4 {
        fill: url(#linear-gradient);
      }

      .cls-5 {
        fill: #009a46;
      }
    </style>
    <linearGradient id="linear-gradient" x1="0" y1="79.17" x2="695.29" y2="79.17" gradientTransform="translate(0 149.53) scale(1 -1)" gradientUnits="userSpaceOnUse">
      <stop offset="0" stop-color="#35b679"/>
      <stop offset=".99" stop-color="#35b679"/>
    </linearGradient>
    <radialGradient id="radial-gradient" cx="74.44" cy="131.6" fx="74.44" fy="131.6" r="106.92" gradientTransform="translate(0 149.53) scale(1 -1)" gradientUnits="userSpaceOnUse">
      <stop offset="0" stop-color="#fff"/>
      <stop offset="1" stop-color="#e3d8d8"/>
    </radialGradient>
    <radialGradient id="radial-gradient-2" cx="98.45" cy="29.54" fx="98.45" fy="29.54" r="108.84" xlink:href="#radial-gradient"/>
  </defs>
  <g id="Layer_1-2" data-name="Layer 1">
    <g>
      <rect class="cls-4" width="695.29" height="140.73"/>
      <g>
        <path class="cls-1" d="m199.54,44.33c0-4.6,3.32-7.92,7.79-7.92,2.37,0,4.4.9,5.75,2.57l-1.74,1.74c-1.06-1.21-2.37-1.8-3.88-1.8-3.01,0-5.19,2.25-5.19,5.41s2.18,5.41,5.19,5.41c1.52,0,2.82-.59,3.88-1.83l1.74,1.76c-1.35,1.67-3.38,2.57-5.77,2.57-4.44,0-7.77-3.32-7.77-7.92h0Z"/>
        <path class="cls-1" d="m221.84,40.15v2.62c-.23-.04-.42-.07-.6-.07-1.97,0-3.22,1.23-3.22,3.63v5.7h-2.6v-11.75h2.47v1.72c.75-1.23,2.1-1.85,3.95-1.85h0Z"/>
        <path class="cls-1" d="m223.68,36.69c0-.92.71-1.65,1.66-1.65s1.66.68,1.66,1.58c0,.97-.69,1.72-1.66,1.72s-1.66-.73-1.66-1.65Zm.35,3.59h2.6v11.75h-2.6v-11.75Z"/>
        <path class="cls-1" d="m239.32,45.14v6.89h-2.45v-1.43c-.62,1.01-1.83,1.58-3.49,1.58-2.53,0-4.13-1.47-4.13-3.52s1.25-3.5,4.61-3.5h2.87v-.18c0-1.61-.91-2.55-2.76-2.55-1.25,0-2.53.44-3.36,1.17l-1.02-2c1.18-.97,2.91-1.45,4.69-1.45,3.2,0,5.05,1.61,5.05,5h0Zm-2.6,3.2v-1.36h-2.68c-1.77,0-2.24.7-2.24,1.56,0,.99.79,1.63,2.12,1.63s2.37-.62,2.8-1.83h0Z"/>
        <path class="cls-1" d="m250.57,48.2l1.99,1.23c-.83,1.72-2.49,2.71-4.57,2.75l-.23.92c1.23.15,1.81.9,1.81,1.85,0,1.28-1.12,2.09-2.82,2.09-.75,0-1.39-.15-1.91-.46l.48-1.3c.44.24.89.35,1.41.35.77,0,1.1-.31,1.1-.79,0-.42-.31-.73-1.1-.73h-.64l.52-2.05c-2.84-.51-4.78-2.82-4.78-5.92,0-3.52,2.49-6.01,6-6.01,2.16,0,3.88.95,4.73,2.73l-1.99,1.23c-.67-1.12-1.66-1.63-2.76-1.63-1.91,0-3.36,1.41-3.36,3.67s1.45,3.67,3.36,3.67c1.1,0,2.1-.51,2.76-1.63v.03Z"/>
        <path class="cls-1" d="m264.09,45.14v6.89h-2.45v-1.43c-.62,1.01-1.83,1.58-3.49,1.58-2.53,0-4.13-1.47-4.13-3.52s1.25-3.5,4.61-3.5h2.87v-.18c0-1.61-.91-2.55-2.76-2.55-1.25,0-2.53.44-3.36,1.17l-1.02-2c1.18-.97,2.91-1.45,4.69-1.45,3.2,0,5.05,1.61,5.05,5h0Zm-7.17-6.61h-1.39c.04-1.8.91-2.95,2.24-2.95s2.08,1.45,2.82,1.45c.58,0,.98-.46,1.02-1.25h1.39c-.04,1.72-.91,2.88-2.24,2.88s-2.08-1.45-2.82-1.45c-.58,0-.98.48-1.02,1.32Zm4.57,9.81v-1.36h-2.68c-1.77,0-2.24.7-2.24,1.56,0,.99.79,1.63,2.12,1.63s2.37-.62,2.8-1.83h0Z"/>
        <path class="cls-1" d="m266.59,46.15c0-3.52,2.49-6.01,5.9-6.01s5.92,2.49,5.92,6.01-2.47,6.03-5.92,6.03-5.9-2.51-5.9-6.03Zm9.2,0c0-2.24-1.41-3.67-3.3-3.67s-3.28,1.43-3.28,3.67,1.41,3.67,3.28,3.67,3.3-1.43,3.3-3.67Z"/>
        <path class="cls-1" d="m297.49,35.7v16.33h-2.49v-1.52c-.87,1.12-2.16,1.67-3.68,1.67-3.22,0-5.61-2.38-5.61-6.03s2.39-6.01,5.61-6.01c1.43,0,2.7.51,3.57,1.58v-6.03h2.6Zm-2.55,10.46c0-2.24-1.43-3.67-3.3-3.67s-3.3,1.43-3.3,3.67,1.43,3.67,3.3,3.67,3.3-1.43,3.3-3.67Z"/>
        <path class="cls-1" d="m311.27,47.03h-8.7c.31,1.72,1.66,2.82,3.59,2.82,1.25,0,2.22-.42,3.01-1.28l1.39,1.69c-1,1.25-2.55,1.92-4.47,1.92-3.72,0-6.13-2.53-6.13-6.03s2.43-6.01,5.73-6.01,5.61,2.4,5.61,6.07c0,.22-.02.55-.04.81h.01Zm-8.72-1.82h6.29c-.21-1.69-1.43-2.86-3.14-2.86s-2.91,1.14-3.16,2.86h.01Z"/>
        <path class="cls-1" d="m328.82,45.14v6.89h-2.45v-1.43c-.62,1.01-1.83,1.58-3.49,1.58-2.53,0-4.13-1.47-4.13-3.52s1.25-3.5,4.61-3.5h2.87v-.18c0-1.61-.91-2.55-2.76-2.55-1.25,0-2.53.44-3.36,1.17l-1.02-2c1.18-.97,2.91-1.45,4.69-1.45,3.2,0,5.05,1.61,5.05,5h-.01Zm-2.6,3.2v-1.36h-2.68c-1.77,0-2.24.7-2.24,1.56,0,.99.79,1.63,2.12,1.63s2.37-.62,2.8-1.83h0Z"/>
        <path class="cls-1" d="m343.25,40.28v9.97c0,4.27-2.1,6.21-5.98,6.21-2.08,0-4.13-.57-5.4-1.67l1.16-2.07c.98.86,2.55,1.41,4.09,1.41,2.45,0,3.53-1.19,3.53-3.56v-.62c-.91,1.06-2.22,1.56-3.72,1.56-3.18,0-5.61-2.29-5.61-5.7s2.43-5.66,5.61-5.66c1.56,0,2.93.53,3.84,1.69v-1.56h2.48Zm-2.55,5.52c0-1.98-1.41-3.32-3.36-3.32s-3.38,1.34-3.38,3.32,1.41,3.37,3.38,3.37,3.36-1.36,3.36-3.37Z"/>
        <path class="cls-1" d="m357.03,47.03h-8.7c.31,1.72,1.66,2.82,3.59,2.82,1.25,0,2.22-.42,3.01-1.28l1.39,1.69c-1,1.25-2.55,1.92-4.47,1.92-3.72,0-6.13-2.53-6.13-6.03s2.43-6.01,5.73-6.01,5.61,2.4,5.61,6.07c0,.22-.02.55-.04.81h.01Zm-7.46-8.35h-2.14l2.78-3.01h2.37l2.78,3.01h-2.14l-1.83-1.63-1.83,1.63h0Zm-1.27,6.53h6.29c-.21-1.69-1.43-2.86-3.14-2.86s-2.91,1.14-3.16,2.86h.01Z"/>
        <path class="cls-1" d="m370.48,45.29v6.73h-2.6v-6.38c0-2.09-.98-3.1-2.64-3.1-1.85,0-3.09,1.19-3.09,3.54v5.94h-2.6v-11.75h2.47v1.52c.85-1.08,2.2-1.65,3.82-1.65,2.66,0,4.63,1.61,4.63,5.15h.01Z"/>
        <path class="cls-1" d="m372.97,46.15c0-3.52,2.49-6.01,6-6.01,2.16,0,3.88.95,4.73,2.73l-1.99,1.23c-.67-1.12-1.66-1.63-2.76-1.63-1.91,0-3.36,1.41-3.36,3.67s1.45,3.67,3.36,3.67c1.1,0,2.1-.51,2.76-1.63l1.99,1.23c-.85,1.76-2.58,2.75-4.73,2.75-3.51,0-6-2.51-6-6.03v.02Z"/>
        <path class="cls-1" d="m385.59,36.69c0-.92.71-1.65,1.66-1.65s1.66.68,1.66,1.58c0,.97-.69,1.72-1.66,1.72s-1.66-.73-1.66-1.65Zm.35,3.59h2.6v11.75h-2.6v-11.75Z"/>
        <path class="cls-1" d="m401.23,45.14v6.89h-2.45v-1.43c-.62,1.01-1.83,1.58-3.49,1.58-2.53,0-4.13-1.47-4.13-3.52s1.25-3.5,4.61-3.5h2.87v-.18c0-1.61-.91-2.55-2.76-2.55-1.25,0-2.53.44-3.36,1.17l-1.02-2c1.18-.97,2.91-1.45,4.69-1.45,3.2,0,5.05,1.61,5.05,5h-.01Zm-2.6,3.2v-1.36h-2.68c-1.77,0-2.24.7-2.24,1.56,0,.99.79,1.63,2.12,1.63s2.37-.62,2.8-1.83h0Z"/>
        <path class="cls-1" d="m403.28,50.86l1-2.09c.98.68,2.47,1.17,3.86,1.17,1.64,0,2.33-.48,2.33-1.3,0-2.24-6.85-.13-6.85-4.82,0-2.22,1.89-3.67,4.88-3.67,1.47,0,3.16.37,4.15,1.01l-1,2.09c-1.06-.66-2.12-.88-3.18-.88-1.58,0-2.33.55-2.33,1.32,0,2.38,6.85.26,6.85,4.86,0,2.2-1.91,3.63-5.03,3.63-1.85,0-3.7-.57-4.69-1.32h.01Z"/>
        <path class="cls-1" d="m427.39,40.15v2.62c-.23-.04-.42-.07-.6-.07-1.97,0-3.22,1.23-3.22,3.63v5.7h-2.6v-11.75h2.47v1.72c.75-1.23,2.1-1.85,3.95-1.85Z"/>
        <path class="cls-1" d="m439.87,47.03h-8.7c.31,1.72,1.66,2.82,3.59,2.82,1.25,0,2.22-.42,3.01-1.28l1.39,1.69c-1,1.25-2.55,1.92-4.47,1.92-3.72,0-6.13-2.53-6.13-6.03s2.43-6.01,5.73-6.01,5.61,2.4,5.61,6.07c0,.22-.02.55-.04.81h.01Zm-8.72-1.82h6.29c-.21-1.69-1.43-2.86-3.14-2.86s-2.91,1.14-3.16,2.86h.01Z"/>
        <path class="cls-1" d="m453.4,40.28v9.97c0,4.27-2.1,6.21-5.98,6.21-2.08,0-4.13-.57-5.4-1.67l1.16-2.07c.98.86,2.55,1.41,4.09,1.41,2.45,0,3.53-1.19,3.53-3.56v-.62c-.91,1.06-2.22,1.56-3.72,1.56-3.18,0-5.61-2.29-5.61-5.7s2.43-5.66,5.61-5.66c1.56,0,2.93.53,3.84,1.69v-1.56h2.48Zm-2.55,5.52c0-1.98-1.41-3.32-3.36-3.32s-3.38,1.34-3.38,3.32,1.41,3.37,3.38,3.37,3.36-1.36,3.36-3.37Z"/>
        <path class="cls-1" d="m467.54,40.28v11.75h-2.47v-1.5c-.83,1.08-2.14,1.65-3.57,1.65-2.85,0-4.78-1.65-4.78-5.19v-6.71h2.6v6.34c0,2.13.96,3.15,2.6,3.15,1.81,0,3.03-1.19,3.03-3.54v-5.94h2.6-.01Z"/>
        <path class="cls-1" d="m470.94,35.7h2.6v16.33h-2.6v-16.33Z"/>
        <path class="cls-1" d="m486.23,45.14v6.89h-2.45v-1.43c-.62,1.01-1.83,1.58-3.49,1.58-2.53,0-4.13-1.47-4.13-3.52s1.25-3.5,4.61-3.5h2.87v-.18c0-1.61-.91-2.55-2.76-2.55-1.25,0-2.53.44-3.36,1.17l-1.02-2c1.18-.97,2.91-1.45,4.69-1.45,3.2,0,5.05,1.61,5.05,5h-.01Zm-2.6,3.2v-1.36h-2.68c-1.77,0-2.24.7-2.24,1.56,0,.99.79,1.63,2.12,1.63s2.37-.62,2.8-1.83h0Z"/>
        <path class="cls-1" d="m500.51,35.7v16.33h-2.49v-1.52c-.87,1.12-2.16,1.67-3.68,1.67-3.22,0-5.61-2.38-5.61-6.03s2.39-6.01,5.61-6.01c1.43,0,2.7.51,3.57,1.58v-6.03h2.6Zm-2.55,10.46c0-2.24-1.43-3.67-3.3-3.67s-3.3,1.43-3.3,3.67,1.43,3.67,3.3,3.67,3.3-1.43,3.3-3.67Z"/>
        <path class="cls-1" d="m503,46.15c0-3.52,2.49-6.01,5.9-6.01s5.92,2.49,5.92,6.01-2.47,6.03-5.92,6.03-5.9-2.51-5.9-6.03Zm9.2,0c0-2.24-1.41-3.67-3.3-3.67s-3.28,1.43-3.28,3.67,1.41,3.67,3.28,3.67,3.3-1.43,3.3-3.67Z"/>
        <path class="cls-1" d="m523.72,40.15v2.62c-.23-.04-.42-.07-.6-.07-1.97,0-3.22,1.23-3.22,3.63v5.7h-2.6v-11.75h2.47v1.72c.75-1.23,2.1-1.85,3.95-1.85Z"/>
        <path class="cls-1" d="m535.14,45.14v6.89h-2.45v-1.43c-.62,1.01-1.83,1.58-3.49,1.58-2.53,0-4.13-1.47-4.13-3.52s1.25-3.5,4.61-3.5h2.87v-.18c0-1.61-.91-2.55-2.76-2.55-1.25,0-2.53.44-3.36,1.17l-1.02-2c1.18-.97,2.91-1.45,4.69-1.45,3.2,0,5.05,1.61,5.05,5h-.01Zm-2.6,3.2v-1.36h-2.68c-1.77,0-2.24.7-2.24,1.56,0,.99.79,1.63,2.12,1.63s2.37-.62,2.8-1.83h0Z"/>
        <path class="cls-1" d="m537.19,50.86l1-2.09c.98.68,2.47,1.17,3.86,1.17,1.64,0,2.33-.48,2.33-1.3,0-2.24-6.85-.13-6.85-4.82,0-2.22,1.89-3.67,4.88-3.67,1.47,0,3.16.37,4.15,1.01l-1,2.09c-1.06-.66-2.12-.88-3.18-.88-1.58,0-2.33.55-2.33,1.32,0,2.38,6.85.26,6.85,4.86,0,2.2-1.91,3.63-5.03,3.63-1.85,0-3.7-.57-4.69-1.32h.01Z"/>
        <path class="cls-1" d="m553.96,46.15c0-3.52,2.49-6.01,6-6.01,2.16,0,3.88.95,4.73,2.73l-1.99,1.23c-.67-1.12-1.66-1.63-2.76-1.63-1.91,0-3.36,1.41-3.36,3.67s1.45,3.67,3.36,3.67c1.1,0,2.1-.51,2.76-1.63l1.99,1.23c-.85,1.76-2.58,2.75-4.73,2.75-3.51,0-6-2.51-6-6.03v.02Z"/>
        <path class="cls-1" d="m565.86,46.15c0-3.52,2.49-6.01,5.9-6.01s5.92,2.49,5.92,6.01-2.47,6.03-5.92,6.03-5.9-2.51-5.9-6.03Zm9.2,0c0-2.24-1.41-3.67-3.3-3.67s-3.28,1.43-3.28,3.67,1.41,3.67,3.28,3.67,3.3-1.43,3.3-3.67Z"/>
        <path class="cls-1" d="m598.71,45.29v6.73h-2.6v-6.38c0-2.09-.91-3.1-2.49-3.1-1.7,0-2.89,1.19-2.89,3.52v5.96h-2.6v-6.38c0-2.09-.91-3.1-2.49-3.1-1.72,0-2.89,1.19-2.89,3.52v5.96h-2.6v-11.75h2.47v1.5c.83-1.06,2.12-1.63,3.63-1.63,1.62,0,2.97.64,3.74,1.96.89-1.21,2.39-1.96,4.15-1.96,2.68,0,4.55,1.61,4.55,5.15h.02Z"/>
        <path class="cls-1" d="m203.19,66.06v.7h3.05v2.2h-2.97v9.46h-2.6v-9.46h-1.83v-2.2h1.83v-.75c0-2.46,1.39-4.07,3.97-4.07.89,0,1.77.2,2.35.64l-.73,2.07c-.39-.29-.89-.48-1.43-.48-1.08,0-1.64.64-1.64,1.89h0Z"/>
        <path class="cls-1" d="m218.72,66.68v11.75h-2.47v-1.5c-.83,1.08-2.14,1.65-3.57,1.65-2.85,0-4.78-1.65-4.78-5.19v-6.71h2.6v6.34c0,2.13.96,3.15,2.6,3.15,1.81,0,3.03-1.19,3.03-3.54v-5.94h2.6,0Z"/>
        <path class="cls-1" d="m233.05,71.69v6.73h-2.6v-6.38c0-2.09-.98-3.1-2.64-3.1-1.85,0-3.09,1.19-3.09,3.54v5.94h-2.6v-11.75h2.47v1.52c.85-1.08,2.2-1.65,3.82-1.65,2.66,0,4.63,1.61,4.63,5.15h.01Z"/>
        <path class="cls-1" d="m244.28,74.6l1.99,1.23c-.83,1.72-2.49,2.71-4.57,2.75l-.23.92c1.23.15,1.81.9,1.81,1.85,0,1.28-1.12,2.09-2.82,2.09-.75,0-1.39-.15-1.91-.46l.48-1.3c.44.24.89.35,1.41.35.77,0,1.1-.31,1.1-.79,0-.42-.31-.73-1.1-.73h-.64l.52-2.05c-2.84-.51-4.78-2.82-4.78-5.92,0-3.52,2.49-6.01,6-6.01,2.16,0,3.88.95,4.73,2.73l-1.99,1.23c-.67-1.12-1.66-1.63-2.76-1.63-1.91,0-3.36,1.41-3.36,3.67s1.45,3.67,3.36,3.67c1.1,0,2.1-.51,2.76-1.63v.03Z"/>
        <path class="cls-1" d="m257.8,71.54v6.89h-2.45v-1.43c-.62,1.01-1.83,1.58-3.49,1.58-2.53,0-4.13-1.47-4.13-3.52s1.25-3.5,4.61-3.5h2.87v-.18c0-1.61-.91-2.55-2.76-2.55-1.25,0-2.53.44-3.36,1.17l-1.02-2c1.18-.97,2.91-1.45,4.69-1.45,3.2,0,5.05,1.61,5.05,5h0Zm-7.17-6.61h-1.39c.04-1.8.91-2.95,2.24-2.95s2.08,1.45,2.82,1.45c.58,0,.98-.46,1.02-1.25h1.39c-.04,1.72-.91,2.88-2.24,2.88s-2.08-1.45-2.82-1.45c-.58,0-.98.48-1.02,1.32Zm4.57,9.81v-1.36h-2.68c-1.77,0-2.24.7-2.24,1.56,0,.99.79,1.63,2.12,1.63s2.37-.62,2.8-1.83h0Z"/>
        <path class="cls-1" d="m260.3,72.55c0-3.52,2.49-6.01,5.9-6.01s5.92,2.49,5.92,6.01-2.47,6.03-5.92,6.03-5.9-2.51-5.9-6.03Zm9.2,0c0-2.24-1.41-3.67-3.3-3.67s-3.28,1.43-3.28,3.67,1.41,3.67,3.28,3.67,3.3-1.43,3.3-3.67Z"/>
        <path class="cls-1" d="m291.2,62.1v16.33h-2.49v-1.52c-.87,1.12-2.16,1.67-3.68,1.67-3.22,0-5.61-2.38-5.61-6.03s2.39-6.01,5.61-6.01c1.43,0,2.7.51,3.57,1.58v-6.03h2.6Zm-2.55,10.46c0-2.24-1.43-3.67-3.3-3.67s-3.3,1.43-3.3,3.67,1.43,3.67,3.3,3.67,3.3-1.43,3.3-3.67Z"/>
        <path class="cls-1" d="m304.99,73.43h-8.7c.31,1.72,1.66,2.82,3.59,2.82,1.25,0,2.22-.42,3.01-1.28l1.39,1.69c-1,1.25-2.55,1.91-4.47,1.91-3.72,0-6.13-2.53-6.13-6.03s2.43-6.01,5.73-6.01,5.61,2.4,5.61,6.07c0,.22-.02.55-.04.81v.02Zm-8.71-1.83h6.29c-.21-1.69-1.43-2.86-3.14-2.86s-2.91,1.14-3.16,2.86h.01Z"/>
        <path class="cls-1" d="m323.63,73.43h-8.7c.31,1.72,1.66,2.82,3.59,2.82,1.25,0,2.22-.42,3.01-1.28l1.39,1.69c-1,1.25-2.55,1.91-4.47,1.91-3.72,0-6.13-2.53-6.13-6.03s2.43-6.01,5.73-6.01,5.61,2.4,5.61,6.07c0,.22-.02.55-.04.81v.02Zm-8.71-1.83h6.29c-.21-1.69-1.43-2.86-3.14-2.86s-2.91,1.14-3.16,2.86h.01Z"/>
        <path class="cls-1" d="m337.02,62.1v16.33h-2.49v-1.52c-.87,1.12-2.16,1.67-3.68,1.67-3.22,0-5.61-2.38-5.61-6.03s2.39-6.01,5.61-6.01c1.43,0,2.7.51,3.57,1.58v-6.03h2.6Zm-2.55,10.46c0-2.24-1.43-3.67-3.3-3.67s-3.3,1.43-3.3,3.67,1.43,3.67,3.3,3.67,3.3-1.43,3.3-3.67Z"/>
        <path class="cls-1" d="m340.07,63.09c0-.92.71-1.65,1.66-1.65s1.66.68,1.66,1.58c0,.97-.69,1.72-1.66,1.72s-1.66-.73-1.66-1.65Zm.35,3.59h2.6v11.75h-2.6v-11.75Z"/>
        <path class="cls-1" d="m353.09,77.79c-.62.53-1.56.79-2.49.79-2.43,0-3.82-1.36-3.82-3.96v-5.65h-1.83v-2.2h1.83v-2.68h2.6v2.68h2.97v2.2h-2.97v5.59c0,1.14.54,1.76,1.54,1.76.54,0,1.06-.15,1.45-.48l.73,1.96h-.01Z"/>
        <path class="cls-1" d="m364.51,71.54v6.89h-2.45v-1.43c-.62,1.01-1.83,1.58-3.49,1.58-2.53,0-4.13-1.47-4.13-3.52s1.25-3.5,4.61-3.5h2.87v-.18c0-1.61-.91-2.55-2.76-2.55-1.25,0-2.53.44-3.36,1.17l-1.02-2c1.18-.97,2.91-1.45,4.69-1.45,3.2,0,5.05,1.61,5.05,5h-.01Zm-2.6,3.2v-1.36h-2.68c-1.77,0-2.24.7-2.24,1.56,0,.99.79,1.63,2.12,1.63s2.37-.62,2.8-1.83h0Z"/>
        <path class="cls-1" d="m374.24,66.54v2.62c-.23-.04-.42-.07-.6-.07-1.97,0-3.22,1.23-3.22,3.63v5.7h-2.6v-11.75h2.47v1.72c.75-1.23,2.1-1.85,3.95-1.85Z"/>
        <path class="cls-1" d="m391.56,71.54v6.89h-2.45v-1.43c-.62,1.01-1.83,1.58-3.49,1.58-2.53,0-4.13-1.47-4.13-3.52s1.25-3.5,4.61-3.5h2.87v-.18c0-1.61-.91-2.55-2.76-2.55-1.25,0-2.53.44-3.36,1.17l-1.02-2c1.18-.97,2.91-1.45,4.69-1.45,3.2,0,5.05,1.61,5.05,5h-.01Zm-2.6,3.2v-1.36h-2.68c-1.77,0-2.24.7-2.24,1.56,0,.99.79,1.63,2.12,1.63s2.37-.62,2.8-1.83h0Z"/>
        <path class="cls-1" d="m401.54,77.79c-.62.53-1.56.79-2.49.79-2.43,0-3.82-1.36-3.82-3.96v-5.65h-1.83v-2.2h1.83v-2.68h2.6v2.68h2.97v2.2h-2.97v5.59c0,1.14.54,1.76,1.54,1.76.54,0,1.06-.15,1.45-.48l.73,1.96h-.01Z"/>
        <path class="cls-1" d="m402.39,72.55c0-3.52,2.49-6.01,5.9-6.01s5.92,2.49,5.92,6.01-2.47,6.03-5.92,6.03-5.9-2.51-5.9-6.03Zm9.2,0c0-2.24-1.41-3.67-3.3-3.67s-3.28,1.43-3.28,3.67,1.41,3.67,3.28,3.67,3.3-1.43,3.3-3.67Z"/>
        <path class="cls-1" d="m415.43,77.26l1-2.09c.98.68,2.47,1.17,3.86,1.17,1.64,0,2.33-.48,2.33-1.3,0-2.24-6.85-.13-6.85-4.82,0-2.22,1.89-3.67,4.88-3.67,1.47,0,3.16.37,4.15,1.01l-1,2.09c-1.06-.66-2.12-.88-3.18-.88-1.58,0-2.33.55-2.33,1.32,0,2.38,6.85.26,6.85,4.86,0,2.2-1.91,3.63-5.03,3.63-1.85,0-3.7-.57-4.69-1.32h.01Z"/>
        <path class="cls-1" d="m444.04,71.69v6.73h-2.6v-6.38c0-2.09-.98-3.1-2.64-3.1-1.85,0-3.09,1.19-3.09,3.54v5.94h-2.6v-11.75h2.47v1.52c.85-1.08,2.2-1.65,3.82-1.65,2.66,0,4.63,1.61,4.63,5.15h.01Z"/>
        <path class="cls-1" d="m446.53,72.55c0-3.52,2.49-6.01,5.9-6.01s5.92,2.49,5.92,6.01-2.47,6.03-5.92,6.03-5.9-2.51-5.9-6.03Zm9.2,0c0-2.24-1.41-3.67-3.3-3.67s-3.28,1.43-3.28,3.67,1.41,3.67,3.28,3.67,3.3-1.43,3.3-3.67Z"/>
        <path class="cls-1" d="m467.25,66.54v2.62c-.23-.04-.42-.07-.6-.07-1.97,0-3.22,1.23-3.22,3.63v5.7h-2.6v-11.75h2.47v1.72c.75-1.23,2.1-1.85,3.95-1.85Z"/>
        <path class="cls-1" d="m487.99,71.69v6.73h-2.6v-6.38c0-2.09-.91-3.1-2.49-3.1-1.7,0-2.89,1.19-2.89,3.52v5.96h-2.6v-6.38c0-2.09-.91-3.1-2.49-3.1-1.72,0-2.89,1.19-2.89,3.52v5.96h-2.6v-11.75h2.47v1.5c.83-1.06,2.12-1.63,3.63-1.63,1.62,0,2.97.64,3.74,1.96.89-1.21,2.39-1.96,4.15-1.96,2.68,0,4.55,1.61,4.55,5.15h.02Z"/>
        <path class="cls-1" d="m500.59,71.54v6.89h-2.45v-1.43c-.62,1.01-1.83,1.58-3.49,1.58-2.53,0-4.13-1.47-4.13-3.52s1.25-3.5,4.61-3.5h2.87v-.18c0-1.61-.91-2.55-2.76-2.55-1.25,0-2.53.44-3.36,1.17l-1.02-2c1.18-.97,2.91-1.45,4.69-1.45,3.2,0,5.05,1.61,5.05,5h-.01Zm-2.6,3.2v-1.36h-2.68c-1.77,0-2.24.7-2.24,1.56,0,.99.79,1.63,2.12,1.63s2.37-.62,2.8-1.83h0Z"/>
        <path class="cls-1" d="m510.58,77.79c-.62.53-1.56.79-2.49.79-2.43,0-3.82-1.36-3.82-3.96v-5.65h-1.83v-2.2h1.83v-2.68h2.6v2.68h2.97v2.2h-2.97v5.59c0,1.14.54,1.76,1.54,1.76.54,0,1.06-.15,1.45-.48l.73,1.96h-.01Z"/>
        <path class="cls-1" d="m512.36,63.09c0-.92.71-1.65,1.66-1.65s1.66.68,1.66,1.58c0,.97-.69,1.72-1.66,1.72s-1.66-.73-1.66-1.65Zm.35,3.59h2.6v11.75h-2.6v-11.75Z"/>
        <path class="cls-1" d="m529.1,66.68l-4.76,11.75h-2.68l-4.76-11.75h2.7l3.45,8.71,3.55-8.71h2.5Z"/>
        <path class="cls-1" d="m529.49,72.55c0-3.52,2.49-6.01,5.9-6.01s5.92,2.49,5.92,6.01-2.47,6.03-5.92,6.03-5.9-2.51-5.9-6.03Zm9.2,0c0-2.24-1.41-3.67-3.3-3.67s-3.28,1.43-3.28,3.67,1.41,3.67,3.28,3.67,3.3-1.43,3.3-3.67Z"/>
        <path class="cls-1" d="m542.53,77.26l1-2.09c.98.68,2.47,1.17,3.86,1.17,1.64,0,2.33-.48,2.33-1.3,0-2.24-6.85-.13-6.85-4.82,0-2.22,1.89-3.67,4.88-3.67,1.47,0,3.16.37,4.15,1.01l-1,2.09c-1.06-.66-2.12-.88-3.18-.88-1.58,0-2.33.55-2.33,1.32,0,2.38,6.85.26,6.85,4.86,0,2.2-1.91,3.63-5.03,3.63-1.85,0-3.7-.57-4.69-1.32h.01Z"/>
        <path class="cls-1" d="m571.99,72.55c0,3.65-2.39,6.03-5.63,6.03-1.41,0-2.66-.51-3.55-1.58v5.7h-2.6v-16.02h2.47v1.54c.87-1.12,2.16-1.67,3.68-1.67,3.24,0,5.63,2.38,5.63,6.01h0Zm-2.64-.01c0-2.24-1.41-3.67-3.28-3.67s-3.3,1.43-3.3,3.67,1.43,3.67,3.3,3.67,3.28-1.43,3.28-3.67Z"/>
        <path class="cls-1" d="m583.6,71.54v6.89h-2.45v-1.43c-.62,1.01-1.83,1.58-3.49,1.58-2.53,0-4.13-1.47-4.13-3.52s1.25-3.5,4.61-3.5h2.87v-.18c0-1.61-.91-2.55-2.76-2.55-1.25,0-2.53.44-3.36,1.17l-1.02-2c1.18-.97,2.91-1.45,4.69-1.45,3.2,0,5.05,1.61,5.05,5h-.01Zm-2.6,3.2v-1.36h-2.68c-1.77,0-2.24.7-2.24,1.56,0,.99.79,1.63,2.12,1.63s2.37-.62,2.8-1.83h0Z"/>
        <path class="cls-1" d="m593.33,66.54v2.62c-.23-.04-.42-.07-.6-.07-1.97,0-3.22,1.23-3.22,3.63v5.7h-2.6v-11.75h2.47v1.72c.75-1.23,2.1-1.85,3.95-1.85Z"/>
        <path class="cls-1" d="m604.75,71.54v6.89h-2.45v-1.43c-.62,1.01-1.83,1.58-3.49,1.58-2.53,0-4.13-1.47-4.13-3.52s1.25-3.5,4.61-3.5h2.87v-.18c0-1.61-.91-2.55-2.76-2.55-1.25,0-2.53.44-3.36,1.17l-1.02-2c1.18-.97,2.91-1.45,4.69-1.45,3.2,0,5.05,1.61,5.05,5h-.01Zm-2.6,3.2v-1.36h-2.68c-1.77,0-2.24.7-2.24,1.56,0,.99.79,1.63,2.12,1.63s2.37-.62,2.8-1.83h0Z"/>
        <path class="cls-1" d="m206.74,92.94v2.62c-.23-.04-.42-.07-.6-.07-1.97,0-3.22,1.23-3.22,3.63v5.7h-2.6v-11.75h2.47v1.72c.75-1.23,2.1-1.85,3.95-1.85h0Z"/>
        <path class="cls-1" d="m219.22,99.83h-8.7c.31,1.72,1.66,2.82,3.59,2.82,1.25,0,2.22-.42,3.01-1.28l1.39,1.69c-1,1.25-2.55,1.91-4.47,1.91-3.72,0-6.13-2.53-6.13-6.03s2.43-6.01,5.73-6.01,5.61,2.4,5.61,6.07c0,.22-.02.55-.04.81v.02Zm-8.71-1.83h6.29c-.21-1.69-1.43-2.86-3.14-2.86s-2.91,1.14-3.16,2.86h.01Z"/>
        <path class="cls-1" d="m232.76,93.08v9.97c0,4.27-2.1,6.21-5.98,6.21-2.08,0-4.13-.57-5.4-1.67l1.16-2.07c.98.86,2.55,1.41,4.09,1.41,2.45,0,3.53-1.19,3.53-3.56v-.62c-.91,1.06-2.22,1.56-3.72,1.56-3.18,0-5.61-2.29-5.61-5.7s2.43-5.66,5.61-5.66c1.56,0,2.93.53,3.84,1.69v-1.56h2.48Zm-2.55,5.52c0-1.98-1.41-3.32-3.36-3.32s-3.38,1.34-3.38,3.32,1.41,3.37,3.38,3.37,3.36-1.36,3.36-3.37Z"/>
        <path class="cls-1" d="m246.9,93.08v11.75h-2.47v-1.5c-.83,1.08-2.14,1.65-3.57,1.65-2.85,0-4.78-1.65-4.78-5.19v-6.71h2.6v6.34c0,2.13.96,3.15,2.6,3.15,1.81,0,3.03-1.19,3.03-3.54v-5.94h2.6,0Z"/>
        <path class="cls-1" d="m250.3,88.5h2.6v16.33h-2.6v-16.33h0Z"/>
        <path class="cls-1" d="m265.58,97.94v6.89h-2.45v-1.43c-.62,1.01-1.83,1.58-3.49,1.58-2.53,0-4.13-1.47-4.13-3.52s1.25-3.5,4.61-3.5h2.87v-.18c0-1.61-.91-2.55-2.76-2.55-1.25,0-2.53.44-3.36,1.17l-1.02-2c1.18-.97,2.91-1.45,4.69-1.45,3.2,0,5.05,1.61,5.05,5h0Zm-2.6,3.2v-1.36h-2.68c-1.77,0-2.24.7-2.24,1.56,0,.99.79,1.63,2.12,1.63s2.37-.62,2.8-1.83Z"/>
        <path class="cls-1" d="m275.32,92.94v2.62c-.23-.04-.42-.07-.6-.07-1.97,0-3.22,1.23-3.22,3.63v5.7h-2.6v-11.75h2.47v1.72c.75-1.23,2.1-1.85,3.95-1.85h0Z"/>
        <path class="cls-1" d="m282.08,103.66l1-2.09c.98.68,2.47,1.17,3.86,1.17,1.64,0,2.33-.48,2.33-1.3,0-2.24-6.85-.13-6.85-4.82,0-2.22,1.89-3.67,4.88-3.67,1.47,0,3.16.37,4.15,1.01l-1,2.09c-1.06-.66-2.12-.88-3.18-.88-1.58,0-2.33.55-2.33,1.32,0,2.38,6.85.26,6.85,4.86,0,2.2-1.91,3.63-5.03,3.63-1.85,0-3.7-.57-4.69-1.32h.01Z"/>
        <path class="cls-1" d="m304.43,99.83h-8.7c.31,1.72,1.66,2.82,3.59,2.82,1.25,0,2.22-.42,3.01-1.28l1.39,1.69c-1,1.25-2.55,1.91-4.47,1.91-3.72,0-6.13-2.53-6.13-6.03s2.43-6.01,5.73-6.01,5.61,2.4,5.61,6.07c0,.22-.02.55-.04.81v.02Zm-8.71-1.83h6.29c-.21-1.69-1.43-2.86-3.14-2.86s-2.91,1.14-3.16,2.86h.01Z"/>
        <path class="cls-1" d="m313.62,104.19c-.62.53-1.56.79-2.49.79-2.43,0-3.82-1.36-3.82-3.96v-5.65h-1.83v-2.2h1.83v-2.68h2.6v2.68h2.97v2.2h-2.97v5.59c0,1.14.54,1.76,1.54,1.76.54,0,1.06-.15,1.45-.48l.73,1.96h-.01Z"/>
        <path class="cls-1" d="m314.47,98.95c0-3.52,2.49-6.01,5.9-6.01s5.92,2.49,5.92,6.01-2.47,6.03-5.92,6.03-5.9-2.51-5.9-6.03Zm9.2,0c0-2.24-1.41-3.67-3.3-3.67s-3.28,1.43-3.28,3.67,1.41,3.67,3.28,3.67,3.3-1.43,3.3-3.67Z"/>
        <path class="cls-1" d="m335.19,92.94v2.62c-.23-.04-.42-.07-.6-.07-1.97,0-3.22,1.23-3.22,3.63v5.7h-2.6v-11.75h2.47v1.72c.75-1.23,2.1-1.85,3.95-1.85Z"/>
        <path class="cls-1" d="m347.67,99.83h-8.7c.31,1.72,1.66,2.82,3.59,2.82,1.25,0,2.22-.42,3.01-1.28l1.39,1.69c-1,1.25-2.55,1.91-4.47,1.91-3.72,0-6.13-2.53-6.13-6.03s2.43-6.01,5.73-6.01,5.61,2.4,5.61,6.07c0,.22-.02.55-.04.81v.02Zm-8.71-1.83h6.29c-.21-1.69-1.43-2.86-3.14-2.86s-2.91,1.14-3.16,2.86h.01Z"/>
        <path class="cls-1" d="m348.93,103.66l1-2.09c.98.68,2.47,1.17,3.86,1.17,1.64,0,2.33-.48,2.33-1.3,0-2.24-6.85-.13-6.85-4.82,0-2.22,1.89-3.67,4.88-3.67,1.47,0,3.16.37,4.15,1.01l-1,2.09c-1.06-.66-2.12-.88-3.18-.88-1.58,0-2.33.55-2.33,1.32,0,2.38,6.85.26,6.85,4.86,0,2.2-1.91,3.63-5.03,3.63-1.85,0-3.7-.57-4.69-1.32h.01Z"/>
        <path class="cls-1" d="m377.01,99.83h-8.7c.31,1.72,1.66,2.82,3.59,2.82,1.25,0,2.22-.42,3.01-1.28l1.39,1.69c-1,1.25-2.55,1.91-4.47,1.91-3.72,0-6.13-2.53-6.13-6.03s2.43-6.01,5.73-6.01,5.61,2.4,5.61,6.07c0,.22-.02.55-.04.81v.02Zm-8.71-1.83h6.29c-.21-1.69-1.43-2.86-3.14-2.86s-2.91,1.14-3.16,2.86h.01Z"/>
        <path class="cls-1" d="m378.27,103.66l1-2.09c.98.68,2.47,1.17,3.86,1.17,1.64,0,2.33-.48,2.33-1.3,0-2.24-6.85-.13-6.85-4.82,0-2.22,1.89-3.67,4.88-3.67,1.47,0,3.16.37,4.15,1.01l-1,2.09c-1.06-.66-2.12-.88-3.18-.88-1.58,0-2.33.55-2.33,1.32,0,2.38,6.85.26,6.85,4.86,0,2.2-1.91,3.63-5.03,3.63-1.85,0-3.7-.57-4.69-1.32h.01Z"/>
        <path class="cls-1" d="m396.89,104.19c-.62.53-1.56.79-2.49.79-2.43,0-3.82-1.36-3.82-3.96v-5.65h-1.83v-2.2h1.83v-2.68h2.6v2.68h2.97v2.2h-2.97v5.59c0,1.14.54,1.76,1.54,1.76.54,0,1.06-.15,1.45-.48l.73,1.96h-.01Z"/>
        <path class="cls-1" d="m405.45,92.94v2.62c-.23-.04-.42-.07-.6-.07-1.97,0-3.22,1.23-3.22,3.63v5.7h-2.6v-11.75h2.47v1.72c.75-1.23,2.1-1.85,3.95-1.85Z"/>
        <path class="cls-1" d="m416.87,97.94v6.89h-2.45v-1.43c-.62,1.01-1.83,1.58-3.49,1.58-2.53,0-4.13-1.47-4.13-3.52s1.25-3.5,4.61-3.5h2.87v-.18c0-1.61-.91-2.55-2.76-2.55-1.25,0-2.53.44-3.36,1.17l-1.02-2c1.18-.97,2.91-1.45,4.69-1.45,3.2,0,5.05,1.61,5.05,5h-.01Zm-2.6,3.2v-1.36h-2.68c-1.77,0-2.24.7-2.24,1.56,0,.99.79,1.63,2.12,1.63s2.37-.62,2.8-1.83Z"/>
        <path class="cls-1" d="m426.85,104.19c-.62.53-1.56.79-2.49.79-2.43,0-3.82-1.36-3.82-3.96v-5.65h-1.83v-2.2h1.83v-2.68h2.6v2.68h2.97v2.2h-2.97v5.59c0,1.14.54,1.76,1.54,1.76.54,0,1.06-.15,1.45-.48l.73,1.96h-.01Z"/>
        <path class="cls-1" d="m439,99.83h-8.7c.31,1.72,1.66,2.82,3.59,2.82,1.25,0,2.22-.42,3.01-1.28l1.39,1.69c-1,1.25-2.55,1.91-4.47,1.91-3.72,0-6.13-2.53-6.13-6.03s2.43-6.01,5.73-6.01,5.61,2.4,5.61,6.07c0,.22-.02.55-.04.81v.02Zm-8.71-1.83h6.29c-.21-1.69-1.43-2.86-3.14-2.86s-2.91,1.14-3.16,2.86h.01Zm3.59-6.53h-2.24l2.8-3.01h3.05l-3.61,3.01h0Z"/>
        <path class="cls-1" d="m452.54,93.08v9.97c0,4.27-2.1,6.21-5.98,6.21-2.08,0-4.13-.57-5.4-1.67l1.16-2.07c.98.86,2.55,1.41,4.09,1.41,2.45,0,3.53-1.19,3.53-3.56v-.62c-.91,1.06-2.22,1.56-3.72,1.56-3.18,0-5.61-2.29-5.61-5.7s2.43-5.66,5.61-5.66c1.56,0,2.93.53,3.84,1.69v-1.56h2.48Zm-2.55,5.52c0-1.98-1.41-3.32-3.36-3.32s-3.38,1.34-3.38,3.32,1.41,3.37,3.38,3.37,3.36-1.36,3.36-3.37Z"/>
        <path class="cls-1" d="m455.58,89.49c0-.92.71-1.65,1.66-1.65s1.66.68,1.66,1.58c0,.97-.69,1.72-1.66,1.72s-1.66-.73-1.66-1.65Zm.35,3.59h2.6v11.75h-2.6v-11.75h0Z"/>
        <path class="cls-1" d="m461.02,98.95c0-3.52,2.49-6.01,6-6.01,2.16,0,3.88.95,4.73,2.73l-1.99,1.23c-.67-1.12-1.66-1.63-2.76-1.63-1.91,0-3.36,1.41-3.36,3.67s1.45,3.67,3.36,3.67c1.1,0,2.1-.51,2.76-1.63l1.99,1.23c-.85,1.76-2.58,2.75-4.73,2.75-3.51,0-6-2.51-6-6.03v.02Z"/>
        <path class="cls-1" d="m472.92,98.95c0-3.52,2.49-6.01,5.9-6.01s5.92,2.49,5.92,6.01-2.47,6.03-5.92,6.03-5.9-2.51-5.9-6.03Zm9.2,0c0-2.24-1.41-3.67-3.3-3.67s-3.28,1.43-3.28,3.67,1.41,3.67,3.28,3.67,3.3-1.43,3.3-3.67Z"/>
        <path class="cls-1" d="m485.96,103.66l1-2.09c.98.68,2.47,1.17,3.86,1.17,1.64,0,2.33-.48,2.33-1.3,0-2.24-6.85-.13-6.85-4.82,0-2.22,1.89-3.67,4.88-3.67,1.47,0,3.16.37,4.15,1.01l-1,2.09c-1.06-.66-2.12-.88-3.18-.88-1.58,0-2.33.55-2.33,1.32,0,2.38,6.85.26,6.85,4.86,0,2.2-1.91,3.63-5.03,3.63-1.85,0-3.7-.57-4.69-1.32h.01Z"/>
        <path class="cls-1" d="m514.51,88.5v16.33h-2.49v-1.52c-.87,1.12-2.16,1.67-3.68,1.67-3.22,0-5.61-2.38-5.61-6.03s2.39-6.01,5.61-6.01c1.43,0,2.7.51,3.57,1.58v-6.03h2.6Zm-2.55,10.46c0-2.24-1.43-3.67-3.3-3.67s-3.3,1.43-3.3,3.67,1.43,3.67,3.3,3.67,3.3-1.43,3.3-3.67Z"/>
        <path class="cls-1" d="m516.99,98.95c0-3.52,2.49-6.01,5.9-6.01s5.92,2.49,5.92,6.01-2.47,6.03-5.92,6.03-5.9-2.51-5.9-6.03Zm9.2,0c0-2.24-1.41-3.67-3.3-3.67s-3.28,1.43-3.28,3.67,1.41,3.67,3.28,3.67,3.3-1.43,3.3-3.67Z"/>
        <path class="cls-1" d="m555.57,98.09v6.73h-2.6v-6.38c0-2.09-.91-3.1-2.49-3.1-1.7,0-2.89,1.19-2.89,3.52v5.96h-2.6v-6.38c0-2.09-.91-3.1-2.49-3.1-1.72,0-2.89,1.19-2.89,3.52v5.96h-2.6v-11.75h2.47v1.5c.83-1.06,2.12-1.63,3.63-1.63,1.62,0,2.97.64,3.74,1.96.89-1.21,2.39-1.96,4.15-1.96,2.68,0,4.55,1.61,4.55,5.15h.02Z"/>
        <path class="cls-1" d="m569.38,99.83h-8.7c.31,1.72,1.66,2.82,3.59,2.82,1.25,0,2.22-.42,3.01-1.28l1.39,1.69c-1,1.25-2.55,1.91-4.47,1.91-3.72,0-6.13-2.53-6.13-6.03s2.43-6.01,5.73-6.01,5.61,2.4,5.61,6.07c0,.22-.02.55-.04.81v.02Zm-8.71-1.83h6.29c-.21-1.69-1.43-2.86-3.14-2.86s-2.91,1.14-3.16,2.86h.01Z"/>
        <path class="cls-1" d="m578.32,92.94v2.62c-.23-.04-.42-.07-.6-.07-1.97,0-3.22,1.23-3.22,3.63v5.7h-2.6v-11.75h2.47v1.72c.75-1.23,2.1-1.85,3.95-1.85Z"/>
        <path class="cls-1" d="m579.5,98.95c0-3.52,2.49-6.01,6-6.01,2.16,0,3.88.95,4.73,2.73l-1.99,1.23c-.67-1.12-1.66-1.63-2.76-1.63-1.91,0-3.36,1.41-3.36,3.67s1.45,3.67,3.36,3.67c1.1,0,2.1-.51,2.76-1.63l1.99,1.23c-.85,1.76-2.58,2.75-4.73,2.75-3.51,0-6-2.51-6-6.03v.02Z"/>
        <path class="cls-1" d="m601.76,97.94v6.89h-2.45v-1.43c-.62,1.01-1.83,1.58-3.49,1.58-2.53,0-4.13-1.47-4.13-3.52s1.25-3.5,4.61-3.5h2.87v-.18c0-1.61-.91-2.55-2.76-2.55-1.25,0-2.53.44-3.36,1.17l-1.02-2c1.18-.97,2.91-1.45,4.69-1.45,3.2,0,5.05,1.61,5.05,5h-.01Zm-2.6,3.2v-1.36h-2.68c-1.77,0-2.24.7-2.24,1.56,0,.99.79,1.63,2.12,1.63s2.37-.62,2.8-1.83Z"/>
        <path class="cls-1" d="m616.05,88.5v16.33h-2.49v-1.52c-.87,1.12-2.16,1.67-3.68,1.67-3.22,0-5.61-2.38-5.61-6.03s2.39-6.01,5.61-6.01c1.43,0,2.7.51,3.57,1.58v-6.03h2.6Zm-2.55,10.46c0-2.24-1.43-3.67-3.3-3.67s-3.3,1.43-3.3,3.67,1.43,3.67,3.3,3.67,3.3-1.43,3.3-3.67Z"/>
        <path class="cls-1" d="m618.54,98.95c0-3.52,2.49-6.01,5.9-6.01s5.92,2.49,5.92,6.01-2.47,6.03-5.92,6.03-5.9-2.51-5.9-6.03Zm9.2,0c0-2.24-1.41-3.67-3.3-3.67s-3.28,1.43-3.28,3.67,1.41,3.67,3.28,3.67,3.3-1.43,3.3-3.67Z"/>
        <path class="cls-1" d="m631.76,103.15c0-1.1.77-1.83,1.7-1.83s1.7.73,1.7,1.83-.77,1.83-1.7,1.83-1.7-.77-1.7-1.83Z"/>
      </g>
      <g>
        <circle class="cls-2" cx="91.34" cy="68.64" r="56.09"/>
        <circle class="cls-3" cx="91.34" cy="68.64" r="52.61"/>
      </g>
      <path class="cls-5" d="m111.04,80.38c0,10.29-7.93,19.7-25.28,19.7-8.54,0-17.35-2.35-23.28-6.54l5.49-10.81c4.62,3.49,11.07,5.49,17.44,5.49,7.06,0,11.42-2.88,11.42-7.85,0-4.62-3.4-7.5-11.42-7.5h-6.45v-9.33l12.55-14.21h-25.98v-11.33h42.72v9.16l-13.78,15.69c10.99,1.74,16.57,8.54,16.57,17.53h0Z"/>
    </g>
  </g>
</svg>