<?xml version="1.0" encoding="utf-8"?>
<!-- Generator: Adobe Illustrator 27.1.1, SVG Export Plug-In . SVG Version: 6.00 Build 0)  -->
<svg version="1.1" id="Layer_1" xmlns="http://www.w3.org/2000/svg" xmlns:xlink="http://www.w3.org/1999/xlink" x="0px" y="0px"
	 viewBox="0 0 108.7 105.9" style="enable-background:new 0 0 108.7 105.9;" xml:space="preserve">
<style type="text/css">
	.st0{fill:#F0602A;}
	.st1{fill:#FFFFFF;}
</style>
<g>
	<circle class="st0" cx="43.9" cy="52.9" r="32.3"/>
	<g>
		<path class="st1" d="M32.9,60.3c-1.1-0.7-1.9-1.6-2.5-2.9c-0.6-1.3-0.9-2.8-0.9-4.5s0.3-3.2,0.9-4.5s1.5-2.2,2.5-2.9
			c1.1-0.7,2.3-1,3.7-1s2.6,0.3,3.7,1s1.9,1.6,2.5,2.9c0.6,1.3,0.9,2.8,0.9,4.5s-0.3,3.2-0.9,4.5s-1.5,2.2-2.5,2.9s-2.3,1-3.7,1
			S34,61,32.9,60.3z M38.4,56.5c0.5-0.8,0.7-1.9,0.7-3.5s-0.2-2.8-0.7-3.5s-1.1-1.1-1.8-1.1s-1.4,0.4-1.9,1.1
			c-0.5,0.8-0.7,1.9-0.7,3.5s0.2,2.8,0.7,3.5s1.1,1.1,1.9,1.1S38,57.2,38.4,56.5z"/>
		<path class="st1" d="M58.3,57.4V61H45.7v-2.9l6-5.7c0.6-0.5,1-1,1.2-1.4s0.3-0.8,0.3-1.2c0-0.5-0.2-0.9-0.5-1.2s-0.9-0.4-1.5-0.4
			c-0.6,0-1.2,0.1-1.7,0.4c-0.5,0.3-0.9,0.7-1.2,1.2l-3.4-1.9c0.6-1,1.5-1.9,2.7-2.5s2.5-0.9,4-0.9c1.2,0,2.3,0.2,3.3,0.6
			c1,0.4,1.7,1,2.2,1.7s0.8,1.6,0.8,2.6c0,0.9-0.2,1.7-0.6,2.5s-1.1,1.7-2.2,2.6l-3,2.8L58.3,57.4L58.3,57.4L58.3,57.4z"/>
	</g>
</g>
<rect x="95.2" y="20.6" class="st0" width="2" height="64.8"/>
</svg>
