<?xml version="1.0" encoding="utf-8"?>
<!-- Generator: Adobe Illustrator 27.1.1, SVG Export Plug-In . SVG Version: 6.00 Build 0)  -->
<svg version="1.1" id="OBJECTS" xmlns="http://www.w3.org/2000/svg" xmlns:xlink="http://www.w3.org/1999/xlink" x="0px" y="0px"
	 viewBox="0 0 750 500" style="enable-background:new 0 0 750 500;" xml:space="preserve">
<style type="text/css">
	.st0{opacity:0.22;fill:#006681;enable-background:new    ;}
	.st1{opacity:0.22;fill:#D26031;enable-background:new    ;}
	.st2{opacity:0.22;fill:#00A9B9;enable-background:new    ;}
	.st3{opacity:0.22;fill:#5F677B;enable-background:new    ;}
	.st4{opacity:0.22;fill:#1D334A;enable-background:new    ;}
	.st5{opacity:0.22;fill:#4B8484;enable-background:new    ;}
	.st6{fill:none;stroke:#142A3F;stroke-miterlimit:10;}
	.st7{fill:#006681;}
	.st8{fill:#EE602A;}
	.st9{fill:#00A9B9;}
	.st10{fill:#5F677B;}
	.st11{fill:#1D334A;}
	.st12{fill:#048484;}
	.st13{fill:url(#SVGID_1_);}
	.st14{fill:#142A3F;}
	.st15{fill:#FFFFFF;}
	.st16{fill:#013049;}
	.st17{fill:#006682;}
	.st18{fill:url(#SVGID_00000177475710102676338720000018262916728616357508_);}
	.st19{fill-rule:evenodd;clip-rule:evenodd;fill:#FFFFFF;}
</style>
<path class="st0" d="M280.9,73.4l-10,6.2c-58.3,35.7-94,97.7-95.5,165.7l0,0l30.4,0.2h1.4c1.4-57,31.4-108.7,80.2-138.7l9.5-5.9
	L280.9,73.4L280.9,73.4z"/>
<path class="st1" d="M543.2,242.9l-0.3,11.2c-1.4,57-31.4,109-80.2,139.1l-9.5,5.9l15.9,27.5l10-6.2c58.3-35.7,94-97.7,95.5-165.7
	l0.3-11.8H543.2L543.2,242.9z"/>
<path class="st2" d="M287.1,393.1c-48.7-30-78.7-82-80-139v-8.6l-31.8-0.2v9.3c1.6,68,37.2,129.9,95.4,165.6l10,6.2l16-27.5
	L287.1,393.1L287.1,393.1z"/>
<path class="st3" d="M575,242.9c-1.6-67.9-37.5-127.4-95.6-163.2l-10-6.2l-16,27.5l9.5,5.9c48.8,30,78.9,79,80.3,136L575,242.9
	L575,242.9z"/>
<path class="st4" d="M471.3,75c-29.4-16.2-62.6-24.8-96.3-24.8s-66.8,8.5-96.1,24.7l-10.3,5.7l15.9,27.5l9.9-5.4
	C319,89.2,346.9,82,375,82s56.1,7.2,80.8,20.7l9.8,5.4l16-27.5L471.3,75L471.3,75z"/>
<path class="st5" d="M465.4,391.9l-9.9,5.4C431,410.8,403.1,418,375,418s-56.1-7.2-80.8-20.7l-9.9-5.4l-16,27.5l10.3,5.7
	c29.4,16.2,62.6,24.8,96.3,24.8s66.8-8.5,96.1-24.7l10.3-5.7L465.4,391.9L465.4,391.9z"/>
<g>
	<line class="st6" x1="281.3" y1="88.3" x2="468.7" y2="411.7"/>
	<line class="st6" x1="281.1" y1="411.6" x2="468.9" y2="88.4"/>
	<line class="st6" x1="281.3" y1="88.3" x2="468.7" y2="411.7"/>
	<line class="st6" x1="281.1" y1="411.6" x2="468.9" y2="88.4"/>
</g>
<path class="st7" d="M273,247.5c0.9-35.7,20.2-66.9,48.7-84.5l-2.5-4.3c-30,18.4-50.4,51.3-51.2,88.8L273,247.5L273,247.5z"/>
<path class="st8" d="M477,252.5c-0.9,35.7-20.2,67-48.7,84.5l2.5,4.3c30.1-18.4,50.4-51.3,51.2-88.8L477,252.5L477,252.5z"/>
<path class="st9" d="M273,252.5h-5c0.9,37.5,21.1,70.3,51.1,88.8l2.5-4.3C293.1,319.4,273.8,288.2,273,252.5L273,252.5z"/>
<path class="st10" d="M430.9,158.7l-2.5,4.3c28.5,17.6,47.8,48.8,48.6,84.4h5C481.2,210,460.9,177.2,430.9,158.7L430.9,158.7z"/>
<path class="st11" d="M326,160.5c14.5-8,31.2-12.6,49-12.6s34.5,4.6,49.1,12.6l2.5-4.3c-15.3-8.5-32.9-13.3-51.6-13.3
	s-36.2,4.8-51.5,13.2L326,160.5z"/>
<path class="st12" d="M424,339.5c-14.5,8-31.2,12.5-49,12.5s-34.5-4.6-49.1-12.6l-2.5,4.3c15.3,8.5,32.9,13.3,51.6,13.3
	s36.2-4.8,51.5-13.2L424,339.5L424,339.5z"/>
<linearGradient id="SVGID_1_" gradientUnits="userSpaceOnUse" x1="1.73" y1="1125" x2="158.27" y2="1125" gradientTransform="matrix(6.123234e-17 1 1 -6.123234e-17 -750 170)">
	<stop  offset="0" style="stop-color:#FFFFFF"/>
	<stop  offset="0.49" style="stop-color:#F4F4F4"/>
	<stop  offset="1" style="stop-color:#E5E5E5"/>
</linearGradient>
<circle class="st13" cx="375" cy="250" r="78.3"/>
<g>
	<path class="st14" d="M340.1,229.6c0,2.6-1.9,4.1-5,4.1h-2.9v3.6h-1.7v-11.9h4.6C338.2,225.5,340.1,227,340.1,229.6z M338.4,229.6
		c0-1.7-1.1-2.7-3.3-2.7h-2.9v5.3h2.9C337.3,232.3,338.4,231.3,338.4,229.6z"/>
	<path class="st14" d="M342.5,224.8h1.6v12.6h-1.6V224.8z"/>
	<path class="st14" d="M355.7,228.4v9h-1.5V236c-0.7,0.9-1.8,1.5-3.1,1.5c-2.3,0-3.9-1.3-3.9-3.9v-5.2h1.6v5c0,1.8,0.9,2.6,2.4,2.6
		c1.7,0,2.8-1.1,2.8-3v-4.7H355.7L355.7,228.4z"/>
	<path class="st14" d="M363.6,228.3v1.6c-0.1,0-0.2,0-0.4,0c-1.8,0-2.8,1.1-2.8,3v4.5h-1.6v-9h1.6v1.5
		C360.9,228.8,362.1,228.3,363.6,228.3L363.6,228.3z"/>
	<path class="st14" d="M372.8,231.9v5.4h-1.5v-1.2c-0.5,0.8-1.5,1.3-3,1.3c-2,0-3.3-1.1-3.3-2.6c0-1.4,0.9-2.6,3.6-2.6h2.6v-0.3
		c0-1.4-0.8-2.2-2.4-2.2c-1.1,0-2.2,0.4-2.9,1l-0.7-1.2c0.9-0.8,2.3-1.2,3.7-1.2C371.4,228.3,372.8,229.5,372.8,231.9L372.8,231.9z
		 M371.1,234.6v-1.3h-2.5c-1.6,0-2.1,0.6-2.1,1.4c0,0.9,0.8,1.5,2,1.5S370.7,235.7,371.1,234.6L371.1,234.6z"/>
	<path class="st14" d="M375.8,224.8h1.6v12.6h-1.6V224.8z"/>
	<path class="st14" d="M380.3,225.6c0-0.6,0.5-1.1,1.1-1.1s1.1,0.5,1.1,1c0,0.6-0.5,1.1-1.1,1.1S380.3,226.2,380.3,225.6
		L380.3,225.6z M380.6,228.4h1.6v9h-1.6V228.4z"/>
	<path class="st14" d="M384.1,236.4l0.7-1.3c0.8,0.5,2,0.9,3.2,0.9c1.5,0,2.1-0.5,2.1-1.2c0-2-5.7-0.3-5.7-3.9
		c0-1.6,1.4-2.7,3.8-2.7c1.2,0,2.5,0.3,3.3,0.8l-0.7,1.3c-0.8-0.5-1.7-0.7-2.6-0.7c-1.4,0-2.1,0.5-2.1,1.2c0,2.1,5.7,0.4,5.7,3.9
		c0,1.6-1.5,2.7-3.9,2.7C386.4,237.5,384.9,237,384.1,236.4L384.1,236.4z"/>
	<path class="st14" d="M408.8,232.2v5.2h-1.6v-5c0-1.8-0.9-2.6-2.3-2.6c-1.6,0-2.7,1-2.7,3v4.6h-1.6v-5c0-1.8-0.9-2.6-2.3-2.6
		c-1.6,0-2.7,1-2.7,3v4.6h-1.6v-9h1.6v1.3c0.6-0.9,1.8-1.4,3.1-1.4s2.5,0.5,3.1,1.7c0.7-1,1.9-1.7,3.5-1.7
		C407.3,228.3,408.8,229.5,408.8,232.2L408.8,232.2z"/>
	<path class="st14" d="M411,232.9c0-2.7,2-4.6,4.7-4.6s4.7,1.9,4.7,4.6s-2,4.6-4.7,4.6S411,235.6,411,232.9z M418.7,232.9
		c0-1.9-1.3-3.2-3-3.2s-3,1.2-3,3.2s1.3,3.2,3,3.2S418.7,234.8,418.7,232.9z"/>
	<path class="st14" d="M318.1,253.3c0,2.8-1.9,4.6-4.6,4.6c-1.3,0-2.4-0.5-3.1-1.5v4.7h-1.6v-12.3h1.6v1.4c0.7-1,1.9-1.5,3.2-1.5
		C316.2,248.7,318.1,250.5,318.1,253.3L318.1,253.3z M316.5,253.3c0-1.9-1.3-3.2-3-3.2s-3,1.3-3,3.2s1.3,3.2,3,3.2
		S316.5,255.2,316.5,253.3L316.5,253.3z"/>
	<path class="st14" d="M319.5,253.3c0-2.7,2-4.6,4.7-4.6s4.7,1.9,4.7,4.6s-2,4.6-4.7,4.6S319.5,256,319.5,253.3z M327.3,253.3
		c0-1.9-1.3-3.2-3-3.2s-3,1.2-3,3.2s1.3,3.2,3,3.2S327.3,255.2,327.3,253.3L327.3,253.3z"/>
	<path class="st14" d="M331.2,245.2h1.6v12.6h-1.6V245.2L331.2,245.2z"/>
	<path class="st14" d="M337.8,245.2h2.1l-2.9,2.2h-1.5L337.8,245.2L337.8,245.2z M335.9,248.8h1.6v9h-1.6V248.8z"/>
	<path class="st14" d="M345.7,257.2c-0.5,0.4-1.2,0.6-2,0.6c-1.8,0-2.9-1-2.9-2.8v-4.9h-1.5v-1.3h1.5v-2h1.6v2h2.6v1.3h-2.6v4.9
		c0,1,0.5,1.5,1.4,1.5c0.5,0,0.9-0.1,1.3-0.4L345.7,257.2L345.7,257.2z"/>
	<path class="st14" d="M347.4,246c0-0.6,0.5-1.1,1.1-1.1s1.1,0.5,1.1,1c0,0.6-0.5,1.1-1.1,1.1S347.4,246.6,347.4,246L347.4,246z
		 M347.7,248.8h1.6v9h-1.6V248.8L347.7,248.8z"/>
	<path class="st14" d="M351.6,253.3c0-2.7,2-4.6,4.8-4.6c1.6,0,3,0.7,3.7,1.9l-1.2,0.8c-0.6-0.9-1.5-1.3-2.5-1.3
		c-1.8,0-3.1,1.2-3.1,3.2s1.3,3.2,3.1,3.2c1,0,1.9-0.4,2.5-1.3l1.2,0.8c-0.7,1.3-2.1,1.9-3.7,1.9C353.6,257.9,351.6,256,351.6,253.3
		z"/>
	<path class="st14" d="M361.2,253.3c0-2.7,2-4.6,4.7-4.6s4.7,1.9,4.7,4.6s-2,4.6-4.7,4.6S361.2,256,361.2,253.3z M368.9,253.3
		c0-1.9-1.3-3.2-3-3.2s-3,1.2-3,3.2s1.3,3.2,3,3.2S368.9,255.2,368.9,253.3L368.9,253.3z"/>
	<path class="st14" d="M372.4,252.4h4.6v1.4h-4.6V252.4z"/>
	<path class="st14" d="M376.4,260.6l0.5-1.3c0.3,0.3,0.8,0.4,1.3,0.4c0.9,0,1.3-0.5,1.3-1.6v-9.4h1.6v9.4c0,1.8-1,3-2.9,3
		C377.6,261.2,376.8,261,376.4,260.6L376.4,260.6z M379.3,246c0-0.6,0.5-1.1,1.1-1.1s1.1,0.5,1.1,1c0,0.6-0.5,1.1-1.1,1.1
		S379.3,246.6,379.3,246L379.3,246z"/>
	<path class="st14" d="M392.7,248.8v9h-1.5v-1.4c-0.7,0.9-1.8,1.5-3.1,1.5c-2.3,0-3.9-1.3-3.9-3.9v-5.2h1.6v5c0,1.8,0.9,2.6,2.4,2.6
		c1.7,0,2.8-1.1,2.8-3v-4.7H392.7L392.7,248.8z"/>
	<path class="st14" d="M400.7,248.7v1.6c-0.1,0-0.2,0-0.4,0c-1.8,0-2.8,1.1-2.8,3v4.5h-1.6v-9h1.6v1.5
		C398,249.2,399.1,248.7,400.7,248.7L400.7,248.7z"/>
	<path class="st14" d="M404.5,245.2h2.1l-2.9,2.2h-1.5L404.5,245.2L404.5,245.2z M402.7,248.8h1.6v9h-1.6V248.8z"/>
	<path class="st14" d="M415.9,245.2v12.6h-1.6v-1.4c-0.7,1-1.9,1.5-3.2,1.5c-2.6,0-4.6-1.9-4.6-4.6s1.9-4.6,4.6-4.6
		c1.3,0,2.4,0.5,3.1,1.4v-5L415.9,245.2L415.9,245.2z M414.3,253.3c0-1.9-1.3-3.2-3-3.2s-3,1.2-3,3.2s1.3,3.2,3,3.2
		S414.3,255.2,414.3,253.3L414.3,253.3z"/>
	<path class="st14" d="M418.7,246c0-0.6,0.5-1.1,1.1-1.1s1.1,0.5,1.1,1c0,0.6-0.5,1.1-1.1,1.1S418.7,246.6,418.7,246L418.7,246z
		 M419,248.8h1.6v9H419V248.8L419,248.8z"/>
	<path class="st14" d="M422.9,253.3c0-2.7,2-4.6,4.8-4.6c1.6,0,3,0.7,3.7,1.9l-1.2,0.8c-0.6-0.9-1.5-1.3-2.5-1.3
		c-1.8,0-3.1,1.2-3.1,3.2s1.3,3.2,3.1,3.2c1,0,1.9-0.4,2.5-1.3l1.2,0.8c-0.7,1.3-2.1,1.9-3.7,1.9C424.9,257.9,422.9,256,422.9,253.3
		z"/>
	<path class="st14" d="M432.5,253.3c0-2.7,2-4.6,4.7-4.6s4.7,1.9,4.7,4.6s-2,4.6-4.7,4.6S432.5,256,432.5,253.3z M440.2,253.3
		c0-1.9-1.3-3.2-3-3.2s-3,1.2-3,3.2s1.3,3.2,3,3.2S440.2,255.2,440.2,253.3L440.2,253.3z"/>
	<path class="st14" d="M353.9,273v5.2h-1.6v-5c0-1.8-0.9-2.6-2.3-2.6c-1.6,0-2.7,1-2.7,3v4.6h-1.6v-5c0-1.8-0.9-2.6-2.3-2.6
		c-1.6,0-2.7,1-2.7,3v4.6h-1.6v-9h1.6v1.3c0.6-0.9,1.8-1.4,3.1-1.4s2.5,0.5,3.1,1.7c0.7-1,1.9-1.7,3.5-1.7
		C352.4,269.1,353.9,270.3,353.9,273L353.9,273z"/>
	<path class="st14" d="M365.1,274.2h-7.3c0.2,1.6,1.5,2.6,3.3,2.6c1,0,1.9-0.4,2.6-1.1l0.9,1c-0.8,1-2.1,1.5-3.5,1.5
		c-2.9,0-4.8-1.9-4.8-4.6s1.9-4.6,4.5-4.6s4.5,1.9,4.5,4.6C365.1,273.9,365.1,274.1,365.1,274.2L365.1,274.2z M357.8,273h5.8
		c-0.2-1.5-1.3-2.6-2.9-2.6S357.9,271.5,357.8,273L357.8,273z"/>
	<path class="st14" d="M375.9,265.6v12.6h-1.6v-1.4c-0.7,1-1.9,1.5-3.2,1.5c-2.6,0-4.6-1.9-4.6-4.6s1.9-4.6,4.6-4.6
		c1.3,0,2.4,0.5,3.1,1.4v-5L375.9,265.6L375.9,265.6z M374.2,273.7c0-1.9-1.3-3.2-3-3.2s-3,1.2-3,3.2s1.3,3.2,3,3.2
		S374.2,275.6,374.2,273.7z"/>
	<path class="st14" d="M378.7,266.4c0-0.6,0.5-1.1,1.1-1.1s1.1,0.5,1.1,1c0,0.6-0.5,1.1-1.1,1.1S378.7,267,378.7,266.4L378.7,266.4z
		 M379,269.2h1.6v9H379V269.2z"/>
	<path class="st14" d="M391.8,274.2h-7.3c0.2,1.6,1.5,2.6,3.3,2.6c1,0,1.9-0.4,2.6-1.1l0.9,1c-0.8,1-2.1,1.5-3.5,1.5
		c-2.9,0-4.8-1.9-4.8-4.6s1.9-4.6,4.5-4.6s4.5,1.9,4.5,4.6C391.8,273.9,391.8,274.1,391.8,274.2L391.8,274.2z M384.5,273h5.8
		c-0.2-1.5-1.3-2.6-2.9-2.6S384.7,271.5,384.5,273L384.5,273z"/>
	<path class="st14" d="M401.9,269.2l-3.9,9h-1.7l-3.9-9h1.7l3.1,7.2l3.2-7.2H401.9z"/>
	<path class="st14" d="M402.3,273.7c0-2.7,2-4.6,4.7-4.6s4.7,1.9,4.7,4.6s-2,4.6-4.7,4.6S402.3,276.4,402.3,273.7z M410.1,273.7
		c0-1.9-1.3-3.2-3-3.2s-3,1.2-3,3.2s1.3,3.2,3,3.2S410.1,275.6,410.1,273.7z"/>
</g>
<path class="st8" d="M656,411.7c0-24-19.4-43.4-43.4-43.4H466.9c-24,0-43.4,19.4-43.4,43.4l0,0c0,24,19.4,43.4,43.4,43.4h145.7
	C636.6,455.1,656,435.7,656,411.7L656,411.7z"/>
<circle class="st15" cx="468.7" cy="411.8" r="36.5"/>
<circle class="st8" cx="468.7" cy="411.7" r="27.7"/>
<path class="st16" d="M656,88.3c0-24-19.4-43.4-43.4-43.4H466.9c-24,0-43.4,19.4-43.4,43.4l0,0c0,24,19.4,43.4,43.4,43.4h145.7
	C636.6,131.6,656,112.2,656,88.3C656,88.3,656,88.3,656,88.3z"/>
<ellipse transform="matrix(0.7071 -0.7071 0.7071 0.7071 74.8652 357.2772)" class="st15" cx="468.7" cy="88.3" rx="36.5" ry="36.5"/>
<circle class="st16" cx="468.7" cy="88.3" r="27.7"/>
<path class="st12" d="M94,411.7c0,24,19.4,43.4,43.4,43.4h145.7c24,0,43.4-19.4,43.4-43.4l0,0c0-24-19.4-43.4-43.4-43.4H137.4
	C113.4,368.4,94,387.8,94,411.7L94,411.7L94,411.7z"/>
<circle class="st15" cx="281.3" cy="411.7" r="36.5"/>
<circle class="st12" cx="281.3" cy="411.7" r="27.7"/>
<path class="st17" d="M94,88.3c0,24,19.4,43.4,43.4,43.4h145.7c24,0,43.4-19.4,43.4-43.4l0,0c0-23.9-19.4-43.4-43.4-43.4H137.4
	C113.4,44.9,94,64.3,94,88.3L94,88.3L94,88.3z"/>
<g>
	<path class="st15" d="M165.3,80.3v1.9h-8.1V71.8h7.9v1.9h-5.5V76h4.9v1.9h-4.9v2.4L165.3,80.3L165.3,80.3z"/>
	<path class="st15" d="M175.2,71.1v11.1H173v-0.9c-0.6,0.7-1.4,1.1-2.5,1.1c-2.3,0-4-1.6-4-4.2s1.8-4.2,4-4.2c1,0,1.8,0.3,2.4,1
		v-3.9L175.2,71.1L175.2,71.1z M173,78.2c0-1.4-0.9-2.2-2.1-2.2s-2.1,0.8-2.1,2.2s0.9,2.2,2.1,2.2S173,79.6,173,78.2z"/>
	<path class="st15" d="M177.1,71.8c0-0.7,0.6-1.3,1.5-1.3s1.5,0.5,1.5,1.3c0,0.8-0.6,1.3-1.5,1.3S177.1,72.5,177.1,71.8z
		 M177.4,74.2h2.3v8.1h-2.3V74.2z"/>
	<path class="st15" d="M187.1,81.9c-0.5,0.3-1.2,0.5-1.9,0.5c-1.9,0-3-1-3-2.9v-3.3H181v-1.8h1.2v-2h2.3v2h2v1.8h-2v3.3
		c0,0.7,0.4,1.1,1,1.1c0.3,0,0.7-0.1,0.9-0.3L187.1,81.9L187.1,81.9z"/>
	<path class="st15" d="M187.6,78.2c0-2.4,1.9-4.2,4.4-4.2s4.4,1.7,4.4,4.2s-1.9,4.2-4.4,4.2S187.6,80.7,187.6,78.2z M194.1,78.2
		c0-1.4-0.9-2.2-2.1-2.2s-2.1,0.8-2.1,2.2s0.9,2.2,2.1,2.2S194.1,79.6,194.1,78.2z"/>
	<path class="st15" d="M197.2,81.5l0.8-1.7c0.7,0.5,1.8,0.8,2.8,0.8c1.1,0,1.5-0.3,1.5-0.7c0-1.3-4.9,0-4.9-3.2
		c0-1.5,1.4-2.6,3.7-2.6c1.1,0,2.3,0.2,3.1,0.7l-0.8,1.7c-0.8-0.4-1.6-0.6-2.3-0.6c-1.1,0-1.5,0.3-1.5,0.8c0,1.4,4.9,0,4.9,3.2
		c0,1.5-1.4,2.6-3.8,2.6C199.3,82.4,198,82,197.2,81.5L197.2,81.5z"/>
	<path class="st15" d="M218.4,71.1v11.1h-2.2v-0.9c-0.6,0.7-1.4,1.1-2.5,1.1c-2.3,0-4-1.6-4-4.2s1.8-4.2,4-4.2c1,0,1.8,0.3,2.4,1
		v-3.9L218.4,71.1L218.4,71.1z M216.2,78.2c0-1.4-0.9-2.2-2.1-2.2s-2.1,0.8-2.1,2.2s0.9,2.2,2.1,2.2S216.2,79.6,216.2,78.2z"/>
	<path class="st15" d="M220,78.2c0-2.4,1.9-4.2,4.4-4.2s4.4,1.7,4.4,4.2s-1.9,4.2-4.4,4.2S220,80.7,220,78.2z M226.5,78.2
		c0-1.4-0.9-2.2-2.1-2.2s-2.1,0.8-2.1,2.2s0.9,2.2,2.1,2.2S226.5,79.6,226.5,78.2z"/>
	<path class="st15" d="M121.2,99.5l0.8-1.7c0.7,0.5,1.8,0.8,2.8,0.8c1.1,0,1.5-0.3,1.5-0.7c0-1.3-4.9,0-4.9-3.2
		c0-1.5,1.4-2.6,3.7-2.6c1.1,0,2.3,0.2,3.1,0.7l-0.8,1.7c-0.8-0.4-1.6-0.6-2.3-0.6c-1.1,0-1.5,0.3-1.5,0.8c0,1.4,4.9,0,4.9,3.2
		c0,1.5-1.4,2.6-3.8,2.6C123.4,100.4,122,100,121.2,99.5L121.2,99.5z"/>
	<path class="st15" d="M137.8,96.9h-6.1c0.2,1,1.1,1.6,2.3,1.6c0.9,0,1.5-0.2,2-0.8l1.2,1.3c-0.8,0.8-1.9,1.3-3.3,1.3
		c-2.8,0-4.6-1.8-4.6-4.2s1.8-4.2,4.3-4.2s4.2,1.6,4.2,4.2C137.9,96.4,137.8,96.7,137.8,96.9L137.8,96.9z M131.7,95.5h4
		c-0.2-1-0.9-1.7-2-1.7S131.9,94.5,131.7,95.5z"/>
	<path class="st15" d="M147.7,95.7v4.6h-2.3V96c0-1.3-0.6-1.9-1.6-1.9c-1.1,0-1.9,0.7-1.9,2.2v4h-2.3v-8.1h2.2v0.9
		c0.6-0.7,1.6-1.1,2.7-1.1C146.2,92.1,147.7,93.2,147.7,95.7L147.7,95.7z"/>
	<path class="st15" d="M158.1,95.7v4.6h-2.3V96c0-1.3-0.6-1.9-1.6-1.9c-1.1,0-1.9,0.7-1.9,2.2v4h-2.3V89.1h2.3V93
		c0.6-0.6,1.5-1,2.6-1C156.6,92.1,158,93.2,158.1,95.7L158.1,95.7z"/>
	<path class="st15" d="M159.7,96.2c0-2.4,1.9-4.2,4.4-4.2s4.4,1.7,4.4,4.2s-1.9,4.2-4.4,4.2S159.7,98.7,159.7,96.2z M166.2,96.2
		c0-1.4-0.9-2.2-2.1-2.2s-2.1,0.8-2.1,2.2s0.9,2.2,2.1,2.2S166.2,97.6,166.2,96.2z"/>
	<path class="st15" d="M175.1,92.1v2.2c-0.2,0-0.4,0-0.5,0c-1.3,0-2.1,0.7-2.1,2.2v3.8h-2.3v-8.1h2.2v1.1
		C172.9,92.5,173.9,92.1,175.1,92.1L175.1,92.1z"/>
	<path class="st15" d="M183.4,92.4h2.1v1.8h-2v6.1h-2.3v-6.1h-1.2v-1.8h1.2V92c0-1.8,1.1-3,3.1-3c0.7,0,1.4,0.1,1.8,0.4l-0.6,1.7
		c-0.2-0.2-0.6-0.3-0.9-0.3c-0.7,0-1.1,0.4-1.1,1.2L183.4,92.4L183.4,92.4z"/>
	<path class="st15" d="M194.4,96.9h-6.1c0.2,1,1.1,1.6,2.3,1.6c0.9,0,1.5-0.2,2-0.8l1.2,1.3c-0.8,0.8-1.9,1.3-3.3,1.3
		c-2.8,0-4.6-1.8-4.6-4.2s1.8-4.2,4.3-4.2s4.2,1.6,4.2,4.2C194.4,96.4,194.4,96.7,194.4,96.9L194.4,96.9z M188.2,95.5h4
		c-0.2-1-0.9-1.7-2-1.7S188.4,94.5,188.2,95.5z"/>
	<path class="st15" d="M204.1,92.2v8.1h-2.2v-1c-0.6,0.7-1.5,1.1-2.5,1.1c-2,0-3.4-1.1-3.4-3.6v-4.6h2.3v4.2c0,1.3,0.6,1.9,1.6,1.9
		s1.9-0.7,1.9-2.2v-4C201.8,92.2,204.1,92.2,204.1,92.2z"/>
	<path class="st15" d="M214.5,89.1v11.1h-2.2v-0.9c-0.6,0.7-1.4,1.1-2.5,1.1c-2.3,0-4-1.6-4-4.2s1.8-4.2,4-4.2c1,0,1.8,0.3,2.4,1
		v-3.9L214.5,89.1L214.5,89.1z M212.2,96.2c0-1.4-0.9-2.2-2.1-2.2s-2.1,0.8-2.1,2.2s0.9,2.2,2.1,2.2S212.2,97.6,212.2,96.2z"/>
	<path class="st15" d="M223.8,95.7v4.6h-2.2v-1c-0.4,0.7-1.3,1.1-2.5,1.1c-1.9,0-3-1.1-3-2.4s1-2.4,3.5-2.4h1.9c0-1-0.6-1.6-1.9-1.6
		c-0.9,0-1.7,0.3-2.3,0.8l-0.8-1.6c0.9-0.6,2.2-1,3.5-1C222.4,92.1,223.8,93.2,223.8,95.7L223.8,95.7z M221.4,97.7v-0.8h-1.6
		c-1.1,0-1.4,0.4-1.4,0.9c0,0.6,0.5,1,1.3,1C220.5,98.8,221.2,98.4,221.4,97.7L221.4,97.7z"/>
	<path class="st15" d="M225.9,89.1h2.3v11.1h-2.3V89.1z"/>
</g>
<g>
	<path class="st15" d="M117.8,406.9h2.4v10.5h-2.4V406.9z"/>
	<path class="st15" d="M130.9,409.3v6.7c0,3-1.6,4.4-4.5,4.4c-1.5,0-3-0.4-4-1.1l0.9-1.7c0.7,0.5,1.8,0.9,2.8,0.9
		c1.7,0,2.4-0.8,2.4-2.2V416c-0.6,0.7-1.5,1-2.6,1c-2.2,0-4-1.5-4-3.9s1.8-3.9,4-3.9c1.1,0,2.1,0.4,2.7,1.1v-1L130.9,409.3
		L130.9,409.3z M128.6,413.1c0-1.2-0.9-2-2.1-2s-2.1,0.8-2.1,2s0.9,2,2.1,2S128.6,414.3,128.6,413.1z"/>
	<path class="st15" d="M138.1,409.2v2.2c-0.2,0-0.4,0-0.5,0c-1.3,0-2.1,0.7-2.1,2.2v3.8h-2.3v-8.1h2.2v1.1
		C135.9,409.6,136.9,409.2,138.1,409.2L138.1,409.2z"/>
	<path class="st15" d="M147.3,414h-6.1c0.2,1,1.1,1.6,2.3,1.6c0.9,0,1.5-0.2,2-0.8l1.2,1.4c-0.8,0.9-1.9,1.3-3.3,1.3
		c-2.8,0-4.6-1.8-4.6-4.2s1.8-4.1,4.3-4.1s4.2,1.6,4.2,4.2C147.3,413.6,147.3,413.8,147.3,414L147.3,414z M141.1,412.6h4
		c-0.2-1-0.9-1.7-2-1.7S141.3,411.6,141.1,412.6z"/>
	<path class="st15" d="M146.4,420l0.6-1.7c0.3,0.2,0.6,0.3,1,0.3c0.6,0,1-0.4,1-1.2v-8.1h2.3v8c0,1.9-1.1,3-3,3
		C147.6,420.4,146.9,420.3,146.4,420L146.4,420z M148.7,406.9c0-0.7,0.6-1.3,1.5-1.3s1.5,0.5,1.5,1.3c0,0.8-0.6,1.4-1.5,1.4
		S148.7,407.6,148.7,406.9L148.7,406.9z"/>
	<path class="st15" d="M160.6,412.8v4.6h-2.2v-1c-0.4,0.7-1.3,1.1-2.5,1.1c-1.9,0-3-1-3-2.5s1-2.4,3.5-2.4h1.9c0-1-0.6-1.6-1.9-1.6
		c-0.9,0-1.7,0.3-2.3,0.8l-0.8-1.6c0.9-0.6,2.2-1,3.5-1C159.2,409.2,160.6,410.3,160.6,412.8L160.6,412.8z M158.3,414.8V414h-1.6
		c-1.1,0-1.4,0.4-1.4,1c0,0.6,0.5,1,1.3,1C157.4,415.9,158,415.6,158.3,414.8L158.3,414.8z"/>
	<path class="st15" d="M166.5,412.1c0-3.2,2.4-5.4,5.7-5.4c1.8,0,3.3,0.7,4.3,1.9L175,410c-0.7-0.8-1.6-1.2-2.6-1.2
		c-2,0-3.4,1.4-3.4,3.4s1.4,3.4,3.4,3.4c1.1,0,1.9-0.4,2.6-1.2l1.6,1.4c-1,1.2-2.5,1.9-4.3,1.9C168.9,417.6,166.5,415.3,166.5,412.1
		L166.5,412.1z"/>
	<path class="st15" d="M185.1,412.8v4.6h-2.2v-1c-0.4,0.7-1.3,1.1-2.5,1.1c-1.9,0-3-1-3-2.5s1-2.4,3.5-2.4h1.9c0-1-0.6-1.6-1.9-1.6
		c-0.9,0-1.7,0.3-2.3,0.8l-0.8-1.6c0.9-0.6,2.2-1,3.5-1C183.6,409.2,185.1,410.3,185.1,412.8L185.1,412.8z M182.7,414.8V414h-1.6
		c-1.1,0-1.4,0.4-1.4,1c0,0.6,0.5,1,1.3,1C181.8,415.9,182.5,415.6,182.7,414.8L182.7,414.8z"/>
	<path class="st15" d="M192.4,417c-0.5,0.3-1.2,0.5-1.9,0.5c-1.9,0-3-1-3-2.9v-3.3h-1.2v-1.8h1.2v-2h2.3v2h2v1.8h-2v3.3
		c0,0.7,0.4,1.1,1,1.1c0.3,0,0.7-0.1,0.9-0.3L192.4,417L192.4,417z"/>
	<path class="st15" d="M192.9,413.4c0-2.4,1.9-4.1,4.4-4.1s4.4,1.7,4.4,4.1s-1.9,4.2-4.4,4.2S192.9,415.8,192.9,413.4z M199.3,413.4
		c0-1.4-0.9-2.2-2.1-2.2s-2.1,0.8-2.1,2.2s0.9,2.2,2.1,2.2S199.3,414.8,199.3,413.4z M197.9,406.1h2.5l-2.7,2.2h-1.8L197.9,406.1z"
		/>
	<path class="st15" d="M203.3,406.3h2.3v11.1h-2.3V406.3z"/>
	<path class="st15" d="M207.5,406.9c0-0.7,0.6-1.3,1.5-1.3s1.5,0.5,1.5,1.3c0,0.8-0.6,1.4-1.5,1.4S207.5,407.6,207.5,406.9
		L207.5,406.9z M207.8,409.3h2.3v8.1h-2.3V409.3z"/>
	<path class="st15" d="M211.7,413.4c0-2.4,1.9-4.1,4.5-4.1c1.7,0,3,0.7,3.6,2l-1.8,1c-0.4-0.8-1.1-1.1-1.8-1.1
		c-1.2,0-2.1,0.8-2.1,2.2s0.9,2.2,2.1,2.2c0.7,0,1.4-0.3,1.8-1.1l1.8,1c-0.6,1.3-1.9,2-3.6,2C213.6,417.5,211.7,415.8,211.7,413.4
		L211.7,413.4z"/>
	<path class="st15" d="M228.3,412.8v4.6h-2.2v-1c-0.4,0.7-1.3,1.1-2.5,1.1c-1.9,0-3-1-3-2.5s1-2.4,3.5-2.4h1.9c0-1-0.6-1.6-1.9-1.6
		c-0.9,0-1.7,0.3-2.3,0.8l-0.8-1.6c0.9-0.6,2.2-1,3.5-1C226.9,409.2,228.3,410.3,228.3,412.8L228.3,412.8z M226,414.8V414h-1.6
		c-1.1,0-1.4,0.4-1.4,1c0,0.6,0.5,1,1.3,1C225,415.9,225.7,415.6,226,414.8L226,414.8z"/>
</g>
<g>
	<path class="st15" d="M527.8,71.8h4.8c3.4,0,5.8,2.1,5.8,5.2s-2.4,5.2-5.8,5.2h-4.8V71.8z M532.5,80.3c2.1,0,3.5-1.2,3.5-3.2
		s-1.4-3.2-3.5-3.2h-2.2v6.5L532.5,80.3L532.5,80.3z"/>
	<path class="st15" d="M539.8,71.8c0-0.7,0.6-1.3,1.5-1.3s1.5,0.5,1.5,1.3c0,0.8-0.6,1.3-1.5,1.3S539.8,72.5,539.8,71.8z
		 M540.1,74.2h2.3v8.1h-2.3V74.2z"/>
	<path class="st15" d="M549.6,74.1v2.2c-0.2,0-0.3,0-0.5,0c-1.3,0-2.2,0.7-2.2,2.2v3.8h-2.3v-8.1h2.2v1.1
		C547.4,74.5,548.3,74.1,549.6,74.1L549.6,74.1z"/>
	<path class="st15" d="M558.8,78.9h-6.1c0.2,1,1.1,1.6,2.3,1.6c0.8,0,1.5-0.2,2-0.8l1.2,1.3c-0.8,0.8-1.9,1.3-3.3,1.3
		c-2.8,0-4.6-1.8-4.6-4.2s1.8-4.2,4.3-4.2s4.2,1.6,4.2,4.2C558.8,78.4,558.8,78.7,558.8,78.9L558.8,78.9z M552.6,77.5h4
		c-0.2-1-0.9-1.7-2-1.7S552.8,76.5,552.6,77.5z"/>
	<path class="st15" d="M560.1,71.8c0-0.7,0.6-1.3,1.5-1.3s1.5,0.5,1.5,1.3c0,0.8-0.6,1.3-1.5,1.3S560.1,72.5,560.1,71.8z
		 M560.4,74.2h2.3v8.1h-2.3V74.2z"/>
	<path class="st15" d="M570.1,81.9c-0.5,0.3-1.2,0.5-1.9,0.5c-1.9,0-3-1-3-2.9v-3.3h-1.2v-1.8h1.2v-2h2.3v2h2v1.8h-2v3.3
		c0,0.7,0.4,1.1,1,1.1c0.3,0,0.7-0.1,0.9-0.3L570.1,81.9L570.1,81.9z"/>
	<path class="st15" d="M570.5,78.2c0-2.4,1.9-4.2,4.4-4.2s4.4,1.7,4.4,4.2s-1.9,4.2-4.4,4.2S570.5,80.7,570.5,78.2z M577,78.2
		c0-1.4-0.9-2.2-2-2.2s-2.1,0.8-2.1,2.2s0.9,2.2,2.1,2.2S577,79.6,577,78.2z"/>
	<path class="st15" d="M593.4,71.1v11.1h-2.2v-0.9c-0.6,0.7-1.4,1.1-2.5,1.1c-2.3,0-4-1.6-4-4.2s1.8-4.2,4-4.2c1,0,1.8,0.3,2.4,1
		v-3.9L593.4,71.1L593.4,71.1z M591.2,78.2c0-1.4-0.9-2.2-2.1-2.2s-2.1,0.8-2.1,2.2s0.9,2.2,2.1,2.2S591.2,79.6,591.2,78.2z"/>
	<path class="st15" d="M595,78.2c0-2.4,1.9-4.2,4.4-4.2s4.4,1.7,4.4,4.2s-1.9,4.2-4.4,4.2S595,80.7,595,78.2z M601.5,78.2
		c0-1.4-0.9-2.2-2-2.2s-2.1,0.8-2.1,2.2s0.9,2.2,2.1,2.2S601.5,79.6,601.5,78.2z"/>
	<path class="st15" d="M536.5,96.2c0,2.5-1.8,4.2-4,4.2c-1,0-1.8-0.3-2.4-1v3.8h-2.3v-11h2.2v0.9c0.6-0.7,1.5-1.1,2.5-1.1
		C534.7,92.1,536.4,93.7,536.5,96.2L536.5,96.2z M534.1,96.2c0-1.4-0.9-2.2-2-2.2s-2,0.8-2,2.2s0.9,2.2,2,2.2S534.1,97.6,534.1,96.2
		z"/>
	<path class="st15" d="M543,92.1v2.2c-0.2,0-0.3,0-0.5,0c-1.3,0-2.1,0.7-2.1,2.2v3.8H538v-8.1h2.2v1.1
		C540.8,92.5,541.8,92.1,543,92.1L543,92.1z"/>
	<path class="st15" d="M546.2,89h2.5l-2.7,2.2h-1.8L546.2,89L546.2,89z M544.4,92.2h2.3v8.1h-2.3V92.2z"/>
	<path class="st15" d="M557.2,95.7v4.6h-2.3V96c0-1.3-0.6-1.9-1.6-1.9c-1.1,0-1.9,0.7-1.9,2.2v4h-2.3v-8.1h2.2v0.9
		c0.6-0.7,1.6-1.1,2.7-1.1C555.7,92.1,557.2,93.2,557.2,95.7L557.2,95.7z"/>
	<path class="st15" d="M558.8,96.2c0-2.4,1.9-4.2,4.5-4.2c1.7,0,3,0.7,3.6,2.1l-1.8,1c-0.4-0.8-1.1-1.1-1.8-1.1
		c-1.2,0-2.1,0.8-2.1,2.2s0.9,2.2,2.1,2.2c0.7,0,1.4-0.3,1.8-1.1l1.8,1c-0.6,1.3-1.9,2-3.6,2C560.7,100.4,558.8,98.7,558.8,96.2
		L558.8,96.2z"/>
	<path class="st15" d="M568,89.8c0-0.7,0.6-1.3,1.5-1.3s1.5,0.5,1.5,1.3c0,0.8-0.6,1.3-1.5,1.3S568,90.5,568,89.8z M568.3,92.2h2.3
		v8.1h-2.3V92.2z"/>
	<path class="st15" d="M581.6,96.2c0,2.5-1.8,4.2-4,4.2c-1,0-1.8-0.3-2.4-1v3.8h-2.3v-11h2.2v0.9c0.6-0.7,1.5-1.1,2.5-1.1
		C579.8,92.1,581.6,93.7,581.6,96.2z M579.2,96.2c0-1.4-0.9-2.2-2-2.2s-2.1,0.8-2.1,2.2s0.9,2.2,2.1,2.2S579.2,97.6,579.2,96.2z"/>
	<path class="st15" d="M591,96.9h-6.1c0.2,1,1.1,1.6,2.3,1.6c0.8,0,1.5-0.2,2-0.8l1.2,1.3c-0.8,0.8-1.9,1.3-3.3,1.3
		c-2.8,0-4.6-1.8-4.6-4.2s1.8-4.2,4.3-4.2s4.2,1.6,4.2,4.2C591,96.4,591,96.7,591,96.9L591,96.9z M584.8,95.5h4
		c-0.2-1-0.9-1.7-2-1.7S585,94.5,584.8,95.5z"/>
</g>
<g>
	<path class="st15" d="M517.3,409.1h4.8c3.4,0,5.8,2.1,5.8,5.2s-2.4,5.2-5.8,5.2h-4.8V409.1z M522,417.6c2.1,0,3.5-1.2,3.5-3.2
		s-1.4-3.2-3.5-3.2h-2.2v6.5L522,417.6L522,417.6z"/>
	<path class="st15" d="M529.2,409.1c0-0.7,0.6-1.3,1.5-1.3s1.5,0.5,1.5,1.3c0,0.8-0.6,1.4-1.5,1.4S529.2,409.8,529.2,409.1
		L529.2,409.1z M529.5,411.5h2.3v8.1h-2.3V411.5z"/>
	<path class="st15" d="M539,411.4v2.2c-0.2,0-0.3,0-0.5,0c-1.3,0-2.2,0.7-2.2,2.2v3.8H534v-8.1h2.2v1.1
		C536.8,411.8,537.8,411.4,539,411.4L539,411.4z"/>
	<path class="st15" d="M548.2,416.2h-6.1c0.2,1,1.1,1.6,2.3,1.6c0.8,0,1.5-0.2,2-0.8l1.2,1.4c-0.8,0.9-1.9,1.3-3.3,1.3
		c-2.8,0-4.6-1.8-4.6-4.2s1.8-4.1,4.3-4.1s4.2,1.6,4.2,4.2C548.3,415.7,548.2,416,548.2,416.2L548.2,416.2z M542.1,414.8h4
		c-0.2-1-0.9-1.7-2-1.7S542.3,413.8,542.1,414.8z"/>
	<path class="st15" d="M549.5,409.1c0-0.7,0.6-1.3,1.5-1.3s1.5,0.5,1.5,1.3c0,0.8-0.6,1.4-1.5,1.4S549.5,409.8,549.5,409.1
		L549.5,409.1z M549.8,411.5h2.3v8.1h-2.3V411.5z"/>
	<path class="st15" d="M559.5,419.2c-0.5,0.3-1.2,0.5-1.9,0.5c-1.9,0-3-1-3-2.9v-3.3h-1.2v-1.8h1.2v-2h2.3v2h2v1.8h-2v3.3
		c0,0.7,0.4,1.1,1,1.1c0.3,0,0.7-0.1,0.9-0.3L559.5,419.2L559.5,419.2z"/>
	<path class="st15" d="M560,415.5c0-2.4,1.9-4.1,4.4-4.1s4.4,1.7,4.4,4.1s-1.9,4.2-4.4,4.2S560,418,560,415.5z M566.5,415.5
		c0-1.4-0.9-2.2-2-2.2s-2.1,0.8-2.1,2.2s0.9,2.2,2.1,2.2S566.5,416.9,566.5,415.5z"/>
	<path class="st15" d="M579.7,411.4v2.2c-0.2,0-0.3,0-0.5,0c-1.3,0-2.1,0.7-2.1,2.2v3.8h-2.3v-8.1h2.2v1.1
		C577.5,411.8,578.4,411.4,579.7,411.4L579.7,411.4z"/>
	<path class="st15" d="M580.4,415.5c0-2.4,1.9-4.1,4.4-4.1s4.4,1.7,4.4,4.1s-1.9,4.2-4.4,4.2S580.4,418,580.4,415.5z M586.9,415.5
		c0-1.4-0.9-2.2-2-2.2s-2.1,0.8-2.1,2.2s0.9,2.2,2.1,2.2S586.9,416.9,586.9,415.5z"/>
	<path class="st15" d="M604.5,415v4.6h-2.3v-4.3c0-1.3-0.6-1.9-1.5-1.9c-1,0-1.8,0.7-1.8,2.1v4h-2.3v-4.3c0-1.3-0.6-1.9-1.5-1.9
		c-1,0-1.8,0.7-1.8,2.1v4h-2.3v-8.1h2.2v0.9c0.6-0.7,1.5-1,2.5-1c1.1,0,2.1,0.4,2.7,1.3c0.6-0.8,1.7-1.3,2.9-1.3
		C603.1,411.4,604.5,412.5,604.5,415L604.5,415z"/>
	<path class="st15" d="M613.7,415v4.6h-2.2v-1c-0.4,0.7-1.3,1.1-2.5,1.1c-1.9,0-3-1-3-2.5s1-2.4,3.5-2.4h1.9c0-1-0.6-1.6-1.9-1.6
		c-0.9,0-1.7,0.3-2.3,0.8l-0.8-1.6c0.9-0.6,2.2-1,3.5-1C612.3,411.4,613.7,412.5,613.7,415L613.7,415z M611.4,417v-0.8h-1.6
		c-1.1,0-1.4,0.4-1.4,1c0,0.6,0.5,1,1.3,1C610.4,418.1,611.1,417.8,611.4,417L611.4,417z"/>
	<path class="st15" d="M624.1,415v4.6h-2.3v-4.3c0-1.3-0.6-1.9-1.6-1.9c-1.1,0-1.9,0.7-1.9,2.2v4h-2.3v-8.1h2.2v0.9
		c0.6-0.7,1.6-1.1,2.7-1.1C622.6,411.4,624.1,412.5,624.1,415L624.1,415z"/>
	<path class="st15" d="M625.7,415.5c0-2.4,1.9-4.1,4.4-4.1s4.4,1.7,4.4,4.1s-1.9,4.2-4.4,4.2S625.7,418,625.7,415.5z M632.2,415.5
		c0-1.4-0.9-2.2-2-2.2s-2.1,0.8-2.1,2.2s0.9,2.2,2.1,2.2S632.2,416.9,632.2,415.5z"/>
</g>
<linearGradient id="SVGID_00000005238535674683712430000017582284532563853218_" gradientUnits="userSpaceOnUse" x1="-118.1795" y1="1031.2825" x2="-45.2795" y2="1031.2825" gradientTransform="matrix(0 1 1 0 -749.9941 169.9937)">
	<stop  offset="0" style="stop-color:#FFFFFF"/>
	<stop  offset="0.49" style="stop-color:#F4F4F4"/>
	<stop  offset="1" style="stop-color:#E5E5E5"/>
</linearGradient>
<circle style="fill:url(#SVGID_00000005238535674683712430000017582284532563853218_);" cx="281.3" cy="88.3" r="36.5"/>
<circle class="st17" cx="281.3" cy="88.3" r="27.7"/>
<g>
	<path class="st15" d="M287.5,94v-4.7h2.2v1.3h0.4V90l-0.8-3.2l1.8-3v-5.3h-2.3V81h-2v-2.5h-2.3V81h-2v-2.5h-0.9v-5.3
		c3.4,0.1,4.4-1.8,4.4-1.8s-1,0.4-2-0.2c-0.8-0.5-1.9-0.2-2.4-0.1v-0.9c0-0.1-0.1-0.2-0.2-0.2s-0.2,0.1-0.2,0.2v8.3h-0.9V81h-2v-2.5
		h-2.3V81h-2v-2.5h-2.3V81l0,0v2.8l1.8,3l-0.8,3.2v0.6h0.4v-1.3h2.2V94l-0.1,0.1l-1.5,1.3v9.2h4.3v-7c0-1.7,1.4-3.1,3.1-3.1
		c0.9,0,1.6,0.3,2.2,0.9c0.6,0.6,0.9,1.3,0.9,2.2v7h5.2v-9.2l-1.5-1.3L287.5,94L287.5,94z"/>
	<path class="st15" d="M298.2,89.8V91H297v-1.3h-1.3V91h-1.2v-1.3h-1.3V91h-1.2v-1.3h-1.3V91h-1.2v-1.3h-1.3v4l1.7,1.4v9.4h8.4v-9.4
		l1.7-1.4v-4H298.2L298.2,89.8z M295.4,101.5H292v-3.8c0-0.9,0.8-1.7,1.7-1.7c0.5,0,0.9,0.2,1.2,0.5s0.5,0.7,0.5,1.2L295.4,101.5
		L295.4,101.5z"/>
	<path class="st15" d="M274.7,89.8h-1.3V91h-1.2v-1.3h-1.3V91h-1.2v-1.3h-1.3V91h-1.2v-1.3h-1.3V91h-1.2v-1.3H263v4l1.7,1.4v9.4h8.4
		v-9.4l1.7-1.4L274.7,89.8L274.7,89.8z M270.5,101.5h-3.4v-3.8c0-0.9,0.8-1.7,1.7-1.7c0.5,0,0.9,0.2,1.2,0.5s0.5,0.7,0.5,1.2
		L270.5,101.5L270.5,101.5z"/>
</g>
<path class="st19" d="M280.6,392.7h1.3v2.5h2.8v1.3h-2.8v2.3l-0.7,0.7l-0.7-0.7v-2.3h-2.8v-1.3h2.8V392.7L280.6,392.7z M274.8,414.7
	l-10.2,4.1c-0.7,0.3-0.4,1.1,0.4,0.8l1.1-0.4v9.6h12.1v-9.3l0,0l3.1-3.1l0,0l3.1,3.1v9.3h12.1l0-9.6l1.1,0.4
	c0.8,0.3,1.1-0.5,0.4-0.8l-10.2-4.1v-4.3l-6.5-6.5l-6.5,6.5L274.8,414.7L274.8,414.7L274.8,414.7z M273.2,416.3l0,12.5L273.2,416.3
	L273.2,416.3z M295.8,418.9l-8-3.3l7.9,3.2L295.8,418.9L295.8,418.9L295.8,418.9z M281.3,400.7l-8.4,8.4c-0.1,0.1-0.2,0.3-0.2,0.5
	c0,0.4,0.3,0.7,0.7,0.7c0.2,0,0.4-0.1,0.5-0.2l7.4-7.4V400.7l8.4,8.4c0.1,0.1,0.2,0.3,0.2,0.5c0,0.4-0.3,0.7-0.7,0.7
	c-0.2,0-0.4-0.1-0.5-0.2l-7.4-7.4V400.7L281.3,400.7L281.3,400.7z M269.1,420.8l1.4-1.4l1.4,1.4v4.1h-2.7V420.8L269.1,420.8z
	 M279.9,409.2l1.4-1.4l1.4,1.4v4.1h-2.7V409.2L279.9,409.2z M290.7,420.8l1.4-1.4l1.4,1.4v4.1h-2.7V420.8L290.7,420.8z"/>
<g>
	<path class="st15" d="M477.8,410.7c-0.4,0-0.7-0.3-0.7-0.7c0-0.4,0.3-0.7,0.7-0.7c0.4,0,0.7,0.3,0.7,0.7
		C478.5,410.4,478.2,410.7,477.8,410.7L477.8,410.7z"/>
	<path class="st15" d="M479.5,404.9c-1.7-2.6-4.1-4.3-7.2-5.1c-0.2,0-0.3-0.1-0.5-0.1c0.1-0.5,0.3-1,0.4-1.5c0.1-0.5,0.2-1,0.1-1.4
		c0-0.4-0.1-0.9-0.3-1.3s-0.5-0.8-0.8-1c-0.3-0.3-0.7-0.6-1.2-0.7c-0.1,0-0.2-0.1-0.4-0.1c-0.1,0-0.3,0-0.4-0.1c-0.3,0-0.6,0-0.9,0
		c-0.3,0-0.5,0-0.8,0.1s-0.5,0.2-0.7,0.4c-0.2,0.1-0.4,0.3-0.6,0.5c-0.1,0.1-0.3,0.3-0.4,0.5c-0.7,0.9-0.9,2-0.7,3.1
		c0.1,0.5,0.3,1.1,0.5,1.7c-0.5,0.1-1,0.3-1.4,0.4c-4.7,1.7-7.4,5-8.2,10c-0.2,1.1-0.1,2.3,0,3.5c0.1,3,0.3,6,0.4,9
		c0.1,1.5,0.1,2.9,0.2,4.3c0,0.4,0.2,0.7,0.5,0.9c0.8,0.4,1.6,0.8,2.5,1.1c0.2,0.1,0.5,0.2,0.7,0.2s0.5,0.2,0.7,0.2s0.5,0.1,0.7,0.2
		c0.1,0,0.2,0.1,0.4,0.1c0.1,0,0.3,0.1,0.4,0.1s0.3,0,0.4,0c0.1,0,0.3,0,0.4,0c0.1,0,0.1-0.1,0.2-0.1c0.1-0.1,0.1-0.1,0.1-0.2
		c0,0,0,0,0-0.1c0,0,0-0.1,0-0.1c0,0,0,0,0,0c0.1-0.2,0.1-0.4,0.1-0.5s0-0.4,0-0.6c0-0.1,0-0.3,0-0.4h9.8c0,0,0,0.1,0,0.1
		c0,0,0,0.1,0,0.1c0,0.1,0,0.2,0,0.3c0,0.2,0,0.4,0,0.5s0,0.4,0.1,0.5c0,0.1,0.1,0.2,0.1,0.3c0,0,0.1,0.1,0.1,0.1
		c0,0,0.1,0.1,0.1,0.1c0,0,0.1,0,0.2,0.1c0.2,0.1,0.5,0,0.7,0c0.1,0,0.2-0.1,0.4-0.1c0.2-0.1,0.5-0.2,0.7-0.2s0.5-0.2,0.7-0.2
		s0.5-0.2,0.7-0.2s0.5-0.2,0.7-0.3c0.2-0.1,0.4-0.1,0.6-0.2c0.5-0.2,1-0.5,1.5-0.8c0.4-0.2,0.5-0.6,0.6-1c0.2-4.8,0.4-9.6,0.6-14.4
		C481.6,409.6,481,407.1,479.5,404.9L479.5,404.9z M468.1,395c1.1-0.3,2.3,0.3,2.6,1.4c0.1,0.4,0.1,0.9,0.1,1.2
		c-0.4,1.5-0.8,3.1-1.3,4.6h-1.7c-0.4-1.6-0.9-3.2-1.3-4.8C466.3,396.4,467,395.3,468.1,395L468.1,395z M461.3,428.1
		c-1-0.4-2.1-0.9-3.1-1.3c-0.1,0-0.2-0.2-0.2-0.3c-0.1-1.8-0.2-3.5-0.2-5.3c1.2,2.3,2.4,4.6,3.6,6.8
		C461.4,428,461.4,428.1,461.3,428.1L461.3,428.1z M474.2,417.8c-0.4,0.2-0.6,0.6-0.6,1c0,2.3,0,4.7,0,7c0,0.1,0,0.3,0,0.4h-9.9
		v-0.4c0-2.4,0-4.7,0-7.1c0-0.5-0.2-0.8-0.6-1.1c-0.6-0.4-1.3-0.7-1.9-1c-0.1-0.1-0.2-0.2-0.2-0.3c0-1,0-2,0-3.1h4.6
		c0,0.1,0,0.2,0,0.4c0,2.1,0.1,4.3,0.2,6.4c0,0.3,0.1,0.6,0.2,0.9c0.5,1,1.1,2,1.7,3c0.5,0.8,1.4,0.8,1.9,0c0.6-1,1.2-2,1.7-3
		c0.1-0.3,0.2-0.6,0.2-0.9c0.1-2.1,0.1-4.3,0.2-6.5c0-0.1,0-0.2,0-0.3h4.6c0,0.1,0,0.2,0,0.3c0,0.9,0,1.8,0,2.6
		c0,0.2-0.1,0.3-0.3,0.4C475.5,417.1,474.8,417.5,474.2,417.8L474.2,417.8z M479.4,426.5c0,0.1-0.1,0.3-0.2,0.3
		c-1,0.4-2.1,0.9-3.1,1.3c0,0,0-0.1-0.1-0.1c1.2-2.3,2.4-4.6,3.6-6.8c0,0,0,0,0.1,0C479.6,423,479.5,424.7,479.4,426.5z M480,413.4
		c-0.1,1.3-0.1,2.6-0.2,4c0,0.2,0,0.3-0.1,0.5c-1.5,2.9-3,5.7-4.5,8.5c0,0.1-0.1,0.1-0.2,0.3v-0.4c0-2.3,0-4.5,0-6.8
		c0-0.3,0.1-0.5,0.4-0.6c0.7-0.3,1.3-0.7,2-1c0.3-0.2,0.5-0.4,0.5-0.8c0-1.4,0-2.7,0-4.1c0-0.5-0.2-0.8-0.7-0.8
		c-0.6-0.1-1.2-0.1-1.9-0.1c-1.3,0-2.5,0-3.8,0.1c-0.2,0-0.4,0-0.6,0.1c-0.4,0.1-0.5,0.5-0.5,0.9c0,1.2,0,2.4-0.1,3.6
		c0,1.2,0,2.3-0.1,3.5c0,0.1,0,0.2,0,0.3c-0.5,0.8-0.9,1.6-1.5,2.5c-0.3-0.5-0.5-0.9-0.7-1.2c-0.6-0.9-0.8-1.8-0.8-2.9
		c0-1.9-0.1-3.8-0.1-5.6c0-0.8-0.2-1.1-1.1-1.1c-0.5,0-1.1-0.1-1.6-0.1c-1.2,0-2.4,0-3.6,0.1c-0.2,0-0.4,0-0.6,0.1
		c-0.4,0.1-0.6,0.3-0.6,0.7c0,1.4,0,2.8,0,4.2c0,0.5,0.3,0.7,0.6,1c0.6,0.3,1.3,0.7,1.9,1c0.2,0.1,0.2,0.2,0.2,0.4
		c0,2.4,0,4.8,0,7.2c0,0,0,0.1,0,0.2c-0.6-1.1-1.1-2.1-1.6-3c-1-1.9-2-3.8-3-5.7c-0.1-0.2-0.1-0.4-0.1-0.6c-0.1-1.8-0.2-3.7-0.2-5.5
		c-0.1-2.3,0.6-4.5,2-6.4c1.6-2.3,3.8-3.7,6.5-4.4c0.1,0,0.1,0,0.2,0c0.1,0.4,0.2,0.9,0.4,1.3c-0.2,0-0.4,0.1-0.6,0.2
		c-3.6,1-5.9,3.4-6.9,7.1c-0.1,0.5,0,0.9,0.5,1c0.4,0.1,0.8-0.1,0.9-0.5c0.2-0.6,0.3-1.1,0.5-1.7c1.4-2.9,3.7-4.5,6.9-4.7
		c1.4-0.1,2.7-0.1,4,0.4c1.9,0.7,3.4,1.9,4.4,3.6c0.1,0.1,0.1,0.2,0.2,0.3c0.2,0.4,0.6,0.5,1,0.3c0.3-0.2,0.4-0.6,0.2-1
		c-0.5-1-1.2-1.9-2.1-2.7c-1.2-1.1-2.7-1.8-4.3-2.2c-0.1,0-0.2,0-0.3-0.1c0.1-0.5,0.2-0.9,0.4-1.3c1.3,0.2,2.5,0.7,3.6,1.4
		c2.7,1.7,4.4,4.1,5,7.3C480.2,411,480.1,412.2,480,413.4L480,413.4z"/>
</g>
<g>
	<path class="st15" d="M468.9,99.3c-4.1,0-8.2,0-12.3,0c-0.6,0-0.8-0.2-0.9-0.7c-0.4-1.9-0.7-3.7-1.1-5.6c-0.5-2.3-0.9-4.7-1.4-7.1
		c0-0.2-0.1-0.4-0.1-0.5c-0.2-0.7-0.1-1.5-1.2-1.6c-0.8,0-1.2-1-1.2-1.7c0-0.8,0.5-1.5,1.3-1.7c0.9-0.2,1.6,0.1,2.1,0.8
		c0.4,0.6,0.4,1.6-0.2,2.1c-0.5,0.4-0.4,0.8-0.1,1.2c1.1,1.8,2.3,3.6,4,5c0.6,0.5,1.4,1,2.1,1.3c1.6,0.7,3,0.2,4.1-1.1
		c1.4-1.6,2.3-3.5,2.9-5.4c0.7-2,1.1-4.1,1.7-6.2c0.1-0.5,0-0.8-0.5-1c-1-0.4-1.2-1.7-0.7-2.5c0.5-0.8,1.8-1,2.5-0.5
		c0.9,0.7,1,1.9,0.4,2.7c-0.1,0.2-0.3,0.3-0.5,0.4c-0.7,0.1-0.7,0.5-0.6,1.1c0.7,3,1.4,6,2.8,8.8c0.5,0.9,1.1,1.9,1.7,2.7
		c1.4,1.7,3.4,1.9,5.5,0.5c2.3-1.6,3.8-3.8,5.1-6.1c0.1-0.1-0.1-0.4-0.2-0.6c-0.5-0.6-0.6-1.2-0.2-1.9c0.3-0.6,1-0.9,1.6-0.8
		c0.8,0.2,1.2,0.7,1.3,1.5c0,0.8-0.4,1.4-1.2,1.6c-0.5,0.1-0.6,0.3-0.7,0.7c-0.5,2.3-0.9,4.6-1.4,6.9c-0.5,2.5-1,4.9-1.5,7.4
		c0,0.2-0.3,0.3-0.5,0.4c-0.2,0.1-0.5,0-0.8,0C476.8,99.3,472.9,99.3,468.9,99.3L468.9,99.3z"/>
	<path class="st15" d="M481.8,100.3c0,0.8,0,1.4,0,2c0,0.1-0.2,0.3-0.4,0.4c-0.1,0.1-0.3,0-0.5,0c-8,0-16,0-24,0
		c-0.6,0-0.9-0.3-0.9-0.9c0-1,0.5-1.6,1.6-1.6c7.7,0,15.5,0,23.2,0H481.8z"/>
	<path class="st15" d="M460.7,85.5c0.8,1.3,1.6,2.5,2.4,3.7c0.1,0.1,0,0.4-0.1,0.5c-0.9,0.8-2,0.9-3.1,0.4c-1.6-0.7-1.6-0.7-0.7-2.2
		C459.6,87.2,460.1,86.4,460.7,85.5L460.7,85.5z"/>
	<path class="st15" d="M474.6,89.4c0.8-1.3,1.7-2.6,2.6-3.9c0.8,1.3,1.6,2.5,2.3,3.7C477.7,90.8,475.9,90.9,474.6,89.4L474.6,89.4z"
		/>
</g>
</svg>
