<?xml version="1.0" encoding="UTF-8"?>
<svg id="Layer_1" data-name="Layer 1" xmlns="http://www.w3.org/2000/svg" xmlns:xlink="http://www.w3.org/1999/xlink" viewBox="0 0 1247.65 1537.41">
  <defs>
    <style>
      .cls-1 {
        fill: url(#linear-gradient-2);
      }

      .cls-2 {
        fill: #d6d6d6;
      }

      .cls-3 {
        fill: #e1cc21;
      }

      .cls-4 {
        fill: url(#linear-gradient-3);
      }

      .cls-5 {
        fill: #282e3a;
      }

      .cls-6 {
        fill: url(#linear-gradient);
      }

      .cls-7 {
        fill: #bba731;
      }

      .cls-8 {
        fill: #231f20;
      }

      .cls-9 {
        fill: url(#linear-gradient-4);
      }
    </style>
    <linearGradient id="linear-gradient" x1="1525.53" y1="1473.34" x2="-77.16" y2="-15.35" gradientUnits="userSpaceOnUse">
      <stop offset=".32" stop-color="#f89a50"/>
      <stop offset=".58" stop-color="#f6ac6f"/>
      <stop offset=".76" stop-color="#f6b780"/>
      <stop offset=".77" stop-color="#f6b47c"/>
      <stop offset=".86" stop-color="#f7a15c"/>
      <stop offset=".9" stop-color="#f89a50"/>
    </linearGradient>
    <linearGradient id="linear-gradient-2" y1="1504.02" y2="15.33" xlink:href="#linear-gradient"/>
    <linearGradient id="linear-gradient-3" x1="1525.53" y1="1534.71" x2="-77.16" y2="46.02" xlink:href="#linear-gradient"/>
    <linearGradient id="linear-gradient-4" x1="1525.53" y1="1565.4" x2="-77.16" y2="76.7" xlink:href="#linear-gradient"/>
  </defs>
  <g>
    <path class="cls-2" d="m1141.33,707.24c.04-169.13-.53-339.93-2.53-439.85-.09-4.7-.17-9.83-.23-15.25.2-30.13.49-53.26.49-53.26h-.31c.16-18.36.31-30.69.31-30.69h-.31c.16-18.36.31-30.69.31-30.69h-.31c.16-18.36.31-30.69.31-30.69l-627.7,1.91-357.1,12.53-12.53,404.09.22,23.48-.22,7.2.22,23.48-.22,7.2.22,23.48-.22,7.2,6.35,667.62s397.45-8.01,532.72-9.29c135.27-1.28,459.16,6.8,459.16,6.8.37-69.52,1.43-294.02,1.38-513.92,0-10.23,0-20.46,0-30.69,0-10.23,0-20.46,0-30.69Z"/>
    <path class="cls-6" d="m116.69,90.57l357.1-12.53,627.7-1.91s-1.33,107.14-.26,160.57c4.48,223.84,1.79,803.36,1.15,923.09,0,0-336.13-.5-471.4.78-135.27,1.28-520.47,1.7-520.47,1.7l-6.35-667.62,12.53-404.09Z"/>
    <path class="cls-1" d="m116.69,121.26l357.1-12.53,627.7-1.91s-1.33,107.14-.26,160.57c4.48,223.84,1.79,803.36,1.15,923.09,0,0-336.13-.5-471.4.78-135.27,1.28-520.47,1.7-520.47,1.7l-6.35-667.62,12.53-404.09Z"/>
    <path class="cls-4" d="m116.69,151.95l357.1-12.53,627.7-1.91s-1.33,107.14-.26,160.57c4.48,223.84,1.79,803.36,1.15,923.09,0,0-336.13-.5-471.4.78-135.27,1.28-520.47,1.7-520.47,1.7l-6.35-667.62,12.53-404.09Z"/>
    <path class="cls-9" d="m116.69,182.63l357.1-12.53,627.7-1.91s-1.33,107.14-.26,160.57c4.48,223.84,1.79,803.36,1.15,923.09,0,0-336.13-.5-471.4.78-135.27,1.28-520.47,1.7-520.47,1.7l-6.35-667.62,12.53-404.09Z"/>
    <g>
      <path class="cls-5" d="m572.81,273.83s-.01,5.51-4.04,8.59c-4.03,3.08-9.1,0-9.1,0l-36.44-49.1,17.7-10.77,31.88,51.28Z"/>
      <g>
        <path class="cls-3" d="m538.95,244.09c-30.31,15.86-64.31,11.99-80.89-7.76.71,3.38,1.87,6.65,3.5,9.78,12.96,24.78,50.9,30.51,84.73,12.81,33.83-17.7,50.75-52.14,37.78-76.91-1.34-2.56-3-4.87-4.84-7.02,5.53,24.52-10.69,53.62-40.27,69.09Z"/>
        <path class="cls-7" d="m538.95,244.09c29.58-15.48,45.8-44.57,40.27-69.09-15.97-18.65-49.55-21.67-79.88-5.8-29.57,15.47-46.21,43.72-41.28,67.14,16.58,19.74,50.58,23.61,80.89,7.76Z"/>
      </g>
      <path class="cls-3" d="m440.81,132.48s20.65,18.24,36.21,71.68c0,0,15.5,16.56,41.26,1.98,25.08-14.19,19.68-34.92,19.68-34.92,0,0-41.53-46.89-42.19-73.49,0,0-45.74,10.67-54.96,34.74Z"/>
      <path class="cls-3" d="m510.32,86.01c9.27,17.72-3.44,42.66-28.39,55.72-24.95,13.05-52.69,9.27-61.96-8.45-9.27-17.72,3.44-42.66,28.39-55.72,24.95-13.05,52.69-9.27,61.96,8.45Z"/>
      <path class="cls-7" d="m509.7,84.69c7.52,14.38-6.6,36.62-31.55,49.67-24.95,13.05-51.27,11.98-58.8-2.4-7.52-14.38,4.06-41.34,29.01-54.4,24.95-13.05,53.82-7.25,61.34,7.13Z"/>
      <path class="cls-3" d="m495.27,76.21c5.04,9.64-10.33,27.28-28.23,36.64-17.89,9.36-41.35,11.21-46.39,1.58-5.04-9.64,8.96-26.16,26.86-35.52,17.89-9.36,42.72-12.34,47.76-2.7Z"/>
    </g>
  </g>
  <g>
    <path class="cls-8" d="m412.01,509.6v-23.51h4.34v23.33c0,9.73,4.57,14.19,12.54,14.19s12.6-4.46,12.6-14.19v-23.33h4.22v23.51c0,11.78-6.33,17.88-16.82,17.88s-16.88-6.1-16.88-17.88Z"/>
    <path class="cls-8" d="m474.15,525.25c-1.64,1.47-4.1,2.17-6.51,2.17-5.8,0-9.03-3.28-9.03-8.97v-18.64h-5.51v-3.52h5.51v-6.74h4.16v6.74h9.38v3.52h-9.38v18.41c0,3.63,1.88,5.63,5.34,5.63,1.7,0,3.4-.53,4.57-1.58l1.46,2.99Z"/>
    <path class="cls-8" d="m480.78,486.56c0-1.58,1.35-2.93,3.05-2.93s3.05,1.29,3.05,2.87c0,1.7-1.29,3.05-3.05,3.05s-3.05-1.35-3.05-2.99Zm.94,9.73h4.16v30.84h-4.16v-30.84Z"/>
    <path class="cls-8" d="m497.49,483.63h4.16v43.5h-4.16v-43.5Z"/>
    <path class="cls-8" d="m512.32,486.56c0-1.58,1.35-2.93,3.05-2.93s3.05,1.29,3.05,2.87c0,1.7-1.29,3.05-3.05,3.05s-3.05-1.35-3.05-2.99Zm.94,9.73h4.16v30.84h-4.16v-30.84Z"/>
    <path class="cls-8" d="m550.77,523.67v3.46h-25.09v-2.75l19.41-24.56h-19.05v-3.52h24.39v2.75l-19.4,24.62h19.76Z"/>
    <path class="cls-8" d="m582.25,508.02v19.11h-3.99v-4.81c-1.88,3.17-5.51,5.1-10.61,5.1-6.98,0-11.26-3.63-11.26-8.97,0-4.75,3.05-8.73,11.9-8.73h9.79v-1.88c0-5.28-2.99-8.15-8.73-8.15-3.99,0-7.74,1.41-10.26,3.63l-1.88-3.11c3.11-2.64,7.68-4.16,12.54-4.16,7.97,0,12.49,3.99,12.49,11.96Zm-4.16,9.85v-5.04h-9.67c-5.98,0-7.91,2.35-7.91,5.51,0,3.58,2.87,5.8,7.8,5.8s8.15-2.23,9.79-6.27Z"/>
    <path class="cls-8" d="m615.43,519.21l3.11,2.11c-2.46,3.99-6.86,6.1-12.08,6.1h-.12l-.7,2.76c3.22.29,4.98,2.17,4.98,4.75,0,3.17-2.7,5.1-6.62,5.1-1.94,0-3.52-.41-4.93-1.35l1-2.23c1.17.76,2.46,1.11,3.87,1.11,2.34,0,3.63-1,3.63-2.76,0-1.58-1.17-2.7-3.63-2.7h-1.35l1.29-4.87c-7.86-1.11-13.31-7.21-13.31-15.54,0-9.2,6.68-15.65,15.89-15.65,5.22,0,9.62,2.05,12.08,6.1l-3.11,2.11c-2.11-3.11-5.39-4.57-8.97-4.57-6.74,0-11.67,4.81-11.67,12.02s4.92,12.02,11.67,12.02c3.58,0,6.86-1.41,8.97-4.51Z"/>
    <path class="cls-8" d="m649.96,508.02v19.11h-3.99v-4.81c-1.88,3.17-5.51,5.1-10.61,5.1-6.98,0-11.26-3.63-11.26-8.97,0-4.75,3.05-8.73,11.9-8.73h9.79v-1.88c0-5.28-2.99-8.15-8.73-8.15-3.99,0-7.74,1.41-10.26,3.63l-1.88-3.11c3.11-2.64,7.68-4.16,12.55-4.16,7.97,0,12.49,3.99,12.49,11.96Zm-4.16,9.85v-5.04h-9.67c-5.98,0-7.91,2.35-7.91,5.51,0,3.58,2.87,5.8,7.8,5.8s8.15-2.23,9.79-6.27Zm-14.95-26.91h-2.52c.12-3.93,2.17-6.45,5.28-6.45,3.63,0,5.39,3.99,7.68,3.99,1.76,0,2.93-1.41,3.05-3.63h2.52c-.12,3.81-2.17,6.33-5.28,6.33-3.63,0-5.34-3.99-7.68-3.99-1.76,0-2.93,1.41-3.05,3.75Z"/>
    <path class="cls-8" d="m658.28,511.71c0-9.15,6.68-15.65,15.71-15.65s15.65,6.51,15.65,15.65-6.62,15.71-15.65,15.71-15.71-6.57-15.71-15.71Zm27.14,0c0-7.21-4.87-12.02-11.43-12.02s-11.49,4.81-11.49,12.02,4.92,12.02,11.49,12.02,11.43-4.81,11.43-12.02Z"/>
    <path class="cls-8" d="m741.65,483.63v43.5h-3.99v-6.1c-2.52,4.16-6.8,6.39-11.9,6.39-8.79,0-15.36-6.39-15.36-15.71s6.57-15.65,15.36-15.65c4.92,0,9.15,2.11,11.72,6.1v-18.53h4.16Zm-4.1,28.08c0-7.21-4.92-12.02-11.43-12.02s-11.49,4.81-11.49,12.02,4.92,12.02,11.49,12.02,11.43-4.81,11.43-12.02Z"/>
    <path class="cls-8" d="m776.53,508.02v19.11h-3.99v-4.81c-1.88,3.17-5.51,5.1-10.61,5.1-6.98,0-11.26-3.63-11.26-8.97,0-4.75,3.05-8.73,11.9-8.73h9.79v-1.88c0-5.28-2.99-8.15-8.73-8.15-3.99,0-7.74,1.41-10.26,3.63l-1.88-3.11c3.11-2.64,7.68-4.16,12.55-4.16,7.97,0,12.49,3.99,12.49,11.96Zm-4.16,9.85v-5.04h-9.67c-5.98,0-7.91,2.35-7.91,5.51,0,3.58,2.87,5.8,7.8,5.8s8.15-2.23,9.79-6.27Z"/>
    <path class="cls-8" d="m783.56,523.61l1.88-3.28c2.46,1.93,6.62,3.46,10.96,3.46,5.86,0,8.27-1.99,8.27-5.04,0-8.03-19.99-1.7-19.99-13.89,0-5.04,4.34-8.79,12.2-8.79,3.99,0,8.32,1.11,10.9,2.87l-1.82,3.34c-2.7-1.88-5.92-2.64-9.09-2.64-5.57,0-8.03,2.17-8.03,5.1,0,8.33,19.99,2.05,19.99,13.89,0,5.33-4.69,8.79-12.72,8.79-5.1,0-10.03-1.64-12.55-3.81Z"/>
    <path class="cls-8" d="m261.74,575.59v17.88h-4.16v-17.47c0-6.51-3.28-9.85-8.85-9.85-6.33,0-10.32,4.1-10.32,11.14v16.18h-4.16v-17.47c0-6.51-3.28-9.85-8.91-9.85-6.27,0-10.32,4.1-10.32,11.14v16.18h-4.16v-30.84h3.99v5.63c2.17-3.69,6.16-5.86,11.31-5.86s9.09,2.17,10.96,6.51c2.23-3.99,6.62-6.51,12.2-6.51,7.5,0,12.43,4.34,12.43,13.19Z"/>
    <path class="cls-8" d="m300.02,579.35h-25.79c.47,6.45,5.39,10.73,12.13,10.73,3.75,0,7.09-1.35,9.44-4.04l2.34,2.7c-2.75,3.28-7.03,5.04-11.9,5.04-9.61,0-16.18-6.57-16.18-15.71s6.39-15.65,15.07-15.65,14.95,6.39,14.95,15.65c0,.35-.06.82-.06,1.29Zm-25.79-3.11h21.87c-.53-6.04-4.92-10.26-10.96-10.26s-10.38,4.22-10.9,10.26Z"/>
    <path class="cls-8" d="m324.82,591.6c-1.64,1.47-4.1,2.17-6.51,2.17-5.8,0-9.03-3.28-9.03-8.97v-18.64h-5.51v-3.52h5.51v-6.74h4.16v6.74h9.38v3.52h-9.38v18.41c0,3.63,1.88,5.63,5.33,5.63,1.7,0,3.4-.53,4.57-1.58l1.47,2.99Z"/>
    <path class="cls-8" d="m328.16,578.06c0-9.15,6.68-15.65,15.71-15.65s15.65,6.51,15.65,15.65-6.62,15.71-15.65,15.71-15.71-6.57-15.71-15.71Zm27.14,0c0-7.21-4.87-12.02-11.43-12.02s-11.49,4.81-11.49,12.02,4.92,12.02,11.49,12.02,11.43-4.81,11.43-12.02Z"/>
    <path class="cls-8" d="m396.16,549.98v43.5h-3.99v-6.1c-2.52,4.16-6.8,6.39-11.9,6.39-8.79,0-15.36-6.39-15.36-15.71s6.57-15.65,15.36-15.65c4.92,0,9.15,2.11,11.72,6.1v-18.53h4.16Zm-4.1,28.08c0-7.21-4.92-12.02-11.43-12.02s-11.49,4.81-11.49,12.02,4.92,12.02,11.49,12.02,11.43-4.81,11.43-12.02Z"/>
    <path class="cls-8" d="m404.66,578.06c0-9.15,6.68-15.65,15.71-15.65s15.65,6.51,15.65,15.65-6.62,15.71-15.65,15.71-15.71-6.57-15.71-15.71Zm27.14,0c0-7.21-4.87-12.02-11.43-12.02s-11.49,4.81-11.49,12.02,4.92,12.02,11.49,12.02,11.43-4.81,11.43-12.02Z"/>
    <path class="cls-8" d="m444.52,549.98h4.16v43.5h-4.16v-43.5Z"/>
    <path class="cls-8" d="m457.18,578.06c0-9.15,6.68-15.65,15.71-15.65s15.65,6.51,15.65,15.65-6.62,15.71-15.65,15.71-15.71-6.57-15.71-15.71Zm27.14,0c0-7.21-4.87-12.02-11.43-12.02s-11.49,4.81-11.49,12.02,4.92,12.02,11.49,12.02,11.43-4.81,11.43-12.02Z"/>
    <path class="cls-8" d="m525.6,562.64v27.08c0,10.61-5.22,15.42-15.42,15.42-5.63,0-11.14-1.7-14.36-4.75l2.11-3.17c2.93,2.64,7.39,4.22,12.13,4.22,7.8,0,11.37-3.58,11.37-11.2v-3.93c-2.58,3.93-6.98,5.98-12.02,5.98-8.79,0-15.48-6.16-15.48-15.01s6.68-14.89,15.48-14.89c5.16,0,9.62,2.11,12.19,6.16v-5.92h3.99Zm-4.04,14.66c0-6.68-4.92-11.26-11.72-11.26s-11.67,4.57-11.67,11.26,4.87,11.31,11.67,11.31,11.72-4.63,11.72-11.31Z"/>
    <path class="cls-8" d="m536.32,552.91c0-1.58,1.35-2.93,3.05-2.93s3.05,1.29,3.05,2.87c0,1.7-1.29,3.05-3.05,3.05s-3.05-1.35-3.05-2.99Zm.94,9.73h4.16v30.84h-4.16v-30.84Z"/>
    <path class="cls-8" d="m576.31,574.36v19.11h-3.99v-4.81c-1.88,3.17-5.51,5.1-10.61,5.1-6.98,0-11.26-3.63-11.26-8.97,0-4.75,3.05-8.73,11.9-8.73h9.79v-1.88c0-5.28-2.99-8.15-8.73-8.15-3.99,0-7.74,1.41-10.26,3.63l-1.88-3.11c3.11-2.64,7.68-4.16,12.55-4.16,7.97,0,12.49,3.99,12.49,11.96Zm-4.16,9.85v-5.04h-9.67c-5.98,0-7.91,2.35-7.91,5.51,0,3.58,2.87,5.8,7.8,5.8s8.15-2.23,9.79-6.27Z"/>
    <path class="cls-8" d="m583.34,589.96l1.88-3.28c2.46,1.93,6.62,3.46,10.96,3.46,5.86,0,8.27-1.99,8.27-5.04,0-8.03-19.99-1.7-19.99-13.89,0-5.04,4.34-8.79,12.2-8.79,3.99,0,8.32,1.11,10.9,2.87l-1.82,3.34c-2.7-1.88-5.92-2.64-9.09-2.64-5.57,0-8.03,2.17-8.03,5.1,0,8.33,19.99,2.05,19.99,13.89,0,5.33-4.69,8.79-12.72,8.79-5.1,0-10.03-1.64-12.55-3.81Z"/>
    <path class="cls-8" d="m659.78,549.98v43.5h-3.99v-6.1c-2.52,4.16-6.8,6.39-11.9,6.39-8.79,0-15.36-6.39-15.36-15.71s6.57-15.65,15.36-15.65c4.92,0,9.15,2.11,11.72,6.1v-18.53h4.16Zm-4.1,28.08c0-7.21-4.92-12.02-11.43-12.02s-11.49,4.81-11.49,12.02,4.92,12.02,11.49,12.02,11.43-4.81,11.43-12.02Z"/>
    <path class="cls-8" d="m698.24,579.35h-25.79c.47,6.45,5.39,10.73,12.13,10.73,3.75,0,7.09-1.35,9.44-4.04l2.34,2.7c-2.75,3.28-7.03,5.04-11.9,5.04-9.61,0-16.18-6.57-16.18-15.71s6.39-15.65,15.07-15.65,14.95,6.39,14.95,15.65c0,.35-.06.82-.06,1.29Zm-25.79-3.11h21.87c-.53-6.04-4.92-10.26-10.96-10.26s-10.38,4.22-10.9,10.26Z"/>
    <path class="cls-8" d="m745.43,574.36v19.11h-3.99v-4.81c-1.88,3.17-5.51,5.1-10.61,5.1-6.98,0-11.26-3.63-11.26-8.97,0-4.75,3.05-8.73,11.9-8.73h9.79v-1.88c0-5.28-2.99-8.15-8.73-8.15-3.99,0-7.74,1.41-10.26,3.63l-1.88-3.11c3.11-2.64,7.68-4.16,12.55-4.16,7.97,0,12.49,3.99,12.49,11.96Zm-4.16,9.85v-5.04h-9.67c-5.98,0-7.91,2.35-7.91,5.51,0,3.58,2.87,5.8,7.8,5.8s8.15-2.23,9.79-6.27Z"/>
    <path class="cls-8" d="m785.12,575.59v17.88h-4.16v-17.47c0-6.51-3.4-9.85-9.26-9.85-6.62,0-10.79,4.1-10.79,11.14v16.18h-4.16v-30.84h3.99v5.69c2.23-3.75,6.39-5.92,11.72-5.92,7.5,0,12.66,4.34,12.66,13.19Z"/>
    <path class="cls-8" d="m819.7,574.36v19.11h-3.99v-4.81c-1.88,3.17-5.51,5.1-10.61,5.1-6.98,0-11.26-3.63-11.26-8.97,0-4.75,3.05-8.73,11.9-8.73h9.79v-1.88c0-5.28-2.99-8.15-8.73-8.15-3.99,0-7.74,1.41-10.26,3.63l-1.88-3.11c3.11-2.64,7.68-4.16,12.55-4.16,7.97,0,12.49,3.99,12.49,11.96Zm-4.16,9.85v-5.04h-9.67c-5.98,0-7.91,2.35-7.91,5.51,0,3.58,2.87,5.8,7.8,5.8s8.15-2.23,9.79-6.27Zm-7.91-26.32h-4.1l8.03-7.27h5.57l-9.5,7.27Z"/>
    <path class="cls-8" d="m831.01,549.98h4.16v43.5h-4.16v-43.5Z"/>
    <path class="cls-8" d="m845.85,552.91c0-1.58,1.35-2.93,3.05-2.93s3.05,1.29,3.05,2.87c0,1.7-1.29,3.05-3.05,3.05s-3.05-1.35-3.05-2.99Zm.94,9.73h4.16v30.84h-4.16v-30.84Z"/>
    <path class="cls-8" d="m858.27,589.96l1.88-3.28c2.46,1.93,6.62,3.46,10.96,3.46,5.86,0,8.27-1.99,8.27-5.04,0-8.03-19.99-1.7-19.99-13.89,0-5.04,4.34-8.79,12.2-8.79,3.99,0,8.32,1.11,10.9,2.87l-1.82,3.34c-2.7-1.88-5.92-2.64-9.09-2.64-5.57,0-8.03,2.17-8.03,5.1,0,8.33,19.99,2.05,19.99,13.89,0,5.33-4.69,8.79-12.72,8.79-5.1,0-10.03-1.64-12.55-3.81Z"/>
    <path class="cls-8" d="m918.07,579.35h-25.79c.47,6.45,5.39,10.73,12.13,10.73,3.75,0,7.09-1.35,9.44-4.04l2.35,2.7c-2.76,3.28-7.04,5.04-11.9,5.04-9.62,0-16.18-6.57-16.18-15.71s6.39-15.65,15.07-15.65,14.95,6.39,14.95,15.65c0,.35-.06.82-.06,1.29Zm-25.79-3.11h21.87c-.53-6.04-4.92-10.26-10.96-10.26s-10.38,4.22-10.9,10.26Z"/>
    <path class="cls-8" d="m970.13,549.98v43.5h-3.99v-6.1c-2.52,4.16-6.8,6.39-11.9,6.39-8.79,0-15.36-6.39-15.36-15.71s6.57-15.65,15.36-15.65c4.92,0,9.14,2.11,11.72,6.1v-18.53h4.16Zm-4.1,28.08c0-7.21-4.93-12.02-11.43-12.02s-11.49,4.81-11.49,12.02,4.92,12.02,11.49,12.02,11.43-4.81,11.43-12.02Z"/>
    <path class="cls-8" d="m1008.58,579.35h-25.79c.47,6.45,5.39,10.73,12.13,10.73,3.75,0,7.09-1.35,9.44-4.04l2.35,2.7c-2.76,3.28-7.04,5.04-11.9,5.04-9.62,0-16.18-6.57-16.18-15.71s6.39-15.65,15.07-15.65,14.95,6.39,14.95,15.65c0,.35-.06.82-.06,1.29Zm-25.79-3.11h21.87c-.53-6.04-4.92-10.26-10.96-10.26s-10.38,4.22-10.9,10.26Z"/>
    <path class="cls-8" d="m210.94,619.25c0-1.58,1.35-2.93,3.05-2.93s3.05,1.29,3.05,2.87c0,1.7-1.29,3.05-3.05,3.05s-3.05-1.35-3.05-2.99Zm.94,9.73h4.16v30.84h-4.16v-30.84Z"/>
    <path class="cls-8" d="m278.54,641.94v17.88h-4.16v-17.47c0-6.51-3.28-9.85-8.85-9.85-6.33,0-10.32,4.1-10.32,11.14v16.18h-4.16v-17.47c0-6.51-3.28-9.85-8.91-9.85-6.27,0-10.32,4.1-10.32,11.14v16.18h-4.16v-30.84h3.99v5.63c2.17-3.69,6.16-5.86,11.31-5.86s9.09,2.17,10.96,6.51c2.23-3.99,6.62-6.51,12.19-6.51,7.5,0,12.43,4.34,12.43,13.19Z"/>
    <path class="cls-8" d="m321.1,644.4c0,9.38-6.57,15.71-15.36,15.71-4.93,0-9.15-2.11-11.73-6.1v17.18h-4.16v-42.21h3.99v6.1c2.52-4.1,6.8-6.33,11.9-6.33,8.79,0,15.36,6.33,15.36,15.65Zm-4.16,0c0-7.15-4.98-12.02-11.49-12.02s-11.49,4.87-11.49,12.02,4.93,12.02,11.49,12.02,11.49-4.81,11.49-12.02Z"/>
    <path class="cls-8" d="m352.69,640.71v19.11h-3.99v-4.81c-1.88,3.17-5.51,5.1-10.61,5.1-6.98,0-11.26-3.63-11.26-8.97,0-4.75,3.05-8.73,11.9-8.73h9.79v-1.88c0-5.28-2.99-8.15-8.73-8.15-3.99,0-7.74,1.41-10.26,3.63l-1.88-3.11c3.11-2.64,7.68-4.16,12.54-4.16,7.97,0,12.49,3.99,12.49,11.96Zm-4.16,9.85v-5.04h-9.67c-5.98,0-7.91,2.35-7.91,5.51,0,3.58,2.87,5.8,7.8,5.8s8.15-2.23,9.79-6.27Z"/>
    <path class="cls-8" d="m361.02,644.4c0-9.2,6.68-15.65,15.89-15.65,5.22,0,9.62,2.05,12.08,6.1l-3.11,2.11c-2.11-3.11-5.39-4.57-8.97-4.57-6.74,0-11.67,4.81-11.67,12.02s4.92,12.02,11.67,12.02c3.58,0,6.86-1.41,8.97-4.51l3.11,2.11c-2.46,3.99-6.86,6.1-12.08,6.1-9.2,0-15.89-6.51-15.89-15.71Z"/>
    <path class="cls-8" d="m413.72,657.95c-1.64,1.47-4.1,2.17-6.51,2.17-5.8,0-9.03-3.28-9.03-8.97v-18.64h-5.51v-3.52h5.51v-6.74h4.16v6.74h9.38v3.52h-9.38v18.41c0,3.63,1.88,5.63,5.34,5.63,1.7,0,3.4-.53,4.57-1.58l1.46,2.99Z"/>
    <path class="cls-8" d="m417.06,644.4c0-9.15,6.68-15.65,15.71-15.65s15.65,6.51,15.65,15.65-6.62,15.71-15.65,15.71-15.71-6.57-15.71-15.71Zm27.14,0c0-7.21-4.87-12.02-11.43-12.02s-11.49,4.81-11.49,12.02,4.92,12.02,11.49,12.02,11.43-4.81,11.43-12.02Z"/>
    <path class="cls-8" d="m459.62,656.89c0,1-.23,1.76-.82,3.4l-2.46,8.09h-2.81l1.99-8.5c-1.23-.35-2.11-1.47-2.11-2.99,0-1.82,1.35-3.17,3.11-3.17s3.11,1.41,3.11,3.17Z"/>
    <path class="cls-8" d="m482.89,619.25c0-1.58,1.35-2.93,3.05-2.93s3.05,1.29,3.05,2.87c0,1.7-1.29,3.05-3.05,3.05s-3.05-1.35-3.05-2.99Zm.94,9.73h4.16v30.84h-4.16v-30.84Z"/>
    <path class="cls-8" d="m527.97,641.94v17.88h-4.16v-17.47c0-6.51-3.4-9.85-9.26-9.85-6.62,0-10.79,4.1-10.79,11.14v16.18h-4.16v-30.84h3.99v5.69c2.23-3.75,6.39-5.92,11.72-5.92,7.5,0,12.66,4.34,12.66,13.19Z"/>
    <path class="cls-8" d="m536.29,644.4c0-9.2,6.68-15.65,15.89-15.65,5.22,0,9.61,2.05,12.08,6.1l-3.11,2.11c-2.11-3.11-5.39-4.57-8.97-4.57-6.74,0-11.67,4.81-11.67,12.02s4.92,12.02,11.67,12.02c3.58,0,6.86-1.41,8.97-4.51l3.11,2.11c-2.46,3.99-6.86,6.1-12.08,6.1-9.21,0-15.89-6.51-15.89-15.71Z"/>
    <path class="cls-8" d="m571.94,616.32h4.16v43.5h-4.16v-43.5Z"/>
    <path class="cls-8" d="m615.49,628.99v30.84h-3.99v-5.63c-2.17,3.75-6.16,5.92-11.08,5.92-7.86,0-13.02-4.4-13.02-13.25v-17.88h4.16v17.47c0,6.57,3.4,9.91,9.26,9.91,6.45,0,10.49-4.16,10.49-11.2v-16.18h4.16Z"/>
    <path class="cls-8" d="m622.88,656.3l1.88-3.28c2.46,1.93,6.62,3.46,10.96,3.46,5.86,0,8.27-1.99,8.27-5.04,0-8.03-19.99-1.7-19.99-13.89,0-5.04,4.34-8.79,12.19-8.79,3.99,0,8.32,1.11,10.9,2.87l-1.82,3.34c-2.7-1.88-5.92-2.64-9.09-2.64-5.57,0-8.03,2.17-8.03,5.1,0,8.32,19.99,2.05,19.99,13.89,0,5.33-4.69,8.79-12.72,8.79-5.1,0-10.03-1.64-12.54-3.81Z"/>
    <path class="cls-8" d="m654.89,619.25c0-1.58,1.35-2.93,3.05-2.93s3.05,1.29,3.05,2.87c0,1.7-1.29,3.05-3.05,3.05s-3.05-1.35-3.05-2.99Zm.94,9.73h4.16v30.84h-4.16v-30.84Z"/>
    <path class="cls-8" d="m697.51,628.99l-13.72,30.84h-4.28l-13.66-30.84h4.34l11.55,26.26,11.67-26.26h4.1Z"/>
    <path class="cls-8" d="m729.34,645.69h-25.79c.47,6.45,5.39,10.73,12.13,10.73,3.75,0,7.09-1.35,9.44-4.04l2.34,2.7c-2.75,3.28-7.03,5.04-11.9,5.04-9.61,0-16.18-6.57-16.18-15.71s6.39-15.65,15.07-15.65,14.95,6.39,14.95,15.65c0,.35-.06.82-.06,1.29Zm-25.79-3.11h21.87c-.53-6.04-4.92-10.26-10.96-10.26s-10.38,4.22-10.9,10.26Z"/>
    <path class="cls-8" d="m781.39,628.99v42.21h-4.16v-17.18c-2.58,3.99-6.8,6.1-11.72,6.1-8.79,0-15.36-6.33-15.36-15.71s6.57-15.65,15.36-15.65c5.1,0,9.38,2.23,11.9,6.33v-6.1h3.99Zm-4.1,15.42c0-7.15-4.92-12.02-11.43-12.02s-11.49,4.87-11.49,12.02,4.92,12.02,11.49,12.02,11.43-4.81,11.43-12.02Z"/>
    <path class="cls-8" d="m820.79,628.99v30.84h-3.99v-5.63c-2.17,3.75-6.15,5.92-11.08,5.92-7.86,0-13.01-4.4-13.01-13.25v-17.88h4.16v17.47c0,6.57,3.4,9.91,9.26,9.91,6.45,0,10.49-4.16,10.49-11.2v-16.18h4.16Z"/>
    <path class="cls-8" d="m855.73,640.71v19.11h-3.99v-4.81c-1.88,3.17-5.51,5.1-10.61,5.1-6.98,0-11.26-3.63-11.26-8.97,0-4.75,3.05-8.73,11.9-8.73h9.79v-1.88c0-5.28-2.99-8.15-8.73-8.15-3.99,0-7.74,1.41-10.26,3.63l-1.88-3.11c3.11-2.64,7.68-4.16,12.54-4.16,7.97,0,12.49,3.99,12.49,11.96Zm-4.16,9.85v-5.04h-9.67c-5.98,0-7.91,2.35-7.91,5.51,0,3.58,2.87,5.8,7.8,5.8s8.15-2.23,9.79-6.27Z"/>
    <path class="cls-8" d="m895.41,641.94v17.88h-4.16v-17.47c0-6.51-3.4-9.85-9.26-9.85-6.62,0-10.79,4.1-10.79,11.14v16.18h-4.16v-30.84h3.99v5.69c2.23-3.75,6.39-5.92,11.72-5.92,7.5,0,12.66,4.34,12.66,13.19Z"/>
    <path class="cls-8" d="m922.96,657.95c-1.64,1.47-4.1,2.17-6.51,2.17-5.8,0-9.03-3.28-9.03-8.97v-18.64h-5.51v-3.52h5.51v-6.74h4.16v6.74h9.38v3.52h-9.38v18.41c0,3.63,1.88,5.63,5.33,5.63,1.7,0,3.4-.53,4.57-1.58l1.47,2.99Z"/>
    <path class="cls-8" d="m926.3,644.4c0-9.15,6.68-15.65,15.71-15.65s15.65,6.51,15.65,15.65-6.62,15.71-15.65,15.71-15.71-6.57-15.71-15.71Zm27.14,0c0-7.21-4.87-12.02-11.43-12.02s-11.49,4.81-11.49,12.02,4.92,12.02,11.49,12.02,11.43-4.81,11.43-12.02Z"/>
    <path class="cls-8" d="m1004.8,640.71v19.11h-3.99v-4.81c-1.88,3.17-5.51,5.1-10.61,5.1-6.98,0-11.26-3.63-11.26-8.97,0-4.75,3.05-8.73,11.9-8.73h9.79v-1.88c0-5.28-2.99-8.15-8.73-8.15-3.99,0-7.74,1.41-10.26,3.63l-1.88-3.11c3.11-2.64,7.68-4.16,12.54-4.16,7.97,0,12.49,3.99,12.49,11.96Zm-4.16,9.85v-5.04h-9.67c-5.98,0-7.91,2.35-7.91,5.51,0,3.58,2.87,5.8,7.8,5.8s8.15-2.23,9.79-6.27Z"/>
    <path class="cls-8" d="m343.72,710.75c0-9.2,6.68-15.65,15.89-15.65,5.22,0,9.61,2.05,12.08,6.1l-3.11,2.11c-2.11-3.11-5.39-4.57-8.97-4.57-6.74,0-11.67,4.81-11.67,12.02s4.92,12.02,11.67,12.02c3.58,0,6.86-1.41,8.97-4.51l3.11,2.11c-2.46,3.99-6.86,6.1-12.08,6.1-9.21,0-15.89-6.51-15.89-15.71Z"/>
    <path class="cls-8" d="m407.62,695.33v30.84h-3.99v-5.63c-2.17,3.75-6.16,5.92-11.08,5.92-7.86,0-13.02-4.4-13.02-13.25v-17.88h4.16v17.47c0,6.57,3.4,9.91,9.26,9.91,6.45,0,10.49-4.16,10.49-11.2v-16.18h4.16Z"/>
    <path class="cls-8" d="m415.01,722.65l1.88-3.28c2.46,1.93,6.62,3.46,10.96,3.46,5.86,0,8.27-1.99,8.27-5.04,0-8.03-19.99-1.7-19.99-13.89,0-5.04,4.34-8.79,12.19-8.79,3.99,0,8.32,1.11,10.9,2.87l-1.82,3.34c-2.7-1.88-5.92-2.64-9.09-2.64-5.57,0-8.03,2.17-8.03,5.1,0,8.33,19.99,2.05,19.99,13.89,0,5.33-4.69,8.79-12.72,8.79-5.1,0-10.03-1.64-12.54-3.81Z"/>
    <path class="cls-8" d="m464.19,724.29c-1.64,1.47-4.1,2.17-6.51,2.17-5.8,0-9.03-3.28-9.03-8.97v-18.64h-5.51v-3.52h5.51v-6.74h4.16v6.74h9.38v3.52h-9.38v18.41c0,3.63,1.88,5.63,5.34,5.63,1.7,0,3.4-.53,4.57-1.58l1.46,2.99Z"/>
    <path class="cls-8" d="m467.53,710.75c0-9.15,6.68-15.65,15.71-15.65s15.65,6.51,15.65,15.65-6.62,15.71-15.65,15.71-15.71-6.57-15.71-15.71Zm27.14,0c0-7.21-4.87-12.02-11.43-12.02s-11.49,4.81-11.49,12.02,4.92,12.02,11.49,12.02,11.43-4.81,11.43-12.02Z"/>
    <path class="cls-8" d="m503.11,722.65l1.88-3.28c2.46,1.93,6.62,3.46,10.96,3.46,5.86,0,8.27-1.99,8.27-5.04,0-8.03-19.99-1.7-19.99-13.89,0-5.04,4.34-8.79,12.2-8.79,3.99,0,8.32,1.11,10.9,2.87l-1.82,3.34c-2.7-1.88-5.92-2.64-9.09-2.64-5.57,0-8.03,2.17-8.03,5.1,0,8.33,19.99,2.05,19.99,13.89,0,5.33-4.69,8.79-12.72,8.79-5.1,0-10.03-1.64-12.55-3.81Z"/>
    <path class="cls-8" d="m539.64,723.24c0,1-.23,1.76-.82,3.4l-2.46,8.09h-2.81l1.99-8.5c-1.23-.35-2.11-1.47-2.11-2.99,0-1.82,1.35-3.17,3.11-3.17s3.11,1.41,3.11,3.17Z"/>
    <path class="cls-8" d="m595.09,710.75c0,9.32-6.57,15.71-15.36,15.71-5.1,0-9.38-2.23-11.9-6.39v6.1h-3.99v-43.5h4.16v18.53c2.58-3.99,6.8-6.1,11.72-6.1,8.79,0,15.36,6.33,15.36,15.65Zm-4.16,0c0-7.21-4.98-12.02-11.49-12.02s-11.49,4.81-11.49,12.02,4.92,12.02,11.49,12.02,11.49-4.81,11.49-12.02Z"/>
    <path class="cls-8" d="m630.44,712.04h-25.79c.47,6.45,5.39,10.73,12.13,10.73,3.75,0,7.09-1.35,9.44-4.04l2.34,2.7c-2.75,3.28-7.03,5.04-11.9,5.04-9.61,0-16.18-6.57-16.18-15.71s6.39-15.65,15.07-15.65,14.95,6.39,14.95,15.65c0,.35-.06.82-.06,1.29Zm-25.79-3.11h21.87c-.53-6.04-4.92-10.26-10.96-10.26s-10.38,4.22-10.9,10.26Z"/>
    <path class="cls-8" d="m667.37,708.29v17.88h-4.16v-17.47c0-6.51-3.4-9.85-9.26-9.85-6.62,0-10.79,4.1-10.79,11.14v16.18h-4.16v-30.84h3.99v5.69c2.23-3.75,6.39-5.92,11.72-5.92,7.5,0,12.66,4.34,12.66,13.19Z"/>
    <path class="cls-8" d="m705.65,712.04h-25.79c.47,6.45,5.39,10.73,12.13,10.73,3.75,0,7.09-1.35,9.44-4.04l2.34,2.7c-2.75,3.28-7.03,5.04-11.9,5.04-9.61,0-16.18-6.57-16.18-15.71s6.39-15.65,15.07-15.65,14.95,6.39,14.95,15.65c0,.35-.06.82-.06,1.29Zm-25.79-3.11h21.87c-.53-6.04-4.92-10.26-10.96-10.26s-10.38,4.22-10.9,10.26Z"/>
    <path class="cls-8" d="m718.96,691.7v3.63h9.5v3.52h-9.38v27.32h-4.16v-27.32h-5.51v-3.52h5.51v-3.81c0-5.51,3.28-9.15,9.32-9.15,2.29,0,4.63.64,6.16,1.93l-1.41,3.11c-1.17-1-2.81-1.52-4.57-1.52-3.58,0-5.45,1.99-5.45,5.8Z"/>
    <path class="cls-8" d="m745.1,683.31h5.57l-9.5,7.27h-4.1l8.03-7.27Zm-6.33,12.02h4.16v30.84h-4.16v-30.84Z"/>
    <path class="cls-8" d="m751.43,710.75c0-9.2,6.68-15.65,15.89-15.65,5.22,0,9.61,2.05,12.08,6.1l-3.11,2.11c-2.11-3.11-5.39-4.57-8.97-4.57-6.74,0-11.67,4.81-11.67,12.02s4.92,12.02,11.67,12.02c3.58,0,6.86-1.41,8.97-4.51l3.11,2.11c-2.46,3.99-6.86,6.1-12.08,6.1-9.21,0-15.89-6.51-15.89-15.71Z"/>
    <path class="cls-8" d="m786.61,685.6c0-1.58,1.35-2.93,3.05-2.93s3.05,1.29,3.05,2.87c0,1.7-1.29,3.05-3.05,3.05s-3.05-1.35-3.05-2.99Zm.94,9.73h4.16v30.84h-4.16v-30.84Z"/>
    <path class="cls-8" d="m800.21,710.75c0-9.15,6.68-15.65,15.71-15.65s15.65,6.51,15.65,15.65-6.62,15.71-15.65,15.71-15.71-6.57-15.71-15.71Zm27.14,0c0-7.21-4.87-12.02-11.43-12.02s-11.49,4.81-11.49,12.02,4.92,12.02,11.49,12.02,11.43-4.81,11.43-12.02Z"/>
    <path class="cls-8" d="m835.79,722.65l1.88-3.28c2.46,1.93,6.62,3.46,10.96,3.46,5.86,0,8.27-1.99,8.27-5.04,0-8.03-19.99-1.7-19.99-13.89,0-5.04,4.34-8.79,12.2-8.79,3.99,0,8.32,1.11,10.9,2.87l-1.82,3.34c-2.7-1.88-5.92-2.64-9.09-2.64-5.57,0-8.03,2.17-8.03,5.1,0,8.33,19.99,2.05,19.99,13.89,0,5.33-4.69,8.79-12.72,8.79-5.1,0-10.03-1.64-12.55-3.81Z"/>
    <path class="cls-8" d="m872.31,723.24c0,1-.23,1.76-.82,3.4l-2.46,8.09h-2.81l1.99-8.5c-1.23-.35-2.11-1.47-2.11-2.99,0-1.82,1.35-3.17,3.11-3.17s3.11,1.41,3.11,3.17Z"/>
    <path class="cls-8" d="m274.78,774.63v17.88h-4.16v-17.47c0-6.51-3.28-9.85-8.85-9.85-6.33,0-10.32,4.1-10.32,11.14v16.18h-4.16v-17.47c0-6.51-3.28-9.85-8.91-9.85-6.27,0-10.32,4.1-10.32,11.14v16.18h-4.16v-30.84h3.99v5.63c2.17-3.69,6.16-5.86,11.31-5.86s9.09,2.17,10.96,6.51c2.23-3.99,6.62-6.51,12.19-6.51,7.5,0,12.43,4.34,12.43,13.19Z"/>
    <path class="cls-8" d="m313.06,778.39h-25.79c.47,6.45,5.39,10.73,12.13,10.73,3.75,0,7.09-1.35,9.44-4.04l2.35,2.7c-2.76,3.28-7.04,5.04-11.9,5.04-9.62,0-16.18-6.57-16.18-15.71s6.39-15.65,15.07-15.65,14.95,6.39,14.95,15.65c0,.35-.06.82-.06,1.29Zm-25.79-3.11h21.87c-.53-6.04-4.92-10.26-10.96-10.26s-10.38,4.22-10.9,10.26Z"/>
    <path class="cls-8" d="m349.99,774.63v17.88h-4.16v-17.47c0-6.51-3.4-9.85-9.26-9.85-6.62,0-10.79,4.1-10.79,11.14v16.18h-4.16v-30.84h3.99v5.69c2.23-3.75,6.39-5.92,11.72-5.92,7.5,0,12.66,4.34,12.66,13.19Z"/>
    <path class="cls-8" d="m357.03,789l1.88-3.28c2.46,1.93,6.62,3.46,10.96,3.46,5.86,0,8.27-1.99,8.27-5.04,0-8.03-19.99-1.7-19.99-13.89,0-5.04,4.34-8.79,12.2-8.79,3.99,0,8.32,1.11,10.9,2.87l-1.82,3.34c-2.7-1.88-5.92-2.64-9.09-2.64-5.57,0-8.03,2.17-8.03,5.1,0,8.32,19.99,2.05,19.99,13.89,0,5.33-4.69,8.79-12.72,8.79-5.1,0-10.03-1.64-12.55-3.81Z"/>
    <path class="cls-8" d="m417.76,761.68v30.84h-3.99v-5.63c-2.17,3.75-6.16,5.92-11.08,5.92-7.86,0-13.02-4.4-13.02-13.25v-17.88h4.16v17.47c0,6.57,3.4,9.91,9.26,9.91,6.45,0,10.49-4.16,10.49-11.2v-16.18h4.16Z"/>
    <path class="cls-8" d="m444.96,761.44v4.05c-.35,0-.7-.06-1-.06-6.45,0-10.38,4.1-10.38,11.37v15.71h-4.16v-30.84h3.99v6.04c1.93-4.1,5.86-6.27,11.55-6.27Z"/>
    <path class="cls-8" d="m475.68,773.4v19.11h-3.99v-4.81c-1.88,3.17-5.51,5.1-10.61,5.1-6.98,0-11.26-3.63-11.26-8.97,0-4.75,3.05-8.73,11.9-8.73h9.79v-1.88c0-5.28-2.99-8.15-8.73-8.15-3.99,0-7.74,1.41-10.26,3.63l-1.88-3.11c3.11-2.64,7.68-4.16,12.54-4.16,7.97,0,12.49,3.99,12.49,11.96Zm-4.16,9.85v-5.04h-9.67c-5.98,0-7.91,2.35-7.91,5.51,0,3.58,2.87,5.8,7.8,5.8s8.15-2.23,9.79-6.27Z"/>
    <path class="cls-8" d="m508.86,784.6l3.11,2.11c-2.46,3.99-6.86,6.1-12.08,6.1h-.12l-.7,2.76c3.22.29,4.98,2.17,4.98,4.75,0,3.17-2.7,5.1-6.62,5.1-1.94,0-3.52-.41-4.93-1.35l1-2.23c1.17.76,2.46,1.11,3.87,1.11,2.34,0,3.63-1,3.63-2.76,0-1.58-1.17-2.7-3.63-2.7h-1.35l1.29-4.87c-7.86-1.11-13.31-7.21-13.31-15.54,0-9.2,6.68-15.65,15.89-15.65,5.22,0,9.62,2.05,12.08,6.1l-3.11,2.11c-2.11-3.11-5.39-4.57-8.97-4.57-6.74,0-11.67,4.81-11.67,12.02s4.92,12.02,11.67,12.02c3.58,0,6.86-1.41,8.97-4.51Z"/>
    <path class="cls-8" d="m543.39,773.4v19.11h-3.99v-4.81c-1.88,3.17-5.51,5.1-10.61,5.1-6.98,0-11.26-3.63-11.26-8.97,0-4.75,3.05-8.73,11.9-8.73h9.79v-1.88c0-5.28-2.99-8.15-8.73-8.15-3.99,0-7.74,1.41-10.26,3.63l-1.88-3.11c3.11-2.64,7.68-4.16,12.55-4.16,7.97,0,12.49,3.99,12.49,11.96Zm-4.16,9.85v-5.04h-9.67c-5.98,0-7.91,2.35-7.91,5.51,0,3.58,2.87,5.8,7.8,5.8s8.15-2.23,9.79-6.27Zm-14.95-26.91h-2.52c.12-3.93,2.17-6.45,5.28-6.45,3.63,0,5.39,3.99,7.68,3.99,1.76,0,2.93-1.41,3.05-3.63h2.52c-.12,3.81-2.17,6.33-5.28,6.33-3.63,0-5.34-3.99-7.68-3.99-1.76,0-2.93,1.41-3.05,3.75Z"/>
    <path class="cls-8" d="m551.71,777.1c0-9.15,6.68-15.65,15.71-15.65s15.65,6.51,15.65,15.65-6.62,15.71-15.65,15.71-15.71-6.57-15.71-15.71Zm27.14,0c0-7.21-4.87-12.02-11.43-12.02s-11.49,4.81-11.49,12.02,4.92,12.02,11.49,12.02,11.43-4.81,11.43-12.02Z"/>
    <path class="cls-8" d="m635.07,749.02v43.5h-3.99v-6.1c-2.52,4.16-6.8,6.39-11.9,6.39-8.79,0-15.36-6.39-15.36-15.71s6.57-15.65,15.36-15.65c4.92,0,9.15,2.11,11.72,6.1v-18.53h4.16Zm-4.1,28.08c0-7.21-4.92-12.02-11.43-12.02s-11.49,4.81-11.49,12.02,4.92,12.02,11.49,12.02,11.43-4.81,11.43-12.02Z"/>
    <path class="cls-8" d="m673.53,778.39h-25.79c.47,6.45,5.39,10.73,12.13,10.73,3.75,0,7.09-1.35,9.44-4.04l2.34,2.7c-2.75,3.28-7.03,5.04-11.9,5.04-9.61,0-16.18-6.57-16.18-15.71s6.39-15.65,15.07-15.65,14.95,6.39,14.95,15.65c0,.35-.06.82-.06,1.29Zm-25.79-3.11h21.87c-.53-6.04-4.92-10.26-10.96-10.26s-10.38,4.22-10.9,10.26Z"/>
    <path class="cls-8" d="m712.98,761.44v4.05c-.35,0-.7-.06-1-.06-6.45,0-10.38,4.1-10.38,11.37v15.71h-4.16v-30.84h3.99v6.04c1.93-4.1,5.86-6.27,11.55-6.27Z"/>
    <path class="cls-8" d="m719.54,751.95c0-1.58,1.35-2.93,3.05-2.93s3.05,1.29,3.05,2.87c0,1.7-1.29,3.05-3.05,3.05s-3.05-1.35-3.05-2.99Zm.94,9.73h4.16v30.84h-4.16v-30.84Z"/>
    <path class="cls-8" d="m731.97,789l1.88-3.28c2.46,1.93,6.62,3.46,10.96,3.46,5.86,0,8.27-1.99,8.27-5.04,0-8.03-19.99-1.7-19.99-13.89,0-5.04,4.34-8.79,12.2-8.79,3.99,0,8.32,1.11,10.9,2.87l-1.82,3.34c-2.7-1.88-5.92-2.64-9.09-2.64-5.57,0-8.03,2.17-8.03,5.1,0,8.32,19.99,2.05,19.99,13.89,0,5.33-4.69,8.79-12.72,8.79-5.1,0-10.03-1.64-12.55-3.81Z"/>
    <path class="cls-8" d="m761.81,777.1c0-9.2,6.68-15.65,15.89-15.65,5.22,0,9.61,2.05,12.08,6.1l-3.11,2.11c-2.11-3.11-5.39-4.57-8.97-4.57-6.74,0-11.67,4.81-11.67,12.02s4.92,12.02,11.67,12.02c3.58,0,6.86-1.41,8.97-4.51l3.11,2.11c-2.46,3.99-6.86,6.1-12.08,6.1-9.21,0-15.89-6.51-15.89-15.71Z"/>
    <path class="cls-8" d="m794.29,777.1c0-9.15,6.68-15.65,15.71-15.65s15.65,6.51,15.65,15.65-6.62,15.71-15.65,15.71-15.71-6.57-15.71-15.71Zm27.14,0c0-7.21-4.87-12.02-11.43-12.02s-11.49,4.81-11.49,12.02,4.92,12.02,11.49,12.02,11.43-4.81,11.43-12.02Z"/>
    <path class="cls-8" d="m829.87,789l1.88-3.28c2.46,1.93,6.62,3.46,10.96,3.46,5.86,0,8.27-1.99,8.27-5.04,0-8.03-19.99-1.7-19.99-13.89,0-5.04,4.34-8.79,12.19-8.79,3.99,0,8.32,1.11,10.9,2.87l-1.82,3.34c-2.7-1.88-5.92-2.64-9.09-2.64-5.57,0-8.03,2.17-8.03,5.1,0,8.32,19.99,2.05,19.99,13.89,0,5.33-4.69,8.79-12.72,8.79-5.1,0-10.03-1.64-12.54-3.81Z"/>
    <path class="cls-8" d="m905.02,778.39h-25.79c.47,6.45,5.39,10.73,12.13,10.73,3.75,0,7.09-1.35,9.44-4.04l2.35,2.7c-2.76,3.28-7.04,5.04-11.9,5.04-9.62,0-16.18-6.57-16.18-15.71s6.39-15.65,15.07-15.65,14.95,6.39,14.95,15.65c0,.35-.06.82-.06,1.29Zm-25.79-3.11h21.87c-.53-6.04-4.92-10.26-10.96-10.26s-10.38,4.22-10.9,10.26Z"/>
    <path class="cls-8" d="m957.08,749.02v43.5h-3.99v-6.1c-2.52,4.16-6.8,6.39-11.9,6.39-8.79,0-15.36-6.39-15.36-15.71s6.57-15.65,15.36-15.65c4.92,0,9.14,2.11,11.72,6.1v-18.53h4.16Zm-4.1,28.08c0-7.21-4.93-12.02-11.43-12.02s-11.49,4.81-11.49,12.02,4.92,12.02,11.49,12.02,11.43-4.81,11.43-12.02Z"/>
    <path class="cls-8" d="m995.54,778.39h-25.79c.47,6.45,5.39,10.73,12.13,10.73,3.75,0,7.09-1.35,9.44-4.04l2.35,2.7c-2.76,3.28-7.04,5.04-11.9,5.04-9.62,0-16.18-6.57-16.18-15.71s6.39-15.65,15.07-15.65,14.95,6.39,14.95,15.65c0,.35-.06.82-.06,1.29Zm-25.79-3.11h21.87c-.53-6.04-4.92-10.26-10.96-10.26s-10.38,4.22-10.9,10.26Z"/>
    <path class="cls-8" d="m221.4,843.44c0-9.15,6.68-15.65,15.71-15.65s15.65,6.51,15.65,15.65-6.62,15.71-15.65,15.71-15.71-6.57-15.71-15.71Zm27.14,0c0-7.21-4.87-12.02-11.43-12.02s-11.49,4.81-11.49,12.02,4.92,12.02,11.49,12.02,11.43-4.81,11.43-12.02Z"/>
    <path class="cls-8" d="m289.06,828.03v30.84h-3.99v-5.63c-2.17,3.75-6.16,5.92-11.08,5.92-7.86,0-13.02-4.4-13.02-13.25v-17.88h4.16v17.47c0,6.57,3.4,9.91,9.26,9.91,6.45,0,10.49-4.16,10.49-11.2v-16.18h4.16Z"/>
    <path class="cls-8" d="m316.96,856.99c-1.64,1.47-4.1,2.17-6.51,2.17-5.8,0-9.03-3.28-9.03-8.97v-18.64h-5.51v-3.52h5.51v-6.74h4.16v6.74h9.38v3.52h-9.38v18.41c0,3.63,1.88,5.63,5.34,5.63,1.7,0,3.4-.53,4.57-1.58l1.46,2.99Z"/>
    <path class="cls-8" d="m340.06,827.79v4.05c-.35,0-.7-.06-1-.06-6.45,0-10.38,4.1-10.38,11.37v15.71h-4.16v-30.84h3.99v6.04c1.94-4.1,5.86-6.27,11.55-6.27Z"/>
    <path class="cls-8" d="m370.78,839.75v19.11h-3.99v-4.81c-1.88,3.17-5.51,5.1-10.61,5.1-6.98,0-11.26-3.63-11.26-8.97,0-4.75,3.05-8.73,11.9-8.73h9.79v-1.88c0-5.28-2.99-8.15-8.73-8.15-3.99,0-7.74,1.41-10.26,3.63l-1.88-3.11c3.11-2.64,7.68-4.16,12.54-4.16,7.97,0,12.49,3.99,12.49,11.96Zm-4.16,9.85v-5.04h-9.67c-5.98,0-7.91,2.35-7.91,5.51,0,3.58,2.87,5.8,7.8,5.8s8.15-2.23,9.79-6.27Z"/>
    <path class="cls-8" d="m377.81,855.34l1.88-3.28c2.46,1.93,6.62,3.46,10.96,3.46,5.86,0,8.27-1.99,8.27-5.04,0-8.03-19.99-1.7-19.99-13.89,0-5.04,4.34-8.79,12.2-8.79,3.99,0,8.32,1.11,10.9,2.87l-1.82,3.34c-2.7-1.88-5.92-2.64-9.09-2.64-5.57,0-8.03,2.17-8.03,5.1,0,8.32,19.99,2.05,19.99,13.89,0,5.33-4.69,8.79-12.72,8.79-5.1,0-10.03-1.64-12.55-3.81Z"/>
    <path class="cls-8" d="m452.02,828.03l-13.72,30.84h-4.28l-13.66-30.84h4.34l11.55,26.26,11.67-26.26h4.1Z"/>
    <path class="cls-8" d="m480.22,839.75v19.11h-3.99v-4.81c-1.88,3.17-5.51,5.1-10.61,5.1-6.98,0-11.26-3.63-11.26-8.97,0-4.75,3.05-8.73,11.9-8.73h9.79v-1.88c0-5.28-2.99-8.15-8.73-8.15-3.99,0-7.74,1.41-10.26,3.63l-1.88-3.11c3.11-2.64,7.68-4.16,12.55-4.16,7.97,0,12.49,3.99,12.49,11.96Zm-4.16,9.85v-5.04h-9.67c-5.98,0-7.91,2.35-7.91,5.51,0,3.58,2.87,5.8,7.8,5.8s8.15-2.23,9.79-6.27Z"/>
    <path class="cls-8" d="m507.07,827.79v4.05c-.35,0-.7-.06-1-.06-6.45,0-10.38,4.1-10.38,11.37v15.71h-4.16v-30.84h3.99v6.04c1.94-4.1,5.86-6.27,11.55-6.27Z"/>
    <path class="cls-8" d="m513.64,818.29c0-1.58,1.35-2.93,3.05-2.93s3.05,1.29,3.05,2.87c0,1.7-1.29,3.05-3.05,3.05s-3.05-1.35-3.05-2.99Zm.94,9.73h4.16v30.84h-4.16v-30.84Z"/>
    <path class="cls-8" d="m553.62,839.75v19.11h-3.99v-4.81c-1.88,3.17-5.51,5.1-10.61,5.1-6.98,0-11.26-3.63-11.26-8.97,0-4.75,3.05-8.73,11.9-8.73h9.79v-1.88c0-5.28-2.99-8.15-8.73-8.15-3.99,0-7.74,1.41-10.26,3.63l-1.88-3.11c3.11-2.64,7.68-4.16,12.55-4.16,7.97,0,12.49,3.99,12.49,11.96Zm-4.16,9.85v-5.04h-9.67c-5.98,0-7.91,2.35-7.91,5.51,0,3.58,2.87,5.8,7.8,5.8s8.15-2.23,9.79-6.27Zm-7.91-26.32h-4.1l8.03-7.27h5.57l-9.5,7.27Z"/>
    <path class="cls-8" d="m590.25,828.03l-13.72,30.84h-4.28l-13.66-30.84h4.34l11.55,26.26,11.67-26.26h4.1Z"/>
    <path class="cls-8" d="m622.08,844.73h-25.79c.47,6.45,5.39,10.73,12.13,10.73,3.75,0,7.09-1.35,9.44-4.04l2.35,2.7c-2.76,3.28-7.04,5.04-11.9,5.04-9.62,0-16.18-6.57-16.18-15.71s6.39-15.65,15.07-15.65,14.95,6.39,14.95,15.65c0,.35-.06.82-.06,1.29Zm-25.79-3.11h21.87c-.53-6.04-4.92-10.26-10.96-10.26s-10.38,4.22-10.9,10.26Z"/>
    <path class="cls-8" d="m629.71,818.29c0-1.58,1.35-2.93,3.05-2.93s3.05,1.29,3.05,2.87c0,1.7-1.29,3.05-3.05,3.05s-3.05-1.35-3.05-2.99Zm.94,9.73h4.16v30.84h-4.16v-30.84Z"/>
    <path class="cls-8" d="m642.13,855.34l1.88-3.28c2.46,1.93,6.62,3.46,10.96,3.46,5.86,0,8.27-1.99,8.27-5.04,0-8.03-19.99-1.7-19.99-13.89,0-5.04,4.34-8.79,12.19-8.79,3.99,0,8.32,1.11,10.9,2.87l-1.82,3.34c-2.7-1.88-5.92-2.64-9.09-2.64-5.57,0-8.03,2.17-8.03,5.1,0,8.32,19.99,2.05,19.99,13.89,0,5.33-4.69,8.79-12.72,8.79-5.1,0-10.03-1.64-12.54-3.81Z"/>
    <path class="cls-8" d="m705.97,827.79v4.05c-.35,0-.7-.06-1-.06-6.45,0-10.38,4.1-10.38,11.37v15.71h-4.16v-30.84h3.99v6.04c1.94-4.1,5.86-6.27,11.55-6.27Z"/>
    <path class="cls-8" d="m740.03,844.73h-25.79c.47,6.45,5.39,10.73,12.13,10.73,3.75,0,7.09-1.35,9.44-4.04l2.35,2.7c-2.76,3.28-7.04,5.04-11.9,5.04-9.62,0-16.18-6.57-16.18-15.71s6.39-15.65,15.07-15.65,14.95,6.39,14.95,15.65c0,.35-.06.82-.06,1.29Zm-25.79-3.11h21.87c-.53-6.04-4.92-10.26-10.96-10.26s-10.38,4.22-10.9,10.26Z"/>
    <path class="cls-8" d="m748.59,815.36h4.16v43.5h-4.16v-43.5Z"/>
    <path class="cls-8" d="m791.21,844.73h-25.79c.47,6.45,5.39,10.73,12.13,10.73,3.75,0,7.09-1.35,9.44-4.04l2.34,2.7c-2.75,3.28-7.03,5.04-11.9,5.04-9.61,0-16.18-6.57-16.18-15.71s6.39-15.65,15.07-15.65,14.95,6.39,14.95,15.65c0,.35-.06.82-.06,1.29Zm-25.79-3.11h21.87c-.53-6.04-4.92-10.26-10.96-10.26s-10.38,4.22-10.9,10.26Z"/>
    <path class="cls-8" d="m825.09,828.03l-13.72,30.84h-4.28l-13.66-30.84h4.34l11.55,26.26,11.67-26.26h4.1Z"/>
    <path class="cls-8" d="m853.29,839.75v19.11h-3.99v-4.81c-1.88,3.17-5.51,5.1-10.61,5.1-6.98,0-11.26-3.63-11.26-8.97,0-4.75,3.05-8.73,11.9-8.73h9.79v-1.88c0-5.28-2.99-8.15-8.73-8.15-3.99,0-7.74,1.41-10.26,3.63l-1.88-3.11c3.11-2.64,7.68-4.16,12.55-4.16,7.97,0,12.49,3.99,12.49,11.96Zm-4.16,9.85v-5.04h-9.67c-5.98,0-7.91,2.35-7.91,5.51,0,3.58,2.87,5.8,7.8,5.8s8.15-2.23,9.79-6.27Z"/>
    <path class="cls-8" d="m892.98,840.98v17.88h-4.16v-17.47c0-6.51-3.4-9.85-9.26-9.85-6.62,0-10.79,4.1-10.79,11.14v16.18h-4.16v-30.84h3.99v5.69c2.23-3.75,6.39-5.92,11.72-5.92,7.5,0,12.66,4.34,12.66,13.19Z"/>
    <path class="cls-8" d="m920.53,856.99c-1.64,1.47-4.1,2.17-6.51,2.17-5.8,0-9.03-3.28-9.03-8.97v-18.64h-5.51v-3.52h5.51v-6.74h4.16v6.74h9.38v3.52h-9.38v18.41c0,3.63,1.88,5.63,5.34,5.63,1.7,0,3.4-.53,4.57-1.58l1.46,2.99Z"/>
    <path class="cls-8" d="m953.82,844.73h-25.79c.47,6.45,5.39,10.73,12.13,10.73,3.75,0,7.09-1.35,9.44-4.04l2.34,2.7c-2.75,3.28-7.03,5.04-11.9,5.04-9.61,0-16.18-6.57-16.18-15.71s6.39-15.65,15.07-15.65,14.95,6.39,14.95,15.65c0,.35-.06.82-.06,1.29Zm-25.79-3.11h21.87c-.53-6.04-4.92-10.26-10.96-10.26s-10.38,4.22-10.9,10.26Z"/>
    <path class="cls-8" d="m958.1,855.34l1.88-3.28c2.46,1.93,6.62,3.46,10.96,3.46,5.86,0,8.27-1.99,8.27-5.04,0-8.03-19.99-1.7-19.99-13.89,0-5.04,4.34-8.79,12.2-8.79,3.99,0,8.32,1.11,10.9,2.87l-1.82,3.34c-2.7-1.88-5.92-2.64-9.09-2.64-5.57,0-8.03,2.17-8.03,5.1,0,8.32,19.99,2.05,19.99,13.89,0,5.33-4.69,8.79-12.72,8.79-5.1,0-10.03-1.64-12.55-3.81Z"/>
    <path class="cls-8" d="m988.35,855.93c0-1.82,1.41-3.17,3.11-3.17s3.17,1.35,3.17,3.17-1.46,3.22-3.17,3.22-3.11-1.41-3.11-3.22Z"/>
  </g>
</svg>