<?xml version="1.0" encoding="UTF-8"?>
<svg id="Layer_1" data-name="Layer 1" xmlns="http://www.w3.org/2000/svg" viewBox="0 0 1022.82 484.94">
  <defs>
    <style>
      .cls-1 {
        fill: #262626;
      }

      .cls-2 {
        fill: #fd194d;
      }

      .cls-3 {
        fill: #f4f4f4;
      }

      .cls-4 {
        fill: #fff;
      }

      .cls-5 {
        fill: #f2ecd2;
      }

      .cls-6 {
        fill: #066046;
      }

      .cls-7 {
        fill: #ffbe31;
      }

      .cls-8 {
        fill: #0b6b97;
      }

      .cls-9 {
        fill: #098868;
      }

      .cls-10 {
        fill: #003049;
      }
    </style>
  </defs>
  <circle class="cls-3" cx="237.13" cy="242.7" r="212.8"/>
  <g>
    <g>
      <path class="cls-8" d="m238.1,208.73c-19.44,0-38.88-.08-58.32.09-2.9.03-3.86-1.06-4.33-3.52-1.7-8.82-3.44-17.64-5.19-26.45-2.21-11.16-4.45-22.31-6.67-33.46-.17-.84-.3-1.7-.48-2.53-.76-3.43-.32-7.29-5.88-7.61-3.57-.2-5.94-4.56-5.79-8.24.15-3.79,2.58-6.93,6.07-7.81,4.22-1.07,7.65.26,9.89,3.84,1.87,2.99,1.68,7.66-1.17,10.03-2.53,2.1-1.74,3.62-.43,5.75,5.33,8.68,11.12,17.01,19.05,23.53,2.98,2.45,6.42,4.61,9.99,6.05,7.65,3.1,14.2.78,19.66-5.17,6.82-7.43,10.83-16.46,13.87-25.83,3.12-9.62,5.4-19.51,8.08-29.27.65-2.36.13-3.73-2.34-4.88-4.59-2.12-5.92-7.87-3.17-11.98,2.51-3.76,8.52-4.93,11.95-2.33,4.19,3.17,5,8.89,1.73,12.62-.62.7-1.39,1.58-2.22,1.74-3.21.63-3.3,2.37-2.69,5.17,3.12,14.33,6.72,28.51,13.28,41.7,2.24,4.5,5.05,8.83,8.24,12.7,6.79,8.23,16.35,9.1,25.94,2.57,10.8-7.35,18-17.83,24.23-29.02.32-.58-.52-2.14-1.2-2.9-2.38-2.65-2.87-5.82-1.15-8.97,1.5-2.75,4.61-4.17,7.76-3.55,3.65.72,5.89,3.32,6,6.98.11,3.85-1.91,6.85-5.73,7.43-2.34.36-2.95,1.48-3.33,3.43-2.14,10.98-4.33,21.94-6.52,32.91-2.34,11.71-4.66,23.43-7.13,35.12-.16.75-1.39,1.55-2.27,1.79-1.16.31-2.47.1-3.71.1-18.67,0-37.35,0-56.02,0Z"/>
      <path class="cls-8" d="m298.98,213.76c0,3.59.1,6.65-.08,9.7-.04.65-1.03,1.44-1.76,1.79-.62.3-1.5.07-2.27.07-37.9,0-75.81,0-113.71,0q-4.01,0-4.02-4.1-.01-7.46,7.55-7.46c36.66,0,73.32,0,109.98,0h4.32Z"/>
      <path class="cls-8" d="m198.94,143.28c3.97,6.1,7.75,11.81,11.36,17.62.33.53-.14,2.06-.73,2.56-4.41,3.76-9.31,4.47-14.68,2.11-7.61-3.34-7.69-3.4-3.47-10.35,2.37-3.9,4.86-7.72,7.52-11.94Z"/>
      <path class="cls-8" d="m264.93,161.94c3.96-6.04,7.96-12.14,12.23-18.64,3.89,6.23,7.45,11.95,10.99,17.63-8.59,7.58-16.77,7.88-23.22,1.02Z"/>
    </g>
    <g>
      <path class="cls-1" d="m122.12,283.83v3.38h-14.09v-18.2h13.75v3.38h-9.57v3.95h8.45v3.28h-8.45v4.21h9.91Z"/>
      <path class="cls-1" d="m123.73,285.91l1.35-2.91c1.25.81,3.15,1.35,4.86,1.35,1.87,0,2.57-.49,2.57-1.27,0-2.29-8.45.05-8.45-5.54,0-2.65,2.39-4.52,6.47-4.52,1.92,0,4.06.44,5.38,1.22l-1.35,2.89c-1.38-.78-2.76-1.04-4.03-1.04-1.82,0-2.6.57-2.6,1.3,0,2.39,8.45.08,8.45,5.59,0,2.6-2.42,4.45-6.6,4.45-2.37,0-4.76-.65-6.06-1.51Z"/>
      <path class="cls-1" d="m147.91,286.54c-.83.6-2.05.88-3.3.88-3.3,0-5.23-1.69-5.23-5.02v-5.75h-2.16v-3.12h2.16v-3.41h4.06v3.41h3.48v3.12h-3.48v5.69c0,1.2.65,1.85,1.74,1.85.6,0,1.2-.18,1.64-.52l1.09,2.86Z"/>
      <path class="cls-1" d="m162.57,279.23v7.98h-3.8v-1.74c-.75,1.27-2.21,1.95-4.26,1.95-3.28,0-5.23-1.82-5.23-4.24s1.74-4.19,6.01-4.19h3.22c0-1.74-1.04-2.76-3.22-2.76-1.48,0-3.02.49-4.03,1.3l-1.46-2.83c1.53-1.09,3.8-1.69,6.03-1.69,4.26,0,6.73,1.98,6.73,6.21Zm-4.06,3.56v-1.43h-2.78c-1.9,0-2.5.7-2.5,1.64,0,1.01.86,1.69,2.29,1.69,1.35,0,2.52-.62,2.99-1.9Z"/>
      <path class="cls-1" d="m180.64,267.92v19.29h-3.87v-1.61c-1.01,1.22-2.5,1.82-4.37,1.82-3.95,0-6.99-2.81-6.99-7.2s3.04-7.2,6.99-7.2c1.72,0,3.17.55,4.19,1.69v-6.79h4.06Zm-3.98,12.3c0-2.42-1.56-3.87-3.56-3.87s-3.59,1.46-3.59,3.87,1.56,3.87,3.59,3.87,3.56-1.46,3.56-3.87Z"/>
      <path class="cls-1" d="m183.35,280.22c0-4.21,3.25-7.2,7.7-7.2s7.67,2.99,7.67,7.2-3.22,7.2-7.67,7.2-7.7-2.99-7.7-7.2Zm11.26,0c0-2.42-1.53-3.87-3.56-3.87s-3.59,1.46-3.59,3.87,1.56,3.87,3.59,3.87,3.56-1.46,3.56-3.87Z"/>
      <path class="cls-1" d="m221.05,283.31h-8.45l-1.61,3.9h-4.32l8.11-18.2h4.16l8.14,18.2h-4.42l-1.61-3.9Zm-1.33-3.2l-2.89-6.97-2.89,6.97h5.77Z"/>
      <path class="cls-1" d="m243.92,280.22c0,4.39-3.04,7.2-6.97,7.2-1.87,0-3.38-.6-4.39-1.82v1.61h-3.87v-19.29h4.06v6.79c1.04-1.14,2.47-1.69,4.21-1.69,3.93,0,6.97,2.81,6.97,7.2Zm-4.11,0c0-2.42-1.53-3.87-3.56-3.87s-3.56,1.46-3.56,3.87,1.53,3.87,3.56,3.87,3.56-1.46,3.56-3.87Z"/>
      <path class="cls-1" d="m245.28,285.91l1.35-2.91c1.25.81,3.15,1.35,4.86,1.35,1.87,0,2.57-.49,2.57-1.27,0-2.29-8.45.05-8.45-5.54,0-2.65,2.39-4.52,6.47-4.52,1.92,0,4.06.44,5.38,1.22l-1.35,2.89c-1.38-.78-2.76-1.04-4.03-1.04-1.82,0-2.6.57-2.6,1.3,0,2.39,8.45.08,8.45,5.59,0,2.6-2.42,4.45-6.6,4.45-2.37,0-4.76-.65-6.06-1.51Z"/>
      <path class="cls-1" d="m259.39,280.22c0-4.21,3.25-7.2,7.7-7.2s7.67,2.99,7.67,7.2-3.22,7.2-7.67,7.2-7.7-2.99-7.7-7.2Zm11.26,0c0-2.42-1.53-3.87-3.56-3.87s-3.59,1.46-3.59,3.87,1.56,3.87,3.59,3.87,3.56-1.46,3.56-3.87Z"/>
      <path class="cls-1" d="m277.46,267.92h4.06v19.29h-4.06v-19.29Z"/>
      <path class="cls-1" d="m299.38,273.23v13.99h-3.85v-1.66c-1.07,1.22-2.63,1.87-4.34,1.87-3.51,0-5.98-1.98-5.98-6.29v-7.9h4.06v7.31c0,2.34,1.04,3.38,2.83,3.38s3.22-1.2,3.22-3.77v-6.92h4.06Z"/>
      <path class="cls-1" d="m312.17,286.54c-.83.6-2.05.88-3.3.88-3.3,0-5.23-1.69-5.23-5.02v-5.75h-2.16v-3.12h2.16v-3.41h4.06v3.41h3.48v3.12h-3.48v5.69c0,1.2.65,1.85,1.74,1.85.6,0,1.2-.18,1.64-.52l1.09,2.86Z"/>
      <path class="cls-1" d="m313.97,269.01c0-1.27,1.01-2.26,2.52-2.26s2.52.94,2.52,2.18c0,1.35-1.01,2.34-2.52,2.34s-2.52-.99-2.52-2.26Zm.49,4.21h4.06v13.99h-4.06v-13.99Z"/>
      <path class="cls-1" d="m320.93,285.91l1.35-2.91c1.25.81,3.15,1.35,4.86,1.35,1.87,0,2.57-.49,2.57-1.27,0-2.29-8.45.05-8.45-5.54,0-2.65,2.39-4.52,6.47-4.52,1.92,0,4.06.44,5.38,1.22l-1.35,2.89c-1.38-.78-2.76-1.04-4.03-1.04-1.82,0-2.6.57-2.6,1.3,0,2.39,8.45.08,8.45,5.59,0,2.6-2.42,4.45-6.6,4.45-2.37,0-4.76-.65-6.06-1.51Z"/>
      <path class="cls-1" d="m345.11,286.54c-.83.6-2.05.88-3.3.88-3.3,0-5.23-1.69-5.23-5.02v-5.75h-2.16v-3.12h2.16v-3.41h4.06v3.41h3.48v3.12h-3.48v5.69c0,1.2.65,1.85,1.74,1.85.6,0,1.2-.18,1.64-.52l1.09,2.86Z"/>
      <path class="cls-1" d="m359.78,279.23v7.98h-3.8v-1.74c-.75,1.27-2.21,1.95-4.26,1.95-3.28,0-5.23-1.82-5.23-4.24s1.74-4.19,6.01-4.19h3.22c0-1.74-1.04-2.76-3.22-2.76-1.48,0-3.02.49-4.03,1.3l-1.46-2.83c1.53-1.09,3.8-1.69,6.03-1.69,4.26,0,6.73,1.98,6.73,6.21Zm-4.06,3.56v-1.43h-2.78c-1.9,0-2.5.7-2.5,1.64,0,1.01.86,1.69,2.29,1.69,1.35,0,2.52-.62,2.99-1.9Z"/>
      <path class="cls-1" d="m362.46,275.54c0-1.51,1.12-2.5,2.52-2.5s2.52.99,2.52,2.5-1.12,2.55-2.52,2.55-2.52-1.07-2.52-2.55Zm0,9.33c0-1.51,1.12-2.5,2.52-2.5s2.52.99,2.52,2.5-1.12,2.55-2.52,2.55-2.52-1.07-2.52-2.55Z"/>
      <path class="cls-1" d="m92.58,311.58c0-4.06,2.96-6.94,6.97-6.94s6.94,2.89,6.94,6.94-2.94,6.97-6.94,6.97-6.97-2.91-6.97-6.97Zm12.04,0c0-3.2-2.16-5.33-5.07-5.33s-5.1,2.13-5.1,5.33,2.18,5.33,5.1,5.33,5.07-2.13,5.07-5.33Z"/>
      <path class="cls-1" d="m129.55,299.12v19.29h-1.77v-2.7c-1.12,1.85-3.02,2.83-5.28,2.83-3.9,0-6.81-2.83-6.81-6.97s2.91-6.94,6.81-6.94c2.18,0,4.06.94,5.2,2.7v-8.22h1.85Zm-1.82,12.46c0-3.2-2.18-5.33-5.07-5.33s-5.1,2.13-5.1,5.33,2.18,5.33,5.1,5.33,5.07-2.13,5.07-5.33Z"/>
      <path class="cls-1" d="m134.28,300.42c0-.7.6-1.3,1.35-1.3s1.35.57,1.35,1.27c0,.75-.57,1.35-1.35,1.35s-1.35-.6-1.35-1.33Zm.42,4.32h1.85v13.68h-1.85v-13.68Z"/>
      <path class="cls-1" d="m148.58,304.63v1.79c-.16,0-.31-.03-.44-.03-2.86,0-4.6,1.82-4.6,5.04v6.97h-1.85v-13.68h1.77v2.68c.86-1.82,2.6-2.78,5.12-2.78Z"/>
      <path class="cls-1" d="m163.69,312.15h-11.44c.21,2.86,2.39,4.76,5.38,4.76,1.66,0,3.15-.6,4.19-1.79l1.04,1.2c-1.22,1.46-3.12,2.24-5.28,2.24-4.26,0-7.18-2.91-7.18-6.97s2.83-6.94,6.68-6.94,6.63,2.83,6.63,6.94c0,.16-.03.36-.03.57Zm-11.44-1.38h9.7c-.23-2.68-2.18-4.55-4.86-4.55s-4.6,1.87-4.84,4.55Z"/>
      <path class="cls-1" d="m167.07,300.42c0-.7.6-1.3,1.35-1.3s1.35.57,1.35,1.27c0,.75-.57,1.35-1.35,1.35s-1.35-.6-1.35-1.33Zm.42,4.32h1.85v13.68h-1.85v-13.68Z"/>
      <path class="cls-1" d="m181.68,317.58c-.73.65-1.82.96-2.89.96-2.57,0-4-1.46-4-3.98v-8.27h-2.44v-1.56h2.44v-2.99h1.85v2.99h4.16v1.56h-4.16v8.16c0,1.61.83,2.5,2.37,2.5.75,0,1.51-.23,2.03-.7l.65,1.33Z"/>
      <path class="cls-1" d="m183.16,311.58c0-4.06,2.96-6.94,6.97-6.94s6.94,2.89,6.94,6.94-2.94,6.97-6.94,6.97-6.97-2.91-6.97-6.97Zm12.04,0c0-3.2-2.16-5.33-5.07-5.33s-5.1,2.13-5.1,5.33,2.18,5.33,5.1,5.33,5.07-2.13,5.07-5.33Z"/>
      <path class="cls-1" d="m219.56,312.15h-11.44c.21,2.86,2.39,4.76,5.38,4.76,1.66,0,3.15-.6,4.19-1.79l1.04,1.2c-1.22,1.46-3.12,2.24-5.28,2.24-4.26,0-7.18-2.91-7.18-6.97s2.83-6.94,6.68-6.94,6.63,2.83,6.63,6.94c0,.16-.03.36-.03.57Zm-11.44-1.38h9.7c-.23-2.68-2.18-4.55-4.86-4.55s-4.6,1.87-4.84,4.55Z"/>
      <path class="cls-1" d="m230.25,304.63v1.79c-.16,0-.31-.03-.44-.03-2.86,0-4.6,1.82-4.6,5.04v6.97h-1.85v-13.68h1.77v2.68c.86-1.82,2.6-2.78,5.12-2.78Z"/>
      <path class="cls-1" d="m243.87,309.94v8.48h-1.77v-2.13c-.83,1.4-2.44,2.26-4.71,2.26-3.09,0-4.99-1.61-4.99-3.98,0-2.11,1.35-3.88,5.28-3.88h4.34v-.83c0-2.34-1.33-3.61-3.87-3.61-1.77,0-3.43.62-4.55,1.61l-.83-1.38c1.38-1.17,3.41-1.85,5.56-1.85,3.54,0,5.54,1.77,5.54,5.3Zm-1.85,4.37v-2.24h-4.29c-2.65,0-3.51,1.04-3.51,2.44,0,1.59,1.27,2.57,3.46,2.57s3.61-.99,4.34-2.78Z"/>
      <path class="cls-1" d="m267.61,312.15h-11.44c.21,2.86,2.39,4.76,5.38,4.76,1.66,0,3.15-.6,4.19-1.79l1.04,1.2c-1.22,1.46-3.12,2.24-5.28,2.24-4.26,0-7.18-2.91-7.18-6.97s2.83-6.94,6.68-6.94,6.63,2.83,6.63,6.94c0,.16-.03.36-.03.57Zm-11.44-1.38h9.7c-.23-2.68-2.18-4.55-4.86-4.55s-4.6,1.87-4.84,4.55Z"/>
      <path class="cls-1" d="m279.73,318.41l-4.34-5.72-4.37,5.72h-2.08l5.41-7.02-5.15-6.66h2.08l4.11,5.36,4.11-5.36h2.03l-5.15,6.66,5.46,7.02h-2.11Z"/>
      <path class="cls-1" d="m298.76,311.58c0,4.16-2.91,6.97-6.81,6.97-2.18,0-4.06-.94-5.2-2.7v7.62h-1.85v-18.72h1.77v2.7c1.12-1.82,3.02-2.81,5.28-2.81,3.9,0,6.81,2.81,6.81,6.94Zm-1.85,0c0-3.17-2.21-5.33-5.1-5.33s-5.1,2.16-5.1,5.33,2.18,5.33,5.1,5.33,5.1-2.13,5.1-5.33Z"/>
      <path class="cls-1" d="m309.42,304.63v1.79c-.16,0-.31-.03-.44-.03-2.86,0-4.6,1.82-4.6,5.04v6.97h-1.85v-13.68h1.77v2.68c.86-1.82,2.6-2.78,5.12-2.78Z"/>
      <path class="cls-1" d="m324.52,312.15h-11.44c.21,2.86,2.39,4.76,5.38,4.76,1.66,0,3.15-.6,4.19-1.79l1.04,1.2c-1.22,1.46-3.12,2.24-5.28,2.24-4.26,0-7.18-2.91-7.18-6.97s2.83-6.94,6.68-6.94,6.63,2.83,6.63,6.94c0,.16-.03.36-.03.57Zm-11.44-1.38h9.7c-.23-2.68-2.18-4.55-4.86-4.55s-4.6,1.87-4.84,4.55Z"/>
      <path class="cls-1" d="m326.42,316.85l.83-1.46c1.09.86,2.94,1.53,4.86,1.53,2.6,0,3.67-.88,3.67-2.24,0-3.56-8.87-.75-8.87-6.16,0-2.24,1.92-3.9,5.41-3.9,1.77,0,3.69.49,4.84,1.27l-.81,1.48c-1.2-.83-2.63-1.17-4.03-1.17-2.47,0-3.56.96-3.56,2.26,0,3.69,8.87.91,8.87,6.16,0,2.37-2.08,3.9-5.64,3.9-2.26,0-4.45-.73-5.56-1.69Z"/>
      <path class="cls-1" d="m339.14,316.85l.83-1.46c1.09.86,2.94,1.53,4.86,1.53,2.6,0,3.67-.88,3.67-2.24,0-3.56-8.87-.75-8.87-6.16,0-2.24,1.92-3.9,5.41-3.9,1.77,0,3.69.49,4.84,1.27l-.81,1.48c-1.2-.83-2.63-1.17-4.03-1.17-2.47,0-3.56.96-3.56,2.26,0,3.69,8.87.91,8.87,6.16,0,2.37-2.08,3.9-5.64,3.9-2.26,0-4.45-.73-5.56-1.69Z"/>
      <path class="cls-1" d="m364.07,309.94v8.48h-1.77v-2.13c-.83,1.4-2.44,2.26-4.71,2.26-3.09,0-4.99-1.61-4.99-3.98,0-2.11,1.35-3.88,5.28-3.88h4.34v-.83c0-2.34-1.33-3.61-3.87-3.61-1.77,0-3.43.62-4.55,1.61l-.83-1.38c1.38-1.17,3.41-1.85,5.56-1.85,3.54,0,5.54,1.77,5.54,5.3Zm-1.85,4.37v-2.24h-4.29c-2.65,0-3.51,1.04-3.51,2.44,0,1.59,1.27,2.57,3.46,2.57s3.61-.99,4.34-2.78Zm-6.63-11.93h-1.12c.05-1.74.96-2.86,2.34-2.86,1.61,0,2.39,1.77,3.41,1.77.78,0,1.3-.62,1.35-1.61h1.12c-.05,1.69-.96,2.81-2.34,2.81-1.61,0-2.37-1.77-3.41-1.77-.78,0-1.3.62-1.35,1.66Z"/>
      <path class="cls-1" d="m367.76,311.58c0-4.06,2.96-6.94,6.97-6.94s6.94,2.89,6.94,6.94-2.94,6.97-6.94,6.97-6.97-2.91-6.97-6.97Zm12.04,0c0-3.2-2.16-5.33-5.07-5.33s-5.1,2.13-5.1,5.33,2.18,5.33,5.1,5.33,5.07-2.13,5.07-5.33Z"/>
      <path class="cls-1" d="m84.08,331.62c0-.7.6-1.3,1.35-1.3s1.35.57,1.35,1.27c0,.75-.57,1.35-1.35,1.35s-1.35-.6-1.35-1.33Zm.42,4.32h1.85v13.68h-1.85v-13.68Z"/>
      <path class="cls-1" d="m114.06,341.68v7.93h-1.85v-7.75c0-2.89-1.46-4.37-3.93-4.37-2.81,0-4.58,1.82-4.58,4.94v7.18h-1.85v-7.75c0-2.89-1.46-4.37-3.95-4.37-2.78,0-4.58,1.82-4.58,4.94v7.18h-1.85v-13.68h1.77v2.5c.96-1.64,2.73-2.6,5.02-2.6s4.03.96,4.86,2.89c.99-1.77,2.94-2.89,5.41-2.89,3.33,0,5.51,1.92,5.51,5.85Z"/>
      <path class="cls-1" d="m131.03,343.35h-11.44c.21,2.86,2.39,4.76,5.38,4.76,1.66,0,3.15-.6,4.19-1.79l1.04,1.2c-1.22,1.46-3.12,2.24-5.28,2.24-4.26,0-7.18-2.91-7.18-6.97s2.83-6.94,6.68-6.94,6.63,2.83,6.63,6.94c0,.16-.03.36-.03.57Zm-11.44-1.38h9.7c-.23-2.68-2.18-4.55-4.86-4.55s-4.6,1.87-4.84,4.55Z"/>
      <path class="cls-1" d="m147.31,330.32v19.29h-1.77v-2.7c-1.12,1.85-3.02,2.83-5.28,2.83-3.9,0-6.81-2.83-6.81-6.97s2.91-6.94,6.81-6.94c2.18,0,4.06.94,5.2,2.7v-8.22h1.85Zm-1.82,12.46c0-3.2-2.18-5.33-5.07-5.33s-5.1,2.13-5.1,5.33,2.18,5.33,5.1,5.33,5.07-2.13,5.07-5.33Z"/>
      <path class="cls-1" d="m152.04,331.62c0-.7.6-1.3,1.35-1.3s1.35.57,1.35,1.27c0,.75-.57,1.35-1.35,1.35s-1.35-.6-1.35-1.33Zm.42,4.32h1.85v13.68h-1.85v-13.68Z"/>
      <path class="cls-1" d="m169.77,341.14v8.48h-1.77v-2.13c-.83,1.4-2.44,2.26-4.71,2.26-3.09,0-4.99-1.61-4.99-3.98,0-2.11,1.35-3.88,5.28-3.88h4.34v-.83c0-2.34-1.33-3.61-3.87-3.61-1.77,0-3.43.62-4.55,1.61l-.83-1.38c1.38-1.17,3.41-1.85,5.56-1.85,3.54,0,5.54,1.77,5.54,5.3Zm-1.85,4.37v-2.24h-4.29c-2.65,0-3.51,1.04-3.51,2.44,0,1.59,1.27,2.57,3.46,2.57s3.61-.99,4.34-2.78Z"/>
      <path class="cls-1" d="m181.99,348.78c-.73.65-1.82.96-2.89.96-2.57,0-4-1.46-4-3.98v-8.27h-2.44v-1.56h2.44v-2.99h1.85v2.99h4.16v1.56h-4.16v8.16c0,1.61.83,2.5,2.37,2.5.75,0,1.51-.23,2.03-.7l.65,1.33Z"/>
      <path class="cls-1" d="m195.67,341.14v8.48h-1.77v-2.13c-.83,1.4-2.44,2.26-4.71,2.26-3.09,0-4.99-1.61-4.99-3.98,0-2.11,1.35-3.88,5.28-3.88h4.34v-.83c0-2.34-1.33-3.61-3.87-3.61-1.77,0-3.43.62-4.55,1.61l-.83-1.38c1.38-1.17,3.41-1.85,5.56-1.85,3.54,0,5.54,1.77,5.54,5.3Zm-1.85,4.37v-2.24h-4.29c-2.65,0-3.51,1.04-3.51,2.44,0,1.59,1.27,2.57,3.46,2.57s3.61-.99,4.34-2.78Z"/>
      <path class="cls-1" d="m219.98,330.32v19.29h-1.77v-2.7c-1.12,1.85-3.02,2.83-5.28,2.83-3.9,0-6.81-2.83-6.81-6.97s2.91-6.94,6.81-6.94c2.18,0,4.06.94,5.2,2.7v-8.22h1.85Zm-1.82,12.46c0-3.2-2.18-5.33-5.07-5.33s-5.1,2.13-5.1,5.33,2.18,5.33,5.1,5.33,5.07-2.13,5.07-5.33Z"/>
      <path class="cls-1" d="m235.45,341.14v8.48h-1.77v-2.13c-.83,1.4-2.44,2.26-4.71,2.26-3.09,0-4.99-1.61-4.99-3.98,0-2.11,1.35-3.88,5.28-3.88h4.34v-.83c0-2.34-1.33-3.61-3.87-3.61-1.77,0-3.43.62-4.55,1.61l-.83-1.38c1.38-1.17,3.41-1.85,5.56-1.85,3.54,0,5.54,1.77,5.54,5.3Zm-1.85,4.37v-2.24h-4.29c-2.65,0-3.51,1.04-3.51,2.44,0,1.59,1.27,2.57,3.46,2.57s3.61-.99,4.34-2.78Z"/>
      <path class="cls-1" d="m258.77,335.94l-6.08,13.68h-1.9l-6.06-13.68h1.92l5.12,11.65,5.17-11.65h1.82Z"/>
      <path class="cls-1" d="m259.6,342.78c0-4.06,2.96-6.94,6.97-6.94s6.94,2.89,6.94,6.94-2.94,6.97-6.94,6.97-6.97-2.91-6.97-6.97Zm12.04,0c0-3.2-2.16-5.33-5.07-5.33s-5.1,2.13-5.1,5.33,2.18,5.33,5.1,5.33,5.07-2.13,5.07-5.33Z"/>
      <path class="cls-1" d="m289.87,341.68v7.93h-1.85v-7.75c0-2.89-1.51-4.37-4.11-4.37-2.94,0-4.78,1.82-4.78,4.94v7.18h-1.85v-13.68h1.77v2.52c.99-1.66,2.83-2.63,5.2-2.63,3.33,0,5.62,1.92,5.62,5.85Z"/>
      <path class="cls-1" d="m302.09,348.78c-.73.65-1.82.96-2.89.96-2.57,0-4-1.46-4-3.98v-8.27h-2.44v-1.56h2.44v-2.99h1.85v2.99h4.16v1.56h-4.16v8.16c0,1.61.83,2.5,2.37,2.5.75,0,1.51-.23,2.03-.7l.65,1.33Z"/>
      <path class="cls-1" d="m315.76,341.14v8.48h-1.77v-2.13c-.83,1.4-2.44,2.26-4.71,2.26-3.09,0-4.99-1.61-4.99-3.98,0-2.11,1.35-3.88,5.28-3.88h4.34v-.83c0-2.34-1.33-3.61-3.87-3.61-1.77,0-3.43.62-4.55,1.61l-.83-1.38c1.38-1.17,3.41-1.85,5.56-1.85,3.54,0,5.54,1.77,5.54,5.3Zm-1.85,4.37v-2.24h-4.29c-2.65,0-3.51,1.04-3.51,2.44,0,1.59,1.27,2.57,3.46,2.57s3.61-.99,4.34-2.78Z"/>
      <path class="cls-1" d="m333.31,330.32v19.29h-1.77v-2.7c-1.12,1.85-3.02,2.83-5.28,2.83-3.9,0-6.81-2.83-6.81-6.97s2.91-6.94,6.81-6.94c2.18,0,4.06.94,5.2,2.7v-8.22h1.85Zm-1.82,12.46c0-3.2-2.18-5.33-5.07-5.33s-5.1,2.13-5.1,5.33,2.18,5.33,5.1,5.33,5.07-2.13,5.07-5.33Z"/>
      <path class="cls-1" d="m350.37,343.35h-11.44c.21,2.86,2.39,4.76,5.38,4.76,1.66,0,3.15-.6,4.19-1.79l1.04,1.2c-1.22,1.46-3.12,2.24-5.28,2.24-4.26,0-7.18-2.91-7.18-6.97s2.83-6.94,6.68-6.94,6.63,2.83,6.63,6.94c0,.16-.03.36-.03.57Zm-11.44-1.38h9.7c-.23-2.68-2.18-4.55-4.86-4.55s-4.6,1.87-4.84,4.55Z"/>
      <path class="cls-1" d="m373.46,330.32v19.29h-1.77v-2.7c-1.12,1.85-3.02,2.83-5.28,2.83-3.9,0-6.81-2.83-6.81-6.97s2.91-6.94,6.81-6.94c2.18,0,4.06.94,5.2,2.7v-8.22h1.85Zm-1.82,12.46c0-3.2-2.18-5.33-5.07-5.33s-5.1,2.13-5.1,5.33,2.18,5.33,5.1,5.33,5.07-2.13,5.07-5.33Z"/>
      <path class="cls-1" d="m377.23,342.78c0-4.06,2.96-6.94,6.97-6.94s6.94,2.89,6.94,6.94-2.94,6.97-6.94,6.97-6.97-2.91-6.97-6.97Zm12.04,0c0-3.2-2.16-5.33-5.07-5.33s-5.1,2.13-5.1,5.33,2.18,5.33,5.1,5.33,5.07-2.13,5.07-5.33Z"/>
      <path class="cls-1" d="m197.07,373.98c0,4.16-2.91,6.97-6.81,6.97-2.18,0-4.06-.94-5.2-2.7v7.62h-1.85v-18.72h1.77v2.7c1.12-1.82,3.02-2.81,5.28-2.81,3.9,0,6.81,2.81,6.81,6.94Zm-1.85,0c0-3.17-2.21-5.33-5.1-5.33s-5.1,2.16-5.1,5.33,2.18,5.33,5.1,5.33,5.1-2.13,5.1-5.33Z"/>
      <path class="cls-1" d="m207.73,367.03v1.79c-.16,0-.31-.03-.44-.03-2.86,0-4.6,1.82-4.6,5.04v6.97h-1.85v-13.68h1.77v2.68c.86-1.82,2.6-2.78,5.12-2.78Z"/>
      <path class="cls-1" d="m213.87,361.81h2.47l-4.21,3.22h-1.82l3.56-3.22Zm-2.81,5.33h1.85v13.68h-1.85v-13.68Z"/>
      <path class="cls-1" d="m230.64,372.88v7.93h-1.85v-7.75c0-2.89-1.51-4.37-4.11-4.37-2.94,0-4.78,1.82-4.78,4.94v7.18h-1.85v-13.68h1.77v2.52c.99-1.66,2.83-2.63,5.2-2.63,3.33,0,5.62,1.92,5.62,5.85Z"/>
      <path class="cls-1" d="m234.33,373.98c0-4.08,2.96-6.94,7.05-6.94,2.31,0,4.26.91,5.36,2.7l-1.38.94c-.94-1.38-2.39-2.03-3.98-2.03-2.99,0-5.17,2.13-5.17,5.33s2.18,5.33,5.17,5.33c1.59,0,3.04-.62,3.98-2l1.38.94c-1.09,1.77-3.04,2.7-5.36,2.7-4.08,0-7.05-2.89-7.05-6.97Z"/>
      <path class="cls-1" d="m249.93,362.82c0-.7.6-1.3,1.35-1.3s1.35.57,1.35,1.27c0,.75-.57,1.35-1.35,1.35s-1.35-.6-1.35-1.33Zm.42,4.32h1.85v13.68h-1.85v-13.68Z"/>
      <path class="cls-1" d="m271.2,373.98c0,4.16-2.91,6.97-6.81,6.97-2.18,0-4.06-.94-5.2-2.7v7.62h-1.85v-18.72h1.77v2.7c1.12-1.82,3.02-2.81,5.28-2.81,3.9,0,6.81,2.81,6.81,6.94Zm-1.85,0c0-3.17-2.21-5.33-5.1-5.33s-5.1,2.16-5.1,5.33,2.18,5.33,5.1,5.33,5.1-2.13,5.1-5.33Z"/>
      <path class="cls-1" d="m286.88,374.55h-11.44c.21,2.86,2.39,4.76,5.38,4.76,1.66,0,3.15-.6,4.19-1.79l1.04,1.2c-1.22,1.46-3.12,2.24-5.28,2.24-4.26,0-7.18-2.91-7.18-6.97s2.83-6.94,6.68-6.94,6.63,2.83,6.63,6.94c0,.16-.03.36-.03.57Zm-11.44-1.38h9.7c-.23-2.68-2.18-4.55-4.86-4.55s-4.6,1.87-4.84,4.55Z"/>
      <path class="cls-1" d="m289.48,379.51c0-.81.62-1.4,1.38-1.4s1.4.6,1.4,1.4-.65,1.43-1.4,1.43-1.38-.62-1.38-1.43Z"/>
    </g>
  </g>
  <circle class="cls-3" cx="785.7" cy="242.24" r="212.8"/>
  <g>
    <g>
      <path class="cls-1" d="m680.95,311.03v3.38h-14.09v-18.2h13.75v3.38h-9.57v3.95h8.45v3.28h-8.45v4.21h9.91Z"/>
      <path class="cls-1" d="m682.56,313.11l1.35-2.91c1.25.81,3.15,1.35,4.86,1.35,1.87,0,2.57-.49,2.57-1.27,0-2.29-8.45.05-8.45-5.54,0-2.65,2.39-4.52,6.47-4.52,1.92,0,4.06.44,5.38,1.22l-1.35,2.89c-1.38-.78-2.76-1.04-4.03-1.04-1.82,0-2.6.57-2.6,1.3,0,2.39,8.45.08,8.45,5.59,0,2.6-2.42,4.45-6.6,4.45-2.37,0-4.76-.65-6.06-1.51Z"/>
      <path class="cls-1" d="m706.74,313.74c-.83.6-2.05.88-3.3.88-3.3,0-5.23-1.69-5.23-5.02v-5.75h-2.16v-3.12h2.16v-3.41h4.06v3.41h3.48v3.12h-3.48v5.69c0,1.2.65,1.85,1.74,1.85.6,0,1.2-.18,1.64-.52l1.09,2.86Z"/>
      <path class="cls-1" d="m721.4,306.43v7.98h-3.8v-1.74c-.75,1.27-2.21,1.95-4.26,1.95-3.28,0-5.23-1.82-5.23-4.24s1.74-4.19,6.01-4.19h3.22c0-1.74-1.04-2.76-3.22-2.76-1.48,0-3.02.49-4.03,1.3l-1.46-2.83c1.53-1.09,3.8-1.69,6.03-1.69,4.26,0,6.73,1.98,6.73,6.21Zm-4.06,3.56v-1.43h-2.78c-1.9,0-2.5.7-2.5,1.64,0,1.01.86,1.69,2.29,1.69,1.35,0,2.52-.62,2.99-1.9Z"/>
      <path class="cls-1" d="m739.47,295.12v19.29h-3.87v-1.61c-1.01,1.22-2.5,1.82-4.37,1.82-3.95,0-6.99-2.81-6.99-7.2s3.04-7.2,6.99-7.2c1.72,0,3.17.55,4.19,1.69v-6.79h4.06Zm-3.98,12.3c0-2.42-1.56-3.87-3.56-3.87s-3.59,1.46-3.59,3.87,1.56,3.87,3.59,3.87,3.56-1.46,3.56-3.87Z"/>
      <path class="cls-1" d="m742.17,307.42c0-4.21,3.25-7.2,7.7-7.2s7.67,2.99,7.67,7.2-3.22,7.2-7.67,7.2-7.7-2.99-7.7-7.2Zm11.26,0c0-2.42-1.53-3.87-3.56-3.87s-3.59,1.46-3.59,3.87,1.56,3.87,3.59,3.87,3.56-1.46,3.56-3.87Z"/>
      <path class="cls-1" d="m781.85,295.12v19.29h-3.87v-1.61c-1.01,1.22-2.5,1.82-4.37,1.82-3.95,0-7-2.81-7-7.2s3.04-7.2,7-7.2c1.72,0,3.17.55,4.19,1.69v-6.79h4.06Zm-3.98,12.3c0-2.42-1.56-3.87-3.56-3.87s-3.59,1.46-3.59,3.87,1.56,3.87,3.59,3.87,3.56-1.46,3.56-3.87Z"/>
      <path class="cls-1" d="m799.22,308.56h-10.58c.39,1.74,1.87,2.81,4,2.81,1.48,0,2.55-.44,3.51-1.35l2.16,2.34c-1.3,1.48-3.25,2.26-5.77,2.26-4.84,0-7.98-3.04-7.98-7.2s3.2-7.2,7.46-7.2,7.28,2.76,7.28,7.25c0,.31-.05.75-.08,1.09Zm-10.63-2.37h6.89c-.29-1.77-1.61-2.91-3.43-2.91s-3.17,1.12-3.46,2.91Z"/>
      <path class="cls-1" d="m809.64,296.21h8.27c5.95,0,10.04,3.59,10.04,9.1s-4.08,9.1-10.04,9.1h-8.27v-18.2Zm8.06,14.74c3.61,0,5.98-2.16,5.98-5.64s-2.37-5.64-5.98-5.64h-3.85v11.28h3.85Z"/>
      <path class="cls-1" d="m830.34,296.21c0-1.27,1.01-2.26,2.52-2.26s2.52.94,2.52,2.18c0,1.35-1.01,2.34-2.52,2.34s-2.52-.99-2.52-2.26Zm.49,4.21h4.06v13.99h-4.06v-13.99Z"/>
      <path class="cls-1" d="m847.34,300.22v3.74c-.34-.03-.6-.05-.91-.05-2.24,0-3.72,1.22-3.72,3.9v6.6h-4.06v-13.99h3.87v1.85c.99-1.35,2.65-2.05,4.81-2.05Z"/>
      <path class="cls-1" d="m863.26,308.56h-10.58c.39,1.74,1.87,2.81,4,2.81,1.48,0,2.55-.44,3.51-1.35l2.16,2.34c-1.3,1.48-3.25,2.26-5.77,2.26-4.84,0-7.98-3.04-7.98-7.2s3.2-7.2,7.46-7.2,7.28,2.76,7.28,7.25c0,.31-.05.75-.08,1.09Zm-10.63-2.37h6.89c-.29-1.77-1.61-2.91-3.43-2.91s-3.17,1.12-3.46,2.91Z"/>
      <path class="cls-1" d="m865.54,296.21c0-1.27,1.01-2.26,2.52-2.26s2.52.94,2.52,2.18c0,1.35-1.01,2.34-2.52,2.34s-2.52-.99-2.52-2.26Zm.49,4.21h4.06v13.99h-4.06v-13.99Z"/>
      <path class="cls-1" d="m882.88,313.74c-.83.6-2.05.88-3.3.88-3.3,0-5.23-1.69-5.23-5.02v-5.75h-2.16v-3.12h2.16v-3.41h4.06v3.41h3.48v3.12h-3.48v5.69c0,1.2.65,1.85,1.74,1.85.6,0,1.2-.18,1.64-.52l1.09,2.86Z"/>
      <path class="cls-1" d="m883.69,307.42c0-4.21,3.25-7.2,7.7-7.2s7.67,2.99,7.67,7.2-3.22,7.2-7.67,7.2-7.7-2.99-7.7-7.2Zm11.26,0c0-2.42-1.53-3.87-3.56-3.87s-3.59,1.46-3.59,3.87,1.56,3.87,3.59,3.87,3.56-1.46,3.56-3.87Z"/>
      <path class="cls-1" d="m900.77,302.74c0-1.51,1.12-2.5,2.52-2.5s2.52.99,2.52,2.5-1.12,2.55-2.52,2.55-2.52-1.07-2.52-2.55Zm0,9.33c0-1.51,1.12-2.5,2.52-2.5s2.52.99,2.52,2.5-1.12,2.55-2.52,2.55-2.52-1.07-2.52-2.55Z"/>
      <path class="cls-1" d="m637.44,338.78c0,4.16-2.91,6.97-6.81,6.97-2.18,0-4.06-.94-5.2-2.7v7.62h-1.85v-18.72h1.77v2.7c1.12-1.82,3.02-2.81,5.28-2.81,3.9,0,6.81,2.81,6.81,6.94Zm-1.85,0c0-3.17-2.21-5.33-5.1-5.33s-5.1,2.16-5.1,5.33,2.18,5.33,5.1,5.33,5.1-2.13,5.1-5.33Z"/>
      <path class="cls-1" d="m639.83,338.78c0-4.06,2.96-6.94,6.97-6.94s6.94,2.89,6.94,6.94-2.94,6.97-6.94,6.97-6.97-2.91-6.97-6.97Zm12.04,0c0-3.2-2.16-5.33-5.07-5.33s-5.1,2.13-5.1,5.33,2.18,5.33,5.1,5.33,5.07-2.13,5.07-5.33Z"/>
      <path class="cls-1" d="m669.99,326.32v19.29h-1.77v-2.7c-1.12,1.85-3.02,2.83-5.28,2.83-3.9,0-6.81-2.83-6.81-6.97s2.91-6.94,6.81-6.94c2.18,0,4.06.94,5.2,2.7v-8.22h1.85Zm-1.82,12.46c0-3.2-2.18-5.33-5.07-5.33s-5.1,2.13-5.1,5.33,2.18,5.33,5.1,5.33,5.07-2.13,5.07-5.33Z"/>
      <path class="cls-1" d="m687.04,339.35h-11.44c.21,2.86,2.39,4.76,5.38,4.76,1.66,0,3.15-.6,4.19-1.79l1.04,1.2c-1.22,1.46-3.12,2.24-5.28,2.24-4.26,0-7.18-2.91-7.18-6.97s2.83-6.94,6.68-6.94,6.63,2.83,6.63,6.94c0,.16-.03.36-.03.57Zm-11.44-1.38h9.7c-.23-2.68-2.18-4.55-4.86-4.55s-4.6,1.87-4.84,4.55Z"/>
      <path class="cls-1" d="m697.73,331.83v1.79c-.16,0-.31-.03-.44-.03-2.86,0-4.6,1.82-4.6,5.04v6.97h-1.85v-13.68h1.77v2.68c.86-1.82,2.6-2.78,5.12-2.78Z"/>
      <path class="cls-1" d="m714.97,331.83v1.79c-.16,0-.31-.03-.44-.03-2.86,0-4.6,1.82-4.6,5.04v6.97h-1.85v-13.68h1.77v2.68c.86-1.82,2.6-2.78,5.12-2.78Z"/>
      <path class="cls-1" d="m730.07,339.35h-11.44c.21,2.86,2.39,4.76,5.38,4.76,1.66,0,3.15-.6,4.19-1.79l1.04,1.2c-1.22,1.46-3.12,2.24-5.28,2.24-4.26,0-7.18-2.91-7.18-6.97s2.83-6.94,6.68-6.94,6.63,2.83,6.63,6.94c0,.16-.03.36-.03.57Zm-11.44-1.38h9.7c-.23-2.68-2.18-4.55-4.86-4.55s-4.6,1.87-4.84,4.55Z"/>
      <path class="cls-1" d="m731.97,344.05l.83-1.46c1.09.86,2.94,1.53,4.86,1.53,2.6,0,3.67-.88,3.67-2.24,0-3.56-8.87-.75-8.87-6.16,0-2.24,1.92-3.9,5.41-3.9,1.77,0,3.69.49,4.84,1.27l-.81,1.48c-1.2-.83-2.63-1.17-4.03-1.17-2.47,0-3.56.96-3.56,2.26,0,3.69,8.87.91,8.87,6.16,0,2.37-2.08,3.9-5.64,3.9-2.26,0-4.45-.73-5.56-1.69Z"/>
      <path class="cls-1" d="m758.91,331.94v13.68h-1.77v-2.5c-.96,1.66-2.73,2.63-4.91,2.63-3.48,0-5.77-1.95-5.77-5.88v-7.93h1.85v7.75c0,2.91,1.51,4.39,4.11,4.39,2.86,0,4.65-1.85,4.65-4.97v-7.18h1.85Z"/>
      <path class="cls-1" d="m764.08,326.32h1.85v19.29h-1.85v-19.29Z"/>
      <path class="cls-1" d="m778.33,344.78c-.73.65-1.82.96-2.89.96-2.57,0-4-1.46-4-3.98v-8.27h-2.44v-1.56h2.44v-2.99h1.85v2.99h4.16v1.56h-4.16v8.16c0,1.61.83,2.5,2.37,2.5.75,0,1.51-.23,2.03-.7l.65,1.33Z"/>
      <path class="cls-1" d="m792,337.14v8.48h-1.77v-2.13c-.83,1.4-2.44,2.26-4.71,2.26-3.09,0-4.99-1.61-4.99-3.98,0-2.11,1.35-3.88,5.28-3.88h4.34v-.83c0-2.34-1.33-3.61-3.87-3.61-1.77,0-3.43.62-4.55,1.61l-.83-1.38c1.38-1.17,3.41-1.85,5.56-1.85,3.54,0,5.54,1.77,5.54,5.3Zm-1.85,4.37v-2.24h-4.29c-2.65,0-3.51,1.04-3.51,2.44,0,1.59,1.27,2.57,3.46,2.57s3.61-.99,4.34-2.78Z"/>
      <path class="cls-1" d="m816.31,326.32v19.29h-1.77v-2.7c-1.12,1.85-3.02,2.83-5.28,2.83-3.9,0-6.81-2.83-6.81-6.97s2.91-6.94,6.81-6.94c2.18,0,4.06.94,5.2,2.7v-8.22h1.85Zm-1.82,12.46c0-3.2-2.18-5.33-5.07-5.33s-5.1,2.13-5.1,5.33,2.18,5.33,5.1,5.33,5.07-2.13,5.07-5.33Z"/>
      <path class="cls-1" d="m831.78,337.14v8.48h-1.77v-2.13c-.83,1.4-2.44,2.26-4.71,2.26-3.09,0-4.99-1.61-4.99-3.98,0-2.11,1.35-3.88,5.28-3.88h4.34v-.83c0-2.34-1.33-3.61-3.87-3.61-1.77,0-3.43.62-4.55,1.61l-.83-1.38c1.38-1.17,3.41-1.85,5.56-1.85,3.54,0,5.54,1.77,5.54,5.3Zm-1.85,4.37v-2.24h-4.29c-2.65,0-3.51,1.04-3.51,2.44,0,1.59,1.27,2.57,3.46,2.57s3.61-.99,4.34-2.78Z"/>
      <path class="cls-1" d="m855.11,331.94l-6.08,13.68h-1.9l-6.06-13.68h1.92l5.12,11.65,5.17-11.65h1.82Z"/>
      <path class="cls-1" d="m867.61,337.14v8.48h-1.77v-2.13c-.83,1.4-2.44,2.26-4.71,2.26-3.09,0-4.99-1.61-4.99-3.98,0-2.11,1.35-3.88,5.28-3.88h4.34v-.83c0-2.34-1.33-3.61-3.87-3.61-1.77,0-3.43.62-4.55,1.61l-.83-1.38c1.38-1.17,3.41-1.85,5.56-1.85,3.54,0,5.54,1.77,5.54,5.3Zm-1.85,4.37v-2.24h-4.29c-2.65,0-3.51,1.04-3.51,2.44,0,1.59,1.27,2.57,3.46,2.57s3.61-.99,4.34-2.78Z"/>
      <path class="cls-1" d="m872.63,326.32h1.85v19.29h-1.85v-19.29Z"/>
      <path class="cls-1" d="m879.21,327.62c0-.7.6-1.3,1.35-1.3s1.35.57,1.35,1.27c0,.75-.57,1.35-1.35,1.35s-1.35-.6-1.35-1.33Zm.42,4.32h1.85v13.68h-1.85v-13.68Z"/>
      <path class="cls-1" d="m899.1,326.32v19.29h-1.77v-2.7c-1.12,1.85-3.02,2.83-5.28,2.83-3.9,0-6.81-2.83-6.81-6.97s2.91-6.94,6.81-6.94c2.18,0,4.06.94,5.2,2.7v-8.22h1.85Zm-1.82,12.46c0-3.2-2.18-5.33-5.07-5.33s-5.1,2.13-5.1,5.33,2.18,5.33,5.1,5.33,5.07-2.13,5.07-5.33Z"/>
      <path class="cls-1" d="m914.57,337.14v8.48h-1.77v-2.13c-.83,1.4-2.44,2.26-4.71,2.26-3.09,0-4.99-1.61-4.99-3.98,0-2.11,1.35-3.88,5.28-3.88h4.34v-.83c0-2.34-1.33-3.61-3.87-3.61-1.77,0-3.43.62-4.55,1.61l-.83-1.38c1.38-1.17,3.41-1.85,5.56-1.85,3.54,0,5.54,1.77,5.54,5.3Zm-1.85,4.37v-2.24h-4.29c-2.65,0-3.51,1.04-3.51,2.44,0,1.59,1.27,2.57,3.46,2.57s3.61-.99,4.34-2.78Z"/>
      <path class="cls-1" d="m932.12,326.32v19.29h-1.77v-2.7c-1.12,1.85-3.02,2.83-5.28,2.83-3.9,0-6.81-2.83-6.81-6.97s2.91-6.94,6.81-6.94c2.18,0,4.06.94,5.2,2.7v-8.22h1.85Zm-1.82,12.46c0-3.2-2.18-5.33-5.07-5.33s-5.1,2.13-5.1,5.33,2.18,5.33,5.1,5.33,5.07-2.13,5.07-5.33Z"/>
      <path class="cls-1" d="m949.17,339.35h-11.44c.21,2.86,2.39,4.76,5.38,4.76,1.66,0,3.15-.6,4.19-1.79l1.04,1.2c-1.22,1.46-3.12,2.24-5.28,2.24-4.26,0-7.18-2.91-7.18-6.97s2.83-6.94,6.68-6.94,6.63,2.83,6.63,6.94c0,.16-.03.36-.03.57Zm-11.44-1.38h9.7c-.23-2.68-2.18-4.55-4.86-4.55s-4.6,1.87-4.84,4.55Z"/>
      <path class="cls-1" d="m731.27,368.88v7.93h-1.85v-7.75c0-2.89-1.51-4.37-4.11-4.37-2.94,0-4.78,1.82-4.78,4.94v7.18h-1.85v-13.68h1.77v2.52c.99-1.66,2.83-2.63,5.2-2.63,3.33,0,5.62,1.92,5.62,5.85Z"/>
      <path class="cls-1" d="m734.96,369.98c0-4.06,2.96-6.94,6.97-6.94s6.94,2.89,6.94,6.94-2.94,6.97-6.94,6.97-6.97-2.91-6.97-6.97Zm12.04,0c0-3.2-2.16-5.33-5.07-5.33s-5.1,2.13-5.1,5.33,2.18,5.33,5.1,5.33,5.07-2.13,5.07-5.33Z"/>
      <path class="cls-1" d="m759.53,363.03v1.79c-.16,0-.31-.03-.44-.03-2.86,0-4.6,1.82-4.6,5.04v6.97h-1.85v-13.68h1.77v2.68c.86-1.82,2.6-2.78,5.12-2.78Z"/>
      <path class="cls-1" d="m785.43,368.88v7.93h-1.85v-7.75c0-2.89-1.46-4.37-3.93-4.37-2.81,0-4.58,1.82-4.58,4.94v7.18h-1.85v-7.75c0-2.89-1.46-4.37-3.95-4.37-2.78,0-4.58,1.82-4.58,4.94v7.18h-1.85v-13.68h1.77v2.5c.96-1.64,2.73-2.6,5.02-2.6s4.03.96,4.86,2.89c.99-1.77,2.94-2.89,5.41-2.89,3.33,0,5.51,1.92,5.51,5.85Z"/>
      <path class="cls-1" d="m800.77,368.34v8.48h-1.77v-2.13c-.83,1.4-2.44,2.26-4.71,2.26-3.09,0-4.99-1.61-4.99-3.98,0-2.11,1.35-3.88,5.28-3.88h4.34v-.83c0-2.34-1.33-3.61-3.87-3.61-1.77,0-3.43.62-4.55,1.61l-.83-1.38c1.38-1.17,3.41-1.85,5.56-1.85,3.54,0,5.54,1.77,5.54,5.3Zm-1.85,4.37v-2.24h-4.29c-2.65,0-3.51,1.04-3.51,2.44,0,1.59,1.27,2.57,3.46,2.57s3.61-.99,4.34-2.78Z"/>
      <path class="cls-1" d="m812.99,375.98c-.73.65-1.82.96-2.89.96-2.57,0-4-1.46-4-3.98v-8.27h-2.44v-1.56h2.44v-2.99h1.85v2.99h4.16v1.56h-4.16v8.16c0,1.61.83,2.5,2.37,2.5.75,0,1.51-.23,2.03-.7l.65,1.33Z"/>
      <path class="cls-1" d="m815.92,358.82c0-.7.6-1.3,1.35-1.3s1.35.57,1.35,1.27c0,.75-.57,1.35-1.35,1.35s-1.35-.6-1.35-1.33Zm.42,4.32h1.85v13.68h-1.85v-13.68Z"/>
      <path class="cls-1" d="m834.83,363.14l-6.08,13.68h-1.9l-6.06-13.68h1.92l5.12,11.65,5.17-11.65h1.82Z"/>
      <path class="cls-1" d="m847.33,368.34v8.48h-1.77v-2.13c-.83,1.4-2.44,2.26-4.71,2.26-3.09,0-4.99-1.61-4.99-3.98,0-2.11,1.35-3.88,5.28-3.88h4.34v-.83c0-2.34-1.33-3.61-3.87-3.61-1.77,0-3.43.62-4.55,1.61l-.83-1.38c1.38-1.17,3.41-1.85,5.56-1.85,3.54,0,5.54,1.77,5.54,5.3Zm-1.85,4.37v-2.24h-4.29c-2.65,0-3.51,1.04-3.51,2.44,0,1.59,1.27,2.57,3.46,2.57s3.61-.99,4.34-2.78Z"/>
      <path class="cls-1" d="m851.15,375.51c0-.81.62-1.4,1.38-1.4s1.4.6,1.4,1.4-.65,1.43-1.4,1.43-1.38-.62-1.38-1.43Z"/>
    </g>
    <g>
      <rect class="cls-9" x="741.05" y="105.1" width="110.46" height="131.13"/>
      <path class="cls-6" d="m741.05,236.23V105.1h0c-8.2,0-14.84,6.64-14.84,14.84v116.29h0v7.06c0,5.2,4.22,9.42,9.42,9.42h115.89v-16.48h-110.46Z"/>
      <path class="cls-5" d="m728.48,243.15h0c0-3.82,3.1-6.92,6.92-6.92h116.11v13.84h-116.11c-3.82,0-6.92-3.1-6.92-6.92Z"/>
      <polygon class="cls-2" points="760.24 262.37 751.61 255.75 742.98 262.37 742.98 243.15 760.24 243.15 760.24 262.37"/>
      <path class="cls-7" d="m851.51,103.43h-15.56c-.92,0-1.67.75-1.67,1.67s.75,1.67,1.67,1.67h13.89v12.22c0,.92.75,1.67,1.67,1.67s1.67-.75,1.67-1.67v-15.56h-1.67Z"/>
      <path class="cls-7" d="m851.51,238.19h-15.56c-.92,0-1.67-.75-1.67-1.67s.75-1.67,1.67-1.67h13.89v-12.22c0-.92.75-1.67,1.67-1.67s1.67.75,1.67,1.67v15.56h-1.67Z"/>
      <path class="cls-5" d="m830.13,150.07c-.24-.44-.79-.61-1.23-.37-3.13,1.67-6.28,2.48-9.37,2.39-7.14-.21-14.4-5.15-16.61-7.37l-.04-.04c-.2-.2-.62-.62-1.24-1.09.09-.39.14-.8.14-1.22,0-3.04-2.46-5.51-5.51-5.51s-5.51,2.46-5.51,5.51c0,.42.05.82.14,1.22-.62.47-1.04.89-1.24,1.09l-.04.04c-2.21,2.22-9.47,7.16-16.61,7.37-3.09.09-6.24-.71-9.37-2.39-.44-.24-.99-.07-1.23.37-.24.44-.07.99.37,1.23,3.26,1.74,6.56,2.61,9.82,2.6h0s-5.09,15.14-5.09,15.14l.22.07h-2.37c-1.01,0-1.82.82-1.82,1.82v1c0,5.22,4.24,9.46,9.46,9.46s9.46-4.24,9.46-9.46v-1c0-1.01-.82-1.82-1.82-1.82h-2.68l.21-.07-5.09-15.13h0c8.52-.27,16.22-6.31,17.81-7.91l.04-.04c.12-.13.35-.36.68-.63.82,1.29,2.16,2.21,3.73,2.47v47.84h0s-5.53,0-5.53,0c-4.03,0-7.29,3.26-7.29,7.29,0,.86.69,1.55,1.55,1.55h24.35c.86,0,1.55-.69,1.55-1.55,0-4.03-3.26-7.29-7.29-7.29h-5.53v-47.84c1.57-.26,2.91-1.18,3.73-2.47.32.27.55.5.68.63l.04.04c1.58,1.58,9.11,7.48,17.5,7.88v.03s-5.08,15.13-5.08,15.13l.22.07h-2.37c-1.01,0-1.82.82-1.82,1.82v1c0,5.22,4.24,9.46,9.46,9.46h0c5.22,0,9.46-4.24,9.46-9.46v-1c0-1.01-.82-1.82-1.82-1.82h-2.68l.21-.07-5.09-15.13h0c.13,0,.25,0,.38,0,3.24,0,6.52-.88,9.75-2.61.44-.24.61-.79.37-1.23Zm-52.39,19.04h-9.76l4.88-14.49,4.88,14.49Zm46.52,0h-9.76l4.88-14.49,4.88,14.49Z"/>
    </g>
  </g>
  <polygon class="cls-10" points="597.06 242.7 557.14 194.29 557.14 223.24 432.86 223.24 432.86 262.16 557.14 262.16 557.14 291.1 597.06 242.7"/>
  <g>
    <path class="cls-4" d="m462.72,246.47v2.61h-10.9v-14.08h10.64v2.61h-7.4v3.06h6.54v2.53h-6.54v3.26h7.66Z"/>
    <path class="cls-4" d="m475.73,238.26l-4.57,10.82h-3.24l-4.55-10.82h3.24l3,7.36,3.1-7.36h3.02Z"/>
    <path class="cls-4" d="m475.91,243.67c0-3.26,2.51-5.57,5.95-5.57s5.93,2.31,5.93,5.57-2.49,5.57-5.93,5.57-5.95-2.31-5.95-5.57Zm8.71,0c0-1.87-1.19-3-2.76-3s-2.77,1.13-2.77,3,1.21,3,2.77,3,2.76-1.13,2.76-3Z"/>
    <path class="cls-4" d="m489.89,234.16h3.14v14.92h-3.14v-14.92Z"/>
    <path class="cls-4" d="m506.84,238.26v10.82h-2.98v-1.29c-.82.95-2.03,1.45-3.36,1.45-2.71,0-4.63-1.53-4.63-4.87v-6.11h3.14v5.65c0,1.81.8,2.61,2.19,2.61s2.49-.92,2.49-2.92v-5.35h3.14Z"/>
    <path class="cls-4" d="m517.4,245.18l2.43,1.33c-.74,1.67-2.43,2.65-4.59,2.73l-.2.84c1.23.14,1.75.84,1.75,1.67,0,1.23-1.17,1.99-2.96,1.99-.7,0-1.41-.16-1.87-.42l.48-1.35c.38.18.82.3,1.31.3.74,0,1.05-.26,1.05-.64,0-.34-.28-.58-.99-.58h-.68l.48-1.93c-2.79-.52-4.67-2.63-4.67-5.45,0-3.26,2.51-5.57,6.03-5.57,2.27,0,4.06.99,4.85,2.75l-2.43,1.31c-.58-1.03-1.45-1.49-2.43-1.49-1.59,0-2.84,1.11-2.84,3s1.25,3,2.84,3c.99,0,1.85-.44,2.43-1.49Z"/>
    <path class="cls-4" d="m531.21,242.91v6.17h-2.94v-1.35c-.58.99-1.71,1.51-3.3,1.51-2.53,0-4.04-1.41-4.04-3.28s1.35-3.24,4.65-3.24h2.49c0-1.35-.8-2.13-2.49-2.13-1.15,0-2.33.38-3.12,1.01l-1.13-2.19c1.19-.84,2.94-1.31,4.67-1.31,3.3,0,5.21,1.53,5.21,4.81Zm-7.16-6.11h-1.59c.04-1.79.95-2.94,2.35-2.94s2.09,1.29,2.82,1.29c.54,0,.92-.42.96-1.09h1.59c-.04,1.73-.95,2.88-2.35,2.88s-2.09-1.27-2.82-1.27c-.54,0-.93.4-.97,1.13Zm4.02,8.87v-1.11h-2.15c-1.47,0-1.93.54-1.93,1.27,0,.78.66,1.31,1.77,1.31,1.05,0,1.95-.48,2.31-1.47Z"/>
    <path class="cls-4" d="m533.36,243.67c0-3.26,2.51-5.57,5.95-5.57s5.93,2.31,5.93,5.57-2.49,5.57-5.93,5.57-5.95-2.31-5.95-5.57Zm8.71,0c0-1.87-1.19-3-2.75-3s-2.78,1.13-2.78,3,1.21,3,2.78,3,2.75-1.13,2.75-3Z"/>
  </g>
</svg>