<?xml version="1.0" encoding="UTF-8"?>
<svg id="Layer_2" data-name="Layer 2" xmlns="http://www.w3.org/2000/svg" viewBox="0 0 132.39 132.39">
  <defs>
    <style>
      .cls-1 {
        fill: #fff;
      }

      .cls-2 {
        fill: #307697;
      }
    </style>
  </defs>
  <g id="Layer_1-2" data-name="Layer 1">
    <g>
      <circle class="cls-2" cx="66.19" cy="66.19" r="66.19"/>
      <path class="cls-1" d="m82.77,74.94c0,2.37-.43,4.64-1.3,6.8-.87,2.17-2.05,3.99-3.55,5.47-1.64,1.6-3.59,2.82-5.86,3.67-2.27.86-4.89,1.28-7.88,1.28-2.78,0-5.46-.29-8.03-.87-2.58-.58-4.75-1.28-6.53-2.1v-7.21h.48c1.87,1.19,4.06,2.19,6.56,3.02,2.51.83,4.97,1.25,7.38,1.25,1.62,0,3.18-.23,4.7-.68,1.51-.46,2.86-1.25,4.05-2.39,1-.98,1.76-2.15,2.27-3.52.51-1.37.77-2.95.77-4.75s-.3-3.24-.91-4.44c-.6-1.21-1.44-2.18-2.51-2.91-1.19-.87-2.63-1.47-4.32-1.83-1.7-.35-3.59-.53-5.69-.53s-3.94.14-5.79.41-3.46.55-4.8.82v-26.22h30.62v5.98h-24.03v13.54c.98-.09,1.98-.16,3.01-.21,1.03-.04,1.91-.07,2.67-.07,2.76,0,5.17.23,7.25.7,2.07.47,3.98,1.29,5.71,2.48,1.82,1.25,3.24,2.87,4.24,4.85,1,1.98,1.5,4.47,1.5,7.45Z"/>
    </g>
  </g>
</svg>