<svg xmlns="http://www.w3.org/2000/svg" xmlns:xlink="http://www.w3.org/1999/xlink" width="1174.752" height="426.208" viewBox="0 0 1174.752 426.208">
  <defs>
    <clipPath id="clip-path">
      <rect id="Ret창ngulo_332" data-name="Ret창ngulo 332" width="120.33" height="94.496" fill="none"/>
    </clipPath>
  </defs>
  <g id="Citacao_4" data-name="Citacao 4" transform="translate(-9.41 -10.17)">
    <rect id="Ret창ngulo_331" data-name="Ret창ngulo 331" width="1047.952" height="307.978" transform="translate(89.841 82.275)" fill="#f1f1f1"/>
    <g id="Grupo_2484" data-name="Grupo 2484" transform="translate(9.41 10.17)" clip-path="url(#clip-path)">
      <path id="Caminho_7982" data-name="Caminho 7982" d="M99.047,57.418c3.565,1.636,5.689,2.759,6.324,3.418a34.349,34.349,0,0,1,7.789,9.01,24.427,24.427,0,0,1,3.907,13.405q0,21.426-19.974,21.439-9.266,0-15.847-8.522a40.029,40.029,0,0,1-8.033-19.729,10.777,10.777,0,0,0-.244-2.2,10.6,10.6,0,0,1-.244-2.2A45.327,45.327,0,0,1,78.8,49.873,99.214,99.214,0,0,1,93.406,29.9a94.505,94.505,0,0,1,16.8-14.382q8.278-5.347,13.161-5.347a5.886,5.886,0,0,1,4.639,1.953,6.55,6.55,0,0,1,1.709,4.4,5.169,5.169,0,0,1-2.442,4.859,78.167,78.167,0,0,0-18.02,16.555q-8.278,10.219-10.231,19.485m-63.315,0c3.565,1.636,5.665,2.759,6.324,3.418a34.348,34.348,0,0,1,7.789,9.01,24.427,24.427,0,0,1,3.907,13.405q0,21.426-19.974,21.439-9.266,0-15.823-8.522A40.029,40.029,0,0,1,9.9,76.439a10.777,10.777,0,0,0-.244-2.2,10.6,10.6,0,0,1-.244-2.2,45.327,45.327,0,0,1,6.08-22.171A98.394,98.394,0,0,1,30.116,29.9a93.656,93.656,0,0,1,16.8-14.382q8.278-5.347,13.161-5.347a5.8,5.8,0,0,1,4.615,1.953,6.55,6.55,0,0,1,1.709,4.4,5.169,5.169,0,0,1-2.442,4.859,78.166,78.166,0,0,0-18.02,16.555Q37.661,48.151,35.708,57.418" transform="translate(-9.41 -10.17)" fill="#404040"/>
    </g>
    <g id="Grupo_2485" data-name="Grupo 2485" transform="translate(1063.833 341.882)" clip-path="url(#clip-path)">
      <path id="Caminho_7983" data-name="Caminho 7983" d="M471.933,193.268c-1.294-6.153-4.713-12.673-10.231-19.485a78.164,78.164,0,0,0-18.02-16.555,5.242,5.242,0,0,1-2.442-4.859,6.522,6.522,0,0,1,1.709-4.4,5.886,5.886,0,0,1,4.639-1.953q4.871,0,13.161,5.347a93.653,93.653,0,0,1,16.8,14.382,98.277,98.277,0,0,1,14.6,19.974,45,45,0,0,1,6.08,22.171,10.6,10.6,0,0,1-.244,2.2,10.6,10.6,0,0,0-.244,2.2,40.257,40.257,0,0,1-8.033,19.729q-6.593,8.534-15.847,8.522-19.961,0-19.974-21.439A24.343,24.343,0,0,1,457.8,205.7a34.8,34.8,0,0,1,7.789-9.01c.659-.659,2.759-1.782,6.324-3.418m63.315,0c-1.294-6.153-4.713-12.673-10.231-19.485a78.164,78.164,0,0,0-18.02-16.555,5.242,5.242,0,0,1-2.442-4.859,6.522,6.522,0,0,1,1.709-4.4,5.87,5.87,0,0,1,4.615-1.953q4.871,0,13.161,5.347a93.653,93.653,0,0,1,16.8,14.382,99.324,99.324,0,0,1,14.626,19.974,45.257,45.257,0,0,1,6.08,22.171,10.6,10.6,0,0,1-.244,2.2,10.6,10.6,0,0,0-.244,2.2A40.257,40.257,0,0,1,553,232.019c-4.4,5.689-9.645,8.522-15.823,8.522q-19.961,0-19.974-21.439A24.343,24.343,0,0,1,521.11,205.7a34.8,34.8,0,0,1,7.789-9.01c.659-.659,2.759-1.782,6.324-3.418" transform="translate(-441.24 -146.02)" fill="#404040"/>
    </g>
    <g id="Grupo_2486" data-name="Grupo 2486" transform="translate(191.345 182.485)">
      <path id="Caminho_7984" data-name="Caminho 7984" d="M96.687,100.689v1.563H84.6V85.16H96.32v1.563H86.407V92.8h8.839v1.538H86.407v6.349h10.28Zm-6.08-16.921H88.9l3.345-3.028h2.32Z" transform="translate(-82.94 -80.74)" fill="#231f20"/>
      <path id="Caminho_7985" data-name="Caminho 7985" d="M108.765,90.769a6.22,6.22,0,0,1-6.4,6.544,5.61,5.61,0,0,1-4.884-2.539v7.154H95.75V84.348h1.66v2.539a5.594,5.594,0,0,1,4.957-2.637A6.213,6.213,0,0,1,108.765,90.769Zm-1.734,0a4.791,4.791,0,1,0-4.786,5.006A4.73,4.73,0,0,0,107.031,90.769Z" transform="translate(-66.864 -75.679)" fill="#231f20"/>
      <path id="Caminho_7986" data-name="Caminho 7986" d="M112.828,89.231v7.96h-1.66v-2a4.822,4.822,0,0,1-4.42,2.124c-2.906,0-4.688-1.514-4.688-3.736,0-1.978,1.27-3.638,4.957-3.638h4.078v-.781c0-2.2-1.245-3.394-3.638-3.394a6.543,6.543,0,0,0-4.273,1.514l-.781-1.294a8.155,8.155,0,0,1,5.225-1.734c3.321,0,5.2,1.66,5.2,4.981Zm-1.734,4.1v-2.1h-4.029c-2.491,0-3.3.977-3.3,2.3,0,1.489,1.2,2.417,3.248,2.417A4.026,4.026,0,0,0,111.094,93.333Z" transform="translate(-57.767 -75.679)" fill="#231f20"/>
      <path id="Caminho_7987" data-name="Caminho 7987" d="M107.89,90.769a6.322,6.322,0,0,1,6.617-6.519,5.609,5.609,0,0,1,5.03,2.539l-1.294.879a4.366,4.366,0,0,0-3.736-1.9,5.008,5.008,0,0,0,0,10.011,4.344,4.344,0,0,0,3.736-1.88l1.294.879a5.662,5.662,0,0,1-5.03,2.539,6.342,6.342,0,0,1-6.617-6.544Z" transform="translate(-49.361 -75.679)" fill="#231f20"/>
      <path id="Caminho_7988" data-name="Caminho 7988" d="M117.105,82.24h2.32l-3.956,3.028H113.76Zm-2.637,5.006H116.2v12.844h-1.734Z" transform="translate(-40.898 -78.577)" fill="#231f20"/>
      <path id="Caminho_7989" data-name="Caminho 7989" d="M122.1,82.08a4.07,4.07,0,0,1,2.564.806l-.586,1.294a2.937,2.937,0,0,0-1.9-.635c-1.489,0-2.271.83-2.271,2.417v1.514h3.956v1.465h-3.907V100.32h-1.734V88.941h-2.3V87.476h2.3V85.889A3.537,3.537,0,0,1,122.1,82.08Zm8.2,1.319a1.271,1.271,0,1,1-1.27-1.2,1.231,1.231,0,0,1,1.27,1.2Zm-2.149,4.078h1.734V100.32h-1.734Z" transform="translate(-37.784 -78.808)" fill="#231f20"/>
      <path id="Caminho_7990" data-name="Caminho 7990" d="M123.09,90.769a6.322,6.322,0,0,1,6.617-6.519,5.609,5.609,0,0,1,5.03,2.539l-1.294.879a4.366,4.366,0,0,0-3.736-1.9,5.008,5.008,0,0,0,0,10.011,4.344,4.344,0,0,0,3.736-1.88l1.294.879a5.662,5.662,0,0,1-5.03,2.539,6.342,6.342,0,0,1-6.617-6.544Z" transform="translate(-27.447 -75.679)" fill="#231f20"/>
      <path id="Caminho_7991" data-name="Caminho 7991" d="M128.63,90.769a6.532,6.532,0,1,1,6.544,6.544A6.317,6.317,0,0,1,128.63,90.769Zm11.305,0a4.779,4.779,0,1,0-4.761,5.006A4.684,4.684,0,0,0,139.935,90.769Z" transform="translate(-19.459 -75.679)" fill="#231f20"/>
      <path id="Caminho_7992" data-name="Caminho 7992" d="M139.52,90.769a6.532,6.532,0,1,1,6.544,6.544A6.317,6.317,0,0,1,139.52,90.769Zm11.305,0a4.779,4.779,0,1,0-4.761,5.006A4.684,4.684,0,0,0,150.825,90.769Z" transform="translate(-3.759 -75.679)" fill="#231f20"/>
      <path id="Caminho_7993" data-name="Caminho 7993" d="M162.877,91.307H152.134a4.754,4.754,0,0,0,5.054,4.468,5.063,5.063,0,0,0,3.931-1.685l.977,1.123a6.79,6.79,0,0,1-11.7-4.444,6.186,6.186,0,0,1,6.275-6.519c3.614,0,6.226,2.662,6.226,6.519,0,.146-.024.342-.024.537Zm-10.744-1.294h9.108a4.563,4.563,0,0,0-9.108,0Z" transform="translate(11.928 -75.679)" fill="#231f20"/>
      <path id="Caminho_7994" data-name="Caminho 7994" d="M168.788,89.744v7.447h-1.734V89.915c0-2.71-1.416-4.1-3.858-4.1-2.759,0-4.493,1.709-4.493,4.639v6.739H156.97V84.348h1.66v2.369a5.4,5.4,0,0,1,4.884-2.466c3.125,0,5.274,1.807,5.274,5.494Z" transform="translate(21.4 -75.679)" fill="#231f20"/>
      <path id="Caminho_7995" data-name="Caminho 7995" d="M171.686,98.01a4.128,4.128,0,0,1-2.71.9,3.4,3.4,0,0,1-3.76-3.736V87.413h-2.3V85.948h2.3V83.14h1.734v2.808h3.907v1.465h-3.907V95.08a2.057,2.057,0,0,0,2.222,2.344,2.869,2.869,0,0,0,1.9-.659l.61,1.245Z" transform="translate(29.979 -77.28)" fill="#231f20"/>
      <path id="Caminho_7996" data-name="Caminho 7996" d="M179.557,91.307H168.814a4.754,4.754,0,0,0,5.054,4.468A5.063,5.063,0,0,0,177.8,94.09l.977,1.123a6.79,6.79,0,0,1-11.7-4.444,6.186,6.186,0,0,1,6.275-6.519c3.614,0,6.227,2.662,6.227,6.519,0,.146-.024.342-.024.537Zm-10.744-1.294h9.108a4.563,4.563,0,0,0-9.108,0Z" transform="translate(35.976 -75.679)" fill="#231f20"/>
      <path id="Caminho_7997" data-name="Caminho 7997" d="M185.468,89.744v7.447h-1.734V89.915c0-2.71-1.416-4.1-3.858-4.1-2.759,0-4.493,1.709-4.493,4.639v6.739H173.65V84.348h1.66v2.369a5.4,5.4,0,0,1,4.883-2.466c3.125,0,5.274,1.807,5.274,5.494Z" transform="translate(45.449 -75.679)" fill="#231f20"/>
      <path id="Caminho_7998" data-name="Caminho 7998" d="M192.925,82.13v18.118h-1.66V97.708a5.564,5.564,0,0,1-4.957,2.662,6.533,6.533,0,0,1,0-13.063,5.61,5.61,0,0,1,4.884,2.539V82.13h1.734Zm-1.709,11.7a4.779,4.779,0,1,0-4.761,5.006A4.7,4.7,0,0,0,191.215,93.826Z" transform="translate(54.474 -78.736)" fill="#231f20"/>
      <path id="Caminho_7999" data-name="Caminho 7999" d="M187.06,83.351a1.251,1.251,0,0,1,1.27-1.221,1.231,1.231,0,0,1,1.27,1.2,1.27,1.27,0,0,1-2.539.024Zm.391,4.053h1.734v12.844h-1.734Z" transform="translate(64.782 -78.736)" fill="#231f20"/>
      <path id="Caminho_8000" data-name="Caminho 8000" d="M211.1,89.744v7.447h-1.734V89.915c0-2.71-1.367-4.1-3.687-4.1-2.637,0-4.3,1.709-4.3,4.639v6.739h-1.734V89.915c0-2.71-1.367-4.1-3.711-4.1-2.613,0-4.3,1.709-4.3,4.639v6.739H189.91V84.348h1.66v2.344a5.194,5.194,0,0,1,4.713-2.442,4.592,4.592,0,0,1,4.566,2.71,5.593,5.593,0,0,1,5.079-2.71c3.125,0,5.176,1.807,5.176,5.494Z" transform="translate(68.891 -75.679)" fill="#231f20"/>
      <path id="Caminho_8001" data-name="Caminho 8001" d="M212.487,91.307H201.744a4.754,4.754,0,0,0,5.054,4.468,5.063,5.063,0,0,0,3.931-1.685l.977,1.123a6.79,6.79,0,0,1-11.7-4.444,6.186,6.186,0,0,1,6.275-6.519c3.614,0,6.226,2.662,6.226,6.519,0,.146-.024.342-.024.537Zm-10.744-1.294h9.108a4.563,4.563,0,0,0-9.108,0Z" transform="translate(83.453 -75.679)" fill="#231f20"/>
      <path id="Caminho_8002" data-name="Caminho 8002" d="M218.4,89.744v7.447h-1.734V89.915c0-2.71-1.416-4.1-3.858-4.1-2.759,0-4.493,1.709-4.493,4.639v6.739H206.58V84.348h1.66v2.369a5.4,5.4,0,0,1,4.884-2.466c3.125,0,5.274,1.807,5.274,5.494Z" transform="translate(92.925 -75.679)" fill="#231f20"/>
      <path id="Caminho_8003" data-name="Caminho 8003" d="M221.3,98.01a4.129,4.129,0,0,1-2.71.9,3.4,3.4,0,0,1-3.76-3.736V87.413h-2.3V85.948h2.3V83.14h1.734v2.808h3.907v1.465h-3.907V95.08a2.057,2.057,0,0,0,2.222,2.344,2.869,2.869,0,0,0,1.9-.659l.61,1.245Z" transform="translate(101.504 -77.28)" fill="#231f20"/>
      <path id="Caminho_8004" data-name="Caminho 8004" d="M216.69,90.769a6.532,6.532,0,1,1,6.544,6.544A6.317,6.317,0,0,1,216.69,90.769Zm11.305,0a4.779,4.779,0,1,0-4.761,5.006A4.684,4.684,0,0,0,228,90.769Z" transform="translate(107.502 -75.679)" fill="#231f20"/>
      <path id="Caminho_8005" data-name="Caminho 8005" d="M240.585,82.13v18.118h-1.66V97.708a5.564,5.564,0,0,1-4.957,2.662,6.533,6.533,0,0,1,0-13.063,5.609,5.609,0,0,1,4.883,2.539V82.13h1.734Zm-1.709,11.7a4.779,4.779,0,1,0-4.761,5.006A4.7,4.7,0,0,0,238.875,93.826Z" transform="translate(123.188 -78.736)" fill="#231f20"/>
      <path id="Caminho_8006" data-name="Caminho 8006" d="M246.827,91.307H236.084a4.754,4.754,0,0,0,5.054,4.468,5.063,5.063,0,0,0,3.931-1.685l.977,1.123a6.79,6.79,0,0,1-11.7-4.444,6.186,6.186,0,0,1,6.275-6.519c3.614,0,6.227,2.662,6.227,6.519v.537Zm-10.744-1.294h9.108a4.563,4.563,0,0,0-9.108,0Z" transform="translate(132.963 -75.679)" fill="#231f20"/>
      <path id="Caminho_8007" data-name="Caminho 8007" d="M258.025,84.348v17.581h-1.734V94.774a5.609,5.609,0,0,1-4.883,2.539,6.533,6.533,0,0,1,0-13.063,5.594,5.594,0,0,1,4.957,2.637V84.348h1.66Zm-1.709,6.422a4.779,4.779,0,1,0-4.761,5.006A4.711,4.711,0,0,0,256.315,90.769Z" transform="translate(148.332 -75.679)" fill="#231f20"/>
      <path id="Caminho_8008" data-name="Caminho 8008" d="M263.966,84.29V97.134h-1.66V94.79a5.109,5.109,0,0,1-4.615,2.466c-3.272,0-5.421-1.831-5.421-5.518V84.29H254v7.276c0,2.735,1.416,4.127,3.858,4.127,2.686,0,4.371-1.734,4.371-4.664V84.29Z" transform="translate(158.799 -75.622)" fill="#231f20"/>
      <path id="Caminho_8009" data-name="Caminho 8009" d="M271,91.307H260.254a4.754,4.754,0,0,0,5.054,4.468,5.063,5.063,0,0,0,3.931-1.685l.977,1.123a6.79,6.79,0,0,1-11.7-4.444A6.186,6.186,0,0,1,264.8,84.25c3.614,0,6.226,2.662,6.226,6.519v.537Zm-10.744-1.294h9.108a4.563,4.563,0,0,0-9.108,0Z" transform="translate(167.81 -75.679)" fill="#231f20"/>
      <path id="Caminho_8010" data-name="Caminho 8010" d="M277.646,98.01a4.129,4.129,0,0,1-2.71.9,3.4,3.4,0,0,1-3.76-3.736V87.413h-2.3V85.948h2.3V83.14h1.734v2.808h3.907v1.465h-3.907V95.08a2.057,2.057,0,0,0,2.222,2.344,2.869,2.869,0,0,0,1.9-.659l.61,1.245Z" transform="translate(182.747 -77.28)" fill="#231f20"/>
      <path id="Caminho_8011" data-name="Caminho 8011" d="M273.04,90.769a6.532,6.532,0,1,1,6.544,6.544A6.317,6.317,0,0,1,273.04,90.769Zm11.305,0a4.779,4.779,0,1,0-4.761,5.006A4.684,4.684,0,0,0,284.345,90.769Z" transform="translate(188.744 -75.679)" fill="#231f20"/>
      <path id="Caminho_8012" data-name="Caminho 8012" d="M292.325,82.13v18.118h-1.66V97.708a5.564,5.564,0,0,1-4.957,2.662,6.533,6.533,0,0,1,0-13.063,5.61,5.61,0,0,1,4.883,2.539V82.13h1.734Zm-1.709,11.7a4.779,4.779,0,1,0-4.761,5.006A4.7,4.7,0,0,0,290.615,93.826Z" transform="translate(197.784 -78.736)" fill="#231f20"/>
      <path id="Caminho_8013" data-name="Caminho 8013" d="M296.948,89.231v7.96h-1.66v-2a4.822,4.822,0,0,1-4.42,2.124c-2.906,0-4.688-1.514-4.688-3.736,0-1.978,1.27-3.638,4.957-3.638h4.078v-.781c0-2.2-1.245-3.394-3.638-3.394a6.543,6.543,0,0,0-4.273,1.514l-.781-1.294a8.155,8.155,0,0,1,5.225-1.734c3.321,0,5.2,1.66,5.2,4.981Zm-1.734,4.1v-2.1h-4.029c-2.491,0-3.3.977-3.3,2.3,0,1.489,1.2,2.417,3.247,2.417A4.026,4.026,0,0,0,295.215,93.333Z" transform="translate(207.689 -75.679)" fill="#231f20"/>
      <path id="Caminho_8014" data-name="Caminho 8014" d="M291.79,95.726l.781-1.367a7.758,7.758,0,0,0,4.566,1.441c2.442,0,3.443-.83,3.443-2.1,0-3.345-8.326-.708-8.326-5.787,0-2.1,1.807-3.663,5.079-3.663a8.7,8.7,0,0,1,4.542,1.2l-.757,1.392a6.583,6.583,0,0,0-3.785-1.1c-2.32,0-3.345.9-3.345,2.124,0,3.467,8.326.855,8.326,5.787,0,2.222-1.953,3.663-5.3,3.663a8.581,8.581,0,0,1-5.225-1.587Z" transform="translate(215.777 -75.679)" fill="#231f20"/>
      <path id="Caminho_8015" data-name="Caminho 8015" d="M312.348,89.231v7.96h-1.66v-2a4.822,4.822,0,0,1-4.42,2.124c-2.906,0-4.688-1.514-4.688-3.736,0-1.978,1.27-3.638,4.957-3.638h4.078v-.781c0-2.2-1.245-3.394-3.638-3.394a6.543,6.543,0,0,0-4.273,1.514l-.781-1.294a8.155,8.155,0,0,1,5.225-1.734c3.321,0,5.2,1.66,5.2,4.981Zm-1.734,4.1v-2.1h-4.029c-2.491,0-3.3.977-3.3,2.3,0,1.489,1.2,2.417,3.247,2.417A4.026,4.026,0,0,0,310.615,93.333Z" transform="translate(229.892 -75.679)" fill="#231f20"/>
      <path id="Caminho_8016" data-name="Caminho 8016" d="M307.2,95.726l.781-1.367a7.758,7.758,0,0,0,4.566,1.441c2.442,0,3.443-.83,3.443-2.1,0-3.345-8.326-.708-8.326-5.787,0-2.1,1.807-3.663,5.079-3.663a8.7,8.7,0,0,1,4.542,1.2l-.757,1.392a6.583,6.583,0,0,0-3.785-1.1c-2.32,0-3.345.9-3.345,2.124,0,3.467,8.326.855,8.326,5.787,0,2.222-1.953,3.663-5.3,3.663a8.581,8.581,0,0,1-5.225-1.587Z" transform="translate(237.995 -75.679)" fill="#231f20"/>
      <path id="Caminho_8017" data-name="Caminho 8017" d="M317.43,82.13h1.734v18.118H317.43Z" transform="translate(252.744 -78.736)" fill="#231f20"/>
      <path id="Caminho_8018" data-name="Caminho 8018" d="M332.067,91.307H321.324a4.754,4.754,0,0,0,5.054,4.468,5.063,5.063,0,0,0,3.931-1.685l.977,1.123a6.79,6.79,0,0,1-11.7-4.444,6.186,6.186,0,0,1,6.275-6.519c3.614,0,6.226,2.662,6.226,6.519v.537Zm-10.744-1.294h9.108a4.563,4.563,0,0,0-9.108,0Z" transform="translate(255.858 -75.679)" fill="#231f20"/>
      <path id="Caminho_8019" data-name="Caminho 8019" d="M326,83.351a1.251,1.251,0,0,1,1.27-1.221,1.231,1.231,0,0,1,1.27,1.2,1.27,1.27,0,0,1-2.539.024Zm.391,4.053h1.734v12.844h-1.734Z" transform="translate(265.1 -78.736)" fill="#231f20"/>
      <path id="Caminho_8020" data-name="Caminho 8020" d="M328.12,95.726l.781-1.367a7.758,7.758,0,0,0,4.566,1.441c2.442,0,3.443-.83,3.443-2.1,0-3.345-8.326-.708-8.326-5.787,0-2.1,1.807-3.663,5.079-3.663a8.7,8.7,0,0,1,4.542,1.2l-.757,1.392a6.583,6.583,0,0,0-3.785-1.1c-2.32,0-3.345.9-3.345,2.124,0,3.467,8.326.855,8.326,5.787,0,2.222-1.953,3.663-5.3,3.663a8.581,8.581,0,0,1-5.225-1.587Z" transform="translate(268.156 -75.679)" fill="#231f20"/>
      <path id="Caminho_8021" data-name="Caminho 8021" d="M338.19,83.351a1.251,1.251,0,0,1,1.27-1.221,1.231,1.231,0,0,1,1.27,1.2,1.27,1.27,0,0,1-2.539.024Zm.391,4.053h1.734v12.844h-1.734Z" transform="translate(282.675 -78.736)" fill="#231f20"/>
      <path id="Caminho_8022" data-name="Caminho 8022" d="M352.858,89.744v7.447h-1.734V89.915c0-2.71-1.416-4.1-3.858-4.1-2.759,0-4.493,1.709-4.493,4.639v6.739H341.04V84.348h1.66v2.369a5.4,5.4,0,0,1,4.884-2.466c3.125,0,5.274,1.807,5.274,5.494Z" transform="translate(286.784 -75.679)" fill="#231f20"/>
      <path id="Caminho_8023" data-name="Caminho 8023" d="M350.97,85.962v1.514h3.956v1.465h-3.907V100.32h-1.734V88.941h-2.3V87.476h2.3V85.889a3.537,3.537,0,0,1,3.882-3.809,4.07,4.07,0,0,1,2.564.806l-.586,1.294a2.937,2.937,0,0,0-1.9-.635C351.751,83.545,350.97,84.375,350.97,85.962Z" transform="translate(295.362 -78.808)" fill="#231f20"/>
      <path id="Caminho_8024" data-name="Caminho 8024" d="M358.471,84.25v1.685c-.147,0-.293-.024-.415-.024-2.686,0-4.322,1.709-4.322,4.737v6.544H352V84.348h1.66v2.515C354.466,85.153,356.1,84.25,358.471,84.25Z" transform="translate(302.585 -75.679)" fill="#231f20"/>
      <path id="Caminho_8025" data-name="Caminho 8025" d="M366.248,89.231v7.96h-1.66v-2a4.823,4.823,0,0,1-4.42,2.124c-2.906,0-4.688-1.514-4.688-3.736,0-1.978,1.27-3.638,4.957-3.638h4.078v-.781c0-2.2-1.245-3.394-3.638-3.394a6.542,6.542,0,0,0-4.273,1.514l-.781-1.294a8.155,8.155,0,0,1,5.225-1.734c3.321,0,5.2,1.66,5.2,4.981Zm-1.734,4.1v-2.1h-4.029c-2.491,0-3.3.977-3.3,2.3,0,1.489,1.2,2.417,3.248,2.417A4.026,4.026,0,0,0,364.515,93.333Z" transform="translate(307.603 -75.679)" fill="#231f20"/>
      <path id="Caminho_8026" data-name="Caminho 8026" d="M361.32,90.769a6.322,6.322,0,0,1,6.617-6.519,5.609,5.609,0,0,1,5.03,2.539l-1.294.879a4.366,4.366,0,0,0-3.736-1.9,5.008,5.008,0,0,0,0,10.011,4.344,4.344,0,0,0,3.736-1.88l1.294.879a5.662,5.662,0,0,1-5.03,2.539,6.342,6.342,0,0,1-6.617-6.544Z" transform="translate(316.022 -75.679)" fill="#231f20"/>
      <path id="Caminho_8027" data-name="Caminho 8027" d="M366.86,90.769a6.532,6.532,0,1,1,6.544,6.544A6.317,6.317,0,0,1,366.86,90.769Zm11.305,0a4.779,4.779,0,1,0-4.761,5.006A4.684,4.684,0,0,0,378.165,90.769Z" transform="translate(324.01 -75.679)" fill="#231f20"/>
      <path id="Caminho_8028" data-name="Caminho 8028" d="M385.468,89.744v7.447h-1.734V89.915c0-2.71-1.416-4.1-3.858-4.1-2.759,0-4.493,1.709-4.493,4.639v6.739H373.65V84.348h1.66v2.369a5.4,5.4,0,0,1,4.883-2.466c3.125,0,5.274,1.807,5.274,5.494Z" transform="translate(333.799 -75.679)" fill="#231f20"/>
      <path id="Caminho_8029" data-name="Caminho 8029" d="M379.69,95.726l.781-1.367a7.758,7.758,0,0,0,4.566,1.441c2.442,0,3.443-.83,3.443-2.1,0-3.345-8.326-.708-8.326-5.787,0-2.1,1.807-3.663,5.079-3.663a8.7,8.7,0,0,1,4.542,1.2l-.757,1.392a6.583,6.583,0,0,0-3.785-1.1c-2.32,0-3.345.9-3.345,2.124,0,3.467,8.326.855,8.326,5.787,0,2.222-1.953,3.663-5.3,3.663a8.581,8.581,0,0,1-5.225-1.587Z" transform="translate(342.507 -75.679)" fill="#231f20"/>
      <path id="Caminho_8030" data-name="Caminho 8030" d="M393.256,98.01a4.129,4.129,0,0,1-2.71.9,3.4,3.4,0,0,1-3.76-3.736V87.413h-2.3V85.948h2.3V83.14h1.734v2.808h3.907v1.465h-3.907V95.08a2.057,2.057,0,0,0,2.222,2.344,2.869,2.869,0,0,0,1.9-.659l.61,1.245Z" transform="translate(349.428 -77.28)" fill="#231f20"/>
      <path id="Caminho_8031" data-name="Caminho 8031" d="M389.21,83.351a1.251,1.251,0,0,1,1.27-1.221,1.231,1.231,0,0,1,1.27,1.2,1.27,1.27,0,0,1-2.539.024ZM389.6,87.4h1.734v12.844H389.6Z" transform="translate(356.233 -78.736)" fill="#231f20"/>
      <path id="Caminho_8032" data-name="Caminho 8032" d="M400.006,98.01a4.128,4.128,0,0,1-2.71.9,3.4,3.4,0,0,1-3.76-3.736V87.413h-2.3V85.948h2.3V83.14h1.734v2.808h3.907v1.465h-3.907V95.08a2.057,2.057,0,0,0,2.222,2.344,2.869,2.869,0,0,0,1.9-.659l.61,1.245Z" transform="translate(359.16 -77.28)" fill="#231f20"/>
      <path id="Caminho_8033" data-name="Caminho 8033" d="M407.766,84.29V97.134h-1.66V94.79a5.109,5.109,0,0,1-4.615,2.466c-3.272,0-5.421-1.831-5.421-5.518V84.29H397.8v7.276c0,2.735,1.416,4.127,3.858,4.127,2.686,0,4.371-1.734,4.371-4.664V84.29h1.734Z" transform="translate(366.123 -75.622)" fill="#231f20"/>
      <path id="Caminho_8034" data-name="Caminho 8034" d="M402.32,90.769a6.322,6.322,0,0,1,6.617-6.519,5.609,5.609,0,0,1,5.03,2.539l-1.294.879a4.366,4.366,0,0,0-3.736-1.9,5.008,5.008,0,0,0,0,10.011,4.344,4.344,0,0,0,3.736-1.88l1.294.879a5.662,5.662,0,0,1-5.03,2.539,6.342,6.342,0,0,1-6.617-6.544Z" transform="translate(375.134 -75.679)" fill="#231f20"/>
      <path id="Caminho_8035" data-name="Caminho 8035" d="M408.32,83.351a1.251,1.251,0,0,1,1.27-1.221,1.231,1.231,0,0,1,1.27,1.2,1.27,1.27,0,0,1-2.539.024Zm.391,4.053h1.734v12.844h-1.734Z" transform="translate(383.785 -78.736)" fill="#231f20"/>
      <path id="Caminho_8036" data-name="Caminho 8036" d="M410.64,90.769a6.532,6.532,0,1,1,6.544,6.544A6.317,6.317,0,0,1,410.64,90.769Zm11.305,0a4.779,4.779,0,1,0-4.761,5.006A4.684,4.684,0,0,0,421.945,90.769Z" transform="translate(387.13 -75.679)" fill="#231f20"/>
      <path id="Caminho_8037" data-name="Caminho 8037" d="M429.258,89.744v7.447h-1.734V89.915c0-2.71-1.416-4.1-3.858-4.1-2.759,0-4.493,1.709-4.493,4.639v6.739H417.44V84.348h1.66v2.369a5.4,5.4,0,0,1,4.884-2.466c3.125,0,5.274,1.807,5.274,5.494Z" transform="translate(396.934 -75.679)" fill="#231f20"/>
      <path id="Caminho_8038" data-name="Caminho 8038" d="M434.538,89.231v7.96h-1.66v-2a4.822,4.822,0,0,1-4.42,2.124c-2.906,0-4.688-1.514-4.688-3.736,0-1.978,1.27-3.638,4.957-3.638H432.8v-.781c0-2.2-1.245-3.394-3.638-3.394a6.543,6.543,0,0,0-4.273,1.514l-.781-1.294a8.155,8.155,0,0,1,5.225-1.734c3.321,0,5.2,1.66,5.2,4.981Zm-1.734,4.1v-2.1h-4.029c-2.491,0-3.3.977-3.3,2.3,0,1.489,1.2,2.417,3.247,2.417A4.026,4.026,0,0,0,432.8,93.333Z" transform="translate(406.06 -75.679)" fill="#231f20"/>
      <path id="Caminho_8039" data-name="Caminho 8039" d="M429.95,83.351a1.251,1.251,0,0,1,1.27-1.221,1.231,1.231,0,0,1,1.27,1.2,1.27,1.27,0,0,1-2.539.024Zm.391,4.053h1.734v12.844h-1.734Z" transform="translate(414.97 -78.736)" fill="#231f20"/>
      <path id="Caminho_8040" data-name="Caminho 8040" d="M432.07,95.726l.781-1.367a7.758,7.758,0,0,0,4.566,1.441c2.442,0,3.443-.83,3.443-2.1,0-3.345-8.326-.708-8.326-5.787,0-2.1,1.807-3.663,5.079-3.663a8.7,8.7,0,0,1,4.542,1.2l-.757,1.392a6.583,6.583,0,0,0-3.785-1.1c-2.32,0-3.345.9-3.345,2.124,0,3.467,8.326.855,8.326,5.787,0,2.222-1.953,3.663-5.3,3.663a8.581,8.581,0,0,1-5.225-1.587Z" transform="translate(418.027 -75.679)" fill="#231f20"/>
      <path id="Caminho_8041" data-name="Caminho 8041" d="M96.935,100.13v18.118h-1.66v-2.539a5.564,5.564,0,0,1-4.957,2.661,6.533,6.533,0,0,1,0-13.063,5.61,5.61,0,0,1,4.883,2.539V100.13h1.734Zm-1.709,11.7a4.779,4.779,0,1,0-4.761,5.006A4.7,4.7,0,0,0,95.225,111.826Z" transform="translate(-83.92 -52.784)" fill="#231f20"/>
      <path id="Caminho_8042" data-name="Caminho 8042" d="M103.177,109.307H92.434a4.754,4.754,0,0,0,5.054,4.468,5.063,5.063,0,0,0,3.931-1.685l.977,1.123a6.79,6.79,0,0,1-11.7-4.444,6.186,6.186,0,0,1,6.275-6.519c3.614,0,6.226,2.662,6.226,6.519C103.2,108.916,103.177,109.111,103.177,109.307Zm-10.744-1.294h9.108a4.563,4.563,0,0,0-9.108,0Z" transform="translate(-74.145 -49.728)" fill="#231f20"/>
      <path id="Caminho_8043" data-name="Caminho 8043" d="M109.375,102.29l-5.714,12.844h-1.782L96.19,102.29H98l4.81,10.939,4.859-10.939h1.709Z" transform="translate(-66.23 -49.67)" fill="#231f20"/>
      <path id="Caminho_8044" data-name="Caminho 8044" d="M114.387,109.307H103.644a4.754,4.754,0,0,0,5.054,4.468,5.063,5.063,0,0,0,3.931-1.685l.977,1.123a6.79,6.79,0,0,1-11.7-4.444,6.186,6.186,0,0,1,6.275-6.519c3.614,0,6.226,2.662,6.226,6.519C114.412,108.916,114.387,109.111,114.387,109.307Zm-10.744-1.294h9.108a4.563,4.563,0,0,0-9.108,0Z" transform="translate(-57.983 -49.728)" fill="#231f20"/>
      <path id="Caminho_8045" data-name="Caminho 8045" d="M129.674,107.744v7.447h-1.734v-7.276c0-2.71-1.367-4.1-3.687-4.1-2.637,0-4.3,1.709-4.3,4.639v6.739h-1.734v-7.276c0-2.71-1.367-4.1-3.711-4.1-2.613,0-4.3,1.709-4.3,4.639v6.739H108.48V102.348h1.66v2.344a5.194,5.194,0,0,1,4.713-2.442,4.592,4.592,0,0,1,4.566,2.71,5.593,5.593,0,0,1,5.079-2.71C127.623,102.25,129.674,104.057,129.674,107.744Z" transform="translate(-48.511 -49.728)" fill="#231f20"/>
      <path id="Caminho_8046" data-name="Caminho 8046" d="M134.275,111.826a6.233,6.233,0,0,1-6.4,6.544,5.564,5.564,0,0,1-4.957-2.662v2.539h-1.66V100.13h1.734v7.716a5.61,5.61,0,0,1,4.884-2.539,6.213,6.213,0,0,1,6.4,6.519Zm-1.734,0a4.791,4.791,0,1,0-4.786,5.006A4.716,4.716,0,0,0,132.541,111.826Z" transform="translate(-30.085 -52.784)" fill="#231f20"/>
      <path id="Caminho_8047" data-name="Caminho 8047" d="M139.686,102.29v12.844h-1.66V112.79a5.109,5.109,0,0,1-4.615,2.466c-3.272,0-5.421-1.831-5.421-5.518V102.29h1.734v7.276c0,2.735,1.416,4.127,3.858,4.127,2.686,0,4.371-1.734,4.371-4.664V102.29h1.734Z" transform="translate(-20.382 -49.67)" fill="#231f20"/>
      <path id="Caminho_8048" data-name="Caminho 8048" d="M134.04,113.726l.781-1.367a7.758,7.758,0,0,0,4.566,1.441c2.442,0,3.443-.83,3.443-2.1,0-3.345-8.326-.708-8.326-5.787,0-2.1,1.807-3.663,5.079-3.663a8.7,8.7,0,0,1,4.542,1.2l-.757,1.392a6.583,6.583,0,0,0-3.785-1.1c-2.32,0-3.345.9-3.345,2.124,0,3.467,8.326.855,8.326,5.787,0,2.222-1.953,3.663-5.3,3.663a8.581,8.581,0,0,1-5.225-1.587Z" transform="translate(-11.659 -49.728)" fill="#231f20"/>
      <path id="Caminho_8049" data-name="Caminho 8049" d="M139.13,108.769a6.322,6.322,0,0,1,6.617-6.519,5.609,5.609,0,0,1,5.03,2.539l-1.294.879a4.366,4.366,0,0,0-3.736-1.9,5.008,5.008,0,0,0,0,10.011,4.344,4.344,0,0,0,3.736-1.88l1.294.879a5.662,5.662,0,0,1-5.03,2.539,6.342,6.342,0,0,1-6.617-6.544Z" transform="translate(-4.321 -49.728)" fill="#231f20"/>
      <path id="Caminho_8050" data-name="Caminho 8050" d="M155.618,107.231v7.96h-1.66v-2a4.823,4.823,0,0,1-4.42,2.124c-2.906,0-4.688-1.514-4.688-3.736,0-1.978,1.27-3.638,4.957-3.638h4.078v-.781c0-2.2-1.245-3.394-3.638-3.394a6.543,6.543,0,0,0-4.273,1.514l-.781-1.294a8.155,8.155,0,0,1,5.225-1.734c3.321,0,5.2,1.66,5.2,4.981Zm-1.734,4.1v-2.1h-4.029c-2.491,0-3.3.977-3.3,2.3,0,1.489,1.2,2.417,3.248,2.417A4.026,4.026,0,0,0,153.884,111.333Z" transform="translate(3.926 -49.728)" fill="#231f20"/>
      <path id="Caminho_8051" data-name="Caminho 8051" d="M157.661,102.25v1.685c-.146,0-.293-.024-.415-.024-2.686,0-4.322,1.709-4.322,4.737v6.544H151.19V102.348h1.66v2.515c.806-1.709,2.442-2.613,4.81-2.613Z" transform="translate(13.067 -49.728)" fill="#231f20"/>
      <path id="Caminho_8052" data-name="Caminho 8052" d="M156.64,113.726l.781-1.367a7.758,7.758,0,0,0,4.566,1.441c2.442,0,3.443-.83,3.443-2.1,0-3.345-8.326-.708-8.326-5.787,0-2.1,1.807-3.663,5.079-3.663a8.7,8.7,0,0,1,4.542,1.2l-.757,1.392a6.583,6.583,0,0,0-3.785-1.1c-2.32,0-3.345.9-3.345,2.124,0,3.467,8.326.855,8.326,5.787,0,2.222-1.953,3.663-5.3,3.663a8.581,8.581,0,0,1-5.225-1.587Z" transform="translate(20.924 -49.728)" fill="#231f20"/>
      <path id="Caminho_8053" data-name="Caminho 8053" d="M174.207,109.307H163.464a4.754,4.754,0,0,0,5.054,4.468,5.063,5.063,0,0,0,3.931-1.685l.977,1.123a6.79,6.79,0,0,1-11.7-4.444,6.186,6.186,0,0,1,6.275-6.519c3.614,0,6.226,2.662,6.226,6.519,0,.146-.024.342-.024.537Zm-10.744-1.294h9.108a4.563,4.563,0,0,0-9.108,0Z" transform="translate(28.263 -49.728)" fill="#231f20"/>
      <path id="Caminho_8054" data-name="Caminho 8054" d="M179.946,102.29v12.844h-1.66V112.79a5.109,5.109,0,0,1-4.615,2.466c-3.272,0-5.421-1.831-5.421-5.518V102.29h1.734v7.276c0,2.735,1.416,4.127,3.858,4.127,2.686,0,4.371-1.734,4.371-4.664V102.29h1.734Z" transform="translate(37.663 -49.67)" fill="#231f20"/>
      <path id="Caminho_8055" data-name="Caminho 8055" d="M180.36,103.962v1.514h3.956v1.465h-3.907V118.32h-1.734V106.941h-2.3v-1.465h2.3v-1.587a3.537,3.537,0,0,1,3.882-3.809,4.07,4.07,0,0,1,2.564.806l-.586,1.294a2.937,2.937,0,0,0-1.9-.635c-1.489,0-2.271.83-2.271,2.417Z" transform="translate(49.385 -52.857)" fill="#231f20"/>
      <path id="Caminho_8056" data-name="Caminho 8056" d="M192.236,102.29v12.844h-1.66V112.79a5.109,5.109,0,0,1-4.615,2.466c-3.272,0-5.421-1.831-5.421-5.518V102.29h1.734v7.276c0,2.735,1.416,4.127,3.858,4.127,2.686,0,4.371-1.734,4.371-4.664V102.29h1.734Z" transform="translate(55.382 -49.67)" fill="#231f20"/>
      <path id="Caminho_8057" data-name="Caminho 8057" d="M199.138,107.744v7.447H197.4v-7.276c0-2.71-1.416-4.1-3.858-4.1-2.759,0-4.493,1.709-4.493,4.639v6.739H187.32V102.348h1.66v2.369a5.4,5.4,0,0,1,4.884-2.466c3.125,0,5.274,1.807,5.274,5.494Z" transform="translate(65.157 -49.728)" fill="#231f20"/>
      <path id="Caminho_8058" data-name="Caminho 8058" d="M206.595,100.13v18.118h-1.66v-2.539a5.564,5.564,0,0,1-4.957,2.661,6.533,6.533,0,0,1,0-13.063,5.61,5.61,0,0,1,4.884,2.539V100.13h1.734Zm-1.709,11.7a4.779,4.779,0,1,0-4.761,5.006A4.7,4.7,0,0,0,204.885,111.826Z" transform="translate(74.183 -52.784)" fill="#231f20"/>
      <path id="Caminho_8059" data-name="Caminho 8059" d="M211.218,107.231v7.96h-1.66v-2a4.822,4.822,0,0,1-4.42,2.124c-2.906,0-4.688-1.514-4.688-3.736,0-1.978,1.27-3.638,4.957-3.638h4.078v-.781c0-2.2-1.245-3.394-3.638-3.394a6.543,6.543,0,0,0-4.273,1.514l-.781-1.294a8.155,8.155,0,0,1,5.225-1.734c3.321,0,5.2,1.66,5.2,4.981Zm-1.734,4.1v-2.1h-4.029c-2.491,0-3.3.977-3.3,2.3,0,1.489,1.2,2.417,3.248,2.417A4.026,4.026,0,0,0,209.484,111.333Z" transform="translate(84.088 -49.728)" fill="#231f20"/>
      <path id="Caminho_8060" data-name="Caminho 8060" d="M227.984,107.744v7.447h-1.734v-7.276c0-2.71-1.367-4.1-3.687-4.1-2.637,0-4.3,1.709-4.3,4.639v6.739h-1.734v-7.276c0-2.71-1.367-4.1-3.711-4.1-2.613,0-4.3,1.709-4.3,4.639v6.739H206.79V102.348h1.66v2.344a5.194,5.194,0,0,1,4.713-2.442,4.592,4.592,0,0,1,4.566,2.71,5.593,5.593,0,0,1,5.079-2.71c3.125,0,5.177,1.807,5.177,5.494Z" transform="translate(93.228 -49.728)" fill="#231f20"/>
      <path id="Caminho_8061" data-name="Caminho 8061" d="M229.367,109.307H218.624a4.754,4.754,0,0,0,5.054,4.468,5.063,5.063,0,0,0,3.931-1.685l.977,1.123a6.79,6.79,0,0,1-11.7-4.444,6.186,6.186,0,0,1,6.275-6.519c3.614,0,6.226,2.662,6.226,6.519,0,.146-.024.342-.024.537Zm-10.744-1.294h9.108a4.563,4.563,0,0,0-9.108,0Z" transform="translate(107.79 -49.728)" fill="#231f20"/>
      <path id="Caminho_8062" data-name="Caminho 8062" d="M235.278,107.744v7.447h-1.734v-7.276c0-2.71-1.416-4.1-3.858-4.1-2.759,0-4.493,1.709-4.493,4.639v6.739H223.46V102.348h1.66v2.369A5.4,5.4,0,0,1,230,102.25C233.129,102.25,235.278,104.057,235.278,107.744Z" transform="translate(117.262 -49.728)" fill="#231f20"/>
      <path id="Caminho_8063" data-name="Caminho 8063" d="M238.176,116.01a4.128,4.128,0,0,1-2.71.9,3.4,3.4,0,0,1-3.76-3.736v-7.765h-2.3v-1.465h2.3V101.14h1.734v2.808h3.907v1.465h-3.907v7.667a2.057,2.057,0,0,0,2.222,2.344,2.869,2.869,0,0,0,1.9-.659l.61,1.245Z" transform="translate(125.841 -51.328)" fill="#231f20"/>
      <path id="Caminho_8064" data-name="Caminho 8064" d="M233.57,108.769a6.532,6.532,0,1,1,6.544,6.544A6.317,6.317,0,0,1,233.57,108.769Zm11.305,0a4.779,4.779,0,1,0-4.761,5.006A4.684,4.684,0,0,0,244.875,108.769Z" transform="translate(131.838 -49.728)" fill="#231f20"/>
      <path id="Caminho_8065" data-name="Caminho 8065" d="M254.358,107.744v7.447h-1.734v-7.276c0-2.71-1.416-4.1-3.858-4.1-2.759,0-4.493,1.709-4.493,4.639v6.739H242.54V102.348h1.66v2.369a5.4,5.4,0,0,1,4.883-2.466c3.125,0,5.274,1.807,5.274,5.494Z" transform="translate(144.771 -49.728)" fill="#231f20"/>
      <path id="Caminho_8066" data-name="Caminho 8066" d="M259.638,107.231v7.96h-1.66v-2a4.822,4.822,0,0,1-4.42,2.124c-2.906,0-4.688-1.514-4.688-3.736,0-1.978,1.27-3.638,4.957-3.638H257.9v-.781c0-2.2-1.245-3.394-3.638-3.394a6.543,6.543,0,0,0-4.273,1.514l-.781-1.294a8.155,8.155,0,0,1,5.225-1.734c3.321,0,5.2,1.66,5.2,4.981Zm-1.734,4.1v-2.1h-4.029c-2.491,0-3.3.977-3.3,2.3,0,1.489,1.2,2.417,3.248,2.417A4.026,4.026,0,0,0,257.9,111.333Z" transform="translate(153.897 -49.728)" fill="#231f20"/>
      <path id="Caminho_8067" data-name="Caminho 8067" d="M256.91,109.183a8.581,8.581,0,0,1,8.961-8.693,8.276,8.276,0,0,1,6.251,2.491l-1.148,1.148a6.774,6.774,0,0,0-5.055-2.027,7.083,7.083,0,1,0,0,14.162,6.7,6.7,0,0,0,5.055-2.051l1.148,1.148a8.311,8.311,0,0,1-6.275,2.515,8.575,8.575,0,0,1-8.937-8.693Z" transform="translate(165.489 -52.265)" fill="#231f20"/>
      <path id="Caminho_8068" data-name="Caminho 8068" d="M263.81,108.769a6.532,6.532,0,1,1,6.544,6.544A6.317,6.317,0,0,1,263.81,108.769Zm11.305,0a4.779,4.779,0,1,0-4.761,5.006A4.684,4.684,0,0,0,275.115,108.769Z" transform="translate(175.437 -49.728)" fill="#231f20"/>
      <path id="Caminho_8069" data-name="Caminho 8069" d="M282.428,107.744v7.447h-1.734v-7.276c0-2.71-1.416-4.1-3.858-4.1-2.759,0-4.493,1.709-4.493,4.639v6.739H270.61V102.348h1.66v2.369a5.4,5.4,0,0,1,4.883-2.466c3.125,0,5.274,1.807,5.274,5.494Z" transform="translate(185.241 -49.728)" fill="#231f20"/>
      <path id="Caminho_8070" data-name="Caminho 8070" d="M276.65,113.726l.781-1.367A7.758,7.758,0,0,0,282,113.8c2.442,0,3.443-.83,3.443-2.1,0-3.345-8.326-.708-8.326-5.787,0-2.1,1.807-3.663,5.079-3.663a8.7,8.7,0,0,1,4.542,1.2l-.757,1.392a6.583,6.583,0,0,0-3.785-1.1c-2.32,0-3.345.9-3.345,2.124,0,3.467,8.326.855,8.326,5.787,0,2.222-1.953,3.663-5.3,3.663a8.581,8.581,0,0,1-5.225-1.587Z" transform="translate(193.949 -49.728)" fill="#231f20"/>
      <path id="Caminho_8071" data-name="Caminho 8071" d="M290.216,116.01a4.129,4.129,0,0,1-2.71.9,3.4,3.4,0,0,1-3.76-3.736v-7.765h-2.3v-1.465h2.3V101.14h1.734v2.808h3.907v1.465h-3.907v7.667a2.057,2.057,0,0,0,2.222,2.344,2.869,2.869,0,0,0,1.9-.659Z" transform="translate(200.87 -51.328)" fill="#231f20"/>
      <path id="Caminho_8072" data-name="Caminho 8072" d="M286.17,101.351a1.251,1.251,0,0,1,1.27-1.221,1.231,1.231,0,0,1,1.27,1.2,1.27,1.27,0,0,1-2.539.024Zm.391,4.053h1.734v12.844h-1.734Z" transform="translate(207.675 -52.784)" fill="#231f20"/>
      <path id="Caminho_8073" data-name="Caminho 8073" d="M296.966,116.01a4.128,4.128,0,0,1-2.71.9,3.4,3.4,0,0,1-3.76-3.736v-7.765h-2.3v-1.465h2.3V101.14h1.734v2.808h3.907v1.465h-3.907v7.667a2.057,2.057,0,0,0,2.222,2.344,2.869,2.869,0,0,0,1.9-.659Z" transform="translate(210.601 -51.328)" fill="#231f20"/>
      <path id="Caminho_8074" data-name="Caminho 8074" d="M304.726,102.29v12.844h-1.66V112.79a5.109,5.109,0,0,1-4.615,2.466c-3.272,0-5.421-1.831-5.421-5.518V102.29h1.734v7.276c0,2.735,1.416,4.127,3.858,4.127,2.686,0,4.371-1.734,4.371-4.664V102.29h1.734Z" transform="translate(217.565 -49.67)" fill="#231f20"/>
      <path id="Caminho_8075" data-name="Caminho 8075" d="M299.65,101.351a1.251,1.251,0,0,1,1.27-1.221,1.231,1.231,0,0,1,1.27,1.2,1.27,1.27,0,0,1-2.539.024Zm.391,4.053h1.734v12.844h-1.734Z" transform="translate(227.11 -52.784)" fill="#231f20"/>
      <path id="Caminho_8076" data-name="Caminho 8076" d="M312.323,111.895l1.294.879a5.662,5.662,0,0,1-5.03,2.539h-.049l-.293,1.148a1.991,1.991,0,0,1,2.076,1.978c0,1.319-1.123,2.124-2.759,2.124a3.543,3.543,0,0,1-2.051-.562l.415-.928a2.886,2.886,0,0,0,1.612.464c.977,0,1.514-.415,1.514-1.148,0-.659-.488-1.123-1.514-1.123h-.562l.537-2.027a6.533,6.533,0,0,1,1.074-12.99,5.609,5.609,0,0,1,5.03,2.539l-1.294.879a4.366,4.366,0,0,0-3.736-1.9,5.008,5.008,0,0,0,0,10.011,4.344,4.344,0,0,0,3.736-1.88Z" transform="translate(230.454 -49.728)" fill="#231f20"/>
      <path id="Caminho_8077" data-name="Caminho 8077" d="M318.458,110.071v7.96H316.8v-2a4.822,4.822,0,0,1-4.42,2.124c-2.906,0-4.688-1.514-4.688-3.736,0-1.978,1.27-3.638,4.957-3.638h4.078V110c0-2.2-1.245-3.394-3.638-3.394a6.543,6.543,0,0,0-4.273,1.514l-.781-1.294a8.155,8.155,0,0,1,5.225-1.734c3.321,0,5.2,1.66,5.2,4.981Zm-1.734,4.1v-2.1H312.7c-2.491,0-3.3.977-3.3,2.3,0,1.489,1.2,2.417,3.247,2.417A4.026,4.026,0,0,0,316.725,114.174ZM310.5,102.966h-1.05c.049-1.636.9-2.686,2.2-2.686,1.514,0,2.246,1.66,3.2,1.66.732,0,1.221-.586,1.27-1.514h1.05c-.049,1.587-.9,2.637-2.2,2.637-1.514,0-2.222-1.66-3.2-1.66C311.035,101.4,310.547,101.989,310.5,102.966Z" transform="translate(238.701 -52.568)" fill="#231f20"/>
      <path id="Caminho_8078" data-name="Caminho 8078" d="M313.52,108.769a6.532,6.532,0,1,1,6.544,6.544A6.317,6.317,0,0,1,313.52,108.769Zm11.305,0a4.779,4.779,0,1,0-4.761,5.006A4.684,4.684,0,0,0,324.825,108.769Z" transform="translate(247.107 -49.728)" fill="#231f20"/>
      <path id="Caminho_8079" data-name="Caminho 8079" d="M334.975,100.13v18.118h-1.66v-2.539a5.564,5.564,0,0,1-4.957,2.661,6.533,6.533,0,0,1,0-13.063,5.61,5.61,0,0,1,4.884,2.539V100.13h1.734Zm-1.709,11.7a4.779,4.779,0,1,0-4.761,5.006A4.7,4.7,0,0,0,333.265,111.826Z" transform="translate(259.275 -52.784)" fill="#231f20"/>
      <path id="Caminho_8080" data-name="Caminho 8080" d="M328.74,108.769a6.532,6.532,0,1,1,6.544,6.544A6.317,6.317,0,0,1,328.74,108.769Zm11.305,0a4.779,4.779,0,1,0-4.761,5.006A4.684,4.684,0,0,0,340.045,108.769Z" transform="translate(269.05 -49.728)" fill="#231f20"/>
      <path id="Caminho_8081" data-name="Caminho 8081" d="M350.725,108.769a6.22,6.22,0,0,1-6.4,6.544,5.61,5.61,0,0,1-4.883-2.539v7.154H337.71V102.348h1.66v2.539a5.594,5.594,0,0,1,4.957-2.637A6.213,6.213,0,0,1,350.725,108.769Zm-1.734,0a4.791,4.791,0,1,0-4.786,5.006A4.73,4.73,0,0,0,348.991,108.769Z" transform="translate(281.983 -49.728)" fill="#231f20"/>
      <path id="Caminho_8082" data-name="Caminho 8082" d="M354.788,107.231v7.96h-1.66v-2a4.823,4.823,0,0,1-4.42,2.124c-2.906,0-4.688-1.514-4.688-3.736,0-1.978,1.27-3.638,4.957-3.638h4.078v-.781c0-2.2-1.245-3.394-3.638-3.394a6.543,6.543,0,0,0-4.273,1.514l-.781-1.294a8.155,8.155,0,0,1,5.225-1.734c3.321,0,5.2,1.66,5.2,4.981Zm-1.734,4.1v-2.1h-4.029c-2.491,0-3.3.977-3.3,2.3,0,1.489,1.2,2.417,3.247,2.417A4.026,4.026,0,0,0,353.055,111.333Z" transform="translate(291.08 -49.728)" fill="#231f20"/>
      <path id="Caminho_8083" data-name="Caminho 8083" d="M353.415,100.24h2.32l-3.956,3.028H350.07Zm-2.637,5.006h1.734v12.844h-1.734Z" transform="translate(299.803 -52.626)" fill="#231f20"/>
      <path id="Caminho_8084" data-name="Caminho 8084" d="M352.32,113.726l.781-1.367a7.758,7.758,0,0,0,4.566,1.441c2.442,0,3.443-.83,3.443-2.1,0-3.345-8.326-.708-8.326-5.787,0-2.1,1.807-3.663,5.079-3.663a8.7,8.7,0,0,1,4.542,1.2l-.757,1.392a6.583,6.583,0,0,0-3.785-1.1c-2.32,0-3.345.9-3.345,2.124,0,3.467,8.326.855,8.326,5.787,0,2.222-1.953,3.663-5.3,3.663a8.581,8.581,0,0,1-5.225-1.587Z" transform="translate(303.047 -49.728)" fill="#231f20"/>
      <path id="Caminho_8085" data-name="Caminho 8085" d="M360.078,107.829a3.984,3.984,0,0,1-.342,1.416l-1.026,3.37h-1.172l.83-3.541a1.235,1.235,0,0,1-.879-1.245,1.278,1.278,0,0,1,1.294-1.319,1.293,1.293,0,0,1,1.294,1.319Z" transform="translate(310.5 -43.586)" fill="#231f20"/>
      <path id="Caminho_8086" data-name="Caminho 8086" d="M374.715,102.348v17.581h-1.734v-7.154a5.61,5.61,0,0,1-4.884,2.539,6.533,6.533,0,0,1,0-13.063,5.594,5.594,0,0,1,4.957,2.637v-2.539Zm-1.709,6.422a4.779,4.779,0,1,0-4.761,5.006A4.711,4.711,0,0,0,373.005,108.769Z" transform="translate(316.57 -49.728)" fill="#231f20"/>
      <path id="Caminho_8087" data-name="Caminho 8087" d="M380.656,102.29v12.844H379V112.79a5.109,5.109,0,0,1-4.615,2.466c-3.272,0-5.421-1.831-5.421-5.518V102.29h1.734v7.276c0,2.735,1.416,4.127,3.858,4.127,2.686,0,4.371-1.734,4.371-4.664V102.29h1.734Z" transform="translate(327.037 -49.67)" fill="#231f20"/>
      <path id="Caminho_8088" data-name="Caminho 8088" d="M387.687,109.307H376.944A4.754,4.754,0,0,0,382,113.775a5.062,5.062,0,0,0,3.931-1.685l.977,1.123a6.79,6.79,0,0,1-11.7-4.444,6.186,6.186,0,0,1,6.275-6.519c3.614,0,6.226,2.662,6.226,6.519v.537Zm-10.744-1.294h9.108a4.563,4.563,0,0,0-9.108,0Z" transform="translate(336.048 -49.728)" fill="#231f20"/>
      <path id="Caminho_8089" data-name="Caminho 8089" d="M394.278,107.231v7.96h-1.66v-2a4.822,4.822,0,0,1-4.42,2.124c-2.906,0-4.688-1.514-4.688-3.736,0-1.978,1.27-3.638,4.957-3.638h4.078v-.781c0-2.2-1.245-3.394-3.638-3.394a6.543,6.543,0,0,0-4.273,1.514l-.781-1.294a8.155,8.155,0,0,1,5.225-1.734c3.321,0,5.2,1.66,5.2,4.981Zm-1.734,4.1v-2.1h-4.029c-2.491,0-3.3.977-3.3,2.3,0,1.489,1.2,2.417,3.247,2.417A4.026,4.026,0,0,0,392.545,111.333Z" transform="translate(348.015 -49.728)" fill="#231f20"/>
      <path id="Caminho_8090" data-name="Caminho 8090" d="M389.12,113.726l.781-1.367a7.758,7.758,0,0,0,4.566,1.441c2.442,0,3.443-.83,3.443-2.1,0-3.345-8.326-.708-8.326-5.787,0-2.1,1.807-3.663,5.079-3.663a8.7,8.7,0,0,1,4.542,1.2l-.757,1.392a6.583,6.583,0,0,0-3.785-1.1c-2.32,0-3.345.9-3.345,2.124,0,3.467,8.326.855,8.326,5.787,0,2.222-1.953,3.663-5.3,3.663a8.581,8.581,0,0,1-5.225-1.587Z" transform="translate(356.103 -49.728)" fill="#231f20"/>
      <path id="Caminho_8091" data-name="Caminho 8091" d="M394.01,113.726l.781-1.367a7.758,7.758,0,0,0,4.566,1.441c2.442,0,3.443-.83,3.443-2.1,0-3.345-8.326-.708-8.326-5.787,0-2.1,1.807-3.663,5.079-3.663a8.7,8.7,0,0,1,4.542,1.2l-.757,1.392a6.583,6.583,0,0,0-3.785-1.1c-2.32,0-3.345.9-3.345,2.124,0,3.467,8.326.855,8.326,5.787,0,2.222-1.953,3.663-5.3,3.663a8.581,8.581,0,0,1-5.225-1.587Z" transform="translate(363.153 -49.728)" fill="#231f20"/>
      <path id="Caminho_8092" data-name="Caminho 8092" d="M399.47,101.351a1.251,1.251,0,0,1,1.27-1.221,1.231,1.231,0,0,1,1.27,1.2,1.27,1.27,0,0,1-2.539.024Zm.391,4.053h1.734v12.844h-1.734Z" transform="translate(371.025 -52.784)" fill="#231f20"/>
      <path id="Caminho_8093" data-name="Caminho 8093" d="M423.514,107.744v7.447h-1.734v-7.276c0-2.71-1.367-4.1-3.687-4.1-2.637,0-4.3,1.709-4.3,4.639v6.739h-1.734v-7.276c0-2.71-1.367-4.1-3.711-4.1-2.613,0-4.3,1.709-4.3,4.639v6.739H402.32V102.348h1.66v2.344a5.194,5.194,0,0,1,4.713-2.442,4.592,4.592,0,0,1,4.566,2.71,5.593,5.593,0,0,1,5.079-2.71c3.125,0,5.177,1.807,5.177,5.494Z" transform="translate(375.134 -49.728)" fill="#231f20"/>
      <path id="Caminho_8094" data-name="Caminho 8094" d="M425.428,107.231v7.96h-1.66v-2a4.822,4.822,0,0,1-4.42,2.124c-2.906,0-4.688-1.514-4.688-3.736,0-1.978,1.27-3.638,4.957-3.638h4.078v-.781c0-2.2-1.245-3.394-3.638-3.394a6.543,6.543,0,0,0-4.273,1.514L415,103.984a8.155,8.155,0,0,1,5.225-1.734c3.321,0,5.2,1.66,5.2,4.981Zm-1.734,4.1v-2.1h-4.029c-2.491,0-3.3.977-3.3,2.3,0,1.489,1.2,2.417,3.247,2.417A4.026,4.026,0,0,0,423.695,111.333Z" transform="translate(392.926 -49.728)" fill="#231f20"/>
      <path id="Caminho_8095" data-name="Caminho 8095" d="M428.946,116.01a4.129,4.129,0,0,1-2.71.9,3.4,3.4,0,0,1-3.76-3.736v-7.765h-2.3v-1.465h2.3V101.14h1.734v2.808h3.907v1.465h-3.907v7.667a2.057,2.057,0,0,0,2.222,2.344,2.869,2.869,0,0,0,1.9-.659Z" transform="translate(400.884 -51.328)" fill="#231f20"/>
      <path id="Caminho_8096" data-name="Caminho 8096" d="M436.706,102.29v12.844h-1.66V112.79a5.109,5.109,0,0,1-4.615,2.466c-3.272,0-5.421-1.831-5.421-5.518V102.29h1.734v7.276c0,2.735,1.416,4.127,3.858,4.127,2.686,0,4.371-1.734,4.371-4.664V102.29h1.734Z" transform="translate(407.848 -49.67)" fill="#231f20"/>
      <path id="Caminho_8097" data-name="Caminho 8097" d="M442.118,107.231v7.96h-1.66v-2a4.822,4.822,0,0,1-4.42,2.124c-2.906,0-4.688-1.514-4.688-3.736,0-1.978,1.27-3.638,4.957-3.638h4.078v-.781c0-2.2-1.245-3.394-3.638-3.394a6.543,6.543,0,0,0-4.273,1.514l-.781-1.294a8.155,8.155,0,0,1,5.225-1.734c3.321,0,5.2,1.66,5.2,4.981Zm-1.734,4.1v-2.1h-4.029c-2.491,0-3.3.977-3.3,2.3,0,1.489,1.2,2.417,3.247,2.417A4.026,4.026,0,0,0,440.385,111.333Z" transform="translate(416.989 -49.728)" fill="#231f20"/>
      <path id="Caminho_8098" data-name="Caminho 8098" d="M96.4,127.307H85.654a4.754,4.754,0,0,0,5.054,4.468,5.063,5.063,0,0,0,3.931-1.685l.977,1.123a6.79,6.79,0,0,1-11.7-4.444A6.186,6.186,0,0,1,90.2,120.25c3.614,0,6.226,2.661,6.226,6.519C96.422,126.916,96.4,127.111,96.4,127.307Zm-10.744-1.294h9.108a4.563,4.563,0,0,0-9.108,0Z" transform="translate(-83.92 -23.776)" fill="#231f20"/>
      <path id="Caminho_8099" data-name="Caminho 8099" d="M92.98,119.351a1.251,1.251,0,0,1,1.27-1.221,1.231,1.231,0,0,1,1.27,1.2,1.27,1.27,0,0,1-2.539.024Zm.391,4.053H95.1v12.844H93.371Z" transform="translate(-70.858 -26.833)" fill="#231f20"/>
      <path id="Caminho_8100" data-name="Caminho 8100" d="M102.3,120.25v1.685c-.146,0-.293-.024-.415-.024-2.686,0-4.322,1.709-4.322,4.737v6.544H95.83V120.348h1.66v2.515c.806-1.709,2.442-2.613,4.81-2.613Z" transform="translate(-66.749 -23.776)" fill="#231f20"/>
      <path id="Caminho_8101" data-name="Caminho 8101" d="M106.231,120.25v1.685c-.146,0-.293-.024-.415-.024-2.686,0-4.322,1.709-4.322,4.737v6.544H99.76V120.348h1.66v2.515c.806-1.709,2.442-2.613,4.81-2.613Z" transform="translate(-61.083 -23.776)" fill="#231f20"/>
      <path id="Caminho_8102" data-name="Caminho 8102" d="M114,125.231v7.96h-1.66v-2a4.822,4.822,0,0,1-4.42,2.124c-2.906,0-4.688-1.514-4.688-3.736,0-1.978,1.27-3.638,4.957-3.638h4.078v-.781c0-2.2-1.245-3.394-3.638-3.394a6.543,6.543,0,0,0-4.273,1.514l-.781-1.294a8.155,8.155,0,0,1,5.225-1.734c3.321,0,5.2,1.66,5.2,4.981Zm-1.734,4.1v-2.1h-4.029c-2.491,0-3.3.977-3.3,2.3,0,1.489,1.2,2.417,3.248,2.417A4.026,4.026,0,0,0,112.264,129.333Z" transform="translate(-56.08 -23.776)" fill="#231f20"/>
      <path id="Caminho_8103" data-name="Caminho 8103" d="M122.075,118.13v18.118h-1.66v-2.539a5.564,5.564,0,0,1-4.957,2.661,6.533,6.533,0,0,1,0-13.063,5.61,5.61,0,0,1,4.884,2.539V118.13Zm-1.709,11.7a4.779,4.779,0,1,0-4.761,5.006A4.7,4.7,0,0,0,120.365,129.826Z" transform="translate(-47.674 -26.833)" fill="#231f20"/>
      <path id="Caminho_8104" data-name="Caminho 8104" d="M116.22,119.351a1.251,1.251,0,0,1,1.27-1.221,1.231,1.231,0,0,1,1.27,1.2,1.27,1.27,0,0,1-2.539.024Zm.391,4.053h1.734v12.844h-1.734Z" transform="translate(-37.351 -26.833)" fill="#231f20"/>
      <path id="Caminho_8105" data-name="Caminho 8105" d="M129.388,125.231v7.96h-1.66v-2a4.822,4.822,0,0,1-4.42,2.124c-2.906,0-4.688-1.514-4.688-3.736,0-1.978,1.27-3.638,4.957-3.638h4.078v-.781c0-2.2-1.245-3.394-3.638-3.394a6.543,6.543,0,0,0-4.273,1.514l-.781-1.294a8.155,8.155,0,0,1,5.225-1.734c3.321,0,5.2,1.66,5.2,4.981Zm-1.734,4.1v-2.1h-4.029c-2.491,0-3.3.977-3.3,2.3,0,1.489,1.2,2.417,3.248,2.417A4.026,4.026,0,0,0,127.654,129.333Z" transform="translate(-33.891 -23.776)" fill="#231f20"/>
      <path id="Caminho_8106" data-name="Caminho 8106" d="M124.58,122.53h6.4v1.514h-6.4Z" transform="translate(-25.298 -20.489)" fill="#231f20"/>
      <path id="Caminho_8107" data-name="Caminho 8107" d="M128.06,131.726l.781-1.367a7.758,7.758,0,0,0,4.566,1.441c2.442,0,3.443-.83,3.443-2.1,0-3.345-8.326-.708-8.326-5.787,0-2.1,1.807-3.663,5.079-3.663a8.7,8.7,0,0,1,4.542,1.2l-.757,1.392a6.583,6.583,0,0,0-3.785-1.1c-2.32,0-3.345.9-3.345,2.124,0,3.467,8.326.855,8.326,5.787,0,2.222-1.953,3.663-5.3,3.663a8.58,8.58,0,0,1-5.225-1.587Z" transform="translate(-20.281 -23.776)" fill="#231f20"/>
      <path id="Caminho_8108" data-name="Caminho 8108" d="M145.617,127.307H134.874a4.754,4.754,0,0,0,5.054,4.468,5.063,5.063,0,0,0,3.931-1.685l.977,1.123a6.79,6.79,0,0,1-11.7-4.444,6.186,6.186,0,0,1,6.275-6.519c3.614,0,6.226,2.661,6.226,6.519,0,.146-.024.342-.024.537Zm-10.744-1.294h9.108a4.563,4.563,0,0,0-9.108,0Z" transform="translate(-12.957 -23.776)" fill="#231f20"/>
      <path id="Caminho_8109" data-name="Caminho 8109" d="M155.375,126.769a6.22,6.22,0,0,1-6.4,6.544,5.61,5.61,0,0,1-4.884-2.539v7.154H142.36V120.348h1.66v2.539a5.594,5.594,0,0,1,4.957-2.637,6.213,6.213,0,0,1,6.4,6.519Zm-1.734,0a4.791,4.791,0,1,0-4.786,5.006A4.73,4.73,0,0,0,153.641,126.769Z" transform="translate(0.336 -23.776)" fill="#231f20"/>
      <path id="Caminho_8110" data-name="Caminho 8110" d="M148.61,126.769a6.532,6.532,0,1,1,6.544,6.544A6.317,6.317,0,0,1,148.61,126.769Zm11.305,0a4.779,4.779,0,1,0-4.761,5.006A4.684,4.684,0,0,0,159.915,126.769Z" transform="translate(9.347 -23.776)" fill="#231f20"/>
      <path id="Caminho_8111" data-name="Caminho 8111" d="M161.881,120.25v1.685c-.146,0-.293-.024-.415-.024-2.686,0-4.322,1.709-4.322,4.737v6.544H155.41V120.348h1.66v2.515c.806-1.709,2.442-2.613,4.81-2.613Z" transform="translate(19.151 -23.776)" fill="#231f20"/>
      <path id="Caminho_8112" data-name="Caminho 8112" d="M170.016,134.01a4.128,4.128,0,0,1-2.71.9,3.4,3.4,0,0,1-3.76-3.736v-7.765h-2.3v-1.465h2.3V119.14h1.734v2.808h3.907v1.465h-3.907v7.667a2.057,2.057,0,0,0,2.222,2.344,2.869,2.869,0,0,0,1.9-.659l.61,1.245Z" transform="translate(27.571 -25.377)" fill="#231f20"/>
      <path id="Caminho_8113" data-name="Caminho 8113" d="M165.41,126.769a6.532,6.532,0,1,1,6.544,6.544A6.317,6.317,0,0,1,165.41,126.769Zm11.305,0a4.779,4.779,0,1,0-4.761,5.006A4.684,4.684,0,0,0,176.715,126.769Z" transform="translate(33.569 -23.776)" fill="#231f20"/>
      <path id="Caminho_8114" data-name="Caminho 8114" d="M184.695,118.13v18.118h-1.66v-2.539a5.564,5.564,0,0,1-4.957,2.661,6.533,6.533,0,0,1,0-13.063,5.61,5.61,0,0,1,4.883,2.539V118.13h1.734Zm-1.709,11.7a4.779,4.779,0,1,0-4.761,5.006A4.7,4.7,0,0,0,182.985,129.826Z" transform="translate(42.608 -26.833)" fill="#231f20"/>
      <path id="Caminho_8115" data-name="Caminho 8115" d="M178.46,126.769A6.532,6.532,0,1,1,185,133.313,6.317,6.317,0,0,1,178.46,126.769Zm11.305,0A4.779,4.779,0,1,0,185,131.775,4.684,4.684,0,0,0,189.765,126.769Z" transform="translate(52.383 -23.776)" fill="#231f20"/>
      <path id="Caminho_8116" data-name="Caminho 8116" d="M187.38,126.769a6.532,6.532,0,1,1,6.544,6.544A6.317,6.317,0,0,1,187.38,126.769Zm11.305,0a4.779,4.779,0,1,0-4.761,5.006A4.684,4.684,0,0,0,198.685,126.769Z" transform="translate(65.244 -23.776)" fill="#231f20"/>
      <path id="Caminho_8117" data-name="Caminho 8117" d="M196.29,126.769a6.532,6.532,0,1,1,6.544,6.544A6.317,6.317,0,0,1,196.29,126.769Zm11.305,0a4.779,4.779,0,1,0-4.761,5.006A4.684,4.684,0,0,0,207.6,126.769Z" transform="translate(78.09 -23.776)" fill="#231f20"/>
      <path id="Caminho_8118" data-name="Caminho 8118" d="M209.561,120.25v1.685c-.147,0-.293-.024-.415-.024-2.686,0-4.322,1.709-4.322,4.737v6.544H203.09V120.348h1.66v2.515c.806-1.709,2.442-2.613,4.81-2.613Z" transform="translate(87.894 -23.776)" fill="#231f20"/>
      <path id="Caminho_8119" data-name="Caminho 8119" d="M219.455,118.13v18.118h-1.66v-2.539a5.564,5.564,0,0,1-4.957,2.661,6.533,6.533,0,0,1,0-13.063,5.61,5.61,0,0,1,4.884,2.539V118.13h1.734Zm-1.709,11.7a4.779,4.779,0,1,0-4.761,5.006A4.7,4.7,0,0,0,217.745,129.826Z" transform="translate(92.724 -26.833)" fill="#231f20"/>
      <path id="Caminho_8120" data-name="Caminho 8120" d="M225.7,127.307H214.954a4.754,4.754,0,0,0,5.054,4.468,5.063,5.063,0,0,0,3.931-1.685l.977,1.123a6.79,6.79,0,0,1-11.7-4.444,6.186,6.186,0,0,1,6.275-6.519c3.614,0,6.227,2.661,6.227,6.519,0,.146-.024.342-.024.537Zm-10.744-1.294h9.108a4.563,4.563,0,0,0-9.108,0Z" transform="translate(102.499 -23.776)" fill="#231f20"/>
      <path id="Caminho_8121" data-name="Caminho 8121" d="M231.608,125.744v7.447h-1.734v-7.276c0-2.71-1.416-4.1-3.858-4.1-2.759,0-4.493,1.709-4.493,4.639v6.739H219.79V120.348h1.66v2.368a5.4,5.4,0,0,1,4.883-2.466c3.125,0,5.274,1.807,5.274,5.494Z" transform="translate(111.971 -23.776)" fill="#231f20"/>
      <path id="Caminho_8122" data-name="Caminho 8122" d="M236.888,125.231v7.96h-1.66v-2a4.822,4.822,0,0,1-4.42,2.124c-2.906,0-4.688-1.514-4.688-3.736,0-1.978,1.27-3.638,4.957-3.638h4.078v-.781c0-2.2-1.245-3.394-3.638-3.394a6.542,6.542,0,0,0-4.273,1.514l-.781-1.294a8.155,8.155,0,0,1,5.225-1.734c3.321,0,5.2,1.66,5.2,4.981Zm-1.734,4.1v-2.1h-4.029c-2.491,0-3.3.977-3.3,2.3,0,1.489,1.2,2.417,3.248,2.417A4.026,4.026,0,0,0,235.155,129.333Z" transform="translate(121.097 -23.776)" fill="#231f20"/>
      <path id="Caminho_8123" data-name="Caminho 8123" d="M253.654,125.744v7.447h-1.734v-7.276c0-2.71-1.367-4.1-3.687-4.1-2.637,0-4.3,1.709-4.3,4.639v6.739H242.2v-7.276c0-2.71-1.367-4.1-3.711-4.1-2.613,0-4.3,1.709-4.3,4.639v6.739H232.46V120.348h1.66v2.344a5.194,5.194,0,0,1,4.713-2.442,4.592,4.592,0,0,1,4.566,2.71,5.593,5.593,0,0,1,5.079-2.71c3.125,0,5.177,1.807,5.177,5.494Z" transform="translate(130.238 -23.776)" fill="#231f20"/>
      <path id="Caminho_8124" data-name="Caminho 8124" d="M255.037,127.307H244.294a4.754,4.754,0,0,0,5.054,4.468,5.063,5.063,0,0,0,3.931-1.685l.977,1.123a6.79,6.79,0,0,1-11.7-4.444,6.186,6.186,0,0,1,6.275-6.519c3.614,0,6.227,2.661,6.227,6.519v.537Zm-10.744-1.294H253.4a4.563,4.563,0,0,0-9.108,0Z" transform="translate(144.8 -23.776)" fill="#231f20"/>
      <path id="Caminho_8125" data-name="Caminho 8125" d="M260.948,125.744v7.447h-1.734v-7.276c0-2.71-1.416-4.1-3.858-4.1-2.759,0-4.493,1.709-4.493,4.639v6.739H249.13V120.348h1.66v2.368a5.4,5.4,0,0,1,4.883-2.466C258.8,120.25,260.948,122.057,260.948,125.744Z" transform="translate(154.272 -23.776)" fill="#231f20"/>
      <path id="Caminho_8126" data-name="Caminho 8126" d="M263.846,134.01a4.129,4.129,0,0,1-2.71.9,3.4,3.4,0,0,1-3.76-3.736v-7.765h-2.3v-1.465h2.3V119.14h1.734v2.808h3.907v1.465h-3.907v7.667a2.057,2.057,0,0,0,2.222,2.344,2.869,2.869,0,0,0,1.9-.659Z" transform="translate(162.851 -25.377)" fill="#231f20"/>
      <path id="Caminho_8127" data-name="Caminho 8127" d="M259.24,126.769a6.532,6.532,0,1,1,6.544,6.544A6.317,6.317,0,0,1,259.24,126.769Zm11.305,0a4.779,4.779,0,1,0-4.761,5.006A4.684,4.684,0,0,0,270.545,126.769Z" transform="translate(168.848 -23.776)" fill="#231f20"/>
      <path id="Caminho_8128" data-name="Caminho 8128" d="M266.8,140.262l.61-1.319a3,3,0,0,0,2,.659c1.367,0,2.124-.83,2.124-2.417v-13.8h1.734v13.8c0,2.368-1.319,3.907-3.76,3.907A4.222,4.222,0,0,1,266.8,140.262Zm4.346-20.9a1.251,1.251,0,0,1,1.27-1.221,1.231,1.231,0,0,1,1.27,1.2,1.27,1.27,0,0,1-2.539.024Z" transform="translate(179.748 -26.818)" fill="#231f20"/>
      <path id="Caminho_8129" data-name="Caminho 8129" d="M283.066,120.29v12.844h-1.66V130.79a5.109,5.109,0,0,1-4.615,2.466c-3.272,0-5.421-1.831-5.421-5.518V120.29H273.1v7.276c0,2.735,1.416,4.127,3.858,4.127,2.686,0,4.371-1.734,4.371-4.664V120.29h1.734Z" transform="translate(186.337 -23.719)" fill="#231f20"/>
      <path id="Caminho_8130" data-name="Caminho 8130" d="M284.621,120.25v1.685c-.146,0-.293-.024-.415-.024-2.686,0-4.322,1.709-4.322,4.737v6.544H278.15V120.348h1.66v2.515C280.616,121.153,282.252,120.25,284.621,120.25Z" transform="translate(196.112 -23.776)" fill="#231f20"/>
      <path id="Caminho_8131" data-name="Caminho 8131" d="M285.135,118.24h2.32l-3.956,3.028H281.79Zm-2.637,5.006h1.734v12.844H282.5Z" transform="translate(201.36 -26.674)" fill="#231f20"/>
      <path id="Caminho_8132" data-name="Caminho 8132" d="M297.255,118.13v18.118h-1.66v-2.539a5.564,5.564,0,0,1-4.957,2.661,6.533,6.533,0,0,1,0-13.063,5.61,5.61,0,0,1,4.884,2.539V118.13Zm-1.709,11.7a4.779,4.779,0,1,0-4.761,5.006A4.7,4.7,0,0,0,295.545,129.826Z" transform="translate(204.892 -26.833)" fill="#231f20"/>
      <path id="Caminho_8133" data-name="Caminho 8133" d="M291.4,119.351a1.251,1.251,0,0,1,1.27-1.221,1.231,1.231,0,0,1,1.27,1.2,1.27,1.27,0,0,1-2.539.024Zm.391,4.053h1.734v12.844h-1.734Z" transform="translate(215.215 -26.833)" fill="#231f20"/>
      <path id="Caminho_8134" data-name="Caminho 8134" d="M293.72,126.769a6.322,6.322,0,0,1,6.617-6.519,5.609,5.609,0,0,1,5.03,2.539l-1.294.879a4.366,4.366,0,0,0-3.736-1.9,5.008,5.008,0,0,0,0,10.011,4.344,4.344,0,0,0,3.736-1.88l1.294.879a5.662,5.662,0,0,1-5.03,2.539,6.342,6.342,0,0,1-6.617-6.544Z" transform="translate(218.56 -23.776)" fill="#231f20"/>
      <path id="Caminho_8135" data-name="Caminho 8135" d="M299.26,126.769a6.532,6.532,0,1,1,6.544,6.544A6.317,6.317,0,0,1,299.26,126.769Zm11.305,0a4.779,4.779,0,1,0-4.761,5.006A4.684,4.684,0,0,0,310.565,126.769Z" transform="translate(226.547 -23.776)" fill="#231f20"/>
      <path id="Caminho_8136" data-name="Caminho 8136" d="M305.44,125.829a1.293,1.293,0,0,1,1.294-1.319,1.313,1.313,0,0,1,1.319,1.319,1.334,1.334,0,0,1-1.319,1.343A1.314,1.314,0,0,1,305.44,125.829Z" transform="translate(235.457 -17.634)" fill="#231f20"/>
    </g>
  </g>
</svg>
