<?xml version="1.0" encoding="utf-8"?>
<!-- Generator: Adobe Illustrator 27.2.0, SVG Export Plug-In . SVG Version: 6.00 Build 0)  -->
<svg version="1.1" id="Layer_1" xmlns="http://www.w3.org/2000/svg" xmlns:xlink="http://www.w3.org/1999/xlink" x="0px" y="0px"
	 viewBox="0 0 1124 401" style="enable-background:new 0 0 1124 401;" xml:space="preserve">
<style type="text/css">
	.st0{clip-path:url(#SVGID_00000160913462743863104220000007289863554257919898_);}
	.st1{fill:none;stroke:#E8541C;}
	.st2{fill:#F7F2F0;}
	.st3{fill:#F7C2A1;}
	.st4{fill:#F26A41;}
	.st5{fill:#E8541C;}
	.st6{clip-path:url(#SVGID_00000134951244236558810250000014484556070657081234_);}
	.st7{fill:#FFEEC2;}
	.st8{fill:#1D1D1B;}
</style>
<g id="Janela3" transform="translate(-12.65 -11)">
	<g>
		<defs>
			<rect id="SVGID_1_" x="12.6" y="11" width="1124" height="401"/>
		</defs>
		<clipPath id="SVGID_00000012459447367891896800000014392424460162765457_">
			<use xlink:href="#SVGID_1_"  style="overflow:visible;"/>
		</clipPath>
		
			<g id="Grupo_2379" transform="translate(12.65 11)" style="clip-path:url(#SVGID_00000012459447367891896800000014392424460162765457_);">
			<rect id="Retângulo_259" x="26.2" y="93" class="st1" width="1096.5" height="307.2"/>
		</g>
	</g>
	<rect id="Retângulo_261" x="14.1" y="74.3" class="st2" width="1095.7" height="308.9"/>
	<path id="Caminho_4266" class="st3" d="M86.5,50H41L18.2,89.5L41,129h45.5l22.8-39.5L86.5,50z"/>
	<path id="Caminho_4267" class="st3" d="M103.6,19H58.1L35.3,58.5L58.1,98h45.5l22.8-39.5L103.6,19z"/>
	<path id="Caminho_4268" class="st4" d="M42.8,23.3L13.6,74l29.2,50.7h58.5L130.5,74l-29.2-50.7H42.8z"/>
	<path id="Caminho_4269" class="st5" d="M80.5,11l-0.9,1.5H37.1L16,49.2H14l-1.4,2.4L14,54h2.7l1.4-2.4l-1-1.7l20.8-36.1h41.4l1.1,2
		h2.7l1.4-2.4L83.2,11H80.5z"/>
	<path id="Caminho_4270" class="st5" d="M130.6,97l-1.4-2.4h-2.7l-1.4,2.4l1,1.7l-20.8,36.1H63.9l-1.1-2H60l-1.4,2.4l1.4,2.4h2.7
		l0.8-1.4h42.5l21.2-36.8h2L130.6,97z"/>
	<g>
		<defs>
			<rect id="SVGID_00000166672345435020179940000009766442037358272191_" x="12.6" y="11" width="1124" height="401"/>
		</defs>
		<clipPath id="SVGID_00000183969231785584460620000008502990494047135405_">
			<use xlink:href="#SVGID_00000166672345435020179940000009766442037358272191_"  style="overflow:visible;"/>
		</clipPath>
		
			<g id="Grupo_2380" transform="translate(12.65 11)" style="clip-path:url(#SVGID_00000183969231785584460620000008502990494047135405_);">
			<path id="Caminho_4271" class="st7" d="M55.6,91.1c2.9,2.9,7.6,2.9,10.5,0c2.9-2.8,2.9-7.4,0.1-10.2c0,0-0.1-0.1-0.1-0.1
				c-2.9-2.9-7.6-2.9-10.5,0c-2.9,2.8-2.9,7.4-0.1,10.2C55.5,91,55.5,91,55.6,91.1 M57.8,68.8c-0.2-0.5-0.6-2-1.3-4.5
				c-2.2-8.3-3.4-14.7-3.4-19.1c0-4,0.6-6.9,1.8-8.6c1.2-1.7,3.3-2.5,6.1-2.5c4.7,0,7.1,3.9,7.1,11.7c0,2.2-1.2,8.4-3.5,18.5
				c-0.3,1.6-0.7,3.2-1.2,4.7c-0.4,1.3-1.6,2.1-2.9,2.2C59.5,71.2,58.6,70.4,57.8,68.8"/>
		</g>
	</g>
	<g id="Grupo_2381" transform="translate(135.82 190.488)">
		<path id="Caminho_4272" class="st8" d="M0,0h8.5c6.1,0,10.3,3.7,10.3,9.4s-4.2,9.4-10.3,9.4H0V0z M8.3,15.2c3.7,0,6.2-2.2,6.2-5.8
			S12,3.6,8.3,3.6h-4v11.6H8.3z"/>
		<path id="Caminho_4273" class="st8" d="M20.8,11.5c0-4.3,3.4-7.4,7.9-7.4s7.9,3.1,7.9,7.4S33.3,19,28.7,19S20.8,15.9,20.8,11.5z
			 M32.3,11.5c0-2.5-1.6-4-3.7-4c-2.2,0.2-3.9,2.1-3.7,4.3c0.1,2,1.7,3.6,3.7,3.7C30.8,15.5,32.3,14,32.3,11.5z"/>
		<path id="Caminho_4274" class="st8" d="M54.2,4.3v12c0,5.4-2.9,7.8-8.1,7.8c-2.5,0.1-5-0.6-7.1-2l1.7-3c1.5,1.1,3.3,1.6,5.1,1.6
			c2.9,0,4.2-1.3,4.2-3.9v-0.6c-1.2,1.2-2.8,1.9-4.5,1.8c-3.8,0.1-7.1-2.9-7.2-6.7s2.9-7.1,6.7-7.2c0.2,0,0.3,0,0.5,0
			c1.8-0.1,3.6,0.7,4.8,2.1V4.4L54.2,4.3L54.2,4.3z M50.1,11.1c0.1-2.1-1.4-3.9-3.5-4c-2.1-0.1-3.9,1.4-4,3.5
			c-0.1,2.1,1.4,3.9,3.5,4c0.1,0,0.2,0,0.3,0c1.9,0.2,3.6-1.3,3.8-3.2C50.1,11.3,50.1,11.2,50.1,11.1L50.1,11.1z"/>
		<path id="Caminho_4275" class="st8" d="M82.4,10.5v8.2h-4.2v-7.6c0-2.3-1-3.4-2.7-3.4c-1.9,0-3.2,1.2-3.2,3.8v7.2h-4.2v-7.6
			c0-2.3-1-3.4-2.7-3.4c-1.8,0-3.2,1.2-3.2,3.8v7.2H58V4.3h4V6c1.2-1.3,2.8-1.9,4.5-1.9c1.9-0.1,3.7,0.8,4.7,2.4
			c1.3-1.5,3.2-2.4,5.2-2.4C79.9,4.1,82.4,6.1,82.4,10.5L82.4,10.5z"/>
		<path id="Caminho_4276" class="st8" d="M98.9,10.5v8.2H95V17c-0.8,1.3-2.3,2-4.4,2c-3.4,0-5.4-1.9-5.4-4.4s1.8-4.3,6.2-4.3h3.3
			c0-1.8-1.1-2.8-3.3-2.8c-1.5,0-3,0.5-4.2,1.3l-1.5-2.9c1.9-1.2,4-1.8,6.2-1.7C96.3,4.2,98.9,6.2,98.9,10.5L98.9,10.5z M94.7,14.2
			v-1.5h-2.9c-1.9,0-2.6,0.7-2.6,1.7c0,1,0.9,1.7,2.4,1.7C93,16.2,94.2,15.4,94.7,14.2L94.7,14.2z"/>
		<path id="Caminho_4277" class="st8" d="M101.3,17.4l1.4-3c1.5,0.9,3.2,1.4,5,1.4c1.9,0,2.7-0.5,2.7-1.3c0-2.4-8.7,0-8.7-5.7
			c0-2.7,2.5-4.6,6.7-4.6c1.9,0,3.8,0.4,5.5,1.3l-1.4,3c-1.3-0.7-2.7-1.1-4.2-1.1c-1.9,0-2.7,0.6-2.7,1.3c0,2.5,8.7,0.1,8.7,5.8
			c0,2.7-2.5,4.6-6.8,4.6C105.4,19,103.2,18.5,101.3,17.4L101.3,17.4z"/>
	</g>
	<g id="Grupo_2382" transform="translate(260.742 189.345)">
		<path id="Caminho_4278" class="st8" d="M14.3,0v19.9h-1.8v-2.8C11.3,19,9.2,20.1,7,20c-4-0.1-7.1-3.4-7-7.3c0.1-3.8,3.2-6.9,7-7
			c2.1-0.1,4.2,1,5.4,2.8V0L14.3,0L14.3,0z M12.4,12.8c-0.1-2.9-2.6-5.1-5.5-5C4,8,1.8,10.5,1.9,13.3c0.1,2.8,2.4,5,5.3,5
			c2.8,0.1,5.2-2.2,5.2-5C12.4,13.2,12.4,13,12.4,12.8z"/>
		<path id="Caminho_4279" class="st8" d="M31.8,13.4H20c0.2,2.9,2.6,5.1,5.5,4.9c0,0,0,0,0,0c1.6,0.1,3.2-0.6,4.3-1.8l1.1,1.2
			c-1.4,1.5-3.4,2.4-5.4,2.3c-4.4,0-7.4-3-7.4-7.2c-0.2-3.7,2.7-6.9,6.4-7.1c0.2,0,0.3,0,0.5,0c4,0,6.8,2.9,6.8,7.2
			C31.8,13,31.8,13.2,31.8,13.4L31.8,13.4z M20,12h10c-0.2-2.8-2.5-4.9-5.3-4.7C22.2,7.5,20.1,9.5,20,12L20,12z"/>
		<path id="Caminho_4280" class="st8" d="M58.9,11.7v8.2H57v-8c0-3-1.5-4.5-4-4.5c-2.9,0-4.7,1.9-4.7,5.1v7.4h-1.9v-8
			c0-3-1.5-4.5-4.1-4.5c-2.9,0-4.7,1.9-4.7,5.1v7.4h-1.9V5.8h1.8v2.6c1.1-1.8,3.1-2.8,5.2-2.7c2.1-0.2,4.1,1,5,3
			c1.2-1.9,3.3-3.1,5.6-3C56.7,5.7,58.9,7.7,58.9,11.7L58.9,11.7z"/>
		<path id="Caminho_4281" class="st8" d="M62.7,12.8c0-4,3.2-7.2,7.2-7.2c4,0,7.2,3.2,7.2,7.2c0,3.9-3.2,7.1-7.2,7.2
			c-3.8,0.1-7-2.8-7.2-6.7C62.7,13.2,62.7,13,62.7,12.8z M75.1,12.8c-0.1-2.9-2.6-5.1-5.5-5c-2.9,0.1-5.1,2.6-5,5.5
			c0.1,2.8,2.4,5,5.3,5c2.8,0.1,5.2-2.2,5.2-5C75.1,13.2,75.1,13,75.1,12.8L75.1,12.8z"/>
		<path id="Caminho_4282" class="st8" d="M93.9,11.7v8.2H92v-8c0-3-1.6-4.5-4.2-4.5c-3,0-4.9,1.9-4.9,5.1v7.4h-1.9V5.8h1.8v2.6
			c1.2-1.8,3.2-2.8,5.4-2.7C91.5,5.7,93.9,7.7,93.9,11.7L93.9,11.7z"/>
		<path id="Caminho_4283" class="st8" d="M97.1,18.3l0.9-1.5c1.5,1,3.2,1.6,5,1.6c2.7,0,3.8-0.9,3.8-2.3c0-3.7-9.1-0.8-9.1-6.3
			c0-2.3,2-4,5.6-4c1.8,0,3.5,0.4,5,1.3l-0.8,1.5c-1.2-0.8-2.7-1.2-4.2-1.2c-2.5,0-3.7,1-3.7,2.3c0,3.8,9.1,0.9,9.1,6.3
			c0,2.4-2.1,4-5.8,4C100.8,20.1,98.8,19.4,97.1,18.3z"/>
		<path id="Caminho_4284" class="st8" d="M119.5,19c-0.8,0.7-1.9,1-3,1c-2.7,0-4.1-1.5-4.1-4.1V7.4H110V5.8h2.5V2.7h1.9v3.1h4.3v1.6
			h-4.3v8.4c-0.2,1.2,0.7,2.4,1.9,2.6c0.2,0,0.3,0,0.5,0c0.8,0,1.5-0.2,2.1-0.7L119.5,19L119.5,19z"/>
		<path id="Caminho_4285" class="st8" d="M130.1,5.7v1.8c-0.2,0-0.3,0-0.5,0c-2.9,0-4.7,1.9-4.7,5.2v7.2H123V5.8h1.8v2.7
			C125.7,6.7,127.5,5.7,130.1,5.7L130.1,5.7z"/>
		<path id="Caminho_4286" class="st8" d="M144.1,11.2v8.7h-1.8v-2.2c-1.1,1.6-2.9,2.5-4.8,2.3c-3.2,0-5.1-1.7-5.1-4.1
			c0-2.2,1.4-4,5.4-4h4.5v-0.9c0-2.4-1.4-3.7-4-3.7c-1.7,0-3.4,0.6-4.7,1.7l-0.9-1.4c1.6-1.3,3.6-2,5.7-1.9
			C142,5.7,144.1,7.6,144.1,11.2L144.1,11.2z M142.2,15.7v-2.3h-4.4c-2.7,0-3.6,1.1-3.6,2.5c0,1.6,1.3,2.7,3.6,2.7
			C139.7,18.7,141.5,17.5,142.2,15.7L142.2,15.7z"/>
		<path id="Caminho_4287" class="st8" d="M172.5,11.7v8.2h-1.9v-8c0-3-1.5-4.5-4-4.5c-2.9,0-4.7,1.9-4.7,5.1v7.4h-1.9v-8
			c0-3-1.5-4.5-4.1-4.5c-2.9,0-4.7,1.9-4.7,5.1v7.4h-1.9V5.8h1.8v2.6c1.1-1.8,3.1-2.8,5.2-2.7c2.1-0.2,4.1,1,5,3
			c1.2-1.9,3.3-3.1,5.6-3C170.3,5.7,172.5,7.7,172.5,11.7L172.5,11.7z"/>
		<path id="Caminho_4288" class="st8" d="M176.6,11.8h7v1.7h-7V11.8z"/>
		<path id="Caminho_4289" class="st8" d="M185.9,18.3l0.9-1.5c1.5,1,3.2,1.6,5,1.6c2.7,0,3.8-0.9,3.8-2.3c0-3.7-9.1-0.8-9.1-6.3
			c0-2.3,2-4,5.6-4c1.8,0,3.5,0.4,5,1.3l-0.8,1.5c-1.2-0.8-2.7-1.2-4.2-1.2c-2.5,0-3.7,1-3.7,2.3c0,3.8,9.1,0.9,9.1,6.3
			c0,2.4-2.1,4-5.8,4C189.6,20.1,187.6,19.4,185.9,18.3z"/>
		<path id="Caminho_4290" class="st8" d="M213.2,13.4h-11.8c0.2,2.9,2.6,5.1,5.5,4.9c0,0,0,0,0,0c1.6,0.1,3.2-0.6,4.3-1.8l1.1,1.2
			c-1.4,1.5-3.4,2.4-5.4,2.3c-4.4,0-7.4-3-7.4-7.2c-0.2-3.7,2.7-6.9,6.4-7.1c0.2,0,0.3,0,0.5,0c4,0,6.8,2.9,6.8,7.2
			C213.3,13,213.3,13.2,213.2,13.4L213.2,13.4z M201.5,12h10c-0.2-2.8-2.5-4.9-5.3-4.7C203.6,7.5,201.6,9.5,201.5,12L201.5,12z"/>
		<path id="Caminho_4291" class="st8" d="M233.3,19c-0.8,0.7-1.9,1-3,1c-2.7,0-4.1-1.5-4.1-4.1V7.4h-2.5V5.8h2.5V2.7h1.9v3.1h4.3
			v1.6h-4.3v8.4c-0.2,1.2,0.7,2.4,1.9,2.6c0.2,0,0.3,0,0.5,0c0.8,0,1.5-0.2,2.1-0.7L233.3,19L233.3,19z"/>
		<path id="Caminho_4292" class="st8" d="M247.3,11.2v8.7h-1.8v-2.2c-1.1,1.6-2.9,2.5-4.8,2.3c-3.2,0-5.1-1.7-5.1-4.1
			c0-2.2,1.4-4,5.4-4h4.5v-0.9c0-2.4-1.4-3.7-4-3.7c-1.7,0-3.4,0.6-4.7,1.7l-0.9-1.4c1.6-1.3,3.6-2,5.7-1.9
			C245.2,5.7,247.3,7.6,247.3,11.2L247.3,11.2z M245.4,15.7v-2.3H241c-2.7,0-3.6,1.1-3.6,2.5c0,1.6,1.3,2.7,3.6,2.7
			C242.9,18.7,244.7,17.5,245.4,15.7L245.4,15.7z"/>
		<path id="Caminho_4293" class="st8" d="M265.4,11.7v8.2h-1.9v-8c0-3-1.6-4.5-4.2-4.5c-3,0-4.9,1.9-4.9,5.1v7.4h-1.9V5.8h1.8v2.6
			c1.2-1.8,3.2-2.8,5.4-2.7C263.1,5.7,265.5,7.7,265.4,11.7L265.4,11.7z"/>
		<path id="Caminho_4294" class="st8" d="M278,19c-0.8,0.7-1.9,1-3,1c-2.7,0-4.1-1.5-4.1-4.1V7.4h-2.5V5.8h2.5V2.7h1.9v3.1h4.3v1.6
			h-4.3v8.4c-0.2,1.2,0.7,2.4,1.9,2.6c0.2,0,0.3,0,0.5,0c0.8,0,1.5-0.2,2.1-0.7L278,19L278,19z"/>
		<path id="Caminho_4295" class="st8" d="M279.5,12.8c0-4,3.2-7.2,7.2-7.2c4,0,7.2,3.2,7.2,7.2c0,3.9-3.2,7.1-7.2,7.2
			c-3.8,0.1-7-2.8-7.2-6.7C279.5,13.2,279.5,13,279.5,12.8z M291.9,12.8c-0.1-2.9-2.6-5.1-5.5-5c-2.9,0.1-5.1,2.6-5,5.5
			c0.1,2.8,2.4,5,5.3,5c2.8,0.1,5.2-2.2,5.2-5C291.9,13.2,291.9,13,291.9,12.8L291.9,12.8z"/>
		<path id="Caminho_4296" class="st8" d="M305,12.8c-0.1-3.8,2.9-7,6.7-7.2c0.2,0,0.4,0,0.6,0c2.2-0.1,4.3,0.9,5.5,2.8l-1.4,1
			c-0.9-1.3-2.5-2.1-4.1-2.1c-3,0.1-5.4,2.6-5.3,5.6c0.1,2.9,2.4,5.3,5.3,5.3c1.6,0.1,3.2-0.7,4.1-2.1l1.4,1
			c-1.2,1.8-3.3,2.9-5.5,2.8c-3.8,0.2-7.1-2.8-7.2-6.6C305,13.2,305,13,305,12.8L305,12.8z"/>
		<path id="Caminho_4297" class="st8" d="M319.9,12.8c0-4,3.2-7.2,7.2-7.2c4,0,7.2,3.2,7.2,7.2c0,3.9-3.2,7.1-7.2,7.2
			c-3.8,0.1-7-2.8-7.2-6.7C319.9,13.2,319.9,13,319.9,12.8z M332.3,12.8c-0.1-2.9-2.6-5.1-5.5-5c-2.9,0.1-5.1,2.6-5,5.5
			c0.1,2.8,2.5,5,5.3,5C330.1,18.3,332.3,16.2,332.3,12.8L332.3,12.8z"/>
		<path id="Caminho_4298" class="st8" d="M361.3,11.7v8.2h-1.9v-8c0-3-1.5-4.5-4-4.5c-2.9,0-4.7,1.9-4.7,5.1v7.4h-1.9v-8
			c0-3-1.5-4.5-4.1-4.5c-2.9,0-4.7,1.9-4.7,5.1v7.4h-1.9V5.8h1.8v2.6c1.1-1.8,3.1-2.8,5.2-2.7c2.1-0.2,4.1,1,5,3
			c1.2-1.9,3.3-3.1,5.6-3C359.1,5.7,361.3,7.7,361.3,11.7L361.3,11.7z"/>
		<path id="Caminho_4299" class="st8" d="M365.1,12.8c0-4,3.2-7.2,7.2-7.2c4,0,7.2,3.2,7.2,7.2c0,3.9-3.2,7.1-7.2,7.2
			c-3.8,0.1-7-2.8-7.2-6.7C365.1,13.2,365.1,13,365.1,12.8z M377.5,12.8c-0.1-2.9-2.6-5.1-5.5-5s-5.1,2.6-5,5.5c0.1,2.8,2.4,5,5.3,5
			c2.8,0.1,5.2-2.2,5.2-5C377.5,13.2,377.5,13,377.5,12.8z"/>
		<path id="Caminho_4300" class="st8" d="M406.3,12.8c0.2,3.8-2.7,7-6.4,7.2c-0.2,0-0.4,0-0.6,0c-2.1,0.1-4.2-1-5.4-2.8v7.8H392V5.8
			h1.8v2.8c1.2-1.9,3.2-3,5.4-2.9c3.8-0.1,6.9,2.8,7,6.6C406.3,12.5,406.3,12.7,406.3,12.8z M404.4,12.8c-0.1-2.9-2.6-5.1-5.5-5
			c-2.9,0.1-5.1,2.6-5,5.5c0.1,2.8,2.4,5,5.3,5c2.9,0.1,5.2-2.2,5.3-5.1C404.4,13.1,404.4,13,404.4,12.8L404.4,12.8z"/>
		<path id="Caminho_4301" class="st8" d="M408.8,12.8c0-4,3.2-7.2,7.2-7.2c4,0,7.2,3.2,7.2,7.2c0,3.9-3.2,7.1-7.2,7.2
			c-3.8,0.1-7-2.8-7.2-6.7C408.7,13.2,408.7,13,408.8,12.8z M421.1,12.8c-0.1-2.9-2.6-5.1-5.5-5c-2.9,0.1-5.1,2.6-5,5.5
			c0.1,2.8,2.5,5,5.3,5C418.9,18.3,421.1,16.2,421.1,12.8z"/>
		<path id="Caminho_4302" class="st8" d="M439.9,11.7v8.2H438v-8c0-3-1.6-4.5-4.2-4.5c-3,0-4.9,1.9-4.9,5.1v7.4H427V5.8h1.8v2.6
			c1.2-1.8,3.2-2.8,5.4-2.7C437.6,5.7,439.9,7.7,439.9,11.7L439.9,11.7z"/>
		<path id="Caminho_4303" class="st8" d="M452.5,19c-0.8,0.7-1.9,1-3,1c-2.7,0-4.1-1.5-4.1-4.1V7.4h-2.5V5.8h2.5V2.7h1.9v3.1h4.3
			v1.6h-4.3v8.4c-0.2,1.2,0.7,2.4,1.9,2.6c0.2,0,0.3,0,0.5,0c0.8,0,1.5-0.2,2.1-0.7L452.5,19L452.5,19z"/>
		<path id="Caminho_4304" class="st8" d="M454,12.8c0-4,3.2-7.2,7.2-7.2c4,0,7.2,3.2,7.2,7.2c0,3.9-3.2,7.1-7.2,7.2
			c-3.8,0.1-7-2.8-7.2-6.7C454,13.2,454,13,454,12.8z M466.4,12.8c-0.1-2.9-2.6-5.1-5.5-5c-2.9,0.1-5.1,2.6-5,5.5
			c0.1,2.8,2.5,5,5.3,5C464.2,18.3,466.4,16.2,466.4,12.8L466.4,12.8z"/>
		<path id="Caminho_4305" class="st8" d="M493.8,0v19.9H492v-2.8c-1.1,1.9-3.2,3-5.4,2.9c-4-0.1-7.1-3.4-7-7.3c0.1-3.8,3.2-6.9,7-7
			c2.1-0.1,4.2,1,5.4,2.8V0L493.8,0L493.8,0z M491.9,12.8c-0.1-2.9-2.6-5.1-5.5-5c-2.9,0.1-5.1,2.6-5,5.5c0.1,2.8,2.4,5,5.3,5
			c2.8,0.1,5.2-2.2,5.2-5C491.9,13.2,491.9,13,491.9,12.8L491.9,12.8z"/>
		<path id="Caminho_4306" class="st8" d="M511.4,13.4h-11.8c0.2,2.9,2.6,5.1,5.5,4.9c0,0,0,0,0,0c1.6,0.1,3.2-0.6,4.3-1.8l1.1,1.2
			c-1.4,1.5-3.4,2.4-5.4,2.3c-4.4,0-7.4-3-7.4-7.2c-0.2-3.7,2.7-6.9,6.4-7.1c0.2,0,0.3,0,0.5,0c4,0,6.8,2.9,6.8,7.2
			C511.4,13,511.4,13.2,511.4,13.4L511.4,13.4z M499.6,12h10c-0.2-2.8-2.5-4.9-5.3-4.7C501.7,7.5,499.7,9.5,499.6,12L499.6,12z"/>
		<path id="Caminho_4307" class="st8" d="M538.2,12.8c0.2,3.8-2.7,7-6.4,7.2c-0.2,0-0.4,0-0.6,0c-2.1,0.1-4.2-1-5.4-2.8v7.8H524V5.8
			h1.8v2.8c1.2-1.9,3.2-3,5.4-2.9c3.8-0.1,6.9,2.8,7,6.6C538.2,12.5,538.2,12.7,538.2,12.8z M536.3,12.8c-0.1-2.9-2.6-5.1-5.5-5
			c-2.9,0.1-5.1,2.6-5,5.5c0.1,2.8,2.4,5,5.3,5c2.9,0,5.2-2.2,5.3-5.1C536.3,13.1,536.3,13,536.3,12.8L536.3,12.8z"/>
		<path id="Caminho_4308" class="st8" d="M552.6,11.2v8.7h-1.8v-2.2c-1.1,1.6-2.9,2.5-4.8,2.3c-3.2,0-5.1-1.7-5.1-4.1
			c0-2.2,1.4-4,5.4-4h4.5v-0.9c0-2.4-1.4-3.7-4-3.7c-1.7,0-3.4,0.6-4.7,1.7l-0.9-1.4c1.6-1.3,3.6-2,5.7-1.9
			C550.6,5.7,552.6,7.6,552.6,11.2L552.6,11.2z M550.7,15.7v-2.3h-4.4c-2.7,0-3.6,1.1-3.6,2.5c0,1.6,1.3,2.7,3.6,2.7
			C548.2,18.7,550,17.5,550.7,15.7L550.7,15.7z"/>
		<path id="Caminho_4309" class="st8" d="M564.9,5.7v1.8c-0.2,0-0.3,0-0.5,0c-2.9,0-4.7,1.9-4.7,5.2v7.2h-1.9V5.8h1.8v2.7
			C560.5,6.7,562.3,5.7,564.9,5.7L564.9,5.7z"/>
		<path id="Caminho_4310" class="st8" d="M576.4,19c-0.8,0.7-1.9,1-3,1c-2.7,0-4.1-1.5-4.1-4.1V7.4h-2.5V5.8h2.5V2.7h1.9v3.1h4.3
			v1.6h-4.3v8.4c-0.2,1.2,0.7,2.4,1.9,2.6c0.2,0,0.3,0,0.5,0c0.8,0,1.5-0.2,2.1-0.7L576.4,19L576.4,19z"/>
		<path id="Caminho_4311" class="st8" d="M579.4,1.4c0-0.8,0.6-1.4,1.4-1.3c0,0,0,0,0,0c0.7,0,1.4,0.6,1.4,1.3c0,0,0,0,0,0
			c0,0.8-0.6,1.4-1.4,1.4C580,2.7,579.4,2.1,579.4,1.4L579.4,1.4z M579.8,5.8h1.9v14.1h-1.9V5.8z"/>
		<path id="Caminho_4312" class="st8" d="M599.9,0v19.9H598v-2.8c-1.1,1.9-3.2,3-5.4,2.9c-4-0.1-7.1-3.4-7-7.3c0.1-3.8,3.2-6.9,7-7
			c2.1-0.1,4.2,1,5.4,2.8V0L599.9,0L599.9,0z M598,12.8c-0.1-2.9-2.6-5.1-5.5-5c-2.9,0.1-5.1,2.6-5,5.5c0.1,2.8,2.4,5,5.3,5
			c2.8,0.1,5.2-2.2,5.2-5C598,13.2,598,13,598,12.8z"/>
		<path id="Caminho_4313" class="st8" d="M615.8,11.2v8.7H614v-2.2c-1.1,1.6-2.9,2.5-4.8,2.3c-3.2,0-5.1-1.7-5.1-4.1
			c0-2.2,1.4-4,5.4-4h4.5v-0.9c0-2.4-1.4-3.7-4-3.7c-1.7,0-3.4,0.6-4.7,1.7l-0.9-1.4c1.6-1.3,3.6-2,5.7-1.9
			C613.7,5.7,615.8,7.6,615.8,11.2L615.8,11.2z M613.9,15.7v-2.3h-4.4c-2.7,0-3.6,1.1-3.6,2.5c0,1.6,1.3,2.7,3.6,2.7
			C611.3,18.7,613.2,17.5,613.9,15.7L613.9,15.7z"/>
		<path id="Caminho_4314" class="st8" d="M636.7,5.7v1.8c-0.2,0-0.3,0-0.5,0c-2.9,0-4.7,1.9-4.7,5.2v7.2h-1.9V5.8h1.8v2.7
			C632.3,6.7,634.1,5.7,636.7,5.7L636.7,5.7z"/>
		<path id="Caminho_4315" class="st8" d="M652.3,13.4h-11.8c0.2,2.9,2.6,5.1,5.5,4.9c0,0,0,0,0,0c1.6,0.1,3.2-0.6,4.3-1.8l1.1,1.2
			c-1.4,1.5-3.4,2.4-5.4,2.3c-4.4,0-7.4-3-7.4-7.2c-0.2-3.7,2.7-6.9,6.4-7.1c0.2,0,0.3,0,0.5,0c4,0,6.8,2.9,6.8,7.2
			C652.4,13,652.4,13.2,652.3,13.4L652.3,13.4z M640.6,12h10c-0.2-2.8-2.5-4.9-5.3-4.7C642.7,7.5,640.7,9.5,640.6,12L640.6,12z"/>
		<path id="Caminho_4316" class="st8" d="M656.2,0h1.9v19.9h-1.9V0z"/>
		<path id="Caminho_4317" class="st8" d="M675.7,13.4h-11.8c0.2,2.9,2.6,5.1,5.5,4.9c0,0,0,0,0,0c1.6,0.1,3.2-0.6,4.3-1.8l1.1,1.2
			c-1.4,1.5-3.4,2.4-5.4,2.3c-4.4,0-7.4-3-7.4-7.2c-0.2-3.7,2.7-6.9,6.4-7.1c0.2,0,0.3,0,0.5,0c4,0,6.8,2.9,6.8,7.2
			C675.7,13,675.7,13.2,675.7,13.4L675.7,13.4z M663.9,12h10c-0.2-2.8-2.5-4.9-5.3-4.7C666.1,7.5,664,9.5,663.9,12L663.9,12z"/>
		<path id="Caminho_4318" class="st8" d="M691.2,5.8l-6.3,14.1H683l-6.2-14.1h2l5.3,12l5.3-12H691.2L691.2,5.8z"/>
		<path id="Caminho_4319" class="st8" d="M704.1,11.2v8.7h-1.8v-2.2c-1.1,1.6-2.9,2.5-4.8,2.3c-3.2,0-5.1-1.7-5.1-4.1
			c0-2.2,1.4-4,5.4-4h4.5v-0.9c0-2.4-1.4-3.7-4-3.7c-1.7,0-3.4,0.6-4.7,1.7l-0.9-1.4c1.6-1.3,3.6-2,5.7-1.9
			C702,5.7,704.1,7.6,704.1,11.2L704.1,11.2z M702.2,15.7v-2.3h-4.4c-2.7,0-3.6,1.1-3.6,2.5c0,1.6,1.3,2.7,3.6,2.7
			C699.6,18.7,701.5,17.5,702.2,15.7L702.2,15.7z"/>
		<path id="Caminho_4320" class="st8" d="M722.2,11.7v8.2h-1.9v-8c0-3-1.6-4.5-4.2-4.5c-3,0-4.9,1.9-4.9,5.1v7.4h-1.9V5.8h1.8v2.6
			c1.2-1.8,3.2-2.8,5.4-2.7C719.9,5.7,722.2,7.7,722.2,11.7L722.2,11.7z"/>
		<path id="Caminho_4321" class="st8" d="M734.8,19c-0.8,0.7-1.9,1-3,1c-2.7,0-4.1-1.5-4.1-4.1V7.4h-2.5V5.8h2.5V2.7h1.9v3.1h4.3
			v1.6h-4.3v8.4c-0.2,1.2,0.7,2.4,1.9,2.6c0.2,0,0.3,0,0.5,0c0.8,0,1.5-0.2,2.1-0.7L734.8,19L734.8,19z"/>
		<path id="Caminho_4322" class="st8" d="M750,13.4h-11.8c0.2,2.9,2.6,5.1,5.5,4.9c0,0,0,0,0,0c1.6,0.1,3.2-0.6,4.3-1.8l1.1,1.2
			c-1.4,1.5-3.4,2.4-5.4,2.3c-4.4,0-7.4-3-7.4-7.2c-0.2-3.7,2.7-6.9,6.4-7.1c0.2,0,0.3,0,0.5,0c4,0,6.8,2.9,6.8,7.2
			C750.1,13,750,13.2,750,13.4L750,13.4z M738.2,12h10c-0.2-2.8-2.5-4.9-5.3-4.7C740.4,7.5,738.4,9.5,738.2,12L738.2,12z"/>
	</g>
	<g id="Grupo_2383" transform="translate(134.847 233.134)">
		<path id="Caminho_4323" class="st8" d="M14.3,0v19.9h-1.8v-2.8C11.3,19,9.2,20.1,7,20c-4-0.1-7.1-3.4-7-7.3c0.1-3.8,3.2-6.9,7-7
			c2.1-0.1,4.2,1,5.4,2.8V0L14.3,0L14.3,0z M12.4,12.8c-0.1-2.9-2.6-5.1-5.5-5C4,8,1.8,10.5,1.9,13.3c0.1,2.8,2.4,5,5.3,5
			c2.8,0.1,5.2-2.2,5.2-5C12.4,13.2,12.4,13,12.4,12.8z"/>
		<path id="Caminho_4324" class="st8" d="M31.8,13.4H20c0.2,2.9,2.6,5.1,5.5,4.9c0,0,0,0,0,0c1.6,0.1,3.2-0.6,4.3-1.8l1.1,1.2
			c-1.4,1.5-3.4,2.4-5.4,2.3c-4.4,0-7.4-3-7.4-7.2c-0.2-3.7,2.7-6.9,6.4-7.1c0.2,0,0.3,0,0.5,0c4,0,6.8,2.9,6.8,7.2
			C31.9,13,31.8,13.2,31.8,13.4L31.8,13.4z M20,12h10c-0.2-2.8-2.5-4.9-5.3-4.7C22.2,7.5,20.2,9.5,20,12L20,12z"/>
		<path id="Caminho_4325" class="st8" d="M51.1,19c-0.8,0.7-1.9,1-3,1c-2.7,0-4.1-1.5-4.1-4.1V7.4h-2.5V5.8H44V2.7h1.9v3.1h4.3v1.6
			h-4.3v8.4c-0.2,1.2,0.7,2.4,1.9,2.6c0.2,0,0.3,0,0.5,0c0.8,0,1.5-0.2,2.1-0.7L51.1,19L51.1,19z"/>
		<path id="Caminho_4326" class="st8" d="M52.6,12.8c0-4,3.2-7.2,7.2-7.2c4,0,7.2,3.2,7.2,7.2c0,3.9-3.2,7.1-7.2,7.2
			c-3.8,0.1-7-2.8-7.2-6.7C52.6,13.2,52.6,13,52.6,12.8z M65,12.8c-0.1-2.9-2.6-5.1-5.5-5c-2.9,0.1-5.1,2.6-5,5.5
			c0.1,2.8,2.4,5,5.3,5c2.8,0.1,5.2-2.2,5.2-5C65,13.2,65,13,65,12.8z"/>
		<path id="Caminho_4327" class="st8" d="M83.7,0v19.9h-1.8v-2.8c-1.1,1.9-3.2,3-5.4,2.9c-4-0.1-7.1-3.4-7-7.3c0.1-3.8,3.2-6.9,7-7
			c2.1-0.1,4.2,1,5.4,2.8V0L83.7,0L83.7,0z M81.8,12.8c-0.1-2.9-2.6-5.1-5.5-5c-2.9,0.1-5.1,2.6-5,5.5c0.1,2.8,2.4,5,5.3,5
			c2.8,0.1,5.2-2.2,5.2-5C81.8,13.2,81.8,13,81.8,12.8z"/>
		<path id="Caminho_4328" class="st8" d="M99.6,11.1v8.7h-1.8v-2.2c-1.1,1.6-2.9,2.5-4.8,2.3c-3.2,0-5.1-1.7-5.1-4.1
			c0-2.2,1.4-4,5.4-4h4.5v-0.9c0-2.4-1.4-3.7-4-3.7C92,7.3,90.3,7.9,89,9l-0.9-1.4c1.6-1.3,3.6-2,5.7-1.9
			C97.5,5.7,99.6,7.5,99.6,11.1L99.6,11.1z M97.7,15.6v-2.3h-4.4c-2.7,0-3.6,1.1-3.6,2.5c0,1.6,1.3,2.7,3.6,2.7
			C95.2,18.6,97,17.5,97.7,15.6L97.7,15.6z"/>
		<path id="Caminho_4329" class="st8" d="M102.8,18.3l0.9-1.5c1.5,1,3.2,1.6,5,1.6c2.7,0,3.8-0.9,3.8-2.3c0-3.7-9.1-0.8-9.1-6.3
			c0-2.3,2-4,5.6-4c1.8,0,3.5,0.4,5,1.3L113,8.5c-1.2-0.8-2.7-1.2-4.2-1.2c-2.5,0-3.7,1-3.7,2.3c0,3.8,9.1,0.9,9.1,6.3
			c0,2.4-2.1,4-5.8,4C106.5,20.1,104.5,19.4,102.8,18.3L102.8,18.3z"/>
		<path id="Caminho_4330" class="st8" d="M136.4,11.1v8.7h-1.8v-2.2c-1.1,1.6-2.9,2.5-4.8,2.3c-3.2,0-5.1-1.7-5.1-4.1
			c0-2.2,1.4-4,5.4-4h4.5v-0.9c0-2.4-1.4-3.7-4-3.7c-1.7,0-3.4,0.6-4.7,1.7L125,7.6c1.6-1.3,3.6-2,5.7-1.9
			C134.4,5.7,136.4,7.5,136.4,11.1L136.4,11.1z M134.5,15.6v-2.3h-4.4c-2.7,0-3.6,1.1-3.6,2.5c0,1.6,1.3,2.7,3.6,2.7
			C132,18.6,133.8,17.5,134.5,15.6L134.5,15.6z"/>
		<path id="Caminho_4331" class="st8" d="M139.6,18.3l0.9-1.5c1.5,1,3.2,1.6,5,1.6c2.7,0,3.8-0.9,3.8-2.3c0-3.7-9.1-0.8-9.1-6.3
			c0-2.3,2-4,5.6-4c1.8,0,3.5,0.4,5,1.3l-0.8,1.5c-1.2-0.8-2.7-1.2-4.2-1.2c-2.5,0-3.7,1-3.7,2.3c0,3.8,9.1,0.9,9.1,6.3
			c0,2.4-2.1,4-5.8,4C143.3,20.1,141.3,19.4,139.6,18.3z"/>
		<path id="Caminho_4332" class="st8" d="M161.2,12.8c-0.1-3.8,2.9-7,6.7-7.2c0.2,0,0.4,0,0.6,0c2.2-0.1,4.3,0.9,5.5,2.8l-1.4,1
			c-0.9-1.3-2.5-2.1-4.1-2.1c-3,0.1-5.4,2.6-5.3,5.6c0.1,2.9,2.4,5.3,5.3,5.3c1.6,0.1,3.2-0.7,4.1-2.1l1.4,1
			c-1.2,1.8-3.3,2.9-5.5,2.8c-3.8,0.2-7.1-2.8-7.2-6.6C161.2,13.2,161.2,13,161.2,12.8L161.2,12.8z"/>
		<path id="Caminho_4333" class="st8" d="M176.1,12.8c0-4,3.2-7.2,7.2-7.2c4,0,7.2,3.2,7.2,7.2c0,3.9-3.2,7.1-7.2,7.2
			c-3.8,0.1-7-2.8-7.2-6.7C176.1,13.2,176.1,13,176.1,12.8z M188.4,12.8c-0.1-2.9-2.6-5.1-5.5-5c-2.9,0.1-5.1,2.6-5,5.5
			c0.1,2.8,2.4,5,5.3,5c2.8,0.1,5.2-2.2,5.2-5C188.5,13.2,188.5,13,188.4,12.8z"/>
		<path id="Caminho_4334" class="st8" d="M207.2,11.7v8.2h-1.9v-8c0-3-1.6-4.5-4.2-4.5c-3,0-4.9,1.9-4.9,5.1v7.4h-1.9V5.8h1.8v2.6
			c1.2-1.8,3.2-2.8,5.4-2.7C204.9,5.7,207.2,7.7,207.2,11.7L207.2,11.7z"/>
		<path id="Caminho_4335" class="st8" d="M210.4,18.3l0.9-1.5c1.5,1,3.2,1.6,5,1.6c2.7,0,3.8-0.9,3.8-2.3c0-3.7-9.1-0.8-9.1-6.3
			c0-2.3,2-4,5.6-4c1.8,0,3.5,0.4,5,1.3l-0.8,1.5c-1.2-0.8-2.7-1.2-4.2-1.2c-2.5,0-3.7,1-3.7,2.3c0,3.8,9.1,0.9,9.1,6.3
			c0,2.4-2.1,4-5.8,4C214.1,20.1,212.1,19.4,210.4,18.3z"/>
		<path id="Caminho_4336" class="st8" d="M225,1.4c0-0.8,0.6-1.4,1.4-1.3c0,0,0,0,0,0c0.7,0,1.4,0.6,1.4,1.3c0,0,0,0,0,0
			c0,0.8-0.6,1.4-1.4,1.4C225.7,2.7,225.1,2.1,225,1.4L225,1.4z M225.5,5.8h1.9v14.1h-1.9V5.8z"/>
		<path id="Caminho_4337" class="st8" d="M245.5,0v19.9h-1.8v-2.8c-1.1,1.9-3.2,3-5.4,2.9c-4-0.1-7.1-3.4-7-7.3c0.1-3.8,3.2-6.9,7-7
			c2.1-0.1,4.2,1,5.4,2.8V0L245.5,0L245.5,0z M243.6,12.8c-0.1-2.9-2.6-5.1-5.5-5c-2.9,0.1-5.1,2.6-5,5.5c0.1,2.8,2.4,5,5.3,5
			c2.8,0.1,5.2-2.2,5.2-5C243.6,13.2,243.6,13,243.6,12.8z"/>
		<path id="Caminho_4338" class="st8" d="M263.1,13.4h-11.8c0.2,2.9,2.6,5.1,5.5,4.9c0,0,0,0,0,0c1.6,0.1,3.2-0.6,4.3-1.8l1.1,1.2
			c-1.4,1.5-3.4,2.4-5.4,2.3c-4.4,0-7.4-3-7.4-7.2c-0.2-3.7,2.7-6.9,6.4-7.1c0.2,0,0.3,0,0.5,0c4,0,6.8,2.9,6.8,7.2
			C263.1,13,263.1,13.2,263.1,13.4L263.1,13.4z M251.3,12h10c-0.2-2.8-2.5-4.9-5.3-4.7C253.4,7.5,251.4,9.5,251.3,12L251.3,12z"/>
		<path id="Caminho_4339" class="st8" d="M274,5.7v1.8c-0.2,0-0.3,0-0.5,0c-2.9,0-4.7,1.9-4.7,5.2v7.2h-1.9V5.8h1.8v2.7
			C269.6,6.7,271.4,5.7,274,5.7L274,5.7z"/>
		<path id="Caminho_4340" class="st8" d="M288.1,11.1v8.7h-1.8v-2.2c-1.1,1.6-2.9,2.5-4.8,2.3c-3.2,0-5.1-1.7-5.1-4.1
			c0-2.2,1.4-4,5.4-4h4.5v-0.9c0-2.4-1.4-3.7-4-3.7c-1.7,0-3.4,0.6-4.7,1.7l-0.9-1.4c1.6-1.3,3.6-2,5.7-1.9
			C286,5.7,288.1,7.5,288.1,11.1L288.1,11.1z M286.2,15.6v-2.3h-4.4c-2.7,0-3.6,1.1-3.6,2.5c0,1.6,1.3,2.7,3.6,2.7
			C283.6,18.6,285.5,17.5,286.2,15.6L286.2,15.6z"/>
		<path id="Caminho_4341" class="st8" d="M303.2,16.2l1.4,1c-1.2,1.8-3.3,2.9-5.5,2.8h0l-0.3,1.3c1.2,0,2.2,0.9,2.3,2.1
			c0,0,0,0,0,0.1c0,1.4-1.2,2.3-3,2.3c-0.8,0-1.6-0.2-2.2-0.6l0.5-1c0.5,0.3,1.1,0.5,1.8,0.5c1.1,0,1.7-0.5,1.7-1.3
			c0-0.7-0.5-1.2-1.7-1.2h-0.6l0.6-2.2c-3.9-0.6-6.6-4.3-6-8.2c0.5-3.5,3.6-6.1,7.2-6.1c2.2-0.1,4.3,0.9,5.5,2.8l-1.4,1
			c-0.9-1.3-2.5-2.1-4.1-2.1c-3,0.1-5.4,2.6-5.3,5.6c0.1,2.9,2.4,5.3,5.3,5.3C300.8,18.4,302.4,17.6,303.2,16.2L303.2,16.2z"/>
		<path id="Caminho_4342" class="st8" d="M306.7,12.8c0-4,3.2-7.2,7.2-7.2c4,0,7.2,3.2,7.2,7.2c0,3.9-3.2,7.1-7.2,7.2
			c-3.8,0.1-7-2.8-7.2-6.7C306.7,13.2,306.7,13,306.7,12.8z M319.1,12.8c-0.1-2.9-2.6-5.1-5.5-5c-2.9,0.1-5.1,2.6-5,5.5
			c0.1,2.8,2.4,5,5.3,5c2.8,0.1,5.2-2.2,5.2-5C319.1,13.2,319.1,13,319.1,12.8z M312.2,1.7c-0.8,0-1.3,0.6-1.4,1.7h-1.1
			c0-1.8,1-2.9,2.4-2.9c1.7,0,2.5,1.8,3.5,1.8c0.8,0,1.3-0.6,1.4-1.7h1.1c0,1.8-1,2.9-2.4,2.9C314,3.5,313.2,1.7,312.2,1.7
			L312.2,1.7z"/>
		<path id="Caminho_4343" class="st8" d="M337.2,13.4h-11.8c0.2,2.9,2.6,5.1,5.5,4.9c0,0,0,0,0,0c1.6,0.1,3.2-0.6,4.3-1.8l1.1,1.2
			c-1.4,1.5-3.4,2.4-5.4,2.3c-4.4,0-7.4-3-7.4-7.2c-0.2-3.7,2.7-6.9,6.4-7.1c0.2,0,0.3,0,0.5,0c4,0,6.8,2.9,6.8,7.2
			C337.2,13,337.2,13.2,337.2,13.4L337.2,13.4z M325.4,12h10c-0.2-2.8-2.5-4.9-5.3-4.7C327.5,7.5,325.5,9.5,325.4,12L325.4,12z"/>
		<path id="Caminho_4344" class="st8" d="M339.1,18.3l0.9-1.5c1.5,1,3.2,1.6,5,1.6c2.7,0,3.8-0.9,3.8-2.3c0-3.7-9.1-0.8-9.1-6.3
			c0-2.3,2-4,5.6-4c1.8,0,3.5,0.4,5,1.3l-0.8,1.5c-1.2-0.8-2.7-1.2-4.2-1.2c-2.5,0-3.7,1-3.7,2.3c0,3.8,9.1,0.9,9.1,6.3
			c0,2.4-2.1,4-5.8,4C342.8,20.1,340.8,19.4,339.1,18.3z"/>
		<path id="Caminho_4345" class="st8" d="M360.2,18.3l0.9-1.5c1.5,1,3.2,1.6,5,1.6c2.7,0,3.8-0.9,3.8-2.3c0-3.7-9.1-0.8-9.1-6.3
			c0-2.3,2-4,5.6-4c1.8,0,3.5,0.4,5,1.3l-0.8,1.5c-1.2-0.8-2.7-1.2-4.2-1.2c-2.5,0-3.7,1-3.7,2.3c0,3.8,9.1,0.9,9.1,6.3
			c0,2.4-2.1,4-5.8,4C363.9,20.1,361.9,19.4,360.2,18.3z"/>
		<path id="Caminho_4346" class="st8" d="M387.9,5.8v14.1h-1.8v-2.6c-1.1,1.8-3,2.8-5.1,2.7c-3.6,0-5.9-2-5.9-6.1V5.8h1.9v8
			c0,3,1.6,4.5,4.2,4.5c2.9,0,4.8-1.9,4.8-5.1V5.8L387.9,5.8L387.9,5.8z"/>
		<path id="Caminho_4347" class="st8" d="M391.3,18.3l0.9-1.5c1.5,1,3.2,1.6,5,1.6c2.7,0,3.8-0.9,3.8-2.3c0-3.7-9.1-0.8-9.1-6.3
			c0-2.3,2-4,5.6-4c1.8,0,3.5,0.4,5,1.3l-0.8,1.5c-1.2-0.8-2.7-1.2-4.2-1.2c-2.5,0-3.7,1-3.7,2.3c0,3.8,9.1,0.9,9.1,6.3
			c0,2.4-2.1,4-5.8,4C395,20.1,393,19.4,391.3,18.3z"/>
		<path id="Caminho_4348" class="st8" d="M404.9,12.8c-0.1-3.8,2.9-7,6.7-7.2c0.2,0,0.4,0,0.6,0c2.2-0.1,4.3,0.9,5.5,2.8l-1.4,1
			c-0.9-1.3-2.5-2.1-4.1-2.1c-3,0.1-5.4,2.6-5.3,5.6c0.1,2.9,2.4,5.3,5.3,5.3c1.6,0.1,3.2-0.7,4.1-2.1l1.4,1
			c-1.2,1.8-3.3,2.9-5.5,2.8c-3.8,0.2-7.1-2.8-7.2-6.6C404.9,13.2,404.9,13,404.9,12.8L404.9,12.8z"/>
		<path id="Caminho_4349" class="st8" d="M421,1.4c0-0.8,0.6-1.4,1.4-1.3c0,0,0,0,0,0c0.7,0,1.4,0.6,1.4,1.3c0,0,0,0,0,0
			c0,0.8-0.6,1.4-1.4,1.4C421.6,2.7,421,2.1,421,1.4L421,1.4z M421.4,5.8h1.9v14.1h-1.9V5.8z"/>
		<path id="Caminho_4350" class="st8" d="M436,19c-0.8,0.7-1.9,1-3,1c-2.7,0-4.1-1.5-4.1-4.1V7.4h-2.5V5.8h2.5V2.7h1.9v3.1h4.3v1.6
			h-4.3v8.4c-0.2,1.2,0.7,2.4,1.9,2.6c0.2,0,0.3,0,0.5,0c0.8,0,1.5-0.2,2.1-0.7L436,19L436,19z"/>
		<path id="Caminho_4351" class="st8" d="M450.1,11.1v8.7h-1.8v-2.2c-1.1,1.6-2.9,2.5-4.8,2.3c-3.2,0-5.1-1.7-5.1-4.1
			c0-2.2,1.4-4,5.4-4h4.5v-0.9c0-2.4-1.4-3.7-4-3.7c-1.7,0-3.4,0.6-4.7,1.7l-0.9-1.4c1.6-1.3,3.6-2,5.7-1.9
			C448,5.7,450.1,7.5,450.1,11.1L450.1,11.1z M448.2,15.6v-2.3h-4.4c-2.7,0-3.6,1.1-3.6,2.5c0,1.6,1.3,2.7,3.6,2.7
			C445.6,18.6,447.5,17.5,448.2,15.6L448.2,15.6z"/>
		<path id="Caminho_4352" class="st8" d="M468.1,0v19.9h-1.8v-2.8c-1.1,1.9-3.2,3-5.4,2.9c-4-0.1-7.1-3.4-7-7.3c0.1-3.8,3.2-6.9,7-7
			c2.1-0.1,4.2,1,5.4,2.8V0L468.1,0L468.1,0z M466.3,12.8c-0.1-2.9-2.6-5.1-5.5-5c-2.9,0.1-5.1,2.6-5,5.5c0.1,2.8,2.5,5,5.3,5
			C464.1,18.3,466.3,16.2,466.3,12.8z"/>
		<path id="Caminho_4353" class="st8" d="M484.1,11.1v8.7h-1.8v-2.2c-1.1,1.6-2.9,2.5-4.8,2.3c-3.2,0-5.1-1.7-5.1-4.1
			c0-2.2,1.4-4,5.4-4h4.5v-0.9c0-2.4-1.4-3.7-4-3.7c-1.7,0-3.4,0.6-4.7,1.7l-0.9-1.4c1.6-1.3,3.6-2,5.7-1.9
			C482,5.7,484.1,7.5,484.1,11.1L484.1,11.1z M482.2,15.6v-2.3h-4.4c-2.7,0-3.6,1.1-3.6,2.5c0,1.6,1.3,2.7,3.6,2.7
			C479.7,18.6,481.5,17.5,482.2,15.6L482.2,15.6z"/>
		<path id="Caminho_4354" class="st8" d="M487.3,18.3l0.9-1.5c1.5,1,3.2,1.6,5,1.6c2.7,0,3.8-0.9,3.8-2.3c0-3.7-9.1-0.8-9.1-6.3
			c0-2.3,2-4,5.6-4c1.8,0,3.5,0.4,5,1.3l-0.8,1.5c-1.2-0.8-2.7-1.2-4.2-1.2c-2.5,0-3.7,1-3.7,2.3c0,3.8,9.1,0.9,9.1,6.3
			c0,2.4-2.1,4-5.8,4C490.9,20.1,488.9,19.4,487.3,18.3L487.3,18.3z"/>
		<path id="Caminho_4355" class="st8" d="M508.3,18.3l0.9-1.5c1.5,1,3.2,1.6,5,1.6c2.7,0,3.8-0.9,3.8-2.3c0-3.7-9.1-0.8-9.1-6.3
			c0-2.3,2-4,5.6-4c1.8,0,3.5,0.4,5,1.3l-0.8,1.5c-1.2-0.8-2.7-1.2-4.2-1.2c-2.5,0-3.7,1-3.7,2.3c0,3.8,9.1,0.9,9.1,6.3
			c0,2.4-2.1,4-5.8,4C512,20.1,510,19.4,508.3,18.3L508.3,18.3z"/>
		<path id="Caminho_4356" class="st8" d="M521.9,12.8c0-4,3.2-7.2,7.2-7.2c4,0,7.2,3.2,7.2,7.2c0,3.9-3.2,7.1-7.2,7.2
			c-3.8,0.1-7-2.8-7.2-6.7C521.9,13.2,521.9,13,521.9,12.8z M534.3,12.8c-0.1-2.9-2.6-5.1-5.5-5c-2.9,0.1-5.1,2.6-5,5.5
			c0.1,2.8,2.5,5,5.3,5C532.1,18.3,534.3,16.2,534.3,12.8L534.3,12.8z"/>
		<path id="Caminho_4357" class="st8" d="M554.4,12.8c0.2,3.8-2.7,7-6.5,7.2c-0.2,0-0.4,0-0.5,0c-2.2,0.1-4.3-1-5.4-2.9v2.8h-1.8V0
			h1.9v8.5c1.2-1.8,3.2-2.9,5.4-2.8c3.8-0.1,6.9,2.8,7,6.6C554.4,12.5,554.4,12.7,554.4,12.8L554.4,12.8z M552.5,12.8
			c-0.1-2.9-2.6-5.1-5.5-5c-2.9,0.1-5.1,2.6-5,5.5c0.1,2.8,2.4,5,5.3,5c2.8,0.1,5.2-2.2,5.3-5C552.5,13.1,552.5,13,552.5,12.8
			L552.5,12.8z"/>
		<path id="Caminho_4358" class="st8" d="M565.3,5.7v1.8c-0.2,0-0.3,0-0.5,0c-2.9,0-4.7,1.9-4.7,5.2v7.2h-1.9V5.8h1.8v2.7
			C560.9,6.7,562.7,5.7,565.3,5.7L565.3,5.7z"/>
		<path id="Caminho_4359" class="st8" d="M580.9,13.4h-11.8c0.2,2.9,2.6,5.1,5.5,4.9c0,0,0,0,0,0c1.6,0.1,3.2-0.6,4.3-1.8l1.1,1.2
			c-1.4,1.5-3.4,2.4-5.4,2.3c-4.4,0-7.4-3-7.4-7.2c-0.2-3.7,2.7-6.9,6.4-7.1c0.2,0,0.3,0,0.5,0c4,0,6.8,2.9,6.8,7.2
			C581,13,580.9,13.2,580.9,13.4L580.9,13.4z M569.1,12h10c-0.2-2.8-2.5-4.9-5.3-4.7C571.3,7.5,569.3,9.5,569.1,12L569.1,12z"/>
		<path id="Caminho_4360" class="st8" d="M603.4,11.1v8.7h-1.8v-2.2c-1.1,1.6-2.9,2.5-4.8,2.3c-3.2,0-5.1-1.7-5.1-4.1
			c0-2.2,1.4-4,5.4-4h4.5v-0.9c0-2.4-1.4-3.7-4-3.7c-1.7,0-3.4,0.6-4.7,1.7L592,7.6c1.6-1.3,3.6-2,5.7-1.9
			C601.3,5.7,603.4,7.5,603.4,11.1L603.4,11.1z M601.5,15.6v-2.3h-4.4c-2.7,0-3.6,1.1-3.6,2.5c0,1.6,1.3,2.7,3.6,2.7
			C599,18.6,600.8,17.5,601.5,15.6L601.5,15.6z"/>
		<path id="Caminho_4361" class="st8" d="M639.7,11.7v8.2h-1.9v-8c0-3-1.5-4.5-4-4.5c-2.9,0-4.7,1.9-4.7,5.1v7.4h-1.9v-8
			c0-3-1.5-4.5-4.1-4.5c-2.9,0-4.7,1.9-4.7,5.1v7.4h-1.9V5.8h1.8v2.6c1.1-1.8,3.1-2.8,5.2-2.7c2.1-0.2,4.1,1,5,3
			c1.2-1.9,3.3-3.1,5.6-3C637.5,5.7,639.7,7.7,639.7,11.7L639.7,11.7z"/>
		<path id="Caminho_4362" class="st8" d="M655.5,11.1v8.7h-1.8v-2.2c-1.1,1.6-2.9,2.5-4.8,2.3c-3.2,0-5.1-1.7-5.1-4.1
			c0-2.2,1.4-4,5.4-4h4.5v-0.9c0-2.4-1.4-3.7-4-3.7c-1.7,0-3.4,0.6-4.7,1.7l-0.9-1.4c1.6-1.3,3.6-2,5.7-1.9
			C653.5,5.7,655.5,7.5,655.5,11.1L655.5,11.1z M653.6,15.6v-2.3h-4.4c-2.7,0-3.6,1.1-3.6,2.5c0,1.6,1.3,2.7,3.6,2.7
			C651.1,18.6,652.9,17.5,653.6,15.6L653.6,15.6z"/>
		<path id="Caminho_4363" class="st8" d="M668.1,19c-0.8,0.7-1.9,1-3,1c-2.7,0-4.1-1.5-4.1-4.1V7.4h-2.5V5.8h2.5V2.7h1.9v3.1h4.3
			v1.6h-4.3v8.4c-0.2,1.2,0.7,2.4,1.9,2.6c0.2,0,0.3,0,0.5,0c0.8,0,1.5-0.2,2.1-0.7L668.1,19L668.1,19z"/>
		<path id="Caminho_4364" class="st8" d="M683.3,13.4h-11.8c0.2,2.9,2.6,5.1,5.5,4.9c0,0,0,0,0,0c1.6,0.1,3.2-0.6,4.3-1.8l1.1,1.2
			c-1.4,1.5-3.4,2.4-5.4,2.3c-4.4,0-7.4-3-7.4-7.2c-0.2-3.7,2.7-6.9,6.4-7.1c0.2,0,0.3,0,0.5,0c4,0,6.8,2.9,6.8,7.2
			C683.4,13,683.4,13.2,683.3,13.4L683.3,13.4z M671.6,12h10c-0.2-2.8-2.5-4.9-5.3-4.7C673.7,7.5,671.7,9.5,671.6,12L671.6,12z
			 M676.7,3.6h-1.9l3.7-3.3h2.5L676.7,3.6L676.7,3.6z"/>
		<path id="Caminho_4365" class="st8" d="M694.3,5.7v1.8c-0.2,0-0.3,0-0.5,0c-2.9,0-4.7,1.9-4.7,5.2v7.2h-1.9V5.8h1.8v2.7
			C689.9,6.7,691.7,5.7,694.3,5.7L694.3,5.7z"/>
		<path id="Caminho_4366" class="st8" d="M697.3,1.4c0-0.8,0.6-1.4,1.4-1.3c0,0,0,0,0,0c0.7,0,1.4,0.6,1.4,1.3c0,0,0,0,0,0
			c0,0.8-0.6,1.4-1.4,1.4C698,2.7,697.4,2.1,697.3,1.4L697.3,1.4z M697.8,5.8h1.9v14.1h-1.9V5.8z"/>
		<path id="Caminho_4367" class="st8" d="M715.6,11.1v8.7h-1.8v-2.2c-1.1,1.6-2.9,2.5-4.8,2.3c-3.2,0-5.1-1.7-5.1-4.1
			c0-2.2,1.4-4,5.4-4h4.5v-0.9c0-2.4-1.4-3.7-4-3.7c-1.7,0-3.4,0.6-4.7,1.7l-0.9-1.4c1.6-1.3,3.6-2,5.7-1.9
			C713.6,5.7,715.6,7.5,715.6,11.1L715.6,11.1z M713.7,15.6v-2.3h-4.4c-2.7,0-3.6,1.1-3.6,2.5c0,1.6,1.3,2.7,3.6,2.7
			C711.2,18.6,713,17.5,713.7,15.6L713.7,15.6z"/>
		<path id="Caminho_4368" class="st8" d="M741.6,5.8v19.3h-1.9v-7.8c-1.2,1.8-3.2,2.9-5.4,2.8c-4-0.1-7.1-3.4-7-7.3
			c0.1-3.8,3.2-6.9,7-7c2.2-0.1,4.3,1,5.4,2.9V5.8L741.6,5.8z M739.7,12.8c-0.1-2.9-2.6-5.1-5.5-5c-2.9,0.1-5.1,2.6-5,5.5
			c0.1,2.8,2.4,5,5.3,5c2.8,0,5.2-2.2,5.2-5.1C739.7,13.1,739.7,13,739.7,12.8L739.7,12.8z"/>
		<path id="Caminho_4369" class="st8" d="M759.6,5.8v14.1h-1.8v-2.6c-1.1,1.8-3,2.8-5.1,2.7c-3.6,0-5.9-2-5.9-6.1V5.8h1.9v8
			c0,3,1.6,4.5,4.2,4.5c2.9,0,4.8-1.9,4.8-5.1V5.8L759.6,5.8L759.6,5.8z"/>
		<path id="Caminho_4370" class="st8" d="M775.5,11.1v8.7h-1.8v-2.2c-1.1,1.6-2.9,2.5-4.8,2.3c-3.2,0-5.1-1.7-5.1-4.1
			c0-2.2,1.4-4,5.4-4h4.5v-0.9c0-2.4-1.4-3.7-4-3.7c-1.7,0-3.4,0.6-4.7,1.7l-0.9-1.4c1.6-1.3,3.6-2,5.7-1.9
			C773.4,5.7,775.5,7.5,775.5,11.1L775.5,11.1z M773.6,15.6v-2.3h-4.4c-2.7,0-3.6,1.1-3.6,2.5c0,1.6,1.3,2.7,3.6,2.7
			C771.1,18.6,772.9,17.5,773.6,15.6L773.6,15.6z"/>
		<path id="Caminho_4371" class="st8" d="M793.6,11.7v8.2h-1.9v-8c0-3-1.6-4.5-4.2-4.5c-3,0-4.9,1.9-4.9,5.1v7.4h-1.9V5.8h1.8v2.6
			c1.2-1.8,3.2-2.8,5.4-2.7C791.3,5.7,793.6,7.7,793.6,11.7L793.6,11.7z"/>
		<path id="Caminho_4372" class="st8" d="M806.2,19c-0.8,0.7-1.9,1-3,1c-2.7,0-4.1-1.5-4.1-4.1V7.4h-2.5V5.8h2.5V2.7h1.9v3.1h4.3
			v1.6H801v8.4c-0.2,1.2,0.7,2.4,1.9,2.6c0.2,0,0.3,0,0.5,0c0.8,0,1.5-0.2,2.1-0.7L806.2,19L806.2,19z"/>
		<path id="Caminho_4373" class="st8" d="M807.7,12.8c0-4,3.2-7.2,7.2-7.2c4,0,7.2,3.2,7.2,7.2c0,3.9-3.2,7.1-7.2,7.2
			c-3.8,0.1-7-2.8-7.2-6.7C807.7,13.2,807.7,13,807.7,12.8z M820.1,12.8c-0.1-2.9-2.6-5.1-5.5-5c-2.9,0.1-5.1,2.6-5,5.5
			c0.1,2.8,2.4,5,5.3,5c2.8,0.1,5.2-2.2,5.2-5C820.1,13.2,820.1,13,820.1,12.8z"/>
		<path id="Caminho_4374" class="st8" d="M831.9,18.3l0.9-1.5c1.5,1,3.2,1.6,5,1.6c2.7,0,3.8-0.9,3.8-2.3c0-3.7-9.1-0.8-9.1-6.3
			c0-2.3,2-4,5.6-4c1.8,0,3.5,0.4,5,1.3l-0.8,1.5c-1.2-0.8-2.7-1.2-4.2-1.2c-2.5,0-3.7,1-3.7,2.3c0,3.8,9.1,0.9,9.1,6.3
			c0,2.4-2.1,4-5.8,4C835.6,20.1,833.6,19.4,831.9,18.3L831.9,18.3z"/>
		<path id="Caminho_4375" class="st8" d="M857.6,11.1v8.7h-1.8v-2.2c-1.1,1.6-2.9,2.5-4.8,2.3c-3.2,0-5.1-1.7-5.1-4.1
			c0-2.2,1.4-4,5.4-4h4.5v-0.9c0-2.4-1.4-3.7-4-3.7c-1.7,0-3.4,0.6-4.7,1.7l-0.9-1.4c1.6-1.3,3.6-2,5.7-1.9
			C855.5,5.7,857.6,7.5,857.6,11.1L857.6,11.1z M855.7,15.6v-2.3h-4.4c-2.7,0-3.6,1.1-3.6,2.5c0,1.6,1.3,2.7,3.6,2.7
			C853.2,18.6,855,17.5,855.7,15.6L855.7,15.6z M848.9,3.4h-1.1c0-1.8,1-2.9,2.4-2.9c1.7,0,2.5,1.8,3.5,1.8c0.8,0,1.3-0.6,1.4-1.7
			h1.1c0,1.8-1,2.9-2.4,2.9c-1.7,0-2.4-1.8-3.5-1.8C849.4,1.7,848.9,2.3,848.9,3.4L848.9,3.4z"/>
		<path id="Caminho_4376" class="st8" d="M861.4,12.8c0-4,3.2-7.2,7.2-7.2c4,0,7.2,3.2,7.2,7.2c0,3.9-3.2,7.1-7.2,7.2
			c-3.8,0.1-7-2.8-7.2-6.7C861.4,13.2,861.4,13,861.4,12.8z M873.8,12.8c-0.1-2.9-2.6-5.1-5.5-5c-2.9,0.1-5.1,2.6-5,5.5
			c0.1,2.8,2.4,5,5.3,5c2.8,0.1,5.2-2.2,5.2-5C873.8,13.2,873.8,13,873.8,12.8z"/>
	</g>
	<g id="Grupo_2384" transform="translate(134.847 276.899)">
		<path id="Caminho_4377" class="st8" d="M0,12.8c-0.1-3.8,2.9-7,6.7-7.2c0.2,0,0.4,0,0.6,0c2.2-0.1,4.3,0.9,5.5,2.8l-1.4,1
			c-0.9-1.3-2.5-2.1-4.1-2.1C4.2,7.4,1.9,10,1.9,13c0.1,2.9,2.4,5.3,5.3,5.3c1.6,0.1,3.2-0.7,4.1-2.1l1.4,1
			c-1.2,1.8-3.3,2.9-5.5,2.8c-3.8,0.2-7.1-2.8-7.2-6.6C0,13.2,0,13,0,12.8L0,12.8z"/>
		<path id="Caminho_4378" class="st8" d="M29.2,11.7v8.2h-1.9v-8c0-3-1.6-4.5-4.2-4.5c-3,0-4.9,1.9-4.9,5.1v7.4h-1.9V0h1.9v8.2
			c1.2-1.7,3.2-2.7,5.3-2.6C26.9,5.7,29.3,7.7,29.2,11.7L29.2,11.7z"/>
		<path id="Caminho_4379" class="st8" d="M45,11.2v8.7h-1.8v-2.2c-1.1,1.6-2.9,2.5-4.8,2.3c-3.2,0-5.1-1.7-5.1-4.1
			c0-2.2,1.4-4,5.4-4h4.5v-0.9c0-2.4-1.4-3.7-4-3.7c-1.7,0-3.4,0.6-4.7,1.7l-0.9-1.4c1.6-1.3,3.6-2,5.7-1.9C43,5.7,45,7.6,45,11.2
			L45,11.2z M43.1,15.7v-2.3h-4.4c-2.7,0-3.6,1.1-3.6,2.5c0,1.6,1.3,2.7,3.6,2.7C40.6,18.7,42.4,17.5,43.1,15.7L43.1,15.7z"/>
		<path id="Caminho_4380" class="st8" d="M63.2,11.7v8.2h-1.9v-8c0-3-1.6-4.5-4.2-4.5c-3,0-4.9,1.9-4.9,5.1v7.4h-1.9V5.8H52v2.6
			c1.2-1.8,3.2-2.8,5.4-2.7C60.8,5.7,63.2,7.7,63.2,11.7L63.2,11.7z"/>
		<path id="Caminho_4381" class="st8" d="M66.9,12.8c-0.1-3.8,2.9-7,6.7-7.2c0.2,0,0.4,0,0.6,0c2.2-0.1,4.3,0.9,5.5,2.8l-1.4,1
			c-0.9-1.3-2.5-2.1-4.1-2.1c-3,0.1-5.4,2.6-5.3,5.6c0.1,2.9,2.4,5.3,5.3,5.3c1.6,0.1,3.2-0.7,4.1-2.1l1.4,1
			c-1.2,1.8-3.3,2.9-5.5,2.8c-3.8,0.2-7.1-2.8-7.2-6.6C66.9,13.2,66.9,13,66.9,12.8L66.9,12.8z"/>
		<path id="Caminho_4382" class="st8" d="M95.5,13.4H83.7c0.2,2.9,2.6,5.1,5.5,4.9c0,0,0,0,0,0c1.6,0.1,3.2-0.6,4.3-1.8l1.1,1.2
			c-1.4,1.5-3.4,2.4-5.4,2.3c-4.4,0-7.4-3-7.4-7.2c-0.2-3.7,2.7-6.9,6.4-7.1c0.2,0,0.3,0,0.5,0c4,0,6.8,2.9,6.8,7.2
			C95.5,13,95.5,13.2,95.5,13.4L95.5,13.4z M83.7,12h10c-0.2-2.8-2.5-4.9-5.3-4.7C85.9,7.5,83.8,9.5,83.7,12L83.7,12z"/>
		<path id="Caminho_4383" class="st8" d="M99.4,0h1.9v19.9h-1.9V0z"/>
		<path id="Caminho_4384" class="st8" d="M117.2,11.2v8.7h-1.8v-2.2c-1.1,1.6-2.9,2.5-4.8,2.3c-3.2,0-5.1-1.7-5.1-4.1
			c0-2.2,1.4-4,5.4-4h4.5v-0.9c0-2.4-1.4-3.7-4-3.7c-1.7,0-3.4,0.6-4.7,1.7l-0.9-1.4c1.6-1.3,3.6-2,5.7-1.9
			C115.1,5.7,117.2,7.6,117.2,11.2L117.2,11.2z M115.3,15.7v-2.3h-4.4c-2.7,0-3.6,1.1-3.6,2.5c0,1.6,1.3,2.7,3.6,2.7
			C112.8,18.7,114.6,17.5,115.3,15.7L115.3,15.7z"/>
		<path id="Caminho_4385" class="st8" d="M135.2,0v19.9h-1.8v-2.8c-1.1,1.9-3.2,3-5.4,2.9c-4-0.1-7.1-3.4-7-7.3c0.1-3.8,3.2-6.9,7-7
			c2.1-0.1,4.2,1,5.4,2.8V0L135.2,0L135.2,0z M133.4,12.8c-0.1-2.9-2.6-5.1-5.5-5c-2.9,0.1-5.1,2.6-5,5.5c0.1,2.8,2.4,5,5.3,5
			c2.8,0.1,5.2-2.2,5.2-5C133.4,13.2,133.4,13,133.4,12.8z"/>
		<path id="Caminho_4386" class="st8" d="M139.1,12.8c0-4,3.2-7.2,7.2-7.2c4,0,7.2,3.2,7.2,7.2c0,3.9-3.2,7.1-7.2,7.2
			c-3.8,0.1-7-2.8-7.2-6.7C139.1,13.2,139.1,13,139.1,12.8z M151.5,12.8c-0.1-2.9-2.6-5.1-5.5-5c-2.9,0.1-5.1,2.6-5,5.5
			c0.1,2.8,2.4,5,5.3,5c2.8,0.1,5.2-2.2,5.2-5C151.5,13.2,151.5,13,151.5,12.8z"/>
		<path id="Caminho_4387" class="st8" d="M155.4,18.3l0.9-1.5c1.5,1,3.2,1.6,5,1.6c2.7,0,3.8-0.9,3.8-2.3c0-3.7-9.1-0.8-9.1-6.3
			c0-2.3,2-4,5.6-4c1.8,0,3.5,0.4,5,1.3l-0.8,1.5c-1.2-0.8-2.7-1.2-4.2-1.2c-2.5,0-3.7,1-3.7,2.3c0,3.8,9.1,0.9,9.1,6.3
			c0,2.4-2.1,4-5.8,4C159,20.1,157,19.5,155.4,18.3L155.4,18.3z"/>
		<path id="Caminho_4388" class="st8" d="M176,12.8c-0.1-3.8,2.9-7,6.7-7.2c0.2,0,0.4,0,0.6,0c2.2-0.1,4.3,0.9,5.5,2.8l-1.4,1
			c-0.9-1.3-2.5-2.1-4.1-2.1c-3,0.1-5.4,2.6-5.3,5.6c0.1,2.9,2.4,5.3,5.3,5.3c1.6,0.1,3.2-0.7,4.1-2.1l1.4,1
			c-1.2,1.8-3.3,2.9-5.5,2.8c-3.8,0.2-7.1-2.8-7.2-6.6C176,13.2,176,13,176,12.8L176,12.8z"/>
		<path id="Caminho_4389" class="st8" d="M190.8,12.8c0-4,3.2-7.2,7.2-7.2c4,0,7.2,3.2,7.2,7.2c0,3.9-3.2,7.1-7.2,7.2
			c-3.8,0.1-7-2.8-7.2-6.7C190.8,13.2,190.8,13,190.8,12.8z M203.2,12.8c-0.1-2.9-2.6-5.1-5.5-5c-2.9,0.1-5.1,2.6-5,5.5
			c0.1,2.8,2.4,5,5.3,5c2.8,0.1,5.2-2.2,5.2-5C203.2,13.2,203.2,13,203.2,12.8z"/>
		<path id="Caminho_4390" class="st8" d="M232.3,11.7v8.2h-1.9v-8c0-3-1.5-4.5-4-4.5c-2.9,0-4.7,1.9-4.7,5.1v7.4h-1.9v-8
			c0-3-1.5-4.5-4.1-4.5c-2.9,0-4.7,1.9-4.7,5.1v7.4H209V5.8h1.8v2.6c1.1-1.8,3.1-2.8,5.2-2.7c2.1-0.2,4.1,1,5,3
			c1.2-1.9,3.3-3.1,5.6-3C230,5.7,232.3,7.7,232.3,11.7L232.3,11.7z"/>
		<path id="Caminho_4391" class="st8" d="M236.1,12.8c0-4,3.2-7.2,7.2-7.2c4,0,7.2,3.2,7.2,7.2c0,3.9-3.2,7.1-7.2,7.2
			c-3.8,0.1-7-2.8-7.2-6.7C236.1,13.2,236.1,13,236.1,12.8z M248.5,12.8c-0.1-2.9-2.6-5.1-5.5-5c-2.9,0.1-5.1,2.6-5,5.5
			c0.1,2.8,2.4,5,5.3,5c2.8,0.1,5.2-2.2,5.2-5C248.5,13.2,248.5,13,248.5,12.8L248.5,12.8z"/>
	</g>
	<g id="Grupo_2385" transform="translate(394.835 275.707)">
		<path id="Caminho_4392" class="st8" d="M0,2.3C0,1,1.1,0,2.4,0c0.1,0,0.1,0,0.2,0c1.3-0.1,2.5,0.8,2.6,2.1c0,0,0,0.1,0,0.1
			C5.1,3.7,3.8,4.7,2.4,4.6C1.1,4.5,0.1,3.6,0,2.3L0,2.3z M0.5,6.7h4.2v14.4H0.5V6.7z"/>
		<path id="Caminho_4393" class="st8" d="M23.3,12.8v8.2h-4.2v-7.6c0-2.3-1.1-3.4-2.9-3.4c-2,0-3.5,1.2-3.5,3.9v7.1H8.5V6.7h4v1.7
			c1.2-1.3,3-2,4.8-1.9C20.7,6.5,23.3,8.4,23.3,12.8L23.3,12.8z"/>
		<path id="Caminho_4394" class="st8" d="M41.9,1.2v19.9h-4v-1.7c-1.1,1.3-2.8,2-4.5,1.9c-4.1-0.1-7.3-3.5-7.2-7.6
			c0.1-3.9,3.3-7.1,7.2-7.2C35,6.4,36.6,7,37.7,8.2v-7L41.9,1.2L41.9,1.2z M37.8,13.9c-0.2-2-1.9-3.6-4-3.4s-3.6,1.9-3.4,4
			c0.2,1.9,1.8,3.4,3.7,3.4C36.2,17.9,37.8,16.3,37.8,13.9L37.8,13.9z"/>
		<path id="Caminho_4395" class="st8" d="M45.2,2.3C45.2,1,46.3,0,47.6,0c0.1,0,0.1,0,0.2,0c1.3-0.1,2.5,0.8,2.6,2.1
			c0,0,0,0.1,0,0.1c-0.1,1.4-1.4,2.5-2.8,2.4C46.3,4.5,45.3,3.6,45.2,2.3L45.2,2.3z M45.7,6.7h4.2v14.4h-4.2V6.7z"/>
		<path id="Caminho_4396" class="st8" d="M52.4,19.8l1.4-3c1.5,0.9,3.2,1.4,5,1.4c1.9,0,2.7-0.5,2.7-1.3c0-2.4-8.7,0-8.7-5.7
			c0-2.7,2.5-4.6,6.7-4.6c1.9,0,3.8,0.4,5.5,1.3l-1.4,3c-1.3-0.7-2.7-1.1-4.2-1.1c-1.9,0-2.7,0.6-2.7,1.3c0,2.5,8.7,0.1,8.7,5.8
			c0,2.7-2.5,4.6-6.8,4.6C56.5,21.4,54.3,20.8,52.4,19.8L52.4,19.8z"/>
		<path id="Caminho_4397" class="st8" d="M66.9,13.9c0-4.3,3.4-7.4,8-7.4c3,0,5.4,1.3,6.4,3.7l-3.2,1.8c-0.6-1.2-1.9-2-3.2-2
			c-2.2,0.2-3.9,2.1-3.7,4.3c0.1,2,1.7,3.6,3.7,3.7c1.4,0,2.6-0.7,3.2-2l3.2,1.8c-1,2.3-3.4,3.6-6.4,3.6
			C70.2,21.4,66.9,18.3,66.9,13.9L66.9,13.9z"/>
		<path id="Caminho_4398" class="st8" d="M98.3,6.7v14.4h-4v-1.7c-1.1,1.3-2.8,2-4.5,1.9c-3.6,0-6.2-2-6.2-6.5V6.7h4.2v7.5
			c0,2.4,1.1,3.5,2.9,3.5s3.3-1.2,3.3-3.9V6.7L98.3,6.7L98.3,6.7z"/>
		<path id="Caminho_4399" class="st8" d="M111.5,20.4c-1,0.6-2.2,0.9-3.4,0.9c-3.4,0-5.4-1.7-5.4-5.2v-5.9h-2.2V7h2.2V3.5h4.2V7h3.6
			v3.2h-3.6v5.9c-0.1,0.9,0.5,1.8,1.4,1.9c0.1,0,0.3,0,0.4,0c0.6,0,1.2-0.2,1.7-0.5L111.5,20.4L111.5,20.4z"/>
		<path id="Caminho_4400" class="st8" d="M117.1,1h4.5l-4.8,3.8h-3.3L117.1,1L117.1,1z M113.8,6.7h4.2v14.4h-4.2V6.7L113.8,6.7z"/>
		<path id="Caminho_4401" class="st8" d="M136.2,6.7l-6.1,14.4h-4.3l-6.1-14.4h4.3l4,9.8l4.1-9.8L136.2,6.7L136.2,6.7z"/>
		<path id="Caminho_4402" class="st8" d="M151.5,15.1h-10.9c0.4,1.8,1.9,2.9,4.1,2.9c1.3,0,2.7-0.5,3.6-1.4l2.2,2.4
			c-1.5,1.6-3.7,2.5-5.9,2.3c-5,0-8.2-3.1-8.2-7.4c0-4.1,3.2-7.4,7.3-7.4c0.1,0,0.3,0,0.4,0c4.4,0,7.5,2.8,7.5,7.5
			C151.6,14.3,151.5,14.7,151.5,15.1z M140.5,12.6h7.1c-0.3-2-2.2-3.3-4.1-2.9C142,9.9,140.8,11.1,140.5,12.6L140.5,12.6z"/>
		<path id="Caminho_4403" class="st8" d="M153.8,2.3c0-1.3,1.1-2.4,2.4-2.3c0.1,0,0.1,0,0.2,0c1.3-0.1,2.5,0.8,2.6,2.1
			c0,0,0,0.1,0,0.1c-0.1,1.4-1.4,2.5-2.8,2.4C155,4.5,154,3.6,153.8,2.3L153.8,2.3z M154.4,6.7h4.2v14.4h-4.2L154.4,6.7L154.4,6.7z"
			/>
		<path id="Caminho_4404" class="st8" d="M161,19.8l1.4-3c1.5,0.9,3.2,1.4,5,1.4c1.9,0,2.7-0.5,2.7-1.3c0-2.4-8.7,0-8.7-5.7
			c0-2.7,2.5-4.6,6.7-4.6c1.9,0,3.8,0.4,5.5,1.3l-1.4,3c-1.3-0.7-2.7-1.1-4.2-1.1c-1.9,0-2.7,0.6-2.7,1.3c0,2.5,8.7,0.1,8.7,5.8
			c0,2.7-2.5,4.6-6.8,4.6C165.1,21.4,162.9,20.8,161,19.8L161,19.8z"/>
	</g>
</g>
<g>
	<path class="st8" d="M557.4,283.3c0-1.5,1.1-2.5,2.5-2.5s2.5,1,2.5,2.5c0,1.5-1.1,2.5-2.5,2.5S557.4,284.8,557.4,283.3z"/>
</g>
</svg>
