<?xml version="1.0" encoding="UTF-8"?>
<svg id="Layer_2" data-name="Layer 2" xmlns="http://www.w3.org/2000/svg" xmlns:xlink="http://www.w3.org/1999/xlink" viewBox="0 0 695.29 140.73">
  <defs>
    <style>
      .cls-1 {
        fill: #fff;
      }

      .cls-2 {
        fill: url(#radial-gradient);
      }

      .cls-3 {
        fill: #40b7e6;
      }

      .cls-4 {
        fill: url(#radial-gradient-2);
      }

      .cls-5 {
        fill: url(#linear-gradient);
      }
    </style>
    <linearGradient id="linear-gradient" x1="0" y1="-589.89" x2="695.29" y2="-589.89" gradientTransform="translate(0 -519.52) scale(1 -1)" gradientUnits="userSpaceOnUse">
      <stop offset="0" stop-color="#3fd0ff"/>
      <stop offset="1" stop-color="#089cca"/>
    </linearGradient>
    <radialGradient id="radial-gradient" cx="74.44" cy="-539.15" fx="74.44" fy="-539.15" r="106.92" gradientTransform="translate(0 -519.52) scale(1 -1)" gradientUnits="userSpaceOnUse">
      <stop offset="0" stop-color="#fff"/>
      <stop offset="1" stop-color="#e3d8d8"/>
    </radialGradient>
    <radialGradient id="radial-gradient-2" cx="98.45" cy="-641.21" fx="98.45" fy="-641.21" r="108.84" xlink:href="#radial-gradient"/>
  </defs>
  <g id="Layer_1-2" data-name="Layer 1">
    <g>
      <rect class="cls-5" width="695.29" height="140.73"/>
      <g>
        <path class="cls-1" d="m199.35,66.46l.93-2.22c1.16.99,3.01,1.69,4.8,1.69,2.26,0,3.22-.86,3.22-2,0-3.32-8.64-1.14-8.64-6.87,0-2.49,1.87-4.6,5.86-4.6,1.75,0,3.57.48,4.84,1.36l-.85,2.22c-1.31-.81-2.74-1.21-4.01-1.21-2.24,0-3.16.92-3.16,2.09,0,3.28,8.62,1.14,8.62,6.8,0,2.46-1.89,4.58-5.88,4.58-2.26,0-4.53-.75-5.73-1.85h0Z"/>
        <path class="cls-1" d="m224.12,56.34v11.75h-2.47v-1.5c-.83,1.08-2.14,1.65-3.57,1.65-2.85,0-4.78-1.65-4.78-5.19v-6.71h2.6v6.34c0,2.13.96,3.15,2.6,3.15,1.81,0,3.03-1.19,3.03-3.54v-5.94h2.6,0Z"/>
        <path class="cls-1" d="m233.94,56.21v2.62c-.23-.04-.42-.07-.6-.07-1.97,0-3.22,1.23-3.22,3.63v5.7h-2.6v-11.75h2.47v1.72c.75-1.23,2.1-1.85,3.95-1.85h0Z"/>
        <path class="cls-1" d="m247.04,56.34v9.97c0,4.27-2.1,6.21-5.98,6.21-2.08,0-4.13-.57-5.4-1.67l1.16-2.07c.98.86,2.55,1.41,4.09,1.41,2.45,0,3.53-1.19,3.53-3.56v-.62c-.91,1.06-2.22,1.56-3.72,1.56-3.18,0-5.61-2.29-5.61-5.7s2.43-5.66,5.61-5.66c1.56,0,2.93.53,3.84,1.69v-1.56h2.48Zm-2.55,5.52c0-1.98-1.41-3.32-3.36-3.32s-3.38,1.34-3.38,3.32,1.41,3.37,3.38,3.37,3.36-1.36,3.36-3.37Z"/>
        <path class="cls-1" d="m250.09,52.76c0-.92.71-1.65,1.66-1.65s1.66.68,1.66,1.58c0,.97-.69,1.72-1.66,1.72s-1.66-.73-1.66-1.65h0Zm.35,3.59h2.6v11.75h-2.6v-11.75Z"/>
        <path class="cls-1" d="m274.99,61.36v6.73h-2.6v-6.38c0-2.09-.91-3.1-2.49-3.1-1.7,0-2.89,1.19-2.89,3.52v5.96h-2.6v-6.38c0-2.09-.91-3.1-2.49-3.1-1.72,0-2.89,1.19-2.89,3.52v5.96h-2.6v-11.75h2.47v1.5c.83-1.06,2.12-1.63,3.63-1.63,1.62,0,2.97.64,3.74,1.96.89-1.21,2.39-1.96,4.15-1.96,2.68,0,4.55,1.61,4.55,5.15h.02Z"/>
        <path class="cls-1" d="m288.79,63.1h-8.7c.31,1.72,1.66,2.82,3.59,2.82,1.25,0,2.22-.42,3.01-1.28l1.39,1.69c-1,1.25-2.55,1.91-4.47,1.91-3.72,0-6.13-2.53-6.13-6.03s2.43-6.01,5.73-6.01,5.61,2.4,5.61,6.07c0,.22-.02.55-.04.81v.02Zm-8.71-1.83h6.29c-.21-1.69-1.43-2.86-3.14-2.86s-2.91,1.14-3.16,2.86h.01Z"/>
        <path class="cls-1" d="m302.24,61.36v6.73h-2.6v-6.38c0-2.09-.98-3.1-2.64-3.1-1.85,0-3.09,1.19-3.09,3.54v5.94h-2.6v-11.75h2.47v1.52c.85-1.08,2.2-1.65,3.82-1.65,2.66,0,4.63,1.61,4.63,5.15h.01Z"/>
        <path class="cls-1" d="m312.21,67.45c-.62.53-1.56.79-2.49.79-2.43,0-3.82-1.36-3.82-3.96v-5.65h-1.83v-2.2h1.83v-2.68h2.6v2.68h2.97v2.2h-2.97v5.59c0,1.14.54,1.76,1.54,1.76.54,0,1.06-.15,1.45-.48l.73,1.96h-.01Z"/>
        <path class="cls-1" d="m313.06,62.22c0-3.52,2.49-6.01,5.9-6.01s5.92,2.49,5.92,6.01-2.47,6.03-5.92,6.03-5.9-2.51-5.9-6.03Zm9.2,0c0-2.24-1.41-3.67-3.3-3.67s-3.28,1.43-3.28,3.67,1.41,3.67,3.28,3.67,3.3-1.43,3.3-3.67Z"/>
        <path class="cls-1" d="m343.95,51.77v16.33h-2.49v-1.52c-.87,1.12-2.16,1.67-3.68,1.67-3.22,0-5.61-2.38-5.61-6.03s2.39-6.01,5.61-6.01c1.43,0,2.7.51,3.57,1.58v-6.03h2.6Zm-2.55,10.46c0-2.24-1.43-3.67-3.3-3.67s-3.3,1.43-3.3,3.67,1.43,3.67,3.3,3.67,3.3-1.43,3.3-3.67Z"/>
        <path class="cls-1" d="m357.74,63.1h-8.7c.31,1.72,1.66,2.82,3.59,2.82,1.25,0,2.22-.42,3.01-1.28l1.39,1.69c-1,1.25-2.55,1.91-4.47,1.91-3.72,0-6.13-2.53-6.13-6.03s2.43-6.01,5.73-6.01,5.61,2.4,5.61,6.07c0,.22-.02.55-.04.81v.02Zm-8.71-1.83h6.29c-.21-1.69-1.43-2.86-3.14-2.86s-2.91,1.14-3.16,2.86h.01Z"/>
        <path class="cls-1" d="m376.73,56.34v11.75h-2.47v-1.5c-.83,1.08-2.14,1.65-3.57,1.65-2.85,0-4.78-1.65-4.78-5.19v-6.71h2.6v6.34c0,2.13.96,3.15,2.6,3.15,1.81,0,3.03-1.19,3.03-3.54v-5.94h2.6-.01Z"/>
        <path class="cls-1" d="m398.68,61.36v6.73h-2.6v-6.38c0-2.09-.91-3.1-2.49-3.1-1.7,0-2.89,1.19-2.89,3.52v5.96h-2.6v-6.38c0-2.09-.91-3.1-2.49-3.1-1.72,0-2.89,1.19-2.89,3.52v5.96h-2.6v-11.75h2.47v1.5c.83-1.06,2.12-1.63,3.63-1.63,1.62,0,2.97.64,3.74,1.96.89-1.21,2.39-1.96,4.15-1.96,2.68,0,4.55,1.61,4.55,5.15h.02Z"/>
        <path class="cls-1" d="m419.5,62.22c0,3.65-2.39,6.03-5.63,6.03-1.41,0-2.66-.51-3.55-1.58v5.7h-2.6v-16.02h2.47v1.54c.87-1.12,2.16-1.67,3.68-1.67,3.24,0,5.63,2.38,5.63,6.01h0Zm-2.64-.01c0-2.24-1.41-3.67-3.28-3.67s-3.3,1.43-3.3,3.67,1.43,3.67,3.3,3.67,3.28-1.43,3.28-3.67Z"/>
        <path class="cls-1" d="m421.05,62.22c0-3.52,2.49-6.01,5.9-6.01s5.92,2.49,5.92,6.01-2.47,6.03-5.92,6.03-5.9-2.51-5.9-6.03Zm9.2,0c0-2.24-1.41-3.67-3.3-3.67s-3.28,1.43-3.28,3.67,1.41,3.67,3.28,3.67,3.3-1.43,3.3-3.67Z"/>
        <path class="cls-1" d="m446.22,51.77v16.33h-2.49v-1.52c-.87,1.12-2.16,1.67-3.68,1.67-3.22,0-5.61-2.38-5.61-6.03s2.39-6.01,5.61-6.01c1.43,0,2.7.51,3.57,1.58v-6.03h2.6Zm-2.55,10.46c0-2.24-1.43-3.67-3.3-3.67s-3.3,1.43-3.3,3.67,1.43,3.67,3.3,3.67,3.3-1.43,3.3-3.67Z"/>
        <path class="cls-1" d="m460.01,63.1h-8.7c.31,1.72,1.66,2.82,3.59,2.82,1.25,0,2.22-.42,3.01-1.28l1.39,1.69c-1,1.25-2.55,1.91-4.47,1.91-3.72,0-6.13-2.53-6.13-6.03s2.43-6.01,5.73-6.01,5.61,2.4,5.61,6.07c0,.22-.02.55-.04.81v.02Zm-8.71-1.83h6.29c-.21-1.69-1.43-2.86-3.14-2.86s-2.91,1.14-3.16,2.86h.01Z"/>
        <path class="cls-1" d="m468.95,56.21v2.62c-.23-.04-.42-.07-.6-.07-1.97,0-3.22,1.23-3.22,3.63v5.7h-2.6v-11.75h2.47v1.72c.75-1.23,2.1-1.85,3.95-1.85Z"/>
        <path class="cls-1" d="m486.27,61.2v6.89h-2.45v-1.43c-.62,1.01-1.83,1.58-3.49,1.58-2.53,0-4.13-1.47-4.13-3.52s1.25-3.5,4.61-3.5h2.87v-.18c0-1.61-.91-2.55-2.76-2.55-1.25,0-2.53.44-3.36,1.17l-1.02-2c1.18-.97,2.91-1.45,4.69-1.45,3.2,0,5.05,1.61,5.05,5h-.01Zm-2.6,3.2v-1.36h-2.68c-1.77,0-2.24.7-2.24,1.56,0,.99.79,1.63,2.12,1.63s2.37-.62,2.8-1.83Z"/>
        <path class="cls-1" d="m500.55,51.77v16.33h-2.49v-1.52c-.87,1.12-2.16,1.67-3.68,1.67-3.22,0-5.61-2.38-5.61-6.03s2.39-6.01,5.61-6.01c1.43,0,2.7.51,3.57,1.58v-6.03h2.6Zm-2.55,10.46c0-2.24-1.43-3.67-3.3-3.67s-3.3,1.43-3.3,3.67,1.43,3.67,3.3,3.67,3.3-1.43,3.3-3.67Z"/>
        <path class="cls-1" d="m522.5,61.36v6.73h-2.6v-6.38c0-2.09-.91-3.1-2.49-3.1-1.7,0-2.89,1.19-2.89,3.52v5.96h-2.6v-6.38c0-2.09-.91-3.1-2.49-3.1-1.72,0-2.89,1.19-2.89,3.52v5.96h-2.6v-11.75h2.47v1.5c.83-1.06,2.12-1.63,3.63-1.63,1.62,0,2.97.64,3.74,1.96.89-1.21,2.39-1.96,4.15-1.96,2.68,0,4.55,1.61,4.55,5.15h.02Z"/>
        <path class="cls-1" d="m525.46,52.76c0-.92.71-1.65,1.66-1.65s1.66.68,1.66,1.58c0,.97-.69,1.72-1.66,1.72s-1.66-.73-1.66-1.65h0Zm.35,3.59h2.6v11.75h-2.6v-11.75Z"/>
        <path class="cls-1" d="m542.74,61.36v6.73h-2.6v-6.38c0-2.09-.98-3.1-2.64-3.1-1.85,0-3.09,1.19-3.09,3.54v5.94h-2.6v-11.75h2.47v1.52c.85-1.08,2.2-1.65,3.82-1.65,2.66,0,4.63,1.61,4.63,5.15h.01Z"/>
        <path class="cls-1" d="m545.68,52.76c0-.92.71-1.65,1.66-1.65s1.66.68,1.66,1.58c0,.97-.69,1.72-1.66,1.72s-1.66-.73-1.66-1.65h0Zm.35,3.59h2.6v11.75h-2.6v-11.75Z"/>
        <path class="cls-1" d="m550.77,66.93l1-2.09c.98.68,2.47,1.17,3.86,1.17,1.64,0,2.33-.48,2.33-1.3,0-2.24-6.85-.13-6.85-4.82,0-2.22,1.89-3.67,4.88-3.67,1.47,0,3.16.37,4.15,1.01l-1,2.09c-1.06-.66-2.12-.88-3.18-.88-1.58,0-2.33.55-2.33,1.32,0,2.38,6.85.26,6.85,4.86,0,2.2-1.91,3.63-5.03,3.63-1.85,0-3.7-.57-4.69-1.32h.01Z"/>
        <path class="cls-1" d="m569.39,67.45c-.62.53-1.56.79-2.49.79-2.43,0-3.82-1.36-3.82-3.96v-5.65h-1.83v-2.2h1.83v-2.68h2.6v2.68h2.97v2.2h-2.97v5.59c0,1.14.54,1.76,1.54,1.76.54,0,1.06-.15,1.45-.48l.73,1.96h-.01Z"/>
        <path class="cls-1" d="m577.95,56.21v2.62c-.23-.04-.42-.07-.6-.07-1.97,0-3.22,1.23-3.22,3.63v5.7h-2.6v-11.75h2.47v1.72c.75-1.23,2.1-1.85,3.95-1.85Z"/>
        <path class="cls-1" d="m589.37,61.2v6.89h-2.45v-1.43c-.62,1.01-1.83,1.58-3.49,1.58-2.53,0-4.13-1.47-4.13-3.52s1.25-3.5,4.61-3.5h2.87v-.18c0-1.61-.91-2.55-2.76-2.55-1.25,0-2.53.44-3.36,1.17l-1.02-2c1.18-.97,2.91-1.45,4.69-1.45,3.2,0,5.05,1.61,5.05,5h-.01Zm-2.6,3.2v-1.36h-2.68c-1.77,0-2.24.7-2.24,1.56,0,.99.79,1.63,2.12,1.63s2.37-.62,2.8-1.83Z"/>
        <path class="cls-1" d="m599.35,67.45c-.62.53-1.56.79-2.49.79-2.43,0-3.82-1.36-3.82-3.96v-5.65h-1.83v-2.2h1.83v-2.68h2.6v2.68h2.97v2.2h-2.97v5.59c0,1.14.54,1.76,1.54,1.76.54,0,1.06-.15,1.45-.48l.73,1.96h-.01Z"/>
        <path class="cls-1" d="m601.14,52.76c0-.92.71-1.65,1.66-1.65s1.66.68,1.66,1.58c0,.97-.69,1.72-1.66,1.72s-1.66-.73-1.66-1.65h0Zm.35,3.59h2.6v11.75h-2.6v-11.75Z"/>
        <path class="cls-1" d="m617.87,56.34l-4.76,11.75h-2.68l-4.75-11.75h2.7l3.45,8.71,3.55-8.71h2.49Z"/>
        <path class="cls-1" d="m618.26,62.22c0-3.52,2.49-6.01,5.9-6.01s5.92,2.49,5.92,6.01-2.47,6.03-5.92,6.03-5.9-2.51-5.9-6.03Zm9.2,0c0-2.24-1.41-3.67-3.3-3.67s-3.28,1.43-3.28,3.67,1.41,3.67,3.28,3.67,3.3-1.43,3.3-3.67Z"/>
        <path class="cls-1" d="m199.41,88.62c0-3.52,2.49-6.01,6-6.01,2.16,0,3.88.95,4.73,2.73l-1.99,1.23c-.67-1.12-1.66-1.63-2.76-1.63-1.91,0-3.36,1.41-3.36,3.67s1.45,3.67,3.36,3.67c1.1,0,2.1-.51,2.76-1.63l1.99,1.23c-.85,1.76-2.58,2.75-4.73,2.75-3.51,0-6-2.51-6-6.03v.02Z"/>
        <path class="cls-1" d="m211.31,88.62c0-3.52,2.49-6.01,5.9-6.01s5.92,2.49,5.92,6.01-2.47,6.03-5.92,6.03-5.9-2.51-5.9-6.03Zm9.2,0c0-2.24-1.41-3.67-3.3-3.67s-3.28,1.43-3.28,3.67,1.41,3.67,3.28,3.67,3.3-1.43,3.3-3.67Z"/>
        <path class="cls-1" d="m244.16,87.76v6.73h-2.6v-6.38c0-2.09-.91-3.1-2.49-3.1-1.7,0-2.89,1.19-2.89,3.52v5.96h-2.6v-6.38c0-2.09-.91-3.1-2.49-3.1-1.72,0-2.89,1.19-2.89,3.52v5.96h-2.6v-11.75h2.47v1.5c.83-1.06,2.12-1.63,3.63-1.63,1.62,0,2.97.64,3.74,1.96.89-1.21,2.39-1.96,4.15-1.96,2.68,0,4.55,1.61,4.55,5.15h.02Z"/>
        <path class="cls-1" d="m263.59,82.74l-4.76,11.75h-2.68l-4.76-11.75h2.7l3.45,8.71,3.55-8.71h2.5Z"/>
        <path class="cls-1" d="m263.98,88.62c0-3.52,2.49-6.01,5.9-6.01s5.92,2.49,5.92,6.01-2.47,6.03-5.92,6.03-5.9-2.51-5.9-6.03Zm9.2,0c0-2.24-1.41-3.67-3.3-3.67s-3.28,1.43-3.28,3.67,1.41,3.67,3.28,3.67,3.3-1.43,3.3-3.67Z"/>
        <path class="cls-1" d="m277.37,88.62c0-3.52,2.49-6.01,6-6.01,2.16,0,3.88.95,4.73,2.73l-1.99,1.23c-.67-1.12-1.66-1.63-2.76-1.63-1.91,0-3.36,1.41-3.36,3.67s1.45,3.67,3.36,3.67c1.1,0,2.1-.51,2.76-1.63l1.99,1.23c-.85,1.76-2.58,2.75-4.73,2.75-3.51,0-6-2.51-6-6.03v.02Z"/>
        <path class="cls-1" d="m299.63,87.6v6.89h-2.45v-1.43c-.62,1.01-1.83,1.58-3.49,1.58-2.53,0-4.13-1.47-4.13-3.52s1.25-3.5,4.61-3.5h2.87v-.18c0-1.61-.91-2.55-2.76-2.55-1.25,0-2.53.44-3.36,1.17l-1.02-2c1.18-.97,2.91-1.45,4.69-1.45,3.2,0,5.05,1.61,5.05,5h-.01Zm-2.6,3.2v-1.36h-2.68c-1.77,0-2.24.7-2.24,1.56,0,.99.79,1.63,2.12,1.63s2.37-.62,2.8-1.83Z"/>
        <path class="cls-1" d="m310.88,90.66l1.99,1.23c-.83,1.72-2.49,2.71-4.57,2.75l-.23.92c1.23.15,1.81.9,1.81,1.85,0,1.28-1.12,2.09-2.82,2.09-.75,0-1.39-.15-1.91-.46l.48-1.3c.44.24.89.35,1.41.35.77,0,1.1-.31,1.1-.79,0-.42-.31-.73-1.1-.73h-.64l.52-2.05c-2.84-.51-4.78-2.82-4.78-5.92,0-3.52,2.49-6.01,6-6.01,2.16,0,3.88.95,4.73,2.73l-1.99,1.23c-.67-1.12-1.66-1.63-2.76-1.63-1.91,0-3.36,1.41-3.36,3.67s1.45,3.67,3.36,3.67c1.1,0,2.1-.51,2.76-1.63v.03Z"/>
        <path class="cls-1" d="m324.4,87.6v6.89h-2.45v-1.43c-.62,1.01-1.83,1.58-3.49,1.58-2.53,0-4.13-1.47-4.13-3.52s1.25-3.5,4.61-3.5h2.87v-.18c0-1.61-.91-2.55-2.76-2.55-1.25,0-2.53.44-3.36,1.17l-1.02-2c1.18-.97,2.91-1.45,4.69-1.45,3.2,0,5.05,1.61,5.05,5h-.01Zm-7.17-6.61h-1.39c.04-1.8.91-2.95,2.24-2.95s2.08,1.45,2.82,1.45c.58,0,.98-.46,1.02-1.25h1.39c-.04,1.72-.91,2.88-2.24,2.88s-2.08-1.45-2.82-1.45c-.58,0-.98.48-1.02,1.32Zm4.57,9.81v-1.36h-2.68c-1.77,0-2.24.7-2.24,1.56,0,.99.79,1.63,2.12,1.63s2.37-.62,2.8-1.83Z"/>
        <path class="cls-1" d="m326.9,88.62c0-3.52,2.49-6.01,5.9-6.01s5.92,2.49,5.92,6.01-2.47,6.03-5.92,6.03-5.9-2.51-5.9-6.03Zm9.2,0c0-2.24-1.41-3.67-3.3-3.67s-3.28,1.43-3.28,3.67,1.41,3.67,3.28,3.67,3.3-1.43,3.3-3.67Z"/>
        <path class="cls-1" d="m346.94,78.16h2.6v16.33h-2.6v-16.33Z"/>
        <path class="cls-1" d="m363.32,89.5h-8.7c.31,1.72,1.66,2.82,3.59,2.82,1.25,0,2.22-.42,3.01-1.28l1.39,1.69c-1,1.25-2.55,1.92-4.47,1.92-3.72,0-6.13-2.53-6.13-6.03s2.43-6.01,5.73-6.01,5.61,2.4,5.61,6.07c0,.22-.02.55-.04.81h.01Zm-8.72-1.82h6.29c-.21-1.69-1.43-2.86-3.14-2.86s-2.91,1.14-3.16,2.86h.01Z"/>
        <path class="cls-1" d="m376.86,82.74v9.97c0,4.27-2.1,6.21-5.98,6.21-2.08,0-4.13-.57-5.4-1.67l1.16-2.07c.98.86,2.55,1.41,4.09,1.41,2.45,0,3.53-1.19,3.53-3.56v-.62c-.91,1.06-2.22,1.56-3.72,1.56-3.18,0-5.61-2.29-5.61-5.7s2.43-5.66,5.61-5.66c1.56,0,2.93.53,3.84,1.69v-1.56h2.48Zm-2.55,5.52c0-1.98-1.41-3.32-3.36-3.32s-3.38,1.34-3.38,3.32,1.41,3.37,3.38,3.37,3.36-1.36,3.36-3.37Z"/>
        <path class="cls-1" d="m379.91,79.16c0-.92.71-1.65,1.66-1.65s1.66.68,1.66,1.58c0,.97-.69,1.72-1.66,1.72s-1.66-.73-1.66-1.65h0Zm.35,3.59h2.6v11.75h-2.6v-11.75Z"/>
        <path class="cls-1" d="m384.99,93.33l1-2.09c.98.68,2.47,1.17,3.86,1.17,1.64,0,2.33-.48,2.33-1.3,0-2.24-6.85-.13-6.85-4.82,0-2.22,1.89-3.67,4.88-3.67,1.47,0,3.16.37,4.15,1.01l-1,2.09c-1.06-.66-2.12-.88-3.18-.88-1.58,0-2.33.55-2.33,1.32,0,2.38,6.85.26,6.85,4.86,0,2.2-1.91,3.63-5.03,3.63-1.85,0-3.7-.57-4.69-1.32h.01Z"/>
        <path class="cls-1" d="m396.95,78.16h2.6v16.33h-2.6v-16.33Z"/>
        <path class="cls-1" d="m412.23,87.6v6.89h-2.45v-1.43c-.62,1.01-1.83,1.58-3.49,1.58-2.53,0-4.13-1.47-4.13-3.52s1.25-3.5,4.61-3.5h2.87v-.18c0-1.61-.91-2.55-2.76-2.55-1.25,0-2.53.44-3.36,1.17l-1.02-2c1.18-.97,2.91-1.45,4.69-1.45,3.2,0,5.05,1.61,5.05,5h-.01Zm-2.6,3.2v-1.36h-2.68c-1.77,0-2.24.7-2.24,1.56,0,.99.79,1.63,2.12,1.63s2.37-.62,2.8-1.83Z"/>
        <path class="cls-1" d="m426.52,78.16v16.33h-2.49v-1.52c-.87,1.12-2.16,1.67-3.68,1.67-3.22,0-5.61-2.38-5.61-6.03s2.39-6.01,5.61-6.01c1.43,0,2.7.51,3.57,1.58v-6.03h2.6Zm-2.55,10.46c0-2.24-1.43-3.67-3.3-3.67s-3.3,1.43-3.3,3.67,1.43,3.67,3.3,3.67,3.3-1.43,3.3-3.67Z"/>
        <path class="cls-1" d="m429.01,88.62c0-3.52,2.49-6.01,5.9-6.01s5.92,2.49,5.92,6.01-2.47,6.03-5.92,6.03-5.9-2.51-5.9-6.03Zm9.2,0c0-2.24-1.41-3.67-3.3-3.67s-3.28,1.43-3.28,3.67,1.41,3.67,3.28,3.67,3.3-1.43,3.3-3.67Z"/>
        <path class="cls-1" d="m449.73,82.61v2.62c-.23-.04-.42-.07-.6-.07-1.97,0-3.22,1.23-3.22,3.63v5.7h-2.6v-11.75h2.47v1.72c.75-1.23,2.1-1.85,3.95-1.85Z"/>
        <path class="cls-1" d="m461.15,87.6v6.89h-2.45v-1.43c-.62,1.01-1.83,1.58-3.49,1.58-2.53,0-4.13-1.47-4.13-3.52s1.25-3.5,4.61-3.5h2.87v-.18c0-1.61-.91-2.55-2.76-2.55-1.25,0-2.53.44-3.36,1.17l-1.02-2c1.18-.97,2.91-1.45,4.69-1.45,3.2,0,5.05,1.61,5.05,5h-.01Zm-2.6,3.2v-1.36h-2.68c-1.77,0-2.24.7-2.24,1.56,0,.99.79,1.63,2.12,1.63s2.37-.62,2.8-1.83Z"/>
        <path class="cls-1" d="m463.59,92.82c0-1.1.77-1.83,1.7-1.83s1.7.73,1.7,1.83-.77,1.83-1.7,1.83-1.7-.77-1.7-1.83Z"/>
      </g>
      <g>
        <circle class="cls-2" cx="91.34" cy="70.34" r="56.09"/>
        <circle class="cls-4" cx="91.34" cy="70.34" r="52.61"/>
      </g>
      <path class="cls-3" d="m111.92,82.19c0,10.81-7.93,20.23-25.37,20.23-8.46,0-17.35-2.35-23.28-6.54l5.58-10.81c4.62,3.49,10.99,5.49,17.35,5.49,7.06,0,11.42-2.96,11.42-7.93s-3.14-7.93-14.21-7.93h-15.61l3.14-34.35h37.23v11.33h-25.46l-.96,11.6h4.97c18.05,0,25.2,8.11,25.2,18.92h0Z"/>
    </g>
  </g>
</svg>