<?xml version="1.0" encoding="utf-8"?>
<!-- Generator: Adobe Illustrator 27.2.0, SVG Export Plug-In . SVG Version: 6.00 Build 0)  -->
<svg version="1.1" id="Layer_1" xmlns="http://www.w3.org/2000/svg" xmlns:xlink="http://www.w3.org/1999/xlink" x="0px" y="0px"
	 viewBox="0 0 1445.3 517.3" style="enable-background:new 0 0 1445.3 517.3;" xml:space="preserve">
<style type="text/css">
	.st0{fill:none;stroke:#E9551C;stroke-miterlimit:10;}
	.st1{fill:#F7F1F0;}
	.st2{fill:#F7C2A1;}
	.st3{fill:#F26A41;}
	.st4{fill:#E8541C;}
	.st5{fill:#FFEEC2;}
</style>
<rect x="67.9" y="110.3" class="st0" width="1346.4" height="379.8"/>
<rect x="32.3" y="83.3" class="st1" width="1346.4" height="379.8"/>
<g>
	<path d="M132.7,252.4v1.7h-12.9v-18.2h12.5v1.7h-10.6v6.5h9.4v1.6h-9.4v6.8L132.7,252.4L132.7,252.4z"/>
	<path d="M136.4,236.1c0-0.7,0.6-1.3,1.4-1.3s1.4,0.6,1.4,1.3c0,0.8-0.6,1.4-1.4,1.4S136.4,236.8,136.4,236.1L136.4,236.1z
		 M136.8,240.4h1.9v13.7h-1.9V240.4L136.8,240.4z"/>
	<path d="M141.9,252.5l0.8-1.5c1.1,0.9,2.9,1.5,4.9,1.5c2.6,0,3.7-0.9,3.7-2.2c0-3.6-8.9-0.8-8.9-6.2c0-2.2,1.9-3.9,5.4-3.9
		c1.8,0,3.7,0.5,4.8,1.3l-0.8,1.5c-1.2-0.8-2.6-1.2-4-1.2c-2.5,0-3.6,1-3.6,2.3c0,3.7,8.9,0.9,8.9,6.2c0,2.4-2.1,3.9-5.6,3.9
		C145.2,254.1,143,253.4,141.9,252.5L141.9,252.5z"/>
	<path d="M173.7,245.6v8.5h-1.8v-2.1c-0.8,1.4-2.4,2.3-4.7,2.3c-3.1,0-5-1.6-5-4c0-2.1,1.4-3.9,5.3-3.9h4.3v-0.8
		c0-2.3-1.3-3.6-3.9-3.6c-1.8,0-3.4,0.6-4.6,1.6l-0.8-1.4c1.4-1.2,3.4-1.9,5.6-1.9C171.7,240.3,173.7,242,173.7,245.6L173.7,245.6z
		 M171.8,249.9v-2.2h-4.3c-2.6,0-3.5,1-3.5,2.4c0,1.6,1.3,2.6,3.5,2.6S171.1,251.7,171.8,249.9L171.8,249.9z"/>
	<path d="M187.6,238.8v1.6h4.2v1.6h-4.2V254h-1.9v-12.1h-2.4v-1.6h2.4v-1.7c0-2.4,1.5-4.1,4.1-4.1c1,0,2.1,0.3,2.7,0.9l-0.6,1.4
		c-0.5-0.4-1.2-0.7-2-0.7C188.4,236.2,187.6,237.1,187.6,238.8L187.6,238.8z"/>
	<path d="M206.6,240.4V254h-1.8v-2.5c-1,1.7-2.7,2.6-4.9,2.6c-3.5,0-5.8-1.9-5.8-5.9v-7.9h1.9v7.8c0,2.9,1.5,4.4,4.1,4.4
		c2.9,0,4.6-1.9,4.6-5v-7.2L206.6,240.4L206.6,240.4z"/>
	<path d="M224.4,246.1v7.9h-1.9v-7.8c0-2.9-1.5-4.4-4.1-4.4c-2.9,0-4.8,1.8-4.8,4.9v7.2h-1.9v-13.7h1.8v2.5c1-1.7,2.8-2.6,5.2-2.6
		C222.1,240.2,224.4,242.2,224.4,246.1L224.4,246.1z"/>
	<path d="M239.1,250.5l1.4,0.9c-1.1,1.8-3,2.7-5.4,2.7h-0.1l-0.3,1.2c1.4,0.1,2.2,1,2.2,2.1c0,1.4-1.2,2.3-2.9,2.3
		c-0.9,0-1.6-0.2-2.2-0.6l0.4-1c0.5,0.3,1.1,0.5,1.7,0.5c1,0,1.6-0.4,1.6-1.2c0-0.7-0.5-1.2-1.6-1.2h-0.6l0.6-2.2
		c-3.5-0.5-5.9-3.2-5.9-6.9c0-4.1,3-6.9,7.1-6.9c2.3,0,4.3,0.9,5.4,2.7l-1.4,0.9c-0.9-1.4-2.4-2-4-2c-3,0-5.2,2.1-5.2,5.3
		s2.2,5.3,5.2,5.3C236.7,252.5,238.2,251.9,239.1,250.5L239.1,250.5z"/>
	<path d="M254.4,245.6v8.5h-1.8v-2.1c-0.8,1.4-2.4,2.3-4.7,2.3c-3.1,0-5-1.6-5-4c0-2.1,1.4-3.9,5.3-3.9h4.3v-0.8
		c0-2.3-1.3-3.6-3.9-3.6c-1.8,0-3.4,0.6-4.6,1.6l-0.8-1.4c1.4-1.2,3.4-1.9,5.6-1.9C252.4,240.3,254.4,242,254.4,245.6L254.4,245.6z
		 M252.6,249.9v-2.2h-4.3c-2.6,0-3.5,1-3.5,2.4c0,1.6,1.3,2.6,3.5,2.6S251.8,251.7,252.6,249.9L252.6,249.9z M245.9,238h-1.1
		c0.1-1.7,1-2.9,2.3-2.9c1.6,0,2.4,1.8,3.4,1.8c0.8,0,1.3-0.6,1.4-1.6h1.1c-0.1,1.7-1,2.8-2.3,2.8c-1.6,0-2.4-1.8-3.4-1.8
		C246.5,236.3,246,237,245.9,238z"/>
	<path d="M258.1,247.2c0-4.1,3-6.9,7-6.9s6.9,2.9,6.9,6.9s-2.9,7-6.9,7S258.1,251.3,258.1,247.2z M270.1,247.2
		c0-3.2-2.2-5.3-5.1-5.3s-5.1,2.1-5.1,5.3s2.2,5.3,5.1,5.3S270.1,250.4,270.1,247.2z"/>
	<path d="M295.1,234.8V254h-1.8v-2.7c-1.1,1.9-3,2.8-5.3,2.8c-3.9,0-6.8-2.8-6.8-7s2.9-6.9,6.8-6.9c2.2,0,4.1,0.9,5.2,2.7v-8.2
		L295.1,234.8L295.1,234.8z M293.3,247.2c0-3.2-2.2-5.3-5.1-5.3s-5.1,2.1-5.1,5.3s2.2,5.3,5.1,5.3S293.3,250.4,293.3,247.2z"/>
	<path d="M298.9,247.2c0-4.1,3-6.9,7-6.9s6.9,2.9,6.9,6.9s-2.9,7-6.9,7S298.9,251.3,298.9,247.2z M310.9,247.2
		c0-3.2-2.2-5.3-5.1-5.3s-5.1,2.1-5.1,5.3s2.2,5.3,5.1,5.3S310.9,250.4,310.9,247.2z"/>
	<path d="M335,246.1v8h-3.8v-1.7c-0.8,1.3-2.2,1.9-4.3,1.9c-3.3,0-5.2-1.8-5.2-4.2s1.7-4.2,6-4.2h3.2c0-1.7-1-2.8-3.2-2.8
		c-1.5,0-3,0.5-4,1.3l-1.5-2.8c1.5-1.1,3.8-1.7,6-1.7C332.5,239.8,335,241.8,335,246.1L335,246.1z M331,249.6v-1.4h-2.8
		c-1.9,0-2.5,0.7-2.5,1.6c0,1,0.9,1.7,2.3,1.7C329.3,251.5,330.5,250.9,331,249.6L331,249.6z"/>
	<path d="M347.6,254l-3.1-4.3l-3.2,4.3h-4.4l5.4-7.1l-5.2-6.9h4.5l3,4.1l3-4.1h4.3l-5.2,6.8l5.4,7.1L347.6,254L347.6,254z"/>
	<path d="M353.7,235.8c0-1.3,1-2.3,2.5-2.3s2.5,0.9,2.5,2.2c0,1.4-1,2.3-2.5,2.3S353.7,237.1,353.7,235.8z M354.1,240.1h4.1v14h-4.1
		V240.1z"/>
	<path d="M360.9,247.1c0-4.2,3.2-7.2,7.7-7.2s7.7,3,7.7,7.2s-3.2,7.2-7.7,7.2S360.9,251.3,360.9,247.1z M372.2,247.1
		c0-2.4-1.5-3.9-3.6-3.9s-3.6,1.5-3.6,3.9s1.6,3.9,3.6,3.9S372.2,249.5,372.2,247.1z"/>
	<path d="M402.6,246v8h-4.1v-7.4c0-2.3-1-3.3-2.6-3.3c-1.8,0-3.1,1.2-3.1,3.7v7h-4.1v-7.4c0-2.3-1-3.3-2.6-3.3
		c-1.8,0-3.1,1.2-3.1,3.7v7H379v-14h3.9v1.6c1-1.2,2.6-1.8,4.4-1.8c2,0,3.6,0.8,4.6,2.3c1.1-1.4,2.9-2.3,5-2.3
		C400.2,239.9,402.6,241.8,402.6,246L402.6,246z"/>
	<path d="M418.7,246.1v8h-3.8v-1.7c-0.8,1.3-2.2,1.9-4.3,1.9c-3.3,0-5.2-1.8-5.2-4.2s1.7-4.2,6-4.2h3.2c0-1.7-1-2.8-3.2-2.8
		c-1.5,0-3,0.5-4,1.3l-1.5-2.8c1.5-1.1,3.8-1.7,6-1.7C416.2,239.8,418.7,241.8,418.7,246.1L418.7,246.1z M414.6,249.6v-1.4h-2.8
		c-1.9,0-2.5,0.7-2.5,1.6c0,1,0.9,1.7,2.3,1.7C413,251.5,414.1,250.9,414.6,249.6L414.6,249.6z"/>
	<path d="M428.6,247.1c0-4.2,3.2-7.2,7.7-7.2s7.7,3,7.7,7.2s-3.2,7.2-7.7,7.2S428.6,251.3,428.6,247.1z M439.9,247.1
		c0-2.4-1.5-3.9-3.6-3.9s-3.6,1.5-3.6,3.9s1.6,3.9,3.6,3.9S439.9,249.5,439.9,247.1z"/>
	<path d="M461,246v8H457v-7.4c0-2.3-1-3.3-2.8-3.3c-2,0-3.4,1.2-3.4,3.8v6.9h-4.1v-14h3.9v1.6c1.1-1.2,2.7-1.9,4.6-1.9
		C458.5,239.8,461,241.8,461,246L461,246z"/>
	<path d="M473.7,253.4c-0.8,0.6-2,0.9-3.3,0.9c-3.3,0-5.2-1.7-5.2-5v-5.8H463v-3.1h2.2v-3.4h4.1v3.4h3.5v3.1h-3.5v5.7
		c0,1.2,0.6,1.9,1.7,1.9c0.6,0,1.2-0.2,1.6-0.5L473.7,253.4L473.7,253.4z"/>
	<path d="M474.5,247.1c0-4.2,3.2-7.2,7.7-7.2s7.7,3,7.7,7.2s-3.2,7.2-7.7,7.2S474.5,251.3,474.5,247.1z M485.8,247.1
		c0-2.4-1.5-3.9-3.6-3.9s-3.6,1.5-3.6,3.9s1.6,3.9,3.6,3.9S485.8,249.5,485.8,247.1z"/>
	<path d="M492.6,234.8h4.1V254h-4.1V234.8z"/>
	<path d="M499.4,247.1c0-4.2,3.2-7.2,7.7-7.2s7.7,3,7.7,7.2s-3.2,7.2-7.7,7.2S499.4,251.3,499.4,247.1L499.4,247.1z M510.6,247.1
		c0-2.4-1.5-3.9-3.6-3.9s-3.6,1.5-3.6,3.9s1.6,3.9,3.6,3.9S510.6,249.5,510.6,247.1z M508.1,234.5h4.4l-4.7,3.7h-3.2L508.1,234.5
		L508.1,234.5z"/>
	<path d="M531.9,240.1v11.6c0,5.2-2.8,7.6-7.8,7.6c-2.7,0-5.2-0.6-6.9-1.9l1.6-2.9c1.2,1,3.2,1.6,4.9,1.6c2.9,0,4.1-1.3,4.1-3.8
		v-0.6c-1.1,1.2-2.6,1.7-4.4,1.7c-3.9,0-7-2.7-7-6.8s3.1-6.8,7-6.8c2,0,3.6,0.6,4.6,2v-1.8L531.9,240.1L531.9,240.1z M527.9,246.6
		c0-2.1-1.5-3.4-3.7-3.4s-3.7,1.4-3.7,3.4s1.6,3.4,3.7,3.4S527.9,248.6,527.9,246.6z"/>
	<path d="M535.1,235.8c0-1.3,1-2.3,2.5-2.3s2.5,0.9,2.5,2.2c0,1.4-1,2.3-2.5,2.3S535.1,237.1,535.1,235.8z M535.6,240.1h4.1v14h-4.1
		V240.1z"/>
	<path d="M542.4,247.1c0-4.2,3.2-7.2,7.8-7.2c2.9,0,5.2,1.3,6.3,3.6l-3.2,1.7c-0.8-1.3-1.9-1.9-3.2-1.9c-2,0-3.7,1.4-3.7,3.9
		s1.6,3.9,3.7,3.9c1.3,0,2.4-0.6,3.2-1.9l3.2,1.7c-1,2.2-3.3,3.5-6.3,3.5C545.7,254.3,542.4,251.3,542.4,247.1L542.4,247.1z"/>
	<path d="M557.6,247.1c0-4.2,3.2-7.2,7.7-7.2s7.7,3,7.7,7.2s-3.2,7.2-7.7,7.2S557.6,251.3,557.6,247.1z M568.9,247.1
		c0-2.4-1.5-3.9-3.6-3.9s-3.6,1.5-3.6,3.9s1.6,3.9,3.6,3.9S568.9,249.5,568.9,247.1z"/>
	<path d="M597.3,234.8V254h-3.9v-1.6c-1,1.2-2.5,1.8-4.4,1.8c-4,0-7-2.8-7-7.2s3-7.2,7-7.2c1.7,0,3.2,0.6,4.2,1.7v-6.8L597.3,234.8
		L597.3,234.8z M593.3,247.1c0-2.4-1.6-3.9-3.6-3.9s-3.6,1.5-3.6,3.9s1.6,3.9,3.6,3.9S593.3,249.5,593.3,247.1z"/>
	<path d="M600,247.1c0-4.2,3.2-7.2,7.7-7.2s7.7,3,7.7,7.2s-3.2,7.2-7.7,7.2S600,251.3,600,247.1z M611.2,247.1
		c0-2.4-1.5-3.9-3.6-3.9s-3.6,1.5-3.6,3.9s1.6,3.9,3.6,3.9S611.2,249.5,611.2,247.1z"/>
	<path d="M639.7,234.8V254h-3.9v-1.6c-1,1.2-2.5,1.8-4.4,1.8c-4,0-7-2.8-7-7.2s3-7.2,7-7.2c1.7,0,3.2,0.6,4.2,1.7v-6.8L639.7,234.8
		L639.7,234.8z M635.7,247.1c0-2.4-1.6-3.9-3.6-3.9s-3.6,1.5-3.6,3.9s1.6,3.9,3.6,3.9S635.7,249.5,635.7,247.1z"/>
	<path d="M642.9,235.8c0-1.3,1-2.3,2.5-2.3s2.5,0.9,2.5,2.2c0,1.4-1,2.3-2.5,2.3S642.9,237.1,642.9,235.8z M643.4,240.1h4.1v14h-4.1
		V240.1z"/>
	<path d="M659.9,239.9v3.7c-0.3,0-0.6-0.1-0.9-0.1c-2.2,0-3.7,1.2-3.7,3.9v6.6h-4.1v-14h3.9v1.9
		C656.1,240.6,657.7,239.9,659.9,239.9L659.9,239.9z"/>
	<path d="M675.8,248.2h-10.6c0.4,1.7,1.9,2.8,4,2.8c1.5,0,2.5-0.4,3.5-1.4l2.2,2.3c-1.3,1.5-3.2,2.3-5.8,2.3c-4.8,0-8-3-8-7.2
		s3.2-7.2,7.5-7.2s7.3,2.8,7.3,7.2C675.9,247.4,675.9,247.8,675.8,248.2L675.8,248.2z M665.2,245.8h6.9c-0.3-1.8-1.6-2.9-3.4-2.9
		S665.5,244,665.2,245.8z"/>
	<path d="M678.1,235.8c0-1.3,1-2.3,2.5-2.3s2.5,0.9,2.5,2.2c0,1.4-1,2.3-2.5,2.3S678.1,237.1,678.1,235.8z M678.6,240.1h4.1v14h-4.1
		V240.1z"/>
	<path d="M695.5,253.4c-0.8,0.6-2,0.9-3.3,0.9c-3.3,0-5.2-1.7-5.2-5v-5.8h-2.2v-3.1h2.2v-3.4h4.1v3.4h3.5v3.1H691v5.7
		c0,1.2,0.7,1.9,1.7,1.9c0.6,0,1.2-0.2,1.6-0.5L695.5,253.4L695.5,253.4z"/>
	<path d="M696.3,247.1c0-4.2,3.2-7.2,7.7-7.2s7.7,3,7.7,7.2s-3.2,7.2-7.7,7.2S696.3,251.3,696.3,247.1z M707.5,247.1
		c0-2.4-1.5-3.9-3.6-3.9s-3.6,1.5-3.6,3.9s1.6,3.9,3.6,3.9S707.5,249.5,707.5,247.1z"/>
	<path d="M713.8,241.7c0-0.8,0.6-1.4,1.4-1.4s1.4,0.6,1.4,1.4s-0.7,1.4-1.4,1.4S713.8,242.5,713.8,241.7z M713.8,252.8
		c0-0.8,0.6-1.4,1.4-1.4s1.4,0.6,1.4,1.4s-0.7,1.4-1.4,1.4S713.8,253.6,713.8,252.8z"/>
	<path d="M726,247.2c0-4.1,3-6.9,7-6.9s6.9,2.9,6.9,6.9s-2.9,7-6.9,7S726,251.3,726,247.2z M738,247.2c0-3.2-2.2-5.3-5.1-5.3
		s-5.1,2.1-5.1,5.3s2.2,5.3,5.1,5.3S738,250.4,738,247.2z"/>
	<path d="M762.4,247.8h-11.4c0.2,2.9,2.4,4.8,5.4,4.8c1.7,0,3.2-0.6,4.2-1.8l1,1.2c-1.2,1.5-3.1,2.2-5.3,2.2c-4.3,0-7.2-2.9-7.2-7
		s2.8-6.9,6.7-6.9s6.6,2.8,6.6,6.9C762.4,247.4,762.4,247.6,762.4,247.8L762.4,247.8z M750.9,246.4h9.7c-0.2-2.7-2.2-4.6-4.9-4.6
		S751.2,243.7,750.9,246.4z"/>
	<path d="M764.3,252.5l0.8-1.5c1.1,0.9,2.9,1.5,4.9,1.5c2.6,0,3.7-0.9,3.7-2.2c0-3.6-8.9-0.8-8.9-6.2c0-2.2,1.9-3.9,5.4-3.9
		c1.8,0,3.7,0.5,4.8,1.3l-0.8,1.5c-1.2-0.8-2.6-1.2-4-1.2c-2.5,0-3.6,1-3.6,2.3c0,3.7,8.9,0.9,8.9,6.2c0,2.4-2.1,3.9-5.6,3.9
		C767.6,254.1,765.4,253.4,764.3,252.5L764.3,252.5z"/>
	<path d="M786.1,253.2c-0.7,0.6-1.8,1-2.9,1c-2.6,0-4-1.5-4-4v-8.3h-2.4v-1.6h2.4v-3h1.8v3h4.2v1.6H781v8.2c0,1.6,0.8,2.5,2.4,2.5
		c0.8,0,1.5-0.2,2-0.7L786.1,253.2L786.1,253.2z"/>
	<path d="M799.8,245.6v8.5H798v-2.1c-0.8,1.4-2.4,2.3-4.7,2.3c-3.1,0-5-1.6-5-4c0-2.1,1.3-3.9,5.3-3.9h4.3v-0.8
		c0-2.3-1.3-3.6-3.9-3.6c-1.8,0-3.4,0.6-4.5,1.6l-0.8-1.4c1.4-1.2,3.4-1.9,5.6-1.9C797.8,240.3,799.8,242,799.8,245.6L799.8,245.6z
		 M797.9,249.9v-2.2h-4.3c-2.7,0-3.5,1-3.5,2.4c0,1.6,1.3,2.6,3.5,2.6S797.2,251.7,797.9,249.9L797.9,249.9z"/>
	<path d="M817.3,234.8V254h-1.8v-2.7c-1.1,1.9-3,2.8-5.3,2.8c-3.9,0-6.8-2.8-6.8-7s2.9-6.9,6.8-6.9c2.2,0,4.1,0.9,5.2,2.7v-8.2
		L817.3,234.8L817.3,234.8z M815.5,247.2c0-3.2-2.2-5.3-5.1-5.3s-5.1,2.1-5.1,5.3s2.2,5.3,5.1,5.3S815.5,250.4,815.5,247.2z"/>
	<path d="M821.1,247.2c0-4.1,3-6.9,7-6.9s6.9,2.9,6.9,6.9s-2.9,7-6.9,7S821.1,251.3,821.1,247.2z M833.1,247.2
		c0-3.2-2.2-5.3-5.1-5.3s-5.1,2.1-5.1,5.3s2.2,5.3,5.1,5.3S833.1,250.4,833.1,247.2z"/>
	<path d="M838,246.2h6.8v1.6H838V246.2z"/>
	<path d="M844,258.3l0.7-1.4c0.5,0.5,1.3,0.7,2.1,0.7c1.5,0,2.3-0.9,2.3-2.6v-14.7h1.8v14.7c0,2.5-1.4,4.2-4,4.2
		C845.8,259.2,844.7,258.9,844,258.3L844,258.3z M848.7,236c0-0.7,0.6-1.3,1.3-1.3s1.3,0.6,1.3,1.3c0,0.8-0.6,1.4-1.3,1.4
		S848.7,236.8,848.7,236L848.7,236z"/>
	<path d="M868.4,240.4V254h-1.8v-2.5c-1,1.7-2.7,2.6-4.9,2.6c-3.5,0-5.8-1.9-5.8-5.9v-7.9h1.8v7.8c0,2.9,1.5,4.4,4.1,4.4
		c2.9,0,4.7-1.9,4.7-5v-7.2L868.4,240.4L868.4,240.4z"/>
	<path d="M873.2,236.1c0-0.7,0.6-1.3,1.3-1.3s1.3,0.6,1.3,1.3c0,0.8-0.6,1.4-1.3,1.4S873.2,236.8,873.2,236.1L873.2,236.1z
		 M873.6,240.4h1.8v13.7h-1.8V240.4L873.6,240.4z"/>
	<path d="M890.2,252.5v1.5h-11.1v-1.2l8.6-10.9h-8.5v-1.6h10.8v1.2l-8.6,10.9H890.2z"/>
	<path d="M913.2,246.1v7.9h-1.8v-7.8c0-2.9-1.5-4.4-4.1-4.4c-2.9,0-4.8,1.8-4.8,4.9v7.2h-1.8v-13.7h1.8v2.5c1-1.7,2.8-2.6,5.2-2.6
		C911,240.2,913.3,242.2,913.2,246.1L913.2,246.1z"/>
	<path d="M928.6,245.6v8.5h-1.8v-2.1c-0.8,1.4-2.4,2.3-4.7,2.3c-3.1,0-5-1.6-5-4c0-2.1,1.3-3.9,5.3-3.9h4.3v-0.8
		c0-2.3-1.3-3.6-3.9-3.6c-1.8,0-3.4,0.6-4.5,1.6l-0.8-1.4c1.4-1.2,3.4-1.9,5.6-1.9C926.6,240.3,928.6,242,928.6,245.6L928.6,245.6z
		 M926.7,249.9v-2.2h-4.3c-2.7,0-3.5,1-3.5,2.4c0,1.6,1.3,2.6,3.5,2.6S926,251.7,926.7,249.9L926.7,249.9z M920.1,238H919
		c0-1.7,1-2.9,2.3-2.9c1.6,0,2.4,1.8,3.4,1.8c0.8,0,1.3-0.6,1.3-1.6h1.1c0,1.7-1,2.8-2.3,2.8c-1.6,0-2.4-1.8-3.4-1.8
		C920.7,236.3,920.2,237,920.1,238z"/>
	<path d="M932.3,247.2c0-4.1,3-6.9,7-6.9s6.9,2.9,6.9,6.9s-2.9,7-6.9,7S932.3,251.3,932.3,247.2z M944.3,247.2
		c0-3.2-2.2-5.3-5.1-5.3s-5.1,2.1-5.1,5.3s2.2,5.3,5.1,5.3S944.3,250.4,944.3,247.2z"/>
	<path d="M970.6,247.2c0,4.2-2.9,7-6.8,7c-2.2,0-4.1-0.9-5.2-2.7v7.6h-1.8v-18.7h1.8v2.7c1.1-1.8,3-2.8,5.3-2.8
		C967.7,240.3,970.6,243.1,970.6,247.2L970.6,247.2z M968.8,247.2c0-3.2-2.2-5.3-5.1-5.3s-5.1,2.2-5.1,5.3s2.2,5.3,5.1,5.3
		S968.8,250.4,968.8,247.2z"/>
	<path d="M973,247.2c0-4.1,3-6.9,7-6.9s6.9,2.9,6.9,6.9s-2.9,7-6.9,7S973,251.3,973,247.2z M985.1,247.2c0-3.2-2.2-5.3-5.1-5.3
		s-5.1,2.1-5.1,5.3s2.2,5.3,5.1,5.3S985.1,250.4,985.1,247.2z"/>
	<path d="M1003.2,234.8V254h-1.8v-2.7c-1.1,1.9-3,2.8-5.3,2.8c-3.9,0-6.8-2.8-6.8-7s2.9-6.9,6.8-6.9c2.2,0,4.1,0.9,5.2,2.7v-8.2
		L1003.2,234.8L1003.2,234.8z M1001.4,247.2c0-3.2-2.2-5.3-5.1-5.3s-5.1,2.1-5.1,5.3s2.2,5.3,5.1,5.3S1001.4,250.4,1001.4,247.2z"/>
	<path d="M1020.2,247.8h-11.4c0.2,2.9,2.4,4.8,5.4,4.8c1.7,0,3.2-0.6,4.2-1.8l1,1.2c-1.2,1.5-3.1,2.2-5.3,2.2c-4.3,0-7.2-2.9-7.2-7
		s2.8-6.9,6.7-6.9s6.6,2.8,6.6,6.9C1020.3,247.4,1020.2,247.6,1020.2,247.8L1020.2,247.8z M1008.8,246.4h9.7
		c-0.2-2.7-2.2-4.6-4.9-4.6S1009,243.7,1008.8,246.4z"/>
	<path d="M1029.5,247.2c0-4.1,3-6.9,7.1-6.9c2.3,0,4.3,0.9,5.4,2.7l-1.4,0.9c-0.9-1.4-2.4-2-4-2c-3,0-5.2,2.1-5.2,5.3
		s2.2,5.3,5.2,5.3c1.6,0,3-0.6,4-2l1.4,0.9c-1.1,1.8-3,2.7-5.4,2.7C1032.4,254.2,1029.5,251.3,1029.5,247.2z"/>
	<path d="M1052.4,240.3v1.8c-0.2,0-0.3,0-0.4,0c-2.9,0-4.6,1.8-4.6,5v7h-1.8v-13.7h1.8v2.7C1048.1,241.2,1049.9,240.2,1052.4,240.3
		L1052.4,240.3z"/>
	<path d="M1055.3,236.1c0-0.7,0.6-1.3,1.3-1.3s1.3,0.6,1.3,1.3c0,0.8-0.6,1.4-1.3,1.4S1055.3,236.8,1055.3,236.1L1055.3,236.1z
		 M1055.7,240.4h1.8v13.7h-1.8V240.4L1055.7,240.4z"/>
	<path d="M1073,245.6v8.5h-1.8v-2.1c-0.8,1.4-2.4,2.3-4.7,2.3c-3.1,0-5-1.6-5-4c0-2.1,1.3-3.9,5.3-3.9h4.3v-0.8
		c0-2.3-1.3-3.6-3.9-3.6c-1.8,0-3.4,0.6-4.6,1.6l-0.8-1.4c1.4-1.2,3.4-1.9,5.6-1.9C1071,240.3,1073,242,1073,245.6L1073,245.6z
		 M1071.2,249.9v-2.2h-4.3c-2.7,0-3.5,1-3.5,2.4c0,1.6,1.3,2.6,3.5,2.6S1070.4,251.7,1071.2,249.9L1071.2,249.9z"/>
	<path d="M1084.9,240.3v1.8c-0.2,0-0.3,0-0.4,0c-2.9,0-4.6,1.8-4.6,5v7h-1.8v-13.7h1.8v2.7C1080.7,241.2,1082.4,240.2,1084.9,240.3
		L1084.9,240.3z"/>
	<path d="M1107.9,246.1v7.9h-1.8v-7.8c0-2.9-1.5-4.4-4.1-4.4c-2.9,0-4.8,1.8-4.8,4.9v7.2h-1.8v-13.7h1.8v2.5c1-1.7,2.8-2.6,5.2-2.6
		C1105.6,240.2,1107.9,242.2,1107.9,246.1L1107.9,246.1z"/>
	<path d="M1111.6,247.2c0-4.1,3-6.9,7-6.9s6.9,2.9,6.9,6.9s-2.9,7-6.9,7S1111.6,251.3,1111.6,247.2z M1123.6,247.2
		c0-3.2-2.2-5.3-5.1-5.3s-5.1,2.1-5.1,5.3s2.2,5.3,5.1,5.3S1123.6,250.4,1123.6,247.2z"/>
	<path d="M1140.3,240.4l-6.1,13.7h-1.9l-6.1-13.7h1.9l5.1,11.6l5.2-11.6L1140.3,240.4L1140.3,240.4z"/>
	<path d="M1152.8,245.6v8.5h-1.8v-2.1c-0.8,1.4-2.4,2.3-4.7,2.3c-3.1,0-5-1.6-5-4c0-2.1,1.3-3.9,5.3-3.9h4.3v-0.8
		c0-2.3-1.3-3.6-3.9-3.6c-1.8,0-3.4,0.6-4.6,1.6l-0.8-1.4c1.4-1.2,3.4-1.9,5.6-1.9C1150.8,240.3,1152.8,242,1152.8,245.6
		L1152.8,245.6z M1151,249.9v-2.2h-4.3c-2.7,0-3.5,1-3.5,2.4c0,1.6,1.3,2.6,3.5,2.6S1150.3,251.7,1151,249.9L1151,249.9z"/>
	<path d="M1156,252.5l0.8-1.5c1.1,0.9,2.9,1.5,4.9,1.5c2.6,0,3.7-0.9,3.7-2.2c0-3.6-8.9-0.8-8.9-6.2c0-2.2,1.9-3.9,5.4-3.9
		c1.8,0,3.7,0.5,4.8,1.3l-0.8,1.5c-1.2-0.8-2.6-1.2-4-1.2c-2.5,0-3.6,1-3.6,2.3c0,3.7,8.9,0.9,8.9,6.2c0,2.4-2.1,3.9-5.6,3.9
		C1159.3,254.1,1157.1,253.4,1156,252.5L1156,252.5z"/>
	<path d="M1191.2,247.2c0,4.2-2.9,7-6.8,7c-2.2,0-4.1-0.9-5.2-2.7v7.6h-1.8v-18.7h1.8v2.7c1.1-1.8,3-2.8,5.3-2.8
		C1188.3,240.3,1191.2,243.1,1191.2,247.2L1191.2,247.2z M1189.4,247.2c0-3.2-2.2-5.3-5.1-5.3s-5.1,2.2-5.1,5.3s2.2,5.3,5.1,5.3
		S1189.4,250.4,1189.4,247.2z"/>
	<path d="M1201.9,240.3v1.8c-0.2,0-0.3,0-0.4,0c-2.9,0-4.6,1.8-4.6,5v7h-1.8v-13.7h1.8v2.7C1197.6,241.2,1199.4,240.2,1201.9,240.3
		L1201.9,240.3z"/>
	<path d="M1203.7,247.2c0-4.1,3-6.9,7-6.9s6.9,2.9,6.9,6.9s-2.9,7-6.9,7S1203.7,251.3,1203.7,247.2z M1215.8,247.2
		c0-3.2-2.2-5.3-5.1-5.3s-5.1,2.1-5.1,5.3s2.2,5.3,5.1,5.3S1215.8,250.4,1215.8,247.2z"/>
	<path d="M1221,236.1c0-0.7,0.6-1.3,1.3-1.3s1.3,0.6,1.3,1.3c0,0.8-0.6,1.4-1.3,1.4S1221,236.8,1221,236.1L1221,236.1z
		 M1221.4,240.4h1.8v13.7h-1.8V240.4L1221.4,240.4z"/>
	<path d="M1242.2,247.2c0,4.1-2.9,7-6.8,7c-2.3,0-4.2-1-5.3-2.8v2.7h-1.8v-19.3h1.8v8.2c1.1-1.8,3-2.7,5.2-2.7
		C1239.3,240.3,1242.2,243.1,1242.2,247.2L1242.2,247.2z M1240.4,247.2c0-3.2-2.2-5.3-5.1-5.3s-5.1,2.1-5.1,5.3s2.2,5.3,5.1,5.3
		S1240.4,250.4,1240.4,247.2z"/>
	<path d="M1245.6,236.1c0-0.7,0.6-1.3,1.3-1.3s1.3,0.6,1.3,1.3c0,0.8-0.6,1.4-1.3,1.4S1245.6,236.8,1245.6,236.1L1245.6,236.1z
		 M1246,240.4h1.8v13.7h-1.8V240.4L1246,240.4z"/>
	<path d="M1262.7,250.5l1.4,0.9c-1.1,1.8-3,2.7-5.4,2.7h-0.1l-0.3,1.2c1.4,0.1,2.2,1,2.2,2.1c0,1.4-1.2,2.3-2.9,2.3
		c-0.9,0-1.6-0.2-2.2-0.6l0.4-1c0.5,0.3,1.1,0.5,1.7,0.5c1,0,1.6-0.4,1.6-1.2c0-0.7-0.5-1.2-1.6-1.2h-0.6l0.6-2.2
		c-3.5-0.5-5.9-3.2-5.9-6.9c0-4.1,3-6.9,7.1-6.9c2.3,0,4.3,0.9,5.4,2.7l-1.4,0.9c-0.9-1.4-2.4-2-4-2c-3,0-5.2,2.1-5.2,5.3
		s2.2,5.3,5.2,5.3C1260.3,252.5,1261.7,251.9,1262.7,250.5L1262.7,250.5z"/>
	<path d="M1266,247.2c0-4.1,3-6.9,7-6.9s6.9,2.9,6.9,6.9s-2.9,7-6.9,7S1266,251.3,1266,247.2z M1278.1,247.2c0-3.2-2.2-5.3-5.1-5.3
		s-5.1,2.1-5.1,5.3s2.2,5.3,5.1,5.3S1278.1,250.4,1278.1,247.2z M1271.4,236.3c-0.8,0-1.3,0.6-1.3,1.7h-1.1c0.1-1.7,1-2.9,2.3-2.9
		c1.6,0,2.4,1.8,3.4,1.8c0.8,0,1.3-0.6,1.3-1.6h1.1c-0.1,1.7-1,2.8-2.3,2.8C1273.2,238.1,1272.4,236.3,1271.4,236.3z"/>
	<path d="M1295.6,247.8h-11.4c0.2,2.9,2.4,4.8,5.4,4.8c1.7,0,3.2-0.6,4.2-1.8l1,1.2c-1.2,1.5-3.1,2.2-5.3,2.2c-4.3,0-7.2-2.9-7.2-7
		s2.8-6.9,6.7-6.9s6.6,2.8,6.6,6.9C1295.7,247.4,1295.6,247.6,1295.6,247.8L1295.6,247.8z M1284.2,246.4h9.7
		c-0.2-2.7-2.2-4.6-4.9-4.6S1284.4,243.7,1284.2,246.4z"/>
	<path d="M1297.5,252.5l0.8-1.5c1.1,0.9,2.9,1.5,4.9,1.5c2.6,0,3.7-0.9,3.7-2.2c0-3.6-8.9-0.8-8.9-6.2c0-2.2,1.9-3.9,5.4-3.9
		c1.8,0,3.7,0.5,4.8,1.3l-0.8,1.5c-1.2-0.8-2.6-1.2-4-1.2c-2.5,0-3.6,1-3.6,2.3c0,3.7,8.9,0.9,8.9,6.2c0,2.4-2.1,3.9-5.6,3.9
		C1300.8,254.1,1298.6,253.4,1297.5,252.5L1297.5,252.5z"/>
	<path d="M133.3,287.2c0,4.2-2.9,7-6.8,7c-2.2,0-4.1-0.9-5.2-2.7v7.6h-1.8v-18.7h1.8v2.7c1.1-1.8,3-2.8,5.3-2.8
		C130.4,280.3,133.3,283.1,133.3,287.2z M131.4,287.2c0-3.2-2.2-5.3-5.1-5.3s-5.1,2.2-5.1,5.3s2.2,5.3,5.1,5.3
		C129.3,292.5,131.4,290.4,131.4,287.2z"/>
	<path d="M149,287.8h-11.4c0.2,2.9,2.4,4.8,5.4,4.8c1.7,0,3.1-0.6,4.2-1.8l1,1.2c-1.2,1.5-3.1,2.2-5.3,2.2c-4.3,0-7.2-2.9-7.2-7
		s2.8-6.9,6.7-6.9s6.6,2.8,6.6,6.9C149,287.4,149,287.6,149,287.8L149,287.8z M137.5,286.4h9.7c-0.2-2.7-2.2-4.5-4.9-4.5
		S137.8,283.7,137.5,286.4z"/>
	<path d="M152.8,274.8h1.9V294h-1.9V274.8z"/>
	<path d="M170.1,285.6v8.5h-1.8v-2.1c-0.8,1.4-2.4,2.3-4.7,2.3c-3.1,0-5-1.6-5-4c0-2.1,1.4-3.9,5.3-3.9h4.3v-0.8
		c0-2.3-1.3-3.6-3.9-3.6c-1.8,0-3.4,0.6-4.6,1.6l-0.8-1.4c1.4-1.2,3.4-1.9,5.6-1.9C168.1,280.3,170.1,282,170.1,285.6L170.1,285.6z
		 M168.2,289.9v-2.2h-4.3c-2.6,0-3.5,1-3.5,2.4c0,1.6,1.3,2.6,3.5,2.6S167.5,291.7,168.2,289.9L168.2,289.9z"/>
	<path d="M193.4,280.4l-6.1,13.7h-1.9l-6.1-13.7h1.9l5.1,11.6l5.2-11.6H193.4L193.4,280.4z"/>
	<path d="M195.6,276c0-0.7,0.6-1.3,1.4-1.3s1.4,0.6,1.4,1.3c0,0.8-0.6,1.4-1.4,1.4S195.6,276.8,195.6,276L195.6,276z M196,280.4h1.9
		V294H196V280.4z"/>
	<path d="M213.3,285.6v8.5h-1.8v-2.1c-0.8,1.4-2.4,2.3-4.7,2.3c-3.1,0-5-1.6-5-4c0-2.1,1.4-3.9,5.3-3.9h4.3v-0.8
		c0-2.3-1.3-3.6-3.9-3.6c-1.8,0-3.4,0.6-4.6,1.6l-0.8-1.4c1.4-1.2,3.4-1.9,5.6-1.9C211.3,280.3,213.3,282,213.3,285.6L213.3,285.6z
		 M211.5,289.9v-2.2h-4.3c-2.6,0-3.5,1-3.5,2.4c0,1.6,1.3,2.6,3.5,2.6S210.7,291.7,211.5,289.9L211.5,289.9z"/>
	<path d="M235.5,285.6v8.5h-1.8v-2.1c-0.8,1.4-2.4,2.3-4.7,2.3c-3.1,0-5-1.6-5-4c0-2.1,1.4-3.9,5.3-3.9h4.3v-0.8
		c0-2.3-1.3-3.6-3.9-3.6c-1.8,0-3.4,0.6-4.6,1.6l-0.8-1.4c1.4-1.2,3.4-1.9,5.6-1.9C233.5,280.3,235.5,282,235.5,285.6L235.5,285.6z
		 M233.6,289.9v-2.2h-4.3c-2.6,0-3.5,1-3.5,2.4c0,1.6,1.3,2.6,3.5,2.6S232.9,291.7,233.6,289.9L233.6,289.9z"/>
	<path d="M247.7,293.2c-0.7,0.6-1.8,1-2.9,1c-2.6,0-4-1.5-4-4v-8.3h-2.4v-1.6h2.4v-3h1.9v3h4.2v1.6h-4.2v8.2c0,1.6,0.8,2.5,2.4,2.5
		c0.8,0,1.5-0.2,2-0.7L247.7,293.2L247.7,293.2z"/>
	<path d="M250.6,276c0-0.7,0.6-1.3,1.4-1.3s1.4,0.6,1.4,1.3c0,0.8-0.6,1.4-1.4,1.4S250.6,276.8,250.6,276L250.6,276z M251.1,280.4
		h1.9V294h-1.9V280.4z"/>
	<path d="M269.5,280.4l-6.1,13.7h-1.9l-6.1-13.7h1.9l5.1,11.6l5.2-11.6H269.5L269.5,280.4z"/>
	<path d="M271.7,276c0-0.7,0.6-1.3,1.4-1.3s1.4,0.6,1.4,1.3c0,0.8-0.6,1.4-1.4,1.4S271.7,276.8,271.7,276L271.7,276z M272.1,280.4
		h1.9V294h-1.9V280.4z"/>
	<path d="M277.2,292.5l0.8-1.5c1.1,0.9,2.9,1.5,4.9,1.5c2.6,0,3.7-0.9,3.7-2.2c0-3.6-8.9-0.8-8.9-6.2c0-2.2,1.9-3.9,5.4-3.9
		c1.8,0,3.7,0.5,4.8,1.3l-0.8,1.5c-1.2-0.8-2.6-1.2-4-1.2c-2.5,0-3.6,1-3.6,2.3c0,3.7,8.9,0.9,8.9,6.2c0,2.4-2.1,3.9-5.6,3.9
		C280.5,294.2,278.3,293.4,277.2,292.5L277.2,292.5z"/>
	<path d="M299,293.2c-0.7,0.6-1.8,1-2.9,1c-2.6,0-4-1.5-4-4v-8.3h-2.4v-1.6h2.4v-3h1.9v3h4.2v1.6H294v8.2c0,1.6,0.8,2.5,2.4,2.5
		c0.8,0,1.5-0.2,2-0.7L299,293.2L299,293.2z"/>
	<path d="M312.7,285.6v8.5h-1.8v-2.1c-0.8,1.4-2.4,2.3-4.7,2.3c-3.1,0-5-1.6-5-4c0-2.1,1.4-3.9,5.3-3.9h4.3v-0.8
		c0-2.3-1.3-3.6-3.9-3.6c-1.8,0-3.4,0.6-4.5,1.6l-0.8-1.4c1.4-1.2,3.4-1.9,5.6-1.9C310.7,280.3,312.7,282,312.7,285.6L312.7,285.6z
		 M310.9,289.9v-2.2h-4.3c-2.6,0-3.5,1-3.5,2.4c0,1.6,1.3,2.6,3.5,2.6S310.1,291.7,310.9,289.9L310.9,289.9z"/>
	<path d="M336.5,287.8H325c0.2,2.9,2.4,4.8,5.4,4.8c1.7,0,3.1-0.6,4.2-1.8l1,1.2c-1.2,1.5-3.1,2.2-5.3,2.2c-4.3,0-7.2-2.9-7.2-7
		s2.8-6.9,6.7-6.9s6.6,2.8,6.6,6.9C336.5,287.4,336.4,287.6,336.5,287.8L336.5,287.8z M325,286.4h9.7c-0.2-2.7-2.2-4.5-4.9-4.5
		S325.3,283.7,325,286.4L325,286.4z"/>
	<path d="M358.5,280.4l-6.1,13.7h-1.9l-6.1-13.7h1.9l5.1,11.6l5.2-11.6H358.5L358.5,280.4z"/>
	<path d="M359.4,287.2c0-4.1,3-6.9,7-6.9s6.9,2.9,6.9,6.9s-2.9,7-6.9,7S359.4,291.3,359.4,287.2z M371.4,287.2
		c0-3.2-2.2-5.3-5.1-5.3s-5.1,2.1-5.1,5.3s2.2,5.3,5.1,5.3S371.4,290.4,371.4,287.2z"/>
	<path d="M377.1,274.8h1.9V294h-1.9V274.8z"/>
	<path d="M396.4,280.4V294h-1.8v-2.5c-1,1.7-2.7,2.6-4.9,2.6c-3.5,0-5.8-2-5.8-5.9v-7.9h1.9v7.8c0,2.9,1.5,4.4,4.1,4.4
		c2.9,0,4.6-1.9,4.6-5v-7.2L396.4,280.4L396.4,280.4z"/>
	<path d="M414.1,286.1v7.9h-1.9v-7.8c0-2.9-1.5-4.4-4.1-4.4c-2.9,0-4.8,1.8-4.8,4.9v7.2h-1.9v-13.7h1.8v2.5c1-1.7,2.8-2.6,5.2-2.6
		C411.9,280.2,414.1,282.2,414.1,286.1L414.1,286.1z"/>
	<path d="M426.4,293.2c-0.7,0.6-1.8,1-2.9,1c-2.6,0-4-1.5-4-4v-8.3H417v-1.6h2.4v-3h1.9v3h4.2v1.6h-4.2v8.2c0,1.6,0.8,2.5,2.4,2.5
		c0.8,0,1.5-0.2,2-0.7L426.4,293.2L426.4,293.2z"/>
	<path d="M440,285.6v8.5h-1.8v-2.1c-0.8,1.4-2.4,2.3-4.7,2.3c-3.1,0-5-1.6-5-4c0-2.1,1.4-3.9,5.3-3.9h4.3v-0.8
		c0-2.3-1.3-3.6-3.9-3.6c-1.8,0-3.4,0.6-4.5,1.6l-0.8-1.4c1.4-1.2,3.4-1.9,5.6-1.9C438,280.3,440,282,440,285.6L440,285.6z
		 M438.2,289.9v-2.2h-4.3c-2.6,0-3.5,1-3.5,2.4c0,1.6,1.3,2.6,3.5,2.6S437.4,291.7,438.2,289.9L438.2,289.9z"/>
	<path d="M451.9,280.3v1.8c-0.2,0-0.3,0-0.4,0c-2.9,0-4.6,1.8-4.6,5v7H445v-13.7h1.8v2.7C447.7,281.2,449.4,280.3,451.9,280.3
		L451.9,280.3z"/>
	<path d="M454.9,276c0-0.7,0.6-1.3,1.4-1.3s1.4,0.6,1.4,1.3c0,0.8-0.6,1.4-1.4,1.4S454.9,276.8,454.9,276L454.9,276z M455.3,280.4
		h1.9V294h-1.9V280.4z"/>
	<path d="M460.9,287.2c0-4.1,3-6.9,7-6.9s6.9,2.9,6.9,6.9s-2.9,7-6.9,7S460.9,291.3,460.9,287.2z M472.9,287.2
		c0-3.2-2.2-5.3-5.1-5.3s-5.1,2.1-5.1,5.3s2.2,5.3,5.1,5.3S472.9,290.4,472.9,287.2z"/>
	<path d="M476.7,292.5l0.8-1.5c1.1,0.9,2.9,1.5,4.9,1.5c2.6,0,3.7-0.9,3.7-2.2c0-3.6-8.9-0.8-8.9-6.2c0-2.2,1.9-3.9,5.4-3.9
		c1.8,0,3.7,0.5,4.8,1.3l-0.8,1.5c-1.2-0.8-2.6-1.2-4-1.2c-2.5,0-3.6,1-3.6,2.3c0,3.7,8.9,0.9,8.9,6.2c0,2.4-2.1,3.9-5.6,3.9
		C480,294.2,477.8,293.4,476.7,292.5L476.7,292.5z"/>
	<path d="M501.6,285.6v8.5h-1.8v-2.1c-0.8,1.4-2.4,2.3-4.7,2.3c-3.1,0-5-1.6-5-4c0-2.1,1.4-3.9,5.3-3.9h4.3v-0.8
		c0-2.3-1.3-3.6-3.9-3.6c-1.8,0-3.4,0.6-4.5,1.6l-0.8-1.4c1.4-1.2,3.4-1.9,5.6-1.9C499.6,280.3,501.6,282,501.6,285.6L501.6,285.6z
		 M499.8,289.9v-2.2h-4.3c-2.6,0-3.5,1-3.5,2.4c0,1.6,1.3,2.6,3.5,2.6S499,291.7,499.8,289.9L499.8,289.9z"/>
	<path d="M525.9,274.8V294h-1.8v-2.7c-1.1,1.9-3,2.8-5.3,2.8c-3.9,0-6.8-2.8-6.8-7s2.9-6.9,6.8-6.9c2.2,0,4.1,0.9,5.2,2.7v-8.2
		L525.9,274.8L525.9,274.8z M524.1,287.2c0-3.2-2.2-5.3-5.1-5.3s-5.1,2.1-5.1,5.3s2.2,5.3,5.1,5.3S524.1,290.4,524.1,287.2z"/>
	<path d="M529.7,287.2c0-4.1,3-6.9,7-6.9s6.9,2.9,6.9,6.9s-2.9,7-6.9,7S529.7,291.3,529.7,287.2z M541.7,287.2
		c0-3.2-2.2-5.3-5.1-5.3s-5.1,2.1-5.1,5.3s2.2,5.3,5.1,5.3S541.7,290.4,541.7,287.2z"/>
	<path d="M545.5,292.5l0.8-1.5c1.1,0.9,2.9,1.5,4.9,1.5c2.6,0,3.7-0.9,3.7-2.2c0-3.6-8.9-0.8-8.9-6.2c0-2.2,1.9-3.9,5.4-3.9
		c1.8,0,3.7,0.5,4.8,1.3l-0.8,1.5c-1.2-0.8-2.6-1.2-4-1.2c-2.5,0-3.6,1-3.6,2.3c0,3.7,8.9,0.9,8.9,6.2c0,2.4-2.1,3.9-5.6,3.9
		C548.8,294.2,546.6,293.4,545.5,292.5L545.5,292.5z"/>
	<path d="M577.2,285.6v8.5h-1.8v-2.1c-0.8,1.4-2.4,2.3-4.7,2.3c-3.1,0-5-1.6-5-4c0-2.1,1.3-3.9,5.3-3.9h4.3v-0.8
		c0-2.3-1.3-3.6-3.9-3.6c-1.8,0-3.4,0.6-4.5,1.6l-0.8-1.4c1.4-1.2,3.4-1.9,5.6-1.9C575.2,280.3,577.2,282,577.2,285.6z M575.4,289.9
		v-2.2h-4.3c-2.7,0-3.5,1-3.5,2.4c0,1.6,1.3,2.6,3.5,2.6S574.6,291.7,575.4,289.9L575.4,289.9z"/>
	<path d="M596.1,287.2c0,4.2-2.9,7-6.8,7c-2.2,0-4.1-0.9-5.2-2.7v7.6h-1.8v-18.7h1.8v2.7c1.1-1.8,3-2.8,5.3-2.8
		C593.2,280.3,596.1,283.1,596.1,287.2L596.1,287.2z M594.2,287.2c0-3.2-2.2-5.3-5.1-5.3s-5.1,2.2-5.1,5.3s2.2,5.3,5.1,5.3
		S594.2,290.4,594.2,287.2z"/>
	<path d="M599.9,274.8h1.8V294h-1.8V274.8z"/>
	<path d="M606.4,276c0-0.7,0.6-1.3,1.3-1.3s1.3,0.6,1.3,1.3c0,0.8-0.6,1.4-1.3,1.4S606.4,276.8,606.4,276L606.4,276z M606.8,280.4
		h1.8V294h-1.8V280.4z"/>
	<path d="M612.5,287.2c0-4.1,3-6.9,7-6.9c2.3,0,4.3,0.9,5.4,2.7l-1.4,0.9c-0.9-1.4-2.4-2-4-2c-3,0-5.2,2.1-5.2,5.3s2.2,5.3,5.2,5.3
		c1.6,0,3-0.6,4-2l1.4,0.9c-1.1,1.8-3,2.7-5.4,2.7C615.4,294.2,612.5,291.3,612.5,287.2z"/>
	<path d="M638.8,285.6v8.5H637v-2.1c-0.8,1.4-2.4,2.3-4.7,2.3c-3.1,0-5-1.6-5-4c0-2.1,1.3-3.9,5.3-3.9h4.3v-0.8
		c0-2.3-1.3-3.6-3.9-3.6c-1.8,0-3.4,0.6-4.5,1.6l-0.8-1.4c1.4-1.2,3.4-1.9,5.6-1.9C636.8,280.3,638.8,282,638.8,285.6z M637,289.9
		v-2.2h-4.3c-2.7,0-3.5,1-3.5,2.4c0,1.6,1.3,2.6,3.5,2.6S636.2,291.7,637,289.9L637,289.9z"/>
	<path d="M656.3,274.8V294h-1.8v-2.7c-1.1,1.9-3,2.8-5.3,2.8c-3.9,0-6.8-2.8-6.8-7s2.9-6.9,6.8-6.9c2.2,0,4.1,0.9,5.2,2.7v-8.2
		L656.3,274.8L656.3,274.8z M654.5,287.2c0-3.2-2.2-5.3-5.1-5.3s-5.1,2.1-5.1,5.3s2.2,5.3,5.1,5.3S654.5,290.4,654.5,287.2z"/>
	<path d="M660.1,287.2c0-4.1,3-6.9,7-6.9s6.9,2.9,6.9,6.9s-2.9,7-6.9,7S660.1,291.3,660.1,287.2z M672.2,287.2
		c0-3.2-2.2-5.3-5.1-5.3s-5.1,2.1-5.1,5.3s2.2,5.3,5.1,5.3S672.2,290.4,672.2,287.2z"/>
	<path d="M684.7,280.3v1.8c-0.2,0-0.3,0-0.4,0c-2.9,0-4.6,1.8-4.6,5v7h-1.8v-13.7h1.8v2.7C680.4,281.2,682.2,280.3,684.7,280.3
		L684.7,280.3z"/>
	<path d="M699.8,287.8h-11.4c0.2,2.9,2.4,4.8,5.4,4.8c1.7,0,3.2-0.6,4.2-1.8l1,1.2c-1.2,1.5-3.1,2.2-5.3,2.2c-4.3,0-7.2-2.9-7.2-7
		s2.8-6.9,6.7-6.9s6.6,2.8,6.6,6.9C699.8,287.4,699.8,287.6,699.8,287.8L699.8,287.8z M688.4,286.4h9.7c-0.2-2.7-2.2-4.5-4.9-4.5
		S688.6,283.7,688.4,286.4z"/>
	<path d="M701.7,292.5l0.8-1.5c1.1,0.9,2.9,1.5,4.9,1.5c2.6,0,3.7-0.9,3.7-2.2c0-3.6-8.9-0.8-8.9-6.2c0-2.2,1.9-3.9,5.4-3.9
		c1.8,0,3.7,0.5,4.8,1.3l-0.8,1.5c-1.2-0.8-2.6-1.2-4-1.2c-2.5,0-3.6,1-3.6,2.3c0,3.7,8.9,0.9,8.9,6.2c0,2.4-2.1,3.9-5.6,3.9
		C705,294.2,702.8,293.4,701.7,292.5L701.7,292.5z"/>
	<path d="M735.6,274.8V294h-1.8v-2.7c-1.1,1.9-3,2.8-5.3,2.8c-3.9,0-6.8-2.8-6.8-7s2.9-6.9,6.8-6.9c2.2,0,4.1,0.9,5.2,2.7v-8.2
		L735.6,274.8L735.6,274.8z M733.8,287.2c0-3.2-2.2-5.3-5.1-5.3s-5.1,2.1-5.1,5.3s2.2,5.3,5.1,5.3S733.8,290.4,733.8,287.2z"/>
	<path d="M739.4,287.2c0-4.1,3-6.9,7-6.9s6.9,2.9,6.9,6.9s-2.9,7-6.9,7S739.4,291.3,739.4,287.2z M751.4,287.2
		c0-3.2-2.2-5.3-5.1-5.3s-5.1,2.1-5.1,5.3s2.2,5.3,5.1,5.3S751.4,290.4,751.4,287.2z"/>
	<path d="M776.3,274.8V294h-1.8v-2.7c-1.1,1.9-3,2.8-5.3,2.8c-3.9,0-6.8-2.8-6.8-7s2.9-6.9,6.8-6.9c2.2,0,4.1,0.9,5.2,2.7v-8.2
		L776.3,274.8L776.3,274.8z M774.5,287.2c0-3.2-2.2-5.3-5.1-5.3s-5.1,2.1-5.1,5.3s2.2,5.3,5.1,5.3S774.5,290.4,774.5,287.2z"/>
	<path d="M781.1,276c0-0.7,0.6-1.3,1.3-1.3s1.3,0.6,1.3,1.3c0,0.8-0.6,1.4-1.3,1.4S781.1,276.8,781.1,276L781.1,276z M781.5,280.4
		h1.8V294h-1.8V280.4z"/>
	<path d="M795.4,280.3v1.8c-0.2,0-0.3,0-0.4,0c-2.9,0-4.6,1.8-4.6,5v7h-1.8v-13.7h1.8v2.7C791.1,281.2,792.9,280.3,795.4,280.3
		L795.4,280.3z"/>
	<path d="M810.5,287.8H799c0.2,2.9,2.4,4.8,5.4,4.8c1.7,0,3.2-0.6,4.2-1.8l1,1.2c-1.2,1.5-3.1,2.2-5.3,2.2c-4.3,0-7.2-2.9-7.2-7
		s2.8-6.9,6.7-6.9s6.6,2.8,6.6,6.9C810.5,287.4,810.5,287.6,810.5,287.8L810.5,287.8z M799,286.4h9.7c-0.2-2.7-2.2-4.5-4.9-4.5
		S799.3,283.7,799,286.4z"/>
	<path d="M813.9,276c0-0.7,0.6-1.3,1.3-1.3s1.3,0.6,1.3,1.3c0,0.8-0.6,1.4-1.3,1.4S813.9,276.8,813.9,276L813.9,276z M814.3,280.4
		h1.8V294h-1.8V280.4z"/>
	<path d="M828.5,293.2c-0.7,0.6-1.8,1-2.9,1c-2.6,0-4-1.5-4-4v-8.3h-2.4v-1.6h2.4v-3h1.8v3h4.2v1.6h-4.2v8.2c0,1.6,0.8,2.5,2.4,2.5
		c0.8,0,1.5-0.2,2-0.7L828.5,293.2L828.5,293.2z"/>
	<path d="M830,287.2c0-4.1,3-6.9,7-6.9s6.9,2.9,6.9,6.9s-2.9,7-6.9,7S830,291.3,830,287.2z M842,287.2c0-3.2-2.2-5.3-5.1-5.3
		s-5.1,2.1-5.1,5.3s2.2,5.3,5.1,5.3S842,290.4,842,287.2z"/>
	<path d="M848.8,292.7c0,0.4-0.1,0.8-0.4,1.5l-1.1,3.6h-1.2l0.9-3.8c-0.5-0.2-0.9-0.6-0.9-1.3c0-0.8,0.6-1.4,1.4-1.4
		S848.8,292,848.8,292.7L848.8,292.7z"/>
	<path d="M872.2,286.1v7.9h-1.8v-7.8c0-2.9-1.5-4.4-4.1-4.4c-2.9,0-4.8,1.8-4.8,4.9v7.2h-1.8v-13.7h1.8v2.5c1-1.7,2.8-2.6,5.2-2.6
		C869.9,280.2,872.2,282.2,872.2,286.1L872.2,286.1z"/>
	<path d="M887.5,285.6v8.5h-1.8v-2.1c-0.8,1.4-2.4,2.3-4.7,2.3c-3.1,0-5-1.6-5-4c0-2.1,1.3-3.9,5.3-3.9h4.3v-0.8
		c0-2.3-1.3-3.6-3.9-3.6c-1.8,0-3.4,0.6-4.5,1.6l-0.8-1.4c1.4-1.2,3.4-1.9,5.6-1.9C885.5,280.3,887.5,282,887.5,285.6z M885.6,289.9
		v-2.2h-4.3c-2.7,0-3.5,1-3.5,2.4c0,1.6,1.3,2.6,3.5,2.6S884.9,291.7,885.6,289.9L885.6,289.9z"/>
	<path d="M921.9,286.1v7.9H920v-7.8c0-2.9-1.5-4.4-3.9-4.4c-2.8,0-4.6,1.8-4.6,4.9v7.2h-1.8v-7.8c0-2.9-1.5-4.4-4-4.4
		c-2.8,0-4.6,1.8-4.6,4.9v7.2h-1.8v-13.7h1.8v2.5c1-1.6,2.7-2.6,5-2.6s4,1,4.9,2.9c1-1.8,2.9-2.9,5.4-2.9
		C919.7,280.3,921.9,282.2,921.9,286.1L921.9,286.1z"/>
	<path d="M938.9,287.8h-11.4c0.2,2.9,2.4,4.8,5.4,4.8c1.7,0,3.2-0.6,4.2-1.8l1,1.2c-1.2,1.5-3.1,2.2-5.3,2.2c-4.3,0-7.2-2.9-7.2-7
		s2.8-6.9,6.7-6.9s6.6,2.8,6.6,6.9C938.9,287.4,938.9,287.6,938.9,287.8L938.9,287.8z M927.4,286.4h9.7c-0.2-2.7-2.2-4.5-4.9-4.5
		S927.7,283.7,927.4,286.4z"/>
	<path d="M955.1,274.8V294h-1.8v-2.7c-1.1,1.9-3,2.8-5.3,2.8c-3.9,0-6.8-2.8-6.8-7s2.9-6.9,6.8-6.9c2.2,0,4.1,0.9,5.2,2.7v-8.2
		L955.1,274.8L955.1,274.8z M953.3,287.2c0-3.2-2.2-5.3-5.1-5.3s-5.1,2.1-5.1,5.3s2.2,5.3,5.1,5.3S953.3,290.4,953.3,287.2z"/>
	<path d="M959.9,276c0-0.7,0.6-1.3,1.3-1.3s1.3,0.6,1.3,1.3c0,0.8-0.6,1.4-1.3,1.4S959.9,276.8,959.9,276L959.9,276z M960.3,280.4
		h1.8V294h-1.8V280.4z"/>
	<path d="M979.8,274.8V294H978v-2.7c-1.1,1.9-3,2.8-5.3,2.8c-3.9,0-6.8-2.8-6.8-7s2.9-6.9,6.8-6.9c2.2,0,4.1,0.9,5.2,2.7v-8.2
		L979.8,274.8L979.8,274.8z M977.9,287.2c0-3.2-2.2-5.3-5.1-5.3s-5.1,2.1-5.1,5.3s2.2,5.3,5.1,5.3S977.9,290.4,977.9,287.2z"/>
	<path d="M995.2,285.6v8.5h-1.8v-2.1c-0.8,1.4-2.4,2.3-4.7,2.3c-3.1,0-5-1.6-5-4c0-2.1,1.3-3.9,5.3-3.9h4.3v-0.8
		c0-2.3-1.3-3.6-3.9-3.6c-1.8,0-3.4,0.6-4.5,1.6l-0.8-1.4c1.4-1.2,3.4-1.9,5.6-1.9C993.2,280.3,995.2,282,995.2,285.6z M993.4,289.9
		v-2.2h-4.3c-2.7,0-3.5,1-3.5,2.4c0,1.6,1.3,2.6,3.5,2.6S992.7,291.7,993.4,289.9L993.4,289.9z"/>
	<path d="M1019,287.8h-11.4c0.2,2.9,2.4,4.8,5.4,4.8c1.7,0,3.2-0.6,4.2-1.8l1,1.2c-1.2,1.5-3.1,2.2-5.3,2.2c-4.3,0-7.2-2.9-7.2-7
		s2.8-6.9,6.7-6.9s6.6,2.8,6.6,6.9C1019,287.4,1019,287.6,1019,287.8L1019,287.8z M1007.5,286.4h9.7c-0.2-2.7-2.2-4.5-4.9-4.5
		S1007.8,283.7,1007.5,286.4z"/>
	<path d="M1045.3,286.1v7.9h-1.8v-7.8c0-2.9-1.5-4.4-3.9-4.4c-2.8,0-4.6,1.8-4.6,4.9v7.2h-1.8v-7.8c0-2.9-1.5-4.4-3.9-4.4
		c-2.8,0-4.6,1.8-4.6,4.9v7.2h-1.8v-13.7h1.8v2.5c1-1.6,2.7-2.6,5-2.6s4,1,4.9,2.9c1-1.8,2.9-2.9,5.4-2.9
		C1043.1,280.3,1045.3,282.2,1045.3,286.1L1045.3,286.1z"/>
	<path d="M1069.6,280.4v18.7h-1.8v-7.6c-1.1,1.8-3,2.7-5.2,2.7c-3.9,0-6.8-2.8-6.8-7s2.9-6.9,6.8-6.9c2.3,0,4.2,1,5.3,2.8v-2.7
		H1069.6L1069.6,280.4z M1067.8,287.2c0-3.2-2.2-5.3-5.1-5.3s-5.1,2.2-5.1,5.3s2.2,5.3,5.1,5.3S1067.8,290.4,1067.8,287.2z"/>
	<path d="M1087.1,280.4V294h-1.8v-2.5c-1,1.7-2.7,2.6-4.9,2.6c-3.5,0-5.8-2-5.8-5.9v-7.9h1.8v7.8c0,2.9,1.5,4.4,4.1,4.4
		c2.9,0,4.7-1.9,4.7-5v-7.2L1087.1,280.4L1087.1,280.4z"/>
	<path d="M1104.2,287.8h-11.4c0.2,2.9,2.4,4.8,5.4,4.8c1.7,0,3.2-0.6,4.2-1.8l1,1.2c-1.2,1.5-3.1,2.2-5.3,2.2c-4.3,0-7.2-2.9-7.2-7
		s2.8-6.9,6.7-6.9s6.6,2.8,6.6,6.9C1104.2,287.4,1104.2,287.6,1104.2,287.8L1104.2,287.8z M1092.8,286.4h9.7
		c-0.2-2.7-2.2-4.5-4.9-4.5S1093,283.7,1092.8,286.4z"/>
	<path d="M1122,293.2c-0.7,0.6-1.8,1-2.9,1c-2.6,0-4-1.5-4-4v-8.3h-2.4v-1.6h2.4v-3h1.8v3h4.2v1.6h-4.2v8.2c0,1.6,0.8,2.5,2.4,2.5
		c0.8,0,1.5-0.2,2-0.7L1122,293.2L1122,293.2z"/>
	<path d="M1137.7,280.4V294h-1.8v-2.5c-1,1.7-2.7,2.6-4.9,2.6c-3.5,0-5.8-2-5.8-5.9v-7.9h1.8v7.8c0,2.9,1.5,4.4,4.1,4.4
		c2.9,0,4.7-1.9,4.7-5v-7.2L1137.7,280.4L1137.7,280.4z"/>
	<path d="M1155.3,274.8V294h-1.8v-2.7c-1.1,1.9-3,2.8-5.3,2.8c-3.9,0-6.8-2.8-6.8-7s2.9-6.9,6.8-6.9c2.2,0,4.1,0.9,5.2,2.7v-8.2
		L1155.3,274.8L1155.3,274.8z M1153.5,287.2c0-3.2-2.2-5.3-5.1-5.3s-5.1,2.1-5.1,5.3s2.2,5.3,5.1,5.3S1153.5,290.4,1153.5,287.2z"/>
	<path d="M1159.1,287.2c0-4.1,3-6.9,7-6.9s6.9,2.9,6.9,6.9s-2.9,7-6.9,7S1159.1,291.3,1159.1,287.2z M1171.2,287.2
		c0-3.2-2.2-5.3-5.1-5.3s-5.1,2.1-5.1,5.3s2.2,5.3,5.1,5.3S1171.2,290.4,1171.2,287.2z"/>
	<path d="M1182.2,287.2c0-4.1,3-6.9,7-6.9s6.9,2.9,6.9,6.9s-2.9,7-6.9,7S1182.2,291.3,1182.2,287.2z M1194.3,287.2
		c0-3.2-2.2-5.3-5.1-5.3s-5.1,2.1-5.1,5.3s2.2,5.3,5.1,5.3S1194.3,290.4,1194.3,287.2z"/>
	<path d="M1219.2,280.4v18.7h-1.8v-7.6c-1.1,1.8-3,2.7-5.2,2.7c-3.9,0-6.8-2.8-6.8-7s2.9-6.9,6.8-6.9c2.3,0,4.2,1,5.3,2.8v-2.7
		H1219.2L1219.2,280.4z M1217.4,287.2c0-3.2-2.2-5.3-5.1-5.3s-5.1,2.2-5.1,5.3s2.2,5.3,5.1,5.3S1217.4,290.4,1217.4,287.2z"/>
	<path d="M1236.7,280.4V294h-1.8v-2.5c-1,1.7-2.7,2.6-4.9,2.6c-3.5,0-5.8-2-5.8-5.9v-7.9h1.8v7.8c0,2.9,1.5,4.4,4.1,4.4
		c2.9,0,4.7-1.9,4.7-5v-7.2L1236.7,280.4L1236.7,280.4z"/>
	<path d="M1253.8,287.8h-11.4c0.2,2.9,2.4,4.8,5.4,4.8c1.7,0,3.2-0.6,4.2-1.8l1,1.2c-1.2,1.5-3.1,2.2-5.3,2.2c-4.3,0-7.2-2.9-7.2-7
		s2.8-6.9,6.7-6.9s6.6,2.8,6.6,6.9C1253.8,287.4,1253.7,287.6,1253.8,287.8L1253.8,287.8z M1242.3,286.4h9.7
		c-0.2-2.7-2.2-4.5-4.9-4.5S1242.6,283.7,1242.3,286.4z"/>
	<path d="M1276.9,286.1v7.9h-1.8v-7.8c0-2.9-1.5-4.4-4.1-4.4c-2.9,0-4.8,1.8-4.8,4.9v7.2h-1.8v-13.7h1.8v2.5c1-1.7,2.8-2.6,5.2-2.6
		C1274.6,280.2,1276.9,282.2,1276.9,286.1L1276.9,286.1z"/>
	<path d="M1292.3,285.6v8.5h-1.8v-2.1c-0.8,1.4-2.4,2.3-4.7,2.3c-3.1,0-5-1.6-5-4c0-2.1,1.3-3.9,5.3-3.9h4.3v-0.8
		c0-2.3-1.3-3.6-3.9-3.6c-1.8,0-3.4,0.6-4.6,1.6l-0.8-1.4c1.4-1.2,3.4-1.9,5.6-1.9C1290.3,280.3,1292.3,282,1292.3,285.6
		L1292.3,285.6z M1290.4,289.9v-2.2h-4.3c-2.7,0-3.5,1-3.5,2.4c0,1.6,1.3,2.6,3.5,2.6S1289.7,291.7,1290.4,289.9L1290.4,289.9z
		 M1283.8,278h-1.1c0.1-1.7,1-2.9,2.3-2.9c1.6,0,2.4,1.8,3.4,1.8c0.8,0,1.3-0.6,1.3-1.6h1.1c-0.1,1.7-1,2.8-2.3,2.8
		c-1.6,0-2.4-1.8-3.4-1.8C1284.4,276.3,1283.8,277,1283.8,278L1283.8,278z"/>
	<path d="M1296,287.2c0-4.1,3-6.9,7-6.9s6.9,2.9,6.9,6.9s-2.9,7-6.9,7S1296,291.3,1296,287.2z M1308,287.2c0-3.2-2.2-5.3-5.1-5.3
		s-5.1,2.1-5.1,5.3s2.2,5.3,5.1,5.3S1308,290.4,1308,287.2z"/>
	<path d="M131.3,327.8h-11.4c0.2,2.9,2.4,4.8,5.4,4.8c1.7,0,3.2-0.6,4.2-1.8l1,1.2c-1.2,1.5-3.1,2.2-5.3,2.2c-4.3,0-7.2-2.9-7.2-7
		s2.8-6.9,6.7-6.9c3.9,0,6.6,2.8,6.6,6.9C131.4,327.4,131.3,327.6,131.3,327.8L131.3,327.8z M119.9,326.4h9.7
		c-0.2-2.7-2.2-4.5-4.9-4.5S120.1,323.7,119.9,326.4z"/>
	<path d="M133.2,332.5l0.8-1.5c1.1,0.9,2.9,1.5,4.9,1.5c2.6,0,3.7-0.9,3.7-2.2c0-3.6-8.9-0.8-8.9-6.2c0-2.2,1.9-3.9,5.4-3.9
		c1.8,0,3.7,0.5,4.8,1.3l-0.8,1.5c-1.2-0.8-2.6-1.2-4-1.2c-2.5,0-3.6,1-3.6,2.3c0,3.7,8.9,0.9,8.9,6.2c0,2.4-2.1,3.9-5.6,3.9
		C136.6,334.2,134.4,333.4,133.2,332.5L133.2,332.5z"/>
	<path d="M155.1,333.2c-0.7,0.6-1.8,1-2.9,1c-2.6,0-4-1.5-4-4v-8.3h-2.4v-1.6h2.4v-3h1.9v3h4.2v1.6H150v8.2c0,1.6,0.8,2.5,2.4,2.5
		c0.8,0,1.5-0.2,2-0.7L155.1,333.2L155.1,333.2z"/>
	<path d="M168.7,325.6v8.5H167v-2.1c-0.8,1.4-2.4,2.3-4.7,2.3c-3.1,0-5-1.6-5-4c0-2.1,1.4-3.9,5.3-3.9h4.3v-0.8
		c0-2.3-1.3-3.6-3.9-3.6c-1.8,0-3.4,0.6-4.6,1.6l-0.8-1.4c1.4-1.2,3.4-1.9,5.6-1.9C166.7,320.3,168.7,322,168.7,325.6L168.7,325.6z
		 M166.9,329.9v-2.2h-4.3c-2.6,0-3.5,1-3.5,2.4c0,1.6,1.3,2.6,3.5,2.6S166.2,331.7,166.9,329.9L166.9,329.9z M163.4,318.3h-1.8
		l3.6-3.2h2.5L163.4,318.3L163.4,318.3z"/>
	<path d="M175.6,338.3l0.6-1.4c0.6,0.5,1.3,0.7,2.1,0.7c1.5,0,2.3-0.9,2.3-2.6v-14.7h1.9v14.7c0,2.5-1.4,4.2-4,4.2
		C177.4,339.2,176.3,338.9,175.6,338.3L175.6,338.3z M180.3,316c0-0.7,0.6-1.3,1.4-1.3s1.4,0.6,1.4,1.3c0,0.8-0.6,1.4-1.4,1.4
		S180.3,316.8,180.3,316L180.3,316z"/>
	<path d="M200,320.4V334h-1.8v-2.5c-1,1.7-2.7,2.6-4.9,2.6c-3.5,0-5.8-2-5.8-5.9v-7.9h1.9v7.8c0,2.9,1.5,4.4,4.1,4.4
		c2.9,0,4.6-1.9,4.6-5v-7.2L200,320.4L200,320.4z"/>
	<path d="M212.1,320.3v1.8c-0.2,0-0.3,0-0.4,0c-2.9,0-4.6,1.8-4.6,5v7h-1.9v-13.7h1.8v2.7C207.8,321.2,209.6,320.3,212.1,320.3
		L212.1,320.3z"/>
	<path d="M215,316c0-0.7,0.6-1.3,1.4-1.3s1.4,0.6,1.4,1.3c0,0.8-0.6,1.4-1.4,1.4S215,316.8,215,316L215,316z M215.4,320.4h1.9V334
		h-1.9V320.4z"/>
	<path d="M234.9,314.8V334h-1.8v-2.7c-1.1,1.9-3,2.8-5.3,2.8c-3.9,0-6.8-2.8-6.8-7s2.9-6.9,6.8-6.9c2.2,0,4.1,0.9,5.2,2.7v-8.2
		L234.9,314.8L234.9,314.8z M233,327.2c0-3.2-2.2-5.3-5.1-5.3s-5.1,2.1-5.1,5.3s2.2,5.3,5.1,5.3S233,330.4,233,327.2z"/>
	<path d="M239.6,316c0-0.7,0.6-1.3,1.4-1.3s1.4,0.6,1.4,1.3c0,0.8-0.6,1.4-1.4,1.4S239.6,316.8,239.6,316L239.6,316z M240,320.4h1.9
		V334H240V320.4z"/>
	<path d="M245.6,327.2c0-4.1,3-6.9,7.1-6.9c2.3,0,4.3,0.9,5.4,2.7l-1.4,0.9c-0.9-1.4-2.4-2-4-2c-3,0-5.2,2.1-5.2,5.3
		s2.2,5.3,5.2,5.3c1.6,0,3-0.6,4-2l1.4,0.9c-1.1,1.8-3,2.7-5.4,2.7C248.6,334.2,245.6,331.3,245.6,327.2z"/>
	<path d="M272,325.6v8.5h-1.8v-2.1c-0.8,1.4-2.4,2.3-4.7,2.3c-3.1,0-5-1.6-5-4c0-2.1,1.4-3.9,5.3-3.9h4.3v-0.8
		c0-2.3-1.3-3.6-3.9-3.6c-1.8,0-3.4,0.6-4.5,1.6l-0.8-1.4c1.4-1.2,3.4-1.9,5.6-1.9C270,320.3,272,322,272,325.6L272,325.6z
		 M270.1,329.9v-2.2h-4.3c-2.6,0-3.5,1-3.5,2.4c0,1.6,1.3,2.6,3.5,2.6S269.4,331.7,270.1,329.9L270.1,329.9z"/>
	<path d="M299.6,326.1v7.9h-1.9v-7.8c0-2.9-1.5-4.4-3.9-4.4c-2.8,0-4.6,1.8-4.6,4.9v7.2h-1.9v-7.8c0-2.9-1.5-4.4-4-4.4
		c-2.8,0-4.6,1.8-4.6,4.9v7.2H277v-13.7h1.8v2.5c1-1.6,2.7-2.6,5-2.6s4,1,4.9,2.9c1-1.8,2.9-2.9,5.4-2.9
		C297.4,320.3,299.5,322.2,299.6,326.1L299.6,326.1z"/>
	<path d="M316.5,327.8h-11.4c0.2,2.9,2.4,4.8,5.4,4.8c1.7,0,3.1-0.6,4.2-1.8l1,1.2c-1.2,1.5-3.1,2.2-5.3,2.2c-4.3,0-7.2-2.9-7.2-7
		s2.8-6.9,6.7-6.9s6.6,2.8,6.6,6.9C316.6,327.4,316.5,327.6,316.5,327.8L316.5,327.8z M305.1,326.4h9.7c-0.2-2.7-2.2-4.5-4.9-4.5
		S305.3,323.7,305.1,326.4L305.1,326.4z"/>
	<path d="M332.9,326.1v7.9h-1.9v-7.8c0-2.9-1.5-4.4-4.1-4.4c-2.9,0-4.8,1.8-4.8,4.9v7.2h-1.9v-13.7h1.8v2.5c1-1.7,2.8-2.6,5.2-2.6
		C330.6,320.2,332.9,322.2,332.9,326.1L332.9,326.1z"/>
	<path d="M345.1,333.2c-0.7,0.6-1.8,1-2.9,1c-2.6,0-4-1.5-4-4v-8.3h-2.4v-1.6h2.4v-3h1.9v3h4.2v1.6h-4.2v8.2c0,1.6,0.8,2.5,2.4,2.5
		c0.8,0,1.5-0.2,2-0.7L345.1,333.2L345.1,333.2z"/>
	<path d="M359.9,327.8h-11.4c0.2,2.9,2.4,4.8,5.4,4.8c1.7,0,3.1-0.6,4.2-1.8l1,1.2c-1.2,1.5-3.1,2.2-5.3,2.2c-4.3,0-7.2-2.9-7.2-7
		s2.8-6.9,6.7-6.9s6.6,2.8,6.6,6.9C359.9,327.4,359.9,327.6,359.9,327.8L359.9,327.8z M348.5,326.4h9.7c-0.2-2.7-2.2-4.5-4.9-4.5
		S348.7,323.7,348.5,326.4L348.5,326.4z"/>
	<path d="M384.4,327.2c0,4.2-2.9,7-6.8,7c-2.2,0-4.1-0.9-5.2-2.7v7.6h-1.9v-18.7h1.8v2.7c1.1-1.8,3-2.8,5.3-2.8
		C381.5,320.3,384.4,323.1,384.4,327.2L384.4,327.2z M382.5,327.2c0-3.2-2.2-5.3-5.1-5.3s-5.1,2.2-5.1,5.3s2.2,5.3,5.1,5.3
		S382.5,330.4,382.5,327.2z"/>
	<path d="M395,320.3v1.8c-0.2,0-0.3,0-0.4,0c-2.9,0-4.6,1.8-4.6,5v7h-1.9v-13.7h1.8v2.7C390.8,321.2,392.5,320.3,395,320.3
		L395,320.3z"/>
	<path d="M396.9,327.2c0-4.1,3-6.9,7-6.9s6.9,2.9,6.9,6.9s-2.9,7-6.9,7S396.9,331.3,396.9,327.2z M408.9,327.2
		c0-3.2-2.2-5.3-5.1-5.3s-5.1,2.1-5.1,5.3s2.2,5.3,5.1,5.3S408.9,330.4,408.9,327.2z"/>
	<path d="M414.1,316c0-0.7,0.6-1.3,1.4-1.3s1.4,0.6,1.4,1.3c0,0.8-0.6,1.4-1.4,1.4S414.1,316.8,414.1,316L414.1,316z M414.5,320.4
		h1.9V334h-1.9V320.4z"/>
	<path d="M435.4,327.2c0,4.1-2.9,7-6.8,7c-2.3,0-4.2-1-5.3-2.8v2.7h-1.8v-19.3h1.9v8.2c1.1-1.8,3-2.7,5.2-2.7
		C432.5,320.3,435.4,323.1,435.4,327.2L435.4,327.2z M433.5,327.2c0-3.2-2.2-5.3-5.1-5.3s-5.1,2.1-5.1,5.3s2.2,5.3,5.1,5.3
		S433.5,330.4,433.5,327.2z"/>
	<path d="M438.7,316c0-0.7,0.6-1.3,1.4-1.3s1.4,0.6,1.4,1.3c0,0.8-0.6,1.4-1.4,1.4S438.7,316.8,438.7,316L438.7,316z M439.2,320.4
		h1.9V334h-1.9V320.4z"/>
	<path d="M458.6,314.8V334h-1.8v-2.7c-1.1,1.9-3,2.8-5.3,2.8c-3.9,0-6.8-2.8-6.8-7s2.9-6.9,6.8-6.9c2.2,0,4.1,0.9,5.2,2.7v-8.2
		L458.6,314.8L458.6,314.8z M456.8,327.2c0-3.2-2.2-5.3-5.1-5.3s-5.1,2.1-5.1,5.3s2.2,5.3,5.1,5.3S456.8,330.4,456.8,327.2z"/>
	<path d="M462.4,327.2c0-4.1,3-6.9,7-6.9s6.9,2.9,6.9,6.9s-2.9,7-6.9,7S462.4,331.3,462.4,327.2z M474.4,327.2
		c0-3.2-2.2-5.3-5.1-5.3s-5.1,2.1-5.1,5.3s2.2,5.3,5.1,5.3S474.4,330.4,474.4,327.2z"/>
	<path d="M481.3,332.7c0,0.4-0.1,0.8-0.4,1.5l-1.1,3.6h-1.2l0.9-3.8c-0.5-0.2-0.9-0.6-0.9-1.3c0-0.8,0.6-1.4,1.4-1.4
		S481.3,332,481.3,332.7L481.3,332.7z"/>
	<path d="M503.9,327.8h-11.4c0.2,2.9,2.4,4.8,5.4,4.8c1.7,0,3.1-0.6,4.2-1.8l1,1.2c-1.2,1.5-3.1,2.2-5.3,2.2c-4.3,0-7.2-2.9-7.2-7
		s2.8-6.9,6.7-6.9s6.6,2.8,6.6,6.9C503.9,327.4,503.9,327.6,503.9,327.8L503.9,327.8z M492.5,326.4h9.7c-0.2-2.7-2.2-4.5-4.9-4.5
		S492.7,323.7,492.5,326.4L492.5,326.4z"/>
	<path d="M505.8,332.5l0.8-1.5c1.1,0.9,2.9,1.5,4.9,1.5c2.6,0,3.7-0.9,3.7-2.2c0-3.6-8.9-0.8-8.9-6.2c0-2.2,1.9-3.9,5.4-3.9
		c1.8,0,3.7,0.5,4.8,1.3l-0.8,1.5c-1.2-0.8-2.6-1.2-4-1.2c-2.5,0-3.6,1-3.6,2.3c0,3.7,8.9,0.9,8.9,6.2c0,2.4-2.1,3.9-5.6,3.9
		C509.1,334.2,506.9,333.4,505.8,332.5L505.8,332.5z"/>
	<path d="M527.6,333.2c-0.7,0.6-1.8,1-2.9,1c-2.6,0-4-1.5-4-4v-8.3h-2.4v-1.6h2.4v-3h1.8v3h4.2v1.6h-4.2v8.2c0,1.6,0.8,2.5,2.4,2.5
		c0.8,0,1.5-0.2,2-0.7L527.6,333.2L527.6,333.2z"/>
	<path d="M541.3,325.6v8.5h-1.8v-2.1c-0.8,1.4-2.4,2.3-4.7,2.3c-3.1,0-5-1.6-5-4c0-2.1,1.3-3.9,5.3-3.9h4.3v-0.8
		c0-2.3-1.3-3.6-3.9-3.6c-1.8,0-3.4,0.6-4.5,1.6l-0.8-1.4c1.4-1.2,3.4-1.9,5.6-1.9C539.3,320.3,541.3,322,541.3,325.6z M539.5,329.9
		v-2.2h-4.3c-2.7,0-3.5,1-3.5,2.4c0,1.6,1.3,2.6,3.5,2.6S538.7,331.7,539.5,329.9L539.5,329.9z M535.9,318.3h-1.8l3.6-3.2h2.5
		L535.9,318.3L535.9,318.3z"/>
	<path d="M548.2,338.3l0.7-1.4c0.5,0.5,1.3,0.7,2.1,0.7c1.5,0,2.3-0.9,2.3-2.6v-14.7h1.8v14.7c0,2.5-1.4,4.2-4,4.2
		C550,339.2,548.9,338.9,548.2,338.3L548.2,338.3z M552.8,316c0-0.7,0.6-1.3,1.3-1.3s1.3,0.6,1.3,1.3c0,0.8-0.6,1.4-1.3,1.4
		S552.8,316.8,552.8,316L552.8,316z"/>
	<path d="M572.6,320.4V334h-1.8v-2.5c-1,1.7-2.7,2.6-4.9,2.6c-3.5,0-5.8-2-5.8-5.9v-7.9h1.8v7.8c0,2.9,1.5,4.4,4.1,4.4
		c2.9,0,4.7-1.9,4.7-5v-7.2L572.6,320.4L572.6,320.4z"/>
	<path d="M584.6,320.3v1.8c-0.2,0-0.3,0-0.4,0c-2.9,0-4.6,1.8-4.6,5v7h-1.8v-13.7h1.8v2.7C580.4,321.2,582.1,320.3,584.6,320.3
		L584.6,320.3z"/>
	<path d="M587.6,316c0-0.7,0.6-1.3,1.3-1.3s1.3,0.6,1.3,1.3c0,0.8-0.6,1.4-1.3,1.4S587.6,316.8,587.6,316L587.6,316z M588,320.4h1.8
		V334H588V320.4z"/>
	<path d="M607.5,314.8V334h-1.8v-2.7c-1.1,1.9-3,2.8-5.3,2.8c-3.9,0-6.8-2.8-6.8-7s2.9-6.9,6.8-6.9c2.2,0,4.1,0.9,5.2,2.7v-8.2
		L607.5,314.8L607.5,314.8z M605.6,327.2c0-3.2-2.2-5.3-5.1-5.3s-5.1,2.1-5.1,5.3s2.2,5.3,5.1,5.3S605.6,330.4,605.6,327.2z"/>
	<path d="M612.2,316c0-0.7,0.6-1.3,1.3-1.3s1.3,0.6,1.3,1.3c0,0.8-0.6,1.4-1.3,1.4S612.2,316.8,612.2,316L612.2,316z M612.6,320.4
		h1.8V334h-1.8V320.4z"/>
	<path d="M618.2,327.2c0-4.1,3-6.9,7-6.9c2.3,0,4.3,0.9,5.4,2.7l-1.4,0.9c-0.9-1.4-2.4-2-4-2c-3,0-5.2,2.1-5.2,5.3s2.2,5.3,5.2,5.3
		c1.6,0,3-0.6,4-2l1.4,0.9c-1.1,1.8-3,2.7-5.4,2.7C621.2,334.2,618.2,331.3,618.2,327.2z"/>
	<path d="M644.5,325.6v8.5h-1.8v-2.1c-0.8,1.4-2.4,2.3-4.7,2.3c-3.1,0-5-1.6-5-4c0-2.1,1.3-3.9,5.3-3.9h4.3v-0.8
		c0-2.3-1.3-3.6-3.9-3.6c-1.8,0-3.4,0.6-4.5,1.6l-0.8-1.4c1.4-1.2,3.4-1.9,5.6-1.9C642.5,320.3,644.5,322,644.5,325.6z M642.7,329.9
		v-2.2h-4.3c-2.7,0-3.5,1-3.5,2.4c0,1.6,1.3,2.6,3.5,2.6S642,331.7,642.7,329.9L642.7,329.9z"/>
	<path d="M672.1,326.1v7.9h-1.8v-7.8c0-2.9-1.5-4.4-3.9-4.4c-2.8,0-4.6,1.8-4.6,4.9v7.2h-1.8v-7.8c0-2.9-1.5-4.4-4-4.4
		c-2.8,0-4.6,1.8-4.6,4.9v7.2h-1.8v-13.7h1.8v2.5c1-1.6,2.7-2.6,5-2.6s4,1,4.9,2.9c1-1.8,2.9-2.9,5.4-2.9
		C669.9,320.3,672.1,322.2,672.1,326.1L672.1,326.1z"/>
	<path d="M689.1,327.8h-11.4c0.2,2.9,2.4,4.8,5.4,4.8c1.7,0,3.2-0.6,4.2-1.8l1,1.2c-1.2,1.5-3.1,2.2-5.3,2.2c-4.3,0-7.2-2.9-7.2-7
		s2.8-6.9,6.7-6.9s6.6,2.8,6.6,6.9C689.1,327.4,689.1,327.6,689.1,327.8L689.1,327.8z M677.7,326.4h9.7c-0.2-2.7-2.2-4.5-4.9-4.5
		S677.9,323.7,677.7,326.4z"/>
	<path d="M705.5,326.1v7.9h-1.8v-7.8c0-2.9-1.5-4.4-4.1-4.4c-2.9,0-4.8,1.8-4.8,4.9v7.2h-1.8v-13.7h1.8v2.5c1-1.7,2.8-2.6,5.2-2.6
		C703.2,320.2,705.5,322.2,705.5,326.1L705.5,326.1z"/>
	<path d="M717.7,333.2c-0.7,0.6-1.8,1-2.9,1c-2.6,0-4-1.5-4-4v-8.3h-2.4v-1.6h2.4v-3h1.8v3h4.2v1.6h-4.2v8.2c0,1.6,0.8,2.5,2.4,2.5
		c0.8,0,1.5-0.2,2-0.7L717.7,333.2L717.7,333.2z"/>
	<path d="M732.5,327.8H721c0.2,2.9,2.4,4.8,5.4,4.8c1.7,0,3.2-0.6,4.2-1.8l1,1.2c-1.2,1.5-3.1,2.2-5.3,2.2c-4.3,0-7.2-2.9-7.2-7
		s2.8-6.9,6.7-6.9s6.6,2.8,6.6,6.9C732.5,327.4,732.5,327.6,732.5,327.8L732.5,327.8z M721,326.4h9.7c-0.2-2.7-2.2-4.5-4.9-4.5
		S721.3,323.7,721,326.4z"/>
	<path d="M756.9,327.2c0,4.2-2.9,7-6.8,7c-2.2,0-4.1-0.9-5.2-2.7v7.6h-1.8v-18.7h1.8v2.7c1.1-1.8,3-2.8,5.3-2.8
		C754,320.3,756.9,323.1,756.9,327.2L756.9,327.2z M755.1,327.2c0-3.2-2.2-5.3-5.1-5.3s-5.1,2.2-5.1,5.3s2.2,5.3,5.1,5.3
		S755.1,330.4,755.1,327.2z"/>
	<path d="M772.6,327.8h-11.4c0.2,2.9,2.4,4.8,5.4,4.8c1.7,0,3.2-0.6,4.2-1.8l1,1.2c-1.2,1.5-3.1,2.2-5.3,2.2c-4.3,0-7.2-2.9-7.2-7
		s2.8-6.9,6.7-6.9s6.6,2.8,6.6,6.9C772.6,327.4,772.6,327.6,772.6,327.8L772.6,327.8z M761.2,326.4h9.7c-0.2-2.7-2.2-4.5-4.9-4.5
		S761.4,323.7,761.2,326.4z"/>
	<path d="M783.3,320.3v1.8c-0.2,0-0.3,0-0.4,0c-2.9,0-4.6,1.8-4.6,5v7h-1.8v-13.7h1.8v2.7C779.1,321.2,780.8,320.3,783.3,320.3
		L783.3,320.3z"/>
	<path d="M809.2,326.1v7.9h-1.8v-7.8c0-2.9-1.5-4.4-3.9-4.4c-2.8,0-4.6,1.8-4.6,4.9v7.2H797v-7.8c0-2.9-1.5-4.4-4-4.4
		c-2.8,0-4.6,1.8-4.6,4.9v7.2h-1.8v-13.7h1.8v2.5c1-1.6,2.7-2.6,5-2.6s4,1,4.9,2.9c1-1.8,2.9-2.9,5.4-2.9
		C807,320.3,809.2,322.2,809.2,326.1L809.2,326.1z"/>
	<path d="M813.8,316c0-0.7,0.6-1.3,1.3-1.3s1.3,0.6,1.3,1.3c0,0.8-0.6,1.4-1.3,1.4S813.8,316.8,813.8,316L813.8,316z M814.2,320.4
		h1.8V334h-1.8V320.4z"/>
	<path d="M828.4,333.2c-0.7,0.6-1.8,1-2.9,1c-2.6,0-4-1.5-4-4v-8.3h-2.4v-1.6h2.4v-3h1.8v3h4.2v1.6h-4.2v8.2c0,1.6,0.8,2.5,2.4,2.5
		c0.8,0,1.5-0.2,2-0.7L828.4,333.2L828.4,333.2z"/>
	<path d="M831.3,316c0-0.7,0.6-1.3,1.3-1.3s1.3,0.6,1.3,1.3c0,0.8-0.6,1.4-1.3,1.4S831.3,316.8,831.3,316L831.3,316z M831.8,320.4
		h1.8V334h-1.8V320.4z"/>
	<path d="M851.2,314.8V334h-1.8v-2.7c-1.1,1.9-3,2.8-5.3,2.8c-3.9,0-6.8-2.8-6.8-7s2.9-6.9,6.8-6.9c2.2,0,4.1,0.9,5.2,2.7v-8.2
		L851.2,314.8L851.2,314.8z M849.4,327.2c0-3.2-2.2-5.3-5.1-5.3s-5.1,2.1-5.1,5.3s2.2,5.3,5.1,5.3S849.4,330.4,849.4,327.2z"/>
	<path d="M855,327.2c0-4.1,3-6.9,7-6.9s6.9,2.9,6.9,6.9s-2.9,7-6.9,7S855,331.3,855,327.2z M867,327.2c0-3.2-2.2-5.3-5.1-5.3
		s-5.1,2.1-5.1,5.3s2.2,5.3,5.1,5.3S867,330.4,867,327.2z"/>
	<path d="M871.1,332.7c0-0.8,0.6-1.4,1.4-1.4s1.4,0.6,1.4,1.4s-0.7,1.4-1.4,1.4S871.1,333.5,871.1,332.7z"/>
</g>
<g>
	<path id="Caminho_4266" class="st2" d="M96,62H56.1l-20,34.6l20,34.6H96l20-34.6L96,62z"/>
	<path id="Caminho_4267" class="st2" d="M111,34.9H71.1l-20,34.6l20,34.6H111l20-34.6L111,34.9z"/>
	<path id="Caminho_4268" class="st3" d="M57.7,38.6L32.1,83.1l25.6,44.4H109l25.6-44.4l-25.7-44.5H57.7z"/>
	<path id="Caminho_4269" class="st4" d="M90.7,27.9l-0.8,1.3H52.7L34.2,61.3h-1.8l-1.2,2.1l1.2,2.1h2.4l1.2-2.1l-0.8-1.5l18.2-31.6
		h36.3l1,1.8h2.4l1.1-2.1l-1.1-2.1H90.7z"/>
	<path id="Caminho_4270" class="st4" d="M134.6,103.2l-1.2-2.1H131l-1.2,2.1l0.9,1.5l-18.2,31.6H76.2l-1-1.8h-2.5l-1.2,2.1l1.2,2.1
		h2.4l0.7-1.2H113l18.6-32.2h1.8L134.6,103.2z"/>
	<g id="Grupo_2380" transform="translate(12.65 11)">
		<path id="Caminho_4271" class="st5" d="M67.3,96.7c2.5,2.5,6.7,2.5,9.2,0s2.5-6.5,0.1-8.9l-0.1-0.1c-2.5-2.5-6.7-2.5-9.2,0
			C64.8,90.1,64.8,94.1,67.3,96.7C67.3,96.6,67.3,96.6,67.3,96.7 M69.3,77.1c-0.2-0.4-0.5-1.8-1.1-3.9c-1.9-7.3-3-12.9-3-16.7
			c0-3.5,0.5-6,1.6-7.5s2.9-2.2,5.3-2.2c4.1,0,6.2,3.4,6.2,10.3c0,1.9-1.1,7.4-3.1,16.2c-0.3,1.4-0.6,2.8-1.1,4.1
			c-0.4,1.1-1.4,1.8-2.5,1.9C70.8,79.2,70,78.5,69.3,77.1"/>
	</g>
</g>
</svg>
