<?xml version="1.0" encoding="utf-8"?>
<!-- Generator: Adobe Illustrator 27.3.0, SVG Export Plug-In . SVG Version: 6.00 Build 0)  -->
<svg version="1.1" id="Layer_1" xmlns="http://www.w3.org/2000/svg" xmlns:xlink="http://www.w3.org/1999/xlink" x="0px" y="0px"
	 viewBox="0 0 1307.3 560.1" style="enable-background:new 0 0 1307.3 560.1;" xml:space="preserve">
<style type="text/css">
	.st0{fill:none;stroke:#E85624;stroke-miterlimit:10;}
	.st1{fill:#F7F1F0;}
	.st2{fill:#F6C2A2;}
	.st3{fill:#F16A42;}
	.st4{fill:#E75525;}
	.st5{fill:#FFEFC3;}
	.st6{fill:#010101;}
</style>
<rect x="76.7" y="121.3" class="st0" width="1206.3" height="414.8"/>
<rect x="42.8" y="94.8" class="st1" width="1206.3" height="410.3"/>
<g>
	<path id="Caminho_4266" class="st2" d="M107.6,73H67.7l-20,34.6l20,34.6h39.9l20-34.6C127.6,107.6,107.6,73,107.6,73z"/>
	<path id="Caminho_4267" class="st2" d="M122.6,45.9H82.7l-20,34.6l20,34.6h39.9l20-34.6L122.6,45.9z"/>
	<path id="Caminho_4268" class="st3" d="M69.3,49.6L43.7,94.1l25.6,44.4h51.3l25.6-44.4l-25.7-44.5L69.3,49.6L69.3,49.6z"/>
	<path id="Caminho_4269" class="st4" d="M102.3,38.9l-0.8,1.3H64.3L45.8,72.3H44l-1.2,2.1l1.2,2.1h2.4l1.2-2.1l-0.8-1.5L65,41.3
		h36.3l1,1.8h2.4l1.1-2.1l-1.1-2.1C104.7,38.9,102.3,38.9,102.3,38.9z"/>
	<path id="Caminho_4270" class="st4" d="M146.2,114.2l-1.2-2.1h-2.4l-1.2,2.1l0.9,1.5l-18.2,31.6H87.8l-1-1.8h-2.5l-1.2,2.1l1.2,2.1
		h2.4l0.7-1.2h37.2l18.6-32.2h1.8L146.2,114.2L146.2,114.2z"/>
	<g id="Grupo_2380">
		<path id="Caminho_4271" class="st5" d="M91.6,118.7c2.5,2.5,6.7,2.5,9.2,0s2.5-6.5,0.1-8.9l-0.1-0.1c-2.5-2.5-6.7-2.5-9.2,0
			C89.1,112.1,89.1,116.1,91.6,118.7C91.6,118.6,91.6,118.6,91.6,118.7 M93.6,99.1c-0.2-0.4-0.5-1.8-1.1-3.9c-1.9-7.3-3-12.9-3-16.7
			c0-3.5,0.5-6,1.6-7.5s2.9-2.2,5.3-2.2c4.1,0,6.2,3.4,6.2,10.3c0,1.9-1.1,7.4-3.1,16.2c-0.3,1.4-0.6,2.8-1.1,4.1
			c-0.4,1.1-1.4,1.8-2.5,1.9C95.1,101.2,94.3,100.5,93.6,99.1"/>
	</g>
</g>
<path class="st6" d="M130.6,198.1h7.4c5.8,0,9.8,3.7,9.8,9.1s-3.9,9.1-9.8,9.1h-7.4V198.1L130.6,198.1z M137.9,214.6
	c4.8,0,8-3.1,8-7.4s-3.1-7.4-8-7.4h-5.4v14.9L137.9,214.6L137.9,214.6z"/>
<path class="st6" d="M163.6,210h-11.4c0.2,2.9,2.4,4.8,5.4,4.8c1.7,0,3.1-0.6,4.2-1.8l1,1.2c-1.2,1.5-3.1,2.2-5.3,2.2
	c-4.3,0-7.2-2.9-7.2-7s2.8-6.9,6.7-6.9s6.6,2.8,6.6,6.9C163.6,209.6,163.6,209.8,163.6,210L163.6,210z M152.1,208.7h9.7
	c-0.2-2.7-2.2-4.6-4.9-4.6S152.4,206,152.1,208.7z"/>
<path class="st6" d="M178.6,202.6l-6.1,13.7h-1.9l-6.1-13.7h1.9l5.1,11.6l5.2-11.6H178.6L178.6,202.6z"/>
<path class="st6" d="M192.7,210h-11.4c0.2,2.9,2.4,4.8,5.4,4.8c1.7,0,3.1-0.6,4.2-1.8l1,1.2c-1.2,1.5-3.1,2.2-5.3,2.2
	c-4.3,0-7.2-2.9-7.2-7s2.8-6.9,6.7-6.9s6.6,2.8,6.6,6.9C192.7,209.6,192.7,209.8,192.7,210L192.7,210z M181.3,208.7h9.7
	c-0.2-2.7-2.2-4.6-4.9-4.6S181.5,206,181.3,208.7z"/>
<path class="st6" d="M219.1,208.4v7.9h-1.9v-7.8c0-2.9-1.5-4.4-3.9-4.4c-2.8,0-4.6,1.8-4.6,4.9v7.2h-1.9v-7.8c0-2.9-1.5-4.4-3.9-4.4
	c-2.8,0-4.6,1.8-4.6,4.9v7.2h-1.9v-13.7h1.8v2.5c1-1.6,2.7-2.6,5-2.6s4,1,4.9,2.9c1-1.8,2.9-2.9,5.4-2.9
	C216.9,202.5,219.1,204.4,219.1,208.4L219.1,208.4z"/>
<path class="st6" d="M229,214.7l0.8-1.5c1.1,0.9,2.9,1.5,4.9,1.5c2.6,0,3.7-0.9,3.7-2.2c0-3.6-8.9-0.8-8.9-6.2
	c0-2.2,1.9-3.9,5.4-3.9c1.8,0,3.7,0.5,4.8,1.3l-0.8,1.5c-1.2-0.8-2.6-1.2-4-1.2c-2.5,0-3.6,1-3.6,2.3c0,3.7,8.9,0.9,8.9,6.2
	c0,2.4-2.1,3.9-5.6,3.9C232.3,216.4,230.1,215.7,229,214.7L229,214.7z"/>
<path class="st6" d="M255.5,210h-11.4c0.2,2.9,2.4,4.8,5.4,4.8c1.7,0,3.1-0.6,4.2-1.8l1,1.2c-1.2,1.5-3.1,2.2-5.3,2.2
	c-4.3,0-7.2-2.9-7.2-7s2.8-6.9,6.7-6.9s6.6,2.8,6.6,6.9C255.6,209.6,255.5,209.8,255.5,210L255.5,210z M244.1,208.7h9.7
	c-0.2-2.7-2.2-4.6-4.9-4.6S244.3,206,244.1,208.7z"/>
<path class="st6" d="M266.2,202.5v1.8c-0.2,0-0.3,0-0.4,0c-2.9,0-4.6,1.8-4.6,5v7h-1.9v-13.7h1.8v2.7
	C261.9,203.5,263.7,202.5,266.2,202.5L266.2,202.5z"/>
<path class="st6" d="M288.5,210H277c0.2,2.9,2.4,4.8,5.4,4.8c1.7,0,3.1-0.6,4.2-1.8l1,1.2c-1.2,1.5-3.1,2.2-5.3,2.2
	c-4.3,0-7.2-2.9-7.2-7s2.8-6.9,6.7-6.9s6.6,2.8,6.6,6.9C288.5,209.6,288.5,209.8,288.5,210L288.5,210z M277,208.7h9.7
	c-0.2-2.7-2.2-4.6-4.9-4.6S277.3,206,277,208.7L277,208.7z"/>
<path class="st6" d="M303.5,202.6l-6.1,13.7h-1.9l-6.1-13.7h1.9l5.1,11.6l5.2-11.6H303.5L303.5,202.6z"/>
<path class="st6" d="M305.7,198.3c0-0.7,0.6-1.3,1.4-1.3s1.4,0.6,1.4,1.3c0,0.8-0.6,1.4-1.4,1.4S305.7,199,305.7,198.3L305.7,198.3z
	 M306.1,202.6h1.9v13.7h-1.9V202.6z"/>
<path class="st6" d="M320.3,215.5c-0.7,0.6-1.8,1-2.9,1c-2.6,0-4-1.5-4-4v-8.3H311v-1.6h2.4v-3h1.9v3h4.2v1.6h-4.2v8.2
	c0,1.6,0.8,2.5,2.4,2.5c0.8,0,1.5-0.2,2-0.7L320.3,215.5L320.3,215.5z"/>
<path class="st6" d="M334,207.8v8.5h-1.8v-2.1c-0.8,1.4-2.4,2.3-4.7,2.3c-3.1,0-5-1.6-5-4c0-2.1,1.4-3.9,5.3-3.9h4.3v-0.8
	c0-2.3-1.3-3.6-3.9-3.6c-1.8,0-3.4,0.6-4.5,1.6l-0.8-1.4c1.4-1.2,3.4-1.9,5.6-1.9C332,202.5,334,204.3,334,207.8L334,207.8z
	 M332.1,212.2V210h-4.3c-2.6,0-3.5,1-3.5,2.4c0,1.6,1.3,2.6,3.5,2.6S331.4,214,332.1,212.2L332.1,212.2z"/>
<path class="st6" d="M351.5,197v19.3h-1.8v-2.7c-1.1,1.9-3,2.8-5.3,2.8c-3.9,0-6.8-2.8-6.8-7s2.9-6.9,6.8-6.9c2.2,0,4.1,0.9,5.2,2.7
	V197L351.5,197L351.5,197z M349.7,209.5c0-3.2-2.2-5.3-5.1-5.3s-5.1,2.1-5.1,5.3s2.2,5.3,5.1,5.3S349.7,212.7,349.7,209.5z"/>
<path class="st6" d="M367,207.8v8.5h-1.8v-2.1c-0.8,1.4-2.4,2.3-4.7,2.3c-3.1,0-5-1.6-5-4c0-2.1,1.4-3.9,5.3-3.9h4.3v-0.8
	c0-2.3-1.3-3.6-3.9-3.6c-1.8,0-3.4,0.6-4.5,1.6l-0.8-1.4c1.4-1.2,3.4-1.9,5.6-1.9C365,202.5,367,204.3,367,207.8L367,207.8z
	 M365.1,212.2V210h-4.3c-2.6,0-3.5,1-3.5,2.4c0,1.6,1.3,2.6,3.5,2.6S364.4,214,365.1,212.2L365.1,212.2z"/>
<path class="st6" d="M370.1,214.7l0.8-1.5c1.1,0.9,2.9,1.5,4.9,1.5c2.6,0,3.7-0.9,3.7-2.2c0-3.6-8.9-0.8-8.9-6.2
	c0-2.2,1.9-3.9,5.4-3.9c1.8,0,3.7,0.5,4.8,1.3l-0.8,1.5c-1.2-0.8-2.6-1.2-4-1.2c-2.5,0-3.6,1-3.6,2.3c0,3.7,8.9,0.9,8.9,6.2
	c0,2.4-2.1,3.9-5.6,3.9C373.4,216.4,371.2,215.7,370.1,214.7L370.1,214.7z"/>
<path class="st6" d="M393.6,201v1.6h4.2v1.6h-4.2v12.1h-1.9v-12.1h-2.4v-1.6h2.4v-1.7c0-2.4,1.5-4.1,4.1-4.1c1,0,2,0.3,2.7,0.9
	l-0.6,1.4c-0.5-0.4-1.2-0.7-2-0.7C394.5,198.4,393.6,199.3,393.6,201L393.6,201z"/>
<path class="st6" d="M398.7,209.5c0-4.1,3-6.9,7-6.9s6.9,2.9,6.9,6.9s-2.9,7-6.9,7S398.7,213.5,398.7,209.5z M410.8,209.5
	c0-3.2-2.2-5.3-5.1-5.3s-5.1,2.1-5.1,5.3s2.2,5.3,5.1,5.3S410.8,212.7,410.8,209.5z"/>
<path class="st6" d="M423.3,202.5v1.8c-0.2,0-0.3,0-0.4,0c-2.9,0-4.6,1.8-4.6,5v7h-1.9v-13.7h1.8v2.7
	C419,203.5,420.8,202.5,423.3,202.5L423.3,202.5z"/>
<path class="st6" d="M449.2,208.4v7.9h-1.9v-7.8c0-2.9-1.5-4.4-3.9-4.4c-2.8,0-4.6,1.8-4.6,4.9v7.2H437v-7.8c0-2.9-1.5-4.4-4-4.4
	c-2.8,0-4.6,1.8-4.6,4.9v7.2h-1.9v-13.7h1.8v2.5c1-1.6,2.7-2.6,5-2.6s4,1,4.9,2.9c1-1.8,2.9-2.9,5.4-2.9
	C447,202.5,449.2,204.4,449.2,208.4L449.2,208.4z"/>
<path class="st6" d="M466.5,202.6v13.7h-1.8v-2.5c-1,1.7-2.7,2.6-4.9,2.6c-3.5,0-5.8-1.9-5.8-5.9v-7.9h1.9v7.8
	c0,2.9,1.5,4.4,4.1,4.4c2.9,0,4.6-1.9,4.6-5v-7.2L466.5,202.6L466.5,202.6z"/>
<path class="st6" d="M471.7,197h1.9v19.3h-1.9V197L471.7,197z"/>
<path class="st6" d="M489,207.8v8.5h-1.8v-2.1c-0.8,1.4-2.4,2.3-4.7,2.3c-3.1,0-5-1.6-5-4c0-2.1,1.4-3.9,5.3-3.9h4.3v-0.8
	c0-2.3-1.3-3.6-3.9-3.6c-1.8,0-3.4,0.6-4.5,1.6l-0.8-1.4c1.4-1.2,3.4-1.9,5.6-1.9C487,202.5,489,204.3,489,207.8L489,207.8z
	 M487.2,212.2V210h-4.3c-2.6,0-3.5,1-3.5,2.4c0,1.6,1.3,2.6,3.5,2.6S486.4,214,487.2,212.2L487.2,212.2z"/>
<path class="st6" d="M503.8,212.8l1.4,0.9c-1.1,1.8-3,2.7-5.4,2.7h0l-0.3,1.2c1.4,0.1,2.2,1,2.2,2.1c0,1.4-1.2,2.3-2.9,2.3
	c-0.9,0-1.6-0.2-2.2-0.6l0.4-1c0.5,0.3,1.1,0.5,1.7,0.5c1,0,1.6-0.4,1.6-1.2c0-0.7-0.5-1.2-1.6-1.2h-0.6l0.6-2.2
	c-3.5-0.5-5.9-3.2-5.9-6.9c0-4.1,3-6.9,7-6.9c2.3,0,4.3,0.9,5.4,2.7l-1.4,0.9c-0.9-1.4-2.4-2-4-2c-3,0-5.2,2.1-5.2,5.3
	s2.2,5.3,5.2,5.3C501.4,214.8,502.8,214.2,503.8,212.8L503.8,212.8z"/>
<path class="st6" d="M507.1,209.5c0-4.1,3-6.9,7-6.9c4,0,6.9,2.9,6.9,6.9s-2.9,7-6.9,7S507.1,213.5,507.1,209.5L507.1,209.5z
	 M519.2,209.5c0-3.2-2.2-5.3-5.1-5.3s-5.1,2.1-5.1,5.3s2.2,5.3,5.1,5.3C517,214.8,519.2,212.7,519.2,209.5z M512.4,198.6
	c-0.8,0-1.3,0.6-1.4,1.7H510c0-1.7,1-2.9,2.3-2.9c1.6,0,2.4,1.8,3.4,1.8c0.8,0,1.3-0.6,1.3-1.6h1.1c0,1.7-1,2.8-2.3,2.8
	C514.2,200.4,513.5,198.6,512.4,198.6L512.4,198.6z"/>
<path class="st6" d="M536.7,210h-11.4c0.2,2.9,2.4,4.8,5.4,4.8c1.7,0,3.2-0.6,4.2-1.8l1,1.2c-1.2,1.5-3.1,2.2-5.3,2.2
	c-4.3,0-7.2-2.9-7.2-7s2.8-6.9,6.7-6.9s6.6,2.8,6.6,6.9C536.7,209.6,536.7,209.8,536.7,210L536.7,210z M525.3,208.7h9.7
	c-0.2-2.7-2.2-4.6-4.9-4.6S525.5,206,525.3,208.7z"/>
<path class="st6" d="M538.6,214.7l0.8-1.5c1.1,0.9,2.9,1.5,4.9,1.5c2.6,0,3.7-0.9,3.7-2.2c0-3.6-8.9-0.8-8.9-6.2
	c0-2.2,1.9-3.9,5.4-3.9c1.8,0,3.7,0.5,4.8,1.3l-0.8,1.5c-1.2-0.8-2.6-1.2-4-1.2c-2.5,0-3.6,1-3.6,2.3c0,3.7,8.9,0.9,8.9,6.2
	c0,2.4-2.1,3.9-5.6,3.9C541.9,216.4,539.7,215.7,538.6,214.7L538.6,214.7z"/>
<path class="st6" d="M582.6,208.4v7.9h-1.8v-7.8c0-2.9-1.5-4.4-3.9-4.4c-2.8,0-4.6,1.8-4.6,4.9v7.2h-1.8v-7.8c0-2.9-1.5-4.4-4-4.4
	c-2.8,0-4.6,1.8-4.6,4.9v7.2H560v-13.7h1.8v2.5c1-1.6,2.7-2.6,5-2.6s4,1,4.9,2.9c1-1.8,2.9-2.9,5.4-2.9
	C580.4,202.5,582.6,204.4,582.6,208.4L582.6,208.4z"/>
<path class="st6" d="M599.9,202.6v13.7h-1.8v-2.5c-1,1.7-2.7,2.6-4.9,2.6c-3.5,0-5.8-1.9-5.8-5.9v-7.9h1.8v7.8
	c0,2.9,1.5,4.4,4.1,4.4c2.9,0,4.7-1.9,4.7-5v-7.2L599.9,202.6L599.9,202.6z"/>
<path class="st6" d="M604.7,198.3c0-0.7,0.6-1.3,1.3-1.3s1.3,0.6,1.3,1.3c0,0.8-0.6,1.4-1.3,1.4S604.7,199,604.7,198.3L604.7,198.3z
	 M605.1,202.6h1.8v13.7h-1.8V202.6z"/>
<path class="st6" d="M619.3,215.5c-0.7,0.6-1.8,1-2.9,1c-2.6,0-4-1.5-4-4v-8.3H610v-1.6h2.4v-3h1.8v3h4.2v1.6h-4.2v8.2
	c0,1.6,0.8,2.5,2.4,2.5c0.8,0,1.5-0.2,2-0.7L619.3,215.5L619.3,215.5z"/>
<path class="st6" d="M620.8,209.5c0-4.1,3-6.9,7-6.9s6.9,2.9,6.9,6.9s-2.9,7-6.9,7S620.8,213.5,620.8,209.5z M632.8,209.5
	c0-3.2-2.2-5.3-5.1-5.3s-5.1,2.1-5.1,5.3s2.2,5.3,5.1,5.3S632.8,212.7,632.8,209.5z"/>
<path class="st6" d="M658,202.6v12c0,4.7-2.3,6.8-6.8,6.8c-2.5,0-4.9-0.8-6.4-2.1l0.9-1.4c1.3,1.2,3.3,1.9,5.4,1.9c3.5,0,5-1.6,5-5
	v-1.7c-1.1,1.7-3.1,2.6-5.3,2.6c-3.9,0-6.9-2.7-6.9-6.7s3-6.6,6.9-6.6c2.3,0,4.3,0.9,5.4,2.7v-2.6L658,202.6L658,202.6z
	 M656.2,209.1c0-3-2.2-5-5.2-5s-5.2,2-5.2,5s2.2,5,5.2,5S656.2,212.1,656.2,209.1z"/>
<path class="st6" d="M675,210h-11.4c0.2,2.9,2.4,4.8,5.4,4.8c1.7,0,3.2-0.6,4.2-1.8l1,1.2c-1.2,1.5-3.1,2.2-5.3,2.2
	c-4.3,0-7.2-2.9-7.2-7s2.8-6.9,6.7-6.9s6.6,2.8,6.6,6.9C675,209.6,675,209.8,675,210L675,210z M663.6,208.7h9.7
	c-0.2-2.7-2.2-4.6-4.9-4.6S663.8,206,663.6,208.7z"/>
<path class="st6" d="M691.4,208.4v7.9h-1.8v-7.8c0-2.9-1.5-4.4-4.1-4.4c-2.9,0-4.8,1.8-4.8,4.9v7.2h-1.8v-13.7h1.8v2.5
	c1-1.7,2.8-2.6,5.2-2.6C689.1,202.5,691.4,204.4,691.4,208.4L691.4,208.4z"/>
<path class="st6" d="M708.4,210H697c0.2,2.9,2.4,4.8,5.4,4.8c1.7,0,3.2-0.6,4.2-1.8l1,1.2c-1.2,1.5-3.1,2.2-5.3,2.2
	c-4.3,0-7.2-2.9-7.2-7s2.8-6.9,6.7-6.9s6.6,2.8,6.6,6.9C708.4,209.6,708.4,209.8,708.4,210L708.4,210z M697,208.7h9.7
	c-0.2-2.7-2.2-4.6-4.9-4.6S697.2,206,697,208.7z M701.9,200.5h-1.8l3.6-3.2h2.5L701.9,200.5L701.9,200.5z"/>
<path class="st6" d="M719.1,202.5v1.8c-0.2,0-0.3,0-0.4,0c-2.9,0-4.6,1.8-4.6,5v7h-1.8v-13.7h1.8v2.7
	C714.8,203.5,716.6,202.5,719.1,202.5L719.1,202.5z"/>
<path class="st6" d="M722,198.3c0-0.7,0.6-1.3,1.3-1.3s1.3,0.6,1.3,1.3c0,0.8-0.6,1.4-1.3,1.4S722,199,722,198.3L722,198.3z
	 M722.4,202.6h1.8v13.7h-1.8V202.6z"/>
<path class="st6" d="M728,209.5c0-4.1,3-6.9,7-6.9c2.3,0,4.3,0.9,5.4,2.7l-1.4,0.9c-0.9-1.4-2.4-2-4-2c-3,0-5.2,2.1-5.2,5.3
	s2.2,5.3,5.2,5.3c1.6,0,3-0.6,4-2l1.4,0.9c-1.1,1.8-3,2.7-5.4,2.7C731,216.4,728,213.5,728,209.5z"/>
<path class="st6" d="M754.4,207.8v8.5h-1.8v-2.1c-0.8,1.4-2.4,2.3-4.7,2.3c-3.1,0-5-1.6-5-4c0-2.1,1.3-3.9,5.3-3.9h4.3v-0.8
	c0-2.3-1.3-3.6-3.9-3.6c-1.8,0-3.4,0.6-4.5,1.6l-0.8-1.4c1.4-1.2,3.4-1.9,5.6-1.9C752.4,202.5,754.4,204.3,754.4,207.8L754.4,207.8z
	 M752.5,212.2V210h-4.3c-2.7,0-3.5,1-3.5,2.4c0,1.6,1.3,2.6,3.5,2.6S751.8,214,752.5,212.2L752.5,212.2z"/>
<path class="st6" d="M757.5,214.7l0.8-1.5c1.1,0.9,2.9,1.5,4.9,1.5c2.6,0,3.7-0.9,3.7-2.2c0-3.6-8.9-0.8-8.9-6.2
	c0-2.2,1.9-3.9,5.4-3.9c1.8,0,3.7,0.5,4.8,1.3l-0.8,1.5c-1.2-0.8-2.6-1.2-4-1.2c-2.5,0-3.6,1-3.6,2.3c0,3.7,8.9,0.9,8.9,6.2
	c0,2.4-2.1,3.9-5.6,3.9C760.8,216.4,758.6,215.7,757.5,214.7L757.5,214.7z"/>
<path class="st6" d="M791.4,197v19.3h-1.8v-2.7c-1.1,1.9-3,2.8-5.3,2.8c-3.9,0-6.8-2.8-6.8-7s2.9-6.9,6.8-6.9c2.2,0,4.1,0.9,5.2,2.7
	V197L791.4,197L791.4,197z M789.6,209.5c0-3.2-2.2-5.3-5.1-5.3s-5.1,2.1-5.1,5.3s2.2,5.3,5.1,5.3S789.6,212.7,789.6,209.5z"/>
<path class="st6" d="M808.4,210H797c0.2,2.9,2.4,4.8,5.4,4.8c1.7,0,3.2-0.6,4.2-1.8l1,1.2c-1.2,1.5-3.1,2.2-5.3,2.2
	c-4.3,0-7.2-2.9-7.2-7s2.8-6.9,6.7-6.9s6.6,2.8,6.6,6.9C808.5,209.6,808.4,209.8,808.4,210L808.4,210z M797,208.7h9.7
	c-0.2-2.7-2.2-4.6-4.9-4.6S797.2,206,797,208.7z"/>
<path class="st6" d="M832.9,209.5c0,4.2-2.9,7-6.8,7c-2.2,0-4.1-0.9-5.2-2.7v7.6H819v-18.7h1.8v2.7c1.1-1.8,3-2.8,5.3-2.8
	C830,202.5,832.9,205.3,832.9,209.5L832.9,209.5z M831.1,209.5c0-3.2-2.2-5.3-5.1-5.3s-5.1,2.2-5.1,5.3s2.2,5.3,5.1,5.3
	S831.1,212.7,831.1,209.5z"/>
<path class="st6" d="M843.6,202.5v1.8c-0.2,0-0.3,0-0.4,0c-2.9,0-4.6,1.8-4.6,5v7h-1.8v-13.7h1.8v2.7
	C839.3,203.5,841,202.5,843.6,202.5L843.6,202.5z"/>
<path class="st6" d="M845.4,209.5c0-4.1,3-6.9,7-6.9s6.9,2.9,6.9,6.9s-2.9,7-6.9,7S845.4,213.5,845.4,209.5z M857.4,209.5
	c0-3.2-2.2-5.3-5.1-5.3s-5.1,2.1-5.1,5.3s2.2,5.3,5.1,5.3S857.4,212.7,857.4,209.5z"/>
<path class="st6" d="M876.9,209.5c0,4.1-2.9,7-6.8,7c-2.3,0-4.2-1-5.3-2.8v2.7h-1.8V197h1.8v8.2c1.1-1.8,3-2.7,5.2-2.7
	C874,202.5,876.9,205.3,876.9,209.5L876.9,209.5z M875.1,209.5c0-3.2-2.2-5.3-5.1-5.3s-5.1,2.1-5.1,5.3s2.2,5.3,5.1,5.3
	S875.1,212.7,875.1,209.5z"/>
<path class="st6" d="M880.7,197h1.8v19.3h-1.8V197L880.7,197z"/>
<path class="st6" d="M899.6,210h-11.4c0.2,2.9,2.4,4.8,5.4,4.8c1.7,0,3.2-0.6,4.2-1.8l1,1.2c-1.2,1.5-3.1,2.2-5.3,2.2
	c-4.3,0-7.2-2.9-7.2-7s2.8-6.9,6.7-6.9s6.6,2.8,6.6,6.9C899.6,209.6,899.6,209.8,899.6,210L899.6,210z M888.2,208.7h9.7
	c-0.2-2.7-2.2-4.6-4.9-4.6S888.4,206,888.2,208.7z"/>
<path class="st6" d="M926,208.4v7.9h-1.8v-7.8c0-2.9-1.5-4.4-3.9-4.4c-2.8,0-4.6,1.8-4.6,4.9v7.2h-1.8v-7.8c0-2.9-1.5-4.4-4-4.4
	c-2.8,0-4.6,1.8-4.6,4.9v7.2h-1.8v-13.7h1.8v2.5c1-1.6,2.7-2.6,5-2.6s4,1,4.9,2.9c1-1.8,2.9-2.9,5.4-2.9
	C923.8,202.5,925.9,204.4,926,208.4L926,208.4z"/>
<path class="st6" d="M941.3,207.8v8.5h-1.8v-2.1c-0.8,1.4-2.4,2.3-4.7,2.3c-3.1,0-5-1.6-5-4c0-2.1,1.3-3.9,5.3-3.9h4.3v-0.8
	c0-2.3-1.3-3.6-3.9-3.6c-1.8,0-3.4,0.6-4.5,1.6l-0.8-1.4c1.4-1.2,3.4-1.9,5.6-1.9C939.3,202.5,941.3,204.3,941.3,207.8L941.3,207.8z
	 M939.5,212.2V210h-4.3c-2.7,0-3.5,1-3.5,2.4c0,1.6,1.3,2.6,3.5,2.6S938.7,214,939.5,212.2L939.5,212.2z"/>
<path class="st6" d="M944.4,214.7l0.8-1.5c1.1,0.9,2.9,1.5,4.9,1.5c2.6,0,3.7-0.9,3.7-2.2c0-3.6-8.9-0.8-8.9-6.2
	c0-2.2,1.9-3.9,5.4-3.9c1.8,0,3.7,0.5,4.8,1.3l-0.8,1.5c-1.2-0.8-2.6-1.2-4-1.2c-2.5,0-3.6,1-3.6,2.3c0,3.7,8.9,0.9,8.9,6.2
	c0,2.4-2.1,3.9-5.6,3.9C947.7,216.4,945.5,215.7,944.4,214.7L944.4,214.7z"/>
<path class="st6" d="M957.8,215c0-0.8,0.6-1.4,1.4-1.4s1.4,0.6,1.4,1.4s-0.7,1.4-1.4,1.4S957.8,215.8,957.8,215z"/>
<path class="st6" d="M987,198.1v18.2h-1.6l-11.7-14.8v14.8h-1.9v-18.2h1.6l11.7,14.8v-14.8H987L987,198.1z"/>
<path class="st6" d="M1002.8,207.8v8.5h-1.8v-2.1c-0.8,1.4-2.4,2.3-4.7,2.3c-3.1,0-5-1.6-5-4c0-2.1,1.3-3.9,5.3-3.9h4.3v-0.8
	c0-2.3-1.3-3.6-3.9-3.6c-1.8,0-3.4,0.6-4.5,1.6l-0.8-1.4c1.4-1.2,3.4-1.9,5.6-1.9C1000.8,202.5,1002.8,204.3,1002.8,207.8
	L1002.8,207.8z M1001,212.2V210h-4.3c-2.7,0-3.5,1-3.5,2.4c0,1.6,1.3,2.6,3.5,2.6S1000.2,214,1001,212.2L1001,212.2z"/>
<path class="st6" d="M1025,207.8v8.5h-1.8v-2.1c-0.8,1.4-2.4,2.3-4.7,2.3c-3.1,0-5-1.6-5-4c0-2.1,1.3-3.9,5.3-3.9h4.3v-0.8
	c0-2.3-1.3-3.6-3.9-3.6c-1.8,0-3.4,0.6-4.5,1.6l-0.8-1.4c1.4-1.2,3.4-1.9,5.6-1.9C1022.9,202.5,1024.9,204.3,1025,207.8L1025,207.8z
	 M1023.1,212.2V210h-4.3c-2.7,0-3.5,1-3.5,2.4c0,1.6,1.3,2.6,3.5,2.6S1022.4,214,1023.1,212.2L1023.1,212.2z M1019.6,200.5h-1.8
	l3.6-3.2h2.5L1019.6,200.5L1019.6,200.5z"/>
<path class="st6" d="M1036.9,202.5v1.8c-0.2,0-0.3,0-0.4,0c-2.9,0-4.6,1.8-4.6,5v7h-1.8v-13.7h1.8v2.7
	C1032.6,203.5,1034.4,202.5,1036.9,202.5L1036.9,202.5z"/>
<path class="st6" d="M1052,210h-11.4c0.2,2.9,2.4,4.8,5.4,4.8c1.7,0,3.2-0.6,4.2-1.8l1,1.2c-1.2,1.5-3.1,2.2-5.3,2.2
	c-4.3,0-7.2-2.9-7.2-7s2.8-6.9,6.7-6.9s6.6,2.8,6.6,6.9C1052,209.6,1052,209.8,1052,210L1052,210z M1040.5,208.7h9.7
	c-0.2-2.7-2.2-4.6-4.9-4.6S1040.8,206,1040.5,208.7z"/>
<path class="st6" d="M1065.7,207.8v8.5h-1.8v-2.1c-0.8,1.4-2.4,2.3-4.7,2.3c-3.1,0-5-1.6-5-4c0-2.1,1.3-3.9,5.3-3.9h4.3v-0.8
	c0-2.3-1.3-3.6-3.9-3.6c-1.8,0-3.4,0.6-4.6,1.6l-0.8-1.4c1.4-1.2,3.4-1.9,5.6-1.9C1063.7,202.5,1065.7,204.3,1065.7,207.8
	L1065.7,207.8z M1063.8,212.2V210h-4.3c-2.7,0-3.5,1-3.5,2.4c0,1.6,1.3,2.6,3.5,2.6S1063.1,214,1063.8,212.2L1063.8,212.2z"/>
<path class="st6" d="M1090,197v19.3h-1.8v-2.7c-1.1,1.9-3,2.8-5.3,2.8c-3.9,0-6.8-2.8-6.8-7s2.9-6.9,6.8-6.9c2.2,0,4.1,0.9,5.2,2.7
	V197L1090,197L1090,197z M1088.2,209.5c0-3.2-2.2-5.3-5.1-5.3s-5.1,2.1-5.1,5.3s2.2,5.3,5.1,5.3S1088.2,212.7,1088.2,209.5z"/>
<path class="st6" d="M1105.5,207.8v8.5h-1.8v-2.1c-0.8,1.4-2.4,2.3-4.7,2.3c-3.1,0-5-1.6-5-4c0-2.1,1.3-3.9,5.3-3.9h4.3v-0.8
	c0-2.3-1.3-3.6-3.9-3.6c-1.8,0-3.4,0.6-4.6,1.6l-0.8-1.4c1.4-1.2,3.4-1.9,5.6-1.9C1103.5,202.5,1105.5,204.3,1105.5,207.8
	L1105.5,207.8z M1103.6,212.2V210h-4.3c-2.7,0-3.5,1-3.5,2.4c0,1.6,1.3,2.6,3.5,2.6S1102.9,214,1103.6,212.2L1103.6,212.2z"/>
<path class="st6" d="M1115.4,214.7l0.8-1.5c1.1,0.9,2.9,1.5,4.9,1.5c2.6,0,3.7-0.9,3.7-2.2c0-3.6-8.9-0.8-8.9-6.2
	c0-2.2,1.9-3.9,5.4-3.9c1.8,0,3.7,0.5,4.8,1.3l-0.8,1.5c-1.2-0.8-2.6-1.2-4-1.2c-2.5,0-3.6,1-3.6,2.3c0,3.7,8.9,0.9,8.9,6.2
	c0,2.4-2.1,3.9-5.6,3.9C1118.7,216.4,1116.5,215.7,1115.4,214.7L1115.4,214.7z"/>
<path class="st6" d="M1140.3,207.8v8.5h-1.8v-2.1c-0.8,1.4-2.4,2.3-4.7,2.3c-3.1,0-5-1.6-5-4c0-2.1,1.3-3.9,5.3-3.9h4.3v-0.8
	c0-2.3-1.3-3.6-3.9-3.6c-1.8,0-3.4,0.6-4.6,1.6l-0.8-1.4c1.4-1.2,3.4-1.9,5.6-1.9C1138.3,202.5,1140.3,204.3,1140.3,207.8
	L1140.3,207.8z M1138.5,212.2V210h-4.3c-2.7,0-3.5,1-3.5,2.4c0,1.6,1.3,2.6,3.5,2.6S1137.8,214,1138.5,212.2L1138.5,212.2z"/>
<path class="st6" d="M1157.7,202.6v13.7h-1.8v-2.5c-1,1.7-2.7,2.6-4.9,2.6c-3.5,0-5.8-1.9-5.8-5.9v-7.9h1.8v7.8
	c0,2.9,1.5,4.4,4.1,4.4c2.9,0,4.7-1.9,4.7-5v-7.2L1157.7,202.6L1157.7,202.6z M1151.6,200.5h-1.8l3.6-3.2h2.5L1151.6,200.5
	L1151.6,200.5z"/>
<path class="st6" d="M1175.3,197v19.3h-1.8v-2.7c-1.1,1.9-3,2.8-5.3,2.8c-3.9,0-6.8-2.8-6.8-7s2.9-6.9,6.8-6.9
	c2.2,0,4.1,0.9,5.2,2.7V197L1175.3,197L1175.3,197z M1173.5,209.5c0-3.2-2.2-5.3-5.1-5.3s-5.1,2.1-5.1,5.3s2.2,5.3,5.1,5.3
	S1173.5,212.7,1173.5,209.5z"/>
<path class="st6" d="M1192.4,210H1181c0.2,2.9,2.4,4.8,5.4,4.8c1.7,0,3.2-0.6,4.2-1.8l1,1.2c-1.2,1.5-3.1,2.2-5.3,2.2
	c-4.3,0-7.2-2.9-7.2-7s2.8-6.9,6.7-6.9s6.6,2.8,6.6,6.9C1192.4,209.6,1192.4,209.8,1192.4,210L1192.4,210z M1181,208.7h9.7
	c-0.2-2.7-2.2-4.6-4.9-4.6S1181.2,206,1181,208.7z"/>
<path class="st6" d="M1197.8,215c0,0.4-0.1,0.8-0.4,1.5l-1.1,3.6h-1.2l0.9-3.8c-0.6-0.2-0.9-0.6-0.9-1.3c0-0.8,0.6-1.4,1.4-1.4
	S1197.8,214.2,1197.8,215L1197.8,215z"/>
<path class="st6" d="M128.3,259.1l0.8-1.5c1.1,0.9,2.9,1.5,4.9,1.5c2.6,0,3.7-0.9,3.7-2.2c0-3.6-8.9-0.8-8.9-6.2
	c0-2.2,1.9-3.9,5.4-3.9c1.8,0,3.7,0.5,4.8,1.3l-0.8,1.5c-1.2-0.8-2.6-1.2-4-1.2c-2.5,0-3.6,1-3.6,2.3c0,3.7,8.9,0.9,8.9,6.2
	c0,2.4-2.1,3.9-5.6,3.9C131.6,260.8,129.4,260.1,128.3,259.1L128.3,259.1z"/>
<path class="st6" d="M153.2,252.2v8.5h-1.8v-2.1c-0.8,1.4-2.4,2.3-4.7,2.3c-3.1,0-5-1.6-5-4c0-2.1,1.4-3.9,5.3-3.9h4.3v-0.8
	c0-2.3-1.3-3.6-3.9-3.6c-1.8,0-3.4,0.6-4.6,1.6l-0.8-1.4c1.4-1.2,3.4-1.9,5.6-1.9C151.2,246.9,153.2,248.7,153.2,252.2L153.2,252.2z
	 M151.4,256.6v-2.2h-4.3c-2.6,0-3.5,1-3.5,2.4c0,1.6,1.3,2.6,3.5,2.6S150.6,258.4,151.4,256.6L151.4,256.6z M144.7,244.7h-1.1
	c0.1-1.7,1-2.9,2.3-2.9c1.6,0,2.4,1.8,3.4,1.8c0.8,0,1.3-0.6,1.4-1.6h1.1c-0.1,1.7-1,2.8-2.3,2.8c-1.6,0-2.4-1.8-3.4-1.8
	C145.3,243,144.8,243.6,144.7,244.7z"/>
<path class="st6" d="M156.9,253.9c0-4.1,3-6.9,7-6.9s6.9,2.9,6.9,6.9s-2.9,7-6.9,7S156.9,257.9,156.9,253.9z M168.9,253.9
	c0-3.2-2.2-5.3-5.1-5.3s-5.1,2.1-5.1,5.3c0,3.2,2.2,5.3,5.1,5.3S168.9,257.1,168.9,253.9L168.9,253.9z"/>
<path class="st6" d="M193.3,254.4h-11.4c0.2,2.9,2.4,4.8,5.4,4.8c1.7,0,3.1-0.6,4.2-1.8l1,1.2c-1.2,1.5-3.1,2.2-5.3,2.2
	c-4.3,0-7.2-2.9-7.2-7c0-4.1,2.8-6.9,6.7-6.9s6.6,2.8,6.6,6.9C193.3,254,193.3,254.2,193.3,254.4L193.3,254.4z M181.9,253.1h9.7
	c-0.2-2.7-2.2-4.6-4.9-4.6S182.1,250.4,181.9,253.1z"/>
<path class="st6" d="M205.4,260.7l-4.3-5.7l-4.4,5.7h-2.1l5.4-7l-5.1-6.7h2.1l4.1,5.4l4.1-5.4h2l-5.1,6.7l5.5,7H205.4L205.4,260.7z"
	/>
<path class="st6" d="M222,254.4h-11.4c0.2,2.9,2.4,4.8,5.4,4.8c1.7,0,3.1-0.6,4.2-1.8l1,1.2c-1.2,1.5-3.1,2.2-5.3,2.2
	c-4.3,0-7.2-2.9-7.2-7c0-4.1,2.8-6.9,6.7-6.9s6.6,2.8,6.6,6.9C222,254,222,254.2,222,254.4L222,254.4z M210.6,253.1h9.7
	c-0.2-2.7-2.2-4.6-4.9-4.6S210.8,250.4,210.6,253.1z"/>
<path class="st6" d="M248.4,252.8v7.9h-1.9V253c0-2.9-1.5-4.4-3.9-4.4c-2.8,0-4.6,1.8-4.6,4.9v7.2h-1.9V253c0-2.9-1.5-4.4-3.9-4.4
	c-2.8,0-4.6,1.8-4.6,4.9v7.2h-1.9V247h1.8v2.5c1-1.6,2.7-2.6,5-2.6s4,1,4.9,2.9c1-1.8,2.9-2.9,5.4-2.9
	C246.2,246.9,248.4,248.8,248.4,252.8L248.4,252.8z"/>
<path class="st6" d="M267.2,253.9c0,4.2-2.9,7-6.8,7c-2.2,0-4.1-0.9-5.2-2.7v7.6h-1.9V247h1.8v2.7c1.1-1.8,3-2.8,5.3-2.8
	C264.3,246.9,267.2,249.7,267.2,253.9L267.2,253.9z M265.4,253.9c0-3.2-2.2-5.3-5.1-5.3s-5.1,2.2-5.1,5.3s2.2,5.3,5.1,5.3
	S265.4,257.1,265.4,253.9L265.4,253.9z"/>
<path class="st6" d="M271,241.4h1.9v19.3H271V241.4z"/>
<path class="st6" d="M276.6,253.9c0-4.1,3-6.9,7-6.9s6.9,2.9,6.9,6.9s-2.9,7-6.9,7S276.6,257.9,276.6,253.9z M288.7,253.9
	c0-3.2-2.2-5.3-5.1-5.3s-5.1,2.1-5.1,5.3c0,3.2,2.2,5.3,5.1,5.3S288.7,257.1,288.7,253.9L288.7,253.9z"/>
<path class="st6" d="M292.4,259.1l0.8-1.5c1.1,0.9,2.9,1.5,4.9,1.5c2.6,0,3.7-0.9,3.7-2.2c0-3.6-8.9-0.8-8.9-6.2
	c0-2.2,1.9-3.9,5.4-3.9c1.8,0,3.7,0.5,4.8,1.3l-0.8,1.5c-1.2-0.8-2.6-1.2-4-1.2c-2.5,0-3.6,1-3.6,2.3c0,3.7,8.9,0.9,8.9,6.2
	c0,2.4-2.1,3.9-5.6,3.9C295.7,260.8,293.5,260.1,292.4,259.1L292.4,259.1z"/>
<path class="st6" d="M326.3,241.4v19.3h-1.8V258c-1.1,1.9-3,2.8-5.3,2.8c-3.9,0-6.8-2.8-6.8-7c0-4.1,2.9-6.9,6.8-6.9
	c2.2,0,4.1,0.9,5.2,2.7v-8.2L326.3,241.4L326.3,241.4z M324.5,253.9c0-3.2-2.2-5.3-5.1-5.3s-5.1,2.1-5.1,5.3c0,3.2,2.2,5.3,5.1,5.3
	S324.5,257.1,324.5,253.9z"/>
<path class="st6" d="M343.4,254.4h-11.4c0.2,2.9,2.4,4.8,5.4,4.8c1.7,0,3.1-0.6,4.2-1.8l1,1.2c-1.2,1.5-3.1,2.2-5.3,2.2
	c-4.3,0-7.2-2.9-7.2-7c0-4.1,2.8-6.9,6.7-6.9s6.6,2.8,6.6,6.9C343.4,254,343.4,254.2,343.4,254.4L343.4,254.4z M331.9,253.1h9.7
	c-0.2-2.7-2.2-4.6-4.9-4.6S332.2,250.4,331.9,253.1L331.9,253.1z"/>
<path class="st6" d="M367.8,253.9c0,4.2-2.9,7-6.8,7c-2.2,0-4.1-0.9-5.2-2.7v7.6H354V247h1.8v2.7c1.1-1.8,3-2.8,5.3-2.8
	C364.9,246.9,367.8,249.7,367.8,253.9L367.8,253.9z M366,253.9c0-3.2-2.2-5.3-5.1-5.3s-5.1,2.2-5.1,5.3s2.2,5.3,5.1,5.3
	S366,257.1,366,253.9L366,253.9z"/>
<path class="st6" d="M383.5,254.4h-11.4c0.2,2.9,2.4,4.8,5.4,4.8c1.7,0,3.1-0.6,4.2-1.8l1,1.2c-1.2,1.5-3.1,2.2-5.3,2.2
	c-4.3,0-7.2-2.9-7.2-7c0-4.1,2.8-6.9,6.7-6.9s6.6,2.8,6.6,6.9C383.5,254,383.5,254.2,383.5,254.4L383.5,254.4z M372.1,253.1h9.7
	c-0.2-2.7-2.2-4.6-4.9-4.6S372.3,250.4,372.1,253.1L372.1,253.1z"/>
<path class="st6" d="M394.2,246.9v1.8c-0.2,0-0.3,0-0.4,0c-2.9,0-4.6,1.8-4.6,5v7h-1.9V247h1.8v2.7
	C389.9,247.9,391.7,246.9,394.2,246.9L394.2,246.9z"/>
<path class="st6" d="M410.1,247v12c0,4.7-2.3,6.8-6.8,6.8c-2.5,0-4.9-0.8-6.4-2.1l0.9-1.4c1.3,1.2,3.3,1.9,5.4,1.9c3.5,0,5-1.6,5-5
	v-1.7c-1.1,1.7-3.1,2.6-5.3,2.6c-3.9,0-6.9-2.7-6.9-6.7c0-3.9,3-6.6,6.9-6.6c2.3,0,4.3,0.9,5.4,2.7V247L410.1,247L410.1,247z
	 M408.3,253.5c0-3-2.2-5-5.2-5s-5.2,2-5.2,5s2.2,5,5.2,5S408.3,256.5,408.3,253.5L408.3,253.5z"/>
<path class="st6" d="M427.6,247v13.7h-1.8v-2.5c-1,1.7-2.7,2.6-4.9,2.6c-3.5,0-5.8-2-5.8-5.9V247h1.9v7.8c0,2.9,1.5,4.4,4.1,4.4
	c2.9,0,4.6-1.9,4.6-5V247L427.6,247L427.6,247z"/>
<path class="st6" d="M445.3,252.8v7.9h-1.9V253c0-2.9-1.5-4.4-4.1-4.4c-2.9,0-4.8,1.8-4.8,4.9v7.2h-1.9V247h1.8v2.5
	c1-1.7,2.8-2.6,5.2-2.6C443,246.9,445.3,248.8,445.3,252.8L445.3,252.8z"/>
<path class="st6" d="M457.5,259.9c-0.7,0.6-1.8,1-2.9,1c-2.6,0-4-1.5-4-4v-8.3h-2.4V247h2.4v-3h1.9v3h4.2v1.6h-4.2v8.2
	c0,1.6,0.8,2.5,2.4,2.5c0.8,0,1.5-0.2,2-0.7L457.5,259.9L457.5,259.9z"/>
<path class="st6" d="M471.2,252.2v8.5h-1.8v-2.1c-0.8,1.4-2.4,2.3-4.7,2.3c-3.1,0-5-1.6-5-4c0-2.1,1.4-3.9,5.3-3.9h4.3v-0.8
	c0-2.3-1.3-3.6-3.9-3.6c-1.8,0-3.4,0.6-4.5,1.6l-0.8-1.4c1.4-1.2,3.4-1.9,5.6-1.9C469.2,246.9,471.2,248.7,471.2,252.2L471.2,252.2z
	 M469.4,256.6v-2.2h-4.3c-2.6,0-3.5,1-3.5,2.4c0,1.6,1.3,2.6,3.5,2.6S468.6,258.4,469.4,256.6L469.4,256.6z"/>
<path class="st6" d="M474.3,259.1l0.8-1.5c1.1,0.9,2.9,1.5,4.9,1.5c2.6,0,3.7-0.9,3.7-2.2c0-3.6-8.9-0.8-8.9-6.2
	c0-2.2,1.9-3.9,5.4-3.9c1.8,0,3.7,0.5,4.8,1.3l-0.8,1.5c-1.2-0.8-2.6-1.2-4-1.2c-2.5,0-3.6,1-3.6,2.3c0,3.7,8.9,0.9,8.9,6.2
	c0,2.4-2.1,3.9-5.6,3.9C477.6,260.8,475.5,260.1,474.3,259.1L474.3,259.1z"/>
<path class="st6" d="M518.3,252.8v7.9h-1.8V253c0-2.9-1.5-4.4-3.9-4.4c-2.8,0-4.6,1.8-4.6,4.9v7.2h-1.9V253c0-2.9-1.5-4.4-4-4.4
	c-2.8,0-4.6,1.8-4.6,4.9v7.2h-1.9V247h1.8v2.5c1-1.6,2.7-2.6,5-2.6s4,1,4.9,2.9c1-1.8,2.9-2.9,5.4-2.9
	C516.1,246.9,518.3,248.8,518.3,252.8L518.3,252.8z"/>
<path class="st6" d="M535.7,247v13.7h-1.8v-2.5c-1,1.7-2.7,2.6-4.9,2.6c-3.5,0-5.8-2-5.8-5.9V247h1.8v7.8c0,2.9,1.5,4.4,4.1,4.4
	c2.9,0,4.7-1.9,4.7-5V247L535.7,247L535.7,247z"/>
<path class="st6" d="M540.4,242.7c0-0.7,0.6-1.3,1.3-1.3s1.3,0.6,1.3,1.3c0,0.8-0.6,1.4-1.3,1.4S540.4,243.4,540.4,242.7
	L540.4,242.7z M540.8,247h1.8v13.7h-1.8V247z"/>
<path class="st6" d="M555,259.9c-0.7,0.6-1.8,1-2.9,1c-2.6,0-4-1.5-4-4v-8.3h-2.4V247h2.4v-3h1.8v3h4.2v1.6H550v8.2
	c0,1.6,0.8,2.5,2.4,2.5c0.8,0,1.5-0.2,2-0.7L555,259.9L555,259.9z"/>
<path class="st6" d="M556.5,253.9c0-4.1,3-6.9,7-6.9s6.9,2.9,6.9,6.9s-2.9,7-6.9,7S556.5,257.9,556.5,253.9z M568.6,253.9
	c0-3.2-2.2-5.3-5.1-5.3s-5.1,2.1-5.1,5.3c0,3.2,2.2,5.3,5.1,5.3S568.6,257.1,568.6,253.9L568.6,253.9z"/>
<path class="st6" d="M591.3,252.2v8.5h-1.8v-2.1c-0.8,1.4-2.4,2.3-4.7,2.3c-3.1,0-5-1.6-5-4c0-2.1,1.3-3.9,5.3-3.9h4.3v-0.8
	c0-2.3-1.3-3.6-3.9-3.6c-1.8,0-3.4,0.6-4.5,1.6l-0.8-1.4c1.4-1.2,3.4-1.9,5.6-1.9C589.3,246.9,591.3,248.7,591.3,252.2L591.3,252.2z
	 M589.5,256.6v-2.2h-4.3c-2.7,0-3.5,1-3.5,2.4c0,1.6,1.3,2.6,3.5,2.6S588.8,258.4,589.5,256.6L589.5,256.6z"/>
<path class="st6" d="M610.2,253.9c0,4.1-2.9,7-6.8,7c-2.3,0-4.2-1-5.3-2.8v2.7h-1.8v-19.3h1.8v8.2c1.1-1.8,3-2.7,5.2-2.7
	C607.3,246.9,610.2,249.8,610.2,253.9L610.2,253.9z M608.4,253.9c0-3.2-2.2-5.3-5.1-5.3s-5.1,2.1-5.1,5.3c0,3.2,2.2,5.3,5.1,5.3
	S608.4,257.1,608.4,253.9L608.4,253.9z"/>
<path class="st6" d="M620.9,246.9v1.8c-0.2,0-0.3,0-0.4,0c-2.9,0-4.6,1.8-4.6,5v7H614V247h1.8v2.7
	C616.6,247.9,618.4,246.9,620.9,246.9L620.9,246.9z"/>
<path class="st6" d="M634.5,252.2v8.5h-1.8v-2.1c-0.8,1.4-2.4,2.3-4.7,2.3c-3.1,0-5-1.6-5-4c0-2.1,1.3-3.9,5.3-3.9h4.3v-0.8
	c0-2.3-1.3-3.6-3.9-3.6c-1.8,0-3.4,0.6-4.5,1.6l-0.8-1.4c1.4-1.2,3.4-1.9,5.6-1.9C632.5,246.9,634.5,248.7,634.5,252.2L634.5,252.2z
	 M632.7,256.6v-2.2h-4.3c-2.7,0-3.5,1-3.5,2.4c0,1.6,1.3,2.6,3.5,2.6S631.9,258.4,632.7,256.6L632.7,256.6z"/>
<path class="st6" d="M652.1,252.8v7.9h-1.8V253c0-2.9-1.5-4.4-4.1-4.4c-2.9,0-4.8,1.8-4.8,4.9v7.2h-1.8V247h1.8v2.5
	c1-1.7,2.8-2.6,5.2-2.6C649.8,246.9,652.1,248.8,652.1,252.8L652.1,252.8z"/>
<path class="st6" d="M669.8,247v12c0,4.7-2.3,6.8-6.8,6.8c-2.5,0-4.9-0.8-6.4-2.1l0.9-1.4c1.3,1.2,3.3,1.9,5.4,1.9c3.5,0,5-1.6,5-5
	v-1.7c-1.1,1.7-3.1,2.6-5.3,2.6c-3.9,0-6.9-2.7-6.9-6.7c0-3.9,3-6.6,6.9-6.6c2.3,0,4.3,0.9,5.4,2.7V247L669.8,247L669.8,247z
	 M668,253.5c0-3-2.2-5-5.2-5s-5.2,2-5.2,5s2.2,5,5.2,5S668,256.5,668,253.5L668,253.5z"/>
<path class="st6" d="M686.9,254.4h-11.4c0.2,2.9,2.4,4.8,5.4,4.8c1.7,0,3.2-0.6,4.2-1.8l1,1.2c-1.2,1.5-3.1,2.2-5.3,2.2
	c-4.3,0-7.2-2.9-7.2-7c0-4.1,2.8-6.9,6.7-6.9s6.6,2.8,6.6,6.9C686.9,254,686.9,254.2,686.9,254.4L686.9,254.4z M675.5,253.1h9.7
	c-0.2-2.7-2.2-4.6-4.9-4.6S675.7,250.4,675.5,253.1z"/>
<path class="st6" d="M703.3,252.8v7.9h-1.8V253c0-2.9-1.5-4.4-4.1-4.4c-2.9,0-4.8,1.8-4.8,4.9v7.2h-1.8V247h1.8v2.5
	c1-1.7,2.8-2.6,5.2-2.6C701,246.9,703.3,248.8,703.3,252.8L703.3,252.8z"/>
<path class="st6" d="M715.5,259.9c-0.7,0.6-1.8,1-2.9,1c-2.6,0-4-1.5-4-4v-8.3h-2.4V247h2.4v-3h1.8v3h4.2v1.6h-4.2v8.2
	c0,1.6,0.8,2.5,2.4,2.5c0.8,0,1.5-0.2,2-0.7L715.5,259.9L715.5,259.9z"/>
<path class="st6" d="M730.3,254.4h-11.4c0.2,2.9,2.4,4.8,5.4,4.8c1.7,0,3.2-0.6,4.2-1.8l1,1.2c-1.2,1.5-3.1,2.2-5.3,2.2
	c-4.3,0-7.2-2.9-7.2-7c0-4.1,2.8-6.9,6.7-6.9s6.6,2.8,6.6,6.9C730.3,254,730.3,254.2,730.3,254.4L730.3,254.4z M718.8,253.1h9.7
	c-0.2-2.7-2.2-4.6-4.9-4.6S719.1,250.4,718.8,253.1z"/>
<path class="st6" d="M732.2,259.1l0.8-1.5c1.1,0.9,2.9,1.5,4.9,1.5c2.6,0,3.7-0.9,3.7-2.2c0-3.6-8.9-0.8-8.9-6.2
	c0-2.2,1.9-3.9,5.4-3.9c1.8,0,3.7,0.5,4.8,1.3l-0.8,1.5c-1.2-0.8-2.6-1.2-4-1.2c-2.5,0-3.6,1-3.6,2.3c0,3.7,8.9,0.9,8.9,6.2
	c0,2.4-2.1,3.9-5.6,3.9C735.5,260.8,733.3,260.1,732.2,259.1L732.2,259.1z"/>
<path class="st6" d="M765.5,254.4h-11.4c0.2,2.9,2.4,4.8,5.4,4.8c1.7,0,3.2-0.6,4.2-1.8l1,1.2c-1.2,1.5-3.1,2.2-5.3,2.2
	c-4.3,0-7.2-2.9-7.2-7c0-4.1,2.8-6.9,6.7-6.9s6.6,2.8,6.6,6.9C765.5,254,765.5,254.2,765.5,254.4L765.5,254.4z M754.1,253.1h9.7
	c-0.2-2.7-2.2-4.6-4.9-4.6S754.3,250.4,754.1,253.1z"/>
<path class="st6" d="M788.6,247v18.7h-1.8v-7.6c-1.1,1.8-3,2.7-5.2,2.7c-3.9,0-6.8-2.8-6.8-7c0-4.2,2.9-6.9,6.8-6.9
	c2.3,0,4.2,1,5.3,2.8V247L788.6,247L788.6,247z M786.8,253.9c0-3.2-2.2-5.3-5.1-5.3s-5.1,2.2-5.1,5.3s2.2,5.3,5.1,5.3
	S786.8,257.1,786.8,253.9L786.8,253.9z"/>
<path class="st6" d="M806.1,247v13.7h-1.8v-2.5c-1,1.7-2.7,2.6-4.9,2.6c-3.5,0-5.8-2-5.8-5.9V247h1.8v7.8c0,2.9,1.5,4.4,4.1,4.4
	c2.9,0,4.7-1.9,4.7-5V247L806.1,247L806.1,247z"/>
<path class="st6" d="M823.2,254.4h-11.4c0.2,2.9,2.4,4.8,5.4,4.8c1.7,0,3.2-0.6,4.2-1.8l1,1.2c-1.2,1.5-3.1,2.2-5.3,2.2
	c-4.3,0-7.2-2.9-7.2-7c0-4.1,2.8-6.9,6.7-6.9s6.6,2.8,6.6,6.9C823.2,254,823.1,254.2,823.2,254.4L823.2,254.4z M811.7,253.1h9.7
	c-0.2-2.7-2.2-4.6-4.9-4.6S812,250.4,811.7,253.1z"/>
<path class="st6" d="M846.2,241.4v19.3h-1.8V258c-1.1,1.9-3,2.8-5.3,2.8c-3.9,0-6.8-2.8-6.8-7c0-4.1,2.9-6.9,6.8-6.9
	c2.2,0,4.1,0.9,5.2,2.7v-8.2L846.2,241.4L846.2,241.4z M844.4,253.9c0-3.2-2.2-5.3-5.1-5.3s-5.1,2.1-5.1,5.3c0,3.2,2.2,5.3,5.1,5.3
	S844.4,257.1,844.4,253.9z"/>
<path class="st6" d="M851,242.7c0-0.7,0.6-1.3,1.3-1.3s1.3,0.6,1.3,1.3c0,0.8-0.6,1.4-1.3,1.4S851,243.4,851,242.7L851,242.7z
	 M851.4,247h1.8v13.7h-1.8V247z"/>
<path class="st6" d="M862.8,241.3c1,0,2,0.3,2.7,0.9l-0.6,1.4c-0.5-0.4-1.2-0.7-2-0.7c-1.6,0-2.4,0.9-2.4,2.6v1.6h4.2v1.6h-4.2v12.1
	h-1.8v-12.1h-2.4V247h2.4v-1.7C858.7,242.9,860.2,241.3,862.8,241.3L862.8,241.3z M871.6,242.7c0,0.8-0.6,1.4-1.3,1.4
	s-1.3-0.6-1.3-1.3s0.6-1.3,1.3-1.3S871.6,242,871.6,242.7L871.6,242.7z M869.3,247h1.8v13.7h-1.8V247z"/>
<path class="st6" d="M874.9,253.9c0-4.1,3-6.9,7-6.9c2.3,0,4.3,0.9,5.4,2.7l-1.4,0.9c-0.9-1.4-2.4-2-4-2c-3,0-5.2,2.1-5.2,5.3
	c0,3.2,2.2,5.3,5.2,5.3c1.6,0,3-0.6,4-2l1.4,0.9c-1.1,1.8-3,2.7-5.4,2.7C877.9,260.8,874.9,257.9,874.9,253.9z"/>
<path class="st6" d="M890.5,242.7c0-0.7,0.6-1.3,1.3-1.3s1.3,0.6,1.3,1.3c0,0.8-0.6,1.4-1.3,1.4S890.5,243.4,890.5,242.7
	L890.5,242.7z M890.9,247h1.8v13.7h-1.8V247z"/>
<path class="st6" d="M897.9,241.4h1.8v19.3h-1.8V241.4z"/>
<path class="st6" d="M927.5,252.8v7.9h-1.8V253c0-2.9-1.5-4.4-3.9-4.4c-2.8,0-4.6,1.8-4.6,4.9v7.2h-1.8V253c0-2.9-1.5-4.4-4-4.4
	c-2.8,0-4.6,1.8-4.6,4.9v7.2h-1.8V247h1.8v2.5c1-1.6,2.7-2.6,5-2.6s4,1,4.9,2.9c1-1.8,2.9-2.9,5.4-2.9
	C925.3,246.9,927.4,248.8,927.5,252.8L927.5,252.8z"/>
<path class="st6" d="M944.4,254.4H933c0.2,2.9,2.4,4.8,5.4,4.8c1.7,0,3.2-0.6,4.2-1.8l1,1.2c-1.2,1.5-3.1,2.2-5.3,2.2
	c-4.3,0-7.2-2.9-7.2-7c0-4.1,2.8-6.9,6.7-6.9s6.6,2.8,6.6,6.9C944.5,254,944.4,254.2,944.4,254.4L944.4,254.4z M933,253.1h9.7
	c-0.2-2.7-2.2-4.6-4.9-4.6S933.2,250.4,933,253.1z"/>
<path class="st6" d="M960.8,252.8v7.9H959V253c0-2.9-1.5-4.4-4.1-4.4c-2.9,0-4.8,1.8-4.8,4.9v7.2h-1.8V247h1.8v2.5
	c1-1.7,2.8-2.6,5.2-2.6C958.5,246.9,960.8,248.8,960.8,252.8L960.8,252.8z"/>
<path class="st6" d="M973,259.9c-0.7,0.6-1.8,1-2.9,1c-2.6,0-4-1.5-4-4v-8.3h-2.4V247h2.4v-3h1.8v3h4.2v1.6H968v8.2
	c0,1.6,0.8,2.5,2.4,2.5c0.8,0,1.5-0.2,2-0.7L973,259.9L973,259.9z"/>
<path class="st6" d="M987.8,254.4h-11.4c0.2,2.9,2.4,4.8,5.4,4.8c1.7,0,3.2-0.6,4.2-1.8l1,1.2c-1.2,1.5-3.1,2.2-5.3,2.2
	c-4.3,0-7.2-2.9-7.2-7c0-4.1,2.8-6.9,6.7-6.9s6.6,2.8,6.6,6.9C987.8,254,987.8,254.2,987.8,254.4L987.8,254.4z M976.4,253.1h9.7
	c-0.2-2.7-2.2-4.6-4.9-4.6S976.6,250.4,976.4,253.1z"/>
<path class="st6" d="M1012.3,253.9c0,4.2-2.9,7-6.8,7c-2.2,0-4.1-0.9-5.2-2.7v7.6h-1.8V247h1.8v2.7c1.1-1.8,3-2.8,5.3-2.8
	C1009.4,246.9,1012.3,249.7,1012.3,253.9L1012.3,253.9z M1010.4,253.9c0-3.2-2.2-5.3-5.1-5.3s-5.1,2.2-5.1,5.3s2.2,5.3,5.1,5.3
	S1010.4,257.1,1010.4,253.9L1010.4,253.9z"/>
<path class="st6" d="M1022.9,246.9v1.8c-0.2,0-0.3,0-0.4,0c-2.9,0-4.6,1.8-4.6,5v7h-1.8V247h1.8v2.7
	C1018.7,247.9,1020.4,246.9,1022.9,246.9L1022.9,246.9z"/>
<path class="st6" d="M1024.8,253.9c0-4.1,3-6.9,7-6.9s6.9,2.9,6.9,6.9s-2.9,7-6.9,7S1024.8,257.9,1024.8,253.9z M1036.8,253.9
	c0-3.2-2.2-5.3-5.1-5.3s-5.1,2.1-5.1,5.3c0,3.2,2.2,5.3,5.1,5.3S1036.8,257.1,1036.8,253.9L1036.8,253.9z"/>
<path class="st6" d="M1056.3,253.9c0,4.2-2.9,7-6.8,7c-2.2,0-4.1-0.9-5.2-2.7v7.6h-1.8V247h1.8v2.7c1.1-1.8,3-2.8,5.3-2.8
	C1053.4,246.9,1056.3,249.7,1056.3,253.9L1056.3,253.9z M1054.4,253.9c0-3.2-2.2-5.3-5.1-5.3s-5.1,2.2-5.1,5.3s2.2,5.3,5.1,5.3
	S1054.4,257.1,1054.4,253.9L1054.4,253.9z"/>
<path class="st6" d="M1058.7,253.9c0-4.1,3-6.9,7-6.9s6.9,2.9,6.9,6.9s-2.9,7-6.9,7S1058.7,257.9,1058.7,253.9z M1070.7,253.9
	c0-3.2-2.2-5.3-5.1-5.3s-5.1,2.1-5.1,5.3c0,3.2,2.2,5.3,5.1,5.3S1070.7,257.1,1070.7,253.9L1070.7,253.9z"/>
<path class="st6" d="M1083.2,246.9v1.8c-0.2,0-0.3,0-0.4,0c-2.9,0-4.6,1.8-4.6,5v7h-1.8V247h1.8v2.7
	C1079,247.9,1080.7,246.9,1083.2,246.9L1083.2,246.9z"/>
<path class="st6" d="M1085.1,253.9c0-4.1,3-6.9,7.1-6.9c2.3,0,4.3,0.9,5.4,2.7l-1.4,0.9c-0.9-1.4-2.4-2-4-2c-3,0-5.2,2.1-5.2,5.3
	c0,3.2,2.2,5.3,5.2,5.3c1.6,0,3-0.6,4-2l1.4,0.9c-1.1,1.8-3,2.7-5.4,2.7C1088,260.8,1085.1,257.9,1085.1,253.9z"/>
<path class="st6" d="M1100.7,242.7c0-0.7,0.6-1.3,1.3-1.3s1.3,0.6,1.3,1.3c0,0.8-0.6,1.4-1.3,1.4S1100.7,243.4,1100.7,242.7
	L1100.7,242.7z M1101.1,247h1.8v13.7h-1.8V247z"/>
<path class="st6" d="M1106.7,253.9c0-4.1,3-6.9,7-6.9s6.9,2.9,6.9,6.9s-2.9,7-6.9,7S1106.7,257.9,1106.7,253.9z M1118.8,253.9
	c0-3.2-2.2-5.3-5.1-5.3s-5.1,2.1-5.1,5.3c0,3.2,2.2,5.3,5.1,5.3S1118.8,257.1,1118.8,253.9L1118.8,253.9z"/>
<path class="st6" d="M1137,252.8v7.9h-1.8V253c0-2.9-1.5-4.4-4.1-4.4c-2.9,0-4.8,1.8-4.8,4.9v7.2h-1.8V247h1.8v2.5
	c1-1.7,2.8-2.6,5.2-2.6C1134.7,246.9,1137,248.8,1137,252.8L1137,252.8z"/>
<path class="st6" d="M1152.3,252.2v8.5h-1.8v-2.1c-0.8,1.4-2.4,2.3-4.7,2.3c-3.1,0-5-1.6-5-4c0-2.1,1.3-3.9,5.3-3.9h4.3v-0.8
	c0-2.3-1.3-3.6-3.9-3.6c-1.8,0-3.4,0.6-4.6,1.6l-0.8-1.4c1.4-1.2,3.4-1.9,5.6-1.9C1150.3,246.9,1152.3,248.7,1152.3,252.2
	L1152.3,252.2z M1150.5,256.6v-2.2h-4.3c-2.7,0-3.5,1-3.5,2.4c0,1.6,1.3,2.6,3.5,2.6S1149.7,258.4,1150.5,256.6L1150.5,256.6z"/>
<path class="st6" d="M1179.9,252.8v7.9h-1.8V253c0-2.9-1.5-4.4-3.9-4.4c-2.8,0-4.6,1.8-4.6,4.9v7.2h-1.8V253c0-2.9-1.5-4.4-3.9-4.4
	c-2.8,0-4.6,1.8-4.6,4.9v7.2h-1.8V247h1.8v2.5c1-1.6,2.7-2.6,5-2.6s4,1,4.9,2.9c1-1.8,2.9-2.9,5.4-2.9
	C1177.7,246.9,1179.9,248.8,1179.9,252.8L1179.9,252.8z"/>
<path class="st6" d="M140.5,296.6v8.5h-1.8V303c-0.8,1.4-2.4,2.3-4.7,2.3c-3.1,0-5-1.6-5-4c0-2.1,1.4-3.9,5.3-3.9h4.3v-0.8
	c0-2.3-1.3-3.6-3.9-3.6c-1.8,0-3.4,0.6-4.6,1.6l-0.8-1.4c1.4-1.2,3.4-1.9,5.6-1.9C138.5,291.3,140.5,293.1,140.5,296.6L140.5,296.6z
	 M138.6,301v-2.2h-4.3c-2.6,0-3.5,1-3.5,2.4c0,1.6,1.3,2.6,3.5,2.6S137.9,302.8,138.6,301L138.6,301z"/>
<path class="st6" d="M159.2,291.3v1.8c-0.2,0-0.3,0-0.4,0c-2.9,0-4.6,1.8-4.6,5v7h-1.9v-13.7h1.8v2.7
	C155,292.3,156.7,291.3,159.2,291.3L159.2,291.3z"/>
<path class="st6" d="M174.3,298.8h-11.4c0.2,2.9,2.4,4.8,5.4,4.8c1.7,0,3.1-0.6,4.2-1.8l1,1.2c-1.2,1.5-3.1,2.2-5.3,2.2
	c-4.3,0-7.2-2.9-7.2-7s2.8-6.9,6.7-6.9s6.6,2.8,6.6,6.9C174.4,298.4,174.3,298.6,174.3,298.8L174.3,298.8z M162.9,297.5h9.7
	c-0.2-2.7-2.2-4.5-4.9-4.5S163.1,294.8,162.9,297.5z"/>
<path class="st6" d="M188.1,296.6v8.5h-1.8V303c-0.8,1.4-2.4,2.3-4.7,2.3c-3.1,0-5-1.6-5-4c0-2.1,1.4-3.9,5.3-3.9h4.3v-0.8
	c0-2.3-1.3-3.6-3.9-3.6c-1.8,0-3.4,0.6-4.6,1.6l-0.8-1.4c1.4-1.2,3.4-1.9,5.6-1.9C186.1,291.3,188.1,293.1,188.1,296.6L188.1,296.6z
	 M186.2,301v-2.2h-4.3c-2.6,0-3.5,1-3.5,2.4c0,1.6,1.3,2.6,3.5,2.6S185.5,302.8,186.2,301L186.2,301z"/>
<path class="st6" d="M193.1,285.8h1.9v19.3h-1.9V285.8z"/>
<path class="st6" d="M199.6,287.1c0-0.7,0.6-1.3,1.4-1.3s1.4,0.6,1.4,1.3c0,0.8-0.6,1.4-1.4,1.4S199.6,287.8,199.6,287.1
	L199.6,287.1z M200.1,291.4h1.9v13.7h-1.9V291.4z"/>
<path class="st6" d="M216.7,303.6v1.5h-11.1v-1.2l8.6-10.9h-8.4v-1.6h10.8v1.2l-8.6,10.9H216.7L216.7,303.6z"/>
<path class="st6" d="M230.7,296.6v8.5h-1.8V303c-0.8,1.4-2.4,2.3-4.7,2.3c-3.1,0-5-1.6-5-4c0-2.1,1.4-3.9,5.3-3.9h4.3v-0.8
	c0-2.3-1.3-3.6-3.9-3.6c-1.8,0-3.4,0.6-4.6,1.6l-0.8-1.4c1.4-1.2,3.4-1.9,5.6-1.9C228.7,291.3,230.7,293.1,230.7,296.6L230.7,296.6z
	 M228.8,301v-2.2h-4.3c-2.6,0-3.5,1-3.5,2.4c0,1.6,1.3,2.6,3.5,2.6S228.1,302.8,228.8,301L228.8,301z"/>
<path class="st6" d="M245.4,301.6l1.4,0.9c-1.1,1.8-3,2.7-5.4,2.7h-0.1l-0.3,1.2c1.4,0.1,2.2,1,2.2,2.1c0,1.4-1.2,2.3-2.9,2.3
	c-0.9,0-1.6-0.2-2.2-0.6l0.4-1c0.5,0.3,1.1,0.5,1.7,0.5c1,0,1.6-0.4,1.6-1.2c0-0.7-0.5-1.2-1.6-1.2h-0.6l0.6-2.2
	c-3.5-0.5-5.9-3.2-5.9-6.9c0-4.1,3-6.9,7.1-6.9c2.3,0,4.3,0.9,5.4,2.7l-1.4,0.9c-0.9-1.4-2.4-2-4-2c-3,0-5.2,2.1-5.2,5.3
	s2.2,5.3,5.2,5.3C243,303.6,244.5,303,245.4,301.6L245.4,301.6z"/>
<path class="st6" d="M260.7,296.6v8.5h-1.8V303c-0.8,1.4-2.4,2.3-4.7,2.3c-3.1,0-5-1.6-5-4c0-2.1,1.4-3.9,5.3-3.9h4.3v-0.8
	c0-2.3-1.3-3.6-3.9-3.6c-1.8,0-3.4,0.6-4.6,1.6l-0.8-1.4c1.4-1.2,3.4-1.9,5.6-1.9C258.7,291.3,260.7,293.1,260.7,296.6z M258.9,301
	v-2.2h-4.3c-2.6,0-3.5,1-3.5,2.4c0,1.6,1.3,2.6,3.5,2.6C256.7,303.8,258.1,302.8,258.9,301L258.9,301z M252.2,289.1h-1.1
	c0.1-1.7,1-2.9,2.3-2.9c1.6,0,2.4,1.8,3.4,1.8c0.8,0,1.3-0.6,1.4-1.6h1.1c0,1.7-1,2.8-2.3,2.8c-1.6,0-2.4-1.8-3.4-1.8
	C252.8,287.4,252.3,288,252.2,289.1L252.2,289.1z"/>
<path class="st6" d="M264.4,298.3c0-4.1,3-6.9,7-6.9s6.9,2.9,6.9,6.9s-2.9,7-6.9,7S264.4,302.3,264.4,298.3z M276.4,298.3
	c0-3.2-2.2-5.3-5.1-5.3s-5.1,2.1-5.1,5.3s2.2,5.3,5.1,5.3S276.4,301.5,276.4,298.3z"/>
<path class="st6" d="M301.4,285.8v19.3h-1.8v-2.7c-1.1,1.9-3,2.8-5.3,2.8c-3.9,0-6.8-2.8-6.8-7s2.9-6.9,6.8-6.9
	c2.2,0,4.1,0.9,5.2,2.7v-8.2L301.4,285.8L301.4,285.8z M299.5,298.3c0-3.2-2.2-5.3-5.1-5.3s-5.1,2.1-5.1,5.3s2.2,5.3,5.1,5.3
	S299.5,301.5,299.5,298.3z"/>
<path class="st6" d="M318.4,298.8H307c0.2,2.9,2.4,4.8,5.4,4.8c1.7,0,3.1-0.6,4.2-1.8l1,1.2c-1.2,1.5-3.1,2.2-5.3,2.2
	c-4.3,0-7.2-2.9-7.2-7s2.8-6.9,6.7-6.9s6.6,2.8,6.6,6.9C318.4,298.4,318.4,298.6,318.4,298.8L318.4,298.8z M307,297.5h9.7
	c-0.2-2.7-2.2-4.5-4.9-4.5S307.2,294.8,307,297.5L307,297.5z"/>
<path class="st6" d="M333.5,291.4l-6.1,13.7h-1.9l-6.1-13.7h1.9l5.1,11.6l5.2-11.6H333.5L333.5,291.4z"/>
<path class="st6" d="M335.6,287.1c0-0.7,0.6-1.3,1.4-1.3s1.4,0.6,1.4,1.3c0,0.8-0.6,1.4-1.4,1.4S335.6,287.8,335.6,287.1
	L335.6,287.1z M336.1,291.4h1.9v13.7h-1.9V291.4z"/>
<path class="st6" d="M355.5,285.8v19.3h-1.8v-2.7c-1.1,1.9-3,2.8-5.3,2.8c-3.9,0-6.8-2.8-6.8-7s2.9-6.9,6.8-6.9
	c2.2,0,4.1,0.9,5.2,2.7v-8.2L355.5,285.8L355.5,285.8z M353.7,298.3c0-3.2-2.2-5.3-5.1-5.3s-5.1,2.1-5.1,5.3s2.2,5.3,5.1,5.3
	S353.7,301.5,353.7,298.3z"/>
<path class="st6" d="M371,296.6v8.5h-1.8V303c-0.8,1.4-2.4,2.3-4.7,2.3c-3.1,0-5-1.6-5-4c0-2.1,1.4-3.9,5.3-3.9h4.3v-0.8
	c0-2.3-1.3-3.6-3.9-3.6c-1.8,0-3.4,0.6-4.5,1.6l-0.8-1.4c1.4-1.2,3.4-1.9,5.6-1.9C369,291.3,371,293.1,371,296.6L371,296.6z
	 M369.1,301v-2.2h-4.3c-2.6,0-3.5,1-3.5,2.4c0,1.6,1.3,2.6,3.5,2.6S368.4,302.8,369.1,301L369.1,301z"/>
<path class="st6" d="M395.3,285.8v19.3h-1.8v-2.7c-1.1,1.9-3,2.8-5.3,2.8c-3.9,0-6.8-2.8-6.8-7s2.9-6.9,6.8-6.9
	c2.2,0,4.1,0.9,5.2,2.7v-8.2L395.3,285.8L395.3,285.8z M393.5,298.3c0-3.2-2.2-5.3-5.1-5.3s-5.1,2.1-5.1,5.3s2.2,5.3,5.1,5.3
	S393.5,301.5,393.5,298.3z"/>
<path class="st6" d="M410.8,296.6v8.5H409V303c-0.8,1.4-2.4,2.3-4.7,2.3c-3.1,0-5-1.6-5-4c0-2.1,1.4-3.9,5.3-3.9h4.3v-0.8
	c0-2.3-1.3-3.6-3.9-3.6c-1.8,0-3.4,0.6-4.5,1.6l-0.8-1.4c1.4-1.2,3.4-1.9,5.6-1.9C408.8,291.3,410.8,293.1,410.8,296.6L410.8,296.6z
	 M408.9,301v-2.2h-4.3c-2.6,0-3.5,1-3.5,2.4c0,1.6,1.3,2.6,3.5,2.6S408.2,302.8,408.9,301L408.9,301z"/>
<path class="st6" d="M129.5,342.4c0-1.1,0.9-2,1.9-2s1.9,0.8,1.9,2s-0.9,2-1.9,2S129.5,343.5,129.5,342.4z"/>
<path class="st6" d="M143.4,340.4c0-5.3,4.1-9.3,9.5-9.3c2.6,0,5,0.9,6.7,2.6l-1.2,1.2c-1.5-1.5-3.3-2.2-5.4-2.2
	c-4.4,0-7.7,3.2-7.7,7.5s3.3,7.5,7.7,7.5c2.1,0,3.9-0.6,5.4-2.2l1.2,1.2c-1.6,1.8-4,2.7-6.7,2.7
	C147.5,349.7,143.4,345.7,143.4,340.4L143.4,340.4z"/>
<path class="st6" d="M161.4,342.7c0-4.1,3-6.9,7-6.9s6.9,2.9,6.9,6.9s-2.9,7-6.9,7S161.4,346.7,161.4,342.7z M173.4,342.7
	c0-3.2-2.2-5.3-5.1-5.3s-5.1,2.1-5.1,5.3s2.2,5.3,5.1,5.3S173.4,345.9,173.4,342.7z"/>
<path class="st6" d="M201.6,341.6v7.9h-1.9v-7.8c0-2.9-1.5-4.4-3.9-4.4c-2.8,0-4.6,1.8-4.6,4.9v7.2h-1.9v-7.8c0-2.9-1.5-4.4-3.9-4.4
	c-2.8,0-4.6,1.8-4.6,4.9v7.2H179v-13.7h1.8v2.5c1-1.6,2.7-2.6,5-2.6s4,1,4.9,2.9c1-1.8,2.9-2.9,5.4-2.9
	C199.4,335.7,201.6,337.6,201.6,341.6L201.6,341.6z"/>
<path class="st6" d="M205.3,342.7c0-4.1,3-6.9,7-6.9s6.9,2.9,6.9,6.9s-2.9,7-6.9,7S205.3,346.7,205.3,342.7z M217.4,342.7
	c0-3.2-2.2-5.3-5.1-5.3s-5.1,2.1-5.1,5.3s2.2,5.3,5.1,5.3S217.4,345.9,217.4,342.7z"/>
<path class="st6" d="M252.4,341.6v7.9h-1.9v-7.8c0-2.9-1.5-4.4-3.9-4.4c-2.8,0-4.6,1.8-4.6,4.9v7.2h-1.9v-7.8c0-2.9-1.5-4.4-3.9-4.4
	c-2.8,0-4.6,1.8-4.6,4.9v7.2h-1.9v-13.7h1.8v2.5c1-1.6,2.7-2.6,5-2.6s4,1,4.9,2.9c1-1.8,2.9-2.9,5.4-2.9
	C250.2,335.7,252.4,337.6,252.4,341.6L252.4,341.6z"/>
<path class="st6" d="M269.4,343.2h-11.4c0.2,2.9,2.4,4.8,5.4,4.8c1.7,0,3.1-0.6,4.2-1.8l1,1.2c-1.2,1.5-3.1,2.2-5.3,2.2
	c-4.3,0-7.2-2.9-7.2-7s2.8-6.9,6.7-6.9s6.6,2.8,6.6,6.9C269.4,342.8,269.4,343,269.4,343.2L269.4,343.2z M257.9,341.9h9.7
	c-0.2-2.7-2.2-4.5-4.9-4.5S258.2,339.2,257.9,341.9L257.9,341.9z"/>
<path class="st6" d="M273.1,330.2h1.9v19.3h-1.9V330.2z"/>
<path class="st6" d="M292.7,341.6v7.9h-1.9v-7.8c0-2.9-1.5-4.4-4.1-4.4c-2.9,0-4.8,1.8-4.8,4.9v7.2h-1.9v-19.3h1.9v8
	c1-1.6,2.8-2.5,5.1-2.5C290.4,335.7,292.7,337.6,292.7,341.6z"/>
<path class="st6" d="M296.4,342.7c0-4.1,3-6.9,7-6.9s6.9,2.9,6.9,6.9s-2.9,7-6.9,7S296.4,346.7,296.4,342.7z M308.5,342.7
	c0-3.2-2.2-5.3-5.1-5.3s-5.1,2.1-5.1,5.3s2.2,5.3,5.1,5.3S308.5,345.9,308.5,342.7z"/>
<path class="st6" d="M321,335.7v1.8c-0.2,0-0.3,0-0.4,0c-2.9,0-4.6,1.8-4.6,5v7h-1.9v-13.7h1.8v2.7
	C316.7,336.7,318.5,335.7,321,335.7L321,335.7z"/>
<path class="st6" d="M334.6,341v8.5h-1.8v-2.1c-0.8,1.4-2.4,2.3-4.7,2.3c-3.1,0-5-1.6-5-4c0-2.1,1.4-3.9,5.3-3.9h4.3V341
	c0-2.3-1.3-3.6-3.9-3.6c-1.8,0-3.4,0.6-4.5,1.6l-0.8-1.4c1.4-1.2,3.4-1.9,5.6-1.9C332.6,335.7,334.6,337.5,334.6,341L334.6,341z
	 M332.8,345.4v-2.2h-4.3c-2.6,0-3.5,1-3.5,2.4c0,1.6,1.3,2.6,3.5,2.6S332,347.2,332.8,345.4L332.8,345.4z"/>
<path class="st6" d="M346.5,335.7v1.8c-0.2,0-0.3,0-0.4,0c-2.9,0-4.6,1.8-4.6,5v7h-1.9v-13.7h1.8v2.7
	C342.3,336.7,344,335.7,346.5,335.7L346.5,335.7z"/>
<path class="st6" d="M367.2,341v8.5h-1.8v-2.1c-0.8,1.4-2.4,2.3-4.7,2.3c-3.1,0-5-1.6-5-4c0-2.1,1.4-3.9,5.3-3.9h4.3V341
	c0-2.3-1.3-3.6-3.9-3.6c-1.8,0-3.4,0.6-4.5,1.6l-0.8-1.4c1.4-1.2,3.4-1.9,5.6-1.9C365.2,335.7,367.2,337.5,367.2,341L367.2,341z
	 M365.3,345.4v-2.2H361c-2.6,0-3.5,1-3.5,2.4c0,1.6,1.3,2.6,3.5,2.6S364.6,347.2,365.3,345.4L365.3,345.4z"/>
<path class="st6" d="M392.9,342.7c0,4.2-2.9,7-6.8,7c-2.2,0-4.1-0.9-5.2-2.7v7.6H379v-18.7h1.8v2.7c1.1-1.8,3-2.8,5.3-2.8
	C390,335.7,392.9,338.5,392.9,342.7L392.9,342.7z M391,342.7c0-3.2-2.2-5.3-5.1-5.3s-5.1,2.2-5.1,5.3s2.2,5.3,5.1,5.3
	S391,345.9,391,342.7z"/>
<path class="st6" d="M395.3,342.7c0-4.1,3-6.9,7-6.9s6.9,2.9,6.9,6.9s-2.9,7-6.9,7S395.3,346.7,395.3,342.7z M407.3,342.7
	c0-3.2-2.2-5.3-5.1-5.3s-5.1,2.1-5.1,5.3s2.2,5.3,5.1,5.3S407.3,345.9,407.3,342.7z"/>
<path class="st6" d="M413,330.2h1.9v19.3H413V330.2z"/>
<path class="st6" d="M422.8,330.5h2.5l-4.2,3.2h-1.8L422.8,330.5z M420,335.8h1.9v13.7H420V335.8z"/>
<path class="st6" d="M434.1,348.7c-0.7,0.6-1.8,1-2.9,1c-2.6,0-4-1.5-4-4v-8.3h-2.4v-1.6h2.4v-3h1.9v3h4.2v1.6h-4.2v8.2
	c0,1.6,0.8,2.5,2.4,2.5c0.8,0,1.5-0.2,2-0.7L434.1,348.7L434.1,348.7z"/>
<path class="st6" d="M437.1,331.5c0-0.7,0.6-1.3,1.4-1.3s1.4,0.6,1.4,1.3c0,0.8-0.6,1.4-1.4,1.4S437.1,332.2,437.1,331.5
	L437.1,331.5z M437.5,335.8h1.9v13.7h-1.9V335.8z"/>
<path class="st6" d="M443.1,342.7c0-4.1,3-6.9,7-6.9c2.3,0,4.3,0.9,5.4,2.7l-1.4,0.9c-0.9-1.4-2.4-2-4-2c-3,0-5.2,2.1-5.2,5.3
	s2.2,5.3,5.2,5.3c1.6,0,3-0.6,4-2l1.4,0.9c-1.1,1.8-3,2.7-5.4,2.7C446.1,349.6,443.1,346.8,443.1,342.7z"/>
<path class="st6" d="M469.5,341v8.5h-1.8v-2.1c-0.8,1.4-2.4,2.3-4.7,2.3c-3.1,0-5-1.6-5-4c0-2.1,1.4-3.9,5.3-3.9h4.3V341
	c0-2.3-1.3-3.6-3.9-3.6c-1.8,0-3.4,0.6-4.5,1.6l-0.8-1.4c1.4-1.2,3.4-1.9,5.6-1.9C467.5,335.7,469.5,337.5,469.5,341L469.5,341z
	 M467.6,345.4v-2.2h-4.3c-2.6,0-3.5,1-3.5,2.4c0,1.6,1.3,2.6,3.5,2.6S466.9,347.2,467.6,345.4L467.6,345.4z"/>
<path class="st6" d="M495.1,342.7c0,4.2-2.9,7-6.8,7c-2.2,0-4.1-0.9-5.2-2.7v7.6h-1.9v-18.7h1.8v2.7c1.1-1.8,3-2.8,5.3-2.8
	C492.2,335.7,495.1,338.5,495.1,342.7L495.1,342.7z M493.3,342.7c0-3.2-2.2-5.3-5.1-5.3s-5.1,2.2-5.1,5.3s2.2,5.3,5.1,5.3
	S493.3,345.9,493.3,342.7z"/>
<path class="st6" d="M511.2,335.8v13.7h-1.8V347c-1,1.7-2.7,2.6-4.9,2.6c-3.5,0-5.8-2-5.8-5.9v-7.9h1.9v7.8c0,2.9,1.5,4.4,4.1,4.4
	c2.9,0,4.6-1.9,4.6-5v-7.2L511.2,335.8L511.2,335.8z M505.2,333.7h-1.8l3.6-3.2h2.5L505.2,333.7z"/>
<path class="st6" d="M530.3,342.7c0,4.1-2.9,7-6.8,7c-2.3,0-4.2-1-5.3-2.8v2.7h-1.8v-19.3h1.8v8.2c1.1-1.8,3-2.7,5.2-2.7
	C527.3,335.7,530.3,338.6,530.3,342.7L530.3,342.7z M528.4,342.7c0-3.2-2.2-5.3-5.1-5.3s-5.1,2.1-5.1,5.3s2.2,5.3,5.1,5.3
	S528.4,345.9,528.4,342.7z"/>
<path class="st6" d="M534,330.2h1.8v19.3H534V330.2z"/>
<path class="st6" d="M540.6,331.5c0-0.7,0.6-1.3,1.3-1.3s1.3,0.6,1.3,1.3c0,0.8-0.6,1.4-1.3,1.4S540.6,332.2,540.6,331.5
	L540.6,331.5z M541,335.8h1.8v13.7H541V335.8z"/>
<path class="st6" d="M546.6,342.7c0-4.1,3-6.9,7-6.9c2.3,0,4.3,0.9,5.4,2.7l-1.4,0.9c-0.9-1.4-2.4-2-4-2c-3,0-5.2,2.1-5.2,5.3
	s2.2,5.3,5.2,5.3c1.6,0,3-0.6,4-2l1.4,0.9c-1.1,1.8-3,2.7-5.4,2.7C549.6,349.6,546.6,346.8,546.6,342.7z"/>
<path class="st6" d="M573,341v8.5h-1.8v-2.1c-0.8,1.4-2.4,2.3-4.7,2.3c-3.1,0-5-1.6-5-4c0-2.1,1.3-3.9,5.3-3.9h4.3V341
	c0-2.3-1.3-3.6-3.9-3.6c-1.8,0-3.4,0.6-4.5,1.6l-0.8-1.4c1.4-1.2,3.4-1.9,5.6-1.9C571,335.7,573,337.5,573,341z M571.1,345.4v-2.2
	h-4.3c-2.7,0-3.5,1-3.5,2.4c0,1.6,1.3,2.6,3.5,2.6S570.4,347.2,571.1,345.4L571.1,345.4z"/>
<path class="st6" d="M597.3,330.2v19.3h-1.8v-2.7c-1.1,1.9-3,2.8-5.3,2.8c-3.9,0-6.8-2.8-6.8-7s2.9-6.9,6.8-6.9
	c2.2,0,4.1,0.9,5.2,2.7v-8.2L597.3,330.2L597.3,330.2z M595.5,342.7c0-3.2-2.2-5.3-5.1-5.3s-5.1,2.1-5.1,5.3s2.2,5.3,5.1,5.3
	S595.5,345.9,595.5,342.7z"/>
<path class="st6" d="M614.3,343.2h-11.4c0.2,2.9,2.4,4.8,5.4,4.8c1.7,0,3.2-0.6,4.2-1.8l1,1.2c-1.2,1.5-3.1,2.2-5.3,2.2
	c-4.3,0-7.2-2.9-7.2-7s2.8-6.9,6.7-6.9s6.6,2.8,6.6,6.9C614.4,342.8,614.3,343,614.3,343.2L614.3,343.2z M602.9,341.9h9.7
	c-0.2-2.7-2.2-4.5-4.9-4.5S603.2,339.2,602.9,341.9z"/>
<path class="st6" d="M623.1,348l0.8-1.5c1.1,0.9,2.9,1.5,4.9,1.5c2.6,0,3.7-0.9,3.7-2.2c0-3.6-8.9-0.8-8.9-6.2
	c0-2.2,1.9-3.9,5.4-3.9c1.8,0,3.7,0.5,4.8,1.3l-0.8,1.5c-1.2-0.8-2.6-1.2-4-1.2c-2.5,0-3.6,1-3.6,2.3c0,3.7,8.9,0.9,8.9,6.2
	c0,2.4-2.1,3.9-5.6,3.9C626.4,349.6,624.2,348.9,623.1,348L623.1,348z"/>
<path class="st6" d="M648,341v8.5h-1.8v-2.1c-0.8,1.4-2.4,2.3-4.7,2.3c-3.1,0-5-1.6-5-4c0-2.1,1.3-3.9,5.3-3.9h4.3V341
	c0-2.3-1.3-3.6-3.9-3.6c-1.8,0-3.4,0.6-4.5,1.6l-0.8-1.4c1.4-1.2,3.4-1.9,5.6-1.9C646,335.7,648,337.5,648,341L648,341z
	 M646.1,345.4v-2.2h-4.3c-2.7,0-3.5,1-3.5,2.4c0,1.6,1.3,2.6,3.5,2.6S645.4,347.2,646.1,345.4L646.1,345.4z"/>
<path class="st6" d="M665.3,335.8v13.7h-1.8V347c-1,1.7-2.7,2.6-4.9,2.6c-3.5,0-5.8-2-5.8-5.9v-7.9h1.8v7.8c0,2.9,1.5,4.4,4.1,4.4
	c2.9,0,4.7-1.9,4.7-5v-7.2L665.3,335.8L665.3,335.8z M659.2,333.7h-1.8l3.6-3.2h2.5L659.2,333.7L659.2,333.7z"/>
<path class="st6" d="M683,330.2v19.3h-1.8v-2.7c-1.1,1.9-3,2.8-5.3,2.8c-3.9,0-6.8-2.8-6.8-7s2.9-6.9,6.8-6.9c2.2,0,4.1,0.9,5.2,2.7
	v-8.2L683,330.2L683,330.2z M681.2,342.7c0-3.2-2.2-5.3-5.1-5.3s-5.1,2.1-5.1,5.3s2.2,5.3,5.1,5.3S681.2,345.9,681.2,342.7z"/>
<path class="st6" d="M700,343.2h-11.4c0.2,2.9,2.4,4.8,5.4,4.8c1.7,0,3.2-0.6,4.2-1.8l1,1.2c-1.2,1.5-3.1,2.2-5.3,2.2
	c-4.3,0-7.2-2.9-7.2-7s2.8-6.9,6.7-6.9s6.6,2.8,6.6,6.9C700.1,342.8,700,343,700,343.2L700,343.2z M688.6,341.9h9.7
	c-0.2-2.7-2.2-4.5-4.9-4.5S688.8,339.2,688.6,341.9z"/>
<path class="st6" d="M710.9,336c0-1.9-1.5-3.2-4.2-3.2c-2.2,0-3.8,0.7-5,2.1l-1.4-1c1.4-1.7,3.6-2.7,6.5-2.7c3.6,0,6,1.7,6,4.5
	c0,4.5-4.8,4.6-4.8,8.4h-1.9C706.1,339.8,710.9,339.4,710.9,336L710.9,336z M705.7,348.3c0-0.8,0.6-1.3,1.3-1.3s1.4,0.6,1.4,1.3
	s-0.6,1.4-1.4,1.4S705.7,349,705.7,348.3z"/>
<path class="st6" d="M129.5,386.8c0-1.1,0.9-2,1.9-2s1.9,0.8,1.9,2s-0.9,2-1.9,2S129.5,387.9,129.5,386.8z"/>
<path class="st6" d="M163.4,395.4c-1.1,1.4-2.6,2.1-4.4,2.1c-2.1,0-3.9-1-6.3-3.5c-5.3-0.2-9.2-4.1-9.2-9.3s4.1-9.3,9.6-9.3
	s9.5,3.9,9.5,9.3c0,4.6-3.1,8.2-7.5,9.1c1.4,1.5,2.6,2.1,3.9,2.1c1.4,0,2.5-0.5,3.5-1.7L163.4,395.4L163.4,395.4z M153,392.4
	c4.4,0,7.6-3.2,7.6-7.5s-3.2-7.5-7.6-7.5s-7.7,3.2-7.7,7.5S148.6,392.4,153,392.4z"/>
<path class="st6" d="M178.8,380.2v13.7H177v-2.5c-1,1.7-2.7,2.6-4.9,2.6c-3.5,0-5.8-2-5.8-5.9v-7.9h1.9v7.8c0,2.9,1.5,4.4,4.1,4.4
	c2.9,0,4.6-1.9,4.6-5v-7.2L178.8,380.2L178.8,380.2z"/>
<path class="st6" d="M194.3,385.4v8.5h-1.8v-2.1c-0.8,1.4-2.4,2.3-4.7,2.3c-3.1,0-5-1.6-5-4c0-2.1,1.4-3.9,5.3-3.9h4.3v-0.8
	c0-2.3-1.3-3.6-3.9-3.6c-1.8,0-3.4,0.6-4.6,1.6l-0.8-1.4c1.4-1.2,3.4-1.9,5.6-1.9C192.3,380.1,194.3,381.9,194.3,385.4L194.3,385.4z
	 M192.4,389.8v-2.2h-4.3c-2.6,0-3.5,1-3.5,2.4c0,1.6,1.3,2.6,3.5,2.6S191.7,391.6,192.4,389.8L192.4,389.8z"/>
<path class="st6" d="M198.9,375.9c0-0.7,0.6-1.3,1.4-1.3s1.4,0.6,1.4,1.3c0,0.8-0.6,1.4-1.4,1.4S198.9,376.6,198.9,375.9
	L198.9,375.9z M199.3,380.2h1.9v13.7h-1.9V380.2z"/>
<path class="st6" d="M204.4,392.4l0.8-1.5c1.1,0.9,2.9,1.5,4.9,1.5c2.6,0,3.7-0.9,3.7-2.2c0-3.6-8.9-0.8-8.9-6.2
	c0-2.2,1.9-3.9,5.4-3.9c1.8,0,3.7,0.5,4.8,1.3l-0.8,1.5c-1.2-0.8-2.6-1.2-4-1.2c-2.5,0-3.6,1-3.6,2.3c0,3.7,8.9,0.9,8.9,6.2
	c0,2.4-2.1,3.9-5.6,3.9C207.7,394,205.5,393.3,204.4,392.4L204.4,392.4z"/>
<path class="st6" d="M238.4,386v7.9h-1.9v-7.8c0-2.9-1.5-4.4-4.1-4.4c-2.9,0-4.8,1.8-4.8,4.9v7.2h-1.9v-13.7h1.8v2.5
	c1-1.7,2.8-2.6,5.2-2.6C236.1,380.1,238.4,382,238.4,386L238.4,386z"/>
<path class="st6" d="M242.1,387.1c0-4.1,3-6.9,7-6.9s6.9,2.9,6.9,6.9s-2.9,7-6.9,7S242.1,391.1,242.1,387.1L242.1,387.1z
	 M254.1,387.1c0-3.2-2.2-5.3-5.1-5.3s-5.1,2.1-5.1,5.3s2.2,5.3,5.1,5.3S254.1,390.3,254.1,387.1z"/>
<path class="st6" d="M266.7,380.1v1.8c-0.2,0-0.3,0-0.4,0c-2.9,0-4.6,1.8-4.6,5v7h-1.9v-13.7h1.8v2.7
	C262.4,381.1,264.2,380.1,266.7,380.1L266.7,380.1z"/>
<path class="st6" d="M292.6,386v7.9h-1.9v-7.8c0-2.9-1.5-4.4-3.9-4.4c-2.8,0-4.6,1.8-4.6,4.9v7.2h-1.9v-7.8c0-2.9-1.5-4.4-4-4.4
	c-2.8,0-4.6,1.8-4.6,4.9v7.2H270v-13.7h1.8v2.5c1-1.6,2.7-2.6,5-2.6s4,1,4.9,2.9c1-1.8,2.9-2.9,5.4-2.9
	C290.4,380.1,292.5,382.1,292.6,386L292.6,386z"/>
<path class="st6" d="M307.9,385.4v8.5h-1.8v-2.1c-0.8,1.4-2.4,2.3-4.7,2.3c-3.1,0-5-1.6-5-4c0-2.1,1.4-3.9,5.3-3.9h4.3v-0.8
	c0-2.3-1.3-3.6-3.9-3.6c-1.8,0-3.4,0.6-4.5,1.6l-0.8-1.4c1.4-1.2,3.4-1.9,5.6-1.9C305.9,380.1,307.9,381.9,307.9,385.4L307.9,385.4z
	 M306.1,389.8v-2.2h-4.3c-2.6,0-3.5,1-3.5,2.4c0,1.6,1.3,2.6,3.5,2.6S305.3,391.6,306.1,389.8L306.1,389.8z"/>
<path class="st6" d="M311,392.4l0.8-1.5c1.1,0.9,2.9,1.5,4.9,1.5c2.6,0,3.7-0.9,3.7-2.2c0-3.6-8.9-0.8-8.9-6.2
	c0-2.2,1.9-3.9,5.4-3.9c1.8,0,3.7,0.5,4.8,1.3l-0.8,1.5c-1.2-0.8-2.6-1.2-4-1.2c-2.5,0-3.6,1-3.6,2.3c0,3.7,8.9,0.9,8.9,6.2
	c0,2.4-2.1,3.9-5.6,3.9C314.3,394,312.1,393.3,311,392.4L311,392.4z"/>
<path class="st6" d="M344.9,374.6v19.3h-1.8v-2.7c-1.1,1.9-3,2.8-5.3,2.8c-3.9,0-6.8-2.8-6.8-7s2.9-6.9,6.8-6.9
	c2.2,0,4.1,0.9,5.2,2.7v-8.2L344.9,374.6L344.9,374.6z M343.1,387.1c0-3.2-2.2-5.3-5.1-5.3s-5.1,2.1-5.1,5.3s2.2,5.3,5.1,5.3
	S343.1,390.3,343.1,387.1z"/>
<path class="st6" d="M348.7,387.1c0-4.1,3-6.9,7-6.9s6.9,2.9,6.9,6.9s-2.9,7-6.9,7S348.7,391.1,348.7,387.1z M360.8,387.1
	c0-3.2-2.2-5.3-5.1-5.3s-5.1,2.1-5.1,5.3s2.2,5.3,5.1,5.3S360.8,390.3,360.8,387.1z"/>
<path class="st6" d="M395.8,386v7.9h-1.9v-7.8c0-2.9-1.5-4.4-3.9-4.4c-2.8,0-4.6,1.8-4.6,4.9v7.2h-1.9v-7.8c0-2.9-1.5-4.4-4-4.4
	c-2.8,0-4.6,1.8-4.6,4.9v7.2h-1.9v-13.7h1.8v2.5c1-1.6,2.7-2.6,5-2.6s4,1,4.9,2.9c1-1.8,2.9-2.9,5.4-2.9
	C393.6,380.1,395.7,382.1,395.8,386L395.8,386z"/>
<path class="st6" d="M413.1,380.2v13.7h-1.8v-2.5c-1,1.7-2.7,2.6-4.9,2.6c-3.5,0-5.8-2-5.8-5.9v-7.9h1.9v7.8c0,2.9,1.5,4.4,4.1,4.4
	c2.9,0,4.6-1.9,4.6-5v-7.2L413.1,380.2L413.1,380.2z"/>
<path class="st6" d="M430.9,386v7.9H429v-7.8c0-2.9-1.5-4.4-4.1-4.4c-2.9,0-4.8,1.8-4.8,4.9v7.2h-1.9v-13.7h1.8v2.5
	c1-1.7,2.8-2.6,5.2-2.6C428.6,380.1,430.9,382,430.9,386L430.9,386z"/>
<path class="st6" d="M435.5,375.9c0-0.7,0.6-1.3,1.4-1.3s1.4,0.6,1.4,1.3c0,0.8-0.6,1.4-1.4,1.4S435.5,376.6,435.5,375.9
	L435.5,375.9z M435.9,380.2h1.9v13.7h-1.9V380.2z"/>
<path class="st6" d="M441.5,387.1c0-4.1,3-6.9,7-6.9c2.3,0,4.3,0.9,5.4,2.7l-1.4,0.9c-0.9-1.4-2.4-2-4-2c-3,0-5.2,2.1-5.2,5.3
	s2.2,5.3,5.2,5.3c1.6,0,3-0.6,4-2l1.4,0.9c-1.1,1.8-3,2.7-5.4,2.7C444.5,394,441.5,391.1,441.5,387.1z"/>
<path class="st6" d="M460.3,374.9h2.5l-4.2,3.2h-1.8L460.3,374.9z M457.5,380.2h1.9v13.7h-1.9V380.2z"/>
<path class="st6" d="M478.4,387.1c0,4.2-2.9,7-6.8,7c-2.2,0-4.1-0.9-5.2-2.7v7.6h-1.9v-18.7h1.8v2.7c1.1-1.8,3-2.8,5.3-2.8
	C475.5,380.1,478.4,382.9,478.4,387.1L478.4,387.1z M476.5,387.1c0-3.2-2.2-5.3-5.1-5.3s-5.1,2.2-5.1,5.3s2.2,5.3,5.1,5.3
	S476.5,390.3,476.5,387.1z"/>
<path class="st6" d="M481.7,375.9c0-0.7,0.6-1.3,1.4-1.3s1.4,0.6,1.4,1.3c0,0.8-0.6,1.4-1.4,1.4S481.7,376.6,481.7,375.9
	L481.7,375.9z M482.1,380.2h1.9v13.7h-1.9V380.2z"/>
<path class="st6" d="M487.8,387.1c0-4.1,3-6.9,7-6.9s6.9,2.9,6.9,6.9s-2.9,7-6.9,7S487.8,391.1,487.8,387.1z M499.8,387.1
	c0-3.2-2.2-5.3-5.1-5.3s-5.1,2.1-5.1,5.3s2.2,5.3,5.1,5.3S499.8,390.3,499.8,387.1z"/>
<path class="st6" d="M510.9,387.1c0-4.1,3-6.9,7-6.9s6.9,2.9,6.9,6.9s-2.9,7-6.9,7S510.9,391.1,510.9,387.1L510.9,387.1z
	 M522.9,387.1c0-3.2-2.2-5.3-5.1-5.3s-5.1,2.1-5.1,5.3s2.2,5.3,5.1,5.3S522.9,390.3,522.9,387.1z"/>
<path class="st6" d="M540.9,380.2v13.7h-1.8v-2.5c-1,1.7-2.7,2.6-4.9,2.6c-3.5,0-5.8-2-5.8-5.9v-7.9h1.8v7.8c0,2.9,1.5,4.4,4.1,4.4
	c2.9,0,4.7-1.9,4.7-5v-7.2L540.9,380.2L540.9,380.2z"/>
<path class="st6" d="M566.1,392.2v1.7h-12.9v-18.2h12.5v1.7h-10.6v6.5h9.4v1.6h-9.4v6.8L566.1,392.2L566.1,392.2z"/>
<path class="st6" d="M568.1,392.4l0.8-1.5c1.1,0.9,2.9,1.5,4.9,1.5c2.6,0,3.7-0.9,3.7-2.2c0-3.6-8.9-0.8-8.9-6.2
	c0-2.2,1.9-3.9,5.4-3.9c1.8,0,3.7,0.5,4.8,1.3l-0.8,1.5c-1.2-0.8-2.6-1.2-4-1.2c-2.5,0-3.6,1-3.6,2.3c0,3.7,8.9,0.9,8.9,6.2
	c0,2.4-2.1,3.9-5.6,3.9C571.4,394,569.3,393.3,568.1,392.4L568.1,392.4z"/>
<path class="st6" d="M590,393.1c-0.7,0.6-1.8,1-2.9,1c-2.6,0-4-1.5-4-4v-8.3h-2.4v-1.6h2.4v-3h1.8v3h4.2v1.6h-4.2v8.2
	c0,1.6,0.8,2.5,2.4,2.5c0.8,0,1.5-0.2,2-0.7L590,393.1L590,393.1z"/>
<path class="st6" d="M603.6,385.4v8.5h-1.8v-2.1c-0.8,1.4-2.4,2.3-4.7,2.3c-3.1,0-5-1.6-5-4c0-2.1,1.3-3.9,5.3-3.9h4.3v-0.8
	c0-2.3-1.3-3.6-3.9-3.6c-1.8,0-3.4,0.6-4.5,1.6l-0.8-1.4c1.4-1.2,3.4-1.9,5.6-1.9C601.6,380.1,603.6,381.9,603.6,385.4L603.6,385.4z
	 M601.8,389.8v-2.2h-4.3c-2.7,0-3.5,1-3.5,2.4c0,1.6,1.3,2.6,3.5,2.6S601.1,391.6,601.8,389.8L601.8,389.8z"/>
<path class="st6" d="M621.2,374.6v19.3h-1.8v-2.7c-1.1,1.9-3,2.8-5.3,2.8c-3.9,0-6.8-2.8-6.8-7s2.9-6.9,6.8-6.9
	c2.2,0,4.1,0.9,5.2,2.7v-8.2L621.2,374.6L621.2,374.6z M619.4,387.1c0-3.2-2.2-5.3-5.1-5.3s-5.1,2.1-5.1,5.3s2.2,5.3,5.1,5.3
	S619.4,390.3,619.4,387.1z"/>
<path class="st6" d="M625,387.1c0-4.1,3-6.9,7-6.9s6.9,2.9,6.9,6.9s-2.9,7-6.9,7S625,391.1,625,387.1z M637,387.1
	c0-3.2-2.2-5.3-5.1-5.3s-5.1,2.1-5.1,5.3s2.2,5.3,5.1,5.3S637,390.3,637,387.1z"/>
<path class="st6" d="M661.9,374.6v19.3h-1.8v-2.7c-1.1,1.9-3,2.8-5.3,2.8c-3.9,0-6.8-2.8-6.8-7s2.9-6.9,6.8-6.9
	c2.2,0,4.1,0.9,5.2,2.7v-8.2L661.9,374.6L661.9,374.6z M660.1,387.1c0-3.2-2.2-5.3-5.1-5.3s-5.1,2.1-5.1,5.3s2.2,5.3,5.1,5.3
	S660.1,390.3,660.1,387.1z"/>
<path class="st6" d="M679,387.6h-11.4c0.2,2.9,2.4,4.8,5.4,4.8c1.7,0,3.2-0.6,4.2-1.8l1,1.2c-1.2,1.5-3.1,2.2-5.3,2.2
	c-4.3,0-7.2-2.9-7.2-7s2.8-6.9,6.7-6.9s6.6,2.8,6.6,6.9C679,387.2,679,387.4,679,387.6L679,387.6z M667.5,386.3h9.7
	c-0.2-2.7-2.2-4.5-4.9-4.5S667.8,383.6,667.5,386.3z"/>
<path class="st6" d="M694,380.2l-6.1,13.7H686l-6.1-13.7h1.9l5.1,11.6l5.2-11.6H694L694,380.2z"/>
<path class="st6" d="M708.1,387.6h-11.4c0.2,2.9,2.4,4.8,5.4,4.8c1.7,0,3.2-0.6,4.2-1.8l1,1.2c-1.2,1.5-3.1,2.2-5.3,2.2
	c-4.3,0-7.2-2.9-7.2-7s2.8-6.9,6.7-6.9s6.6,2.8,6.6,6.9C708.1,387.2,708.1,387.4,708.1,387.6L708.1,387.6z M696.7,386.3h9.7
	c-0.2-2.7-2.2-4.5-4.9-4.5S696.9,383.6,696.7,386.3z"/>
<path class="st6" d="M734.5,386v7.9h-1.8v-7.8c0-2.9-1.5-4.4-3.9-4.4c-2.8,0-4.6,1.8-4.6,4.9v7.2h-1.8v-7.8c0-2.9-1.5-4.4-4-4.4
	c-2.8,0-4.6,1.8-4.6,4.9v7.2h-1.8v-13.7h1.8v2.5c1-1.6,2.7-2.6,5-2.6s4,1,4.9,2.9c1-1.8,2.9-2.9,5.4-2.9
	C732.3,380.1,734.5,382.1,734.5,386L734.5,386z"/>
<path class="st6" d="M744.4,392.4l0.8-1.5c1.1,0.9,2.9,1.5,4.9,1.5c2.6,0,3.7-0.9,3.7-2.2c0-3.6-8.9-0.8-8.9-6.2
	c0-2.2,1.9-3.9,5.4-3.9c1.8,0,3.7,0.5,4.8,1.3l-0.8,1.5c-1.2-0.8-2.6-1.2-4-1.2c-2.5,0-3.6,1-3.6,2.3c0,3.7,8.9,0.9,8.9,6.2
	c0,2.4-2.1,3.9-5.6,3.9C747.7,394,745.5,393.3,744.4,392.4L744.4,392.4z"/>
<path class="st6" d="M770.9,387.6h-11.4c0.2,2.9,2.4,4.8,5.4,4.8c1.7,0,3.2-0.6,4.2-1.8l1,1.2c-1.2,1.5-3.1,2.2-5.3,2.2
	c-4.3,0-7.2-2.9-7.2-7s2.8-6.9,6.7-6.9s6.6,2.8,6.6,6.9C771,387.2,770.9,387.4,770.9,387.6L770.9,387.6z M759.5,386.3h9.7
	c-0.2-2.7-2.2-4.5-4.9-4.5S759.7,383.6,759.5,386.3z"/>
<path class="st6" d="M781.6,380.1v1.8c-0.2,0-0.3,0-0.4,0c-2.9,0-4.6,1.8-4.6,5v7h-1.8v-13.7h1.8v2.7
	C777.4,381.1,779.1,380.1,781.6,380.1L781.6,380.1z"/>
<path class="st6" d="M802.3,385.4v8.5h-1.8v-2.1c-0.8,1.4-2.4,2.3-4.7,2.3c-3.1,0-5-1.6-5-4c0-2.1,1.3-3.9,5.3-3.9h4.3v-0.8
	c0-2.3-1.3-3.6-3.9-3.6c-1.8,0-3.4,0.6-4.5,1.6l-0.8-1.4c1.4-1.2,3.4-1.9,5.6-1.9C800.3,380.1,802.3,381.9,802.3,385.4L802.3,385.4z
	 M800.5,389.8v-2.2h-4.3c-2.7,0-3.5,1-3.5,2.4c0,1.6,1.3,2.6,3.5,2.6S799.7,391.6,800.5,389.8L800.5,389.8z"/>
<path class="st6" d="M814.5,393.1c-0.7,0.6-1.8,1-2.9,1c-2.6,0-4-1.5-4-4v-8.3h-2.4v-1.6h2.4v-3h1.8v3h4.2v1.6h-4.2v8.2
	c0,1.6,0.8,2.5,2.4,2.5c0.8,0,1.5-0.2,2-0.7L814.5,393.1L814.5,393.1z"/>
<path class="st6" d="M830.2,380.2v13.7h-1.8v-2.5c-1,1.7-2.7,2.6-4.9,2.6c-3.5,0-5.8-2-5.8-5.9v-7.9h1.8v7.8c0,2.9,1.5,4.4,4.1,4.4
	c2.9,0,4.7-1.9,4.7-5v-7.2L830.2,380.2L830.2,380.2z"/>
<path class="st6" d="M845.7,385.4v8.5h-1.8v-2.1c-0.8,1.4-2.4,2.3-4.7,2.3c-3.1,0-5-1.6-5-4c0-2.1,1.3-3.9,5.3-3.9h4.3v-0.8
	c0-2.3-1.3-3.6-3.9-3.6c-1.8,0-3.4,0.6-4.5,1.6l-0.8-1.4c1.4-1.2,3.4-1.9,5.6-1.9C843.7,380.1,845.7,381.9,845.7,385.4z
	 M843.8,389.8v-2.2h-4.3c-2.7,0-3.5,1-3.5,2.4c0,1.6,1.3,2.6,3.5,2.6S843.1,391.6,843.8,389.8L843.8,389.8z"/>
<path class="st6" d="M850.7,374.6h1.8v19.3h-1.8V374.6z"/>
<path class="st6" d="M857.3,375.9c0-0.7,0.6-1.3,1.3-1.3s1.3,0.6,1.3,1.3c0,0.8-0.6,1.4-1.3,1.4S857.3,376.6,857.3,375.9
	L857.3,375.9z M857.7,380.2h1.8v13.7h-1.8V380.2z"/>
<path class="st6" d="M874.3,392.4v1.5h-11.1v-1.2l8.6-10.9h-8.5v-1.6h10.8v1.2l-8.6,10.9H874.3z"/>
<path class="st6" d="M888.3,385.4v8.5h-1.8v-2.1c-0.8,1.4-2.4,2.3-4.7,2.3c-3.1,0-5-1.6-5-4c0-2.1,1.3-3.9,5.3-3.9h4.3v-0.8
	c0-2.3-1.3-3.6-3.9-3.6c-1.8,0-3.4,0.6-4.5,1.6l-0.8-1.4c1.4-1.2,3.4-1.9,5.6-1.9C886.3,380.1,888.3,381.9,888.3,385.4z
	 M886.5,389.8v-2.2h-4.3c-2.7,0-3.5,1-3.5,2.4c0,1.6,1.3,2.6,3.5,2.6S885.7,391.6,886.5,389.8L886.5,389.8z"/>
<path class="st6" d="M905.8,374.6v19.3h-1.8v-2.7c-1.1,1.9-3,2.8-5.3,2.8c-3.9,0-6.8-2.8-6.8-7s2.9-6.9,6.8-6.9
	c2.2,0,4.1,0.9,5.2,2.7v-8.2L905.8,374.6L905.8,374.6z M904,387.1c0-3.2-2.2-5.3-5.1-5.3s-5.1,2.1-5.1,5.3s2.2,5.3,5.1,5.3
	S904,390.3,904,387.1z"/>
<path class="st6" d="M921.3,385.4v8.5h-1.8v-2.1c-0.8,1.4-2.4,2.3-4.7,2.3c-3.1,0-5-1.6-5-4c0-2.1,1.3-3.9,5.3-3.9h4.3v-0.8
	c0-2.3-1.3-3.6-3.9-3.6c-1.8,0-3.4,0.6-4.5,1.6l-0.8-1.4c1.4-1.2,3.4-1.9,5.6-1.9C919.3,380.1,921.3,381.9,921.3,385.4z
	 M919.5,389.8v-2.2h-4.3c-2.7,0-3.5,1-3.5,2.4c0,1.6,1.3,2.6,3.5,2.6S918.7,391.6,919.5,389.8L919.5,389.8z"/>
<path class="st6" d="M924.4,392.4l0.8-1.5c1.1,0.9,2.9,1.5,4.9,1.5c2.6,0,3.7-0.9,3.7-2.2c0-3.6-8.9-0.8-8.9-6.2
	c0-2.2,1.9-3.9,5.4-3.9c1.8,0,3.7,0.5,4.8,1.3l-0.8,1.5c-1.2-0.8-2.6-1.2-4-1.2c-2.5,0-3.6,1-3.6,2.3c0,3.7,8.9,0.9,8.9,6.2
	c0,2.4-2.1,3.9-5.6,3.9C927.7,394,925.6,393.3,924.4,392.4L924.4,392.4z"/>
<path class="st6" d="M946.9,380.4c0-1.9-1.5-3.2-4.2-3.2c-2.2,0-3.8,0.7-5,2.1l-1.4-1c1.4-1.7,3.6-2.7,6.5-2.7c3.6,0,6,1.7,6,4.5
	c0,4.5-4.8,4.6-4.8,8.4h-1.9C942.1,384.2,946.9,383.8,946.9,380.4L946.9,380.4z M941.7,392.7c0-0.8,0.6-1.3,1.3-1.3s1.4,0.6,1.4,1.3
	s-0.6,1.4-1.4,1.4S941.7,393.4,941.7,392.7z"/>
<path class="st6" d="M129.5,431.2c0-1.1,0.9-2,1.9-2s1.9,0.8,1.9,2s-0.9,2-1.9,2S129.5,432.3,129.5,431.2z"/>
<path class="st6" d="M143.4,429.2c0-5.3,4.1-9.3,9.5-9.3c2.6,0,5,0.9,6.7,2.6l-1.2,1.2c-1.5-1.5-3.3-2.2-5.4-2.2
	c-4.4,0-7.7,3.2-7.7,7.5s3.3,7.5,7.7,7.5c2.1,0,3.9-0.6,5.4-2.2l1.2,1.2c-1.6,1.8-4,2.7-6.7,2.7
	C147.5,438.5,143.4,434.5,143.4,429.2L143.4,429.2z"/>
<path class="st6" d="M161.4,431.5c0-4.1,3-6.9,7-6.9s6.9,2.9,6.9,6.9s-2.9,7-6.9,7S161.4,435.5,161.4,431.5z M173.4,431.5
	c0-3.2-2.2-5.3-5.1-5.3s-5.1,2.1-5.1,5.3s2.2,5.3,5.1,5.3S173.4,434.7,173.4,431.5z"/>
<path class="st6" d="M201.6,430.4v7.9h-1.9v-7.8c0-2.9-1.5-4.4-3.9-4.4c-2.8,0-4.6,1.8-4.6,4.9v7.2h-1.9v-7.8c0-2.9-1.5-4.4-3.9-4.4
	c-2.8,0-4.6,1.8-4.6,4.9v7.2H179v-13.7h1.8v2.5c1-1.6,2.7-2.6,5-2.6s4,1,4.9,2.9c1-1.8,2.9-2.9,5.4-2.9
	C199.4,424.5,201.6,426.5,201.6,430.4L201.6,430.4z"/>
<path class="st6" d="M205.3,431.5c0-4.1,3-6.9,7-6.9s6.9,2.9,6.9,6.9s-2.9,7-6.9,7S205.3,435.5,205.3,431.5z M217.4,431.5
	c0-3.2-2.2-5.3-5.1-5.3s-5.1,2.1-5.1,5.3s2.2,5.3,5.1,5.3S217.4,434.7,217.4,431.5z"/>
<path class="st6" d="M231.9,423v1.6h4.2v1.6H232v12.1h-1.9v-12.1h-2.4v-1.6h2.4v-1.7c0-2.4,1.5-4.1,4.1-4.1c1,0,2.1,0.3,2.7,0.9
	l-0.6,1.4c-0.5-0.4-1.2-0.7-2-0.7C232.7,420.4,231.9,421.3,231.9,423L231.9,423z"/>
<path class="st6" d="M248.7,429.8v8.5h-1.8v-2.1c-0.8,1.4-2.4,2.3-4.7,2.3c-3.1,0-5-1.6-5-4c0-2.1,1.4-3.9,5.3-3.9h4.3v-0.8
	c0-2.3-1.3-3.6-3.9-3.6c-1.8,0-3.4,0.6-4.6,1.6l-0.8-1.4c1.4-1.2,3.4-1.9,5.6-1.9C246.7,424.5,248.7,426.3,248.7,429.8L248.7,429.8z
	 M246.8,434.2V432h-4.3c-2.6,0-3.5,1-3.5,2.4c0,1.6,1.3,2.6,3.5,2.6S246.1,436,246.8,434.2L246.8,434.2z"/>
<path class="st6" d="M263.4,436.8v1.5h-11.1v-1.2l8.6-10.9h-8.4v-1.6h10.8v1.2l-8.6,10.9H263.4L263.4,436.8z"/>
<path class="st6" d="M278.7,432h-11.4c0.2,2.9,2.4,4.8,5.4,4.8c1.7,0,3.1-0.6,4.2-1.8l1,1.2c-1.2,1.5-3.1,2.2-5.3,2.2
	c-4.3,0-7.2-2.9-7.2-7s2.8-6.9,6.7-6.9s6.6,2.8,6.6,6.9C278.7,431.6,278.7,431.8,278.7,432L278.7,432z M267.2,430.7h9.7
	c-0.2-2.7-2.2-4.5-4.9-4.5S267.5,428,267.2,430.7L267.2,430.7z"/>
<path class="st6" d="M289.4,424.5v1.8c-0.2,0-0.3,0-0.4,0c-2.9,0-4.6,1.8-4.6,5v7h-1.9v-13.7h1.8v2.7
	C285.1,425.5,286.8,424.5,289.4,424.5L289.4,424.5z"/>
<path class="st6" d="M322.3,430.4v7.9h-1.9v-7.8c0-2.9-1.5-4.4-3.9-4.4c-2.8,0-4.6,1.8-4.6,4.9v7.2h-1.9v-7.8c0-2.9-1.5-4.4-4-4.4
	c-2.8,0-4.6,1.8-4.6,4.9v7.2h-1.9v-13.7h1.8v2.5c1-1.6,2.7-2.6,5-2.6s4,1,4.9,2.9c1-1.8,2.9-2.9,5.4-2.9
	C320.1,424.5,322.2,426.5,322.3,430.4L322.3,430.4z"/>
<path class="st6" d="M337.6,429.8v8.5h-1.8v-2.1c-0.8,1.4-2.4,2.3-4.7,2.3c-3.1,0-5-1.6-5-4c0-2.1,1.4-3.9,5.3-3.9h4.3v-0.8
	c0-2.3-1.3-3.6-3.9-3.6c-1.8,0-3.4,0.6-4.5,1.6l-0.8-1.4c1.4-1.2,3.4-1.9,5.6-1.9C335.6,424.5,337.6,426.3,337.6,429.8L337.6,429.8z
	 M335.8,434.2V432h-4.3c-2.6,0-3.5,1-3.5,2.4c0,1.6,1.3,2.6,3.5,2.6S335,436,335.8,434.2L335.8,434.2z"/>
<path class="st6" d="M342.2,420.3c0-0.7,0.6-1.3,1.4-1.3s1.4,0.6,1.4,1.3c0,0.8-0.6,1.4-1.4,1.4S342.2,421,342.2,420.3L342.2,420.3z
	 M342.6,424.6h1.9v13.7h-1.9V424.6z"/>
<path class="st6" d="M347.7,436.8l0.8-1.5c1.1,0.9,2.9,1.5,4.9,1.5c2.6,0,3.7-0.9,3.7-2.2c0-3.6-8.9-0.8-8.9-6.2
	c0-2.2,1.9-3.9,5.4-3.9c1.8,0,3.7,0.5,4.8,1.3l-0.8,1.5c-1.2-0.8-2.6-1.2-4-1.2c-2.5,0-3.6,1-3.6,2.3c0,3.7,8.9,0.9,8.9,6.2
	c0,2.4-2.1,3.9-5.6,3.9C351,438.4,348.8,437.7,347.7,436.8L347.7,436.8z"/>
<path class="st6" d="M379.5,429.8v8.5h-1.8v-2.1c-0.8,1.4-2.4,2.3-4.7,2.3c-3.1,0-5-1.6-5-4c0-2.1,1.4-3.9,5.3-3.9h4.3v-0.8
	c0-2.3-1.3-3.6-3.9-3.6c-1.8,0-3.4,0.6-4.5,1.6l-0.8-1.4c1.4-1.2,3.4-1.9,5.6-1.9C377.5,424.5,379.5,426.3,379.5,429.8L379.5,429.8z
	 M377.6,434.2V432h-4.3c-2.6,0-3.5,1-3.5,2.4c0,1.6,1.3,2.6,3.5,2.6S376.9,436,377.6,434.2L377.6,434.2z"/>
<path class="st6" d="M391.7,437.5c-0.7,0.6-1.8,1-2.9,1c-2.6,0-4-1.5-4-4v-8.3h-2.4v-1.6h2.4v-3h1.9v3h4.2v1.6h-4.2v8.2
	c0,1.6,0.8,2.5,2.4,2.5c0.8,0,1.5-0.2,2-0.7L391.7,437.5L391.7,437.5z"/>
<path class="st6" d="M406.5,432H395c0.2,2.9,2.4,4.8,5.4,4.8c1.7,0,3.1-0.6,4.2-1.8l1,1.2c-1.2,1.5-3.1,2.2-5.3,2.2
	c-4.3,0-7.2-2.9-7.2-7s2.8-6.9,6.7-6.9s6.6,2.8,6.6,6.9C406.5,431.6,406.4,431.8,406.5,432L406.5,432z M395,430.7h9.7
	c-0.2-2.7-2.2-4.5-4.9-4.5S395.3,428,395,430.7L395,430.7z"/>
<path class="st6" d="M422.8,430.4v7.9H421v-7.8c0-2.9-1.5-4.4-4.1-4.4c-2.9,0-4.8,1.8-4.8,4.9v7.2h-1.9v-13.7h1.8v2.5
	c1-1.7,2.8-2.6,5.2-2.6C420.5,424.5,422.8,426.4,422.8,430.4L422.8,430.4z"/>
<path class="st6" d="M440.4,419v19.3h-1.8v-2.7c-1.1,1.9-3,2.8-5.3,2.8c-3.9,0-6.8-2.8-6.8-7s2.9-6.9,6.8-6.9c2.2,0,4.1,0.9,5.2,2.7
	V419L440.4,419L440.4,419z M438.6,431.5c0-3.2-2.2-5.3-5.1-5.3s-5.1,2.1-5.1,5.3s2.2,5.3,5.1,5.3S438.6,434.7,438.6,431.5z"/>
<path class="st6" d="M445.1,420.3c0-0.7,0.6-1.3,1.4-1.3s1.4,0.6,1.4,1.3c0,0.8-0.6,1.4-1.4,1.4S445.1,421,445.1,420.3L445.1,420.3z
	 M445.5,424.6h1.9v13.7h-1.9V424.6z"/>
<path class="st6" d="M475.1,430.4v7.9h-1.9v-7.8c0-2.9-1.5-4.4-3.9-4.4c-2.8,0-4.6,1.8-4.6,4.9v7.2h-1.9v-7.8c0-2.9-1.5-4.4-4-4.4
	c-2.8,0-4.6,1.8-4.6,4.9v7.2h-1.9v-13.7h1.8v2.5c1-1.6,2.7-2.6,5-2.6s4,1,4.9,2.9c1-1.8,2.9-2.9,5.4-2.9
	C472.9,424.5,475.1,426.5,475.1,430.4L475.1,430.4z"/>
<path class="st6" d="M492.1,432h-11.4c0.2,2.9,2.4,4.8,5.4,4.8c1.7,0,3.1-0.6,4.2-1.8l1,1.2c-1.2,1.5-3.1,2.2-5.3,2.2
	c-4.3,0-7.2-2.9-7.2-7s2.8-6.9,6.7-6.9s6.6,2.8,6.6,6.9C492.1,431.6,492.1,431.8,492.1,432L492.1,432z M480.6,430.7h9.7
	c-0.2-2.7-2.2-4.5-4.9-4.5S480.9,428,480.6,430.7L480.6,430.7z"/>
<path class="st6" d="M508.5,430.4v7.9h-1.9v-7.8c0-2.9-1.5-4.4-4.1-4.4c-2.9,0-4.8,1.8-4.8,4.9v7.2h-1.9v-13.7h1.8v2.5
	c1-1.7,2.8-2.6,5.2-2.6C506.2,424.5,508.5,426.4,508.5,430.4L508.5,430.4z"/>
<path class="st6" d="M520.7,437.5c-0.7,0.6-1.8,1-2.9,1c-2.6,0-4-1.5-4-4v-8.3h-2.4v-1.6h2.4v-3h1.8v3h4.2v1.6h-4.2v8.2
	c0,1.6,0.8,2.5,2.4,2.5c0.8,0,1.5-0.2,2-0.7L520.7,437.5L520.7,437.5z"/>
<path class="st6" d="M522.2,431.5c0-4.1,3-6.9,7-6.9s6.9,2.9,6.9,6.9s-2.9,7-6.9,7S522.2,435.5,522.2,431.5z M534.2,431.5
	c0-3.2-2.2-5.3-5.1-5.3s-5.1,2.1-5.1,5.3s2.2,5.3,5.1,5.3S534.2,434.7,534.2,431.5z"/>
<path class="st6" d="M537.9,436.8l0.8-1.5c1.1,0.9,2.9,1.5,4.9,1.5c2.6,0,3.7-0.9,3.7-2.2c0-3.6-8.9-0.8-8.9-6.2
	c0-2.2,1.9-3.9,5.4-3.9c1.8,0,3.7,0.5,4.8,1.3l-0.8,1.5c-1.2-0.8-2.6-1.2-4-1.2c-2.5,0-3.6,1-3.6,2.3c0,3.7,8.9,0.9,8.9,6.2
	c0,2.4-2.1,3.9-5.6,3.9C541.2,438.4,539,437.7,537.9,436.8L537.9,436.8z"/>
<path class="st6" d="M558,431.5c0-4.1,3-6.9,7-6.9c2.3,0,4.3,0.9,5.4,2.7l-1.4,0.9c-0.9-1.4-2.4-2-4-2c-3,0-5.2,2.1-5.2,5.3
	s2.2,5.3,5.2,5.3c1.6,0,3-0.6,4-2l1.4,0.9c-1.1,1.8-3,2.7-5.4,2.7C560.9,438.4,558,435.5,558,431.5z"/>
<path class="st6" d="M572.4,431.5c0-4.1,3-6.9,7-6.9s6.9,2.9,6.9,6.9s-2.9,7-6.9,7S572.4,435.5,572.4,431.5z M584.4,431.5
	c0-3.2-2.2-5.3-5.1-5.3s-5.1,2.1-5.1,5.3s2.2,5.3,5.1,5.3S584.4,434.7,584.4,431.5z"/>
<path class="st6" d="M612.6,430.4v7.9h-1.8v-7.8c0-2.9-1.5-4.4-3.9-4.4c-2.8,0-4.6,1.8-4.6,4.9v7.2h-1.8v-7.8c0-2.9-1.5-4.4-4-4.4
	c-2.8,0-4.6,1.8-4.6,4.9v7.2H590v-13.7h1.8v2.5c1-1.6,2.7-2.6,5-2.6s4,1,4.9,2.9c1-1.8,2.9-2.9,5.4-2.9
	C610.4,424.5,612.6,426.5,612.6,430.4L612.6,430.4z"/>
<path class="st6" d="M647,430.4v7.9h-1.8v-7.8c0-2.9-1.5-4.4-3.9-4.4c-2.8,0-4.6,1.8-4.6,4.9v7.2h-1.8v-7.8c0-2.9-1.5-4.4-4-4.4
	c-2.8,0-4.6,1.8-4.6,4.9v7.2h-1.8v-13.7h1.8v2.5c1-1.6,2.7-2.6,5-2.6s4,1,4.9,2.9c1-1.8,2.9-2.9,5.4-2.9
	C644.8,424.5,647,426.5,647,430.4L647,430.4z"/>
<path class="st6" d="M664,432h-11.4c0.2,2.9,2.4,4.8,5.4,4.8c1.7,0,3.2-0.6,4.2-1.8l1,1.2c-1.2,1.5-3.1,2.2-5.3,2.2
	c-4.3,0-7.2-2.9-7.2-7s2.8-6.9,6.7-6.9s6.6,2.8,6.6,6.9C664,431.6,664,431.8,664,432L664,432z M652.6,430.7h9.7
	c-0.2-2.7-2.2-4.5-4.9-4.5S652.8,428,652.6,430.7z"/>
<path class="st6" d="M680.4,430.4v7.9h-1.8v-7.8c0-2.9-1.5-4.4-4.1-4.4c-2.9,0-4.8,1.8-4.8,4.9v7.2h-1.8v-13.7h1.8v2.5
	c1-1.7,2.8-2.6,5.2-2.6C678.1,424.5,680.4,426.4,680.4,430.4L680.4,430.4z"/>
<path class="st6" d="M684.1,431.5c0-4.1,3-6.9,7-6.9s6.9,2.9,6.9,6.9s-2.9,7-6.9,7S684.1,435.5,684.1,431.5z M696.1,431.5
	c0-3.2-2.2-5.3-5.1-5.3s-5.1,2.1-5.1,5.3s2.2,5.3,5.1,5.3S696.1,434.7,696.1,431.5z"/>
<path class="st6" d="M699.9,436.8l0.8-1.5c1.1,0.9,2.9,1.5,4.9,1.5c2.6,0,3.7-0.9,3.7-2.2c0-3.6-8.9-0.8-8.9-6.2
	c0-2.2,1.9-3.9,5.4-3.9c1.8,0,3.7,0.5,4.8,1.3l-0.8,1.5c-1.2-0.8-2.6-1.2-4-1.2c-2.5,0-3.6,1-3.6,2.3c0,3.7,8.9,0.9,8.9,6.2
	c0,2.4-2.1,3.9-5.6,3.9C703.2,438.4,701,437.7,699.9,436.8L699.9,436.8z"/>
<path class="st6" d="M728.2,424.5v1.8c-0.2,0-0.3,0-0.4,0c-2.9,0-4.6,1.8-4.6,5v7h-1.8v-13.7h1.8v2.7
	C723.9,425.5,725.7,424.5,728.2,424.5L728.2,424.5z"/>
<path class="st6" d="M743.3,432h-11.4c0.2,2.9,2.4,4.8,5.4,4.8c1.7,0,3.2-0.6,4.2-1.8l1,1.2c-1.2,1.5-3.1,2.2-5.3,2.2
	c-4.3,0-7.2-2.9-7.2-7s2.8-6.9,6.7-6.9s6.6,2.8,6.6,6.9C743.3,431.6,743.3,431.8,743.3,432L743.3,432z M731.8,430.7h9.7
	c-0.2-2.7-2.2-4.5-4.9-4.5S732.1,428,731.8,430.7z"/>
<path class="st6" d="M745.7,431.5c0-4.1,3-6.9,7-6.9c2.3,0,4.3,0.9,5.4,2.7l-1.4,0.9c-0.9-1.4-2.4-2-4-2c-3,0-5.2,2.1-5.2,5.3
	s2.2,5.3,5.2,5.3c1.6,0,3-0.6,4-2l1.4,0.9c-1.1,1.8-3,2.7-5.4,2.7C748.7,438.4,745.7,435.5,745.7,431.5z"/>
<path class="st6" d="M774,424.6v13.7h-1.8v-2.5c-1,1.7-2.7,2.6-4.9,2.6c-3.5,0-5.8-2-5.8-5.9v-7.9h1.8v7.8c0,2.9,1.5,4.4,4.1,4.4
	c2.9,0,4.7-1.9,4.7-5v-7.2L774,424.6L774,424.6z"/>
<path class="st6" d="M786.1,424.5v1.8c-0.2,0-0.3,0-0.4,0c-2.9,0-4.6,1.8-4.6,5v7h-1.8v-13.7h1.8v2.7
	C781.8,425.5,783.6,424.5,786.1,424.5L786.1,424.5z"/>
<path class="st6" d="M787.6,436.8l0.8-1.5c1.1,0.9,2.9,1.5,4.9,1.5c2.6,0,3.7-0.9,3.7-2.2c0-3.6-8.9-0.8-8.9-6.2
	c0-2.2,1.9-3.9,5.4-3.9c1.8,0,3.7,0.5,4.8,1.3l-0.8,1.5c-1.2-0.8-2.6-1.2-4-1.2c-2.5,0-3.6,1-3.6,2.3c0,3.7,8.9,0.9,8.9,6.2
	c0,2.4-2.1,3.9-5.6,3.9C790.9,438.4,788.7,437.7,787.6,436.8L787.6,436.8z"/>
<path class="st6" d="M800.9,431.5c0-4.1,3-6.9,7-6.9s6.9,2.9,6.9,6.9s-2.9,7-6.9,7S800.9,435.5,800.9,431.5z M812.9,431.5
	c0-3.2-2.2-5.3-5.1-5.3s-5.1,2.1-5.1,5.3s2.2,5.3,5.1,5.3S812.9,434.7,812.9,431.5z"/>
<path class="st6" d="M816.7,436.8l0.8-1.5c1.1,0.9,2.9,1.5,4.9,1.5c2.6,0,3.7-0.9,3.7-2.2c0-3.6-8.9-0.8-8.9-6.2
	c0-2.2,1.9-3.9,5.4-3.9c1.8,0,3.7,0.5,4.8,1.3l-0.8,1.5c-1.2-0.8-2.6-1.2-4-1.2c-2.5,0-3.6,1-3.6,2.3c0,3.7,8.9,0.9,8.9,6.2
	c0,2.4-2.1,3.9-5.6,3.9C820,438.4,817.8,437.7,816.7,436.8L816.7,436.8z"/>
<path class="st6" d="M839.1,424.8c0-1.9-1.5-3.2-4.2-3.2c-2.2,0-3.8,0.7-5,2.1l-1.4-1c1.4-1.7,3.6-2.7,6.5-2.7c3.6,0,6,1.7,6,4.5
	c0,4.5-4.8,4.6-4.8,8.4h-1.9C834.3,428.6,839.1,428.2,839.1,424.8L839.1,424.8z M833.9,437.1c0-0.8,0.6-1.3,1.3-1.3s1.4,0.6,1.4,1.3
	s-0.6,1.4-1.4,1.4S833.9,437.8,833.9,437.1z"/>
<g>
	<path d="M433.1,300.7H423l-2.2,4.9h-2l8.3-18.2h1.9l8.3,18.2h-2L433.1,300.7z M432.4,299.1l-4.4-9.8l-4.4,9.8H432.4z"/>
	<path d="M440.4,287.4h1.9v18.2h-1.9V287.4z"/>
	<path d="M463.4,287.4v18.2h-1.6l-11.7-14.8v14.8h-1.9v-18.2h1.6l11.7,14.8v-14.8H463.4z"/>
	<path d="M467.8,293.2c0-0.8,0.6-1.4,1.4-1.4c0.8,0,1.4,0.6,1.4,1.4c0,0.8-0.6,1.4-1.4,1.4C468.4,294.6,467.8,294,467.8,293.2z
		 M467.8,304.3c0-0.8,0.6-1.4,1.4-1.4c0.8,0,1.4,0.6,1.4,1.4c0,0.8-0.6,1.4-1.4,1.4C468.4,305.7,467.8,305.1,467.8,304.3z"/>
</g>
</svg>
