<?xml version="1.0" encoding="utf-8"?>
<!-- Generator: Adobe Illustrator 27.1.1, SVG Export Plug-In . SVG Version: 6.00 Build 0)  -->
<svg version="1.1" id="Layer_1" xmlns="http://www.w3.org/2000/svg" xmlns:xlink="http://www.w3.org/1999/xlink" x="0px" y="0px"
	 viewBox="0 0 108.7 105.9" style="enable-background:new 0 0 108.7 105.9;" xml:space="preserve">
<style type="text/css">
	.st0{fill:#58595B;}
	.st1{fill:#FFFFFF;}
</style>
<g>
	<circle class="st0" cx="43.9" cy="52.9" r="32.3"/>
	<g>
		<path class="st1" d="M35.7,60.3c-1.1-0.7-1.9-1.6-2.5-2.9c-0.6-1.3-0.9-2.8-0.9-4.5s0.3-3.2,0.9-4.5s1.4-2.2,2.5-2.9
			c1.1-0.7,2.3-1,3.7-1s2.6,0.3,3.7,1s1.9,1.6,2.5,2.9c0.6,1.3,0.9,2.8,0.9,4.5s-0.3,3.2-0.9,4.5c-0.6,1.3-1.4,2.2-2.5,2.9
			c-1.1,0.7-2.3,1-3.7,1S36.8,61,35.7,60.3z M41.2,56.5c0.5-0.7,0.7-1.9,0.7-3.5s-0.2-2.8-0.7-3.5c-0.5-0.7-1.1-1.1-1.8-1.1
			s-1.4,0.4-1.8,1.1s-0.7,1.9-0.7,3.5s0.2,2.8,0.7,3.5c0.5,0.7,1.1,1.1,1.8,1.1S40.8,57.2,41.2,56.5z"/>
		<path class="st1" d="M55.4,44.9V61h-4.5V48.4h-3v-3.5L55.4,44.9L55.4,44.9z"/>
	</g>
</g>
<rect x="95.2" y="20.6" class="st0" width="2" height="64.8"/>
</svg>
