<?xml version="1.0" encoding="UTF-8"?>
<svg id="Camada_2" data-name="Camada 2" xmlns="http://www.w3.org/2000/svg" viewBox="0 0 1482.97 304.99">
  <defs>
    <style>
      .cls-1 {
        fill: #116c98;
      }

      .cls-2 {
        fill: #f3f3f3;
      }

      .cls-3 {
        fill: #231f20;
      }
    </style>
  </defs>
  <g id="Layer_1" data-name="Layer 1">
    <g>
      <rect class="cls-2" width="1353.24" height="304.99"/>
      <rect class="cls-1" x="1353.24" width="129.73" height="304.99"/>
      <g>
        <path class="cls-3" d="m67.87,51.69c0-6.33,4.86-10.86,11.4-10.86,3.63,0,6.66,1.32,8.64,3.72l-3.12,2.88c-1.41-1.62-3.18-2.46-5.28-2.46-3.93,0-6.72,2.76-6.72,6.72s2.79,6.72,6.72,6.72c2.1,0,3.87-.84,5.28-2.49l3.12,2.88c-1.98,2.43-5.01,3.75-8.67,3.75-6.51,0-11.37-4.53-11.37-10.86Z"/>
        <path class="cls-3" d="m90.85,39.93h4.68v22.26h-4.68v-22.26Z"/>
        <path class="cls-3" d="m114.16,52.98v9.21h-4.38v-2.01c-.87,1.47-2.55,2.25-4.92,2.25-3.78,0-6.03-2.1-6.03-4.89s2.01-4.83,6.93-4.83h3.72c0-2.01-1.2-3.18-3.72-3.18-1.71,0-3.48.57-4.65,1.5l-1.68-3.27c1.77-1.26,4.38-1.95,6.96-1.95,4.92,0,7.77,2.28,7.77,7.17Zm-4.68,4.11v-1.65h-3.21c-2.19,0-2.88.81-2.88,1.89,0,1.17.99,1.95,2.64,1.95,1.56,0,2.91-.72,3.45-2.19Z"/>
        <path class="cls-3" d="m128.41,45.81v4.32c-.39-.03-.69-.06-1.05-.06-2.58,0-4.29,1.41-4.29,4.5v7.62h-4.68v-16.14h4.47v2.13c1.14-1.56,3.06-2.37,5.55-2.37Z"/>
        <path class="cls-3" d="m146.77,55.44h-12.21c.45,2.01,2.16,3.24,4.62,3.24,1.71,0,2.94-.51,4.05-1.56l2.49,2.7c-1.5,1.71-3.75,2.61-6.66,2.61-5.58,0-9.21-3.51-9.21-8.31s3.69-8.31,8.61-8.31,8.4,3.18,8.4,8.37c0,.36-.06.87-.09,1.26Zm-12.27-2.73h7.95c-.33-2.04-1.86-3.36-3.96-3.36s-3.66,1.29-3.99,3.36Z"/>
        <path class="cls-3" d="m163.12,58.59v3.6h-14.4v-2.82l8.22-9.72h-8.01v-3.6h13.92v2.82l-8.22,9.72h8.49Z"/>
        <path class="cls-3" d="m180.4,52.98v9.21h-4.38v-2.01c-.87,1.47-2.55,2.25-4.92,2.25-3.78,0-6.03-2.1-6.03-4.89s2.01-4.83,6.93-4.83h3.72c0-2.01-1.2-3.18-3.72-3.18-1.71,0-3.48.57-4.65,1.5l-1.68-3.27c1.77-1.26,4.38-1.95,6.96-1.95,4.92,0,7.77,2.28,7.77,7.17Zm-4.68,4.11v-1.65h-3.21c-2.19,0-2.88.81-2.88,1.89,0,1.17.99,1.95,2.64,1.95,1.56,0,2.91-.72,3.45-2.19Z"/>
        <path class="cls-3" d="m69.94,131.22v-12.03h2.22v11.94c0,4.98,2.34,7.26,6.42,7.26s6.45-2.28,6.45-7.26v-11.94h2.16v12.03c0,6.03-3.24,9.15-8.61,9.15s-8.64-3.12-8.64-9.15Z"/>
        <path class="cls-3" d="m101.74,139.23c-.84.75-2.1,1.11-3.33,1.11-2.97,0-4.62-1.68-4.62-4.59v-9.54h-2.82v-1.8h2.82v-3.45h2.13v3.45h4.8v1.8h-4.8v9.42c0,1.86.96,2.88,2.73,2.88.87,0,1.74-.27,2.34-.81l.75,1.53Z"/>
        <path class="cls-3" d="m105.13,119.43c0-.81.69-1.5,1.56-1.5s1.56.66,1.56,1.47c0,.87-.66,1.56-1.56,1.56s-1.56-.69-1.56-1.53Zm.48,4.98h2.13v15.78h-2.13v-15.78Z"/>
        <path class="cls-3" d="m113.68,117.93h2.13v22.26h-2.13v-22.26Z"/>
        <path class="cls-3" d="m121.27,119.43c0-.81.69-1.5,1.56-1.5s1.56.66,1.56,1.47c0,.87-.66,1.56-1.56,1.56s-1.56-.69-1.56-1.53Zm.48,4.98h2.13v15.78h-2.13v-15.78Z"/>
        <path class="cls-3" d="m140.95,138.42v1.77h-12.84v-1.41l9.93-12.57h-9.75v-1.8h12.48v1.41l-9.93,12.6h10.11Z"/>
        <path class="cls-3" d="m157.06,130.41v9.78h-2.04v-2.46c-.96,1.62-2.82,2.61-5.43,2.61-3.57,0-5.76-1.86-5.76-4.59,0-2.43,1.56-4.47,6.09-4.47h5.01v-.96c0-2.7-1.53-4.17-4.47-4.17-2.04,0-3.96.72-5.25,1.86l-.96-1.59c1.59-1.35,3.93-2.13,6.42-2.13,4.08,0,6.39,2.04,6.39,6.12Zm-2.13,5.04v-2.58h-4.95c-3.06,0-4.05,1.2-4.05,2.82,0,1.83,1.47,2.97,3.99,2.97s4.17-1.14,5.01-3.21Z"/>
        <path class="cls-3" d="m174.04,136.14l1.59,1.08c-1.26,2.04-3.51,3.12-6.18,3.12h-.06l-.36,1.41c1.65.15,2.55,1.11,2.55,2.43,0,1.62-1.38,2.61-3.39,2.61-.99,0-1.8-.21-2.52-.69l.51-1.14c.6.39,1.26.57,1.98.57,1.2,0,1.86-.51,1.86-1.41,0-.81-.6-1.38-1.86-1.38h-.69l.66-2.49c-4.02-.57-6.81-3.69-6.81-7.95,0-4.71,3.42-8.01,8.13-8.01,2.67,0,4.92,1.05,6.18,3.12l-1.59,1.08c-1.08-1.59-2.76-2.34-4.59-2.34-3.45,0-5.97,2.46-5.97,6.15s2.52,6.15,5.97,6.15c1.83,0,3.51-.72,4.59-2.31Z"/>
        <path class="cls-3" d="m191.71,130.41v9.78h-2.04v-2.46c-.96,1.62-2.82,2.61-5.43,2.61-3.57,0-5.76-1.86-5.76-4.59,0-2.43,1.56-4.47,6.09-4.47h5.01v-.96c0-2.7-1.53-4.17-4.47-4.17-2.04,0-3.96.72-5.25,1.86l-.96-1.59c1.59-1.35,3.93-2.13,6.42-2.13,4.08,0,6.39,2.04,6.39,6.12Zm-2.13,5.04v-2.58h-4.95c-3.06,0-4.05,1.2-4.05,2.82,0,1.83,1.47,2.97,3.99,2.97s4.17-1.14,5.01-3.21Zm-7.65-13.77h-1.29c.06-2.01,1.11-3.3,2.7-3.3,1.86,0,2.76,2.04,3.93,2.04.9,0,1.5-.72,1.56-1.86h1.29c-.06,1.95-1.11,3.24-2.7,3.24-1.86,0-2.73-2.04-3.93-2.04-.9,0-1.5.72-1.56,1.92Z"/>
        <path class="cls-3" d="m195.97,132.3c0-4.68,3.42-8.01,8.04-8.01s8.01,3.33,8.01,8.01-3.39,8.04-8.01,8.04-8.04-3.36-8.04-8.04Zm13.89,0c0-3.69-2.49-6.15-5.85-6.15s-5.88,2.46-5.88,6.15,2.52,6.15,5.88,6.15,5.85-2.46,5.85-6.15Z"/>
        <path class="cls-3" d="m238.63,117.93v22.26h-2.04v-3.12c-1.29,2.13-3.48,3.27-6.09,3.27-4.5,0-7.86-3.27-7.86-8.04s3.36-8.01,7.86-8.01c2.52,0,4.68,1.08,6,3.12v-9.48h2.13Zm-2.1,14.37c0-3.69-2.52-6.15-5.85-6.15s-5.88,2.46-5.88,6.15,2.52,6.15,5.88,6.15,5.85-2.46,5.85-6.15Z"/>
        <path class="cls-3" d="m256.48,130.41v9.78h-2.04v-2.46c-.96,1.62-2.82,2.61-5.43,2.61-3.57,0-5.76-1.86-5.76-4.59,0-2.43,1.56-4.47,6.09-4.47h5.01v-.96c0-2.7-1.53-4.17-4.47-4.17-2.04,0-3.96.72-5.25,1.86l-.96-1.59c1.59-1.35,3.93-2.13,6.42-2.13,4.08,0,6.39,2.04,6.39,6.12Zm-2.13,5.04v-2.58h-4.95c-3.06,0-4.05,1.2-4.05,2.82,0,1.83,1.47,2.97,3.99,2.97s4.17-1.14,5.01-3.21Z"/>
        <path class="cls-3" d="m260.08,138.39l.96-1.68c1.26.99,3.39,1.77,5.61,1.77,3,0,4.23-1.02,4.23-2.58,0-4.11-10.23-.87-10.23-7.11,0-2.58,2.22-4.5,6.24-4.5,2.04,0,4.26.57,5.58,1.47l-.93,1.71c-1.38-.96-3.03-1.35-4.65-1.35-2.85,0-4.11,1.11-4.11,2.61,0,4.26,10.23,1.05,10.23,7.11,0,2.73-2.4,4.5-6.51,4.5-2.61,0-5.13-.84-6.42-1.95Z"/>
        <path class="cls-3" d="m300.79,132.3c0,4.8-3.36,8.04-7.86,8.04-2.52,0-4.68-1.08-6-3.12v8.79h-2.13v-21.6h2.04v3.12c1.29-2.1,3.48-3.24,6.09-3.24,4.5,0,7.86,3.24,7.86,8.01Zm-2.13,0c0-3.66-2.55-6.15-5.88-6.15s-5.88,2.49-5.88,6.15,2.52,6.15,5.88,6.15,5.88-2.46,5.88-6.15Z"/>
        <path class="cls-3" d="m316.96,130.41v9.78h-2.04v-2.46c-.96,1.62-2.82,2.61-5.43,2.61-3.57,0-5.76-1.86-5.76-4.59,0-2.43,1.56-4.47,6.09-4.47h5.01v-.96c0-2.7-1.53-4.17-4.47-4.17-2.04,0-3.96.72-5.25,1.86l-.96-1.59c1.59-1.35,3.93-2.13,6.42-2.13,4.08,0,6.39,2.04,6.39,6.12Zm-2.13,5.04v-2.58h-4.95c-3.06,0-4.05,1.2-4.05,2.82,0,1.83,1.47,2.97,3.99,2.97s4.17-1.14,5.01-3.21Z"/>
        <path class="cls-3" d="m322.75,117.93h2.13v22.26h-2.13v-22.26Z"/>
        <path class="cls-3" d="m342.73,130.41v9.78h-2.04v-2.46c-.96,1.62-2.82,2.61-5.43,2.61-3.57,0-5.76-1.86-5.76-4.59,0-2.43,1.56-4.47,6.09-4.47h5.01v-.96c0-2.7-1.53-4.17-4.47-4.17-2.04,0-3.96.72-5.25,1.86l-.96-1.59c1.59-1.35,3.93-2.13,6.42-2.13,4.08,0,6.39,2.04,6.39,6.12Zm-2.13,5.04v-2.58h-4.95c-3.06,0-4.05,1.2-4.05,2.82,0,1.83,1.47,2.97,3.99,2.97s4.17-1.14,5.01-3.21Z"/>
        <path class="cls-3" d="m361.48,124.41l-7.02,15.78h-2.19l-6.99-15.78h2.22l5.91,13.44,5.97-13.44h2.1Z"/>
        <path class="cls-3" d="m372.43,124.29v2.07c-.18,0-.36-.03-.51-.03-3.3,0-5.31,2.1-5.31,5.82v8.04h-2.13v-15.78h2.04v3.09c.99-2.1,3-3.21,5.91-3.21Z"/>
        <path class="cls-3" d="m388.15,130.41v9.78h-2.04v-2.46c-.96,1.62-2.82,2.61-5.43,2.61-3.57,0-5.76-1.86-5.76-4.59,0-2.43,1.56-4.47,6.09-4.47h5.01v-.96c0-2.7-1.53-4.17-4.47-4.17-2.04,0-3.96.72-5.25,1.86l-.96-1.59c1.59-1.35,3.93-2.13,6.42-2.13,4.08,0,6.39,2.04,6.39,6.12Zm-2.13,5.04v-2.58h-4.95c-3.06,0-4.05,1.2-4.05,2.82,0,1.83,1.47,2.97,3.99,2.97s4.17-1.14,5.01-3.21Z"/>
        <path class="cls-3" d="m391.75,138.39l.96-1.68c1.26.99,3.39,1.77,5.61,1.77,3,0,4.23-1.02,4.23-2.58,0-4.11-10.23-.87-10.23-7.11,0-2.58,2.22-4.5,6.24-4.5,2.04,0,4.26.57,5.58,1.47l-.93,1.71c-1.38-.96-3.03-1.35-4.65-1.35-2.85,0-4.11,1.11-4.11,2.61,0,4.26,10.23,1.05,10.23,7.11,0,2.73-2.4,4.5-6.51,4.5-2.61,0-5.13-.84-6.42-1.95Z"/>
        <path class="cls-3" d="m430.21,132.96h-13.2c.24,3.3,2.76,5.49,6.21,5.49,1.92,0,3.63-.69,4.83-2.07l1.2,1.38c-1.41,1.68-3.6,2.58-6.09,2.58-4.92,0-8.28-3.36-8.28-8.04s3.27-8.01,7.71-8.01,7.65,3.27,7.65,8.01c0,.18-.03.42-.03.66Zm-13.2-1.59h11.19c-.27-3.09-2.52-5.25-5.61-5.25s-5.31,2.16-5.58,5.25Z"/>
        <path class="cls-3" d="m460.63,131.04v9.15h-2.13v-8.94c0-3.33-1.68-5.04-4.53-5.04-3.24,0-5.28,2.1-5.28,5.7v8.28h-2.13v-8.94c0-3.33-1.68-5.04-4.56-5.04-3.21,0-5.28,2.1-5.28,5.7v8.28h-2.13v-15.78h2.04v2.88c1.11-1.89,3.15-3,5.79-3s4.65,1.11,5.61,3.33c1.14-2.04,3.39-3.33,6.24-3.33,3.84,0,6.36,2.22,6.36,6.75Z"/>
        <path class="cls-3" d="m472.09,138.39l.96-1.68c1.26.99,3.39,1.77,5.61,1.77,3,0,4.23-1.02,4.23-2.58,0-4.11-10.23-.87-10.23-7.11,0-2.58,2.22-4.5,6.24-4.5,2.04,0,4.26.57,5.58,1.47l-.93,1.71c-1.38-.96-3.03-1.35-4.65-1.35-2.85,0-4.11,1.11-4.11,2.61,0,4.26,10.23,1.05,10.23,7.11,0,2.73-2.4,4.5-6.51,4.5-2.61,0-5.13-.84-6.42-1.95Z"/>
        <path class="cls-3" d="m502.69,132.96h-13.2c.24,3.3,2.76,5.49,6.21,5.49,1.92,0,3.63-.69,4.83-2.07l1.2,1.38c-1.41,1.68-3.6,2.58-6.09,2.58-4.92,0-8.28-3.36-8.28-8.04s3.27-8.01,7.71-8.01,7.65,3.27,7.65,8.01c0,.18-.03.42-.03.66Zm-13.2-1.59h11.19c-.27-3.09-2.52-5.25-5.61-5.25s-5.31,2.16-5.58,5.25Z"/>
        <path class="cls-3" d="m521.29,124.41v15.78h-2.04v-2.88c-1.11,1.92-3.15,3.03-5.67,3.03-4.02,0-6.66-2.25-6.66-6.78v-9.15h2.13v8.94c0,3.36,1.74,5.07,4.74,5.07,3.3,0,5.37-2.13,5.37-5.73v-8.28h2.13Z"/>
        <path class="cls-3" d="m532.93,138.39l.96-1.68c1.26.99,3.39,1.77,5.61,1.77,3,0,4.23-1.02,4.23-2.58,0-4.11-10.23-.87-10.23-7.11,0-2.58,2.22-4.5,6.24-4.5,2.04,0,4.26.57,5.58,1.47l-.93,1.71c-1.38-.96-3.03-1.35-4.65-1.35-2.85,0-4.11,1.11-4.11,2.61,0,4.26,10.23,1.05,10.23,7.11,0,2.73-2.4,4.5-6.51,4.5-2.61,0-5.13-.84-6.42-1.95Z"/>
        <path class="cls-3" d="m563.53,132.96h-13.2c.24,3.3,2.76,5.49,6.21,5.49,1.92,0,3.63-.69,4.83-2.07l1.2,1.38c-1.41,1.68-3.6,2.58-6.09,2.58-4.92,0-8.28-3.36-8.28-8.04s3.27-8.01,7.71-8.01,7.65,3.27,7.65,8.01c0,.18-.03.42-.03.66Zm-13.2-1.59h11.19c-.27-3.09-2.52-5.25-5.61-5.25s-5.31,2.16-5.58,5.25Z"/>
        <path class="cls-3" d="m582.43,131.04v9.15h-2.13v-8.94c0-3.33-1.74-5.04-4.74-5.04-3.39,0-5.52,2.1-5.52,5.7v8.28h-2.13v-15.78h2.04v2.91c1.14-1.92,3.27-3.03,6-3.03,3.84,0,6.48,2.22,6.48,6.75Z"/>
        <path class="cls-3" d="m596.53,139.23c-.84.75-2.1,1.11-3.33,1.11-2.97,0-4.62-1.68-4.62-4.59v-9.54h-2.82v-1.8h2.82v-3.45h2.13v3.45h4.8v1.8h-4.8v9.42c0,1.86.96,2.88,2.73,2.88.87,0,1.74-.27,2.34-.81l.75,1.53Z"/>
        <path class="cls-3" d="m599.92,119.43c0-.81.69-1.5,1.56-1.5s1.56.66,1.56,1.47c0,.87-.66,1.56-1.56,1.56s-1.56-.69-1.56-1.53Zm.48,4.98h2.13v15.78h-2.13v-15.78Z"/>
        <path class="cls-3" d="m622.87,117.93v22.26h-2.04v-3.12c-1.29,2.13-3.48,3.27-6.09,3.27-4.5,0-7.86-3.27-7.86-8.04s3.36-8.01,7.86-8.01c2.52,0,4.68,1.08,6,3.12v-9.48h2.13Zm-2.1,14.37c0-3.69-2.52-6.15-5.85-6.15s-5.88,2.46-5.88,6.15,2.52,6.15,5.88,6.15,5.85-2.46,5.85-6.15Z"/>
        <path class="cls-3" d="m627.22,132.3c0-4.68,3.42-8.01,8.04-8.01s8.01,3.33,8.01,8.01-3.39,8.04-8.01,8.04-8.04-3.36-8.04-8.04Zm13.89,0c0-3.69-2.49-6.15-5.85-6.15s-5.88,2.46-5.88,6.15,2.52,6.15,5.88,6.15,5.85-2.46,5.85-6.15Z"/>
        <path class="cls-3" d="m653.89,132.3c0-4.71,3.42-8.01,8.13-8.01,2.67,0,4.92,1.05,6.18,3.12l-1.59,1.08c-1.08-1.59-2.76-2.34-4.59-2.34-3.45,0-5.97,2.46-5.97,6.15s2.52,6.15,5.97,6.15c1.83,0,3.51-.72,4.59-2.31l1.59,1.08c-1.26,2.04-3.51,3.12-6.18,3.12-4.71,0-8.13-3.33-8.13-8.04Z"/>
        <path class="cls-3" d="m670.51,132.3c0-4.68,3.42-8.01,8.04-8.01s8.01,3.33,8.01,8.01-3.39,8.04-8.01,8.04-8.04-3.36-8.04-8.04Zm13.89,0c0-3.69-2.49-6.15-5.85-6.15s-5.88,2.46-5.88,6.15,2.52,6.15,5.88,6.15,5.85-2.46,5.85-6.15Z"/>
        <path class="cls-3" d="m716.94,131.04v9.15h-2.13v-8.94c0-3.33-1.68-5.04-4.53-5.04-3.24,0-5.28,2.1-5.28,5.7v8.28h-2.13v-8.94c0-3.33-1.68-5.04-4.56-5.04-3.21,0-5.28,2.1-5.28,5.7v8.28h-2.13v-15.78h2.04v2.88c1.11-1.89,3.15-3,5.79-3s4.65,1.11,5.61,3.33c1.14-2.04,3.39-3.33,6.24-3.33,3.84,0,6.36,2.22,6.36,6.75Z"/>
        <path class="cls-3" d="m736.96,124.41v15.78h-2.04v-2.88c-1.11,1.92-3.15,3.03-5.67,3.03-4.02,0-6.66-2.25-6.66-6.78v-9.15h2.13v8.94c0,3.36,1.74,5.07,4.74,5.07,3.3,0,5.37-2.13,5.37-5.73v-8.28h2.13Z"/>
        <path class="cls-3" d="m768.96,131.04v9.15h-2.13v-8.94c0-3.33-1.68-5.04-4.53-5.04-3.24,0-5.28,2.1-5.28,5.7v8.28h-2.13v-8.94c0-3.33-1.68-5.04-4.56-5.04-3.21,0-5.28,2.1-5.28,5.7v8.28h-2.13v-15.78h2.04v2.88c1.11-1.89,3.15-3,5.79-3s4.65,1.11,5.61,3.33c1.14-2.04,3.39-3.33,6.24-3.33,3.84,0,6.36,2.22,6.36,6.75Z"/>
        <path class="cls-3" d="m776.58,138.69c0,.51-.12.9-.42,1.74l-1.26,4.14h-1.44l1.02-4.35c-.63-.18-1.08-.75-1.08-1.53,0-.93.69-1.62,1.59-1.62s1.59.72,1.59,1.62Z"/>
        <path class="cls-3" d="m787.38,132.3c0-4.71,3.42-8.01,8.13-8.01,2.67,0,4.92,1.05,6.18,3.12l-1.59,1.08c-1.08-1.59-2.76-2.34-4.59-2.34-3.45,0-5.97,2.46-5.97,6.15s2.52,6.15,5.97,6.15c1.83,0,3.51-.72,4.59-2.31l1.59,1.08c-1.26,2.04-3.51,3.12-6.18,3.12-4.71,0-8.13-3.33-8.13-8.04Z"/>
        <path class="cls-3" d="m804,132.3c0-4.68,3.42-8.01,8.04-8.01s8.01,3.33,8.01,8.01-3.39,8.04-8.01,8.04-8.04-3.36-8.04-8.04Zm13.89,0c0-3.69-2.49-6.15-5.85-6.15s-5.88,2.46-5.88,6.15,2.52,6.15,5.88,6.15,5.85-2.46,5.85-6.15Z"/>
        <path class="cls-3" d="m850.44,131.04v9.15h-2.13v-8.94c0-3.33-1.68-5.04-4.53-5.04-3.24,0-5.28,2.1-5.28,5.7v8.28h-2.13v-8.94c0-3.33-1.68-5.04-4.56-5.04-3.21,0-5.28,2.1-5.28,5.7v8.28h-2.13v-15.78h2.04v2.88c1.11-1.89,3.15-3,5.79-3s4.65,1.11,5.61,3.33c1.14-2.04,3.39-3.33,6.24-3.33,3.84,0,6.36,2.22,6.36,6.75Z"/>
        <path class="cls-3" d="m877.83,132.96h-13.2c.24,3.3,2.76,5.49,6.21,5.49,1.92,0,3.63-.69,4.83-2.07l1.2,1.38c-1.41,1.68-3.6,2.58-6.09,2.58-4.92,0-8.28-3.36-8.28-8.04s3.27-8.01,7.71-8.01,7.65,3.27,7.65,8.01c0,.18-.03.42-.03.66Zm-13.2-1.59h11.19c-.27-3.09-2.52-5.25-5.61-5.25s-5.31,2.16-5.58,5.25Z"/>
        <path class="cls-3" d="m895.17,124.41l-7.02,15.78h-2.19l-6.99-15.78h2.22l5.91,13.44,5.97-13.44h2.1Z"/>
        <path class="cls-3" d="m911.46,132.96h-13.2c.24,3.3,2.76,5.49,6.21,5.49,1.92,0,3.63-.69,4.83-2.07l1.2,1.38c-1.41,1.68-3.6,2.58-6.09,2.58-4.92,0-8.28-3.36-8.28-8.04s3.27-8.01,7.71-8.01,7.65,3.27,7.65,8.01c0,.18-.03.42-.03.66Zm-13.2-1.59h11.19c-.27-3.09-2.52-5.25-5.61-5.25s-5.31,2.16-5.58,5.25Z"/>
        <path class="cls-3" d="m930.36,131.04v9.15h-2.13v-8.94c0-3.33-1.74-5.04-4.74-5.04-3.39,0-5.52,2.1-5.52,5.7v8.28h-2.13v-15.78h2.04v2.91c1.14-1.92,3.27-3.03,6-3.03,3.84,0,6.48,2.22,6.48,6.75Z"/>
        <path class="cls-3" d="m944.46,139.23c-.84.75-2.1,1.11-3.33,1.11-2.97,0-4.62-1.68-4.62-4.59v-9.54h-2.82v-1.8h2.82v-3.45h2.13v3.45h4.8v1.8h-4.8v9.42c0,1.86.96,2.88,2.73,2.88.87,0,1.74-.27,2.34-.81l.75,1.53Z"/>
        <path class="cls-3" d="m962.55,124.41v15.78h-2.04v-2.88c-1.11,1.92-3.15,3.03-5.67,3.03-4.02,0-6.66-2.25-6.66-6.78v-9.15h2.13v8.94c0,3.36,1.74,5.07,4.74,5.07,3.3,0,5.37-2.13,5.37-5.73v-8.28h2.13Z"/>
        <path class="cls-3" d="m980.43,130.41v9.78h-2.04v-2.46c-.96,1.62-2.82,2.61-5.43,2.61-3.57,0-5.76-1.86-5.76-4.59,0-2.43,1.56-4.47,6.09-4.47h5.01v-.96c0-2.7-1.53-4.17-4.47-4.17-2.04,0-3.96.72-5.25,1.86l-.96-1.59c1.59-1.35,3.93-2.13,6.42-2.13,4.08,0,6.39,2.04,6.39,6.12Zm-2.13,5.04v-2.58h-4.95c-3.06,0-4.05,1.2-4.05,2.82,0,1.83,1.47,2.97,3.99,2.97s4.17-1.14,5.01-3.21Z"/>
        <path class="cls-3" d="m985.74,119.43c0-.81.69-1.5,1.56-1.5s1.56.66,1.56,1.47c0,.87-.66,1.56-1.56,1.56s-1.56-.69-1.56-1.53Zm.48,4.98h2.13v15.78h-2.13v-15.78Z"/>
        <path class="cls-3" d="m992.1,138.39l.96-1.68c1.26.99,3.39,1.77,5.61,1.77,3,0,4.23-1.02,4.23-2.58,0-4.11-10.23-.87-10.23-7.11,0-2.58,2.22-4.5,6.24-4.5,2.04,0,4.26.57,5.58,1.47l-.93,1.71c-1.38-.96-3.03-1.35-4.65-1.35-2.85,0-4.11,1.11-4.11,2.61,0,4.26,10.23,1.05,10.23,7.11,0,2.73-2.4,4.5-6.51,4.5-2.61,0-5.13-.84-6.42-1.95Z"/>
        <path class="cls-3" d="m1031.22,117.93v22.26h-2.04v-3.12c-1.29,2.13-3.48,3.27-6.09,3.27-4.5,0-7.86-3.27-7.86-8.04s3.36-8.01,7.86-8.01c2.52,0,4.68,1.08,6,3.12v-9.48h2.13Zm-2.1,14.37c0-3.69-2.52-6.15-5.85-6.15s-5.88,2.46-5.88,6.15,2.52,6.15,5.88,6.15,5.85-2.46,5.85-6.15Z"/>
        <path class="cls-3" d="m1050.9,132.96h-13.2c.24,3.3,2.76,5.49,6.21,5.49,1.92,0,3.63-.69,4.83-2.07l1.2,1.38c-1.41,1.68-3.6,2.58-6.09,2.58-4.92,0-8.28-3.36-8.28-8.04s3.27-8.01,7.71-8.01,7.65,3.27,7.65,8.01c0,.18-.03.42-.03.66Zm-13.2-1.59h11.19c-.27-3.09-2.52-5.25-5.61-5.25s-5.31,2.16-5.58,5.25Z"/>
        <path class="cls-3" d="m1060.41,117.78c1.17,0,2.37.33,3.15.99l-.72,1.59c-.6-.51-1.44-.78-2.34-.78-1.83,0-2.79,1.02-2.79,2.97v1.86h4.86v1.8h-4.8v13.98h-2.13v-13.98h-2.82v-1.8h2.82v-1.95c0-2.82,1.68-4.68,4.77-4.68Zm10.08,1.62c0,.87-.66,1.56-1.56,1.56s-1.56-.69-1.56-1.53.69-1.5,1.56-1.5,1.56.66,1.56,1.47Zm-2.64,5.01h2.13v15.78h-2.13v-15.78Z"/>
        <path class="cls-3" d="m1090.44,131.04v9.15h-2.13v-8.94c0-3.33-1.74-5.04-4.74-5.04-3.39,0-5.52,2.1-5.52,5.7v8.28h-2.13v-15.78h2.04v2.91c1.14-1.92,3.27-3.03,6-3.03,3.84,0,6.48,2.22,6.48,6.75Z"/>
        <path class="cls-3" d="m1095.75,119.43c0-.81.69-1.5,1.56-1.5s1.56.66,1.56,1.47c0,.87-.66,1.56-1.56,1.56s-1.56-.69-1.56-1.53Zm.48,4.98h2.13v15.78h-2.13v-15.78Z"/>
        <path class="cls-3" d="m1115.43,136.14l1.59,1.08c-1.26,2.04-3.51,3.12-6.18,3.12h-.06l-.36,1.41c1.65.15,2.55,1.11,2.55,2.43,0,1.62-1.38,2.61-3.39,2.61-.99,0-1.8-.21-2.52-.69l.51-1.14c.6.39,1.26.57,1.98.57,1.2,0,1.86-.51,1.86-1.41,0-.81-.6-1.38-1.86-1.38h-.69l.66-2.49c-4.02-.57-6.81-3.69-6.81-7.95,0-4.71,3.42-8.01,8.13-8.01,2.67,0,4.92,1.05,6.18,3.12l-1.59,1.08c-1.08-1.59-2.76-2.34-4.59-2.34-3.45,0-5.97,2.46-5.97,6.15s2.52,6.15,5.97,6.15c1.83,0,3.51-.72,4.59-2.31Z"/>
        <path class="cls-3" d="m1119.33,132.3c0-4.68,3.42-8.01,8.04-8.01s8.01,3.33,8.01,8.01-3.39,8.04-8.01,8.04-8.04-3.36-8.04-8.04Zm13.89,0c0-3.69-2.49-6.15-5.85-6.15s-5.88,2.46-5.88,6.15,2.52,6.15,5.88,6.15,5.85-2.46,5.85-6.15Zm-7.77-12.54c-.9,0-1.5.72-1.56,1.92h-1.29c.06-2.01,1.11-3.3,2.7-3.3,1.86,0,2.76,2.04,3.93,2.04.9,0,1.5-.72,1.56-1.86h1.29c-.06,1.95-1.11,3.24-2.7,3.24-1.86,0-2.73-2.04-3.93-2.04Z"/>
        <path class="cls-3" d="m1153.47,132.96h-13.2c.24,3.3,2.76,5.49,6.21,5.49,1.92,0,3.63-.69,4.83-2.07l1.2,1.38c-1.41,1.68-3.6,2.58-6.09,2.58-4.92,0-8.28-3.36-8.28-8.04s3.27-8.01,7.71-8.01,7.65,3.27,7.65,8.01c0,.18-.03.42-.03.66Zm-13.2-1.59h11.19c-.27-3.09-2.52-5.25-5.61-5.25s-5.31,2.16-5.58,5.25Z"/>
        <path class="cls-3" d="m1155.66,138.39l.96-1.68c1.26.99,3.39,1.77,5.61,1.77,3,0,4.23-1.02,4.23-2.58,0-4.11-10.23-.87-10.23-7.11,0-2.58,2.22-4.5,6.24-4.5,2.04,0,4.26.57,5.58,1.47l-.93,1.71c-1.38-.96-3.03-1.35-4.65-1.35-2.85,0-4.11,1.11-4.11,2.61,0,4.26,10.23,1.05,10.23,7.11,0,2.73-2.4,4.5-6.51,4.5-2.61,0-5.13-.84-6.42-1.95Z"/>
        <path class="cls-3" d="m83.41,171.96h-13.2c.24,3.3,2.76,5.49,6.21,5.49,1.92,0,3.63-.69,4.83-2.07l1.2,1.38c-1.41,1.68-3.6,2.58-6.09,2.58-4.92,0-8.28-3.36-8.28-8.04s3.27-8.01,7.71-8.01,7.65,3.27,7.65,8.01c0,.18-.03.42-.03.66Zm-13.2-1.59h11.19c-.27-3.09-2.52-5.25-5.61-5.25s-5.31,2.16-5.58,5.25Z"/>
        <path class="cls-3" d="m97.39,179.19l-5.01-6.6-5.04,6.6h-2.4l6.24-8.1-5.94-7.68h2.4l4.74,6.18,4.74-6.18h2.34l-5.94,7.68,6.3,8.1h-2.43Z"/>
        <path class="cls-3" d="m119.35,171.3c0,4.8-3.36,8.04-7.86,8.04-2.52,0-4.68-1.08-6-3.12v8.79h-2.13v-21.6h2.04v3.12c1.29-2.1,3.48-3.24,6.09-3.24,4.5,0,7.86,3.24,7.86,8.01Zm-2.13,0c0-3.66-2.55-6.15-5.88-6.15s-5.88,2.49-5.88,6.15,2.52,6.15,5.88,6.15,5.88-2.46,5.88-6.15Z"/>
        <path class="cls-3" d="m131.65,163.29v2.07c-.18,0-.36-.03-.51-.03-3.3,0-5.31,2.1-5.31,5.82v8.04h-2.13v-15.78h2.04v3.09c.99-2.1,3-3.21,5.91-3.21Z"/>
        <path class="cls-3" d="m149.08,171.96h-13.2c.24,3.3,2.76,5.49,6.21,5.49,1.92,0,3.63-.69,4.83-2.07l1.2,1.38c-1.41,1.68-3.6,2.58-6.09,2.58-4.92,0-8.28-3.36-8.28-8.04s3.27-8.01,7.71-8.01,7.65,3.27,7.65,8.01c0,.18-.03.42-.03.66Zm-13.2-1.59h11.19c-.27-3.09-2.52-5.25-5.61-5.25s-5.31,2.16-5.58,5.25Z"/>
        <path class="cls-3" d="m151.27,177.39l.96-1.68c1.26.99,3.39,1.77,5.61,1.77,3,0,4.23-1.02,4.23-2.58,0-4.11-10.23-.87-10.23-7.11,0-2.58,2.22-4.5,6.24-4.5,2.04,0,4.26.57,5.58,1.47l-.93,1.71c-1.38-.96-3.03-1.35-4.65-1.35-2.85,0-4.11,1.11-4.11,2.61,0,4.26,10.23,1.05,10.23,7.11,0,2.73-2.4,4.5-6.51,4.5-2.61,0-5.13-.84-6.42-1.95Z"/>
        <path class="cls-3" d="m165.94,177.39l.96-1.68c1.26.99,3.39,1.77,5.61,1.77,3,0,4.23-1.02,4.23-2.58,0-4.11-10.23-.87-10.23-7.11,0-2.58,2.22-4.5,6.24-4.5,2.04,0,4.26.57,5.58,1.47l-.93,1.71c-1.38-.96-3.03-1.35-4.65-1.35-2.85,0-4.11,1.11-4.11,2.61,0,4.26,10.23,1.05,10.23,7.11,0,2.73-2.4,4.5-6.51,4.5-2.61,0-5.13-.84-6.42-1.95Z"/>
        <path class="cls-3" d="m194.71,169.41v9.78h-2.04v-2.46c-.96,1.62-2.82,2.61-5.43,2.61-3.57,0-5.76-1.86-5.76-4.59,0-2.43,1.56-4.47,6.09-4.47h5.01v-.96c0-2.7-1.53-4.17-4.47-4.17-2.04,0-3.96.72-5.25,1.86l-.96-1.59c1.59-1.35,3.93-2.13,6.42-2.13,4.08,0,6.39,2.04,6.39,6.12Zm-2.13,5.04v-2.58h-4.95c-3.06,0-4.05,1.2-4.05,2.82,0,1.83,1.47,2.97,3.99,2.97s4.17-1.14,5.01-3.21Z"/>
        <path class="cls-3" d="m198.31,177.39l.96-1.68c1.26.99,3.39,1.77,5.61,1.77,3,0,4.23-1.02,4.23-2.58,0-4.11-10.23-.87-10.23-7.11,0-2.58,2.22-4.5,6.24-4.5,2.04,0,4.26.57,5.58,1.47l-.93,1.71c-1.38-.96-3.03-1.35-4.65-1.35-2.85,0-4.11,1.11-4.11,2.61,0,4.26,10.23,1.05,10.23,7.11,0,2.73-2.4,4.5-6.51,4.5-2.61,0-5.13-.84-6.42-1.95Z"/>
        <path class="cls-3" d="m237.55,170.04v9.15h-2.13v-8.94c0-3.33-1.74-5.04-4.74-5.04-3.39,0-5.52,2.1-5.52,5.7v8.28h-2.13v-15.78h2.04v2.91c1.14-1.92,3.27-3.03,6-3.03,3.84,0,6.48,2.22,6.48,6.75Z"/>
        <path class="cls-3" d="m241.81,171.3c0-4.68,3.42-8.01,8.04-8.01s8.01,3.33,8.01,8.01-3.39,8.04-8.01,8.04-8.04-3.36-8.04-8.04Zm13.89,0c0-3.69-2.49-6.15-5.85-6.15s-5.88,2.46-5.88,6.15,2.52,6.15,5.88,6.15,5.85-2.46,5.85-6.15Z"/>
        <path class="cls-3" d="m268.48,171.3c0-4.71,3.42-8.01,8.13-8.01,2.67,0,4.92,1.05,6.18,3.12l-1.59,1.08c-1.08-1.59-2.76-2.34-4.59-2.34-3.45,0-5.97,2.46-5.97,6.15s2.52,6.15,5.97,6.15c1.83,0,3.51-.72,4.59-2.31l1.59,1.08c-1.26,2.04-3.51,3.12-6.18,3.12-4.71,0-8.13-3.33-8.13-8.04Z"/>
        <path class="cls-3" d="m285.1,171.3c0-4.68,3.42-8.01,8.04-8.01s8.01,3.33,8.01,8.01-3.39,8.04-8.01,8.04-8.04-3.36-8.04-8.04Zm13.89,0c0-3.69-2.49-6.15-5.85-6.15s-5.88,2.46-5.88,6.15,2.52,6.15,5.88,6.15,5.85-2.46,5.85-6.15Z"/>
        <path class="cls-3" d="m313.45,163.29v2.07c-.18,0-.36-.03-.51-.03-3.3,0-5.31,2.1-5.31,5.82v8.04h-2.13v-15.78h2.04v3.09c.99-2.1,3-3.21,5.91-3.21Z"/>
        <path class="cls-3" d="m333.28,171.3c0,4.8-3.36,8.04-7.86,8.04-2.52,0-4.68-1.08-6-3.12v8.79h-2.13v-21.6h2.04v3.12c1.29-2.1,3.48-3.24,6.09-3.24,4.5,0,7.86,3.24,7.86,8.01Zm-2.13,0c0-3.66-2.55-6.15-5.88-6.15s-5.88,2.49-5.88,6.15,2.52,6.15,5.88,6.15,5.88-2.46,5.88-6.15Z"/>
        <path class="cls-3" d="m336.04,171.3c0-4.68,3.42-8.01,8.04-8.01s8.01,3.33,8.01,8.01-3.39,8.04-8.01,8.04-8.04-3.36-8.04-8.04Zm13.89,0c0-3.69-2.49-6.15-5.85-6.15s-5.88,2.46-5.88,6.15,2.52,6.15,5.88,6.15,5.85-2.46,5.85-6.15Z"/>
        <path class="cls-3" d="m378.7,156.93v22.26h-2.04v-3.12c-1.29,2.13-3.48,3.27-6.09,3.27-4.5,0-7.86-3.27-7.86-8.04s3.36-8.01,7.86-8.01c2.52,0,4.68,1.08,6,3.12v-9.48h2.13Zm-2.1,14.37c0-3.69-2.52-6.15-5.85-6.15s-5.88,2.46-5.88,6.15,2.52,6.15,5.88,6.15,5.85-2.46,5.85-6.15Z"/>
        <path class="cls-3" d="m383.05,171.3c0-4.68,3.42-8.01,8.04-8.01s8.01,3.33,8.01,8.01-3.39,8.04-8.01,8.04-8.04-3.36-8.04-8.04Zm13.89,0c0-3.69-2.49-6.15-5.85-6.15s-5.88,2.46-5.88,6.15,2.52,6.15,5.88,6.15,5.85-2.46,5.85-6.15Z"/>
        <path class="cls-3" d="m419.61,178.23c-.84.75-2.1,1.11-3.33,1.11-2.97,0-4.62-1.68-4.62-4.59v-9.54h-2.82v-1.8h2.82v-3.45h2.13v3.45h4.8v1.8h-4.8v9.42c0,1.86.96,2.88,2.73,2.88.87,0,1.74-.27,2.34-.81l.75,1.53Z"/>
        <path class="cls-3" d="m436.65,171.96h-13.2c.24,3.3,2.76,5.49,6.21,5.49,1.92,0,3.63-.69,4.83-2.07l1.2,1.38c-1.41,1.68-3.6,2.58-6.09,2.58-4.92,0-8.28-3.36-8.28-8.04s3.27-8.01,7.71-8.01,7.65,3.27,7.65,8.01c0,.18-.03.42-.03.66Zm-13.2-1.59h11.19c-.27-3.09-2.52-5.25-5.61-5.25s-5.31,2.16-5.58,5.25Z"/>
        <path class="cls-3" d="m450.63,179.19l-5.01-6.6-5.04,6.6h-2.4l6.24-8.1-5.94-7.68h2.4l4.74,6.18,4.74-6.18h2.34l-5.94,7.68,6.3,8.1h-2.43Z"/>
        <path class="cls-3" d="m464.91,178.23c-.84.75-2.1,1.11-3.33,1.11-2.97,0-4.62-1.68-4.62-4.59v-9.54h-2.82v-1.8h2.82v-3.45h2.13v3.45h4.8v1.8h-4.8v9.42c0,1.86.96,2.88,2.73,2.88.87,0,1.74-.27,2.34-.81l.75,1.53Z"/>
        <path class="cls-3" d="m466.62,171.3c0-4.68,3.42-8.01,8.04-8.01s8.01,3.33,8.01,8.01-3.39,8.04-8.01,8.04-8.04-3.36-8.04-8.04Zm13.89,0c0-3.69-2.49-6.15-5.85-6.15s-5.88,2.46-5.88,6.15,2.52,6.15,5.88,6.15,5.85-2.46,5.85-6.15Z"/>
        <path class="cls-3" d="m488.4,177.69c0,.51-.12.9-.42,1.74l-1.26,4.14h-1.44l1.02-4.35c-.63-.18-1.08-.75-1.08-1.53,0-.93.69-1.62,1.59-1.62s1.59.72,1.59,1.62Z"/>
        <path class="cls-3" d="m503.22,161.55v1.86h4.86v1.8h-4.8v13.98h-2.13v-13.98h-2.82v-1.8h2.82v-1.95c0-2.82,1.68-4.68,4.77-4.68,1.17,0,2.37.33,3.15.99l-.72,1.59c-.6-.51-1.44-.78-2.34-.78-1.83,0-2.79,1.02-2.79,2.97Z"/>
        <path class="cls-3" d="m521.31,163.29v2.07c-.18,0-.36-.03-.51-.03-3.3,0-5.31,2.1-5.31,5.82v8.04h-2.13v-15.78h2.04v3.09c.99-2.1,3-3.21,5.91-3.21Z"/>
        <path class="cls-3" d="m537.03,169.41v9.78h-2.04v-2.46c-.96,1.62-2.82,2.61-5.43,2.61-3.57,0-5.76-1.86-5.76-4.59,0-2.43,1.56-4.47,6.09-4.47h5.01v-.96c0-2.7-1.53-4.17-4.47-4.17-2.04,0-3.96.72-5.25,1.86l-.96-1.59c1.59-1.35,3.93-2.13,6.42-2.13,4.08,0,6.39,2.04,6.39,6.12Zm-2.13,5.04v-2.58h-4.95c-3.06,0-4.05,1.2-4.05,2.82,0,1.83,1.47,2.97,3.99,2.97s4.17-1.14,5.01-3.21Z"/>
        <path class="cls-3" d="m540.63,177.39l.96-1.68c1.26.99,3.39,1.77,5.61,1.77,3,0,4.23-1.02,4.23-2.58,0-4.11-10.23-.87-10.23-7.11,0-2.58,2.22-4.5,6.24-4.5,2.04,0,4.26.57,5.58,1.47l-.93,1.71c-1.38-.96-3.03-1.35-4.65-1.35-2.85,0-4.11,1.11-4.11,2.61,0,4.26,10.23,1.05,10.23,7.11,0,2.73-2.4,4.5-6.51,4.5-2.61,0-5.13-.84-6.42-1.95Z"/>
        <path class="cls-3" d="m571.23,171.96h-13.2c.24,3.3,2.76,5.49,6.21,5.49,1.92,0,3.63-.69,4.83-2.07l1.2,1.38c-1.41,1.68-3.6,2.58-6.09,2.58-4.92,0-8.28-3.36-8.28-8.04s3.27-8.01,7.71-8.01,7.65,3.27,7.65,8.01c0,.18-.03.42-.03.66Zm-13.2-1.59h11.19c-.27-3.09-2.52-5.25-5.61-5.25s-5.31,2.16-5.58,5.25Z"/>
        <path class="cls-3" d="m573.42,177.39l.96-1.68c1.26.99,3.39,1.77,5.61,1.77,3,0,4.23-1.02,4.23-2.58,0-4.11-10.23-.87-10.23-7.11,0-2.58,2.22-4.5,6.24-4.5,2.04,0,4.26.57,5.58,1.47l-.93,1.71c-1.38-.96-3.03-1.35-4.65-1.35-2.85,0-4.11,1.11-4.11,2.61,0,4.26,10.23,1.05,10.23,7.11,0,2.73-2.4,4.5-6.51,4.5-2.61,0-5.13-.84-6.42-1.95Z"/>
        <path class="cls-3" d="m596.55,171.3c0-4.71,3.42-8.01,8.13-8.01,2.67,0,4.92,1.05,6.18,3.12l-1.59,1.08c-1.08-1.59-2.76-2.34-4.59-2.34-3.45,0-5.97,2.46-5.97,6.15s2.52,6.15,5.97,6.15c1.83,0,3.51-.72,4.59-2.31l1.59,1.08c-1.26,2.04-3.51,3.12-6.18,3.12-4.71,0-8.13-3.33-8.13-8.04Z"/>
        <path class="cls-3" d="m629.25,163.41v15.78h-2.04v-2.88c-1.11,1.92-3.15,3.03-5.67,3.03-4.02,0-6.66-2.25-6.66-6.78v-9.15h2.13v8.94c0,3.36,1.74,5.07,4.74,5.07,3.3,0,5.37-2.13,5.37-5.73v-8.28h2.13Z"/>
        <path class="cls-3" d="m643.17,163.29v2.07c-.18,0-.36-.03-.51-.03-3.3,0-5.31,2.1-5.31,5.82v8.04h-2.13v-15.78h2.04v3.09c.99-2.1,3-3.21,5.91-3.21Z"/>
        <path class="cls-3" d="m656.01,178.23c-.84.75-2.1,1.11-3.33,1.11-2.97,0-4.62-1.68-4.62-4.59v-9.54h-2.82v-1.8h2.82v-3.45h2.13v3.45h4.8v1.8h-4.8v9.42c0,1.86.96,2.88,2.73,2.88.87,0,1.74-.27,2.34-.81l.75,1.53Z"/>
        <path class="cls-3" d="m671.79,169.41v9.78h-2.04v-2.46c-.96,1.62-2.82,2.61-5.43,2.61-3.57,0-5.76-1.86-5.76-4.59,0-2.43,1.56-4.47,6.09-4.47h5.01v-.96c0-2.7-1.53-4.17-4.47-4.17-2.04,0-3.96.72-5.25,1.86l-.96-1.59c1.59-1.35,3.93-2.13,6.42-2.13,4.08,0,6.39,2.04,6.39,6.12Zm-2.13,5.04v-2.58h-4.95c-3.06,0-4.05,1.2-4.05,2.82,0,1.83,1.47,2.97,3.99,2.97s4.17-1.14,5.01-3.21Z"/>
        <path class="cls-3" d="m675.39,177.39l.96-1.68c1.26.99,3.39,1.77,5.61,1.77,3,0,4.23-1.02,4.23-2.58,0-4.11-10.23-.87-10.23-7.11,0-2.58,2.22-4.5,6.24-4.5,2.04,0,4.26.57,5.58,1.47l-.93,1.71c-1.38-.96-3.03-1.35-4.65-1.35-2.85,0-4.11,1.11-4.11,2.61,0,4.26,10.23,1.05,10.23,7.11,0,2.73-2.4,4.5-6.51,4.5-2.61,0-5.13-.84-6.42-1.95Z"/>
        <path class="cls-3" d="m713.85,171.96h-13.2c.24,3.3,2.76,5.49,6.21,5.49,1.92,0,3.63-.69,4.83-2.07l1.2,1.38c-1.41,1.68-3.6,2.58-6.09,2.58-4.92,0-8.28-3.36-8.28-8.04s3.27-8.01,7.71-8.01,7.65,3.27,7.65,8.01c0,.18-.03.42-.03.66Zm-13.2-1.59h11.19c-.27-3.09-2.52-5.25-5.61-5.25s-5.31,2.16-5.58,5.25Z"/>
        <path class="cls-3" d="m739.83,171.96h-13.2c.24,3.3,2.76,5.49,6.21,5.49,1.92,0,3.63-.69,4.83-2.07l1.2,1.38c-1.41,1.68-3.6,2.58-6.09,2.58-4.92,0-8.28-3.36-8.28-8.04s3.27-8.01,7.71-8.01,7.65,3.27,7.65,8.01c0,.18-.03.42-.03.66Zm-13.2-1.59h11.19c-.27-3.09-2.52-5.25-5.61-5.25s-5.31,2.16-5.58,5.25Z"/>
        <path class="cls-3" d="m770.25,170.04v9.15h-2.13v-8.94c0-3.33-1.68-5.04-4.53-5.04-3.24,0-5.28,2.1-5.28,5.7v8.28h-2.13v-8.94c0-3.33-1.68-5.04-4.56-5.04-3.21,0-5.28,2.1-5.28,5.7v8.28h-2.13v-15.78h2.04v2.88c1.11-1.89,3.15-3,5.79-3s4.65,1.11,5.61,3.33c1.14-2.04,3.39-3.33,6.24-3.33,3.84,0,6.36,2.22,6.36,6.75Z"/>
        <path class="cls-3" d="m782.31,171.3c0-4.68,3.42-8.01,8.04-8.01s8.01,3.33,8.01,8.01-3.39,8.04-8.01,8.04-8.04-3.36-8.04-8.04Zm13.89,0c0-3.69-2.49-6.15-5.85-6.15s-5.88,2.46-5.88,6.15,2.52,6.15,5.88,6.15,5.85-2.46,5.85-6.15Z"/>
        <path class="cls-3" d="m810.66,163.29v2.07c-.18,0-.36-.03-.51-.03-3.3,0-5.31,2.1-5.31,5.82v8.04h-2.13v-15.78h2.04v3.09c.99-2.1,3-3.21,5.91-3.21Z"/>
        <path class="cls-3" d="m828.75,156.93v22.26h-2.04v-3.12c-1.29,2.13-3.48,3.27-6.09,3.27-4.5,0-7.86-3.27-7.86-8.04s3.36-8.01,7.86-8.01c2.52,0,4.68,1.08,6,3.12v-9.48h2.13Zm-2.1,14.37c0-3.69-2.52-6.15-5.85-6.15s-5.88,2.46-5.88,6.15,2.52,6.15,5.88,6.15,5.85-2.46,5.85-6.15Z"/>
        <path class="cls-3" d="m848.43,171.96h-13.2c.24,3.3,2.76,5.49,6.21,5.49,1.92,0,3.63-.69,4.83-2.07l1.2,1.38c-1.41,1.68-3.6,2.58-6.09,2.58-4.92,0-8.28-3.36-8.28-8.04s3.27-8.01,7.71-8.01,7.65,3.27,7.65,8.01c0,.18-.03.42-.03.66Zm-13.2-1.59h11.19c-.27-3.09-2.52-5.25-5.61-5.25s-5.31,2.16-5.58,5.25Z"/>
        <path class="cls-3" d="m878.85,170.04v9.15h-2.13v-8.94c0-3.33-1.68-5.04-4.53-5.04-3.24,0-5.28,2.1-5.28,5.7v8.28h-2.13v-8.94c0-3.33-1.68-5.04-4.56-5.04-3.21,0-5.28,2.1-5.28,5.7v8.28h-2.13v-15.78h2.04v2.88c1.11-1.89,3.15-3,5.79-3s4.65,1.11,5.61,3.33c1.14-2.04,3.39-3.33,6.24-3.33,3.84,0,6.36,2.22,6.36,6.75Z"/>
        <path class="cls-3" d="m906.9,156.93v22.26h-2.04v-3.12c-1.29,2.13-3.48,3.27-6.09,3.27-4.5,0-7.86-3.27-7.86-8.04s3.36-8.01,7.86-8.01c2.52,0,4.68,1.08,6,3.12v-9.48h2.13Zm-2.1,14.37c0-3.69-2.52-6.15-5.85-6.15s-5.88,2.46-5.88,6.15,2.52,6.15,5.88,6.15,5.85-2.46,5.85-6.15Z"/>
        <path class="cls-3" d="m912.36,158.43c0-.81.69-1.5,1.56-1.5s1.56.66,1.56,1.47c0,.87-.66,1.56-1.56,1.56s-1.56-.69-1.56-1.53Zm.48,4.98h2.13v15.78h-2.13v-15.78Z"/>
        <path class="cls-3" d="m928.86,163.29v2.07c-.18,0-.36-.03-.51-.03-3.3,0-5.31,2.1-5.31,5.82v8.04h-2.13v-15.78h2.04v3.09c.99-2.1,3-3.21,5.91-3.21Z"/>
        <path class="cls-3" d="m946.29,171.96h-13.2c.24,3.3,2.76,5.49,6.21,5.49,1.92,0,3.63-.69,4.83-2.07l1.2,1.38c-1.41,1.68-3.6,2.58-6.09,2.58-4.92,0-8.28-3.36-8.28-8.04s3.27-8.01,7.71-8.01,7.65,3.27,7.65,8.01c0,.18-.03.42-.03.66Zm-13.2-1.59h11.19c-.27-3.09-2.52-5.25-5.61-5.25s-5.31,2.16-5.58,5.25Z"/>
        <path class="cls-3" d="m958.98,178.23c-.84.75-2.1,1.11-3.33,1.11-2.97,0-4.62-1.68-4.62-4.59v-9.54h-2.82v-1.8h2.82v-3.45h2.13v3.45h4.8v1.8h-4.8v9.42c0,1.86.96,2.88,2.73,2.88.87,0,1.74-.27,2.34-.81l.75,1.53Z"/>
        <path class="cls-3" d="m974.75,169.41v9.78h-2.04v-2.46c-.96,1.62-2.82,2.61-5.43,2.61-3.57,0-5.76-1.86-5.76-4.59,0-2.43,1.56-4.47,6.09-4.47h5.01v-.96c0-2.7-1.53-4.17-4.47-4.17-2.04,0-3.96.72-5.25,1.86l-.96-1.59c1.59-1.35,3.93-2.13,6.42-2.13,4.08,0,6.39,2.04,6.39,6.12Zm-2.13,5.04v-2.58h-4.95c-3.06,0-4.05,1.2-4.05,2.82,0,1.83,1.47,2.97,3.99,2.97s4.17-1.14,5.01-3.21Z"/>
        <path class="cls-3" d="m982.38,177.69c0,.51-.12.9-.42,1.74l-1.26,4.14h-1.44l1.02-4.35c-.63-.18-1.08-.75-1.08-1.53,0-.93.69-1.62,1.59-1.62s1.59.72,1.59,1.62Z"/>
        <path class="cls-3" d="m1008.02,163.41l-7.02,15.78h-2.19l-6.99-15.78h2.22l5.91,13.44,5.97-13.44h2.1Z"/>
        <path class="cls-3" d="m1024.31,171.96h-13.2c.24,3.3,2.76,5.49,6.21,5.49,1.92,0,3.63-.69,4.83-2.07l1.2,1.38c-1.41,1.68-3.6,2.58-6.09,2.58-4.92,0-8.28-3.36-8.28-8.04s3.27-8.01,7.71-8.01,7.65,3.27,7.65,8.01c0,.18-.03.42-.03.66Zm-13.2-1.59h11.19c-.27-3.09-2.52-5.25-5.61-5.25s-5.31,2.16-5.58,5.25Z"/>
        <path class="cls-3" d="m1036.65,163.29v2.07c-.18,0-.36-.03-.51-.03-3.3,0-5.31,2.1-5.31,5.82v8.04h-2.13v-15.78h2.04v3.09c.99-2.1,3-3.21,5.91-3.21Z"/>
        <path class="cls-3" d="m1056.47,171.3c0,4.77-3.36,8.04-7.86,8.04-2.61,0-4.8-1.14-6.09-3.27v3.12h-2.04v-22.26h2.13v9.48c1.32-2.04,3.48-3.12,6-3.12,4.5,0,7.86,3.24,7.86,8.01Zm-2.13,0c0-3.69-2.55-6.15-5.88-6.15s-5.88,2.46-5.88,6.15,2.52,6.15,5.88,6.15,5.88-2.46,5.88-6.15Z"/>
        <path class="cls-3" d="m1059.23,171.3c0-4.68,3.42-8.01,8.04-8.01s8.01,3.33,8.01,8.01-3.39,8.04-8.01,8.04-8.04-3.36-8.04-8.04Zm13.89,0c0-3.69-2.49-6.15-5.85-6.15s-5.88,2.46-5.88,6.15,2.52,6.15,5.88,6.15,5.85-2.46,5.85-6.15Z"/>
        <path class="cls-3" d="m1077.44,177.39l.96-1.68c1.26.99,3.39,1.77,5.61,1.77,3,0,4.23-1.02,4.23-2.58,0-4.11-10.23-.87-10.23-7.11,0-2.58,2.22-4.5,6.24-4.5,2.04,0,4.26.57,5.58,1.47l-.93,1.71c-1.38-.96-3.03-1.35-4.65-1.35-2.85,0-4.11,1.11-4.11,2.61,0,4.26,10.23,1.05,10.23,7.11,0,2.73-2.4,4.5-6.51,4.5-2.61,0-5.13-.84-6.42-1.95Z"/>
        <path class="cls-3" d="m1116.68,170.04v9.15h-2.13v-8.94c0-3.33-1.74-5.04-4.74-5.04-3.39,0-5.52,2.1-5.52,5.7v8.28h-2.13v-15.78h2.04v2.91c1.14-1.92,3.27-3.03,6-3.03,3.84,0,6.48,2.22,6.48,6.75Z"/>
        <path class="cls-3" d="m1120.94,171.3c0-4.68,3.42-8.01,8.04-8.01s8.01,3.33,8.01,8.01-3.39,8.04-8.01,8.04-8.04-3.36-8.04-8.04Zm13.89,0c0-3.69-2.49-6.15-5.85-6.15s-5.88,2.46-5.88,6.15,2.52,6.15,5.88,6.15,5.85-2.46,5.85-6.15Z"/>
        <path class="cls-3" d="m77.98,217.23c-.84.75-2.1,1.11-3.33,1.11-2.97,0-4.62-1.68-4.62-4.59v-9.54h-2.82v-1.8h2.82v-3.45h2.13v3.45h4.8v1.8h-4.8v9.42c0,1.86.96,2.88,2.73,2.88.87,0,1.74-.27,2.34-.81l.75,1.53Z"/>
        <path class="cls-3" d="m95.02,210.96h-13.2c.24,3.3,2.76,5.49,6.21,5.49,1.92,0,3.63-.69,4.83-2.07l1.2,1.38c-1.41,1.68-3.6,2.58-6.09,2.58-4.92,0-8.28-3.36-8.28-8.04s3.27-8.01,7.71-8.01,7.65,3.27,7.65,8.01c0,.18-.03.42-.03.66Zm-13.2-1.59h11.19c-.27-3.09-2.52-5.25-5.61-5.25s-5.31,2.16-5.58,5.25Z"/>
        <path class="cls-3" d="m125.44,209.04v9.15h-2.13v-8.94c0-3.33-1.68-5.04-4.53-5.04-3.24,0-5.28,2.1-5.28,5.7v8.28h-2.13v-8.94c0-3.33-1.68-5.04-4.56-5.04-3.21,0-5.28,2.1-5.28,5.7v8.28h-2.13v-15.78h2.04v2.88c1.11-1.89,3.15-3,5.79-3s4.65,1.11,5.61,3.33c1.14-2.04,3.39-3.33,6.24-3.33,3.84,0,6.36,2.22,6.36,6.75Z"/>
        <path class="cls-3" d="m147.22,210.3c0,4.8-3.36,8.04-7.86,8.04-2.52,0-4.68-1.08-6-3.12v8.79h-2.13v-21.6h2.04v3.12c1.29-2.1,3.48-3.24,6.09-3.24,4.5,0,7.86,3.24,7.86,8.01Zm-2.13,0c0-3.66-2.55-6.15-5.88-6.15s-5.88,2.49-5.88,6.15,2.52,6.15,5.88,6.15,5.88-2.46,5.88-6.15Z"/>
        <path class="cls-3" d="m149.98,210.3c0-4.68,3.42-8.01,8.04-8.01s8.01,3.33,8.01,8.01-3.39,8.04-8.01,8.04-8.04-3.36-8.04-8.04Zm13.89,0c0-3.69-2.49-6.15-5.85-6.15s-5.88,2.46-5.88,6.15,2.52,6.15,5.88,6.15,5.85-2.46,5.85-6.15Z"/>
        <path class="cls-3" d="m194.23,210.3c0,4.8-3.36,8.04-7.86,8.04-2.52,0-4.68-1.08-6-3.12v8.79h-2.13v-21.6h2.04v3.12c1.29-2.1,3.48-3.24,6.09-3.24,4.5,0,7.86,3.24,7.86,8.01Zm-2.13,0c0-3.66-2.55-6.15-5.88-6.15s-5.88,2.49-5.88,6.15,2.52,6.15,5.88,6.15,5.88-2.46,5.88-6.15Z"/>
        <path class="cls-3" d="m206.53,202.29v2.07c-.18,0-.36-.03-.51-.03-3.3,0-5.31,2.1-5.31,5.82v8.04h-2.13v-15.78h2.04v3.09c.99-2.1,3-3.21,5.91-3.21Z"/>
        <path class="cls-3" d="m223.96,210.96h-13.2c.24,3.3,2.76,5.49,6.21,5.49,1.92,0,3.63-.69,4.83-2.07l1.2,1.38c-1.41,1.68-3.6,2.58-6.09,2.58-4.92,0-8.28-3.36-8.28-8.04s3.27-8.01,7.71-8.01,7.65,3.27,7.65,8.01c0,.18-.03.42-.03.66Zm-13.2-1.59h11.19c-.27-3.09-2.52-5.25-5.61-5.25s-5.31,2.16-5.58,5.25Z"/>
        <path class="cls-3" d="m226.15,216.39l.96-1.68c1.26.99,3.39,1.77,5.61,1.77,3,0,4.23-1.02,4.23-2.58,0-4.11-10.23-.87-10.23-7.11,0-2.58,2.22-4.5,6.24-4.5,2.04,0,4.26.57,5.58,1.47l-.93,1.71c-1.38-.96-3.03-1.35-4.65-1.35-2.85,0-4.11,1.11-4.11,2.61,0,4.26,10.23,1.05,10.23,7.11,0,2.73-2.4,4.5-6.51,4.5-2.61,0-5.13-.84-6.42-1.95Z"/>
        <path class="cls-3" d="m256.75,210.96h-13.2c.24,3.3,2.76,5.49,6.21,5.49,1.92,0,3.63-.69,4.83-2.07l1.2,1.38c-1.41,1.68-3.6,2.58-6.09,2.58-4.92,0-8.28-3.36-8.28-8.04s3.27-8.01,7.71-8.01,7.65,3.27,7.65,8.01c0,.18-.03.42-.03.66Zm-13.2-1.59h11.19c-.27-3.09-2.52-5.25-5.61-5.25s-5.31,2.16-5.58,5.25Z"/>
        <path class="cls-3" d="m275.65,209.04v9.15h-2.13v-8.94c0-3.33-1.74-5.04-4.74-5.04-3.39,0-5.52,2.1-5.52,5.7v8.28h-2.13v-15.78h2.04v2.91c1.14-1.92,3.27-3.03,6-3.03,3.84,0,6.48,2.22,6.48,6.75Z"/>
        <path class="cls-3" d="m289.75,217.23c-.84.75-2.1,1.11-3.33,1.11-2.97,0-4.62-1.68-4.62-4.59v-9.54h-2.82v-1.8h2.82v-3.45h2.13v3.45h4.8v1.8h-4.8v9.42c0,1.86.96,2.88,2.73,2.88.87,0,1.74-.27,2.34-.81l.75,1.53Z"/>
        <path class="cls-3" d="m306.79,210.96h-13.2c.24,3.3,2.76,5.49,6.21,5.49,1.92,0,3.63-.69,4.83-2.07l1.2,1.38c-1.41,1.68-3.6,2.58-6.09,2.58-4.92,0-8.28-3.36-8.28-8.04s3.27-8.01,7.71-8.01,7.65,3.27,7.65,8.01c0,.18-.03.42-.03.66Zm-13.2-1.59h11.19c-.27-3.09-2.52-5.25-5.61-5.25s-5.31,2.16-5.58,5.25Z"/>
        <path class="cls-3" d="m317.44,210.3c0-4.68,3.42-8.01,8.04-8.01s8.01,3.33,8.01,8.01-3.39,8.04-8.01,8.04-8.04-3.36-8.04-8.04Zm13.89,0c0-3.69-2.49-6.15-5.85-6.15s-5.88,2.46-5.88,6.15,2.52,6.15,5.88,6.15,5.85-2.46,5.85-6.15Z"/>
        <path class="cls-3" d="m352.06,202.41v15.78h-2.04v-2.88c-1.11,1.92-3.15,3.03-5.67,3.03-4.02,0-6.66-2.25-6.66-6.78v-9.15h2.13v8.94c0,3.36,1.74,5.07,4.74,5.07,3.3,0,5.37-2.13,5.37-5.73v-8.28h2.13Z"/>
        <path class="cls-3" d="m368.32,200.55v1.86h4.86v1.8h-4.8v13.98h-2.13v-13.98h-2.82v-1.8h2.82v-1.95c0-2.82,1.68-4.68,4.77-4.68,1.17,0,2.37.33,3.15.99l-.72,1.59c-.6-.51-1.44-.78-2.34-.78-1.83,0-2.79,1.02-2.79,2.97Z"/>
        <path class="cls-3" d="m390.28,202.41v15.78h-2.04v-2.88c-1.11,1.92-3.15,3.03-5.67,3.03-4.02,0-6.66-2.25-6.66-6.78v-9.15h2.13v8.94c0,3.36,1.74,5.07,4.74,5.07,3.3,0,5.37-2.13,5.37-5.73v-8.28h2.13Z"/>
        <path class="cls-3" d="m404.56,217.23c-.84.75-2.1,1.11-3.33,1.11-2.97,0-4.62-1.68-4.62-4.59v-9.54h-2.82v-1.8h2.82v-3.45h2.13v3.45h4.8v1.8h-4.8v9.42c0,1.86.96,2.88,2.73,2.88.87,0,1.74-.27,2.34-.81l.75,1.53Z"/>
        <path class="cls-3" d="m422.65,202.41v15.78h-2.04v-2.88c-1.11,1.92-3.15,3.03-5.67,3.03-4.02,0-6.66-2.25-6.66-6.78v-9.15h2.13v8.94c0,3.36,1.74,5.07,4.74,5.07,3.3,0,5.37-2.13,5.37-5.73v-8.28h2.13Z"/>
        <path class="cls-3" d="m436.57,202.29v2.07c-.18,0-.36-.03-.51-.03-3.3,0-5.31,2.1-5.31,5.82v8.04h-2.13v-15.78h2.04v3.09c.99-2.1,3-3.21,5.91-3.21Z"/>
        <path class="cls-3" d="m438.66,210.3c0-4.68,3.42-8.01,8.04-8.01s8.01,3.33,8.01,8.01-3.39,8.04-8.01,8.04-8.04-3.36-8.04-8.04Zm13.89,0c0-3.69-2.49-6.15-5.85-6.15s-5.88,2.46-5.88,6.15,2.52,6.15,5.88,6.15,5.85-2.46,5.85-6.15Z"/>
        <path class="cls-3" d="m464.73,216.39l.96-1.68c1.26.99,3.39,1.77,5.61,1.77,3,0,4.23-1.02,4.23-2.58,0-4.11-10.23-.87-10.23-7.11,0-2.58,2.22-4.5,6.24-4.5,2.04,0,4.26.57,5.58,1.47l-.93,1.71c-1.38-.96-3.03-1.35-4.65-1.35-2.85,0-4.11,1.11-4.11,2.61,0,4.26,10.23,1.05,10.23,7.11,0,2.73-2.4,4.5-6.51,4.5-2.61,0-5.13-.84-6.42-1.95Z"/>
        <path class="cls-3" d="m481.11,197.43c0-.81.69-1.5,1.56-1.5s1.56.66,1.56,1.47c0,.87-.66,1.56-1.56,1.56s-1.56-.69-1.56-1.53Zm.48,4.98h2.13v15.78h-2.13v-15.78Z"/>
        <path class="cls-3" d="m515.7,209.04v9.15h-2.13v-8.94c0-3.33-1.68-5.04-4.53-5.04-3.24,0-5.28,2.1-5.28,5.7v8.28h-2.13v-8.94c0-3.33-1.68-5.04-4.56-5.04-3.21,0-5.28,2.1-5.28,5.7v8.28h-2.13v-15.78h2.04v2.88c1.11-1.89,3.15-3,5.79-3s4.65,1.11,5.61,3.33c1.14-2.04,3.39-3.33,6.24-3.33,3.84,0,6.36,2.22,6.36,6.75Z"/>
        <path class="cls-3" d="m537.48,210.3c0,4.8-3.36,8.04-7.86,8.04-2.52,0-4.68-1.08-6-3.12v8.79h-2.13v-21.6h2.04v3.12c1.29-2.1,3.48-3.24,6.09-3.24,4.5,0,7.86,3.24,7.86,8.01Zm-2.13,0c0-3.66-2.55-6.15-5.88-6.15s-5.88,2.49-5.88,6.15,2.52,6.15,5.88,6.15,5.88-2.46,5.88-6.15Z"/>
        <path class="cls-3" d="m541.83,195.93h2.13v22.26h-2.13v-22.26Z"/>
        <path class="cls-3" d="m563.64,210.96h-13.2c.24,3.3,2.76,5.49,6.21,5.49,1.92,0,3.63-.69,4.83-2.07l1.2,1.38c-1.41,1.68-3.6,2.58-6.09,2.58-4.92,0-8.28-3.36-8.28-8.04s3.27-8.01,7.71-8.01,7.65,3.27,7.65,8.01c0,.18-.03.42-.03.66Zm-13.2-1.59h11.19c-.27-3.09-2.52-5.25-5.61-5.25s-5.31,2.16-5.58,5.25Z"/>
        <path class="cls-3" d="m565.83,216.39l.96-1.68c1.26.99,3.39,1.77,5.61,1.77,3,0,4.23-1.02,4.23-2.58,0-4.11-10.23-.87-10.23-7.11,0-2.58,2.22-4.5,6.24-4.5,2.04,0,4.26.57,5.58,1.47l-.93,1.71c-1.38-.96-3.03-1.35-4.65-1.35-2.85,0-4.11,1.11-4.11,2.61,0,4.26,10.23,1.05,10.23,7.11,0,2.73-2.4,4.5-6.51,4.5-2.61,0-5.13-.84-6.42-1.95Z"/>
        <path class="cls-3" d="m604.95,195.93v22.26h-2.04v-3.12c-1.29,2.13-3.48,3.27-6.09,3.27-4.5,0-7.86-3.27-7.86-8.04s3.36-8.01,7.86-8.01c2.52,0,4.68,1.08,6,3.12v-9.48h2.13Zm-2.1,14.37c0-3.69-2.52-6.15-5.85-6.15s-5.88,2.46-5.88,6.15,2.52,6.15,5.88,6.15,5.85-2.46,5.85-6.15Z"/>
        <path class="cls-3" d="m609.3,210.3c0-4.68,3.42-8.01,8.04-8.01s8.01,3.33,8.01,8.01-3.39,8.04-8.01,8.04-8.04-3.36-8.04-8.04Zm13.89,0c0-3.69-2.49-6.15-5.85-6.15s-5.88,2.46-5.88,6.15,2.52,6.15,5.88,6.15,5.85-2.46,5.85-6.15Z"/>
        <path class="cls-3" d="m653.55,210.3c0,4.8-3.36,8.04-7.86,8.04-2.52,0-4.68-1.08-6-3.12v8.79h-2.13v-21.6h2.04v3.12c1.29-2.1,3.48-3.24,6.09-3.24,4.5,0,7.86,3.24,7.86,8.01Zm-2.13,0c0-3.66-2.55-6.15-5.88-6.15s-5.88,2.49-5.88,6.15,2.52,6.15,5.88,6.15,5.88-2.46,5.88-6.15Z"/>
        <path class="cls-3" d="m665.85,202.29v2.07c-.18,0-.36-.03-.51-.03-3.3,0-5.31,2.1-5.31,5.82v8.04h-2.13v-15.78h2.04v3.09c.99-2.1,3-3.21,5.91-3.21Z"/>
        <path class="cls-3" d="m683.28,210.96h-13.2c.24,3.3,2.76,5.49,6.21,5.49,1.92,0,3.63-.69,4.83-2.07l1.2,1.38c-1.41,1.68-3.6,2.58-6.09,2.58-4.92,0-8.28-3.36-8.28-8.04s3.27-8.01,7.71-8.01,7.65,3.27,7.65,8.01c0,.18-.03.42-.03.66Zm-13.2-1.59h11.19c-.27-3.09-2.52-5.25-5.61-5.25s-5.31,2.16-5.58,5.25Z"/>
        <path class="cls-3" d="m685.47,216.39l.96-1.68c1.26.99,3.39,1.77,5.61,1.77,3,0,4.23-1.02,4.23-2.58,0-4.11-10.23-.87-10.23-7.11,0-2.58,2.22-4.5,6.24-4.5,2.04,0,4.26.57,5.58,1.47l-.93,1.71c-1.38-.96-3.03-1.35-4.65-1.35-2.85,0-4.11,1.11-4.11,2.61,0,4.26,10.23,1.05,10.23,7.11,0,2.73-2.4,4.5-6.51,4.5-2.61,0-5.13-.84-6.42-1.95Z"/>
        <path class="cls-3" d="m716.07,210.96h-13.2c.24,3.3,2.76,5.49,6.21,5.49,1.92,0,3.63-.69,4.83-2.07l1.2,1.38c-1.41,1.68-3.6,2.58-6.09,2.58-4.92,0-8.28-3.36-8.28-8.04s3.27-8.01,7.71-8.01,7.65,3.27,7.65,8.01c0,.18-.03.42-.03.66Zm-13.2-1.59h11.19c-.27-3.09-2.52-5.25-5.61-5.25s-5.31,2.16-5.58,5.25Z"/>
        <path class="cls-3" d="m734.97,209.04v9.15h-2.13v-8.94c0-3.33-1.74-5.04-4.74-5.04-3.39,0-5.52,2.1-5.52,5.7v8.28h-2.13v-15.78h2.04v2.91c1.14-1.92,3.27-3.03,6-3.03,3.84,0,6.48,2.22,6.48,6.75Z"/>
        <path class="cls-3" d="m749.07,217.23c-.84.75-2.1,1.11-3.33,1.11-2.97,0-4.62-1.68-4.62-4.59v-9.54h-2.82v-1.8h2.82v-3.45h2.13v3.45h4.8v1.8h-4.8v9.42c0,1.86.96,2.88,2.73,2.88.87,0,1.74-.27,2.34-.81l.75,1.53Z"/>
        <path class="cls-3" d="m766.11,210.96h-13.2c.24,3.3,2.76,5.49,6.21,5.49,1.92,0,3.63-.69,4.83-2.07l1.2,1.38c-1.41,1.68-3.6,2.58-6.09,2.58-4.92,0-8.28-3.36-8.28-8.04s3.27-8.01,7.71-8.01,7.65,3.27,7.65,8.01c0,.18-.03.42-.03.66Zm-13.2-1.59h11.19c-.27-3.09-2.52-5.25-5.61-5.25s-5.31,2.16-5.58,5.25Z"/>
        <path class="cls-3" d="m772.32,216.69c0,.51-.12.9-.42,1.74l-1.26,4.14h-1.44l1.02-4.35c-.63-.18-1.08-.75-1.08-1.53,0-.93.69-1.62,1.59-1.62s1.59.72,1.59,1.62Z"/>
        <path class="cls-3" d="m798.45,210.96h-13.2c.24,3.3,2.76,5.49,6.21,5.49,1.92,0,3.63-.69,4.83-2.07l1.2,1.38c-1.41,1.68-3.6,2.58-6.09,2.58-4.92,0-8.28-3.36-8.28-8.04s3.27-8.01,7.71-8.01,7.65,3.27,7.65,8.01c0,.18-.03.42-.03.66Zm-13.2-1.59h11.19c-.27-3.09-2.52-5.25-5.61-5.25s-5.31,2.16-5.58,5.25Z"/>
        <path class="cls-3" d="m815.79,202.41l-7.02,15.78h-2.19l-6.99-15.78h2.22l5.91,13.44,5.97-13.44h2.1Z"/>
        <path class="cls-3" d="m818.31,197.43c0-.81.69-1.5,1.56-1.5s1.56.66,1.56,1.47c0,.87-.66,1.56-1.56,1.56s-1.56-.69-1.56-1.53Zm.48,4.98h2.13v15.78h-2.13v-15.78Z"/>
        <path class="cls-3" d="m835.17,217.23c-.84.75-2.1,1.11-3.33,1.11-2.97,0-4.62-1.68-4.62-4.59v-9.54h-2.82v-1.8h2.82v-3.45h2.13v3.45h4.8v1.8h-4.8v9.42c0,1.86.96,2.88,2.73,2.88.87,0,1.74-.27,2.34-.81l.75,1.53Z"/>
        <path class="cls-3" d="m850.95,208.41v9.78h-2.04v-2.46c-.96,1.62-2.82,2.61-5.43,2.61-3.57,0-5.76-1.86-5.76-4.59,0-2.43,1.56-4.47,6.09-4.47h5.01v-.96c0-2.7-1.53-4.17-4.47-4.17-2.04,0-3.96.72-5.25,1.86l-.96-1.59c1.59-1.35,3.93-2.13,6.42-2.13,4.08,0,6.39,2.04,6.39,6.12Zm-2.13,5.04v-2.58h-4.95c-3.06,0-4.05,1.2-4.05,2.82,0,1.83,1.47,2.97,3.99,2.97s4.17-1.14,5.01-3.21Z"/>
        <path class="cls-3" d="m871.26,209.04v9.15h-2.13v-8.94c0-3.33-1.74-5.04-4.74-5.04-3.39,0-5.52,2.1-5.52,5.7v8.28h-2.13v-15.78h2.04v2.91c1.14-1.92,3.27-3.03,6-3.03,3.84,0,6.48,2.22,6.48,6.75Z"/>
        <path class="cls-3" d="m891.51,195.93v22.26h-2.04v-3.12c-1.29,2.13-3.48,3.27-6.09,3.27-4.5,0-7.86-3.27-7.86-8.04s3.36-8.01,7.86-8.01c2.52,0,4.68,1.08,6,3.12v-9.48h2.13Zm-2.1,14.37c0-3.69-2.52-6.15-5.85-6.15s-5.88,2.46-5.88,6.15,2.52,6.15,5.88,6.15,5.85-2.46,5.85-6.15Z"/>
        <path class="cls-3" d="m895.86,210.3c0-4.68,3.42-8.01,8.04-8.01s8.01,3.33,8.01,8.01-3.39,8.04-8.01,8.04-8.04-3.36-8.04-8.04Zm13.89,0c0-3.69-2.49-6.15-5.85-6.15s-5.88,2.46-5.88,6.15,2.52,6.15,5.88,6.15,5.85-2.46,5.85-6.15Z"/>
        <path class="cls-3" d="m915.39,209.13h7.86v1.86h-7.86v-1.86Z"/>
        <path class="cls-3" d="m925.83,216.39l.96-1.68c1.26.99,3.39,1.77,5.61,1.77,3,0,4.23-1.02,4.23-2.58,0-4.11-10.23-.87-10.23-7.11,0-2.58,2.22-4.5,6.24-4.5,2.04,0,4.26.57,5.58,1.47l-.93,1.71c-1.38-.96-3.03-1.35-4.65-1.35-2.85,0-4.11,1.11-4.11,2.61,0,4.26,10.23,1.05,10.23,7.11,0,2.73-2.4,4.5-6.51,4.5-2.61,0-5.13-.84-6.42-1.95Z"/>
        <path class="cls-3" d="m956.43,210.96h-13.2c.24,3.3,2.76,5.49,6.21,5.49,1.92,0,3.63-.69,4.83-2.07l1.2,1.38c-1.41,1.68-3.6,2.58-6.09,2.58-4.92,0-8.28-3.36-8.28-8.04s3.27-8.01,7.71-8.01,7.65,3.27,7.65,8.01c0,.18-.03.42-.03.66Zm-13.2-1.59h11.19c-.27-3.09-2.52-5.25-5.61-5.25s-5.31,2.16-5.58,5.25Z"/>
        <path class="cls-3" d="m980.58,208.41v9.78h-2.04v-2.46c-.96,1.62-2.82,2.61-5.43,2.61-3.57,0-5.76-1.86-5.76-4.59,0-2.43,1.56-4.47,6.09-4.47h5.01v-.96c0-2.7-1.53-4.17-4.47-4.17-2.04,0-3.96.72-5.25,1.86l-.96-1.59c1.59-1.35,3.93-2.13,6.42-2.13,4.08,0,6.39,2.04,6.39,6.12Zm-2.13,5.04v-2.58h-4.95c-3.06,0-4.05,1.2-4.05,2.82,0,1.83,1.47,2.97,3.99,2.97s4.17-1.14,5.01-3.21Z"/>
        <path class="cls-3" d="m1000.83,195.93v22.26h-2.04v-3.12c-1.29,2.13-3.48,3.27-6.09,3.27-4.5,0-7.86-3.27-7.86-8.04s3.36-8.01,7.86-8.01c2.52,0,4.68,1.08,6,3.12v-9.48h2.13Zm-2.1,14.37c0-3.69-2.52-6.15-5.85-6.15s-5.88,2.46-5.88,6.15,2.52,6.15,5.88,6.15,5.85-2.46,5.85-6.15Z"/>
        <path class="cls-3" d="m1001.1,223.14l.75-1.62c.63.54,1.47.81,2.46.81,1.68,0,2.61-1.02,2.61-2.97v-16.95h2.13v16.95c0,2.91-1.62,4.8-4.62,4.8-1.26,0-2.55-.33-3.33-1.02Zm5.34-25.71c0-.81.69-1.5,1.56-1.5s1.56.66,1.56,1.47c0,.87-.66,1.56-1.56,1.56s-1.56-.69-1.56-1.53Z"/>
        <path class="cls-3" d="m1028.73,210.96h-13.2c.24,3.3,2.76,5.49,6.21,5.49,1.92,0,3.63-.69,4.83-2.07l1.2,1.38c-1.41,1.68-3.6,2.58-6.09,2.58-4.92,0-8.28-3.36-8.28-8.04s3.27-8.01,7.71-8.01,7.65,3.27,7.65,8.01c0,.18-.03.42-.03.66Zm-13.2-1.59h11.19c-.27-3.09-2.52-5.25-5.61-5.25s-5.31,2.16-5.58,5.25Z"/>
        <path class="cls-3" d="m1041.42,217.23c-.84.75-2.1,1.11-3.33,1.11-2.97,0-4.62-1.68-4.62-4.59v-9.54h-2.82v-1.8h2.82v-3.45h2.13v3.45h4.8v1.8h-4.8v9.42c0,1.86.96,2.88,2.73,2.88.87,0,1.74-.27,2.34-.81l.75,1.53Z"/>
        <path class="cls-3" d="m1044.81,197.43c0-.81.69-1.5,1.56-1.5s1.56.66,1.56,1.47c0,.87-.66,1.56-1.56,1.56s-1.56-.69-1.56-1.53Zm.48,4.98h2.13v15.78h-2.13v-15.78Z"/>
        <path class="cls-3" d="m1066.62,202.41l-7.02,15.78h-2.19l-6.99-15.78h2.22l5.91,13.44,5.97-13.44h2.1Z"/>
        <path class="cls-3" d="m1067.58,210.3c0-4.68,3.42-8.01,8.04-8.01s8.01,3.33,8.01,8.01-3.39,8.04-8.01,8.04-8.04-3.36-8.04-8.04Zm13.89,0c0-3.69-2.49-6.15-5.85-6.15s-5.88,2.46-5.88,6.15,2.52,6.15,5.88,6.15,5.85-2.46,5.85-6.15Z"/>
        <path class="cls-3" d="m1085.79,216.39l.96-1.68c1.26.99,3.39,1.77,5.61,1.77,3,0,4.23-1.02,4.23-2.58,0-4.11-10.23-.87-10.23-7.11,0-2.58,2.22-4.5,6.24-4.5,2.04,0,4.26.57,5.58,1.47l-.93,1.71c-1.38-.96-3.03-1.35-4.65-1.35-2.85,0-4.11,1.11-4.11,2.61,0,4.26,10.23,1.05,10.23,7.11,0,2.73-2.4,4.5-6.51,4.5-2.61,0-5.13-.84-6.42-1.95Z"/>
        <path class="cls-3" d="m1124.25,210.96h-13.2c.24,3.3,2.76,5.49,6.21,5.49,1.92,0,3.63-.69,4.83-2.07l1.2,1.38c-1.41,1.68-3.6,2.58-6.09,2.58-4.92,0-8.28-3.36-8.28-8.04s3.27-8.01,7.71-8.01,7.65,3.27,7.65,8.01c0,.18-.03.42-.03.66Zm-13.2-1.59h11.19c-.27-3.09-2.52-5.25-5.61-5.25s-5.31,2.16-5.58,5.25Z"/>
        <path class="cls-3" d="m84.19,248.04v9.15h-2.13v-8.94c0-3.33-1.74-5.04-4.74-5.04-3.39,0-5.52,2.1-5.52,5.7v8.28h-2.13v-15.78h2.04v2.91c1.14-1.92,3.27-3.03,6-3.03,3.84,0,6.48,2.22,6.48,6.75Z"/>
        <path class="cls-3" d="m103.78,249.96h-13.2c.24,3.3,2.76,5.49,6.21,5.49,1.92,0,3.63-.69,4.83-2.07l1.2,1.38c-1.41,1.68-3.6,2.58-6.09,2.58-4.92,0-8.28-3.36-8.28-8.04s3.27-8.01,7.71-8.01,7.65,3.27,7.65,8.01c0,.18-.03.42-.03.66Zm-13.2-1.59h11.19c-.27-3.09-2.52-5.25-5.61-5.25s-5.31,2.16-5.58,5.25Z"/>
        <path class="cls-3" d="m106.57,249.3c0-4.68,3.42-8.01,8.04-8.01s8.01,3.33,8.01,8.01-3.39,8.04-8.01,8.04-8.04-3.36-8.04-8.04Zm13.89,0c0-3.69-2.49-6.15-5.85-6.15s-5.88,2.46-5.88,6.15,2.52,6.15,5.88,6.15,5.85-2.46,5.85-6.15Z"/>
        <path class="cls-3" d="m126.97,234.93h2.13v22.26h-2.13v-22.26Z"/>
        <path class="cls-3" d="m133.45,249.3c0-4.68,3.42-8.01,8.04-8.01s8.01,3.33,8.01,8.01-3.39,8.04-8.01,8.04-8.04-3.36-8.04-8.04Zm13.89,0c0-3.69-2.49-6.15-5.85-6.15s-5.88,2.46-5.88,6.15,2.52,6.15,5.88,6.15,5.85-2.46,5.85-6.15Z"/>
        <path class="cls-3" d="m168.46,241.41v13.86c0,5.43-2.67,7.89-7.89,7.89-2.88,0-5.7-.87-7.35-2.43l1.08-1.62c1.5,1.35,3.78,2.16,6.21,2.16,3.99,0,5.82-1.83,5.82-5.73v-2.01c-1.32,2.01-3.57,3.06-6.15,3.06-4.5,0-7.92-3.15-7.92-7.68s3.42-7.62,7.92-7.62c2.64,0,4.92,1.08,6.24,3.15v-3.03h2.04Zm-2.07,7.5c0-3.42-2.52-5.76-6-5.76s-5.97,2.34-5.97,5.76,2.49,5.79,5.97,5.79,6-2.37,6-5.79Z"/>
        <path class="cls-3" d="m173.95,236.43c0-.81.69-1.5,1.56-1.5s1.56.66,1.56,1.47c0,.87-.66,1.56-1.56,1.56s-1.56-.69-1.56-1.53Zm.48,4.98h2.13v15.78h-2.13v-15.78Z"/>
        <path class="cls-3" d="m180.31,255.39l.96-1.68c1.26.99,3.39,1.77,5.61,1.77,3,0,4.23-1.02,4.23-2.58,0-4.11-10.23-.87-10.23-7.11,0-2.58,2.22-4.5,6.24-4.5,2.04,0,4.26.57,5.58,1.47l-.93,1.71c-1.38-.96-3.03-1.35-4.65-1.35-2.85,0-4.11,1.11-4.11,2.61,0,4.26,10.23,1.05,10.23,7.11,0,2.73-2.4,4.5-6.51,4.5-2.61,0-5.13-.84-6.42-1.95Z"/>
        <path class="cls-3" d="m223.21,248.04v9.15h-2.13v-8.94c0-3.33-1.68-5.04-4.53-5.04-3.24,0-5.28,2.1-5.28,5.7v8.28h-2.13v-8.94c0-3.33-1.68-5.04-4.56-5.04-3.21,0-5.28,2.1-5.28,5.7v8.28h-2.13v-15.78h2.04v2.88c1.11-1.89,3.15-3,5.79-3s4.65,1.11,5.61,3.33c1.14-2.04,3.39-3.33,6.24-3.33,3.84,0,6.36,2.22,6.36,6.75Z"/>
        <path class="cls-3" d="m227.47,249.3c0-4.68,3.42-8.01,8.04-8.01s8.01,3.33,8.01,8.01-3.39,8.04-8.01,8.04-8.04-3.36-8.04-8.04Zm13.89,0c0-3.69-2.49-6.15-5.85-6.15s-5.88,2.46-5.88,6.15,2.52,6.15,5.88,6.15,5.85-2.46,5.85-6.15Z"/>
        <path class="cls-3" d="m245.68,255.39l.96-1.68c1.26.99,3.39,1.77,5.61,1.77,3,0,4.23-1.02,4.23-2.58,0-4.11-10.23-.87-10.23-7.11,0-2.58,2.22-4.5,6.24-4.5,2.04,0,4.26.57,5.58,1.47l-.93,1.71c-1.38-.96-3.03-1.35-4.65-1.35-2.85,0-4.11,1.11-4.11,2.61,0,4.26,10.23,1.05,10.23,7.11,0,2.73-2.4,4.5-6.51,4.5-2.61,0-5.13-.84-6.42-1.95Z"/>
        <path class="cls-3" d="m284.8,234.93v22.26h-2.04v-3.12c-1.29,2.13-3.48,3.27-6.09,3.27-4.5,0-7.86-3.27-7.86-8.04s3.36-8.01,7.86-8.01c2.52,0,4.68,1.08,6,3.12v-9.48h2.13Zm-2.1,14.37c0-3.69-2.52-6.15-5.85-6.15s-5.88,2.46-5.88,6.15,2.52,6.15,5.88,6.15,5.85-2.46,5.85-6.15Z"/>
        <path class="cls-3" d="m304.48,249.96h-13.2c.24,3.3,2.76,5.49,6.21,5.49,1.92,0,3.63-.69,4.83-2.07l1.2,1.38c-1.41,1.68-3.6,2.58-6.09,2.58-4.92,0-8.28-3.36-8.28-8.04s3.27-8.01,7.71-8.01,7.65,3.27,7.65,8.01c0,.18-.03.42-.03.66Zm-13.2-1.59h11.19c-.27-3.09-2.52-5.25-5.61-5.25s-5.31,2.16-5.58,5.25Z"/>
        <path class="cls-3" d="m306.67,255.39l.96-1.68c1.26.99,3.39,1.77,5.61,1.77,3,0,4.23-1.02,4.23-2.58,0-4.11-10.23-.87-10.23-7.11,0-2.58,2.22-4.5,6.24-4.5,2.04,0,4.26.57,5.58,1.47l-.93,1.71c-1.38-.96-3.03-1.35-4.65-1.35-2.85,0-4.11,1.11-4.11,2.61,0,4.26,10.23,1.05,10.23,7.11,0,2.73-2.4,4.5-6.51,4.5-2.61,0-5.13-.84-6.42-1.95Z"/>
        <path class="cls-3" d="m338.05,248.04v9.15h-2.13v-8.94c0-3.33-1.74-5.04-4.74-5.04-3.39,0-5.52,2.1-5.52,5.7v8.28h-2.13v-15.78h2.04v2.91c1.14-1.92,3.27-3.03,6-3.03,3.84,0,6.48,2.22,6.48,6.75Z"/>
        <path class="cls-3" d="m357.64,249.96h-13.2c.24,3.3,2.76,5.49,6.21,5.49,1.92,0,3.63-.69,4.83-2.07l1.2,1.38c-1.41,1.68-3.6,2.58-6.09,2.58-4.92,0-8.28-3.36-8.28-8.04s3.27-8.01,7.71-8.01,7.65,3.27,7.65,8.01c0,.18-.03.42-.03.66Zm-13.2-1.59h11.19c-.27-3.09-2.52-5.25-5.61-5.25s-5.31,2.16-5.58,5.25Z"/>
        <path class="cls-3" d="m360.43,249.3c0-4.71,3.42-8.01,8.13-8.01,2.67,0,4.92,1.05,6.18,3.12l-1.59,1.08c-1.08-1.59-2.76-2.34-4.59-2.34-3.45,0-5.97,2.46-5.97,6.15s2.52,6.15,5.97,6.15c1.83,0,3.51-.72,4.59-2.31l1.59,1.08c-1.26,2.04-3.51,3.12-6.18,3.12-4.71,0-8.13-3.33-8.13-8.04Z"/>
        <path class="cls-3" d="m392.38,249.96h-13.2c.24,3.3,2.76,5.49,6.21,5.49,1.92,0,3.63-.69,4.83-2.07l1.2,1.38c-1.41,1.68-3.6,2.58-6.09,2.58-4.92,0-8.28-3.36-8.28-8.04s3.27-8.01,7.71-8.01,7.65,3.27,7.65,8.01c0,.18-.03.42-.03.66Zm-13.2-1.59h11.19c-.27-3.09-2.52-5.25-5.61-5.25s-5.31,2.16-5.58,5.25Z"/>
        <path class="cls-3" d="m394.57,255.39l.96-1.68c1.26.99,3.39,1.77,5.61,1.77,3,0,4.23-1.02,4.23-2.58,0-4.11-10.23-.87-10.23-7.11,0-2.58,2.22-4.5,6.24-4.5,2.04,0,4.26.57,5.58,1.47l-.93,1.71c-1.38-.96-3.03-1.35-4.65-1.35-2.85,0-4.11,1.11-4.11,2.61,0,4.26,10.23,1.05,10.23,7.11,0,2.73-2.4,4.5-6.51,4.5-2.61,0-5.13-.84-6.42-1.95Z"/>
        <path class="cls-3" d="m409.24,255.39l.96-1.68c1.26.99,3.39,1.77,5.61,1.77,3,0,4.23-1.02,4.23-2.58,0-4.11-10.23-.87-10.23-7.11,0-2.58,2.22-4.5,6.24-4.5,2.04,0,4.26.57,5.58,1.47l-.93,1.71c-1.38-.96-3.03-1.35-4.65-1.35-2.85,0-4.11,1.11-4.11,2.61,0,4.26,10.23,1.05,10.23,7.11,0,2.73-2.4,4.5-6.51,4.5-2.61,0-5.13-.84-6.42-1.95Z"/>
        <path class="cls-3" d="m438.01,247.41v9.78h-2.04v-2.46c-.96,1.62-2.82,2.61-5.43,2.61-3.57,0-5.76-1.86-5.76-4.59,0-2.43,1.56-4.47,6.09-4.47h5.01v-.96c0-2.7-1.53-4.17-4.47-4.17-2.04,0-3.96.72-5.25,1.86l-.96-1.59c1.59-1.35,3.93-2.13,6.42-2.13,4.08,0,6.39,2.04,6.39,6.12Zm-2.13,5.04v-2.58h-4.95c-3.06,0-4.05,1.2-4.05,2.82,0,1.83,1.47,2.97,3.99,2.97s4.17-1.14,5.01-3.21Zm-4.05-13.47h-2.1l4.11-3.72h2.85l-4.86,3.72Z"/>
        <path class="cls-3" d="m451.75,241.29v2.07c-.18,0-.36-.03-.51-.03-3.3,0-5.31,2.1-5.31,5.82v8.04h-2.13v-15.78h2.04v3.09c.99-2.1,3-3.21,5.91-3.21Z"/>
        <path class="cls-3" d="m455.11,236.43c0-.81.69-1.5,1.56-1.5s1.56.66,1.56,1.47c0,.87-.66,1.56-1.56,1.56s-1.56-.69-1.56-1.53Zm.48,4.98h2.13v15.78h-2.13v-15.78Z"/>
        <path class="cls-3" d="m462.07,249.3c0-4.68,3.42-8.01,8.04-8.01s8.01,3.33,8.01,8.01-3.39,8.04-8.01,8.04-8.04-3.36-8.04-8.04Zm13.89,0c0-3.69-2.49-6.15-5.85-6.15s-5.88,2.46-5.88,6.15,2.52,6.15,5.88,6.15,5.85-2.46,5.85-6.15Z"/>
        <path class="cls-3" d="m480.28,255.39l.96-1.68c1.26.99,3.39,1.77,5.61,1.77,3,0,4.23-1.02,4.23-2.58,0-4.11-10.23-.87-10.23-7.11,0-2.58,2.22-4.5,6.24-4.5,2.04,0,4.26.57,5.58,1.47l-.93,1.71c-1.38-.96-3.03-1.35-4.65-1.35-2.85,0-4.11,1.11-4.11,2.61,0,4.26,10.23,1.05,10.23,7.11,0,2.73-2.4,4.5-6.51,4.5-2.61,0-5.13-.84-6.42-1.95Z"/>
        <path class="cls-3" d="m495.76,255.69c0-.93.72-1.62,1.59-1.62s1.62.69,1.62,1.62-.75,1.65-1.62,1.65-1.59-.72-1.59-1.65Z"/>
      </g>
    </g>
  </g>
</svg>