<?xml version="1.0" encoding="UTF-8"?>
<svg id="Camada_2" data-name="Camada 2" xmlns="http://www.w3.org/2000/svg" viewBox="0 0 282.78 266.6">
  <defs>
    <style>
      .cls-1 {
        fill: #fff;
      }

      .cls-2 {
        fill: #0b8969;
      }
    </style>
  </defs>
  <g id="Layer_1" data-name="Layer 1">
    <g>
      <polygon class="cls-2" points="76.96 0 95.78 0 240.46 0 282.78 0 282.78 266.6 217.61 266.6 95.78 266.6 76.96 266.6 0 133.3 76.96 0"/>
      <g>
        <path class="cls-1" d="m173.01,132.91c0,25.99-10.48,43.84-31.94,43.84s-31.3-19.53-31.43-43.32c0-24.31,10.35-43.58,32.07-43.58s31.3,20.04,31.3,43.07Zm-43.58.52c-.13,19.27,4.53,28.45,12.16,28.45s11.77-9.57,11.77-28.71-4.01-28.45-11.9-28.45c-7.24,0-12.16,9.18-12.03,28.71Z"/>
        <path class="cls-1" d="m186.21,156.06c3.49,1.81,11.51,5.17,19.53,5.17,10.22,0,15.39-4.91,15.39-11.25,0-8.28-8.28-12.03-16.94-12.03h-8.02v-14.1h7.63c6.6-.13,15-2.59,15-9.7,0-5.04-4.14-8.79-12.42-8.79-6.85,0-14.1,2.98-17.59,5.04l-4.01-14.23c5.04-3.23,15.13-6.34,25.99-6.34,17.98,0,27.93,9.44,27.93,20.95,0,8.92-5.04,15.91-15.39,19.53v.26c10.09,1.81,18.23,9.44,18.23,20.43,0,14.87-13.06,25.74-34.4,25.74-10.86,0-20.05-2.85-24.96-5.95l4.01-14.74Z"/>
      </g>
    </g>
  </g>
</svg>