<?xml version="1.0" encoding="utf-8"?>
<!-- Generator: Adobe Illustrator 27.3.0, SVG Export Plug-In . SVG Version: 6.00 Build 0)  -->
<svg version="1.1" id="Layer_1" xmlns="http://www.w3.org/2000/svg" xmlns:xlink="http://www.w3.org/1999/xlink" x="0px" y="0px"
	 viewBox="0 0 296.2 290.1" style="enable-background:new 0 0 296.2 290.1;" xml:space="preserve">
<style type="text/css">
	.st0{fill:#07202C;}
	.st1{fill:#003049;}
	.st2{fill:#FFFFFF;}
</style>
<circle class="st0" cx="148.6" cy="145" r="114.4"/>
<g>
	<g>
		<path class="st1" d="M148.6,30.5C85.4,30.5,34.2,81.8,34.2,145H263C263,81.8,211.8,30.5,148.6,30.5L148.6,30.5z"/>
		<path class="st0" d="M148.6,259.4c63.2,0,114.4-51.2,114.4-114.4l0,0H34.2l0,0C34.2,208.2,85.4,259.4,148.6,259.4L148.6,259.4z"/>
	</g>
	<path class="st2" d="M195.2,213.3H104v-23.9h28.8v-72.2H104V94.9c4.4,0,8.6-0.3,12.7-0.8s7.4-1.4,10.1-2.7c3.2-1.5,5.6-3.5,7.2-6
		c1.6-2.4,2.5-5.5,2.8-9.2H167v113.2h28.2L195.2,213.3L195.2,213.3z"/>
</g>
</svg>
