<?xml version="1.0" encoding="UTF-8"?>
<svg id="Layer_1" data-name="Layer 1" xmlns="http://www.w3.org/2000/svg" viewBox="0 0 1276.94 532.94">
  <defs>
    <style>
      .cls-1 {
        fill: #fff;
      }

      .cls-2 {
        fill: #a4c8cb;
      }

      .cls-3 {
        stroke: #c0ffe1;
      }

      .cls-3, .cls-4 {
        fill: none;
        stroke-miterlimit: 10;
      }

      .cls-5 {
        fill: #f4f9f9;
      }

      .cls-4 {
        stroke: #008082;
      }

      .cls-6 {
        fill: #008082;
      }
    </style>
  </defs>
  <g>
    <rect class="cls-4" x="86.18" y="137.71" width="1154.06" height="342.99"/>
    <rect class="cls-5" x="46.84" y="91.64" width="1169.04" height="360.83"/>
    <g>
      <polygon class="cls-2" points="110.56 79.93 70.71 79.93 50.78 114.44 70.71 148.95 110.56 148.95 130.48 114.44 110.56 79.93"/>
      <polygon class="cls-2" points="125.52 52.88 85.67 52.88 65.75 87.39 85.67 121.9 125.52 121.9 145.44 87.39 125.52 52.88"/>
      <polygon class="cls-6" points="123.45 56.62 72.3 56.62 46.73 100.92 72.3 145.21 123.45 145.21 149.02 100.92 123.45 56.62"/>
      <line class="cls-3" x1="139.86" y1="101.2" x2="119.44" y2="65.83"/>
      <line class="cls-3" x1="58.18" y1="101.2" x2="78.6" y2="136.57"/>
      <polygon class="cls-6" points="107.6 45.87 105.22 45.87 104.49 47.13 67.34 47.13 48.8 79.25 47.09 79.25 45.9 81.31 47.09 83.38 49.48 83.38 50.67 81.31 49.8 79.81 68 48.28 104.22 48.28 105.22 50 107.6 50 108.8 47.93 107.6 45.87"/>
      <polygon class="cls-6" points="149.08 121.02 147.89 118.96 145.5 118.96 144.31 121.02 145.18 122.53 126.98 154.06 90.76 154.06 89.76 152.34 87.38 152.34 86.18 154.4 87.38 156.47 89.76 156.47 90.49 155.21 127.64 155.21 146.18 123.09 147.89 123.09 149.08 121.02"/>
      <path class="cls-1" d="m94.14,106.08c0,4.86-.01,9.54,0,14.22.01,3.22,1.85,5.14,4.85,5.13,3,0,4.8-1.93,4.82-5.17.02-4.18,0-8.37,0-12.55,0-.53,0-1.06,0-1.63,4.98,0,9.71.02,14.45,0,3-.02,4.88-1.89,4.9-4.78.02-2.96-1.87-4.86-4.94-4.88-4.23-.03-8.47,0-12.7,0-.53,0-1.07,0-1.71,0,0-4.87.01-9.55,0-14.23-.01-3.22-1.85-5.14-4.86-5.13-3,0-4.8,1.93-4.81,5.17-.01,4.18,0,8.37,0,12.55,0,.53,0,1.06,0,1.63-4.98,0-9.71-.02-14.45,0-3,.02-4.88,1.89-4.9,4.77-.02,2.96,1.87,4.87,4.94,4.89,4.73.03,9.46,0,14.41,0Z"/>
    </g>
  </g>
  <g>
    <path d="m147.19,244.81c0-5.3,4.06-9.26,9.57-9.26s9.54,3.93,9.54,9.26-4.08,9.26-9.54,9.26-9.57-3.95-9.57-9.26Zm17.19,0c0-4.34-3.25-7.54-7.62-7.54s-7.67,3.2-7.67,7.54,3.28,7.54,7.67,7.54,7.62-3.2,7.62-7.54Z"/>
    <path d="m175.65,247.07c0-4.08,2.96-6.94,7.05-6.94,2.31,0,4.26.91,5.36,2.7l-1.38.94c-.94-1.38-2.39-2.03-3.98-2.03-2.99,0-5.17,2.13-5.17,5.33s2.18,5.33,5.17,5.33c1.59,0,3.04-.62,3.98-2l1.38.94c-1.09,1.77-3.04,2.7-5.36,2.7-4.08,0-7.05-2.89-7.05-6.97Z"/>
    <path d="m190.06,247.07c0-4.06,2.96-6.94,6.97-6.94s6.94,2.89,6.94,6.94-2.94,6.97-6.94,6.97-6.97-2.91-6.97-6.97Zm12.04,0c0-3.2-2.16-5.33-5.07-5.33s-5.1,2.13-5.1,5.33,2.18,5.33,5.1,5.33,5.07-2.13,5.07-5.33Zm-3.22-12.17h2.47l-4.21,3.22h-1.82l3.56-3.22Z"/>
    <path d="m220.22,234.62v19.29h-1.77v-2.7c-1.12,1.85-3.02,2.83-5.28,2.83-3.9,0-6.81-2.83-6.81-6.97s2.91-6.94,6.81-6.94c2.18,0,4.06.94,5.2,2.7v-8.22h1.85Zm-1.82,12.45c0-3.2-2.18-5.33-5.07-5.33s-5.1,2.13-5.1,5.33,2.18,5.33,5.1,5.33,5.07-2.13,5.07-5.33Z"/>
    <path d="m224.95,235.92c0-.7.6-1.3,1.35-1.3s1.35.57,1.35,1.27c0,.75-.57,1.35-1.35,1.35s-1.35-.6-1.35-1.33Zm.42,4.32h1.85v13.68h-1.85v-13.68Z"/>
    <path d="m245.02,240.24v12.01c0,4.71-2.31,6.84-6.84,6.84-2.5,0-4.94-.75-6.37-2.11l.94-1.4c1.3,1.17,3.28,1.87,5.38,1.87,3.46,0,5.04-1.59,5.04-4.97v-1.74c-1.14,1.74-3.09,2.65-5.33,2.65-3.9,0-6.86-2.73-6.86-6.66s2.96-6.6,6.86-6.6c2.29,0,4.26.94,5.41,2.73v-2.63h1.77Zm-1.79,6.5c0-2.96-2.18-4.99-5.2-4.99s-5.17,2.03-5.17,4.99,2.16,5.02,5.17,5.02,5.2-2.05,5.2-5.02Z"/>
    <path d="m248.82,247.07c0-4.06,2.96-6.94,6.97-6.94s6.94,2.89,6.94,6.94-2.94,6.97-6.94,6.97-6.97-2.91-6.97-6.97Zm12.04,0c0-3.2-2.16-5.33-5.07-5.33s-5.1,2.13-5.1,5.33,2.18,5.33,5.1,5.33,5.07-2.13,5.07-5.33Z"/>
    <path d="m271.93,247.07c0-4.08,2.96-6.94,7.05-6.94,2.31,0,4.26.91,5.36,2.7l-1.38.94c-.94-1.38-2.39-2.03-3.98-2.03-2.99,0-5.17,2.13-5.17,5.33s2.18,5.33,5.17,5.33c1.59,0,3.04-.62,3.98-2l1.38.94c-1.09,1.77-3.04,2.7-5.36,2.7-4.08,0-7.05-2.89-7.05-6.97Z"/>
    <path d="m287.53,235.92c0-.7.6-1.3,1.35-1.3s1.35.57,1.35,1.27c0,.75-.57,1.35-1.35,1.35s-1.35-.6-1.35-1.33Zm.42,4.32h1.85v13.68h-1.85v-13.68Z"/>
    <path d="m306.43,240.24l-6.08,13.68h-1.9l-6.06-13.68h1.92l5.12,11.65,5.17-11.65h1.82Z"/>
    <path d="m308.62,235.92c0-.7.6-1.3,1.35-1.3s1.35.57,1.35,1.27c0,.75-.57,1.35-1.35,1.35s-1.35-.6-1.35-1.33Zm.42,4.32h1.85v13.68h-1.85v-13.68Z"/>
    <path d="m316.03,234.62h1.85v19.29h-1.85v-19.29Z"/>
    <path d="m331.94,238.62v1.61h4.21v1.56h-4.16v12.12h-1.85v-12.12h-2.44v-1.56h2.44v-1.69c0-2.44,1.46-4.06,4.13-4.06,1.01,0,2.05.29,2.73.86l-.62,1.38c-.52-.44-1.25-.68-2.03-.68-1.59,0-2.42.88-2.42,2.57Z"/>
    <path d="m337.04,247.07c0-4.06,2.96-6.94,6.97-6.94s6.94,2.89,6.94,6.94-2.94,6.97-6.94,6.97-6.97-2.91-6.97-6.97Zm12.04,0c0-3.2-2.16-5.33-5.07-5.33s-5.1,2.13-5.1,5.33,2.18,5.33,5.1,5.33,5.07-2.13,5.07-5.33Z"/>
    <path d="m354.3,235.92c0-.7.6-1.3,1.35-1.3s1.35.57,1.35,1.27c0,.75-.57,1.35-1.35,1.35s-1.35-.6-1.35-1.33Zm.42,4.32h1.85v13.68h-1.85v-13.68Z"/>
    <path d="m367.15,247.07c0-4.06,2.96-6.94,6.97-6.94s6.94,2.89,6.94,6.94-2.94,6.97-6.94,6.97-6.97-2.91-6.97-6.97Zm12.04,0c0-3.2-2.16-5.33-5.07-5.33s-5.1,2.13-5.1,5.33,2.18,5.33,5.1,5.33,5.07-2.13,5.07-5.33Z"/>
    <path d="m405.5,247.07c0,4.16-2.91,6.97-6.81,6.97-2.18,0-4.06-.94-5.2-2.7v7.62h-1.85v-18.72h1.77v2.7c1.12-1.82,3.02-2.81,5.28-2.81,3.9,0,6.81,2.81,6.81,6.94Zm-1.85,0c0-3.17-2.21-5.33-5.1-5.33s-5.1,2.16-5.1,5.33,2.18,5.33,5.1,5.33,5.1-2.13,5.1-5.33Z"/>
    <path d="m416.15,240.13v1.79c-.16,0-.31-.03-.44-.03-2.86,0-4.6,1.82-4.6,5.04v6.97h-1.85v-13.68h1.77v2.68c.86-1.82,2.6-2.78,5.12-2.78Z"/>
    <path d="m419.07,235.92c0-.7.6-1.3,1.35-1.3s1.35.57,1.35,1.27c0,.75-.57,1.35-1.35,1.35s-1.35-.6-1.35-1.33Zm.42,4.32h1.85v13.68h-1.85v-13.68Z"/>
    <path d="m449.05,245.98v7.93h-1.85v-7.75c0-2.89-1.46-4.37-3.93-4.37-2.81,0-4.58,1.82-4.58,4.94v7.18h-1.85v-7.75c0-2.89-1.46-4.37-3.95-4.37-2.78,0-4.58,1.82-4.58,4.94v7.18h-1.85v-13.68h1.77v2.5c.96-1.64,2.73-2.6,5.02-2.6s4.03.96,4.86,2.89c.99-1.77,2.94-2.89,5.41-2.89,3.33,0,5.51,1.92,5.51,5.85Z"/>
    <path d="m466.02,247.65h-11.44c.21,2.86,2.39,4.76,5.38,4.76,1.66,0,3.15-.6,4.19-1.79l1.04,1.2c-1.22,1.46-3.12,2.24-5.28,2.24-4.26,0-7.18-2.91-7.18-6.97s2.83-6.94,6.68-6.94,6.63,2.83,6.63,6.94c0,.16-.03.36-.03.57Zm-11.44-1.38h9.7c-.23-2.68-2.18-4.55-4.86-4.55s-4.6,1.87-4.84,4.55Z"/>
    <path d="m469.4,235.92c0-.7.6-1.3,1.35-1.3s1.35.57,1.35,1.27c0,.75-.57,1.35-1.35,1.35s-1.35-.6-1.35-1.33Zm.42,4.32h1.85v13.68h-1.85v-13.68Z"/>
    <path d="m483.7,240.13v1.79c-.16,0-.31-.03-.44-.03-2.86,0-4.6,1.82-4.6,5.04v6.97h-1.85v-13.68h1.77v2.68c.86-1.82,2.6-2.78,5.12-2.78Z"/>
    <path d="m485.52,247.07c0-4.06,2.96-6.94,6.97-6.94s6.94,2.89,6.94,6.94-2.94,6.97-6.94,6.97-6.97-2.91-6.97-6.97Zm12.04,0c0-3.2-2.16-5.33-5.07-5.33s-5.1,2.13-5.1,5.33,2.18,5.33,5.1,5.33,5.07-2.13,5.07-5.33Z"/>
    <path d="m521.92,247.65h-11.44c.21,2.86,2.39,4.76,5.38,4.76,1.66,0,3.15-.6,4.19-1.79l1.04,1.2c-1.22,1.46-3.12,2.24-5.28,2.24-4.26,0-7.18-2.91-7.18-6.97s2.83-6.94,6.68-6.94,6.63,2.83,6.63,6.94c0,.16-.03.36-.03.57Zm-11.44-1.38h9.7c-.23-2.68-2.18-4.55-4.86-4.55s-4.6,1.87-4.84,4.55Z"/>
    <path d="m555.1,245.98v7.93h-1.85v-7.75c0-2.89-1.46-4.37-3.93-4.37-2.81,0-4.58,1.82-4.58,4.94v7.18h-1.85v-7.75c0-2.89-1.46-4.37-3.95-4.37-2.78,0-4.58,1.82-4.58,4.94v7.18h-1.85v-13.68h1.77v2.5c.96-1.64,2.73-2.6,5.02-2.6s4.03.96,4.86,2.89c.99-1.77,2.94-2.89,5.41-2.89,3.33,0,5.51,1.92,5.51,5.85Z"/>
    <path d="m570.44,245.44v8.48h-1.77v-2.13c-.83,1.4-2.44,2.26-4.71,2.26-3.09,0-4.99-1.61-4.99-3.98,0-2.11,1.35-3.87,5.28-3.87h4.34v-.83c0-2.34-1.33-3.61-3.87-3.61-1.77,0-3.43.62-4.55,1.61l-.83-1.38c1.38-1.17,3.41-1.85,5.56-1.85,3.54,0,5.54,1.77,5.54,5.3Zm-1.85,4.37v-2.24h-4.29c-2.65,0-3.51,1.04-3.51,2.44,0,1.59,1.27,2.57,3.46,2.57s3.61-.99,4.34-2.78Z"/>
    <path d="m575.04,235.92c0-.7.6-1.3,1.35-1.3s1.35.57,1.35,1.27c0,.75-.57,1.35-1.35,1.35s-1.35-.6-1.35-1.33Zm.42,4.32h1.85v13.68h-1.85v-13.68Z"/>
    <path d="m580.55,252.35l.83-1.46c1.09.86,2.94,1.53,4.86,1.53,2.6,0,3.67-.88,3.67-2.24,0-3.56-8.87-.75-8.87-6.16,0-2.24,1.92-3.9,5.41-3.9,1.77,0,3.69.49,4.84,1.27l-.81,1.48c-1.2-.83-2.63-1.17-4.03-1.17-2.47,0-3.56.96-3.56,2.26,0,3.69,8.87.91,8.87,6.16,0,2.37-2.08,3.9-5.64,3.9-2.26,0-4.45-.73-5.56-1.69Z"/>
    <path d="m601.56,235.92c0-.7.6-1.3,1.35-1.3s1.35.57,1.35,1.27c0,.75-.57,1.35-1.35,1.35s-1.35-.6-1.35-1.33Zm.42,4.32h1.85v13.68h-1.85v-13.68Z"/>
    <path d="m631.54,245.98v7.93h-1.85v-7.75c0-2.89-1.46-4.37-3.93-4.37-2.81,0-4.58,1.82-4.58,4.94v7.18h-1.85v-7.75c0-2.89-1.46-4.37-3.95-4.37-2.78,0-4.58,1.82-4.58,4.94v7.18h-1.85v-13.68h1.77v2.5c.96-1.64,2.73-2.6,5.02-2.6s4.03.96,4.86,2.89c.99-1.77,2.94-2.89,5.41-2.89,3.33,0,5.51,1.92,5.51,5.85Z"/>
    <path d="m650.41,247.07c0,4.16-2.91,6.97-6.81,6.97-2.18,0-4.06-.94-5.2-2.7v7.62h-1.85v-18.72h1.77v2.7c1.12-1.82,3.02-2.81,5.28-2.81,3.9,0,6.81,2.81,6.81,6.94Zm-1.85,0c0-3.17-2.21-5.33-5.1-5.33s-5.1,2.16-5.1,5.33,2.18,5.33,5.1,5.33,5.1-2.13,5.1-5.33Z"/>
    <path d="m652.81,247.07c0-4.06,2.96-6.94,6.97-6.94s6.94,2.89,6.94,6.94-2.94,6.97-6.94,6.97-6.97-2.91-6.97-6.97Zm12.04,0c0-3.2-2.16-5.33-5.07-5.33s-5.1,2.13-5.1,5.33,2.18,5.33,5.1,5.33,5.07-2.13,5.07-5.33Z"/>
    <path d="m677.38,240.13v1.79c-.16,0-.31-.03-.44-.03-2.86,0-4.6,1.82-4.6,5.04v6.97h-1.85v-13.68h1.77v2.68c.86-1.82,2.6-2.78,5.12-2.78Z"/>
    <path d="m688.5,253.08c-.73.65-1.82.96-2.89.96-2.57,0-4-1.46-4-3.98v-8.27h-2.44v-1.56h2.44v-2.99h1.85v2.99h4.16v1.56h-4.16v8.17c0,1.61.83,2.5,2.37,2.5.75,0,1.51-.23,2.03-.7l.65,1.33Z"/>
    <path d="m702.18,245.44v8.48h-1.77v-2.13c-.83,1.4-2.44,2.26-4.71,2.26-3.09,0-4.99-1.61-4.99-3.98,0-2.11,1.35-3.87,5.28-3.87h4.34v-.83c0-2.34-1.33-3.61-3.87-3.61-1.77,0-3.43.62-4.55,1.61l-.83-1.38c1.38-1.17,3.41-1.85,5.56-1.85,3.54,0,5.54,1.77,5.54,5.3Zm-1.85,4.37v-2.24h-4.29c-2.65,0-3.51,1.04-3.51,2.44,0,1.59,1.27,2.57,3.46,2.57s3.61-.99,4.34-2.78Z"/>
    <path d="m719.78,245.98v7.93h-1.85v-7.75c0-2.89-1.51-4.37-4.11-4.37-2.94,0-4.78,1.82-4.78,4.94v7.18h-1.85v-13.68h1.77v2.52c.99-1.66,2.83-2.63,5.2-2.63,3.33,0,5.62,1.92,5.62,5.85Z"/>
    <path d="m732,253.08c-.73.65-1.82.96-2.89.96-2.57,0-4-1.46-4-3.98v-8.27h-2.44v-1.56h2.44v-2.99h1.85v2.99h4.16v1.56h-4.16v8.17c0,1.61.83,2.5,2.37,2.5.75,0,1.51-.23,2.03-.7l.65,1.33Z"/>
    <path d="m746.77,247.65h-11.44c.21,2.86,2.39,4.76,5.38,4.76,1.66,0,3.15-.6,4.19-1.79l1.04,1.2c-1.22,1.46-3.12,2.24-5.28,2.24-4.26,0-7.18-2.91-7.18-6.97s2.83-6.94,6.68-6.94,6.63,2.83,6.63,6.94c0,.16-.03.36-.03.57Zm-11.44-1.38h9.7c-.23-2.68-2.18-4.55-4.86-4.55s-4.6,1.87-4.84,4.55Z"/>
    <path d="m756,247.07c0-4.08,2.96-6.94,7.05-6.94,2.31,0,4.26.91,5.36,2.7l-1.38.94c-.94-1.38-2.39-2.03-3.98-2.03-2.99,0-5.17,2.13-5.17,5.33s2.18,5.33,5.17,5.33c1.59,0,3.04-.62,3.98-2l1.38.94c-1.09,1.77-3.04,2.7-5.36,2.7-4.08,0-7.05-2.89-7.05-6.97Z"/>
    <path d="m770.4,247.07c0-4.06,2.96-6.94,6.97-6.94s6.94,2.89,6.94,6.94-2.94,6.97-6.94,6.97-6.97-2.91-6.97-6.97Zm12.04,0c0-3.2-2.16-5.33-5.07-5.33s-5.1,2.13-5.1,5.33,2.18,5.33,5.1,5.33,5.07-2.13,5.07-5.33Zm-3.22-12.17h2.47l-4.21,3.22h-1.82l3.56-3.22Z"/>
    <path d="m800.56,234.62v19.29h-1.77v-2.7c-1.12,1.85-3.02,2.83-5.28,2.83-3.9,0-6.81-2.83-6.81-6.97s2.91-6.94,6.81-6.94c2.18,0,4.06.94,5.2,2.7v-8.22h1.85Zm-1.82,12.45c0-3.2-2.18-5.33-5.07-5.33s-5.1,2.13-5.1,5.33,2.18,5.33,5.1,5.33,5.07-2.13,5.07-5.33Z"/>
    <path d="m805.29,235.92c0-.7.6-1.3,1.35-1.3s1.35.57,1.35,1.27c0,.75-.57,1.35-1.35,1.35s-1.35-.6-1.35-1.33Zm.42,4.32h1.85v13.68h-1.85v-13.68Z"/>
    <path d="m825.37,240.24v12.01c0,4.71-2.31,6.84-6.84,6.84-2.5,0-4.94-.75-6.37-2.11l.94-1.4c1.3,1.17,3.28,1.87,5.38,1.87,3.46,0,5.04-1.59,5.04-4.97v-1.74c-1.14,1.74-3.09,2.65-5.33,2.65-3.9,0-6.86-2.73-6.86-6.66s2.96-6.6,6.86-6.6c2.29,0,4.26.94,5.41,2.73v-2.63h1.77Zm-1.79,6.5c0-2.96-2.18-4.99-5.2-4.99s-5.17,2.03-5.17,4.99,2.16,5.02,5.17,5.02,5.2-2.05,5.2-5.02Z"/>
    <path d="m829.16,247.07c0-4.06,2.96-6.94,6.97-6.94s6.94,2.89,6.94,6.94-2.94,6.97-6.94,6.97-6.97-2.91-6.97-6.97Zm12.04,0c0-3.2-2.16-5.33-5.07-5.33s-5.1,2.13-5.1,5.33,2.18,5.33,5.1,5.33,5.07-2.13,5.07-5.33Z"/>
    <path d="m848.04,252.61c0,.44-.1.78-.36,1.51l-1.09,3.59h-1.25l.88-3.77c-.55-.16-.94-.65-.94-1.33,0-.81.6-1.4,1.38-1.4s1.38.62,1.38,1.4Z"/>
    <path d="m872.63,247.07c0,4.16-2.91,6.97-6.81,6.97-2.18,0-4.06-.94-5.2-2.7v7.62h-1.85v-18.72h1.77v2.7c1.12-1.82,3.02-2.81,5.28-2.81,3.9,0,6.81,2.81,6.81,6.94Zm-1.85,0c0-3.17-2.21-5.33-5.1-5.33s-5.1,2.16-5.1,5.33,2.18,5.33,5.1,5.33,5.1-2.13,5.1-5.33Z"/>
    <path d="m875.02,247.07c0-4.06,2.96-6.94,6.97-6.94s6.94,2.89,6.94,6.94-2.94,6.97-6.94,6.97-6.97-2.91-6.97-6.97Zm12.04,0c0-3.2-2.16-5.33-5.07-5.33s-5.1,2.13-5.1,5.33,2.18,5.33,5.1,5.33,5.07-2.13,5.07-5.33Z"/>
    <path d="m892.29,235.92c0-.7.6-1.3,1.35-1.3s1.35.57,1.35,1.27c0,.75-.57,1.35-1.35,1.35s-1.35-.6-1.35-1.33Zm.42,4.32h1.85v13.68h-1.85v-13.68Z"/>
    <path d="m897.8,252.35l.83-1.46c1.09.86,2.94,1.53,4.86,1.53,2.6,0,3.67-.88,3.67-2.24,0-3.56-8.87-.75-8.87-6.16,0-2.24,1.92-3.9,5.41-3.9,1.77,0,3.69.49,4.84,1.27l-.81,1.48c-1.2-.83-2.63-1.17-4.03-1.17-2.47,0-3.56.96-3.56,2.26,0,3.69,8.87.91,8.87,6.16,0,2.37-2.08,3.9-5.64,3.9-2.26,0-4.45-.73-5.56-1.69Z"/>
    <path d="m926.11,240.13v1.79c-.16,0-.31-.03-.44-.03-2.86,0-4.6,1.82-4.6,5.04v6.97h-1.85v-13.68h1.77v2.68c.86-1.82,2.6-2.78,5.12-2.78Z"/>
    <path d="m941.22,247.65h-11.44c.21,2.86,2.39,4.76,5.38,4.76,1.66,0,3.15-.6,4.19-1.79l1.04,1.2c-1.22,1.46-3.12,2.24-5.28,2.24-4.26,0-7.18-2.91-7.18-6.97s2.83-6.94,6.68-6.94,6.63,2.83,6.63,6.94c0,.16-.03.36-.03.57Zm-11.44-1.38h9.7c-.23-2.68-2.18-4.55-4.86-4.55s-4.6,1.87-4.84,4.55Z"/>
    <path d="m957.68,240.24v12.01c0,4.71-2.31,6.84-6.84,6.84-2.5,0-4.94-.75-6.37-2.11l.94-1.4c1.3,1.17,3.28,1.87,5.38,1.87,3.46,0,5.04-1.59,5.04-4.97v-1.74c-1.14,1.74-3.09,2.65-5.33,2.65-3.9,0-6.86-2.73-6.86-6.66s2.96-6.6,6.86-6.6c2.29,0,4.26.94,5.41,2.73v-2.63h1.77Zm-1.79,6.5c0-2.96-2.18-4.99-5.2-4.99s-5.17,2.03-5.17,4.99,2.16,5.02,5.17,5.02,5.2-2.05,5.2-5.02Z"/>
    <path d="m975.18,240.24v13.68h-1.77v-2.5c-.96,1.66-2.73,2.63-4.92,2.63-3.48,0-5.77-1.95-5.77-5.88v-7.93h1.85v7.75c0,2.91,1.51,4.39,4.11,4.39,2.86,0,4.65-1.85,4.65-4.97v-7.18h1.85Z"/>
    <path d="m980.35,234.62h1.85v19.29h-1.85v-19.29Z"/>
    <path d="m997.67,245.44v8.48h-1.77v-2.13c-.83,1.4-2.44,2.26-4.71,2.26-3.09,0-4.99-1.61-4.99-3.98,0-2.11,1.35-3.87,5.28-3.87h4.34v-.83c0-2.34-1.33-3.61-3.87-3.61-1.77,0-3.43.62-4.55,1.61l-.83-1.38c1.38-1.17,3.41-1.85,5.56-1.85,3.54,0,5.54,1.77,5.54,5.3Zm-1.85,4.37v-2.24h-4.29c-2.65,0-3.51,1.04-3.51,2.44,0,1.59,1.27,2.57,3.46,2.57s3.61-.99,4.34-2.78Z"/>
    <path d="m1013.92,240.24l-6.08,13.68h-1.9l-6.06-13.68h1.92l5.12,11.65,5.17-11.65h1.82Z"/>
    <path d="m1026.42,245.44v8.48h-1.77v-2.13c-.83,1.4-2.44,2.26-4.71,2.26-3.09,0-4.99-1.61-4.99-3.98,0-2.11,1.35-3.87,5.28-3.87h4.34v-.83c0-2.34-1.33-3.61-3.87-3.61-1.77,0-3.43.62-4.55,1.61l-.83-1.38c1.38-1.17,3.41-1.85,5.56-1.85,3.54,0,5.54,1.77,5.54,5.3Zm-1.85,4.37v-2.24h-4.29c-2.65,0-3.51,1.04-3.51,2.44,0,1.59,1.27,2.57,3.46,2.57s3.61-.99,4.34-2.78Z"/>
    <path d="m1048.57,245.44v8.48h-1.77v-2.13c-.83,1.4-2.44,2.26-4.71,2.26-3.09,0-4.99-1.61-4.99-3.98,0-2.11,1.35-3.87,5.28-3.87h4.34v-.83c0-2.34-1.33-3.61-3.88-3.61-1.77,0-3.43.62-4.55,1.61l-.83-1.38c1.38-1.17,3.41-1.85,5.56-1.85,3.54,0,5.54,1.77,5.54,5.3Zm-1.85,4.37v-2.24h-4.29c-2.65,0-3.51,1.04-3.51,2.44,0,1.59,1.27,2.57,3.46,2.57s3.61-.99,4.34-2.78Z"/>
    <path d="m1071.9,240.24l-6.08,13.68h-1.9l-6.06-13.68h1.92l5.12,11.65,5.17-11.65h1.82Z"/>
    <path d="m1074.08,235.92c0-.7.6-1.3,1.35-1.3s1.35.57,1.35,1.27c0,.75-.57,1.35-1.35,1.35s-1.35-.6-1.35-1.33Zm.42,4.32h1.85v13.68h-1.85v-13.68Z"/>
    <path d="m1093.97,234.62v19.29h-1.77v-2.7c-1.12,1.85-3.02,2.83-5.28,2.83-3.9,0-6.81-2.83-6.81-6.97s2.91-6.94,6.81-6.94c2.18,0,4.06.94,5.2,2.7v-8.22h1.85Zm-1.82,12.45c0-3.2-2.18-5.33-5.07-5.33s-5.1,2.13-5.1,5.33,2.18,5.33,5.1,5.33,5.07-2.13,5.07-5.33Z"/>
    <path d="m1109.44,245.44v8.48h-1.77v-2.13c-.83,1.4-2.44,2.26-4.71,2.26-3.09,0-4.99-1.61-4.99-3.98,0-2.11,1.35-3.87,5.28-3.87h4.34v-.83c0-2.34-1.33-3.61-3.88-3.61-1.77,0-3.43.62-4.55,1.61l-.83-1.38c1.38-1.17,3.41-1.85,5.56-1.85,3.54,0,5.54,1.77,5.54,5.3Zm-1.85,4.37v-2.24h-4.29c-2.65,0-3.51,1.04-3.51,2.44,0,1.59,1.27,2.57,3.46,2.57s3.61-.99,4.34-2.78Z"/>
    <path d="m162.27,287.07c0,4.16-2.91,6.97-6.81,6.97-2.18,0-4.06-.94-5.2-2.7v7.62h-1.85v-18.72h1.77v2.7c1.12-1.82,3.02-2.81,5.28-2.81,3.9,0,6.81,2.81,6.81,6.94Zm-1.85,0c0-3.17-2.21-5.33-5.1-5.33s-5.1,2.16-5.1,5.33,2.18,5.33,5.1,5.33,5.1-2.13,5.1-5.33Z"/>
    <path d="m172.93,280.13v1.79c-.16,0-.31-.03-.44-.03-2.86,0-4.6,1.82-4.6,5.04v6.97h-1.85v-13.68h1.77v2.68c.86-1.82,2.6-2.78,5.12-2.78Z"/>
    <path d="m175.84,275.92c0-.7.6-1.3,1.35-1.3s1.35.57,1.35,1.27c0,.75-.57,1.35-1.35,1.35s-1.35-.6-1.35-1.33Zm.42,4.32h1.85v13.68h-1.85v-13.68Z"/>
    <path d="m194.74,280.24l-6.08,13.68h-1.9l-6.06-13.68h1.92l5.12,11.65,5.17-11.65h1.82Z"/>
    <path d="m207.25,285.44v8.48h-1.77v-2.13c-.83,1.4-2.44,2.26-4.71,2.26-3.09,0-4.99-1.61-4.99-3.98,0-2.11,1.35-3.87,5.28-3.87h4.34v-.83c0-2.34-1.33-3.61-3.87-3.61-1.77,0-3.43.62-4.55,1.61l-.83-1.38c1.38-1.17,3.41-1.85,5.56-1.85,3.54,0,5.54,1.77,5.54,5.3Zm-1.85,4.37v-2.24h-4.29c-2.65,0-3.51,1.04-3.51,2.44,0,1.59,1.27,2.57,3.46,2.57s3.61-.99,4.34-2.78Z"/>
    <path d="m224.8,274.62v19.29h-1.77v-2.7c-1.12,1.85-3.02,2.83-5.28,2.83-3.9,0-6.81-2.83-6.81-6.97s2.91-6.94,6.81-6.94c2.18,0,4.06.94,5.2,2.7v-8.22h1.85Zm-1.82,12.45c0-3.2-2.18-5.33-5.07-5.33s-5.1,2.13-5.1,5.33,2.18,5.33,5.1,5.33,5.07-2.13,5.07-5.33Z"/>
    <path d="m240.27,285.44v8.48h-1.77v-2.13c-.83,1.4-2.44,2.26-4.71,2.26-3.09,0-4.99-1.61-4.99-3.98,0-2.11,1.35-3.87,5.28-3.87h4.34v-.83c0-2.34-1.33-3.61-3.87-3.61-1.77,0-3.43.62-4.55,1.61l-.83-1.38c1.38-1.17,3.41-1.85,5.56-1.85,3.54,0,5.54,1.77,5.54,5.3Zm-1.85,4.37v-2.24h-4.29c-2.65,0-3.51,1.04-3.51,2.44,0,1.59,1.27,2.57,3.46,2.57s3.61-.99,4.34-2.78Z"/>
    <path d="m264.58,274.62v19.29h-1.77v-2.7c-1.12,1.85-3.02,2.83-5.28,2.83-3.9,0-6.81-2.83-6.81-6.97s2.91-6.94,6.81-6.94c2.18,0,4.06.94,5.2,2.7v-8.22h1.85Zm-1.82,12.45c0-3.2-2.18-5.33-5.07-5.33s-5.1,2.13-5.1,5.33,2.18,5.33,5.1,5.33,5.07-2.13,5.07-5.33Z"/>
    <path d="m268.34,287.07c0-4.06,2.96-6.94,6.97-6.94s6.94,2.89,6.94,6.94-2.94,6.97-6.94,6.97-6.97-2.91-6.97-6.97Zm12.04,0c0-3.2-2.16-5.33-5.07-5.33s-5.1,2.13-5.1,5.33,2.18,5.33,5.1,5.33,5.07-2.13,5.07-5.33Z"/>
    <path d="m284.13,292.35l.83-1.46c1.09.86,2.94,1.53,4.86,1.53,2.6,0,3.67-.88,3.67-2.24,0-3.56-8.87-.75-8.87-6.16,0-2.24,1.92-3.9,5.41-3.9,1.77,0,3.69.49,4.84,1.27l-.81,1.48c-1.2-.83-2.63-1.17-4.03-1.17-2.47,0-3.56.96-3.56,2.26,0,3.69,8.87.91,8.87,6.16,0,2.37-2.08,3.9-5.64,3.9-2.26,0-4.45-.73-5.56-1.69Z"/>
    <path d="m319.41,287.07c0,4.13-2.91,6.97-6.81,6.97-2.26,0-4.16-.99-5.28-2.83v2.7h-1.77v-19.29h1.85v8.22c1.14-1.77,3.02-2.7,5.2-2.7,3.9,0,6.81,2.81,6.81,6.94Zm-1.85,0c0-3.2-2.21-5.33-5.1-5.33s-5.1,2.13-5.1,5.33,2.18,5.33,5.1,5.33,5.1-2.13,5.1-5.33Z"/>
    <path d="m335.5,280.24v13.68h-1.77v-2.5c-.96,1.66-2.73,2.63-4.91,2.63-3.48,0-5.77-1.95-5.77-5.88v-7.93h1.85v7.75c0,2.91,1.51,4.39,4.11,4.39,2.86,0,4.65-1.85,4.65-4.97v-7.18h1.85Z"/>
    <path d="m347.57,280.13v1.79c-.16,0-.31-.03-.44-.03-2.86,0-4.6,1.82-4.6,5.04v6.97h-1.85v-13.68h1.77v2.68c.86-1.82,2.6-2.78,5.12-2.78Z"/>
    <path d="m363.43,280.24v12.01c0,4.71-2.31,6.84-6.84,6.84-2.5,0-4.94-.75-6.37-2.11l.94-1.4c1.3,1.17,3.28,1.87,5.38,1.87,3.46,0,5.04-1.59,5.04-4.97v-1.74c-1.14,1.74-3.09,2.65-5.33,2.65-3.9,0-6.86-2.73-6.86-6.66s2.96-6.6,6.86-6.6c2.29,0,4.26.94,5.41,2.73v-2.63h1.77Zm-1.79,6.5c0-2.96-2.18-4.99-5.2-4.99s-5.17,2.03-5.17,4.99,2.16,5.02,5.17,5.02,5.2-2.05,5.2-5.02Z"/>
    <path d="m380.92,280.24v13.68h-1.77v-2.5c-.96,1.66-2.73,2.63-4.91,2.63-3.48,0-5.77-1.95-5.77-5.88v-7.93h1.85v7.75c0,2.91,1.51,4.39,4.11,4.39,2.86,0,4.65-1.85,4.65-4.97v-7.18h1.85Z"/>
    <path d="m398.01,287.65h-11.44c.21,2.86,2.39,4.76,5.38,4.76,1.66,0,3.15-.6,4.19-1.79l1.04,1.2c-1.22,1.46-3.12,2.24-5.28,2.24-4.26,0-7.18-2.91-7.18-6.97s2.83-6.94,6.68-6.94,6.63,2.83,6.63,6.94c0,.16-.03.36-.03.57Zm-11.44-1.38h9.7c-.23-2.68-2.18-4.55-4.86-4.55s-4.6,1.87-4.84,4.55Z"/>
    <path d="m399.9,292.35l.83-1.46c1.09.86,2.94,1.53,4.86,1.53,2.6,0,3.67-.88,3.67-2.24,0-3.56-8.87-.75-8.87-6.16,0-2.24,1.92-3.9,5.41-3.9,1.77,0,3.69.49,4.84,1.27l-.81,1.48c-1.2-.83-2.63-1.17-4.03-1.17-2.47,0-3.56.96-3.56,2.26,0,3.69,8.87.91,8.87,6.16,0,2.37-2.08,3.9-5.64,3.9-2.26,0-4.45-.73-5.56-1.69Z"/>
    <path d="m426.42,287.65h-11.44c.21,2.86,2.39,4.76,5.38,4.76,1.66,0,3.15-.6,4.19-1.79l1.04,1.2c-1.22,1.46-3.12,2.24-5.28,2.24-4.26,0-7.18-2.91-7.18-6.97s2.83-6.94,6.68-6.94,6.63,2.83,6.63,6.94c0,.16-.03.36-.03.57Zm-11.44-1.38h9.7c-.23-2.68-2.18-4.55-4.86-4.55s-4.6,1.87-4.84,4.55Z"/>
    <path d="m428.32,292.35l.83-1.46c1.09.86,2.94,1.53,4.86,1.53,2.6,0,3.67-.88,3.67-2.24,0-3.56-8.87-.75-8.87-6.16,0-2.24,1.92-3.9,5.41-3.9,1.77,0,3.69.49,4.84,1.27l-.81,1.48c-1.2-.83-2.63-1.17-4.03-1.17-2.47,0-3.56.96-3.56,2.26,0,3.69,8.87.91,8.87,6.16,0,2.37-2.08,3.9-5.64,3.9-2.26,0-4.45-.73-5.56-1.69Z"/>
    <path d="m441.74,292.61c0-.81.62-1.4,1.38-1.4s1.4.6,1.4,1.4-.65,1.43-1.4,1.43-1.38-.62-1.38-1.43Z"/>
    <path d="m454.03,284.81c0-5.33,4.06-9.26,9.54-9.26,2.65,0,5.04.88,6.66,2.65l-1.22,1.22c-1.48-1.51-3.3-2.16-5.38-2.16-4.39,0-7.7,3.22-7.7,7.54s3.3,7.54,7.7,7.54c2.08,0,3.9-.65,5.38-2.18l1.22,1.22c-1.61,1.77-4,2.68-6.68,2.68-5.46,0-9.52-3.93-9.52-9.26Z"/>
    <path d="m471.97,287.07c0-4.06,2.96-6.94,6.97-6.94s6.94,2.89,6.94,6.94-2.94,6.97-6.94,6.97-6.97-2.91-6.97-6.97Zm12.04,0c0-3.2-2.16-5.33-5.07-5.33s-5.1,2.13-5.1,5.33,2.18,5.33,5.1,5.33,5.07-2.13,5.07-5.33Z"/>
    <path d="m512.22,285.98v7.93h-1.85v-7.75c0-2.89-1.46-4.37-3.93-4.37-2.81,0-4.58,1.82-4.58,4.94v7.18h-1.85v-7.75c0-2.89-1.46-4.37-3.95-4.37-2.78,0-4.58,1.82-4.58,4.94v7.18h-1.85v-13.68h1.77v2.5c.96-1.64,2.73-2.6,5.02-2.6s4.03.96,4.86,2.89c.99-1.77,2.94-2.89,5.41-2.89,3.33,0,5.51,1.92,5.51,5.85Z"/>
    <path d="m522.67,287.07c0-4.06,2.96-6.94,6.97-6.94s6.94,2.89,6.94,6.94-2.94,6.97-6.94,6.97-6.97-2.91-6.97-6.97Zm12.04,0c0-3.2-2.16-5.33-5.07-5.33s-5.1,2.13-5.1,5.33,2.18,5.33,5.1,5.33,5.07-2.13,5.07-5.33Z"/>
    <path d="m557.49,285.44v8.48h-1.77v-2.13c-.83,1.4-2.44,2.26-4.71,2.26-3.09,0-4.99-1.61-4.99-3.98,0-2.11,1.35-3.87,5.28-3.87h4.34v-.83c0-2.34-1.33-3.61-3.87-3.61-1.77,0-3.43.62-4.55,1.61l-.83-1.38c1.38-1.17,3.41-1.85,5.56-1.85,3.54,0,5.54,1.77,5.54,5.3Zm-1.85,4.37v-2.24h-4.29c-2.65,0-3.51,1.04-3.51,2.44,0,1.59,1.27,2.57,3.46,2.57s3.61-.99,4.34-2.78Z"/>
    <path d="m575.04,274.62v19.29h-1.77v-2.7c-1.12,1.85-3.02,2.83-5.28,2.83-3.9,0-6.81-2.83-6.81-6.97s2.91-6.94,6.81-6.94c2.18,0,4.06.94,5.2,2.7v-8.22h1.85Zm-1.82,12.45c0-3.2-2.18-5.33-5.07-5.33s-5.1,2.13-5.1,5.33,2.18,5.33,5.1,5.33,5.07-2.13,5.07-5.33Z"/>
    <path d="m591.68,280.24l-6.08,13.68h-1.9l-6.06-13.68h1.92l5.12,11.65,5.17-11.65h1.82Z"/>
    <path d="m605.8,287.65h-11.44c.21,2.86,2.39,4.76,5.38,4.76,1.66,0,3.15-.6,4.19-1.79l1.04,1.2c-1.22,1.46-3.12,2.24-5.28,2.24-4.26,0-7.18-2.91-7.18-6.97s2.83-6.94,6.68-6.94,6.63,2.83,6.63,6.94c0,.16-.03.36-.03.57Zm-11.44-1.38h9.7c-.23-2.68-2.18-4.55-4.86-4.55s-4.6,1.87-4.84,4.55Z"/>
    <path d="m622.18,285.98v7.93h-1.85v-7.75c0-2.89-1.51-4.37-4.11-4.37-2.94,0-4.78,1.82-4.78,4.94v7.18h-1.85v-13.68h1.77v2.52c.99-1.66,2.83-2.63,5.2-2.63,3.33,0,5.62,1.92,5.62,5.85Z"/>
    <path d="m634.4,293.08c-.73.65-1.82.96-2.89.96-2.57,0-4-1.46-4-3.98v-8.27h-2.44v-1.56h2.44v-2.99h1.85v2.99h4.16v1.56h-4.16v8.17c0,1.61.83,2.5,2.37,2.5.75,0,1.51-.23,2.03-.7l.65,1.33Z"/>
    <path d="m635.88,287.07c0-4.06,2.96-6.94,6.97-6.94s6.94,2.89,6.94,6.94-2.94,6.97-6.94,6.97-6.97-2.91-6.97-6.97Zm12.04,0c0-3.2-2.16-5.33-5.07-5.33s-5.1,2.13-5.1,5.33,2.18,5.33,5.1,5.33,5.07-2.13,5.07-5.33Z"/>
    <path d="m672.85,274.62v19.29h-1.77v-2.7c-1.12,1.85-3.02,2.83-5.28,2.83-3.9,0-6.81-2.83-6.81-6.97s2.91-6.94,6.81-6.94c2.18,0,4.06.94,5.2,2.7v-8.22h1.85Zm-1.82,12.45c0-3.2-2.18-5.33-5.07-5.33s-5.1,2.13-5.1,5.33,2.18,5.33,5.1,5.33,5.07-2.13,5.07-5.33Z"/>
    <path d="m676.62,287.07c0-4.06,2.96-6.94,6.97-6.94s6.94,2.89,6.94,6.94-2.94,6.97-6.94,6.97-6.97-2.91-6.97-6.97Zm12.04,0c0-3.2-2.16-5.33-5.07-5.33s-5.1,2.13-5.1,5.33,2.18,5.33,5.1,5.33,5.07-2.13,5.07-5.33Z"/>
    <path d="m714.37,292.25v1.66h-12.87v-18.2h12.48v1.66h-10.56v6.47h9.41v1.64h-9.41v6.76h10.95Z"/>
    <path d="m716.4,292.35l.83-1.46c1.09.86,2.94,1.53,4.86,1.53,2.6,0,3.67-.88,3.67-2.24,0-3.56-8.87-.75-8.87-6.16,0-2.24,1.92-3.9,5.41-3.9,1.77,0,3.69.49,4.84,1.27l-.81,1.48c-1.2-.83-2.63-1.17-4.03-1.17-2.47,0-3.56.96-3.56,2.26,0,3.69,8.87.91,8.87,6.16,0,2.37-2.08,3.9-5.64,3.9-2.26,0-4.45-.73-5.56-1.69Z"/>
    <path d="m738.21,293.08c-.73.65-1.82.96-2.89.96-2.57,0-4-1.46-4-3.98v-8.27h-2.44v-1.56h2.44v-2.99h1.85v2.99h4.16v1.56h-4.16v8.17c0,1.61.83,2.5,2.37,2.5.75,0,1.51-.23,2.03-.7l.65,1.33Z"/>
    <path d="m751.89,285.44v8.48h-1.77v-2.13c-.83,1.4-2.44,2.26-4.71,2.26-3.09,0-4.99-1.61-4.99-3.98,0-2.11,1.35-3.87,5.28-3.87h4.34v-.83c0-2.34-1.33-3.61-3.87-3.61-1.77,0-3.43.62-4.55,1.61l-.83-1.38c1.38-1.17,3.41-1.85,5.56-1.85,3.54,0,5.54,1.77,5.54,5.3Zm-1.85,4.37v-2.24h-4.29c-2.65,0-3.51,1.04-3.51,2.44,0,1.59,1.27,2.57,3.46,2.57s3.61-.99,4.34-2.78Z"/>
    <path d="m769.44,274.62v19.29h-1.77v-2.7c-1.12,1.85-3.02,2.83-5.28,2.83-3.9,0-6.81-2.83-6.81-6.97s2.91-6.94,6.81-6.94c2.18,0,4.06.94,5.2,2.7v-8.22h1.85Zm-1.82,12.45c0-3.2-2.18-5.33-5.07-5.33s-5.1,2.13-5.1,5.33,2.18,5.33,5.1,5.33,5.07-2.13,5.07-5.33Z"/>
    <path d="m773.21,287.07c0-4.06,2.96-6.94,6.97-6.94s6.94,2.89,6.94,6.94-2.94,6.97-6.94,6.97-6.97-2.91-6.97-6.97Zm12.04,0c0-3.2-2.16-5.33-5.07-5.33s-5.1,2.13-5.1,5.33,2.18,5.33,5.1,5.33,5.07-2.13,5.07-5.33Z"/>
    <path d="m810.18,274.62v19.29h-1.77v-2.7c-1.12,1.85-3.02,2.83-5.28,2.83-3.9,0-6.81-2.83-6.81-6.97s2.91-6.94,6.81-6.94c2.18,0,4.06.94,5.2,2.7v-8.22h1.85Zm-1.82,12.45c0-3.2-2.18-5.33-5.07-5.33s-5.1,2.13-5.1,5.33,2.18,5.33,5.1,5.33,5.07-2.13,5.07-5.33Z"/>
    <path d="m827.23,287.65h-11.44c.21,2.86,2.39,4.76,5.38,4.76,1.66,0,3.15-.6,4.19-1.79l1.04,1.2c-1.22,1.46-3.12,2.24-5.28,2.24-4.26,0-7.18-2.91-7.18-6.97s2.83-6.94,6.68-6.94,6.63,2.83,6.63,6.94c0,.16-.03.36-.03.57Zm-11.44-1.38h9.7c-.23-2.68-2.18-4.55-4.86-4.55s-4.6,1.87-4.84,4.55Z"/>
    <path d="m838.23,275.71h7.41c5.82,0,9.75,3.74,9.75,9.1s-3.93,9.1-9.75,9.1h-7.41v-18.2Zm7.31,16.54c4.84,0,7.96-3.07,7.96-7.44s-3.12-7.44-7.96-7.44h-5.38v14.87h5.38Z"/>
    <path d="m858.9,275.92c0-.7.6-1.3,1.35-1.3s1.35.57,1.35,1.27c0,.75-.57,1.35-1.35,1.35s-1.35-.6-1.35-1.33Zm.42,4.32h1.85v13.68h-1.85v-13.68Z"/>
    <path d="m873.2,280.13v1.79c-.16,0-.31-.03-.44-.03-2.86,0-4.6,1.82-4.6,5.04v6.97h-1.85v-13.68h1.77v2.68c.86-1.82,2.6-2.78,5.12-2.78Z"/>
    <path d="m888.31,287.65h-11.44c.21,2.86,2.39,4.76,5.38,4.76,1.66,0,3.15-.6,4.19-1.79l1.04,1.2c-1.22,1.46-3.12,2.24-5.28,2.24-4.26,0-7.18-2.91-7.18-6.97s2.83-6.94,6.68-6.94,6.63,2.83,6.63,6.94c0,.16-.03.36-.03.57Zm-11.44-1.38h9.7c-.23-2.68-2.18-4.55-4.86-4.55s-4.6,1.87-4.84,4.55Z"/>
    <path d="m891.69,275.92c0-.7.6-1.3,1.35-1.3s1.35.57,1.35,1.27c0,.75-.57,1.35-1.35,1.35s-1.35-.6-1.35-1.33Zm.42,4.32h1.85v13.68h-1.85v-13.68Z"/>
    <path d="m906.3,293.08c-.73.65-1.82.96-2.89.96-2.57,0-4-1.46-4-3.98v-8.27h-2.44v-1.56h2.44v-2.99h1.85v2.99h4.16v1.56h-4.16v8.17c0,1.61.83,2.5,2.37,2.5.75,0,1.51-.23,2.03-.7l.65,1.33Z"/>
    <path d="m907.78,287.07c0-4.06,2.96-6.94,6.97-6.94s6.94,2.89,6.94,6.94-2.94,6.97-6.94,6.97-6.97-2.91-6.97-6.97Zm12.04,0c0-3.2-2.16-5.33-5.07-5.33s-5.1,2.13-5.1,5.33,2.18,5.33,5.1,5.33,5.07-2.13,5.07-5.33Z"/>
    <path d="m926.66,292.61c0,.44-.1.78-.36,1.51l-1.09,3.59h-1.25l.88-3.77c-.55-.16-.94-.65-.94-1.33,0-.81.6-1.4,1.38-1.4s1.38.62,1.38,1.4Z"/>
    <path d="m936.02,287.07c0-4.06,2.96-6.94,6.97-6.94s6.94,2.89,6.94,6.94-2.94,6.97-6.94,6.97-6.97-2.91-6.97-6.97Zm12.04,0c0-3.2-2.16-5.33-5.07-5.33s-5.1,2.13-5.1,5.33,2.18,5.33,5.1,5.33,5.07-2.13,5.07-5.33Z"/>
    <path d="m958.61,292.35l.83-1.46c1.09.86,2.94,1.53,4.86,1.53,2.6,0,3.67-.88,3.67-2.24,0-3.56-8.87-.75-8.87-6.16,0-2.24,1.92-3.9,5.41-3.9,1.77,0,3.69.49,4.84,1.27l-.81,1.48c-1.2-.83-2.63-1.17-4.03-1.17-2.47,0-3.56.96-3.56,2.26,0,3.69,8.87.91,8.87,6.16,0,2.37-2.08,3.9-5.64,3.9-2.26,0-4.45-.73-5.56-1.69Z"/>
    <path d="m985.13,287.65h-11.44c.21,2.86,2.39,4.76,5.38,4.76,1.66,0,3.15-.6,4.19-1.79l1.04,1.2c-1.22,1.46-3.12,2.24-5.28,2.24-4.26,0-7.18-2.91-7.18-6.97s2.83-6.94,6.68-6.94,6.63,2.83,6.63,6.94c0,.16-.03.36-.03.57Zm-11.44-1.38h9.7c-.23-2.68-2.18-4.55-4.86-4.55s-4.6,1.87-4.84,4.55Zm4.97-8.14h-1.82l3.56-3.22h2.47l-4.21,3.22Z"/>
    <path d="m987.55,287.07c0-4.08,2.96-6.94,7.05-6.94,2.31,0,4.26.91,5.36,2.7l-1.38.94c-.94-1.38-2.39-2.03-3.98-2.03-2.99,0-5.17,2.13-5.17,5.33s2.18,5.33,5.17,5.33c1.59,0,3.04-.62,3.98-2l1.38.94c-1.09,1.77-3.04,2.7-5.36,2.7-4.08,0-7.05-2.89-7.05-6.97Z"/>
    <path d="m1015.89,280.24v13.68h-1.77v-2.5c-.96,1.66-2.73,2.63-4.92,2.63-3.48,0-5.77-1.95-5.77-5.88v-7.93h1.85v7.75c0,2.91,1.51,4.39,4.11,4.39,2.86,0,4.65-1.85,4.65-4.97v-7.18h1.85Z"/>
    <path d="m1021.06,274.62h1.85v19.29h-1.85v-19.29Z"/>
    <path d="m1026.68,287.07c0-4.06,2.96-6.94,6.97-6.94s6.94,2.89,6.94,6.94-2.94,6.97-6.94,6.97-6.97-2.91-6.97-6.97Zm12.04,0c0-3.2-2.16-5.33-5.07-5.33s-5.1,2.13-5.1,5.33,2.18,5.33,5.1,5.33,5.07-2.13,5.07-5.33Z"/>
    <path d="m1062.97,293.91l-5.88-8.01-5.85,8.01h-2.21l6.92-9.36-6.47-8.84h2.21l5.49,7.44,5.46-7.44h2.08l-6.45,8.79,6.94,9.41h-2.24Z"/>
    <path d="m1067.99,275.71h1.92v18.2h-1.92v-18.2Z"/>
    <path d="m1087.26,293.91l-5.88-8.01-5.85,8.01h-2.21l6.92-9.36-6.47-8.84h2.21l5.49,7.44,5.46-7.44h2.08l-6.45,8.79,6.94,9.41h-2.24Z"/>
    <path d="m152.85,314.49c1.01,0,2.05.29,2.73.86l-.62,1.38c-.52-.44-1.25-.68-2.03-.68-1.59,0-2.42.88-2.42,2.57v1.61h4.21v1.56h-4.16v12.12h-1.85v-12.12h-2.44v-1.56h2.44v-1.69c0-2.44,1.46-4.06,4.13-4.06Zm8.74,1.4c0,.75-.57,1.35-1.35,1.35s-1.35-.6-1.35-1.33.6-1.3,1.35-1.3,1.35.57,1.35,1.27Zm-2.29,4.34h1.85v13.68h-1.85v-13.68Z"/>
    <path d="m164.92,327.07c0-4.08,2.96-6.94,7.05-6.94,2.31,0,4.26.91,5.36,2.7l-1.38.94c-.94-1.38-2.39-2.03-3.98-2.03-2.99,0-5.17,2.13-5.17,5.33s2.18,5.33,5.17,5.33c1.59,0,3.04-.62,3.98-2l1.38.94c-1.09,1.77-3.04,2.7-5.36,2.7-4.08,0-7.05-2.89-7.05-6.97Z"/>
    <path d="m179.32,327.07c0-4.06,2.96-6.94,6.97-6.94s6.94,2.89,6.94,6.94-2.94,6.97-6.94,6.97-6.97-2.91-6.97-6.97Zm12.04,0c0-3.2-2.16-5.33-5.07-5.33s-5.1,2.13-5.1,5.33,2.18,5.33,5.1,5.33,5.07-2.13,5.07-5.33Z"/>
    <path d="m209.32,320.24v13.68h-1.77v-2.5c-.96,1.66-2.73,2.63-4.91,2.63-3.48,0-5.77-1.95-5.77-5.88v-7.93h1.85v7.75c0,2.91,1.51,4.39,4.11,4.39,2.86,0,4.65-1.85,4.65-4.97v-7.18h1.85Z"/>
    <path d="m219.93,327.07c0-4.08,2.96-6.94,7.05-6.94,2.31,0,4.26.91,5.36,2.7l-1.38.94c-.94-1.38-2.39-2.03-3.98-2.03-2.99,0-5.17,2.13-5.17,5.33s2.18,5.33,5.17,5.33c1.59,0,3.04-.62,3.98-2l1.38.94c-1.09,1.77-3.04,2.7-5.36,2.7-4.08,0-7.05-2.89-7.05-6.97Z"/>
    <path d="m234.34,327.07c0-4.06,2.96-6.94,6.97-6.94s6.94,2.89,6.94,6.94-2.94,6.97-6.94,6.97-6.97-2.91-6.97-6.97Zm12.04,0c0-3.2-2.16-5.33-5.07-5.33s-5.1,2.13-5.1,5.33,2.18,5.33,5.1,5.33,5.07-2.13,5.07-5.33Z"/>
    <path d="m264.6,325.98v7.93h-1.85v-7.75c0-2.89-1.51-4.37-4.11-4.37-2.94,0-4.78,1.82-4.78,4.94v7.18h-1.85v-13.68h1.77v2.52c.99-1.66,2.83-2.63,5.2-2.63,3.33,0,5.62,1.92,5.62,5.85Z"/>
    <path d="m282.2,325.98v7.93h-1.85v-7.75c0-2.89-1.51-4.37-4.11-4.37-2.94,0-4.78,1.82-4.78,4.94v7.18h-1.85v-19.29h1.85v8.01c1.01-1.59,2.81-2.5,5.12-2.5,3.33,0,5.62,1.92,5.62,5.85Z"/>
    <path d="m299.18,327.65h-11.44c.21,2.86,2.39,4.76,5.38,4.76,1.66,0,3.15-.6,4.19-1.79l1.04,1.2c-1.22,1.46-3.12,2.24-5.28,2.24-4.26,0-7.18-2.91-7.18-6.97s2.83-6.94,6.68-6.94,6.63,2.83,6.63,6.94c0,.16-.03.36-.03.57Zm-11.44-1.38h9.7c-.23-2.68-2.18-4.55-4.86-4.55s-4.6,1.87-4.84,4.55Z"/>
    <path d="m301.6,327.07c0-4.08,2.96-6.94,7.05-6.94,2.31,0,4.26.91,5.36,2.7l-1.38.94c-.94-1.38-2.39-2.03-3.98-2.03-2.99,0-5.17,2.13-5.17,5.33s2.18,5.33,5.17,5.33c1.59,0,3.04-.62,3.98-2l1.38.94c-1.09,1.77-3.04,2.7-5.36,2.7-4.08,0-7.05-2.89-7.05-6.97Z"/>
    <path d="m317.2,315.92c0-.7.6-1.3,1.35-1.3s1.35.57,1.35,1.27c0,.75-.57,1.35-1.35,1.35s-1.35-.6-1.35-1.33Zm.42,4.32h1.85v13.68h-1.85v-13.68Z"/>
    <path d="m337.09,314.62v19.29h-1.77v-2.7c-1.12,1.85-3.02,2.83-5.28,2.83-3.9,0-6.81-2.83-6.81-6.97s2.91-6.94,6.81-6.94c2.18,0,4.06.94,5.2,2.7v-8.22h1.85Zm-1.82,12.45c0-3.2-2.18-5.33-5.07-5.33s-5.1,2.13-5.1,5.33,2.18,5.33,5.1,5.33,5.07-2.13,5.07-5.33Z"/>
    <path d="m340.86,327.07c0-4.06,2.96-6.94,6.97-6.94s6.94,2.89,6.94,6.94-2.94,6.97-6.94,6.97-6.97-2.91-6.97-6.97Zm12.04,0c0-3.2-2.16-5.33-5.07-5.33s-5.1,2.13-5.1,5.33,2.18,5.33,5.1,5.33,5.07-2.13,5.07-5.33Z"/>
    <path d="m363.97,327.07c0-4.08,2.96-6.94,7.05-6.94,2.31,0,4.26.91,5.36,2.7l-1.38.94c-.94-1.38-2.39-2.03-3.98-2.03-2.99,0-5.17,2.13-5.17,5.33s2.18,5.33,5.17,5.33c1.59,0,3.04-.62,3.98-2l1.38.94c-1.09,1.77-3.04,2.7-5.36,2.7-4.08,0-7.05-2.89-7.05-6.97Z"/>
    <path d="m378.37,327.07c0-4.06,2.96-6.94,6.97-6.94s6.94,2.89,6.94,6.94-2.94,6.97-6.94,6.97-6.97-2.91-6.97-6.97Zm12.04,0c0-3.2-2.16-5.33-5.07-5.33s-5.1,2.13-5.1,5.33,2.18,5.33,5.1,5.33,5.07-2.13,5.07-5.33Z"/>
    <path d="m418.62,325.98v7.93h-1.85v-7.75c0-2.89-1.46-4.37-3.93-4.37-2.81,0-4.58,1.82-4.58,4.94v7.18h-1.85v-7.75c0-2.89-1.46-4.37-3.95-4.37-2.78,0-4.58,1.82-4.58,4.94v7.18h-1.85v-13.68h1.77v2.5c.96-1.64,2.73-2.6,5.02-2.6s4.03.96,4.86,2.89c.99-1.77,2.94-2.89,5.41-2.89,3.33,0,5.51,1.92,5.51,5.85Z"/>
    <path d="m422.31,327.07c0-4.06,2.96-6.94,6.97-6.94s6.94,2.89,6.94,6.94-2.94,6.97-6.94,6.97-6.97-2.91-6.97-6.97Zm12.04,0c0-3.2-2.16-5.33-5.07-5.33s-5.1,2.13-5.1,5.33,2.18,5.33,5.1,5.33,5.07-2.13,5.07-5.33Z"/>
    <path d="m457.13,325.44v8.48h-1.77v-2.13c-.83,1.4-2.44,2.26-4.71,2.26-3.09,0-4.99-1.61-4.99-3.98,0-2.11,1.35-3.87,5.28-3.87h4.34v-.83c0-2.34-1.33-3.61-3.87-3.61-1.77,0-3.43.62-4.55,1.61l-.83-1.38c1.38-1.17,3.41-1.85,5.56-1.85,3.54,0,5.54,1.77,5.54,5.3Zm-1.85,4.37v-2.24h-4.29c-2.65,0-3.51,1.04-3.51,2.44,0,1.59,1.27,2.57,3.46,2.57s3.61-.99,4.34-2.78Z"/>
    <path d="m481.88,328.06h-10.58c.39,1.74,1.87,2.81,4,2.81,1.48,0,2.55-.44,3.51-1.35l2.16,2.34c-1.3,1.48-3.25,2.26-5.77,2.26-4.84,0-7.98-3.04-7.98-7.2s3.2-7.2,7.46-7.2,7.28,2.76,7.28,7.25c0,.31-.05.75-.08,1.09Zm-10.63-2.37h6.89c-.29-1.77-1.61-2.91-3.43-2.91s-3.17,1.12-3.46,2.91Z"/>
    <path d="m493.35,319.72v3.74c-.34-.03-.6-.05-.91-.05-2.24,0-3.72,1.22-3.72,3.9v6.6h-4.06v-13.99h3.87v1.85c.99-1.35,2.65-2.05,4.81-2.05Z"/>
    <path d="m508.06,325.93v7.98h-3.8v-1.74c-.75,1.27-2.21,1.95-4.26,1.95-3.28,0-5.23-1.82-5.23-4.24s1.74-4.19,6.01-4.19h3.22c0-1.74-1.04-2.76-3.22-2.76-1.48,0-3.02.49-4.03,1.3l-1.46-2.83c1.53-1.09,3.8-1.69,6.03-1.69,4.26,0,6.73,1.98,6.73,6.21Zm-4.06,3.56v-1.43h-2.78c-1.9,0-2.5.7-2.5,1.64,0,1.01.86,1.69,2.29,1.69,1.35,0,2.52-.62,2.99-1.9Z"/>
    <path d="m533.33,314.62v19.29h-3.87v-1.61c-1.01,1.22-2.5,1.82-4.37,1.82-3.95,0-6.99-2.81-6.99-7.2s3.04-7.2,6.99-7.2c1.72,0,3.17.55,4.19,1.69v-6.79h4.06Zm-3.98,12.3c0-2.42-1.56-3.88-3.56-3.88s-3.59,1.46-3.59,3.88,1.56,3.87,3.59,3.87,3.56-1.46,3.56-3.87Z"/>
    <path d="m549.45,325.93v7.98h-3.8v-1.74c-.75,1.27-2.21,1.95-4.26,1.95-3.28,0-5.23-1.82-5.23-4.24s1.74-4.19,6.01-4.19h3.22c0-1.74-1.04-2.76-3.22-2.76-1.48,0-3.02.49-4.03,1.3l-1.46-2.83c1.53-1.09,3.8-1.69,6.03-1.69,4.26,0,6.73,1.98,6.73,6.21Zm-4.06,3.56v-1.43h-2.78c-1.9,0-2.5.7-2.5,1.64,0,1.01.86,1.69,2.29,1.69,1.35,0,2.52-.62,2.99-1.9Z"/>
    <path d="m551.77,332.61l1.35-2.91c1.25.81,3.15,1.35,4.86,1.35,1.87,0,2.57-.49,2.57-1.27,0-2.29-8.45.05-8.45-5.54,0-2.65,2.39-4.52,6.47-4.52,1.92,0,4.06.44,5.38,1.22l-1.35,2.89c-1.38-.78-2.76-1.04-4.03-1.04-1.82,0-2.6.57-2.6,1.3,0,2.39,8.45.08,8.45,5.59,0,2.6-2.42,4.45-6.6,4.45-2.37,0-4.76-.65-6.06-1.51Z"/>
    <path d="m573.24,326.92c0-4.21,3.25-7.2,7.8-7.2,2.94,0,5.25,1.27,6.27,3.56l-3.15,1.69c-.75-1.33-1.87-1.92-3.15-1.92-2.05,0-3.67,1.43-3.67,3.88s1.61,3.87,3.67,3.87c1.27,0,2.39-.57,3.15-1.92l3.15,1.72c-1.01,2.24-3.33,3.54-6.27,3.54-4.55,0-7.8-2.99-7.8-7.2Z"/>
    <path d="m588.43,326.92c0-4.21,3.25-7.2,7.7-7.2s7.67,2.99,7.67,7.2-3.22,7.2-7.67,7.2-7.7-2.99-7.7-7.2Zm11.26,0c0-2.42-1.53-3.88-3.56-3.88s-3.59,1.46-3.59,3.88,1.56,3.87,3.59,3.87,3.56-1.46,3.56-3.87Z"/>
    <path d="m620.74,314.62v19.29h-3.87v-1.61c-1.01,1.22-2.5,1.82-4.37,1.82-3.95,0-7-2.81-7-7.2s3.04-7.2,7-7.2c1.72,0,3.17.55,4.19,1.69v-6.79h4.06Zm-3.98,12.3c0-2.42-1.56-3.88-3.56-3.88s-3.59,1.46-3.59,3.88,1.56,3.87,3.59,3.87,3.56-1.46,3.56-3.87Z"/>
    <path d="m623.99,315.71c0-1.27,1.01-2.26,2.52-2.26s2.52.94,2.52,2.18c0,1.35-1.01,2.34-2.52,2.34s-2.52-.99-2.52-2.26Zm.49,4.21h4.06v13.99h-4.06v-13.99Z"/>
    <path d="m636.76,319.64v.6h3.59v3.12h-3.48v10.56h-4.06v-10.56h-2.16v-3.12h2.16v-.62c0-3.15,1.92-5.2,5.41-5.2,1.14,0,2.34.23,3.09.75l-1.07,2.94c-.44-.31-1.01-.49-1.64-.49-1.2,0-1.85.65-1.85,2.03Zm7.2-3.93c0-1.27,1.01-2.26,2.52-2.26s2.52.94,2.52,2.18c0,1.35-1.01,2.34-2.52,2.34s-2.52-.99-2.52-2.26Zm.49,4.21h4.06v13.99h-4.06v-13.99Z"/>
    <path d="m651.24,326.92c0-4.21,3.25-7.2,7.8-7.2,2.94,0,5.25,1.27,6.27,3.56l-3.15,1.69c-.75-1.33-1.87-1.92-3.15-1.92-2.05,0-3.67,1.43-3.67,3.88s1.61,3.87,3.67,3.87c1.27,0,2.39-.57,3.15-1.92l3.15,1.72c-1.01,2.24-3.33,3.54-6.27,3.54-4.55,0-7.8-2.99-7.8-7.2Z"/>
    <path d="m680.02,325.93v7.98h-3.8v-1.74c-.75,1.27-2.21,1.95-4.26,1.95-3.28,0-5.23-1.82-5.23-4.24s1.74-4.19,6.01-4.19h3.22c0-1.74-1.04-2.76-3.22-2.76-1.48,0-3.02.49-4.03,1.3l-1.46-2.83c1.53-1.09,3.8-1.69,6.03-1.69,4.26,0,6.73,1.98,6.73,6.21Zm-4.06,3.56v-1.43h-2.78c-1.9,0-2.5.7-2.5,1.64,0,1.01.86,1.69,2.29,1.69,1.35,0,2.52-.62,2.99-1.9Z"/>
    <path d="m693.72,328.87l3.15,1.72c-.96,2.16-3.15,3.43-5.93,3.54l-.26,1.09c1.59.18,2.26,1.09,2.26,2.16,0,1.59-1.51,2.57-3.82,2.57-.91,0-1.82-.21-2.42-.55l.62-1.74c.49.23,1.07.39,1.69.39.96,0,1.35-.34,1.35-.83,0-.44-.36-.75-1.27-.75h-.88l.62-2.5c-3.61-.68-6.03-3.41-6.03-7.05,0-4.21,3.25-7.2,7.8-7.2,2.94,0,5.25,1.27,6.27,3.56l-3.15,1.69c-.75-1.33-1.87-1.92-3.15-1.92-2.05,0-3.67,1.43-3.67,3.88s1.61,3.87,3.67,3.87c1.27,0,2.39-.57,3.15-1.92Z"/>
    <path d="m697.99,326.92c0-4.21,3.25-7.2,7.7-7.2s7.67,2.99,7.67,7.2-3.22,7.2-7.67,7.2-7.7-2.99-7.7-7.2Zm5.95-10.35c-.7,0-1.2.52-1.25,1.46h-2.05c.05-2.31,1.22-3.8,3.04-3.8s2.7,1.66,3.64,1.66c.7,0,1.2-.55,1.25-1.4h2.05c-.05,2.24-1.22,3.72-3.04,3.72s-2.7-1.64-3.64-1.64Zm5.3,10.35c0-2.42-1.53-3.88-3.56-3.88s-3.59,1.46-3.59,3.88,1.56,3.87,3.59,3.87,3.56-1.46,3.56-3.87Z"/>
    <path d="m729.68,328.06h-10.58c.39,1.74,1.87,2.81,4,2.81,1.48,0,2.55-.44,3.51-1.35l2.16,2.34c-1.3,1.48-3.25,2.26-5.77,2.26-4.84,0-7.98-3.04-7.98-7.2s3.2-7.2,7.46-7.2,7.28,2.76,7.28,7.25c0,.31-.05.75-.08,1.09Zm-10.63-2.37h6.89c-.29-1.77-1.61-2.91-3.43-2.91s-3.17,1.12-3.46,2.91Z"/>
    <path d="m731.11,332.61l1.35-2.91c1.25.81,3.15,1.35,4.86,1.35,1.87,0,2.57-.49,2.57-1.27,0-2.29-8.45.05-8.45-5.54,0-2.65,2.39-4.52,6.47-4.52,1.92,0,4.06.44,5.38,1.22l-1.35,2.89c-1.38-.78-2.76-1.04-4.03-1.04-1.82,0-2.6.57-2.6,1.3,0,2.39,8.45.08,8.45,5.59,0,2.6-2.42,4.45-6.6,4.45-2.37,0-4.76-.65-6.06-1.51Z"/>
    <path d="m745.77,332.61c0-.81.62-1.4,1.38-1.4s1.4.6,1.4,1.4-.65,1.43-1.4,1.43-1.38-.62-1.38-1.43Z"/>
  </g>
</svg>