<?xml version="1.0" encoding="utf-8"?>
<!-- Generator: Adobe Illustrator 27.2.0, SVG Export Plug-In . SVG Version: 6.00 Build 0)  -->
<svg version="1.1" id="Layer_1" xmlns="http://www.w3.org/2000/svg" xmlns:xlink="http://www.w3.org/1999/xlink" x="0px" y="0px"
	 viewBox="0 0 1288 502.7" style="enable-background:new 0 0 1288 502.7;" xml:space="preserve">
<style type="text/css">
	.st0{fill:none;stroke:#E9551C;stroke-miterlimit:10;}
	.st1{fill:#F7F1F0;}
	.st2{fill:#F7C2A1;}
	.st3{fill:#F26A41;}
	.st4{fill:#E8541C;}
	.st5{fill:#FFEEC2;}
</style>
<rect x="53.9" y="102.3" class="st0" width="1206.3" height="372.3"/>
<rect x="22" y="75.8" class="st1" width="1206.3" height="372.3"/>
<g>
	<path d="M123.1,228.4c0-5.3,4.1-9.3,9.6-9.3s9.5,3.9,9.5,9.3s-4.1,9.3-9.5,9.3S123.1,233.7,123.1,228.4z M140.3,228.4
		c0-4.3-3.2-7.5-7.6-7.5s-7.7,3.2-7.7,7.5s3.3,7.5,7.7,7.5S140.3,232.7,140.3,228.4z"/>
	<path d="M153.3,219.3h7.4c5.8,0,9.8,3.7,9.8,9.1s-3.9,9.1-9.8,9.1h-7.4V219.3L153.3,219.3z M160.6,235.8c4.8,0,8-3.1,8-7.4
		s-3.1-7.4-8-7.4h-5.4v14.9L160.6,235.8L160.6,235.8z"/>
	<path d="M174,219.5c0-0.7,0.6-1.3,1.4-1.3s1.4,0.6,1.4,1.3c0,0.8-0.6,1.4-1.4,1.4S174,220.2,174,219.5L174,219.5z M174.4,223.8h1.9
		v13.7h-1.9V223.8L174.4,223.8z"/>
	<path d="M188.3,223.7v1.8c-0.2,0-0.3,0-0.4,0c-2.9,0-4.6,1.8-4.6,5v7h-1.9v-13.7h1.8v2.7C184,224.6,185.8,223.7,188.3,223.7
		L188.3,223.7z"/>
	<path d="M203.4,231.2h-11.4c0.2,2.9,2.4,4.8,5.4,4.8c1.7,0,3.1-0.6,4.2-1.8l1,1.2c-1.2,1.5-3.1,2.2-5.3,2.2c-4.3,0-7.2-2.9-7.2-7
		s2.8-6.9,6.7-6.9s6.6,2.8,6.6,6.9C203.4,230.8,203.4,231,203.4,231.2L203.4,231.2z M191.9,229.8h9.7c-0.2-2.7-2.2-4.6-4.9-4.6
		S192.2,227.1,191.9,229.8z"/>
	<path d="M206.8,219.5c0-0.7,0.6-1.3,1.4-1.3s1.4,0.6,1.4,1.3c0,0.8-0.6,1.4-1.4,1.4S206.8,220.2,206.8,219.5L206.8,219.5z
		 M207.2,223.8h1.9v13.7h-1.9V223.8L207.2,223.8z"/>
	<path d="M221.4,236.6c-0.7,0.6-1.8,1-2.9,1c-2.6,0-4-1.5-4-4v-8.3h-2.4v-1.6h2.4v-3h1.9v3h4.2v1.6h-4.2v8.2c0,1.6,0.8,2.5,2.4,2.5
		c0.8,0,1.5-0.2,2-0.7L221.4,236.6L221.4,236.6z"/>
	<path d="M222.9,230.6c0-4.1,3-6.9,7-6.9s6.9,2.9,6.9,6.9s-2.9,7-6.9,7S222.9,234.7,222.9,230.6z M234.9,230.6
		c0-3.2-2.2-5.3-5.1-5.3s-5.1,2.1-5.1,5.3s2.2,5.3,5.1,5.3S234.9,233.8,234.9,230.6z"/>
	<path d="M259.8,218.2v19.3h-1.8v-2.7c-1.1,1.9-3,2.8-5.3,2.8c-3.9,0-6.8-2.8-6.8-7s2.9-6.9,6.8-6.9c2.2,0,4.1,0.9,5.2,2.7v-8.2
		L259.8,218.2L259.8,218.2z M258,230.6c0-3.2-2.2-5.3-5.1-5.3s-5.1,2.1-5.1,5.3s2.2,5.3,5.1,5.3S258,233.8,258,230.6z"/>
	<path d="M276.9,231.2h-11.4c0.2,2.9,2.4,4.8,5.4,4.8c1.7,0,3.1-0.6,4.2-1.8l1,1.2c-1.2,1.5-3.1,2.2-5.3,2.2c-4.3,0-7.2-2.9-7.2-7
		s2.8-6.9,6.7-6.9s6.6,2.8,6.6,6.9C276.9,230.8,276.9,231,276.9,231.2L276.9,231.2z M265.5,229.8h9.7c-0.2-2.7-2.2-4.6-4.9-4.6
		S265.7,227.1,265.5,229.8L265.5,229.8z"/>
	<path d="M285.1,218.1c1,0,2,0.3,2.7,0.9l-0.6,1.4c-0.5-0.4-1.2-0.7-2-0.7c-1.6,0-2.4,0.9-2.4,2.6v1.6h4.2v1.6h-4.2v12.1H281v-12.1
		h-2.4v-1.6h2.4v-1.7C281,219.7,282.5,218,285.1,218.1L285.1,218.1z M293.9,219.4c0,0.8-0.6,1.4-1.4,1.4s-1.4-0.6-1.4-1.3
		s0.6-1.3,1.4-1.3S293.9,218.7,293.9,219.4L293.9,219.4z M291.6,223.8h1.9v13.7h-1.9V223.8L291.6,223.8z"/>
	<path d="M311.2,229.5v7.9h-1.9v-7.8c0-2.9-1.5-4.4-4.1-4.4c-2.9,0-4.8,1.8-4.8,4.9v7.2h-1.9v-13.7h1.8v2.5c1-1.7,2.8-2.6,5.2-2.6
		C308.9,223.7,311.2,225.6,311.2,229.5L311.2,229.5z"/>
	<path d="M328.1,231.2h-11.4c0.2,2.9,2.4,4.8,5.4,4.8c1.7,0,3.1-0.6,4.2-1.8l1,1.2c-1.2,1.5-3.1,2.2-5.3,2.2c-4.3,0-7.2-2.9-7.2-7
		s2.8-6.9,6.7-6.9s6.6,2.8,6.6,6.9C328.2,230.8,328.1,231,328.1,231.2L328.1,231.2z M316.7,229.8h9.7c-0.2-2.7-2.2-4.6-4.9-4.6
		S316.9,227.1,316.7,229.8L316.7,229.8z"/>
	<path d="M337.4,230.6c0-4.1,3-6.9,7-6.9s6.9,2.9,6.9,6.9s-2.9,7-6.9,7S337.4,234.7,337.4,230.6z M349.4,230.6
		c0-3.2-2.2-5.3-5.1-5.3s-5.1,2.1-5.1,5.3s2.2,5.3,5.1,5.3S349.4,233.8,349.4,230.6z"/>
	<path d="M376.5,225.5c0,3.9-2.8,6.2-7.4,6.2h-4.9v5.8h-1.9v-18.2h6.8C373.7,219.3,376.5,221.6,376.5,225.5L376.5,225.5z
		 M374.6,225.5c0-2.9-1.9-4.6-5.6-4.6h-4.8v9.1h4.8C372.7,230,374.6,228.4,374.6,225.5z"/>
	<path d="M378.8,230.6c0-4.1,3-6.9,7-6.9s6.9,2.9,6.9,6.9s-2.9,7-6.9,7S378.8,234.7,378.8,230.6z M390.9,230.6
		c0-3.2-2.2-5.3-5.1-5.3s-5.1,2.1-5.1,5.3s2.2,5.3,5.1,5.3S390.9,233.8,390.9,230.6z"/>
	<path d="M409,218.2v19.3h-1.8v-2.7c-1.1,1.9-3,2.8-5.3,2.8c-3.9,0-6.8-2.8-6.8-7s2.9-6.9,6.8-6.9c2.2,0,4.1,0.9,5.2,2.7v-8.2
		L409,218.2L409,218.2z M407.1,230.6c0-3.2-2.2-5.3-5.1-5.3s-5.1,2.1-5.1,5.3s2.2,5.3,5.1,5.3S407.1,233.8,407.1,230.6z"/>
	<path d="M426,231.2h-11.4c0.2,2.9,2.4,4.8,5.4,4.8c1.7,0,3.1-0.6,4.2-1.8l1,1.2c-1.2,1.5-3.1,2.2-5.3,2.2c-4.3,0-7.2-2.9-7.2-7
		s2.8-6.9,6.7-6.9s6.6,2.8,6.6,6.9C426.1,230.8,426,231,426,231.2L426,231.2z M414.6,229.8h9.7c-0.2-2.7-2.2-4.6-4.9-4.6
		S414.8,227.1,414.6,229.8L414.6,229.8z"/>
	<path d="M436.7,223.7v1.8c-0.2,0-0.3,0-0.4,0c-2.9,0-4.6,1.8-4.6,5v7h-1.9v-13.7h1.8v2.7C432.4,224.6,434.2,223.7,436.7,223.7
		L436.7,223.7z"/>
	<path d="M459,231.2h-11.4c0.2,2.9,2.4,4.8,5.4,4.8c1.7,0,3.1-0.6,4.2-1.8l1,1.2c-1.2,1.5-3.1,2.2-5.3,2.2c-4.3,0-7.2-2.9-7.2-7
		s2.8-6.9,6.7-6.9s6.6,2.8,6.6,6.9C459,230.8,459,231,459,231.2L459,231.2z M447.5,229.8h9.7c-0.2-2.7-2.2-4.6-4.9-4.6
		S447.8,227.1,447.5,229.8L447.5,229.8z"/>
	<path d="M482.1,218.2v19.3h-1.8v-2.7c-1.1,1.9-3,2.8-5.3,2.8c-3.9,0-6.8-2.8-6.8-7s2.9-6.9,6.8-6.9c2.2,0,4.1,0.9,5.2,2.7v-8.2
		L482.1,218.2L482.1,218.2z M480.2,230.6c0-3.2-2.2-5.3-5.1-5.3s-5.1,2.1-5.1,5.3s2.2,5.3,5.1,5.3S480.2,233.8,480.2,230.6z"/>
	<path d="M499.1,231.2h-11.4c0.2,2.9,2.4,4.8,5.4,4.8c1.7,0,3.1-0.6,4.2-1.8l1,1.2c-1.2,1.5-3.1,2.2-5.3,2.2c-4.3,0-7.2-2.9-7.2-7
		s2.8-6.9,6.7-6.9s6.6,2.8,6.6,6.9C499.1,230.8,499.1,231,499.1,231.2L499.1,231.2z M487.7,229.8h9.7c-0.2-2.7-2.2-4.6-4.9-4.6
		S487.9,227.1,487.7,229.8L487.7,229.8z"/>
	<path d="M502.9,218.2h1.9v19.3h-1.9V218.2z"/>
	<path d="M509.5,219.5c0-0.7,0.6-1.3,1.4-1.3s1.4,0.6,1.4,1.3c0,0.8-0.6,1.4-1.4,1.4S509.5,220.2,509.5,219.5L509.5,219.5z
		 M509.9,223.8h1.9v13.7h-1.9V223.8L509.9,223.8z"/>
	<path d="M539.5,229.5v7.9h-1.8v-7.8c0-2.9-1.5-4.4-3.9-4.4c-2.8,0-4.6,1.8-4.6,4.9v7.2h-1.8v-7.8c0-2.9-1.5-4.4-4-4.4
		c-2.8,0-4.6,1.8-4.6,4.9v7.2h-1.8v-13.7h1.8v2.5c1-1.6,2.7-2.6,5-2.6s4,1,4.9,2.9c1-1.8,2.9-2.9,5.4-2.9
		C537.3,223.7,539.5,225.6,539.5,229.5L539.5,229.5z"/>
	<path d="M544.1,219.5c0-0.7,0.6-1.3,1.3-1.3s1.3,0.6,1.3,1.3c0,0.8-0.6,1.4-1.3,1.4S544.1,220.2,544.1,219.5L544.1,219.5z
		 M544.5,223.8h1.8v13.7h-1.8V223.8L544.5,223.8z"/>
	<path d="M558.7,236.6c-0.7,0.6-1.8,1-2.9,1c-2.6,0-4-1.5-4-4v-8.3h-2.4v-1.6h2.4v-3h1.8v3h4.2v1.6h-4.2v8.2c0,1.6,0.8,2.5,2.4,2.5
		c0.8,0,1.5-0.2,2-0.7L558.7,236.6L558.7,236.6z"/>
	<path d="M572.4,229v8.5h-1.8v-2.1c-0.8,1.4-2.4,2.3-4.7,2.3c-3.1,0-5-1.6-5-4c0-2.1,1.3-3.9,5.3-3.9h4.3v-0.8
		c0-2.3-1.3-3.6-3.9-3.6c-1.8,0-3.4,0.6-4.5,1.6l-0.8-1.4c1.4-1.2,3.4-1.9,5.6-1.9C570.4,223.7,572.4,225.5,572.4,229L572.4,229z
		 M570.5,233.4v-2.2h-4.3c-2.7,0-3.5,1-3.5,2.4c0,1.6,1.3,2.6,3.5,2.6S569.8,235.1,570.5,233.4L570.5,233.4z"/>
	<path d="M582.8,230.6c0-4.1,3-6.9,7-6.9s6.9,2.9,6.9,6.9s-2.9,7-6.9,7S582.8,234.7,582.8,230.6z M594.8,230.6
		c0-3.2-2.2-5.3-5.1-5.3s-5.1,2.1-5.1,5.3s2.2,5.3,5.1,5.3S594.8,233.8,594.8,230.6z"/>
	<path d="M605.4,235.9l0.8-1.5c1.1,0.9,2.9,1.5,4.9,1.5c2.6,0,3.7-0.9,3.7-2.2c0-3.6-8.9-0.8-8.9-6.2c0-2.2,1.9-3.9,5.4-3.9
		c1.8,0,3.7,0.5,4.8,1.3l-0.8,1.5c-1.2-0.8-2.6-1.2-4-1.2c-2.5,0-3.6,1-3.6,2.3c0,3.7,8.9,0.9,8.9,6.2c0,2.4-2.1,3.9-5.6,3.9
		C608.7,237.6,606.5,236.8,605.4,235.9L605.4,235.9z"/>
	<path d="M631.9,231.2h-11.4c0.2,2.9,2.4,4.8,5.4,4.8c1.7,0,3.2-0.6,4.2-1.8l1,1.2c-1.2,1.5-3.1,2.2-5.3,2.2c-4.3,0-7.2-2.9-7.2-7
		s2.8-6.9,6.7-6.9s6.6,2.8,6.6,6.9C631.9,230.8,631.9,231,631.9,231.2L631.9,231.2z M620.5,229.8h9.7c-0.2-2.7-2.2-4.6-4.9-4.6
		S620.7,227.1,620.5,229.8z"/>
	<path d="M648,223.8v13.7h-1.8V235c-1,1.7-2.7,2.6-4.9,2.6c-3.5,0-5.8-1.9-5.8-5.9v-7.9h1.8v7.8c0,2.9,1.5,4.4,4.1,4.4
		c2.9,0,4.7-1.9,4.7-5v-7.2L648,223.8L648,223.8z"/>
	<path d="M671.9,231.2h-11.4c0.2,2.9,2.4,4.8,5.4,4.8c1.7,0,3.2-0.6,4.2-1.8l1,1.2c-1.2,1.5-3.1,2.2-5.3,2.2c-4.3,0-7.2-2.9-7.2-7
		s2.8-6.9,6.7-6.9s6.6,2.8,6.6,6.9C671.9,230.8,671.9,231,671.9,231.2L671.9,231.2z M660.5,229.8h9.7c-0.2-2.7-2.2-4.6-4.9-4.6
		S660.7,227.1,660.5,229.8z"/>
	<path d="M684,237.5l-4.3-5.7l-4.4,5.7h-2.1l5.4-7l-5.2-6.7h2.1l4.1,5.4l4.1-5.4h2l-5.2,6.7l5.5,7H684L684,237.5z"/>
	<path d="M700.6,231.2h-11.4c0.2,2.9,2.4,4.8,5.4,4.8c1.7,0,3.2-0.6,4.2-1.8l1,1.2c-1.2,1.5-3.1,2.2-5.3,2.2c-4.3,0-7.2-2.9-7.2-7
		s2.8-6.9,6.7-6.9s6.6,2.8,6.6,6.9C700.7,230.8,700.6,231,700.6,231.2L700.6,231.2z M689.2,229.8h9.7c-0.2-2.7-2.2-4.6-4.9-4.6
		S689.4,227.1,689.2,229.8z"/>
	<path d="M711.3,223.7v1.8c-0.2,0-0.3,0-0.4,0c-2.9,0-4.6,1.8-4.6,5v7h-1.8v-13.7h1.8v2.7C707.1,224.6,708.8,223.7,711.3,223.7
		L711.3,223.7z"/>
	<path d="M713.1,230.6c0-4.1,3-6.9,7-6.9c2.3,0,4.3,0.9,5.4,2.7l-1.4,0.9c-0.9-1.4-2.4-2-4-2c-3,0-5.2,2.1-5.2,5.3s2.2,5.3,5.2,5.3
		c1.6,0,3-0.6,4-2l1.4,0.9c-1.1,1.8-3,2.7-5.4,2.7C716.1,237.6,713.1,234.7,713.1,230.6z"/>
	<path d="M732,218.5h2.5l-4.2,3.2h-1.8L732,218.5L732,218.5z M729.2,223.8h1.8v13.7h-1.8V223.8z"/>
	<path d="M734.8,230.6c0-4.1,3-6.9,7-6.9c2.3,0,4.3,0.9,5.4,2.7l-1.4,0.9c-0.9-1.4-2.4-2-4-2c-3,0-5.2,2.1-5.2,5.3s2.2,5.3,5.2,5.3
		c1.6,0,3-0.6,4-2l1.4,0.9c-1.1,1.8-3,2.7-5.4,2.7C737.8,237.6,734.8,234.7,734.8,230.6z"/>
	<path d="M750.4,219.5c0-0.7,0.6-1.3,1.3-1.3s1.3,0.6,1.3,1.3c0,0.8-0.6,1.4-1.3,1.4S750.4,220.2,750.4,219.5L750.4,219.5z
		 M750.8,223.8h1.8v13.7h-1.8V223.8L750.8,223.8z"/>
	<path d="M756.4,230.6c0-4.1,3-6.9,7-6.9s6.9,2.9,6.9,6.9s-2.9,7-6.9,7S756.4,234.7,756.4,230.6z M768.4,230.6
		c0-3.2-2.2-5.3-5.1-5.3s-5.1,2.1-5.1,5.3s2.2,5.3,5.1,5.3S768.4,233.8,768.4,230.6z"/>
	<path d="M772.5,236.2c0-0.8,0.6-1.4,1.4-1.4s1.4,0.6,1.4,1.4s-0.7,1.4-1.4,1.4S772.5,237,772.5,236.2z"/>
	<path d="M799.3,235.8v1.7h-12.9v-18.2h12.5v1.7h-10.6v6.5h9.4v1.6h-9.4v6.8L799.3,235.8L799.3,235.8z"/>
	<path d="M801.3,235.9l0.8-1.5c1.1,0.9,2.9,1.5,4.9,1.5c2.6,0,3.7-0.9,3.7-2.2c0-3.6-8.9-0.8-8.9-6.2c0-2.2,1.9-3.9,5.4-3.9
		c1.8,0,3.7,0.5,4.8,1.3l-0.8,1.5c-1.2-0.8-2.6-1.2-4-1.2c-2.5,0-3.6,1-3.6,2.3c0,3.7,8.9,0.9,8.9,6.2c0,2.4-2.1,3.9-5.6,3.9
		C804.6,237.6,802.4,236.8,801.3,235.9L801.3,235.9z"/>
	<path d="M814,235.9l0.8-1.5c1.1,0.9,2.9,1.5,4.9,1.5c2.6,0,3.7-0.9,3.7-2.2c0-3.6-8.9-0.8-8.9-6.2c0-2.2,1.9-3.9,5.4-3.9
		c1.8,0,3.7,0.5,4.8,1.3l-0.8,1.5c-1.2-0.8-2.6-1.2-4-1.2c-2.5,0-3.6,1-3.6,2.3c0,3.7,8.9,0.9,8.9,6.2c0,2.4-2.1,3.9-5.6,3.9
		C817.3,237.6,815.1,236.8,814,235.9L814,235.9z"/>
	<path d="M839,229v8.5h-1.8v-2.1c-0.8,1.4-2.4,2.3-4.7,2.3c-3.1,0-5-1.6-5-4c0-2.1,1.3-3.9,5.3-3.9h4.3v-0.8c0-2.3-1.3-3.6-3.9-3.6
		c-1.8,0-3.4,0.6-4.5,1.6l-0.8-1.4c1.4-1.2,3.4-1.9,5.6-1.9C837,223.7,839,225.5,839,229L839,229z M837.1,233.4v-2.2h-4.3
		c-2.7,0-3.5,1-3.5,2.4c0,1.6,1.3,2.6,3.5,2.6S836.4,235.1,837.1,233.4L837.1,233.4z"/>
	<path d="M862.7,231.2h-11.4c0.2,2.9,2.4,4.8,5.4,4.8c1.7,0,3.2-0.6,4.2-1.8l1,1.2c-1.2,1.5-3.1,2.2-5.3,2.2c-4.3,0-7.2-2.9-7.2-7
		s2.8-6.9,6.7-6.9s6.6,2.8,6.6,6.9C862.7,230.8,862.7,231,862.7,231.2L862.7,231.2z M851.2,229.8h9.7c-0.2-2.7-2.2-4.6-4.9-4.6
		S851.5,227.1,851.2,229.8z M856.2,221.7h-1.8l3.6-3.2h2.5L856.2,221.7L856.2,221.7z"/>
	<path d="M883.6,229v8.5h-1.8v-2.1c-0.8,1.4-2.4,2.3-4.7,2.3c-3.1,0-5-1.6-5-4c0-2.1,1.3-3.9,5.3-3.9h4.3v-0.8
		c0-2.3-1.3-3.6-3.9-3.6c-1.8,0-3.4,0.6-4.5,1.6l-0.8-1.4c1.4-1.2,3.4-1.9,5.6-1.9C881.6,223.7,883.6,225.5,883.6,229L883.6,229z
		 M881.8,233.4v-2.2h-4.3c-2.7,0-3.5,1-3.5,2.4c0,1.6,1.3,2.6,3.5,2.6S881,235.1,881.8,233.4L881.8,233.4z"/>
	<path d="M907.4,231.2h-11.4c0.2,2.9,2.4,4.8,5.4,4.8c1.7,0,3.2-0.6,4.2-1.8l1,1.2c-1.2,1.5-3.1,2.2-5.3,2.2c-4.3,0-7.2-2.9-7.2-7
		s2.8-6.9,6.7-6.9s6.6,2.8,6.6,6.9C907.4,230.8,907.3,231,907.4,231.2L907.4,231.2z M895.9,229.8h9.7c-0.2-2.7-2.2-4.6-4.9-4.6
		S896.2,227.1,895.9,229.8z"/>
	<path d="M909.3,235.9l0.8-1.5c1.1,0.9,2.9,1.5,4.9,1.5c2.6,0,3.7-0.9,3.7-2.2c0-3.6-8.9-0.8-8.9-6.2c0-2.2,1.9-3.9,5.4-3.9
		c1.8,0,3.7,0.5,4.8,1.3l-0.8,1.5c-1.2-0.8-2.6-1.2-4-1.2c-2.5,0-3.6,1-3.6,2.3c0,3.7,8.9,0.9,8.9,6.2c0,2.4-2.1,3.9-5.6,3.9
		C912.6,237.6,910.4,236.8,909.3,235.9L909.3,235.9z"/>
	<path d="M922,235.9l0.8-1.5c1.1,0.9,2.9,1.5,4.9,1.5c2.6,0,3.7-0.9,3.7-2.2c0-3.6-8.9-0.8-8.9-6.2c0-2.2,1.9-3.9,5.4-3.9
		c1.8,0,3.7,0.5,4.8,1.3l-0.8,1.5c-1.2-0.8-2.6-1.2-4-1.2c-2.5,0-3.6,1-3.6,2.3c0,3.7,8.9,0.9,8.9,6.2c0,2.4-2.1,3.9-5.6,3.9
		C925.3,237.6,923.1,236.8,922,235.9L922,235.9z"/>
	<path d="M948.5,231.2H937c0.2,2.9,2.4,4.8,5.4,4.8c1.7,0,3.2-0.6,4.2-1.8l1,1.2c-1.2,1.5-3.1,2.2-5.3,2.2c-4.3,0-7.2-2.9-7.2-7
		s2.8-6.9,6.7-6.9s6.6,2.8,6.6,6.9C948.5,230.8,948.5,231,948.5,231.2L948.5,231.2z M937,229.8h9.7c-0.2-2.7-2.2-4.6-4.9-4.6
		S937.3,227.1,937,229.8z M939.3,221.7h-1.7l3.3-3.2h1.9l3.3,3.2h-1.7l-2.6-2.2L939.3,221.7L939.3,221.7z"/>
	<path d="M964.9,229.5v7.9H963v-7.8c0-2.9-1.5-4.4-4.1-4.4c-2.9,0-4.8,1.8-4.8,4.9v7.2h-1.8v-13.7h1.8v2.5c1-1.7,2.8-2.6,5.2-2.6
		C962.6,223.7,964.9,225.6,964.9,229.5L964.9,229.5z"/>
	<path d="M968.6,230.6c0-4.1,3-6.9,7-6.9c2.3,0,4.3,0.9,5.4,2.7l-1.4,0.9c-0.9-1.4-2.4-2-4-2c-3,0-5.2,2.1-5.2,5.3s2.2,5.3,5.2,5.3
		c1.6,0,3-0.6,4-2l1.4,0.9c-1.1,1.8-3,2.7-5.4,2.7C971.5,237.6,968.6,234.7,968.6,230.6z"/>
	<path d="M984.2,219.5c0-0.7,0.6-1.3,1.3-1.3s1.3,0.6,1.3,1.3c0,0.8-0.6,1.4-1.3,1.4S984.2,220.2,984.2,219.5L984.2,219.5z
		 M984.6,223.8h1.8v13.7h-1.8V223.8L984.6,223.8z"/>
	<path d="M1001.9,229v8.5h-1.8v-2.1c-0.8,1.4-2.4,2.3-4.7,2.3c-3.1,0-5-1.6-5-4c0-2.1,1.3-3.9,5.3-3.9h4.3v-0.8
		c0-2.3-1.3-3.6-3.9-3.6c-1.8,0-3.4,0.6-4.5,1.6l-0.8-1.4c1.4-1.2,3.4-1.9,5.6-1.9C999.9,223.7,1001.9,225.5,1001.9,229L1001.9,229z
		 M1000.1,233.4v-2.2h-4.3c-2.7,0-3.5,1-3.5,2.4c0,1.6,1.3,2.6,3.5,2.6S999.3,235.1,1000.1,233.4L1000.1,233.4z"/>
	<path d="M1026.2,218.2v19.3h-1.8v-2.7c-1.1,1.9-3,2.8-5.3,2.8c-3.9,0-6.8-2.8-6.8-7s2.9-6.9,6.8-6.9c2.2,0,4.1,0.9,5.2,2.7v-8.2
		L1026.2,218.2L1026.2,218.2z M1024.4,230.6c0-3.2-2.2-5.3-5.1-5.3s-5.1,2.1-5.1,5.3s2.2,5.3,5.1,5.3S1024.4,233.8,1024.4,230.6z"/>
	<path d="M1030,230.6c0-4.1,3-6.9,7-6.9s6.9,2.9,6.9,6.9s-2.9,7-6.9,7S1030,234.7,1030,230.6z M1042,230.6c0-3.2-2.2-5.3-5.1-5.3
		s-5.1,2.1-5.1,5.3s2.2,5.3,5.1,5.3S1042,233.8,1042,230.6z"/>
	<path d="M1067.7,235.8v1.7h-12.9v-18.2h12.5v1.7h-10.6v6.5h9.4v1.6h-9.4v6.8L1067.7,235.8L1067.7,235.8z"/>
	<path d="M1069.8,235.9l0.8-1.5c1.1,0.9,2.9,1.5,4.9,1.5c2.6,0,3.7-0.9,3.7-2.2c0-3.6-8.9-0.8-8.9-6.2c0-2.2,1.9-3.9,5.4-3.9
		c1.8,0,3.7,0.5,4.8,1.3l-0.8,1.5c-1.2-0.8-2.6-1.2-4-1.2c-2.5,0-3.6,1-3.6,2.3c0,3.7,8.9,0.9,8.9,6.2c0,2.4-2.1,3.9-5.6,3.9
		C1073.1,237.6,1070.9,236.8,1069.8,235.9L1069.8,235.9z"/>
	<path d="M1091.6,236.6c-0.7,0.6-1.8,1-2.9,1c-2.6,0-4-1.5-4-4v-8.3h-2.4v-1.6h2.4v-3h1.8v3h4.2v1.6h-4.2v8.2c0,1.6,0.8,2.5,2.4,2.5
		c0.8,0,1.5-0.2,2-0.7L1091.6,236.6L1091.6,236.6z"/>
	<path d="M1105.2,229v8.5h-1.8v-2.1c-0.8,1.4-2.4,2.3-4.7,2.3c-3.1,0-5-1.6-5-4c0-2.1,1.3-3.9,5.3-3.9h4.3v-0.8
		c0-2.3-1.3-3.6-3.9-3.6c-1.8,0-3.4,0.6-4.6,1.6l-0.8-1.4c1.4-1.2,3.4-1.9,5.6-1.9C1103.2,223.7,1105.2,225.5,1105.2,229L1105.2,229
		z M1103.4,233.4v-2.2h-4.3c-2.7,0-3.5,1-3.5,2.4c0,1.6,1.3,2.6,3.5,2.6S1102.7,235.1,1103.4,233.4L1103.4,233.4z"/>
	<path d="M1122.8,218.2v19.3h-1.8v-2.7c-1.1,1.9-3,2.8-5.3,2.8c-3.9,0-6.8-2.8-6.8-7s2.9-6.9,6.8-6.9c2.2,0,4.1,0.9,5.2,2.7v-8.2
		L1122.8,218.2L1122.8,218.2z M1121,230.6c0-3.2-2.2-5.3-5.1-5.3s-5.1,2.1-5.1,5.3s2.2,5.3,5.1,5.3S1121,233.8,1121,230.6z"/>
	<path d="M1126.6,230.6c0-4.1,3-6.9,7-6.9s6.9,2.9,6.9,6.9s-2.9,7-6.9,7S1126.6,234.7,1126.6,230.6z M1138.6,230.6
		c0-3.2-2.2-5.3-5.1-5.3s-5.1,2.1-5.1,5.3s2.2,5.3,5.1,5.3S1138.6,233.8,1138.6,230.6z"/>
	<path d="M136.8,258.2v19.3H135v-2.7c-1.1,1.9-3,2.8-5.3,2.8c-3.9,0-6.8-2.8-6.8-7s2.9-6.9,6.8-6.9c2.2,0,4.1,0.9,5.2,2.7v-8.2
		L136.8,258.2L136.8,258.2z M135,270.6c0-3.2-2.2-5.3-5.1-5.3s-5.1,2.1-5.1,5.3s2.2,5.3,5.1,5.3S135,273.8,135,270.6z"/>
	<path d="M153.8,271.2h-11.4c0.2,2.9,2.4,4.8,5.4,4.8c1.7,0,3.1-0.6,4.2-1.8l1,1.2c-1.2,1.5-3.1,2.2-5.3,2.2c-4.3,0-7.2-2.9-7.2-7
		s2.8-6.9,6.7-6.9s6.6,2.8,6.6,6.9C153.9,270.8,153.8,271,153.8,271.2L153.8,271.2z M142.4,269.8h9.7c-0.2-2.7-2.2-4.5-4.9-4.5
		S142.6,267.1,142.4,269.8z"/>
	<path d="M164.8,259.3h7.4c5.8,0,9.8,3.7,9.8,9.1s-3.9,9.1-9.8,9.1h-7.4V259.3z M172.1,275.8c4.8,0,8-3.1,8-7.4s-3.1-7.4-8-7.4h-5.4
		v14.9L172.1,275.8L172.1,275.8z"/>
	<path d="M185.5,259.5c0-0.7,0.6-1.3,1.4-1.3s1.4,0.6,1.4,1.3c0,0.8-0.6,1.4-1.4,1.4S185.5,260.2,185.5,259.5L185.5,259.5z
		 M185.9,263.8h1.9v13.7h-1.9V263.8z"/>
	<path d="M199.8,263.7v1.8c-0.2,0-0.3,0-0.4,0c-2.9,0-4.6,1.8-4.6,5v7h-1.9v-13.7h1.8v2.7C195.5,264.6,197.3,263.7,199.8,263.7
		L199.8,263.7z"/>
	<path d="M214.9,271.2h-11.4c0.2,2.9,2.4,4.8,5.4,4.8c1.7,0,3.1-0.6,4.2-1.8l1,1.2c-1.2,1.5-3.1,2.2-5.3,2.2c-4.3,0-7.2-2.9-7.2-7
		s2.8-6.9,6.7-6.9s6.6,2.8,6.6,6.9C214.9,270.8,214.9,271,214.9,271.2L214.9,271.2z M203.5,269.8h9.7c-0.2-2.7-2.2-4.5-4.9-4.5
		S203.7,267.1,203.5,269.8z"/>
	<path d="M218.3,259.5c0-0.7,0.6-1.3,1.4-1.3s1.4,0.6,1.4,1.3c0,0.8-0.6,1.4-1.4,1.4S218.3,260.2,218.3,259.5L218.3,259.5z
		 M218.7,263.8h1.9v13.7h-1.9V263.8z"/>
	<path d="M232.9,276.6c-0.7,0.6-1.8,1-2.9,1c-2.6,0-4-1.5-4-4v-8.3h-2.4v-1.6h2.4v-3h1.9v3h4.2v1.6h-4.2v8.2c0,1.6,0.8,2.5,2.4,2.5
		c0.8,0,1.5-0.2,2-0.7L232.9,276.6L232.9,276.6z"/>
	<path d="M234.4,270.6c0-4.1,3-6.9,7-6.9s6.9,2.9,6.9,6.9s-2.9,7-6.9,7S234.4,274.7,234.4,270.6z M246.4,270.6
		c0-3.2-2.2-5.3-5.1-5.3s-5.1,2.1-5.1,5.3s2.2,5.3,5.1,5.3S246.4,273.8,246.4,270.6z"/>
	<path d="M250.9,265.1c0-0.8,0.6-1.4,1.4-1.4s1.4,0.6,1.4,1.4s-0.6,1.4-1.4,1.4S250.9,265.9,250.9,265.1z M250.9,276.2
		c0-0.8,0.6-1.4,1.4-1.4s1.4,0.6,1.4,1.4s-0.6,1.4-1.4,1.4S250.9,277,250.9,276.2z"/>
	<path d="M274.7,269v8.5h-1.8v-2.1c-0.8,1.4-2.4,2.3-4.7,2.3c-3.1,0-5-1.6-5-4c0-2.1,1.4-3.9,5.3-3.9h4.3v-0.8
		c0-2.3-1.3-3.6-3.9-3.6c-1.8,0-3.4,0.6-4.5,1.6l-0.8-1.4c1.4-1.2,3.4-1.9,5.6-1.9C272.7,263.7,274.7,265.5,274.7,269L274.7,269z
		 M272.9,273.4v-2.2h-4.3c-2.6,0-3.5,1-3.5,2.4c0,1.6,1.3,2.6,3.5,2.6S272.1,275.1,272.9,273.4L272.9,273.4z"/>
	<path d="M281.6,281.8l0.6-1.4c0.5,0.5,1.3,0.7,2.1,0.7c1.5,0,2.3-0.9,2.3-2.6v-14.7h1.9v14.7c0,2.5-1.4,4.2-4,4.2
		C283.4,282.7,282.3,282.4,281.6,281.8L281.6,281.8z M286.3,259.5c0-0.7,0.6-1.3,1.4-1.3s1.4,0.6,1.4,1.3c0,0.8-0.6,1.4-1.4,1.4
		S286.3,260.2,286.3,259.5L286.3,259.5z"/>
	<path d="M306,263.8v13.7h-1.8V275c-1,1.7-2.7,2.6-4.9,2.6c-3.5,0-5.8-2-5.8-5.9v-7.9h1.9v7.8c0,2.9,1.5,4.4,4.1,4.4
		c2.9,0,4.6-1.9,4.6-5v-7.2L306,263.8L306,263.8z"/>
	<path d="M318,263.7v1.8c-0.2,0-0.3,0-0.4,0c-2.9,0-4.6,1.8-4.6,5v7h-1.9v-13.7h1.8v2.7C313.8,264.6,315.5,263.7,318,263.7
		L318,263.7z"/>
	<path d="M321,259.5c0-0.7,0.6-1.3,1.4-1.3s1.4,0.6,1.4,1.3c0,0.8-0.6,1.4-1.4,1.4S321,260.2,321,259.5L321,259.5z M321.4,263.8h1.9
		v13.7h-1.9V263.8z"/>
	<path d="M340.9,258.2v19.3h-1.8v-2.7c-1.1,1.9-3,2.8-5.3,2.8c-3.9,0-6.8-2.8-6.8-7s2.9-6.9,6.8-6.9c2.2,0,4.1,0.9,5.2,2.7v-8.2
		L340.9,258.2L340.9,258.2z M339,270.6c0-3.2-2.2-5.3-5.1-5.3s-5.1,2.1-5.1,5.3s2.2,5.3,5.1,5.3S339,273.8,339,270.6z"/>
	<path d="M345.6,259.5c0-0.7,0.6-1.3,1.4-1.3s1.4,0.6,1.4,1.3c0,0.8-0.6,1.4-1.4,1.4S345.6,260.2,345.6,259.5L345.6,259.5z
		 M346,263.8h1.9v13.7H346V263.8z"/>
	<path d="M357.4,258c1,0,2,0.3,2.7,0.9l-0.6,1.4c-0.5-0.4-1.2-0.7-2-0.7c-1.6,0-2.4,0.9-2.4,2.6v1.6h4.2v1.6h-4.2v12.1h-1.9v-12.1
		h-2.4v-1.6h2.4v-1.7C353.3,259.7,354.8,258,357.4,258L357.4,258z M366.2,259.4c0,0.8-0.6,1.4-1.4,1.4s-1.4-0.6-1.4-1.3
		s0.6-1.3,1.4-1.3S366.2,258.7,366.2,259.4L366.2,259.4z M363.9,263.8h1.9v13.7h-1.9V263.8z"/>
	<path d="M369.5,270.6c0-4.1,3-6.9,7-6.9c2.3,0,4.3,0.9,5.4,2.7l-1.4,0.9c-0.9-1.4-2.4-2-4-2c-3,0-5.2,2.1-5.2,5.3s2.2,5.3,5.2,5.3
		c1.6,0,3-0.6,4-2l1.4,0.9c-1.1,1.8-3,2.7-5.4,2.7C372.5,277.6,369.5,274.7,369.5,270.6z"/>
	<path d="M395.8,269v8.5h-1.8v-2.1c-0.8,1.4-2.4,2.3-4.7,2.3c-3.1,0-5-1.6-5-4c0-2.1,1.4-3.9,5.3-3.9h4.3v-0.8
		c0-2.3-1.3-3.6-3.9-3.6c-1.8,0-3.4,0.6-4.5,1.6l-0.8-1.4c1.4-1.2,3.4-1.9,5.6-1.9C393.8,263.7,395.8,265.5,395.8,269L395.8,269z
		 M394,273.4v-2.2h-4.3c-2.6,0-3.5,1-3.5,2.4c0,1.6,1.3,2.6,3.5,2.6S393.3,275.1,394,273.4L394,273.4z"/>
	<path d="M410.6,274l1.4,0.9c-1.1,1.8-3,2.7-5.4,2.7h0l-0.3,1.2c1.4,0.1,2.2,1,2.2,2.1c0,1.4-1.2,2.3-2.9,2.3
		c-0.9,0-1.6-0.2-2.2-0.6l0.4-1c0.5,0.3,1.1,0.5,1.7,0.5c1,0,1.6-0.4,1.6-1.2c0-0.7-0.5-1.2-1.6-1.2h-0.6l0.6-2.2
		c-3.5-0.5-5.9-3.2-5.9-6.9c0-4.1,3-6.9,7-6.9c2.3,0,4.3,0.9,5.4,2.7l-1.4,0.9c-0.9-1.4-2.4-2-4-2c-3,0-5.2,2.1-5.2,5.3
		s2.2,5.3,5.2,5.3C408.2,275.9,409.6,275.3,410.6,274L410.6,274z"/>
	<path d="M425.9,269v8.5h-1.8v-2.1c-0.8,1.4-2.4,2.3-4.7,2.3c-3.1,0-5-1.6-5-4c0-2.1,1.4-3.9,5.3-3.9h4.3v-0.8
		c0-2.3-1.3-3.6-3.9-3.6c-1.8,0-3.4,0.6-4.5,1.6l-0.8-1.4c1.4-1.2,3.4-1.9,5.6-1.9C423.9,263.7,425.9,265.5,425.9,269L425.9,269z
		 M424,273.4v-2.2h-4.3c-2.6,0-3.5,1-3.5,2.4c0,1.6,1.3,2.6,3.5,2.6S423.3,275.1,424,273.4L424,273.4z M417.4,261.4h-1.1
		c0-1.7,1-2.9,2.3-2.9c1.6,0,2.4,1.8,3.4,1.8c0.8,0,1.3-0.6,1.4-1.6h1.1c0,1.7-1,2.8-2.3,2.8c-1.6,0-2.4-1.8-3.4-1.8
		C418,259.8,417.4,260.4,417.4,261.4L417.4,261.4z"/>
	<path d="M429.6,270.6c0-4.1,3-6.9,7-6.9s6.9,2.9,6.9,6.9s-2.9,7-6.9,7S429.6,274.7,429.6,270.6z M441.6,270.6
		c0-3.2-2.2-5.3-5.1-5.3s-5.1,2.1-5.1,5.3s2.2,5.3,5.1,5.3S441.6,273.8,441.6,270.6z"/>
	<path d="M466.5,258.2v19.3h-1.8v-2.7c-1.1,1.9-3,2.8-5.3,2.8c-3.9,0-6.8-2.8-6.8-7s2.9-6.9,6.8-6.9c2.2,0,4.1,0.9,5.2,2.7v-8.2
		L466.5,258.2L466.5,258.2z M464.7,270.6c0-3.2-2.2-5.3-5.1-5.3s-5.1,2.1-5.1,5.3s2.2,5.3,5.1,5.3S464.7,273.8,464.7,270.6z"/>
	<path d="M470.3,270.6c0-4.1,3-6.9,7-6.9s6.9,2.9,6.9,6.9s-2.9,7-6.9,7S470.3,274.7,470.3,270.6z M482.4,270.6
		c0-3.2-2.2-5.3-5.1-5.3s-5.1,2.1-5.1,5.3s2.2,5.3,5.1,5.3S482.4,273.8,482.4,270.6z"/>
	<path d="M508.7,270.6c0,4.2-2.9,7-6.8,7c-2.2,0-4.1-0.9-5.2-2.7v7.6h-1.9v-18.7h1.8v2.7c1.1-1.8,3-2.8,5.3-2.8
		C505.7,263.7,508.7,266.5,508.7,270.6L508.7,270.6z M506.8,270.6c0-3.2-2.2-5.3-5.1-5.3s-5.1,2.2-5.1,5.3s2.2,5.3,5.1,5.3
		S506.8,273.8,506.8,270.6z"/>
	<path d="M511,270.6c0-4.1,3-6.9,7-6.9s6.9,2.9,6.9,6.9s-2.9,7-6.9,7S511,274.7,511,270.6L511,270.6z M523.1,270.6
		c0-3.2-2.2-5.3-5.1-5.3s-5.1,2.1-5.1,5.3s2.2,5.3,5.1,5.3S523.1,273.8,523.1,270.6z"/>
	<path d="M541.2,258.2v19.3h-1.8v-2.7c-1.1,1.9-3,2.8-5.3,2.8c-3.9,0-6.8-2.8-6.8-7s2.9-6.9,6.8-6.9c2.2,0,4.1,0.9,5.2,2.7v-8.2
		L541.2,258.2L541.2,258.2z M539.4,270.6c0-3.2-2.2-5.3-5.1-5.3s-5.1,2.1-5.1,5.3s2.2,5.3,5.1,5.3S539.4,273.8,539.4,270.6z"/>
	<path d="M558.3,271.2h-11.4c0.2,2.9,2.4,4.8,5.4,4.8c1.7,0,3.2-0.6,4.2-1.8l1,1.2c-1.2,1.5-3.1,2.2-5.3,2.2c-4.3,0-7.2-2.9-7.2-7
		s2.8-6.9,6.7-6.9s6.6,2.8,6.6,6.9C558.3,270.8,558.2,271,558.3,271.2L558.3,271.2z M546.8,269.8h9.7c-0.2-2.7-2.2-4.5-4.9-4.5
		S547.1,267.1,546.8,269.8z"/>
	<path d="M569,263.7v1.8c-0.2,0-0.3,0-0.4,0c-2.9,0-4.6,1.8-4.6,5v7h-1.8v-13.7h1.8v2.7C564.7,264.6,566.4,263.7,569,263.7
		L569,263.7z"/>
	<path d="M571,276.2c0-0.8,0.6-1.4,1.4-1.4s1.4,0.6,1.4,1.4s-0.7,1.4-1.4,1.4S571,277,571,276.2z"/>
	<path d="M583.3,268.4c0-5.3,4.1-9.3,9.6-9.3s9.5,3.9,9.5,9.3s-4.1,9.3-9.5,9.3S583.3,273.7,583.3,268.4z M600.5,268.4
		c0-4.3-3.2-7.5-7.6-7.5s-7.7,3.2-7.7,7.5s3.3,7.5,7.7,7.5S600.5,272.7,600.5,268.4z"/>
	<path d="M627,270.6c0,4.2-2.9,7-6.8,7c-2.2,0-4.1-0.9-5.2-2.7v7.6h-1.8v-18.7h1.8v2.7c1.1-1.8,3-2.8,5.3-2.8
		C624.1,263.7,627,266.5,627,270.6L627,270.6z M625.2,270.6c0-3.2-2.2-5.3-5.1-5.3s-5.1,2.2-5.1,5.3s2.2,5.3,5.1,5.3
		S625.2,273.8,625.2,270.6z"/>
	<path d="M629.4,270.6c0-4.1,3-6.9,7-6.9s6.9,2.9,6.9,6.9s-2.9,7-6.9,7S629.4,274.7,629.4,270.6z M641.5,270.6
		c0-3.2-2.2-5.3-5.1-5.3s-5.1,2.1-5.1,5.3s2.2,5.3,5.1,5.3S641.5,273.8,641.5,270.6z"/>
	<path d="M659.6,258.2v19.3h-1.8v-2.7c-1.1,1.9-3,2.8-5.3,2.8c-3.9,0-6.8-2.8-6.8-7s2.9-6.9,6.8-6.9c2.2,0,4.1,0.9,5.2,2.7v-8.2
		L659.6,258.2L659.6,258.2z M657.8,270.6c0-3.2-2.2-5.3-5.1-5.3s-5.1,2.1-5.1,5.3s2.2,5.3,5.1,5.3S657.8,273.8,657.8,270.6z"/>
	<path d="M676.6,271.2h-11.4c0.2,2.9,2.4,4.8,5.4,4.8c1.7,0,3.2-0.6,4.2-1.8l1,1.2c-1.2,1.5-3.1,2.2-5.3,2.2c-4.3,0-7.2-2.9-7.2-7
		s2.8-6.9,6.7-6.9s6.6,2.8,6.6,6.9C676.7,270.8,676.6,271,676.6,271.2L676.6,271.2z M665.2,269.8h9.7c-0.2-2.7-2.2-4.5-4.9-4.5
		S665.4,267.1,665.2,269.8z"/>
	<path d="M687.3,263.7v1.8c-0.2,0-0.3,0-0.4,0c-2.9,0-4.6,1.8-4.6,5v7h-1.8v-13.7h1.8v2.7C683.1,264.6,684.8,263.7,687.3,263.7
		L687.3,263.7z"/>
	<path d="M697.8,270.4c0-4.8,1.1-9.1,3-12.2h1.8c-2,3.6-3,7.5-3,12.2s0.9,8.6,3,12.2h-1.8C698.9,279.4,697.8,275.1,697.8,270.4z"/>
	<path d="M719.5,275.8v1.7h-12.9v-18.2h12.5v1.7h-10.6v6.5h9.4v1.6h-9.4v6.8L719.5,275.8L719.5,275.8z"/>
	<path d="M721.5,275.9l0.8-1.5c1.1,0.9,2.9,1.5,4.9,1.5c2.6,0,3.7-0.9,3.7-2.2c0-3.6-8.9-0.8-8.9-6.2c0-2.2,1.9-3.9,5.4-3.9
		c1.8,0,3.7,0.5,4.8,1.3l-0.8,1.5c-1.2-0.8-2.6-1.2-4-1.2c-2.5,0-3.6,1-3.6,2.3c0,3.7,8.9,0.9,8.9,6.2c0,2.4-2.1,3.9-5.6,3.9
		C724.8,277.6,722.6,276.9,721.5,275.9L721.5,275.9z"/>
	<path d="M743.3,276.6c-0.7,0.6-1.8,1-2.9,1c-2.6,0-4-1.5-4-4v-8.3H734v-1.6h2.4v-3h1.8v3h4.2v1.6h-4.2v8.2c0,1.6,0.8,2.5,2.4,2.5
		c0.8,0,1.5-0.2,2-0.7L743.3,276.6L743.3,276.6z"/>
	<path d="M757,269v8.5h-1.8v-2.1c-0.8,1.4-2.4,2.3-4.7,2.3c-3.1,0-5-1.6-5-4c0-2.1,1.3-3.9,5.3-3.9h4.3v-0.8c0-2.3-1.3-3.6-3.9-3.6
		c-1.8,0-3.4,0.6-4.5,1.6l-0.8-1.4c1.4-1.2,3.4-1.9,5.6-1.9C755,263.7,757,265.5,757,269L757,269z M755.2,273.4v-2.2h-4.3
		c-2.7,0-3.5,1-3.5,2.4c0,1.6,1.3,2.6,3.5,2.6S754.4,275.1,755.2,273.4L755.2,273.4z"/>
	<path d="M774.5,258.2v19.3h-1.8v-2.7c-1.1,1.9-3,2.8-5.3,2.8c-3.9,0-6.8-2.8-6.8-7s2.9-6.9,6.8-6.9c2.2,0,4.1,0.9,5.2,2.7v-8.2
		L774.5,258.2L774.5,258.2z M772.7,270.6c0-3.2-2.2-5.3-5.1-5.3s-5.1,2.1-5.1,5.3s2.2,5.3,5.1,5.3S772.7,273.8,772.7,270.6z"/>
	<path d="M778.3,270.6c0-4.1,3-6.9,7-6.9s6.9,2.9,6.9,6.9s-2.9,7-6.9,7S778.3,274.7,778.3,270.6z M790.4,270.6
		c0-3.2-2.2-5.3-5.1-5.3s-5.1,2.1-5.1,5.3s2.2,5.3,5.1,5.3S790.4,273.8,790.4,270.6z"/>
	<path d="M794.5,282.5c2.1-3.6,3-7.5,3-12.2s-0.9-8.6-3-12.2h1.8c2,3.1,3,7.4,3,12.2s-1.1,9-3,12.2H794.5z"/>
	<path d="M823.3,271.2h-11.4c0.2,2.9,2.4,4.8,5.4,4.8c1.7,0,3.2-0.6,4.2-1.8l1,1.2c-1.2,1.5-3.1,2.2-5.3,2.2c-4.3,0-7.2-2.9-7.2-7
		s2.8-6.9,6.7-6.9s6.6,2.8,6.6,6.9C823.3,270.8,823.3,271,823.3,271.2L823.3,271.2z M811.8,269.8h9.7c-0.2-2.7-2.2-4.5-4.9-4.5
		S812.1,267.1,811.8,269.8z M816.8,261.7H815l3.6-3.2h2.5L816.8,261.7L816.8,261.7z"/>
	<path d="M832.5,270.6c0-4.1,3-6.9,7-6.9s6.9,2.9,6.9,6.9s-2.9,7-6.9,7S832.5,274.7,832.5,270.6z M844.5,270.6
		c0-3.2-2.2-5.3-5.1-5.3s-5.1,2.1-5.1,5.3s2.2,5.3,5.1,5.3S844.5,273.8,844.5,270.6z"/>
	<path d="M857.1,263.7v1.8c-0.2,0-0.3,0-0.4,0c-2.9,0-4.6,1.8-4.6,5v7h-1.8v-13.7h1.8v2.7C852.8,264.6,854.6,263.7,857.1,263.7
		L857.1,263.7z"/>
	<path d="M872.9,263.8v12c0,4.7-2.3,6.8-6.8,6.8c-2.5,0-4.9-0.8-6.4-2.1l0.9-1.4c1.3,1.2,3.3,1.9,5.4,1.9c3.5,0,5-1.6,5-5v-1.7
		c-1.1,1.7-3.1,2.6-5.3,2.6c-3.9,0-6.9-2.7-6.9-6.7s3-6.6,6.9-6.6c2.3,0,4.3,0.9,5.4,2.7v-2.6L872.9,263.8L872.9,263.8z
		 M871.2,270.3c0-3-2.2-5-5.2-5s-5.2,2-5.2,5s2.2,5,5.2,5S871.2,273.3,871.2,270.3z"/>
	<path d="M888.4,269v8.5h-1.8v-2.1c-0.8,1.4-2.4,2.3-4.7,2.3c-3.1,0-5-1.6-5-4c0-2.1,1.3-3.9,5.3-3.9h4.3v-0.8
		c0-2.3-1.3-3.6-3.9-3.6c-1.8,0-3.4,0.6-4.5,1.6l-0.8-1.4c1.4-1.2,3.4-1.9,5.6-1.9C886.4,263.7,888.4,265.5,888.4,269z M886.6,273.4
		v-2.2h-4.3c-2.7,0-3.5,1-3.5,2.4c0,1.6,1.3,2.6,3.5,2.6S885.9,275.1,886.6,273.4L886.6,273.4z"/>
	<path d="M906,269.5v7.9h-1.8v-7.8c0-2.9-1.5-4.4-4.1-4.4c-2.9,0-4.8,1.8-4.8,4.9v7.2h-1.8v-13.7h1.8v2.5c1-1.7,2.8-2.6,5.2-2.6
		C903.7,263.7,906,265.6,906,269.5L906,269.5z"/>
	<path d="M910.6,259.5c0-0.7,0.6-1.3,1.3-1.3s1.3,0.6,1.3,1.3c0,0.8-0.6,1.4-1.3,1.4S910.6,260.2,910.6,259.5L910.6,259.5z
		 M911.1,263.8h1.8v13.7h-1.8V263.8z"/>
	<path d="M927.7,275.9v1.5h-11.1v-1.2l8.6-10.9h-8.5v-1.6h10.8v1.2l-8.6,10.9H927.7z"/>
	<path d="M941.7,269v8.5h-1.8v-2.1c-0.8,1.4-2.4,2.3-4.7,2.3c-3.1,0-5-1.6-5-4c0-2.1,1.3-3.9,5.3-3.9h4.3v-0.8
		c0-2.3-1.3-3.6-3.9-3.6c-1.8,0-3.4,0.6-4.5,1.6l-0.8-1.4c1.4-1.2,3.4-1.9,5.6-1.9C939.7,263.7,941.7,265.5,941.7,269z M939.8,273.4
		v-2.2h-4.3c-2.7,0-3.5,1-3.5,2.4c0,1.6,1.3,2.6,3.5,2.6S939.1,275.1,939.8,273.4L939.8,273.4z"/>
	<path d="M959.2,258.2v19.3h-1.8v-2.7c-1.1,1.9-3,2.8-5.3,2.8c-3.9,0-6.8-2.8-6.8-7s2.9-6.9,6.8-6.9c2.2,0,4.1,0.9,5.2,2.7v-8.2
		L959.2,258.2L959.2,258.2z M957.4,270.6c0-3.2-2.2-5.3-5.1-5.3s-5.1,2.1-5.1,5.3s2.2,5.3,5.1,5.3S957.4,273.8,957.4,270.6z"/>
	<path d="M963,270.6c0-4.1,3-6.9,7-6.9s6.9,2.9,6.9,6.9s-2.9,7-6.9,7S963,274.7,963,270.6z M975,270.6c0-3.2-2.2-5.3-5.1-5.3
		s-5.1,2.1-5.1,5.3s2.2,5.3,5.1,5.3S975,273.8,975,270.6z"/>
	<path d="M999.4,271.2h-11.4c0.2,2.9,2.4,4.8,5.4,4.8c1.7,0,3.2-0.6,4.2-1.8l1,1.2c-1.2,1.5-3.1,2.2-5.3,2.2c-4.3,0-7.2-2.9-7.2-7
		s2.8-6.9,6.7-6.9s6.6,2.8,6.6,6.9C999.4,270.8,999.4,271,999.4,271.2L999.4,271.2z M987.9,269.8h9.7c-0.2-2.7-2.2-4.5-4.9-4.5
		S988.2,267.1,987.9,269.8z"/>
	<path d="M1021.9,271.2h-11.4c0.2,2.9,2.4,4.8,5.4,4.8c1.7,0,3.2-0.6,4.2-1.8l1,1.2c-1.2,1.5-3.1,2.2-5.3,2.2c-4.3,0-7.2-2.9-7.2-7
		s2.8-6.9,6.7-6.9s6.6,2.8,6.6,6.9C1021.9,270.8,1021.9,271,1021.9,271.2L1021.9,271.2z M1010.5,269.8h9.7c-0.2-2.7-2.2-4.5-4.9-4.5
		S1010.7,267.1,1010.5,269.8z"/>
	<path d="M1034,277.5l-4.3-5.7l-4.4,5.7h-2.1l5.4-7l-5.2-6.7h2.1l4.1,5.4l4.1-5.4h2l-5.2,6.7l5.5,7H1034L1034,277.5z"/>
	<path d="M1050.6,271.2h-11.4c0.2,2.9,2.4,4.8,5.4,4.8c1.7,0,3.2-0.6,4.2-1.8l1,1.2c-1.2,1.5-3.1,2.2-5.3,2.2c-4.3,0-7.2-2.9-7.2-7
		s2.8-6.9,6.7-6.9s6.6,2.8,6.6,6.9C1050.6,270.8,1050.6,271,1050.6,271.2L1050.6,271.2z M1039.2,269.8h9.7c-0.2-2.7-2.2-4.5-4.9-4.5
		S1039.4,267.1,1039.2,269.8z"/>
	<path d="M1061.3,263.7v1.8c-0.2,0-0.3,0-0.4,0c-2.9,0-4.6,1.8-4.6,5v7h-1.8v-13.7h1.8v2.7C1057,264.6,1058.8,263.7,1061.3,263.7
		L1061.3,263.7z"/>
	<path d="M1063.1,270.6c0-4.1,3-6.9,7.1-6.9c2.3,0,4.3,0.9,5.4,2.7l-1.4,0.9c-0.9-1.4-2.4-2-4-2c-3,0-5.2,2.1-5.2,5.3
		s2.2,5.3,5.2,5.3c1.6,0,3-0.6,4-2l1.4,0.9c-1.1,1.8-3,2.7-5.4,2.7C1066.1,277.6,1063.1,274.7,1063.1,270.6z"/>
	<path d="M1078.7,259.5c0-0.7,0.6-1.3,1.3-1.3s1.3,0.6,1.3,1.3c0,0.8-0.6,1.4-1.3,1.4S1078.7,260.2,1078.7,259.5L1078.7,259.5z
		 M1079.1,263.8h1.8v13.7h-1.8V263.8z"/>
	<path d="M1098.6,258.2v19.3h-1.8v-2.7c-1.1,1.9-3,2.8-5.3,2.8c-3.9,0-6.8-2.8-6.8-7s2.9-6.9,6.8-6.9c2.2,0,4.1,0.9,5.2,2.7v-8.2
		L1098.6,258.2L1098.6,258.2z M1096.8,270.6c0-3.2-2.2-5.3-5.1-5.3s-5.1,2.1-5.1,5.3s2.2,5.3,5.1,5.3S1096.8,273.8,1096.8,270.6z"/>
	<path d="M1102.4,270.6c0-4.1,3-6.9,7-6.9s6.9,2.9,6.9,6.9s-2.9,7-6.9,7S1102.4,274.7,1102.4,270.6z M1114.4,270.6
		c0-3.2-2.2-5.3-5.1-5.3s-5.1,2.1-5.1,5.3s2.2,5.3,5.1,5.3S1114.4,273.8,1114.4,270.6z"/>
	<path d="M136.8,298.2v19.3H135v-2.7c-1.1,1.9-3,2.8-5.3,2.8c-3.9,0-6.8-2.8-6.8-7s2.9-6.9,6.8-6.9c2.2,0,4.1,0.9,5.2,2.7v-8.2
		L136.8,298.2L136.8,298.2z M135,310.6c0-3.2-2.2-5.3-5.1-5.3s-5.1,2.1-5.1,5.3s2.2,5.3,5.1,5.3S135,313.8,135,310.6z"/>
	<path d="M153.8,311.2h-11.4c0.2,2.9,2.4,4.8,5.4,4.8c1.7,0,3.1-0.6,4.2-1.8l1,1.2c-1.2,1.5-3.1,2.2-5.3,2.2c-4.3,0-7.2-2.9-7.2-7
		s2.8-6.9,6.7-6.9s6.6,2.8,6.6,6.9C153.9,310.8,153.8,311,153.8,311.2L153.8,311.2z M142.4,309.8h9.7c-0.2-2.7-2.2-4.5-4.9-4.5
		S142.6,307.1,142.4,309.8z"/>
	<path d="M174.8,309v8.5H173v-2.1c-0.8,1.4-2.4,2.3-4.7,2.3c-3.1,0-5-1.6-5-4c0-2.1,1.4-3.9,5.3-3.9h4.3v-0.8c0-2.3-1.3-3.6-3.9-3.6
		c-1.8,0-3.4,0.6-4.6,1.6l-0.8-1.4c1.4-1.2,3.4-1.9,5.6-1.9C172.8,303.7,174.8,305.5,174.8,309L174.8,309z M172.9,313.4v-2.2h-4.3
		c-2.6,0-3.5,1-3.5,2.4c0,1.6,1.3,2.6,3.5,2.6S172.2,315.1,172.9,313.4L172.9,313.4z"/>
	<path d="M178.5,310.6c0-4.1,3-6.9,7.1-6.9c2.3,0,4.3,0.9,5.4,2.7l-1.4,0.9c-0.9-1.4-2.4-2-4-2c-3,0-5.2,2.1-5.2,5.3
		s2.2,5.3,5.2,5.3c1.6,0,3-0.6,4-2l1.4,0.9c-1.1,1.8-3,2.7-5.4,2.7C181.4,317.6,178.5,314.7,178.5,310.6z"/>
	<path d="M192.9,310.6c0-4.1,3-6.9,7-6.9s6.9,2.9,6.9,6.9s-2.9,7-6.9,7S192.9,314.7,192.9,310.6z M204.9,310.6
		c0-3.2-2.2-5.3-5.1-5.3s-5.1,2.1-5.1,5.3s2.2,5.3,5.1,5.3S204.9,313.8,204.9,310.6z"/>
	<path d="M217.4,303.7v1.8c-0.2,0-0.3,0-0.4,0c-2.9,0-4.6,1.8-4.6,5v7h-1.9v-13.7h1.8v2.7C213.2,304.6,214.9,303.7,217.4,303.7
		L217.4,303.7z"/>
	<path d="M233.1,298.2v19.3h-1.8v-2.7c-1.1,1.9-3,2.8-5.3,2.8c-3.9,0-6.8-2.8-6.8-7s2.9-6.9,6.8-6.9c2.2,0,4.1,0.9,5.2,2.7v-8.2
		L233.1,298.2L233.1,298.2z M231.3,310.6c0-3.2-2.2-5.3-5.1-5.3s-5.1,2.1-5.1,5.3s2.2,5.3,5.1,5.3S231.3,313.8,231.3,310.6z"/>
	<path d="M236.9,310.6c0-4.1,3-6.9,7-6.9s6.9,2.9,6.9,6.9s-2.9,7-6.9,7S236.9,314.7,236.9,310.6z M248.9,310.6
		c0-3.2-2.2-5.3-5.1-5.3s-5.1,2.1-5.1,5.3s2.2,5.3,5.1,5.3S248.9,313.8,248.9,310.6z"/>
	<path d="M260,310.6c0-4.1,3-6.9,7-6.9c2.3,0,4.3,0.9,5.4,2.7l-1.4,0.9c-0.9-1.4-2.4-2-4-2c-3,0-5.2,2.1-5.2,5.3s2.2,5.3,5.2,5.3
		c1.6,0,3-0.6,4-2l1.4,0.9c-1.1,1.8-3,2.7-5.4,2.7C263,317.6,260,314.7,260,310.6z"/>
	<path d="M274.4,310.6c0-4.1,3-6.9,7-6.9s6.9,2.9,6.9,6.9s-2.9,7-6.9,7S274.4,314.7,274.4,310.6z M286.4,310.6
		c0-3.2-2.2-5.3-5.1-5.3s-5.1,2.1-5.1,5.3s2.2,5.3,5.1,5.3S286.4,313.8,286.4,310.6z"/>
	<path d="M314.6,309.5v7.9h-1.9v-7.8c0-2.9-1.5-4.4-3.9-4.4c-2.8,0-4.6,1.8-4.6,4.9v7.2h-1.9v-7.8c0-2.9-1.5-4.4-4-4.4
		c-2.8,0-4.6,1.8-4.6,4.9v7.2h-1.9v-13.7h1.8v2.5c1-1.6,2.7-2.6,5-2.6s4,1,4.9,2.9c1-1.8,2.9-2.9,5.4-2.9
		C312.4,303.7,314.6,305.6,314.6,309.5L314.6,309.5z"/>
	<path d="M339.1,309.5v7.9h-1.9v-7.8c0-2.9-1.5-4.4-4.1-4.4c-2.9,0-4.8,1.8-4.8,4.9v7.2h-1.9v-13.7h1.8v2.5c1-1.7,2.8-2.6,5.2-2.6
		C336.8,303.7,339.1,305.6,339.1,309.5L339.1,309.5z"/>
	<path d="M342.8,310.6c0-4.1,3-6.9,7-6.9s6.9,2.9,6.9,6.9s-2.9,7-6.9,7S342.8,314.7,342.8,310.6z M354.8,310.6
		c0-3.2-2.2-5.3-5.1-5.3s-5.1,2.1-5.1,5.3s2.2,5.3,5.1,5.3S354.8,313.8,354.8,310.6z"/>
	<path d="M367.3,303.7v1.8c-0.2,0-0.3,0-0.4,0c-2.9,0-4.6,1.8-4.6,5v7h-1.9v-13.7h1.8v2.7C363.1,304.6,364.8,303.7,367.3,303.7
		L367.3,303.7z"/>
	<path d="M393.2,309.5v7.9h-1.9v-7.8c0-2.9-1.5-4.4-3.9-4.4c-2.8,0-4.6,1.8-4.6,4.9v7.2H381v-7.8c0-2.9-1.5-4.4-4-4.4
		c-2.8,0-4.6,1.8-4.6,4.9v7.2h-1.9v-13.7h1.8v2.5c1-1.6,2.7-2.6,5-2.6s4,1,4.9,2.9c1-1.8,2.9-2.9,5.4-2.9
		C391,303.7,393.2,305.6,393.2,309.5L393.2,309.5z"/>
	<path d="M408.6,309v8.5h-1.8v-2.1c-0.8,1.4-2.4,2.3-4.7,2.3c-3.1,0-5-1.6-5-4c0-2.1,1.4-3.9,5.3-3.9h4.3v-0.8
		c0-2.3-1.3-3.6-3.9-3.6c-1.8,0-3.4,0.6-4.5,1.6l-0.8-1.4c1.4-1.2,3.4-1.9,5.6-1.9C406.6,303.7,408.6,305.5,408.6,309L408.6,309z
		 M406.7,313.4v-2.2h-4.3c-2.6,0-3.5,1-3.5,2.4c0,1.6,1.3,2.6,3.5,2.6S406,315.1,406.7,313.4L406.7,313.4z"/>
	<path d="M411.7,315.9l0.8-1.5c1.1,0.9,2.9,1.5,4.9,1.5c2.6,0,3.7-0.9,3.7-2.2c0-3.6-8.9-0.8-8.9-6.2c0-2.2,1.9-3.9,5.4-3.9
		c1.8,0,3.7,0.5,4.8,1.3l-0.8,1.5c-1.2-0.8-2.6-1.2-4-1.2c-2.5,0-3.6,1-3.6,2.3c0,3.7,8.9,0.9,8.9,6.2c0,2.4-2.1,3.9-5.6,3.9
		C415,317.6,412.8,316.9,411.7,315.9L411.7,315.9z"/>
	<path d="M428.2,321.8l0.6-1.4c0.5,0.5,1.3,0.7,2.1,0.7c1.5,0,2.3-0.9,2.3-2.6v-14.7h1.9v14.7c0,2.5-1.4,4.2-4,4.2
		C430,322.7,428.9,322.4,428.2,321.8L428.2,321.8z M432.8,299.5c0-0.7,0.6-1.3,1.4-1.3s1.4,0.6,1.4,1.3c0,0.8-0.6,1.4-1.4,1.4
		S432.8,300.2,432.8,299.5L432.8,299.5z"/>
	<path d="M452.5,303.8v13.7h-1.8V315c-1,1.7-2.7,2.6-4.9,2.6c-3.5,0-5.8-2-5.8-5.9v-7.9h1.9v7.8c0,2.9,1.5,4.4,4.1,4.4
		c2.9,0,4.6-1.9,4.6-5v-7.2L452.5,303.8L452.5,303.8z"/>
	<path d="M464.6,303.7v1.8c-0.2,0-0.3,0-0.4,0c-2.9,0-4.6,1.8-4.6,5v7h-1.9v-13.7h1.8v2.7C460.3,304.6,462.1,303.7,464.6,303.7
		L464.6,303.7z"/>
	<path d="M470.8,298.5h2.5l-4.2,3.2h-1.8L470.8,298.5z M467.9,303.8h1.9v13.7h-1.9V303.8z"/>
	<path d="M487.4,298.2v19.3h-1.8v-2.7c-1.1,1.9-3,2.8-5.3,2.8c-3.9,0-6.8-2.8-6.8-7s2.9-6.9,6.8-6.9c2.2,0,4.1,0.9,5.2,2.7v-8.2
		L487.4,298.2L487.4,298.2z M485.6,310.6c0-3.2-2.2-5.3-5.1-5.3s-5.1,2.1-5.1,5.3s2.2,5.3,5.1,5.3S485.6,313.8,485.6,310.6z"/>
	<path d="M492.1,299.5c0-0.7,0.6-1.3,1.4-1.3s1.4,0.6,1.4,1.3c0,0.8-0.6,1.4-1.4,1.4S492.1,300.2,492.1,299.5L492.1,299.5z
		 M492.6,303.8h1.9v13.7h-1.9V303.8z"/>
	<path d="M498.2,310.6c0-4.1,3-6.9,7-6.9c2.3,0,4.3,0.9,5.4,2.7l-1.4,0.9c-0.9-1.4-2.4-2-4-2c-3,0-5.2,2.1-5.2,5.3s2.2,5.3,5.2,5.3
		c1.6,0,3-0.6,4-2l1.4,0.9c-1.1,1.8-3,2.7-5.4,2.7C501.1,317.6,498.2,314.7,498.2,310.6z"/>
	<path d="M524.5,309v8.5h-1.8v-2.1c-0.8,1.4-2.4,2.3-4.7,2.3c-3.1,0-5-1.6-5-4c0-2.1,1.3-3.9,5.3-3.9h4.3v-0.8
		c0-2.3-1.3-3.6-3.9-3.6c-1.8,0-3.4,0.6-4.5,1.6l-0.8-1.4c1.4-1.2,3.4-1.9,5.6-1.9C522.5,303.7,524.5,305.5,524.5,309z M522.7,313.4
		v-2.2h-4.3c-2.7,0-3.5,1-3.5,2.4c0,1.6,1.3,2.6,3.5,2.6S521.9,315.1,522.7,313.4L522.7,313.4z"/>
	<path d="M527.6,315.9l0.8-1.5c1.1,0.9,2.9,1.5,4.9,1.5c2.6,0,3.7-0.9,3.7-2.2c0-3.6-8.9-0.8-8.9-6.2c0-2.2,1.9-3.9,5.4-3.9
		c1.8,0,3.7,0.5,4.8,1.3l-0.8,1.5c-1.2-0.8-2.6-1.2-4-1.2c-2.5,0-3.6,1-3.6,2.3c0,3.7,8.9,0.9,8.9,6.2c0,2.4-2.1,3.9-5.6,3.9
		C530.9,317.6,528.8,316.9,527.6,315.9L527.6,315.9z"/>
	<path d="M549.2,310.4c0-4.8,1.1-9.1,3-12.2h1.8c-2,3.6-3,7.5-3,12.2s0.9,8.6,3,12.2h-1.8C550.3,319.4,549.2,315.1,549.2,310.4z"/>
	<path d="M570.1,298.2v19.3h-1.8v-2.7c-1.1,1.9-3,2.8-5.3,2.8c-3.9,0-6.8-2.8-6.8-7s2.9-6.9,6.8-6.9c2.2,0,4.1,0.9,5.2,2.7v-8.2
		L570.1,298.2L570.1,298.2z M568.3,310.6c0-3.2-2.2-5.3-5.1-5.3s-5.1,2.1-5.1,5.3s2.2,5.3,5.1,5.3S568.3,313.8,568.3,310.6z"/>
	<path d="M574.8,299.5c0-0.7,0.6-1.3,1.3-1.3s1.3,0.6,1.3,1.3c0,0.8-0.6,1.4-1.3,1.4S574.8,300.2,574.8,299.5L574.8,299.5z
		 M575.2,303.8h1.8v13.7h-1.8V303.8z"/>
	<path d="M589.1,303.7v1.8c-0.2,0-0.3,0-0.4,0c-2.9,0-4.6,1.8-4.6,5v7h-1.8v-13.7h1.8v2.7C584.9,304.6,586.6,303.7,589.1,303.7
		L589.1,303.7z"/>
	<path d="M604.2,311.2h-11.4c0.2,2.9,2.4,4.8,5.4,4.8c1.7,0,3.2-0.6,4.2-1.8l1,1.2c-1.2,1.5-3.1,2.2-5.3,2.2c-4.3,0-7.2-2.9-7.2-7
		s2.8-6.9,6.7-6.9s6.6,2.8,6.6,6.9C604.2,310.8,604.2,311,604.2,311.2L604.2,311.2z M592.8,309.8h9.7c-0.2-2.7-2.2-4.5-4.9-4.5
		S593,307.1,592.8,309.8z"/>
	<path d="M607.6,299.5c0-0.7,0.6-1.3,1.3-1.3s1.3,0.6,1.3,1.3c0,0.8-0.6,1.4-1.3,1.4S607.6,300.2,607.6,299.5L607.6,299.5z
		 M608,303.8h1.8v13.7H608V303.8z"/>
	<path d="M622.2,316.6c-0.7,0.6-1.8,1-2.9,1c-2.6,0-4-1.5-4-4v-8.3h-2.4v-1.6h2.4v-3h1.8v3h4.2v1.6h-4.2v8.2c0,1.6,0.8,2.5,2.4,2.5
		c0.8,0,1.5-0.2,2-0.7L622.2,316.6L622.2,316.6z"/>
	<path d="M623.7,310.6c0-4.1,3-6.9,7-6.9s6.9,2.9,6.9,6.9s-2.9,7-6.9,7S623.7,314.7,623.7,310.6z M635.8,310.6
		c0-3.2-2.2-5.3-5.1-5.3s-5.1,2.1-5.1,5.3s2.2,5.3,5.1,5.3S635.8,313.8,635.8,310.6z"/>
	<path d="M639.8,322.5c2.1-3.6,3-7.5,3-12.2s-0.9-8.6-3-12.2h1.8c2,3.1,3,7.4,3,12.2s-1.1,9-3,12.2H639.8z"/>
	<path d="M648.7,316.2c0-0.8,0.6-1.4,1.4-1.4s1.4,0.6,1.4,1.4s-0.7,1.4-1.4,1.4S648.7,317,648.7,316.2z"/>
	<path d="M662.7,299.3h7.4c5.8,0,9.8,3.7,9.8,9.1s-3.9,9.1-9.8,9.1h-7.4V299.3z M670,315.8c4.8,0,8-3.1,8-7.4s-3.1-7.4-8-7.4h-5.4
		v14.9L670,315.8L670,315.8z"/>
	<path d="M694.1,309v8.5h-1.8v-2.1c-0.8,1.4-2.4,2.3-4.7,2.3c-3.1,0-5-1.6-5-4c0-2.1,1.3-3.9,5.3-3.9h4.3v-0.8
		c0-2.3-1.3-3.6-3.9-3.6c-1.8,0-3.4,0.6-4.5,1.6l-0.8-1.4c1.4-1.2,3.4-1.9,5.6-1.9C692.1,303.7,694.1,305.5,694.1,309z M692.2,313.4
		v-2.2h-4.3c-2.7,0-3.5,1-3.5,2.4c0,1.6,1.3,2.6,3.5,2.6S691.5,315.1,692.2,313.4L692.2,313.4z"/>
	<path d="M701.9,298.5h2.5l-4.2,3.2h-1.8L701.9,298.5L701.9,298.5z M699.1,303.8h1.8v13.7h-1.8V303.8z"/>
	<path d="M711.5,310.6c0-4.1,3-6.9,7-6.9c2.3,0,4.3,0.9,5.4,2.7l-1.4,0.9c-0.9-1.4-2.4-2-4-2c-3,0-5.2,2.1-5.2,5.3s2.2,5.3,5.2,5.3
		c1.6,0,3-0.6,4-2l1.4,0.9c-1.1,1.8-3,2.7-5.4,2.7C714.5,317.6,711.5,314.7,711.5,310.6z"/>
	<path d="M739.9,309.5v7.9h-1.8v-7.8c0-2.9-1.5-4.4-4.1-4.4c-2.9,0-4.8,1.8-4.8,4.9v7.2h-1.8v-19.3h1.8v8c1-1.6,2.8-2.5,5.1-2.5
		C737.6,303.7,739.9,305.6,739.9,309.5z"/>
	<path d="M755.2,309v8.5h-1.8v-2.1c-0.8,1.4-2.4,2.3-4.7,2.3c-3.1,0-5-1.6-5-4c0-2.1,1.3-3.9,5.3-3.9h4.3v-0.8
		c0-2.3-1.3-3.6-3.9-3.6c-1.8,0-3.4,0.6-4.5,1.6l-0.8-1.4c1.4-1.2,3.4-1.9,5.6-1.9C753.2,303.7,755.2,305.5,755.2,309L755.2,309z
		 M753.4,313.4v-2.2h-4.3c-2.7,0-3.5,1-3.5,2.4c0,1.6,1.3,2.6,3.5,2.6S752.7,315.1,753.4,313.4L753.4,313.4z"/>
	<path d="M782.8,309.5v7.9H781v-7.8c0-2.9-1.5-4.4-3.9-4.4c-2.8,0-4.6,1.8-4.6,4.9v7.2h-1.8v-7.8c0-2.9-1.5-4.4-4-4.4
		c-2.8,0-4.6,1.8-4.6,4.9v7.2h-1.8v-13.7h1.8v2.5c1-1.6,2.7-2.6,5-2.6s4,1,4.9,2.9c1-1.8,2.9-2.9,5.4-2.9
		C780.6,303.7,782.8,305.6,782.8,309.5L782.8,309.5z"/>
	<path d="M798.2,309v8.5h-1.8v-2.1c-0.8,1.4-2.4,2.3-4.7,2.3c-3.1,0-5-1.6-5-4c0-2.1,1.3-3.9,5.3-3.9h4.3v-0.8
		c0-2.3-1.3-3.6-3.9-3.6c-1.8,0-3.4,0.6-4.5,1.6l-0.8-1.4c1.4-1.2,3.4-1.9,5.6-1.9C796.1,303.7,798.1,305.5,798.2,309L798.2,309z
		 M796.3,313.4v-2.2H792c-2.7,0-3.5,1-3.5,2.4c0,1.6,1.3,2.6,3.5,2.6S795.6,315.1,796.3,313.4L796.3,313.4z"/>
	<path d="M810.1,303.7v1.8c-0.2,0-0.3,0-0.4,0c-2.9,0-4.6,1.8-4.6,5v7h-1.8v-13.7h1.8v2.7C805.8,304.6,807.6,303.7,810.1,303.7
		L810.1,303.7z"/>
	<path d="M812.3,309.6h6.8v1.6h-6.8V309.6z"/>
	<path d="M821.4,315.9l0.8-1.5c1.1,0.9,2.9,1.5,4.9,1.5c2.6,0,3.7-0.9,3.7-2.2c0-3.6-8.9-0.8-8.9-6.2c0-2.2,1.9-3.9,5.4-3.9
		c1.8,0,3.7,0.5,4.8,1.3l-0.8,1.5c-1.2-0.8-2.6-1.2-4-1.2c-2.5,0-3.6,1-3.6,2.3c0,3.7,8.9,0.9,8.9,6.2c0,2.4-2.1,3.9-5.6,3.9
		C824.7,317.6,822.5,316.9,821.4,315.9L821.4,315.9z"/>
	<path d="M847.9,311.2h-11.4c0.2,2.9,2.4,4.8,5.4,4.8c1.7,0,3.2-0.6,4.2-1.8l1,1.2c-1.2,1.5-3.1,2.2-5.3,2.2c-4.3,0-7.2-2.9-7.2-7
		s2.8-6.9,6.7-6.9s6.6,2.8,6.6,6.9C847.9,310.8,847.9,311,847.9,311.2L847.9,311.2z M836.4,309.8h9.7c-0.2-2.7-2.2-4.5-4.9-4.5
		S836.7,307.1,836.4,309.8z"/>
	<path d="M871.7,315.8v1.7h-12.9v-18.2h12.5v1.7h-10.6v6.5h9.4v1.6h-9.4v6.8L871.7,315.8L871.7,315.8z"/>
	<path d="M873.8,315.9l0.8-1.5c1.1,0.9,2.9,1.5,4.9,1.5c2.6,0,3.7-0.9,3.7-2.2c0-3.6-8.9-0.8-8.9-6.2c0-2.2,1.9-3.9,5.4-3.9
		c1.8,0,3.7,0.5,4.8,1.3l-0.8,1.5c-1.2-0.8-2.6-1.2-4-1.2c-2.5,0-3.6,1-3.6,2.3c0,3.7,8.9,0.9,8.9,6.2c0,2.4-2.1,3.9-5.6,3.9
		C877.1,317.6,874.9,316.9,873.8,315.9L873.8,315.9z"/>
	<path d="M895.6,316.6c-0.7,0.6-1.8,1-2.9,1c-2.6,0-4-1.5-4-4v-8.3h-2.4v-1.6h2.4v-3h1.8v3h4.2v1.6h-4.2v8.2c0,1.6,0.8,2.5,2.4,2.5
		c0.8,0,1.5-0.2,2-0.7L895.6,316.6L895.6,316.6z"/>
	<path d="M909.3,309v8.5h-1.8v-2.1c-0.8,1.4-2.4,2.3-4.7,2.3c-3.1,0-5-1.6-5-4c0-2.1,1.3-3.9,5.3-3.9h4.3v-0.8
		c0-2.3-1.3-3.6-3.9-3.6c-1.8,0-3.4,0.6-4.5,1.6l-0.8-1.4c1.4-1.2,3.4-1.9,5.6-1.9C907.3,303.7,909.3,305.5,909.3,309z M907.4,313.4
		v-2.2h-4.3c-2.7,0-3.5,1-3.5,2.4c0,1.6,1.3,2.6,3.5,2.6S906.7,315.1,907.4,313.4L907.4,313.4z"/>
	<path d="M926.8,298.2v19.3H925v-2.7c-1.1,1.9-3,2.8-5.3,2.8c-3.9,0-6.8-2.8-6.8-7s2.9-6.9,6.8-6.9c2.2,0,4.1,0.9,5.2,2.7v-8.2
		L926.8,298.2L926.8,298.2z M925,310.6c0-3.2-2.2-5.3-5.1-5.3s-5.1,2.1-5.1,5.3s2.2,5.3,5.1,5.3S925,313.8,925,310.6z"/>
	<path d="M930.6,310.6c0-4.1,3-6.9,7-6.9s6.9,2.9,6.9,6.9s-2.9,7-6.9,7S930.6,314.7,930.6,310.6z M942.6,310.6
		c0-3.2-2.2-5.3-5.1-5.3s-5.1,2.1-5.1,5.3s2.2,5.3,5.1,5.3S942.6,313.8,942.6,310.6z"/>
	<path d="M967.5,298.2v19.3h-1.8v-2.7c-1.1,1.9-3,2.8-5.3,2.8c-3.9,0-6.8-2.8-6.8-7s2.9-6.9,6.8-6.9c2.2,0,4.1,0.9,5.2,2.7v-8.2
		L967.5,298.2L967.5,298.2z M965.7,310.6c0-3.2-2.2-5.3-5.1-5.3s-5.1,2.1-5.1,5.3s2.2,5.3,5.1,5.3S965.7,313.8,965.7,310.6z"/>
	<path d="M984.6,311.2h-11.4c0.2,2.9,2.4,4.8,5.4,4.8c1.7,0,3.2-0.6,4.2-1.8l1,1.2c-1.2,1.5-3.1,2.2-5.3,2.2c-4.3,0-7.2-2.9-7.2-7
		s2.8-6.9,6.7-6.9s6.6,2.8,6.6,6.9C984.6,310.8,984.6,311,984.6,311.2L984.6,311.2z M973.2,309.8h9.7c-0.2-2.7-2.2-4.5-4.9-4.5
		S973.4,307.1,973.2,309.8z"/>
	<path d="M995.6,299.3h7.4c5.8,0,9.8,3.7,9.8,9.1s-3.9,9.1-9.8,9.1h-7.4V299.3z M1002.9,315.8c4.8,0,8-3.1,8-7.4s-3.1-7.4-8-7.4
		h-5.4v14.9L1002.9,315.8L1002.9,315.8z"/>
	<path d="M1016.3,299.5c0-0.7,0.6-1.3,1.3-1.3s1.3,0.6,1.3,1.3c0,0.8-0.6,1.4-1.3,1.4S1016.3,300.2,1016.3,299.5L1016.3,299.5z
		 M1016.7,303.8h1.8v13.7h-1.8V303.8z"/>
	<path d="M1030.6,303.7v1.8c-0.2,0-0.3,0-0.4,0c-2.9,0-4.6,1.8-4.6,5v7h-1.8v-13.7h1.8v2.7C1026.3,304.6,1028.1,303.7,1030.6,303.7
		L1030.6,303.7z"/>
	<path d="M1045.7,311.2h-11.4c0.2,2.9,2.4,4.8,5.4,4.8c1.7,0,3.2-0.6,4.2-1.8l1,1.2c-1.2,1.5-3.1,2.2-5.3,2.2c-4.3,0-7.2-2.9-7.2-7
		s2.8-6.9,6.7-6.9s6.6,2.8,6.6,6.9C1045.7,310.8,1045.7,311,1045.7,311.2L1045.7,311.2z M1034.2,309.8h9.7c-0.2-2.7-2.2-4.5-4.9-4.5
		S1034.5,307.1,1034.2,309.8z"/>
	<path d="M1049.1,299.5c0-0.7,0.6-1.3,1.3-1.3s1.3,0.6,1.3,1.3c0,0.8-0.6,1.4-1.3,1.4S1049.1,300.2,1049.1,299.5L1049.1,299.5z
		 M1049.5,303.8h1.8v13.7h-1.8V303.8z"/>
	<path d="M1063.7,316.6c-0.7,0.6-1.8,1-2.9,1c-2.6,0-4-1.5-4-4v-8.3h-2.4v-1.6h2.4v-3h1.8v3h4.2v1.6h-4.2v8.2c0,1.6,0.8,2.5,2.4,2.5
		c0.8,0,1.5-0.2,2-0.7L1063.7,316.6L1063.7,316.6z"/>
	<path d="M1065.2,310.6c0-4.1,3-6.9,7-6.9s6.9,2.9,6.9,6.9s-2.9,7-6.9,7S1065.2,314.7,1065.2,310.6z M1077.2,310.6
		c0-3.2-2.2-5.3-5.1-5.3s-5.1,2.1-5.1,5.3s2.2,5.3,5.1,5.3S1077.2,313.8,1077.2,310.6z"/>
	<path d="M1081.2,316.2c0-0.8,0.6-1.4,1.4-1.4s1.4,0.6,1.4,1.4s-0.7,1.4-1.4,1.4S1081.2,317,1081.2,316.2z"/>
</g>
<g>
	<path id="Caminho_4266" class="st2" d="M86.8,54H46.9l-20,34.6l20,34.6h39.9l20-34.6L86.8,54z"/>
	<path id="Caminho_4267" class="st2" d="M101.8,26.9H61.9l-20,34.6l20,34.6h39.9l20-34.6L101.8,26.9z"/>
	<path id="Caminho_4268" class="st3" d="M48.5,30.6L22.9,75.1l25.6,44.4h51.3l25.6-44.4L99.7,30.6H48.5z"/>
	<path id="Caminho_4269" class="st4" d="M81.5,19.9l-0.8,1.3H43.5L25,53.3h-1.8L22,55.4l1.2,2.1h2.4l1.2-2.1L26,53.9l18.2-31.6h36.3
		l1,1.8h2.4L85,22l-1.1-2.1H81.5z"/>
	<path id="Caminho_4270" class="st4" d="M125.4,95.2l-1.2-2.1h-2.4l-1.2,2.1l0.9,1.5l-18.2,31.6H67l-1-1.8h-2.5l-1.2,2.1l1.2,2.1
		h2.4l0.7-1.2h37.2l18.6-32.2h1.8L125.4,95.2z"/>
	<g id="Grupo_2380" transform="translate(12.65 11)">
		<path id="Caminho_4271" class="st5" d="M58.1,88.7c2.5,2.5,6.7,2.5,9.2,0c2.5-2.5,2.5-6.5,0.1-8.9l-0.1-0.1
			c-2.5-2.5-6.7-2.5-9.2,0C55.6,82.1,55.6,86.1,58.1,88.7C58.1,88.6,58.1,88.6,58.1,88.7 M60.1,69.1c-0.2-0.4-0.5-1.8-1.1-3.9
			c-1.9-7.3-3-12.9-3-16.7c0-3.5,0.5-6,1.6-7.5c1.1-1.5,2.9-2.2,5.3-2.2c4.1,0,6.2,3.4,6.2,10.3c0,1.9-1.1,7.4-3.1,16.2
			c-0.3,1.4-0.6,2.8-1.1,4.1c-0.4,1.1-1.4,1.8-2.5,1.9C61.6,71.2,60.8,70.5,60.1,69.1"/>
	</g>
</g>
</svg>
