<?xml version="1.0" encoding="UTF-8"?>
<svg id="Camada_2" data-name="Camada 2" xmlns="http://www.w3.org/2000/svg" viewBox="0 0 1482.97 346.34">
  <defs>
    <style>
      .cls-1 {
        fill: #fdb614;
      }

      .cls-2 {
        fill: #f3f3f3;
      }

      .cls-3 {
        fill: #231f20;
      }
    </style>
  </defs>
  <g id="Layer_1" data-name="Layer 1">
    <g>
      <rect class="cls-2" width="1353.24" height="346.34"/>
      <rect class="cls-1" x="1353.24" width="129.73" height="346.34"/>
      <g>
        <path class="cls-3" d="m87.4,52.28c0,4.68-3.51,7.59-9.12,7.59h-4.23v5.79h-4.86v-21h9.09c5.61,0,9.12,2.91,9.12,7.62Zm-4.92,0c0-2.31-1.5-3.66-4.47-3.66h-3.96v7.29h3.96c2.97,0,4.47-1.35,4.47-3.63Z"/>
        <path class="cls-3" d="m100.54,49.28v4.32c-.39-.03-.69-.06-1.05-.06-2.58,0-4.29,1.41-4.29,4.5v7.62h-4.68v-16.14h4.47v2.13c1.14-1.56,3.06-2.37,5.55-2.37Z"/>
        <path class="cls-3" d="m118.9,58.91h-12.21c.45,2.01,2.16,3.24,4.62,3.24,1.71,0,2.94-.51,4.05-1.56l2.49,2.7c-1.5,1.71-3.75,2.61-6.66,2.61-5.58,0-9.21-3.51-9.21-8.31s3.69-8.31,8.61-8.31,8.4,3.18,8.4,8.37c0,.36-.06.87-.09,1.26Zm-12.27-2.73h7.95c-.33-2.04-1.86-3.36-3.96-3.36s-3.66,1.29-3.99,3.36Z"/>
        <path class="cls-3" d="m120.91,57.59c0-4.86,3.75-8.31,9-8.31,3.39,0,6.06,1.47,7.23,4.11l-3.63,1.95c-.87-1.53-2.16-2.22-3.63-2.22-2.37,0-4.23,1.65-4.23,4.47s1.86,4.47,4.23,4.47c1.47,0,2.76-.66,3.63-2.22l3.63,1.98c-1.17,2.58-3.84,4.08-7.23,4.08-5.25,0-9-3.45-9-8.31Z"/>
        <path class="cls-3" d="m139.27,44.66c0-1.47,1.17-2.61,2.91-2.61s2.91,1.08,2.91,2.52c0,1.56-1.17,2.7-2.91,2.7s-2.91-1.14-2.91-2.61Zm.57,4.86h4.68v16.14h-4.68v-16.14Z"/>
        <path class="cls-3" d="m147.31,64.16l1.56-3.36c1.44.93,3.63,1.56,5.61,1.56,2.16,0,2.97-.57,2.97-1.47,0-2.64-9.75.06-9.75-6.39,0-3.06,2.76-5.22,7.47-5.22,2.22,0,4.68.51,6.21,1.41l-1.56,3.33c-1.59-.9-3.18-1.2-4.65-1.2-2.1,0-3,.66-3,1.5,0,2.76,9.75.09,9.75,6.45,0,3-2.79,5.13-7.62,5.13-2.73,0-5.49-.75-6.99-1.74Z"/>
        <path class="cls-3" d="m179.08,56.45v9.21h-4.38v-2.01c-.87,1.47-2.55,2.25-4.92,2.25-3.78,0-6.03-2.1-6.03-4.89s2.01-4.83,6.93-4.83h3.72c0-2.01-1.2-3.18-3.72-3.18-1.71,0-3.48.57-4.65,1.5l-1.68-3.27c1.77-1.26,4.38-1.95,6.96-1.95,4.92,0,7.77,2.28,7.77,7.17Zm-10.68-9.12h-2.37c.06-2.67,1.41-4.38,3.51-4.38s3.12,1.92,4.2,1.92c.81,0,1.38-.63,1.44-1.62h2.37c-.06,2.58-1.41,4.29-3.51,4.29s-3.12-1.89-4.2-1.89c-.81,0-1.38.6-1.44,1.68Zm6,13.23v-1.65h-3.21c-2.19,0-2.88.81-2.88,1.89,0,1.17.99,1.95,2.64,1.95,1.56,0,2.91-.72,3.45-2.19Z"/>
        <path class="cls-3" d="m182.29,57.59c0-4.86,3.75-8.31,8.88-8.31s8.85,3.45,8.85,8.31-3.72,8.31-8.85,8.31-8.88-3.45-8.88-8.31Zm12.99,0c0-2.79-1.77-4.47-4.11-4.47s-4.14,1.68-4.14,4.47,1.8,4.47,4.14,4.47,4.11-1.68,4.11-4.47Z"/>
        <path class="cls-3" d="m84.97,141.74v1.92h-14.85v-21h14.4v1.92h-12.18v7.47h10.86v1.89h-10.86v7.8h12.63Z"/>
        <path class="cls-3" d="m102.67,127.88l-7.02,15.78h-2.19l-6.99-15.78h2.22l5.91,13.44,5.97-13.44h2.1Z"/>
        <path class="cls-3" d="m105.19,122.9c0-.81.69-1.5,1.56-1.5s1.56.66,1.56,1.47c0,.87-.66,1.56-1.56,1.56s-1.56-.69-1.56-1.53Zm.48,4.98h2.13v15.78h-2.13v-15.78Z"/>
        <path class="cls-3" d="m122.05,142.7c-.84.75-2.1,1.11-3.33,1.11-2.97,0-4.62-1.68-4.62-4.59v-9.54h-2.82v-1.8h2.82v-3.45h2.13v3.45h4.8v1.8h-4.8v9.42c0,1.86.96,2.88,2.73,2.88.87,0,1.74-.27,2.34-.81l.75,1.53Z"/>
        <path class="cls-3" d="m137.83,133.88v9.78h-2.04v-2.46c-.96,1.62-2.82,2.61-5.43,2.61-3.57,0-5.76-1.86-5.76-4.59,0-2.43,1.56-4.47,6.09-4.47h5.01v-.96c0-2.7-1.53-4.17-4.47-4.17-2.04,0-3.96.72-5.25,1.86l-.96-1.59c1.59-1.35,3.93-2.13,6.42-2.13,4.08,0,6.39,2.04,6.39,6.12Zm-2.13,5.04v-2.58h-4.95c-3.06,0-4.05,1.2-4.05,2.82,0,1.83,1.47,2.97,3.99,2.97s4.17-1.14,5.01-3.21Z"/>
        <path class="cls-3" d="m151.57,127.76v2.07c-.18,0-.36-.03-.51-.03-3.3,0-5.31,2.1-5.31,5.82v8.04h-2.13v-15.78h2.04v3.09c.99-2.1,3-3.21,5.91-3.21Z"/>
        <path class="cls-3" d="m161.32,141.86l.96-1.68c1.26.99,3.39,1.77,5.61,1.77,3,0,4.23-1.02,4.23-2.58,0-4.11-10.23-.87-10.23-7.11,0-2.58,2.22-4.5,6.24-4.5,2.04,0,4.26.57,5.58,1.47l-.93,1.71c-1.38-.96-3.03-1.35-4.65-1.35-2.85,0-4.11,1.11-4.11,2.61,0,4.26,10.23,1.05,10.23,7.11,0,2.73-2.4,4.5-6.51,4.5-2.61,0-5.13-.84-6.42-1.95Z"/>
        <path class="cls-3" d="m177.7,122.9c0-.81.69-1.5,1.56-1.5s1.56.66,1.56,1.47c0,.87-.66,1.56-1.56,1.56s-1.56-.69-1.56-1.53Zm.48,4.98h2.13v15.78h-2.13v-15.78Z"/>
        <path class="cls-3" d="m200.77,134.51v9.15h-2.13v-8.94c0-3.33-1.74-5.04-4.74-5.04-3.39,0-5.52,2.1-5.52,5.7v8.28h-2.13v-15.78h2.04v2.91c1.14-1.92,3.27-3.03,6-3.03,3.84,0,6.48,2.22,6.48,6.75Z"/>
        <path class="cls-3" d="m205.03,135.77c0-4.68,3.42-8.01,8.04-8.01s8.01,3.33,8.01,8.01-3.39,8.04-8.01,8.04-8.04-3.36-8.04-8.04Zm13.89,0c0-3.69-2.49-6.15-5.85-6.15s-5.88,2.46-5.88,6.15,2.52,6.15,5.88,6.15,5.85-2.46,5.85-6.15Z"/>
        <path class="cls-3" d="m239.95,134.51v9.15h-2.13v-8.94c0-3.33-1.74-5.04-4.74-5.04-3.39,0-5.52,2.1-5.52,5.7v8.28h-2.13v-15.78h2.04v2.91c1.14-1.92,3.27-3.03,6-3.03,3.84,0,6.48,2.22,6.48,6.75Z"/>
        <path class="cls-3" d="m248.98,121.73h2.85l-4.86,3.72h-2.1l4.11-3.72Zm-3.24,6.15h2.13v15.78h-2.13v-15.78Z"/>
        <path class="cls-3" d="m279.85,134.51v9.15h-2.13v-8.94c0-3.33-1.68-5.04-4.53-5.04-3.24,0-5.28,2.1-5.28,5.7v8.28h-2.13v-8.94c0-3.33-1.68-5.04-4.56-5.04-3.21,0-5.28,2.1-5.28,5.7v8.28h-2.13v-15.78h2.04v2.88c1.11-1.89,3.15-3,5.79-3s4.65,1.11,5.61,3.33c1.14-2.04,3.39-3.33,6.24-3.33,3.84,0,6.36,2.22,6.36,6.75Z"/>
        <path class="cls-3" d="m285.16,122.9c0-.81.69-1.5,1.56-1.5s1.56.66,1.56,1.47c0,.87-.66,1.56-1.56,1.56s-1.56-.69-1.56-1.53Zm.48,4.98h2.13v15.78h-2.13v-15.78Z"/>
        <path class="cls-3" d="m305.62,133.88v9.78h-2.04v-2.46c-.96,1.62-2.82,2.61-5.43,2.61-3.57,0-5.76-1.86-5.76-4.59,0-2.43,1.56-4.47,6.09-4.47h5.01v-.96c0-2.7-1.53-4.17-4.47-4.17-2.04,0-3.96.72-5.25,1.86l-.96-1.59c1.59-1.35,3.93-2.13,6.42-2.13,4.08,0,6.39,2.04,6.39,6.12Zm-2.13,5.04v-2.58h-4.95c-3.06,0-4.05,1.2-4.05,2.82,0,1.83,1.47,2.97,3.99,2.97s4.17-1.14,5.01-3.21Z"/>
        <path class="cls-3" d="m333.01,136.43h-13.2c.24,3.3,2.76,5.49,6.21,5.49,1.92,0,3.63-.69,4.83-2.07l1.2,1.38c-1.41,1.68-3.6,2.58-6.09,2.58-4.92,0-8.28-3.36-8.28-8.04s3.27-8.01,7.71-8.01,7.65,3.27,7.65,8.01c0,.18-.03.42-.03.66Zm-13.2-1.59h11.19c-.27-3.09-2.52-5.25-5.61-5.25s-5.31,2.16-5.58,5.25Z"/>
        <path class="cls-3" d="m359.47,127.88v15.78h-2.04v-2.88c-1.11,1.92-3.15,3.03-5.67,3.03-4.02,0-6.66-2.25-6.66-6.78v-9.15h2.13v8.94c0,3.36,1.74,5.07,4.74,5.07,3.3,0,5.37-2.13,5.37-5.73v-8.28h2.13Z"/>
        <path class="cls-3" d="m373.75,142.7c-.84.75-2.1,1.11-3.33,1.11-2.97,0-4.62-1.68-4.62-4.59v-9.54h-2.82v-1.8h2.82v-3.45h2.13v3.45h4.8v1.8h-4.8v9.42c0,1.86.96,2.88,2.73,2.88.87,0,1.74-.27,2.34-.81l.75,1.53Z"/>
        <path class="cls-3" d="m377.14,122.9c0-.81.69-1.5,1.56-1.5s1.56.66,1.56,1.47c0,.87-.66,1.56-1.56,1.56s-1.56-.69-1.56-1.53Zm.48,4.98h2.13v15.78h-2.13v-15.78Z"/>
        <path class="cls-3" d="m385.69,121.4h2.13v22.26h-2.13v-22.26Z"/>
        <path class="cls-3" d="m393.28,122.9c0-.81.69-1.5,1.56-1.5s1.56.66,1.56,1.47c0,.87-.66,1.56-1.56,1.56s-1.56-.69-1.56-1.53Zm.48,4.98h2.13v15.78h-2.13v-15.78Z"/>
        <path class="cls-3" d="m412.96,141.89v1.77h-12.84v-1.41l9.93-12.57h-9.75v-1.8h12.48v1.41l-9.93,12.6h10.11Z"/>
        <path class="cls-3" d="m429.07,133.88v9.78h-2.04v-2.46c-.96,1.62-2.82,2.61-5.43,2.61-3.57,0-5.76-1.86-5.76-4.59,0-2.43,1.56-4.47,6.09-4.47h5.01v-.96c0-2.7-1.53-4.17-4.47-4.17-2.04,0-3.96.72-5.25,1.86l-.96-1.59c1.59-1.35,3.93-2.13,6.42-2.13,4.08,0,6.39,2.04,6.39,6.12Zm-2.13,5.04v-2.58h-4.95c-3.06,0-4.05,1.2-4.05,2.82,0,1.83,1.47,2.97,3.99,2.97s4.17-1.14,5.01-3.21Z"/>
        <path class="cls-3" d="m442.81,127.76v2.07c-.18,0-.36-.03-.51-.03-3.3,0-5.31,2.1-5.31,5.82v8.04h-2.13v-15.78h2.04v3.09c.99-2.1,3-3.21,5.91-3.21Z"/>
        <path class="cls-3" d="m466.66,133.88v9.78h-2.04v-2.46c-.96,1.62-2.82,2.61-5.43,2.61-3.57,0-5.76-1.86-5.76-4.59,0-2.43,1.56-4.47,6.09-4.47h5.01v-.96c0-2.7-1.53-4.17-4.47-4.17-2.04,0-3.96.72-5.25,1.86l-.96-1.59c1.59-1.35,3.93-2.13,6.42-2.13,4.08,0,6.39,2.04,6.39,6.12Zm-2.13,5.04v-2.58h-4.95c-3.06,0-4.05,1.2-4.05,2.82,0,1.83,1.47,2.97,3.99,2.97s4.17-1.14,5.01-3.21Z"/>
        <path class="cls-3" d="m470.26,141.86l.96-1.68c1.26.99,3.39,1.77,5.61,1.77,3,0,4.23-1.02,4.23-2.58,0-4.11-10.23-.87-10.23-7.11,0-2.58,2.22-4.5,6.24-4.5,2.04,0,4.26.57,5.58,1.47l-.93,1.71c-1.38-.96-3.03-1.35-4.65-1.35-2.85,0-4.11,1.11-4.11,2.61,0,4.26,10.23,1.05,10.23,7.11,0,2.73-2.4,4.5-6.51,4.5-2.61,0-5.13-.84-6.42-1.95Z"/>
        <path class="cls-3" d="m521.02,134.51v9.15h-2.13v-8.94c0-3.33-1.68-5.04-4.53-5.04-3.24,0-5.28,2.1-5.28,5.7v8.28h-2.13v-8.94c0-3.33-1.68-5.04-4.56-5.04-3.21,0-5.28,2.1-5.28,5.7v8.28h-2.13v-15.78h2.04v2.88c1.11-1.89,3.15-3,5.79-3s4.65,1.11,5.61,3.33c1.14-2.04,3.39-3.33,6.24-3.33,3.84,0,6.36,2.22,6.36,6.75Z"/>
        <path class="cls-3" d="m540.61,136.43h-13.2c.24,3.3,2.76,5.49,6.21,5.49,1.92,0,3.63-.69,4.83-2.07l1.2,1.38c-1.41,1.68-3.6,2.58-6.09,2.58-4.92,0-8.28-3.36-8.28-8.04s3.27-8.01,7.71-8.01,7.65,3.27,7.65,8.01c0,.18-.03.42-.03.66Zm-13.2-1.59h11.19c-.27-3.09-2.52-5.25-5.61-5.25s-5.31,2.16-5.58,5.25Z"/>
        <path class="cls-3" d="m542.8,141.86l.96-1.68c1.26.99,3.39,1.77,5.61,1.77,3,0,4.23-1.02,4.23-2.58,0-4.11-10.23-.87-10.23-7.11,0-2.58,2.22-4.5,6.24-4.5,2.04,0,4.26.57,5.58,1.47l-.93,1.71c-1.38-.96-3.03-1.35-4.65-1.35-2.85,0-4.11,1.11-4.11,2.61,0,4.26,10.23,1.05,10.23,7.11,0,2.73-2.4,4.5-6.51,4.5-2.61,0-5.13-.84-6.42-1.95Z"/>
        <path class="cls-3" d="m585.7,134.51v9.15h-2.13v-8.94c0-3.33-1.68-5.04-4.53-5.04-3.24,0-5.28,2.1-5.28,5.7v8.28h-2.13v-8.94c0-3.33-1.68-5.04-4.56-5.04-3.21,0-5.28,2.1-5.28,5.7v8.28h-2.13v-15.78h2.04v2.88c1.11-1.89,3.15-3,5.79-3s4.65,1.11,5.61,3.33c1.14-2.04,3.39-3.33,6.24-3.33,3.84,0,6.36,2.22,6.36,6.75Z"/>
        <path class="cls-3" d="m603.4,133.88v9.78h-2.04v-2.46c-.96,1.62-2.82,2.61-5.43,2.61-3.57,0-5.76-1.86-5.76-4.59,0-2.43,1.56-4.47,6.09-4.47h5.01v-.96c0-2.7-1.53-4.17-4.47-4.17-2.04,0-3.96.72-5.25,1.86l-.96-1.59c1.59-1.35,3.93-2.13,6.42-2.13,4.08,0,6.39,2.04,6.39,6.12Zm-2.13,5.04v-2.58h-4.95c-3.06,0-4.05,1.2-4.05,2.82,0,1.83,1.47,2.97,3.99,2.97s4.17-1.14,5.01-3.21Z"/>
        <path class="cls-3" d="m607,141.86l.96-1.68c1.26.99,3.39,1.77,5.61,1.77,3,0,4.23-1.02,4.23-2.58,0-4.11-10.23-.87-10.23-7.11,0-2.58,2.22-4.5,6.24-4.5,2.04,0,4.26.57,5.58,1.47l-.93,1.71c-1.38-.96-3.03-1.35-4.65-1.35-2.85,0-4.11,1.11-4.11,2.61,0,4.26,10.23,1.05,10.23,7.11,0,2.73-2.4,4.5-6.51,4.5-2.61,0-5.13-.84-6.42-1.95Z"/>
        <path class="cls-3" d="m647.71,135.77c0,4.8-3.36,8.04-7.86,8.04-2.52,0-4.68-1.08-6-3.12v8.79h-2.13v-21.6h2.04v3.12c1.29-2.1,3.48-3.24,6.09-3.24,4.5,0,7.86,3.24,7.86,8.01Zm-2.13,0c0-3.66-2.55-6.15-5.88-6.15s-5.88,2.49-5.88,6.15,2.52,6.15,5.88,6.15,5.88-2.46,5.88-6.15Z"/>
        <path class="cls-3" d="m663.88,133.88v9.78h-2.04v-2.46c-.96,1.62-2.82,2.61-5.43,2.61-3.57,0-5.76-1.86-5.76-4.59,0-2.43,1.56-4.47,6.09-4.47h5.01v-.96c0-2.7-1.53-4.17-4.47-4.17-2.04,0-3.96.72-5.25,1.86l-.96-1.59c1.59-1.35,3.93-2.13,6.42-2.13,4.08,0,6.39,2.04,6.39,6.12Zm-2.13,5.04v-2.58h-4.95c-3.06,0-4.05,1.2-4.05,2.82,0,1.83,1.47,2.97,3.99,2.97s4.17-1.14,5.01-3.21Z"/>
        <path class="cls-3" d="m669.67,121.4h2.13v22.26h-2.13v-22.26Z"/>
        <path class="cls-3" d="m689.65,133.88v9.78h-2.04v-2.46c-.96,1.62-2.82,2.61-5.43,2.61-3.57,0-5.76-1.86-5.76-4.59,0-2.43,1.56-4.47,6.09-4.47h5.01v-.96c0-2.7-1.53-4.17-4.47-4.17-2.04,0-3.96.72-5.25,1.86l-.96-1.59c1.59-1.35,3.93-2.13,6.42-2.13,4.08,0,6.39,2.04,6.39,6.12Zm-2.13,5.04v-2.58h-4.95c-3.06,0-4.05,1.2-4.05,2.82,0,1.83,1.47,2.97,3.99,2.97s4.17-1.14,5.01-3.21Z"/>
        <path class="cls-3" d="m708.4,127.88l-7.02,15.78h-2.19l-6.99-15.78h2.22l5.91,13.44,5.97-13.44h2.1Z"/>
        <path class="cls-3" d="m719.35,127.76v2.07c-.18,0-.36-.03-.51-.03-3.3,0-5.31,2.1-5.31,5.82v8.04h-2.13v-15.78h2.04v3.09c.99-2.1,3-3.21,5.91-3.21Z"/>
        <path class="cls-3" d="m735.07,133.88v9.78h-2.04v-2.46c-.96,1.62-2.82,2.61-5.43,2.61-3.57,0-5.76-1.86-5.76-4.59,0-2.43,1.56-4.47,6.09-4.47h5.01v-.96c0-2.7-1.53-4.17-4.47-4.17-2.04,0-3.96.72-5.25,1.86l-.96-1.59c1.59-1.35,3.93-2.13,6.42-2.13,4.08,0,6.39,2.04,6.39,6.12Zm-2.13,5.04v-2.58h-4.95c-3.06,0-4.05,1.2-4.05,2.82,0,1.83,1.47,2.97,3.99,2.97s4.17-1.14,5.01-3.21Z"/>
        <path class="cls-3" d="m738.67,141.86l.96-1.68c1.26.99,3.39,1.77,5.61,1.77,3,0,4.23-1.02,4.23-2.58,0-4.11-10.23-.87-10.23-7.11,0-2.58,2.22-4.5,6.24-4.5,2.04,0,4.26.57,5.58,1.47l-.93,1.71c-1.38-.96-3.03-1.35-4.65-1.35-2.85,0-4.11,1.11-4.11,2.61,0,4.26,10.23,1.05,10.23,7.11,0,2.73-2.4,4.5-6.51,4.5-2.61,0-5.13-.84-6.42-1.95Z"/>
        <path class="cls-3" d="m761.8,135.77c0-4.68,3.42-8.01,8.04-8.01s8.01,3.33,8.01,8.01-3.39,8.04-8.01,8.04-8.04-3.36-8.04-8.04Zm13.89,0c0-3.69-2.49-6.15-5.85-6.15s-5.88,2.46-5.88,6.15,2.52,6.15,5.88,6.15,5.85-2.46,5.85-6.15Z"/>
        <path class="cls-3" d="m796.41,127.88v15.78h-2.04v-2.88c-1.11,1.92-3.15,3.03-5.67,3.03-4.02,0-6.66-2.25-6.66-6.78v-9.15h2.13v8.94c0,3.36,1.74,5.07,4.74,5.07,3.3,0,5.37-2.13,5.37-5.73v-8.28h2.13Z"/>
        <path class="cls-3" d="m823.98,136.43h-13.2c.24,3.3,2.76,5.49,6.21,5.49,1.92,0,3.63-.69,4.83-2.07l1.2,1.38c-1.41,1.68-3.6,2.58-6.09,2.58-4.92,0-8.28-3.36-8.28-8.04s3.27-8.01,7.71-8.01,7.65,3.27,7.65,8.01c0,.18-.03.42-.03.66Zm-13.2-1.59h11.19c-.27-3.09-2.52-5.25-5.61-5.25s-5.31,2.16-5.58,5.25Z"/>
        <path class="cls-3" d="m837.96,143.66l-5.01-6.6-5.04,6.6h-2.4l6.24-8.1-5.94-7.68h2.4l4.74,6.18,4.74-6.18h2.34l-5.94,7.68,6.3,8.1h-2.43Z"/>
        <path class="cls-3" d="m859.92,135.77c0,4.8-3.36,8.04-7.86,8.04-2.52,0-4.68-1.08-6-3.12v8.79h-2.13v-21.6h2.04v3.12c1.29-2.1,3.48-3.24,6.09-3.24,4.5,0,7.86,3.24,7.86,8.01Zm-2.13,0c0-3.66-2.55-6.15-5.88-6.15s-5.88,2.49-5.88,6.15,2.52,6.15,5.88,6.15,5.88-2.46,5.88-6.15Z"/>
        <path class="cls-3" d="m872.22,127.76v2.07c-.18,0-.36-.03-.51-.03-3.3,0-5.31,2.1-5.31,5.82v8.04h-2.13v-15.78h2.04v3.09c.99-2.1,3-3.21,5.91-3.21Z"/>
        <path class="cls-3" d="m889.65,136.43h-13.2c.24,3.3,2.76,5.49,6.21,5.49,1.92,0,3.63-.69,4.83-2.07l1.2,1.38c-1.41,1.68-3.6,2.58-6.09,2.58-4.92,0-8.28-3.36-8.28-8.04s3.27-8.01,7.71-8.01,7.65,3.27,7.65,8.01c0,.18-.03.42-.03.66Zm-13.2-1.59h11.19c-.27-3.09-2.52-5.25-5.61-5.25s-5.31,2.16-5.58,5.25Z"/>
        <path class="cls-3" d="m891.84,141.86l.96-1.68c1.26.99,3.39,1.77,5.61,1.77,3,0,4.23-1.02,4.23-2.58,0-4.11-10.23-.87-10.23-7.11,0-2.58,2.22-4.5,6.24-4.5,2.04,0,4.26.57,5.58,1.47l-.93,1.71c-1.38-.96-3.03-1.35-4.65-1.35-2.85,0-4.11,1.11-4.11,2.61,0,4.26,10.23,1.05,10.23,7.11,0,2.73-2.4,4.5-6.51,4.5-2.61,0-5.13-.84-6.42-1.95Z"/>
        <path class="cls-3" d="m906.51,141.86l.96-1.68c1.26.99,3.39,1.77,5.61,1.77,3,0,4.23-1.02,4.23-2.58,0-4.11-10.23-.87-10.23-7.11,0-2.58,2.22-4.5,6.24-4.5,2.04,0,4.26.57,5.58,1.47l-.93,1.71c-1.38-.96-3.03-1.35-4.65-1.35-2.85,0-4.11,1.11-4.11,2.61,0,4.26,10.23,1.05,10.23,7.11,0,2.73-2.4,4.5-6.51,4.5-2.61,0-5.13-.84-6.42-1.95Z"/>
        <path class="cls-3" d="m921.78,135.77c0-4.68,3.42-8.01,8.04-8.01s8.01,3.33,8.01,8.01-3.39,8.04-8.01,8.04-8.04-3.36-8.04-8.04Zm13.89,0c0-3.69-2.49-6.15-5.85-6.15s-5.88,2.46-5.88,6.15,2.52,6.15,5.88,6.15,5.85-2.46,5.85-6.15Zm-7.77-12.54c-.9,0-1.5.72-1.56,1.92h-1.29c.06-2.01,1.11-3.3,2.7-3.3,1.86,0,2.76,2.04,3.93,2.04.9,0,1.5-.72,1.56-1.86h1.29c-.06,1.95-1.11,3.24-2.7,3.24-1.86,0-2.73-2.04-3.93-2.04Z"/>
        <path class="cls-3" d="m955.92,136.43h-13.2c.24,3.3,2.76,5.49,6.21,5.49,1.92,0,3.63-.69,4.83-2.07l1.2,1.38c-1.41,1.68-3.6,2.58-6.09,2.58-4.92,0-8.28-3.36-8.28-8.04s3.27-8.01,7.71-8.01,7.65,3.27,7.65,8.01c0,.18-.03.42-.03.66Zm-13.2-1.59h11.19c-.27-3.09-2.52-5.25-5.61-5.25s-5.31,2.16-5.58,5.25Z"/>
        <path class="cls-3" d="m958.11,141.86l.96-1.68c1.26.99,3.39,1.77,5.61,1.77,3,0,4.23-1.02,4.23-2.58,0-4.11-10.23-.87-10.23-7.11,0-2.58,2.22-4.5,6.24-4.5,2.04,0,4.26.57,5.58,1.47l-.93,1.71c-1.38-.96-3.03-1.35-4.65-1.35-2.85,0-4.11,1.11-4.11,2.61,0,4.26,10.23,1.05,10.23,7.11,0,2.73-2.4,4.5-6.51,4.5-2.61,0-5.13-.84-6.42-1.95Z"/>
        <path class="cls-3" d="m997.35,134.51v9.15h-2.13v-8.94c0-3.33-1.74-5.04-4.74-5.04-3.39,0-5.52,2.1-5.52,5.7v8.28h-2.13v-15.78h2.04v2.91c1.14-1.92,3.27-3.03,6-3.03,3.84,0,6.48,2.22,6.48,6.75Z"/>
        <path class="cls-3" d="m1001.61,135.77c0-4.68,3.42-8.01,8.04-8.01s8.01,3.33,8.01,8.01-3.39,8.04-8.01,8.04-8.04-3.36-8.04-8.04Zm13.89,0c0-3.69-2.49-6.15-5.85-6.15s-5.88,2.46-5.88,6.15,2.52,6.15,5.88,6.15,5.85-2.46,5.85-6.15Z"/>
        <path class="cls-3" d="m1044.27,121.4v22.26h-2.04v-3.12c-1.29,2.13-3.48,3.27-6.09,3.27-4.5,0-7.86-3.27-7.86-8.04s3.36-8.01,7.86-8.01c2.52,0,4.68,1.08,6,3.12v-9.48h2.13Zm-2.1,14.37c0-3.69-2.52-6.15-5.85-6.15s-5.88,2.46-5.88,6.15,2.52,6.15,5.88,6.15,5.85-2.46,5.85-6.15Z"/>
        <path class="cls-3" d="m1063.95,136.43h-13.2c.24,3.3,2.76,5.49,6.21,5.49,1.92,0,3.63-.69,4.83-2.07l1.2,1.38c-1.41,1.68-3.6,2.58-6.09,2.58-4.92,0-8.28-3.36-8.28-8.04s3.27-8.01,7.71-8.01,7.65,3.27,7.65,8.01c0,.18-.03.42-.03.66Zm-13.2-1.59h11.19c-.27-3.09-2.52-5.25-5.61-5.25s-5.31,2.16-5.58,5.25Z"/>
        <path class="cls-3" d="m1066.74,135.77c0-4.71,3.42-8.01,8.13-8.01,2.67,0,4.92,1.05,6.18,3.12l-1.59,1.08c-1.08-1.59-2.76-2.34-4.59-2.34-3.45,0-5.97,2.46-5.97,6.15s2.52,6.15,5.97,6.15c1.83,0,3.51-.72,4.59-2.31l1.59,1.08c-1.26,2.04-3.51,3.12-6.18,3.12-4.71,0-8.13-3.33-8.13-8.04Z"/>
        <path class="cls-3" d="m1083.36,135.77c0-4.68,3.42-8.01,8.04-8.01s8.01,3.33,8.01,8.01-3.39,8.04-8.01,8.04-8.04-3.36-8.04-8.04Zm13.89,0c0-3.69-2.49-6.15-5.85-6.15s-5.88,2.46-5.88,6.15,2.52,6.15,5.88,6.15,5.85-2.46,5.85-6.15Z"/>
        <path class="cls-3" d="m1111.71,127.76v2.07c-.18,0-.36-.03-.51-.03-3.3,0-5.31,2.1-5.31,5.82v8.04h-2.13v-15.78h2.04v3.09c.99-2.1,3-3.21,5.91-3.21Z"/>
        <path class="cls-3" d="m1123.5,127.76v2.07c-.18,0-.36-.03-.51-.03-3.3,0-5.31,2.1-5.31,5.82v8.04h-2.13v-15.78h2.04v3.09c.99-2.1,3-3.21,5.91-3.21Z"/>
        <path class="cls-3" d="m1140.93,136.43h-13.2c.24,3.3,2.76,5.49,6.21,5.49,1.92,0,3.63-.69,4.83-2.07l1.2,1.38c-1.41,1.68-3.6,2.58-6.09,2.58-4.92,0-8.28-3.36-8.28-8.04s3.27-8.01,7.71-8.01,7.65,3.27,7.65,8.01c0,.18-.03.42-.03.66Zm-13.2-1.59h11.19c-.27-3.09-2.52-5.25-5.61-5.25s-5.31,2.16-5.58,5.25Z"/>
        <path class="cls-3" d="m1153.26,127.76v2.07c-.18,0-.36-.03-.51-.03-3.3,0-5.31,2.1-5.31,5.82v8.04h-2.13v-15.78h2.04v3.09c.99-2.1,3-3.21,5.91-3.21Z"/>
        <path class="cls-3" d="m1179.6,121.4v22.26h-2.04v-3.12c-1.29,2.13-3.48,3.27-6.09,3.27-4.5,0-7.86-3.27-7.86-8.04s3.36-8.01,7.86-8.01c2.52,0,4.68,1.08,6,3.12v-9.48h2.13Zm-2.1,14.37c0-3.69-2.52-6.15-5.85-6.15s-5.88,2.46-5.88,6.15,2.52,6.15,5.88,6.15,5.85-2.46,5.85-6.15Z"/>
        <path class="cls-3" d="m1183.95,135.77c0-4.68,3.42-8.01,8.04-8.01s8.01,3.33,8.01,8.01-3.39,8.04-8.01,8.04-8.04-3.36-8.04-8.04Zm13.89,0c0-3.69-2.49-6.15-5.85-6.15s-5.88,2.46-5.88,6.15,2.52,6.15,5.88,6.15,5.85-2.46,5.85-6.15Z"/>
        <path class="cls-3" d="m1220.52,142.7c-.84.75-2.1,1.11-3.33,1.11-2.97,0-4.62-1.68-4.62-4.59v-9.54h-2.82v-1.8h2.82v-3.45h2.13v3.45h4.8v1.8h-4.8v9.42c0,1.86.96,2.88,2.73,2.88.87,0,1.74-.27,2.34-.81l.75,1.53Z"/>
        <path class="cls-3" d="m1237.56,136.43h-13.2c.24,3.3,2.76,5.49,6.21,5.49,1.92,0,3.63-.69,4.83-2.07l1.2,1.38c-1.41,1.68-3.6,2.58-6.09,2.58-4.92,0-8.28-3.36-8.28-8.04s3.27-8.01,7.71-8.01,7.65,3.27,7.65,8.01c0,.18-.03.42-.03.66Zm-13.2-1.59h11.19c-.27-3.09-2.52-5.25-5.61-5.25s-5.31,2.16-5.58,5.25Z"/>
        <path class="cls-3" d="m1251.54,143.66l-5.01-6.6-5.04,6.6h-2.4l6.24-8.1-5.94-7.68h2.4l4.74,6.18,4.74-6.18h2.34l-5.94,7.68,6.3,8.1h-2.43Z"/>
        <path class="cls-3" d="m1265.82,142.7c-.84.75-2.1,1.11-3.33,1.11-2.97,0-4.62-1.68-4.62-4.59v-9.54h-2.82v-1.8h2.82v-3.45h2.13v3.45h4.8v1.8h-4.8v9.42c0,1.86.96,2.88,2.73,2.88.87,0,1.74-.27,2.34-.81l.75,1.53Z"/>
        <path class="cls-3" d="m1267.53,135.77c0-4.68,3.42-8.01,8.04-8.01s8.01,3.33,8.01,8.01-3.39,8.04-8.01,8.04-8.04-3.36-8.04-8.04Zm13.89,0c0-3.69-2.49-6.15-5.85-6.15s-5.88,2.46-5.88,6.15,2.52,6.15,5.88,6.15,5.85-2.46,5.85-6.15Z"/>
        <path class="cls-3" d="m84.19,173.51v9.15h-2.13v-8.94c0-3.33-1.74-5.04-4.74-5.04-3.39,0-5.52,2.1-5.52,5.7v8.28h-2.13v-15.78h2.04v2.91c1.14-1.92,3.27-3.03,6-3.03,3.84,0,6.48,2.22,6.48,6.75Z"/>
        <path class="cls-3" d="m88.45,174.77c0-4.68,3.42-8.01,8.04-8.01s8.01,3.33,8.01,8.01-3.39,8.04-8.01,8.04-8.04-3.36-8.04-8.04Zm13.89,0c0-3.69-2.49-6.15-5.85-6.15s-5.88,2.46-5.88,6.15,2.52,6.15,5.88,6.15,5.85-2.46,5.85-6.15Z"/>
        <path class="cls-3" d="m116.8,166.76v2.07c-.18,0-.36-.03-.51-.03-3.3,0-5.31,2.1-5.31,5.82v8.04h-2.13v-15.78h2.04v3.09c.99-2.1,3-3.21,5.91-3.21Z"/>
        <path class="cls-3" d="m146.68,173.51v9.15h-2.13v-8.94c0-3.33-1.68-5.04-4.53-5.04-3.24,0-5.28,2.1-5.28,5.7v8.28h-2.13v-8.94c0-3.33-1.68-5.04-4.56-5.04-3.21,0-5.28,2.1-5.28,5.7v8.28h-2.13v-15.78h2.04v2.88c1.11-1.89,3.15-3,5.79-3s4.65,1.11,5.61,3.33c1.14-2.04,3.39-3.33,6.24-3.33,3.84,0,6.36,2.22,6.36,6.75Z"/>
        <path class="cls-3" d="m164.38,172.88v9.78h-2.04v-2.46c-.96,1.62-2.82,2.61-5.43,2.61-3.57,0-5.76-1.86-5.76-4.59,0-2.43,1.56-4.47,6.09-4.47h5.01v-.96c0-2.7-1.53-4.17-4.47-4.17-2.04,0-3.96.72-5.25,1.86l-.96-1.59c1.59-1.35,3.93-2.13,6.42-2.13,4.08,0,6.39,2.04,6.39,6.12Zm-2.13,5.04v-2.58h-4.95c-3.06,0-4.05,1.2-4.05,2.82,0,1.83,1.47,2.97,3.99,2.97s4.17-1.14,5.01-3.21Z"/>
        <path class="cls-3" d="m178.48,181.7c-.84.75-2.1,1.11-3.33,1.11-2.97,0-4.62-1.68-4.62-4.59v-9.54h-2.82v-1.8h2.82v-3.45h2.13v3.45h4.8v1.8h-4.8v9.42c0,1.86.96,2.88,2.73,2.88.87,0,1.74-.27,2.34-.81l.75,1.53Z"/>
        <path class="cls-3" d="m181.87,161.9c0-.81.69-1.5,1.56-1.5s1.56.66,1.56,1.47c0,.87-.66,1.56-1.56,1.56s-1.56-.69-1.56-1.53Zm.48,4.98h2.13v15.78h-2.13v-15.78Z"/>
        <path class="cls-3" d="m203.68,166.88l-7.02,15.78h-2.19l-6.99-15.78h2.22l5.91,13.44,5.97-13.44h2.1Z"/>
        <path class="cls-3" d="m204.64,174.77c0-4.68,3.42-8.01,8.04-8.01s8.01,3.33,8.01,8.01-3.39,8.04-8.01,8.04-8.04-3.36-8.04-8.04Zm13.89,0c0-3.69-2.49-6.15-5.85-6.15s-5.88,2.46-5.88,6.15,2.52,6.15,5.88,6.15,5.85-2.46,5.85-6.15Z"/>
        <path class="cls-3" d="m226.42,181.16c0,.51-.12.9-.42,1.74l-1.26,4.14h-1.44l1.02-4.35c-.63-.18-1.08-.75-1.08-1.53,0-.93.69-1.62,1.59-1.62s1.59.72,1.59,1.62Z"/>
        <path class="cls-3" d="m252.55,175.43h-13.2c.24,3.3,2.76,5.49,6.21,5.49,1.92,0,3.63-.69,4.83-2.07l1.2,1.38c-1.41,1.68-3.6,2.58-6.09,2.58-4.92,0-8.28-3.36-8.28-8.04s3.27-8.01,7.71-8.01,7.65,3.27,7.65,8.01c0,.18-.03.42-.03.66Zm-13.2-1.59h11.19c-.27-3.09-2.52-5.25-5.61-5.25s-5.31,2.16-5.58,5.25Z"/>
        <path class="cls-3" d="m269.89,166.88l-7.02,15.78h-2.19l-6.99-15.78h2.22l5.91,13.44,5.97-13.44h2.1Z"/>
        <path class="cls-3" d="m272.41,161.9c0-.81.69-1.5,1.56-1.5s1.56.66,1.56,1.47c0,.87-.66,1.56-1.56,1.56s-1.56-.69-1.56-1.53Zm.48,4.98h2.13v15.78h-2.13v-15.78Z"/>
        <path class="cls-3" d="m289.27,181.7c-.84.75-2.1,1.11-3.33,1.11-2.97,0-4.62-1.68-4.62-4.59v-9.54h-2.82v-1.8h2.82v-3.45h2.13v3.45h4.8v1.8h-4.8v9.42c0,1.86.96,2.88,2.73,2.88.87,0,1.74-.27,2.34-.81l.75,1.53Z"/>
        <path class="cls-3" d="m305.05,172.88v9.78h-2.04v-2.46c-.96,1.62-2.82,2.61-5.43,2.61-3.57,0-5.76-1.86-5.76-4.59,0-2.43,1.56-4.47,6.09-4.47h5.01v-.96c0-2.7-1.53-4.17-4.47-4.17-2.04,0-3.96.72-5.25,1.86l-.96-1.59c1.59-1.35,3.93-2.13,6.42-2.13,4.08,0,6.39,2.04,6.39,6.12Zm-2.13,5.04v-2.58h-4.95c-3.06,0-4.05,1.2-4.05,2.82,0,1.83,1.47,2.97,3.99,2.97s4.17-1.14,5.01-3.21Z"/>
        <path class="cls-3" d="m318.79,166.76v2.07c-.18,0-.36-.03-.51-.03-3.3,0-5.31,2.1-5.31,5.82v8.04h-2.13v-15.78h2.04v3.09c.99-2.1,3-3.21,5.91-3.21Z"/>
        <path class="cls-3" d="m346.72,174.77c0,4.8-3.36,8.04-7.86,8.04-2.52,0-4.68-1.08-6-3.12v8.79h-2.13v-21.6h2.04v3.12c1.29-2.1,3.48-3.24,6.09-3.24,4.5,0,7.86,3.24,7.86,8.01Zm-2.13,0c0-3.66-2.55-6.15-5.88-6.15s-5.88,2.49-5.88,6.15,2.52,6.15,5.88,6.15,5.88-2.46,5.88-6.15Z"/>
        <path class="cls-3" d="m362.89,172.88v9.78h-2.04v-2.46c-.96,1.62-2.82,2.61-5.43,2.61-3.57,0-5.76-1.86-5.76-4.59,0-2.43,1.56-4.47,6.09-4.47h5.01v-.96c0-2.7-1.53-4.17-4.47-4.17-2.04,0-3.96.72-5.25,1.86l-.96-1.59c1.59-1.35,3.93-2.13,6.42-2.13,4.08,0,6.39,2.04,6.39,6.12Zm-2.13,5.04v-2.58h-4.95c-3.06,0-4.05,1.2-4.05,2.82,0,1.83,1.47,2.97,3.99,2.97s4.17-1.14,5.01-3.21Z"/>
        <path class="cls-3" d="m368.68,160.4h2.13v22.26h-2.13v-22.26Z"/>
        <path class="cls-3" d="m388.66,172.88v9.78h-2.04v-2.46c-.96,1.62-2.82,2.61-5.43,2.61-3.57,0-5.76-1.86-5.76-4.59,0-2.43,1.56-4.47,6.09-4.47h5.01v-.96c0-2.7-1.53-4.17-4.47-4.17-2.04,0-3.96.72-5.25,1.86l-.96-1.59c1.59-1.35,3.93-2.13,6.42-2.13,4.08,0,6.39,2.04,6.39,6.12Zm-2.13,5.04v-2.58h-4.95c-3.06,0-4.05,1.2-4.05,2.82,0,1.83,1.47,2.97,3.99,2.97s4.17-1.14,5.01-3.21Z"/>
        <path class="cls-3" d="m407.41,166.88l-7.02,15.78h-2.19l-6.99-15.78h2.22l5.91,13.44,5.97-13.44h2.1Z"/>
        <path class="cls-3" d="m418.36,166.76v2.07c-.18,0-.36-.03-.51-.03-3.3,0-5.31,2.1-5.31,5.82v8.04h-2.13v-15.78h2.04v3.09c.99-2.1,3-3.21,5.91-3.21Z"/>
        <path class="cls-3" d="m434.08,172.88v9.78h-2.04v-2.46c-.96,1.62-2.82,2.61-5.43,2.61-3.57,0-5.76-1.86-5.76-4.59,0-2.43,1.56-4.47,6.09-4.47h5.01v-.96c0-2.7-1.53-4.17-4.47-4.17-2.04,0-3.96.72-5.25,1.86l-.96-1.59c1.59-1.35,3.93-2.13,6.42-2.13,4.08,0,6.39,2.04,6.39,6.12Zm-2.13,5.04v-2.58h-4.95c-3.06,0-4.05,1.2-4.05,2.82,0,1.83,1.47,2.97,3.99,2.97s4.17-1.14,5.01-3.21Z"/>
        <path class="cls-3" d="m437.68,180.86l.96-1.68c1.26.99,3.39,1.77,5.61,1.77,3,0,4.23-1.02,4.23-2.58,0-4.11-10.23-.87-10.23-7.11,0-2.58,2.22-4.5,6.24-4.5,2.04,0,4.26.57,5.58,1.47l-.93,1.71c-1.38-.96-3.03-1.35-4.65-1.35-2.85,0-4.11,1.11-4.11,2.61,0,4.26,10.23,1.05,10.23,7.11,0,2.73-2.4,4.5-6.51,4.5-2.61,0-5.13-.84-6.42-1.95Z"/>
        <path class="cls-3" d="m476.8,160.4v22.26h-2.04v-3.12c-1.29,2.13-3.48,3.27-6.09,3.27-4.5,0-7.86-3.27-7.86-8.04s3.36-8.01,7.86-8.01c2.52,0,4.68,1.08,6,3.12v-9.48h2.13Zm-2.1,14.37c0-3.69-2.52-6.15-5.85-6.15s-5.88,2.46-5.88,6.15,2.52,6.15,5.88,6.15,5.85-2.46,5.85-6.15Z"/>
        <path class="cls-3" d="m496.48,175.43h-13.2c.24,3.3,2.76,5.49,6.21,5.49,1.92,0,3.63-.69,4.83-2.07l1.2,1.38c-1.41,1.68-3.6,2.58-6.09,2.58-4.92,0-8.28-3.36-8.28-8.04s3.27-8.01,7.71-8.01,7.65,3.27,7.65,8.01c0,.18-.03.42-.03.66Zm-13.2-1.59h11.19c-.27-3.09-2.52-5.25-5.61-5.25s-5.31,2.16-5.58,5.25Z"/>
        <path class="cls-3" d="m523.12,160.4v22.26h-2.04v-3.12c-1.29,2.13-3.48,3.27-6.09,3.27-4.5,0-7.86-3.27-7.86-8.04s3.36-8.01,7.86-8.01c2.52,0,4.68,1.08,6,3.12v-9.48h2.13Zm-2.1,14.37c0-3.69-2.52-6.15-5.85-6.15s-5.88,2.46-5.88,6.15,2.52,6.15,5.88,6.15,5.85-2.46,5.85-6.15Z"/>
        <path class="cls-3" d="m543.28,166.88v15.78h-2.04v-2.88c-1.11,1.92-3.15,3.03-5.67,3.03-4.02,0-6.66-2.25-6.66-6.78v-9.15h2.13v8.94c0,3.36,1.74,5.07,4.74,5.07,3.3,0,5.37-2.13,5.37-5.73v-8.28h2.13Z"/>
        <path class="cls-3" d="m565.23,174.77c0,4.8-3.36,8.04-7.86,8.04-2.52,0-4.68-1.08-6-3.12v8.79h-2.13v-21.6h2.04v3.12c1.29-2.1,3.48-3.24,6.09-3.24,4.5,0,7.86,3.24,7.86,8.01Zm-2.13,0c0-3.66-2.55-6.15-5.88-6.15s-5.88,2.49-5.88,6.15,2.52,6.15,5.88,6.15,5.88-2.46,5.88-6.15Z"/>
        <path class="cls-3" d="m569.58,160.4h2.13v22.26h-2.13v-22.26Z"/>
        <path class="cls-3" d="m576.07,174.77c0-4.68,3.42-8.01,8.04-8.01s8.01,3.33,8.01,8.01-3.39,8.04-8.01,8.04-8.04-3.36-8.04-8.04Zm13.89,0c0-3.69-2.49-6.15-5.85-6.15s-5.88,2.46-5.88,6.15,2.52,6.15,5.88,6.15,5.85-2.46,5.85-6.15Z"/>
        <path class="cls-3" d="m602.13,180.86l.96-1.68c1.26.99,3.39,1.77,5.61,1.77,3,0,4.23-1.02,4.23-2.58,0-4.11-10.23-.87-10.23-7.11,0-2.58,2.22-4.5,6.24-4.5,2.04,0,4.26.57,5.58,1.47l-.93,1.71c-1.38-.96-3.03-1.35-4.65-1.35-2.85,0-4.11,1.11-4.11,2.61,0,4.26,10.23,1.05,10.23,7.11,0,2.73-2.4,4.5-6.51,4.5-2.61,0-5.13-.84-6.42-1.95Z"/>
        <path class="cls-3" d="m632.73,175.43h-13.2c.24,3.3,2.76,5.49,6.21,5.49,1.92,0,3.63-.69,4.83-2.07l1.2,1.38c-1.41,1.68-3.6,2.58-6.09,2.58-4.92,0-8.28-3.36-8.28-8.04s3.27-8.01,7.71-8.01,7.65,3.27,7.65,8.01c0,.18-.03.42-.03.66Zm-13.2-1.59h11.19c-.27-3.09-2.52-5.25-5.61-5.25s-5.31,2.16-5.58,5.25Z"/>
        <path class="cls-3" d="m651.63,173.51v9.15h-2.13v-8.94c0-3.33-1.74-5.04-4.74-5.04-3.39,0-5.52,2.1-5.52,5.7v8.28h-2.13v-15.78h2.04v2.91c1.14-1.92,3.27-3.03,6-3.03,3.84,0,6.48,2.22,6.48,6.75Z"/>
        <path class="cls-3" d="m665.73,181.7c-.84.75-2.1,1.11-3.33,1.11-2.97,0-4.62-1.68-4.62-4.59v-9.54h-2.82v-1.8h2.82v-3.45h2.13v3.45h4.8v1.8h-4.8v9.42c0,1.86.96,2.88,2.73,2.88.87,0,1.74-.27,2.34-.81l.75,1.53Z"/>
        <path class="cls-3" d="m669.12,161.9c0-.81.69-1.5,1.56-1.5s1.56.66,1.56,1.47c0,.87-.66,1.56-1.56,1.56s-1.56-.69-1.56-1.53Zm.48,4.98h2.13v15.78h-2.13v-15.78Z"/>
        <path class="cls-3" d="m692.07,160.4v22.26h-2.04v-3.12c-1.29,2.13-3.48,3.27-6.09,3.27-4.5,0-7.86-3.27-7.86-8.04s3.36-8.01,7.86-8.01c2.52,0,4.68,1.08,6,3.12v-9.48h2.13Zm-2.1,14.37c0-3.69-2.52-6.15-5.85-6.15s-5.88,2.46-5.88,6.15,2.52,6.15,5.88,6.15,5.85-2.46,5.85-6.15Z"/>
        <path class="cls-3" d="m696.42,174.77c0-4.68,3.42-8.01,8.04-8.01s8.01,3.33,8.01,8.01-3.39,8.04-8.01,8.04-8.04-3.36-8.04-8.04Zm13.89,0c0-3.69-2.49-6.15-5.85-6.15s-5.88,2.46-5.88,6.15,2.52,6.15,5.88,6.15,5.85-2.46,5.85-6.15Z"/>
        <path class="cls-3" d="m738.42,175.43h-13.2c.24,3.3,2.76,5.49,6.21,5.49,1.92,0,3.63-.69,4.83-2.07l1.2,1.38c-1.41,1.68-3.6,2.58-6.09,2.58-4.92,0-8.28-3.36-8.28-8.04s3.27-8.01,7.71-8.01,7.65,3.27,7.65,8.01c0,.18-.03.42-.03.66Zm-13.2-1.59h11.19c-.27-3.09-2.52-5.25-5.61-5.25s-5.31,2.16-5.58,5.25Z"/>
        <path class="cls-3" d="m765.06,166.88v21.6h-2.13v-8.79c-1.32,2.04-3.48,3.12-6,3.12-4.5,0-7.86-3.24-7.86-8.04s3.36-8.01,7.86-8.01c2.61,0,4.8,1.14,6.09,3.24v-3.12h2.04Zm-2.1,7.89c0-3.66-2.52-6.15-5.85-6.15s-5.88,2.49-5.88,6.15,2.52,6.15,5.88,6.15,5.85-2.46,5.85-6.15Z"/>
        <path class="cls-3" d="m785.22,166.88v15.78h-2.04v-2.88c-1.11,1.92-3.15,3.03-5.67,3.03-4.02,0-6.66-2.25-6.66-6.78v-9.15h2.13v8.94c0,3.36,1.74,5.07,4.74,5.07,3.3,0,5.37-2.13,5.37-5.73v-8.28h2.13Z"/>
        <path class="cls-3" d="m804.93,175.43h-13.2c.24,3.3,2.76,5.49,6.21,5.49,1.92,0,3.63-.69,4.83-2.07l1.2,1.38c-1.41,1.68-3.6,2.58-6.09,2.58-4.92,0-8.28-3.36-8.28-8.04s3.27-8.01,7.71-8.01,7.65,3.27,7.65,8.01c0,.18-.03.42-.03.66Zm-13.2-1.59h11.19c-.27-3.09-2.52-5.25-5.61-5.25s-5.31,2.16-5.58,5.25Z"/>
        <path class="cls-3" d="m825.48,181.7c-.84.75-2.1,1.11-3.33,1.11-2.97,0-4.62-1.68-4.62-4.59v-9.54h-2.82v-1.8h2.82v-3.45h2.13v3.45h4.8v1.8h-4.8v9.42c0,1.86.96,2.88,2.73,2.88.87,0,1.74-.27,2.34-.81l.75,1.53Z"/>
        <path class="cls-3" d="m842.52,175.43h-13.2c.24,3.3,2.76,5.49,6.21,5.49,1.92,0,3.63-.69,4.83-2.07l1.2,1.38c-1.41,1.68-3.6,2.58-6.09,2.58-4.92,0-8.28-3.36-8.28-8.04s3.27-8.01,7.71-8.01,7.65,3.27,7.65,8.01c0,.18-.03.42-.03.66Zm-13.2-1.59h11.19c-.27-3.09-2.52-5.25-5.61-5.25s-5.31,2.16-5.58,5.25Z"/>
        <path class="cls-3" d="m861.42,173.51v9.15h-2.13v-8.94c0-3.33-1.74-5.04-4.74-5.04-3.39,0-5.52,2.1-5.52,5.7v8.28h-2.13v-15.78h2.04v2.91c1.14-1.92,3.27-3.03,6-3.03,3.84,0,6.48,2.22,6.48,6.75Z"/>
        <path class="cls-3" d="m881.73,173.51v9.15h-2.13v-8.94c0-3.33-1.74-5.04-4.74-5.04-3.39,0-5.52,2.1-5.52,5.7v8.28h-2.13v-22.26h2.13v9.24c1.17-1.83,3.24-2.88,5.91-2.88,3.84,0,6.48,2.22,6.48,6.75Z"/>
        <path class="cls-3" d="m899.43,172.88v9.78h-2.04v-2.46c-.96,1.62-2.82,2.61-5.43,2.61-3.57,0-5.76-1.86-5.76-4.59,0-2.43,1.56-4.47,6.09-4.47h5.01v-.96c0-2.7-1.53-4.17-4.47-4.17-2.04,0-3.96.72-5.25,1.86l-.96-1.59c1.59-1.35,3.93-2.13,6.42-2.13,4.08,0,6.39,2.04,6.39,6.12Zm-2.13,5.04v-2.58h-4.95c-3.06,0-4.05,1.2-4.05,2.82,0,1.83,1.47,2.97,3.99,2.97s4.17-1.14,5.01-3.21Z"/>
        <path class="cls-3" d="m931.26,173.51v9.15h-2.13v-8.94c0-3.33-1.68-5.04-4.53-5.04-3.24,0-5.28,2.1-5.28,5.7v8.28h-2.13v-8.94c0-3.33-1.68-5.04-4.56-5.04-3.21,0-5.28,2.1-5.28,5.7v8.28h-2.13v-15.78h2.04v2.88c1.11-1.89,3.15-3,5.79-3s4.65,1.11,5.61,3.33c1.14-2.04,3.39-3.33,6.24-3.33,3.84,0,6.36,2.22,6.36,6.75Z"/>
        <path class="cls-3" d="m942.72,180.86l.96-1.68c1.26.99,3.39,1.77,5.61,1.77,3,0,4.23-1.02,4.23-2.58,0-4.11-10.23-.87-10.23-7.11,0-2.58,2.22-4.5,6.24-4.5,2.04,0,4.26.57,5.58,1.47l-.93,1.71c-1.38-.96-3.03-1.35-4.65-1.35-2.85,0-4.11,1.11-4.11,2.61,0,4.26,10.23,1.05,10.23,7.11,0,2.73-2.4,4.5-6.51,4.5-2.61,0-5.13-.84-6.42-1.95Z"/>
        <path class="cls-3" d="m959.1,161.9c0-.81.69-1.5,1.56-1.5s1.56.66,1.56,1.47c0,.87-.66,1.56-1.56,1.56s-1.56-.69-1.56-1.53Zm.48,4.98h2.13v15.78h-2.13v-15.78Z"/>
        <path class="cls-3" d="m982.26,166.88v13.86c0,5.43-2.67,7.89-7.89,7.89-2.88,0-5.7-.87-7.35-2.43l1.08-1.62c1.5,1.35,3.78,2.16,6.21,2.16,3.99,0,5.82-1.83,5.82-5.73v-2.01c-1.32,2.01-3.57,3.06-6.15,3.06-4.5,0-7.92-3.15-7.92-7.68s3.42-7.62,7.92-7.62c2.64,0,4.92,1.08,6.24,3.15v-3.03h2.04Zm-2.07,7.5c0-3.42-2.52-5.76-6-5.76s-5.97,2.34-5.97,5.76,2.49,5.79,5.97,5.79,6-2.37,6-5.79Z"/>
        <path class="cls-3" d="m1002.75,173.51v9.15h-2.13v-8.94c0-3.33-1.74-5.04-4.74-5.04-3.39,0-5.52,2.1-5.52,5.7v8.28h-2.13v-15.78h2.04v2.91c1.14-1.92,3.27-3.03,6-3.03,3.84,0,6.48,2.22,6.48,6.75Z"/>
        <path class="cls-3" d="m1008.06,161.9c0-.81.69-1.5,1.56-1.5s1.56.66,1.56,1.47c0,.87-.66,1.56-1.56,1.56s-1.56-.69-1.56-1.53Zm.48,4.98h2.13v15.78h-2.13v-15.78Z"/>
        <path class="cls-3" d="m1021.74,160.25c1.17,0,2.37.33,3.15.99l-.72,1.59c-.6-.51-1.44-.78-2.34-.78-1.83,0-2.79,1.02-2.79,2.97v1.86h4.86v1.8h-4.8v13.98h-2.13v-13.98h-2.82v-1.8h2.82v-1.95c0-2.82,1.68-4.68,4.77-4.68Zm10.08,1.62c0,.87-.66,1.56-1.56,1.56s-1.56-.69-1.56-1.53.69-1.5,1.56-1.5,1.56.66,1.56,1.47Zm-2.64,5.01h2.13v15.78h-2.13v-15.78Z"/>
        <path class="cls-3" d="m1035.66,174.77c0-4.71,3.42-8.01,8.13-8.01,2.67,0,4.92,1.05,6.18,3.12l-1.59,1.08c-1.08-1.59-2.76-2.34-4.59-2.34-3.45,0-5.97,2.46-5.97,6.15s2.52,6.15,5.97,6.15c1.83,0,3.51-.72,4.59-2.31l1.59,1.08c-1.26,2.04-3.51,3.12-6.18,3.12-4.71,0-8.13-3.33-8.13-8.04Z"/>
        <path class="cls-3" d="m1066.05,172.88v9.78h-2.04v-2.46c-.96,1.62-2.82,2.61-5.43,2.61-3.57,0-5.76-1.86-5.76-4.59,0-2.43,1.56-4.47,6.09-4.47h5.01v-.96c0-2.7-1.53-4.17-4.47-4.17-2.04,0-3.96.72-5.25,1.86l-.96-1.59c1.59-1.35,3.93-2.13,6.42-2.13,4.08,0,6.39,2.04,6.39,6.12Zm-2.13,5.04v-2.58h-4.95c-3.06,0-4.05,1.2-4.05,2.82,0,1.83,1.47,2.97,3.99,2.97s4.17-1.14,5.01-3.21Z"/>
        <path class="cls-3" d="m1086.3,160.4v22.26h-2.04v-3.12c-1.29,2.13-3.48,3.27-6.09,3.27-4.5,0-7.86-3.27-7.86-8.04s3.36-8.01,7.86-8.01c2.52,0,4.68,1.08,6,3.12v-9.48h2.13Zm-2.1,14.37c0-3.69-2.52-6.15-5.85-6.15s-5.88,2.46-5.88,6.15,2.52,6.15,5.88,6.15,5.85-2.46,5.85-6.15Z"/>
        <path class="cls-3" d="m1090.65,174.77c0-4.68,3.42-8.01,8.04-8.01s8.01,3.33,8.01,8.01-3.39,8.04-8.01,8.04-8.04-3.36-8.04-8.04Zm13.89,0c0-3.69-2.49-6.15-5.85-6.15s-5.88,2.46-5.88,6.15,2.52,6.15,5.88,6.15,5.85-2.46,5.85-6.15Z"/>
        <path class="cls-3" d="m1108.86,180.86l.96-1.68c1.26.99,3.39,1.77,5.61,1.77,3,0,4.23-1.02,4.23-2.58,0-4.11-10.23-.87-10.23-7.11,0-2.58,2.22-4.5,6.24-4.5,2.04,0,4.26.57,5.58,1.47l-.93,1.71c-1.38-.96-3.03-1.35-4.65-1.35-2.85,0-4.11,1.11-4.11,2.61,0,4.26,10.23,1.05,10.23,7.11,0,2.73-2.4,4.5-6.51,4.5-2.61,0-5.13-.84-6.42-1.95Z"/>
        <path class="cls-3" d="m1147.98,160.4v22.26h-2.04v-3.12c-1.29,2.13-3.48,3.27-6.09,3.27-4.5,0-7.86-3.27-7.86-8.04s3.36-8.01,7.86-8.01c2.52,0,4.68,1.08,6,3.12v-9.48h2.13Zm-2.1,14.37c0-3.69-2.52-6.15-5.85-6.15s-5.88,2.46-5.88,6.15,2.52,6.15,5.88,6.15,5.85-2.46,5.85-6.15Z"/>
        <path class="cls-3" d="m1153.44,161.9c0-.81.69-1.5,1.56-1.5s1.56.66,1.56,1.47c0,.87-.66,1.56-1.56,1.56s-1.56-.69-1.56-1.53Zm.48,4.98h2.13v15.78h-2.13v-15.78Z"/>
        <path class="cls-3" d="m1159.8,180.86l.96-1.68c1.26.99,3.39,1.77,5.61,1.77,3,0,4.23-1.02,4.23-2.58,0-4.11-10.23-.87-10.23-7.11,0-2.58,2.22-4.5,6.24-4.5,2.04,0,4.26.57,5.58,1.47l-.93,1.71c-1.38-.96-3.03-1.35-4.65-1.35-2.85,0-4.11,1.11-4.11,2.61,0,4.26,10.23,1.05,10.23,7.11,0,2.73-2.4,4.5-6.51,4.5-2.61,0-5.13-.84-6.42-1.95Z"/>
        <path class="cls-3" d="m1184.97,181.7c-.84.75-2.1,1.11-3.33,1.11-2.97,0-4.62-1.68-4.62-4.59v-9.54h-2.82v-1.8h2.82v-3.45h2.13v3.45h4.8v1.8h-4.8v9.42c0,1.86.96,2.88,2.73,2.88.87,0,1.74-.27,2.34-.81l.75,1.53Z"/>
        <path class="cls-3" d="m1188.36,161.9c0-.81.69-1.5,1.56-1.5s1.56.66,1.56,1.47c0,.87-.66,1.56-1.56,1.56s-1.56-.69-1.56-1.53Zm.48,4.98h2.13v15.78h-2.13v-15.78Z"/>
        <path class="cls-3" d="m1211.43,173.51v9.15h-2.13v-8.94c0-3.33-1.74-5.04-4.74-5.04-3.39,0-5.52,2.1-5.52,5.7v8.28h-2.13v-15.78h2.04v2.91c1.14-1.92,3.27-3.03,6-3.03,3.84,0,6.48,2.22,6.48,6.75Z"/>
        <path class="cls-3" d="m1225.53,181.7c-.84.75-2.1,1.11-3.33,1.11-2.97,0-4.62-1.68-4.62-4.59v-9.54h-2.82v-1.8h2.82v-3.45h2.13v3.45h4.8v1.8h-4.8v9.42c0,1.86.96,2.88,2.73,2.88.87,0,1.74-.27,2.34-.81l.75,1.53Z"/>
        <path class="cls-3" d="m1227.24,174.77c0-4.68,3.42-8.01,8.04-8.01s8.01,3.33,8.01,8.01-3.39,8.04-8.01,8.04-8.04-3.36-8.04-8.04Zm13.89,0c0-3.69-2.49-6.15-5.85-6.15s-5.88,2.46-5.88,6.15,2.52,6.15,5.88,6.15,5.85-2.46,5.85-6.15Z"/>
        <path class="cls-3" d="m1245.45,180.86l.96-1.68c1.26.99,3.39,1.77,5.61,1.77,3,0,4.23-1.02,4.23-2.58,0-4.11-10.23-.87-10.23-7.11,0-2.58,2.22-4.5,6.24-4.5,2.04,0,4.26.57,5.58,1.47l-.93,1.71c-1.38-.96-3.03-1.35-4.65-1.35-2.85,0-4.11,1.11-4.11,2.61,0,4.26,10.23,1.05,10.23,7.11,0,2.73-2.4,4.5-6.51,4.5-2.61,0-5.13-.84-6.42-1.95Z"/>
        <path class="cls-3" d="m83.41,214.43h-13.2c.24,3.3,2.76,5.49,6.21,5.49,1.92,0,3.63-.69,4.83-2.07l1.2,1.38c-1.41,1.68-3.6,2.58-6.09,2.58-4.92,0-8.28-3.36-8.28-8.04s3.27-8.01,7.71-8.01,7.65,3.27,7.65,8.01c0,.18-.03.42-.03.66Zm-13.2-1.59h11.19c-.27-3.09-2.52-5.25-5.61-5.25s-5.31,2.16-5.58,5.25Z"/>
        <path class="cls-3" d="m113.83,212.51v9.15h-2.13v-8.94c0-3.33-1.68-5.04-4.53-5.04-3.24,0-5.28,2.1-5.28,5.7v8.28h-2.13v-8.94c0-3.33-1.68-5.04-4.56-5.04-3.21,0-5.28,2.1-5.28,5.7v8.28h-2.13v-15.78h2.04v2.88c1.11-1.89,3.15-3,5.79-3s4.65,1.11,5.61,3.33c1.14-2.04,3.39-3.33,6.24-3.33,3.84,0,6.36,2.22,6.36,6.75Z"/>
        <path class="cls-3" d="m127.48,199.4h2.13v22.26h-2.13v-22.26Z"/>
        <path class="cls-3" d="m133.96,213.77c0-4.68,3.42-8.01,8.04-8.01s8.01,3.33,8.01,8.01-3.39,8.04-8.01,8.04-8.04-3.36-8.04-8.04Zm13.89,0c0-3.69-2.49-6.15-5.85-6.15s-5.88,2.46-5.88,6.15,2.52,6.15,5.88,6.15,5.85-2.46,5.85-6.15Z"/>
        <path class="cls-3" d="m152.77,213.77c0-4.71,3.42-8.01,8.13-8.01,2.67,0,4.92,1.05,6.18,3.12l-1.59,1.08c-1.08-1.59-2.76-2.34-4.59-2.34-3.45,0-5.97,2.46-5.97,6.15s2.52,6.15,5.97,6.15c1.83,0,3.51-.72,4.59-2.31l1.59,1.08c-1.26,2.04-3.51,3.12-6.18,3.12-4.71,0-8.13-3.33-8.13-8.04Z"/>
        <path class="cls-3" d="m183.16,211.88v9.78h-2.04v-2.46c-.96,1.62-2.82,2.61-5.43,2.61-3.57,0-5.76-1.86-5.76-4.59,0-2.43,1.56-4.47,6.09-4.47h5.01v-.96c0-2.7-1.53-4.17-4.47-4.17-2.04,0-3.96.72-5.25,1.86l-.96-1.59c1.59-1.35,3.93-2.13,6.42-2.13,4.08,0,6.39,2.04,6.39,6.12Zm-2.13,5.04v-2.58h-4.95c-3.06,0-4.05,1.2-4.05,2.82,0,1.83,1.47,2.97,3.99,2.97s4.17-1.14,5.01-3.21Z"/>
        <path class="cls-3" d="m188.95,199.4h2.13v22.26h-2.13v-22.26Z"/>
        <path class="cls-3" d="m196.54,200.9c0-.81.69-1.5,1.56-1.5s1.56.66,1.56,1.47c0,.87-.66,1.56-1.56,1.56s-1.56-.69-1.56-1.53Zm.48,4.98h2.13v15.78h-2.13v-15.78Z"/>
        <path class="cls-3" d="m219.49,199.4v22.26h-2.04v-3.12c-1.29,2.13-3.48,3.27-6.09,3.27-4.5,0-7.86-3.27-7.86-8.04s3.36-8.01,7.86-8.01c2.52,0,4.68,1.08,6,3.12v-9.48h2.13Zm-2.1,14.37c0-3.69-2.52-6.15-5.85-6.15s-5.88,2.46-5.88,6.15,2.52,6.15,5.88,6.15,5.85-2.46,5.85-6.15Z"/>
        <path class="cls-3" d="m237.34,211.88v9.78h-2.04v-2.46c-.96,1.62-2.82,2.61-5.43,2.61-3.57,0-5.76-1.86-5.76-4.59,0-2.43,1.56-4.47,6.09-4.47h5.01v-.96c0-2.7-1.53-4.17-4.47-4.17-2.04,0-3.96.72-5.25,1.86l-.96-1.59c1.59-1.35,3.93-2.13,6.42-2.13,4.08,0,6.39,2.04,6.39,6.12Zm-2.13,5.04v-2.58h-4.95c-3.06,0-4.05,1.2-4.05,2.82,0,1.83,1.47,2.97,3.99,2.97s4.17-1.14,5.01-3.21Z"/>
        <path class="cls-3" d="m257.59,199.4v22.26h-2.04v-3.12c-1.29,2.13-3.48,3.27-6.09,3.27-4.5,0-7.86-3.27-7.86-8.04s3.36-8.01,7.86-8.01c2.52,0,4.68,1.08,6,3.12v-9.48h2.13Zm-2.1,14.37c0-3.69-2.52-6.15-5.85-6.15s-5.88,2.46-5.88,6.15,2.52,6.15,5.88,6.15,5.85-2.46,5.85-6.15Z"/>
        <path class="cls-3" d="m277.27,214.43h-13.2c.24,3.3,2.76,5.49,6.21,5.49,1.92,0,3.63-.69,4.83-2.07l1.2,1.38c-1.41,1.68-3.6,2.58-6.09,2.58-4.92,0-8.28-3.36-8.28-8.04s3.27-8.01,7.71-8.01,7.65,3.27,7.65,8.01c0,.18-.03.42-.03.66Zm-13.2-1.59h11.19c-.27-3.09-2.52-5.25-5.61-5.25s-5.31,2.16-5.58,5.25Z"/>
        <path class="cls-3" d="m279.46,219.86l.96-1.68c1.26.99,3.39,1.77,5.61,1.77,3,0,4.23-1.02,4.23-2.58,0-4.11-10.23-.87-10.23-7.11,0-2.58,2.22-4.5,6.24-4.5,2.04,0,4.26.57,5.58,1.47l-.93,1.71c-1.38-.96-3.03-1.35-4.65-1.35-2.85,0-4.11,1.11-4.11,2.61,0,4.26,10.23,1.05,10.23,7.11,0,2.73-2.4,4.5-6.51,4.5-2.61,0-5.13-.84-6.42-1.95Z"/>
        <path class="cls-3" d="m318.58,199.4v22.26h-2.04v-3.12c-1.29,2.13-3.48,3.27-6.09,3.27-4.5,0-7.86-3.27-7.86-8.04s3.36-8.01,7.86-8.01c2.52,0,4.68,1.08,6,3.12v-9.48h2.13Zm-2.1,14.37c0-3.69-2.52-6.15-5.85-6.15s-5.88,2.46-5.88,6.15,2.52,6.15,5.88,6.15,5.85-2.46,5.85-6.15Z"/>
        <path class="cls-3" d="m324.04,200.9c0-.81.69-1.5,1.56-1.5s1.56.66,1.56,1.47c0,.87-.66,1.56-1.56,1.56s-1.56-.69-1.56-1.53Zm.48,4.98h2.13v15.78h-2.13v-15.78Z"/>
        <path class="cls-3" d="m345.85,205.88l-7.02,15.78h-2.19l-6.99-15.78h2.22l5.91,13.44,5.97-13.44h2.1Z"/>
        <path class="cls-3" d="m362.14,214.43h-13.2c.24,3.3,2.76,5.49,6.21,5.49,1.92,0,3.63-.69,4.83-2.07l1.2,1.38c-1.41,1.68-3.6,2.58-6.09,2.58-4.92,0-8.28-3.36-8.28-8.04s3.27-8.01,7.71-8.01,7.65,3.27,7.65,8.01c0,.18-.03.42-.03.66Zm-13.2-1.59h11.19c-.27-3.09-2.52-5.25-5.61-5.25s-5.31,2.16-5.58,5.25Z"/>
        <path class="cls-3" d="m374.47,205.76v2.07c-.18,0-.36-.03-.51-.03-3.3,0-5.31,2.1-5.31,5.82v8.04h-2.13v-15.78h2.04v3.09c.99-2.1,3-3.21,5.91-3.21Z"/>
        <path class="cls-3" d="m376.24,219.86l.96-1.68c1.26.99,3.39,1.77,5.61,1.77,3,0,4.23-1.02,4.23-2.58,0-4.11-10.23-.87-10.23-7.11,0-2.58,2.22-4.5,6.24-4.5,2.04,0,4.26.57,5.58,1.47l-.93,1.71c-1.38-.96-3.03-1.35-4.65-1.35-2.85,0-4.11,1.11-4.11,2.61,0,4.26,10.23,1.05,10.23,7.11,0,2.73-2.4,4.5-6.51,4.5-2.61,0-5.13-.84-6.42-1.95Z"/>
        <path class="cls-3" d="m405.01,211.88v9.78h-2.04v-2.46c-.96,1.62-2.82,2.61-5.43,2.61-3.57,0-5.76-1.86-5.76-4.59,0-2.43,1.56-4.47,6.09-4.47h5.01v-.96c0-2.7-1.53-4.17-4.47-4.17-2.04,0-3.96.72-5.25,1.86l-.96-1.59c1.59-1.35,3.93-2.13,6.42-2.13,4.08,0,6.39,2.04,6.39,6.12Zm-2.13,5.04v-2.58h-4.95c-3.06,0-4.05,1.2-4.05,2.82,0,1.83,1.47,2.97,3.99,2.97s4.17-1.14,5.01-3.21Z"/>
        <path class="cls-3" d="m408.61,219.86l.96-1.68c1.26.99,3.39,1.77,5.61,1.77,3,0,4.23-1.02,4.23-2.58,0-4.11-10.23-.87-10.23-7.11,0-2.58,2.22-4.5,6.24-4.5,2.04,0,4.26.57,5.58,1.47l-.93,1.71c-1.38-.96-3.03-1.35-4.65-1.35-2.85,0-4.11,1.11-4.11,2.61,0,4.26,10.23,1.05,10.23,7.11,0,2.73-2.4,4.5-6.51,4.5-2.61,0-5.13-.84-6.42-1.95Z"/>
        <path class="cls-3" d="m447.85,212.51v9.15h-2.13v-8.94c0-3.33-1.74-5.04-4.74-5.04-3.39,0-5.52,2.1-5.52,5.7v8.28h-2.13v-15.78h2.04v2.91c1.14-1.92,3.27-3.03,6-3.03,3.84,0,6.48,2.22,6.48,6.75Z"/>
        <path class="cls-3" d="m452.11,213.77c0-4.68,3.42-8.01,8.04-8.01s8.01,3.33,8.01,8.01-3.39,8.04-8.01,8.04-8.04-3.36-8.04-8.04Zm13.89,0c0-3.69-2.49-6.15-5.85-6.15s-5.88,2.46-5.88,6.15,2.52,6.15,5.88,6.15,5.85-2.46,5.85-6.15Z"/>
        <path class="cls-3" d="m488.68,220.7c-.84.75-2.1,1.11-3.33,1.11-2.97,0-4.62-1.68-4.62-4.59v-9.54h-2.82v-1.8h2.82v-3.45h2.13v3.45h4.8v1.8h-4.8v9.42c0,1.86.96,2.88,2.73,2.88.87,0,1.74-.27,2.34-.81l.75,1.53Z"/>
        <path class="cls-3" d="m505.72,214.43h-13.2c.24,3.3,2.76,5.49,6.21,5.49,1.92,0,3.63-.69,4.83-2.07l1.2,1.38c-1.41,1.68-3.6,2.58-6.09,2.58-4.92,0-8.28-3.36-8.28-8.04s3.27-8.01,7.71-8.01,7.65,3.27,7.65,8.01c0,.18-.03.42-.03.66Zm-13.2-1.59h11.19c-.27-3.09-2.52-5.25-5.61-5.25s-5.31,2.16-5.58,5.25Z"/>
        <path class="cls-3" d="m518.05,205.76v2.07c-.18,0-.36-.03-.51-.03-3.3,0-5.31,2.1-5.31,5.82v8.04h-2.13v-15.78h2.04v3.09c.99-2.1,3-3.21,5.91-3.21Z"/>
        <path class="cls-3" d="m529.84,205.76v2.07c-.18,0-.36-.03-.51-.03-3.3,0-5.31,2.1-5.31,5.82v8.04h-2.13v-15.78h2.04v3.09c.99-2.1,3-3.21,5.91-3.21Z"/>
        <path class="cls-3" d="m533.2,200.9c0-.81.69-1.5,1.56-1.5s1.56.66,1.56,1.47c0,.87-.66,1.56-1.56,1.56s-1.56-.69-1.56-1.53Zm.48,4.98h2.13v15.78h-2.13v-15.78Z"/>
        <path class="cls-3" d="m550.06,220.7c-.84.75-2.1,1.11-3.33,1.11-2.97,0-4.62-1.68-4.62-4.59v-9.54h-2.82v-1.8h2.82v-3.45h2.13v3.45h4.8v1.8h-4.8v9.42c0,1.86.96,2.88,2.73,2.88.87,0,1.74-.27,2.34-.81l.75,1.53Z"/>
        <path class="cls-3" d="m551.77,213.77c0-4.68,3.42-8.01,8.04-8.01s8.01,3.33,8.01,8.01-3.39,8.04-8.01,8.04-8.04-3.36-8.04-8.04Zm13.89,0c0-3.69-2.49-6.15-5.85-6.15s-5.88,2.46-5.88,6.15,2.52,6.15,5.88,6.15,5.85-2.46,5.85-6.15Zm-3.72-14.04h2.85l-4.86,3.72h-2.1l4.11-3.72Z"/>
        <path class="cls-3" d="m580.12,205.76v2.07c-.18,0-.36-.03-.51-.03-3.3,0-5.31,2.1-5.31,5.82v8.04h-2.13v-15.78h2.04v3.09c.99-2.1,3-3.21,5.91-3.21Z"/>
        <path class="cls-3" d="m583.48,200.9c0-.81.69-1.5,1.56-1.5s1.56.66,1.56,1.47c0,.87-.66,1.56-1.56,1.56s-1.56-.69-1.56-1.53Zm.48,4.98h2.13v15.78h-2.13v-15.78Z"/>
        <path class="cls-3" d="m590.44,213.77c0-4.68,3.42-8.01,8.04-8.01s8.01,3.33,8.01,8.01-3.39,8.04-8.01,8.04-8.04-3.36-8.04-8.04Zm13.89,0c0-3.69-2.49-6.15-5.85-6.15s-5.88,2.46-5.88,6.15,2.52,6.15,5.88,6.15,5.85-2.46,5.85-6.15Z"/>
        <path class="cls-3" d="m633.21,212.51v9.15h-2.13v-8.94c0-3.33-1.74-5.04-4.74-5.04-3.39,0-5.52,2.1-5.52,5.7v8.28h-2.13v-15.78h2.04v2.91c1.14-1.92,3.27-3.03,6-3.03,3.84,0,6.48,2.22,6.48,6.75Z"/>
        <path class="cls-3" d="m650.91,211.88v9.78h-2.04v-2.46c-.96,1.62-2.82,2.61-5.43,2.61-3.57,0-5.76-1.86-5.76-4.59,0-2.43,1.56-4.47,6.09-4.47h5.01v-.96c0-2.7-1.53-4.17-4.47-4.17-2.04,0-3.96.72-5.25,1.86l-.96-1.59c1.59-1.35,3.93-2.13,6.42-2.13,4.08,0,6.39,2.04,6.39,6.12Zm-2.13,5.04v-2.58h-4.95c-3.06,0-4.05,1.2-4.05,2.82,0,1.83,1.47,2.97,3.99,2.97s4.17-1.14,5.01-3.21Z"/>
        <path class="cls-3" d="m655.17,213.77c0-4.71,3.42-8.01,8.13-8.01,2.67,0,4.92,1.05,6.18,3.12l-1.59,1.08c-1.08-1.59-2.76-2.34-4.59-2.34-3.45,0-5.97,2.46-5.97,6.15s2.52,6.15,5.97,6.15c1.83,0,3.51-.72,4.59-2.31l1.59,1.08c-1.26,2.04-3.51,3.12-6.18,3.12-4.71,0-8.13-3.33-8.13-8.04Z"/>
        <path class="cls-3" d="m673.17,200.9c0-.81.69-1.5,1.56-1.5s1.56.66,1.56,1.47c0,.87-.66,1.56-1.56,1.56s-1.56-.69-1.56-1.53Zm.48,4.98h2.13v15.78h-2.13v-15.78Z"/>
        <path class="cls-3" d="m680.13,213.77c0-4.68,3.42-8.01,8.04-8.01s8.01,3.33,8.01,8.01-3.39,8.04-8.01,8.04-8.04-3.36-8.04-8.04Zm13.89,0c0-3.69-2.49-6.15-5.85-6.15s-5.88,2.46-5.88,6.15,2.52,6.15,5.88,6.15,5.85-2.46,5.85-6.15Z"/>
        <path class="cls-3" d="m715.05,212.51v9.15h-2.13v-8.94c0-3.33-1.74-5.04-4.74-5.04-3.39,0-5.52,2.1-5.52,5.7v8.28h-2.13v-15.78h2.04v2.91c1.14-1.92,3.27-3.03,6-3.03,3.84,0,6.48,2.22,6.48,6.75Z"/>
        <path class="cls-3" d="m732.75,211.88v9.78h-2.04v-2.46c-.96,1.62-2.82,2.61-5.43,2.61-3.57,0-5.76-1.86-5.76-4.59,0-2.43,1.56-4.47,6.09-4.47h5.01v-.96c0-2.7-1.53-4.17-4.47-4.17-2.04,0-3.96.72-5.25,1.86l-.96-1.59c1.59-1.35,3.93-2.13,6.42-2.13,4.08,0,6.39,2.04,6.39,6.12Zm-2.13,5.04v-2.58h-4.95c-3.06,0-4.05,1.2-4.05,2.82,0,1.83,1.47,2.97,3.99,2.97s4.17-1.14,5.01-3.21Z"/>
        <path class="cls-3" d="m738.54,199.4h2.13v22.26h-2.13v-22.26Z"/>
        <path class="cls-3" d="m748.44,220.16c0,.51-.12.9-.42,1.74l-1.26,4.14h-1.44l1.02-4.35c-.63-.18-1.08-.75-1.08-1.53,0-.93.69-1.62,1.59-1.62s1.59.72,1.59,1.62Z"/>
        <path class="cls-3" d="m760.35,200.9c0-.81.69-1.5,1.56-1.5s1.56.66,1.56,1.47c0,.87-.66,1.56-1.56,1.56s-1.56-.69-1.56-1.53Zm.48,4.98h2.13v15.78h-2.13v-15.78Z"/>
        <path class="cls-3" d="m783.3,199.4v22.26h-2.04v-3.12c-1.29,2.13-3.48,3.27-6.09,3.27-4.5,0-7.86-3.27-7.86-8.04s3.36-8.01,7.86-8.01c2.52,0,4.68,1.08,6,3.12v-9.48h2.13Zm-2.1,14.37c0-3.69-2.52-6.15-5.85-6.15s-5.88,2.46-5.88,6.15,2.52,6.15,5.88,6.15,5.85-2.46,5.85-6.15Z"/>
        <path class="cls-3" d="m802.98,214.43h-13.2c.24,3.3,2.76,5.49,6.21,5.49,1.92,0,3.63-.69,4.83-2.07l1.2,1.38c-1.41,1.68-3.6,2.58-6.09,2.58-4.92,0-8.28-3.36-8.28-8.04s3.27-8.01,7.71-8.01,7.65,3.27,7.65,8.01c0,.18-.03.42-.03.66Zm-13.2-1.59h11.19c-.27-3.09-2.52-5.25-5.61-5.25s-5.31,2.16-5.58,5.25Z"/>
        <path class="cls-3" d="m821.88,212.51v9.15h-2.13v-8.94c0-3.33-1.74-5.04-4.74-5.04-3.39,0-5.52,2.1-5.52,5.7v8.28h-2.13v-15.78h2.04v2.91c1.14-1.92,3.27-3.03,6-3.03,3.84,0,6.48,2.22,6.48,6.75Z"/>
        <path class="cls-3" d="m835.98,220.7c-.84.75-2.1,1.11-3.33,1.11-2.97,0-4.62-1.68-4.62-4.59v-9.54h-2.82v-1.8h2.82v-3.45h2.13v3.45h4.8v1.8h-4.8v9.42c0,1.86.96,2.88,2.73,2.88.87,0,1.74-.27,2.34-.81l.75,1.53Z"/>
        <path class="cls-3" d="m839.37,200.9c0-.81.69-1.5,1.56-1.5s1.56.66,1.56,1.47c0,.87-.66,1.56-1.56,1.56s-1.56-.69-1.56-1.53Zm.48,4.98h2.13v15.78h-2.13v-15.78Z"/>
        <path class="cls-3" d="m853.05,199.25c1.17,0,2.37.33,3.15.99l-.72,1.59c-.6-.51-1.44-.78-2.34-.78-1.83,0-2.79,1.02-2.79,2.97v1.86h4.86v1.8h-4.8v13.98h-2.13v-13.98h-2.82v-1.8h2.82v-1.95c0-2.82,1.68-4.68,4.77-4.68Zm10.08,1.62c0,.87-.66,1.56-1.56,1.56s-1.56-.69-1.56-1.53.69-1.5,1.56-1.5,1.56.66,1.56,1.47Zm-2.64,5.01h2.13v15.78h-2.13v-15.78Z"/>
        <path class="cls-3" d="m866.97,213.77c0-4.71,3.42-8.01,8.13-8.01,2.67,0,4.92,1.05,6.18,3.12l-1.59,1.08c-1.08-1.59-2.76-2.34-4.59-2.34-3.45,0-5.97,2.46-5.97,6.15s2.52,6.15,5.97,6.15c1.83,0,3.51-.72,4.59-2.31l1.59,1.08c-1.26,2.04-3.51,3.12-6.18,3.12-4.71,0-8.13-3.33-8.13-8.04Z"/>
        <path class="cls-3" d="m897.36,211.88v9.78h-2.04v-2.46c-.96,1.62-2.82,2.61-5.43,2.61-3.57,0-5.76-1.86-5.76-4.59,0-2.43,1.56-4.47,6.09-4.47h5.01v-.96c0-2.7-1.53-4.17-4.47-4.17-2.04,0-3.96.72-5.25,1.86l-.96-1.59c1.59-1.35,3.93-2.13,6.42-2.13,4.08,0,6.39,2.04,6.39,6.12Zm-2.13,5.04v-2.58h-4.95c-3.06,0-4.05,1.2-4.05,2.82,0,1.83,1.47,2.97,3.99,2.97s4.17-1.14,5.01-3.21Z"/>
        <path class="cls-3" d="m911.1,205.76v2.07c-.18,0-.36-.03-.51-.03-3.3,0-5.31,2.1-5.31,5.82v8.04h-2.13v-15.78h2.04v3.09c.99-2.1,3-3.21,5.91-3.21Z"/>
        <path class="cls-3" d="m939.03,213.77c0,4.8-3.36,8.04-7.86,8.04-2.52,0-4.68-1.08-6-3.12v8.79h-2.13v-21.6h2.04v3.12c1.29-2.1,3.48-3.24,6.09-3.24,4.5,0,7.86,3.24,7.86,8.01Zm-2.13,0c0-3.66-2.55-6.15-5.88-6.15s-5.88,2.49-5.88,6.15,2.52,6.15,5.88,6.15,5.88-2.46,5.88-6.15Z"/>
        <path class="cls-3" d="m941.79,213.77c0-4.68,3.42-8.01,8.04-8.01s8.01,3.33,8.01,8.01-3.39,8.04-8.01,8.04-8.04-3.36-8.04-8.04Zm13.89,0c0-3.69-2.49-6.15-5.85-6.15s-5.88,2.46-5.88,6.15,2.52,6.15,5.88,6.15,5.85-2.46,5.85-6.15Z"/>
        <path class="cls-3" d="m970.14,205.76v2.07c-.18,0-.36-.03-.51-.03-3.3,0-5.31,2.1-5.31,5.82v8.04h-2.13v-15.78h2.04v3.09c.99-2.1,3-3.21,5.91-3.21Z"/>
        <path class="cls-3" d="m995.82,214.43h-13.2c.24,3.3,2.76,5.49,6.21,5.49,1.92,0,3.63-.69,4.83-2.07l1.2,1.38c-1.41,1.68-3.6,2.58-6.09,2.58-4.92,0-8.28-3.36-8.28-8.04s3.27-8.01,7.71-8.01,7.65,3.27,7.65,8.01c0,.18-.03.42-.03.66Zm-13.2-1.59h11.19c-.27-3.09-2.52-5.25-5.61-5.25s-5.31,2.16-5.58,5.25Z"/>
        <path class="cls-3" d="m1009.8,221.66l-5.01-6.6-5.04,6.6h-2.4l6.24-8.1-5.94-7.68h2.4l4.74,6.18,4.74-6.18h2.34l-5.94,7.68,6.3,8.1h-2.43Z"/>
        <path class="cls-3" d="m1024.08,220.7c-.84.75-2.1,1.11-3.33,1.11-2.97,0-4.62-1.68-4.62-4.59v-9.54h-2.82v-1.8h2.82v-3.45h2.13v3.45h4.8v1.8h-4.8v9.42c0,1.86.96,2.88,2.73,2.88.87,0,1.74-.27,2.34-.81l.75,1.53Z"/>
        <path class="cls-3" d="m1041.12,214.43h-13.2c.24,3.3,2.76,5.49,6.21,5.49,1.92,0,3.63-.69,4.83-2.07l1.2,1.38c-1.41,1.68-3.6,2.58-6.09,2.58-4.92,0-8.28-3.36-8.28-8.04s3.27-8.01,7.71-8.01,7.65,3.27,7.65,8.01c0,.18-.03.42-.03.66Zm-13.2-1.59h11.19c-.27-3.09-2.52-5.25-5.61-5.25s-5.31,2.16-5.58,5.25Z"/>
        <path class="cls-3" d="m1060.02,212.51v9.15h-2.13v-8.94c0-3.33-1.74-5.04-4.74-5.04-3.39,0-5.52,2.1-5.52,5.7v8.28h-2.13v-15.78h2.04v2.91c1.14-1.92,3.27-3.03,6-3.03,3.84,0,6.48,2.22,6.48,6.75Z"/>
        <path class="cls-3" d="m1063.62,219.86l.96-1.68c1.26.99,3.39,1.77,5.61,1.77,3,0,4.23-1.02,4.23-2.58,0-4.11-10.23-.87-10.23-7.11,0-2.58,2.22-4.5,6.24-4.5,2.04,0,4.26.57,5.58,1.47l-.93,1.71c-1.38-.96-3.03-1.35-4.65-1.35-2.85,0-4.11,1.11-4.11,2.61,0,4.26,10.23,1.05,10.23,7.11,0,2.73-2.4,4.5-6.51,4.5-2.61,0-5.13-.84-6.42-1.95Z"/>
        <path class="cls-3" d="m1078.89,213.77c0-4.68,3.42-8.01,8.04-8.01s8.01,3.33,8.01,8.01-3.39,8.04-8.01,8.04-8.04-3.36-8.04-8.04Zm13.89,0c0-3.69-2.49-6.15-5.85-6.15s-5.88,2.46-5.88,6.15,2.52,6.15,5.88,6.15,5.85-2.46,5.85-6.15Z"/>
        <path class="cls-3" d="m1119.06,211.88v9.78h-2.04v-2.46c-.96,1.62-2.82,2.61-5.43,2.61-3.57,0-5.76-1.86-5.76-4.59,0-2.43,1.56-4.47,6.09-4.47h5.01v-.96c0-2.7-1.53-4.17-4.47-4.17-2.04,0-3.96.72-5.25,1.86l-.96-1.59c1.59-1.35,3.93-2.13,6.42-2.13,4.08,0,6.39,2.04,6.39,6.12Zm-2.13,5.04v-2.58h-4.95c-3.06,0-4.05,1.2-4.05,2.82,0,1.83,1.47,2.97,3.99,2.97s4.17-1.14,5.01-3.21Z"/>
        <path class="cls-3" d="m1148.7,213.77c0,4.8-3.36,8.04-7.86,8.04-2.52,0-4.68-1.08-6-3.12v8.79h-2.13v-21.6h2.04v3.12c1.29-2.1,3.48-3.24,6.09-3.24,4.5,0,7.86,3.24,7.86,8.01Zm-2.13,0c0-3.66-2.55-6.15-5.88-6.15s-5.88,2.49-5.88,6.15,2.52,6.15,5.88,6.15,5.88-2.46,5.88-6.15Z"/>
        <path class="cls-3" d="m1161,205.76v2.07c-.18,0-.36-.03-.51-.03-3.3,0-5.31,2.1-5.31,5.82v8.04h-2.13v-15.78h2.04v3.09c.99-2.1,3-3.21,5.91-3.21Z"/>
        <path class="cls-3" d="m1164.36,200.9c0-.81.69-1.5,1.56-1.5s1.56.66,1.56,1.47c0,.87-.66,1.56-1.56,1.56s-1.56-.69-1.56-1.53Zm.48,4.98h2.13v15.78h-2.13v-15.78Z"/>
        <path class="cls-3" d="m1198.95,212.51v9.15h-2.13v-8.94c0-3.33-1.68-5.04-4.53-5.04-3.24,0-5.28,2.1-5.28,5.7v8.28h-2.13v-8.94c0-3.33-1.68-5.04-4.56-5.04-3.21,0-5.28,2.1-5.28,5.7v8.28h-2.13v-15.78h2.04v2.88c1.11-1.89,3.15-3,5.79-3s4.65,1.11,5.61,3.33c1.14-2.04,3.39-3.33,6.24-3.33,3.84,0,6.36,2.22,6.36,6.75Z"/>
        <path class="cls-3" d="m1218.54,214.43h-13.2c.24,3.3,2.76,5.49,6.21,5.49,1.92,0,3.63-.69,4.83-2.07l1.2,1.38c-1.41,1.68-3.6,2.58-6.09,2.58-4.92,0-8.28-3.36-8.28-8.04s3.27-8.01,7.71-8.01,7.65,3.27,7.65,8.01c0,.18-.03.42-.03.66Zm-13.2-1.59h11.19c-.27-3.09-2.52-5.25-5.61-5.25s-5.31,2.16-5.58,5.25Z"/>
        <path class="cls-3" d="m1222.44,200.9c0-.81.69-1.5,1.56-1.5s1.56.66,1.56,1.47c0,.87-.66,1.56-1.56,1.56s-1.56-.69-1.56-1.53Zm.48,4.98h2.13v15.78h-2.13v-15.78Z"/>
        <path class="cls-3" d="m1238.94,205.76v2.07c-.18,0-.36-.03-.51-.03-3.3,0-5.31,2.1-5.31,5.82v8.04h-2.13v-15.78h2.04v3.09c.99-2.1,3-3.21,5.91-3.21Z"/>
        <path class="cls-3" d="m1254.66,211.88v9.78h-2.04v-2.46c-.96,1.62-2.82,2.61-5.43,2.61-3.57,0-5.76-1.86-5.76-4.59,0-2.43,1.56-4.47,6.09-4.47h5.01v-.96c0-2.7-1.53-4.17-4.47-4.17-2.04,0-3.96.72-5.25,1.86l-.96-1.59c1.59-1.35,3.93-2.13,6.42-2.13,4.08,0,6.39,2.04,6.39,6.12Zm-2.13,5.04v-2.58h-4.95c-3.06,0-4.05,1.2-4.05,2.82,0,1.83,1.47,2.97,3.99,2.97s4.17-1.14,5.01-3.21Z"/>
        <path class="cls-3" d="m83.89,244.88v15.78h-2.04v-2.88c-1.11,1.92-3.15,3.03-5.67,3.03-4.02,0-6.66-2.25-6.66-6.78v-9.15h2.13v8.94c0,3.36,1.74,5.07,4.74,5.07,3.3,0,5.37-2.13,5.37-5.73v-8.28h2.13Z"/>
        <path class="cls-3" d="m98.17,259.7c-.84.75-2.1,1.11-3.33,1.11-2.97,0-4.62-1.68-4.62-4.59v-9.54h-2.82v-1.8h2.82v-3.45h2.13v3.45h4.8v1.8h-4.8v9.42c0,1.86.96,2.88,2.73,2.88.87,0,1.74-.27,2.34-.81l.75,1.53Z"/>
        <path class="cls-3" d="m101.56,239.9c0-.81.69-1.5,1.56-1.5s1.56.66,1.56,1.47c0,.87-.66,1.56-1.56,1.56s-1.56-.69-1.56-1.53Zm.48,4.98h2.13v15.78h-2.13v-15.78Z"/>
        <path class="cls-3" d="m110.11,238.4h2.13v22.26h-2.13v-22.26Z"/>
        <path class="cls-3" d="m117.7,239.9c0-.81.69-1.5,1.56-1.5s1.56.66,1.56,1.47c0,.87-.66,1.56-1.56,1.56s-1.56-.69-1.56-1.53Zm.48,4.98h2.13v15.78h-2.13v-15.78Z"/>
        <path class="cls-3" d="m137.38,258.89v1.77h-12.84v-1.41l9.93-12.57h-9.75v-1.8h12.48v1.41l-9.93,12.6h10.11Z"/>
        <path class="cls-3" d="m153.49,250.88v9.78h-2.04v-2.46c-.96,1.62-2.82,2.61-5.43,2.61-3.57,0-5.76-1.86-5.76-4.59,0-2.43,1.56-4.47,6.09-4.47h5.01v-.96c0-2.7-1.53-4.17-4.47-4.17-2.04,0-3.96.72-5.25,1.86l-.96-1.59c1.59-1.35,3.93-2.13,6.42-2.13,4.08,0,6.39,2.04,6.39,6.12Zm-2.13,5.04v-2.58h-4.95c-3.06,0-4.05,1.2-4.05,2.82,0,1.83,1.47,2.97,3.99,2.97s4.17-1.14,5.01-3.21Z"/>
        <path class="cls-3" d="m170.47,256.61l1.59,1.08c-1.26,2.04-3.51,3.12-6.18,3.12h-.06l-.36,1.41c1.65.15,2.55,1.11,2.55,2.43,0,1.62-1.38,2.61-3.39,2.61-.99,0-1.8-.21-2.52-.69l.51-1.14c.6.39,1.26.57,1.98.57,1.2,0,1.86-.51,1.86-1.41,0-.81-.6-1.38-1.86-1.38h-.69l.66-2.49c-4.02-.57-6.81-3.69-6.81-7.95,0-4.71,3.42-8.01,8.13-8.01,2.67,0,4.92,1.05,6.18,3.12l-1.59,1.08c-1.08-1.59-2.76-2.34-4.59-2.34-3.45,0-5.97,2.46-5.97,6.15s2.52,6.15,5.97,6.15c1.83,0,3.51-.72,4.59-2.31Z"/>
        <path class="cls-3" d="m188.14,250.88v9.78h-2.04v-2.46c-.96,1.62-2.82,2.61-5.43,2.61-3.57,0-5.76-1.86-5.76-4.59,0-2.43,1.56-4.47,6.09-4.47h5.01v-.96c0-2.7-1.53-4.17-4.47-4.17-2.04,0-3.96.72-5.25,1.86l-.96-1.59c1.59-1.35,3.93-2.13,6.42-2.13,4.08,0,6.39,2.04,6.39,6.12Zm-2.13,5.04v-2.58h-4.95c-3.06,0-4.05,1.2-4.05,2.82,0,1.83,1.47,2.97,3.99,2.97s4.17-1.14,5.01-3.21Zm-7.65-13.77h-1.29c.06-2.01,1.11-3.3,2.7-3.3,1.86,0,2.76,2.04,3.93,2.04.9,0,1.5-.72,1.56-1.86h1.29c-.06,1.95-1.11,3.24-2.7,3.24-1.86,0-2.73-2.04-3.93-2.04-.9,0-1.5.72-1.56,1.92Z"/>
        <path class="cls-3" d="m192.4,252.77c0-4.68,3.42-8.01,8.04-8.01s8.01,3.33,8.01,8.01-3.39,8.04-8.01,8.04-8.04-3.36-8.04-8.04Zm13.89,0c0-3.69-2.49-6.15-5.85-6.15s-5.88,2.46-5.88,6.15,2.52,6.15,5.88,6.15,5.85-2.46,5.85-6.15Z"/>
        <path class="cls-3" d="m235.06,238.4v22.26h-2.04v-3.12c-1.29,2.13-3.48,3.27-6.09,3.27-4.5,0-7.86-3.27-7.86-8.04s3.36-8.01,7.86-8.01c2.52,0,4.68,1.08,6,3.12v-9.48h2.13Zm-2.1,14.37c0-3.69-2.52-6.15-5.85-6.15s-5.88,2.46-5.88,6.15,2.52,6.15,5.88,6.15,5.85-2.46,5.85-6.15Z"/>
        <path class="cls-3" d="m254.74,253.43h-13.2c.24,3.3,2.76,5.49,6.21,5.49,1.92,0,3.63-.69,4.83-2.07l1.2,1.38c-1.41,1.68-3.6,2.58-6.09,2.58-4.92,0-8.28-3.36-8.28-8.04s3.27-8.01,7.71-8.01,7.65,3.27,7.65,8.01c0,.18-.03.42-.03.66Zm-13.2-1.59h11.19c-.27-3.09-2.52-5.25-5.61-5.25s-5.31,2.16-5.58,5.25Z"/>
        <path class="cls-3" d="m264.79,258.86l.96-1.68c1.26.99,3.39,1.77,5.61,1.77,3,0,4.23-1.02,4.23-2.58,0-4.11-10.23-.87-10.23-7.11,0-2.58,2.22-4.5,6.24-4.5,2.04,0,4.26.57,5.58,1.47l-.93,1.71c-1.38-.96-3.03-1.35-4.65-1.35-2.85,0-4.11,1.11-4.11,2.61,0,4.26,10.23,1.05,10.23,7.11,0,2.73-2.4,4.5-6.51,4.5-2.61,0-5.13-.84-6.42-1.95Z"/>
        <path class="cls-3" d="m281.17,239.9c0-.81.69-1.5,1.56-1.5s1.56.66,1.56,1.47c0,.87-.66,1.56-1.56,1.56s-1.56-.69-1.56-1.53Zm.48,4.98h2.13v15.78h-2.13v-15.78Z"/>
        <path class="cls-3" d="m304.33,244.88v13.86c0,5.43-2.67,7.89-7.89,7.89-2.88,0-5.7-.87-7.35-2.43l1.08-1.62c1.5,1.35,3.78,2.16,6.21,2.16,3.99,0,5.82-1.83,5.82-5.73v-2.01c-1.32,2.01-3.57,3.06-6.15,3.06-4.5,0-7.92-3.15-7.92-7.68s3.42-7.62,7.92-7.62c2.64,0,4.92,1.08,6.24,3.15v-3.03h2.04Zm-2.07,7.5c0-3.42-2.52-5.76-6-5.76s-5.97,2.34-5.97,5.76,2.49,5.79,5.97,5.79,6-2.37,6-5.79Z"/>
        <path class="cls-3" d="m310.3,238.4h2.13v22.26h-2.13v-22.26Z"/>
        <path class="cls-3" d="m330.28,250.88v9.78h-2.04v-2.46c-.96,1.62-2.82,2.61-5.43,2.61-3.57,0-5.76-1.86-5.76-4.59,0-2.43,1.56-4.47,6.09-4.47h5.01v-.96c0-2.7-1.53-4.17-4.47-4.17-2.04,0-3.96.72-5.25,1.86l-.96-1.59c1.59-1.35,3.93-2.13,6.42-2.13,4.08,0,6.39,2.04,6.39,6.12Zm-2.13,5.04v-2.58h-4.95c-3.06,0-4.05,1.2-4.05,2.82,0,1.83,1.47,2.97,3.99,2.97s4.17-1.14,5.01-3.21Z"/>
        <path class="cls-3" d="m357.67,253.43h-13.2c.24,3.3,2.76,5.49,6.21,5.49,1.92,0,3.63-.69,4.83-2.07l1.2,1.38c-1.41,1.68-3.6,2.58-6.09,2.58-4.92,0-8.28-3.36-8.28-8.04s3.27-8.01,7.71-8.01,7.65,3.27,7.65,8.01c0,.18-.03.42-.03.66Zm-13.2-1.59h11.19c-.27-3.09-2.52-5.25-5.61-5.25s-5.31,2.16-5.58,5.25Z"/>
        <path class="cls-3" d="m384.43,251.51v9.15h-2.13v-8.94c0-3.33-1.74-5.04-4.74-5.04-3.39,0-5.52,2.1-5.52,5.7v8.28h-2.13v-15.78h2.04v2.91c1.14-1.92,3.27-3.03,6-3.03,3.84,0,6.48,2.22,6.48,6.75Z"/>
        <path class="cls-3" d="m404.44,244.88v15.78h-2.04v-2.88c-1.11,1.92-3.15,3.03-5.67,3.03-4.02,0-6.66-2.25-6.66-6.78v-9.15h2.13v8.94c0,3.36,1.74,5.07,4.74,5.07,3.3,0,5.37-2.13,5.37-5.73v-8.28h2.13Z"/>
        <path class="cls-3" d="m436.45,251.51v9.15h-2.13v-8.94c0-3.33-1.68-5.04-4.53-5.04-3.24,0-5.28,2.1-5.28,5.7v8.28h-2.13v-8.94c0-3.33-1.68-5.04-4.56-5.04-3.21,0-5.28,2.1-5.28,5.7v8.28h-2.13v-15.78h2.04v2.88c1.11-1.89,3.15-3,5.79-3s4.65,1.11,5.61,3.33c1.14-2.04,3.39-3.33,6.24-3.33,3.84,0,6.36,2.22,6.36,6.75Z"/>
        <path class="cls-3" d="m456.04,253.43h-13.2c.24,3.3,2.76,5.49,6.21,5.49,1.92,0,3.63-.69,4.83-2.07l1.2,1.38c-1.41,1.68-3.6,2.58-6.09,2.58-4.92,0-8.28-3.36-8.28-8.04s3.27-8.01,7.71-8.01,7.65,3.27,7.65,8.01c0,.18-.03.42-.03.66Zm-13.2-1.59h11.19c-.27-3.09-2.52-5.25-5.61-5.25s-5.31,2.16-5.58,5.25Z"/>
        <path class="cls-3" d="m468.37,244.76v2.07c-.18,0-.36-.03-.51-.03-3.3,0-5.31,2.1-5.31,5.82v8.04h-2.13v-15.78h2.04v3.09c.99-2.1,3-3.21,5.91-3.21Z"/>
        <path class="cls-3" d="m484.09,250.88v9.78h-2.04v-2.46c-.96,1.62-2.82,2.61-5.43,2.61-3.57,0-5.76-1.86-5.76-4.59,0-2.43,1.56-4.47,6.09-4.47h5.01v-.96c0-2.7-1.53-4.17-4.47-4.17-2.04,0-3.96.72-5.25,1.86l-.96-1.59c1.59-1.35,3.93-2.13,6.42-2.13,4.08,0,6.39,2.04,6.39,6.12Zm-2.13,5.04v-2.58h-4.95c-3.06,0-4.05,1.2-4.05,2.82,0,1.83,1.47,2.97,3.99,2.97s4.17-1.14,5.01-3.21Z"/>
        <path class="cls-3" d="m489.4,239.9c0-.81.69-1.5,1.56-1.5s1.56.66,1.56,1.47c0,.87-.66,1.56-1.56,1.56s-1.56-.69-1.56-1.53Zm.48,4.98h2.13v15.78h-2.13v-15.78Z"/>
        <path class="cls-3" d="m495.76,258.86l.96-1.68c1.26.99,3.39,1.77,5.61,1.77,3,0,4.23-1.02,4.23-2.58,0-4.11-10.23-.87-10.23-7.11,0-2.58,2.22-4.5,6.24-4.5,2.04,0,4.26.57,5.58,1.47l-.93,1.71c-1.38-.96-3.03-1.35-4.65-1.35-2.85,0-4.11,1.11-4.11,2.61,0,4.26,10.23,1.05,10.23,7.11,0,2.73-2.4,4.5-6.51,4.5-2.61,0-5.13-.84-6.42-1.95Z"/>
        <path class="cls-3" d="m534.22,253.43h-13.2c.24,3.3,2.76,5.49,6.21,5.49,1.92,0,3.63-.69,4.83-2.07l1.2,1.38c-1.41,1.68-3.6,2.58-6.09,2.58-4.92,0-8.28-3.36-8.28-8.04s3.27-8.01,7.71-8.01,7.65,3.27,7.65,8.01c0,.18-.03.42-.03.66Zm-13.2-1.59h11.19c-.27-3.09-2.52-5.25-5.61-5.25s-5.31,2.16-5.58,5.25Z"/>
        <path class="cls-3" d="m562.45,252.77c0,4.8-3.36,8.04-7.86,8.04-2.52,0-4.68-1.08-6-3.12v8.79h-2.13v-21.6h2.04v3.12c1.29-2.1,3.48-3.24,6.09-3.24,4.5,0,7.86,3.24,7.86,8.01Zm-2.13,0c0-3.66-2.55-6.15-5.88-6.15s-5.88,2.49-5.88,6.15,2.52,6.15,5.88,6.15,5.88-2.46,5.88-6.15Z"/>
        <path class="cls-3" d="m580.54,253.43h-13.2c.24,3.3,2.76,5.49,6.21,5.49,1.92,0,3.63-.69,4.83-2.07l1.2,1.38c-1.41,1.68-3.6,2.58-6.09,2.58-4.92,0-8.28-3.36-8.28-8.04s3.27-8.01,7.71-8.01,7.65,3.27,7.65,8.01c0,.18-.03.42-.03.66Zm-13.2-1.59h11.19c-.27-3.09-2.52-5.25-5.61-5.25s-5.31,2.16-5.58,5.25Z"/>
        <path class="cls-3" d="m592.87,244.76v2.07c-.18,0-.36-.03-.51-.03-3.3,0-5.31,2.1-5.31,5.82v8.04h-2.13v-15.78h2.04v3.09c.99-2.1,3-3.21,5.91-3.21Z"/>
        <path class="cls-3" d="m594.97,252.77c0-4.71,3.42-8.01,8.13-8.01,2.67,0,4.92,1.05,6.18,3.12l-1.59,1.08c-1.08-1.59-2.76-2.34-4.59-2.34-3.45,0-5.97,2.46-5.97,6.15s2.52,6.15,5.97,6.15c1.83,0,3.51-.72,4.59-2.31l1.59,1.08c-1.26,2.04-3.51,3.12-6.18,3.12-4.71,0-8.13-3.33-8.13-8.04Z"/>
        <path class="cls-3" d="m626.91,253.43h-13.2c.24,3.3,2.76,5.49,6.21,5.49,1.92,0,3.63-.69,4.83-2.07l1.2,1.38c-1.41,1.68-3.6,2.58-6.09,2.58-4.92,0-8.28-3.36-8.28-8.04s3.27-8.01,7.71-8.01,7.65,3.27,7.65,8.01c0,.18-.03.42-.03.66Zm-13.2-1.59h11.19c-.27-3.09-2.52-5.25-5.61-5.25s-5.31,2.16-5.58,5.25Z"/>
        <path class="cls-3" d="m645.82,251.51v9.15h-2.13v-8.94c0-3.33-1.74-5.04-4.74-5.04-3.39,0-5.52,2.1-5.52,5.7v8.28h-2.13v-15.78h2.04v2.91c1.14-1.92,3.27-3.03,6-3.03,3.84,0,6.48,2.22,6.48,6.75Z"/>
        <path class="cls-3" d="m659.91,259.7c-.84.75-2.1,1.11-3.33,1.11-2.97,0-4.62-1.68-4.62-4.59v-9.54h-2.82v-1.8h2.82v-3.45h2.13v3.45h4.8v1.8h-4.8v9.42c0,1.86.96,2.88,2.73,2.88.87,0,1.74-.27,2.34-.81l.75,1.53Z"/>
        <path class="cls-3" d="m678,244.88v15.78h-2.04v-2.88c-1.11,1.92-3.15,3.03-5.67,3.03-4.02,0-6.66-2.25-6.66-6.78v-9.15h2.13v8.94c0,3.36,1.74,5.07,4.74,5.07,3.3,0,5.37-2.13,5.37-5.73v-8.28h2.13Z"/>
        <path class="cls-3" d="m695.88,250.88v9.78h-2.04v-2.46c-.96,1.62-2.82,2.61-5.43,2.61-3.57,0-5.76-1.86-5.76-4.59,0-2.43,1.56-4.47,6.09-4.47h5.01v-.96c0-2.7-1.53-4.17-4.47-4.17-2.04,0-3.96.72-5.25,1.86l-.96-1.59c1.59-1.35,3.93-2.13,6.42-2.13,4.08,0,6.39,2.04,6.39,6.12Zm-2.13,5.04v-2.58h-4.95c-3.06,0-4.05,1.2-4.05,2.82,0,1.83,1.47,2.97,3.99,2.97s4.17-1.14,5.01-3.21Z"/>
        <path class="cls-3" d="m701.2,239.9c0-.81.69-1.5,1.56-1.5s1.56.66,1.56,1.47c0,.87-.66,1.56-1.56,1.56s-1.56-.69-1.56-1.53Zm.48,4.98h2.13v15.78h-2.13v-15.78Z"/>
        <path class="cls-3" d="m707.56,258.86l.96-1.68c1.26.99,3.39,1.77,5.61,1.77,3,0,4.23-1.02,4.23-2.58,0-4.11-10.23-.87-10.23-7.11,0-2.58,2.22-4.5,6.24-4.5,2.04,0,4.26.57,5.58,1.47l-.93,1.71c-1.38-.96-3.03-1.35-4.65-1.35-2.85,0-4.11,1.11-4.11,2.61,0,4.26,10.23,1.05,10.23,7.11,0,2.73-2.4,4.5-6.51,4.5-2.61,0-5.13-.84-6.42-1.95Z"/>
        <path class="cls-3" d="m726.25,259.16c0,.51-.12.9-.42,1.74l-1.26,4.14h-1.44l1.02-4.35c-.63-.18-1.08-.75-1.08-1.53,0-.93.69-1.62,1.59-1.62s1.59.72,1.59,1.62Z"/>
        <path class="cls-3" d="m752.37,253.43h-13.2c.24,3.3,2.76,5.49,6.21,5.49,1.92,0,3.63-.69,4.83-2.07l1.2,1.38c-1.41,1.68-3.6,2.58-6.09,2.58-4.92,0-8.28-3.36-8.28-8.04s3.27-8.01,7.71-8.01,7.65,3.27,7.65,8.01c0,.18-.03.42-.03.66Zm-13.2-1.59h11.19c-.27-3.09-2.52-5.25-5.61-5.25s-5.31,2.16-5.58,5.25Z"/>
        <path class="cls-3" d="m766.35,260.66l-5.01-6.6-5.04,6.6h-2.4l6.24-8.1-5.94-7.68h2.4l4.74,6.18,4.74-6.18h2.34l-5.94,7.68,6.3,8.1h-2.43Z"/>
        <path class="cls-3" d="m770.16,252.77c0-4.71,3.42-8.01,8.13-8.01,2.67,0,4.92,1.05,6.18,3.12l-1.59,1.08c-1.08-1.59-2.76-2.34-4.59-2.34-3.45,0-5.97,2.46-5.97,6.15s2.52,6.15,5.97,6.15c1.83,0,3.51-.72,4.59-2.31l1.59,1.08c-1.26,2.04-3.51,3.12-6.18,3.12-4.71,0-8.13-3.33-8.13-8.04Z"/>
        <path class="cls-3" d="m802.11,253.43h-13.2c.24,3.3,2.76,5.49,6.21,5.49,1.92,0,3.63-.69,4.83-2.07l1.2,1.38c-1.41,1.68-3.6,2.58-6.09,2.58-4.92,0-8.28-3.36-8.28-8.04s3.27-8.01,7.71-8.01,7.65,3.27,7.65,8.01c0,.18-.03.42-.03.66Zm-13.2-1.59h11.19c-.27-3.09-2.52-5.25-5.61-5.25s-5.31,2.16-5.58,5.25Z"/>
        <path class="cls-3" d="m814.8,259.7c-.84.75-2.1,1.11-3.33,1.11-2.97,0-4.62-1.68-4.62-4.59v-9.54h-2.82v-1.8h2.82v-3.45h2.13v3.45h4.8v1.8h-4.8v9.42c0,1.86.96,2.88,2.73,2.88.87,0,1.74-.27,2.34-.81l.75,1.53Z"/>
        <path class="cls-3" d="m816.51,252.77c0-4.68,3.42-8.01,8.04-8.01s8.01,3.33,8.01,8.01-3.39,8.04-8.01,8.04-8.04-3.36-8.04-8.04Zm13.89,0c0-3.69-2.49-6.15-5.85-6.15s-5.88,2.46-5.88,6.15,2.52,6.15,5.88,6.15,5.85-2.46,5.85-6.15Z"/>
        <path class="cls-3" d="m859.17,238.4v22.26h-2.04v-3.12c-1.29,2.13-3.48,3.27-6.09,3.27-4.5,0-7.86-3.27-7.86-8.04s3.36-8.01,7.86-8.01c2.52,0,4.68,1.08,6,3.12v-9.48h2.13Zm-2.1,14.37c0-3.69-2.52-6.15-5.85-6.15s-5.88,2.46-5.88,6.15,2.52,6.15,5.88,6.15,5.85-2.46,5.85-6.15Z"/>
        <path class="cls-3" d="m877.02,250.88v9.78h-2.04v-2.46c-.96,1.62-2.82,2.61-5.43,2.61-3.57,0-5.76-1.86-5.76-4.59,0-2.43,1.56-4.47,6.09-4.47h5.01v-.96c0-2.7-1.53-4.17-4.47-4.17-2.04,0-3.96.72-5.25,1.86l-.96-1.59c1.59-1.35,3.93-2.13,6.42-2.13,4.08,0,6.39,2.04,6.39,6.12Zm-2.13,5.04v-2.58h-4.95c-3.06,0-4.05,1.2-4.05,2.82,0,1.83,1.47,2.97,3.99,2.97s4.17-1.14,5.01-3.21Z"/>
        <path class="cls-3" d="m891.12,259.7c-.84.75-2.1,1.11-3.33,1.11-2.97,0-4.62-1.68-4.62-4.59v-9.54h-2.82v-1.8h2.82v-3.45h2.13v3.45h4.8v1.8h-4.8v9.42c0,1.86.96,2.88,2.73,2.88.87,0,1.74-.27,2.34-.81l.75,1.53Z"/>
        <path class="cls-3" d="m906.9,250.88v9.78h-2.04v-2.46c-.96,1.62-2.82,2.61-5.43,2.61-3.57,0-5.76-1.86-5.76-4.59,0-2.43,1.56-4.47,6.09-4.47h5.01v-.96c0-2.7-1.53-4.17-4.47-4.17-2.04,0-3.96.72-5.25,1.86l-.96-1.59c1.59-1.35,3.93-2.13,6.42-2.13,4.08,0,6.39,2.04,6.39,6.12Zm-2.13,5.04v-2.58h-4.95c-3.06,0-4.05,1.2-4.05,2.82,0,1.83,1.47,2.97,3.99,2.97s4.17-1.14,5.01-3.21Z"/>
        <path class="cls-3" d="m914.52,259.16c0,.51-.12.9-.42,1.74l-1.26,4.14h-1.44l1.02-4.35c-.63-.18-1.08-.75-1.08-1.53,0-.93.69-1.62,1.59-1.62s1.59.72,1.59,1.62Z"/>
        <path class="cls-3" d="m941.43,251.51v9.15h-2.13v-8.94c0-3.33-1.74-5.04-4.74-5.04-3.39,0-5.52,2.1-5.52,5.7v8.28h-2.13v-15.78h2.04v2.91c1.14-1.92,3.27-3.03,6-3.03,3.84,0,6.48,2.22,6.48,6.75Z"/>
        <path class="cls-3" d="m961.44,244.88v15.78h-2.04v-2.88c-1.11,1.92-3.15,3.03-5.67,3.03-4.02,0-6.66-2.25-6.66-6.78v-9.15h2.13v8.94c0,3.36,1.74,5.07,4.74,5.07,3.3,0,5.37-2.13,5.37-5.73v-8.28h2.13Zm-7.02-2.43h-2.1l4.11-3.72h2.85l-4.86,3.72Z"/>
        <path class="cls-3" d="m993.45,251.51v9.15h-2.13v-8.94c0-3.33-1.68-5.04-4.53-5.04-3.24,0-5.28,2.1-5.28,5.7v8.28h-2.13v-8.94c0-3.33-1.68-5.04-4.56-5.04-3.21,0-5.28,2.1-5.28,5.7v8.28h-2.13v-15.78h2.04v2.88c1.11-1.89,3.15-3,5.79-3s4.65,1.11,5.61,3.33c1.14-2.04,3.39-3.33,6.24-3.33,3.84,0,6.36,2.22,6.36,6.75Z"/>
        <path class="cls-3" d="m1013.04,253.43h-13.2c.24,3.3,2.76,5.49,6.21,5.49,1.92,0,3.63-.69,4.83-2.07l1.2,1.38c-1.41,1.68-3.6,2.58-6.09,2.58-4.92,0-8.28-3.36-8.28-8.04s3.27-8.01,7.71-8.01,7.65,3.27,7.65,8.01c0,.18-.03.42-.03.66Zm-13.2-1.59h11.19c-.27-3.09-2.52-5.25-5.61-5.25s-5.31,2.16-5.58,5.25Z"/>
        <path class="cls-3" d="m1025.37,244.76v2.07c-.18,0-.36-.03-.51-.03-3.3,0-5.31,2.1-5.31,5.82v8.04h-2.13v-15.78h2.04v3.09c.99-2.1,3-3.21,5.91-3.21Z"/>
        <path class="cls-3" d="m1027.47,252.77c0-4.68,3.42-8.01,8.04-8.01s8.01,3.33,8.01,8.01-3.39,8.04-8.01,8.04-8.04-3.36-8.04-8.04Zm13.89,0c0-3.69-2.49-6.15-5.85-6.15s-5.88,2.46-5.88,6.15,2.52,6.15,5.88,6.15,5.85-2.46,5.85-6.15Z"/>
        <path class="cls-3" d="m1070.13,238.4v22.26h-2.04v-3.12c-1.29,2.13-3.48,3.27-6.09,3.27-4.5,0-7.86-3.27-7.86-8.04s3.36-8.01,7.86-8.01c2.52,0,4.68,1.08,6,3.12v-9.48h2.13Zm-2.1,14.37c0-3.69-2.52-6.15-5.85-6.15s-5.88,2.46-5.88,6.15,2.52,6.15,5.88,6.15,5.85-2.46,5.85-6.15Z"/>
        <path class="cls-3" d="m1089.81,253.43h-13.2c.24,3.3,2.76,5.49,6.21,5.49,1.92,0,3.63-.69,4.83-2.07l1.2,1.38c-1.41,1.68-3.6,2.58-6.09,2.58-4.92,0-8.28-3.36-8.28-8.04s3.27-8.01,7.71-8.01,7.65,3.27,7.65,8.01c0,.18-.03.42-.03.66Zm-13.2-1.59h11.19c-.27-3.09-2.52-5.25-5.61-5.25s-5.31,2.16-5.58,5.25Z"/>
        <path class="cls-3" d="m1102.05,238.4h2.13v22.26h-2.13v-22.26Z"/>
        <path class="cls-3" d="m1123.86,253.43h-13.2c.24,3.3,2.76,5.49,6.21,5.49,1.92,0,3.63-.69,4.83-2.07l1.2,1.38c-1.41,1.68-3.6,2.58-6.09,2.58-4.92,0-8.28-3.36-8.28-8.04s3.27-8.01,7.71-8.01,7.65,3.27,7.65,8.01c0,.18-.03.42-.03.66Zm-13.2-1.59h11.19c-.27-3.09-2.52-5.25-5.61-5.25s-5.31,2.16-5.58,5.25Z"/>
        <path class="cls-3" d="m1127.76,239.9c0-.81.69-1.5,1.56-1.5s1.56.66,1.56,1.47c0,.87-.66,1.56-1.56,1.56s-1.56-.69-1.56-1.53Zm.48,4.98h2.13v15.78h-2.13v-15.78Z"/>
        <path class="cls-3" d="m1142.58,252.77c0-4.68,3.42-8.01,8.04-8.01s8.01,3.33,8.01,8.01-3.39,8.04-8.01,8.04-8.04-3.36-8.04-8.04Zm13.89,0c0-3.69-2.49-6.15-5.85-6.15s-5.88,2.46-5.88,6.15,2.52,6.15,5.88,6.15,5.85-2.46,5.85-6.15Z"/>
        <path class="cls-3" d="m1177.2,244.88v15.78h-2.04v-2.88c-1.11,1.92-3.15,3.03-5.67,3.03-4.02,0-6.66-2.25-6.66-6.78v-9.15h2.13v8.94c0,3.36,1.74,5.07,4.74,5.07,3.3,0,5.37-2.13,5.37-5.73v-8.28h2.13Z"/>
        <path class="cls-3" d="m1189.44,252.77c0-4.71,3.42-8.01,8.13-8.01,2.67,0,4.92,1.05,6.18,3.12l-1.59,1.08c-1.08-1.59-2.76-2.34-4.59-2.34-3.45,0-5.97,2.46-5.97,6.15s2.52,6.15,5.97,6.15c1.83,0,3.51-.72,4.59-2.31l1.59,1.08c-1.26,2.04-3.51,3.12-6.18,3.12-4.71,0-8.13-3.33-8.13-8.04Z"/>
        <path class="cls-3" d="m1219.83,250.88v9.78h-2.04v-2.46c-.96,1.62-2.82,2.61-5.43,2.61-3.57,0-5.76-1.86-5.76-4.59,0-2.43,1.56-4.47,6.09-4.47h5.01v-.96c0-2.7-1.53-4.17-4.47-4.17-2.04,0-3.96.72-5.25,1.86l-.96-1.59c1.59-1.35,3.93-2.13,6.42-2.13,4.08,0,6.39,2.04,6.39,6.12Zm-2.13,5.04v-2.58h-4.95c-3.06,0-4.05,1.2-4.05,2.82,0,1.83,1.47,2.97,3.99,2.97s4.17-1.14,5.01-3.21Z"/>
        <path class="cls-3" d="m1223.43,258.86l.96-1.68c1.26.99,3.39,1.77,5.61,1.77,3,0,4.23-1.02,4.23-2.58,0-4.11-10.23-.87-10.23-7.11,0-2.58,2.22-4.5,6.24-4.5,2.04,0,4.26.57,5.58,1.47l-.93,1.71c-1.38-.96-3.03-1.35-4.65-1.35-2.85,0-4.11,1.11-4.11,2.61,0,4.26,10.23,1.05,10.23,7.11,0,2.73-2.4,4.5-6.51,4.5-2.61,0-5.13-.84-6.42-1.95Z"/>
        <path class="cls-3" d="m1238.7,252.77c0-4.68,3.42-8.01,8.04-8.01s8.01,3.33,8.01,8.01-3.39,8.04-8.01,8.04-8.04-3.36-8.04-8.04Zm13.89,0c0-3.69-2.49-6.15-5.85-6.15s-5.88,2.46-5.88,6.15,2.52,6.15,5.88,6.15,5.85-2.46,5.85-6.15Z"/>
        <path class="cls-3" d="m1256.91,258.86l.96-1.68c1.26.99,3.39,1.77,5.61,1.77,3,0,4.23-1.02,4.23-2.58,0-4.11-10.23-.87-10.23-7.11,0-2.58,2.22-4.5,6.24-4.5,2.04,0,4.26.57,5.58,1.47l-.93,1.71c-1.38-.96-3.03-1.35-4.65-1.35-2.85,0-4.11,1.11-4.11,2.61,0,4.26,10.23,1.05,10.23,7.11,0,2.73-2.4,4.5-6.51,4.5-2.61,0-5.13-.84-6.42-1.95Z"/>
        <path class="cls-3" d="m83.41,292.43h-13.2c.24,3.3,2.76,5.49,6.21,5.49,1.92,0,3.63-.69,4.83-2.07l1.2,1.38c-1.41,1.68-3.6,2.58-6.09,2.58-4.92,0-8.28-3.36-8.28-8.04s3.27-8.01,7.71-8.01,7.65,3.27,7.65,8.01c0,.18-.03.42-.03.66Zm-13.2-1.59h11.19c-.27-3.09-2.52-5.25-5.61-5.25s-5.31,2.16-5.58,5.25Z"/>
        <path class="cls-3" d="m113.83,290.51v9.15h-2.13v-8.94c0-3.33-1.68-5.04-4.53-5.04-3.24,0-5.28,2.1-5.28,5.7v8.28h-2.13v-8.94c0-3.33-1.68-5.04-4.56-5.04-3.21,0-5.28,2.1-5.28,5.7v8.28h-2.13v-15.78h2.04v2.88c1.11-1.89,3.15-3,5.79-3s4.65,1.11,5.61,3.33c1.14-2.04,3.39-3.33,6.24-3.33,3.84,0,6.36,2.22,6.36,6.75Z"/>
        <path class="cls-3" d="m141.88,283.88v21.6h-2.13v-8.79c-1.32,2.04-3.48,3.12-6,3.12-4.5,0-7.86-3.24-7.86-8.04s3.36-8.01,7.86-8.01c2.61,0,4.8,1.14,6.09,3.24v-3.12h2.04Zm-2.1,7.89c0-3.66-2.52-6.15-5.85-6.15s-5.88,2.49-5.88,6.15,2.52,6.15,5.88,6.15,5.85-2.46,5.85-6.15Z"/>
        <path class="cls-3" d="m162.04,283.88v15.78h-2.04v-2.88c-1.11,1.92-3.15,3.03-5.67,3.03-4.02,0-6.66-2.25-6.66-6.78v-9.15h2.13v8.94c0,3.36,1.74,5.07,4.74,5.07,3.3,0,5.37-2.13,5.37-5.73v-8.28h2.13Z"/>
        <path class="cls-3" d="m181.75,292.43h-13.2c.24,3.3,2.76,5.49,6.21,5.49,1.92,0,3.63-.69,4.83-2.07l1.2,1.38c-1.41,1.68-3.6,2.58-6.09,2.58-4.92,0-8.28-3.36-8.28-8.04s3.27-8.01,7.71-8.01,7.65,3.27,7.65,8.01c0,.18-.03.42-.03.66Zm-13.2-1.59h11.19c-.27-3.09-2.52-5.25-5.61-5.25s-5.31,2.16-5.58,5.25Z"/>
        <path class="cls-3" d="m208.51,290.51v9.15h-2.13v-8.94c0-3.33-1.74-5.04-4.74-5.04-3.39,0-5.52,2.1-5.52,5.7v8.28h-2.13v-22.26h2.13v9.24c1.17-1.83,3.24-2.88,5.91-2.88,3.84,0,6.48,2.22,6.48,6.75Z"/>
        <path class="cls-3" d="m226.21,289.88v9.78h-2.04v-2.46c-.96,1.62-2.82,2.61-5.43,2.61-3.57,0-5.76-1.86-5.76-4.59,0-2.43,1.56-4.47,6.09-4.47h5.01v-.96c0-2.7-1.53-4.17-4.47-4.17-2.04,0-3.96.72-5.25,1.86l-.96-1.59c1.59-1.35,3.93-2.13,6.42-2.13,4.08,0,6.39,2.04,6.39,6.12Zm-2.13,5.04v-2.58h-4.95c-3.06,0-4.05,1.2-4.05,2.82,0,1.83,1.47,2.97,3.99,2.97s4.17-1.14,5.01-3.21Z"/>
        <path class="cls-3" d="m226.33,304.61l.75-1.62c.63.54,1.47.81,2.46.81,1.68,0,2.61-1.02,2.61-2.97v-16.95h2.13v16.95c0,2.91-1.62,4.8-4.62,4.8-1.26,0-2.55-.33-3.33-1.02Zm5.34-25.71c0-.81.69-1.5,1.56-1.5s1.56.66,1.56,1.47c0,.87-.66,1.56-1.56,1.56s-1.56-.69-1.56-1.53Z"/>
        <path class="cls-3" d="m252.13,289.88v9.78h-2.04v-2.46c-.96,1.62-2.82,2.61-5.43,2.61-3.57,0-5.76-1.86-5.76-4.59,0-2.43,1.56-4.47,6.09-4.47h5.01v-.96c0-2.7-1.53-4.17-4.47-4.17-2.04,0-3.96.72-5.25,1.86l-.96-1.59c1.59-1.35,3.93-2.13,6.42-2.13,4.08,0,6.39,2.04,6.39,6.12Zm-2.13,5.04v-2.58h-4.95c-3.06,0-4.05,1.2-4.05,2.82,0,1.83,1.47,2.97,3.99,2.97s4.17-1.14,5.01-3.21Z"/>
        <path class="cls-3" d="m281.77,291.77c0,4.8-3.36,8.04-7.86,8.04-2.52,0-4.68-1.08-6-3.12v8.79h-2.13v-21.6h2.04v3.12c1.29-2.1,3.48-3.24,6.09-3.24,4.5,0,7.86,3.24,7.86,8.01Zm-2.13,0c0-3.66-2.55-6.15-5.88-6.15s-5.88,2.49-5.88,6.15,2.52,6.15,5.88,6.15,5.88-2.46,5.88-6.15Z"/>
        <path class="cls-3" d="m294.07,283.76v2.07c-.18,0-.36-.03-.51-.03-3.3,0-5.31,2.1-5.31,5.82v8.04h-2.13v-15.78h2.04v3.09c.99-2.1,3-3.21,5.91-3.21Z"/>
        <path class="cls-3" d="m311.5,292.43h-13.2c.24,3.3,2.76,5.49,6.21,5.49,1.92,0,3.63-.69,4.83-2.07l1.2,1.38c-1.41,1.68-3.6,2.58-6.09,2.58-4.92,0-8.28-3.36-8.28-8.04s3.27-8.01,7.71-8.01,7.65,3.27,7.65,8.01c0,.18-.03.42-.03.66Zm-13.2-1.59h11.19c-.27-3.09-2.52-5.25-5.61-5.25s-5.31,2.16-5.58,5.25Z"/>
        <path class="cls-3" d="m310.21,304.61l.75-1.62c.63.54,1.47.81,2.46.81,1.68,0,2.61-1.02,2.61-2.97v-16.95h2.13v16.95c0,2.91-1.62,4.8-4.62,4.8-1.26,0-2.55-.33-3.33-1.02Zm5.34-25.71c0-.81.69-1.5,1.56-1.5s1.56.66,1.56,1.47c0,.87-.66,1.56-1.56,1.56s-1.56-.69-1.56-1.53Z"/>
        <path class="cls-3" d="m338.32,283.88v15.78h-2.04v-2.88c-1.11,1.92-3.15,3.03-5.67,3.03-4.02,0-6.66-2.25-6.66-6.78v-9.15h2.13v8.94c0,3.36,1.74,5.07,4.74,5.07,3.3,0,5.37-2.13,5.37-5.73v-8.28h2.13Z"/>
        <path class="cls-3" d="m347.53,277.73h2.85l-4.86,3.72h-2.1l4.11-3.72Zm-3.24,6.15h2.13v15.78h-2.13v-15.78Z"/>
        <path class="cls-3" d="m363.49,297.89v1.77h-12.84v-1.41l9.93-12.57h-9.75v-1.8h12.48v1.41l-9.93,12.6h10.11Z"/>
        <path class="cls-3" d="m365.83,291.77c0-4.68,3.42-8.01,8.04-8.01s8.01,3.33,8.01,8.01-3.39,8.04-8.01,8.04-8.04-3.36-8.04-8.04Zm13.89,0c0-3.69-2.49-6.15-5.85-6.15s-5.88,2.46-5.88,6.15,2.52,6.15,5.88,6.15,5.85-2.46,5.85-6.15Z"/>
        <path class="cls-3" d="m406,289.88v9.78h-2.04v-2.46c-.96,1.62-2.82,2.61-5.43,2.61-3.57,0-5.76-1.86-5.76-4.59,0-2.43,1.56-4.47,6.09-4.47h5.01v-.96c0-2.7-1.53-4.17-4.47-4.17-2.04,0-3.96.72-5.25,1.86l-.96-1.59c1.59-1.35,3.93-2.13,6.42-2.13,4.08,0,6.39,2.04,6.39,6.12Zm-6.48-8.43l-4.86-3.72h2.85l4.11,3.72h-2.1Zm4.35,13.47v-2.58h-4.95c-3.06,0-4.05,1.2-4.05,2.82,0,1.83,1.47,2.97,3.99,2.97s4.17-1.14,5.01-3.21Z"/>
        <path class="cls-3" d="m418.06,291.77c0-4.71,3.42-8.01,8.13-8.01,2.67,0,4.92,1.05,6.18,3.12l-1.59,1.08c-1.08-1.59-2.76-2.34-4.59-2.34-3.45,0-5.97,2.46-5.97,6.15s2.52,6.15,5.97,6.15c1.83,0,3.51-.72,4.59-2.31l1.59,1.08c-1.26,2.04-3.51,3.12-6.18,3.12-4.71,0-8.13-3.33-8.13-8.04Z"/>
        <path class="cls-3" d="m434.68,291.77c0-4.68,3.42-8.01,8.04-8.01s8.01,3.33,8.01,8.01-3.39,8.04-8.01,8.04-8.04-3.36-8.04-8.04Zm13.89,0c0-3.69-2.49-6.15-5.85-6.15s-5.88,2.46-5.88,6.15,2.52,6.15,5.88,6.15,5.85-2.46,5.85-6.15Z"/>
        <path class="cls-3" d="m481.11,290.51v9.15h-2.13v-8.94c0-3.33-1.68-5.04-4.53-5.04-3.24,0-5.28,2.1-5.28,5.7v8.28h-2.13v-8.94c0-3.33-1.68-5.04-4.56-5.04-3.21,0-5.28,2.1-5.28,5.7v8.28h-2.13v-15.78h2.04v2.88c1.11-1.89,3.15-3,5.79-3s4.65,1.11,5.61,3.33c1.14-2.04,3.39-3.33,6.24-3.33,3.84,0,6.36,2.22,6.36,6.75Z"/>
        <path class="cls-3" d="m502.89,291.77c0,4.8-3.36,8.04-7.86,8.04-2.52,0-4.68-1.08-6-3.12v8.79h-2.13v-21.6h2.04v3.12c1.29-2.1,3.48-3.24,6.09-3.24,4.5,0,7.86,3.24,7.86,8.01Zm-2.13,0c0-3.66-2.55-6.15-5.88-6.15s-5.88,2.49-5.88,6.15,2.52,6.15,5.88,6.15,5.88-2.46,5.88-6.15Z"/>
        <path class="cls-3" d="m515.2,283.76v2.07c-.18,0-.36-.03-.51-.03-3.3,0-5.31,2.1-5.31,5.82v8.04h-2.13v-15.78h2.04v3.09c.99-2.1,3-3.21,5.91-3.21Z"/>
        <path class="cls-3" d="m532.62,292.43h-13.2c.24,3.3,2.76,5.49,6.21,5.49,1.92,0,3.63-.69,4.83-2.07l1.2,1.38c-1.41,1.68-3.6,2.58-6.09,2.58-4.92,0-8.28-3.36-8.28-8.04s3.27-8.01,7.71-8.01,7.65,3.27,7.65,8.01c0,.18-.03.42-.03.66Zm-13.2-1.59h11.19c-.27-3.09-2.52-5.25-5.61-5.25s-5.31,2.16-5.58,5.25Z"/>
        <path class="cls-3" d="m550.74,292.43h-13.2c.24,3.3,2.76,5.49,6.21,5.49,1.92,0,3.63-.69,4.83-2.07l1.2,1.38c-1.41,1.68-3.6,2.58-6.09,2.58-4.92,0-8.28-3.36-8.28-8.04s3.27-8.01,7.71-8.01,7.65,3.27,7.65,8.01c0,.18-.03.42-.03.66Zm-13.2-1.59h11.19c-.27-3.09-2.52-5.25-5.61-5.25s-5.31,2.16-5.58,5.25Z"/>
        <path class="cls-3" d="m569.64,290.51v9.15h-2.13v-8.94c0-3.33-1.74-5.04-4.74-5.04-3.39,0-5.52,2.1-5.52,5.7v8.28h-2.13v-15.78h2.04v2.91c1.14-1.92,3.27-3.03,6-3.03,3.84,0,6.48,2.22,6.48,6.75Z"/>
        <path class="cls-3" d="m573.25,297.86l.96-1.68c1.26.99,3.39,1.77,5.61,1.77,3,0,4.23-1.02,4.23-2.58,0-4.11-10.23-.87-10.23-7.11,0-2.58,2.22-4.5,6.24-4.5,2.04,0,4.26.57,5.58,1.47l-.93,1.71c-1.38-.96-3.03-1.35-4.65-1.35-2.85,0-4.11,1.11-4.11,2.61,0,4.26,10.23,1.05,10.23,7.11,0,2.73-2.4,4.5-6.51,4.5-2.61,0-5.13-.84-6.42-1.95Z"/>
        <path class="cls-3" d="m602.01,289.88v9.78h-2.04v-2.46c-.96,1.62-2.82,2.61-5.43,2.61-3.57,0-5.76-1.86-5.76-4.59,0-2.43,1.56-4.47,6.09-4.47h5.01v-.96c0-2.7-1.53-4.17-4.47-4.17-2.04,0-3.96.72-5.25,1.86l-.96-1.59c1.59-1.35,3.93-2.13,6.42-2.13,4.08,0,6.39,2.04,6.39,6.12Zm-2.13,5.04v-2.58h-4.95c-3.06,0-4.05,1.2-4.05,2.82,0,1.83,1.47,2.97,3.99,2.97s4.17-1.14,5.01-3.21Zm-7.65-13.77h-1.29c.06-2.01,1.11-3.3,2.7-3.3,1.86,0,2.76,2.04,3.93,2.04.9,0,1.5-.72,1.56-1.86h1.29c-.06,1.95-1.11,3.24-2.7,3.24-1.86,0-2.73-2.04-3.93-2.04-.9,0-1.5.72-1.56,1.92Z"/>
        <path class="cls-3" d="m606.27,291.77c0-4.68,3.42-8.01,8.04-8.01s8.01,3.33,8.01,8.01-3.39,8.04-8.01,8.04-8.04-3.36-8.04-8.04Zm13.89,0c0-3.69-2.49-6.15-5.85-6.15s-5.88,2.46-5.88,6.15,2.52,6.15,5.88,6.15,5.85-2.46,5.85-6.15Z"/>
        <path class="cls-3" d="m648.93,277.4v22.26h-2.04v-3.12c-1.29,2.13-3.48,3.27-6.09,3.27-4.5,0-7.86-3.27-7.86-8.04s3.36-8.01,7.86-8.01c2.52,0,4.68,1.08,6,3.12v-9.48h2.13Zm-2.1,14.37c0-3.69-2.52-6.15-5.85-6.15s-5.88,2.46-5.88,6.15,2.52,6.15,5.88,6.15,5.85-2.46,5.85-6.15Z"/>
        <path class="cls-3" d="m653.28,291.77c0-4.68,3.42-8.01,8.04-8.01s8.01,3.33,8.01,8.01-3.39,8.04-8.01,8.04-8.04-3.36-8.04-8.04Zm13.89,0c0-3.69-2.49-6.15-5.85-6.15s-5.88,2.46-5.88,6.15,2.52,6.15,5.88,6.15,5.85-2.46,5.85-6.15Z"/>
        <path class="cls-3" d="m689.85,298.7c-.84.75-2.1,1.11-3.33,1.11-2.97,0-4.62-1.68-4.62-4.59v-9.54h-2.82v-1.8h2.82v-3.45h2.13v3.45h4.8v1.8h-4.8v9.42c0,1.86.96,2.88,2.73,2.88.87,0,1.74-.27,2.34-.81l.75,1.53Z"/>
        <path class="cls-3" d="m706.89,292.43h-13.2c.24,3.3,2.76,5.49,6.21,5.49,1.92,0,3.63-.69,4.83-2.07l1.2,1.38c-1.41,1.68-3.6,2.58-6.09,2.58-4.92,0-8.28-3.36-8.28-8.04s3.27-8.01,7.71-8.01,7.65,3.27,7.65,8.01c0,.18-.03.42-.03.66Zm-13.2-1.59h11.19c-.27-3.09-2.52-5.25-5.61-5.25s-5.31,2.16-5.58,5.25Z"/>
        <path class="cls-3" d="m720.87,299.66l-5.01-6.6-5.04,6.6h-2.4l6.24-8.1-5.94-7.68h2.4l4.74,6.18,4.74-6.18h2.34l-5.94,7.68,6.3,8.1h-2.43Z"/>
        <path class="cls-3" d="m735.15,298.7c-.84.75-2.1,1.11-3.33,1.11-2.97,0-4.62-1.68-4.62-4.59v-9.54h-2.82v-1.8h2.82v-3.45h2.13v3.45h4.8v1.8h-4.8v9.42c0,1.86.96,2.88,2.73,2.88.87,0,1.74-.27,2.34-.81l.75,1.53Z"/>
        <path class="cls-3" d="m736.86,291.77c0-4.68,3.42-8.01,8.04-8.01s8.01,3.33,8.01,8.01-3.39,8.04-8.01,8.04-8.04-3.36-8.04-8.04Zm13.89,0c0-3.69-2.49-6.15-5.85-6.15s-5.88,2.46-5.88,6.15,2.52,6.15,5.88,6.15,5.85-2.46,5.85-6.15Z"/>
        <path class="cls-3" d="m755.43,298.16c0-.93.72-1.62,1.59-1.62s1.62.69,1.62,1.62-.75,1.65-1.62,1.65-1.59-.72-1.59-1.65Z"/>
      </g>
    </g>
  </g>
</svg>