<?xml version="1.0" encoding="UTF-8"?>
<svg id="Layer_1" data-name="Layer 1" xmlns="http://www.w3.org/2000/svg" viewBox="0 0 1288 502.67">
  <defs>
    <style>
      .cls-1 {
        fill: #fff;
      }

      .cls-2 {
        fill: #004f38;
      }

      .cls-3 {
        fill: #008461;
      }

      .cls-4 {
        fill: #f9f9f9;
      }
    </style>
  </defs>
  <rect class="cls-4" x="62.08" y="102.56" width="1154.06" height="324.1"/>
  <g>
    <g>
      <path class="cls-3" d="m1148.69,63.31c2.57.66,4.12,3.28,3.47,5.85l-21.95,86.3-26.99-6.86,21.94-86.3c.66-2.57,3.28-4.13,5.85-3.47l17.69,4.49Zm-7.05,3.42c.14-.55-.19-1.11-.75-1.25l-3.81-.97c-.54-.14-1.11.19-1.25.75l-20.62,81.11,5.81,1.48,20.62-81.12Z"/>
      <path class="cls-1" d="m1140.9,65.47c.55.14.89.7.75,1.25l-20.62,81.12-5.81-1.48,20.62-81.11c.14-.55.71-.89,1.25-.75l3.81.97Z"/>
      <polygon class="cls-3" points="1129.52 158.21 1119.58 169 1114.93 174.05 1107.84 172.58 1106.08 165.56 1102.51 151.34 1116.02 154.78 1129.52 158.21"/>
      <polygon class="cls-2" points="1114.22 175.62 1109.36 180.89 1107.7 174.26 1114.22 175.62"/>
    </g>
    <g>
      <polygon class="cls-2" points="1177.56 167.33 1177.56 164.62 1129.57 164.62 1127.05 167.33 1177.56 167.33"/>
      <polygon class="cls-2" points="1177.56 173.5 1177.56 170.8 1123.83 170.8 1121.31 173.5 1177.56 173.5"/>
      <polygon class="cls-2" points="1177.56 179.68 1177.56 176.97 1118.09 176.97 1115.57 179.68 1177.56 179.68"/>
    </g>
  </g>
  <g>
    <path d="m140.23,219.68h-6.4v-1.66h14.72v1.66h-6.4v16.54h-1.92v-16.54Z"/>
    <path d="m148.42,229.38c0-4.06,2.96-6.94,6.97-6.94s6.94,2.89,6.94,6.94-2.94,6.97-6.94,6.97-6.97-2.91-6.97-6.97Zm12.04,0c0-3.2-2.16-5.33-5.07-5.33s-5.1,2.13-5.1,5.33,2.18,5.33,5.1,5.33,5.07-2.13,5.07-5.33Z"/>
    <path d="m178.58,216.92v19.29h-1.77v-2.7c-1.12,1.85-3.02,2.83-5.28,2.83-3.9,0-6.81-2.83-6.81-6.97s2.91-6.94,6.81-6.94c2.18,0,4.06.94,5.2,2.7v-8.22h1.85Zm-1.82,12.46c0-3.2-2.18-5.33-5.07-5.33s-5.1,2.13-5.1,5.33,2.18,5.33,5.1,5.33,5.07-2.13,5.07-5.33Z"/>
    <path d="m182.35,229.38c0-4.06,2.96-6.94,6.97-6.94s6.94,2.89,6.94,6.94-2.94,6.97-6.94,6.97-6.97-2.91-6.97-6.97Zm12.04,0c0-3.2-2.16-5.33-5.07-5.33s-5.1,2.13-5.1,5.33,2.18,5.33,5.1,5.33,5.07-2.13,5.07-5.33Z"/>
    <path d="m220.7,229.38c0,4.16-2.91,6.97-6.81,6.97-2.18,0-4.06-.94-5.2-2.7v7.62h-1.85v-18.72h1.77v2.7c1.12-1.82,3.02-2.81,5.28-2.81,3.9,0,6.81,2.81,6.81,6.94Zm-1.85,0c0-3.17-2.21-5.33-5.1-5.33s-5.1,2.16-5.1,5.33,2.18,5.33,5.1,5.33,5.1-2.13,5.1-5.33Z"/>
    <path d="m223.09,229.38c0-4.06,2.96-6.94,6.97-6.94s6.94,2.89,6.94,6.94-2.94,6.97-6.94,6.97-6.97-2.91-6.97-6.97Zm12.04,0c0-3.2-2.16-5.33-5.07-5.33s-5.1,2.13-5.1,5.33,2.18,5.33,5.1,5.33,5.07-2.13,5.07-5.33Z"/>
    <path d="m253.25,216.92v19.29h-1.77v-2.7c-1.12,1.85-3.02,2.83-5.28,2.83-3.9,0-6.81-2.83-6.81-6.97s2.91-6.94,6.81-6.94c2.18,0,4.06.94,5.2,2.7v-8.22h1.85Zm-1.82,12.46c0-3.2-2.18-5.33-5.07-5.33s-5.1,2.13-5.1,5.33,2.18,5.33,5.1,5.33,5.07-2.13,5.07-5.33Z"/>
    <path d="m270.31,229.95h-11.44c.21,2.86,2.39,4.76,5.38,4.76,1.66,0,3.15-.6,4.19-1.79l1.04,1.2c-1.22,1.46-3.12,2.24-5.28,2.24-4.26,0-7.18-2.91-7.18-6.97s2.83-6.94,6.68-6.94,6.63,2.83,6.63,6.94c0,.16-.03.36-.03.57Zm-11.44-1.38h9.7c-.23-2.68-2.18-4.55-4.86-4.55s-4.6,1.87-4.84,4.55Z"/>
    <path d="m280.99,222.44v1.79c-.16,0-.31-.03-.44-.03-2.86,0-4.6,1.82-4.6,5.04v6.97h-1.85v-13.68h1.77v2.68c.86-1.82,2.6-2.78,5.12-2.78Z"/>
    <path d="m298.23,222.44v1.79c-.16,0-.31-.03-.44-.03-2.86,0-4.6,1.82-4.6,5.04v6.97h-1.85v-13.68h1.77v2.68c.86-1.82,2.6-2.78,5.12-2.78Z"/>
    <path d="m313.33,229.95h-11.44c.21,2.86,2.39,4.76,5.38,4.76,1.66,0,3.15-.6,4.19-1.79l1.04,1.2c-1.22,1.46-3.12,2.24-5.28,2.24-4.26,0-7.18-2.91-7.18-6.97s2.83-6.94,6.68-6.94,6.63,2.83,6.63,6.94c0,.16-.03.36-.03.57Zm-11.44-1.38h9.7c-.23-2.68-2.18-4.55-4.86-4.55s-4.6,1.87-4.84,4.55Z"/>
    <path d="m315.23,234.66l.83-1.46c1.09.86,2.94,1.53,4.86,1.53,2.6,0,3.67-.88,3.67-2.24,0-3.56-8.87-.75-8.87-6.16,0-2.24,1.92-3.9,5.41-3.9,1.77,0,3.69.49,4.84,1.27l-.81,1.48c-1.2-.83-2.63-1.17-4.03-1.17-2.47,0-3.56.96-3.56,2.26,0,3.69,8.87.91,8.87,6.16,0,2.37-2.08,3.9-5.64,3.9-2.26,0-4.45-.73-5.56-1.69Z"/>
    <path d="m342.17,222.54v13.68h-1.77v-2.5c-.96,1.66-2.73,2.63-4.91,2.63-3.48,0-5.77-1.95-5.77-5.88v-7.93h1.85v7.75c0,2.91,1.51,4.39,4.11,4.39,2.86,0,4.65-1.85,4.65-4.97v-7.18h1.85Z"/>
    <path d="m347.34,216.92h1.85v19.29h-1.85v-19.29Z"/>
    <path d="m361.59,235.38c-.73.65-1.82.96-2.89.96-2.57,0-4-1.46-4-3.98v-8.27h-2.44v-1.56h2.44v-2.99h1.85v2.99h4.16v1.56h-4.16v8.16c0,1.61.83,2.5,2.37,2.5.75,0,1.51-.23,2.03-.7l.65,1.33Z"/>
    <path d="m375.27,227.74v8.48h-1.77v-2.13c-.83,1.4-2.44,2.26-4.71,2.26-3.09,0-4.99-1.61-4.99-3.98,0-2.11,1.35-3.87,5.28-3.87h4.34v-.83c0-2.34-1.33-3.61-3.87-3.61-1.77,0-3.43.62-4.55,1.61l-.83-1.38c1.38-1.17,3.41-1.85,5.56-1.85,3.54,0,5.54,1.77,5.54,5.3Zm-1.85,4.37v-2.24h-4.29c-2.65,0-3.51,1.04-3.51,2.44,0,1.59,1.27,2.57,3.46,2.57s3.61-.99,4.34-2.78Z"/>
    <path d="m382.18,240.51l.65-1.4c.55.47,1.27.7,2.13.7,1.46,0,2.26-.88,2.26-2.57v-14.69h1.85v14.69c0,2.52-1.4,4.16-4,4.16-1.09,0-2.21-.29-2.89-.88Zm4.63-22.28c0-.7.6-1.3,1.35-1.3s1.35.57,1.35,1.27c0,.75-.57,1.35-1.35,1.35s-1.35-.6-1.35-1.33Z"/>
    <path d="m406.54,222.54v13.68h-1.77v-2.5c-.96,1.66-2.73,2.63-4.91,2.63-3.48,0-5.77-1.95-5.77-5.88v-7.93h1.85v7.75c0,2.91,1.51,4.39,4.11,4.39,2.86,0,4.65-1.85,4.65-4.97v-7.18h1.85Z"/>
    <path d="m418.61,222.44v1.79c-.16,0-.31-.03-.44-.03-2.86,0-4.6,1.82-4.6,5.04v6.97h-1.85v-13.68h1.77v2.68c.86-1.82,2.6-2.78,5.12-2.78Z"/>
    <path d="m421.52,218.22c0-.7.6-1.3,1.35-1.3s1.35.57,1.35,1.27c0,.75-.57,1.35-1.35,1.35s-1.35-.6-1.35-1.33Zm.42,4.32h1.85v13.68h-1.85v-13.68Z"/>
    <path d="m441.41,216.92v19.29h-1.77v-2.7c-1.12,1.85-3.02,2.83-5.28,2.83-3.9,0-6.81-2.83-6.81-6.97s2.91-6.94,6.81-6.94c2.18,0,4.06.94,5.2,2.7v-8.22h1.85Zm-1.82,12.46c0-3.2-2.18-5.33-5.07-5.33s-5.1,2.13-5.1,5.33,2.18,5.33,5.1,5.33,5.07-2.13,5.07-5.33Z"/>
    <path d="m446.14,218.22c0-.7.6-1.3,1.35-1.3s1.35.57,1.35,1.27c0,.75-.57,1.35-1.35,1.35s-1.35-.6-1.35-1.33Zm.42,4.32h1.85v13.68h-1.85v-13.68Z"/>
    <path d="m452.17,229.38c0-4.08,2.96-6.94,7.05-6.94,2.31,0,4.26.91,5.36,2.7l-1.38.94c-.94-1.38-2.39-2.03-3.98-2.03-2.99,0-5.17,2.13-5.17,5.33s2.18,5.33,5.17,5.33c1.59,0,3.04-.62,3.98-2l1.38.94c-1.09,1.77-3.04,2.7-5.36,2.7-4.08,0-7.05-2.89-7.05-6.97Z"/>
    <path d="m478.51,227.74v8.48h-1.77v-2.13c-.83,1.4-2.44,2.26-4.71,2.26-3.09,0-4.99-1.61-4.99-3.98,0-2.11,1.35-3.87,5.28-3.87h4.34v-.83c0-2.34-1.33-3.61-3.87-3.61-1.77,0-3.43.62-4.55,1.61l-.83-1.38c1.38-1.17,3.41-1.85,5.56-1.85,3.54,0,5.54,1.77,5.54,5.3Zm-1.85,4.37v-2.24h-4.29c-2.65,0-3.51,1.04-3.51,2.44,0,1.59,1.27,2.57,3.46,2.57s3.61-.99,4.34-2.78Z"/>
    <path d="m506.1,228.29v7.93h-1.85v-7.75c0-2.89-1.46-4.37-3.93-4.37-2.81,0-4.58,1.82-4.58,4.94v7.18h-1.85v-7.75c0-2.89-1.46-4.37-3.95-4.37-2.78,0-4.58,1.82-4.58,4.94v7.18h-1.85v-13.68h1.77v2.5c.96-1.64,2.73-2.6,5.02-2.6s4.03.96,4.86,2.89c.99-1.77,2.94-2.89,5.41-2.89,3.33,0,5.51,1.92,5.51,5.85Z"/>
    <path d="m523.07,229.95h-11.44c.21,2.86,2.39,4.76,5.38,4.76,1.66,0,3.15-.6,4.19-1.79l1.04,1.2c-1.22,1.46-3.12,2.24-5.28,2.24-4.26,0-7.18-2.91-7.18-6.97s2.83-6.94,6.68-6.94,6.63,2.83,6.63,6.94c0,.16-.03.36-.03.57Zm-11.44-1.38h9.7c-.23-2.68-2.18-4.55-4.86-4.55s-4.6,1.87-4.84,4.55Z"/>
    <path d="m539.45,228.29v7.93h-1.85v-7.75c0-2.89-1.51-4.37-4.11-4.37-2.94,0-4.78,1.82-4.78,4.94v7.18h-1.85v-13.68h1.77v2.52c.99-1.66,2.83-2.63,5.2-2.63,3.33,0,5.62,1.92,5.62,5.85Z"/>
    <path d="m551.67,235.38c-.73.65-1.82.96-2.89.96-2.57,0-4-1.46-4-3.98v-8.27h-2.44v-1.56h2.44v-2.99h1.85v2.99h4.16v1.56h-4.16v8.16c0,1.61.83,2.5,2.37,2.5.75,0,1.51-.23,2.03-.7l.65,1.33Z"/>
    <path d="m566.44,229.95h-11.44c.21,2.86,2.39,4.76,5.38,4.76,1.66,0,3.15-.6,4.19-1.79l1.04,1.2c-1.22,1.46-3.12,2.24-5.28,2.24-4.26,0-7.18-2.91-7.18-6.97s2.83-6.94,6.68-6.94,6.63,2.83,6.63,6.94c0,.16-.03.36-.03.57Zm-11.44-1.38h9.7c-.23-2.68-2.18-4.55-4.86-4.55s-4.6,1.87-4.84,4.55Z"/>
    <path d="m589.53,216.92v19.29h-1.77v-2.7c-1.12,1.85-3.02,2.83-5.28,2.83-3.9,0-6.81-2.83-6.81-6.97s2.91-6.94,6.81-6.94c2.18,0,4.06.94,5.2,2.7v-8.22h1.85Zm-1.82,12.46c0-3.2-2.18-5.33-5.07-5.33s-5.1,2.13-5.1,5.33,2.18,5.33,5.1,5.33,5.07-2.13,5.07-5.33Z"/>
    <path d="m606.58,229.95h-11.44c.21,2.86,2.39,4.76,5.38,4.76,1.66,0,3.15-.6,4.19-1.79l1.04,1.2c-1.22,1.46-3.12,2.24-5.28,2.24-4.26,0-7.18-2.91-7.18-6.97s2.83-6.94,6.68-6.94,6.63,2.83,6.63,6.94c0,.16-.03.36-.03.57Zm-11.44-1.38h9.7c-.23-2.68-2.18-4.55-4.86-4.55s-4.6,1.87-4.84,4.55Z"/>
    <path d="m617.58,235.38c-.73.65-1.82.96-2.89.96-2.57,0-4-1.46-4-3.98v-8.27h-2.44v-1.56h2.44v-2.99h1.85v2.99h4.16v1.56h-4.16v8.16c0,1.61.83,2.5,2.37,2.5.75,0,1.51-.23,2.03-.7l.65,1.33Z"/>
    <path d="m632.35,229.95h-11.44c.21,2.86,2.39,4.76,5.38,4.76,1.66,0,3.15-.6,4.19-1.79l1.04,1.2c-1.22,1.46-3.12,2.24-5.28,2.24-4.26,0-7.18-2.91-7.18-6.97s2.83-6.94,6.68-6.94,6.63,2.83,6.63,6.94c0,.16-.03.36-.03.57Zm-11.44-1.38h9.7c-.23-2.68-2.18-4.55-4.86-4.55s-4.6,1.87-4.84,4.55Z"/>
    <path d="m643.04,222.44v1.79c-.16,0-.31-.03-.44-.03-2.86,0-4.6,1.82-4.6,5.04v6.97h-1.85v-13.68h1.77v2.68c.86-1.82,2.6-2.78,5.12-2.78Z"/>
    <path d="m668.93,228.29v7.93h-1.85v-7.75c0-2.89-1.46-4.37-3.93-4.37-2.81,0-4.58,1.82-4.58,4.94v7.18h-1.85v-7.75c0-2.89-1.46-4.37-3.95-4.37-2.78,0-4.58,1.82-4.58,4.94v7.18h-1.85v-13.68h1.77v2.5c.96-1.64,2.73-2.6,5.02-2.6s4.03.96,4.86,2.89c.99-1.77,2.94-2.89,5.41-2.89,3.33,0,5.51,1.92,5.51,5.85Z"/>
    <path d="m673.53,218.22c0-.7.6-1.3,1.35-1.3s1.35.57,1.35,1.27c0,.75-.57,1.35-1.35,1.35s-1.35-.6-1.35-1.33Zm.42,4.32h1.85v13.68h-1.85v-13.68Z"/>
    <path d="m693.53,228.29v7.93h-1.85v-7.75c0-2.89-1.51-4.37-4.11-4.37-2.94,0-4.78,1.82-4.78,4.94v7.18h-1.85v-13.68h1.77v2.52c.99-1.66,2.83-2.63,5.2-2.63,3.33,0,5.62,1.92,5.62,5.85Z"/>
    <path d="m708.87,227.74v8.48h-1.77v-2.13c-.83,1.4-2.44,2.26-4.71,2.26-3.09,0-4.99-1.61-4.99-3.98,0-2.11,1.35-3.87,5.28-3.87h4.34v-.83c0-2.34-1.33-3.61-3.87-3.61-1.77,0-3.43.62-4.55,1.61l-.83-1.38c1.38-1.17,3.41-1.85,5.56-1.85,3.54,0,5.54,1.77,5.54,5.3Zm-1.85,4.37v-2.24h-4.29c-2.65,0-3.51,1.04-3.51,2.44,0,1.59,1.27,2.57,3.46,2.57s3.61-.99,4.34-2.78Z"/>
    <path d="m726.42,216.92v19.29h-1.77v-2.7c-1.12,1.85-3.02,2.83-5.28,2.83-3.9,0-6.81-2.83-6.81-6.97s2.91-6.94,6.81-6.94c2.18,0,4.06.94,5.2,2.7v-8.22h1.85Zm-1.82,12.46c0-3.2-2.18-5.33-5.07-5.33s-5.1,2.13-5.1,5.33,2.18,5.33,5.1,5.33,5.07-2.13,5.07-5.33Z"/>
    <path d="m730.19,229.38c0-4.06,2.96-6.94,6.97-6.94s6.94,2.89,6.94,6.94-2.94,6.97-6.94,6.97-6.97-2.91-6.97-6.97Zm12.04,0c0-3.2-2.16-5.33-5.07-5.33s-5.1,2.13-5.1,5.33,2.18,5.33,5.1,5.33,5.07-2.13,5.07-5.33Z"/>
    <path d="m749.06,234.92c0,.44-.1.78-.36,1.51l-1.09,3.59h-1.25l.88-3.77c-.55-.16-.94-.65-.94-1.33,0-.81.6-1.4,1.38-1.4s1.38.62,1.38,1.4Z"/>
    <path d="m759.38,218.22c0-.7.6-1.3,1.35-1.3s1.35.57,1.35,1.27c0,.75-.57,1.35-1.35,1.35s-1.35-.6-1.35-1.33Zm.42,4.32h1.85v13.68h-1.85v-13.68Z"/>
    <path d="m779.38,228.29v7.93h-1.85v-7.75c0-2.89-1.51-4.37-4.11-4.37-2.94,0-4.78,1.82-4.78,4.94v7.18h-1.85v-13.68h1.77v2.52c.99-1.66,2.83-2.63,5.2-2.63,3.33,0,5.62,1.92,5.62,5.85Z"/>
    <path d="m783.07,229.38c0-4.08,2.96-6.94,7.05-6.94,2.31,0,4.26.91,5.36,2.7l-1.38.94c-.94-1.38-2.39-2.03-3.98-2.03-2.99,0-5.17,2.13-5.17,5.33s2.18,5.33,5.17,5.33c1.59,0,3.04-.62,3.98-2l1.38.94c-1.09,1.77-3.04,2.7-5.36,2.7-4.08,0-7.05-2.89-7.05-6.97Z"/>
    <path d="m798.88,216.92h1.85v19.29h-1.85v-19.29Z"/>
    <path d="m818.2,222.54v13.68h-1.77v-2.5c-.96,1.66-2.73,2.63-4.91,2.63-3.48,0-5.77-1.95-5.77-5.88v-7.93h1.85v7.75c0,2.91,1.51,4.39,4.11,4.39,2.86,0,4.65-1.85,4.65-4.97v-7.18h1.85Z"/>
    <path d="m821.47,234.66l.83-1.46c1.09.86,2.94,1.53,4.86,1.53,2.6,0,3.67-.88,3.67-2.24,0-3.56-8.87-.75-8.87-6.16,0-2.24,1.92-3.9,5.41-3.9,1.77,0,3.69.49,4.84,1.27l-.81,1.48c-1.2-.83-2.63-1.17-4.03-1.17-2.47,0-3.56.96-3.56,2.26,0,3.69,8.87.91,8.87,6.16,0,2.37-2.08,3.9-5.64,3.9-2.26,0-4.45-.73-5.56-1.69Z"/>
    <path d="m835.67,218.22c0-.7.6-1.3,1.35-1.3s1.35.57,1.35,1.27c0,.75-.57,1.35-1.35,1.35s-1.35-.6-1.35-1.33Zm.42,4.32h1.85v13.68h-1.85v-13.68Z"/>
    <path d="m854.57,222.54l-6.08,13.68h-1.9l-6.06-13.68h1.92l5.12,11.65,5.17-11.65h1.82Z"/>
    <path d="m868.69,229.95h-11.44c.21,2.86,2.39,4.76,5.38,4.76,1.66,0,3.15-.6,4.19-1.79l1.04,1.2c-1.22,1.46-3.12,2.24-5.28,2.24-4.26,0-7.18-2.91-7.18-6.97s2.83-6.94,6.68-6.94,6.63,2.83,6.63,6.94c0,.16-.03.36-.03.57Zm-11.44-1.38h9.7c-.23-2.68-2.18-4.55-4.86-4.55s-4.6,1.87-4.84,4.55Z"/>
    <path d="m877.92,229.38c0-4.06,2.96-6.94,6.97-6.94s6.94,2.89,6.94,6.94-2.94,6.97-6.94,6.97-6.97-2.91-6.97-6.97Zm12.04,0c0-3.2-2.16-5.33-5.07-5.33s-5.1,2.13-5.1,5.33,2.18,5.33,5.1,5.33,5.07-2.13,5.07-5.33Z"/>
    <path d="m916.27,229.38c0,4.16-2.91,6.97-6.81,6.97-2.18,0-4.06-.94-5.2-2.7v7.62h-1.85v-18.72h1.77v2.7c1.12-1.82,3.02-2.81,5.28-2.81,3.9,0,6.81,2.81,6.81,6.94Zm-1.85,0c0-3.17-2.21-5.33-5.1-5.33s-5.1,2.16-5.1,5.33,2.18,5.33,5.1,5.33,5.1-2.13,5.1-5.33Z"/>
    <path d="m918.66,229.38c0-4.06,2.96-6.94,6.97-6.94s6.94,2.89,6.94,6.94-2.94,6.97-6.94,6.97-6.97-2.91-6.97-6.97Zm12.04,0c0-3.2-2.16-5.33-5.07-5.33s-5.1,2.13-5.1,5.33,2.18,5.33,5.1,5.33,5.07-2.13,5.07-5.33Z"/>
    <path d="m948.82,216.92v19.29h-1.77v-2.7c-1.12,1.85-3.02,2.83-5.28,2.83-3.9,0-6.81-2.83-6.81-6.97s2.91-6.94,6.81-6.94c2.18,0,4.06.94,5.2,2.7v-8.22h1.85Zm-1.82,12.46c0-3.2-2.18-5.33-5.07-5.33s-5.1,2.13-5.1,5.33,2.18,5.33,5.1,5.33,5.07-2.13,5.07-5.33Z"/>
    <path d="m965.87,229.95h-11.44c.21,2.86,2.39,4.76,5.38,4.76,1.66,0,3.15-.6,4.19-1.79l1.04,1.2c-1.22,1.46-3.12,2.24-5.28,2.24-4.26,0-7.18-2.91-7.18-6.97s2.83-6.94,6.68-6.94,6.63,2.83,6.63,6.94c0,.16-.03.36-.03.57Zm-11.44-1.38h9.7c-.23-2.68-2.18-4.55-4.86-4.55s-4.6,1.87-4.84,4.55Z"/>
    <path d="m976.56,222.44v1.79c-.16,0-.31-.03-.44-.03-2.86,0-4.6,1.82-4.6,5.04v6.97h-1.85v-13.68h1.77v2.68c.86-1.82,2.6-2.78,5.12-2.78Z"/>
    <path d="m999.39,216.92v19.29h-1.77v-2.7c-1.12,1.85-3.02,2.83-5.28,2.83-3.9,0-6.81-2.83-6.81-6.97s2.91-6.94,6.81-6.94c2.18,0,4.06.94,5.2,2.7v-8.22h1.85Zm-1.82,12.46c0-3.2-2.18-5.33-5.07-5.33s-5.1,2.13-5.1,5.33,2.18,5.33,5.1,5.33,5.07-2.13,5.07-5.33Z"/>
    <path d="m1016.44,229.95h-11.44c.21,2.86,2.39,4.76,5.38,4.76,1.66,0,3.15-.6,4.19-1.79l1.04,1.2c-1.22,1.46-3.12,2.24-5.28,2.24-4.26,0-7.18-2.91-7.18-6.97s2.83-6.94,6.68-6.94,6.63,2.83,6.63,6.94c0,.16-.03.36-.03.57Zm-11.44-1.38h9.7c-.23-2.68-2.18-4.55-4.86-4.55s-4.6,1.87-4.84,4.55Z"/>
    <path d="m1025.67,229.38c0-4.08,2.96-6.94,7.05-6.94,2.31,0,4.26.91,5.36,2.7l-1.38.94c-.94-1.38-2.39-2.03-3.98-2.03-2.99,0-5.17,2.13-5.17,5.33s2.18,5.33,5.17,5.33c1.59,0,3.04-.62,3.98-2l1.38.94c-1.09,1.77-3.04,2.7-5.36,2.7-4.08,0-7.05-2.89-7.05-6.97Z"/>
    <path d="m1048.58,222.44v1.79c-.16,0-.31-.03-.44-.03-2.86,0-4.6,1.82-4.6,5.04v6.97h-1.85v-13.68h1.77v2.68c.86-1.82,2.6-2.78,5.12-2.78Z"/>
    <path d="m1051.49,218.22c0-.7.6-1.3,1.35-1.3s1.35.57,1.35,1.27c0,.75-.57,1.35-1.35,1.35s-1.35-.6-1.35-1.33Zm.42,4.32h1.85v13.68h-1.85v-13.68Z"/>
    <path d="m1069.22,227.74v8.48h-1.77v-2.13c-.83,1.4-2.44,2.26-4.71,2.26-3.09,0-4.99-1.61-4.99-3.98,0-2.11,1.35-3.87,5.28-3.87h4.34v-.83c0-2.34-1.33-3.61-3.88-3.61-1.77,0-3.43.62-4.55,1.61l-.83-1.38c1.38-1.17,3.41-1.85,5.56-1.85,3.54,0,5.54,1.77,5.54,5.3Zm-1.85,4.37v-2.24h-4.29c-2.65,0-3.51,1.04-3.51,2.44,0,1.59,1.27,2.57,3.46,2.57s3.61-.99,4.34-2.78Z"/>
    <path d="m1081.13,222.44v1.79c-.16,0-.31-.03-.44-.03-2.86,0-4.6,1.82-4.6,5.04v6.97h-1.85v-13.68h1.77v2.68c.86-1.82,2.6-2.78,5.12-2.78Z"/>
    <path d="m1090.1,229.38c0-4.06,2.96-6.94,6.97-6.94s6.94,2.89,6.94,6.94-2.94,6.97-6.94,6.97-6.97-2.91-6.97-6.97Zm12.04,0c0-3.2-2.16-5.33-5.07-5.33s-5.1,2.13-5.1,5.33,2.18,5.33,5.1,5.33,5.07-2.13,5.07-5.33Z"/>
    <path d="m131.39,280.51l.65-1.4c.55.47,1.27.7,2.13.7,1.46,0,2.26-.88,2.26-2.57v-14.69h1.85v14.69c0,2.52-1.4,4.16-4,4.16-1.09,0-2.21-.29-2.89-.88Zm4.63-22.28c0-.7.6-1.3,1.35-1.3s1.35.57,1.35,1.27c0,.75-.57,1.35-1.35,1.35s-1.35-.6-1.35-1.33Z"/>
    <path d="m155.75,262.54v13.68h-1.77v-2.5c-.96,1.66-2.73,2.63-4.91,2.63-3.48,0-5.77-1.95-5.77-5.88v-7.93h1.85v7.75c0,2.91,1.51,4.39,4.11,4.39,2.86,0,4.65-1.85,4.65-4.97v-7.18h1.85Z"/>
    <path d="m167.81,262.44v1.79c-.16,0-.31-.03-.44-.03-2.86,0-4.6,1.82-4.6,5.04v6.97h-1.85v-13.68h1.77v2.68c.86-1.82,2.6-2.78,5.12-2.78Z"/>
    <path d="m173.95,257.21h2.47l-4.21,3.22h-1.82l3.56-3.22Zm-2.81,5.33h1.85v13.68h-1.85v-13.68Z"/>
    <path d="m190.62,256.92v19.29h-1.77v-2.7c-1.12,1.85-3.02,2.83-5.28,2.83-3.9,0-6.81-2.83-6.81-6.97s2.91-6.94,6.81-6.94c2.18,0,4.06.94,5.2,2.7v-8.22h1.85Zm-1.82,12.46c0-3.2-2.18-5.33-5.07-5.33s-5.1,2.13-5.1,5.33,2.18,5.33,5.1,5.33,5.07-2.13,5.07-5.33Z"/>
    <path d="m195.35,258.22c0-.7.6-1.3,1.35-1.3s1.35.57,1.35,1.27c0,.75-.57,1.35-1.35,1.35s-1.35-.6-1.35-1.33Zm.42,4.32h1.85v13.68h-1.85v-13.68Z"/>
    <path d="m201.38,269.38c0-4.08,2.96-6.94,7.05-6.94,2.31,0,4.26.91,5.36,2.7l-1.38.94c-.94-1.38-2.39-2.03-3.98-2.03-2.99,0-5.17,2.13-5.17,5.33s2.18,5.33,5.17,5.33c1.59,0,3.04-.62,3.98-2l1.38.94c-1.09,1.77-3.04,2.7-5.36,2.7-4.08,0-7.05-2.89-7.05-6.97Z"/>
    <path d="m215.78,269.38c0-4.06,2.96-6.94,6.97-6.94s6.94,2.89,6.94,6.94-2.94,6.97-6.94,6.97-6.97-2.91-6.97-6.97Zm12.04,0c0-3.2-2.16-5.33-5.07-5.33s-5.1,2.13-5.1,5.33,2.18,5.33,5.1,5.33,5.07-2.13,5.07-5.33Z"/>
    <path d="m232.27,263.84c0-.81.62-1.4,1.38-1.4s1.4.6,1.4,1.4-.65,1.43-1.4,1.43-1.38-.62-1.38-1.43Zm0,11.08c0-.81.62-1.4,1.38-1.4s1.4.6,1.4,1.4-.65,1.43-1.4,1.43-1.38-.62-1.38-1.43Z"/>
    <path d="m256.11,267.74v8.48h-1.77v-2.13c-.83,1.4-2.44,2.26-4.71,2.26-3.09,0-4.99-1.61-4.99-3.98,0-2.11,1.35-3.87,5.28-3.87h4.34v-.83c0-2.34-1.33-3.61-3.87-3.61-1.77,0-3.43.62-4.55,1.61l-.83-1.38c1.38-1.17,3.41-1.85,5.56-1.85,3.54,0,5.54,1.77,5.54,5.3Zm-1.85,4.37v-2.24h-4.29c-2.65,0-3.51,1.04-3.51,2.44,0,1.59,1.27,2.57,3.46,2.57s3.61-.99,4.34-2.78Z"/>
    <path d="m259.8,269.38c0-4.06,2.96-6.94,6.97-6.94s6.94,2.89,6.94,6.94-2.94,6.97-6.94,6.97-6.97-2.91-6.97-6.97Zm12.04,0c0-3.2-2.16-5.33-5.07-5.33s-5.1,2.13-5.1,5.33,2.18,5.33,5.1,5.33,5.07-2.13,5.07-5.33Z"/>
    <path d="m288.74,256.79c1.01,0,2.05.29,2.73.86l-.62,1.38c-.52-.44-1.25-.68-2.03-.68-1.59,0-2.42.88-2.42,2.57v1.61h4.21v1.56h-4.16v12.12h-1.85v-12.12h-2.44v-1.56h2.44v-1.69c0-2.44,1.46-4.06,4.13-4.06Zm8.74,1.4c0,.75-.57,1.35-1.35,1.35s-1.35-.6-1.35-1.33.6-1.3,1.35-1.3,1.35.57,1.35,1.27Zm-2.29,4.34h1.85v13.68h-1.85v-13.68Z"/>
    <path d="m324.75,268.29v7.93h-1.85v-7.75c0-2.89-1.46-4.37-3.93-4.37-2.81,0-4.58,1.82-4.58,4.94v7.18h-1.85v-7.75c0-2.89-1.46-4.37-3.95-4.37-2.78,0-4.58,1.82-4.58,4.94v7.18h-1.85v-13.68h1.77v2.5c.96-1.64,2.73-2.6,5.02-2.6s4.03.96,4.86,2.89c.99-1.77,2.94-2.89,5.41-2.89,3.33,0,5.51,1.92,5.51,5.85Z"/>
    <path d="m348.49,269.95h-11.44c.21,2.86,2.39,4.76,5.38,4.76,1.66,0,3.15-.6,4.19-1.79l1.04,1.2c-1.22,1.46-3.12,2.24-5.28,2.24-4.26,0-7.18-2.91-7.18-6.97s2.83-6.94,6.68-6.94,6.63,2.83,6.63,6.94c0,.16-.03.36-.03.57Zm-11.44-1.38h9.7c-.23-2.68-2.18-4.55-4.86-4.55s-4.6,1.87-4.84,4.55Z"/>
    <path d="m369.42,267.74v8.48h-1.77v-2.13c-.83,1.4-2.44,2.26-4.71,2.26-3.09,0-4.99-1.61-4.99-3.98,0-2.11,1.35-3.87,5.28-3.87h4.34v-.83c0-2.34-1.33-3.61-3.87-3.61-1.77,0-3.43.62-4.55,1.61l-.83-1.38c1.38-1.17,3.41-1.85,5.56-1.85,3.54,0,5.54,1.77,5.54,5.3Zm-1.85,4.37v-2.24h-4.29c-2.65,0-3.51,1.04-3.51,2.44,0,1.59,1.27,2.57,3.46,2.57s3.61-.99,4.34-2.78Z"/>
    <path d="m373.11,269.38c0-4.06,2.96-6.94,6.97-6.94s6.94,2.89,6.94,6.94-2.94,6.97-6.94,6.97-6.97-2.91-6.97-6.97Zm12.04,0c0-3.2-2.16-5.33-5.07-5.33s-5.1,2.13-5.1,5.33,2.18,5.33,5.1,5.33,5.07-2.13,5.07-5.33Z"/>
    <path d="m396.22,269.38c0-4.08,2.96-6.94,7.05-6.94,2.31,0,4.26.91,5.36,2.7l-1.38.94c-.94-1.38-2.39-2.03-3.98-2.03-2.99,0-5.17,2.13-5.17,5.33s2.18,5.33,5.17,5.33c1.59,0,3.04-.62,3.98-2l1.38.94c-1.09,1.77-3.04,2.7-5.36,2.7-4.08,0-7.05-2.89-7.05-6.97Z"/>
    <path d="m422.56,267.74v8.48h-1.77v-2.13c-.83,1.4-2.44,2.26-4.71,2.26-3.09,0-4.99-1.61-4.99-3.98,0-2.11,1.35-3.87,5.28-3.87h4.34v-.83c0-2.34-1.33-3.61-3.87-3.61-1.77,0-3.43.62-4.55,1.61l-.83-1.38c1.38-1.17,3.41-1.85,5.56-1.85,3.54,0,5.54,1.77,5.54,5.3Zm-1.85,4.37v-2.24h-4.29c-2.65,0-3.51,1.04-3.51,2.44,0,1.59,1.27,2.57,3.46,2.57s3.61-.99,4.34-2.78Z"/>
    <path d="m441.44,269.38c0,4.13-2.91,6.97-6.81,6.97-2.26,0-4.16-.99-5.28-2.83v2.7h-1.77v-19.29h1.85v8.22c1.14-1.77,3.02-2.7,5.2-2.7,3.9,0,6.81,2.81,6.81,6.94Zm-1.85,0c0-3.2-2.21-5.33-5.1-5.33s-5.1,2.13-5.1,5.33,2.18,5.33,5.1,5.33,5.1-2.13,5.1-5.33Z"/>
    <path d="m443.83,269.38c0-4.06,2.96-6.94,6.97-6.94s6.94,2.89,6.94,6.94-2.94,6.97-6.94,6.97-6.97-2.91-6.97-6.97Zm12.04,0c0-3.2-2.16-5.33-5.07-5.33s-5.1,2.13-5.1,5.33,2.18,5.33,5.1,5.33,5.07-2.13,5.07-5.33Z"/>
    <path d="m462.7,274.92c0,.44-.1.78-.36,1.51l-1.09,3.59h-1.25l.88-3.77c-.55-.16-.94-.65-.94-1.33,0-.81.6-1.4,1.38-1.4s1.38.62,1.38,1.4Z"/>
    <path d="m480.64,275.38c-.73.65-1.82.96-2.89.96-2.57,0-4-1.46-4-3.98v-8.27h-2.44v-1.56h2.44v-2.99h1.85v2.99h4.16v1.56h-4.16v8.16c0,1.61.83,2.5,2.37,2.5.75,0,1.51-.23,2.03-.7l.65,1.33Z"/>
    <path d="m482.12,269.38c0-4.06,2.96-6.94,6.97-6.94s6.94,2.89,6.94,6.94-2.94,6.97-6.94,6.97-6.97-2.91-6.97-6.97Zm12.04,0c0-3.2-2.16-5.33-5.07-5.33s-5.1,2.13-5.1,5.33,2.18,5.33,5.1,5.33,5.07-2.13,5.07-5.33Z"/>
    <path d="m512.28,256.92v19.29h-1.77v-2.7c-1.12,1.85-3.02,2.83-5.28,2.83-3.9,0-6.81-2.83-6.81-6.97s2.91-6.94,6.81-6.94c2.18,0,4.06.94,5.2,2.7v-8.22h1.85Zm-1.82,12.46c0-3.2-2.18-5.33-5.07-5.33s-5.1,2.13-5.1,5.33,2.18,5.33,5.1,5.33,5.07-2.13,5.07-5.33Z"/>
    <path d="m516.05,269.38c0-4.06,2.96-6.94,6.97-6.94s6.94,2.89,6.94,6.94-2.94,6.97-6.94,6.97-6.97-2.91-6.97-6.97Zm12.04,0c0-3.2-2.16-5.33-5.07-5.33s-5.1,2.13-5.1,5.33,2.18,5.33,5.1,5.33,5.07-2.13,5.07-5.33Z"/>
    <path d="m554.4,269.38c0,4.16-2.91,6.97-6.81,6.97-2.18,0-4.06-.94-5.2-2.7v7.62h-1.85v-18.72h1.77v2.7c1.12-1.82,3.02-2.81,5.28-2.81,3.9,0,6.81,2.81,6.81,6.94Zm-1.85,0c0-3.17-2.21-5.33-5.1-5.33s-5.1,2.16-5.1,5.33,2.18,5.33,5.1,5.33,5.1-2.13,5.1-5.33Z"/>
    <path d="m556.79,269.38c0-4.06,2.96-6.94,6.97-6.94s6.94,2.89,6.94,6.94-2.94,6.97-6.94,6.97-6.97-2.91-6.97-6.97Zm12.04,0c0-3.2-2.16-5.33-5.07-5.33s-5.1,2.13-5.1,5.33,2.18,5.33,5.1,5.33,5.07-2.13,5.07-5.33Z"/>
    <path d="m586.96,256.92v19.29h-1.77v-2.7c-1.12,1.85-3.02,2.83-5.28,2.83-3.9,0-6.81-2.83-6.81-6.97s2.91-6.94,6.81-6.94c2.18,0,4.06.94,5.2,2.7v-8.22h1.85Zm-1.82,12.46c0-3.2-2.18-5.33-5.07-5.33s-5.1,2.13-5.1,5.33,2.18,5.33,5.1,5.33,5.07-2.13,5.07-5.33Z"/>
    <path d="m604.01,269.95h-11.44c.21,2.86,2.39,4.76,5.38,4.76,1.66,0,3.15-.6,4.19-1.79l1.04,1.2c-1.22,1.46-3.12,2.24-5.28,2.24-4.26,0-7.18-2.91-7.18-6.97s2.83-6.94,6.68-6.94,6.63,2.83,6.63,6.94c0,.16-.03.36-.03.57Zm-11.44-1.38h9.7c-.23-2.68-2.18-4.55-4.86-4.55s-4.6,1.87-4.84,4.55Z"/>
    <path d="m614.7,262.44v1.79c-.16,0-.31-.03-.44-.03-2.86,0-4.6,1.82-4.6,5.04v6.97h-1.85v-13.68h1.77v2.68c.86-1.82,2.6-2.78,5.12-2.78Z"/>
    <path d="m636.95,269.95h-11.44c.21,2.86,2.39,4.76,5.38,4.76,1.66,0,3.15-.6,4.19-1.79l1.04,1.2c-1.22,1.46-3.12,2.24-5.28,2.24-4.26,0-7.18-2.91-7.18-6.97s2.83-6.94,6.68-6.94,6.63,2.83,6.63,6.94c0,.16-.03.36-.03.57Zm-11.44-1.38h9.7c-.23-2.68-2.18-4.55-4.86-4.55s-4.6,1.87-4.84,4.55Z"/>
    <path d="m653.33,268.29v7.93h-1.85v-7.75c0-2.89-1.51-4.37-4.11-4.37-2.94,0-4.78,1.82-4.78,4.94v7.18h-1.85v-13.68h1.77v2.52c.99-1.66,2.83-2.63,5.2-2.63,3.33,0,5.62,1.92,5.62,5.85Z"/>
    <path d="m657.02,269.38c0-4.08,2.96-6.94,7.05-6.94,2.31,0,4.26.91,5.36,2.7l-1.38.94c-.94-1.38-2.39-2.03-3.98-2.03-2.99,0-5.17,2.13-5.17,5.33s2.18,5.33,5.17,5.33c1.59,0,3.04-.62,3.98-2l1.38.94c-1.09,1.77-3.04,2.7-5.36,2.7-4.08,0-7.05-2.89-7.05-6.97Z"/>
    <path d="m684.71,269.95h-11.44c.21,2.86,2.39,4.76,5.38,4.76,1.66,0,3.15-.6,4.19-1.79l1.04,1.2c-1.22,1.46-3.12,2.24-5.28,2.24-4.26,0-7.18-2.91-7.18-6.97s2.83-6.94,6.68-6.94,6.63,2.83,6.63,6.94c0,.16-.03.36-.03.57Zm-11.44-1.38h9.7c-.23-2.68-2.18-4.55-4.86-4.55s-4.6,1.87-4.84,4.55Z"/>
    <path d="m695.4,262.44v1.79c-.16,0-.31-.03-.44-.03-2.86,0-4.6,1.82-4.6,5.04v6.97h-1.85v-13.68h1.77v2.68c.86-1.82,2.6-2.78,5.12-2.78Z"/>
    <path d="m705.62,262.44v1.79c-.16,0-.31-.03-.44-.03-2.86,0-4.6,1.82-4.6,5.04v6.97h-1.85v-13.68h1.77v2.68c.86-1.82,2.6-2.78,5.12-2.78Z"/>
    <path d="m719.24,267.74v8.48h-1.77v-2.13c-.83,1.4-2.44,2.26-4.71,2.26-3.09,0-4.99-1.61-4.99-3.98,0-2.11,1.35-3.87,5.28-3.87h4.34v-.83c0-2.34-1.33-3.61-3.87-3.61-1.77,0-3.43.62-4.55,1.61l-.83-1.38c1.38-1.17,3.41-1.85,5.56-1.85,3.54,0,5.54,1.77,5.54,5.3Zm-1.85,4.37v-2.24h-4.29c-2.65,0-3.51,1.04-3.51,2.44,0,1.59,1.27,2.57,3.46,2.57s3.61-.99,4.34-2.78Z"/>
    <path d="m723.24,268.36h6.81v1.61h-6.81v-1.61Z"/>
    <path d="m732.29,274.66l.83-1.46c1.09.86,2.94,1.53,4.86,1.53,2.6,0,3.67-.88,3.67-2.24,0-3.56-8.87-.75-8.87-6.16,0-2.24,1.92-3.9,5.41-3.9,1.77,0,3.69.49,4.84,1.27l-.81,1.48c-1.2-.83-2.63-1.17-4.03-1.17-2.47,0-3.56.96-3.56,2.26,0,3.69,8.87.91,8.87,6.16,0,2.37-2.08,3.9-5.64,3.9-2.26,0-4.45-.73-5.56-1.69Z"/>
    <path d="m758.81,269.95h-11.44c.21,2.86,2.39,4.76,5.38,4.76,1.66,0,3.15-.6,4.19-1.79l1.04,1.2c-1.22,1.46-3.12,2.24-5.28,2.24-4.26,0-7.18-2.91-7.18-6.97s2.83-6.94,6.68-6.94,6.63,2.83,6.63,6.94c0,.16-.03.36-.03.57Zm-11.44-1.38h9.7c-.23-2.68-2.18-4.55-4.86-4.55s-4.6,1.87-4.84,4.55Z"/>
    <path d="m782,268.29v7.93h-1.85v-7.75c0-2.89-1.51-4.37-4.11-4.37-2.94,0-4.78,1.82-4.78,4.94v7.18h-1.85v-13.68h1.77v2.52c.99-1.66,2.83-2.63,5.2-2.63,3.33,0,5.62,1.92,5.62,5.85Z"/>
    <path d="m799.35,262.54v13.68h-1.77v-2.5c-.96,1.66-2.73,2.63-4.91,2.63-3.48,0-5.77-1.95-5.77-5.88v-7.93h1.85v7.75c0,2.91,1.51,4.39,4.11,4.39,2.86,0,4.65-1.85,4.65-4.97v-7.18h1.85Z"/>
    <path d="m827.09,268.29v7.93h-1.85v-7.75c0-2.89-1.46-4.37-3.93-4.37-2.81,0-4.58,1.82-4.58,4.94v7.18h-1.85v-7.75c0-2.89-1.46-4.37-3.95-4.37-2.78,0-4.58,1.82-4.58,4.94v7.18h-1.85v-13.68h1.77v2.5c.96-1.64,2.73-2.6,5.02-2.6s4.03.96,4.86,2.89c.99-1.77,2.94-2.89,5.41-2.89,3.33,0,5.51,1.92,5.51,5.85Z"/>
    <path d="m841.02,260.93v1.61h4.21v1.56h-4.16v12.12h-1.85v-12.12h-2.44v-1.56h2.44v-1.69c0-2.44,1.46-4.06,4.13-4.06,1.01,0,2.05.29,2.73.86l-.62,1.38c-.52-.44-1.25-.68-2.03-.68-1.59,0-2.42.88-2.42,2.57Z"/>
    <path d="m859.41,269.95h-11.44c.21,2.86,2.39,4.76,5.38,4.76,1.66,0,3.15-.6,4.19-1.79l1.04,1.2c-1.22,1.46-3.12,2.24-5.28,2.24-4.26,0-7.18-2.91-7.18-6.97s2.83-6.94,6.68-6.94,6.63,2.83,6.63,6.94c0,.16-.03.36-.03.57Zm-11.44-1.38h9.7c-.23-2.68-2.18-4.55-4.86-4.55s-4.6,1.87-4.84,4.55Z"/>
    <path d="m862.79,258.22c0-.7.6-1.3,1.35-1.3s1.35.57,1.35,1.27c0,.75-.57,1.35-1.35,1.35s-1.35-.6-1.35-1.33Zm.42,4.32h1.85v13.68h-1.85v-13.68Z"/>
    <path d="m878.91,276.22l-4.34-5.72-4.37,5.72h-2.08l5.41-7.02-5.15-6.66h2.08l4.11,5.36,4.11-5.36h2.03l-5.15,6.66,5.46,7.02h-2.11Z"/>
    <path d="m895.49,269.95h-11.44c.21,2.86,2.39,4.76,5.38,4.76,1.66,0,3.15-.6,4.19-1.79l1.04,1.2c-1.22,1.46-3.12,2.24-5.28,2.24-4.26,0-7.18-2.91-7.18-6.97s2.83-6.94,6.68-6.94,6.63,2.83,6.63,6.94c0,.16-.03.36-.03.57Zm-11.44-1.38h9.7c-.23-2.68-2.18-4.55-4.86-4.55s-4.6,1.87-4.84,4.55Z"/>
    <path d="m918.58,256.92v19.29h-1.77v-2.7c-1.12,1.85-3.02,2.83-5.28,2.83-3.9,0-6.81-2.83-6.81-6.97s2.91-6.94,6.81-6.94c2.18,0,4.06.94,5.2,2.7v-8.22h1.85Zm-1.82,12.46c0-3.2-2.18-5.33-5.07-5.33s-5.1,2.13-5.1,5.33,2.18,5.33,5.1,5.33,5.07-2.13,5.07-5.33Z"/>
    <path d="m935.64,269.95h-11.44c.21,2.86,2.39,4.76,5.38,4.76,1.66,0,3.15-.6,4.19-1.79l1.04,1.2c-1.22,1.46-3.12,2.24-5.28,2.24-4.26,0-7.18-2.91-7.18-6.97s2.83-6.94,6.68-6.94,6.63,2.83,6.63,6.94c0,.16-.03.36-.03.57Zm-11.44-1.38h9.7c-.23-2.68-2.18-4.55-4.86-4.55s-4.6,1.87-4.84,4.55Z"/>
    <path d="m944.87,269.38c0-4.08,2.96-6.94,7.05-6.94,2.31,0,4.26.91,5.36,2.7l-1.38.94c-.94-1.38-2.39-2.03-3.98-2.03-2.99,0-5.17,2.13-5.17,5.33s2.18,5.33,5.17,5.33c1.59,0,3.04-.62,3.98-2l1.38.94c-1.09,1.77-3.04,2.7-5.36,2.7-4.08,0-7.05-2.89-7.05-6.97Z"/>
    <path d="m959.27,269.38c0-4.06,2.96-6.94,6.97-6.94s6.94,2.89,6.94,6.94-2.94,6.97-6.94,6.97-6.97-2.91-6.97-6.97Zm12.04,0c0-3.2-2.16-5.33-5.07-5.33s-5.1,2.13-5.1,5.33,2.18,5.33,5.1,5.33,5.07-2.13,5.07-5.33Z"/>
    <path d="m999.52,268.29v7.93h-1.85v-7.75c0-2.89-1.46-4.37-3.93-4.37-2.81,0-4.58,1.82-4.58,4.94v7.18h-1.85v-7.75c0-2.89-1.46-4.37-3.95-4.37-2.78,0-4.58,1.82-4.58,4.94v7.18h-1.85v-13.68h1.77v2.5c.96-1.64,2.73-2.6,5.02-2.6s4.03.96,4.86,2.89c.99-1.77,2.94-2.89,5.41-2.89,3.33,0,5.51,1.92,5.51,5.85Z"/>
    <path d="m1018.39,269.38c0,4.16-2.91,6.97-6.81,6.97-2.18,0-4.06-.94-5.2-2.7v7.62h-1.85v-18.72h1.77v2.7c1.12-1.82,3.02-2.81,5.28-2.81,3.9,0,6.81,2.81,6.81,6.94Zm-1.85,0c0-3.17-2.21-5.33-5.1-5.33s-5.1,2.16-5.1,5.33,2.18,5.33,5.1,5.33,5.1-2.13,5.1-5.33Z"/>
    <path d="m1034.07,269.95h-11.44c.21,2.86,2.39,4.76,5.38,4.76,1.66,0,3.15-.6,4.19-1.79l1.04,1.2c-1.22,1.46-3.12,2.24-5.28,2.24-4.26,0-7.18-2.91-7.18-6.97s2.83-6.94,6.68-6.94,6.63,2.83,6.63,6.94c0,.16-.03.36-.03.57Zm-11.44-1.38h9.7c-.23-2.68-2.18-4.55-4.86-4.55s-4.6,1.87-4.84,4.55Z"/>
    <path d="m1045.07,275.38c-.73.65-1.82.96-2.89.96-2.57,0-4-1.46-4-3.98v-8.27h-2.44v-1.56h2.44v-2.99h1.85v2.99h4.16v1.56h-4.16v8.16c0,1.61.83,2.5,2.37,2.5.75,0,1.51-.23,2.03-.7l.65,1.33Z"/>
    <path d="m1059.84,269.95h-11.44c.21,2.86,2.39,4.76,5.38,4.76,1.66,0,3.15-.6,4.19-1.79l1.04,1.2c-1.22,1.46-3.12,2.24-5.28,2.24-4.26,0-7.18-2.91-7.18-6.97s2.83-6.94,6.68-6.94,6.63,2.83,6.63,6.94c0,.16-.03.36-.03.57Zm-11.44-1.38h9.7c-.23-2.68-2.18-4.55-4.86-4.55s-4.6,1.87-4.84,4.55Zm2.26-8.14h-1.72l3.35-3.22h1.87l3.35,3.22h-1.72l-2.57-2.16-2.57,2.16Z"/>
    <path d="m1076.22,268.29v7.93h-1.85v-7.75c0-2.89-1.51-4.37-4.11-4.37-2.94,0-4.78,1.82-4.78,4.94v7.18h-1.85v-13.68h1.77v2.52c.99-1.66,2.83-2.63,5.2-2.63,3.33,0,5.62,1.92,5.62,5.85Z"/>
    <path d="m1079.91,269.38c0-4.08,2.96-6.94,7.05-6.94,2.31,0,4.26.91,5.36,2.7l-1.38.94c-.94-1.38-2.39-2.03-3.98-2.03-2.99,0-5.17,2.13-5.17,5.33s2.18,5.33,5.17,5.33c1.59,0,3.04-.62,3.98-2l1.38.94c-1.09,1.77-3.04,2.7-5.36,2.7-4.08,0-7.05-2.89-7.05-6.97Z"/>
    <path d="m1095.51,258.22c0-.7.6-1.3,1.35-1.3s1.35.57,1.35,1.27c0,.75-.57,1.35-1.35,1.35s-1.35-.6-1.35-1.33Zm.42,4.32h1.85v13.68h-1.85v-13.68Z"/>
    <path d="m1113.24,267.74v8.48h-1.77v-2.13c-.83,1.4-2.44,2.26-4.71,2.26-3.09,0-4.99-1.61-4.99-3.98,0-2.11,1.35-3.87,5.28-3.87h4.34v-.83c0-2.34-1.33-3.61-3.87-3.61-1.77,0-3.43.62-4.55,1.61l-.83-1.38c1.38-1.17,3.41-1.85,5.56-1.85,3.54,0,5.54,1.77,5.54,5.3Zm-1.85,4.37v-2.24h-4.29c-2.65,0-3.51,1.04-3.51,2.44,0,1.59,1.27,2.57,3.46,2.57s3.61-.99,4.34-2.78Z"/>
    <path d="m1116.36,274.66l.83-1.46c1.09.86,2.94,1.53,4.86,1.53,2.6,0,3.67-.88,3.67-2.24,0-3.56-8.87-.75-8.87-6.16,0-2.24,1.92-3.9,5.41-3.9,1.77,0,3.69.49,4.84,1.27l-.81,1.48c-1.2-.83-2.63-1.17-4.03-1.17-2.47,0-3.56.96-3.56,2.26,0,3.69,8.87.91,8.87,6.16,0,2.37-2.08,3.9-5.64,3.9-2.26,0-4.45-.73-5.56-1.69Z"/>
    <path d="m131.39,320.51l.65-1.4c.55.47,1.27.7,2.13.7,1.46,0,2.26-.88,2.26-2.57v-14.69h1.85v14.69c0,2.52-1.4,4.16-4,4.16-1.09,0-2.21-.29-2.89-.88Zm4.63-22.28c0-.7.6-1.3,1.35-1.3s1.35.57,1.35,1.27c0,.75-.57,1.35-1.35,1.35s-1.35-.6-1.35-1.33Z"/>
    <path d="m155.75,302.54v13.68h-1.77v-2.5c-.96,1.66-2.73,2.63-4.91,2.63-3.48,0-5.77-1.95-5.77-5.88v-7.93h1.85v7.75c0,2.91,1.51,4.39,4.11,4.39,2.86,0,4.65-1.85,4.65-4.97v-7.18h1.85Z"/>
    <path d="m167.81,302.44v1.79c-.16,0-.31-.03-.44-.03-2.86,0-4.6,1.82-4.6,5.04v6.97h-1.85v-13.68h1.77v2.68c.86-1.82,2.6-2.78,5.12-2.78Z"/>
    <path d="m173.95,297.21h2.47l-4.21,3.22h-1.82l3.56-3.22Zm-2.81,5.33h1.85v13.68h-1.85v-13.68Z"/>
    <path d="m190.62,296.92v19.29h-1.77v-2.7c-1.12,1.85-3.02,2.83-5.28,2.83-3.9,0-6.81-2.83-6.81-6.97s2.91-6.94,6.81-6.94c2.18,0,4.06.94,5.2,2.7v-8.22h1.85Zm-1.82,12.46c0-3.2-2.18-5.33-5.07-5.33s-5.1,2.13-5.1,5.33,2.18,5.33,5.1,5.33,5.07-2.13,5.07-5.33Z"/>
    <path d="m195.35,298.22c0-.7.6-1.3,1.35-1.3s1.35.57,1.35,1.27c0,.75-.57,1.35-1.35,1.35s-1.35-.6-1.35-1.33Zm.42,4.32h1.85v13.68h-1.85v-13.68Z"/>
    <path d="m201.38,309.38c0-4.08,2.96-6.94,7.05-6.94,2.31,0,4.26.91,5.36,2.7l-1.38.94c-.94-1.38-2.39-2.03-3.98-2.03-2.99,0-5.17,2.13-5.17,5.33s2.18,5.33,5.17,5.33c1.59,0,3.04-.62,3.98-2l1.38.94c-1.09,1.77-3.04,2.7-5.36,2.7-4.08,0-7.05-2.89-7.05-6.97Z"/>
    <path d="m227.72,307.74v8.48h-1.77v-2.13c-.83,1.4-2.44,2.26-4.71,2.26-3.09,0-4.99-1.61-4.99-3.98,0-2.11,1.35-3.87,5.28-3.87h4.34v-.83c0-2.34-1.33-3.61-3.87-3.61-1.77,0-3.43.62-4.55,1.61l-.83-1.38c1.38-1.17,3.41-1.85,5.56-1.85,3.54,0,5.54,1.77,5.54,5.3Zm-1.85,4.37v-2.24h-4.29c-2.65,0-3.51,1.04-3.51,2.44,0,1.59,1.27,2.57,3.46,2.57s3.61-.99,4.34-2.78Z"/>
    <path d="m230.84,314.66l.83-1.46c1.09.86,2.94,1.53,4.86,1.53,2.6,0,3.67-.88,3.67-2.24,0-3.56-8.87-.75-8.87-6.16,0-2.24,1.92-3.9,5.41-3.9,1.77,0,3.69.49,4.84,1.27l-.81,1.48c-1.2-.83-2.63-1.17-4.03-1.17-2.47,0-3.56.96-3.56,2.26,0,3.69,8.87.91,8.87,6.16,0,2.37-2.08,3.9-5.64,3.9-2.26,0-4.45-.73-5.56-1.69Z"/>
    <path d="m264.17,309.95h-11.44c.21,2.86,2.39,4.76,5.38,4.76,1.66,0,3.15-.6,4.19-1.79l1.04,1.2c-1.22,1.46-3.12,2.24-5.28,2.24-4.26,0-7.18-2.91-7.18-6.97s2.83-6.94,6.68-6.94,6.63,2.83,6.63,6.94c0,.16-.03.36-.03.57Zm-11.44-1.38h9.7c-.23-2.68-2.18-4.55-4.86-4.55s-4.6,1.87-4.84,4.55Z"/>
    <path d="m287.26,296.92v19.29h-1.77v-2.7c-1.12,1.85-3.02,2.83-5.28,2.83-3.9,0-6.81-2.83-6.81-6.97s2.91-6.94,6.81-6.94c2.18,0,4.06.94,5.2,2.7v-8.22h1.85Zm-1.82,12.46c0-3.2-2.18-5.33-5.07-5.33s-5.1,2.13-5.1,5.33,2.18,5.33,5.1,5.33,5.07-2.13,5.07-5.33Z"/>
    <path d="m304.31,309.95h-11.44c.21,2.86,2.39,4.76,5.38,4.76,1.66,0,3.15-.6,4.19-1.79l1.04,1.2c-1.22,1.46-3.12,2.24-5.28,2.24-4.26,0-7.18-2.91-7.18-6.97s2.83-6.94,6.68-6.94,6.63,2.83,6.63,6.94c0,.16-.03.36-.03.57Zm-11.44-1.38h9.7c-.23-2.68-2.18-4.55-4.86-4.55s-4.6,1.87-4.84,4.55Z"/>
    <path d="m328.78,309.38c0,4.16-2.91,6.97-6.81,6.97-2.18,0-4.06-.94-5.2-2.7v7.62h-1.85v-18.72h1.77v2.7c1.12-1.82,3.02-2.81,5.28-2.81,3.9,0,6.81,2.81,6.81,6.94Zm-1.85,0c0-3.17-2.21-5.33-5.1-5.33s-5.1,2.16-5.1,5.33,2.18,5.33,5.1,5.33,5.1-2.13,5.1-5.33Z"/>
    <path d="m339.44,302.44v1.79c-.16,0-.31-.03-.44-.03-2.86,0-4.6,1.82-4.6,5.04v6.97h-1.85v-13.68h1.77v2.68c.86-1.82,2.6-2.78,5.12-2.78Z"/>
    <path d="m341.26,309.38c0-4.06,2.96-6.94,6.97-6.94s6.94,2.89,6.94,6.94-2.94,6.97-6.94,6.97-6.97-2.91-6.97-6.97Zm12.04,0c0-3.2-2.16-5.33-5.07-5.33s-5.1,2.13-5.1,5.33,2.18,5.33,5.1,5.33,5.07-2.13,5.07-5.33Z"/>
    <path d="m357.56,309.38c0-4.08,2.96-6.94,7.05-6.94,2.31,0,4.26.91,5.36,2.7l-1.38.94c-.94-1.38-2.39-2.03-3.98-2.03-2.99,0-5.17,2.13-5.17,5.33s2.18,5.33,5.17,5.33c1.59,0,3.04-.62,3.98-2l1.38.94c-1.09,1.77-3.04,2.7-5.36,2.7-4.08,0-7.05-2.89-7.05-6.97Z"/>
    <path d="m385.25,309.95h-11.44c.21,2.86,2.39,4.76,5.38,4.76,1.66,0,3.15-.6,4.19-1.79l1.04,1.2c-1.22,1.46-3.12,2.24-5.28,2.24-4.26,0-7.18-2.91-7.18-6.97s2.83-6.94,6.68-6.94,6.63,2.83,6.63,6.94c0,.16-.03.36-.03.57Zm-11.44-1.38h9.7c-.23-2.68-2.18-4.55-4.86-4.55s-4.6,1.87-4.84,4.55Z"/>
    <path d="m401.53,296.92v19.29h-1.77v-2.7c-1.12,1.85-3.02,2.83-5.28,2.83-3.9,0-6.81-2.83-6.81-6.97s2.91-6.94,6.81-6.94c2.18,0,4.06.94,5.2,2.7v-8.22h1.85Zm-1.82,12.46c0-3.2-2.18-5.33-5.07-5.33s-5.1,2.13-5.1,5.33,2.18,5.33,5.1,5.33,5.07-2.13,5.07-5.33Z"/>
    <path d="m406.26,298.22c0-.7.6-1.3,1.35-1.3s1.35.57,1.35,1.27c0,.75-.57,1.35-1.35,1.35s-1.35-.6-1.35-1.33Zm.42,4.32h1.85v13.68h-1.85v-13.68Z"/>
    <path d="m436.24,308.29v7.93h-1.85v-7.75c0-2.89-1.46-4.37-3.93-4.37-2.81,0-4.58,1.82-4.58,4.94v7.18h-1.85v-7.75c0-2.89-1.46-4.37-3.95-4.37-2.78,0-4.58,1.82-4.58,4.94v7.18h-1.85v-13.68h1.77v2.5c.96-1.64,2.73-2.6,5.02-2.6s4.03.96,4.86,2.89c.99-1.77,2.94-2.89,5.41-2.89,3.33,0,5.51,1.92,5.51,5.85Z"/>
    <path d="m453.21,309.95h-11.44c.21,2.86,2.39,4.76,5.38,4.76,1.66,0,3.15-.6,4.19-1.79l1.04,1.2c-1.22,1.46-3.12,2.24-5.28,2.24-4.26,0-7.18-2.91-7.18-6.97s2.83-6.94,6.68-6.94,6.63,2.83,6.63,6.94c0,.16-.03.36-.03.57Zm-11.44-1.38h9.7c-.23-2.68-2.18-4.55-4.86-4.55s-4.6,1.87-4.84,4.55Z"/>
    <path d="m469.59,308.29v7.93h-1.85v-7.75c0-2.89-1.51-4.37-4.11-4.37-2.94,0-4.78,1.82-4.78,4.94v7.18h-1.85v-13.68h1.77v2.52c.99-1.66,2.83-2.63,5.2-2.63,3.33,0,5.62,1.92,5.62,5.85Z"/>
    <path d="m481.81,315.38c-.73.65-1.82.96-2.89.96-2.57,0-4-1.46-4-3.98v-8.27h-2.44v-1.56h2.44v-2.99h1.85v2.99h4.16v1.56h-4.16v8.16c0,1.61.83,2.5,2.37,2.5.75,0,1.51-.23,2.03-.7l.65,1.33Z"/>
    <path d="m483.29,309.38c0-4.06,2.96-6.94,6.97-6.94s6.94,2.89,6.94,6.94-2.94,6.97-6.94,6.97-6.97-2.91-6.97-6.97Zm12.04,0c0-3.2-2.16-5.33-5.07-5.33s-5.1,2.13-5.1,5.33,2.18,5.33,5.1,5.33,5.07-2.13,5.07-5.33Z"/>
    <path d="m499.08,314.66l.83-1.46c1.09.86,2.94,1.53,4.86,1.53,2.6,0,3.67-.88,3.67-2.24,0-3.56-8.87-.75-8.87-6.16,0-2.24,1.92-3.9,5.41-3.9,1.77,0,3.69.49,4.84,1.27l-.81,1.48c-1.2-.83-2.63-1.17-4.03-1.17-2.47,0-3.56.96-3.56,2.26,0,3.69,8.87.91,8.87,6.16,0,2.37-2.08,3.9-5.64,3.9-2.26,0-4.45-.73-5.56-1.69Z"/>
    <path d="m532.98,296.92v19.29h-1.77v-2.7c-1.12,1.85-3.02,2.83-5.28,2.83-3.9,0-6.81-2.83-6.81-6.97s2.91-6.94,6.81-6.94c2.18,0,4.06.94,5.2,2.7v-8.22h1.85Zm-1.82,12.46c0-3.2-2.18-5.33-5.07-5.33s-5.1,2.13-5.1,5.33,2.18,5.33,5.1,5.33,5.07-2.13,5.07-5.33Z"/>
    <path d="m550.04,309.95h-11.44c.21,2.86,2.39,4.76,5.38,4.76,1.66,0,3.15-.6,4.19-1.79l1.04,1.2c-1.22,1.46-3.12,2.24-5.28,2.24-4.26,0-7.18-2.91-7.18-6.97s2.83-6.94,6.68-6.94,6.63,2.83,6.63,6.94c0,.16-.03.36-.03.57Zm-11.44-1.38h9.7c-.23-2.68-2.18-4.55-4.86-4.55s-4.6,1.87-4.84,4.55Z"/>
    <path d="m561.03,315.38c-.73.65-1.82.96-2.89.96-2.57,0-4-1.46-4-3.98v-8.27h-2.44v-1.56h2.44v-2.99h1.85v2.99h4.16v1.56h-4.16v8.16c0,1.61.83,2.5,2.37,2.5.75,0,1.51-.23,2.03-.7l.65,1.33Z"/>
    <path d="m575.8,309.95h-11.44c.21,2.86,2.39,4.76,5.38,4.76,1.66,0,3.15-.6,4.19-1.79l1.04,1.2c-1.22,1.46-3.12,2.24-5.28,2.24-4.26,0-7.18-2.91-7.18-6.97s2.83-6.94,6.68-6.94,6.63,2.83,6.63,6.94c0,.16-.03.36-.03.57Zm-11.44-1.38h9.7c-.23-2.68-2.18-4.55-4.86-4.55s-4.6,1.87-4.84,4.55Z"/>
    <path d="m586.49,302.44v1.79c-.16,0-.31-.03-.44-.03-2.86,0-4.6,1.82-4.6,5.04v6.97h-1.85v-13.68h1.77v2.68c.86-1.82,2.6-2.78,5.12-2.78Z"/>
    <path d="m612.38,308.29v7.93h-1.85v-7.75c0-2.89-1.46-4.37-3.93-4.37-2.81,0-4.58,1.82-4.58,4.94v7.18h-1.85v-7.75c0-2.89-1.46-4.37-3.95-4.37-2.78,0-4.58,1.82-4.58,4.94v7.18h-1.85v-13.68h1.77v2.5c.96-1.64,2.73-2.6,5.02-2.6s4.03.96,4.86,2.89c.99-1.77,2.94-2.89,5.41-2.89,3.33,0,5.51,1.92,5.51,5.85Z"/>
    <path d="m616.98,298.22c0-.7.6-1.3,1.35-1.3s1.35.57,1.35,1.27c0,.75-.57,1.35-1.35,1.35s-1.35-.6-1.35-1.33Zm.42,4.32h1.85v13.68h-1.85v-13.68Z"/>
    <path d="m636.98,308.29v7.93h-1.85v-7.75c0-2.89-1.51-4.37-4.11-4.37-2.94,0-4.78,1.82-4.78,4.94v7.18h-1.85v-13.68h1.77v2.52c.99-1.66,2.83-2.63,5.2-2.63,3.33,0,5.62,1.92,5.62,5.85Z"/>
    <path d="m652.32,307.74v8.48h-1.77v-2.13c-.83,1.4-2.44,2.26-4.71,2.26-3.09,0-4.99-1.61-4.99-3.98,0-2.11,1.35-3.87,5.28-3.87h4.34v-.83c0-2.34-1.33-3.61-3.87-3.61-1.77,0-3.43.62-4.55,1.61l-.83-1.38c1.38-1.17,3.41-1.85,5.56-1.85,3.54,0,5.54,1.77,5.54,5.3Zm-1.85,4.37v-2.24h-4.29c-2.65,0-3.51,1.04-3.51,2.44,0,1.59,1.27,2.57,3.46,2.57s3.61-.99,4.34-2.78Z"/>
    <path d="m669.87,296.92v19.29h-1.77v-2.7c-1.12,1.85-3.02,2.83-5.28,2.83-3.9,0-6.81-2.83-6.81-6.97s2.91-6.94,6.81-6.94c2.18,0,4.06.94,5.2,2.7v-8.22h1.85Zm-1.82,12.46c0-3.2-2.18-5.33-5.07-5.33s-5.1,2.13-5.1,5.33,2.18,5.33,5.1,5.33,5.07-2.13,5.07-5.33Z"/>
    <path d="m673.64,309.38c0-4.06,2.96-6.94,6.97-6.94s6.94,2.89,6.94,6.94-2.94,6.97-6.94,6.97-6.97-2.91-6.97-6.97Zm12.04,0c0-3.2-2.16-5.33-5.07-5.33s-5.1,2.13-5.1,5.33,2.18,5.33,5.1,5.33,5.07-2.13,5.07-5.33Z"/>
    <path d="m689.42,314.66l.83-1.46c1.09.86,2.94,1.53,4.86,1.53,2.6,0,3.67-.88,3.67-2.24,0-3.56-8.87-.75-8.87-6.16,0-2.24,1.92-3.9,5.41-3.9,1.77,0,3.69.49,4.84,1.27l-.81,1.48c-1.2-.83-2.63-1.17-4.03-1.17-2.47,0-3.56.96-3.56,2.26,0,3.69,8.87.91,8.87,6.16,0,2.37-2.08,3.9-5.64,3.9-2.26,0-4.45-.73-5.56-1.69Z"/>
    <path d="m724.7,309.38c0,4.16-2.91,6.97-6.81,6.97-2.18,0-4.06-.94-5.2-2.7v7.62h-1.85v-18.72h1.77v2.7c1.12-1.82,3.02-2.81,5.28-2.81,3.9,0,6.81,2.81,6.81,6.94Zm-1.85,0c0-3.17-2.21-5.33-5.1-5.33s-5.1,2.16-5.1,5.33,2.18,5.33,5.1,5.33,5.1-2.13,5.1-5.33Z"/>
    <path d="m740.38,309.95h-11.44c.21,2.86,2.39,4.76,5.38,4.76,1.66,0,3.15-.6,4.19-1.79l1.04,1.2c-1.22,1.46-3.12,2.24-5.28,2.24-4.26,0-7.18-2.91-7.18-6.97s2.83-6.94,6.68-6.94,6.63,2.83,6.63,6.94c0,.16-.03.36-.03.57Zm-11.44-1.38h9.7c-.23-2.68-2.18-4.55-4.86-4.55s-4.6,1.87-4.84,4.55Z"/>
    <path d="m744.18,296.92h1.85v19.29h-1.85v-19.29Z"/>
    <path d="m749.79,309.38c0-4.06,2.96-6.94,6.97-6.94s6.94,2.89,6.94,6.94-2.94,6.97-6.94,6.97-6.97-2.91-6.97-6.97Zm12.04,0c0-3.2-2.16-5.33-5.07-5.33s-5.1,2.13-5.1,5.33,2.18,5.33,5.1,5.33,5.07-2.13,5.07-5.33Z"/>
    <path d="m788.14,309.38c0,4.16-2.91,6.97-6.81,6.97-2.18,0-4.06-.94-5.2-2.7v7.62h-1.85v-18.72h1.77v2.7c1.12-1.82,3.02-2.81,5.28-2.81,3.9,0,6.81,2.81,6.81,6.94Zm-1.85,0c0-3.17-2.21-5.33-5.1-5.33s-5.1,2.16-5.1,5.33,2.18,5.33,5.1,5.33,5.1-2.13,5.1-5.33Z"/>
    <path d="m798.8,302.44v1.79c-.16,0-.31-.03-.44-.03-2.86,0-4.6,1.82-4.6,5.04v6.97h-1.85v-13.68h1.77v2.68c.86-1.82,2.6-2.78,5.12-2.78Z"/>
    <path d="m800.62,309.38c0-4.06,2.96-6.94,6.97-6.94s6.94,2.89,6.94,6.94-2.94,6.97-6.94,6.97-6.97-2.91-6.97-6.97Zm12.04,0c0-3.2-2.16-5.33-5.07-5.33s-5.1,2.13-5.1,5.33,2.18,5.33,5.1,5.33,5.07-2.13,5.07-5.33Zm-3.22-12.17h2.47l-4.21,3.22h-1.82l3.56-3.22Z"/>
    <path d="m832.16,309.38c0,4.16-2.91,6.97-6.81,6.97-2.18,0-4.06-.94-5.2-2.7v7.62h-1.85v-18.72h1.77v2.7c1.12-1.82,3.02-2.81,5.28-2.81,3.9,0,6.81,2.81,6.81,6.94Zm-1.85,0c0-3.17-2.21-5.33-5.1-5.33s-5.1,2.16-5.1,5.33,2.18,5.33,5.1,5.33,5.1-2.13,5.1-5.33Z"/>
    <path d="m842.82,302.44v1.79c-.16,0-.31-.03-.44-.03-2.86,0-4.6,1.82-4.6,5.04v6.97h-1.85v-13.68h1.77v2.68c.86-1.82,2.6-2.78,5.12-2.78Z"/>
    <path d="m845.73,298.22c0-.7.6-1.3,1.35-1.3s1.35.57,1.35,1.27c0,.75-.57,1.35-1.35,1.35s-1.35-.6-1.35-1.33Zm.42,4.32h1.85v13.68h-1.85v-13.68Z"/>
    <path d="m851.76,309.38c0-4.06,2.96-6.94,6.97-6.94s6.94,2.89,6.94,6.94-2.94,6.97-6.94,6.97-6.97-2.91-6.97-6.97Zm12.04,0c0-3.2-2.16-5.33-5.07-5.33s-5.1,2.13-5.1,5.33,2.18,5.33,5.1,5.33,5.07-2.13,5.07-5.33Z"/>
    <path d="m888.74,296.92v19.29h-1.77v-2.7c-1.12,1.85-3.02,2.83-5.28,2.83-3.9,0-6.81-2.83-6.81-6.97s2.91-6.94,6.81-6.94c2.18,0,4.06.94,5.2,2.7v-8.22h1.85Zm-1.82,12.46c0-3.2-2.18-5.33-5.07-5.33s-5.1,2.13-5.1,5.33,2.18,5.33,5.1,5.33,5.07-2.13,5.07-5.33Z"/>
    <path d="m893.47,298.22c0-.7.6-1.3,1.35-1.3s1.35.57,1.35,1.27c0,.75-.57,1.35-1.35,1.35s-1.35-.6-1.35-1.33Zm.42,4.32h1.85v13.68h-1.85v-13.68Z"/>
    <path d="m907.77,302.44v1.79c-.16,0-.31-.03-.44-.03-2.86,0-4.6,1.82-4.6,5.04v6.97h-1.85v-13.68h1.77v2.68c.86-1.82,2.6-2.78,5.12-2.78Z"/>
    <path d="m922.87,309.95h-11.44c.21,2.86,2.39,4.76,5.38,4.76,1.66,0,3.15-.6,4.19-1.79l1.04,1.2c-1.22,1.46-3.12,2.24-5.28,2.24-4.26,0-7.18-2.91-7.18-6.97s2.83-6.94,6.68-6.94,6.63,2.83,6.63,6.94c0,.16-.03.36-.03.57Zm-11.44-1.38h9.7c-.23-2.68-2.18-4.55-4.86-4.55s-4.6,1.87-4.84,4.55Z"/>
    <path d="m926.25,298.22c0-.7.6-1.3,1.35-1.3s1.35.57,1.35,1.27c0,.75-.57,1.35-1.35,1.35s-1.35-.6-1.35-1.33Zm.42,4.32h1.85v13.68h-1.85v-13.68Z"/>
    <path d="m940.87,315.38c-.73.65-1.82.96-2.89.96-2.57,0-4-1.46-4-3.98v-8.27h-2.44v-1.56h2.44v-2.99h1.85v2.99h4.16v1.56h-4.16v8.16c0,1.61.83,2.5,2.37,2.5.75,0,1.51-.23,2.03-.7l.65,1.33Z"/>
    <path d="m942.35,309.38c0-4.06,2.96-6.94,6.97-6.94s6.94,2.89,6.94,6.94-2.94,6.97-6.94,6.97-6.97-2.91-6.97-6.97Zm12.04,0c0-3.2-2.16-5.33-5.07-5.33s-5.1,2.13-5.1,5.33,2.18,5.33,5.1,5.33,5.07-2.13,5.07-5.33Z"/>
    <path d="m958.44,314.92c0-.81.62-1.4,1.38-1.4s1.4.6,1.4,1.4-.65,1.43-1.4,1.43-1.38-.62-1.38-1.43Z"/>
  </g>
</svg>