<?xml version="1.0" encoding="UTF-8"?>
<svg id="Layer_2" data-name="Layer 2" xmlns="http://www.w3.org/2000/svg" viewBox="0 0 509.21 569.8">
  <defs>
    <style>
      .cls-1 {
        fill: #002c6b;
      }

      .cls-2 {
        fill: #eaeaea;
      }

      .cls-3 {
        fill: #f9f9f9;
      }

      .cls-4 {
        fill: none;
        stroke: #d8d8d8;
        stroke-miterlimit: 10;
        stroke-width: 2px;
      }

      .cls-5 {
        fill: #cecece;
      }
    </style>
  </defs>
  <g id="Layer_1-2" data-name="Layer 1">
    <g>
      <path class="cls-4" d="m303.81,552.43c109.93-38.49,188.78-143.13,188.78-266.2S411.63,55.73,299.4,18.53"/>
      <g>
        <circle class="cls-2" cx="210.61" cy="286.23" r="210.61" transform="translate(-140.71 232.76) rotate(-45)"/>
        <circle class="cls-3" cx="210.61" cy="286.23" r="197.55"/>
      </g>
      <path class="cls-5" d="m313.02,14.43c0,7.97-6.46,14.43-14.43,14.43s-14.43-6.46-14.43-14.43,6.46-14.43,14.43-14.43,14.43,6.46,14.43,14.43h0Z"/>
      <path class="cls-5" d="m460.16,125.5c0,7.97-6.46,14.43-14.43,14.43s-14.43-6.46-14.43-14.43,6.46-14.43,14.43-14.43,14.43,6.46,14.43,14.43Z"/>
      <circle class="cls-5" cx="494.78" cy="292.83" r="14.43"/>
      <path class="cls-5" d="m447.18,460.16c0,7.97-6.46,14.43-14.43,14.43s-14.43-6.46-14.43-14.43,6.46-14.43,14.43-14.43,14.43,6.46,14.43,14.43Z"/>
      <circle class="cls-5" cx="302.93" cy="555.37" r="14.43"/>
      <g>
        <path class="cls-1" d="m153.98,278.63v7.65h-26.52v-35h25.9v7.65h-16.65v5.9h14.67v7.4h-14.67v6.4h17.27Z"/>
        <path class="cls-1" d="m156.63,283.93l2.69-6.5c2.36,1.55,5.8,2.5,8.92,2.5s4.01-.7,4.01-1.85c0-3.65-15.1.5-15.1-10.35,0-5.1,4.43-9,12.46-9,3.58,0,7.55.8,10.1,2.3l-2.69,6.45c-2.55-1.5-5.1-2-7.36-2-3.02,0-4.1.9-4.1,1.9,0,3.75,15.05-.3,15.05,10.45,0,5-4.34,8.9-12.64,8.9-4.34,0-8.82-1.15-11.32-2.8h-.02Z"/>
        <path class="cls-1" d="m202.11,285.18c-1.56,1.05-3.87,1.55-6.23,1.55-6.56,0-10.38-3.4-10.38-10.35v-9.1h-3.73v-7.1h3.73v-7.05h8.96v7.05h5.85v7.1h-5.85v9c0,2,1.09,3.1,2.69,3.1.99,0,1.98-.3,2.74-.85l2.22,6.65h0Z"/>
        <path class="cls-1" d="m229.52,271.23v15.05h-8.35v-3.5c-1.27,2.6-3.82,3.95-7.55,3.95-6.13,0-9.53-3.65-9.53-8.35,0-5,3.44-8.1,11.37-8.1h5.09c-.14-2.75-1.89-4.3-5.43-4.3-2.45,0-5.19.9-6.93,2.35l-3.02-6.45c2.92-2.05,7.27-3.15,11.28-3.15,8.3,0,13.07,3.9,13.07,12.5h0Zm-8.96,6.35v-2.35h-3.87c-2.88,0-3.92,1.1-3.92,2.75s1.23,2.75,3.35,2.75c1.98,0,3.73-1,4.43-3.15h.01Z"/>
        <path class="cls-1" d="m262.74,249.18v37.1h-8.54v-2.7c-1.7,2.15-4.2,3.15-7.5,3.15-6.98,0-12.6-5.4-12.6-14.05s5.62-13.95,12.6-13.95c2.97,0,5.38.9,7.08,2.8v-12.35h8.96Zm-8.82,23.5c0-4.1-2.31-6.4-5.33-6.4s-5.38,2.3-5.38,6.4,2.31,6.5,5.38,6.5,5.33-2.35,5.33-6.5Z"/>
        <path class="cls-1" d="m266.9,272.68c0-8.15,6.09-13.95,14.44-13.95s14.44,5.8,14.44,13.95-5.99,14.05-14.44,14.05-14.44-5.85-14.44-14.05Zm19.82,0c0-4.1-2.31-6.4-5.38-6.4s-5.38,2.3-5.38,6.4,2.36,6.5,5.38,6.5,5.38-2.35,5.38-6.5Z"/>
        <path class="cls-1" d="m114.42,321.77v15.5h-8.96v-13.95c0-3.9-1.6-5.55-4.2-5.55-2.88,0-5.1,1.9-5.1,6.4v13.1h-8.96v-27.1h8.54v2.95c2.03-2.25,4.91-3.4,8.11-3.4,5.99,0,10.57,3.65,10.57,12.05h0Z"/>
        <path class="cls-1" d="m146.41,326.12h-18.59c.75,2.75,2.97,4.35,6.28,4.35,2.5,0,4.15-.75,5.9-2.35l4.72,5.2c-2.45,2.9-6.04,4.4-10.9,4.4-9.11,0-15-5.95-15-14.05s5.99-13.95,14.06-13.95c7.55,0,13.68,5.1,13.68,14.05,0,.7-.09,1.6-.14,2.35h-.01Zm-18.73-5h10.47c-.47-2.85-2.45-4.65-5.24-4.65s-4.72,1.8-5.24,4.65h.01Z"/>
        <path class="cls-1" d="m149.1,323.67c0-8.15,6.09-13.95,14.44-13.95s14.44,5.8,14.44,13.95-5.99,14.05-14.44,14.05-14.44-5.85-14.44-14.05Zm19.82,0c0-4.1-2.31-6.4-5.38-6.4s-5.38,2.3-5.38,6.4,2.36,6.5,5.38,6.5,5.38-2.35,5.38-6.5Z"/>
        <path class="cls-1" d="m182.13,300.17h8.96v37.1h-8.96v-37.1h0Z"/>
        <path class="cls-1" d="m195.91,302.12c0-2.85,2.17-5.05,5.47-5.05s5.47,2.05,5.47,4.9c0,3-2.17,5.2-5.47,5.2s-5.47-2.2-5.47-5.05h0Zm.99,8.05h8.96v27.1h-8.96v-27.1h0Z"/>
        <path class="cls-1" d="m240.31,323.67c0,8.65-5.61,14.05-12.55,14.05-3.35,0-5.85-1-7.55-3.15v2.7h-8.54v-37.1h8.96v12.35c1.75-1.9,4.15-2.8,7.12-2.8,6.94,0,12.55,5.35,12.55,13.95h.01Zm-9.06,0c0-4.1-2.36-6.4-5.38-6.4s-5.38,2.3-5.38,6.4,2.36,6.5,5.38,6.5,5.38-2.35,5.38-6.5Z"/>
        <path class="cls-1" d="m270.46,326.12h-18.59c.75,2.75,2.97,4.35,6.28,4.35,2.5,0,4.15-.75,5.9-2.35l4.72,5.2c-2.45,2.9-6.04,4.4-10.9,4.4-9.11,0-15-5.95-15-14.05s5.99-13.95,14.06-13.95c7.55,0,13.68,5.1,13.68,14.05,0,.7-.09,1.6-.14,2.35h0Zm-18.73-5h10.47c-.47-2.85-2.45-4.65-5.24-4.65s-4.72,1.8-5.24,4.65h0Z"/>
        <path class="cls-1" d="m291.88,309.72v8.55c-.8-.1-1.37-.15-2.03-.15-3.63,0-6.13,1.95-6.13,6.7v12.45h-8.96v-27.1h8.54v3.25c1.84-2.45,4.81-3.7,8.59-3.7h-.01Z"/>
        <path class="cls-1" d="m319.34,322.22v15.05h-8.35v-3.5c-1.27,2.6-3.82,3.95-7.55,3.95-6.13,0-9.53-3.65-9.53-8.35,0-5,3.44-8.1,11.37-8.1h5.09c-.14-2.75-1.89-4.3-5.42-4.3-2.45,0-5.19.9-6.94,2.35l-3.02-6.45c2.92-2.05,7.27-3.15,11.28-3.15,8.3,0,13.07,3.9,13.07,12.5h0Zm-8.96,6.35v-2.35h-3.87c-2.88,0-3.92,1.1-3.92,2.75s1.23,2.75,3.35,2.75c1.98,0,3.73-1,4.43-3.15h.01Z"/>
        <path class="cls-1" d="m325.01,300.17h8.96v37.1h-8.96v-37.1h0Z"/>
      </g>
    </g>
  </g>
</svg>