<?xml version="1.0" encoding="UTF-8"?>
<svg id="Layer_2" data-name="Layer 2" xmlns="http://www.w3.org/2000/svg" viewBox="0 0 132.39 132.39">
  <defs>
    <style>
      .cls-1 {
        fill: #fff;
      }

      .cls-2 {
        fill: #77c5ba;
      }
    </style>
  </defs>
  <g id="Layer_1-2" data-name="Layer 1">
    <g>
      <circle class="cls-2" cx="66.19" cy="66.19" r="66.19"/>
      <path class="cls-1" d="m84.27,77.45c0,4.4-1.71,8.06-5.14,10.97-3.43,2.92-7.74,4.38-12.94,4.38-5.51,0-9.91-1.42-13.18-4.27-3.27-2.85-4.9-6.49-4.9-10.94,0-2.83.82-5.38,2.46-7.67,1.64-2.29,3.95-4.11,6.94-5.45v-.21c-2.73-1.46-4.76-3.05-6.07-4.79-1.31-1.73-1.96-3.9-1.96-6.49,0-3.83,1.57-7.02,4.72-9.57,3.14-2.55,7.14-3.83,12-3.83s9.14,1.22,12.17,3.66c3.03,2.44,4.55,5.54,4.55,9.3,0,2.3-.72,4.56-2.15,6.79-1.44,2.22-3.54,3.96-6.32,5.21v.21c3.19,1.37,5.63,3.05,7.31,5.06,1.69,2.01,2.53,4.56,2.53,7.66Zm-7.04.65c0-2.1-.46-3.78-1.38-5.04-.92-1.27-2.73-2.54-5.42-3.81-1.07-.5-2.25-.97-3.52-1.4-1.28-.43-2.97-1.04-5.09-1.81-2.05,1.12-3.7,2.63-4.94,4.55-1.24,1.91-1.86,4.08-1.86,6.49,0,3.08,1.06,5.62,3.18,7.62,2.12,2.01,4.81,3.01,8.07,3.01s5.99-.85,7.98-2.56c1.99-1.71,2.99-4.06,2.99-7.04Zm-1.06-25.5c0-2.44-.94-4.38-2.82-5.83-1.88-1.45-4.28-2.17-7.2-2.17s-5.22.68-7.06,2.05-2.75,3.21-2.75,5.54c0,1.64.46,3.06,1.38,4.26.92,1.2,2.32,2.26,4.19,3.2.84.41,2.06.95,3.64,1.61,1.58.66,3.13,1.21,4.63,1.64,2.26-1.5,3.82-3.06,4.68-4.68.87-1.62,1.3-3.49,1.3-5.61Z"/>
    </g>
  </g>
</svg>