<svg xmlns="http://www.w3.org/2000/svg" width="1419.97" height="328" viewBox="0 0 1419.97 328">
  <g id="_02" data-name="02" transform="translate(-36.03 -50)">
    <g id="Grupo_3852" data-name="Grupo 3852">
      <path id="Caminho_28234" data-name="Caminho 28234" d="M1456,378H69.46V132.18H1456ZM70.44,377.23H1455.01V132.96H70.44V377.23Z" fill="#036697"/>
      <rect id="Retângulo_783" data-name="Retângulo 783" width="1389.75" height="250.43" transform="translate(47.25 106.57)" fill="#ebf9ff"/>
    </g>
    <g id="Grupo_3859" data-name="Grupo 3859">
      <g id="Grupo_3856" data-name="Grupo 3856">
        <g id="Grupo_3853" data-name="Grupo 3853">
          <path id="Caminho_28235" data-name="Caminho 28235" d="M138,80.66v52.23L92.76,159.01,47.53,132.89V80.66L92.76,54.54Z" fill="#fff"/>
          <path id="Caminho_28236" data-name="Caminho 28236" d="M92.76,163.56,43.59,135.17V78.39L92.76,50l49.17,28.39v56.78L92.76,163.56Zm-41.3-32.93,41.3,23.85,41.3-23.85V82.94L92.76,59.09,51.46,82.94v47.69Z" fill="#036697"/>
        </g>
        <g id="Grupo_3854" data-name="Grupo 3854">
          <line id="Linha_30" data-name="Linha 30" y1="20.86" x2="36.13" transform="translate(92.47 128.8)" fill="#036697"/>
          <rect id="Retângulo_784" data-name="Retângulo 784" width="41.71" height="1.57" transform="matrix(0.866, -0.5, 0.5, 0.866, 92.077, 148.996)" fill="#036697"/>
        </g>
        <g id="Grupo_3855" data-name="Grupo 3855">
          <line id="Linha_31" data-name="Linha 31" x1="36.12" y2="20.86" transform="translate(56.35 66.24)" fill="#036697"/>
          <rect id="Retângulo_785" data-name="Retângulo 785" width="41.71" height="1.57" transform="matrix(0.866, -0.5, 0.5, 0.866, 55.957, 86.418)" fill="#036697"/>
        </g>
        <path id="Caminho_28237" data-name="Caminho 28237" d="M148.98,116.72v-2.44l-1.29-.75V75.6l-32.8-18.94V54.92l-2.11-1.22-2.11,1.22v2.44l2.11,1.22,1.54-.89,32.19,18.59v36.98l-1.75,1.02v2.44l2.11,1.22Z" fill="#036697"/>
        <path id="Caminho_28238" data-name="Caminho 28238" d="M72.23,159.08l2.11-1.22v-2.44l-2.11-1.22-1.54.89L38.5,136.5V99.51l1.75-1.01V96.06l-2.11-1.22-2.11,1.22V98.5l1.29.74v37.94l32.8,18.93v1.75Z" fill="#036697"/>
      </g>
      <g id="Grupo_3858" data-name="Grupo 3858">
        <path id="Caminho_28239" data-name="Caminho 28239" d="M99.54,133.56a1.166,1.166,0,0,0,.85-.94c.23-1.75-.32-6.17-.1-7.92.33-2.6,2.19-3.67,3.55-5.88,1.94-3.13,3.94-6.25,4.57-9.98,1.22-7.25-2.22-16.48-10.75-20.01a18.761,18.761,0,0,0-18.6,2.21,18.37,18.37,0,0,0-5.26,6.29,14.407,14.407,0,0,0-1.6,5.01,19.465,19.465,0,0,1-.9,5.26,52.127,52.127,0,0,1-2.58,4.76c-.92,1.78.38,2.49,1.93,3.11,1.9.76,1.21,2.72,1.06,4.59-.41,5.03.85,6.34,5.9,6.56,2.87.13,2.87,2.4,2.87,5.28a6.488,6.488,0,0,0,.04,1.53,1.061,1.061,0,0,0,.22.4,1.449,1.449,0,0,0,.32.37c.03.04.07.08.1.12,0-.01.02-.02.03-.03a5.614,5.614,0,0,0,2.34.3c1.4.14,2.5.06,3.9.07a53.675,53.675,0,0,0,7.7-.23,14.224,14.224,0,0,0,4.41-.87Z" fill="#003e56"/>
        <path id="Caminho_28240" data-name="Caminho 28240" d="M111.7,86.86v1.79a.611.611,0,1,0,1.22,0V86.86h1.82a.605.605,0,1,0,0-1.21h-1.81V83.86a.611.611,0,1,0-1.22,0v1.79h-1.82a.61.61,0,1,0,0,1.22h1.81Z" fill="#003e56"/>
        <path id="Caminho_28241" data-name="Caminho 28241" d="M105.58,82.15v.97a.316.316,0,0,0,.33.35.311.311,0,0,0,.33-.35v-.97h.99a.318.318,0,0,0,.34-.33.313.313,0,0,0-.34-.33h-.99v-.97a.316.316,0,0,0-.33-.35.311.311,0,0,0-.33.35v.97h-.99a.318.318,0,0,0-.34.33.325.325,0,0,0,.34.34h.99Z" fill="#003e56"/>
        <g id="Grupo_3857" data-name="Grupo 3857">
          <path id="Caminho_28242" data-name="Caminho 28242" d="M99.63,108.65a6.156,6.156,0,0,1-6.03-6.2v-2.37a9.776,9.776,0,0,1-3.76-5.62,10.277,10.277,0,0,1,2.28-9.25,9.881,9.881,0,0,1,6.25-3.3,9.5,9.5,0,0,1,1.31-.09,10.147,10.147,0,0,1,6.06,18.27v2.28a6.28,6.28,0,0,1-3.63,5.75,5.937,5.937,0,0,1-2.46.54Z" fill="#fff"/>
          <path id="Caminho_28243" data-name="Caminho 28243" d="M107.41,87.46a8.956,8.956,0,0,1-2.71,11.93.313.313,0,0,0-.15.3v2.68a5.112,5.112,0,0,1-2.94,4.68,4.8,4.8,0,0,1-6.23-2.16,4.971,4.971,0,0,1-.61-2.42V99.68a.276.276,0,0,0-.15-.28,8.655,8.655,0,0,1-3.65-5.2,9.168,9.168,0,0,1,2.02-8.19,8.785,8.785,0,0,1,5.53-2.92,8.989,8.989,0,0,1,8.88,4.39Z" fill="#003e56"/>
          <path id="Caminho_28244" data-name="Caminho 28244" d="M103.81,98.01a7.3,7.3,0,1,0-8.16.1,1.637,1.637,0,0,1,.73,1.4v.8h6.52v-.6a1.991,1.991,0,0,1,.89-1.7Z" fill="#003e56"/>
          <path id="Caminho_28245" data-name="Caminho 28245" d="M106.77,90.22a7.313,7.313,0,0,1-2.96,7.79,1.979,1.979,0,0,0-.89,1.7v.6H96.4v-.8a1.661,1.661,0,0,0-.73-1.4,7.327,7.327,0,1,1,11.12-7.89Z" fill="#fff"/>
        </g>
      </g>
    </g>
    <g id="Grupo_3860" data-name="Grupo 3860">
      <path id="Caminho_28246" data-name="Caminho 28246" d="M143.28,190.35c0-5.33,4.06-9.26,9.54-9.26a8.828,8.828,0,0,1,6.66,2.65l-1.22,1.22a7.2,7.2,0,0,0-5.38-2.16,7.542,7.542,0,1,0,0,15.08,7.143,7.143,0,0,0,5.38-2.18l1.22,1.22a8.833,8.833,0,0,1-6.68,2.68,9.137,9.137,0,0,1-9.52-9.26Z" fill="#231f20"/>
      <path id="Caminho_28247" data-name="Caminho 28247" d="M161.22,192.61a6.955,6.955,0,1,1,6.97,6.97A6.721,6.721,0,0,1,161.22,192.61Zm12.04,0a5.091,5.091,0,1,0-5.07,5.33A4.987,4.987,0,0,0,173.26,192.61Z" fill="#231f20"/>
      <path id="Caminho_28248" data-name="Caminho 28248" d="M177,197.89l.83-1.46a8.244,8.244,0,0,0,4.86,1.53c2.6,0,3.67-.88,3.67-2.24,0-3.56-8.87-.75-8.87-6.16,0-2.24,1.92-3.9,5.41-3.9a9.292,9.292,0,0,1,4.84,1.27l-.81,1.48a7.042,7.042,0,0,0-4.03-1.17c-2.47,0-3.56.96-3.56,2.26,0,3.69,8.87.91,8.87,6.16,0,2.37-2.08,3.9-5.64,3.9a9.123,9.123,0,0,1-5.56-1.69Z" fill="#231f20"/>
      <path id="Caminho_28249" data-name="Caminho 28249" d="M198.81,198.62a4.4,4.4,0,0,1-2.89.96,3.624,3.624,0,0,1-4-3.98v-8.27h-2.44v-1.56h2.44v-2.99h1.85v2.99h4.16v1.56h-4.16v8.17a2.194,2.194,0,0,0,2.37,2.5,3.056,3.056,0,0,0,2.03-.7l.65,1.33Z" fill="#231f20"/>
      <path id="Caminho_28250" data-name="Caminho 28250" d="M214.49,185.78v13.68h-1.77v-2.5a5.452,5.452,0,0,1-4.92,2.63c-3.48,0-5.77-1.95-5.77-5.88v-7.93h1.85v7.75c0,2.91,1.51,4.39,4.11,4.39,2.86,0,4.65-1.85,4.65-4.97v-7.18h1.85Z" fill="#231f20"/>
      <path id="Caminho_28251" data-name="Caminho 28251" d="M242.23,191.52v7.93h-1.85V191.7c0-2.89-1.46-4.37-3.93-4.37-2.81,0-4.58,1.82-4.58,4.94v7.18h-1.85V191.7c0-2.89-1.46-4.37-3.95-4.37-2.78,0-4.58,1.82-4.58,4.94v7.18h-1.85V185.77h1.77v2.5a5.525,5.525,0,0,1,5.02-2.6,4.878,4.878,0,0,1,4.86,2.89,5.96,5.96,0,0,1,5.41-2.89c3.33,0,5.51,1.92,5.51,5.85Z" fill="#231f20"/>
      <path id="Caminho_28252" data-name="Caminho 28252" d="M257.57,190.98v8.48H255.8v-2.13a5.138,5.138,0,0,1-4.71,2.26c-3.09,0-4.99-1.61-4.99-3.98,0-2.11,1.35-3.87,5.28-3.87h4.34v-.83c0-2.34-1.33-3.61-3.87-3.61a6.955,6.955,0,0,0-4.55,1.61l-.83-1.38a8.694,8.694,0,0,1,5.56-1.85c3.54,0,5.54,1.77,5.54,5.3Zm-1.85,4.37v-2.24h-4.29c-2.65,0-3.51,1.04-3.51,2.44,0,1.59,1.27,2.57,3.46,2.57a4.284,4.284,0,0,0,4.34-2.78Z" fill="#231f20"/>
      <path id="Caminho_28253" data-name="Caminho 28253" d="M261.58,191.6h6.81v1.61h-6.81Z" fill="#231f20"/>
      <path id="Caminho_28254" data-name="Caminho 28254" d="M270.62,197.89l.83-1.46a8.244,8.244,0,0,0,4.86,1.53c2.6,0,3.67-.88,3.67-2.24,0-3.56-8.87-.75-8.87-6.16,0-2.24,1.92-3.9,5.41-3.9a9.292,9.292,0,0,1,4.84,1.27l-.81,1.48a7.042,7.042,0,0,0-4.03-1.17c-2.47,0-3.56.96-3.56,2.26,0,3.69,8.87.91,8.87,6.16,0,2.37-2.08,3.9-5.64,3.9a9.123,9.123,0,0,1-5.56-1.69Z" fill="#231f20"/>
      <path id="Caminho_28255" data-name="Caminho 28255" d="M297.15,193.19H285.71a5.063,5.063,0,0,0,5.38,4.76,5.422,5.422,0,0,0,4.19-1.79l1.04,1.2a6.72,6.72,0,0,1-5.28,2.24c-4.26,0-7.18-2.91-7.18-6.97a6.58,6.58,0,0,1,6.68-6.94c3.85,0,6.63,2.83,6.63,6.94,0,.16-.03.36-.03.57Zm-11.44-1.38h9.7a4.86,4.86,0,0,0-9.7,0Z" fill="#231f20"/>
      <path id="Caminho_28256" data-name="Caminho 28256" d="M322.25,180.16v19.29h-1.77v-2.7a5.92,5.92,0,0,1-5.28,2.83,6.957,6.957,0,0,1,0-13.91,5.988,5.988,0,0,1,5.2,2.7v-8.22h1.85Zm-1.82,12.45a5.091,5.091,0,1,0-5.07,5.33A5,5,0,0,0,320.43,192.61Z" fill="#231f20"/>
      <path id="Caminho_28257" data-name="Caminho 28257" d="M326.98,181.46a1.335,1.335,0,0,1,1.35-1.3,1.31,1.31,0,0,1,1.35,1.27,1.35,1.35,0,0,1-2.7.02Zm.42,4.32h1.85v13.68H327.4V185.78Z" fill="#231f20"/>
      <path id="Caminho_28258" data-name="Caminho 28258" d="M344.04,197.92v1.53H332.91v-1.22l8.61-10.89h-8.45v-1.56h10.82V187l-8.61,10.92Z" fill="#231f20"/>
      <path id="Caminho_28259" data-name="Caminho 28259" d="M359.35,193.19H347.91a5.063,5.063,0,0,0,5.38,4.76,5.422,5.422,0,0,0,4.19-1.79l1.04,1.2a6.72,6.72,0,0,1-5.28,2.24c-4.26,0-7.18-2.91-7.18-6.97a6.58,6.58,0,0,1,6.68-6.94c3.85,0,6.63,2.83,6.63,6.94,0,.16-.03.36-.03.57Zm-11.44-1.38h9.7a4.86,4.86,0,0,0-9.7,0Z" fill="#231f20"/>
      <path id="Caminho_28260" data-name="Caminho 28260" d="M370.04,185.67v1.79c-.16,0-.31-.03-.44-.03-2.86,0-4.6,1.82-4.6,5.04v6.97h-1.85V185.76h1.77v2.68c.86-1.82,2.6-2.78,5.12-2.78Z" fill="#231f20"/>
      <path id="Caminho_28261" data-name="Caminho 28261" d="M394.88,185.78V204.5h-1.85v-7.62a5.974,5.974,0,0,1-5.2,2.71,6.957,6.957,0,0,1,0-13.91,5.967,5.967,0,0,1,5.28,2.81v-2.7h1.77Zm-1.82,6.84a5.091,5.091,0,1,0-5.07,5.33A5.015,5.015,0,0,0,393.06,192.62Z" fill="#231f20"/>
      <path id="Caminho_28262" data-name="Caminho 28262" d="M412.35,185.78v13.68h-1.77v-2.5a5.452,5.452,0,0,1-4.92,2.63c-3.48,0-5.77-1.95-5.77-5.88v-7.93h1.85v7.75c0,2.91,1.51,4.39,4.11,4.39,2.86,0,4.65-1.85,4.65-4.97v-7.18h1.85Z" fill="#231f20"/>
      <path id="Caminho_28263" data-name="Caminho 28263" d="M429.43,193.19H417.99a5.063,5.063,0,0,0,5.38,4.76,5.422,5.422,0,0,0,4.19-1.79l1.04,1.2a6.72,6.72,0,0,1-5.28,2.24c-4.26,0-7.18-2.91-7.18-6.97a6.58,6.58,0,0,1,6.68-6.94c3.85,0,6.63,2.83,6.63,6.94,0,.16-.03.36-.03.57Zm-11.44-1.38h9.7a4.86,4.86,0,0,0-9.7,0Z" fill="#231f20"/>
      <path id="Caminho_28264" data-name="Caminho 28264" d="M452.38,190.98v8.48h-1.77v-2.13a5.138,5.138,0,0,1-4.71,2.26c-3.09,0-4.99-1.61-4.99-3.98,0-2.11,1.35-3.87,5.28-3.87h4.34v-.83c0-2.34-1.33-3.61-3.87-3.61a6.955,6.955,0,0,0-4.55,1.61l-.83-1.38a8.694,8.694,0,0,1,5.56-1.85c3.54,0,5.54,1.77,5.54,5.3Zm-1.85,4.37v-2.24h-4.29c-2.65,0-3.51,1.04-3.51,2.44,0,1.59,1.27,2.57,3.46,2.57a4.284,4.284,0,0,0,4.34-2.78Z" fill="#231f20"/>
      <path id="Caminho_28265" data-name="Caminho 28265" d="M465,190.35c0-5.33,4.06-9.26,9.54-9.26a8.828,8.828,0,0,1,6.66,2.65l-1.22,1.22a7.2,7.2,0,0,0-5.38-2.16,7.542,7.542,0,1,0,0,15.08,7.143,7.143,0,0,0,5.38-2.18l1.22,1.22a8.833,8.833,0,0,1-6.68,2.68,9.137,9.137,0,0,1-9.52-9.26Z" fill="#231f20"/>
      <path id="Caminho_28266" data-name="Caminho 28266" d="M482.94,192.61a6.955,6.955,0,1,1,6.97,6.97A6.721,6.721,0,0,1,482.94,192.61Zm12.04,0a5.091,5.091,0,1,0-5.07,5.33A4.987,4.987,0,0,0,494.98,192.61Z" fill="#231f20"/>
      <path id="Caminho_28267" data-name="Caminho 28267" d="M513.2,191.52v7.93h-1.85V191.7c0-2.89-1.51-4.37-4.11-4.37-2.94,0-4.78,1.82-4.78,4.94v7.18h-1.85V185.77h1.77v2.52a5.756,5.756,0,0,1,5.2-2.63c3.33,0,5.62,1.92,5.62,5.85Z" fill="#231f20"/>
      <path id="Caminho_28268" data-name="Caminho 28268" d="M516.32,197.89l.83-1.46a8.244,8.244,0,0,0,4.86,1.53c2.6,0,3.67-.88,3.67-2.24,0-3.56-8.87-.75-8.87-6.16,0-2.24,1.92-3.9,5.41-3.9a9.292,9.292,0,0,1,4.84,1.27l-.81,1.48a7.042,7.042,0,0,0-4.03-1.17c-2.47,0-3.56.96-3.56,2.26,0,3.69,8.87.91,8.87,6.16,0,2.37-2.08,3.9-5.64,3.9a9.123,9.123,0,0,1-5.56-1.69Z" fill="#231f20"/>
      <path id="Caminho_28269" data-name="Caminho 28269" d="M538.13,198.62a4.4,4.4,0,0,1-2.89.96,3.624,3.624,0,0,1-4-3.98v-8.27H528.8v-1.56h2.44v-2.99h1.85v2.99h4.16v1.56h-4.16v8.17a2.194,2.194,0,0,0,2.37,2.5,3.056,3.056,0,0,0,2.03-.7l.65,1.33Z" fill="#231f20"/>
      <path id="Caminho_28270" data-name="Caminho 28270" d="M541.07,181.46a1.335,1.335,0,0,1,1.35-1.3,1.31,1.31,0,0,1,1.35,1.27,1.35,1.35,0,0,1-2.7.02Zm.42,4.32h1.85v13.68h-1.85V185.78Z" fill="#231f20"/>
      <path id="Caminho_28271" data-name="Caminho 28271" d="M555.68,198.62a4.4,4.4,0,0,1-2.89.96,3.624,3.624,0,0,1-4-3.98v-8.27h-2.44v-1.56h2.44v-2.99h1.85v2.99h4.16v1.56h-4.16v8.17a2.194,2.194,0,0,0,2.37,2.5,3.056,3.056,0,0,0,2.03-.7l.65,1.33Z" fill="#231f20"/>
      <path id="Caminho_28272" data-name="Caminho 28272" d="M571.36,185.78v13.68h-1.77v-2.5a5.447,5.447,0,0,1-4.91,2.63c-3.48,0-5.77-1.95-5.77-5.88v-7.93h1.85v7.75c0,2.91,1.51,4.39,4.11,4.39,2.86,0,4.65-1.85,4.65-4.97v-7.18h1.85Z" fill="#231f20"/>
      <path id="Caminho_28273" data-name="Caminho 28273" d="M576.12,181.46a1.335,1.335,0,0,1,1.35-1.3,1.31,1.31,0,0,1,1.35,1.27,1.35,1.35,0,0,1-2.7.02Zm.42,4.32h1.85v13.68h-1.85V185.78Z" fill="#231f20"/>
      <path id="Caminho_28274" data-name="Caminho 28274" d="M593.17,195.94l1.38.94a6.027,6.027,0,0,1-5.36,2.71h-.05l-.31,1.22a2.119,2.119,0,0,1,2.21,2.11c0,1.4-1.2,2.26-2.94,2.26a3.719,3.719,0,0,1-2.18-.6l.44-.99a3.052,3.052,0,0,0,1.72.49c1.04,0,1.61-.44,1.61-1.22,0-.7-.52-1.2-1.61-1.2h-.6l.57-2.16a6.956,6.956,0,0,1,1.15-13.83,6,6,0,0,1,5.36,2.7l-1.38.94a4.65,4.65,0,0,0-3.98-2.03,5.332,5.332,0,0,0,0,10.66,4.623,4.623,0,0,0,3.98-2Z" fill="#231f20"/>
      <path id="Caminho_28275" data-name="Caminho 28275" d="M608.49,190.98v8.48h-1.77v-2.13a5.138,5.138,0,0,1-4.71,2.26c-3.09,0-4.99-1.61-4.99-3.98,0-2.11,1.35-3.87,5.28-3.87h4.34v-.83c0-2.34-1.33-3.61-3.87-3.61a6.955,6.955,0,0,0-4.55,1.61l-.83-1.38a8.694,8.694,0,0,1,5.56-1.85c3.54,0,5.54,1.77,5.54,5.3Zm-1.85,4.37v-2.24h-4.29c-2.65,0-3.51,1.04-3.51,2.44,0,1.59,1.27,2.57,3.46,2.57a4.284,4.284,0,0,0,4.34-2.78Zm-6.63-11.93h-1.12c.05-1.74.96-2.86,2.34-2.86,1.61,0,2.39,1.77,3.41,1.77.78,0,1.3-.62,1.35-1.61h1.12c-.05,1.69-.96,2.81-2.34,2.81-1.61,0-2.37-1.77-3.41-1.77C600.58,181.76,600.06,182.38,600.01,183.42Z" fill="#231f20"/>
      <path id="Caminho_28276" data-name="Caminho 28276" d="M612.18,192.61a6.955,6.955,0,1,1,6.97,6.97A6.721,6.721,0,0,1,612.18,192.61Zm12.04,0a5.091,5.091,0,1,0-5.07,5.33A4.987,4.987,0,0,0,624.22,192.61Z" fill="#231f20"/>
      <path id="Caminho_28277" data-name="Caminho 28277" d="M650.59,193.19H639.15a5.063,5.063,0,0,0,5.38,4.76,5.422,5.422,0,0,0,4.19-1.79l1.04,1.2a6.72,6.72,0,0,1-5.28,2.24c-4.26,0-7.18-2.91-7.18-6.97a6.58,6.58,0,0,1,6.68-6.94c3.85,0,6.63,2.83,6.63,6.94,0,.16-.03.36-.03.57Zm-11.44-1.38h9.7a4.86,4.86,0,0,0-9.7,0Zm4.97-8.14H642.3l3.56-3.22h2.47l-4.21,3.22Z" fill="#231f20"/>
      <path id="Caminho_28278" data-name="Caminho 28278" d="M661.84,192.61a6.955,6.955,0,1,1,6.97,6.97A6.721,6.721,0,0,1,661.84,192.61Zm12.04,0a5.091,5.091,0,1,0-5.07,5.33A4.987,4.987,0,0,0,673.88,192.61Z" fill="#231f20"/>
      <path id="Caminho_28279" data-name="Caminho 28279" d="M700.82,185.78V204.5h-1.85v-7.62a5.974,5.974,0,0,1-5.2,2.71,6.957,6.957,0,0,1,0-13.91,5.967,5.967,0,0,1,5.28,2.81v-2.7h1.77ZM699,192.62a5.091,5.091,0,1,0-5.07,5.33A5.015,5.015,0,0,0,699,192.62Z" fill="#231f20"/>
      <path id="Caminho_28280" data-name="Caminho 28280" d="M718.29,185.78v13.68h-1.77v-2.5a5.447,5.447,0,0,1-4.91,2.63c-3.48,0-5.77-1.95-5.77-5.88v-7.93h1.85v7.75c0,2.91,1.51,4.39,4.11,4.39,2.86,0,4.65-1.85,4.65-4.97v-7.18h1.85Z" fill="#231f20"/>
      <path id="Caminho_28281" data-name="Caminho 28281" d="M735.38,193.19H723.94a5.063,5.063,0,0,0,5.38,4.76,5.422,5.422,0,0,0,4.19-1.79l1.04,1.2a6.72,6.72,0,0,1-5.28,2.24c-4.26,0-7.18-2.91-7.18-6.97a6.58,6.58,0,0,1,6.68-6.94c3.85,0,6.63,2.83,6.63,6.94,0,.16-.03.36-.03.57Zm-11.44-1.38h9.7a4.86,4.86,0,0,0-9.7,0Z" fill="#231f20"/>
      <path id="Caminho_28282" data-name="Caminho 28282" d="M746.62,192.61a6.955,6.955,0,1,1,6.97,6.97A6.721,6.721,0,0,1,746.62,192.61Zm12.04,0a5.091,5.091,0,1,0-5.07,5.33A4.987,4.987,0,0,0,758.66,192.61Z" fill="#231f20"/>
      <path id="Caminho_28283" data-name="Caminho 28283" d="M771.77,197.24l.75-1.48a8.952,8.952,0,0,0,6.01,2.21c3.41,0,4.89-1.43,4.89-3.22,0-4.99-11.21-1.92-11.21-8.66,0-2.68,2.08-4.99,6.71-4.99a10.294,10.294,0,0,1,5.64,1.61l-.65,1.53a9.407,9.407,0,0,0-4.99-1.51c-3.33,0-4.81,1.48-4.81,3.3,0,4.99,11.21,1.98,11.21,8.61,0,2.68-2.13,4.97-6.79,4.97-2.73,0-5.41-.96-6.76-2.37Z" fill="#231f20"/>
      <path id="Caminho_28284" data-name="Caminho 28284" d="M801.44,185.78v13.68h-1.77v-2.5a5.452,5.452,0,0,1-4.92,2.63c-3.48,0-5.77-1.95-5.77-5.88v-7.93h1.85v7.75c0,2.91,1.51,4.39,4.11,4.39,2.86,0,4.65-1.85,4.65-4.97v-7.18h1.85Z" fill="#231f20"/>
      <path id="Caminho_28285" data-name="Caminho 28285" d="M820.47,192.61a6.623,6.623,0,0,1-6.81,6.97,5.974,5.974,0,0,1-5.2-2.71v7.62h-1.85V185.77h1.77v2.7a5.967,5.967,0,0,1,5.28-2.81,6.615,6.615,0,0,1,6.81,6.94Zm-1.85,0a5.1,5.1,0,1,0-5.1,5.33A5.038,5.038,0,0,0,818.62,192.61Z" fill="#231f20"/>
      <path id="Caminho_28286" data-name="Caminho 28286" d="M831.13,185.67v1.79c-.16,0-.31-.03-.44-.03-2.86,0-4.6,1.82-4.6,5.04v6.97h-1.85V185.76h1.77v2.68c.86-1.82,2.6-2.78,5.12-2.78Z" fill="#231f20"/>
      <path id="Caminho_28287" data-name="Caminho 28287" d="M846.24,193.19H834.8a5.063,5.063,0,0,0,5.38,4.76,5.422,5.422,0,0,0,4.19-1.79l1.04,1.2a6.72,6.72,0,0,1-5.28,2.24c-4.26,0-7.18-2.91-7.18-6.97a6.58,6.58,0,0,1,6.68-6.94c3.85,0,6.63,2.83,6.63,6.94,0,.16-.03.36-.03.57Zm-11.44-1.38h9.7a4.86,4.86,0,0,0-9.7,0Z" fill="#231f20"/>
      <path id="Caminho_28288" data-name="Caminho 28288" d="M872.6,191.52v7.93h-1.85V191.7c0-2.89-1.46-4.37-3.93-4.37-2.81,0-4.58,1.82-4.58,4.94v7.18h-1.85V191.7c0-2.89-1.46-4.37-3.95-4.37-2.78,0-4.58,1.82-4.58,4.94v7.18h-1.85V185.77h1.77v2.5a5.525,5.525,0,0,1,5.02-2.6,4.877,4.877,0,0,1,4.86,2.89,5.96,5.96,0,0,1,5.41-2.89c3.33,0,5.51,1.92,5.51,5.85Z" fill="#231f20"/>
      <path id="Caminho_28289" data-name="Caminho 28289" d="M876.29,192.61a6.955,6.955,0,1,1,6.97,6.97A6.721,6.721,0,0,1,876.29,192.61Zm12.04,0a5.091,5.091,0,1,0-5.07,5.33A4.987,4.987,0,0,0,888.33,192.61Z" fill="#231f20"/>
      <path id="Caminho_28290" data-name="Caminho 28290" d="M906.72,182.92h-6.4v-1.66h14.72v1.66h-6.4v16.54h-1.92V182.92Z" fill="#231f20"/>
      <path id="Caminho_28291" data-name="Caminho 28291" d="M924.25,185.67v1.79c-.16,0-.31-.03-.44-.03-2.86,0-4.6,1.82-4.6,5.04v6.97h-1.85V185.76h1.77v2.68c.86-1.82,2.6-2.78,5.12-2.78Z" fill="#231f20"/>
      <path id="Caminho_28292" data-name="Caminho 28292" d="M927.16,181.46a1.335,1.335,0,0,1,1.35-1.3,1.31,1.31,0,0,1,1.35,1.27,1.35,1.35,0,0,1-2.7.02Zm.42,4.32h1.85v13.68h-1.85V185.78Z" fill="#231f20"/>
      <path id="Caminho_28293" data-name="Caminho 28293" d="M948.43,192.61a6.64,6.64,0,0,1-6.81,6.97,5.941,5.941,0,0,1-5.28-2.83v2.7h-1.77V180.16h1.85v8.22a5.965,5.965,0,0,1,5.2-2.7,6.615,6.615,0,0,1,6.81,6.94Zm-1.85,0a5.1,5.1,0,1,0-5.1,5.33A5.022,5.022,0,0,0,946.58,192.61Z" fill="#231f20"/>
      <path id="Caminho_28294" data-name="Caminho 28294" d="M964.52,185.78v13.68h-1.77v-2.5a5.452,5.452,0,0,1-4.92,2.63c-3.48,0-5.77-1.95-5.77-5.88v-7.93h1.85v7.75c0,2.91,1.51,4.39,4.11,4.39,2.86,0,4.65-1.85,4.65-4.97v-7.18h1.85Z" fill="#231f20"/>
      <path id="Caminho_28295" data-name="Caminho 28295" d="M982.28,191.52v7.93h-1.85V191.7c0-2.89-1.51-4.37-4.11-4.37-2.94,0-4.78,1.82-4.78,4.94v7.18h-1.85V185.77h1.77v2.52a5.756,5.756,0,0,1,5.2-2.63c3.33,0,5.62,1.92,5.62,5.85Z" fill="#231f20"/>
      <path id="Caminho_28296" data-name="Caminho 28296" d="M997.62,190.98v8.48h-1.77v-2.13a5.138,5.138,0,0,1-4.71,2.26c-3.09,0-4.99-1.61-4.99-3.98,0-2.11,1.35-3.87,5.28-3.87h4.34v-.83c0-2.34-1.33-3.61-3.87-3.61a6.955,6.955,0,0,0-4.55,1.61l-.83-1.38a8.694,8.694,0,0,1,5.56-1.85c3.54,0,5.54,1.77,5.54,5.3Zm-1.85,4.37v-2.24h-4.29c-2.65,0-3.51,1.04-3.51,2.44,0,1.59,1.27,2.57,3.46,2.57a4.284,4.284,0,0,0,4.34-2.78Z" fill="#231f20"/>
      <path id="Caminho_28297" data-name="Caminho 28297" d="M1002.64,180.16h1.85v19.29h-1.85Z" fill="#231f20"/>
      <path id="Caminho_28298" data-name="Caminho 28298" d="M1020.77,182.92v7.15h9.41v1.66h-9.41v7.72h-1.92v-18.2h12.48v1.66h-10.56Z" fill="#231f20"/>
      <path id="Caminho_28299" data-name="Caminho 28299" d="M1046.36,193.19h-11.44a5.063,5.063,0,0,0,5.38,4.76,5.422,5.422,0,0,0,4.19-1.79l1.04,1.2a6.72,6.72,0,0,1-5.28,2.24c-4.26,0-7.18-2.91-7.18-6.97a6.58,6.58,0,0,1,6.68-6.94c3.85,0,6.63,2.83,6.63,6.94,0,.16-.03.36-.03.57Zm-11.44-1.38h9.7a4.86,4.86,0,0,0-9.7,0Z" fill="#231f20"/>
      <path id="Caminho_28300" data-name="Caminho 28300" d="M1062.63,180.16v19.29h-1.77v-2.7a5.92,5.92,0,0,1-5.28,2.83,6.957,6.957,0,0,1,0-13.91,5.988,5.988,0,0,1,5.2,2.7v-8.22h1.85Zm-1.82,12.45a5.091,5.091,0,1,0-5.07,5.33A5,5,0,0,0,1060.81,192.61Z" fill="#231f20"/>
      <path id="Caminho_28301" data-name="Caminho 28301" d="M1079.69,193.19h-11.44a5.063,5.063,0,0,0,5.38,4.76,5.422,5.422,0,0,0,4.19-1.79l1.04,1.2a6.72,6.72,0,0,1-5.28,2.24c-4.26,0-7.18-2.91-7.18-6.97a6.58,6.58,0,0,1,6.68-6.94c3.85,0,6.63,2.83,6.63,6.94,0,.16-.03.36-.03.57Zm-11.44-1.38h9.7a4.86,4.86,0,0,0-9.7,0Z" fill="#231f20"/>
      <path id="Caminho_28302" data-name="Caminho 28302" d="M1090.37,185.67v1.79c-.16,0-.31-.03-.44-.03-2.86,0-4.6,1.82-4.6,5.04v6.97h-1.85V185.76h1.77v2.68c.86-1.82,2.6-2.78,5.12-2.78Z" fill="#231f20"/>
      <path id="Caminho_28303" data-name="Caminho 28303" d="M1104,190.98v8.48h-1.77v-2.13a5.138,5.138,0,0,1-4.71,2.26c-3.09,0-4.99-1.61-4.99-3.98,0-2.11,1.35-3.87,5.28-3.87h4.34v-.83c0-2.34-1.33-3.61-3.87-3.61a6.955,6.955,0,0,0-4.55,1.61l-.83-1.38a8.694,8.694,0,0,1,5.56-1.85c3.54,0,5.54,1.77,5.54,5.3Zm-1.85,4.37v-2.24h-4.29c-2.65,0-3.51,1.04-3.51,2.44,0,1.59,1.27,2.57,3.46,2.57a4.284,4.284,0,0,0,4.34-2.78Z" fill="#231f20"/>
      <path id="Caminho_28304" data-name="Caminho 28304" d="M1109.02,180.16h1.85v19.29h-1.85Z" fill="#231f20"/>
      <path id="Caminho_28305" data-name="Caminho 28305" d="M1137.32,180.16v19.29h-1.77v-2.7a5.92,5.92,0,0,1-5.28,2.83,6.957,6.957,0,0,1,0-13.91,5.988,5.988,0,0,1,5.2,2.7v-8.22h1.85Zm-1.82,12.45a5.091,5.091,0,1,0-5.07,5.33A5,5,0,0,0,1135.5,192.61Z" fill="#231f20"/>
      <path id="Caminho_28306" data-name="Caminho 28306" d="M1142.05,181.46a1.335,1.335,0,0,1,1.35-1.3,1.31,1.31,0,0,1,1.35,1.27,1.35,1.35,0,0,1-2.7.02Zm.42,4.32h1.85v13.68h-1.85V185.78Z" fill="#231f20"/>
      <path id="Caminho_28307" data-name="Caminho 28307" d="M1159.1,197.92v1.53h-11.13v-1.22l8.61-10.89h-8.45v-1.56h10.82V187l-8.61,10.92Z" fill="#231f20"/>
      <path id="Caminho_28308" data-name="Caminho 28308" d="M1184.05,185.78V204.5h-1.85v-7.62a5.974,5.974,0,0,1-5.2,2.71,6.957,6.957,0,0,1,0-13.91,5.967,5.967,0,0,1,5.28,2.81v-2.7h1.77Zm-1.82,6.84a5.091,5.091,0,1,0-5.07,5.33A5.015,5.015,0,0,0,1182.23,192.62Z" fill="#231f20"/>
      <path id="Caminho_28309" data-name="Caminho 28309" d="M1201.52,185.78v13.68h-1.77v-2.5a5.447,5.447,0,0,1-4.91,2.63c-3.48,0-5.77-1.95-5.77-5.88v-7.93h1.85v7.75c0,2.91,1.51,4.39,4.11,4.39,2.86,0,4.65-1.85,4.65-4.97v-7.18h1.85Z" fill="#231f20"/>
      <path id="Caminho_28310" data-name="Caminho 28310" d="M1218.6,193.19h-11.44a5.063,5.063,0,0,0,5.38,4.76,5.422,5.422,0,0,0,4.19-1.79l1.04,1.2a6.72,6.72,0,0,1-5.28,2.24c-4.26,0-7.18-2.91-7.18-6.97a6.58,6.58,0,0,1,6.68-6.94c3.85,0,6.63,2.83,6.63,6.94,0,.16-.03.36-.03.57Zm-11.44-1.38h9.7a4.86,4.86,0,0,0-9.7,0Z" fill="#231f20"/>
      <path id="Caminho_28311" data-name="Caminho 28311" d="M1243.13,193.19h-11.44a5.063,5.063,0,0,0,5.38,4.76,5.422,5.422,0,0,0,4.19-1.79l1.04,1.2a6.72,6.72,0,0,1-5.28,2.24c-4.26,0-7.18-2.91-7.18-6.97a6.58,6.58,0,0,1,6.68-6.94c3.85,0,6.63,2.83,6.63,6.94,0,.16-.03.36-.03.57Zm-11.44-1.38h9.7a4.86,4.86,0,0,0-9.7,0Z" fill="#231f20"/>
      <path id="Caminho_28312" data-name="Caminho 28312" d="M1246.93,180.16h1.85v19.29h-1.85Z" fill="#231f20"/>
      <path id="Caminho_28313" data-name="Caminho 28313" d="M1264.25,190.98v8.48h-1.77v-2.13a5.138,5.138,0,0,1-4.71,2.26c-3.09,0-4.99-1.61-4.99-3.98,0-2.11,1.35-3.87,5.28-3.87h4.34v-.83c0-2.34-1.33-3.61-3.88-3.61a6.955,6.955,0,0,0-4.55,1.61l-.83-1.38a8.694,8.694,0,0,1,5.56-1.85c3.54,0,5.54,1.77,5.54,5.3Zm-1.85,4.37v-2.24h-4.29c-2.65,0-3.51,1.04-3.51,2.44,0,1.59,1.27,2.57,3.46,2.57a4.284,4.284,0,0,0,4.34-2.78Z" fill="#231f20"/>
      <path id="Caminho_28314" data-name="Caminho 28314" d="M1290,193.19h-11.44a5.063,5.063,0,0,0,5.38,4.76,5.422,5.422,0,0,0,4.19-1.79l1.04,1.2a6.72,6.72,0,0,1-5.28,2.24c-4.26,0-7.18-2.91-7.18-6.97a6.58,6.58,0,0,1,6.68-6.94c3.85,0,6.63,2.83,6.63,6.94,0,.16-.03.36-.03.57Zm-11.44-1.38h9.7a4.86,4.86,0,0,0-9.7,0Zm4.97-8.14h-1.82l3.56-3.22h2.47l-4.21,3.22Z" fill="#231f20"/>
      <path id="Caminho_28315" data-name="Caminho 28315" d="M1295.38,198.15a4.244,4.244,0,0,1-.36,1.51l-1.09,3.59h-1.25l.88-3.77a1.318,1.318,0,0,1-.94-1.33,1.357,1.357,0,0,1,1.38-1.4,1.375,1.375,0,0,1,1.38,1.4Z" fill="#231f20"/>
      <path id="Caminho_28316" data-name="Caminho 28316" d="M1319.62,185.78l-6.08,13.68h-1.9l-6.06-13.68h1.92l5.12,11.65,5.17-11.65h1.82Z" fill="#231f20"/>
      <path id="Caminho_28317" data-name="Caminho 28317" d="M1321.81,181.46a1.335,1.335,0,0,1,1.35-1.3,1.31,1.31,0,0,1,1.35,1.27,1.35,1.35,0,0,1-2.7.02Zm.42,4.32h1.85v13.68h-1.85V185.78Z" fill="#231f20"/>
      <path id="Caminho_28318" data-name="Caminho 28318" d="M1327.32,197.89l.83-1.46a8.244,8.244,0,0,0,4.86,1.53c2.6,0,3.67-.88,3.67-2.24,0-3.56-8.87-.75-8.87-6.16,0-2.24,1.92-3.9,5.41-3.9a9.292,9.292,0,0,1,4.84,1.27l-.81,1.48a7.042,7.042,0,0,0-4.03-1.17c-2.47,0-3.56.96-3.56,2.26,0,3.69,8.87.91,8.87,6.16,0,2.37-2.08,3.9-5.64,3.9a9.124,9.124,0,0,1-5.56-1.69Z" fill="#231f20"/>
      <path id="Caminho_28319" data-name="Caminho 28319" d="M1349.13,198.62a4.4,4.4,0,0,1-2.89.96,3.624,3.624,0,0,1-4-3.98v-8.27h-2.44v-1.56h2.44v-2.99h1.85v2.99h4.16v1.56h-4.16v8.17a2.194,2.194,0,0,0,2.37,2.5,3.056,3.056,0,0,0,2.03-.7l.65,1.33Z" fill="#231f20"/>
      <path id="Caminho_28320" data-name="Caminho 28320" d="M1350.61,192.61a6.955,6.955,0,1,1,6.97,6.97A6.721,6.721,0,0,1,1350.61,192.61Zm12.04,0a5.091,5.091,0,1,0-5.07,5.33A4.987,4.987,0,0,0,1362.65,192.61Z" fill="#231f20"/>
      <path id="Caminho_28321" data-name="Caminho 28321" d="M156.98,230.98V249.7h-1.85v-7.62a5.965,5.965,0,0,1-5.2,2.7,6.957,6.957,0,0,1,0-13.91,5.967,5.967,0,0,1,5.28,2.81v-2.7Zm-1.82,6.84a5.091,5.091,0,1,0-5.07,5.33A5.015,5.015,0,0,0,155.16,237.82Z" fill="#231f20"/>
      <path id="Caminho_28322" data-name="Caminho 28322" d="M174.45,230.98v13.68h-1.77v-2.5a5.444,5.444,0,0,1-4.92,2.62c-3.48,0-5.77-1.95-5.77-5.88v-7.93h1.85v7.75c0,2.91,1.51,4.39,4.11,4.39,2.86,0,4.65-1.85,4.65-4.97v-7.18h1.85Z" fill="#231f20"/>
      <path id="Caminho_28323" data-name="Caminho 28323" d="M191.54,238.39H180.1a5.063,5.063,0,0,0,5.38,4.76,5.422,5.422,0,0,0,4.19-1.79l1.04,1.2a6.72,6.72,0,0,1-5.28,2.24c-4.26,0-7.18-2.91-7.18-6.97a6.58,6.58,0,0,1,6.68-6.94c3.85,0,6.63,2.83,6.63,6.94,0,.16-.03.36-.03.57Zm-11.44-1.38h9.7a4.86,4.86,0,0,0-9.7,0Z" fill="#231f20"/>
      <path id="Caminho_28324" data-name="Caminho 28324" d="M217.33,238.39H205.89a5.063,5.063,0,0,0,5.38,4.76,5.422,5.422,0,0,0,4.19-1.79l1.04,1.2a6.72,6.72,0,0,1-5.28,2.24c-4.26,0-7.18-2.91-7.18-6.97a6.58,6.58,0,0,1,6.68-6.94c3.85,0,6.63,2.83,6.63,6.94,0,.16-.03.36-.03.57Zm-11.44-1.38h9.7a4.86,4.86,0,0,0-9.7,0Z" fill="#231f20"/>
      <path id="Caminho_28325" data-name="Caminho 28325" d="M219.22,243.09l.83-1.46a8.244,8.244,0,0,0,4.86,1.53c2.6,0,3.67-.88,3.67-2.24,0-3.56-8.87-.75-8.87-6.16,0-2.24,1.92-3.9,5.41-3.9a9.292,9.292,0,0,1,4.84,1.27l-.81,1.48a7.042,7.042,0,0,0-4.03-1.17c-2.47,0-3.56.96-3.56,2.26,0,3.69,8.87.91,8.87,6.16,0,2.37-2.08,3.9-5.64,3.9a9.123,9.123,0,0,1-5.56-1.69Z" fill="#231f20"/>
      <path id="Caminho_28326" data-name="Caminho 28326" d="M231.94,243.09l.83-1.46a8.244,8.244,0,0,0,4.86,1.53c2.6,0,3.67-.88,3.67-2.24,0-3.56-8.87-.75-8.87-6.16,0-2.24,1.92-3.9,5.41-3.9a9.292,9.292,0,0,1,4.84,1.27l-.81,1.48a7.042,7.042,0,0,0-4.03-1.17c-2.47,0-3.56.96-3.56,2.26,0,3.69,8.87.91,8.87,6.16,0,2.37-2.08,3.9-5.64,3.9a9.123,9.123,0,0,1-5.56-1.69Z" fill="#231f20"/>
      <path id="Caminho_28327" data-name="Caminho 28327" d="M258.46,238.39H247.02a5.063,5.063,0,0,0,5.38,4.76,5.422,5.422,0,0,0,4.19-1.79l1.04,1.2a6.72,6.72,0,0,1-5.28,2.24c-4.26,0-7.18-2.91-7.18-6.97a6.58,6.58,0,0,1,6.68-6.94c3.85,0,6.63,2.83,6.63,6.94,0,.16-.03.36-.03.57Zm-11.44-1.38h9.7a4.86,4.86,0,0,0-9.7,0Z" fill="#231f20"/>
      <path id="Caminho_28328" data-name="Caminho 28328" d="M276.27,228.12h-6.4v-1.66h14.72v1.66h-6.4v16.54h-1.92Z" fill="#231f20"/>
      <path id="Caminho_28329" data-name="Caminho 28329" d="M293.79,230.87v1.79c-.16,0-.31-.03-.44-.03-2.86,0-4.6,1.82-4.6,5.04v6.97H286.9V230.96h1.77v2.68c.86-1.82,2.6-2.78,5.12-2.78Z" fill="#231f20"/>
      <path id="Caminho_28330" data-name="Caminho 28330" d="M296.7,226.66a1.335,1.335,0,0,1,1.35-1.3,1.31,1.31,0,0,1,1.35,1.27,1.35,1.35,0,0,1-2.7.02Zm.42,4.32h1.85v13.68h-1.85Z" fill="#231f20"/>
      <path id="Caminho_28331" data-name="Caminho 28331" d="M317.97,237.81a6.64,6.64,0,0,1-6.81,6.97,5.941,5.941,0,0,1-5.28-2.83v2.71h-1.77V225.37h1.85v8.22a5.965,5.965,0,0,1,5.2-2.7,6.615,6.615,0,0,1,6.81,6.94Zm-1.85,0a5.1,5.1,0,1,0-5.1,5.33A5.022,5.022,0,0,0,316.12,237.81Z" fill="#231f20"/>
      <path id="Caminho_28332" data-name="Caminho 28332" d="M334.06,230.98v13.68h-1.77v-2.5a5.444,5.444,0,0,1-4.92,2.62c-3.48,0-5.77-1.95-5.77-5.88v-7.93h1.85v7.75c0,2.91,1.51,4.39,4.11,4.39,2.86,0,4.65-1.85,4.65-4.97v-7.18h1.85Z" fill="#231f20"/>
      <path id="Caminho_28333" data-name="Caminho 28333" d="M351.82,236.72v7.93h-1.85V236.9c0-2.89-1.51-4.37-4.11-4.37-2.94,0-4.78,1.82-4.78,4.94v7.18h-1.85V230.97H341v2.52a5.756,5.756,0,0,1,5.2-2.63c3.33,0,5.62,1.92,5.62,5.85Z" fill="#231f20"/>
      <path id="Caminho_28334" data-name="Caminho 28334" d="M367.16,236.18v8.48h-1.77v-2.13a5.138,5.138,0,0,1-4.71,2.26c-3.09,0-4.99-1.61-4.99-3.98,0-2.11,1.35-3.87,5.28-3.87h4.34v-.83c0-2.34-1.33-3.61-3.87-3.61a6.955,6.955,0,0,0-4.55,1.61l-.83-1.38a8.694,8.694,0,0,1,5.56-1.85c3.54,0,5.54,1.77,5.54,5.3Zm-1.85,4.37v-2.24h-4.29c-2.65,0-3.51,1.04-3.51,2.44,0,1.59,1.27,2.57,3.46,2.57a4.284,4.284,0,0,0,4.34-2.78Z" fill="#231f20"/>
      <path id="Caminho_28335" data-name="Caminho 28335" d="M372.18,225.36h1.85v19.29h-1.85V225.36Z" fill="#231f20"/>
      <path id="Caminho_28336" data-name="Caminho 28336" d="M401.17,238.39H389.73a5.063,5.063,0,0,0,5.38,4.76,5.422,5.422,0,0,0,4.19-1.79l1.04,1.2a6.72,6.72,0,0,1-5.28,2.24c-4.26,0-7.18-2.91-7.18-6.97a6.58,6.58,0,0,1,6.68-6.94c3.85,0,6.63,2.83,6.63,6.94,0,.16-.03.36-.03.57Zm-11.44-1.38h9.7a4.86,4.86,0,0,0-9.7,0Zm4.97-8.14h-1.82l3.56-3.22h2.47Z" fill="#231f20"/>
      <path id="Caminho_28337" data-name="Caminho 28337" d="M413.67,237.81a6.955,6.955,0,1,1,6.97,6.97A6.721,6.721,0,0,1,413.67,237.81Zm12.04,0a5.091,5.091,0,1,0-5.07,5.33A4.987,4.987,0,0,0,425.71,237.81Z" fill="#231f20"/>
      <path id="Caminho_28338" data-name="Caminho 28338" d="M439.54,243.09l.83-1.46a8.244,8.244,0,0,0,4.86,1.53c2.6,0,3.67-.88,3.67-2.24,0-3.56-8.87-.75-8.87-6.16,0-2.24,1.92-3.9,5.41-3.9a9.292,9.292,0,0,1,4.84,1.27l-.81,1.48a7.042,7.042,0,0,0-4.03-1.17c-2.47,0-3.56.96-3.56,2.26,0,3.69,8.87.91,8.87,6.16,0,2.37-2.08,3.9-5.64,3.9a9.123,9.123,0,0,1-5.56-1.69Z" fill="#231f20"/>
      <path id="Caminho_28339" data-name="Caminho 28339" d="M466.06,238.39H454.62a5.063,5.063,0,0,0,5.38,4.76,5.422,5.422,0,0,0,4.19-1.79l1.04,1.2a6.72,6.72,0,0,1-5.28,2.24c-4.26,0-7.18-2.91-7.18-6.97a6.58,6.58,0,0,1,6.68-6.94c3.85,0,6.63,2.83,6.63,6.94,0,.16-.03.36-.03.57Zm-11.44-1.38h9.7a4.86,4.86,0,0,0-9.7,0Z" fill="#231f20"/>
      <path id="Caminho_28340" data-name="Caminho 28340" d="M482.18,230.98v13.68h-1.77v-2.5a5.444,5.444,0,0,1-4.92,2.62c-3.48,0-5.77-1.95-5.77-5.88v-7.93h1.85v7.75c0,2.91,1.51,4.39,4.11,4.39,2.86,0,4.65-1.85,4.65-4.97v-7.18h1.85Z" fill="#231f20"/>
      <path id="Caminho_28341" data-name="Caminho 28341" d="M497.03,226.66a1.335,1.335,0,0,1,1.35-1.3,1.31,1.31,0,0,1,1.35,1.27,1.35,1.35,0,0,1-2.7.02Zm.42,4.32h1.85v13.68h-1.85Z" fill="#231f20"/>
      <path id="Caminho_28342" data-name="Caminho 28342" d="M517.02,236.72v7.93h-1.85V236.9c0-2.89-1.51-4.37-4.11-4.37-2.94,0-4.78,1.82-4.78,4.94v7.18h-1.85V230.97h1.77v2.52a5.756,5.756,0,0,1,5.2-2.63c3.33,0,5.62,1.92,5.62,5.85Z" fill="#231f20"/>
      <path id="Caminho_28343" data-name="Caminho 28343" d="M529.24,243.82a4.4,4.4,0,0,1-2.89.96,3.624,3.624,0,0,1-4-3.98v-8.27h-2.44v-1.56h2.44v-2.99h1.85v2.99h4.16v1.56H524.2v8.16a2.194,2.194,0,0,0,2.37,2.5,3.056,3.056,0,0,0,2.03-.7l.65,1.33Z" fill="#231f20"/>
      <path id="Caminho_28344" data-name="Caminho 28344" d="M544.01,238.39H532.57a5.063,5.063,0,0,0,5.38,4.76,5.422,5.422,0,0,0,4.19-1.79l1.04,1.2a6.72,6.72,0,0,1-5.28,2.24c-4.26,0-7.18-2.91-7.18-6.97a6.58,6.58,0,0,1,6.68-6.94c3.85,0,6.63,2.83,6.63,6.94,0,.16-.03.36-.03.57Zm-11.44-1.38h9.7a4.86,4.86,0,0,0-9.7,0Zm4.97-8.14h-1.82l3.56-3.22h2.47l-4.21,3.22Z" fill="#231f20"/>
      <path id="Caminho_28345" data-name="Caminho 28345" d="M554.69,230.87v1.79c-.16,0-.31-.03-.44-.03-2.86,0-4.6,1.82-4.6,5.04v6.97H547.8V230.96h1.77v2.68c.86-1.82,2.6-2.78,5.12-2.78Z" fill="#231f20"/>
      <path id="Caminho_28346" data-name="Caminho 28346" d="M571.88,237.81a6.623,6.623,0,0,1-6.81,6.97,5.988,5.988,0,0,1-5.2-2.7v7.62h-1.85V230.98h1.77v2.7a5.967,5.967,0,0,1,5.28-2.81,6.615,6.615,0,0,1,6.81,6.94Zm-1.85,0a5.1,5.1,0,1,0-5.1,5.33A5.038,5.038,0,0,0,570.03,237.81Z" fill="#231f20"/>
      <path id="Caminho_28347" data-name="Caminho 28347" d="M582.54,230.87v1.79c-.16,0-.31-.03-.44-.03-2.86,0-4.6,1.82-4.6,5.04v6.97h-1.85V230.96h1.77v2.68c.86-1.82,2.6-2.78,5.12-2.78Z" fill="#231f20"/>
      <path id="Caminho_28348" data-name="Caminho 28348" d="M597.65,238.39H586.21a5.063,5.063,0,0,0,5.38,4.76,5.422,5.422,0,0,0,4.19-1.79l1.04,1.2a6.72,6.72,0,0,1-5.28,2.24c-4.26,0-7.18-2.91-7.18-6.97a6.58,6.58,0,0,1,6.68-6.94c3.85,0,6.63,2.83,6.63,6.94,0,.16-.03.36-.03.57Zm-11.44-1.38h9.7a4.86,4.86,0,0,0-9.7,0Z" fill="#231f20"/>
      <path id="Caminho_28349" data-name="Caminho 28349" d="M608.64,243.82a4.4,4.4,0,0,1-2.89.96,3.624,3.624,0,0,1-4-3.98v-8.27h-2.44v-1.56h2.44v-2.99h1.85v2.99h4.16v1.56H603.6v8.16a2.194,2.194,0,0,0,2.37,2.5,3.056,3.056,0,0,0,2.03-.7l.65,1.33Z" fill="#231f20"/>
      <path id="Caminho_28350" data-name="Caminho 28350" d="M623.41,238.39H611.97a5.063,5.063,0,0,0,5.38,4.76,5.422,5.422,0,0,0,4.19-1.79l1.04,1.2a6.72,6.72,0,0,1-5.28,2.24c-4.26,0-7.18-2.91-7.18-6.97a6.58,6.58,0,0,1,6.68-6.94c3.85,0,6.63,2.83,6.63,6.94,0,.16-.03.36-.03.57Zm-11.44-1.38h9.7a4.86,4.86,0,0,0-9.7,0Z" fill="#231f20"/>
      <path id="Caminho_28351" data-name="Caminho 28351" d="M628.79,243.35a4.244,4.244,0,0,1-.36,1.51l-1.09,3.59h-1.25l.88-3.77a1.318,1.318,0,0,1-.94-1.33,1.357,1.357,0,0,1,1.38-1.4,1.375,1.375,0,0,1,1.38,1.4Z" fill="#231f20"/>
      <path id="Caminho_28352" data-name="Caminho 28352" d="M654.71,238.39H643.27a5.063,5.063,0,0,0,5.38,4.76,5.422,5.422,0,0,0,4.19-1.79l1.04,1.2a6.72,6.72,0,0,1-5.28,2.24c-4.26,0-7.18-2.91-7.18-6.97a6.58,6.58,0,0,1,6.68-6.94c3.85,0,6.63,2.83,6.63,6.94,0,.16-.03.36-.03.57Zm-11.44-1.38h9.7a4.86,4.86,0,0,0-9.7,0Z" fill="#231f20"/>
      <path id="Caminho_28353" data-name="Caminho 28353" d="M681.08,236.72v7.93h-1.85V236.9c0-2.89-1.46-4.37-3.93-4.37-2.81,0-4.58,1.82-4.58,4.94v7.18h-1.85V236.9c0-2.89-1.46-4.37-3.95-4.37-2.78,0-4.58,1.82-4.58,4.94v7.18h-1.85V230.97h1.77v2.5a5.525,5.525,0,0,1,5.02-2.6,4.877,4.877,0,0,1,4.86,2.89,5.96,5.96,0,0,1,5.41-2.89c3.33,0,5.51,1.92,5.51,5.85Z" fill="#231f20"/>
      <path id="Caminho_28354" data-name="Caminho 28354" d="M708.51,230.98v13.68h-1.77v-2.5a5.439,5.439,0,0,1-4.91,2.62c-3.48,0-5.77-1.95-5.77-5.88v-7.93h1.85v7.75c0,2.91,1.51,4.39,4.11,4.39,2.86,0,4.65-1.85,4.65-4.97v-7.18h1.85Zm-6.08-2.11h-1.82l3.56-3.22h2.47l-4.21,3.22Z" fill="#231f20"/>
      <path id="Caminho_28355" data-name="Caminho 28355" d="M713.68,225.36h1.85v19.29h-1.85V225.36Z" fill="#231f20"/>
      <path id="Caminho_28356" data-name="Caminho 28356" d="M727.93,243.82a4.4,4.4,0,0,1-2.89.96,3.624,3.624,0,0,1-4-3.98v-8.27H718.6v-1.56h2.44v-2.99h1.85v2.99h4.16v1.56h-4.16v8.16a2.194,2.194,0,0,0,2.37,2.5,3.056,3.056,0,0,0,2.03-.7l.65,1.33Z" fill="#231f20"/>
      <path id="Caminho_28357" data-name="Caminho 28357" d="M730.87,226.66a1.335,1.335,0,0,1,1.35-1.3,1.31,1.31,0,0,1,1.35,1.27,1.35,1.35,0,0,1-2.7.02Zm.42,4.32h1.85v13.68h-1.85Z" fill="#231f20"/>
      <path id="Caminho_28358" data-name="Caminho 28358" d="M760.85,236.72v7.93H759V236.9c0-2.89-1.46-4.37-3.93-4.37-2.81,0-4.58,1.82-4.58,4.94v7.18h-1.85V236.9c0-2.89-1.46-4.37-3.95-4.37-2.78,0-4.58,1.82-4.58,4.94v7.18h-1.85V230.97h1.77v2.5a5.525,5.525,0,0,1,5.02-2.6,4.877,4.877,0,0,1,4.86,2.89,5.96,5.96,0,0,1,5.41-2.89c3.33,0,5.51,1.92,5.51,5.85Z" fill="#231f20"/>
      <path id="Caminho_28359" data-name="Caminho 28359" d="M776.19,236.18v8.48h-1.77v-2.13a5.138,5.138,0,0,1-4.71,2.26c-3.09,0-4.99-1.61-4.99-3.98,0-2.11,1.35-3.87,5.28-3.87h4.34v-.83c0-2.34-1.33-3.61-3.87-3.61a6.955,6.955,0,0,0-4.55,1.61l-.83-1.38a8.694,8.694,0,0,1,5.56-1.85c3.54,0,5.54,1.77,5.54,5.3Zm-1.85,4.37v-2.24h-4.29c-2.65,0-3.51,1.04-3.51,2.44,0,1.59,1.27,2.57,3.46,2.57a4.284,4.284,0,0,0,4.34-2.78Z" fill="#231f20"/>
      <path id="Caminho_28360" data-name="Caminho 28360" d="M790.87,226.66a1.335,1.335,0,0,1,1.35-1.3,1.31,1.31,0,0,1,1.35,1.27,1.35,1.35,0,0,1-2.7.02Zm.42,4.32h1.85v13.68h-1.85Z" fill="#231f20"/>
      <path id="Caminho_28361" data-name="Caminho 28361" d="M810.87,236.72v7.93h-1.85V236.9c0-2.89-1.51-4.37-4.11-4.37-2.94,0-4.78,1.82-4.78,4.94v7.18h-1.85V230.97h1.77v2.52a5.756,5.756,0,0,1,5.2-2.63c3.33,0,5.62,1.92,5.62,5.85Z" fill="#231f20"/>
      <path id="Caminho_28362" data-name="Caminho 28362" d="M813.99,243.09l.83-1.46a8.244,8.244,0,0,0,4.86,1.53c2.6,0,3.67-.88,3.67-2.24,0-3.56-8.87-.75-8.87-6.16,0-2.24,1.92-3.9,5.41-3.9a9.292,9.292,0,0,1,4.84,1.27l-.81,1.48a7.042,7.042,0,0,0-4.03-1.17c-2.47,0-3.56.96-3.56,2.26,0,3.69,8.87.91,8.87,6.16,0,2.37-2.08,3.9-5.64,3.9a9.123,9.123,0,0,1-5.56-1.69Z" fill="#231f20"/>
      <path id="Caminho_28363" data-name="Caminho 28363" d="M835.8,243.82a4.4,4.4,0,0,1-2.89.96,3.624,3.624,0,0,1-4-3.98v-8.27h-2.44v-1.56h2.44v-2.99h1.85v2.99h4.16v1.56h-4.16v8.16a2.194,2.194,0,0,0,2.37,2.5,3.056,3.056,0,0,0,2.03-.7l.65,1.33Z" fill="#231f20"/>
      <path id="Caminho_28364" data-name="Caminho 28364" d="M849.48,236.18v8.48h-1.77v-2.13a5.138,5.138,0,0,1-4.71,2.26c-3.09,0-4.99-1.61-4.99-3.98,0-2.11,1.35-3.87,5.28-3.87h4.34v-.83c0-2.34-1.33-3.61-3.87-3.61a6.955,6.955,0,0,0-4.55,1.61l-.83-1.38a8.694,8.694,0,0,1,5.56-1.85c3.54,0,5.54,1.77,5.54,5.3Zm-8.06-7.31H839.7l3.35-3.22h1.87l3.35,3.22h-1.72l-2.57-2.16-2.57,2.16Zm6.21,11.67V238.3h-4.29c-2.65,0-3.51,1.04-3.51,2.44,0,1.59,1.27,2.57,3.46,2.57a4.284,4.284,0,0,0,4.34-2.78Z" fill="#231f20"/>
      <path id="Caminho_28365" data-name="Caminho 28365" d="M867.08,236.72v7.93h-1.85V236.9c0-2.89-1.51-4.37-4.11-4.37-2.94,0-4.78,1.82-4.78,4.94v7.18h-1.85V230.97h1.77v2.52a5.756,5.756,0,0,1,5.2-2.63c3.33,0,5.62,1.92,5.62,5.85Z" fill="#231f20"/>
      <path id="Caminho_28366" data-name="Caminho 28366" d="M870.77,237.81a6.73,6.73,0,0,1,7.05-6.94,6,6,0,0,1,5.36,2.7l-1.38.94a4.65,4.65,0,0,0-3.98-2.03,5.332,5.332,0,0,0,0,10.66,4.623,4.623,0,0,0,3.98-2l1.38.94a6.019,6.019,0,0,1-5.36,2.7A6.76,6.76,0,0,1,870.77,237.81Z" fill="#231f20"/>
      <path id="Caminho_28367" data-name="Caminho 28367" d="M886.37,226.66a1.335,1.335,0,0,1,1.35-1.3,1.31,1.31,0,0,1,1.35,1.27,1.35,1.35,0,0,1-2.7.02Zm.42,4.32h1.85v13.68h-1.85Z" fill="#231f20"/>
      <path id="Caminho_28368" data-name="Caminho 28368" d="M904.1,236.18v8.48h-1.77v-2.13a5.138,5.138,0,0,1-4.71,2.26c-3.09,0-4.99-1.61-4.99-3.98,0-2.11,1.35-3.87,5.28-3.87h4.34v-.83c0-2.34-1.33-3.61-3.87-3.61a6.955,6.955,0,0,0-4.55,1.61l-.83-1.38a8.694,8.694,0,0,1,5.56-1.85c3.54,0,5.54,1.77,5.54,5.3Zm-1.85,4.37v-2.24h-4.29c-2.65,0-3.51,1.04-3.51,2.44,0,1.59,1.27,2.57,3.46,2.57a4.284,4.284,0,0,0,4.34-2.78Z" fill="#231f20"/>
      <path id="Caminho_28369" data-name="Caminho 28369" d="M907.92,243.35a1.368,1.368,0,0,1,1.38-1.4,1.391,1.391,0,0,1,1.4,1.4,1.424,1.424,0,0,1-1.4,1.43A1.4,1.4,0,0,1,907.92,243.35Z" fill="#231f20"/>
      <path id="Caminho_28370" data-name="Caminho 28370" d="M939.36,232.69c0,3.87-2.81,6.21-7.44,6.21h-4.89v5.75h-1.92v-18.2h6.81c4.63,0,7.44,2.34,7.44,6.24Zm-1.92,0c0-2.91-1.92-4.58-5.56-4.58h-4.84v9.1h4.84C935.52,237.21,937.44,235.55,937.44,232.69Z" fill="#231f20"/>
      <path id="Caminho_28371" data-name="Caminho 28371" d="M941.67,237.81a6.955,6.955,0,1,1,6.97,6.97A6.721,6.721,0,0,1,941.67,237.81Zm12.04,0a5.091,5.091,0,1,0-5.07,5.33A4.987,4.987,0,0,0,953.71,237.81Z" fill="#231f20"/>
      <path id="Caminho_28372" data-name="Caminho 28372" d="M971.83,225.36v19.29h-1.77v-2.71a5.92,5.92,0,0,1-5.28,2.83,6.957,6.957,0,0,1,0-13.91,5.988,5.988,0,0,1,5.2,2.7v-8.22h1.85Zm-1.82,12.45a5.091,5.091,0,1,0-5.07,5.33A5,5,0,0,0,970.01,237.81Z" fill="#231f20"/>
      <path id="Caminho_28373" data-name="Caminho 28373" d="M988.89,238.39H977.45a5.063,5.063,0,0,0,5.38,4.76,5.422,5.422,0,0,0,4.19-1.79l1.04,1.2a6.72,6.72,0,0,1-5.28,2.24c-4.26,0-7.18-2.91-7.18-6.97a6.58,6.58,0,0,1,6.68-6.94c3.85,0,6.63,2.83,6.63,6.94,0,.16-.03.36-.03.57Zm-11.44-1.38h9.7a4.86,4.86,0,0,0-9.7,0Z" fill="#231f20"/>
      <path id="Caminho_28374" data-name="Caminho 28374" d="M1014.68,238.39h-11.44a5.063,5.063,0,0,0,5.38,4.76,5.422,5.422,0,0,0,4.19-1.79l1.04,1.2a6.72,6.72,0,0,1-5.28,2.24c-4.26,0-7.18-2.91-7.18-6.97a6.58,6.58,0,0,1,6.68-6.94c3.85,0,6.63,2.83,6.63,6.94,0,.16-.03.36-.03.57Zm-11.44-1.38h9.7a4.86,4.86,0,0,0-9.7,0Z" fill="#231f20"/>
      <path id="Caminho_28375" data-name="Caminho 28375" d="M1016.57,243.09l.83-1.46a8.244,8.244,0,0,0,4.86,1.53c2.6,0,3.67-.88,3.67-2.24,0-3.56-8.87-.75-8.87-6.16,0-2.24,1.92-3.9,5.41-3.9a9.293,9.293,0,0,1,4.84,1.27l-.81,1.48a7.042,7.042,0,0,0-4.03-1.17c-2.47,0-3.56.96-3.56,2.26,0,3.69,8.87.91,8.87,6.16,0,2.37-2.08,3.9-5.64,3.9a9.123,9.123,0,0,1-5.56-1.69Z" fill="#231f20"/>
      <path id="Caminho_28376" data-name="Caminho 28376" d="M1029.29,243.09l.83-1.46a8.244,8.244,0,0,0,4.86,1.53c2.6,0,3.67-.88,3.67-2.24,0-3.56-8.87-.75-8.87-6.16,0-2.24,1.92-3.9,5.41-3.9a9.292,9.292,0,0,1,4.84,1.27l-.81,1.48a7.042,7.042,0,0,0-4.03-1.17c-2.47,0-3.56.96-3.56,2.26,0,3.69,8.87.91,8.87,6.16,0,2.37-2.08,3.9-5.64,3.9a9.124,9.124,0,0,1-5.56-1.69Z" fill="#231f20"/>
      <path id="Caminho_28377" data-name="Caminho 28377" d="M1054.22,236.18v8.48h-1.77v-2.13a5.138,5.138,0,0,1-4.71,2.26c-3.09,0-4.99-1.61-4.99-3.98,0-2.11,1.35-3.87,5.28-3.87h4.34v-.83c0-2.34-1.33-3.61-3.87-3.61a6.955,6.955,0,0,0-4.55,1.61l-.83-1.38a8.694,8.694,0,0,1,5.56-1.85c3.54,0,5.54,1.77,5.54,5.3Zm-1.85,4.37v-2.24h-4.29c-2.65,0-3.51,1.04-3.51,2.44,0,1.59,1.27,2.57,3.46,2.57a4.284,4.284,0,0,0,4.34-2.78Z" fill="#231f20"/>
      <path id="Caminho_28378" data-name="Caminho 28378" d="M1068.91,226.66a1.335,1.335,0,0,1,1.35-1.3,1.31,1.31,0,0,1,1.35,1.27,1.35,1.35,0,0,1-2.7.02Zm.42,4.32h1.85v13.68h-1.85Z" fill="#231f20"/>
      <path id="Caminho_28379" data-name="Caminho 28379" d="M1088.9,236.72v7.93h-1.85V236.9c0-2.89-1.51-4.37-4.11-4.37-2.94,0-4.78,1.82-4.78,4.94v7.18h-1.85V230.97h1.77v2.52a5.756,5.756,0,0,1,5.2-2.63c3.33,0,5.62,1.92,5.62,5.85Z" fill="#231f20"/>
      <path id="Caminho_28380" data-name="Caminho 28380" d="M1101.12,243.82a4.4,4.4,0,0,1-2.89.96,3.624,3.624,0,0,1-4-3.98v-8.27h-2.44v-1.56h2.44v-2.99h1.85v2.99h4.16v1.56h-4.16v8.16a2.194,2.194,0,0,0,2.37,2.5,3.056,3.056,0,0,0,2.03-.7l.65,1.33Z" fill="#231f20"/>
      <path id="Caminho_28381" data-name="Caminho 28381" d="M1115.89,238.39h-11.44a5.063,5.063,0,0,0,5.38,4.76,5.422,5.422,0,0,0,4.19-1.79l1.04,1.2a6.72,6.72,0,0,1-5.28,2.24c-4.26,0-7.18-2.91-7.18-6.97a6.58,6.58,0,0,1,6.68-6.94c3.85,0,6.63,2.83,6.63,6.94,0,.16-.03.36-.03.57Zm-11.44-1.38h9.7a4.86,4.86,0,0,0-9.7,0Z" fill="#231f20"/>
      <path id="Caminho_28382" data-name="Caminho 28382" d="M1126.58,230.87v1.79c-.16,0-.31-.03-.44-.03-2.86,0-4.6,1.82-4.6,5.04v6.97h-1.85V230.96h1.77v2.68c.86-1.82,2.6-2.78,5.12-2.78Z" fill="#231f20"/>
      <path id="Caminho_28383" data-name="Caminho 28383" d="M1143.76,237.81a6.623,6.623,0,0,1-6.81,6.97,5.988,5.988,0,0,1-5.2-2.7v7.62h-1.85V230.98h1.77v2.7a5.967,5.967,0,0,1,5.28-2.81,6.615,6.615,0,0,1,6.81,6.94Zm-1.85,0a5.1,5.1,0,1,0-5.1,5.33A5.038,5.038,0,0,0,1141.91,237.81Z" fill="#231f20"/>
      <path id="Caminho_28384" data-name="Caminho 28384" d="M1154.42,230.87v1.79c-.16,0-.31-.03-.44-.03-2.86,0-4.6,1.82-4.6,5.04v6.97h-1.85V230.96h1.77v2.68c.86-1.82,2.6-2.78,5.12-2.78Z" fill="#231f20"/>
      <path id="Caminho_28385" data-name="Caminho 28385" d="M1169.53,238.39h-11.44a5.063,5.063,0,0,0,5.38,4.76,5.422,5.422,0,0,0,4.19-1.79l1.04,1.2a6.72,6.72,0,0,1-5.28,2.24c-4.26,0-7.18-2.91-7.18-6.97a6.58,6.58,0,0,1,6.68-6.94c3.85,0,6.63,2.83,6.63,6.94,0,.16-.03.36-.03.57Zm-11.44-1.38h9.7a4.86,4.86,0,0,0-9.7,0Z" fill="#231f20"/>
      <path id="Caminho_28386" data-name="Caminho 28386" d="M1180.53,243.82a4.4,4.4,0,0,1-2.89.96,3.624,3.624,0,0,1-4-3.98v-8.27h-2.44v-1.56h2.44v-2.99h1.85v2.99h4.16v1.56h-4.16v8.16a2.194,2.194,0,0,0,2.37,2.5,3.056,3.056,0,0,0,2.03-.7l.65,1.33Z" fill="#231f20"/>
      <path id="Caminho_28387" data-name="Caminho 28387" d="M1194.2,236.18v8.48h-1.77v-2.13a5.138,5.138,0,0,1-4.71,2.26c-3.09,0-4.99-1.61-4.99-3.98,0-2.11,1.35-3.87,5.28-3.87h4.34v-.83c0-2.34-1.33-3.61-3.88-3.61a6.955,6.955,0,0,0-4.55,1.61l-.83-1.38a8.694,8.694,0,0,1,5.56-1.85c3.54,0,5.54,1.77,5.54,5.3Zm-1.85,4.37v-2.24h-4.29c-2.65,0-3.51,1.04-3.51,2.44,0,1.59,1.27,2.57,3.46,2.57a4.284,4.284,0,0,0,4.34-2.78Z" fill="#231f20"/>
      <path id="Caminho_28388" data-name="Caminho 28388" d="M1208.92,241.14l1.38.94a6.019,6.019,0,0,1-5.36,2.7h-.05l-.31,1.22a2.119,2.119,0,0,1,2.21,2.11c0,1.4-1.2,2.26-2.94,2.26a3.719,3.719,0,0,1-2.18-.6l.44-.99a3.052,3.052,0,0,0,1.72.49c1.04,0,1.61-.44,1.61-1.22,0-.7-.52-1.2-1.61-1.2h-.6l.57-2.16a6.956,6.956,0,0,1,1.15-13.83,6,6,0,0,1,5.36,2.7l-1.38.94a4.65,4.65,0,0,0-3.98-2.03,5.332,5.332,0,0,0,0,10.66,4.623,4.623,0,0,0,3.98-2Z" fill="#231f20"/>
      <path id="Caminho_28389" data-name="Caminho 28389" d="M1224.23,236.18v8.48h-1.77v-2.13a5.138,5.138,0,0,1-4.71,2.26c-3.09,0-4.99-1.61-4.99-3.98,0-2.11,1.35-3.87,5.28-3.87h4.34v-.83c0-2.34-1.33-3.61-3.88-3.61a6.955,6.955,0,0,0-4.55,1.61l-.83-1.38a8.694,8.694,0,0,1,5.56-1.85c3.54,0,5.54,1.77,5.54,5.3Zm-1.85,4.37v-2.24h-4.29c-2.65,0-3.51,1.04-3.51,2.44,0,1.59,1.27,2.57,3.46,2.57a4.284,4.284,0,0,0,4.34-2.78Zm-6.63-11.93h-1.12c.05-1.74.96-2.86,2.34-2.86,1.61,0,2.39,1.77,3.41,1.77.78,0,1.3-.62,1.35-1.61h1.12c-.05,1.69-.96,2.81-2.34,2.81-1.61,0-2.37-1.77-3.41-1.77C1216.32,226.96,1215.8,227.58,1215.75,228.62Z" fill="#231f20"/>
      <path id="Caminho_28390" data-name="Caminho 28390" d="M1227.92,237.81a6.955,6.955,0,1,1,6.97,6.97A6.721,6.721,0,0,1,1227.92,237.81Zm12.04,0a5.091,5.091,0,1,0-5.07,5.33A4.987,4.987,0,0,0,1239.96,237.81Z" fill="#231f20"/>
      <path id="Caminho_28391" data-name="Caminho 28391" d="M1253.79,243.09l.83-1.46a8.244,8.244,0,0,0,4.86,1.53c2.6,0,3.67-.88,3.67-2.24,0-3.56-8.87-.75-8.87-6.16,0-2.24,1.92-3.9,5.41-3.9a9.292,9.292,0,0,1,4.84,1.27l-.81,1.48a7.042,7.042,0,0,0-4.03-1.17c-2.47,0-3.56.96-3.56,2.26,0,3.69,8.87.91,8.87,6.16,0,2.37-2.08,3.9-5.64,3.9a9.124,9.124,0,0,1-5.56-1.69Z" fill="#231f20"/>
      <path id="Caminho_28392" data-name="Caminho 28392" d="M1280.31,238.39h-11.44a5.063,5.063,0,0,0,5.38,4.76,5.422,5.422,0,0,0,4.19-1.79l1.04,1.2a6.72,6.72,0,0,1-5.28,2.24c-4.26,0-7.18-2.91-7.18-6.97a6.58,6.58,0,0,1,6.68-6.94c3.85,0,6.63,2.83,6.63,6.94,0,.16-.03.36-.03.57Zm-11.44-1.38h9.7a4.86,4.86,0,0,0-9.7,0Z" fill="#231f20"/>
      <path id="Caminho_28393" data-name="Caminho 28393" d="M1291,230.87v1.79c-.16,0-.31-.03-.44-.03-2.86,0-4.6,1.82-4.6,5.04v6.97h-1.85V230.96h1.77v2.68c.86-1.82,2.6-2.78,5.12-2.78Z" fill="#231f20"/>
      <path id="Caminho_28394" data-name="Caminho 28394" d="M1295.86,243.35a4.244,4.244,0,0,1-.36,1.51l-1.09,3.59h-1.25l.88-3.77a1.318,1.318,0,0,1-.94-1.33,1.357,1.357,0,0,1,1.38-1.4,1.375,1.375,0,0,1,1.38,1.4Z" fill="#231f20"/>
      <path id="Caminho_28395" data-name="Caminho 28395" d="M1323.73,237.81a6.623,6.623,0,0,1-6.81,6.97,5.988,5.988,0,0,1-5.2-2.7v7.62h-1.85V230.98h1.77v2.7a5.967,5.967,0,0,1,5.28-2.81,6.615,6.615,0,0,1,6.81,6.94Zm-1.85,0a5.1,5.1,0,1,0-5.1,5.33A5.038,5.038,0,0,0,1321.88,237.81Z" fill="#231f20"/>
      <path id="Caminho_28396" data-name="Caminho 28396" d="M1337.75,236.18v8.48h-1.77v-2.13a5.138,5.138,0,0,1-4.71,2.26c-3.09,0-4.99-1.61-4.99-3.98,0-2.11,1.35-3.87,5.28-3.87h4.34v-.83c0-2.34-1.33-3.61-3.88-3.61a6.955,6.955,0,0,0-4.55,1.61l-.83-1.38a8.694,8.694,0,0,1,5.56-1.85c3.54,0,5.54,1.77,5.54,5.3Zm-1.85,4.37v-2.24h-4.29c-2.65,0-3.51,1.04-3.51,2.44,0,1.59,1.27,2.57,3.46,2.57a4.284,4.284,0,0,0,4.34-2.78Z" fill="#231f20"/>
      <path id="Caminho_28397" data-name="Caminho 28397" d="M1349.66,230.87v1.79c-.16,0-.31-.03-.44-.03-2.86,0-4.6,1.82-4.6,5.04v6.97h-1.85V230.96h1.77v2.68c.86-1.82,2.6-2.78,5.12-2.78Z" fill="#231f20"/>
      <path id="Caminho_28398" data-name="Caminho 28398" d="M1363.28,236.18v8.48h-1.77v-2.13a5.138,5.138,0,0,1-4.71,2.26c-3.09,0-4.99-1.61-4.99-3.98,0-2.11,1.35-3.87,5.28-3.87h4.34v-.83c0-2.34-1.33-3.61-3.88-3.61a6.955,6.955,0,0,0-4.55,1.61l-.83-1.38a8.694,8.694,0,0,1,5.56-1.85c3.54,0,5.54,1.77,5.54,5.3Zm-1.85,4.37v-2.24h-4.29c-2.65,0-3.51,1.04-3.51,2.44,0,1.59,1.27,2.57,3.46,2.57a4.284,4.284,0,0,0,4.34-2.78Z" fill="#231f20"/>
      <path id="Caminho_28399" data-name="Caminho 28399" d="M154.82,281.38v8.48h-1.77v-2.13a5.138,5.138,0,0,1-4.71,2.26c-3.09,0-4.99-1.61-4.99-3.98,0-2.11,1.35-3.87,5.28-3.87h4.34v-.83c0-2.34-1.33-3.61-3.88-3.61a6.955,6.955,0,0,0-4.55,1.61l-.83-1.38a8.694,8.694,0,0,1,5.56-1.85c3.54,0,5.54,1.77,5.54,5.3Zm-1.85,4.37v-2.24h-4.29c-2.65,0-3.51,1.04-3.51,2.44,0,1.59,1.27,2.57,3.46,2.57a4.284,4.284,0,0,0,4.34-2.78Z" fill="#231f20"/>
      <path id="Caminho_28400" data-name="Caminho 28400" d="M159.84,270.56h1.85v19.29h-1.85Z" fill="#231f20"/>
      <path id="Caminho_28401" data-name="Caminho 28401" d="M178.74,283.59H167.3a5.063,5.063,0,0,0,5.38,4.76,5.422,5.422,0,0,0,4.19-1.79l1.04,1.2a6.72,6.72,0,0,1-5.28,2.24c-4.26,0-7.18-2.91-7.18-6.97a6.58,6.58,0,0,1,6.68-6.94c3.85,0,6.63,2.83,6.63,6.94,0,.16-.03.36-.03.57Zm-11.44-1.38H177a4.86,4.86,0,0,0-9.7,0Zm4.97-8.14h-1.82l3.56-3.22h2.47l-4.21,3.22Z" fill="#231f20"/>
      <path id="Caminho_28402" data-name="Caminho 28402" d="M205.11,281.92v7.93h-1.85V282.1c0-2.89-1.46-4.37-3.93-4.37-2.81,0-4.58,1.82-4.58,4.94v7.18H192.9V282.1c0-2.89-1.46-4.37-3.95-4.37-2.78,0-4.58,1.82-4.58,4.94v7.18h-1.85V276.17h1.77v2.5a5.525,5.525,0,0,1,5.02-2.6,4.877,4.877,0,0,1,4.86,2.89,5.96,5.96,0,0,1,5.41-2.89c3.33,0,5.51,1.92,5.51,5.85Z" fill="#231f20"/>
      <path id="Caminho_28403" data-name="Caminho 28403" d="M229.42,270.56v19.29h-1.77v-2.7a5.92,5.92,0,0,1-5.28,2.83,6.957,6.957,0,0,1,0-13.91,5.988,5.988,0,0,1,5.2,2.7v-8.22h1.85Zm-1.82,12.45a5.091,5.091,0,1,0-5.07,5.33A5,5,0,0,0,227.6,283.01Z" fill="#231f20"/>
      <path id="Caminho_28404" data-name="Caminho 28404" d="M246.47,283.59H235.03a5.063,5.063,0,0,0,5.38,4.76,5.422,5.422,0,0,0,4.19-1.79l1.04,1.2a6.72,6.72,0,0,1-5.28,2.24c-4.26,0-7.18-2.91-7.18-6.97a6.58,6.58,0,0,1,6.68-6.94c3.85,0,6.63,2.83,6.63,6.94,0,.16-.03.36-.03.57Zm-11.44-1.38h9.7a4.86,4.86,0,0,0-9.7,0Z" fill="#231f20"/>
      <path id="Caminho_28405" data-name="Caminho 28405" d="M252.17,294.14l.65-1.4a3.179,3.179,0,0,0,2.13.7c1.46,0,2.26-.88,2.26-2.57V276.18h1.85v14.69c0,2.52-1.4,4.16-4,4.16a4.564,4.564,0,0,1-2.89-.88Zm4.63-22.28a1.335,1.335,0,0,1,1.35-1.3,1.31,1.31,0,0,1,1.35,1.27,1.35,1.35,0,0,1-2.7.02Z" fill="#231f20"/>
      <path id="Caminho_28406" data-name="Caminho 28406" d="M276.53,276.18v13.68h-1.77v-2.5a5.447,5.447,0,0,1-4.91,2.63c-3.48,0-5.77-1.95-5.77-5.88v-7.93h1.85v7.75c0,2.91,1.51,4.39,4.11,4.39,2.86,0,4.65-1.85,4.65-4.97v-7.18h1.85Z" fill="#231f20"/>
      <path id="Caminho_28407" data-name="Caminho 28407" d="M288.59,276.07v1.79c-.16,0-.31-.03-.44-.03-2.86,0-4.6,1.82-4.6,5.04v6.97H281.7V276.16h1.77v2.68c.86-1.82,2.6-2.78,5.12-2.78Z" fill="#231f20"/>
      <path id="Caminho_28408" data-name="Caminho 28408" d="M294.73,270.85h2.47l-4.21,3.22h-1.82Zm-2.81,5.33h1.85v13.68h-1.85Z" fill="#231f20"/>
      <path id="Caminho_28409" data-name="Caminho 28409" d="M311.39,270.56v19.29h-1.77v-2.7a5.92,5.92,0,0,1-5.28,2.83,6.957,6.957,0,0,1,0-13.91,5.988,5.988,0,0,1,5.2,2.7v-8.22h1.85Zm-1.82,12.45a5.091,5.091,0,1,0-5.07,5.33A5,5,0,0,0,309.57,283.01Z" fill="#231f20"/>
      <path id="Caminho_28410" data-name="Caminho 28410" d="M316.13,271.86a1.335,1.335,0,0,1,1.35-1.3,1.31,1.31,0,0,1,1.35,1.27,1.35,1.35,0,0,1-2.7.02Zm.42,4.32h1.85v13.68h-1.85Z" fill="#231f20"/>
      <path id="Caminho_28411" data-name="Caminho 28411" d="M322.16,283.01a6.73,6.73,0,0,1,7.05-6.94,6,6,0,0,1,5.36,2.7l-1.38.94a4.65,4.65,0,0,0-3.98-2.03,5.332,5.332,0,0,0,0,10.66,4.623,4.623,0,0,0,3.98-2l1.38.94a6.027,6.027,0,0,1-5.36,2.71,6.76,6.76,0,0,1-7.05-6.97Z" fill="#231f20"/>
      <path id="Caminho_28412" data-name="Caminho 28412" d="M348.5,281.38v8.48h-1.77v-2.13a5.138,5.138,0,0,1-4.71,2.26c-3.09,0-4.99-1.61-4.99-3.98,0-2.11,1.35-3.87,5.28-3.87h4.34v-.83c0-2.34-1.33-3.61-3.87-3.61a6.955,6.955,0,0,0-4.55,1.61l-.83-1.38a8.694,8.694,0,0,1,5.56-1.85c3.54,0,5.54,1.77,5.54,5.3Zm-1.85,4.37v-2.24h-4.29c-2.65,0-3.51,1.04-3.51,2.44,0,1.59,1.27,2.57,3.46,2.57a4.284,4.284,0,0,0,4.34-2.78Z" fill="#231f20"/>
      <path id="Caminho_28413" data-name="Caminho 28413" d="M355.1,288.55a4.245,4.245,0,0,1-.36,1.51l-1.09,3.59H352.4l.88-3.77a1.318,1.318,0,0,1-.94-1.33,1.357,1.357,0,0,1,1.38-1.4,1.375,1.375,0,0,1,1.38,1.4Z" fill="#231f20"/>
      <path id="Caminho_28414" data-name="Caminho 28414" d="M379.7,283.01a6.623,6.623,0,0,1-6.81,6.97,5.974,5.974,0,0,1-5.2-2.71v7.62h-1.85V276.17h1.77v2.7a5.966,5.966,0,0,1,5.28-2.81A6.615,6.615,0,0,1,379.7,283Zm-1.85,0a5.1,5.1,0,1,0-5.1,5.33A5.038,5.038,0,0,0,377.85,283.01Z" fill="#231f20"/>
      <path id="Caminho_28415" data-name="Caminho 28415" d="M382.09,283.01a6.955,6.955,0,1,1,6.97,6.97A6.721,6.721,0,0,1,382.09,283.01Zm12.04,0a5.091,5.091,0,1,0-5.07,5.33A4.987,4.987,0,0,0,394.13,283.01Z" fill="#231f20"/>
      <path id="Caminho_28416" data-name="Caminho 28416" d="M399.77,270.56h1.85v19.29h-1.85Z" fill="#231f20"/>
      <path id="Caminho_28417" data-name="Caminho 28417" d="M409.57,270.85h2.47l-4.21,3.22h-1.82Zm-2.81,5.33h1.85v13.68h-1.85Z" fill="#231f20"/>
      <path id="Caminho_28418" data-name="Caminho 28418" d="M420.96,289.02a4.4,4.4,0,0,1-2.89.96,3.624,3.624,0,0,1-4-3.98v-8.27h-2.44v-1.56h2.44v-2.99h1.85v2.99h4.16v1.56h-4.16v8.17a2.194,2.194,0,0,0,2.37,2.5,3.056,3.056,0,0,0,2.03-.7l.65,1.33Z" fill="#231f20"/>
      <path id="Caminho_28419" data-name="Caminho 28419" d="M423.89,271.86a1.335,1.335,0,0,1,1.35-1.3,1.31,1.31,0,0,1,1.35,1.27,1.35,1.35,0,0,1-2.7.02Zm.42,4.32h1.85v13.68h-1.85Z" fill="#231f20"/>
      <path id="Caminho_28420" data-name="Caminho 28420" d="M429.93,283.01a6.73,6.73,0,0,1,7.05-6.94,6,6,0,0,1,5.36,2.7l-1.38.94a4.65,4.65,0,0,0-3.98-2.03,5.332,5.332,0,0,0,0,10.66,4.623,4.623,0,0,0,3.98-2l1.38.94a6.027,6.027,0,0,1-5.36,2.71,6.76,6.76,0,0,1-7.05-6.97Z" fill="#231f20"/>
      <path id="Caminho_28421" data-name="Caminho 28421" d="M456.26,281.38v8.48h-1.77v-2.13a5.138,5.138,0,0,1-4.71,2.26c-3.09,0-4.99-1.61-4.99-3.98,0-2.11,1.35-3.87,5.28-3.87h4.34v-.83c0-2.34-1.33-3.61-3.88-3.61a6.955,6.955,0,0,0-4.55,1.61l-.83-1.38a8.694,8.694,0,0,1,5.56-1.85c3.54,0,5.54,1.77,5.54,5.3Zm-1.85,4.37v-2.24h-4.29c-2.65,0-3.51,1.04-3.51,2.44,0,1.59,1.27,2.57,3.46,2.57a4.284,4.284,0,0,0,4.34-2.78Z" fill="#231f20"/>
      <path id="Caminho_28422" data-name="Caminho 28422" d="M468.33,276.31c0-1.87-1.53-3.17-4.19-3.17a6.066,6.066,0,0,0-4.97,2.11l-1.38-1.04a7.919,7.919,0,0,1,6.47-2.7c3.64,0,5.98,1.74,5.98,4.52,0,4.45-4.76,4.65-4.76,8.37h-1.92c0-4.29,4.76-4.68,4.76-8.09Zm-5.15,12.32a1.328,1.328,0,0,1,1.35-1.33,1.34,1.34,0,1,1-1.35,1.33Z" fill="#231f20"/>
    </g>
  </g>
</svg>
