<?xml version="1.0" encoding="UTF-8"?>
<svg id="Layer_2" data-name="Layer 2" xmlns="http://www.w3.org/2000/svg" viewBox="0 0 132.39 132.39">
  <defs>
    <style>
      .cls-1 {
        fill: #fff;
      }

      .cls-2 {
        fill: #b1c68f;
      }
    </style>
  </defs>
  <g id="Layer_1-2" data-name="Layer 1">
    <g>
      <circle class="cls-2" cx="66.19" cy="66.19" r="66.19"/>
      <g>
        <path class="cls-1" d="m60.93,92.68h-27.55v-5.2h10.6v-34.11h-10.6v-4.65c1.44,0,2.97-.12,4.61-.36,1.64-.24,2.88-.59,3.73-1.04,1.05-.57,1.87-1.29,2.48-2.17.6-.88.95-2.06,1.04-3.54h5.3v45.87h10.39v5.2Z"/>
        <path class="cls-1" d="m99,66.16c0,9.14-1.43,15.84-4.29,20.11-2.86,4.27-7.3,6.41-13.31,6.41s-10.57-2.16-13.38-6.49c-2.82-4.33-4.22-10.98-4.22-19.96s1.42-15.73,4.27-20.05c2.85-4.32,7.29-6.48,13.33-6.48s10.57,2.19,13.38,6.58c2.81,4.39,4.22,11.01,4.22,19.88Zm-8.99,15.52c.8-1.85,1.34-4.02,1.62-6.51.29-2.5.43-5.5.43-9.01s-.14-6.47-.43-9.02c-.29-2.55-.84-4.72-1.66-6.49-.8-1.75-1.89-3.08-3.26-3.96s-3.15-1.33-5.31-1.33-3.91.44-5.31,1.33c-1.4.89-2.51,2.23-3.33,4.03-.78,1.69-1.3,3.89-1.59,6.6-.29,2.71-.43,5.69-.43,8.92,0,3.55.12,6.53.38,8.92.25,2.39.79,4.54,1.61,6.43.75,1.78,1.82,3.13,3.2,4.07,1.38.93,3.21,1.4,5.49,1.4,2.14,0,3.92-.44,5.33-1.33,1.41-.89,2.51-2.23,3.28-4.03Z"/>
      </g>
    </g>
  </g>
</svg>