<?xml version="1.0" encoding="UTF-8"?>
<svg id="Layer_1" data-name="Layer 1" xmlns="http://www.w3.org/2000/svg" viewBox="0 0 296.23 290.12">
  <defs>
    <style>
      .cls-1 {
        fill: #fff;
      }

      .cls-2 {
        fill: #f0612b;
      }

      .cls-3 {
        fill: #cf4e28;
      }
    </style>
  </defs>
  <g>
    <path class="cls-2" d="m148.11,30.63c-63.2,0-114.43,51.23-114.43,114.43h228.86c0-63.2-51.23-114.43-114.43-114.43Z"/>
    <path class="cls-3" d="m148.11,259.49c63.2,0,114.43-51.23,114.43-114.43h0s-228.86,0-228.86,0h0c0,63.2,51.23,114.43,114.43,114.43Z"/>
  </g>
  <path class="cls-1" d="m199.55,149.33c3,2.57,5.38,5.57,7.16,8.99,1.77,3.43,2.66,7.98,2.66,13.67,0,6.42-1.27,12.42-3.81,17.99-2.54,5.57-6.44,10.34-11.7,14.32-5.14,3.85-11.18,6.81-18.13,8.86-6.94,2.05-15.37,3.07-25.28,3.07-11.32,0-21.03-.89-29.14-2.66-8.11-1.77-14.7-3.76-19.78-5.97v-30.01h3.58c5.26,3.18,11.55,5.93,18.86,8.26,7.31,2.33,14,3.49,20.05,3.49,3.55,0,7.4-.29,11.56-.87,4.16-.58,7.68-1.85,10.55-3.81,2.26-1.53,4.07-3.38,5.41-5.55,1.35-2.17,2.02-5.31,2.02-9.41s-.92-7.05-2.75-9.22c-1.84-2.17-4.25-3.72-7.25-4.63-3-.98-6.61-1.51-10.83-1.61-4.22-.09-8.14-.14-11.75-.14h-7.53v-24.41h7.8c4.77,0,8.99-.15,12.67-.46,3.67-.31,6.79-1.01,9.36-2.11,2.69-1.16,4.71-2.71,6.06-4.63,1.35-1.93,2.02-4.76,2.02-8.49,0-2.75-.7-4.97-2.11-6.65-1.41-1.68-3.18-3.01-5.32-3.99-2.39-1.1-5.2-1.84-8.44-2.2-3.24-.37-6.03-.55-8.35-.55-5.75,0-11.99,1-18.72,2.98-6.73,1.99-13.25,4.85-19.55,8.58h-3.4v-29.64c5.02-2.02,11.84-3.96,20.47-5.83,8.63-1.87,17.38-2.8,26.25-2.8s16.18.75,22.67,2.25c6.48,1.5,11.84,3.5,16.06,6.01,5.02,3,8.75,6.64,11.2,10.92,2.45,4.28,3.67,9.3,3.67,15.05,0,7.59-2.36,14.36-7.07,20.33-4.71,5.97-10.92,9.77-18.63,11.43v1.29c3.12.43,6.42,1.28,9.91,2.57,3.49,1.28,6.67,3.15,9.54,5.6Z"/>
</svg>