<?xml version="1.0" encoding="UTF-8"?>
<svg id="Layer_1" data-name="Layer 1" xmlns="http://www.w3.org/2000/svg" xmlns:xlink="http://www.w3.org/1999/xlink" viewBox="0 0 1247.65 1537.41">
  <defs>
    <style>
      .cls-1 {
        fill: url(#linear-gradient-2);
      }

      .cls-2 {
        fill: #d6d6d6;
      }

      .cls-3 {
        fill: #e1cc21;
      }

      .cls-4 {
        fill: url(#linear-gradient-3);
      }

      .cls-5 {
        fill: #282e3a;
      }

      .cls-6 {
        fill: url(#linear-gradient);
      }

      .cls-7 {
        fill: #bba731;
      }

      .cls-8 {
        fill: #231f20;
      }

      .cls-9 {
        fill: url(#linear-gradient-4);
      }
    </style>
    <linearGradient id="linear-gradient" x1="1543.24" y1="1442.79" x2="-59.45" y2="-45.91" gradientUnits="userSpaceOnUse">
      <stop offset=".32" stop-color="#f89a50"/>
      <stop offset=".58" stop-color="#f6ac6f"/>
      <stop offset=".76" stop-color="#f6b780"/>
      <stop offset=".77" stop-color="#f6b47c"/>
      <stop offset=".86" stop-color="#f7a15c"/>
      <stop offset=".9" stop-color="#f89a50"/>
    </linearGradient>
    <linearGradient id="linear-gradient-2" x1="1543.24" y1="1473.47" x2="-59.45" y2="-15.22" xlink:href="#linear-gradient"/>
    <linearGradient id="linear-gradient-3" x1="1543.24" y1="1504.16" x2="-59.45" y2="15.47" xlink:href="#linear-gradient"/>
    <linearGradient id="linear-gradient-4" x1="1543.24" y1="1534.84" x2="-59.45" y2="46.15" xlink:href="#linear-gradient"/>
  </defs>
  <path class="cls-2" d="m1159.04,676.68c.04-169.13-.53-339.93-2.53-439.85-.09-4.7-.17-9.83-.23-15.25.2-30.13.49-53.26.49-53.26h-.31c.16-18.36.31-30.69.31-30.69h-.31c.16-18.36.31-30.69.31-30.69h-.31c.16-18.36.31-30.69.31-30.69l-627.7,1.91-357.1,12.53-12.53,404.09.22,23.48-.22,7.2.22,23.48-.22,7.2.22,23.48-.22,7.2,6.35,667.62s397.45-8.01,532.72-9.29c135.27-1.28,459.16,6.8,459.16,6.8.37-69.52,1.43-294.02,1.38-513.92,0-10.23,0-20.46,0-30.69,0-10.23,0-20.46,0-30.69Z"/>
  <path class="cls-6" d="m134.4,60.02l357.1-12.53,627.7-1.91s-1.33,107.14-.26,160.57c4.48,223.84,1.79,803.36,1.15,923.09,0,0-336.13-.5-471.4.78-135.27,1.28-520.47,1.7-520.47,1.7l-6.35-667.62,12.53-404.09Z"/>
  <path class="cls-1" d="m134.4,90.71l357.1-12.53,627.7-1.91s-1.33,107.14-.26,160.57c4.48,223.84,1.79,803.36,1.15,923.09,0,0-336.13-.5-471.4.78-135.27,1.28-520.47,1.7-520.47,1.7l-6.35-667.62,12.53-404.09Z"/>
  <path class="cls-4" d="m134.4,121.39l357.1-12.53,627.7-1.91s-1.33,107.14-.26,160.57c4.48,223.84,1.79,803.36,1.15,923.09,0,0-336.13-.5-471.4.78-135.27,1.28-520.47,1.7-520.47,1.7l-6.35-667.62,12.53-404.09Z"/>
  <path class="cls-9" d="m134.4,152.08l357.1-12.53,627.7-1.91s-1.33,107.14-.26,160.57c4.48,223.84,1.79,803.36,1.15,923.09,0,0-336.13-.5-471.4.78-135.27,1.28-520.47,1.7-520.47,1.7l-6.35-667.62,12.53-404.09Z"/>
  <g>
    <path class="cls-8" d="m492.54,695.2v9.44h-39.36v-50.83h38.41v9.44h-26.72v11.04h23.6v9.15h-23.6v11.76h27.67Z"/>
    <path class="cls-8" d="m498.57,679.23c0-15.32,11.76-26.29,27.59-26.29,8.79,0,16.12,3.2,20.91,9l-7.55,6.97c-3.41-3.92-7.7-5.95-12.78-5.95-9.51,0-16.27,6.68-16.27,16.27s6.75,16.27,16.27,16.27c5.08,0,9.37-2.03,12.78-6.03l7.55,6.97c-4.79,5.88-12.13,9.08-20.99,9.08-15.76,0-27.52-10.96-27.52-26.29Z"/>
    <path class="cls-8" d="m550.71,679.23c0-15.1,11.76-26.29,27.81-26.29s27.81,11.11,27.81,26.29-11.84,26.29-27.81,26.29-27.81-11.18-27.81-26.29Zm43.71,0c0-9.66-6.83-16.27-15.9-16.27s-15.9,6.61-15.9,16.27,6.83,16.27,15.9,16.27,15.9-6.61,15.9-16.27Z"/>
    <path class="cls-8" d="m661.82,653.81v50.83h-9.66l-25.34-30.86v30.86h-11.62v-50.83h9.73l25.27,30.86v-30.86h11.62Z"/>
    <path class="cls-8" d="m670.69,679.23c0-15.1,11.76-26.29,27.81-26.29s27.81,11.11,27.81,26.29-11.84,26.29-27.81,26.29-27.81-11.18-27.81-26.29Zm43.71,0c0-9.66-6.83-16.27-15.9-16.27s-15.9,6.61-15.9,16.27,6.83,16.27,15.9,16.27,15.9-6.61,15.9-16.27Z"/>
    <path class="cls-8" d="m781.43,704.64l-.07-30.5-14.96,25.12h-5.3l-14.89-24.47v29.85h-11.04v-50.83h9.73l19.03,31.59,18.74-31.59h9.66l.14,50.83h-11.04Z"/>
    <path class="cls-8" d="m804.53,653.81h11.76v50.83h-11.76v-50.83Z"/>
    <path class="cls-8" d="m861.82,693.75h-23.6l-4.5,10.89h-12.05l22.66-50.83h11.62l22.73,50.83h-12.34l-4.5-10.89Zm-3.7-8.93l-8.06-19.46-8.06,19.46h16.12Z"/>
  </g>
  <g>
    <path class="cls-5" d="m590.52,243.27s-.01,5.51-4.04,8.59c-4.03,3.08-9.1,0-9.1,0l-36.44-49.1,17.7-10.77,31.88,51.28Z"/>
    <g>
      <path class="cls-3" d="m556.66,213.53c-30.31,15.86-64.31,11.99-80.89-7.76.71,3.38,1.87,6.65,3.5,9.78,12.96,24.78,50.9,30.51,84.73,12.81,33.83-17.7,50.75-52.14,37.78-76.91-1.34-2.56-3-4.87-4.84-7.02,5.53,24.52-10.69,53.62-40.27,69.09Z"/>
      <path class="cls-7" d="m556.66,213.53c29.58-15.48,45.8-44.57,40.27-69.09-15.97-18.65-49.55-21.67-79.88-5.8-29.57,15.47-46.21,43.72-41.28,67.14,16.58,19.74,50.58,23.61,80.89,7.76Z"/>
    </g>
    <path class="cls-3" d="m458.51,101.93s20.65,18.24,36.21,71.68c0,0,15.5,16.56,41.26,1.98,25.08-14.19,19.68-34.92,19.68-34.92,0,0-41.53-46.89-42.19-73.49,0,0-45.74,10.67-54.96,34.74Z"/>
    <path class="cls-3" d="m528.03,55.46c9.27,17.72-3.44,42.66-28.39,55.72-24.95,13.05-52.69,9.27-61.96-8.45-9.27-17.72,3.44-42.66,28.39-55.72,24.95-13.05,52.69-9.27,61.96,8.45Z"/>
    <path class="cls-7" d="m527.41,54.14c7.52,14.38-6.6,36.62-31.55,49.67-24.95,13.05-51.27,11.98-58.8-2.4-7.52-14.38,4.06-41.34,29.01-54.4,24.95-13.05,53.82-7.25,61.34,7.13Z"/>
    <path class="cls-3" d="m512.98,45.66c5.04,9.64-10.33,27.28-28.23,36.64-17.89,9.36-41.35,11.21-46.39,1.58-5.04-9.64,8.96-26.16,26.86-35.52,17.89-9.36,42.72-12.34,47.76-2.7Z"/>
  </g>
</svg>