<?xml version="1.0" encoding="UTF-8"?>
<svg id="Layer_2" data-name="Layer 2" xmlns="http://www.w3.org/2000/svg" xmlns:xlink="http://www.w3.org/1999/xlink" viewBox="0 0 1473.67 533.55">
  <defs>
    <style>
      .cls-1 {
        fill: #008662;
      }

      .cls-2 {
        fill: #fff;
      }

      .cls-3 {
        clip-path: url(#clippath-2);
      }

      .cls-4 {
        stroke: #038562;
        stroke-miterlimit: 10;
      }

      .cls-4, .cls-5 {
        fill: none;
      }

      .cls-6 {
        clip-path: url(#clippath-1);
      }

      .cls-7 {
        clip-path: url(#clippath);
      }

      .cls-8 {
        fill: #e3efe3;
      }

      .cls-9 {
        clip-path: url(#clippath-3);
      }

      .cls-10 {
        fill: #231f20;
      }
    </style>
    <clipPath id="clippath">
      <rect class="cls-5" y="0" width="1175.78" height="410.2"/>
    </clipPath>
    <clipPath id="clippath-1">
      <rect class="cls-5" y="0" width="1175.78" height="410.2"/>
    </clipPath>
    <clipPath id="clippath-2">
      <rect class="cls-5" y="0" width="1175.78" height="410.2"/>
    </clipPath>
    <clipPath id="clippath-3">
      <rect class="cls-5" y="0" width="1175.78" height="410.2"/>
    </clipPath>
  </defs>
  <g id="Layer_1-2" data-name="Layer 1-2">
    <rect class="cls-4" x="64.29" y="125.16" width="1408.88" height="407.89"/>
    <rect class="cls-5" y="0" width="1175.78" height="410.2"/>
    <rect class="cls-8" x="18.94" y="68.64" width="1423.77" height="426.31"/>
    <path class="cls-1" d="m18.68,103.53v-63.17l54.71-31.59,54.71,31.59v63.17l-54.71,31.59s-54.71-31.59-54.71-31.59ZM73.39,0L11.08,35.97v71.95l62.31,35.98,62.32-35.98V35.97L73.39,0Z"/>
    <polygon class="cls-2" points="128.1 40.36 128.1 103.53 73.39 135.12 18.68 103.53 18.68 40.36 73.39 8.77 128.1 40.36"/>
    <polygon class="cls-1" points="146.11 84.8 146.11 81.65 144.43 80.68 144.43 31.62 102.01 7.12 102.01 4.87 99.28 3.29 96.55 4.87 96.55 8.02 99.28 9.6 101.27 8.45 142.91 32.49 142.91 80.34 140.64 81.65 140.64 84.8 143.37 86.38 146.11 84.8"/>
    <polygon class="cls-1" points="0 58.08 0 61.23 1.67 62.2 1.67 111.27 44.09 135.76 44.09 138.02 46.83 139.6 49.56 138.02 49.56 134.86 46.83 133.29 44.83 134.44 3.19 110.39 3.19 62.55 5.47 61.23 5.47 58.08 2.73 56.5 0 58.08"/>
    <g class="cls-7">
      <path class="cls-1" d="m92.63,96.76c.03-16.02.22-32.03.32-48.05,0-1.06-.21-2.16-.57-3.14-.21-.56-.95-.93-1.68-1.59-.76,2.49.27,4.18-3.4,3.63-3.76-.56-1.92-2.27-2.68-4.63-.62-.07-1.38-.14-2.09-.22-.81,2.22.67,4.04-2.9,4.07-3.88.04-2.57-2.04-3.37-4.35-.83.03-1.6.05-2.3.08-.97,2.08,1.07,3.93-2.82,4.03-4.01.1-2.18-2.06-3.38-4.01-.79-.04-1.57-.07-2.32-.11-.96,2.23,1.03,4.29-3.02,4.45-3.98.15-2.3-1.95-3.33-4.04-.87.11-1.71.21-2.45.29-.79,2.32.79,3.89-2.63,4.45-3.38.56-2.92-1.09-4.24-3.06-.75,1.37-1.32,2.77-1.32,4.17,0,14.5,0,29,.21,43.49.12,8.09.39,9.68,23.7,9.91,8.7-.27,10.99-.66,16.46-1.09,2.7-.21,3.8-1.47,3.81-4.28m4.74,1.79c.02,4.86-.32,5.42-5.15,6.14-6.39.87-12.83,1.35-19.28,1.7-7.25-.27-29.13,2.24-28.8-6.5-.03-14.05-.57-28.17-.75-42.21-.15-11.63-1.58-17.89,5.08-18.16,1.54-.13,2.39-.71,2.31-2.51-.31-4.68,6.29-4.33,5.74,1.23.89.04,1.74.1,2.65.15.86-2.2-.69-5.56,3.15-5.53,3.4.02,2.44,2.98,3.11,5.2.84-.03,1.69-.06,2.48-.08,1.12-2.13-1.06-5.8,3.17-5.69,3.98.1,1.85,3.58,2.98,5.73.63.04,1.4.09,2.32.15.39-2.28.24-6.04,2.99-5.5.93.04,1.88-.09,2.63.86.8,1.71-.87,5.95,2.63,4.81.8-1.81-.54-4.95,3.19-4.65,3.61.28,2.2,3.1,2.67,5.15,6.62,2.15,6.55.24,6.4,7.65.36,17.36.4,34.71.48,52.07"/>
    </g>
    <g class="cls-6">
      <path class="cls-2" d="m92.95,48.72c-.1,16.02-.29,32.03-.32,48.05,0,2.8-1.11,4.07-3.81,4.28-5.47.43-7.75.81-16.46,1.09-23.31-.23-23.58-1.82-23.7-9.91-.21-14.49-.2-28.99-.21-43.49,0-1.4.57-2.8,1.32-4.17,1.32,1.97.87,3.62,4.24,3.07,3.42-.56,1.84-2.14,2.63-4.45.74-.09,1.57-.18,2.45-.29,1.03,2.08-.65,4.19,3.33,4.04,4.05-.16,2.06-2.21,3.02-4.45.75.04,1.53.07,2.32.11,1.2,1.96-.64,4.11,3.38,4.01,3.89-.1,1.85-1.95,2.82-4.03.7-.02,1.47-.05,2.3-.08.8,2.31-.52,4.39,3.37,4.35,3.57-.03,2.09-1.86,2.9-4.08.71.08,1.47.15,2.09.22.75,2.36-1.08,4.07,2.68,4.63,3.66.56,2.64-1.14,3.4-3.63.73.66,1.47,1.03,1.68,1.59.36.98.57,2.08.57,3.14"/>
    </g>
    <g class="cls-3">
      <path class="cls-1" d="m59.4,118.57h-.49c-2.7,0-4.89-2.19-4.89-4.89v-43.91h10.27v43.91c0,2.7-2.19,4.89-4.89,4.89"/>
    </g>
    <polygon class="cls-1" points="59.16 54.85 61.72 61.56 64.29 68.28 59.16 68.28 54.02 68.28 56.59 61.56 59.16 54.85"/>
    <g class="cls-9">
      <path class="cls-2" d="m59.15,116.48h-.11c-.58,0-1.05-.47-1.05-1.05v-43.02h2.21v43.02c0,.58-.47,1.05-1.05,1.05"/>
    </g>
    <path class="cls-1" d="m114.26,72.45c0,11.11-9,20.11-20.11,20.11s-20.11-9-20.11-20.11,9-20.11,20.11-20.11,20.11,9,20.11,20.11"/>
    <path class="cls-2" d="m91.54,75.07v7.7c0,1.74,1,2.78,2.63,2.78s2.6-1.04,2.61-2.8v-7.68c2.69,0,5.26.01,7.82,0,1.62-.01,2.64-1.02,2.65-2.58.01-1.6-1.01-2.63-2.67-2.64-2.29-.02-4.58,0-6.87,0h-.92v-7.7c0-1.74-1-2.78-2.63-2.77-1.62,0-2.6,1.04-2.6,2.8v7.68c-2.69,0-5.25-.01-7.82,0-1.62.01-2.64,1.02-2.65,2.58-.01,1.6,1.01,2.64,2.67,2.65,2.56.02,5.12,0,7.8,0"/>
    <g>
      <path class="cls-10" d="m153.8,172.62l-8.06,18.2h-1.9l-8.06-18.2h2.08l6.97,15.81,7.02-15.81h1.95,0Z"/>
      <path class="cls-10" d="m166.9,184.56h-11.44c.21,2.86,2.39,4.76,5.38,4.76,1.66,0,3.15-.6,4.19-1.79l1.04,1.2c-1.22,1.46-3.12,2.24-5.28,2.24-4.26,0-7.18-2.91-7.18-6.97s2.83-6.94,6.68-6.94,6.63,2.83,6.63,6.94c0,.16-.03.36-.03.57h0Zm-11.44-1.38h9.7c-.23-2.68-2.18-4.55-4.86-4.55s-4.6,1.87-4.84,4.55Z"/>
      <path class="cls-10" d="m165.78,195.12l.65-1.4c.55.47,1.27.7,2.13.7,1.46,0,2.26-.88,2.26-2.57v-14.69h1.85v14.69c0,2.52-1.4,4.16-4,4.16-1.09,0-2.21-.29-2.89-.88h0Zm4.63-22.28c0-.7.6-1.3,1.35-1.3s1.35.57,1.35,1.27c0,.75-.57,1.35-1.35,1.35s-1.35-.6-1.35-1.33h0Z"/>
      <path class="cls-10" d="m188.14,182.35v8.48h-1.77v-2.13c-.83,1.4-2.44,2.26-4.71,2.26-3.09,0-4.99-1.61-4.99-3.98,0-2.11,1.35-3.88,5.28-3.88h4.34v-.83c0-2.34-1.33-3.61-3.88-3.61-1.77,0-3.43.62-4.55,1.61l-.83-1.38c1.38-1.17,3.41-1.85,5.56-1.85,3.54,0,5.54,1.77,5.54,5.3h.01Zm-1.85,4.37v-2.24h-4.29c-2.65,0-3.51,1.04-3.51,2.44,0,1.59,1.27,2.57,3.46,2.57s3.61-.99,4.34-2.78h0Z"/>
      <path class="cls-10" d="m215.73,182.9v7.93h-1.85v-7.75c0-2.89-1.46-4.37-3.93-4.37-2.81,0-4.58,1.82-4.58,4.94v7.18h-1.85v-7.75c0-2.89-1.46-4.37-3.95-4.37-2.78,0-4.58,1.82-4.58,4.94v7.18h-1.85v-13.68h1.77v2.5c.96-1.64,2.73-2.6,5.02-2.6s4.03.96,4.86,2.89c.99-1.77,2.94-2.89,5.41-2.89,3.33,0,5.51,1.92,5.51,5.85h.02Z"/>
      <path class="cls-10" d="m219.42,183.99c0-4.06,2.96-6.94,6.97-6.94s6.94,2.89,6.94,6.94-2.94,6.97-6.94,6.97-6.97-2.91-6.97-6.97Zm12.04,0c0-3.2-2.16-5.33-5.07-5.33s-5.1,2.13-5.1,5.33,2.18,5.33,5.1,5.33,5.07-2.13,5.07-5.33Z"/>
      <path class="cls-10" d="m235.2,189.27l.83-1.46c1.09.86,2.94,1.53,4.86,1.53,2.6,0,3.67-.88,3.67-2.24,0-3.56-8.87-.75-8.87-6.16,0-2.24,1.92-3.9,5.41-3.9,1.77,0,3.69.49,4.84,1.27l-.81,1.48c-1.2-.83-2.63-1.17-4.03-1.17-2.47,0-3.56.96-3.56,2.26,0,3.69,8.87.91,8.87,6.16,0,2.37-2.08,3.9-5.64,3.9-2.26,0-4.45-.73-5.56-1.69v.02Z"/>
      <path class="cls-10" d="m267.15,182.35v8.48h-1.77v-2.13c-.83,1.4-2.44,2.26-4.71,2.26-3.09,0-4.99-1.61-4.99-3.98,0-2.11,1.35-3.88,5.28-3.88h4.34v-.83c0-2.34-1.33-3.61-3.88-3.61-1.77,0-3.43.62-4.55,1.61l-.83-1.38c1.38-1.17,3.41-1.85,5.56-1.85,3.54,0,5.54,1.77,5.54,5.3h0Zm-1.85,4.37v-2.24h-4.29c-2.65,0-3.51,1.04-3.51,2.44,0,1.59,1.27,2.57,3.46,2.57s3.61-.99,4.34-2.78h0Z"/>
      <path class="cls-10" d="m272.16,171.53h1.85v19.29h-1.85v-19.29Z"/>
      <path class="cls-10" d="m291.82,177.15v12.01c0,4.71-2.31,6.84-6.84,6.84-2.5,0-4.94-.75-6.37-2.11l.94-1.4c1.3,1.17,3.28,1.87,5.38,1.87,3.46,0,5.04-1.59,5.04-4.97v-1.74c-1.14,1.74-3.09,2.65-5.33,2.65-3.9,0-6.86-2.73-6.86-6.66s2.96-6.6,6.86-6.6c2.29,0,4.26.94,5.41,2.73v-2.63h1.77,0Zm-1.79,6.5c0-2.96-2.18-4.99-5.2-4.99s-5.17,2.03-5.17,4.99,2.16,5.02,5.17,5.02,5.2-2.05,5.2-5.02Z"/>
      <path class="cls-10" d="m309.32,177.15v13.68h-1.77v-2.5c-.96,1.66-2.73,2.63-4.91,2.63-3.48,0-5.77-1.95-5.77-5.88v-7.93h1.85v7.75c0,2.91,1.51,4.39,4.11,4.39,2.86,0,4.65-1.85,4.65-4.97v-7.18h1.85-.01Z"/>
      <path class="cls-10" d="m327.08,182.9v7.93h-1.85v-7.75c0-2.89-1.51-4.37-4.11-4.37-2.94,0-4.78,1.82-4.78,4.94v7.18h-1.85v-13.68h1.77v2.52c.99-1.66,2.83-2.63,5.2-2.63,3.33,0,5.62,1.92,5.62,5.85h0Z"/>
      <path class="cls-10" d="m330.19,189.27l.83-1.46c1.09.86,2.94,1.53,4.86,1.53,2.6,0,3.67-.88,3.67-2.24,0-3.56-8.87-.75-8.87-6.16,0-2.24,1.92-3.9,5.41-3.9,1.77,0,3.69.49,4.84,1.27l-.81,1.48c-1.2-.83-2.63-1.17-4.03-1.17-2.47,0-3.56.96-3.56,2.26,0,3.69,8.87.91,8.87,6.16,0,2.37-2.08,3.9-5.64,3.9-2.26,0-4.45-.73-5.56-1.69v.02Z"/>
      <path class="cls-10" d="m363.72,184.56h-11.44c.21,2.86,2.39,4.76,5.38,4.76,1.66,0,3.15-.6,4.19-1.79l1.04,1.2c-1.22,1.46-3.12,2.24-5.28,2.24-4.26,0-7.18-2.91-7.18-6.97s2.83-6.94,6.68-6.94,6.63,2.83,6.63,6.94c0,.16-.03.36-.03.57h0Zm-11.44-1.38h9.7c-.23-2.68-2.18-4.55-4.86-4.55s-4.6,1.87-4.84,4.55h0Z"/>
      <path class="cls-10" d="m375.84,190.83l-4.34-5.72-4.37,5.72h-2.08l5.41-7.02-5.15-6.66h2.08l4.11,5.36,4.11-5.36h2.03l-5.15,6.66,5.46,7.02h-2.11Z"/>
      <path class="cls-10" d="m392.43,184.56h-11.44c.21,2.86,2.39,4.76,5.38,4.76,1.66,0,3.15-.6,4.19-1.79l1.04,1.2c-1.22,1.46-3.12,2.24-5.28,2.24-4.26,0-7.18-2.91-7.18-6.97s2.83-6.94,6.68-6.94,6.63,2.83,6.63,6.94c0,.16-.03.36-.03.57h0Zm-11.44-1.38h9.7c-.23-2.68-2.18-4.55-4.86-4.55s-4.6,1.87-4.84,4.55h0Z"/>
      <path class="cls-10" d="m418.79,182.9v7.93h-1.85v-7.75c0-2.89-1.46-4.37-3.93-4.37-2.81,0-4.58,1.82-4.58,4.94v7.18h-1.85v-7.75c0-2.89-1.46-4.37-3.95-4.37-2.78,0-4.58,1.82-4.58,4.94v7.18h-1.85v-13.68h1.77v2.5c.96-1.64,2.73-2.6,5.02-2.6s4.03.96,4.86,2.89c.99-1.77,2.94-2.89,5.41-2.89,3.33,0,5.51,1.92,5.51,5.85h.02Z"/>
      <path class="cls-10" d="m437.67,183.99c0,4.16-2.91,6.97-6.81,6.97-2.18,0-4.06-.94-5.2-2.7v7.62h-1.85v-18.72h1.77v2.7c1.12-1.82,3.02-2.81,5.28-2.81,3.9,0,6.81,2.81,6.81,6.94h0Zm-1.85,0c0-3.17-2.21-5.33-5.1-5.33s-5.1,2.16-5.1,5.33,2.18,5.33,5.1,5.33,5.1-2.13,5.1-5.33Z"/>
      <path class="cls-10" d="m441.44,171.53h1.85v19.29h-1.85v-19.29Z"/>
      <path class="cls-10" d="m447.06,183.99c0-4.06,2.96-6.94,6.97-6.94s6.94,2.89,6.94,6.94-2.94,6.97-6.94,6.97-6.97-2.91-6.97-6.97Zm12.04,0c0-3.2-2.16-5.33-5.07-5.33s-5.1,2.13-5.1,5.33,2.18,5.33,5.1,5.33,5.07-2.13,5.07-5.33Z"/>
      <path class="cls-10" d="m462.84,189.27l.83-1.46c1.09.86,2.94,1.53,4.86,1.53,2.6,0,3.67-.88,3.67-2.24,0-3.56-8.87-.75-8.87-6.16,0-2.24,1.92-3.9,5.41-3.9,1.77,0,3.69.49,4.84,1.27l-.81,1.48c-1.2-.83-2.63-1.17-4.03-1.17-2.47,0-3.56.96-3.56,2.26,0,3.69,8.87.91,8.87,6.16,0,2.37-2.08,3.9-5.64,3.9-2.26,0-4.45-.73-5.56-1.69v.02Z"/>
      <path class="cls-10" d="m496.94,171.53v19.29h-1.77v-2.7c-1.12,1.85-3.02,2.83-5.28,2.83-3.9,0-6.81-2.83-6.81-6.97s2.91-6.94,6.81-6.94c2.18,0,4.06.94,5.2,2.7v-8.22h1.85,0Zm-1.82,12.46c0-3.2-2.18-5.33-5.07-5.33s-5.1,2.13-5.1,5.33,2.18,5.33,5.1,5.33,5.07-2.13,5.07-5.33Z"/>
      <path class="cls-10" d="m513.99,184.56h-11.44c.21,2.86,2.39,4.76,5.38,4.76,1.66,0,3.15-.6,4.19-1.79l1.04,1.2c-1.22,1.46-3.12,2.24-5.28,2.24-4.26,0-7.18-2.91-7.18-6.97s2.83-6.94,6.68-6.94,6.63,2.83,6.63,6.94c0,.16-.03.36-.03.57h.01Zm-11.44-1.38h9.7c-.23-2.68-2.18-4.55-4.86-4.55s-4.6,1.87-4.84,4.55h0Z"/>
      <path class="cls-10" d="m536.6,185.96h-10.14l-2.18,4.86h-2l8.32-18.2h1.9l8.32,18.2h-2.03l-2.18-4.86h-.01Zm-.7-1.56l-4.37-9.78-4.37,9.78h8.74Z"/>
      <path class="cls-10" d="m543.83,172.62h1.92v18.2h-1.92v-18.2Z"/>
      <path class="cls-10" d="m564.11,190.83l-4.16-5.85c-.47.05-.94.08-1.46.08h-4.89v5.77h-1.92v-18.2h6.81c4.63,0,7.44,2.34,7.44,6.24,0,2.86-1.51,4.86-4.16,5.72l4.45,6.24h-2.11Zm-.1-11.96c0-2.91-1.92-4.58-5.56-4.58h-4.84v9.13h4.84c3.64,0,5.56-1.69,5.56-4.55Z"/>
      <path class="cls-10" d="m583.99,177.05v1.79c-.16,0-.31-.03-.44-.03-2.86,0-4.6,1.82-4.6,5.04v6.97h-1.85v-13.68h1.77v2.68c.86-1.82,2.6-2.78,5.12-2.78h0Z"/>
      <path class="cls-10" d="m599.1,184.56h-11.44c.21,2.86,2.39,4.76,5.38,4.76,1.66,0,3.15-.6,4.19-1.79l1.04,1.2c-1.22,1.46-3.12,2.24-5.28,2.24-4.26,0-7.18-2.91-7.18-6.97s2.83-6.94,6.68-6.94,6.63,2.83,6.63,6.94c0,.16-.03.36-.03.57h.01Zm-11.44-1.38h9.7c-.23-2.68-2.18-4.55-4.86-4.55s-4.6,1.87-4.84,4.55Z"/>
      <path class="cls-10" d="m612.82,182.35v8.48h-1.77v-2.13c-.83,1.4-2.44,2.26-4.71,2.26-3.09,0-4.99-1.61-4.99-3.98,0-2.11,1.35-3.88,5.28-3.88h4.34v-.83c0-2.34-1.33-3.61-3.88-3.61-1.77,0-3.43.62-4.55,1.61l-.83-1.38c1.38-1.17,3.41-1.85,5.56-1.85,3.54,0,5.54,1.77,5.54,5.3h.01Zm-1.85,4.37v-2.24h-4.29c-2.65,0-3.51,1.04-3.51,2.44,0,1.59,1.27,2.57,3.46,2.57s3.61-.99,4.34-2.78h0Z"/>
      <path class="cls-10" d="m617.84,171.53h1.85v19.29h-1.85v-19.29Z"/>
      <path class="cls-10" d="m624.42,172.83c0-.7.6-1.3,1.35-1.3s1.35.57,1.35,1.27c0,.75-.57,1.35-1.35,1.35s-1.35-.6-1.35-1.33h0Zm.42,4.32h1.85v13.68h-1.85v-13.68h0Z"/>
      <path class="cls-10" d="m641.48,189.29v1.53h-11.13v-1.22l8.61-10.89h-8.45v-1.56h10.82v1.22l-8.61,10.92h8.76Z"/>
      <path class="cls-10" d="m655.44,182.35v8.48h-1.77v-2.13c-.83,1.4-2.44,2.26-4.71,2.26-3.09,0-4.99-1.61-4.99-3.98,0-2.11,1.35-3.88,5.28-3.88h4.34v-.83c0-2.34-1.33-3.61-3.87-3.61-1.77,0-3.43.62-4.55,1.61l-.83-1.38c1.38-1.17,3.41-1.85,5.56-1.85,3.54,0,5.54,1.77,5.54,5.3h0Zm-1.85,4.37v-2.24h-4.29c-2.65,0-3.51,1.04-3.51,2.44,0,1.59,1.27,2.57,3.46,2.57s3.61-.99,4.34-2.78h0Z"/>
      <path class="cls-10" d="m672.99,171.53v19.29h-1.77v-2.7c-1.12,1.85-3.02,2.83-5.28,2.83-3.9,0-6.81-2.83-6.81-6.97s2.91-6.94,6.81-6.94c2.18,0,4.06.94,5.2,2.7v-8.22h1.85Zm-1.82,12.46c0-3.2-2.18-5.33-5.07-5.33s-5.1,2.13-5.1,5.33,2.18,5.33,5.1,5.33,5.07-2.13,5.07-5.33Z"/>
      <path class="cls-10" d="m688.46,182.35v8.48h-1.77v-2.13c-.83,1.4-2.44,2.26-4.71,2.26-3.09,0-4.99-1.61-4.99-3.98,0-2.11,1.35-3.88,5.28-3.88h4.34v-.83c0-2.34-1.33-3.61-3.87-3.61-1.77,0-3.43.62-4.55,1.61l-.83-1.38c1.38-1.17,3.41-1.85,5.56-1.85,3.54,0,5.54,1.77,5.54,5.3h0Zm-1.85,4.37v-2.24h-4.29c-2.65,0-3.51,1.04-3.51,2.44,0,1.59,1.27,2.57,3.46,2.57s3.61-.99,4.34-2.78h0Z"/>
      <path class="cls-10" d="m691.58,189.27l.83-1.46c1.09.86,2.94,1.53,4.86,1.53,2.6,0,3.67-.88,3.67-2.24,0-3.56-8.87-.75-8.87-6.16,0-2.24,1.92-3.9,5.41-3.9,1.77,0,3.69.49,4.84,1.27l-.81,1.48c-1.2-.83-2.63-1.17-4.03-1.17-2.47,0-3.56.96-3.56,2.26,0,3.69,8.87.91,8.87,6.16,0,2.37-2.08,3.9-5.64,3.9-2.26,0-4.45-.73-5.56-1.69v.02Z"/>
      <path class="cls-10" d="m720.09,177.05v1.79c-.16,0-.31-.03-.44-.03-2.86,0-4.6,1.82-4.6,5.04v6.97h-1.85v-13.68h1.77v2.68c.86-1.82,2.6-2.78,5.12-2.78h0Z"/>
      <path class="cls-10" d="m735.19,184.56h-11.44c.21,2.86,2.39,4.76,5.38,4.76,1.66,0,3.15-.6,4.19-1.79l1.04,1.2c-1.22,1.46-3.12,2.24-5.28,2.24-4.26,0-7.18-2.91-7.18-6.97s2.83-6.94,6.68-6.94,6.63,2.83,6.63,6.94c0,.16-.03.36-.03.57h.01Zm-11.44-1.38h9.7c-.23-2.68-2.18-4.55-4.86-4.55s-4.6,1.87-4.84,4.55Z"/>
      <path class="cls-10" d="m737.61,183.99c0-4.08,2.96-6.94,7.05-6.94,2.31,0,4.26.91,5.36,2.7l-1.38.94c-.94-1.38-2.39-2.03-3.98-2.03-2.99,0-5.17,2.13-5.17,5.33s2.18,5.33,5.17,5.33c1.59,0,3.04-.62,3.98-2l1.38.94c-1.09,1.77-3.04,2.7-5.36,2.7-4.08,0-7.05-2.89-7.05-6.97Z"/>
      <path class="cls-10" d="m765.3,184.56h-11.44c.21,2.86,2.39,4.76,5.38,4.76,1.66,0,3.15-.6,4.19-1.79l1.04,1.2c-1.22,1.46-3.12,2.24-5.28,2.24-4.26,0-7.18-2.91-7.18-6.97s2.83-6.94,6.68-6.94,6.63,2.83,6.63,6.94c0,.16-.03.36-.03.57h.01Zm-11.44-1.38h9.7c-.23-2.68-2.18-4.55-4.86-4.55s-4.6,1.87-4.84,4.55Z"/>
      <path class="cls-10" d="m781.68,182.9v7.93h-1.85v-7.75c0-2.89-1.51-4.37-4.11-4.37-2.94,0-4.78,1.82-4.78,4.94v7.18h-1.85v-13.68h1.77v2.52c.99-1.66,2.83-2.63,5.2-2.63,3.33,0,5.62,1.92,5.62,5.85h0Z"/>
      <path class="cls-10" d="m793.9,189.99c-.73.65-1.82.96-2.89.96-2.57,0-4-1.46-4-3.98v-8.27h-2.44v-1.56h2.44v-2.99h1.85v2.99h4.16v1.56h-4.16v8.16c0,1.61.83,2.5,2.37,2.5.75,0,1.51-.23,2.03-.7l.65,1.33h-.01Z"/>
      <path class="cls-10" d="m808.67,184.56h-11.44c.21,2.86,2.39,4.76,5.38,4.76,1.66,0,3.15-.6,4.19-1.79l1.04,1.2c-1.22,1.46-3.12,2.24-5.28,2.24-4.26,0-7.18-2.91-7.18-6.97s2.83-6.94,6.68-6.94,6.63,2.83,6.63,6.94c0,.16-.03.36-.03.57h.01Zm-11.44-1.38h9.7c-.23-2.68-2.18-4.55-4.86-4.55s-4.6,1.87-4.84,4.55Z"/>
      <path class="cls-10" d="m835.03,182.9v7.93h-1.85v-7.75c0-2.89-1.46-4.37-3.93-4.37-2.81,0-4.58,1.82-4.58,4.94v7.18h-1.85v-7.75c0-2.89-1.46-4.37-3.95-4.37-2.78,0-4.58,1.82-4.58,4.94v7.18h-1.85v-13.68h1.77v2.5c.96-1.64,2.73-2.6,5.02-2.6s4.03.96,4.86,2.89c.99-1.77,2.94-2.89,5.41-2.89,3.33,0,5.51,1.92,5.51,5.85h.02Z"/>
      <path class="cls-10" d="m852.01,184.56h-11.44c.21,2.86,2.39,4.76,5.38,4.76,1.66,0,3.15-.6,4.19-1.79l1.04,1.2c-1.22,1.46-3.12,2.24-5.28,2.24-4.26,0-7.18-2.91-7.18-6.97s2.83-6.94,6.68-6.94,6.63,2.83,6.63,6.94c0,.16-.03.36-.03.57h.01Zm-11.44-1.38h9.7c-.23-2.68-2.18-4.55-4.86-4.55s-4.6,1.87-4.84,4.55Z"/>
      <path class="cls-10" d="m868.39,182.9v7.93h-1.85v-7.75c0-2.89-1.51-4.37-4.11-4.37-2.94,0-4.78,1.82-4.78,4.94v7.18h-1.85v-13.68h1.77v2.52c.99-1.66,2.83-2.63,5.2-2.63,3.33,0,5.62,1.92,5.62,5.85h0Z"/>
      <path class="cls-10" d="m880.61,189.99c-.73.65-1.82.96-2.89.96-2.57,0-4-1.46-4-3.98v-8.27h-2.44v-1.56h2.44v-2.99h1.85v2.99h4.16v1.56h-4.16v8.16c0,1.61.83,2.5,2.37,2.5.75,0,1.51-.23,2.03-.7l.65,1.33h-.01Z"/>
      <path class="cls-10" d="m895.38,184.56h-11.44c.21,2.86,2.39,4.76,5.38,4.76,1.66,0,3.15-.6,4.19-1.79l1.04,1.2c-1.22,1.46-3.12,2.24-5.28,2.24-4.26,0-7.18-2.91-7.18-6.97s2.83-6.94,6.68-6.94,6.63,2.83,6.63,6.94c0,.16-.03.36-.03.57h.01Zm-11.44-1.38h9.7c-.23-2.68-2.18-4.55-4.86-4.55s-4.6,1.87-4.84,4.55Z"/>
      <path class="cls-10" d="m920.04,183.99c0,4.16-2.91,6.97-6.81,6.97-2.18,0-4.06-.94-5.2-2.7v7.62h-1.85v-18.72h1.77v2.7c1.12-1.82,3.02-2.81,5.28-2.81,3.9,0,6.81,2.81,6.81,6.94h0Zm-1.85,0c0-3.17-2.21-5.33-5.1-5.33s-5.1,2.16-5.1,5.33,2.18,5.33,5.1,5.33,5.1-2.13,5.1-5.33Z"/>
      <path class="cls-10" d="m935.72,184.56h-11.44c.21,2.86,2.39,4.76,5.38,4.76,1.66,0,3.15-.6,4.19-1.79l1.04,1.2c-1.22,1.46-3.12,2.24-5.28,2.24-4.26,0-7.18-2.91-7.18-6.97s2.83-6.94,6.68-6.94,6.63,2.83,6.63,6.94c0,.16-.03.36-.03.57h.01Zm-11.44-1.38h9.7c-.23-2.68-2.18-4.55-4.86-4.55s-4.6,1.87-4.84,4.55Z"/>
      <path class="cls-10" d="m939.52,171.53h1.85v19.29h-1.85v-19.29Z"/>
      <path class="cls-10" d="m956.83,182.35v8.48h-1.77v-2.13c-.83,1.4-2.44,2.26-4.71,2.26-3.09,0-4.99-1.61-4.99-3.98,0-2.11,1.35-3.88,5.28-3.88h4.34v-.83c0-2.34-1.33-3.61-3.88-3.61-1.77,0-3.43.62-4.55,1.61l-.83-1.38c1.38-1.17,3.41-1.85,5.56-1.85,3.54,0,5.54,1.77,5.54,5.3h.01Zm-1.85,4.37v-2.24h-4.29c-2.65,0-3.51,1.04-3.51,2.44,0,1.59,1.27,2.57,3.46,2.57s3.61-.99,4.34-2.78h0Z"/>
      <path class="cls-10" d="m980.67,185.96h-10.14l-2.18,4.86h-2l8.32-18.2h1.9l8.32,18.2h-2.03l-2.18-4.86h-.01Zm-.7-1.56l-4.37-9.78-4.37,9.78h8.74Z"/>
      <path class="cls-10" d="m1000.09,182.9v7.93h-1.85v-7.75c0-2.89-1.51-4.37-4.11-4.37-2.94,0-4.78,1.82-4.78,4.94v7.18h-1.85v-13.68h1.77v2.52c.99-1.66,2.83-2.63,5.2-2.63,3.33,0,5.62,1.92,5.62,5.85h0Z"/>
      <path class="cls-10" d="m1016.34,177.15l-6.08,13.68h-1.9l-6.06-13.68h1.92l5.12,11.65,5.17-11.65h1.83Z"/>
      <path class="cls-10" d="m1018.52,172.83c0-.7.6-1.3,1.35-1.3s1.35.57,1.35,1.27c0,.75-.57,1.35-1.35,1.35s-1.35-.6-1.35-1.33h0Zm.42,4.32h1.85v13.68h-1.85v-13.68h0Z"/>
      <path class="cls-10" d="m1024.03,189.27l.83-1.46c1.09.86,2.94,1.53,4.86,1.53,2.6,0,3.67-.88,3.67-2.24,0-3.56-8.87-.75-8.87-6.16,0-2.24,1.92-3.9,5.41-3.9,1.77,0,3.69.49,4.84,1.27l-.81,1.48c-1.2-.83-2.63-1.17-4.03-1.17-2.47,0-3.56.96-3.56,2.26,0,3.69,8.87.91,8.87,6.16,0,2.37-2.08,3.9-5.64,3.9-2.26,0-4.45-.73-5.56-1.69v.02Z"/>
      <path class="cls-10" d="m1048.97,182.35v8.48h-1.77v-2.13c-.83,1.4-2.44,2.26-4.71,2.26-3.09,0-4.99-1.61-4.99-3.98,0-2.11,1.35-3.88,5.28-3.88h4.34v-.83c0-2.34-1.33-3.61-3.88-3.61-1.77,0-3.43.62-4.55,1.61l-.83-1.38c1.38-1.17,3.41-1.85,5.56-1.85,3.54,0,5.54,1.77,5.54,5.3h0Zm-1.85,4.37v-2.24h-4.29c-2.65,0-3.51,1.04-3.51,2.44,0,1.59,1.27,2.57,3.46,2.57s3.61-.99,4.34-2.78h0Z"/>
      <path class="cls-10" d="m1055.57,189.53c0,.44-.1.78-.36,1.51l-1.09,3.59h-1.25l.88-3.77c-.55-.16-.94-.65-.94-1.33,0-.81.6-1.4,1.38-1.4s1.38.62,1.38,1.4h0Z"/>
      <path class="cls-10" d="m1073.39,177.05v1.79c-.16,0-.31-.03-.44-.03-2.86,0-4.6,1.82-4.6,5.04v6.97h-1.85v-13.68h1.77v2.68c.86-1.82,2.6-2.78,5.12-2.78h0Z"/>
      <path class="cls-10" d="m1088.5,184.56h-11.44c.21,2.86,2.39,4.76,5.38,4.76,1.66,0,3.15-.6,4.19-1.79l1.04,1.2c-1.22,1.46-3.12,2.24-5.28,2.24-4.26,0-7.18-2.91-7.18-6.97s2.83-6.94,6.68-6.94,6.63,2.83,6.63,6.94c0,.16-.03.36-.03.57h.01Zm-11.44-1.38h9.7c-.23-2.68-2.18-4.55-4.86-4.55s-4.6,1.87-4.84,4.55Z"/>
      <path class="cls-10" d="m1090.92,183.99c0-4.08,2.96-6.94,7.05-6.94,2.31,0,4.26.91,5.36,2.7l-1.38.94c-.94-1.38-2.39-2.03-3.98-2.03-2.99,0-5.17,2.13-5.17,5.33s2.18,5.33,5.17,5.33c1.59,0,3.04-.62,3.98-2l1.38.94c-1.09,1.77-3.04,2.7-5.36,2.7-4.08,0-7.05-2.89-7.05-6.97Z"/>
      <path class="cls-10" d="m1105.32,183.99c0-4.06,2.96-6.94,6.97-6.94s6.94,2.89,6.94,6.94-2.94,6.97-6.94,6.97-6.97-2.91-6.97-6.97Zm12.04,0c0-3.2-2.16-5.33-5.07-5.33s-5.1,2.13-5.1,5.33,2.18,5.33,5.1,5.33,5.07-2.13,5.07-5.33Z"/>
      <path class="cls-10" d="m1135.59,182.9v7.93h-1.85v-7.75c0-2.89-1.51-4.37-4.11-4.37-2.94,0-4.78,1.82-4.78,4.94v7.18h-1.85v-13.68h1.77v2.52c.99-1.66,2.83-2.63,5.2-2.63,3.33,0,5.62,1.92,5.62,5.85h0Z"/>
      <path class="cls-10" d="m1153.19,182.9v7.93h-1.85v-7.75c0-2.89-1.51-4.37-4.11-4.37-2.94,0-4.78,1.82-4.78,4.94v7.18h-1.85v-19.29h1.85v8.01c1.01-1.59,2.81-2.5,5.12-2.5,3.33,0,5.62,1.92,5.62,5.85h0Z"/>
      <path class="cls-10" d="m1170.17,184.56h-11.44c.21,2.86,2.39,4.76,5.38,4.76,1.66,0,3.15-.6,4.19-1.79l1.04,1.2c-1.22,1.46-3.12,2.24-5.28,2.24-4.26,0-7.18-2.91-7.18-6.97s2.83-6.94,6.68-6.94,6.63,2.83,6.63,6.94c0,.16-.03.36-.03.57h.01Zm-11.44-1.38h9.7c-.23-2.68-2.18-4.55-4.86-4.55s-4.6,1.87-4.84,4.55Z"/>
      <path class="cls-10" d="m1172.58,183.99c0-4.08,2.96-6.94,7.05-6.94,2.31,0,4.26.91,5.36,2.7l-1.38.94c-.94-1.38-2.39-2.03-3.98-2.03-2.99,0-5.17,2.13-5.17,5.33s2.18,5.33,5.17,5.33c1.59,0,3.04-.62,3.98-2l1.38.94c-1.09,1.77-3.04,2.7-5.36,2.7-4.08,0-7.05-2.89-7.05-6.97Z"/>
      <path class="cls-10" d="m1188.18,172.83c0-.7.6-1.3,1.35-1.3s1.35.57,1.35,1.27c0,.75-.57,1.35-1.35,1.35s-1.35-.6-1.35-1.33h0Zm.42,4.32h1.85v13.68h-1.85v-13.68h0Z"/>
      <path class="cls-10" d="m1208.07,171.53v19.29h-1.77v-2.7c-1.12,1.85-3.02,2.83-5.28,2.83-3.9,0-6.81-2.83-6.81-6.97s2.91-6.94,6.81-6.94c2.18,0,4.06.94,5.2,2.7v-8.22h1.85Zm-1.82,12.46c0-3.2-2.18-5.33-5.07-5.33s-5.1,2.13-5.1,5.33,2.18,5.33,5.1,5.33,5.07-2.13,5.07-5.33Z"/>
      <path class="cls-10" d="m1223.54,182.35v8.48h-1.77v-2.13c-.83,1.4-2.44,2.26-4.71,2.26-3.09,0-4.99-1.61-4.99-3.98,0-2.11,1.35-3.88,5.28-3.88h4.34v-.83c0-2.34-1.33-3.61-3.87-3.61-1.77,0-3.43.62-4.55,1.61l-.83-1.38c1.38-1.17,3.41-1.85,5.56-1.85,3.54,0,5.54,1.77,5.54,5.3h0Zm-1.85,4.37v-2.24h-4.29c-2.65,0-3.51,1.04-3.51,2.44,0,1.59,1.27,2.57,3.46,2.57s3.61-.99,4.34-2.78h0Z"/>
      <path class="cls-10" d="m1251.13,182.9v7.93h-1.85v-7.75c0-2.89-1.46-4.37-3.93-4.37-2.81,0-4.58,1.82-4.58,4.94v7.18h-1.85v-7.75c0-2.89-1.46-4.37-3.95-4.37-2.78,0-4.58,1.82-4.58,4.94v7.18h-1.85v-13.68h1.77v2.5c.96-1.64,2.73-2.6,5.02-2.6s4.03.96,4.86,2.89c.99-1.77,2.94-2.89,5.41-2.89,3.33,0,5.51,1.92,5.51,5.85h.02Z"/>
      <path class="cls-10" d="m1268.11,184.56h-11.44c.21,2.86,2.39,4.76,5.38,4.76,1.66,0,3.15-.6,4.19-1.79l1.04,1.2c-1.22,1.46-3.12,2.24-5.28,2.24-4.26,0-7.18-2.91-7.18-6.97s2.83-6.94,6.68-6.94,6.63,2.83,6.63,6.94c0,.16-.03.36-.03.57h.01Zm-11.44-1.38h9.7c-.23-2.68-2.18-4.55-4.86-4.55s-4.6,1.87-4.84,4.55Z"/>
      <path class="cls-10" d="m1284.49,182.9v7.93h-1.85v-7.75c0-2.89-1.51-4.37-4.11-4.37-2.94,0-4.78,1.82-4.78,4.94v7.18h-1.85v-13.68h1.77v2.52c.99-1.66,2.83-2.63,5.2-2.63,3.33,0,5.62,1.92,5.62,5.85h0Z"/>
      <path class="cls-10" d="m1296.71,189.99c-.73.65-1.82.96-2.89.96-2.57,0-4-1.46-4-3.98v-8.27h-2.44v-1.56h2.44v-2.99h1.85v2.99h4.16v1.56h-4.16v8.16c0,1.61.83,2.5,2.37,2.5.75,0,1.51-.23,2.03-.7l.65,1.33h-.01Z"/>
      <path class="cls-10" d="m1311.47,184.56h-11.44c.21,2.86,2.39,4.76,5.38,4.76,1.66,0,3.15-.6,4.19-1.79l1.04,1.2c-1.22,1.46-3.12,2.24-5.28,2.24-4.26,0-7.18-2.91-7.18-6.97s2.83-6.94,6.68-6.94,6.63,2.83,6.63,6.94c0,.16-.03.36-.03.57h.01Zm-11.44-1.38h9.7c-.23-2.68-2.18-4.55-4.86-4.55s-4.6,1.87-4.84,4.55Z"/>
      <path class="cls-10" d="m1334.6,177.15v13.68h-1.77v-2.5c-.96,1.66-2.73,2.63-4.92,2.63-3.48,0-5.77-1.95-5.77-5.88v-7.93h1.85v7.75c0,2.91,1.51,4.39,4.11,4.39,2.86,0,4.65-1.85,4.65-4.97v-7.18h1.85Z"/>
      <path class="cls-10" d="m1362.35,182.9v7.93h-1.85v-7.75c0-2.89-1.46-4.37-3.93-4.37-2.81,0-4.58,1.82-4.58,4.94v7.18h-1.85v-7.75c0-2.89-1.46-4.37-3.95-4.37-2.78,0-4.58,1.82-4.58,4.94v7.18h-1.85v-13.68h1.77v2.5c.96-1.64,2.73-2.6,5.02-2.6s4.03.96,4.86,2.89c.99-1.77,2.94-2.89,5.41-2.89,3.33,0,5.51,1.92,5.51,5.85h.02Z"/>
      <path class="cls-10" d="m1377.69,182.35v8.48h-1.77v-2.13c-.83,1.4-2.44,2.26-4.71,2.26-3.09,0-4.99-1.61-4.99-3.98,0-2.11,1.35-3.88,5.28-3.88h4.34v-.83c0-2.34-1.33-3.61-3.87-3.61-1.77,0-3.43.62-4.55,1.61l-.83-1.38c1.38-1.17,3.41-1.85,5.56-1.85,3.54,0,5.54,1.77,5.54,5.3h0Zm-1.85,4.37v-2.24h-4.29c-2.65,0-3.51,1.04-3.51,2.44,0,1.59,1.27,2.57,3.46,2.57s3.61-.99,4.34-2.78h0Z"/>
      <path class="cls-10" d="m150.76,216.73v19.29h-1.77v-2.7c-1.12,1.85-3.02,2.83-5.28,2.83-3.9,0-6.81-2.83-6.81-6.97s2.91-6.94,6.81-6.94c2.18,0,4.06.94,5.2,2.7v-8.22h1.85Zm-1.82,12.46c0-3.2-2.18-5.33-5.07-5.33s-5.1,2.13-5.1,5.33,2.18,5.33,5.1,5.33,5.07-2.13,5.07-5.33Z"/>
      <path class="cls-10" d="m166.23,227.55v8.48h-1.77v-2.13c-.83,1.4-2.44,2.26-4.71,2.26-3.09,0-4.99-1.61-4.99-3.98,0-2.11,1.35-3.87,5.28-3.87h4.34v-.83c0-2.34-1.33-3.61-3.88-3.61-1.77,0-3.43.62-4.55,1.61l-.83-1.38c1.38-1.17,3.41-1.85,5.56-1.85,3.54,0,5.54,1.77,5.54,5.3h.01Zm-1.85,4.37v-2.24h-4.29c-2.65,0-3.51,1.04-3.51,2.44,0,1.59,1.27,2.57,3.46,2.57s3.61-.99,4.34-2.78h0Z"/>
      <path class="cls-10" d="m169.35,234.47l.83-1.46c1.09.86,2.94,1.53,4.86,1.53,2.6,0,3.67-.88,3.67-2.24,0-3.56-8.87-.75-8.87-6.16,0-2.24,1.92-3.9,5.41-3.9,1.77,0,3.69.49,4.84,1.27l-.81,1.48c-1.2-.83-2.63-1.17-4.03-1.17-2.47,0-3.56.96-3.56,2.26,0,3.69,8.87.91,8.87,6.16,0,2.37-2.08,3.9-5.64,3.9-2.26,0-4.45-.73-5.56-1.69v.02Z"/>
      <path class="cls-10" d="m201.09,227.55v8.48h-1.77v-2.13c-.83,1.4-2.44,2.26-4.71,2.26-3.09,0-4.99-1.61-4.99-3.98,0-2.11,1.35-3.87,5.28-3.87h4.34v-.83c0-2.34-1.33-3.61-3.88-3.61-1.77,0-3.43.62-4.55,1.61l-.83-1.38c1.38-1.17,3.41-1.85,5.56-1.85,3.54,0,5.54,1.77,5.54,5.3h.01Zm-1.85,4.37v-2.24h-4.29c-2.65,0-3.51,1.04-3.51,2.44,0,1.59,1.27,2.57,3.46,2.57s3.61-.99,4.34-2.78h0Z"/>
      <path class="cls-10" d="m218.82,222.35v12.01c0,4.71-2.31,6.84-6.84,6.84-2.5,0-4.94-.75-6.37-2.11l.94-1.4c1.3,1.17,3.28,1.87,5.38,1.87,3.46,0,5.04-1.59,5.04-4.97v-1.74c-1.14,1.74-3.09,2.65-5.33,2.65-3.9,0-6.86-2.73-6.86-6.66s2.96-6.6,6.86-6.6c2.29,0,4.26.94,5.41,2.73v-2.63h1.77,0Zm-1.79,6.5c0-2.96-2.18-4.99-5.2-4.99s-5.17,2.03-5.17,4.99,2.16,5.02,5.17,5.02,5.2-2.05,5.2-5.02Z"/>
      <path class="cls-10" d="m235.9,229.76h-11.44c.21,2.86,2.39,4.76,5.38,4.76,1.66,0,3.15-.6,4.19-1.79l1.04,1.2c-1.22,1.46-3.12,2.24-5.28,2.24-4.26,0-7.18-2.91-7.18-6.97s2.83-6.94,6.68-6.94,6.63,2.83,6.63,6.94c0,.16-.03.36-.03.57h0Zm-11.44-1.38h9.7c-.23-2.68-2.18-4.55-4.86-4.55s-4.6,1.87-4.84,4.55Zm2.26-8.14h-1.72l3.35-3.22h1.87l3.35,3.22h-1.72l-2.57-2.16-2.57,2.16h.01Z"/>
      <path class="cls-10" d="m252.28,228.1v7.93h-1.85v-7.75c0-2.89-1.51-4.37-4.11-4.37-2.94,0-4.78,1.82-4.78,4.94v7.18h-1.85v-13.68h1.77v2.52c.99-1.66,2.83-2.63,5.2-2.63,3.33,0,5.62,1.92,5.62,5.85h0Z"/>
      <path class="cls-10" d="m255.98,229.19c0-4.08,2.96-6.94,7.05-6.94,2.31,0,4.26.91,5.36,2.7l-1.38.94c-.94-1.38-2.39-2.03-3.98-2.03-2.99,0-5.17,2.13-5.17,5.33s2.18,5.33,5.17,5.33c1.59,0,3.04-.62,3.98-2l1.38.94c-1.09,1.77-3.04,2.7-5.36,2.7-4.08,0-7.05-2.89-7.05-6.97Z"/>
      <path class="cls-10" d="m271.58,218.03c0-.7.6-1.3,1.35-1.3s1.35.57,1.35,1.27c0,.75-.57,1.35-1.35,1.35s-1.35-.6-1.35-1.33h0Zm.42,4.32h1.85v13.68h-1.85v-13.68Z"/>
      <path class="cls-10" d="m289.31,227.55v8.48h-1.77v-2.13c-.83,1.4-2.44,2.26-4.71,2.26-3.09,0-4.99-1.61-4.99-3.98,0-2.11,1.35-3.87,5.28-3.87h4.34v-.83c0-2.34-1.33-3.61-3.88-3.61-1.77,0-3.43.62-4.55,1.61l-.83-1.38c1.38-1.17,3.41-1.85,5.56-1.85,3.54,0,5.54,1.77,5.54,5.3h0Zm-1.85,4.37v-2.24h-4.29c-2.65,0-3.51,1.04-3.51,2.44,0,1.59,1.27,2.57,3.46,2.57s3.61-.99,4.34-2.78h0Z"/>
      <path class="cls-10" d="m292.43,234.47l.83-1.46c1.09.86,2.94,1.53,4.86,1.53,2.6,0,3.67-.88,3.67-2.24,0-3.56-8.87-.75-8.87-6.16,0-2.24,1.92-3.9,5.41-3.9,1.77,0,3.69.49,4.84,1.27l-.81,1.48c-1.2-.83-2.63-1.17-4.03-1.17-2.47,0-3.56.96-3.56,2.26,0,3.69,8.87.91,8.87,6.16,0,2.37-2.08,3.9-5.64,3.9-2.26,0-4.45-.73-5.56-1.69v.02Z"/>
      <path class="cls-10" d="m320.74,222.25v1.79c-.16,0-.31-.03-.44-.03-2.86,0-4.6,1.82-4.6,5.04v6.97h-1.85v-13.68h1.77v2.68c.86-1.82,2.6-2.78,5.12-2.78h0Z"/>
      <path class="cls-10" d="m335.85,229.76h-11.44c.21,2.86,2.39,4.76,5.38,4.76,1.66,0,3.15-.6,4.19-1.79l1.04,1.2c-1.22,1.46-3.12,2.24-5.28,2.24-4.26,0-7.18-2.91-7.18-6.97s2.83-6.94,6.68-6.94,6.63,2.83,6.63,6.94c0,.16-.03.36-.03.57h0Zm-11.44-1.38h9.7c-.23-2.68-2.18-4.55-4.86-4.55s-4.6,1.87-4.84,4.55h0Z"/>
      <path class="cls-10" d="m352.31,222.35v12.01c0,4.71-2.31,6.84-6.84,6.84-2.5,0-4.94-.75-6.37-2.11l.94-1.4c1.3,1.17,3.28,1.87,5.38,1.87,3.46,0,5.04-1.59,5.04-4.97v-1.74c-1.14,1.74-3.09,2.65-5.33,2.65-3.9,0-6.86-2.73-6.86-6.66s2.96-6.6,6.86-6.6c2.29,0,4.26.94,5.41,2.73v-2.63h1.77,0Zm-1.79,6.5c0-2.96-2.18-4.99-5.2-4.99s-5.17,2.03-5.17,4.99,2.16,5.02,5.17,5.02,5.2-2.05,5.2-5.02Z"/>
      <path class="cls-10" d="m369.8,222.35v13.68h-1.77v-2.5c-.96,1.66-2.73,2.63-4.91,2.63-3.48,0-5.77-1.95-5.77-5.88v-7.93h1.85v7.75c0,2.91,1.51,4.39,4.11,4.39,2.86,0,4.65-1.85,4.65-4.97v-7.18h1.85-.01Z"/>
      <path class="cls-10" d="m374.98,216.73h1.85v19.29h-1.85v-19.29h0Z"/>
      <path class="cls-10" d="m392.29,227.55v8.48h-1.77v-2.13c-.83,1.4-2.44,2.26-4.71,2.26-3.09,0-4.99-1.61-4.99-3.98,0-2.11,1.35-3.87,5.28-3.87h4.34v-.83c0-2.34-1.33-3.61-3.88-3.61-1.77,0-3.43.62-4.55,1.61l-.83-1.38c1.38-1.17,3.41-1.85,5.56-1.85,3.54,0,5.54,1.77,5.54,5.3h0Zm-1.85,4.37v-2.24h-4.29c-2.65,0-3.51,1.04-3.51,2.44,0,1.59,1.27,2.57,3.46,2.57s3.61-.99,4.34-2.78h0Z"/>
      <path class="cls-10" d="m409.84,216.73v19.29h-1.77v-2.7c-1.12,1.85-3.02,2.83-5.28,2.83-3.9,0-6.81-2.83-6.81-6.97s2.91-6.94,6.81-6.94c2.18,0,4.06.94,5.2,2.7v-8.22h1.85,0Zm-1.82,12.46c0-3.2-2.18-5.33-5.07-5.33s-5.1,2.13-5.1,5.33,2.18,5.33,5.1,5.33,5.07-2.13,5.07-5.33Z"/>
      <path class="cls-10" d="m413.61,229.19c0-4.06,2.96-6.94,6.97-6.94s6.94,2.89,6.94,6.94-2.94,6.97-6.94,6.97-6.97-2.91-6.97-6.97Zm12.04,0c0-3.2-2.16-5.33-5.07-5.33s-5.1,2.13-5.1,5.33,2.18,5.33,5.1,5.33,5.07-2.13,5.07-5.33Z"/>
      <path class="cls-10" d="m438.18,222.25v1.79c-.16,0-.31-.03-.44-.03-2.86,0-4.6,1.82-4.6,5.04v6.97h-1.85v-13.68h1.77v2.68c.86-1.82,2.6-2.78,5.12-2.78h0Z"/>
      <path class="cls-10" d="m451.81,227.55v8.48h-1.77v-2.13c-.83,1.4-2.44,2.26-4.71,2.26-3.09,0-4.99-1.61-4.99-3.98,0-2.11,1.35-3.87,5.28-3.87h4.34v-.83c0-2.34-1.33-3.61-3.88-3.61-1.77,0-3.43.62-4.55,1.61l-.83-1.38c1.38-1.17,3.41-1.85,5.56-1.85,3.54,0,5.54,1.77,5.54,5.3h0Zm-1.85,4.37v-2.24h-4.29c-2.65,0-3.51,1.04-3.51,2.44,0,1.59,1.27,2.57,3.46,2.57s3.61-.99,4.34-2.78h0Z"/>
      <path class="cls-10" d="m454.93,234.47l.83-1.46c1.09.86,2.94,1.53,4.86,1.53,2.6,0,3.67-.88,3.67-2.24,0-3.56-8.87-.75-8.87-6.16,0-2.24,1.92-3.9,5.41-3.9,1.77,0,3.69.49,4.84,1.27l-.81,1.48c-1.2-.83-2.63-1.17-4.03-1.17-2.47,0-3.56.96-3.56,2.26,0,3.69,8.87.91,8.87,6.16,0,2.37-2.08,3.9-5.64,3.9-2.26,0-4.45-.73-5.56-1.69v.02Z"/>
      <path class="cls-10" d="m478.46,220.74v1.61h4.21v1.56h-4.16v12.12h-1.85v-12.12h-2.44v-1.56h2.44v-1.69c0-2.44,1.46-4.06,4.13-4.06,1.01,0,2.05.29,2.73.86l-.62,1.38c-.52-.44-1.25-.68-2.03-.68-1.59,0-2.42.88-2.42,2.57h.01Z"/>
      <path class="cls-10" d="m496.84,229.76h-11.44c.21,2.86,2.39,4.76,5.38,4.76,1.66,0,3.15-.6,4.19-1.79l1.04,1.2c-1.22,1.46-3.12,2.24-5.28,2.24-4.26,0-7.18-2.91-7.18-6.97s2.83-6.94,6.68-6.94,6.63,2.83,6.63,6.94c0,.16-.03.36-.03.57h0Zm-11.44-1.38h9.7c-.23-2.68-2.18-4.55-4.86-4.55s-4.6,1.87-4.84,4.55h0Z"/>
      <path class="cls-10" d="m513.11,216.73v19.29h-1.77v-2.7c-1.12,1.85-3.02,2.83-5.28,2.83-3.9,0-6.81-2.83-6.81-6.97s2.91-6.94,6.81-6.94c2.18,0,4.06.94,5.2,2.7v-8.22h1.85Zm-1.82,12.46c0-3.2-2.18-5.33-5.07-5.33s-5.1,2.13-5.1,5.33,2.18,5.33,5.1,5.33,5.07-2.13,5.07-5.33Z"/>
      <path class="cls-10" d="m530.17,229.76h-11.44c.21,2.86,2.39,4.76,5.38,4.76,1.66,0,3.15-.6,4.19-1.79l1.04,1.2c-1.22,1.46-3.12,2.24-5.28,2.24-4.26,0-7.18-2.91-7.18-6.97s2.83-6.94,6.68-6.94,6.63,2.83,6.63,6.94c0,.16-.03.36-.03.57h.01Zm-11.44-1.38h9.7c-.23-2.68-2.18-4.55-4.86-4.55s-4.6,1.87-4.84,4.55Z"/>
      <path class="cls-10" d="m540.86,222.25v1.79c-.16,0-.31-.03-.44-.03-2.86,0-4.6,1.82-4.6,5.04v6.97h-1.85v-13.68h1.77v2.68c.86-1.82,2.6-2.78,5.12-2.78h0Z"/>
      <path class="cls-10" d="m554.48,227.55v8.48h-1.77v-2.13c-.83,1.4-2.44,2.26-4.71,2.26-3.09,0-4.99-1.61-4.99-3.98,0-2.11,1.35-3.87,5.28-3.87h4.34v-.83c0-2.34-1.33-3.61-3.87-3.61-1.77,0-3.43.62-4.55,1.61l-.83-1.38c1.38-1.17,3.41-1.85,5.56-1.85,3.54,0,5.54,1.77,5.54,5.3h0Zm-1.85,4.37v-2.24h-4.29c-2.65,0-3.51,1.04-3.51,2.44,0,1.59,1.27,2.57,3.46,2.57s3.61-.99,4.34-2.78h0Z"/>
      <path class="cls-10" d="m559.08,218.03c0-.7.6-1.3,1.35-1.3s1.35.57,1.35,1.27c0,.75-.57,1.35-1.35,1.35s-1.35-.6-1.35-1.33h0Zm.42,4.32h1.85v13.68h-1.85v-13.68Z"/>
      <path class="cls-10" d="m564.59,234.47l.83-1.46c1.09.86,2.94,1.53,4.86,1.53,2.6,0,3.67-.88,3.67-2.24,0-3.56-8.87-.75-8.87-6.16,0-2.24,1.92-3.9,5.41-3.9,1.77,0,3.69.49,4.84,1.27l-.81,1.48c-1.2-.83-2.63-1.17-4.03-1.17-2.47,0-3.56.96-3.56,2.26,0,3.69,8.87.91,8.87,6.16,0,2.37-2.08,3.9-5.64,3.9-2.26,0-4.45-.73-5.56-1.69v.02Z"/>
      <path class="cls-10" d="m598.5,222.35v18.72h-1.85v-7.62c-1.14,1.77-3.02,2.7-5.2,2.7-3.9,0-6.81-2.81-6.81-6.97s2.91-6.94,6.81-6.94c2.26,0,4.16.99,5.28,2.81v-2.7h1.77,0Zm-1.82,6.84c0-3.17-2.18-5.33-5.07-5.33s-5.1,2.16-5.1,5.33,2.18,5.33,5.1,5.33,5.07-2.13,5.07-5.33Z"/>
      <path class="cls-10" d="m615.97,222.35v13.68h-1.77v-2.5c-.96,1.66-2.73,2.63-4.91,2.63-3.48,0-5.77-1.95-5.77-5.88v-7.93h1.85v7.75c0,2.91,1.51,4.39,4.11,4.39,2.86,0,4.65-1.85,4.65-4.97v-7.18h1.85,0Z"/>
      <path class="cls-10" d="m633.05,229.76h-11.44c.21,2.86,2.39,4.76,5.38,4.76,1.66,0,3.15-.6,4.19-1.79l1.04,1.2c-1.22,1.46-3.12,2.24-5.28,2.24-4.26,0-7.18-2.91-7.18-6.97s2.83-6.94,6.68-6.94,6.63,2.83,6.63,6.94c0,.16-.03.36-.03.57h.01Zm-11.44-1.38h9.7c-.23-2.68-2.18-4.55-4.86-4.55s-4.6,1.87-4.84,4.55Z"/>
      <path class="cls-10" d="m641.76,234.47l.83-1.46c1.09.86,2.94,1.53,4.86,1.53,2.6,0,3.67-.88,3.67-2.24,0-3.56-8.87-.75-8.87-6.16,0-2.24,1.92-3.9,5.41-3.9,1.77,0,3.69.49,4.84,1.27l-.81,1.48c-1.2-.83-2.63-1.17-4.03-1.17-2.47,0-3.56.96-3.56,2.26,0,3.69,8.87.91,8.87,6.16,0,2.37-2.08,3.9-5.64,3.9-2.26,0-4.45-.73-5.56-1.69v.02Z"/>
      <path class="cls-10" d="m668.28,229.76h-11.44c.21,2.86,2.39,4.76,5.38,4.76,1.66,0,3.15-.6,4.19-1.79l1.04,1.2c-1.22,1.46-3.12,2.24-5.28,2.24-4.26,0-7.18-2.91-7.18-6.97s2.83-6.94,6.68-6.94,6.63,2.83,6.63,6.94c0,.16-.03.36-.03.57h.01Zm-11.44-1.38h9.7c-.23-2.68-2.18-4.55-4.86-4.55s-4.6,1.87-4.84,4.55Z"/>
      <path class="cls-10" d="m691.37,216.73v19.29h-1.77v-2.7c-1.12,1.85-3.02,2.83-5.28,2.83-3.9,0-6.81-2.83-6.81-6.97s2.91-6.94,6.81-6.94c2.18,0,4.06.94,5.2,2.7v-8.22h1.85Zm-1.82,12.46c0-3.2-2.18-5.33-5.07-5.33s-5.1,2.13-5.1,5.33,2.18,5.33,5.1,5.33,5.07-2.13,5.07-5.33Z"/>
      <path class="cls-10" d="m708.43,229.76h-11.44c.21,2.86,2.39,4.76,5.38,4.76,1.66,0,3.15-.6,4.19-1.79l1.04,1.2c-1.22,1.46-3.12,2.24-5.28,2.24-4.26,0-7.18-2.91-7.18-6.97s2.83-6.94,6.68-6.94,6.63,2.83,6.63,6.94c0,.16-.03.36-.03.57h.01Zm-11.44-1.38h9.7c-.23-2.68-2.18-4.55-4.86-4.55s-4.6,1.87-4.84,4.55Z"/>
      <path class="cls-10" d="m710.32,234.47l.83-1.46c1.09.86,2.94,1.53,4.86,1.53,2.6,0,3.67-.88,3.67-2.24,0-3.56-8.87-.75-8.87-6.16,0-2.24,1.92-3.9,5.41-3.9,1.77,0,3.69.49,4.84,1.27l-.81,1.48c-1.2-.83-2.63-1.17-4.03-1.17-2.47,0-3.56.96-3.56,2.26,0,3.69,8.87.91,8.87,6.16,0,2.37-2.08,3.9-5.64,3.9-2.26,0-4.45-.73-5.56-1.69v.02Z"/>
      <path class="cls-10" d="m732.14,235.19c-.73.65-1.82.96-2.89.96-2.57,0-4-1.46-4-3.98v-8.27h-2.44v-1.56h2.44v-2.99h1.85v2.99h4.16v1.56h-4.16v8.16c0,1.61.83,2.5,2.37,2.5.75,0,1.51-.23,2.03-.7l.65,1.33h-.01Z"/>
      <path class="cls-10" d="m745.81,227.55v8.48h-1.77v-2.13c-.83,1.4-2.44,2.26-4.71,2.26-3.09,0-4.99-1.61-4.99-3.98,0-2.11,1.35-3.87,5.28-3.87h4.34v-.83c0-2.34-1.33-3.61-3.87-3.61-1.77,0-3.43.62-4.55,1.61l-.83-1.38c1.38-1.17,3.41-1.85,5.56-1.85,3.54,0,5.54,1.77,5.54,5.3h0Zm-1.85,4.37v-2.24h-4.29c-2.65,0-3.51,1.04-3.51,2.44,0,1.59,1.27,2.57,3.46,2.57s3.61-.99,4.34-2.78h0Z"/>
      <path class="cls-10" d="m749.5,229.19c0-4.08,2.96-6.94,7.05-6.94,2.31,0,4.26.91,5.36,2.7l-1.38.94c-.94-1.38-2.39-2.03-3.98-2.03-2.99,0-5.17,2.13-5.17,5.33s2.18,5.33,5.17,5.33c1.59,0,3.04-.62,3.98-2l1.38.94c-1.09,1.77-3.04,2.7-5.36,2.7-4.08,0-7.05-2.89-7.05-6.97Z"/>
      <path class="cls-10" d="m775.84,227.55v8.48h-1.77v-2.13c-.83,1.4-2.44,2.26-4.71,2.26-3.09,0-4.99-1.61-4.99-3.98,0-2.11,1.35-3.87,5.28-3.87h4.34v-.83c0-2.34-1.33-3.61-3.87-3.61-1.77,0-3.43.62-4.55,1.61l-.83-1.38c1.38-1.17,3.41-1.85,5.56-1.85,3.54,0,5.54,1.77,5.54,5.3h0Zm-1.85,4.37v-2.24h-4.29c-2.65,0-3.51,1.04-3.51,2.44,0,1.59,1.27,2.57,3.46,2.57s3.61-.99,4.34-2.78h0Z"/>
      <path class="cls-10" d="m800.26,228.1v7.93h-1.85v-7.75c0-2.89-1.51-4.37-4.11-4.37-2.94,0-4.78,1.82-4.78,4.94v7.18h-1.85v-13.68h1.77v2.52c.99-1.66,2.83-2.63,5.2-2.63,3.33,0,5.62,1.92,5.62,5.85h0Z"/>
      <path class="cls-10" d="m817.23,229.76h-11.44c.21,2.86,2.39,4.76,5.38,4.76,1.66,0,3.15-.6,4.19-1.79l1.04,1.2c-1.22,1.46-3.12,2.24-5.28,2.24-4.26,0-7.18-2.91-7.18-6.97s2.83-6.94,6.68-6.94,6.63,2.83,6.63,6.94c0,.16-.03.36-.03.57h.01Zm-11.44-1.38h9.7c-.23-2.68-2.18-4.55-4.86-4.55s-4.6,1.87-4.84,4.55Z"/>
      <path class="cls-10" d="m819.13,234.47l.83-1.46c1.09.86,2.94,1.53,4.86,1.53,2.6,0,3.67-.88,3.67-2.24,0-3.56-8.87-.75-8.87-6.16,0-2.24,1.92-3.9,5.41-3.9,1.77,0,3.69.49,4.84,1.27l-.81,1.48c-1.2-.83-2.63-1.17-4.03-1.17-2.47,0-3.56.96-3.56,2.26,0,3.69,8.87.91,8.87,6.16,0,2.37-2.08,3.9-5.64,3.9-2.26,0-4.45-.73-5.56-1.69v.02Z"/>
      <path class="cls-10" d="m831.85,234.47l.83-1.46c1.09.86,2.94,1.53,4.86,1.53,2.6,0,3.67-.88,3.67-2.24,0-3.56-8.87-.75-8.87-6.16,0-2.24,1.92-3.9,5.41-3.9,1.77,0,3.69.49,4.84,1.27l-.81,1.48c-1.2-.83-2.63-1.17-4.03-1.17-2.47,0-3.56.96-3.56,2.26,0,3.69,8.87.91,8.87,6.16,0,2.37-2.08,3.9-5.64,3.9-2.26,0-4.45-.73-5.56-1.69v.02Z"/>
      <path class="cls-10" d="m856.78,227.55v8.48h-1.77v-2.13c-.83,1.4-2.44,2.26-4.71,2.26-3.09,0-4.99-1.61-4.99-3.98,0-2.11,1.35-3.87,5.28-3.87h4.34v-.83c0-2.34-1.33-3.61-3.87-3.61-1.77,0-3.43.62-4.55,1.61l-.83-1.38c1.38-1.17,3.41-1.85,5.56-1.85,3.54,0,5.54,1.77,5.54,5.3h0Zm-1.85,4.37v-2.24h-4.29c-2.65,0-3.51,1.04-3.51,2.44,0,1.59,1.27,2.57,3.46,2.57s3.61-.99,4.34-2.78h0Z"/>
      <path class="cls-10" d="m878.93,227.55v8.48h-1.77v-2.13c-.83,1.4-2.44,2.26-4.71,2.26-3.09,0-4.99-1.61-4.99-3.98,0-2.11,1.35-3.87,5.28-3.87h4.34v-.83c0-2.34-1.33-3.61-3.88-3.61-1.77,0-3.43.62-4.55,1.61l-.83-1.38c1.38-1.17,3.41-1.85,5.56-1.85,3.54,0,5.54,1.77,5.54,5.3h.01Zm-1.85,4.37v-2.24h-4.29c-2.65,0-3.51,1.04-3.51,2.44,0,1.59,1.27,2.57,3.46,2.57s3.61-.99,4.34-2.78h0Z"/>
      <path class="cls-10" d="m891.15,235.19c-.73.65-1.82.96-2.89.96-2.57,0-4-1.46-4-3.98v-8.27h-2.44v-1.56h2.44v-2.99h1.85v2.99h4.16v1.56h-4.16v8.16c0,1.61.83,2.5,2.37,2.5.75,0,1.51-.23,2.03-.7l.65,1.33h-.01Z"/>
      <path class="cls-10" d="m894.09,218.03c0-.7.6-1.3,1.35-1.3s1.35.57,1.35,1.27c0,.75-.57,1.35-1.35,1.35s-1.35-.6-1.35-1.33h0Zm.42,4.32h1.85v13.68h-1.85v-13.68Z"/>
      <path class="cls-10" d="m912.99,222.35l-6.08,13.68h-1.9l-6.06-13.68h1.92l5.12,11.65,5.17-11.65h1.83Z"/>
      <path class="cls-10" d="m915.17,218.03c0-.7.6-1.3,1.35-1.3s1.35.57,1.35,1.27c0,.75-.57,1.35-1.35,1.35s-1.35-.6-1.35-1.33h0Zm.42,4.32h1.85v13.68h-1.85v-13.68Z"/>
      <path class="cls-10" d="m935.06,216.73v19.29h-1.77v-2.7c-1.12,1.85-3.02,2.83-5.28,2.83-3.9,0-6.81-2.83-6.81-6.97s2.91-6.94,6.81-6.94c2.18,0,4.06.94,5.2,2.7v-8.22h1.85Zm-1.82,12.46c0-3.2-2.18-5.33-5.07-5.33s-5.1,2.13-5.1,5.33,2.18,5.33,5.1,5.33,5.07-2.13,5.07-5.33Z"/>
      <path class="cls-10" d="m950.53,227.55v8.48h-1.77v-2.13c-.83,1.4-2.44,2.26-4.71,2.26-3.09,0-4.99-1.61-4.99-3.98,0-2.11,1.35-3.87,5.28-3.87h4.34v-.83c0-2.34-1.33-3.61-3.88-3.61-1.77,0-3.43.62-4.55,1.61l-.83-1.38c1.38-1.17,3.41-1.85,5.56-1.85,3.54,0,5.54,1.77,5.54,5.3h.01Zm-1.85,4.37v-2.24h-4.29c-2.65,0-3.51,1.04-3.51,2.44,0,1.59,1.27,2.57,3.46,2.57s3.61-.99,4.34-2.78h0Z"/>
      <path class="cls-10" d="m968.08,216.73v19.29h-1.77v-2.7c-1.12,1.85-3.02,2.83-5.28,2.83-3.9,0-6.81-2.83-6.81-6.97s2.91-6.94,6.81-6.94c2.18,0,4.06.94,5.2,2.7v-8.22h1.85Zm-1.82,12.46c0-3.2-2.18-5.33-5.07-5.33s-5.1,2.13-5.1,5.33,2.18,5.33,5.1,5.33,5.07-2.13,5.07-5.33Z"/>
      <path class="cls-10" d="m985.14,229.76h-11.44c.21,2.86,2.39,4.76,5.38,4.76,1.66,0,3.15-.6,4.19-1.79l1.04,1.2c-1.22,1.46-3.12,2.24-5.28,2.24-4.26,0-7.18-2.91-7.18-6.97s2.83-6.94,6.68-6.94,6.63,2.83,6.63,6.94c0,.16-.03.36-.03.57h.01Zm-11.44-1.38h9.7c-.23-2.68-2.18-4.55-4.86-4.55s-4.6,1.87-4.84,4.55Z"/>
      <path class="cls-10" d="m987.74,223.65c0-.81.62-1.4,1.38-1.4s1.4.6,1.4,1.4-.65,1.43-1.4,1.43-1.38-.62-1.38-1.43Zm0,11.08c0-.81.62-1.4,1.38-1.4s1.4.6,1.4,1.4-.65,1.43-1.4,1.43-1.38-.62-1.38-1.43Z"/>
    </g>
  </g>
</svg>