<?xml version="1.0" encoding="UTF-8"?>
<svg id="Layer_1" data-name="Layer 1" xmlns="http://www.w3.org/2000/svg" viewBox="0 0 128 86.59">
  <defs>
    <style>
      .cls-1 {
        fill: #fe3754;
      }
    </style>
  </defs>
  <g id="Grupo_2351" data-name="Grupo 2351">
    <path id="Caminho_3021" data-name="Caminho 3021" class="cls-1" d="m20.41,72.89c-4.43-2.78-7.94-6.8-10.08-11.57-2.55-5.66-3.79-11.82-3.64-18.02-.15-6.2,1.09-12.36,3.64-18.02,2.16-4.76,5.67-8.78,10.08-11.57,9.09-5.27,20.3-5.27,29.38,0,4.43,2.78,7.94,6.8,10.08,11.57,2.55,5.66,3.79,11.82,3.64,18.02.15,6.2-1.09,12.36-3.64,18.02-2.16,4.76-5.67,8.78-10.08,11.57-9.09,5.27-20.3,5.27-29.38,0Zm22.07-15.42c1.8-2.98,2.7-7.69,2.7-14.14s-.9-11.16-2.7-14.14c-1.8-2.98-4.26-4.47-7.31-4.47-3.11,0-5.96,1.72-7.42,4.47-1.8,2.98-2.74,7.69-2.74,14.14s.9,11.16,2.74,14.14c1.44,2.76,4.3,4.48,7.42,4.47,3.12,0,5.51-1.49,7.31-4.47Z"/>
    <path id="Caminho_3022" data-name="Caminho 3022" class="cls-1" d="m117.02,43.47c2.86,3.31,4.39,7.55,4.3,11.92,0,3.76-1.06,7.44-3.08,10.6-2.3,3.47-5.57,6.21-9.39,7.87-4.23,2.01-9.42,2.98-15.63,2.98-4.54,0-9.07-.56-13.48-1.66-4.08-.95-7.99-2.54-11.57-4.71l6.62-13.72c2.61,1.77,5.49,3.1,8.52,3.95,3.04.91,6.19,1.38,9.36,1.39,2.6.13,5.18-.49,7.45-1.77,1.77-1.03,2.83-2.94,2.77-4.99,0-4.19-3.29-6.27-9.88-6.27h-7.66v-11.51l11.5-12.44h-25.43v-14.1h46.6v11.43l-13.38,14.38c5.34,1.11,9.46,3.29,12.3,6.58l.08.07Z"/>
  </g>
</svg>