<?xml version="1.0" encoding="UTF-8"?>
<svg id="Layer_1" data-name="Layer 1" xmlns="http://www.w3.org/2000/svg" viewBox="0 0 108.71 105.88">
  <defs>
    <style>
      .cls-1 {
        fill: #fff;
      }

      .cls-2 {
        fill: #354a61;
      }

      .cls-3 {
        fill: #003049;
      }
    </style>
  </defs>
  <g>
    <circle class="cls-3" cx="43.87" cy="52.94" r="32.32"/>
    <g>
      <path class="cls-1" d="m32.91,60.34c-1.08-.66-1.92-1.63-2.53-2.89-.61-1.27-.91-2.77-.91-4.51s.3-3.24.91-4.51c.61-1.27,1.45-2.23,2.53-2.89s2.31-.99,3.69-.99,2.59.33,3.67.99,1.92,1.63,2.53,2.89c.61,1.27.91,2.77.91,4.51s-.3,3.24-.91,4.51c-.61,1.27-1.45,2.23-2.53,2.89s-2.3.99-3.67.99-2.61-.33-3.69-.99Zm5.52-3.86c.45-.75.68-1.93.68-3.54s-.23-2.79-.68-3.54-1.06-1.12-1.83-1.12-1.4.37-1.86,1.12c-.45.75-.68,1.93-.68,3.54s.23,2.79.68,3.54,1.07,1.12,1.86,1.12,1.38-.37,1.83-1.12Z"/>
      <path class="cls-1" d="m58.26,57.39v3.62h-12.57v-2.86l6.04-5.65c.58-.55.98-1.03,1.18-1.42s.3-.79.3-1.19c0-.52-.18-.93-.53-1.22-.35-.29-.87-.44-1.54-.44-.6,0-1.15.14-1.65.4-.5.27-.91.66-1.23,1.16l-3.39-1.89c.63-1.04,1.51-1.87,2.65-2.47s2.48-.9,4.04-.9c1.23,0,2.32.2,3.26.6.95.4,1.68.97,2.21,1.72s.8,1.61.8,2.59c0,.88-.19,1.7-.57,2.48s-1.1,1.66-2.18,2.64l-3.04,2.81h6.23v.02Z"/>
    </g>
  </g>
  <rect class="cls-2" x="95.16" y="20.56" width="2" height="64.76"/>
</svg>