<svg id="Grupo_2083" data-name="Grupo 2083" xmlns="http://www.w3.org/2000/svg" xmlns:xlink="http://www.w3.org/1999/xlink" width="328.499" height="110.221" viewBox="0 0 328.499 110.221">
  <defs>
    <clipPath id="clip-path">
      <rect id="Retângulo_179" data-name="Retângulo 179" width="328.499" height="110.221" fill="none"/>
    </clipPath>
  </defs>
  <g id="Grupo_2081" data-name="Grupo 2081" clip-path="url(#clip-path)">
    <path id="Caminho_2526" data-name="Caminho 2526" d="M66.564,19.8A2.038,2.038,0,0,1,68.6,21.841V43.5H90.266A2.038,2.038,0,0,1,92.3,45.542V60.771a2.038,2.038,0,0,1-2.039,2.038H68.6V84.473a2.038,2.038,0,0,1-2.038,2.039H51.335A2.039,2.039,0,0,1,49.3,84.473V62.809H27.634A2.038,2.038,0,0,1,25.6,60.771V45.542A2.038,2.038,0,0,1,27.634,43.5H49.3V21.841A2.039,2.039,0,0,1,51.335,19.8Zm0-1.237H51.335a3.28,3.28,0,0,0-3.276,3.276V42.266H27.634a3.28,3.28,0,0,0-3.276,3.276V60.771a3.28,3.28,0,0,0,3.276,3.276H48.059V84.473a3.28,3.28,0,0,0,3.276,3.276H66.564a3.28,3.28,0,0,0,3.276-3.276V64.047H90.266a3.28,3.28,0,0,0,3.276-3.276V45.542a3.28,3.28,0,0,0-3.276-3.276H69.84V21.841a3.28,3.28,0,0,0-3.276-3.276" transform="translate(-3.839 -2.926)" fill="#0b6b97"/>
    <path id="Caminho_2527" data-name="Caminho 2527" d="M105.127,73.067H90.534A.618.618,0,0,1,90,72.145l7.3-12.931a.644.644,0,0,1,1.078,0l7.3,12.931a.618.618,0,0,1-.539.922M91.594,71.83h12.473L97.831,60.777Z" transform="translate(-14.173 -9.287)" fill="#231f20"/>
    <path id="Caminho_2528" data-name="Caminho 2528" d="M97.833,82.814A8.062,8.062,0,0,1,89.9,74.876a.617.617,0,0,1,.618-.631h14.625a.618.618,0,0,1,.619.631,8.062,8.062,0,0,1-7.932,7.938m-6.652-7.331a6.678,6.678,0,0,0,13.305,0Z" transform="translate(-14.171 -11.703)" fill="#231f20"/>
    <path id="Caminho_2529" data-name="Caminho 2529" d="M37.338,73.063H22.745a.618.618,0,0,1-.539-.922l7.3-12.931a.619.619,0,0,1,1.078,0l7.3,12.931a.618.618,0,0,1-.539.922M23.8,71.825H36.278L30.042,60.772Z" transform="translate(-3.488 -9.283)" fill="#231f20"/>
    <path id="Caminho_2530" data-name="Caminho 2530" d="M30.044,82.814a8.062,8.062,0,0,1-7.931-7.938.617.617,0,0,1,.618-.631H37.357a.618.618,0,0,1,.619.631,8.062,8.062,0,0,1-7.932,7.938m-6.652-7.331a6.678,6.678,0,0,0,13.305,0Z" transform="translate(-3.486 -11.703)" fill="#231f20"/>
    <line id="Linha_1" data-name="Linha 1" x2="57.197" transform="translate(26.512 50.23)" fill="#fff"/>
    <path id="Caminho_2531" data-name="Caminho 2531" d="M88.554,60.132h-57.2a.619.619,0,1,1,0-1.237h57.2a.619.619,0,1,1,0,1.237" transform="translate(-4.845 -9.283)" fill="#231f20"/>
    <line id="Linha_2" data-name="Linha 2" x2="43.745" transform="translate(33.238 47.136)" fill="#fff"/>
    <path id="Caminho_2532" data-name="Caminho 2532" d="M83.087,56.459H39.341a.619.619,0,1,1,0-1.237H83.087a.619.619,0,1,1,0,1.237" transform="translate(-6.103 -8.704)" fill="#231f20"/>
    <line id="Linha_3" data-name="Linha 3" x2="43.745" transform="translate(33.238 53.324)" fill="#fff"/>
    <path id="Caminho_2533" data-name="Caminho 2533" d="M83.087,63.805H39.341a.619.619,0,1,1,0-1.237H83.087a.619.619,0,1,1,0,1.237" transform="translate(-6.103 -9.862)" fill="#231f20"/>
    <line id="Linha_4" data-name="Linha 4" y2="16.399" transform="translate(55.111 27.306)" fill="#fff"/>
    <path id="Caminho_2534" data-name="Caminho 2534" d="M65.307,49.319a.619.619,0,0,1-.619-.619V32.3a.619.619,0,1,1,1.238,0V48.7a.619.619,0,0,1-.619.619" transform="translate(-10.196 -4.994)" fill="#231f20"/>
    <line id="Linha_5" data-name="Linha 5" y2="23.141" transform="translate(58.205 20.566)" fill="#fff"/>
    <path id="Caminho_2535" data-name="Caminho 2535" d="M68.98,48.057a.619.619,0,0,1-.619-.619V24.3a.619.619,0,0,1,1.238,0v23.14a.619.619,0,0,1-.619.619" transform="translate(-10.775 -3.732)" fill="#231f20"/>
    <line id="Linha_6" data-name="Linha 6" y2="23.141" transform="translate(52.016 20.566)" fill="#fff"/>
    <path id="Caminho_2536" data-name="Caminho 2536" d="M61.634,48.057a.619.619,0,0,1-.619-.619V24.3a.619.619,0,0,1,1.238,0v23.14a.619.619,0,0,1-.619.619" transform="translate(-9.617 -3.732)" fill="#231f20"/>
    <line id="Linha_7" data-name="Linha 7" x2="13.62" transform="translate(48.301 87.156)" fill="#fff"/>
    <path id="Caminho_2537" data-name="Caminho 2537" d="M70.843,103.968H57.223a.619.619,0,1,1,0-1.237h13.62a.619.619,0,1,1,0,1.237" transform="translate(-8.922 -16.193)" fill="#231f20"/>
    <line id="Linha_8" data-name="Linha 8" x2="17.558" transform="translate(46.331 90.25)" fill="#fff"/>
    <path id="Caminho_2538" data-name="Caminho 2538" d="M72.444,107.641H54.885a.619.619,0,1,1,0-1.237H72.444a.619.619,0,1,1,0,1.237" transform="translate(-8.554 -16.772)" fill="#231f20"/>
    <line id="Linha_9" data-name="Linha 9" x2="25.143" transform="translate(42.539 93.345)" fill="#fff"/>
    <path id="Caminho_2539" data-name="Caminho 2539" d="M75.527,111.314H50.383a.619.619,0,0,1,0-1.237H75.527a.619.619,0,1,1,0,1.237" transform="translate(-7.844 -17.351)" fill="#231f20"/>
    <line id="Linha_10" data-name="Linha 10" y1="15.859" transform="translate(55.111 56.754)" fill="#fff"/>
    <path id="Caminho_2540" data-name="Caminho 2540" d="M65.307,83.736a.619.619,0,0,1-.619-.619V67.258a.619.619,0,0,1,1.238,0V83.117a.619.619,0,0,1-.619.619" transform="translate(-10.196 -10.504)" fill="#231f20"/>
    <line id="Linha_11" data-name="Linha 11" y1="22.377" transform="translate(52.016 56.754)" fill="#fff"/>
    <path id="Caminho_2541" data-name="Caminho 2541" d="M61.634,90.254a.619.619,0,0,1-.619-.619V67.258a.619.619,0,0,1,1.238,0V89.635a.619.619,0,0,1-.619.619" transform="translate(-9.617 -10.504)" fill="#231f20"/>
    <line id="Linha_12" data-name="Linha 12" y1="22.377" transform="translate(58.205 56.754)" fill="#fff"/>
    <path id="Caminho_2542" data-name="Caminho 2542" d="M68.98,90.254a.619.619,0,0,1-.619-.619V67.258a.619.619,0,0,1,1.238,0V89.635a.619.619,0,0,1-.619.619" transform="translate(-10.775 -10.504)" fill="#231f20"/>
    <path id="Caminho_2543" data-name="Caminho 2543" d="M55.111,110.221A55.11,55.11,0,1,1,110.222,55.11a55.173,55.173,0,0,1-55.111,55.111m0-108.983A53.873,53.873,0,1,0,108.983,55.11,53.933,53.933,0,0,0,55.111,1.237" fill="#231f20"/>
    <path id="Caminho_2544" data-name="Caminho 2544" d="M56.044,106.169a50.126,50.126,0,1,1,50.126-50.126,50.183,50.183,0,0,1-50.126,50.126m0-99.014a48.888,48.888,0,1,0,48.888,48.888A48.944,48.944,0,0,0,56.044,7.155" transform="translate(-0.933 -0.933)" fill="#231f20"/>
    <path id="Caminho_2545" data-name="Caminho 2545" d="M161.3,44.233v1.994H149.653V30.184h11.322v1.994h-9.03v4.928h8.045v1.948h-8.045v5.18Z" transform="translate(-23.589 -4.758)" fill="#58595b"/>
    <path id="Caminho_2546" data-name="Caminho 2546" d="M166.14,44.359l.848-1.788a8.256,8.256,0,0,0,5.294,1.857c2.773,0,3.965-1.077,3.965-2.476,0-3.919-9.719-1.444-9.719-7.4,0-2.475,1.926-4.583,6.143-4.583a9.441,9.441,0,0,1,5.156,1.42l-.756,1.834a8.287,8.287,0,0,0-4.4-1.307c-2.728,0-3.9,1.146-3.9,2.544,0,3.92,9.718,1.467,9.718,7.357,0,2.452-1.971,4.561-6.211,4.561a9.524,9.524,0,0,1-6.143-2.017" transform="translate(-26.188 -4.723)" fill="#58595b"/>
    <path id="Caminho_2547" data-name="Caminho 2547" d="M197.726,35.776c0,3.484-2.521,5.593-6.693,5.593h-3.965v4.859h-2.292V30.183h6.257c4.171,0,6.693,2.109,6.693,5.593m-2.292,0c0-2.292-1.536-3.6-4.469-3.6h-3.9v7.2h3.9c2.933,0,4.469-1.307,4.469-3.6" transform="translate(-29.125 -4.758)" fill="#58595b"/>
    <path id="Caminho_2548" data-name="Caminho 2548" d="M215.79,44.233v1.994H204.147V30.184h11.322v1.994h-9.03v4.928h8.045v1.948h-8.045v5.18Z" transform="translate(-32.178 -4.758)" fill="#58595b"/>
    <path id="Caminho_2549" data-name="Caminho 2549" d="M220.743,38.171c0-4.744,3.621-8.2,8.5-8.2a7.932,7.932,0,0,1,6.1,2.5l-1.49,1.445a5.945,5.945,0,0,0-4.515-1.9,6.167,6.167,0,1,0,0,12.331,5.968,5.968,0,0,0,4.515-1.925l1.49,1.443a7.96,7.96,0,0,1-6.12,2.522,8.11,8.11,0,0,1-8.48-8.206" transform="translate(-34.794 -4.723)" fill="#58595b"/>
    <rect id="Retângulo_173" data-name="Retângulo 173" width="2.292" height="16.044" transform="translate(203.825 25.425)" fill="#58595b"/>
    <path id="Caminho_2550" data-name="Caminho 2550" d="M260.166,42.216h-8.527l-1.765,4.011h-2.36l7.266-16.044h2.269l7.288,16.044H261.93Zm-.8-1.833-3.46-7.861-3.462,7.861Z" transform="translate(-39.014 -4.758)" fill="#58595b"/>
    <path id="Caminho_2551" data-name="Caminho 2551" d="M270.313,30.183h2.292V44.232h8.687v1.995H270.313Z" transform="translate(-42.608 -4.758)" fill="#58595b"/>
    <rect id="Retângulo_174" data-name="Retângulo 174" width="2.292" height="16.044" transform="translate(241.319 25.425)" fill="#58595b"/>
    <path id="Caminho_2552" data-name="Caminho 2552" d="M306.629,44.233v1.994H293.221V44.668l10.084-12.491h-9.924V30.184H306.33v1.558L296.292,44.233Z" transform="translate(-46.219 -4.758)" fill="#58595b"/>
    <path id="Caminho_2553" data-name="Caminho 2553" d="M322.549,42.216h-8.526l-1.765,4.011H309.9l7.266-16.044h2.268l7.288,16.044h-2.407Zm-.8-1.833-3.46-7.861-3.461,7.861Z" transform="translate(-48.847 -4.758)" fill="#58595b"/>
    <path id="Caminho_2554" data-name="Caminho 2554" d="M343.984,42.411l1.49,1.444a8,8,0,0,1-5.96,2.521l-.252.963c1.329.137,1.994.894,1.994,1.9,0,1.284-1.123,2.086-2.841,2.086a3.85,3.85,0,0,1-2.04-.5l.481-1.123a3.028,3.028,0,0,0,1.559.39c.87,0,1.283-.344,1.283-.917,0-.526-.389-.894-1.307-.894h-.618l.5-1.971a8.017,8.017,0,0,1-7.4-8.137c0-4.744,3.621-8.2,8.5-8.2a7.929,7.929,0,0,1,6.1,2.5l-1.49,1.444a5.945,5.945,0,0,0-4.515-1.9,6.167,6.167,0,1,0,0,12.332,5.966,5.966,0,0,0,4.515-1.926" transform="translate(-52.154 -4.723)" fill="#58595b"/>
    <path id="Caminho_2555" data-name="Caminho 2555" d="M361.4,41.414h-8.526l-1.765,4.011h-2.36l7.265-16.044h2.269l7.288,16.044h-2.407Zm-6.853-13.522H353.31c.046-1.7.917-2.8,2.247-2.8,1.467,0,2.2,1.559,3.048,1.559.665,0,1.123-.527,1.169-1.376h1.237c-.045,1.627-.917,2.728-2.246,2.728-1.467,0-2.2-1.536-3.049-1.536-.665,0-1.123.527-1.169,1.421M360.6,39.581l-3.46-7.861-3.461,7.861Z" transform="translate(-54.971 -3.956)" fill="#58595b"/>
    <path id="Caminho_2556" data-name="Caminho 2556" d="M369.725,38.171c0-4.7,3.621-8.2,8.549-8.2a8.21,8.21,0,1,1,0,16.41c-4.928,0-8.549-3.507-8.549-8.206m14.76,0a6.234,6.234,0,1,0-6.211,6.165,6.024,6.024,0,0,0,6.211-6.165" transform="translate(-58.277 -4.723)" fill="#58595b"/>
    <path id="Caminho_2557" data-name="Caminho 2557" d="M161.3,76.881v1.994H149.653V62.831h11.322v1.994h-9.03v4.928h8.045V71.7h-8.045v5.18Z" transform="translate(-23.589 -9.904)" fill="#58595b"/>
    <path id="Caminho_2558" data-name="Caminho 2558" d="M182.756,78.875l-.023-11.689-5.8,9.741h-1.054l-5.8-9.672v11.62h-2.2V62.831h1.879l6.693,11.277,6.6-11.277h1.88l.023,16.044Z" transform="translate(-26.462 -9.904)" fill="#58595b"/>
    <path id="Caminho_2559" data-name="Caminho 2559" d="M201.182,62.831h6.761c5.157,0,8.664,3.254,8.664,8.021s-3.507,8.022-8.664,8.022h-6.761Zm6.624,14.049c3.965,0,6.509-2.429,6.509-6.028s-2.544-6.027-6.509-6.027h-4.332V76.88Z" transform="translate(-31.711 -9.904)" fill="#58595b"/>
    <rect id="Retângulo_175" data-name="Retângulo 175" width="2.292" height="16.044" transform="translate(188.401 52.927)" fill="#58595b"/>
    <path id="Caminho_2560" data-name="Caminho 2560" d="M242.814,78.875l-3.46-4.928c-.323.023-.666.046-1.01.046H234.38v4.882h-2.293V62.831h6.257c4.171,0,6.693,2.109,6.693,5.593a5.063,5.063,0,0,1-3.53,5.065l3.8,5.386Zm-.068-10.451c0-2.292-1.536-3.6-4.47-3.6h-3.9v7.22h3.9c2.933,0,4.47-1.329,4.47-3.621" transform="translate(-36.582 -9.904)" fill="#58595b"/>
    <path id="Caminho_2561" data-name="Caminho 2561" d="M263.51,76.881v1.994H251.867V62.831h11.322v1.994h-9.03v4.928H262.2V71.7h-8.045v5.18Z" transform="translate(-39.7 -9.904)" fill="#58595b"/>
    <rect id="Retângulo_176" data-name="Retângulo 176" width="2.292" height="16.044" transform="translate(227.522 52.927)" fill="#58595b"/>
    <path id="Caminho_2562" data-name="Caminho 2562" d="M281.282,64.825h-5.5V62.831h13.27v1.994h-5.5V78.874h-2.269Z" transform="translate(-43.47 -9.904)" fill="#58595b"/>
    <path id="Caminho_2563" data-name="Caminho 2563" d="M292.676,70.819c0-4.7,3.621-8.2,8.549-8.2a8.21,8.21,0,1,1,0,16.41c-4.928,0-8.549-3.507-8.549-8.206m14.76,0a6.234,6.234,0,1,0-6.211,6.165,6.024,6.024,0,0,0,6.211-6.165" transform="translate(-46.133 -9.869)" fill="#58595b"/>
    <path id="Caminho_2564" data-name="Caminho 2564" d="M147.912,109.655l.848-1.788a8.26,8.26,0,0,0,5.294,1.856c2.773,0,3.965-1.077,3.965-2.475,0-3.919-9.719-1.444-9.719-7.4,0-2.476,1.926-4.584,6.143-4.584a9.441,9.441,0,0,1,5.156,1.421l-.756,1.834a8.286,8.286,0,0,0-4.4-1.307c-2.728,0-3.9,1.146-3.9,2.544,0,3.92,9.718,1.467,9.718,7.357,0,2.452-1.971,4.561-6.211,4.561a9.529,9.529,0,0,1-6.143-2.017" transform="translate(-23.314 -15.015)" fill="#58595b"/>
    <path id="Caminho_2565" data-name="Caminho 2565" d="M176.316,107.512H167.79l-1.765,4.011h-2.36l7.265-16.044H173.2l7.288,16.044h-2.407Zm-.8-1.833-3.46-7.861-3.461,7.861Z" transform="translate(-25.797 -15.05)" fill="#58595b"/>
    <path id="Caminho_2566" data-name="Caminho 2566" d="M200.261,95.479v16.044h-1.879l-9.626-11.964v11.964h-2.292V95.479h1.879l9.626,11.964V95.479Z" transform="translate(-29.391 -15.05)" fill="#58595b"/>
    <rect id="Retângulo_177" data-name="Retângulo 177" width="2.292" height="16.044" transform="translate(175.682 80.429)" fill="#58595b"/>
    <path id="Caminho_2567" data-name="Caminho 2567" d="M219.741,97.473h-5.5V95.479h13.27v1.994h-5.5v14.049h-2.269Z" transform="translate(-33.769 -15.05)" fill="#58595b"/>
    <path id="Caminho_2568" data-name="Caminho 2568" d="M241.774,106.71h-8.526l-1.765,4.011h-2.36l7.266-16.043h2.269l7.288,16.043h-2.407Zm-.8-1.834-3.461-7.861-3.461,7.861ZM237.878,93.37h-2.063l3.118-2.979h2.8Z" transform="translate(-36.115 -14.248)" fill="#58595b"/>
    <path id="Caminho_2569" data-name="Caminho 2569" d="M262.648,111.523l-3.461-4.928c-.322.023-.665.046-1.009.046h-3.965v4.882h-2.292V95.479h6.257c4.171,0,6.693,2.109,6.693,5.593a5.063,5.063,0,0,1-3.53,5.065l3.8,5.386Zm-.069-10.451c0-2.292-1.536-3.6-4.469-3.6h-3.9v7.22h3.9c2.933,0,4.469-1.329,4.469-3.621" transform="translate(-39.709 -15.05)" fill="#58595b"/>
    <rect id="Retângulo_178" data-name="Retângulo 178" width="2.292" height="16.044" transform="translate(228.874 80.429)" fill="#58595b"/>
    <path id="Caminho_2570" data-name="Caminho 2570" d="M278.583,103.467c0-4.7,3.621-8.2,8.549-8.2a8.21,8.21,0,1,1,0,16.41c-4.928,0-8.549-3.507-8.549-8.206m14.76,0a6.234,6.234,0,1,0-6.211,6.165,6.024,6.024,0,0,0,6.211-6.165" transform="translate(-43.911 -15.016)" fill="#58595b"/>
    <path id="Caminho_2571" data-name="Caminho 2571" d="M149.424,9.829a6.58,6.58,0,0,1,11.4-4.063L159.052,7.4a3.844,3.844,0,0,0-3-1.4,3.665,3.665,0,0,0-3.824,3.824,3.665,3.665,0,0,0,3.824,3.824,3.806,3.806,0,0,0,3-1.417l1.776,1.638a6.568,6.568,0,0,1-11.4-4.045" transform="translate(-23.553 -0.575)" fill="#0b6b97"/>
    <path id="Caminho_2572" data-name="Caminho 2572" d="M164.928,10.584V3.892h2.766v6.589c0,2.271.99,3.209,2.663,3.209,1.691,0,2.663-.938,2.663-3.209V3.892h2.732v6.692c0,3.517-2.014,5.463-5.411,5.463s-5.411-1.946-5.411-5.463" transform="translate(-25.997 -0.613)" fill="#0b6b97"/>
    <path id="Caminho_2573" data-name="Caminho 2573" d="M188.633,15.841l-2.3-3.328h-2.543v3.328H181.02V3.892h5.172c3.193,0,5.19,1.656,5.19,4.336A3.886,3.886,0,0,1,188.924,12l2.68,3.84Zm-2.595-9.7h-2.253v4.166h2.253c1.69,0,2.543-.786,2.543-2.083,0-1.314-.853-2.082-2.543-2.082" transform="translate(-28.533 -0.613)" fill="#0b6b97"/>
    <path id="Caminho_2574" data-name="Caminho 2574" d="M194.8,14.625l.939-2.082a7.027,7.027,0,0,0,3.942,1.246c1.639,0,2.3-.546,2.3-1.28,0-2.236-6.948-.7-6.948-5.138,0-2.032,1.639-3.722,5.037-3.722a8.006,8.006,0,0,1,4.148,1.059l-.854,2.1a6.743,6.743,0,0,0-3.311-.938c-1.638,0-2.27.614-2.27,1.365,0,2.2,6.948.683,6.948,5.07,0,2-1.656,3.7-5.07,3.7a8.514,8.514,0,0,1-4.865-1.382" transform="translate(-30.705 -0.575)" fill="#0b6b97"/>
    <path id="Caminho_2575" data-name="Caminho 2575" d="M207.954,9.829a6.184,6.184,0,0,1,6.538-6.18c3.756,0,6.539,2.612,6.539,6.18s-2.782,6.18-6.539,6.18a6.184,6.184,0,0,1-6.538-6.18m10.276,0a3.739,3.739,0,1,0-7.477,0,3.739,3.739,0,1,0,7.477,0" transform="translate(-32.778 -0.575)" fill="#0b6b97"/>
    <path id="Caminho_2576" data-name="Caminho 2576" d="M231.686,3.892h5.428c3.909,0,6.589,2.356,6.589,5.975s-2.68,5.974-6.589,5.974h-5.428Zm5.292,9.679c2.373,0,3.926-1.417,3.926-3.7s-1.553-3.7-3.926-3.7h-2.526v7.409Z" transform="translate(-36.519 -0.613)" fill="#0b6b97"/>
    <path id="Caminho_2577" data-name="Caminho 2577" d="M257.679,13.622v2.219h-9.252V3.892h9.029v2.22h-6.282V8.706h5.548v2.151h-5.548v2.766Z" transform="translate(-39.158 -0.613)" fill="#0b6b97"/>
  </g>
</svg>
