<?xml version="1.0" encoding="utf-8"?>
<!-- Generator: Adobe Illustrator 27.2.0, SVG Export Plug-In . SVG Version: 6.00 Build 0)  -->
<svg version="1.1" id="Layer_1" xmlns="http://www.w3.org/2000/svg" xmlns:xlink="http://www.w3.org/1999/xlink" x="0px" y="0px"
	 viewBox="0 0 1118.2 437" style="enable-background:new 0 0 1118.2 437;" xml:space="preserve">
<style type="text/css">
	.st0{clip-path:url(#SVGID_00000003095478933604296240000002790553560291778463_);}
	.st1{fill:none;stroke:#076695;}
	.st2{fill:#E3F7FF;}
	.st3{fill:#1D1D1B;}
	.st4{fill:#FFFFFF;}
	.st5{fill:#036696;}
	.st6{clip-path:url(#SVGID_00000121258015140321672340000012192249765561389701_);}
	.st7{fill:#003D57;}
	.st8{clip-path:url(#SVGID_00000101084899774883742930000006291157161202437816_);}
	.st9{clip-path:url(#SVGID_00000173880726679512378550000015363826564404473510_);}
	.st10{clip-path:url(#SVGID_00000155147083913259129690000014697214857537205146_);}
	.st11{clip-path:url(#SVGID_00000031898930346229026040000001362801738503737506_);}
	.st12{clip-path:url(#SVGID_00000173845544775805875630000015050191111942199216_);}
	.st13{clip-path:url(#SVGID_00000165232715073306401810000006382304731081327528_);}
</style>
<g id="Janela4" transform="translate(-15.96 -17.29)">
	<g>
		<defs>
			<rect id="SVGID_1_" x="16" y="17.3" width="1118.2" height="437"/>
		</defs>
		<clipPath id="SVGID_00000145774500720694995830000017909030092825607303_">
			<use xlink:href="#SVGID_1_"  style="overflow:visible;"/>
		</clipPath>
		
			<g id="Grupo_2440" transform="translate(15.96 17.29)" style="clip-path:url(#SVGID_00000145774500720694995830000017909030092825607303_);">
			<rect id="Ret창ngulo_293" x="41" y="102.4" class="st1" width="1075.9" height="333.3"/>
		</g>
	</g>
	<rect id="Ret창ngulo_295" x="30.1" y="87.5" class="st2" width="1078.5" height="335.9"/>
	<g id="Grupo_2442" transform="translate(180.757 257.99)">
		<path id="Caminho_6258" class="st3" d="M13.6-7.8l0.8-1.7C16.3-7.8,18.7-7,21.1-7c3.8,0,5.5-1.6,5.5-3.6c0-5.6-12.5-2.1-12.5-9.7
			c0-3,2.3-5.6,7.5-5.6c2.2,0,4.4,0.6,6.3,1.8l-0.7,1.7c-1.7-1.1-3.6-1.7-5.6-1.7c-3.7,0-5.4,1.7-5.4,3.7c0,5.6,12.5,2.2,12.5,9.6
			c0,3-2.4,5.6-7.6,5.6C18.1-5.1,15.1-6.2,13.6-7.8L13.6-7.8z"/>
		<path id="Caminho_6259" class="st3" d="M46.3-12.3H33.5c0.2,3.1,2.9,5.5,6,5.3c0,0,0,0,0,0C41.3-7,43-7.7,44.2-9l1.2,1.3
			c-1.5,1.7-3.7,2.6-5.9,2.5c-4.8,0-8-3.3-8-7.8s3.2-7.8,7.5-7.8s7.4,3.2,7.4,7.8C46.3-12.8,46.3-12.6,46.3-12.3L46.3-12.3z
			 M33.5-13.9h10.8c-0.2-3-2.8-5.3-5.8-5.1C35.8-18.8,33.6-16.6,33.5-13.9L33.5-13.9z"/>
		<path id="Caminho_6260" class="st3" d="M58.2-20.7v2c-0.2,0-0.3,0-0.5,0c-3.2,0-5.2,2-5.2,5.6v7.8h-2.1v-15.3h2v3
			C53.4-19.7,55.4-20.8,58.2-20.7L58.2-20.7z"/>
		<path id="Caminho_6261" class="st3" d="M61.5-25.5c0-0.8,0.7-1.5,1.5-1.5c0,0,0,0,0,0c0.8,0,1.5,0.6,1.5,1.4c0,0,0,0,0,0
			c0,0.8-0.7,1.5-1.5,1.5C62.2-23.9,61.6-24.6,61.5-25.5L61.5-25.5L61.5-25.5z M62-20.6h2.1v15.3H62V-20.6z"/>
		<path id="Caminho_6262" class="st3" d="M81.4-14.8v9.5h-2v-2.4c-0.9,1.6-2.7,2.5-5.3,2.5c-3.5,0-5.6-1.8-5.6-4.4
			c0-2.4,1.5-4.3,5.9-4.3h4.9v-0.9c0-2.6-1.5-4-4.3-4c-1.9,0-3.7,0.6-5.1,1.8L69-18.6c1.8-1.4,4-2.1,6.2-2.1
			C79.1-20.7,81.4-18.7,81.4-14.8L81.4-14.8z M79.3-9.9v-2.5h-4.8c-3,0-3.9,1.2-3.9,2.7c0,1.8,1.4,2.9,3.9,2.9
			C76.6-6.7,78.5-7.9,79.3-9.9L79.3-9.9z"/>
		<path id="Caminho_6263" class="st3" d="M92.6-13c0-4.3,3.5-7.8,7.8-7.8c4.3,0,7.8,3.5,7.8,7.8c0,4.3-3.5,7.8-7.8,7.8
			c-4.2,0.2-7.6-3.1-7.8-7.2C92.6-12.6,92.6-12.8,92.6-13z M106.1-13c-0.1-3.1-2.8-5.6-6-5.4c-3.1,0.1-5.6,2.8-5.4,6
			c0.1,3,2.7,5.4,5.7,5.4C103.7-7,106.1-9.4,106.1-13L106.1-13z"/>
		<path id="Caminho_6264" class="st3" d="M133.5-26.9v21.6h-2v-3c-1.2,2-3.5,3.3-5.9,3.2c-4.3-0.1-7.7-3.6-7.6-7.9
			c0.1-4.2,3.5-7.6,7.6-7.6c2.3-0.1,4.5,1.1,5.8,3v-9.2L133.5-26.9L133.5-26.9z M131.5-13c-0.1-3.1-2.8-5.6-6-5.4s-5.6,2.8-5.4,6
			c0.1,3,2.7,5.4,5.7,5.4C129.1-7,131.5-9.4,131.5-13L131.5-13z"/>
		<path id="Caminho_6265" class="st3" d="M138.8-25.5c0-0.8,0.7-1.5,1.5-1.5c0,0,0,0,0,0c0.8,0,1.5,0.6,1.5,1.4c0,0,0,0,0,0
			c0,0.8-0.7,1.5-1.5,1.5C139.5-23.9,138.8-24.6,138.8-25.5L138.8-25.5z M139.3-20.6h2.1v15.3h-2.1V-20.6z"/>
		<path id="Caminho_6266" class="st3" d="M154.8-20.7v2c-0.2,0-0.3,0-0.5,0c-3.2,0-5.2,2-5.2,5.6v7.8h-2.1v-15.3h2v3
			C150-19.7,152-20.8,154.8-20.7L154.8-20.7z"/>
		<path id="Caminho_6267" class="st3" d="M171.8-12.3H159c0.2,3.1,2.9,5.5,6,5.3c0,0,0,0,0,0c1.8,0.1,3.5-0.7,4.7-2l1.2,1.3
			c-1.5,1.7-3.7,2.6-5.9,2.5c-4.8,0-8-3.3-8-7.8s3.2-7.8,7.5-7.8s7.4,3.2,7.4,7.8C171.8-12.8,171.8-12.6,171.8-12.3L171.8-12.3z
			 M159-13.9h10.8c-0.2-3-2.8-5.3-5.8-5.1C161.3-18.8,159.1-16.6,159-13.9L159-13.9z"/>
		<path id="Caminho_6268" class="st3" d="M175.5-25.5c0-0.8,0.7-1.5,1.5-1.5c0,0,0,0,0,0c0.8,0,1.5,0.6,1.5,1.4c0,0,0,0,0,0
			c0,0.8-0.7,1.5-1.5,1.5C176.2-23.9,175.6-24.6,175.5-25.5L175.5-25.5L175.5-25.5z M176-20.6h2.1v15.3H176V-20.6z"/>
		<path id="Caminho_6269" class="st3" d="M191.9-6.2c-0.9,0.7-2.1,1.1-3.2,1.1c-2.9,0-4.5-1.6-4.5-4.4v-9.3h-2.7v-1.7h2.7v-3.3h2.1
			v3.3h4.7v1.7h-4.7v9.2c0,1.8,0.9,2.8,2.6,2.8c0.8,0,1.6-0.3,2.3-0.8L191.9-6.2L191.9-6.2z"/>
		<path id="Caminho_6270" class="st3" d="M193.6-13c0-4.3,3.5-7.8,7.8-7.8c4.3,0,7.8,3.5,7.8,7.8c0,4.3-3.5,7.8-7.8,7.8
			c-4.2,0.2-7.6-3.1-7.8-7.2C193.6-12.6,193.6-12.8,193.6-13z M207.1-13c-0.1-3.1-2.8-5.6-6-5.4c-3.1,0.1-5.6,2.8-5.4,6
			c0.1,3,2.7,5.4,5.7,5.4C204.7-7,207.1-9.4,207.1-13z"/>
		<path id="Caminho_6271" class="st3" d="M234.6-14.2v8.9h-2.1V-14c0-3.2-1.7-4.9-4.6-4.9c-3.3,0-5.3,2-5.3,5.5v8h-2.1v-15.3h2v2.8
			c1.3-2,3.5-3.1,5.8-2.9C232.1-20.7,234.7-18.6,234.6-14.2L234.6-14.2z"/>
		<path id="Caminho_6272" class="st3" d="M251.8-14.8v9.5h-2v-2.4c-0.9,1.6-2.7,2.5-5.3,2.5c-3.5,0-5.6-1.8-5.6-4.4
			c0-2.4,1.5-4.3,5.9-4.3h4.9v-0.9c0-2.6-1.5-4-4.3-4c-1.9,0-3.7,0.6-5.1,1.8l-0.9-1.5c1.8-1.4,4-2.1,6.2-2.1
			C249.5-20.7,251.8-18.7,251.8-14.8L251.8-14.8z M249.7-9.9v-2.5h-4.8c-3,0-3.9,1.2-3.9,2.7c0,1.8,1.4,2.9,3.9,2.9
			C247-6.7,249-7.9,249.7-9.9L249.7-9.9z"/>
		<path id="Caminho_6273" class="st3" d="M265.5-6.2c-0.9,0.7-2.1,1.1-3.2,1.1c-2.9,0-4.5-1.6-4.5-4.4v-9.3H255v-1.7h2.7v-3.3h2.1
			v3.3h4.7v1.7h-4.7v9.2c0,1.8,0.9,2.8,2.6,2.8c0.8,0,1.6-0.3,2.3-0.8L265.5-6.2L265.5-6.2z"/>
		<path id="Caminho_6274" class="st3" d="M283-20.6v15.3h-2v-2.8c-1.2,1.9-3.3,3-5.5,2.9c-3.9,0-6.5-2.2-6.5-6.6v-8.9h2.1v8.7
			c0,3.3,1.7,4.9,4.6,4.9c3.2,0,5.2-2.1,5.2-5.6v-8L283-20.6L283-20.6z"/>
		<path id="Caminho_6275" class="st3" d="M296.5-20.7v2c-0.2,0-0.3,0-0.5,0c-3.2,0-5.2,2-5.2,5.6v7.8h-2.1v-15.3h2v3
			C291.7-19.7,293.7-20.8,296.5-20.7L296.5-20.7z"/>
		<path id="Caminho_6276" class="st3" d="M311.8-14.8v9.5h-2v-2.4c-0.9,1.6-2.7,2.5-5.3,2.5c-3.5,0-5.6-1.8-5.6-4.4
			c0-2.4,1.5-4.3,5.9-4.3h4.9v-0.9c0-2.6-1.5-4-4.3-4c-1.9,0-3.7,0.6-5.1,1.8l-0.9-1.5c1.8-1.4,4-2.1,6.2-2.1
			C309.5-20.7,311.7-18.7,311.8-14.8L311.8-14.8z M309.7-9.9v-2.5h-4.8c-3,0-3.9,1.2-3.9,2.7c0,1.8,1.4,2.9,3.9,2.9
			C306.9-6.7,308.9-7.9,309.7-9.9L309.7-9.9z"/>
		<path id="Caminho_6277" class="st3" d="M317.4-26.9h2.1v21.6h-2.1V-26.9z"/>
		<path id="Caminho_6278" class="st3" d="M346.2-20.6v15.3h-2v-2.8c-1.2,1.9-3.3,3-5.5,2.9c-3.9,0-6.5-2.2-6.5-6.6v-8.9h2.1v8.7
			c0,3.3,1.7,4.9,4.6,4.9c3.2,0,5.2-2.1,5.2-5.6v-8L346.2-20.6L346.2-20.6z"/>
		<path id="Caminho_6279" class="st3" d="M377.2-14.2v8.9h-2.1V-14c0-3.2-1.6-4.9-4.4-4.9c-3.1,0-5.1,2-5.1,5.5v8h-2.1V-14
			c0-3.2-1.6-4.9-4.4-4.9c-3.1,0-5.1,2-5.1,5.5v8h-2.1v-15.3h2v2.8c1.2-1.9,3.3-3,5.6-2.9c2.3-0.2,4.5,1.1,5.4,3.2
			c1.3-2.1,3.6-3.4,6.1-3.2C374.8-20.7,377.2-18.6,377.2-14.2L377.2-14.2z"/>
		<path id="Caminho_6280" class="st3" d="M394.4-14.8v9.5h-2v-2.4c-0.9,1.6-2.7,2.5-5.3,2.5c-3.5,0-5.6-1.8-5.6-4.4
			c0-2.4,1.5-4.3,5.9-4.3h4.9v-0.9c0-2.6-1.5-4-4.3-4c-1.9,0-3.7,0.6-5.1,1.8l-0.9-1.5c1.8-1.4,4-2.1,6.2-2.1
			C392.1-20.7,394.3-18.7,394.4-14.8L394.4-14.8z M392.3-9.9v-2.5h-4.8c-3,0-3.9,1.2-3.9,2.7c0,1.8,1.4,2.9,3.9,2.9
			C389.5-6.7,391.5-7.9,392.3-9.9L392.3-9.9z"/>
		<path id="Caminho_6281" class="st3" d="M420.5-12.3h-12.8c0.2,3.1,2.9,5.5,6,5.3c0,0,0,0,0,0c1.8,0.1,3.5-0.7,4.7-2l1.2,1.3
			c-1.5,1.7-3.7,2.6-5.9,2.5c-4.8,0-8-3.3-8-7.8s3.2-7.8,7.5-7.8c4.3,0,7.4,3.2,7.4,7.8C420.5-12.8,420.5-12.6,420.5-12.3
			L420.5-12.3z M407.7-13.9h10.8c-0.2-3-2.8-5.3-5.8-5.1C410-18.8,407.8-16.6,407.7-13.9L407.7-13.9z"/>
		<path id="Caminho_6282" class="st3" d="M422.6-7.1l0.9-1.6C425.1-7.6,427-7,429-7c2.9,0,4.1-1,4.1-2.5c0-4-9.9-0.8-9.9-6.9
			c0-2.5,2.1-4.4,6.1-4.4c1.9,0,3.8,0.5,5.4,1.4l-0.9,1.7c-1.3-0.9-2.9-1.4-4.5-1.3c-2.8,0-4,1.1-4,2.5c0,4.1,9.9,1,9.9,6.9
			c0,2.6-2.3,4.4-6.3,4.4C426.6-5.1,424.4-5.8,422.6-7.1z"/>
		<path id="Caminho_6283" class="st3" d="M454.5-13c0.2,4.1-2.9,7.6-7,7.8c-0.2,0-0.4,0-0.6,0c-2.3,0.1-4.5-1.1-5.8-3v8.5H439v-21h2
			v3c1.3-2,3.5-3.2,5.9-3.1c4.1-0.1,7.5,3.1,7.6,7.2C454.5-13.4,454.5-13.2,454.5-13z M452.4-13c-0.1-3.2-2.8-5.6-6-5.5
			c-3.2,0.1-5.6,2.8-5.5,6c0.1,3.1,2.7,5.5,5.7,5.5c3.1,0,5.7-2.4,5.7-5.6C452.4-12.7,452.4-12.8,452.4-13L452.4-13z"/>
		<path id="Caminho_6284" class="st3" d="M472-12.3h-12.8c0.2,3.2,2.7,5.3,6,5.3c1.8,0.1,3.5-0.7,4.7-2l1.2,1.3
			c-1.5,1.7-3.7,2.6-5.9,2.5c-4.8,0-8-3.3-8-7.8s3.2-7.8,7.5-7.8s7.4,3.2,7.4,7.8C472.1-12.8,472-12.6,472-12.3L472-12.3z
			 M459.2-13.9h10.8c-0.2-3-2.8-5.3-5.8-5.1C461.5-18.8,459.4-16.6,459.2-13.9L459.2-13.9z M464.8-23h-2l4-3.6h2.8L464.8-23
			L464.8-23z"/>
		<path id="Caminho_6285" class="st3" d="M474.7-13c-0.1-4.2,3.1-7.6,7.3-7.8c0.2,0,0.4,0,0.6,0c2.4-0.1,4.7,1,6,3l-1.5,1.1
			c-1-1.5-2.7-2.3-4.4-2.3c-3.3,0.1-5.9,2.8-5.8,6.1c0.1,3.2,2.6,5.7,5.8,5.8c1.8,0.1,3.5-0.8,4.4-2.2l1.5,1.1c-1.3,2-3.6,3.2-6,3
			c-4.2,0.2-7.7-3-7.9-7.2C474.7-12.6,474.7-12.8,474.7-13L474.7-13z"/>
		<path id="Caminho_6286" class="st3" d="M492.2-25.5c0-0.8,0.7-1.5,1.5-1.5c0,0,0,0,0,0c0.8,0,1.5,0.6,1.5,1.4c0,0,0,0,0,0
			c0,0.8-0.7,1.5-1.5,1.5S492.2-24.6,492.2-25.5z M492.7-20.6h2.1v15.3h-2.1V-20.6z"/>
		<path id="Caminho_6287" class="st3" d="M513.8-12.3H501c0.2,3.1,2.9,5.5,6,5.3c0,0,0,0,0,0c1.8,0.1,3.5-0.7,4.7-2l1.2,1.3
			c-1.5,1.7-3.7,2.6-5.9,2.5c-4.8,0-8-3.3-8-7.8s3.2-7.8,7.5-7.8s7.4,3.2,7.4,7.8C513.9-12.8,513.9-12.6,513.8-12.3L513.8-12.3z
			 M501-13.9h10.8c-0.2-3-2.8-5.3-5.8-5.1C503.4-18.8,501.2-16.6,501-13.9L501-13.9z"/>
		<path id="Caminho_6288" class="st3" d="M539.2-26.9v21.6h-2v-3c-1.2,2-3.5,3.3-5.9,3.2c-4.3-0.1-7.7-3.6-7.6-7.9
			c0.1-4.2,3.5-7.6,7.6-7.6c2.3-0.1,4.5,1.1,5.8,3v-9.2L539.2-26.9L539.2-26.9z M537.1-13c-0.1-3.1-2.8-5.6-6-5.4s-5.6,2.8-5.4,6
			c0.1,3,2.7,5.4,5.7,5.4C534.7-7,537.1-9.4,537.1-13L537.1-13z"/>
		<path id="Caminho_6289" class="st3" d="M558.2-12.3h-12.8c0.2,3.1,2.9,5.5,6,5.3c0,0,0,0,0,0c1.8,0.1,3.5-0.7,4.7-2l1.2,1.3
			c-1.5,1.7-3.7,2.6-5.9,2.5c-4.8,0-8-3.3-8-7.8s3.2-7.8,7.5-7.8s7.4,3.2,7.4,7.8C558.3-12.8,558.3-12.6,558.2-12.3L558.2-12.3z
			 M545.4-13.9h10.8c-0.2-3-2.8-5.3-5.8-5.1C547.8-18.8,545.6-16.6,545.4-13.9L545.4-13.9z"/>
		<path id="Caminho_6290" class="st3" d="M583.6-26.9v21.6h-2v-3c-1.2,2-3.5,3.3-5.9,3.2c-4.3-0.1-7.7-3.6-7.6-7.9
			c0.1-4.2,3.5-7.6,7.6-7.6c2.3-0.1,4.5,1.1,5.8,3v-9.2L583.6-26.9L583.6-26.9z M581.5-13c-0.1-3.1-2.8-5.6-6-5.4s-5.6,2.8-5.4,6
			c0.1,3,2.7,5.4,5.7,5.4C579.1-7,581.5-9.4,581.5-13L581.5-13z"/>
		<path id="Caminho_6291" class="st3" d="M587.8-13c0-4.3,3.5-7.8,7.8-7.8c4.3,0,7.8,3.5,7.8,7.8c0,4.3-3.5,7.8-7.8,7.8
			c-4.2,0.2-7.6-3.1-7.8-7.2C587.8-12.6,587.8-12.8,587.8-13z M601.3-13c-0.1-3.1-2.8-5.6-6-5.4s-5.6,2.8-5.4,6
			c0.1,3,2.7,5.4,5.7,5.4C598.9-7,601.3-9.4,601.3-13z"/>
		<path id="Caminho_6292" class="st3" d="M621.8-20.6v13.4c0,5.3-2.6,7.6-7.6,7.6c-2.6,0.1-5.1-0.7-7.1-2.4l1.1-1.6
			c1.7,1.4,3.8,2.1,6,2.1c3.9,0,5.6-1.8,5.6-5.6v-2c-1.3,2-3.6,3.1-6,3c-4,0.2-7.5-2.9-7.7-7c0-0.2,0-0.3,0-0.5
			c0-4.4,3.3-7.4,7.7-7.4c2.4-0.1,4.7,1.1,6.1,3.1v-2.9L621.8-20.6L621.8-20.6z M619.8-13.4c0.1-3.2-2.4-5.9-5.6-6
			c-3.2-0.1-5.9,2.4-6,5.6c-0.1,3.2,2.4,5.9,5.6,6c0.1,0,0.1,0,0.2,0c3,0.2,5.6-2.1,5.8-5.1C619.7-13,619.8-13.2,619.8-13.4
			L619.8-13.4z"/>
		<path id="Caminho_6293" class="st3" d="M652.8-14.2v8.9h-2.1V-14c0-3.2-1.6-4.9-4.4-4.9c-3.1,0-5.1,2-5.1,5.5v8h-2.1V-14
			c0-3.2-1.6-4.9-4.4-4.9c-3.1,0-5.1,2-5.1,5.5v8h-2.1v-15.3h2v2.8c1.2-1.9,3.3-3,5.6-2.9c2.3-0.2,4.5,1.1,5.5,3.2
			c1.3-2.1,3.6-3.4,6.1-3.2C650.4-20.7,652.8-18.6,652.8-14.2L652.8-14.2z"/>
		<path id="Caminho_6294" class="st3" d="M670-14.8v9.5h-2v-2.4c-0.9,1.6-2.7,2.5-5.3,2.5c-3.5,0-5.6-1.8-5.6-4.4
			c0-2.4,1.5-4.3,5.9-4.3h4.9v-0.9c0-2.6-1.5-4-4.3-4c-1.9,0-3.7,0.6-5.1,1.8l-0.9-1.5c1.8-1.4,4-2.1,6.2-2.1
			C667.8-20.7,670-18.7,670-14.8L670-14.8z M667.9-9.9v-2.5h-4.8c-3,0-3.9,1.2-3.9,2.7c0,1.8,1.4,2.9,3.9,2.9
			C665.2-6.7,667.2-7.9,667.9-9.9L667.9-9.9z"/>
		<path id="Caminho_6295" class="st3" d="M677.3-0.5l0.7-1.6c0.7,0.5,1.5,0.8,2.4,0.8c1.6,0,2.5-1,2.5-2.9v-16.5h2.1v16.5
			c0,2.8-1.6,4.7-4.5,4.7C679.4,0.5,678.2,0.2,677.3-0.5L677.3-0.5z M682.5-25.5c0-0.8,0.7-1.5,1.5-1.5c0,0,0,0,0,0
			c0.8,0,1.5,0.6,1.5,1.4c0,0,0,0,0,0c0,0.8-0.7,1.5-1.5,1.5C683.1-24,682.5-24.6,682.5-25.5L682.5-25.5z"/>
		<path id="Caminho_6296" class="st3" d="M704.5-20.6v15.3h-2v-2.8c-1.2,1.9-3.3,3-5.5,2.9c-3.9,0-6.5-2.2-6.5-6.6v-8.9h2.1v8.7
			c0,3.3,1.7,4.9,4.6,4.9c3.2,0,5.2-2.1,5.2-5.6v-8L704.5-20.6L704.5-20.6z"/>
		<path id="Caminho_6297" class="st3" d="M718-20.7v2c-0.2,0-0.3,0-0.5,0c-3.2,0-5.2,2-5.2,5.6v7.8h-2.1v-15.3h2v3
			C713.2-19.7,715.2-20.8,718-20.7L718-20.7z"/>
		<path id="Caminho_6298" class="st3" d="M724.9-26.6h2.8L723-23h-2L724.9-26.6z M721.8-20.6h2.1v15.3h-2.1V-20.6z"/>
		<path id="Caminho_6299" class="st3" d="M743.6-26.9v21.6h-2v-3c-1.2,2-3.5,3.3-5.9,3.2c-4.3-0.1-7.7-3.6-7.6-7.9
			c0.1-4.2,3.5-7.6,7.6-7.6c2.3-0.1,4.5,1.1,5.8,3v-9.2L743.6-26.9L743.6-26.9z M741.6-13c-0.1-3.1-2.8-5.6-6-5.4
			c-3.1,0.1-5.6,2.8-5.4,6c0.1,3,2.7,5.4,5.7,5.4C739.1-7,741.6-9.4,741.6-13z"/>
		<path id="Caminho_6300" class="st3" d="M748.9-25.5c0-0.8,0.7-1.5,1.5-1.5c0,0,0,0,0,0c0.8,0,1.5,0.6,1.5,1.4c0,0,0,0,0,0
			c0,0.8-0.7,1.5-1.5,1.5C749.6-23.9,748.9-24.6,748.9-25.5z M749.4-20.6h2.1v15.3h-2.1V-20.6z"/>
		<path id="Caminho_6301" class="st3" d="M755.6-13c-0.1-4.2,3.1-7.6,7.3-7.8c0.2,0,0.4,0,0.6,0c2.4-0.1,4.7,1,6,3l-1.5,1.1
			c-1-1.5-2.7-2.3-4.4-2.3c-3.3,0.1-5.9,2.8-5.8,6.1c0.1,3.2,2.6,5.7,5.8,5.8c1.8,0.1,3.5-0.8,4.4-2.2l1.5,1.1c-1.3,2-3.6,3.2-6,3
			c-4.2,0.2-7.7-3-7.9-7.2C755.6-12.6,755.6-12.8,755.6-13L755.6-13z"/>
		<path id="Caminho_6302" class="st3" d="M771.8-13c0-4.3,3.5-7.8,7.8-7.8c4.3,0,7.8,3.5,7.8,7.8c0,4.3-3.5,7.8-7.8,7.8
			c-4.2,0.2-7.6-3.1-7.8-7.2C771.8-12.6,771.8-12.8,771.8-13z M785.3-13c-0.1-3.1-2.8-5.6-6-5.4c-3.1,0.1-5.6,2.8-5.4,6
			c0.1,3,2.7,5.4,5.7,5.4C782.9-7,785.3-9.4,785.3-13z"/>
		<path id="Caminho_6303" class="st3" d="M799.5-20.5c0-2.1-1.7-3.5-4.7-3.5c-2.1-0.1-4.2,0.7-5.6,2.4l-1.5-1.2c1.6-1.9,4-3,7.2-3
			c4.1,0,6.7,2,6.7,5.1c0,5-5.3,5.2-5.3,9.4h-2.1C794.2-16.2,799.5-16.6,799.5-20.5L799.5-20.5z M793.7-6.7c0-0.8,0.6-1.5,1.5-1.5
			c0,0,0,0,0.1,0c0.8,0,1.5,0.7,1.5,1.5c0,0.8-0.7,1.5-1.5,1.5C794.4-5.2,793.7-5.9,793.7-6.7z"/>
	</g>
	<g id="Grupo_2443" transform="translate(179.487 305.48)">
		<path id="Caminho_6304" class="st3" d="M20.7-23.7h-7.2v-1.9H30v1.9h-7.2v18.5h-2.1V-23.7z"/>
		<path id="Caminho_6305" class="st3" d="M44.8-12.2H32c0.2,3.2,2.7,5.3,6,5.3c1.8,0.1,3.5-0.7,4.7-2l1.2,1.3
			C42.4-5.9,40.2-5,38-5.1c-4.8,0-8-3.3-8-7.8s3.2-7.8,7.5-7.8s7.4,3.2,7.4,7.8C44.9-12.7,44.8-12.5,44.8-12.2L44.8-12.2z M32-13.8
			h10.8c-0.2-3-2.8-5.3-5.8-5.1C34.3-18.7,32.1-16.5,32-13.8L32-13.8z"/>
		<path id="Caminho_6306" class="st3" d="M56.8-20.6v2c-0.2,0-0.3,0-0.5,0c-3.2,0-5.2,2-5.2,5.6v7.8H49v-15.3h2v3
			C52-19.6,53.9-20.7,56.8-20.6L56.8-20.6z"/>
		<path id="Caminho_6307" class="st3" d="M60-25.3c0-0.8,0.7-1.5,1.5-1.5c0,0,0,0,0,0c0.8,0,1.5,0.6,1.5,1.4c0,0,0,0,0,0
			c0,0.8-0.7,1.5-1.5,1.5C60.7-23.8,60-24.5,60-25.3C60-25.3,60-25.3,60-25.3z M60.5-20.5h2.1v15.3h-2.1L60.5-20.5z"/>
		<path id="Caminho_6308" class="st3" d="M79.9-14.7v9.5h-2v-2.4C77-6,75.2-5,72.6-5c-3.5,0-5.6-1.8-5.6-4.4c0-2.4,1.5-4.3,5.9-4.3
			h4.9v-0.9c0-2.6-1.5-4-4.3-4c-1.9,0-3.7,0.6-5.1,1.8l-0.9-1.5c1.8-1.4,4-2.1,6.2-2.1C77.6-20.6,79.9-18.6,79.9-14.7L79.9-14.7z
			 M77.8-9.8v-2.5H73c-3,0-3.9,1.2-3.9,2.7c0,1.8,1.4,2.9,3.9,2.9C75.1-6.5,77-7.8,77.8-9.8L77.8-9.8z"/>
		<path id="Caminho_6309" class="st3" d="M110.8-14.1v8.9h-2.1v-8.7c0-3.2-1.6-4.9-4.4-4.9c-3.1,0-5.1,2-5.1,5.5v8h-2.1v-8.7
			c0-3.2-1.6-4.9-4.4-4.9c-3.1,0-5.1,2-5.1,5.5v8h-2.1v-15.3h2v2.8c1.2-1.9,3.3-3,5.6-2.9c2.3-0.2,4.5,1.1,5.4,3.2
			c1.3-2.1,3.6-3.4,6.1-3.2C108.3-20.6,110.8-18.5,110.8-14.1L110.8-14.1z"/>
		<path id="Caminho_6310" class="st3" d="M138-26.8v21.6h-2v-3c-1.2,2-3.5,3.3-5.9,3.2c-4.3-0.1-7.7-3.6-7.6-7.9
			c0.1-4.2,3.5-7.6,7.6-7.6c2.3-0.1,4.5,1.1,5.8,3v-9.2L138-26.8L138-26.8z M135.9-12.9c-0.1-3.1-2.8-5.6-6-5.4s-5.6,2.8-5.4,6
			c0.1,3,2.7,5.4,5.7,5.4C133.5-6.9,135.9-9.3,135.9-12.9L135.9-12.9z"/>
		<path id="Caminho_6311" class="st3" d="M143.3-25.3c0-0.8,0.7-1.5,1.5-1.5c0,0,0,0,0,0c0.8,0,1.5,0.6,1.5,1.4c0,0,0,0,0,0
			c0,0.8-0.7,1.5-1.5,1.5C144-23.8,143.3-24.5,143.3-25.3C143.3-25.3,143.3-25.3,143.3-25.3z M143.7-20.5h2.1v15.3h-2.1V-20.5z"/>
		<path id="Caminho_6312" class="st3" d="M153.9-22.3v1.8h4.7v1.7H154v13.6h-2.1v-13.6h-2.7v-1.7h2.7v-1.9c-0.2-2.3,1.6-4.4,3.9-4.6
			c0.2,0,0.5,0,0.7,0c1.1,0,2.2,0.3,3.1,1l-0.7,1.5c-0.6-0.5-1.4-0.8-2.3-0.8C154.9-25.2,154-24.2,153.9-22.3L153.9-22.3z"/>
		<path id="Caminho_6313" class="st3" d="M174.5-12.2h-12.8c0.2,3.2,2.7,5.3,6,5.3c1.8,0.1,3.5-0.7,4.7-2l1.2,1.3
			c-1.5,1.7-3.7,2.6-5.9,2.5c-4.8,0-8-3.3-8-7.8s3.2-7.8,7.5-7.8s7.4,3.2,7.4,7.8C174.5-12.7,174.5-12.5,174.5-12.2L174.5-12.2z
			 M161.7-13.8h10.8c-0.2-3-2.8-5.3-5.8-5.1C164-18.7,161.8-16.5,161.7-13.8L161.7-13.8z"/>
		<path id="Caminho_6314" class="st3" d="M186.4-20.6v2c-0.2,0-0.3,0-0.5,0c-3.2,0-5.2,2-5.2,5.6v7.8h-2.1v-15.3h2v3
			C181.7-19.6,183.6-20.7,186.4-20.6L186.4-20.6z"/>
		<path id="Caminho_6315" class="st3" d="M203.4-12.2h-12.8c0.2,3.2,2.7,5.3,6,5.3c1.8,0.1,3.5-0.7,4.7-2l1.2,1.3
			c-1.5,1.7-3.7,2.6-5.9,2.5c-4.8,0-8-3.3-8-7.8s3.2-7.8,7.5-7.8s7.4,3.2,7.4,7.8C203.5-12.7,203.4-12.5,203.4-12.2L203.4-12.2z
			 M190.6-13.8h10.8c-0.2-3-2.8-5.3-5.8-5.1C192.9-18.7,190.8-16.5,190.6-13.8L190.6-13.8z"/>
		<path id="Caminho_6316" class="st3" d="M221.7-14.1v8.9h-2.1v-8.7c0-3.2-1.7-4.9-4.6-4.9c-3.3,0-5.3,2-5.3,5.5v8h-2.1v-15.3h2v2.8
			c1.3-2,3.5-3.1,5.8-2.9C219.2-20.6,221.8-18.5,221.7-14.1L221.7-14.1z"/>
		<path id="Caminho_6317" class="st3" d="M225.9-12.9c-0.1-4.2,3.1-7.6,7.3-7.8c0.2,0,0.4,0,0.6,0c2.4-0.1,4.7,1,6,3l-1.5,1.1
			c-1-1.5-2.7-2.3-4.4-2.3c-3.3,0.1-5.9,2.8-5.8,6.1c0.1,3.2,2.6,5.7,5.8,5.8c1.8,0.1,3.5-0.8,4.4-2.2l1.5,1.1c-1.3,2-3.6,3.2-6,3
			c-4.2,0.2-7.7-3-7.9-7.2C225.9-12.5,225.9-12.7,225.9-12.9L225.9-12.9z"/>
		<path id="Caminho_6318" class="st3" d="M243.3-25.3c0-0.8,0.7-1.5,1.5-1.5c0,0,0,0,0,0c0.8,0,1.5,0.6,1.5,1.4c0,0,0,0,0,0
			c0,0.8-0.7,1.5-1.5,1.5C244-23.8,243.3-24.5,243.3-25.3L243.3-25.3L243.3-25.3z M243.8-20.5h2.1v15.3h-2.1L243.8-20.5z"/>
		<path id="Caminho_6319" class="st3" d="M263.2-14.7v9.5h-2v-2.4C260.3-6,258.5-5,255.9-5c-3.5,0-5.6-1.8-5.6-4.4
			c0-2.4,1.5-4.3,5.9-4.3h4.9v-0.9c0-2.6-1.5-4-4.3-4c-1.9,0-3.7,0.6-5.1,1.8l-0.9-1.5c1.8-1.4,4-2.1,6.2-2.1
			C260.9-20.6,263.1-18.6,263.2-14.7L263.2-14.7z M261.1-9.8v-2.5h-4.8c-3,0-3.9,1.2-3.9,2.7c0,1.8,1.4,2.9,3.9,2.9
			C258.3-6.5,260.3-7.8,261.1-9.8L261.1-9.8z"/>
		<path id="Caminho_6320" class="st3" d="M279.6-9.1l1.5,1.1c-1.3,2-3.6,3.2-6,3h-0.1l-0.3,1.4c1.3-0.1,2.4,1,2.5,2.3c0,0,0,0,0,0.1
			c0,1.6-1.3,2.5-3.3,2.5c-0.9,0-1.7-0.2-2.4-0.7l0.5-1.1c0.6,0.4,1.2,0.6,1.9,0.6c1.2,0,1.8-0.5,1.8-1.4c0-0.8-0.6-1.3-1.8-1.3
			h-0.7l0.6-2.4c-4.3-0.7-7.1-4.7-6.5-8.9c0.6-3.8,3.9-6.6,7.7-6.6c2.4-0.1,4.7,1,6,3l-1.5,1.1c-1-1.5-2.7-2.3-4.4-2.3
			c-3.3,0.1-5.9,2.8-5.8,6.1c0.1,3.2,2.6,5.7,5.8,5.8C277-6.8,278.7-7.7,279.6-9.1L279.6-9.1z"/>
		<path id="Caminho_6321" class="st3" d="M283.4-12.9c0-4.3,3.5-7.8,7.8-7.8c4.3,0,7.8,3.5,7.8,7.8c0,4.3-3.5,7.8-7.8,7.8
			c-4.2,0.2-7.6-3.1-7.8-7.2C283.4-12.5,283.4-12.7,283.4-12.9z M296.9-12.9c-0.1-3.1-2.8-5.6-6-5.4c-3.1,0.1-5.6,2.8-5.4,6
			c0.1,3,2.7,5.4,5.7,5.4C294.5-6.9,296.9-9.3,296.9-12.9z M289.4-25c-0.9,0-1.5,0.7-1.5,1.9h-1.2c0.1-2,1.1-3.2,2.6-3.2
			c1.8,0,2.7,2,3.8,2c0.9,0,1.5-0.7,1.5-1.8h1.2c-0.1,1.9-1.1,3.1-2.6,3.1C291.4-23,290.5-25,289.4-25L289.4-25z"/>
		<path id="Caminho_6322" class="st3" d="M316.5-12.2h-12.8c0.2,3.2,2.7,5.3,6,5.3c1.8,0.1,3.5-0.7,4.7-2l1.2,1.3
			c-1.5,1.7-3.7,2.6-5.9,2.5c-4.8,0-8-3.3-8-7.8s3.2-7.8,7.5-7.8c4.3,0,7.4,3.2,7.4,7.8C316.6-12.7,316.6-12.5,316.5-12.2
			L316.5-12.2z M303.7-13.8h10.8c-0.2-3-2.8-5.3-5.8-5.1C306.1-18.7,303.9-16.5,303.7-13.8L303.7-13.8z"/>
		<path id="Caminho_6323" class="st3" d="M318.7-7l0.9-1.6c1.6,1.1,3.5,1.7,5.5,1.7c2.9,0,4.1-1,4.1-2.5c0-4-9.9-0.8-9.9-6.9
			c0-2.5,2.1-4.4,6.1-4.4c1.9,0,3.8,0.5,5.4,1.4l-0.9,1.7c-1.3-0.9-2.9-1.4-4.5-1.3c-2.8,0-4,1.1-4,2.5c0,4.1,9.9,1,9.9,6.9
			c0,2.6-2.3,4.4-6.3,4.4C322.7-5,320.5-5.7,318.7-7z"/>
		<path id="Caminho_6324" class="st3" d="M341.1-12.9c0-4.3,3.5-7.8,7.8-7.8c4.3,0,7.8,3.5,7.8,7.8c0,4.3-3.5,7.8-7.8,7.8
			c-4.2,0.2-7.6-3.1-7.8-7.2C341.1-12.5,341.1-12.7,341.1-12.9z M354.6-12.9c-0.1-3.1-2.8-5.6-6-5.4s-5.6,2.8-5.4,6
			c0.1,3,2.7,5.4,5.7,5.4C352.2-6.9,354.6-9.3,354.6-12.9z"/>
		<path id="Caminho_6325" class="st3" d="M374.7-20.5v15.3h-2V-8c-1.2,1.9-3.3,3-5.5,2.9c-3.9,0-6.5-2.2-6.5-6.6v-8.9h2.1v8.7
			c0,3.3,1.7,4.9,4.6,4.9c3.2,0,5.2-2.1,5.2-5.6v-8L374.7-20.5L374.7-20.5z"/>
		<path id="Caminho_6326" class="st3" d="M386-7l0.9-1.6c1.6,1.1,3.5,1.7,5.4,1.7c2.9,0,4.1-1,4.1-2.5c0-4-9.9-0.8-9.9-6.9
			c0-2.5,2.1-4.4,6.1-4.4c1.9,0,3.8,0.5,5.4,1.4l-0.9,1.7c-1.3-0.9-2.9-1.4-4.5-1.3c-2.8,0-4,1.1-4,2.5c0,4.1,9.9,1,9.9,6.9
			c0,2.6-2.3,4.4-6.3,4.4C390-5,387.8-5.7,386-7z"/>
		<path id="Caminho_6327" class="st3" d="M415.7-12.2h-12.8c0.2,3.2,2.7,5.3,6,5.3c1.8,0.1,3.5-0.7,4.7-2l1.2,1.3
			c-1.5,1.7-3.7,2.6-5.9,2.5c-4.8,0-8-3.3-8-7.8s3.2-7.8,7.5-7.8c4.3,0,7.4,3.2,7.4,7.8C415.7-12.7,415.7-12.5,415.7-12.2
			L415.7-12.2z M402.9-13.8h10.8c-0.2-3-2.8-5.3-5.8-5.1C405.2-18.7,403-16.5,402.9-13.8L402.9-13.8z"/>
		<path id="Caminho_6328" class="st3" d="M427.6-20.6v2c-0.2,0-0.3,0-0.5,0c-3.2,0-5.2,2-5.2,5.6v7.8h-2.1v-15.3h2v3
			C422.8-19.6,424.8-20.7,427.6-20.6L427.6-20.6z"/>
		<path id="Caminho_6329" class="st3" d="M430.9-25.3c0-0.8,0.7-1.5,1.5-1.5c0,0,0,0,0,0c0.8,0,1.5,0.6,1.5,1.4c0,0,0,0,0,0
			c0,0.8-0.7,1.5-1.5,1.5S430.9-24.5,430.9-25.3L430.9-25.3L430.9-25.3z M431.4-20.5h2.1v15.3h-2.1V-20.5z"/>
		<path id="Caminho_6330" class="st3" d="M450.7-14.7v9.5h-2v-2.4C447.8-6,446-5,443.5-5c-3.5,0-5.6-1.8-5.6-4.4
			c0-2.4,1.5-4.3,5.9-4.3h4.9v-0.9c0-2.6-1.5-4-4.3-4c-1.9,0-3.7,0.6-5.1,1.8l-0.9-1.5c1.8-1.4,4-2.1,6.2-2.1
			C448.5-20.6,450.7-18.6,450.7-14.7L450.7-14.7z M448.7-9.8v-2.5h-4.8c-3,0-3.9,1.2-3.9,2.7c0,1.8,1.4,2.9,3.9,2.9
			C445.9-6.5,447.9-7.8,448.7-9.8L448.7-9.8z"/>
		<path id="Caminho_6331" class="st3" d="M481.6-14.1v8.9h-2.1v-8.7c0-3.2-1.6-4.9-4.4-4.9c-3.1,0-5.1,2-5.1,5.5v8H468v-8.7
			c0-3.2-1.6-4.9-4.4-4.9c-3.1,0-5.1,2-5.1,5.5v8h-2.1v-15.3h2v2.8c1.2-1.9,3.3-3,5.6-2.9c2.3-0.2,4.5,1.1,5.5,3.2
			c1.3-2.1,3.6-3.4,6.1-3.2C479.2-20.6,481.6-18.5,481.6-14.1L481.6-14.1z"/>
		<path id="Caminho_6332" class="st3" d="M492.7-7l0.9-1.6c1.6,1.1,3.5,1.7,5.5,1.7c2.9,0,4.1-1,4.1-2.5c0-4-9.9-0.8-9.9-6.9
			c0-2.5,2.1-4.4,6.1-4.4c1.9,0,3.8,0.5,5.4,1.4l-0.9,1.7c-1.3-0.9-2.9-1.4-4.5-1.3c-2.8,0-4,1.1-4,2.5c0,4.1,9.9,1,9.9,6.9
			c0,2.6-2.3,4.4-6.3,4.4C496.7-5,494.5-5.7,492.7-7L492.7-7z"/>
		<path id="Caminho_6333" class="st3" d="M522.4-12.2h-12.8c0.2,3.2,2.7,5.3,6,5.3c1.8,0.1,3.5-0.7,4.7-2l1.2,1.3
			c-1.5,1.7-3.7,2.6-5.9,2.5c-4.8,0-8-3.3-8-7.8s3.2-7.8,7.5-7.8s7.4,3.2,7.4,7.8C522.5-12.7,522.4-12.5,522.4-12.2L522.4-12.2z
			 M509.6-13.8h10.8c-0.2-3-2.8-5.3-5.8-5.1C511.9-18.7,509.8-16.5,509.6-13.8L509.6-13.8z"/>
		<path id="Caminho_6334" class="st3" d="M551.9-14.1v8.9h-2.1v-8.7c0-3.2-1.6-4.9-4.4-4.9c-3.1,0-5.1,2-5.1,5.5v8h-2.1v-8.7
			c0-3.2-1.6-4.9-4.4-4.9c-3.1,0-5.1,2-5.1,5.5v8h-2.1v-15.3h2v2.8c1.2-1.9,3.3-3,5.6-2.9c2.6,0,4.5,1.1,5.5,3.2
			c1.3-2.1,3.6-3.4,6.1-3.2C549.5-20.6,551.9-18.5,551.9-14.1L551.9-14.1z"/>
		<path id="Caminho_6335" class="st3" d="M570.9-12.2h-12.8c0.2,3.2,2.7,5.3,6,5.3c1.8,0.1,3.5-0.7,4.7-2l1.2,1.3
			c-1.5,1.7-3.7,2.6-5.9,2.5c-4.8,0-8-3.3-8-7.8s3.2-7.8,7.5-7.8s7.4,3.2,7.4,7.8C571-12.7,570.9-12.5,570.9-12.2L570.9-12.2z
			 M558.1-13.8H569c-0.2-3-2.8-5.3-5.8-5.1C560.4-18.7,558.3-16.5,558.1-13.8L558.1-13.8z"/>
		<path id="Caminho_6336" class="st3" d="M575.2-26.8h2.1v21.6h-2.1V-26.8z"/>
		<path id="Caminho_6337" class="st3" d="M597.1-14.1v8.9H595v-8.7c0-3.2-1.7-4.9-4.6-4.9c-3.3,0-5.3,2-5.3,5.5v8H583v-21.6h2.1v9
			c1.3-1.9,3.5-2.9,5.7-2.8C594.5-20.6,597.1-18.5,597.1-14.1L597.1-14.1z"/>
		<path id="Caminho_6338" class="st3" d="M614.2-14.7v9.5h-2v-2.4C611.3-6,609.5-5,607-5c-3.5,0-5.6-1.8-5.6-4.4
			c0-2.4,1.5-4.3,5.9-4.3h4.9v-0.9c0-2.6-1.5-4-4.3-4c-1.9,0-3.7,0.6-5.1,1.8l-0.9-1.5c1.8-1.4,4-2.1,6.2-2.1
			C612-20.6,614.2-18.6,614.2-14.7L614.2-14.7z M612.2-9.8v-2.5h-4.8c-3,0-3.9,1.2-3.9,2.7c0,1.8,1.4,2.9,3.9,2.9
			C609.4-6.5,611.4-7.8,612.2-9.8L612.2-9.8z"/>
		<path id="Caminho_6339" class="st3" d="M634-14.1v8.9h-2.1v-8.7c0-3.2-1.7-4.9-4.6-4.9c-3.3,0-5.3,2-5.3,5.5v8h-2.1v-15.3h2v2.8
			c1.3-2,3.5-3.1,5.8-2.9C631.4-20.6,634-18.5,634-14.1L634-14.1z"/>
		<path id="Caminho_6340" class="st3" d="M647.6-6.1c-0.9,0.7-2.1,1.1-3.2,1.1c-2.9,0-4.5-1.6-4.5-4.4v-9.3h-2.7v-1.7h2.7v-3.3h2.1
			v3.3h4.7v1.7H642v9.2c0,1.8,0.9,2.8,2.6,2.8c0.8,0,1.6-0.3,2.3-0.8L647.6-6.1L647.6-6.1z"/>
		<path id="Caminho_6341" class="st3" d="M664.2-12.2h-12.8c0.2,3.2,2.7,5.3,6,5.3c1.8,0.1,3.5-0.7,4.7-2l1.2,1.3
			c-1.5,1.7-3.7,2.6-5.9,2.5c-4.8,0-8-3.3-8-7.8s3.2-7.8,7.5-7.8s7.4,3.2,7.4,7.8C664.2-12.7,664.2-12.5,664.2-12.2L664.2-12.2z
			 M651.4-13.8h10.8c-0.2-3-2.8-5.3-5.8-5.1C653.7-18.7,651.5-16.5,651.4-13.8L651.4-13.8z"/>
		<path id="Caminho_6342" class="st3" d="M666.3-7l0.9-1.6c1.6,1.1,3.5,1.7,5.5,1.7c2.9,0,4.1-1,4.1-2.5c0-4-9.9-0.8-9.9-6.9
			c0-2.5,2.1-4.4,6.1-4.4c1.9,0,3.8,0.5,5.4,1.4l-0.9,1.7c-1.3-0.9-2.9-1.4-4.5-1.3c-2.8,0-4,1.1-4,2.5c0,4.1,9.9,1,9.9,6.9
			c0,2.6-2.3,4.4-6.3,4.4C670.3-5,668.1-5.7,666.3-7L666.3-7z"/>
		<path id="Caminho_6343" class="st3" d="M691.4-20.4c0-2.1-1.7-3.5-4.7-3.5c-2.1-0.1-4.2,0.7-5.6,2.4l-1.5-1.2c1.6-1.9,4-3,7.2-3
			c4.1,0,6.7,2,6.7,5.1c0,5-5.3,5.2-5.3,9.4h-2.1C686.1-16.1,691.4-16.5,691.4-20.4L691.4-20.4z M685.6-6.6c0-0.8,0.6-1.5,1.5-1.5
			c0,0,0,0,0.1,0c0.8,0,1.5,0.7,1.5,1.5c0,0.8-0.7,1.5-1.5,1.5C686.3-5.1,685.6-5.8,685.6-6.6z"/>
	</g>
	<path id="Caminho_6344" class="st4" d="M143.2,55.5v65.1l-56.4,32.6l-56.4-32.6V55.5L86.8,23L143.2,55.5z"/>
	<path id="Caminho_6345" class="st5" d="M35.2,117.9V58.3l51.5-29.7l51.5,29.7v59.5l-51.5,29.8L35.2,117.9z M86.7,17.3L25.4,52.7
		v70.8l61.4,35.4l61.3-35.4V52.7L86.7,17.3z"/>
	
		<rect id="Ret창ngulo_296" x="82.9" y="127.6" transform="matrix(0.8662 -0.4997 0.4997 0.8662 -49.6932 71.6265)" class="st5" width="52" height="2"/>
	
		<rect id="Ret창ngulo_297" x="37.8" y="49.6" transform="matrix(0.8662 -0.4997 0.4997 0.8662 -16.7186 38.6654)" class="st5" width="52" height="2"/>
	<path id="Caminho_6346" class="st5" d="M156.9,100.5v-3l-1.6-0.9V49.2l-40.9-23.6v-2.2l-2.6-1.5l-2.6,1.5v3l2.6,1.5l1.9-1.1
		l40.2,23.2v46.1l-2.2,1.3v3l2.6,1.5L156.9,100.5z"/>
	<path id="Caminho_6347" class="st5" d="M16,74.8v3l1.6,0.9v47.3l40.9,23.6v2.2l2.6,1.5l2.6-1.5v-3l-2.6-1.5l-1.9,1.1l-40.2-23.2
		V79.1l2.2-1.3v-3l-2.6-1.5L16,74.8z"/>
	<g>
		<defs>
			<rect id="SVGID_00000022523969762169130480000004037757393683910580_" x="16" y="17.3" width="1118.2" height="437"/>
		</defs>
		<clipPath id="SVGID_00000073698719803106886710000003008802802353881779_">
			<use xlink:href="#SVGID_00000022523969762169130480000004037757393683910580_"  style="overflow:visible;"/>
		</clipPath>
		
			<g id="Grupo_2444" transform="translate(15.96 17.29)" style="clip-path:url(#SVGID_00000073698719803106886710000003008802802353881779_);">
			<path id="Caminho_6348" class="st7" d="M79.2,104.2c0.6-0.1,1-0.6,1.1-1.2c0.3-2.2-0.4-7.7-0.1-9.9c0.4-3.3,2.7-4.6,4.4-7.3
				c2.4-3.9,4.9-7.8,5.7-12.5c1.5-9-2.8-20.6-13.4-24.9c-1.1-0.5-2.2-0.9-3.4-1.2c-6.8-1.8-14.1-0.3-19.8,3.9
				c-2.8,2.1-5,4.8-6.6,7.9c-1,1.9-1.7,4.1-2,6.2c-0.1,2.2-0.5,4.4-1.1,6.6c-1,2-2,4-3.2,5.9c-1.1,2.2,0.5,3.1,2.4,3.9
				c2.4,1,1.5,3.4,1.3,5.7c-0.5,6.3,1.1,7.9,7.4,8.2c3.6,0.2,3.6,3,3.6,6.6c-0.1,0.6,0,1.3,0.1,1.9c0.1,0.2,0.2,0.3,0.3,0.5
				c0.1,0.2,0.2,0.3,0.4,0.4c0.1,0.1,0.1,0.1,0.1,0.2l0-0.1c0.8,0.5,2,0.3,2.9,0.4c1.6,0.1,3.2,0.1,4.9,0.1c3.2,0.1,6.4,0,9.6-0.3
				C75.6,105.2,77.5,104.8,79.2,104.2"/>
		</g>
	</g>
	<g>
		<defs>
			<rect id="SVGID_00000167389788664420558760000000416170177349796251_" x="16" y="17.3" width="1118.2" height="437"/>
		</defs>
		<clipPath id="SVGID_00000106106805041747319690000013893845058704547476_">
			<use xlink:href="#SVGID_00000167389788664420558760000000416170177349796251_"  style="overflow:visible;"/>
		</clipPath>
		
			<g id="Grupo_2445" transform="translate(15.96 17.29)" style="clip-path:url(#SVGID_00000106106805041747319690000013893845058704547476_);">
			<path id="Caminho_6349" class="st7" d="M94.4,46v2.2c0,0.4,0.2,0.7,0.6,0.8c0,0,0.1,0,0.1,0c0.5,0,0.7-0.3,0.8-0.8v-2.2h2.3
				c0.4,0,0.8-0.3,0.8-0.8s-0.3-0.8-0.8-0.8c0,0,0,0,0,0H96v-2.2c0.1-0.4-0.2-0.7-0.6-0.8c-0.1,0-0.1,0-0.2,0
				c-0.5,0-0.7,0.3-0.8,0.8v2.2h-2.3c-0.4,0-0.8,0.3-0.8,0.8s0.3,0.8,0.8,0.8c0,0,0,0,0,0L94.4,46"/>
		</g>
	</g>
	<g>
		<defs>
			<rect id="SVGID_00000067915733453949416520000010794757690555305865_" x="16" y="17.3" width="1118.2" height="437"/>
		</defs>
		<clipPath id="SVGID_00000094604296740014205230000007624391052719588492_">
			<use xlink:href="#SVGID_00000067915733453949416520000010794757690555305865_"  style="overflow:visible;"/>
		</clipPath>
		
			<g id="Grupo_2446" transform="translate(15.96 17.29)" style="clip-path:url(#SVGID_00000094604296740014205230000007624391052719588492_);">
			<path id="Caminho_6350" class="st7" d="M86.8,40.1v1.2c0,0.2,0.1,0.4,0.3,0.4c0,0,0.1,0,0.1,0c0.3,0,0.4-0.2,0.4-0.5v-1.2h1.2
				c0.2,0,0.4-0.1,0.4-0.3c0,0,0,0,0-0.1c0-0.2-0.1-0.4-0.4-0.4c0,0,0,0-0.1,0h-1.2V38c0-0.2-0.1-0.4-0.3-0.4c0,0-0.1,0-0.1,0
				c-0.3,0-0.4,0.2-0.4,0.5v1.2h-1.2c-0.2,0-0.4,0.1-0.4,0.3c0,0,0,0,0,0.1c0,0.2,0.1,0.4,0.4,0.4c0,0,0,0,0.1,0L86.8,40.1"/>
		</g>
	</g>
	<g>
		<defs>
			<rect id="SVGID_00000073679135621710046960000006381496262563583660_" x="16" y="17.3" width="1118.2" height="437"/>
		</defs>
		<clipPath id="SVGID_00000107549318070051978940000016491183757329426309_">
			<use xlink:href="#SVGID_00000073679135621710046960000006381496262563583660_"  style="overflow:visible;"/>
		</clipPath>
		
			<g id="Grupo_2447" transform="translate(15.96 17.29)" style="clip-path:url(#SVGID_00000107549318070051978940000016491183757329426309_);">
			<path id="Caminho_6351" class="st4" d="M79.3,73.2c-2.8,0-5.3-1.6-6.6-4c-0.6-1.1-1-2.4-0.9-3.7v-3c-2.3-1.7-4-4.2-4.7-7
				c-1-4.1,0.1-8.4,2.8-11.5c2-2.3,4.8-3.8,7.8-4.1c0.5-0.1,1.1-0.1,1.6-0.1c7,0,12.7,5.7,12.6,12.7c0,4-1.9,7.7-5.1,10.1v2.8
				c0,3.1-1.7,5.9-4.5,7.2C81.5,72.9,80.5,73.2,79.3,73.2"/>
		</g>
	</g>
	<g>
		<defs>
			<rect id="SVGID_00000072254646555332146810000011770582935166709647_" x="16" y="17.3" width="1118.2" height="437"/>
		</defs>
		<clipPath id="SVGID_00000118386842626315738230000018151318445480707234_">
			<use xlink:href="#SVGID_00000072254646555332146810000011770582935166709647_"  style="overflow:visible;"/>
		</clipPath>
		
			<g id="Grupo_2448" transform="translate(15.96 17.29)" style="clip-path:url(#SVGID_00000118386842626315738230000018151318445480707234_);">
			<path id="Caminho_6352" class="st7" d="M89.1,46.7c3,5.1,1.5,11.6-3.4,14.9c-0.1,0.1-0.2,0.2-0.2,0.4v3.3c0,2.5-1.4,4.8-3.7,5.8
				c-2.9,1.3-6.3,0.1-7.8-2.7c-0.5-0.9-0.8-2-0.8-3v-3.5c0-0.1-0.1-0.3-0.2-0.4c-2.3-1.5-3.9-3.8-4.5-6.5c-0.9-3.6,0.1-7.4,2.5-10.2
				c1.8-2,4.2-3.3,6.9-3.7C82.4,40.7,86.8,42.8,89.1,46.7"/>
		</g>
	</g>
	<g>
		<defs>
			<rect id="SVGID_00000116230702497017849560000000456449304411452050_" x="16" y="17.3" width="1118.2" height="437"/>
		</defs>
		<clipPath id="SVGID_00000158738643411251172500000011956553573435998082_">
			<use xlink:href="#SVGID_00000116230702497017849560000000456449304411452050_"  style="overflow:visible;"/>
		</clipPath>
		
			<g id="Grupo_2449" transform="translate(15.96 17.29)" style="clip-path:url(#SVGID_00000158738643411251172500000011956553573435998082_);">
			<path id="Caminho_6353" class="st7" d="M84.6,59.9c4.1-2.9,5.2-8.5,2.3-12.7c-2.9-4.1-8.5-5.2-12.7-2.3s-5.2,8.5-2.3,12.7
				c0.7,1,1.5,1.8,2.5,2.5c0.6,0.4,0.9,1,0.9,1.7v1h8.1V62C83.4,61.2,83.9,60.4,84.6,59.9"/>
		</g>
	</g>
	<g>
		<defs>
			<rect id="SVGID_00000139289819298208226810000005713561281058399890_" x="16" y="17.3" width="1118.2" height="437"/>
		</defs>
		<clipPath id="SVGID_00000173149358576343738020000010348014902001446817_">
			<use xlink:href="#SVGID_00000139289819298208226810000005713561281058399890_"  style="overflow:visible;"/>
		</clipPath>
		
			<g id="Grupo_2450" transform="translate(15.96 17.29)" style="clip-path:url(#SVGID_00000173149358576343738020000010348014902001446817_);">
			<path id="Caminho_6354" class="st4" d="M88.3,50.2c0.9,3.7-0.6,7.6-3.7,9.7c-0.7,0.5-1.1,1.3-1.1,2.1v0.8h-8.1v-1
				c0-0.7-0.3-1.4-0.9-1.7c-4.2-2.7-5.4-8.4-2.7-12.6c2.7-4.2,8.4-5.4,12.6-2.7C86.3,45.9,87.7,47.9,88.3,50.2"/>
		</g>
	</g>
</g>
</svg>
