<?xml version="1.0" encoding="UTF-8"?>
<svg id="Layer_1" data-name="Layer 1" xmlns="http://www.w3.org/2000/svg" viewBox="0 0 1288 502.67">
  <defs>
    <style>
      .cls-1 {
        fill-rule: evenodd;
      }

      .cls-1, .cls-2 {
        fill: #0a697d;
      }

      .cls-3 {
        fill: #fd194d;
      }

      .cls-4 {
        fill: #fff;
      }

      .cls-5 {
        fill: #f2ecd2;
      }

      .cls-6 {
        fill: #066046;
      }

      .cls-7 {
        stroke-width: 10px;
      }

      .cls-7, .cls-8 {
        fill: none;
        stroke: #0a697d;
        stroke-miterlimit: 10;
      }

      .cls-9 {
        fill: #ffbe31;
      }

      .cls-8 {
        stroke-width: 2px;
      }

      .cls-10 {
        fill: #333;
      }

      .cls-11 {
        fill: #e8e8e8;
      }

      .cls-12 {
        fill: #606060;
      }

      .cls-13 {
        fill: #098868;
      }

      .cls-14 {
        fill: #fea702;
      }
    </style>
  </defs>
  <rect class="cls-11" x="58.83" y="116.31" width="514.28" height="345.7" rx="11.31" ry="11.31"/>
  <rect class="cls-11" x="720.21" y="116.29" width="514.28" height="345.7" rx="11.31" ry="11.31"/>
  <g>
    <rect class="cls-4" x="53.51" y="110.91" width="514.28" height="345.7" rx="11.31" ry="11.31"/>
    <path class="cls-14" d="m541,444.27H80.3c-7.97,0-14.46-6.48-14.46-14.46v-192.72h2v192.72c0,6.87,5.59,12.46,12.46,12.46h460.7c6.87,0,12.46-5.59,12.46-12.46V137.7c0-6.87-5.59-12.46-12.46-12.46H213.56v-2h327.45c7.97,0,14.46,6.48,14.46,14.46v292.12c0,7.97-6.48,14.46-14.46,14.46h-.01Z"/>
    <path class="cls-14" d="m541,448.27h-80.13v-10h80.13c4.66,0,8.46-3.79,8.46-8.46v-115.86h10v115.86c0,10.18-8.28,18.46-18.46,18.46h0Z"/>
    <path class="cls-14" d="m80.02,124.07h113.09v95.04h-126.17v-81.96c0-7.22,5.86-13.08,13.08-13.08Z"/>
    <polygon class="cls-14" points="130.02 245.81 98.54 205.58 161.49 205.58 130.02 245.81"/>
    <g>
      <path class="cls-4" d="m105.15,174.07c0-11.61,6.43-18.2,15.08-18.2s15.08,6.58,15.08,18.19-6.38,18.2-15.08,18.2-15.08-6.58-15.08-18.19Zm21.96,0c0-7.99-2.81-11.31-6.89-11.31s-6.84,3.32-6.84,11.31,2.82,11.31,6.84,11.31,6.89-3.32,6.88-11.31h0Z"/>
      <path class="cls-4" d="m152.54,156.48v35.18h-8.14v-28.65h-7.04v-6.53h15.18Z"/>
    </g>
  </g>
  <g>
    <path class="cls-12" d="m176.83,325.24v-10.19h4.21v10.04c0,3.46,1.51,4.89,4.06,4.89s4.06-1.43,4.06-4.89v-10.04h4.16v10.19c0,5.36-3.07,8.32-8.24,8.32s-8.24-2.96-8.24-8.32h0Z"/>
    <path class="cls-12" d="m211.49,325.24v8.01h-4.06v-7.38c0-2.26-1.04-3.3-2.83-3.3-1.95,0-3.35,1.2-3.35,3.77v6.92h-4.06v-13.99h3.87v1.64c1.09-1.2,2.73-1.85,4.63-1.85,3.3,0,5.8,1.92,5.8,6.19h0Z"/>
    <path class="cls-12" d="m214.66,315.05c0-1.27,1.01-2.26,2.52-2.26s2.52.94,2.52,2.18c0,1.35-1.01,2.34-2.52,2.34s-2.52-.99-2.52-2.26h0Zm.49,4.21h4.06v13.99h-4.06v-13.99Z"/>
    <path class="cls-12" d="m237.23,313.95v19.29h-3.87v-1.61c-1.01,1.22-2.5,1.82-4.37,1.82-3.95,0-6.99-2.81-6.99-7.2s3.04-7.2,6.99-7.2c1.72,0,3.17.55,4.19,1.69v-6.79h4.06-.01Zm-3.98,12.3c0-2.42-1.56-3.87-3.56-3.87s-3.59,1.46-3.59,3.87,1.56,3.87,3.59,3.87,3.56-1.46,3.56-3.87Z"/>
    <path class="cls-12" d="m253.35,325.26v7.98h-3.8v-1.74c-.75,1.27-2.21,1.95-4.26,1.95-3.28,0-5.23-1.82-5.23-4.24s1.74-4.19,6.01-4.19h3.22c0-1.74-1.04-2.76-3.22-2.76-1.48,0-3.02.49-4.03,1.3l-1.46-2.83c1.53-1.09,3.8-1.69,6.03-1.69,4.26,0,6.73,1.98,6.73,6.21h.01Zm-4.06,3.57v-1.43h-2.78c-1.9,0-2.5.7-2.5,1.64,0,1.01.86,1.69,2.29,1.69,1.35,0,2.52-.62,2.99-1.9h0Z"/>
    <path class="cls-12" d="m271.42,313.95v19.29h-3.87v-1.61c-1.01,1.22-2.5,1.82-4.37,1.82-3.95,0-6.99-2.81-6.99-7.2s3.04-7.2,6.99-7.2c1.72,0,3.17.55,4.19,1.69v-6.79h4.06-.01Zm-3.98,12.3c0-2.42-1.56-3.87-3.56-3.87s-3.59,1.46-3.59,3.87,1.56,3.87,3.59,3.87,3.56-1.46,3.56-3.87Z"/>
    <path class="cls-12" d="m288.79,327.4h-10.58c.39,1.74,1.87,2.81,4,2.81,1.48,0,2.55-.44,3.51-1.35l2.16,2.34c-1.3,1.48-3.25,2.26-5.77,2.26-4.84,0-7.98-3.04-7.98-7.2s3.2-7.2,7.46-7.2,7.28,2.76,7.28,7.25c0,.31-.05.75-.08,1.09h0Zm-10.63-2.37h6.89c-.29-1.77-1.61-2.91-3.43-2.91s-3.17,1.12-3.46,2.91h0Z"/>
    <path class="cls-12" d="m313.23,325.24v8.01h-4.06v-7.38c0-2.26-1.04-3.3-2.83-3.3-1.95,0-3.35,1.2-3.35,3.77v6.92h-4.06v-13.99h3.87v1.64c1.09-1.2,2.73-1.85,4.63-1.85,3.3,0,5.8,1.92,5.8,6.19h0Z"/>
    <path class="cls-12" d="m316.01,326.25c0-4.21,3.25-7.2,7.7-7.2s7.67,2.99,7.67,7.2-3.22,7.2-7.67,7.2-7.7-2.99-7.7-7.2Zm11.26,0c0-2.42-1.53-3.87-3.56-3.87s-3.59,1.46-3.59,3.87,1.56,3.87,3.59,3.87,3.56-1.46,3.56-3.87Z"/>
    <path class="cls-12" d="m342.76,319.05v3.74c-.34-.03-.6-.05-.91-.05-2.24,0-3.72,1.22-3.72,3.9v6.6h-4.06v-13.99h3.87v1.85c.99-1.35,2.65-2.05,4.81-2.05h.01Z"/>
    <path class="cls-12" d="m368.82,325.24v8.01h-4.06v-7.38c0-2.26-1.01-3.3-2.65-3.3-1.82,0-3.09,1.17-3.09,3.67v7.02h-4.06v-7.38c0-2.26-.96-3.3-2.65-3.3-1.79,0-3.07,1.17-3.07,3.67v7.02h-4.06v-13.99h3.87v1.61c1.04-1.2,2.6-1.82,4.39-1.82,1.95,0,3.61.75,4.6,2.29,1.12-1.43,2.94-2.29,5.04-2.29,3.33,0,5.72,1.92,5.72,6.19l.02-.02Z"/>
    <path class="cls-12" d="m384.83,325.26v7.98h-3.8v-1.74c-.75,1.27-2.21,1.95-4.26,1.95-3.28,0-5.23-1.82-5.23-4.24s1.74-4.19,6.01-4.19h3.22c0-1.74-1.04-2.76-3.22-2.76-1.48,0-3.02.49-4.03,1.3l-1.46-2.83c1.53-1.09,3.8-1.69,6.03-1.69,4.26,0,6.73,1.98,6.73,6.21h0Zm-4.06,3.57v-1.43h-2.78c-1.9,0-2.5.7-2.5,1.64,0,1.01.86,1.69,2.29,1.69,1.35,0,2.52-.62,2.99-1.9h0Z"/>
    <path class="cls-12" d="m397.52,332.57c-.83.6-2.05.88-3.3.88-3.3,0-5.23-1.69-5.23-5.02v-5.75h-2.16v-3.12h2.16v-3.41h4.06v3.41h3.48v3.12h-3.48v5.69c0,1.2.65,1.85,1.74,1.85.6,0,1.2-.18,1.64-.52l1.09,2.86h0Z"/>
    <path class="cls-12" d="m399.31,315.05c0-1.27,1.01-2.26,2.52-2.26s2.52.94,2.52,2.18c0,1.35-1.01,2.34-2.52,2.34s-2.52-.99-2.52-2.26h0Zm.49,4.21h4.06v13.99h-4.06v-13.99Z"/>
    <path class="cls-12" d="m421.52,319.26l-5.9,13.99h-4.19l-5.88-13.99h4.19l3.87,9.52,4-9.52h3.91Z"/>
    <path class="cls-12" d="m435.09,325.26v7.98h-3.8v-1.74c-.75,1.27-2.21,1.95-4.26,1.95-3.28,0-5.23-1.82-5.23-4.24s1.74-4.19,6.01-4.19h3.22c0-1.74-1.04-2.76-3.22-2.76-1.48,0-3.02.49-4.03,1.3l-1.46-2.83c1.53-1.09,3.8-1.69,6.03-1.69,4.26,0,6.73,1.98,6.73,6.21h0Zm-4.06,3.57v-1.43h-2.78c-1.9,0-2.5.7-2.5,1.64,0,1.01.86,1.69,2.29,1.69,1.35,0,2.52-.62,2.99-1.9h0Z"/>
    <path class="cls-12" d="m437.77,321.57c0-1.51,1.12-2.5,2.52-2.5s2.52.99,2.52,2.5-1.12,2.55-2.52,2.55-2.52-1.07-2.52-2.55Zm0,9.33c0-1.51,1.12-2.5,2.52-2.5s2.52.99,2.52,2.5-1.12,2.55-2.52,2.55-2.52-1.07-2.52-2.55Z"/>
    <path class="cls-12" d="m196.51,346.46c0-.7.6-1.3,1.35-1.3s1.35.57,1.35,1.27c0,.75-.57,1.35-1.35,1.35s-1.35-.6-1.35-1.33h0Zm.42,4.33h1.85v13.68h-1.85v-13.68Z"/>
    <path class="cls-12" d="m226.49,356.52v7.93h-1.85v-7.75c0-2.89-1.46-4.37-3.93-4.37-2.81,0-4.58,1.82-4.58,4.94v7.18h-1.85v-7.75c0-2.89-1.46-4.37-3.95-4.37-2.78,0-4.58,1.82-4.58,4.94v7.18h-1.85v-13.68h1.77v2.5c.96-1.64,2.73-2.6,5.02-2.6s4.03.96,4.86,2.89c.99-1.77,2.94-2.89,5.41-2.89,3.33,0,5.51,1.92,5.51,5.85h.02Z"/>
    <path class="cls-12" d="m245.37,357.61c0,4.16-2.91,6.97-6.81,6.97-2.18,0-4.06-.94-5.2-2.7v7.62h-1.85v-18.72h1.77v2.7c1.12-1.82,3.02-2.81,5.28-2.81,3.9,0,6.81,2.81,6.81,6.94Zm-1.85,0c0-3.17-2.21-5.33-5.1-5.33s-5.1,2.16-5.1,5.33,2.18,5.33,5.1,5.33,5.1-2.13,5.1-5.33Z"/>
    <path class="cls-12" d="m249.14,345.15h1.85v19.29h-1.85v-19.29Z"/>
    <path class="cls-12" d="m255.72,346.46c0-.7.6-1.3,1.35-1.3s1.35.57,1.35,1.27c0,.75-.57,1.35-1.35,1.35s-1.35-.6-1.35-1.33h0Zm.42,4.33h1.85v13.68h-1.85v-13.68Z"/>
    <path class="cls-12" d="m261.75,357.61c0-4.08,2.96-6.94,7.05-6.94,2.31,0,4.26.91,5.36,2.7l-1.38.94c-.94-1.38-2.39-2.03-3.98-2.03-2.99,0-5.17,2.13-5.17,5.33s2.18,5.33,5.17,5.33c1.59,0,3.04-.62,3.98-2l1.38.94c-1.09,1.77-3.04,2.7-5.36,2.7-4.08,0-7.05-2.89-7.05-6.97Z"/>
    <path class="cls-12" d="m288.09,355.97v8.48h-1.77v-2.13c-.83,1.4-2.44,2.26-4.71,2.26-3.09,0-4.99-1.61-4.99-3.98,0-2.11,1.35-3.88,5.28-3.88h4.34v-.83c0-2.34-1.33-3.61-3.87-3.61-1.77,0-3.43.62-4.55,1.61l-.83-1.38c1.38-1.17,3.41-1.85,5.56-1.85,3.54,0,5.54,1.77,5.54,5.3h0Zm-1.85,4.38v-2.24h-4.29c-2.65,0-3.51,1.04-3.51,2.44,0,1.59,1.27,2.57,3.46,2.57s3.61-.99,4.34-2.78h0Z"/>
    <path class="cls-12" d="m298.54,357.61c0-4.08,2.96-6.94,7.05-6.94,2.31,0,4.26.91,5.36,2.7l-1.38.94c-.94-1.38-2.39-2.03-3.98-2.03-2.99,0-5.17,2.13-5.17,5.33s2.18,5.33,5.17,5.33c1.59,0,3.04-.62,3.98-2l1.38.94c-1.09,1.77-3.04,2.7-5.36,2.7-4.08,0-7.05-2.89-7.05-6.97Z"/>
    <path class="cls-12" d="m312.94,357.61c0-4.06,2.96-6.94,6.97-6.94s6.94,2.89,6.94,6.94-2.94,6.97-6.94,6.97-6.97-2.91-6.97-6.97Zm12.04,0c0-3.2-2.16-5.33-5.07-5.33s-5.1,2.13-5.1,5.33,2.18,5.33,5.1,5.33,5.07-2.13,5.07-5.33Z"/>
    <path class="cls-12" d="m342.53,358.18h-11.44c.21,2.86,2.39,4.76,5.38,4.76,1.66,0,3.15-.6,4.19-1.79l1.04,1.2c-1.22,1.46-3.12,2.24-5.28,2.24-4.26,0-7.18-2.91-7.18-6.97s2.83-6.94,6.68-6.94,6.63,2.83,6.63,6.94c0,.16-.03.36-.03.57h0Zm-11.44-1.39h9.7c-.23-2.68-2.18-4.55-4.86-4.55s-4.6,1.87-4.84,4.55h0Z"/>
    <path class="cls-12" d="m353.22,350.67v1.79c-.16,0-.31-.03-.44-.03-2.86,0-4.6,1.82-4.6,5.04v6.97h-1.85v-13.68h1.77v2.68c.86-1.82,2.6-2.78,5.12-2.78h0Z"/>
    <path class="cls-12" d="m368.32,358.18h-11.44c.21,2.86,2.39,4.76,5.38,4.76,1.66,0,3.15-.6,4.19-1.79l1.04,1.2c-1.22,1.46-3.12,2.24-5.28,2.24-4.26,0-7.18-2.91-7.18-6.97s2.83-6.94,6.68-6.94,6.63,2.83,6.63,6.94c0,.16-.03.36-.03.57h0Zm-11.44-1.39h9.7c-.23-2.68-2.18-4.55-4.86-4.55s-4.6,1.87-4.84,4.55h0Zm2.26-8.14h-1.72l3.35-3.22h1.87l3.35,3.22h-1.72l-2.57-2.16-2.57,2.16h.01Z"/>
    <path class="cls-12" d="m384.7,356.52v7.93h-1.85v-7.75c0-2.89-1.51-4.37-4.11-4.37-2.94,0-4.78,1.82-4.78,4.94v7.18h-1.85v-13.68h1.77v2.52c.99-1.66,2.83-2.63,5.2-2.63,3.33,0,5.62,1.92,5.62,5.85h0Z"/>
    <path class="cls-12" d="m388.39,357.61c0-4.08,2.96-6.94,7.05-6.94,2.31,0,4.26.91,5.36,2.7l-1.38.94c-.94-1.38-2.39-2.03-3.98-2.03-2.99,0-5.17,2.13-5.17,5.33s2.18,5.33,5.17,5.33c1.59,0,3.04-.62,3.98-2l1.38.94c-1.09,1.77-3.04,2.7-5.36,2.7-4.08,0-7.05-2.89-7.05-6.97Z"/>
    <path class="cls-12" d="m403.99,346.46c0-.7.6-1.3,1.35-1.3s1.35.57,1.35,1.27c0,.75-.57,1.35-1.35,1.35s-1.35-.6-1.35-1.33h0Zm.42,4.33h1.85v13.68h-1.85v-13.68Z"/>
    <path class="cls-12" d="m421.73,355.97v8.48h-1.77v-2.13c-.83,1.4-2.44,2.26-4.71,2.26-3.09,0-4.99-1.61-4.99-3.98,0-2.11,1.35-3.88,5.28-3.88h4.34v-.83c0-2.34-1.33-3.61-3.87-3.61-1.77,0-3.43.62-4.55,1.61l-.83-1.38c1.38-1.17,3.41-1.85,5.56-1.85,3.54,0,5.54,1.77,5.54,5.3h0Zm-1.85,4.38v-2.24h-4.29c-2.65,0-3.51,1.04-3.51,2.44,0,1.59,1.27,2.57,3.46,2.57s3.61-.99,4.34-2.78h0Z"/>
    <path class="cls-12" d="m215.42,389.38h-11.44c.21,2.86,2.39,4.76,5.38,4.76,1.66,0,3.15-.6,4.19-1.79l1.04,1.2c-1.22,1.46-3.12,2.24-5.28,2.24-4.26,0-7.18-2.91-7.18-6.97s2.83-6.94,6.68-6.94,6.63,2.83,6.63,6.94c0,.16-.03.36-.03.57h0Zm-11.44-1.39h9.7c-.23-2.68-2.18-4.55-4.86-4.55s-4.6,1.87-4.84,4.55Z"/>
    <path class="cls-12" d="m231.8,387.72v7.93h-1.85v-7.75c0-2.89-1.51-4.37-4.11-4.37-2.94,0-4.78,1.82-4.78,4.94v7.18h-1.85v-13.68h1.77v2.52c.99-1.66,2.83-2.63,5.2-2.63,3.33,0,5.62,1.92,5.62,5.85h0Z"/>
    <path class="cls-12" d="m244.02,394.82c-.73.65-1.82.96-2.89.96-2.57,0-4-1.46-4-3.98v-8.27h-2.44v-1.56h2.44v-2.99h1.85v2.99h4.16v1.56h-4.16v8.16c0,1.61.83,2.5,2.37,2.5.75,0,1.51-.23,2.03-.7l.65,1.33h0Z"/>
    <path class="cls-12" d="m254.26,381.87v1.79c-.16,0-.31-.03-.44-.03-2.86,0-4.6,1.82-4.6,5.04v6.97h-1.85v-13.68h1.77v2.68c.86-1.82,2.6-2.78,5.12-2.78h0Z"/>
    <path class="cls-12" d="m269.37,389.38h-11.44c.21,2.86,2.39,4.76,5.38,4.76,1.66,0,3.15-.6,4.19-1.79l1.04,1.2c-1.22,1.46-3.12,2.24-5.28,2.24-4.26,0-7.18-2.91-7.18-6.97s2.83-6.94,6.68-6.94,6.63,2.83,6.63,6.94c0,.16-.03.36-.03.57h0Zm-11.44-1.39h9.7c-.23-2.68-2.18-4.55-4.86-4.55s-4.6,1.87-4.84,4.55h0Z"/>
    <path class="cls-12" d="m290.3,387.17v8.48h-1.77v-2.13c-.83,1.4-2.44,2.26-4.71,2.26-3.09,0-4.99-1.61-4.99-3.98,0-2.11,1.35-3.87,5.28-3.87h4.34v-.83c0-2.34-1.33-3.61-3.87-3.61-1.77,0-3.43.62-4.55,1.61l-.83-1.38c1.38-1.17,3.41-1.85,5.56-1.85,3.54,0,5.54,1.77,5.54,5.3h0Zm-1.85,4.37v-2.24h-4.29c-2.65,0-3.51,1.04-3.51,2.44,0,1.59,1.27,2.57,3.46,2.57s3.61-.99,4.34-2.78h0Z"/>
    <path class="cls-12" d="m293.42,394.09l.83-1.46c1.09.86,2.94,1.53,4.86,1.53,2.6,0,3.67-.88,3.67-2.24,0-3.56-8.87-.75-8.87-6.16,0-2.24,1.92-3.9,5.41-3.9,1.77,0,3.69.49,4.84,1.27l-.81,1.48c-1.2-.83-2.63-1.17-4.03-1.17-2.47,0-3.56.96-3.56,2.26,0,3.69,8.87.91,8.87,6.16,0,2.37-2.08,3.9-5.64,3.9-2.26,0-4.45-.73-5.56-1.69v.02Z"/>
    <path class="cls-12" d="m327.42,387.72v7.93h-1.85v-7.75c0-2.89-1.51-4.37-4.11-4.37-2.94,0-4.78,1.82-4.78,4.94v7.18h-1.85v-13.68h1.77v2.52c.99-1.66,2.83-2.63,5.2-2.63,3.33,0,5.62,1.92,5.62,5.85h0Z"/>
    <path class="cls-12" d="m331.11,388.81c0-4.06,2.96-6.94,6.97-6.94s6.94,2.89,6.94,6.94-2.94,6.97-6.94,6.97-6.97-2.91-6.97-6.97Zm12.04,0c0-3.2-2.16-5.33-5.07-5.33s-5.1,2.13-5.1,5.33,2.18,5.33,5.1,5.33,5.07-2.13,5.07-5.33Z"/>
    <path class="cls-12" d="m355.68,381.87v1.79c-.16,0-.31-.03-.44-.03-2.86,0-4.6,1.82-4.6,5.04v6.97h-1.85v-13.68h1.77v2.68c.86-1.82,2.6-2.78,5.12-2.78h0Z"/>
    <path class="cls-12" d="m381.58,387.72v7.93h-1.85v-7.75c0-2.89-1.46-4.37-3.93-4.37-2.81,0-4.58,1.82-4.58,4.94v7.18h-1.85v-7.75c0-2.89-1.46-4.37-3.95-4.37-2.78,0-4.58,1.82-4.58,4.94v7.18h-1.85v-13.68h1.77v2.5c.96-1.64,2.73-2.6,5.02-2.6s4.03.96,4.86,2.89c.99-1.77,2.94-2.89,5.41-2.89,3.33,0,5.51,1.92,5.51,5.85h.02Z"/>
    <path class="cls-12" d="m396.92,387.17v8.48h-1.77v-2.13c-.83,1.4-2.44,2.26-4.71,2.26-3.09,0-4.99-1.61-4.99-3.98,0-2.11,1.35-3.87,5.28-3.87h4.34v-.83c0-2.34-1.33-3.61-3.87-3.61-1.77,0-3.43.62-4.55,1.61l-.83-1.38c1.38-1.17,3.41-1.85,5.56-1.85,3.54,0,5.54,1.77,5.54,5.3h0Zm-1.85,4.37v-2.24h-4.29c-2.65,0-3.51,1.04-3.51,2.44,0,1.59,1.27,2.57,3.46,2.57s3.61-.99,4.34-2.78h0Z"/>
    <path class="cls-12" d="m400.04,394.09l.83-1.46c1.09.86,2.94,1.53,4.86,1.53,2.6,0,3.67-.88,3.67-2.24,0-3.56-8.87-.75-8.87-6.16,0-2.24,1.92-3.9,5.41-3.9,1.77,0,3.69.49,4.84,1.27l-.81,1.48c-1.2-.83-2.63-1.17-4.03-1.17-2.47,0-3.56.96-3.56,2.26,0,3.69,8.87.91,8.87,6.16,0,2.37-2.08,3.9-5.64,3.9-2.26,0-4.45-.73-5.56-1.69v.02Z"/>
    <path class="cls-12" d="m413.46,394.35c0-.81.62-1.4,1.38-1.4s1.4.6,1.4,1.4-.65,1.43-1.4,1.43-1.38-.62-1.38-1.43Z"/>
  </g>
  <rect class="cls-4" x="714.14" y="110.91" width="514.28" height="345.7" rx="11.31" ry="11.31"/>
  <path class="cls-8" d="m874.19,124.25h327.45c7.43,0,13.46,6.02,13.46,13.46v292.12c0,7.43-6.02,13.46-13.46,13.46h-460.7c-7.43,0-13.46-6.02-13.46-13.46v-192.72"/>
  <path class="cls-7" d="m1215.09,313.96v115.86c0,7.43-6.02,13.46-13.46,13.46h-80.13"/>
  <path class="cls-2" d="m740.65,124.07h113.09v95.04h-126.17v-81.96c0-7.22,5.86-13.08,13.08-13.08h0Z"/>
  <polygon class="cls-2" points="790.65 245.81 759.17 205.58 822.13 205.58 790.65 245.81"/>
  <g>
    <path class="cls-12" d="m784.71,334.39h-8.45l-1.61,3.9h-4.32l8.11-18.2h4.16l8.14,18.2h-4.42l-1.61-3.9Zm-1.33-3.2l-2.89-6.97-2.89,6.97h5.78Z"/>
    <path class="cls-12" d="m800.31,338.29l-3.07-4.29-3.17,4.29h-4.42l5.38-7.05-5.2-6.94h4.55l2.96,4.08,3.04-4.08h4.32l-5.2,6.84,5.41,7.15h-4.6Z"/>
    <path class="cls-12" d="m806.4,320.09c0-1.27,1.01-2.26,2.52-2.26s2.52.94,2.52,2.18c0,1.35-1.01,2.34-2.52,2.34s-2.52-.99-2.52-2.26h0Zm.49,4.21h4.06v13.99h-4.06v-13.99Z"/>
    <path class="cls-12" d="m813.67,331.3c0-4.21,3.25-7.2,7.7-7.2s7.67,2.99,7.67,7.2-3.22,7.2-7.67,7.2-7.7-2.99-7.7-7.2Zm11.26,0c0-2.42-1.53-3.87-3.56-3.87s-3.59,1.46-3.59,3.87,1.56,3.87,3.59,3.87,3.56-1.46,3.56-3.87Z"/>
    <path class="cls-12" d="m855.38,330.28v8.01h-4.06v-7.38c0-2.26-1.01-3.3-2.65-3.3-1.82,0-3.09,1.17-3.09,3.67v7.02h-4.06v-7.38c0-2.26-.96-3.3-2.65-3.3-1.79,0-3.07,1.17-3.07,3.67v7.02h-4.06v-13.99h3.87v1.61c1.04-1.2,2.6-1.82,4.39-1.82,1.95,0,3.61.75,4.6,2.29,1.12-1.43,2.94-2.29,5.04-2.29,3.33,0,5.72,1.92,5.72,6.19l.02-.02Z"/>
    <path class="cls-12" d="m871.4,330.31v7.98h-3.8v-1.74c-.75,1.27-2.21,1.95-4.26,1.95-3.28,0-5.23-1.82-5.23-4.24s1.74-4.19,6.01-4.19h3.22c0-1.74-1.04-2.76-3.22-2.76-1.48,0-3.02.49-4.03,1.3l-1.46-2.83c1.53-1.09,3.8-1.69,6.03-1.69,4.26,0,6.73,1.98,6.73,6.21h.01Zm-4.06,3.57v-1.43h-2.78c-1.9,0-2.5.7-2.5,1.64,0,1.01.86,1.69,2.29,1.69,1.35,0,2.52-.62,2.99-1.9h0Z"/>
    <path class="cls-12" d="m881.38,331.3c0-4.21,3.25-7.2,7.7-7.2s7.67,2.99,7.67,7.2-3.22,7.2-7.67,7.2-7.7-2.99-7.7-7.2Zm11.26,0c0-2.42-1.53-3.87-3.56-3.87s-3.59,1.46-3.59,3.87,1.56,3.87,3.59,3.87,3.56-1.46,3.56-3.87Z"/>
    <path class="cls-12" d="m913.75,330.28v8.01h-4.06v-7.38c0-2.26-1.04-3.3-2.83-3.3-1.95,0-3.35,1.2-3.35,3.77v6.92h-4.06v-13.99h3.87v1.64c1.09-1.2,2.73-1.85,4.63-1.85,3.3,0,5.8,1.92,5.8,6.19h0Z"/>
    <path class="cls-12" d="m926.44,337.61c-.83.6-2.05.88-3.3.88-3.3,0-5.23-1.69-5.23-5.02v-5.75h-2.16v-3.12h2.16v-3.41h4.06v3.41h3.48v3.12h-3.48v5.69c0,1.2.65,1.85,1.74,1.85.6,0,1.2-.18,1.64-.52l1.09,2.86h0Z"/>
    <path class="cls-12" d="m927.24,331.3c0-4.21,3.25-7.2,7.7-7.2s7.67,2.99,7.67,7.2-3.22,7.2-7.67,7.2-7.7-2.99-7.7-7.2Zm11.26,0c0-2.42-1.53-3.87-3.56-3.87s-3.59,1.46-3.59,3.87,1.56,3.87,3.59,3.87,3.56-1.46,3.56-3.87Z"/>
    <path class="cls-12" d="m945.31,319h4.06v19.29h-4.06v-19.29Z"/>
    <path class="cls-12" d="m952.1,331.3c0-4.21,3.25-7.2,7.7-7.2s7.67,2.99,7.67,7.2-3.22,7.2-7.67,7.2-7.7-2.99-7.7-7.2Zm11.26,0c0-2.42-1.53-3.87-3.56-3.87s-3.59,1.46-3.59,3.87,1.56,3.87,3.59,3.87,3.56-1.46,3.56-3.87Zm-2.47-12.53h4.37l-4.71,3.74h-3.17l3.51-3.74Z"/>
    <path class="cls-12" d="m984.6,324.3v11.65c0,5.2-2.81,7.59-7.85,7.59-2.65,0-5.23-.65-6.86-1.92l1.61-2.91c1.2.96,3.15,1.59,4.94,1.59,2.86,0,4.11-1.3,4.11-3.82v-.6c-1.07,1.17-2.6,1.74-4.42,1.74-3.87,0-6.99-2.68-6.99-6.76s3.12-6.76,6.99-6.76c1.95,0,3.56.65,4.63,2v-1.79h3.85-.01Zm-4,6.54c0-2.05-1.53-3.43-3.67-3.43s-3.69,1.38-3.69,3.43,1.56,3.43,3.69,3.43,3.67-1.38,3.67-3.43Z"/>
    <path class="cls-12" d="m987.87,320.09c0-1.27,1.01-2.26,2.52-2.26s2.52.94,2.52,2.18c0,1.35-1.01,2.34-2.52,2.34s-2.52-.99-2.52-2.26h0Zm.49,4.21h4.06v13.99h-4.06v-13.99Z"/>
    <path class="cls-12" d="m995.15,331.3c0-4.21,3.25-7.2,7.8-7.2,2.94,0,5.25,1.27,6.27,3.56l-3.15,1.69c-.75-1.33-1.87-1.92-3.15-1.92-2.05,0-3.67,1.43-3.67,3.87s1.61,3.87,3.67,3.87c1.27,0,2.39-.57,3.15-1.92l3.15,1.72c-1.01,2.24-3.33,3.54-6.27,3.54-4.55,0-7.8-2.99-7.8-7.2h0Z"/>
    <path class="cls-12" d="m1010.34,331.3c0-4.21,3.25-7.2,7.7-7.2s7.67,2.99,7.67,7.2-3.22,7.2-7.67,7.2-7.7-2.99-7.7-7.2Zm11.26,0c0-2.42-1.53-3.87-3.56-3.87s-3.59,1.46-3.59,3.87,1.56,3.87,3.59,3.87,3.56-1.46,3.56-3.87Z"/>
    <path class="cls-12" d="m1050.01,319v19.29h-3.87v-1.61c-1.01,1.22-2.5,1.82-4.37,1.82-3.95,0-6.99-2.81-6.99-7.2s3.04-7.2,6.99-7.2c1.72,0,3.17.55,4.19,1.69v-6.79h4.06-.01Zm-3.98,12.3c0-2.42-1.56-3.87-3.56-3.87s-3.59,1.46-3.59,3.87,1.56,3.87,3.59,3.87,3.56-1.46,3.56-3.87Z"/>
    <path class="cls-12" d="m1052.72,331.3c0-4.21,3.25-7.2,7.7-7.2s7.67,2.99,7.67,7.2-3.22,7.2-7.67,7.2-7.7-2.99-7.7-7.2Zm11.26,0c0-2.42-1.53-3.87-3.56-3.87s-3.59,1.46-3.59,3.87,1.56,3.87,3.59,3.87,3.56-1.46,3.56-3.87Z"/>
    <path class="cls-12" d="m1092.39,319v19.29h-3.87v-1.61c-1.01,1.22-2.5,1.82-4.37,1.82-3.95,0-7-2.81-7-7.2s3.04-7.2,7-7.2c1.72,0,3.17.55,4.19,1.69v-6.79h4.06-.01Zm-3.98,12.3c0-2.42-1.56-3.87-3.56-3.87s-3.59,1.46-3.59,3.87,1.56,3.87,3.59,3.87,3.56-1.46,3.56-3.87Z"/>
    <path class="cls-12" d="m1095.64,320.09c0-1.27,1.01-2.26,2.52-2.26s2.52.94,2.52,2.18c0,1.35-1.01,2.34-2.52,2.34s-2.52-.99-2.52-2.26h0Zm.49,4.21h4.06v13.99h-4.06v-13.99Z"/>
    <path class="cls-12" d="m1112.65,324.09v3.74c-.34-.03-.6-.05-.91-.05-2.24,0-3.72,1.22-3.72,3.9v6.6h-4.06v-13.99h3.87v1.85c.99-1.35,2.65-2.05,4.81-2.05h.01Z"/>
    <path class="cls-12" d="m1128.56,332.44h-10.58c.39,1.74,1.87,2.81,4,2.81,1.48,0,2.55-.44,3.51-1.35l2.16,2.34c-1.3,1.48-3.25,2.26-5.77,2.26-4.84,0-7.98-3.04-7.98-7.2s3.2-7.2,7.46-7.2,7.28,2.76,7.28,7.25c0,.31-.05.75-.08,1.09h0Zm-10.63-2.37h6.89c-.29-1.77-1.61-2.91-3.43-2.91s-3.17,1.12-3.46,2.91Z"/>
    <path class="cls-12" d="m1130.84,320.09c0-1.27,1.01-2.26,2.52-2.26s2.52.94,2.52,2.18c0,1.35-1.01,2.34-2.52,2.34s-2.52-.99-2.52-2.26h0Zm.49,4.21h4.06v13.99h-4.06v-13.99Z"/>
    <path class="cls-12" d="m1148.19,337.61c-.83.6-2.05.88-3.3.88-3.3,0-5.23-1.69-5.23-5.02v-5.75h-2.16v-3.12h2.16v-3.41h4.06v3.41h3.48v3.12h-3.48v5.69c0,1.2.65,1.85,1.74,1.85.6,0,1.2-.18,1.64-.52l1.09,2.86h0Z"/>
    <path class="cls-12" d="m1148.99,331.3c0-4.21,3.25-7.2,7.7-7.2s7.67,2.99,7.67,7.2-3.22,7.2-7.67,7.2-7.7-2.99-7.7-7.2Zm11.26,0c0-2.42-1.53-3.87-3.56-3.87s-3.59,1.46-3.59,3.87,1.56,3.87,3.59,3.87,3.56-1.46,3.56-3.87Z"/>
    <path class="cls-12" d="m1166.07,326.62c0-1.51,1.12-2.5,2.52-2.5s2.52.99,2.52,2.5-1.12,2.55-2.52,2.55-2.52-1.07-2.52-2.55Zm0,9.33c0-1.51,1.12-2.5,2.52-2.5s2.52.99,2.52,2.5-1.12,2.55-2.52,2.55-2.52-1.07-2.52-2.55Z"/>
    <path class="cls-12" d="m811.75,363.22h-11.44c.21,2.86,2.39,4.76,5.38,4.76,1.66,0,3.15-.6,4.19-1.79l1.04,1.2c-1.22,1.46-3.12,2.24-5.28,2.24-4.26,0-7.18-2.91-7.18-6.97s2.83-6.94,6.68-6.94,6.63,2.83,6.63,6.94c0,.16-.03.36-.03.57h.01Zm-11.44-1.39h9.7c-.23-2.68-2.18-4.55-4.86-4.55s-4.6,1.87-4.84,4.55Z"/>
    <path class="cls-12" d="m813.65,367.93l.83-1.46c1.09.86,2.94,1.53,4.86,1.53,2.6,0,3.67-.88,3.67-2.24,0-3.56-8.87-.75-8.87-6.16,0-2.24,1.92-3.9,5.41-3.9,1.77,0,3.69.49,4.84,1.27l-.81,1.48c-1.2-.83-2.63-1.17-4.03-1.17-2.47,0-3.56.96-3.56,2.26,0,3.69,8.87.91,8.87,6.16,0,2.37-2.08,3.9-5.64,3.9-2.26,0-4.45-.73-5.56-1.69v.02Z"/>
    <path class="cls-12" d="m835.46,368.66c-.73.65-1.82.96-2.89.96-2.57,0-4-1.46-4-3.98v-8.27h-2.44v-1.56h2.44v-2.99h1.85v2.99h4.16v1.56h-4.16v8.16c0,1.61.83,2.5,2.37,2.5.75,0,1.51-.23,2.03-.7l.65,1.33h-.01Z"/>
    <path class="cls-12" d="m849.14,361.01v8.48h-1.77v-2.13c-.83,1.4-2.44,2.26-4.71,2.26-3.09,0-4.99-1.61-4.99-3.98,0-2.11,1.35-3.88,5.28-3.88h4.34v-.83c0-2.34-1.33-3.61-3.87-3.61-1.77,0-3.43.62-4.55,1.61l-.83-1.38c1.38-1.17,3.41-1.85,5.56-1.85,3.54,0,5.54,1.77,5.54,5.3h0Zm-1.85,4.38v-2.24h-4.29c-2.65,0-3.51,1.04-3.51,2.44,0,1.59,1.27,2.57,3.46,2.57s3.61-.99,4.34-2.78h0Z"/>
    <path class="cls-12" d="m868.02,362.65c0,4.13-2.91,6.97-6.81,6.97-2.26,0-4.16-.99-5.28-2.83v2.7h-1.77v-19.29h1.85v8.22c1.14-1.77,3.02-2.7,5.2-2.7,3.9,0,6.81,2.81,6.81,6.94h0Zm-1.85-.01c0-3.2-2.21-5.33-5.1-5.33s-5.1,2.13-5.1,5.33,2.18,5.33,5.1,5.33,5.1-2.13,5.1-5.33Z"/>
    <path class="cls-12" d="m883.69,363.22h-11.44c.21,2.86,2.39,4.76,5.38,4.76,1.66,0,3.15-.6,4.19-1.79l1.04,1.2c-1.22,1.46-3.12,2.24-5.28,2.24-4.26,0-7.18-2.91-7.18-6.97s2.83-6.94,6.68-6.94,6.63,2.83,6.63,6.94c0,.16-.03.36-.03.57h.01Zm-11.44-1.39h9.7c-.23-2.68-2.18-4.55-4.86-4.55s-4.6,1.87-4.84,4.55Z"/>
    <path class="cls-12" d="m887.49,350.2h1.85v19.29h-1.85v-19.29Z"/>
    <path class="cls-12" d="m906.39,363.22h-11.44c.21,2.86,2.39,4.76,5.38,4.76,1.66,0,3.15-.6,4.19-1.79l1.04,1.2c-1.22,1.46-3.12,2.24-5.28,2.24-4.26,0-7.18-2.91-7.18-6.97s2.83-6.94,6.68-6.94,6.63,2.83,6.63,6.94c0,.16-.03.36-.03.57h.01Zm-11.44-1.39h9.7c-.23-2.68-2.18-4.55-4.86-4.55s-4.6,1.87-4.84,4.55Z"/>
    <path class="cls-12" d="m908.81,362.65c0-4.08,2.96-6.94,7.05-6.94,2.31,0,4.26.91,5.36,2.7l-1.38.94c-.94-1.38-2.39-2.03-3.98-2.03-2.99,0-5.17,2.13-5.17,5.33s2.18,5.33,5.17,5.33c1.59,0,3.04-.62,3.98-2l1.38.94c-1.09,1.77-3.04,2.7-5.36,2.7-4.08,0-7.05-2.89-7.05-6.97Z"/>
    <path class="cls-12" d="m936.5,363.22h-11.44c.21,2.86,2.39,4.76,5.38,4.76,1.66,0,3.15-.6,4.19-1.79l1.04,1.2c-1.22,1.46-3.12,2.24-5.28,2.24-4.26,0-7.18-2.91-7.18-6.97s2.83-6.94,6.68-6.94,6.63,2.83,6.63,6.94c0,.16-.03.36-.03.57h.01Zm-11.44-1.39h9.7c-.23-2.68-2.18-4.55-4.86-4.55s-4.6,1.87-4.84,4.55Z"/>
    <path class="cls-12" d="m957.43,361.01v8.48h-1.77v-2.13c-.83,1.4-2.44,2.26-4.71,2.26-3.09,0-4.99-1.61-4.99-3.98,0-2.11,1.35-3.88,5.28-3.88h4.34v-.83c0-2.34-1.33-3.61-3.87-3.61-1.77,0-3.43.62-4.55,1.61l-.83-1.38c1.38-1.17,3.41-1.85,5.56-1.85,3.54,0,5.54,1.77,5.54,5.3h0Zm-1.85,4.38v-2.24h-4.29c-2.65,0-3.51,1.04-3.51,2.44,0,1.59,1.27,2.57,3.46,2.57s3.61-.99,4.34-2.78h0Z"/>
    <path class="cls-12" d="m969.26,350.2h1.85v19.29h-1.85v-19.29Z"/>
    <path class="cls-12" d="m975.84,351.5c0-.7.6-1.3,1.35-1.3s1.35.57,1.35,1.27c0,.75-.57,1.35-1.35,1.35s-1.35-.6-1.35-1.33h0Zm.42,4.33h1.85v13.68h-1.85v-13.68Z"/>
    <path class="cls-12" d="m995.83,361.56v7.93h-1.85v-7.75c0-2.89-1.51-4.37-4.11-4.37-2.94,0-4.78,1.82-4.78,4.94v7.18h-1.85v-13.68h1.77v2.52c.99-1.66,2.83-2.63,5.2-2.63,3.33,0,5.62,1.92,5.62,5.85h0Z"/>
    <path class="cls-12" d="m1013.43,361.56v7.93h-1.85v-7.75c0-2.89-1.51-4.37-4.11-4.37-2.94,0-4.78,1.82-4.78,4.94v7.18h-1.85v-19.29h1.85v8.01c1.01-1.59,2.81-2.5,5.12-2.5,3.33,0,5.62,1.92,5.62,5.85Z"/>
    <path class="cls-12" d="m1028.77,361.01v8.48h-1.77v-2.13c-.83,1.4-2.44,2.26-4.71,2.26-3.09,0-4.99-1.61-4.99-3.98,0-2.11,1.35-3.88,5.28-3.88h4.34v-.83c0-2.34-1.33-3.61-3.87-3.61-1.77,0-3.43.62-4.55,1.61l-.83-1.38c1.38-1.17,3.41-1.85,5.56-1.85,3.54,0,5.54,1.77,5.54,5.3h0Zm-1.85,4.38v-2.24h-4.29c-2.65,0-3.51,1.04-3.51,2.44,0,1.59,1.27,2.57,3.46,2.57s3.61-.99,4.34-2.78h0Z"/>
    <path class="cls-12" d="m1053.08,350.2v19.29h-1.77v-2.7c-1.12,1.85-3.02,2.83-5.28,2.83-3.9,0-6.81-2.83-6.81-6.97s2.91-6.94,6.81-6.94c2.18,0,4.06.94,5.2,2.7v-8.22h1.85Zm-1.82,12.47c0-3.2-2.18-5.33-5.07-5.33s-5.1,2.13-5.1,5.33,2.18,5.33,5.1,5.33,5.07-2.13,5.07-5.33Z"/>
    <path class="cls-12" d="m1057.81,351.5c0-.7.6-1.3,1.35-1.3s1.35.57,1.35,1.27c0,.75-.57,1.35-1.35,1.35s-1.35-.6-1.35-1.33h0Zm.42,4.33h1.85v13.68h-1.85v-13.68Z"/>
    <path class="cls-12" d="m1076.72,355.81l-6.08,13.68h-1.9l-6.06-13.68h1.92l5.12,11.65,5.17-11.65h1.83Z"/>
    <path class="cls-12" d="m1078.9,351.5c0-.7.6-1.3,1.35-1.3s1.35.57,1.35,1.27c0,.75-.57,1.35-1.35,1.35s-1.35-.6-1.35-1.33h0Zm.42,4.33h1.85v13.68h-1.85v-13.68Z"/>
    <path class="cls-12" d="m1084.41,367.93l.83-1.46c1.09.86,2.94,1.53,4.86,1.53,2.6,0,3.67-.88,3.67-2.24,0-3.56-8.87-.75-8.87-6.16,0-2.24,1.92-3.9,5.41-3.9,1.77,0,3.69.49,4.84,1.27l-.81,1.48c-1.2-.83-2.63-1.17-4.03-1.17-2.47,0-3.56.96-3.56,2.26,0,3.69,8.87.91,8.87,6.16,0,2.37-2.08,3.9-5.64,3.9-2.26,0-4.45-.73-5.56-1.69v.02Z"/>
    <path class="cls-12" d="m1097.64,362.65c0-4.06,2.96-6.94,6.97-6.94s6.94,2.89,6.94,6.94-2.94,6.97-6.94,6.97-6.97-2.91-6.97-6.97Zm12.04,0c0-3.2-2.16-5.33-5.07-5.33s-5.1,2.13-5.1,5.33,2.18,5.33,5.1,5.33,5.07-2.13,5.07-5.33Zm-3.22-12.17h2.47l-4.21,3.22h-1.82l3.56-3.22h0Z"/>
    <path class="cls-12" d="m1122.21,355.71v1.79c-.16,0-.31-.03-.44-.03-2.86,0-4.6,1.82-4.6,5.04v6.97h-1.85v-13.68h1.77v2.68c.86-1.82,2.6-2.78,5.12-2.78h0Z"/>
    <path class="cls-12" d="m1125.13,351.5c0-.7.6-1.3,1.35-1.3s1.35.57,1.35,1.27c0,.75-.57,1.35-1.35,1.35s-1.35-.6-1.35-1.33h0Zm.42,4.33h1.85v13.68h-1.85v-13.68Z"/>
    <path class="cls-12" d="m1142.86,361.01v8.48h-1.77v-2.13c-.83,1.4-2.44,2.26-4.71,2.26-3.09,0-4.99-1.61-4.99-3.98,0-2.11,1.35-3.88,5.28-3.88h4.34v-.83c0-2.34-1.33-3.61-3.87-3.61-1.77,0-3.43.62-4.55,1.61l-.83-1.38c1.38-1.17,3.41-1.85,5.56-1.85,3.54,0,5.54,1.77,5.54,5.3h0Zm-1.85,4.38v-2.24h-4.29c-2.65,0-3.51,1.04-3.51,2.44,0,1.59,1.27,2.57,3.46,2.57s3.61-.99,4.34-2.78h0Z"/>
    <path class="cls-12" d="m787.61,394.42h-11.44c.21,2.86,2.39,4.76,5.38,4.76,1.66,0,3.15-.6,4.19-1.79l1.04,1.2c-1.22,1.46-3.12,2.24-5.28,2.24-4.26,0-7.18-2.91-7.18-6.97s2.83-6.94,6.68-6.94,6.63,2.83,6.63,6.94c0,.16-.03.36-.03.57h.01Zm-11.44-1.39h9.7c-.23-2.68-2.18-4.55-4.86-4.55s-4.6,1.87-4.84,4.55Z"/>
    <path class="cls-12" d="m803.99,392.76v7.93h-1.85v-7.75c0-2.89-1.51-4.37-4.11-4.37-2.94,0-4.78,1.82-4.78,4.94v7.18h-1.85v-13.68h1.77v2.52c.99-1.66,2.83-2.63,5.2-2.63,3.33,0,5.62,1.92,5.62,5.85h0Z"/>
    <path class="cls-12" d="m816.21,399.86c-.73.65-1.82.96-2.89.96-2.57,0-4-1.46-4-3.98v-8.27h-2.44v-1.56h2.44v-2.99h1.85v2.99h4.16v1.56h-4.16v8.16c0,1.61.83,2.5,2.37,2.5.75,0,1.51-.23,2.03-.7l.65,1.33h-.01Z"/>
    <path class="cls-12" d="m826.45,386.91v1.79c-.16,0-.31-.03-.44-.03-2.86,0-4.6,1.82-4.6,5.04v6.97h-1.85v-13.68h1.77v2.68c.86-1.82,2.6-2.78,5.12-2.78h0Z"/>
    <path class="cls-12" d="m841.56,394.42h-11.44c.21,2.86,2.39,4.76,5.38,4.76,1.66,0,3.15-.6,4.19-1.79l1.04,1.2c-1.22,1.46-3.12,2.24-5.28,2.24-4.26,0-7.18-2.91-7.18-6.97s2.83-6.94,6.68-6.94,6.63,2.83,6.63,6.94c0,.16-.03.36-.03.57h.01Zm-11.44-1.39h9.7c-.23-2.68-2.18-4.55-4.86-4.55s-4.6,1.87-4.84,4.55Z"/>
    <path class="cls-12" d="m850.79,393.85c0-4.06,2.96-6.94,6.97-6.94s6.94,2.89,6.94,6.94-2.94,6.97-6.94,6.97-6.97-2.91-6.97-6.97Zm12.04,0c0-3.2-2.16-5.33-5.07-5.33s-5.1,2.13-5.1,5.33,2.18,5.33,5.1,5.33,5.07-2.13,5.07-5.33Z"/>
    <path class="cls-12" d="m889.14,393.85c0,4.16-2.91,6.97-6.81,6.97-2.18,0-4.06-.94-5.2-2.7v7.62h-1.85v-18.72h1.77v2.7c1.12-1.82,3.02-2.81,5.28-2.81,3.9,0,6.81,2.81,6.81,6.94h0Zm-1.85,0c0-3.17-2.21-5.33-5.1-5.33s-5.1,2.16-5.1,5.33,2.18,5.33,5.1,5.33,5.1-2.13,5.1-5.33Z"/>
    <path class="cls-12" d="m904.82,394.42h-11.44c.21,2.86,2.39,4.76,5.38,4.76,1.66,0,3.15-.6,4.19-1.79l1.04,1.2c-1.22,1.46-3.12,2.24-5.28,2.24-4.26,0-7.18-2.91-7.18-6.97s2.83-6.94,6.68-6.94,6.63,2.83,6.63,6.94c0,.16-.03.36-.03.57h.01Zm-11.44-1.39h9.7c-.23-2.68-2.18-4.55-4.86-4.55s-4.6,1.87-4.84,4.55Z"/>
    <path class="cls-12" d="m915.5,386.91v1.79c-.16,0-.31-.03-.44-.03-2.86,0-4.6,1.82-4.6,5.04v6.97h-1.85v-13.68h1.77v2.68c.86-1.82,2.6-2.78,5.12-2.78h0Z"/>
    <path class="cls-12" d="m941.4,392.76v7.93h-1.85v-7.75c0-2.89-1.46-4.37-3.93-4.37-2.81,0-4.58,1.82-4.58,4.94v7.18h-1.85v-7.75c0-2.89-1.46-4.37-3.95-4.37-2.78,0-4.58,1.82-4.58,4.94v7.18h-1.85v-13.68h1.77v2.5c.96-1.64,2.73-2.6,5.02-2.6s4.03.96,4.86,2.89c.99-1.77,2.94-2.89,5.41-2.89,3.33,0,5.51,1.92,5.51,5.85h.02Z"/>
    <path class="cls-12" d="m946,382.7c0-.7.6-1.3,1.35-1.3s1.35.57,1.35,1.27c0,.75-.57,1.35-1.35,1.35s-1.35-.6-1.35-1.33h0Zm.42,4.33h1.85v13.68h-1.85v-13.68Z"/>
    <path class="cls-12" d="m960.61,399.86c-.73.65-1.82.96-2.89.96-2.57,0-4-1.46-4-3.98v-8.27h-2.44v-1.56h2.44v-2.99h1.85v2.99h4.16v1.56h-4.16v8.16c0,1.61.83,2.5,2.37,2.5.75,0,1.51-.23,2.03-.7l.65,1.33h-.01Z"/>
    <path class="cls-12" d="m963.55,382.7c0-.7.6-1.3,1.35-1.3s1.35.57,1.35,1.27c0,.75-.57,1.35-1.35,1.35s-1.35-.6-1.35-1.33h0Zm.42,4.33h1.85v13.68h-1.85v-13.68Z"/>
    <path class="cls-12" d="m983.44,381.4v19.29h-1.77v-2.7c-1.12,1.85-3.02,2.83-5.28,2.83-3.9,0-6.81-2.83-6.81-6.97s2.91-6.94,6.81-6.94c2.18,0,4.06.94,5.2,2.7v-8.22h1.85Zm-1.82,12.47c0-3.2-2.18-5.33-5.07-5.33s-5.1,2.13-5.1,5.33,2.18,5.33,5.1,5.33,5.07-2.13,5.07-5.33Z"/>
    <path class="cls-12" d="m987.21,393.85c0-4.06,2.96-6.94,6.97-6.94s6.94,2.89,6.94,6.94-2.94,6.97-6.94,6.97-6.97-2.91-6.97-6.97Zm12.04,0c0-3.2-2.16-5.33-5.07-5.33s-5.1,2.13-5.1,5.33,2.18,5.33,5.1,5.33,5.07-2.13,5.07-5.33Z"/>
    <path class="cls-12" d="m1023.61,394.42h-11.44c.21,2.86,2.39,4.76,5.38,4.76,1.66,0,3.15-.6,4.19-1.79l1.04,1.2c-1.22,1.46-3.12,2.24-5.28,2.24-4.26,0-7.18-2.91-7.18-6.97s2.83-6.94,6.68-6.94,6.63,2.83,6.63,6.94c0,.16-.03.36-.03.57h.01Zm-11.44-1.39h9.7c-.23-2.68-2.18-4.55-4.86-4.55s-4.6,1.87-4.84,4.55Z"/>
    <path class="cls-12" d="m1032.84,393.85c0-4.06,2.96-6.94,6.97-6.94s6.94,2.89,6.94,6.94-2.94,6.97-6.94,6.97-6.97-2.91-6.97-6.97Zm12.04,0c0-3.2-2.16-5.33-5.07-5.33s-5.1,2.13-5.1,5.33,2.18,5.33,5.1,5.33,5.07-2.13,5.07-5.33Z"/>
    <path class="cls-12" d="m1071.19,393.85c0,4.16-2.91,6.97-6.81,6.97-2.18,0-4.06-.94-5.2-2.7v7.62h-1.85v-18.72h1.77v2.7c1.12-1.82,3.02-2.81,5.28-2.81,3.9,0,6.81,2.81,6.81,6.94h0Zm-1.85,0c0-3.17-2.21-5.33-5.1-5.33s-5.1,2.16-5.1,5.33,2.18,5.33,5.1,5.33,5.1-2.13,5.1-5.33Z"/>
    <path class="cls-12" d="m1081.85,386.91v1.79c-.16,0-.31-.03-.44-.03-2.86,0-4.6,1.82-4.6,5.04v6.97h-1.85v-13.68h1.77v2.68c.86-1.82,2.6-2.78,5.12-2.78h0Z"/>
    <path class="cls-12" d="m1083.67,393.85c0-4.06,2.96-6.94,6.97-6.94s6.94,2.89,6.94,6.94-2.94,6.97-6.94,6.97-6.97-2.91-6.97-6.97Zm12.04,0c0-3.2-2.16-5.33-5.07-5.33s-5.1,2.13-5.1,5.33,2.18,5.33,5.1,5.33,5.07-2.13,5.07-5.33Z"/>
    <path class="cls-12" d="m1100.93,382.7c0-.7.6-1.3,1.35-1.3s1.35.57,1.35,1.27c0,.75-.57,1.35-1.35,1.35s-1.35-.6-1.35-1.33h0Zm.42,4.33h1.85v13.68h-1.85v-13.68Z"/>
    <path class="cls-12" d="m1122.2,393.85c0,4.13-2.91,6.97-6.81,6.97-2.26,0-4.16-.99-5.28-2.83v2.7h-1.77v-19.29h1.85v8.22c1.14-1.77,3.02-2.7,5.2-2.7,3.9,0,6.81,2.81,6.81,6.94h0Zm-1.85-.01c0-3.2-2.21-5.33-5.1-5.33s-5.1,2.13-5.1,5.33,2.18,5.33,5.1,5.33,5.1-2.13,5.1-5.33Z"/>
    <path class="cls-12" d="m1125.56,382.7c0-.7.6-1.3,1.35-1.3s1.35.57,1.35,1.27c0,.75-.57,1.35-1.35,1.35s-1.35-.6-1.35-1.33h0Zm.42,4.33h1.85v13.68h-1.85v-13.68Z"/>
    <path class="cls-12" d="m1145.45,381.4v19.29h-1.77v-2.7c-1.12,1.85-3.02,2.83-5.28,2.83-3.9,0-6.81-2.83-6.81-6.97s2.91-6.94,6.81-6.94c2.18,0,4.06.94,5.2,2.7v-8.22h1.85Zm-1.82,12.47c0-3.2-2.18-5.33-5.07-5.33s-5.1,2.13-5.1,5.33,2.18,5.33,5.1,5.33,5.07-2.13,5.07-5.33Z"/>
    <path class="cls-12" d="m1149.22,393.85c0-4.06,2.96-6.94,6.97-6.94s6.94,2.89,6.94,6.94-2.94,6.97-6.94,6.97-6.97-2.91-6.97-6.97Zm12.04,0c0-3.2-2.16-5.33-5.07-5.33s-5.1,2.13-5.1,5.33,2.18,5.33,5.1,5.33,5.07-2.13,5.07-5.33Z"/>
    <path class="cls-12" d="m1165.31,399.39c0-.81.62-1.4,1.38-1.4s1.4.6,1.4,1.4-.65,1.43-1.4,1.43-1.38-.62-1.38-1.43Z"/>
  </g>
  <g>
    <path class="cls-10" d="m376.48,50.2c0,4.37-3.28,7.08-8.51,7.08h-3.95v5.4h-4.54v-19.6h8.48c5.24,0,8.51,2.72,8.51,7.11h.01Zm-4.59,0c0-2.16-1.4-3.42-4.17-3.42h-3.7v6.8h3.7c2.77,0,4.17-1.26,4.17-3.39h0Z"/>
    <path class="cls-10" d="m388.75,47.4v4.03c-.36-.03-.64-.06-.98-.06-2.41,0-4,1.32-4,4.2v7.11h-4.37v-15.06h4.17v1.99c1.06-1.46,2.86-2.21,5.18-2.21Z"/>
    <path class="cls-10" d="m390.82,43.09c0-1.37,1.09-2.44,2.72-2.44s2.72,1.01,2.72,2.35c0,1.46-1.09,2.52-2.72,2.52s-2.72-1.06-2.72-2.44h0Zm.53,4.55h4.37v15.06h-4.37v-15.06Z"/>
    <path class="cls-10" d="m415.18,54.07v8.62h-4.37v-7.95c0-2.44-1.12-3.56-3.05-3.56-2.1,0-3.61,1.29-3.61,4.06v7.45h-4.37v-15.06h4.17v1.76c1.18-1.29,2.94-1.99,4.98-1.99,3.56,0,6.24,2.07,6.24,6.66h0Z"/>
    <path class="cls-10" d="m418.18,55.16c0-4.54,3.5-7.76,8.4-7.76,3.16,0,5.66,1.37,6.75,3.84l-3.39,1.82c-.81-1.43-2.02-2.07-3.39-2.07-2.21,0-3.95,1.54-3.95,4.17s1.74,4.17,3.95,4.17c1.37,0,2.58-.62,3.39-2.07l3.39,1.85c-1.09,2.41-3.58,3.81-6.75,3.81-4.9,0-8.4-3.22-8.4-7.76Z"/>
    <path class="cls-10" d="m439.26,41.66h4.7l-5.07,4.03h-3.42l3.78-4.03h.01Zm-3.42,5.96h4.37v15.06h-4.37v-15.06Z"/>
    <path class="cls-10" d="m460.68,55.16c0,4.73-3.28,7.76-7.5,7.76-1.88,0-3.42-.59-4.54-1.82v7.03h-4.37v-20.5h4.17v1.74c1.09-1.32,2.72-1.96,4.73-1.96,4.23,0,7.5,3.02,7.5,7.76h0Zm-4.42-.01c0-2.6-1.65-4.17-3.84-4.17s-3.84,1.57-3.84,4.17,1.65,4.17,3.84,4.17,3.84-1.57,3.84-4.17Z"/>
    <path class="cls-10" d="m463.06,43.09c0-1.37,1.09-2.44,2.72-2.44s2.72,1.01,2.72,2.35c0,1.46-1.09,2.52-2.72,2.52s-2.72-1.06-2.72-2.44h0Zm.53,4.55h4.37v15.06h-4.37v-15.06Z"/>
    <path class="cls-10" d="m470.9,55.16c0-4.54,3.5-7.76,8.29-7.76s8.26,3.22,8.26,7.76-3.47,7.76-8.26,7.76-8.29-3.22-8.29-7.76Zm12.12,0c0-2.6-1.65-4.17-3.84-4.17s-3.86,1.57-3.86,4.17,1.68,4.17,3.86,4.17,3.84-1.57,3.84-4.17Z"/>
    <path class="cls-10" d="m488.9,61.29l1.46-3.14c1.34.87,3.39,1.46,5.24,1.46,2.02,0,2.77-.53,2.77-1.37,0-2.46-9.1.06-9.1-5.96,0-2.86,2.58-4.87,6.97-4.87,2.07,0,4.37.48,5.8,1.32l-1.46,3.11c-1.48-.84-2.97-1.12-4.34-1.12-1.96,0-2.8.62-2.8,1.4,0,2.58,9.1.08,9.1,6.02,0,2.8-2.6,4.79-7.11,4.79-2.55,0-5.12-.7-6.52-1.62v-.02Z"/>
    <path class="cls-10" d="m527.82,56.39h-11.4c.42,1.88,2.02,3.02,4.31,3.02,1.6,0,2.74-.48,3.78-1.46l2.32,2.52c-1.4,1.6-3.5,2.44-6.22,2.44-5.21,0-8.6-3.28-8.6-7.76s3.44-7.76,8.04-7.76,7.84,2.97,7.84,7.81c0,.34-.06.81-.08,1.18h0Zm-11.45-2.54h7.42c-.31-1.9-1.74-3.14-3.7-3.14s-3.42,1.2-3.72,3.14Z"/>
    <path class="cls-10" d="m529.36,61.29l1.46-3.14c1.34.87,3.39,1.46,5.24,1.46,2.02,0,2.77-.53,2.77-1.37,0-2.46-9.1.06-9.1-5.96,0-2.86,2.58-4.87,6.97-4.87,2.07,0,4.37.48,5.8,1.32l-1.46,3.11c-1.48-.84-2.97-1.12-4.34-1.12-1.96,0-2.8.62-2.8,1.4,0,2.58,9.1.08,9.1,6.02,0,2.8-2.6,4.79-7.11,4.79-2.55,0-5.12-.7-6.52-1.62v-.02Z"/>
    <path class="cls-10" d="m555.4,61.96c-.9.64-2.21.95-3.56.95-3.56,0-5.63-1.82-5.63-5.4v-6.19h-2.32v-3.36h2.32v-3.67h4.37v3.67h3.75v3.36h-3.75v6.13c0,1.29.7,1.99,1.88,1.99.64,0,1.29-.2,1.76-.56l1.18,3.08Z"/>
    <path class="cls-10" d="m567.22,47.4v4.03c-.36-.03-.64-.06-.98-.06-2.41,0-4,1.32-4,4.2v7.11h-4.37v-15.06h4.17v1.99c1.06-1.46,2.86-2.21,5.18-2.21Z"/>
    <path class="cls-10" d="m585.11,47.63v15.06h-4.14v-1.79c-1.15,1.32-2.83,2.02-4.68,2.02-3.78,0-6.44-2.13-6.44-6.78v-8.51h4.37v7.87c0,2.52,1.12,3.64,3.05,3.64s3.47-1.29,3.47-4.06v-7.45h4.37Z"/>
    <path class="cls-10" d="m598.89,61.96c-.9.64-2.21.95-3.56.95-3.56,0-5.63-1.82-5.63-5.4v-6.19h-2.32v-3.36h2.32v-3.67h4.37v3.67h3.75v3.36h-3.75v6.13c0,1.29.7,1.99,1.88,1.99.64,0,1.29-.2,1.76-.56l1.18,3.08Z"/>
    <path class="cls-10" d="m616.53,47.63v15.06h-4.14v-1.79c-1.15,1.32-2.83,2.02-4.68,2.02-3.78,0-6.44-2.13-6.44-6.78v-8.51h4.37v7.87c0,2.52,1.12,3.64,3.05,3.64s3.47-1.29,3.47-4.06v-7.45h4.37Z"/>
    <path class="cls-10" d="m629.94,47.4v4.03c-.36-.03-.64-.06-.98-.06-2.41,0-4,1.32-4,4.2v7.11h-4.37v-15.06h4.17v1.99c1.06-1.46,2.86-2.21,5.18-2.21Z"/>
    <path class="cls-10" d="m645.79,54.09v8.6h-4.09v-1.88c-.81,1.37-2.38,2.1-4.59,2.1-3.53,0-5.63-1.96-5.63-4.56s1.88-4.51,6.47-4.51h3.47c0-1.88-1.12-2.97-3.47-2.97-1.6,0-3.25.53-4.34,1.4l-1.57-3.05c1.65-1.18,4.09-1.82,6.5-1.82,4.59,0,7.25,2.13,7.25,6.69h0Zm-4.37,3.84v-1.54h-3c-2.04,0-2.69.76-2.69,1.76,0,1.09.92,1.82,2.46,1.82,1.46,0,2.72-.67,3.22-2.04h.01Z"/>
    <path class="cls-10" d="m665.13,54.07v8.62h-4.37v-7.95c0-2.44-1.12-3.56-3.05-3.56-2.1,0-3.61,1.29-3.61,4.06v7.45h-4.37v-15.06h4.17v1.76c1.18-1.29,2.94-1.99,4.98-1.99,3.56,0,6.24,2.07,6.24,6.66h.01Z"/>
    <path class="cls-10" d="m678.8,61.96c-.9.64-2.21.95-3.56.95-3.56,0-5.63-1.82-5.63-5.4v-6.19h-2.32v-3.36h2.32v-3.67h4.37v3.67h3.75v3.36h-3.75v6.13c0,1.29.7,1.99,1.88,1.99.64,0,1.29-.2,1.76-.56l1.18,3.08Z"/>
    <path class="cls-10" d="m695.46,56.39h-11.4c.42,1.88,2.02,3.02,4.31,3.02,1.6,0,2.74-.48,3.78-1.46l2.32,2.52c-1.4,1.6-3.5,2.44-6.22,2.44-5.21,0-8.6-3.28-8.6-7.76s3.44-7.76,8.04-7.76,7.84,2.97,7.84,7.81c0,.34-.06.81-.08,1.18h0Zm-11.45-2.54h7.42c-.31-1.9-1.74-3.14-3.7-3.14s-3.42,1.2-3.72,3.14Z"/>
    <path class="cls-10" d="m697,61.29l1.46-3.14c1.34.87,3.39,1.46,5.24,1.46,2.02,0,2.77-.53,2.77-1.37,0-2.46-9.1.06-9.1-5.96,0-2.86,2.58-4.87,6.97-4.87,2.07,0,4.37.48,5.8,1.32l-1.46,3.11c-1.48-.84-2.97-1.12-4.34-1.12-1.96,0-2.8.62-2.8,1.4,0,2.58,9.1.08,9.1,6.02,0,2.8-2.6,4.79-7.11,4.79-2.55,0-5.12-.7-6.52-1.62v-.02Z"/>
    <path class="cls-10" d="m726.03,47.96h3.86v3.36h-3.75v11.37h-4.37v-11.37h-2.32v-3.36h2.32v-.67c0-3.39,2.07-5.6,5.82-5.6,1.23,0,2.52.25,3.33.81l-1.15,3.16c-.48-.34-1.09-.53-1.76-.53-1.29,0-1.99.7-1.99,2.18v.64h.01Z"/>
    <path class="cls-10" d="m747.26,47.63v15.06h-4.14v-1.79c-1.15,1.32-2.83,2.02-4.68,2.02-3.78,0-6.44-2.13-6.44-6.78v-8.51h4.37v7.87c0,2.52,1.12,3.64,3.05,3.64s3.47-1.29,3.47-4.06v-7.45h4.37Z"/>
    <path class="cls-10" d="m766.72,54.07v8.62h-4.37v-7.95c0-2.44-1.12-3.56-3.05-3.56-2.1,0-3.61,1.29-3.61,4.06v7.45h-4.37v-15.06h4.17v1.76c1.18-1.29,2.94-1.99,4.98-1.99,3.56,0,6.24,2.07,6.24,6.66h.01Z"/>
    <path class="cls-10" d="m786.18,41.91v20.78h-4.17v-1.74c-1.09,1.32-2.69,1.96-4.7,1.96-4.26,0-7.53-3.02-7.53-7.76s3.28-7.76,7.53-7.76c1.85,0,3.42.59,4.51,1.82v-7.31h4.37-.01Zm-4.28,13.25c0-2.6-1.68-4.17-3.84-4.17s-3.86,1.57-3.86,4.17,1.68,4.17,3.86,4.17,3.84-1.57,3.84-4.17Z"/>
    <path class="cls-10" d="m803.54,54.09v8.6h-4.09v-1.88c-.81,1.37-2.38,2.1-4.59,2.1-3.53,0-5.63-1.96-5.63-4.56s1.88-4.51,6.47-4.51h3.47c0-1.88-1.12-2.97-3.47-2.97-1.6,0-3.25.53-4.34,1.4l-1.57-3.05c1.65-1.18,4.09-1.82,6.5-1.82,4.59,0,7.25,2.13,7.25,6.69h0Zm-4.37,3.84v-1.54h-3c-2.04,0-2.69.76-2.69,1.76,0,1.09.92,1.82,2.46,1.82,1.46,0,2.72-.67,3.22-2.04h.01Z"/>
    <path class="cls-10" d="m832.94,54.07v8.62h-4.37v-7.95c0-2.44-1.09-3.56-2.86-3.56-1.96,0-3.33,1.26-3.33,3.95v7.56h-4.37v-7.95c0-2.44-1.04-3.56-2.86-3.56-1.93,0-3.3,1.26-3.3,3.95v7.56h-4.37v-15.06h4.17v1.74c1.12-1.29,2.8-1.96,4.73-1.96,2.1,0,3.89.81,4.96,2.46,1.2-1.54,3.16-2.46,5.43-2.46,3.58,0,6.16,2.07,6.16,6.66h.01Z"/>
    <path class="cls-10" d="m851.7,56.39h-11.4c.42,1.88,2.02,3.02,4.31,3.02,1.6,0,2.74-.48,3.78-1.46l2.32,2.52c-1.4,1.6-3.5,2.44-6.22,2.44-5.21,0-8.6-3.28-8.6-7.76s3.44-7.76,8.04-7.76,7.84,2.97,7.84,7.81c0,.34-.06.81-.08,1.18h0Zm-11.45-2.54h7.42c-.31-1.9-1.74-3.14-3.7-3.14s-3.42,1.2-3.72,3.14Z"/>
    <path class="cls-10" d="m870.09,54.07v8.62h-4.37v-7.95c0-2.44-1.12-3.56-3.05-3.56-2.1,0-3.61,1.29-3.61,4.06v7.45h-4.37v-15.06h4.17v1.76c1.18-1.29,2.94-1.99,4.98-1.99,3.56,0,6.24,2.07,6.24,6.66h.01Z"/>
    <path class="cls-10" d="m883.76,61.96c-.9.64-2.21.95-3.56.95-3.56,0-5.63-1.82-5.63-5.4v-6.19h-2.32v-3.36h2.32v-3.67h4.37v3.67h3.75v3.36h-3.75v6.13c0,1.29.7,1.99,1.88,1.99.64,0,1.29-.2,1.76-.56l1.18,3.08Z"/>
    <path class="cls-10" d="m899.55,54.09v8.6h-4.09v-1.88c-.81,1.37-2.38,2.1-4.59,2.1-3.53,0-5.63-1.96-5.63-4.56s1.88-4.51,6.47-4.51h3.47c0-1.88-1.12-2.97-3.47-2.97-1.6,0-3.25.53-4.34,1.4l-1.57-3.05c1.65-1.18,4.09-1.82,6.5-1.82,4.59,0,7.25,2.13,7.25,6.69h0Zm-4.37,3.84v-1.54h-3c-2.04,0-2.69.76-2.69,1.76,0,1.09.92,1.82,2.46,1.82,1.46,0,2.72-.67,3.22-2.04h.01Z"/>
    <path class="cls-10" d="m902.96,43.09c0-1.37,1.09-2.44,2.72-2.44s2.72,1.01,2.72,2.35c0,1.46-1.09,2.52-2.72,2.52s-2.72-1.06-2.72-2.44h0Zm.53,4.55h4.37v15.06h-4.37v-15.06Z"/>
    <path class="cls-10" d="m910.47,61.29l1.46-3.14c1.34.87,3.39,1.46,5.24,1.46,2.02,0,2.77-.53,2.77-1.37,0-2.46-9.1.06-9.1-5.96,0-2.86,2.58-4.87,6.97-4.87,2.07,0,4.37.48,5.8,1.32l-1.46,3.11c-1.48-.84-2.97-1.12-4.34-1.12-1.96,0-2.8.62-2.8,1.4,0,2.58,9.1.08,9.1,6.02,0,2.8-2.6,4.79-7.11,4.79-2.55,0-5.12-.7-6.52-1.62v-.02Z"/>
  </g>
  <g id="Grupo_2936" data-name="Grupo 2936">
    <rect id="Retângulo_440" data-name="Retângulo 440" class="cls-13" x="272.67" y="170.8" width="83.1" height="98.65"/>
    <path id="Caminho_11032" data-name="Caminho 11032" class="cls-6" d="m272.67,269.45v-98.65h0c-6.16,0-11.16,4.99-11.16,11.16h0v87.49h0v5.31c0,3.91,3.17,7.09,7.09,7.09h87.18v-12.4h-83.11Z"/>
    <path id="Caminho_11033" data-name="Caminho 11033" class="cls-5" d="m263.21,274.65h0c0-2.87,2.33-5.21,5.21-5.21h87.35v10.41h-87.35c-2.87,0-5.21-2.33-5.21-5.21h0Z"/>
    <path id="Caminho_11034" data-name="Caminho 11034" class="cls-3" d="m287.1,289.11l-6.49-4.98-6.49,4.98v-14.46h12.98v14.46h0Z"/>
    <path id="Caminho_11035" data-name="Caminho 11035" class="cls-9" d="m355.77,169.54h-11.71c-.69,0-1.26.56-1.25,1.26,0,.69.56,1.25,1.25,1.25h10.45v9.19c0,.69.56,1.26,1.26,1.26s1.26-.56,1.26-1.26v-11.71h-1.26Z"/>
    <path id="Caminho_11036" data-name="Caminho 11036" class="cls-9" d="m355.77,270.92h-11.71c-.69,0-1.26-.56-1.25-1.26,0-.69.56-1.25,1.25-1.25h10.45v-9.19c0-.69.56-1.26,1.26-1.26s1.26.56,1.26,1.26v11.71h-1.26Z"/>
    <path id="Caminho_11037" data-name="Caminho 11037" class="cls-5" d="m339.68,204.63c-.18-.33-.59-.46-.93-.28-2.15,1.21-4.58,1.83-7.05,1.8-5.37-.16-10.83-3.87-12.5-5.54l-.03-.03c-.29-.3-.6-.57-.93-.82.07-.3.11-.61.11-.92,0-2.29-1.85-4.15-4.13-4.16s-4.15,1.85-4.16,4.13c0,.32.03.63.11.94-.33.25-.64.52-.93.82l-.03.03c-1.66,1.67-7.12,5.39-12.5,5.54-2.47.03-4.9-.59-7.05-1.8-.33-.18-.75-.05-.93.28s-.05.75.28.93c2.26,1.26,4.8,1.93,7.39,1.96h0l-3.83,11.39.17.05h-1.78c-.76,0-1.37.61-1.37,1.37h0v.75c0,3.93,3.2,7.11,7.13,7.11s7.1-3.18,7.11-7.11v-.75c0-.76-.61-1.37-1.37-1.37h-2.02l.16-.05-3.83-11.38h0c6.41-.2,12.2-4.75,13.4-5.95l.03-.03c.16-.17.33-.33.51-.47.63.99,1.65,1.67,2.81,1.86v35.99h-4.16c-3.03,0-5.48,2.45-5.48,5.48h0c0,.65.52,1.17,1.16,1.17h18.32c.64,0,1.16-.52,1.17-1.16h0c0-3.03-2.45-5.49-5.48-5.49h-4.17v-35.99c1.16-.19,2.18-.87,2.81-1.86.24.2.41.38.51.47l.03.03c1.19,1.19,6.85,5.63,13.17,5.93v.02l-3.82,11.38.17.05h-1.78c-.76,0-1.37.61-1.37,1.37h0v.75c0,3.93,3.19,7.11,7.12,7.12h0c3.93,0,7.11-3.19,7.12-7.12v-.75c0-.76-.61-1.37-1.37-1.37h-2.02l.16-.05-3.83-11.38h.29c2.57-.04,5.09-.71,7.33-1.96.33-.18.46-.59.28-.93h.03-.03Zm-39.41,14.32h-7.34l3.67-10.9,3.67,10.9h0Zm35,0h-7.34l3.67-10.9,3.67,10.9h0Z"/>
  </g>
  <path class="cls-1" d="m975.92,191.88v80.77h39.56c.42,0,.76.34.76.77v8.55c0,.42-.34.77-.76.77h-87.05c-.42,0-.77-.34-.77-.77v-8.55c0-.42.34-.77.77-.77h39.56v-80.74c-3.44-1.2-6.17-3.92-7.37-7.36h-25.02v3.81c0,.42-.34.76-.76.76h-6.42c-.42,0-.77-.34-.77-.76v-3.81h-6.36c-.49,0-.89-.34-.89-.76v-6.43c0-.42.4-.77.89-.77h39.34c1.64-4.62,6.06-7.94,11.26-7.94s9.62,3.32,11.26,7.95h39.45c.49,0,.89.34.89.77v6.42c0,.42-.4.76-.89.76h-7.17v3.81c0,.42-.34.76-.76.76h-6.42c-.42,0-.77-.34-.77-.76v-3.81h-24.31c-1.19,3.41-3.88,6.11-7.27,7.33h.02Zm37.81,1.54l25.44,44.95c.22.39.32.81.31,1.22h.02v.17c0,10.7-12.6,19.39-28.15,19.39s-27.87-8.49-28.14-19.04c-.04-.18-.07-.38-.07-.57,0-.49.16-.95.41-1.33l26.02-44.89c.66-1.13,2.1-1.52,3.23-.87.41.26.72.59.92.98h.01Zm.1,9.77v33.98h19.23l-19.23-33.98h0Zm-4.53,33.97v-33.91l-19.66,33.91h19.66Zm-75.65-43.75l25.44,44.95c.22.39.32.81.31,1.22h.02v.17c0,10.7-12.6,19.39-28.15,19.39s-27.87-8.49-28.14-19.04c-.04-.17-.07-.36-.07-.56,0-.49.16-.95.41-1.33l26.02-44.89c.66-1.13,2.1-1.52,3.23-.87.41.24.72.58.92.97h.01Zm.1,9.77v33.98h19.23l-19.23-33.98h0Zm-4.54,33.97v-33.91l-19.65,33.91h19.65Zm42.69-61.77c2.88,0,5.21,2.33,5.21,5.21s-2.33,5.21-5.21,5.21-5.21-2.33-5.21-5.21,2.33-5.21,5.21-5.21h0Z"/>
  <g>
    <path class="cls-4" d="m760.63,173.1c0-11.75,6.51-18.42,15.27-18.42s15.27,6.67,15.27,18.42-6.46,18.42-15.27,18.42-15.27-6.67-15.27-18.42Zm22.24,0c0-8.09-2.85-11.45-6.97-11.45s-6.92,3.36-6.92,11.45,2.85,11.45,6.92,11.45,6.97-3.36,6.97-11.45Z"/>
    <path class="cls-4" d="m821.48,184.2v6.72h-26.92v-5.34l13.74-12.98c3.16-3,3.71-4.83,3.71-6.56,0-2.8-1.93-4.43-5.7-4.43-3.05,0-5.65,1.17-7.38,3.56l-6-3.87c2.75-4.02,7.74-6.62,14.15-6.62,7.94,0,13.23,4.07,13.23,10.53,0,3.46-.97,6.62-5.95,11.25l-8.19,7.73h15.32Z"/>
  </g>
</svg>