<?xml version="1.0" encoding="utf-8"?>
<!-- Generator: Adobe Illustrator 27.2.0, SVG Export Plug-In . SVG Version: 6.00 Build 0)  -->
<svg version="1.1" id="Layer_1" xmlns="http://www.w3.org/2000/svg" xmlns:xlink="http://www.w3.org/1999/xlink" x="0px" y="0px"
	 viewBox="0 0 677.7 258.4" style="enable-background:new 0 0 677.7 258.4;" xml:space="preserve">
<style type="text/css">
	.st0{fill:none;stroke:#007E80;stroke-miterlimit:10;}
	.st1{fill:#007E80;}
	.st2{fill:#FFFFFF;}
</style>
<g>
	<g>
		<rect x="20.5" y="87.5" class="st0" width="653.7" height="113.9"/>
		<rect x="3.4" y="56.9" class="st1" width="661.4" height="131.3"/>
	</g>
	<g>
		<path class="st2" d="M127.5,116.2h-3l-3.7-7.5h4.7L127.5,116.2z M134.4,116.2h-3l-3.7-7.5h4.7L134.4,116.2z"/>
		<path class="st2" d="M154.9,121.6c0,2.3-0.7,4.1-2.1,5.4s-3.5,1.9-6.3,1.9s-4.9-0.6-6.3-1.9s-2.1-3-2.1-5.4v-12.1h4.9v11.8
			c0,1.3,0.3,2.3,0.8,2.9s1.4,1,2.7,1c1.2,0,2.1-0.3,2.7-0.9s0.8-1.6,0.8-3v-11.8h4.9V121.6z"/>
		<path class="st2" d="M173.2,118.3v10.1h-4.6v-7.1c0-0.7,0-1.3-0.1-1.8c0-0.5-0.1-0.9-0.3-1.2s-0.4-0.5-0.7-0.7
			c-0.3-0.1-0.7-0.2-1.3-0.2c-0.4,0-0.9,0.1-1.3,0.3c-0.4,0.2-0.8,0.4-1.1,0.6v10.1h-4.6v-14.3h4.6v1.6c0.8-0.6,1.5-1.1,2.3-1.4
			c0.7-0.3,1.5-0.5,2.4-0.5c0.9,0,1.8,0.2,2.5,0.6c0.7,0.4,1.3,1,1.7,1.8c0.9-0.8,1.8-1.4,2.7-1.8c0.9-0.4,1.7-0.7,2.5-0.7
			c1.5,0,2.7,0.5,3.5,1.4c0.8,0.9,1.2,2.3,1.2,4v9.3h-4.6v-7.1c0-0.7,0-1.3,0-1.8s-0.1-0.9-0.3-1.2c-0.1-0.3-0.4-0.5-0.7-0.7
			c-0.3-0.1-0.8-0.2-1.3-0.2c-0.4,0-0.8,0.1-1.1,0.2C174.1,117.8,173.7,118,173.2,118.3z"/>
		<path class="st2" d="M208,123.9c0,1.5-0.7,2.7-2,3.6c-1.3,0.9-3.1,1.4-5.4,1.4c-1.3,0-2.4-0.1-3.5-0.4s-1.9-0.5-2.5-0.8v-3.8h0.4
			c0.2,0.2,0.5,0.3,0.8,0.5c0.3,0.2,0.7,0.4,1.3,0.6c0.5,0.2,1,0.4,1.6,0.5c0.6,0.1,1.2,0.2,1.9,0.2c0.9,0,1.6-0.1,2-0.3
			c0.4-0.2,0.6-0.5,0.6-0.9c0-0.3-0.1-0.6-0.4-0.8c-0.3-0.2-0.7-0.3-1.4-0.5c-0.3-0.1-0.8-0.2-1.4-0.2c-0.6-0.1-1.1-0.2-1.6-0.3
			c-1.3-0.3-2.3-0.9-2.9-1.6c-0.6-0.7-0.9-1.6-0.9-2.7c0-1.4,0.6-2.5,1.9-3.4c1.3-0.9,3.1-1.4,5.3-1.4c1.1,0,2.1,0.1,3.1,0.3
			c1,0.2,1.7,0.4,2.3,0.7v3.6H207c-0.7-0.5-1.4-0.8-2.3-1.1c-0.9-0.3-1.7-0.4-2.6-0.4c-0.7,0-1.4,0.1-1.9,0.3s-0.8,0.5-0.8,0.9
			c0,0.3,0.1,0.6,0.3,0.8s0.8,0.4,1.6,0.5c0.5,0.1,1,0.2,1.5,0.3c0.5,0.1,1.1,0.2,1.6,0.3c1.2,0.3,2.1,0.8,2.7,1.5
			C207.7,122.1,208,122.9,208,123.9z"/>
		<path class="st2" d="M225.6,121.3c0,2.3-0.7,4.2-2.1,5.5c-1.4,1.3-3.3,2-5.8,2s-4.4-0.7-5.8-2c-1.4-1.4-2.1-3.2-2.1-5.5
			c0-2.4,0.7-4.2,2.1-5.6s3.3-2,5.7-2c2.5,0,4.4,0.7,5.8,2S225.6,119,225.6,121.3z M222.3,107.2v0.3l-4.5,4.7h-3.1l3.1-5H222.3z
			 M220,124.8c0.3-0.4,0.5-0.8,0.7-1.3c0.1-0.5,0.2-1.2,0.2-2.1c0-0.8-0.1-1.5-0.2-2.1s-0.4-1-0.6-1.4c-0.3-0.3-0.6-0.6-1-0.7
			s-0.8-0.2-1.2-0.2s-0.8,0.1-1.2,0.2s-0.7,0.4-1,0.7c-0.3,0.3-0.5,0.8-0.7,1.4s-0.2,1.3-0.2,2.2c0,0.8,0.1,1.5,0.2,2
			c0.1,0.6,0.4,1,0.6,1.4c0.3,0.3,0.6,0.6,1,0.7s0.8,0.2,1.3,0.2c0.4,0,0.8-0.1,1.2-0.2C219.4,125.4,219.7,125.1,220,124.8z"/>
		<path class="st2" d="M252.7,121.1c0,1.2-0.2,2.2-0.5,3.2s-0.8,1.8-1.4,2.4c-0.6,0.7-1.3,1.2-2.1,1.5s-1.6,0.5-2.5,0.5
			c-0.8,0-1.5-0.1-2.1-0.3c-0.6-0.2-1.1-0.4-1.7-0.7v5.9h-4.6v-19.5h4.6v1.5c0.7-0.6,1.4-1,2.1-1.4c0.7-0.3,1.6-0.5,2.5-0.5
			c1.8,0,3.2,0.7,4.1,2C252.2,117.1,252.7,118.8,252.7,121.1z M248,121.2c0-1.4-0.2-2.4-0.7-3c-0.5-0.6-1.2-0.9-2.2-0.9
			c-0.4,0-0.9,0.1-1.3,0.2s-0.9,0.3-1.3,0.6v7.2c0.3,0.1,0.6,0.2,1,0.2c0.3,0,0.7,0.1,1,0.1c1.2,0,2.1-0.4,2.7-1.1
			C247.7,123.7,248,122.6,248,121.2z"/>
		<path class="st2" d="M270.5,121.3c0,2.3-0.7,4.2-2.1,5.5c-1.4,1.3-3.3,2-5.8,2s-4.4-0.7-5.8-2c-1.4-1.4-2.1-3.2-2.1-5.5
			c0-2.4,0.7-4.2,2.1-5.6c1.4-1.3,3.3-2,5.7-2c2.5,0,4.4,0.7,5.8,2C269.9,117.1,270.5,119,270.5,121.3z M264.9,124.8
			c0.3-0.4,0.5-0.8,0.7-1.3c0.1-0.5,0.2-1.2,0.2-2.1c0-0.8-0.1-1.5-0.2-2.1s-0.4-1-0.6-1.4c-0.3-0.3-0.6-0.6-1-0.7s-0.8-0.2-1.2-0.2
			s-0.8,0.1-1.2,0.2c-0.3,0.1-0.7,0.4-1,0.7c-0.3,0.3-0.5,0.8-0.7,1.4c-0.2,0.6-0.2,1.3-0.2,2.2c0,0.8,0.1,1.5,0.2,2
			c0.1,0.6,0.4,1,0.6,1.4c0.3,0.3,0.6,0.6,1,0.7c0.4,0.2,0.8,0.2,1.3,0.2c0.4,0,0.8-0.1,1.2-0.2
			C264.3,125.4,264.7,125.1,264.9,124.8z"/>
		<path class="st2" d="M287.7,128.4h-4.6V127c-0.8,0.6-1.5,1.1-2.2,1.4c-0.7,0.3-1.5,0.5-2.4,0.5c-1.7,0-3.1-0.7-4.2-2
			s-1.6-3.1-1.6-5.4c0-1.2,0.2-2.3,0.5-3.2c0.4-0.9,0.8-1.7,1.4-2.4c0.6-0.6,1.3-1.1,2.1-1.5c0.8-0.4,1.6-0.5,2.5-0.5
			c0.9,0,1.6,0.1,2.1,0.3c0.5,0.2,1.1,0.4,1.7,0.7v-6.1h4.6V128.4z M283.1,124.5v-7c-0.3-0.1-0.7-0.2-1-0.3c-0.4-0.1-0.7-0.1-1-0.1
			c-1.2,0-2.1,0.4-2.7,1.1c-0.6,0.8-0.9,1.8-0.9,3.1c0,1.4,0.2,2.4,0.7,3s1.3,0.9,2.3,0.9c0.4,0,0.9-0.1,1.3-0.2
			C282.3,125,282.7,124.8,283.1,124.5z"/>
		<path class="st2" d="M306,122.2h-10.5c0.1,1.1,0.5,2,1.3,2.6c0.8,0.6,1.9,0.9,3.5,0.9c1,0,1.9-0.2,2.8-0.5s1.6-0.7,2.1-1.1h0.5
			v3.7c-1,0.4-2,0.7-2.9,0.9s-1.9,0.3-3,0.3c-2.9,0-5.1-0.6-6.6-1.9s-2.3-3.1-2.3-5.5c0-2.4,0.7-4.2,2.2-5.6
			c1.4-1.4,3.4-2.1,5.9-2.1c2.3,0,4.1,0.6,5.2,1.8c1.2,1.2,1.8,2.9,1.8,5.1V122.2z M301.5,119.5c0-1-0.3-1.7-0.7-2.2
			s-1.1-0.7-2.1-0.7c-0.9,0-1.6,0.2-2.2,0.7s-0.9,1.2-1,2.2H301.5z"/>
		<path class="st2" d="M319.6,118.5h-0.4c-0.2-0.1-0.5-0.1-0.9-0.2s-0.8-0.1-1.1-0.1c-0.6,0-1.2,0-1.7,0.1c-0.5,0.1-1,0.2-1.6,0.4
			v9.5h-4.6v-14.3h4.6v2.1c1-0.9,1.9-1.4,2.6-1.7c0.7-0.3,1.4-0.4,2.1-0.4c0.2,0,0.3,0,0.5,0c0.2,0,0.4,0,0.5,0V118.5z"/>
		<path class="st2" d="M328.4,123.5l-4.6,9.7H321l2.5-9.7H328.4z M327.6,119.2h-4.7v-5h4.7V119.2z"/>
		<path class="st2" d="M355.7,128.4h-4.6v-1.6c-0.8,0.6-1.6,1.1-2.3,1.5c-0.7,0.3-1.5,0.5-2.5,0.5c-1.6,0-2.8-0.5-3.6-1.4
			c-0.8-0.9-1.3-2.2-1.3-4v-9.3h4.6v7.1c0,0.7,0,1.3,0.1,1.8c0,0.5,0.2,0.9,0.3,1.2c0.2,0.3,0.4,0.5,0.7,0.7
			c0.3,0.1,0.8,0.2,1.4,0.2c0.4,0,0.8-0.1,1.3-0.2s0.9-0.4,1.4-0.6v-10.1h4.6V128.4z"/>
		<path class="st2" d="M374,118.3v10.1h-4.6v-7.1c0-0.7,0-1.3-0.1-1.8c0-0.5-0.1-0.9-0.3-1.2s-0.4-0.5-0.7-0.7
			c-0.3-0.1-0.7-0.2-1.3-0.2c-0.4,0-0.9,0.1-1.3,0.3c-0.4,0.2-0.8,0.4-1.1,0.6v10.1H360v-14.3h4.6v1.6c0.8-0.6,1.5-1.1,2.3-1.4
			s1.5-0.5,2.4-0.5c0.9,0,1.8,0.2,2.5,0.6c0.7,0.4,1.3,1,1.7,1.8c0.9-0.8,1.8-1.4,2.7-1.8c0.9-0.4,1.7-0.7,2.5-0.7
			c1.5,0,2.7,0.5,3.5,1.4s1.2,2.3,1.2,4v9.3h-4.6v-7.1c0-0.7,0-1.3,0-1.8c0-0.5-0.1-0.9-0.3-1.2c-0.1-0.3-0.4-0.5-0.7-0.7
			c-0.3-0.1-0.8-0.2-1.3-0.2c-0.4,0-0.8,0.1-1.1,0.2C375,117.8,374.5,118,374,118.3z"/>
		<path class="st2" d="M408.8,123.9c0,1.5-0.7,2.7-2,3.6c-1.3,0.9-3.1,1.4-5.4,1.4c-1.3,0-2.4-0.1-3.5-0.4s-1.9-0.5-2.5-0.8v-3.8
			h0.4c0.2,0.2,0.5,0.3,0.8,0.5c0.3,0.2,0.7,0.4,1.3,0.6c0.5,0.2,1,0.4,1.6,0.5c0.6,0.1,1.2,0.2,1.9,0.2c0.9,0,1.6-0.1,2-0.3
			c0.4-0.2,0.6-0.5,0.6-0.9c0-0.3-0.1-0.6-0.4-0.8c-0.3-0.2-0.7-0.3-1.4-0.5c-0.3-0.1-0.8-0.2-1.4-0.2c-0.6-0.1-1.1-0.2-1.6-0.3
			c-1.3-0.3-2.3-0.9-2.9-1.6c-0.6-0.7-0.9-1.6-0.9-2.7c0-1.4,0.6-2.5,1.9-3.4c1.3-0.9,3.1-1.4,5.3-1.4c1.1,0,2.1,0.1,3.1,0.3
			c1,0.2,1.7,0.4,2.3,0.7v3.6h-0.4c-0.7-0.5-1.4-0.8-2.3-1.1c-0.9-0.3-1.7-0.4-2.6-0.4c-0.7,0-1.4,0.1-1.9,0.3
			c-0.5,0.2-0.8,0.5-0.8,0.9c0,0.3,0.1,0.6,0.3,0.8s0.8,0.4,1.6,0.5c0.5,0.1,1,0.2,1.5,0.3c0.5,0.1,1.1,0.2,1.6,0.3
			c1.2,0.3,2.1,0.8,2.7,1.5C408.6,122.1,408.8,122.9,408.8,123.9z"/>
		<path class="st2" d="M426.5,121.3c0,2.3-0.7,4.2-2.1,5.5c-1.4,1.3-3.3,2-5.8,2s-4.4-0.7-5.8-2c-1.4-1.4-2.1-3.2-2.1-5.5
			c0-2.4,0.7-4.2,2.1-5.6c1.4-1.3,3.3-2,5.7-2c2.5,0,4.4,0.7,5.8,2C425.8,117.1,426.5,119,426.5,121.3z M423.1,107.2v0.3l-4.5,4.7
			h-3.1l3.1-5H423.1z M420.8,124.8c0.3-0.4,0.5-0.8,0.7-1.3c0.1-0.5,0.2-1.2,0.2-2.1c0-0.8-0.1-1.5-0.2-2.1s-0.4-1-0.6-1.4
			c-0.3-0.3-0.6-0.6-1-0.7s-0.8-0.2-1.2-0.2s-0.8,0.1-1.2,0.2c-0.3,0.1-0.7,0.4-1,0.7c-0.3,0.3-0.5,0.8-0.7,1.4
			c-0.2,0.6-0.2,1.3-0.2,2.2c0,0.8,0.1,1.5,0.2,2c0.1,0.6,0.4,1,0.6,1.4c0.3,0.3,0.6,0.6,1,0.7c0.4,0.2,0.8,0.2,1.3,0.2
			c0.4,0,0.8-0.1,1.2-0.2C420.2,125.4,420.6,125.1,420.8,124.8z"/>
		<path class="st2" d="M452.5,128.4h-4.6V127c-0.8,0.6-1.5,1.1-2.2,1.4c-0.7,0.3-1.5,0.5-2.4,0.5c-1.7,0-3.1-0.7-4.2-2
			s-1.6-3.1-1.6-5.4c0-1.2,0.2-2.3,0.5-3.2c0.4-0.9,0.8-1.7,1.4-2.4c0.6-0.6,1.3-1.1,2.1-1.5c0.8-0.4,1.6-0.5,2.5-0.5
			c0.9,0,1.6,0.1,2.1,0.3c0.5,0.2,1.1,0.4,1.7,0.7v-6.1h4.6V128.4z M447.9,124.5v-7c-0.3-0.1-0.7-0.2-1-0.3c-0.4-0.1-0.7-0.1-1-0.1
			c-1.2,0-2.1,0.4-2.7,1.1c-0.6,0.8-0.9,1.8-0.9,3.1c0,1.4,0.2,2.4,0.7,3s1.3,0.9,2.3,0.9c0.4,0,0.9-0.1,1.3-0.2
			C447.1,125,447.5,124.8,447.9,124.5z"/>
		<path class="st2" d="M461.5,112.2h-4.8v-3.5h4.8V112.2z M461.4,128.4h-4.6v-14.3h4.6V128.4z"/>
		<path class="st2" d="M476,118.5h-0.4c-0.2-0.1-0.5-0.1-0.9-0.2s-0.8-0.1-1.1-0.1c-0.6,0-1.2,0-1.7,0.1c-0.5,0.1-1,0.2-1.6,0.4v9.5
			h-4.6v-14.3h4.6v2.1c1-0.9,1.9-1.4,2.6-1.7c0.7-0.3,1.4-0.4,2.1-0.4c0.2,0,0.3,0,0.5,0c0.2,0,0.4,0,0.5,0V118.5z"/>
		<path class="st2" d="M492.6,122.2h-10.5c0.1,1.1,0.5,2,1.3,2.6c0.8,0.6,1.9,0.9,3.5,0.9c1,0,1.9-0.2,2.8-0.5s1.6-0.7,2.1-1.1h0.5
			v3.7c-1,0.4-2,0.7-2.9,0.9s-1.9,0.3-3,0.3c-2.9,0-5.1-0.6-6.6-1.9s-2.3-3.1-2.3-5.5c0-2.4,0.7-4.2,2.2-5.6
			c1.4-1.4,3.4-2.1,5.9-2.1c2.3,0,4.1,0.6,5.2,1.8c1.2,1.2,1.8,2.9,1.8,5.1V122.2z M488.1,119.5c0-1-0.3-1.7-0.7-2.2
			s-1.1-0.7-2.1-0.7c-0.9,0-1.6,0.2-2.2,0.7s-0.9,1.2-1,2.2H488.1z"/>
		<path class="st2" d="M500.6,112.2h-4.8v-3.5h4.8V112.2z M500.5,128.4h-4.6v-14.3h4.6V128.4z"/>
		<path class="st2" d="M513.9,128.3c-0.5,0.1-1,0.2-1.6,0.3c-0.5,0.1-1.2,0.1-2,0.1c-1.8,0-3.1-0.4-4-1.1c-0.9-0.7-1.3-2-1.3-3.7
			v-6.7h-1.9v-3.1h1.9v-4.1h4.6v4.1h4.3v3.1h-4.3v5.1c0,0.5,0,0.9,0,1.3s0.1,0.7,0.2,1c0.1,0.3,0.3,0.5,0.6,0.7s0.7,0.3,1.3,0.3
			c0.2,0,0.5-0.1,0.9-0.2s0.7-0.2,0.8-0.3h0.4V128.3z"/>
		<path class="st2" d="M531.2,121.3c0,2.3-0.7,4.2-2.1,5.5c-1.4,1.3-3.3,2-5.8,2s-4.4-0.7-5.8-2c-1.4-1.4-2.1-3.2-2.1-5.5
			c0-2.4,0.7-4.2,2.1-5.6c1.4-1.3,3.3-2,5.7-2c2.5,0,4.4,0.7,5.8,2C530.5,117.1,531.2,119,531.2,121.3z M525.6,124.8
			c0.3-0.4,0.5-0.8,0.7-1.3c0.1-0.5,0.2-1.2,0.2-2.1c0-0.8-0.1-1.5-0.2-2.1s-0.4-1-0.6-1.4c-0.3-0.3-0.6-0.6-1-0.7s-0.8-0.2-1.2-0.2
			s-0.8,0.1-1.2,0.2c-0.3,0.1-0.7,0.4-1,0.7c-0.3,0.3-0.5,0.8-0.7,1.4c-0.2,0.6-0.2,1.3-0.2,2.2c0,0.8,0.1,1.5,0.2,2
			c0.1,0.6,0.4,1,0.6,1.4c0.3,0.3,0.6,0.6,1,0.7c0.4,0.2,0.8,0.2,1.3,0.2c0.4,0,0.8-0.1,1.2-0.2C525,125.4,525.3,125.1,525.6,124.8z
			"/>
		<path class="st2" d="M539.4,128.4h-4.7v-5h4.7V128.4z"/>
		<path class="st2" d="M549.9,108.7l-3.7,7.5h-3l2-7.5H549.9z M556.8,108.7l-3.7,7.5h-3l2-7.5H556.8z"/>
	</g>
</g>
</svg>
