<?xml version="1.0" encoding="UTF-8"?>
<svg id="Camada_2" data-name="Camada 2" xmlns="http://www.w3.org/2000/svg" viewBox="0 0 1482.97 304.99">
  <defs>
    <style>
      .cls-1 {
        fill: #0b8969;
      }

      .cls-2 {
        fill: #f3f3f3;
      }

      .cls-3 {
        fill: #231f20;
      }
    </style>
  </defs>
  <g id="Layer_1" data-name="Layer 1">
    <g>
      <rect class="cls-2" width="1353.24" height="304.99"/>
      <rect class="cls-1" x="1353.24" width="129.73" height="304.99"/>
      <g>
        <path class="cls-3" d="m67.87,113.69c0-6.24,4.86-10.86,11.49-10.86s11.49,4.59,11.49,10.86-4.89,10.86-11.49,10.86-11.49-4.62-11.49-10.86Zm18.06,0c0-3.99-2.82-6.72-6.57-6.72s-6.57,2.73-6.57,6.72,2.82,6.72,6.57,6.72,6.57-2.73,6.57-6.72Z"/>
        <path class="cls-3" d="m111.76,116.12c0,5.07-3.51,8.31-8.04,8.31-2.16,0-3.9-.69-5.07-2.1v1.86h-4.47v-22.26h4.68v7.83c1.2-1.32,2.85-1.95,4.86-1.95,4.53,0,8.04,3.24,8.04,8.31Zm-4.74,0c0-2.79-1.77-4.47-4.11-4.47s-4.11,1.68-4.11,4.47,1.77,4.47,4.11,4.47,4.11-1.68,4.11-4.47Z"/>
        <path class="cls-3" d="m125.29,123.41c-.96.69-2.37,1.02-3.81,1.02-3.81,0-6.03-1.95-6.03-5.79v-6.63h-2.49v-3.6h2.49v-3.93h4.68v3.93h4.02v3.6h-4.02v6.57c0,1.38.75,2.13,2.01,2.13.69,0,1.38-.21,1.89-.6l1.26,3.3Z"/>
        <path class="cls-3" d="m143.14,117.44h-12.21c.45,2.01,2.16,3.24,4.62,3.24,1.71,0,2.94-.51,4.05-1.56l2.49,2.7c-1.5,1.71-3.75,2.61-6.66,2.61-5.58,0-9.21-3.51-9.21-8.31s3.69-8.31,8.61-8.31,8.4,3.18,8.4,8.37c0,.36-.06.87-.09,1.26Zm-12.27-2.73h7.95c-.33-2.04-1.86-3.36-3.96-3.36s-3.66,1.29-3.99,3.36Z"/>
        <path class="cls-3" d="m162.85,114.95v9.24h-4.68v-8.52c0-2.61-1.2-3.81-3.27-3.81-2.25,0-3.87,1.38-3.87,4.35v7.98h-4.68v-16.14h4.47v1.89c1.26-1.38,3.15-2.13,5.34-2.13,3.81,0,6.69,2.22,6.69,7.14Z"/>
        <path class="cls-3" d="m178.66,118.37l3.63,1.98c-1.11,2.49-3.63,3.96-6.84,4.08l-.3,1.26c1.83.21,2.61,1.26,2.61,2.49,0,1.83-1.74,2.97-4.41,2.97-1.05,0-2.1-.24-2.79-.63l.72-2.01c.57.27,1.23.45,1.95.45,1.11,0,1.56-.39,1.56-.96,0-.51-.42-.87-1.47-.87h-1.02l.72-2.88c-4.17-.78-6.96-3.93-6.96-8.13,0-4.86,3.75-8.31,9-8.31,3.39,0,6.06,1.47,7.23,4.11l-3.63,1.95c-.87-1.53-2.16-2.22-3.63-2.22-2.37,0-4.23,1.65-4.23,4.47s1.86,4.47,4.23,4.47c1.47,0,2.76-.66,3.63-2.22Z"/>
        <path class="cls-3" d="m199.27,114.98v9.21h-4.38v-2.01c-.87,1.47-2.55,2.25-4.92,2.25-3.78,0-6.03-2.1-6.03-4.89s2.01-4.83,6.93-4.83h3.72c0-2.01-1.2-3.18-3.72-3.18-1.71,0-3.48.57-4.65,1.5l-1.68-3.27c1.77-1.26,4.38-1.95,6.96-1.95,4.92,0,7.77,2.28,7.77,7.17Zm-10.68-9.12h-2.37c.06-2.67,1.41-4.38,3.51-4.38s3.12,1.92,4.2,1.92c.81,0,1.38-.63,1.44-1.62h2.37c-.06,2.58-1.41,4.29-3.51,4.29s-3.12-1.89-4.2-1.89c-.81,0-1.38.6-1.44,1.68Zm6,13.23v-1.65h-3.21c-2.19,0-2.88.81-2.88,1.89,0,1.17.99,1.95,2.64,1.95,1.56,0,2.91-.72,3.45-2.19Z"/>
        <path class="cls-3" d="m202.48,116.12c0-4.86,3.75-8.31,8.88-8.31s8.85,3.45,8.85,8.31-3.72,8.31-8.85,8.31-8.88-3.45-8.88-8.31Zm12.99,0c0-2.79-1.77-4.47-4.11-4.47s-4.14,1.68-4.14,4.47,1.8,4.47,4.14,4.47,4.11-1.68,4.11-4.47Z"/>
        <path class="cls-3" d="m248.26,101.93v22.26h-4.47v-1.86c-1.17,1.41-2.88,2.1-5.04,2.1-4.56,0-8.07-3.24-8.07-8.31s3.51-8.31,8.07-8.31c1.98,0,3.66.63,4.83,1.95v-7.83h4.68Zm-4.59,14.19c0-2.79-1.8-4.47-4.11-4.47s-4.14,1.68-4.14,4.47,1.8,4.47,4.14,4.47,4.11-1.68,4.11-4.47Z"/>
        <path class="cls-3" d="m268.29,117.44h-12.21c.45,2.01,2.16,3.24,4.62,3.24,1.71,0,2.94-.51,4.05-1.56l2.49,2.7c-1.5,1.71-3.75,2.61-6.66,2.61-5.58,0-9.21-3.51-9.21-8.31s3.69-8.31,8.61-8.31,8.4,3.18,8.4,8.37c0,.36-.06.87-.09,1.26Zm-12.27-2.73h7.95c-.33-2.04-1.86-3.36-3.96-3.36s-3.66,1.29-3.99,3.36Z"/>
        <path class="cls-3" d="m278.79,116.12c0-4.86,3.75-8.31,8.88-8.31s8.85,3.45,8.85,8.31-3.72,8.31-8.85,8.31-8.88-3.45-8.88-8.31Zm12.99,0c0-2.79-1.77-4.47-4.11-4.47s-4.14,1.68-4.14,4.47,1.8,4.47,4.14,4.47,4.11-1.68,4.11-4.47Z"/>
        <path class="cls-3" d="m309.66,107.81v4.32c-.39-.03-.69-.06-1.05-.06-2.58,0-4.29,1.41-4.29,4.5v7.62h-4.68v-16.14h4.47v2.13c1.14-1.56,3.06-2.37,5.55-2.37Z"/>
        <path class="cls-3" d="m328.75,101.93v22.26h-4.47v-1.86c-1.17,1.41-2.88,2.1-5.04,2.1-4.56,0-8.07-3.24-8.07-8.31s3.51-8.31,8.07-8.31c1.98,0,3.66.63,4.83,1.95v-7.83h4.68Zm-4.59,14.19c0-2.79-1.8-4.47-4.11-4.47s-4.14,1.68-4.14,4.47,1.8,4.47,4.14,4.47,4.11-1.68,4.11-4.47Z"/>
        <path class="cls-3" d="m348.78,117.44h-12.21c.45,2.01,2.16,3.24,4.62,3.24,1.71,0,2.94-.51,4.05-1.56l2.49,2.7c-1.5,1.71-3.75,2.61-6.66,2.61-5.58,0-9.21-3.51-9.21-8.31s3.69-8.31,8.61-8.31,8.4,3.18,8.4,8.37c0,.36-.06.87-.09,1.26Zm-12.27-2.73h7.95c-.33-2.04-1.86-3.36-3.96-3.36s-3.66,1.29-3.99,3.36Z"/>
        <path class="cls-3" d="m379.26,114.95v9.24h-4.68v-8.52c0-2.61-1.17-3.81-3.06-3.81-2.1,0-3.57,1.35-3.57,4.23v8.1h-4.68v-8.52c0-2.61-1.11-3.81-3.06-3.81-2.07,0-3.54,1.35-3.54,4.23v8.1h-4.68v-16.14h4.47v1.86c1.2-1.38,3-2.1,5.07-2.1,2.25,0,4.17.87,5.31,2.64,1.29-1.65,3.39-2.64,5.82-2.64,3.84,0,6.6,2.22,6.6,7.14Z"/>
        <path class="cls-3" d="m391.95,101.93h4.68v22.26h-4.68v-22.26Z"/>
        <path class="cls-3" d="m399.78,116.12c0-4.86,3.75-8.31,8.88-8.31s8.85,3.45,8.85,8.31-3.72,8.31-8.85,8.31-8.88-3.45-8.88-8.31Zm12.99,0c0-2.79-1.77-4.47-4.11-4.47s-4.14,1.68-4.14,4.47,1.8,4.47,4.14,4.47,4.11-1.68,4.11-4.47Zm-2.85-14.46h5.04l-5.43,4.32h-3.66l4.05-4.32Z"/>
        <path class="cls-3" d="m437.28,108.05v13.44c0,6-3.24,8.76-9.06,8.76-3.06,0-6.03-.75-7.92-2.22l1.86-3.36c1.38,1.11,3.63,1.83,5.7,1.83,3.3,0,4.74-1.5,4.74-4.41v-.69c-1.23,1.35-3,2.01-5.1,2.01-4.47,0-8.07-3.09-8.07-7.8s3.6-7.8,8.07-7.8c2.25,0,4.11.75,5.34,2.31v-2.07h4.44Zm-4.62,7.56c0-2.37-1.77-3.96-4.23-3.96s-4.26,1.59-4.26,3.96,1.8,3.96,4.26,3.96,4.23-1.59,4.23-3.96Z"/>
        <path class="cls-3" d="m441.06,103.19c0-1.47,1.17-2.61,2.91-2.61s2.91,1.08,2.91,2.52c0,1.56-1.17,2.7-2.91,2.7s-2.91-1.14-2.91-2.61Zm.57,4.86h4.68v16.14h-4.68v-16.14Z"/>
        <path class="cls-3" d="m449.46,116.12c0-4.86,3.75-8.31,9-8.31,3.39,0,6.06,1.47,7.23,4.11l-3.63,1.95c-.87-1.53-2.16-2.22-3.63-2.22-2.37,0-4.23,1.65-4.23,4.47s1.86,4.47,4.23,4.47c1.47,0,2.76-.66,3.63-2.22l3.63,1.98c-1.17,2.58-3.84,4.08-7.23,4.08-5.25,0-9-3.45-9-8.31Z"/>
        <path class="cls-3" d="m482.67,114.98v9.21h-4.38v-2.01c-.87,1.47-2.55,2.25-4.92,2.25-3.78,0-6.03-2.1-6.03-4.89s2.01-4.83,6.93-4.83h3.72c0-2.01-1.2-3.18-3.72-3.18-1.71,0-3.48.57-4.65,1.5l-1.68-3.27c1.77-1.26,4.38-1.95,6.96-1.95,4.92,0,7.77,2.28,7.77,7.17Zm-4.68,4.11v-1.65h-3.21c-2.19,0-2.88.81-2.88,1.89,0,1.17.99,1.95,2.64,1.95,1.56,0,2.91-.72,3.45-2.19Z"/>
        <path class="cls-3" d="m83.29,196.58h-11.7l-2.52,5.61h-2.31l9.6-21h2.19l9.6,21h-2.34l-2.52-5.61Zm-.81-1.8l-5.04-11.28-5.04,11.28h10.08Z"/>
        <path class="cls-3" d="m88.84,200.39l.96-1.68c1.26.99,3.39,1.77,5.61,1.77,3,0,4.23-1.02,4.23-2.58,0-4.11-10.23-.87-10.23-7.11,0-2.58,2.22-4.5,6.24-4.5,2.04,0,4.26.57,5.58,1.47l-.93,1.71c-1.38-.96-3.03-1.35-4.65-1.35-2.85,0-4.11,1.11-4.11,2.61,0,4.26,10.23,1.05,10.23,7.11,0,2.73-2.4,4.5-6.51,4.5-2.61,0-5.13-.84-6.42-1.95Z"/>
        <path class="cls-3" d="m127.96,179.93v22.26h-2.04v-3.12c-1.29,2.13-3.48,3.27-6.09,3.27-4.5,0-7.86-3.27-7.86-8.04s3.36-8.01,7.86-8.01c2.52,0,4.68,1.08,6,3.12v-9.48h2.13Zm-2.1,14.37c0-3.69-2.52-6.15-5.85-6.15s-5.88,2.46-5.88,6.15,2.52,6.15,5.88,6.15,5.85-2.46,5.85-6.15Z"/>
        <path class="cls-3" d="m133.42,181.43c0-.81.69-1.5,1.56-1.5s1.56.66,1.56,1.47c0,.87-.66,1.56-1.56,1.56s-1.56-.69-1.56-1.53Zm.48,4.98h2.13v15.78h-2.13v-15.78Z"/>
        <path class="cls-3" d="m149.92,186.29v2.07c-.18,0-.36-.03-.51-.03-3.3,0-5.31,2.1-5.31,5.82v8.04h-2.13v-15.78h2.04v3.09c.99-2.1,3-3.21,5.91-3.21Z"/>
        <path class="cls-3" d="m167.35,194.96h-13.2c.24,3.3,2.76,5.49,6.21,5.49,1.92,0,3.63-.69,4.83-2.07l1.2,1.38c-1.41,1.68-3.6,2.58-6.09,2.58-4.92,0-8.28-3.36-8.28-8.04s3.27-8.01,7.71-8.01,7.65,3.27,7.65,8.01c0,.18-.03.42-.03.66Zm-13.2-1.59h11.19c-.27-3.09-2.52-5.25-5.61-5.25s-5.31,2.16-5.58,5.25Z"/>
        <path class="cls-3" d="m180.04,201.23c-.84.75-2.1,1.11-3.33,1.11-2.97,0-4.62-1.68-4.62-4.59v-9.54h-2.82v-1.8h2.82v-3.45h2.13v3.45h4.8v1.8h-4.8v9.42c0,1.86.96,2.88,2.73,2.88.87,0,1.74-.27,2.34-.81l.75,1.53Z"/>
        <path class="cls-3" d="m191.86,186.29v2.07c-.18,0-.36-.03-.51-.03-3.3,0-5.31,2.1-5.31,5.82v8.04h-2.13v-15.78h2.04v3.09c.99-2.1,3-3.21,5.91-3.21Z"/>
        <path class="cls-3" d="m195.22,181.43c0-.81.69-1.5,1.56-1.5s1.56.66,1.56,1.47c0,.87-.66,1.56-1.56,1.56s-1.56-.69-1.56-1.53Zm.48,4.98h2.13v15.78h-2.13v-15.78Z"/>
        <path class="cls-3" d="m214.9,200.42v1.77h-12.84v-1.41l9.93-12.57h-9.75v-1.8h12.48v1.41l-9.93,12.6h10.11Z"/>
        <path class="cls-3" d="m232.57,194.96h-13.2c.24,3.3,2.76,5.49,6.21,5.49,1.92,0,3.63-.69,4.83-2.07l1.2,1.38c-1.41,1.68-3.6,2.58-6.09,2.58-4.92,0-8.28-3.36-8.28-8.04s3.27-8.01,7.71-8.01,7.65,3.27,7.65,8.01c0,.18-.03.42-.03.66Zm-13.2-1.59h11.19c-.27-3.09-2.52-5.25-5.61-5.25s-5.31,2.16-5.58,5.25Z"/>
        <path class="cls-3" d="m234.76,200.39l.96-1.68c1.26.99,3.39,1.77,5.61,1.77,3,0,4.23-1.02,4.23-2.58,0-4.11-10.23-.87-10.23-7.11,0-2.58,2.22-4.5,6.24-4.5,2.04,0,4.26.57,5.58,1.47l-.93,1.71c-1.38-.96-3.03-1.35-4.65-1.35-2.85,0-4.11,1.11-4.11,2.61,0,4.26,10.23,1.05,10.23,7.11,0,2.73-2.4,4.5-6.51,4.5-2.61,0-5.13-.84-6.42-1.95Z"/>
        <path class="cls-3" d="m273.22,194.96h-13.2c.24,3.3,2.76,5.49,6.21,5.49,1.92,0,3.63-.69,4.83-2.07l1.2,1.38c-1.41,1.68-3.6,2.58-6.09,2.58-4.92,0-8.28-3.36-8.28-8.04s3.27-8.01,7.71-8.01,7.65,3.27,7.65,8.01c0,.18-.03.42-.03.66Zm-13.2-1.59h11.19c-.27-3.09-2.52-5.25-5.61-5.25s-5.31,2.16-5.58,5.25Z"/>
        <path class="cls-3" d="m287.2,202.19l-5.01-6.6-5.04,6.6h-2.4l6.24-8.1-5.94-7.68h2.4l4.74,6.18,4.74-6.18h2.34l-5.94,7.68,6.3,8.1h-2.43Z"/>
        <path class="cls-3" d="m309.16,194.3c0,4.8-3.36,8.04-7.86,8.04-2.52,0-4.68-1.08-6-3.12v8.79h-2.13v-21.6h2.04v3.12c1.29-2.1,3.48-3.24,6.09-3.24,4.5,0,7.86,3.24,7.86,8.01Zm-2.13,0c0-3.66-2.55-6.15-5.88-6.15s-5.88,2.49-5.88,6.15,2.52,6.15,5.88,6.15,5.88-2.46,5.88-6.15Z"/>
        <path class="cls-3" d="m311.92,194.3c0-4.68,3.42-8.01,8.04-8.01s8.01,3.33,8.01,8.01-3.39,8.04-8.01,8.04-8.04-3.36-8.04-8.04Zm13.89,0c0-3.69-2.49-6.15-5.85-6.15s-5.88,2.46-5.88,6.15,2.52,6.15,5.88,6.15,5.85-2.46,5.85-6.15Z"/>
        <path class="cls-3" d="m330.13,200.39l.96-1.68c1.26.99,3.39,1.77,5.61,1.77,3,0,4.23-1.02,4.23-2.58,0-4.11-10.23-.87-10.23-7.11,0-2.58,2.22-4.5,6.24-4.5,2.04,0,4.26.57,5.58,1.47l-.93,1.71c-1.38-.96-3.03-1.35-4.65-1.35-2.85,0-4.11,1.11-4.11,2.61,0,4.26,10.23,1.05,10.23,7.11,0,2.73-2.4,4.5-6.51,4.5-2.61,0-5.13-.84-6.42-1.95Z"/>
        <path class="cls-3" d="m355.3,201.23c-.84.75-2.1,1.11-3.33,1.11-2.97,0-4.62-1.68-4.62-4.59v-9.54h-2.82v-1.8h2.82v-3.45h2.13v3.45h4.8v1.8h-4.8v9.42c0,1.86.96,2.88,2.73,2.88.87,0,1.74-.27,2.34-.81l.75,1.53Z"/>
        <path class="cls-3" d="m371.08,192.41v9.78h-2.04v-2.46c-.96,1.62-2.82,2.61-5.43,2.61-3.57,0-5.76-1.86-5.76-4.59,0-2.43,1.56-4.47,6.09-4.47h5.01v-.96c0-2.7-1.53-4.17-4.47-4.17-2.04,0-3.96.72-5.25,1.86l-.96-1.59c1.59-1.35,3.93-2.13,6.42-2.13,4.08,0,6.39,2.04,6.39,6.12Zm-2.13,5.04v-2.58h-4.95c-3.06,0-4.05,1.2-4.05,2.82,0,1.83,1.47,2.97,3.99,2.97s4.17-1.14,5.01-3.21Z"/>
        <path class="cls-3" d="m374.68,200.39l.96-1.68c1.26.99,3.39,1.77,5.61,1.77,3,0,4.23-1.02,4.23-2.58,0-4.11-10.23-.87-10.23-7.11,0-2.58,2.22-4.5,6.24-4.5,2.04,0,4.26.57,5.58,1.47l-.93,1.71c-1.38-.96-3.03-1.35-4.65-1.35-2.85,0-4.11,1.11-4.11,2.61,0,4.26,10.23,1.05,10.23,7.11,0,2.73-2.4,4.5-6.51,4.5-2.61,0-5.13-.84-6.42-1.95Z"/>
        <path class="cls-3" d="m397.21,200.39l.96-1.68c1.26.99,3.39,1.77,5.61,1.77,3,0,4.23-1.02,4.23-2.58,0-4.11-10.23-.87-10.23-7.11,0-2.58,2.22-4.5,6.24-4.5,2.04,0,4.26.57,5.58,1.47l-.93,1.71c-1.38-.96-3.03-1.35-4.65-1.35-2.85,0-4.11,1.11-4.11,2.61,0,4.26,10.23,1.05,10.23,7.11,0,2.73-2.4,4.5-6.51,4.5-2.61,0-5.13-.84-6.42-1.95Z"/>
        <path class="cls-3" d="m412.48,194.3c0-4.68,3.42-8.01,8.04-8.01s8.01,3.33,8.01,8.01-3.39,8.04-8.01,8.04-8.04-3.36-8.04-8.04Zm13.89,0c0-3.69-2.49-6.15-5.85-6.15s-5.88,2.46-5.88,6.15,2.52,6.15,5.88,6.15,5.85-2.46,5.85-6.15Z"/>
        <path class="cls-3" d="m448.87,194.3c0,4.77-3.36,8.04-7.86,8.04-2.61,0-4.8-1.14-6.09-3.27v3.12h-2.04v-22.26h2.13v9.48c1.32-2.04,3.48-3.12,6-3.12,4.5,0,7.86,3.24,7.86,8.01Zm-2.13,0c0-3.69-2.55-6.15-5.88-6.15s-5.88,2.46-5.88,6.15,2.52,6.15,5.88,6.15,5.88-2.46,5.88-6.15Z"/>
        <path class="cls-3" d="m461.17,186.29v2.07c-.18,0-.36-.03-.51-.03-3.3,0-5.31,2.1-5.31,5.82v8.04h-2.13v-15.78h2.04v3.09c.99-2.1,3-3.21,5.91-3.21Z"/>
        <path class="cls-3" d="m478.59,194.96h-13.2c.24,3.3,2.76,5.49,6.21,5.49,1.92,0,3.63-.69,4.83-2.07l1.2,1.38c-1.41,1.68-3.6,2.58-6.09,2.58-4.92,0-8.28-3.36-8.28-8.04s3.27-8.01,7.71-8.01,7.65,3.27,7.65,8.01c0,.18-.03.42-.03.66Zm-13.2-1.59h11.19c-.27-3.09-2.52-5.25-5.61-5.25s-5.31,2.16-5.58,5.25Z"/>
        <path class="cls-3" d="m502.74,192.41v9.78h-2.04v-2.46c-.96,1.62-2.82,2.61-5.43,2.61-3.57,0-5.76-1.86-5.76-4.59,0-2.43,1.56-4.47,6.09-4.47h5.01v-.96c0-2.7-1.53-4.17-4.47-4.17-2.04,0-3.96.72-5.25,1.86l-.96-1.59c1.59-1.35,3.93-2.13,6.42-2.13,4.08,0,6.39,2.04,6.39,6.12Zm-2.13,5.04v-2.58h-4.95c-3.06,0-4.05,1.2-4.05,2.82,0,1.83,1.47,2.97,3.99,2.97s4.17-1.14,5.01-3.21Z"/>
        <path class="cls-3" d="m516.49,186.29v2.07c-.18,0-.36-.03-.51-.03-3.3,0-5.31,2.1-5.31,5.82v8.04h-2.13v-15.78h2.04v3.09c.99-2.1,3-3.21,5.91-3.21Z"/>
        <path class="cls-3" d="m529.32,201.23c-.84.75-2.1,1.11-3.33,1.11-2.97,0-4.62-1.68-4.62-4.59v-9.54h-2.82v-1.8h2.82v-3.45h2.13v3.45h4.8v1.8h-4.8v9.42c0,1.86.96,2.88,2.73,2.88.87,0,1.74-.27,2.34-.81l.75,1.53Z"/>
        <path class="cls-3" d="m532.71,181.43c0-.81.69-1.5,1.56-1.5s1.56.66,1.56,1.47c0,.87-.66,1.56-1.56,1.56s-1.56-.69-1.56-1.53Zm.48,4.98h2.13v15.78h-2.13v-15.78Z"/>
        <path class="cls-3" d="m539.67,194.3c0-4.71,3.42-8.01,8.13-8.01,2.67,0,4.92,1.05,6.18,3.12l-1.59,1.08c-1.08-1.59-2.76-2.34-4.59-2.34-3.45,0-5.97,2.46-5.97,6.15s2.52,6.15,5.97,6.15c1.83,0,3.51-.72,4.59-2.31l1.59,1.08c-1.26,2.04-3.51,3.12-6.18,3.12-4.71,0-8.13-3.33-8.13-8.04Z"/>
        <path class="cls-3" d="m572.37,186.41v15.78h-2.04v-2.88c-1.11,1.92-3.15,3.03-5.67,3.03-4.02,0-6.66-2.25-6.66-6.78v-9.15h2.13v8.94c0,3.36,1.74,5.07,4.74,5.07,3.3,0,5.37-2.13,5.37-5.73v-8.28h2.13Z"/>
        <path class="cls-3" d="m578.34,179.93h2.13v22.26h-2.13v-22.26Z"/>
        <path class="cls-3" d="m598.32,192.41v9.78h-2.04v-2.46c-.96,1.62-2.82,2.61-5.43,2.61-3.57,0-5.76-1.86-5.76-4.59,0-2.43,1.56-4.47,6.09-4.47h5.01v-.96c0-2.7-1.53-4.17-4.47-4.17-2.04,0-3.96.72-5.25,1.86l-.96-1.59c1.59-1.35,3.93-2.13,6.42-2.13,4.08,0,6.39,2.04,6.39,6.12Zm-2.13,5.04v-2.58h-4.95c-3.06,0-4.05,1.2-4.05,2.82,0,1.83,1.47,2.97,3.99,2.97s4.17-1.14,5.01-3.21Z"/>
        <path class="cls-3" d="m615.3,198.14l1.59,1.08c-1.26,2.04-3.51,3.12-6.18,3.12h-.06l-.36,1.41c1.65.15,2.55,1.11,2.55,2.43,0,1.62-1.38,2.61-3.39,2.61-.99,0-1.8-.21-2.52-.69l.51-1.14c.6.39,1.26.57,1.98.57,1.2,0,1.86-.51,1.86-1.41,0-.81-.6-1.38-1.86-1.38h-.69l.66-2.49c-4.02-.57-6.81-3.69-6.81-7.95,0-4.71,3.42-8.01,8.13-8.01,2.67,0,4.92,1.05,6.18,3.12l-1.59,1.08c-1.08-1.59-2.76-2.34-4.59-2.34-3.45,0-5.97,2.46-5.97,6.15s2.52,6.15,5.97,6.15c1.83,0,3.51-.72,4.59-2.31Z"/>
        <path class="cls-3" d="m632.97,192.41v9.78h-2.04v-2.46c-.96,1.62-2.82,2.61-5.43,2.61-3.57,0-5.76-1.86-5.76-4.59,0-2.43,1.56-4.47,6.09-4.47h5.01v-.96c0-2.7-1.53-4.17-4.47-4.17-2.04,0-3.96.72-5.25,1.86l-.96-1.59c1.59-1.35,3.93-2.13,6.42-2.13,4.08,0,6.39,2.04,6.39,6.12Zm-2.13,5.04v-2.58h-4.95c-3.06,0-4.05,1.2-4.05,2.82,0,1.83,1.47,2.97,3.99,2.97s4.17-1.14,5.01-3.21Zm-7.65-13.77h-1.29c.06-2.01,1.11-3.3,2.7-3.3,1.86,0,2.76,2.04,3.93,2.04.9,0,1.5-.72,1.56-1.86h1.29c-.06,1.95-1.11,3.24-2.7,3.24-1.86,0-2.73-2.04-3.93-2.04-.9,0-1.5.72-1.56,1.92Z"/>
        <path class="cls-3" d="m637.23,194.3c0-4.68,3.42-8.01,8.04-8.01s8.01,3.33,8.01,8.01-3.39,8.04-8.01,8.04-8.04-3.36-8.04-8.04Zm13.89,0c0-3.69-2.49-6.15-5.85-6.15s-5.88,2.46-5.88,6.15,2.52,6.15,5.88,6.15,5.85-2.46,5.85-6.15Z"/>
        <path class="cls-3" d="m679.89,179.93v22.26h-2.04v-3.12c-1.29,2.13-3.48,3.27-6.09,3.27-4.5,0-7.86-3.27-7.86-8.04s3.36-8.01,7.86-8.01c2.52,0,4.68,1.08,6,3.12v-9.48h2.13Zm-2.1,14.37c0-3.69-2.52-6.15-5.85-6.15s-5.88,2.46-5.88,6.15,2.52,6.15,5.88,6.15,5.85-2.46,5.85-6.15Z"/>
        <path class="cls-3" d="m684.24,194.3c0-4.68,3.42-8.01,8.04-8.01s8.01,3.33,8.01,8.01-3.39,8.04-8.01,8.04-8.04-3.36-8.04-8.04Zm13.89,0c0-3.69-2.49-6.15-5.85-6.15s-5.88,2.46-5.88,6.15,2.52,6.15,5.88,6.15,5.85-2.46,5.85-6.15Z"/>
        <path class="cls-3" d="m710.91,194.3c0-4.71,3.42-8.01,8.13-8.01,2.67,0,4.92,1.05,6.18,3.12l-1.59,1.08c-1.08-1.59-2.76-2.34-4.59-2.34-3.45,0-5.97,2.46-5.97,6.15s2.52,6.15,5.97,6.15c1.83,0,3.51-.72,4.59-2.31l1.59,1.08c-1.26,2.04-3.51,3.12-6.18,3.12-4.71,0-8.13-3.33-8.13-8.04Z"/>
        <path class="cls-3" d="m727.53,194.3c0-4.68,3.42-8.01,8.04-8.01s8.01,3.33,8.01,8.01-3.39,8.04-8.01,8.04-8.04-3.36-8.04-8.04Zm13.89,0c0-3.69-2.49-6.15-5.85-6.15s-5.88,2.46-5.88,6.15,2.52,6.15,5.88,6.15,5.85-2.46,5.85-6.15Z"/>
        <path class="cls-3" d="m762.45,193.04v9.15h-2.13v-8.94c0-3.33-1.74-5.04-4.74-5.04-3.39,0-5.52,2.1-5.52,5.7v8.28h-2.13v-15.78h2.04v2.91c1.14-1.92,3.27-3.03,6-3.03,3.84,0,6.48,2.22,6.48,6.75Z"/>
        <path class="cls-3" d="m776.55,201.23c-.84.75-2.1,1.11-3.33,1.11-2.97,0-4.62-1.68-4.62-4.59v-9.54h-2.82v-1.8h2.82v-3.45h2.13v3.45h4.8v1.8h-4.8v9.42c0,1.86.96,2.88,2.73,2.88.87,0,1.74-.27,2.34-.81l.75,1.53Z"/>
        <path class="cls-3" d="m793.59,194.96h-13.2c.24,3.3,2.76,5.49,6.21,5.49,1.92,0,3.63-.69,4.83-2.07l1.2,1.38c-1.41,1.68-3.6,2.58-6.09,2.58-4.92,0-8.28-3.36-8.28-8.04s3.27-8.01,7.71-8.01,7.65,3.27,7.65,8.01c0,.18-.03.42-.03.66Zm-13.2-1.59h11.19c-.27-3.09-2.52-5.25-5.61-5.25s-5.31,2.16-5.58,5.25Z"/>
        <path class="cls-3" d="m812.19,186.41v15.78h-2.04v-2.88c-1.11,1.92-3.15,3.03-5.67,3.03-4.02,0-6.66-2.25-6.66-6.78v-9.15h2.13v8.94c0,3.36,1.74,5.07,4.74,5.07,3.3,0,5.37-2.13,5.37-5.73v-8.28h2.13Zm-7.02-2.43h-2.1l4.11-3.72h2.85l-4.86,3.72Z"/>
        <path class="cls-3" d="m832.56,179.93v22.26h-2.04v-3.12c-1.29,2.13-3.48,3.27-6.09,3.27-4.5,0-7.86-3.27-7.86-8.04s3.36-8.01,7.86-8.01c2.52,0,4.68,1.08,6,3.12v-9.48h2.13Zm-2.1,14.37c0-3.69-2.52-6.15-5.85-6.15s-5.88,2.46-5.88,6.15,2.52,6.15,5.88,6.15,5.85-2.46,5.85-6.15Z"/>
        <path class="cls-3" d="m836.91,194.3c0-4.68,3.42-8.01,8.04-8.01s8.01,3.33,8.01,8.01-3.39,8.04-8.01,8.04-8.04-3.36-8.04-8.04Zm13.89,0c0-3.69-2.49-6.15-5.85-6.15s-5.88,2.46-5.88,6.15,2.52,6.15,5.88,6.15,5.85-2.46,5.85-6.15Z"/>
        <path class="cls-3" d="m879.69,193.04v9.15h-2.13v-8.94c0-3.33-1.74-5.04-4.74-5.04-3.39,0-5.52,2.1-5.52,5.7v8.28h-2.13v-15.78h2.04v2.91c1.14-1.92,3.27-3.03,6-3.03,3.84,0,6.48,2.22,6.48,6.75Z"/>
        <path class="cls-3" d="m883.95,194.3c0-4.68,3.42-8.01,8.04-8.01s8.01,3.33,8.01,8.01-3.39,8.04-8.01,8.04-8.04-3.36-8.04-8.04Zm13.89,0c0-3.69-2.49-6.15-5.85-6.15s-5.88,2.46-5.88,6.15,2.52,6.15,5.88,6.15,5.85-2.46,5.85-6.15Z"/>
        <path class="cls-3" d="m912.3,186.29v2.07c-.18,0-.36-.03-.51-.03-3.3,0-5.31,2.1-5.31,5.82v8.04h-2.13v-15.78h2.04v3.09c.99-2.1,3-3.21,5.91-3.21Z"/>
        <path class="cls-3" d="m942.18,193.04v9.15h-2.13v-8.94c0-3.33-1.68-5.04-4.53-5.04-3.24,0-5.28,2.1-5.28,5.7v8.28h-2.13v-8.94c0-3.33-1.68-5.04-4.56-5.04-3.21,0-5.28,2.1-5.28,5.7v8.28h-2.13v-15.78h2.04v2.88c1.11-1.89,3.15-3,5.79-3s4.65,1.11,5.61,3.33c1.14-2.04,3.39-3.33,6.24-3.33,3.84,0,6.36,2.22,6.36,6.75Z"/>
        <path class="cls-3" d="m959.88,192.41v9.78h-2.04v-2.46c-.96,1.62-2.82,2.61-5.43,2.61-3.57,0-5.76-1.86-5.76-4.59,0-2.43,1.56-4.47,6.09-4.47h5.01v-.96c0-2.7-1.53-4.17-4.47-4.17-2.04,0-3.96.72-5.25,1.86l-.96-1.59c1.59-1.35,3.93-2.13,6.42-2.13,4.08,0,6.39,2.04,6.39,6.12Zm-2.13,5.04v-2.58h-4.95c-3.06,0-4.05,1.2-4.05,2.82,0,1.83,1.47,2.97,3.99,2.97s4.17-1.14,5.01-3.21Z"/>
        <path class="cls-3" d="m973.98,201.23c-.84.75-2.1,1.11-3.33,1.11-2.97,0-4.62-1.68-4.62-4.59v-9.54h-2.82v-1.8h2.82v-3.45h2.13v3.45h4.8v1.8h-4.8v9.42c0,1.86.96,2.88,2.73,2.88.87,0,1.74-.27,2.34-.81l.75,1.53Z"/>
        <path class="cls-3" d="m977.37,181.43c0-.81.69-1.5,1.56-1.5s1.56.66,1.56,1.47c0,.87-.66,1.56-1.56,1.56s-1.56-.69-1.56-1.53Zm.48,4.98h2.13v15.78h-2.13v-15.78Z"/>
        <path class="cls-3" d="m999.18,186.41l-7.02,15.78h-2.19l-6.99-15.78h2.22l5.91,13.44,5.97-13.44h2.1Z"/>
        <path class="cls-3" d="m1000.14,194.3c0-4.68,3.42-8.01,8.04-8.01s8.01,3.33,8.01,8.01-3.39,8.04-8.01,8.04-8.04-3.36-8.04-8.04Zm13.89,0c0-3.69-2.49-6.15-5.85-6.15s-5.88,2.46-5.88,6.15,2.52,6.15,5.88,6.15,5.85-2.46,5.85-6.15Z"/>
        <path class="cls-3" d="m1018.71,200.69c0-.93.72-1.62,1.59-1.62s1.62.69,1.62,1.62-.75,1.65-1.62,1.65-1.59-.72-1.59-1.65Z"/>
      </g>
    </g>
  </g>
</svg>