<?xml version="1.0" encoding="UTF-8"?>
<svg id="Layer_1" data-name="Layer 1" xmlns="http://www.w3.org/2000/svg" xmlns:xlink="http://www.w3.org/1999/xlink" viewBox="0 0 1247.65 1537.41">
  <defs>
    <style>
      .cls-1 {
        fill: url(#linear-gradient-2);
      }

      .cls-2 {
        fill: #fff;
      }

      .cls-3 {
        fill: #bc372a;
      }

      .cls-4 {
        fill: url(#linear-gradient-15);
      }

      .cls-5 {
        fill: #e25041;
      }

      .cls-6 {
        fill: url(#linear-gradient-14);
      }

      .cls-7 {
        fill: url(#linear-gradient-6);
      }

      .cls-8 {
        fill: #d6d6d6;
      }

      .cls-9 {
        fill: url(#linear-gradient-11);
      }

      .cls-10 {
        fill: url(#linear-gradient-10);
      }

      .cls-11 {
        fill: url(#linear-gradient-16);
      }

      .cls-12 {
        fill: url(#linear-gradient-5);
      }

      .cls-13 {
        fill: url(#linear-gradient-7);
      }

      .cls-14 {
        fill: url(#linear-gradient-9);
      }

      .cls-15 {
        fill: url(#linear-gradient-3);
      }

      .cls-16 {
        fill: url(#linear-gradient);
      }

      .cls-17 {
        fill: #231f20;
      }

      .cls-18 {
        fill: url(#linear-gradient-4);
      }

      .cls-19 {
        fill: #383a34;
      }

      .cls-20 {
        fill: url(#linear-gradient-8);
      }

      .cls-21 {
        fill: url(#linear-gradient-12);
      }

      .cls-22 {
        fill: url(#linear-gradient-13);
      }
    </style>
    <linearGradient id="linear-gradient" x1="952.23" y1="110.19" x2="-93.95" y2="1523.97" gradientUnits="userSpaceOnUse">
      <stop offset="0" stop-color="#c2e6f1"/>
      <stop offset=".18" stop-color="#c7e7f1"/>
      <stop offset=".4" stop-color="#d5eaf1"/>
      <stop offset=".61" stop-color="#eaf0f1"/>
      <stop offset=".73" stop-color="#cee9f1"/>
      <stop offset=".81" stop-color="#c2e6f1"/>
    </linearGradient>
    <linearGradient id="linear-gradient-2" x1="952.23" y1="140.12" x2="-93.95" y2="1553.9" xlink:href="#linear-gradient"/>
    <linearGradient id="linear-gradient-3" y1="170.05" y2="1583.82" xlink:href="#linear-gradient"/>
    <linearGradient id="linear-gradient-4" y1="199.97" y2="1613.75" xlink:href="#linear-gradient"/>
    <linearGradient id="linear-gradient-5" x1="515.93" y1="139.07" x2="621.91" y2="286.51" gradientUnits="userSpaceOnUse">
      <stop offset=".53" stop-color="#241f20"/>
      <stop offset=".98" stop-color="#bbbebf"/>
    </linearGradient>
    <linearGradient id="linear-gradient-6" x1="-792.29" y1="1131.18" x2="-702.18" y2="1326.23" gradientTransform="translate(634.8 -1259.75) rotate(-27.62)" gradientUnits="userSpaceOnUse">
      <stop offset=".08" stop-color="#ee2724"/>
      <stop offset=".19" stop-color="#e12826"/>
      <stop offset=".4" stop-color="#bf2e2c"/>
      <stop offset=".69" stop-color="#873636"/>
      <stop offset="1" stop-color="#434143"/>
    </linearGradient>
    <linearGradient id="linear-gradient-7" x1="-775.22" y1="1158.28" x2="-685.12" y2="1353.34" gradientTransform="translate(634.8 -1259.75) rotate(-27.62)" gradientUnits="userSpaceOnUse">
      <stop offset=".11" stop-color="#ee2724"/>
      <stop offset=".22" stop-color="#e82724"/>
      <stop offset=".36" stop-color="#d92a27"/>
      <stop offset=".51" stop-color="#c12d2c"/>
      <stop offset=".68" stop-color="#9e3332"/>
      <stop offset=".84" stop-color="#72393a"/>
      <stop offset="1" stop-color="#434143"/>
    </linearGradient>
    <linearGradient id="linear-gradient-8" x1="-693.38" y1="1290.46" x2="-766.37" y2="1112.04" xlink:href="#linear-gradient-7"/>
    <linearGradient id="linear-gradient-9" x1="-804.09" y1="1070.43" x2="-671.45" y2="1203.07" gradientTransform="translate(634.8 -1259.75) rotate(-27.62)" gradientUnits="userSpaceOnUse">
      <stop offset=".28" stop-color="#ee2724"/>
      <stop offset=".37" stop-color="#e42825"/>
      <stop offset=".5" stop-color="#cb2c2a"/>
      <stop offset=".67" stop-color="#a23231"/>
      <stop offset=".87" stop-color="#693b3b"/>
      <stop offset="1" stop-color="#434143"/>
    </linearGradient>
    <linearGradient id="linear-gradient-10" x1="-784.78" y1="1087.44" x2="-658.28" y2="1213.94" xlink:href="#linear-gradient-9"/>
    <linearGradient id="linear-gradient-11" x1="-756.19" y1="1078.21" x2="-714.93" y2="1167.52" gradientTransform="translate(634.8 -1259.75) rotate(-27.62)" gradientUnits="userSpaceOnUse">
      <stop offset=".26" stop-color="#ee2724"/>
      <stop offset=".36" stop-color="#e82724"/>
      <stop offset=".47" stop-color="#d92a27"/>
      <stop offset=".6" stop-color="#c12d2c"/>
      <stop offset=".73" stop-color="#9e3332"/>
      <stop offset=".87" stop-color="#72393a"/>
      <stop offset="1" stop-color="#434143"/>
    </linearGradient>
    <linearGradient id="linear-gradient-12" x1="-714.47" y1="1175.53" x2="-723.57" y2="1153.29" gradientTransform="translate(634.8 -1259.75) rotate(-27.62)" gradientUnits="userSpaceOnUse">
      <stop offset=".33" stop-color="#fff"/>
      <stop offset=".35" stop-color="#fdefee"/>
      <stop offset=".47" stop-color="#f79a98"/>
      <stop offset=".57" stop-color="#f25c59"/>
      <stop offset=".65" stop-color="#ef3532"/>
      <stop offset=".68" stop-color="#ee2724"/>
    </linearGradient>
    <linearGradient id="linear-gradient-13" x1="-1373.21" y1="1547.53" x2="-1382.31" y2="1525.29" gradientTransform="translate(704.85 -1859.61) rotate(-39.32)" gradientUnits="userSpaceOnUse">
      <stop offset=".33" stop-color="#fff"/>
      <stop offset=".35" stop-color="#fdefee"/>
      <stop offset=".5" stop-color="#f79a98"/>
      <stop offset=".61" stop-color="#f25c59"/>
      <stop offset=".7" stop-color="#ef3532"/>
      <stop offset=".74" stop-color="#ee2724"/>
    </linearGradient>
    <linearGradient id="linear-gradient-14" x1="952.23" y1="140.12" x2="-93.95" y2="1553.9" xlink:href="#linear-gradient"/>
    <linearGradient id="linear-gradient-15" y1="170.05" y2="1583.82" xlink:href="#linear-gradient"/>
    <linearGradient id="linear-gradient-16" y1="199.97" y2="1613.75" xlink:href="#linear-gradient"/>
  </defs>
  <g>
    <path class="cls-8" d="m1150.47,1052.83c.38-127.75-5.01-581.19-9.3-795.21-.09-4.59-.17-9.58-.22-14.87.19-29.38.47-51.95.47-51.95h-.3c.16-17.91.3-29.93.3-29.93h-.3c.16-17.91.3-29.93.3-29.93h-.3c.16-17.91.3-29.93.3-29.93l-1005.54.17-16,995.6s.17.03.48.07l-.48,29.86s.17.03.48.07l-.48,29.86s.17.03.48.07l-.48,29.86s430.75,63.11,562.67,61.86c131.92-1.25,467.89-98.52,467.89-98.52.05-9.97.06-22.51.03-37.22.02-8.57.02-18.59,0-29.93.02-8.57.02-18.6,0-29.93Z"/>
    <path class="cls-16" d="m113.16,79.1l1005.54-.17s-1.29,104.49-.25,156.6c4.37,218.3,9.89,685.73,9.27,802.5,0,0-335.97,97.27-467.89,98.52-131.92,1.25-562.67-61.86-562.67-61.86L113.16,79.1Z"/>
    <path class="cls-1" d="m113.16,109.02l1005.54-.17s-1.29,104.49-.25,156.6c4.37,218.3,9.89,685.73,9.27,802.5,0,0-335.97,97.27-467.89,98.52-131.92,1.25-562.67-61.86-562.67-61.86L113.16,109.02Z"/>
    <path class="cls-15" d="m113.16,138.95l1005.54-.17s-1.29,104.49-.25,156.6c4.37,218.3,9.89,685.73,9.27,802.5,0,0-335.97,97.27-467.89,98.52-131.92,1.25-562.67-61.86-562.67-61.86l16-995.6Z"/>
    <path class="cls-18" d="m113.16,168.88l1005.54-.17s-1.29,104.49-.25,156.6c4.37,218.3,9.89,685.73,9.27,802.5,0,0-335.97,97.27-467.89,98.52-131.92,1.25-562.67-61.86-562.67-61.86l16-995.6Z"/>
    <g>
      <path class="cls-12" d="m618.63,271.1s-.01,5.55-4.07,8.66c-4.06,3.11-9.17,0-9.17,0l-36.72-49.47,17.83-10.85,32.12,51.67Z"/>
      <g>
        <path class="cls-7" d="m585.33,225.71c-30.54,15.98-64.8,12.08-81.52-7.82.72,3.4,1.88,6.71,3.53,9.85,13.06,24.97,51.29,30.75,85.38,12.91,34.09-17.84,51.14-52.53,38.07-77.5-1.35-2.58-3.03-4.9-4.88-7.07,5.57,24.71-10.77,54.03-40.58,69.62Z"/>
        <path class="cls-13" d="m584.75,225.75c29.81-15.6,46.15-44.92,40.58-69.63-16.09-18.79-49.93-21.83-80.49-5.84-29.8,15.59-46.57,44.06-41.6,67.65,16.71,19.89,50.97,23.8,81.51,7.82Z"/>
      </g>
      <path class="cls-20" d="m485.86,113.29s20.81,18.38,36.49,72.24c0,0,15.62,16.68,41.57,2,25.27-14.3,19.84-35.19,19.84-35.19,0,0-41.85-47.25-42.51-74.05,0,0-46.09,10.75-55.38,35.01Z"/>
      <path class="cls-14" d="m555.9,66.46c9.34,17.85-3.47,42.99-28.61,56.15-25.14,13.15-53.09,9.34-62.44-8.51-9.34-17.85,3.47-42.99,28.61-56.15,25.14-13.15,53.09-9.34,62.44,8.51Z"/>
      <path class="cls-10" d="m555.28,65.13c7.58,14.49-6.65,36.9-31.79,50.05-25.14,13.15-51.67,12.07-59.25-2.42-7.58-14.49,4.09-41.66,29.23-54.82,25.14-13.15,54.23-7.31,61.81,7.18Z"/>
      <path class="cls-9" d="m540.74,56.59c5.08,9.71-10.41,27.49-28.44,36.93-18.03,9.43-41.67,11.3-46.75,1.59-5.08-9.71,9.03-26.36,27.06-35.79,18.03-9.43,43.05-12.43,48.13-2.72Z"/>
      <path class="cls-21" d="m508.47,121.5s17.8-7.59,30.74-18.67c12.78-10.94,15.28-18.99,17.01-22.26,0,0-3.72,25.43-47.76,40.93Z"/>
      <path class="cls-22" d="m587.33,223.58s15.89-11.04,26.32-24.52c10.29-13.3,11.11-21.69,12.15-25.25,0,0,1.52,25.66-38.47,49.77Z"/>
      <path class="cls-2" d="m607.09,152.65c5.57,1.18.13,14.24-1.97,20.11-2.09,5.87-8.59,20.54-10.93,19.71-2.34-.84-.07-16.41,2.03-22.28,2.1-5.87,4.13-18.96,10.87-17.54Z"/>
      <path class="cls-2" d="m592.86,194.05c.77.28.23,3.96-.47,5.9-.69,1.94-2.83,6.78-3.61,6.51-.77-.27.41-5,1.1-6.94.69-1.94,2.2-5.74,2.97-5.47Z"/>
      <path class="cls-2" d="m549.76,68.36c.77.28.23,3.96-.46,5.9-.69,1.94-2.84,6.78-3.61,6.51-.77-.28.41-5,1.1-6.94.69-1.94,2.2-5.74,2.97-5.47Z"/>
      <path class="cls-2" d="m545.1,82.15c.45.16.13,2.3-.27,3.43-.4,1.13-1.65,3.94-2.1,3.78-.45-.16.24-2.91.64-4.04.4-1.13,1.28-3.34,1.73-3.18Z"/>
    </g>
    <path class="cls-16" d="m113.16,79.1l1005.54-.17s-1.29,104.49-.25,156.6c4.37,218.3,9.89,685.73,9.27,802.5,0,0-335.97,97.27-467.89,98.52-131.92,1.25-562.67-61.86-562.67-61.86L113.16,79.1Z"/>
    <path class="cls-6" d="m113.16,109.02l1005.54-.17s-1.29,104.49-.25,156.6c4.37,218.3,9.89,685.73,9.27,802.5,0,0-335.97,97.27-467.89,98.52-131.92,1.25-562.67-61.86-562.67-61.86L113.16,109.02Z"/>
    <path class="cls-4" d="m113.16,138.95l1005.54-.17s-1.29,104.49-.25,156.6c4.37,218.3,9.89,685.73,9.27,802.5,0,0-335.97,97.27-467.89,98.52-131.92,1.25-562.67-61.86-562.67-61.86l16-995.6Z"/>
    <path class="cls-11" d="m113.16,168.88l1005.54-.17s-1.29,104.49-.25,156.6c4.37,218.3,9.89,685.73,9.27,802.5,0,0-335.97,97.27-467.89,98.52-131.92,1.25-562.67-61.86-562.67-61.86l16-995.6Z"/>
    <g>
      <path class="cls-19" d="m617.92,254.96s-.01,5.51-4.04,8.59c-4.03,3.08-9.1,0-9.1,0l-36.44-49.1,17.7-10.77,31.88,51.28Z"/>
      <g>
        <path class="cls-5" d="m584.05,225.22c-30.31,15.86-64.31,11.99-80.89-7.76.71,3.38,1.87,6.65,3.5,9.78,12.96,24.78,50.9,30.51,84.73,12.81,33.83-17.7,50.75-52.14,37.78-76.91-1.34-2.56-3-4.87-4.84-7.02,5.53,24.52-10.69,53.62-40.27,69.09Z"/>
        <path class="cls-3" d="m584.05,225.22c29.58-15.48,45.8-44.57,40.27-69.09-15.97-18.65-49.55-21.67-79.88-5.8-29.57,15.47-46.21,43.72-41.28,67.14,16.58,19.74,50.58,23.61,80.89,7.76Z"/>
      </g>
      <path class="cls-5" d="m485.91,113.62s20.65,18.24,36.21,71.68c0,0,15.5,16.56,41.26,1.98,25.08-14.19,19.68-34.92,19.68-34.92,0,0-41.53-46.89-42.19-73.49,0,0-45.74,10.67-54.96,34.74Z"/>
      <path class="cls-5" d="m555.42,67.15c9.27,17.72-3.44,42.66-28.39,55.72-24.95,13.05-52.69,9.27-61.96-8.45-9.27-17.72,3.44-42.66,28.39-55.72,24.95-13.05,52.69-9.27,61.96,8.45Z"/>
      <path class="cls-3" d="m554.8,65.83c7.52,14.38-6.6,36.62-31.55,49.67-24.95,13.05-51.27,11.98-58.8-2.4-7.52-14.38,4.06-41.34,29.01-54.4,24.95-13.05,53.82-7.25,61.34,7.13Z"/>
      <path class="cls-5" d="m540.37,57.35c5.04,9.64-10.33,27.28-28.23,36.64-17.89,9.36-41.35,11.21-46.39,1.58-5.04-9.64,8.96-26.16,26.86-35.52,17.89-9.36,42.72-12.34,47.76-2.7Z"/>
    </g>
  </g>
  <g>
    <path class="cls-17" d="m326.26,452.32h-22.86l-4.92,10.96h-4.51l18.76-41.04h4.28l18.76,41.04h-4.57l-4.92-10.96Zm-1.58-3.52l-9.85-22.04-9.85,22.04h19.7Z"/>
    <path class="cls-17" d="m370.05,445.4v17.88h-4.16v-17.47c0-6.51-3.4-9.85-9.26-9.85-6.62,0-10.79,4.1-10.79,11.14v16.18h-4.16v-30.84h3.99v5.69c2.23-3.75,6.39-5.92,11.72-5.92,7.5,0,12.66,4.34,12.66,13.19Z"/>
    <path class="cls-17" d="m404.64,444.17v19.11h-3.99v-4.81c-1.88,3.17-5.51,5.1-10.61,5.1-6.98,0-11.26-3.63-11.26-8.97,0-4.75,3.05-8.73,11.9-8.73h9.79v-1.88c0-5.28-2.99-8.15-8.73-8.15-3.99,0-7.74,1.41-10.26,3.63l-1.88-3.11c3.11-2.64,7.68-4.16,12.55-4.16,7.97,0,12.49,3.99,12.49,11.96Zm-4.16,9.85v-5.04h-9.67c-5.98,0-7.91,2.35-7.91,5.51,0,3.58,2.87,5.8,7.8,5.8s8.15-2.23,9.79-6.27Zm-7.91-26.32h-4.1l8.03-7.27h5.57l-9.5,7.27Z"/>
    <path class="cls-17" d="m415.95,419.79h4.16v43.5h-4.16v-43.5Z"/>
    <path class="cls-17" d="m430.78,422.72c0-1.58,1.35-2.93,3.05-2.93s3.05,1.29,3.05,2.87c0,1.7-1.29,3.05-3.05,3.05s-3.05-1.35-3.05-2.99Zm.94,9.73h4.16v30.84h-4.16v-30.84Z"/>
    <path class="cls-17" d="m443.21,459.77l1.88-3.28c2.46,1.93,6.62,3.46,10.96,3.46,5.86,0,8.27-1.99,8.27-5.04,0-8.03-19.99-1.7-19.99-13.89,0-5.04,4.34-8.79,12.19-8.79,3.99,0,8.32,1.11,10.9,2.87l-1.82,3.34c-2.7-1.88-5.92-2.64-9.09-2.64-5.57,0-8.03,2.17-8.03,5.1,0,8.33,19.99,2.05,19.99,13.89,0,5.33-4.69,8.79-12.72,8.79-5.1,0-10.03-1.64-12.55-3.81Z"/>
    <path class="cls-17" d="m503.01,449.16h-25.79c.47,6.45,5.39,10.73,12.13,10.73,3.75,0,7.09-1.35,9.44-4.04l2.34,2.7c-2.75,3.28-7.03,5.04-11.9,5.04-9.61,0-16.18-6.57-16.18-15.71s6.39-15.65,15.07-15.65,14.95,6.39,14.95,15.65c0,.35-.06.82-.06,1.29Zm-25.79-3.11h21.87c-.53-6.04-4.92-10.26-10.96-10.26s-10.38,4.22-10.9,10.26Z"/>
    <path class="cls-17" d="m555.06,419.79v43.5h-3.99v-6.1c-2.52,4.16-6.8,6.39-11.9,6.39-8.79,0-15.36-6.39-15.36-15.71s6.57-15.65,15.36-15.65c4.92,0,9.14,2.11,11.72,6.1v-18.53h4.16Zm-4.1,28.08c0-7.21-4.92-12.02-11.43-12.02s-11.49,4.81-11.49,12.02,4.92,12.02,11.49,12.02,11.43-4.81,11.43-12.02Z"/>
    <path class="cls-17" d="m589.94,444.17v19.11h-3.99v-4.81c-1.88,3.17-5.51,5.1-10.61,5.1-6.98,0-11.26-3.63-11.26-8.97,0-4.75,3.05-8.73,11.9-8.73h9.79v-1.88c0-5.28-2.99-8.15-8.73-8.15-3.99,0-7.74,1.41-10.26,3.63l-1.88-3.11c3.11-2.64,7.68-4.16,12.55-4.16,7.97,0,12.49,3.99,12.49,11.96Zm-4.16,9.85v-5.04h-9.67c-5.98,0-7.91,2.35-7.91,5.51,0,3.58,2.87,5.8,7.8,5.8s8.15-2.23,9.79-6.27Z"/>
    <path class="cls-17" d="m647.86,447.87c0,9.32-6.57,15.71-15.36,15.71-5.1,0-9.38-2.23-11.9-6.39v6.1h-3.99v-43.5h4.16v18.53c2.58-3.99,6.8-6.1,11.73-6.1,8.79,0,15.36,6.33,15.36,15.65Zm-4.16,0c0-7.21-4.98-12.02-11.49-12.02s-11.49,4.81-11.49,12.02,4.92,12.02,11.49,12.02,11.49-4.81,11.49-12.02Z"/>
    <path class="cls-17" d="m679.46,444.17v19.11h-3.99v-4.81c-1.88,3.17-5.51,5.1-10.61,5.1-6.98,0-11.26-3.63-11.26-8.97,0-4.75,3.05-8.73,11.9-8.73h9.79v-1.88c0-5.28-2.99-8.15-8.73-8.15-3.99,0-7.74,1.41-10.26,3.63l-1.88-3.11c3.11-2.64,7.68-4.16,12.55-4.16,7.97,0,12.49,3.99,12.49,11.96Zm-4.16,9.85v-5.04h-9.67c-5.98,0-7.91,2.35-7.91,5.51,0,3.58,2.87,5.8,7.8,5.8s8.15-2.23,9.79-6.27Z"/>
    <path class="cls-17" d="m686.49,459.77l1.88-3.28c2.46,1.93,6.62,3.46,10.96,3.46,5.86,0,8.27-1.99,8.27-5.04,0-8.03-19.99-1.7-19.99-13.89,0-5.04,4.34-8.79,12.19-8.79,3.99,0,8.32,1.11,10.9,2.87l-1.82,3.34c-2.7-1.88-5.92-2.64-9.09-2.64-5.57,0-8.03,2.17-8.03,5.1,0,8.33,19.99,2.05,19.99,13.89,0,5.33-4.69,8.79-12.72,8.79-5.1,0-10.02-1.64-12.54-3.81Z"/>
    <path class="cls-17" d="m746.29,449.16h-25.79c.47,6.45,5.39,10.73,12.13,10.73,3.75,0,7.09-1.35,9.44-4.04l2.34,2.7c-2.75,3.28-7.03,5.04-11.9,5.04-9.61,0-16.18-6.57-16.18-15.71s6.39-15.65,15.07-15.65,14.95,6.39,14.95,15.65c0,.35-.06.82-.06,1.29Zm-25.79-3.11h21.87c-.53-6.04-4.92-10.26-10.96-10.26s-10.38,4.22-10.9,10.26Z"/>
    <path class="cls-17" d="m770.2,419.79h4.16v43.5h-4.16v-43.5Z"/>
    <path class="cls-17" d="m812.82,449.16h-25.79c.47,6.45,5.39,10.73,12.13,10.73,3.75,0,7.09-1.35,9.44-4.04l2.34,2.7c-2.75,3.28-7.03,5.04-11.9,5.04-9.61,0-16.18-6.57-16.18-15.71s6.39-15.65,15.07-15.65,14.95,6.39,14.95,15.65c0,.35-.06.82-.06,1.29Zm-25.79-3.11h21.87c-.53-6.04-4.92-10.26-10.96-10.26s-10.38,4.22-10.9,10.26Z"/>
    <path class="cls-17" d="m849.93,432.45v27.08c0,10.61-5.22,15.42-15.42,15.42-5.63,0-11.14-1.7-14.36-4.75l2.11-3.17c2.93,2.64,7.39,4.22,12.13,4.22,7.8,0,11.37-3.58,11.37-11.2v-3.93c-2.58,3.93-6.98,5.98-12.02,5.98-8.79,0-15.48-6.16-15.48-15.01s6.68-14.89,15.48-14.89c5.16,0,9.61,2.11,12.19,6.16v-5.92h3.99Zm-4.04,14.66c0-6.68-4.92-11.26-11.72-11.26s-11.67,4.57-11.67,11.26,4.87,11.31,11.67,11.31,11.72-4.63,11.72-11.31Z"/>
    <path class="cls-17" d="m884.87,444.17v19.11h-3.99v-4.81c-1.88,3.17-5.51,5.1-10.61,5.1-6.98,0-11.26-3.63-11.26-8.97,0-4.75,3.05-8.73,11.9-8.73h9.79v-1.88c0-5.28-2.99-8.15-8.73-8.15-3.99,0-7.74,1.41-10.26,3.63l-1.88-3.11c3.11-2.64,7.68-4.16,12.55-4.16,7.97,0,12.49,3.99,12.49,11.96Zm-4.16,9.85v-5.04h-9.67c-5.98,0-7.91,2.35-7.91,5.51,0,3.58,2.87,5.8,7.8,5.8s8.15-2.23,9.79-6.27Z"/>
    <path class="cls-17" d="m896.18,419.79h4.16v43.5h-4.16v-43.5Z"/>
    <path class="cls-17" d="m954.16,449.16h-25.79c.47,6.45,5.39,10.73,12.13,10.73,3.75,0,7.09-1.35,9.44-4.04l2.34,2.7c-2.75,3.28-7.03,5.04-11.9,5.04-9.61,0-16.18-6.57-16.18-15.71s6.39-15.65,15.07-15.65,14.95,6.39,14.95,15.65c0,.35-.06.82-.06,1.29Zm-25.79-3.11h21.87c-.53-6.04-4.92-10.26-10.96-10.26s-10.38,4.22-10.9,10.26Z"/>
    <path class="cls-17" d="m532.26,514.21c0,9.38-6.57,15.71-15.36,15.71-4.92,0-9.15-2.11-11.73-6.1v17.18h-4.16v-42.21h3.99v6.1c2.52-4.1,6.8-6.33,11.9-6.33,8.79,0,15.36,6.33,15.36,15.65Zm-4.16,0c0-7.15-4.98-12.02-11.49-12.02s-11.49,4.87-11.49,12.02,4.92,12.02,11.49,12.02,11.49-4.81,11.49-12.02Z"/>
    <path class="cls-17" d="m537.65,514.21c0-9.15,6.68-15.65,15.71-15.65s15.65,6.51,15.65,15.65-6.62,15.71-15.65,15.71-15.71-6.57-15.71-15.71Zm27.14,0c0-7.21-4.87-12.02-11.43-12.02s-11.49,4.81-11.49,12.02,4.92,12.02,11.49,12.02,11.43-4.81,11.43-12.02Z"/>
    <path class="cls-17" d="m573.23,526.11l1.88-3.28c2.46,1.93,6.62,3.46,10.96,3.46,5.86,0,8.27-1.99,8.27-5.04,0-8.03-19.99-1.7-19.99-13.89,0-5.04,4.34-8.79,12.19-8.79,3.99,0,8.32,1.11,10.9,2.87l-1.82,3.34c-2.7-1.88-5.92-2.64-9.09-2.64-5.57,0-8.03,2.17-8.03,5.1,0,8.33,19.99,2.05,19.99,13.89,0,5.33-4.69,8.79-12.72,8.79-5.1,0-10.02-1.64-12.54-3.81Z"/>
    <path class="cls-17" d="m601.9,526.11l1.88-3.28c2.46,1.93,6.62,3.46,10.96,3.46,5.86,0,8.27-1.99,8.27-5.04,0-8.03-19.99-1.7-19.99-13.89,0-5.04,4.34-8.79,12.19-8.79,3.99,0,8.32,1.11,10.9,2.87l-1.82,3.34c-2.7-1.88-5.92-2.64-9.09-2.64-5.57,0-8.03,2.17-8.03,5.1,0,8.33,19.99,2.05,19.99,13.89,0,5.33-4.69,8.79-12.72,8.79-5.1,0-10.02-1.64-12.54-3.81Z"/>
    <path class="cls-17" d="m641.18,486.78h5.57l-9.5,7.27h-4.1l8.03-7.27Zm-6.33,12.02h4.16v30.84h-4.16v-30.84Z"/>
    <path class="cls-17" d="m676.53,498.8l-13.72,30.84h-4.28l-13.66-30.84h4.34l11.55,26.26,11.67-26.26h4.1Z"/>
    <path class="cls-17" d="m708.36,515.5h-25.79c.47,6.45,5.39,10.73,12.13,10.73,3.75,0,7.09-1.35,9.44-4.04l2.34,2.7c-2.75,3.28-7.03,5.04-11.9,5.04-9.61,0-16.18-6.57-16.18-15.71s6.39-15.65,15.07-15.65,14.95,6.39,14.95,15.65c0,.35-.06.82-.06,1.29Zm-25.79-3.11h21.87c-.53-6.04-4.92-10.26-10.96-10.26s-10.38,4.22-10.9,10.26Z"/>
    <path class="cls-17" d="m715.98,489.06c0-1.58,1.35-2.93,3.05-2.93s3.05,1.29,3.05,2.87c0,1.7-1.29,3.05-3.05,3.05s-3.05-1.35-3.05-2.99Zm.94,9.73h4.16v30.84h-4.16v-30.84Z"/>
    <path class="cls-17" d="m728.41,526.11l1.88-3.28c2.46,1.93,6.62,3.46,10.96,3.46,5.86,0,8.27-1.99,8.27-5.04,0-8.03-19.99-1.7-19.99-13.89,0-5.04,4.34-8.79,12.19-8.79,3.99,0,8.32,1.11,10.9,2.87l-1.82,3.34c-2.7-1.88-5.92-2.64-9.09-2.64-5.57,0-8.03,2.17-8.03,5.1,0,8.33,19.99,2.05,19.99,13.89,0,5.33-4.69,8.79-12.72,8.79-5.1,0-10.02-1.64-12.54-3.81Z"/>
    <path class="cls-17" d="m273.82,555.41c0-1.58,1.35-2.93,3.05-2.93s3.05,1.29,3.05,2.87c0,1.7-1.29,3.05-3.05,3.05s-3.05-1.35-3.05-2.99Zm.94,9.73h4.16v30.84h-4.16v-30.84Z"/>
    <path class="cls-17" d="m318.9,578.1v17.88h-4.16v-17.47c0-6.51-3.4-9.85-9.26-9.85-6.62,0-10.79,4.1-10.79,11.14v16.18h-4.16v-30.84h3.99v5.69c2.23-3.75,6.39-5.92,11.72-5.92,7.5,0,12.66,4.34,12.66,13.19Z"/>
    <path class="cls-17" d="m327.23,580.56c0-9.2,6.68-15.65,15.89-15.65,5.22,0,9.61,2.05,12.08,6.1l-3.11,2.11c-2.11-3.11-5.39-4.57-8.97-4.57-6.74,0-11.67,4.81-11.67,12.02s4.92,12.02,11.67,12.02c3.58,0,6.86-1.41,8.97-4.51l3.11,2.11c-2.46,3.99-6.86,6.1-12.08,6.1-9.2,0-15.89-6.51-15.89-15.71Z"/>
    <path class="cls-17" d="m359.7,580.56c0-9.15,6.68-15.65,15.71-15.65s15.65,6.51,15.65,15.65-6.62,15.71-15.65,15.71-15.71-6.57-15.71-15.71Zm27.14,0c0-7.21-4.87-12.02-11.43-12.02s-11.49,4.81-11.49,12.02,4.92,12.02,11.49,12.02,11.43-4.81,11.43-12.02Z"/>
    <path class="cls-17" d="m450.45,578.1v17.88h-4.16v-17.47c0-6.51-3.28-9.85-8.85-9.85-6.33,0-10.32,4.1-10.32,11.14v16.18h-4.16v-17.47c0-6.51-3.28-9.85-8.91-9.85-6.27,0-10.32,4.1-10.32,11.14v16.18h-4.16v-30.84h3.99v5.63c2.17-3.69,6.16-5.86,11.31-5.86s9.09,2.17,10.96,6.51c2.23-3.99,6.62-6.51,12.19-6.51,7.5,0,12.43,4.34,12.43,13.19Z"/>
    <path class="cls-17" d="m493.01,580.56c0,9.38-6.57,15.71-15.36,15.71-4.92,0-9.15-2.11-11.73-6.1v17.18h-4.16v-42.21h3.99v6.1c2.52-4.1,6.8-6.33,11.9-6.33,8.79,0,15.36,6.33,15.36,15.65Zm-4.16,0c0-7.15-4.98-12.02-11.49-12.02s-11.49,4.87-11.49,12.02,4.92,12.02,11.49,12.02,11.49-4.81,11.49-12.02Z"/>
    <path class="cls-17" d="m524.61,576.87v19.11h-3.99v-4.81c-1.88,3.17-5.51,5.1-10.61,5.1-6.98,0-11.26-3.63-11.26-8.97,0-4.75,3.05-8.73,11.9-8.73h9.79v-1.88c0-5.28-2.99-8.15-8.73-8.15-3.99,0-7.74,1.41-10.26,3.63l-1.88-3.11c3.11-2.64,7.68-4.16,12.55-4.16,7.97,0,12.49,3.99,12.49,11.96Zm-4.16,9.85v-5.04h-9.67c-5.98,0-7.91,2.35-7.91,5.51,0,3.58,2.87,5.8,7.8,5.8s8.15-2.23,9.79-6.27Z"/>
    <path class="cls-17" d="m552.16,594.1c-1.64,1.47-4.1,2.17-6.51,2.17-5.8,0-9.03-3.28-9.03-8.97v-18.64h-5.51v-3.52h5.51v-6.74h4.16v6.74h9.38v3.52h-9.38v18.41c0,3.63,1.88,5.63,5.33,5.63,1.7,0,3.4-.53,4.57-1.58l1.47,2.99Z"/>
    <path class="cls-17" d="m558.78,555.41c0-1.58,1.35-2.93,3.05-2.93s3.05,1.29,3.05,2.87c0,1.7-1.29,3.05-3.05,3.05s-3.05-1.35-3.05-2.99Zm.94,9.73h4.16v30.84h-4.16v-30.84Z"/>
    <path class="cls-17" d="m606.74,580.56c0,9.32-6.57,15.71-15.36,15.71-5.1,0-9.38-2.23-11.9-6.39v6.1h-3.99v-43.5h4.16v18.53c2.58-3.99,6.8-6.1,11.73-6.1,8.79,0,15.36,6.33,15.36,15.65Zm-4.16,0c0-7.21-4.98-12.02-11.49-12.02s-11.49,4.81-11.49,12.02,4.92,12.02,11.49,12.02,11.49-4.81,11.49-12.02Z"/>
    <path class="cls-17" d="m614.3,555.41c0-1.58,1.35-2.93,3.05-2.93s3.05,1.29,3.05,2.87c0,1.7-1.29,3.05-3.05,3.05s-3.05-1.35-3.05-2.99Zm.94,9.73h4.16v30.84h-4.16v-30.84Z"/>
    <path class="cls-17" d="m631.01,552.48h4.16v43.5h-4.16v-43.5Z"/>
    <path class="cls-17" d="m645.84,555.41c0-1.58,1.35-2.93,3.05-2.93s3.05,1.29,3.05,2.87c0,1.7-1.29,3.05-3.05,3.05s-3.05-1.35-3.05-2.99Zm.94,9.73h4.16v30.84h-4.16v-30.84Z"/>
    <path class="cls-17" d="m690.69,552.48v43.5h-3.99v-6.1c-2.52,4.16-6.8,6.39-11.9,6.39-8.79,0-15.36-6.39-15.36-15.71s6.57-15.65,15.36-15.65c4.92,0,9.15,2.11,11.72,6.1v-18.53h4.16Zm-4.1,28.08c0-7.21-4.92-12.02-11.43-12.02s-11.49,4.81-11.49,12.02,4.92,12.02,11.49,12.02,11.43-4.81,11.43-12.02Z"/>
    <path class="cls-17" d="m725.57,576.87v19.11h-3.99v-4.81c-1.88,3.17-5.51,5.1-10.61,5.1-6.98,0-11.26-3.63-11.26-8.97,0-4.75,3.05-8.73,11.9-8.73h9.79v-1.88c0-5.28-2.99-8.15-8.73-8.15-3.99,0-7.74,1.41-10.26,3.63l-1.88-3.11c3.11-2.64,7.68-4.16,12.55-4.16,7.97,0,12.49,3.99,12.49,11.96Zm-4.16,9.85v-5.04h-9.67c-5.98,0-7.91,2.35-7.91,5.51,0,3.58,2.87,5.8,7.8,5.8s8.15-2.23,9.79-6.27Z"/>
    <path class="cls-17" d="m765.14,552.48v43.5h-3.99v-6.1c-2.52,4.16-6.8,6.39-11.9,6.39-8.79,0-15.36-6.39-15.36-15.71s6.57-15.65,15.36-15.65c4.92,0,9.14,2.11,11.72,6.1v-18.53h4.16Zm-4.1,28.08c0-7.21-4.92-12.02-11.43-12.02s-11.49,4.81-11.49,12.02,4.92,12.02,11.49,12.02,11.43-4.81,11.43-12.02Z"/>
    <path class="cls-17" d="m803.59,581.85h-25.79c.47,6.45,5.39,10.73,12.13,10.73,3.75,0,7.09-1.35,9.44-4.04l2.34,2.7c-2.75,3.28-7.03,5.04-11.9,5.04-9.61,0-16.18-6.57-16.18-15.71s6.39-15.65,15.07-15.65,14.95,6.39,14.95,15.65c0,.35-.06.82-.06,1.29Zm-25.79-3.11h21.87c-.53-6.04-4.92-10.26-10.96-10.26s-10.38,4.22-10.9,10.26Z"/>
    <path class="cls-17" d="m807.87,592.46l1.88-3.28c2.46,1.93,6.62,3.46,10.96,3.46,5.86,0,8.27-1.99,8.27-5.04,0-8.03-19.99-1.7-19.99-13.89,0-5.04,4.34-8.79,12.19-8.79,3.99,0,8.32,1.11,10.9,2.87l-1.82,3.34c-2.7-1.88-5.92-2.64-9.09-2.64-5.57,0-8.03,2.17-8.03,5.1,0,8.32,19.99,2.05,19.99,13.89,0,5.33-4.69,8.79-12.72,8.79-5.1,0-10.02-1.64-12.54-3.81Z"/>
    <path class="cls-17" d="m853.07,580.56c0-9.2,6.68-15.65,15.89-15.65,5.22,0,9.61,2.05,12.08,6.1l-3.11,2.11c-2.11-3.11-5.39-4.57-8.97-4.57-6.74,0-11.67,4.81-11.67,12.02s4.92,12.02,11.67,12.02c3.58,0,6.86-1.41,8.97-4.51l3.11,2.11c-2.46,3.99-6.86,6.1-12.08,6.1-9.2,0-15.89-6.51-15.89-15.71Z"/>
    <path class="cls-17" d="m885.54,580.56c0-9.15,6.68-15.65,15.71-15.65s15.65,6.51,15.65,15.65-6.62,15.71-15.65,15.71-15.71-6.57-15.71-15.71Zm27.14,0c0-7.21-4.87-12.02-11.43-12.02s-11.49,4.81-11.49,12.02,4.92,12.02,11.49,12.02,11.43-4.81,11.43-12.02Z"/>
    <path class="cls-17" d="m976.29,578.1v17.88h-4.16v-17.47c0-6.51-3.28-9.85-8.85-9.85-6.33,0-10.32,4.1-10.32,11.14v16.18h-4.16v-17.47c0-6.51-3.28-9.85-8.91-9.85-6.27,0-10.32,4.1-10.32,11.14v16.18h-4.16v-30.84h3.99v5.63c2.17-3.69,6.16-5.86,11.31-5.86s9.09,2.17,10.96,6.51c2.23-3.99,6.62-6.51,12.19-6.51,7.5,0,12.43,4.34,12.43,13.19Z"/>
    <path class="cls-17" d="m410.09,644.44v17.88h-4.16v-17.47c0-6.51-3.4-9.85-9.26-9.85-6.62,0-10.79,4.1-10.79,11.14v16.18h-4.16v-30.84h3.99v5.69c2.23-3.75,6.39-5.92,11.72-5.92,7.5,0,12.66,4.34,12.66,13.19Z"/>
    <path class="cls-17" d="m418.41,646.91c0-9.15,6.68-15.65,15.71-15.65s15.65,6.51,15.65,15.65-6.62,15.71-15.65,15.71-15.71-6.57-15.71-15.71Zm27.14,0c0-7.21-4.87-12.02-11.43-12.02s-11.49,4.81-11.49,12.02,4.92,12.02,11.49,12.02,11.43-4.81,11.43-12.02Z"/>
    <path class="cls-17" d="m473.81,631.25v4.05c-.35,0-.7-.06-1-.06-6.45,0-10.38,4.1-10.38,11.37v15.71h-4.16v-30.84h3.99v6.04c1.93-4.1,5.86-6.27,11.55-6.27Z"/>
    <path class="cls-17" d="m532.2,644.44v17.88h-4.16v-17.47c0-6.51-3.28-9.85-8.85-9.85-6.33,0-10.32,4.1-10.32,11.14v16.18h-4.16v-17.47c0-6.51-3.28-9.85-8.91-9.85-6.27,0-10.32,4.1-10.32,11.14v16.18h-4.16v-30.84h3.99v5.63c2.17-3.69,6.16-5.86,11.31-5.86s9.09,2.17,10.96,6.51c2.23-3.99,6.62-6.51,12.19-6.51,7.5,0,12.43,4.34,12.43,13.19Z"/>
    <path class="cls-17" d="m566.79,643.21v19.11h-3.99v-4.81c-1.88,3.17-5.51,5.1-10.61,5.1-6.98,0-11.26-3.63-11.26-8.97,0-4.75,3.05-8.73,11.9-8.73h9.79v-1.88c0-5.28-2.99-8.15-8.73-8.15-3.99,0-7.74,1.41-10.26,3.63l-1.88-3.11c3.11-2.64,7.68-4.16,12.55-4.16,7.97,0,12.49,3.99,12.49,11.96Zm-4.16,9.85v-5.04h-9.67c-5.98,0-7.91,2.35-7.91,5.51,0,3.58,2.87,5.8,7.8,5.8s8.15-2.23,9.79-6.27Z"/>
    <path class="cls-17" d="m573.82,658.81l1.88-3.28c2.46,1.93,6.62,3.46,10.96,3.46,5.86,0,8.27-1.99,8.27-5.04,0-8.03-19.99-1.7-19.99-13.89,0-5.04,4.34-8.79,12.19-8.79,3.99,0,8.32,1.11,10.9,2.87l-1.82,3.34c-2.7-1.88-5.92-2.64-9.09-2.64-5.57,0-8.03,2.17-8.03,5.1,0,8.33,19.99,2.05,19.99,13.89,0,5.33-4.69,8.79-12.72,8.79-5.1,0-10.03-1.64-12.55-3.81Z"/>
    <path class="cls-17" d="m611.04,672l1.47-3.17c1.23,1.06,2.87,1.58,4.81,1.58,3.28,0,5.1-1.99,5.1-5.8v-33.12h4.16v33.12c0,5.69-3.17,9.38-9.03,9.38-2.46,0-4.98-.64-6.51-1.99Zm10.44-50.24c0-1.58,1.35-2.93,3.05-2.93s3.05,1.29,3.05,2.87c0,1.7-1.29,3.05-3.05,3.05s-3.05-1.35-3.05-2.99Z"/>
    <path class="cls-17" d="m665.97,631.49v30.84h-3.99v-5.63c-2.17,3.75-6.16,5.92-11.08,5.92-7.86,0-13.01-4.4-13.01-13.25v-17.88h4.16v17.47c0,6.57,3.4,9.91,9.26,9.91,6.45,0,10.49-4.16,10.49-11.2v-16.18h4.16Z"/>
    <path class="cls-17" d="m693.17,631.25v4.05c-.35,0-.7-.06-1-.06-6.45,0-10.38,4.1-10.38,11.37v15.71h-4.16v-30.84h3.99v6.04c1.93-4.1,5.86-6.27,11.55-6.27Z"/>
    <path class="cls-17" d="m707.01,619.47h5.57l-9.5,7.27h-4.1l8.03-7.27Zm-6.33,12.02h4.16v30.84h-4.16v-30.84Z"/>
    <path class="cls-17" d="m744.59,618.83v43.5h-3.99v-6.1c-2.52,4.16-6.8,6.39-11.9,6.39-8.79,0-15.36-6.39-15.36-15.71s6.57-15.65,15.36-15.65c4.92,0,9.14,2.11,11.72,6.1v-18.53h4.16Zm-4.1,28.08c0-7.21-4.92-12.02-11.43-12.02s-11.49,4.81-11.49,12.02,4.92,12.02,11.49,12.02,11.43-4.81,11.43-12.02Z"/>
    <path class="cls-17" d="m755.25,621.76c0-1.58,1.35-2.93,3.05-2.93s3.05,1.29,3.05,2.87c0,1.7-1.29,3.05-3.05,3.05s-3.05-1.35-3.05-2.99Zm.94,9.73h4.16v30.84h-4.16v-30.84Z"/>
    <path class="cls-17" d="m768.85,646.91c0-9.2,6.68-15.65,15.89-15.65,5.22,0,9.61,2.05,12.08,6.1l-3.11,2.11c-2.11-3.11-5.39-4.57-8.97-4.57-6.74,0-11.67,4.81-11.67,12.02s4.92,12.02,11.67,12.02c3.58,0,6.86-1.41,8.97-4.51l3.11,2.11c-2.46,3.99-6.86,6.1-12.08,6.1-9.2,0-15.89-6.51-15.89-15.71Z"/>
    <path class="cls-17" d="m828.24,643.21v19.11h-3.99v-4.81c-1.88,3.17-5.51,5.1-10.61,5.1-6.98,0-11.26-3.63-11.26-8.97,0-4.75,3.05-8.73,11.9-8.73h9.79v-1.88c0-5.28-2.99-8.15-8.73-8.15-3.99,0-7.74,1.41-10.26,3.63l-1.88-3.11c3.11-2.64,7.68-4.16,12.55-4.16,7.97,0,12.49,3.99,12.49,11.96Zm-4.16,9.85v-5.04h-9.67c-5.98,0-7.91,2.35-7.91,5.51,0,3.58,2.87,5.8,7.8,5.8s8.15-2.23,9.79-6.27Z"/>
    <path class="cls-17" d="m835.27,658.81l1.88-3.28c2.46,1.93,6.62,3.46,10.96,3.46,5.86,0,8.27-1.99,8.27-5.04,0-8.03-19.99-1.7-19.99-13.89,0-5.04,4.34-8.79,12.19-8.79,3.99,0,8.32,1.11,10.9,2.87l-1.82,3.34c-2.7-1.88-5.92-2.64-9.09-2.64-5.57,0-8.03,2.17-8.03,5.1,0,8.33,19.99,2.05,19.99,13.89,0,5.33-4.69,8.79-12.72,8.79-5.1,0-10.02-1.64-12.54-3.81Z"/>
    <path class="cls-17" d="m871.79,659.39c0,1-.23,1.76-.82,3.4l-2.46,8.09h-2.81l1.99-8.5c-1.23-.35-2.11-1.47-2.11-2.99,0-1.82,1.35-3.17,3.11-3.17s3.11,1.41,3.11,3.17Z"/>
    <path class="cls-17" d="m231.44,694.2v3.63h9.5v3.52h-9.38v27.32h-4.16v-27.32h-5.51v-3.52h5.51v-3.81c0-5.51,3.28-9.15,9.32-9.15,2.29,0,4.63.64,6.16,1.93l-1.41,3.11c-1.17-1-2.81-1.52-4.57-1.52-3.58,0-5.45,1.99-5.45,5.8Z"/>
    <path class="cls-17" d="m242.93,713.25c0-9.15,6.68-15.65,15.71-15.65s15.65,6.51,15.65,15.65-6.62,15.71-15.65,15.71-15.71-6.57-15.71-15.71Zm27.14,0c0-7.21-4.87-12.02-11.43-12.02s-11.49,4.81-11.49,12.02,4.92,12.02,11.49,12.02,11.43-4.81,11.43-12.02Z"/>
    <path class="cls-17" d="m298.33,697.6v4.05c-.35,0-.7-.06-1-.06-6.45,0-10.38,4.1-10.38,11.37v15.71h-4.16v-30.84h3.99v6.04c1.93-4.1,5.86-6.27,11.55-6.27Z"/>
    <path class="cls-17" d="m356.72,710.79v17.88h-4.16v-17.47c0-6.51-3.28-9.85-8.85-9.85-6.33,0-10.32,4.1-10.32,11.14v16.18h-4.16v-17.47c0-6.51-3.28-9.85-8.91-9.85-6.27,0-10.32,4.1-10.32,11.14v16.18h-4.16v-30.84h3.99v5.63c2.17-3.69,6.16-5.86,11.31-5.86s9.09,2.17,10.96,6.51c2.23-3.99,6.62-6.51,12.19-6.51,7.5,0,12.43,4.34,12.43,13.19Z"/>
    <path class="cls-17" d="m395.82,697.84v30.84h-3.99v-5.63c-2.17,3.75-6.16,5.92-11.08,5.92-7.86,0-13.01-4.4-13.01-13.25v-17.88h4.16v17.47c0,6.57,3.4,9.91,9.26,9.91,6.45,0,10.49-4.16,10.49-11.2v-16.18h4.16Z"/>
    <path class="cls-17" d="m407.48,685.17h4.16v43.5h-4.16v-43.5Z"/>
    <path class="cls-17" d="m446.52,709.56v19.11h-3.99v-4.81c-1.88,3.17-5.51,5.1-10.61,5.1-6.98,0-11.26-3.63-11.26-8.97,0-4.75,3.05-8.73,11.9-8.73h9.79v-1.88c0-5.28-2.99-8.15-8.73-8.15-3.99,0-7.74,1.41-10.26,3.63l-1.88-3.11c3.11-2.64,7.68-4.16,12.55-4.16,7.97,0,12.49,3.99,12.49,11.96Zm-4.16,9.85v-5.04h-9.67c-5.98,0-7.91,2.35-7.91,5.51,0,3.58,2.87,5.8,7.8,5.8s8.15-2.23,9.79-6.27Z"/>
    <path class="cls-17" d="m479.7,720.76l3.11,2.11c-2.46,3.99-6.86,6.1-12.08,6.1h-.12l-.7,2.76c3.22.29,4.98,2.17,4.98,4.75,0,3.17-2.7,5.1-6.62,5.1-1.93,0-3.52-.41-4.92-1.35l1-2.23c1.17.76,2.46,1.11,3.87,1.11,2.34,0,3.63-1,3.63-2.76,0-1.58-1.17-2.7-3.63-2.7h-1.35l1.29-4.87c-7.86-1.11-13.31-7.21-13.31-15.54,0-9.2,6.68-15.65,15.89-15.65,5.22,0,9.61,2.05,12.08,6.1l-3.11,2.11c-2.11-3.11-5.39-4.57-8.97-4.57-6.74,0-11.67,4.81-11.67,12.02s4.92,12.02,11.67,12.02c3.58,0,6.86-1.41,8.97-4.51Z"/>
    <path class="cls-17" d="m514.23,709.56v19.11h-3.99v-4.81c-1.88,3.17-5.51,5.1-10.61,5.1-6.98,0-11.26-3.63-11.26-8.97,0-4.75,3.05-8.73,11.9-8.73h9.79v-1.88c0-5.28-2.99-8.15-8.73-8.15-3.99,0-7.74,1.41-10.26,3.63l-1.88-3.11c3.11-2.64,7.68-4.16,12.55-4.16,7.97,0,12.49,3.99,12.49,11.96Zm-4.16,9.85v-5.04h-9.67c-5.98,0-7.91,2.35-7.91,5.51,0,3.58,2.87,5.8,7.8,5.8s8.15-2.23,9.79-6.27Zm-14.95-26.91h-2.52c.12-3.93,2.17-6.45,5.28-6.45,3.63,0,5.39,3.99,7.68,3.99,1.76,0,2.93-1.41,3.05-3.63h2.52c-.12,3.81-2.17,6.33-5.28,6.33-3.63,0-5.33-3.99-7.68-3.99-1.76,0-2.93,1.41-3.05,3.75Z"/>
    <path class="cls-17" d="m522.55,713.25c0-9.15,6.68-15.65,15.71-15.65s15.65,6.51,15.65,15.65-6.62,15.71-15.65,15.71-15.71-6.57-15.71-15.71Zm27.14,0c0-7.21-4.87-12.02-11.43-12.02s-11.49,4.81-11.49,12.02,4.92,12.02,11.49,12.02,11.43-4.81,11.43-12.02Z"/>
    <path class="cls-17" d="m605.92,685.17v43.5h-3.99v-6.1c-2.52,4.16-6.8,6.39-11.9,6.39-8.79,0-15.36-6.39-15.36-15.71s6.57-15.65,15.36-15.65c4.92,0,9.14,2.11,11.72,6.1v-18.53h4.16Zm-4.1,28.08c0-7.21-4.92-12.02-11.43-12.02s-11.49,4.81-11.49,12.02,4.92,12.02,11.49,12.02,11.43-4.81,11.43-12.02Z"/>
    <path class="cls-17" d="m640.8,709.56v19.11h-3.99v-4.81c-1.88,3.17-5.51,5.1-10.61,5.1-6.98,0-11.26-3.63-11.26-8.97,0-4.75,3.05-8.73,11.9-8.73h9.79v-1.88c0-5.28-2.99-8.15-8.73-8.15-3.99,0-7.74,1.41-10.26,3.63l-1.88-3.11c3.11-2.64,7.68-4.16,12.55-4.16,7.97,0,12.49,3.99,12.49,11.96Zm-4.16,9.85v-5.04h-9.67c-5.98,0-7.91,2.35-7.91,5.51,0,3.58,2.87,5.8,7.8,5.8s8.15-2.23,9.79-6.27Z"/>
    <path class="cls-17" d="m647.83,725.15l1.88-3.28c2.46,1.93,6.62,3.46,10.96,3.46,5.86,0,8.27-1.99,8.27-5.04,0-8.03-19.99-1.7-19.99-13.89,0-5.04,4.34-8.79,12.19-8.79,3.99,0,8.32,1.11,10.9,2.87l-1.82,3.34c-2.7-1.88-5.92-2.64-9.09-2.64-5.57,0-8.03,2.17-8.03,5.1,0,8.32,19.99,2.05,19.99,13.89,0,5.33-4.69,8.79-12.72,8.79-5.1,0-10.03-1.64-12.55-3.81Z"/>
    <path class="cls-17" d="m719.41,709.56v19.11h-3.99v-4.81c-1.88,3.17-5.51,5.1-10.61,5.1-6.98,0-11.26-3.63-11.26-8.97,0-4.75,3.05-8.73,11.9-8.73h9.79v-1.88c0-5.28-2.99-8.15-8.73-8.15-3.99,0-7.74,1.41-10.26,3.63l-1.88-3.11c3.11-2.64,7.68-4.16,12.55-4.16,7.97,0,12.49,3.99,12.49,11.96Zm-4.16,9.85v-5.04h-9.67c-5.98,0-7.91,2.35-7.91,5.51,0,3.58,2.87,5.8,7.8,5.8s8.15-2.23,9.79-6.27Z"/>
    <path class="cls-17" d="m730.72,685.17h4.16v43.5h-4.16v-43.5Z"/>
    <path class="cls-17" d="m762.85,726.8c-1.64,1.47-4.1,2.17-6.51,2.17-5.8,0-9.03-3.28-9.03-8.97v-18.64h-5.51v-3.52h5.51v-6.74h4.16v6.74h9.38v3.52h-9.38v18.41c0,3.63,1.88,5.63,5.33,5.63,1.7,0,3.4-.53,4.57-1.58l1.47,2.99Z"/>
    <path class="cls-17" d="m796.14,714.54h-25.79c.47,6.45,5.39,10.73,12.13,10.73,3.75,0,7.09-1.35,9.44-4.04l2.34,2.7c-2.75,3.28-7.03,5.04-11.9,5.04-9.61,0-16.18-6.57-16.18-15.71s6.39-15.65,15.07-15.65,14.95,6.39,14.95,15.65c0,.35-.06.82-.06,1.29Zm-25.79-3.11h21.87c-.53-6.04-4.92-10.26-10.96-10.26s-10.38,4.22-10.9,10.26Z"/>
    <path class="cls-17" d="m820.24,697.6v4.05c-.35,0-.7-.06-1-.06-6.45,0-10.38,4.1-10.38,11.37v15.71h-4.16v-30.84h3.99v6.04c1.93-4.1,5.86-6.27,11.55-6.27Z"/>
    <path class="cls-17" d="m856.11,710.79v17.88h-4.16v-17.47c0-6.51-3.4-9.85-9.26-9.85-6.62,0-10.79,4.1-10.79,11.14v16.18h-4.16v-30.84h3.99v5.69c2.23-3.75,6.39-5.92,11.72-5.92,7.5,0,12.66,4.34,12.66,13.19Z"/>
    <path class="cls-17" d="m890.7,709.56v19.11h-3.99v-4.81c-1.88,3.17-5.51,5.1-10.61,5.1-6.98,0-11.26-3.63-11.26-8.97,0-4.75,3.05-8.73,11.9-8.73h9.79v-1.88c0-5.28-2.99-8.15-8.73-8.15-3.99,0-7.74,1.41-10.26,3.63l-1.88-3.11c3.11-2.64,7.68-4.16,12.55-4.16,7.97,0,12.49,3.99,12.49,11.96Zm-4.16,9.85v-5.04h-9.67c-5.98,0-7.91,2.35-7.91,5.51,0,3.58,2.87,5.8,7.8,5.8s8.15-2.23,9.79-6.27Z"/>
    <path class="cls-17" d="m918.25,726.8c-1.64,1.47-4.1,2.17-6.51,2.17-5.8,0-9.03-3.28-9.03-8.97v-18.64h-5.51v-3.52h5.51v-6.74h4.16v6.74h9.38v3.52h-9.38v18.41c0,3.63,1.88,5.63,5.33,5.63,1.7,0,3.4-.53,4.57-1.58l1.47,2.99Z"/>
    <path class="cls-17" d="m924.87,688.1c0-1.58,1.35-2.93,3.05-2.93s3.05,1.29,3.05,2.87c0,1.7-1.29,3.05-3.05,3.05s-3.05-1.35-3.05-2.99Zm.94,9.73h4.16v30.84h-4.16v-30.84Z"/>
    <path class="cls-17" d="m967.49,697.84l-13.72,30.84h-4.28l-13.66-30.84h4.34l11.55,26.26,11.67-26.26h4.1Z"/>
    <path class="cls-17" d="m995.69,709.56v19.11h-3.99v-4.81c-1.88,3.17-5.51,5.1-10.61,5.1-6.98,0-11.26-3.63-11.26-8.97,0-4.75,3.05-8.73,11.9-8.73h9.79v-1.88c0-5.28-2.99-8.15-8.73-8.15-3.99,0-7.74,1.41-10.26,3.63l-1.88-3.11c3.11-2.64,7.68-4.16,12.55-4.16,7.97,0,12.49,3.99,12.49,11.96Zm-4.16,9.85v-5.04h-9.67c-5.98,0-7.91,2.35-7.91,5.51,0,3.58,2.87,5.8,7.8,5.8s8.15-2.23,9.79-6.27Z"/>
    <path class="cls-17" d="m1002.72,725.15l1.88-3.28c2.46,1.93,6.62,3.46,10.96,3.46,5.86,0,8.27-1.99,8.27-5.04,0-8.03-19.99-1.7-19.99-13.89,0-5.04,4.34-8.79,12.19-8.79,3.99,0,8.32,1.11,10.9,2.87l-1.82,3.34c-2.7-1.88-5.92-2.64-9.09-2.64-5.57,0-8.03,2.17-8.03,5.1,0,8.32,19.99,2.05,19.99,13.89,0,5.33-4.69,8.79-12.72,8.79-5.1,0-10.02-1.64-12.54-3.81Z"/>
    <path class="cls-17" d="m318.9,763.95v4.05c-.35,0-.7-.06-1-.06-6.45,0-10.38,4.1-10.38,11.37v15.71h-4.16v-30.84h3.99v6.04c1.93-4.1,5.86-6.27,11.55-6.27Z"/>
    <path class="cls-17" d="m352.96,780.89h-25.79c.47,6.45,5.39,10.73,12.13,10.73,3.75,0,7.09-1.35,9.44-4.04l2.34,2.7c-2.75,3.28-7.03,5.04-11.9,5.04-9.61,0-16.18-6.57-16.18-15.71s6.39-15.65,15.07-15.65,14.95,6.39,14.95,15.65c0,.35-.06.82-.06,1.29Zm-25.79-3.11h21.87c-.53-6.04-4.92-10.26-10.96-10.26s-10.38,4.22-10.9,10.26Z"/>
    <path class="cls-17" d="m390.07,764.18v27.08c0,10.61-5.22,15.42-15.42,15.42-5.63,0-11.14-1.7-14.36-4.75l2.11-3.17c2.93,2.64,7.39,4.22,12.13,4.22,7.8,0,11.37-3.58,11.37-11.2v-3.93c-2.58,3.93-6.98,5.98-12.02,5.98-8.79,0-15.48-6.16-15.48-15.01s6.68-14.89,15.48-14.89c5.16,0,9.61,2.11,12.19,6.16v-5.92h3.99Zm-4.04,14.66c0-6.68-4.92-11.26-11.72-11.26s-11.67,4.57-11.67,11.26,4.87,11.31,11.67,11.31,11.72-4.63,11.72-11.31Z"/>
    <path class="cls-17" d="m429.52,764.18v30.84h-3.99v-5.63c-2.17,3.75-6.16,5.92-11.08,5.92-7.86,0-13.01-4.4-13.01-13.25v-17.88h4.16v17.47c0,6.57,3.4,9.91,9.26,9.91,6.45,0,10.49-4.16,10.49-11.2v-16.18h4.16Z"/>
    <path class="cls-17" d="m441.19,751.52h4.16v43.5h-4.16v-43.5Z"/>
    <path class="cls-17" d="m480.23,775.91v19.11h-3.99v-4.81c-1.88,3.17-5.51,5.1-10.61,5.1-6.98,0-11.26-3.63-11.26-8.97,0-4.75,3.05-8.73,11.9-8.73h9.79v-1.88c0-5.28-2.99-8.15-8.73-8.15-3.99,0-7.74,1.41-10.26,3.63l-1.88-3.11c3.11-2.64,7.68-4.16,12.55-4.16,7.97,0,12.49,3.99,12.49,11.96Zm-4.16,9.85v-5.04h-9.67c-5.98,0-7.91,2.35-7.91,5.51,0,3.58,2.87,5.8,7.8,5.8s8.15-2.23,9.79-6.27Z"/>
    <path class="cls-17" d="m507.78,793.14c-1.64,1.47-4.1,2.17-6.51,2.17-5.8,0-9.03-3.28-9.03-8.97v-18.64h-5.51v-3.52h5.51v-6.74h4.16v6.74h9.38v3.52h-9.38v18.41c0,3.63,1.88,5.63,5.33,5.63,1.7,0,3.4-.53,4.57-1.58l1.47,2.99Z"/>
    <path class="cls-17" d="m511.12,779.6c0-9.15,6.68-15.65,15.71-15.65s15.65,6.51,15.65,15.65-6.62,15.71-15.65,15.71-15.71-6.57-15.71-15.71Zm27.14,0c0-7.21-4.87-12.02-11.43-12.02s-11.49,4.81-11.49,12.02,4.92,12.02,11.49,12.02,11.43-4.81,11.43-12.02Zm-7.27-27.44h5.57l-9.5,7.27h-4.1l8.03-7.27Z"/>
    <path class="cls-17" d="m566.52,763.95v4.05c-.35,0-.7-.06-1-.06-6.45,0-10.38,4.1-10.38,11.37v15.71h-4.16v-30.84h3.99v6.04c1.93-4.1,5.86-6.27,11.55-6.27Z"/>
    <path class="cls-17" d="m573.09,754.45c0-1.58,1.35-2.93,3.05-2.93s3.05,1.29,3.05,2.87c0,1.7-1.29,3.05-3.05,3.05s-3.05-1.35-3.05-2.99Zm.94,9.73h4.16v30.84h-4.16v-30.84Z"/>
    <path class="cls-17" d="m613.07,775.91v19.11h-3.99v-4.81c-1.88,3.17-5.51,5.1-10.61,5.1-6.98,0-11.26-3.63-11.26-8.97,0-4.75,3.05-8.73,11.9-8.73h9.79v-1.88c0-5.28-2.99-8.15-8.73-8.15-3.99,0-7.74,1.41-10.26,3.63l-1.88-3.11c3.11-2.64,7.68-4.16,12.55-4.16,7.97,0,12.49,3.99,12.49,11.96Zm-4.16,9.85v-5.04h-9.67c-5.98,0-7.91,2.35-7.91,5.51,0,3.58,2.87,5.8,7.8,5.8s8.15-2.23,9.79-6.27Z"/>
    <path class="cls-17" d="m620.1,791.5l1.88-3.28c2.46,1.93,6.62,3.46,10.96,3.46,5.86,0,8.27-1.99,8.27-5.04,0-8.03-19.99-1.7-19.99-13.89,0-5.04,4.34-8.79,12.19-8.79,3.99,0,8.32,1.11,10.9,2.87l-1.82,3.34c-2.7-1.88-5.92-2.64-9.09-2.64-5.57,0-8.03,2.17-8.03,5.1,0,8.32,19.99,2.05,19.99,13.89,0,5.33-4.69,8.79-12.72,8.79-5.1,0-10.03-1.64-12.55-3.81Z"/>
    <path class="cls-17" d="m695.26,780.89h-25.79c.47,6.45,5.39,10.73,12.13,10.73,3.75,0,7.09-1.35,9.44-4.04l2.34,2.7c-2.75,3.28-7.03,5.04-11.9,5.04-9.61,0-16.18-6.57-16.18-15.71s6.39-15.65,15.07-15.65,14.95,6.39,14.95,15.65c0,.35-.06.82-.06,1.29Zm-25.79-3.11h21.87c-.53-6.04-4.92-10.26-10.96-10.26s-10.38,4.22-10.9,10.26Z"/>
    <path class="cls-17" d="m747.31,751.52v43.5h-3.99v-6.1c-2.52,4.16-6.8,6.39-11.9,6.39-8.79,0-15.36-6.39-15.36-15.71s6.57-15.65,15.36-15.65c4.92,0,9.15,2.11,11.72,6.1v-18.53h4.16Zm-4.1,28.08c0-7.21-4.92-12.02-11.43-12.02s-11.49,4.81-11.49,12.02,4.92,12.02,11.49,12.02,11.43-4.81,11.43-12.02Z"/>
    <path class="cls-17" d="m755.81,779.6c0-9.15,6.68-15.65,15.71-15.65s15.65,6.51,15.65,15.65-6.62,15.71-15.65,15.71-15.71-6.57-15.71-15.71Zm27.14,0c0-7.21-4.87-12.02-11.43-12.02s-11.49,4.81-11.49,12.02,4.92,12.02,11.49,12.02,11.43-4.81,11.43-12.02Z"/>
    <path class="cls-17" d="m827.27,793.14c-1.64,1.47-4.1,2.17-6.51,2.17-5.8,0-9.03-3.28-9.03-8.97v-18.64h-5.51v-3.52h5.51v-6.74h4.16v6.74h9.38v3.52h-9.38v18.41c0,3.63,1.88,5.63,5.33,5.63,1.7,0,3.4-.53,4.57-1.58l1.47,2.99Z"/>
    <path class="cls-17" d="m860.57,780.89h-25.79c.47,6.45,5.39,10.73,12.13,10.73,3.75,0,7.09-1.35,9.44-4.04l2.34,2.7c-2.75,3.28-7.03,5.04-11.9,5.04-9.61,0-16.18-6.57-16.18-15.71s6.39-15.65,15.07-15.65,14.95,6.39,14.95,15.65c0,.35-.06.82-.06,1.29Zm-25.79-3.11h21.87c-.53-6.04-4.92-10.26-10.96-10.26s-10.38,4.22-10.9,10.26Z"/>
    <path class="cls-17" d="m887.89,795.02l-9.79-12.9-9.85,12.9h-4.69l12.19-15.83-11.61-15.01h4.69l9.26,12.08,9.26-12.08h4.57l-11.61,15.01,12.31,15.83h-4.75Z"/>
    <path class="cls-17" d="m915.79,793.14c-1.64,1.47-4.1,2.17-6.51,2.17-5.8,0-9.03-3.28-9.03-8.97v-18.64h-5.51v-3.52h5.51v-6.74h4.16v6.74h9.38v3.52h-9.38v18.41c0,3.63,1.88,5.63,5.33,5.63,1.7,0,3.4-.53,4.57-1.58l1.47,2.99Z"/>
    <path class="cls-17" d="m919.13,779.6c0-9.15,6.68-15.65,15.71-15.65s15.65,6.51,15.65,15.65-6.62,15.71-15.65,15.71-15.71-6.57-15.71-15.71Zm27.14,0c0-7.21-4.87-12.02-11.43-12.02s-11.49,4.81-11.49,12.02,4.92,12.02,11.49,12.02,11.43-4.81,11.43-12.02Z"/>
    <path class="cls-17" d="m298.42,843.49v17.88h-4.16v-17.47c0-6.51-3.4-9.85-9.26-9.85-6.62,0-10.79,4.1-10.79,11.14v16.18h-4.16v-30.84h3.99v5.69c2.23-3.75,6.39-5.92,11.72-5.92,7.5,0,12.66,4.34,12.66,13.19Z"/>
    <path class="cls-17" d="m306.74,845.95c0-9.15,6.68-15.65,15.71-15.65s15.65,6.51,15.65,15.65-6.62,15.71-15.65,15.71-15.71-6.57-15.71-15.71Zm27.14,0c0-7.21-4.87-12.02-11.43-12.02s-11.49,4.81-11.49,12.02,4.92,12.02,11.49,12.02,11.43-4.81,11.43-12.02Z"/>
    <path class="cls-17" d="m362.14,830.3v4.05c-.35,0-.7-.06-1-.06-6.45,0-10.38,4.1-10.38,11.37v15.71h-4.16v-30.84h3.99v6.04c1.93-4.1,5.86-6.27,11.55-6.27Z"/>
    <path class="cls-17" d="m420.52,843.49v17.88h-4.16v-17.47c0-6.51-3.28-9.85-8.85-9.85-6.33,0-10.32,4.1-10.32,11.14v16.18h-4.16v-17.47c0-6.51-3.28-9.85-8.91-9.85-6.27,0-10.32,4.1-10.32,11.14v16.18h-4.16v-30.84h3.99v5.63c2.17-3.69,6.16-5.86,11.31-5.86s9.09,2.17,10.96,6.51c2.23-3.99,6.62-6.51,12.19-6.51,7.5,0,12.43,4.34,12.43,13.19Z"/>
    <path class="cls-17" d="m455.11,842.26v19.11h-3.99v-4.81c-1.88,3.17-5.51,5.1-10.61,5.1-6.98,0-11.26-3.63-11.26-8.97,0-4.75,3.05-8.73,11.9-8.73h9.79v-1.88c0-5.28-2.99-8.15-8.73-8.15-3.99,0-7.74,1.41-10.26,3.63l-1.88-3.11c3.11-2.64,7.68-4.16,12.55-4.16,7.97,0,12.49,3.99,12.49,11.96Zm-4.16,9.85v-5.04h-9.67c-5.98,0-7.91,2.35-7.91,5.51,0,3.58,2.87,5.8,7.8,5.8s8.15-2.23,9.79-6.27Z"/>
    <path class="cls-17" d="m482.66,859.49c-1.64,1.47-4.1,2.17-6.51,2.17-5.8,0-9.03-3.28-9.03-8.97v-18.64h-5.51v-3.52h5.51v-6.74h4.16v6.74h9.38v3.52h-9.38v18.41c0,3.63,1.88,5.63,5.33,5.63,1.7,0,3.4-.53,4.57-1.58l1.47,2.99Z"/>
    <path class="cls-17" d="m489.29,820.8c0-1.58,1.35-2.93,3.05-2.93s3.05,1.29,3.05,2.87c0,1.7-1.29,3.05-3.05,3.05s-3.05-1.35-3.05-2.99Zm.94,9.73h4.16v30.84h-4.16v-30.84Z"/>
    <path class="cls-17" d="m531.91,830.53l-13.72,30.84h-4.28l-13.66-30.84h4.34l11.55,26.26,11.67-26.26h4.1Z"/>
    <path class="cls-17" d="m533.78,845.95c0-9.15,6.68-15.65,15.71-15.65s15.65,6.51,15.65,15.65-6.62,15.71-15.65,15.71-15.71-6.57-15.71-15.71Zm27.14,0c0-7.21-4.87-12.02-11.43-12.02s-11.49,4.81-11.49,12.02,4.92,12.02,11.49,12.02,11.43-4.81,11.43-12.02Z"/>
    <path class="cls-17" d="m585.89,845.95c0-9.2,6.68-15.65,15.89-15.65,5.22,0,9.61,2.05,12.08,6.1l-3.11,2.11c-2.11-3.11-5.39-4.57-8.97-4.57-6.74,0-11.67,4.81-11.67,12.02s4.92,12.02,11.67,12.02c3.58,0,6.86-1.41,8.97-4.51l3.11,2.11c-2.46,3.99-6.86,6.1-12.08,6.1-9.2,0-15.89-6.51-15.89-15.71Z"/>
    <path class="cls-17" d="m618.37,845.95c0-9.15,6.68-15.65,15.71-15.65s15.65,6.51,15.65,15.65-6.62,15.71-15.65,15.71-15.71-6.57-15.71-15.71Zm27.14,0c0-7.21-4.87-12.02-11.43-12.02s-11.49,4.81-11.49,12.02,4.92,12.02,11.49,12.02,11.43-4.81,11.43-12.02Z"/>
    <path class="cls-17" d="m709.12,843.49v17.88h-4.16v-17.47c0-6.51-3.28-9.85-8.85-9.85-6.33,0-10.32,4.1-10.32,11.14v16.18h-4.16v-17.47c0-6.51-3.28-9.85-8.91-9.85-6.27,0-10.32,4.1-10.32,11.14v16.18h-4.16v-30.84h3.99v5.63c2.17-3.69,6.16-5.86,11.31-5.86s9.09,2.17,10.96,6.51c2.23-3.99,6.62-6.51,12.19-6.51,7.5,0,12.43,4.34,12.43,13.19Z"/>
    <path class="cls-17" d="m767.04,845.95c0,9.32-6.57,15.71-15.36,15.71-5.1,0-9.38-2.23-11.9-6.39v6.1h-3.99v-43.5h4.16v18.53c2.58-3.99,6.8-6.1,11.73-6.1,8.79,0,15.36,6.33,15.36,15.65Zm-4.16,0c0-7.21-4.98-12.02-11.49-12.02s-11.49,4.81-11.49,12.02,4.92,12.02,11.49,12.02,11.49-4.81,11.49-12.02Z"/>
    <path class="cls-17" d="m798.64,842.26v19.11h-3.99v-4.81c-1.88,3.17-5.51,5.1-10.61,5.1-6.98,0-11.26-3.63-11.26-8.97,0-4.75,3.05-8.73,11.9-8.73h9.79v-1.88c0-5.28-2.99-8.15-8.73-8.15-3.99,0-7.74,1.41-10.26,3.63l-1.88-3.11c3.11-2.64,7.68-4.16,12.55-4.16,7.97,0,12.49,3.99,12.49,11.96Zm-4.16,9.85v-5.04h-9.67c-5.98,0-7.91,2.35-7.91,5.51,0,3.58,2.87,5.8,7.8,5.8s8.15-2.23,9.79-6.27Z"/>
    <path class="cls-17" d="m805.67,857.85l1.88-3.28c2.46,1.93,6.62,3.46,10.96,3.46,5.86,0,8.27-1.99,8.27-5.04,0-8.03-19.99-1.7-19.99-13.89,0-5.04,4.34-8.79,12.19-8.79,3.99,0,8.32,1.11,10.9,2.87l-1.82,3.34c-2.7-1.88-5.92-2.64-9.09-2.64-5.57,0-8.03,2.17-8.03,5.1,0,8.33,19.99,2.05,19.99,13.89,0,5.33-4.69,8.79-12.72,8.79-5.1,0-10.02-1.64-12.54-3.81Z"/>
    <path class="cls-17" d="m865.46,847.24h-25.79c.47,6.45,5.39,10.73,12.13,10.73,3.75,0,7.09-1.35,9.44-4.04l2.34,2.7c-2.75,3.28-7.03,5.04-11.9,5.04-9.61,0-16.18-6.57-16.18-15.71s6.39-15.65,15.07-15.65,14.95,6.39,14.95,15.65c0,.35-.06.82-.06,1.29Zm-25.79-3.11h21.87c-.53-6.04-4.92-10.26-10.96-10.26s-10.38,4.22-10.9,10.26Z"/>
    <path class="cls-17" d="m917.75,843.49v17.88h-4.16v-17.47c0-6.51-3.4-9.85-9.26-9.85-6.62,0-10.79,4.1-10.79,11.14v16.18h-4.16v-30.84h3.99v5.69c2.23-3.75,6.39-5.92,11.72-5.92,7.5,0,12.66,4.34,12.66,13.19Z"/>
    <path class="cls-17" d="m952.34,842.26v19.11h-3.99v-4.81c-1.88,3.17-5.51,5.1-10.61,5.1-6.98,0-11.26-3.63-11.26-8.97,0-4.75,3.05-8.73,11.9-8.73h9.79v-1.88c0-5.28-2.99-8.15-8.73-8.15-3.99,0-7.74,1.41-10.26,3.63l-1.88-3.11c3.11-2.64,7.68-4.16,12.55-4.16,7.97,0,12.49,3.99,12.49,11.96Zm-4.16,9.85v-5.04h-9.67c-5.98,0-7.91,2.35-7.91,5.51,0,3.58,2.87,5.8,7.8,5.8s8.15-2.23,9.79-6.27Z"/>
    <path class="cls-17" d="m959.37,857.85l1.88-3.28c2.46,1.93,6.62,3.46,10.96,3.46,5.86,0,8.27-1.99,8.27-5.04,0-8.03-19.99-1.7-19.99-13.89,0-5.04,4.34-8.79,12.19-8.79,3.99,0,8.32,1.11,10.9,2.87l-1.82,3.34c-2.7-1.88-5.92-2.64-9.09-2.64-5.57,0-8.03,2.17-8.03,5.1,0,8.33,19.99,2.05,19.99,13.89,0,5.33-4.69,8.79-12.72,8.79-5.1,0-10.02-1.64-12.54-3.81Z"/>
    <path class="cls-17" d="m246.48,884.21v43.5h-3.99v-6.1c-2.52,4.16-6.8,6.39-11.9,6.39-8.79,0-15.36-6.39-15.36-15.71s6.57-15.65,15.36-15.65c4.92,0,9.15,2.11,11.72,6.1v-18.53h4.16Zm-4.1,28.08c0-7.21-4.92-12.02-11.43-12.02s-11.49,4.81-11.49,12.02,4.92,12.02,11.49,12.02,11.43-4.81,11.43-12.02Z"/>
    <path class="cls-17" d="m257.15,887.14c0-1.58,1.35-2.93,3.05-2.93s3.05,1.29,3.05,2.87c0,1.7-1.29,3.05-3.05,3.05s-3.05-1.35-3.05-2.99Zm.94,9.73h4.16v30.84h-4.16v-30.84Z"/>
    <path class="cls-17" d="m289.39,896.64v4.05c-.35,0-.7-.06-1-.06-6.45,0-10.38,4.1-10.38,11.37v15.71h-4.16v-30.84h3.99v6.04c1.93-4.1,5.86-6.27,11.55-6.27Z"/>
    <path class="cls-17" d="m323.45,913.58h-25.79c.47,6.45,5.39,10.73,12.13,10.73,3.75,0,7.09-1.35,9.44-4.04l2.34,2.7c-2.75,3.28-7.03,5.04-11.9,5.04-9.61,0-16.18-6.57-16.18-15.71s6.39-15.65,15.07-15.65,14.95,6.39,14.95,15.65c0,.35-.06.82-.06,1.29Zm-25.79-3.11h21.87c-.53-6.04-4.92-10.26-10.96-10.26s-10.38,4.22-10.9,10.26Z"/>
    <path class="cls-17" d="m348.25,925.84c-1.64,1.47-4.1,2.17-6.51,2.17-5.8,0-9.03-3.28-9.03-8.97v-18.64h-5.51v-3.52h5.51v-6.74h4.16v6.74h9.38v3.52h-9.38v18.41c0,3.63,1.88,5.63,5.33,5.63,1.7,0,3.4-.53,4.57-1.58l1.47,2.99Z"/>
    <path class="cls-17" d="m371.34,896.64v4.05c-.35,0-.7-.06-1-.06-6.45,0-10.38,4.1-10.38,11.37v15.71h-4.16v-30.84h3.99v6.04c1.93-4.1,5.86-6.27,11.55-6.27Z"/>
    <path class="cls-17" d="m377.91,887.14c0-1.58,1.35-2.93,3.05-2.93s3.05,1.29,3.05,2.87c0,1.7-1.29,3.05-3.05,3.05s-3.05-1.35-3.05-2.99Zm.94,9.73h4.16v30.84h-4.16v-30.84Z"/>
    <path class="cls-17" d="m416.36,924.25v3.46h-25.09v-2.75l19.41-24.56h-19.05v-3.52h24.39v2.75l-19.4,24.62h19.76Z"/>
    <path class="cls-17" d="m450.89,913.58h-25.79c.47,6.45,5.39,10.73,12.13,10.73,3.75,0,7.09-1.35,9.44-4.04l2.34,2.7c-2.75,3.28-7.03,5.04-11.9,5.04-9.61,0-16.18-6.57-16.18-15.71s6.39-15.65,15.07-15.65,14.95,6.39,14.95,15.65c0,.35-.06.82-.06,1.29Zm-25.79-3.11h21.87c-.53-6.04-4.92-10.26-10.96-10.26s-10.38,4.22-10.9,10.26Z"/>
    <path class="cls-17" d="m455.17,924.2l1.88-3.28c2.46,1.93,6.62,3.46,10.96,3.46,5.86,0,8.27-1.99,8.27-5.04,0-8.03-19.99-1.7-19.99-13.89,0-5.04,4.34-8.79,12.19-8.79,3.99,0,8.32,1.11,10.9,2.87l-1.82,3.34c-2.7-1.88-5.92-2.64-9.09-2.64-5.57,0-8.03,2.17-8.03,5.1,0,8.32,19.99,2.05,19.99,13.89,0,5.33-4.69,8.79-12.72,8.79-5.1,0-10.02-1.64-12.54-3.81Z"/>
    <path class="cls-17" d="m531.61,884.21v43.5h-3.99v-6.1c-2.52,4.16-6.8,6.39-11.9,6.39-8.79,0-15.36-6.39-15.36-15.71s6.57-15.65,15.36-15.65c4.92,0,9.14,2.11,11.72,6.1v-18.53h4.16Zm-4.1,28.08c0-7.21-4.92-12.02-11.43-12.02s-11.49,4.81-11.49,12.02,4.92,12.02,11.49,12.02,11.43-4.81,11.43-12.02Z"/>
    <path class="cls-17" d="m570.07,913.58h-25.79c.47,6.45,5.39,10.73,12.13,10.73,3.75,0,7.09-1.35,9.44-4.04l2.34,2.7c-2.75,3.28-7.03,5.04-11.9,5.04-9.61,0-16.18-6.57-16.18-15.71s6.39-15.65,15.07-15.65,14.95,6.39,14.95,15.65c0,.35-.06.82-.06,1.29Zm-25.79-3.11h21.87c-.53-6.04-4.92-10.26-10.96-10.26s-10.38,4.22-10.9,10.26Z"/>
    <path class="cls-17" d="m593.98,884.21h4.16v43.5h-4.16v-43.5Z"/>
    <path class="cls-17" d="m636.6,913.58h-25.79c.47,6.45,5.39,10.73,12.13,10.73,3.75,0,7.09-1.35,9.44-4.04l2.34,2.7c-2.75,3.28-7.03,5.04-11.9,5.04-9.61,0-16.18-6.57-16.18-15.71s6.39-15.65,15.07-15.65,14.95,6.39,14.95,15.65c0,.35-.06.82-.06,1.29Zm-25.79-3.11h21.87c-.53-6.04-4.92-10.26-10.96-10.26s-10.38,4.22-10.9,10.26Z"/>
    <path class="cls-17" d="m673.71,896.88v27.08c0,10.61-5.22,15.42-15.42,15.42-5.63,0-11.14-1.7-14.36-4.75l2.11-3.17c2.93,2.64,7.39,4.22,12.13,4.22,7.8,0,11.37-3.58,11.37-11.2v-3.93c-2.58,3.93-6.98,5.98-12.02,5.98-8.79,0-15.48-6.16-15.48-15.01s6.68-14.89,15.48-14.89c5.16,0,9.61,2.11,12.19,6.16v-5.92h3.99Zm-4.04,14.66c0-6.68-4.92-11.26-11.72-11.26s-11.67,4.57-11.67,11.26,4.87,11.31,11.67,11.31,11.72-4.63,11.72-11.31Z"/>
    <path class="cls-17" d="m691.71,884.86h5.57l-9.5,7.27h-4.1l8.03-7.27Zm-6.33,12.02h4.16v30.84h-4.16v-30.84Z"/>
    <path class="cls-17" d="m696.87,924.2l1.88-3.28c2.46,1.93,6.62,3.46,10.96,3.46,5.86,0,8.27-1.99,8.27-5.04,0-8.03-19.99-1.7-19.99-13.89,0-5.04,4.34-8.79,12.19-8.79,3.99,0,8.32,1.11,10.9,2.87l-1.82,3.34c-2.7-1.88-5.92-2.64-9.09-2.64-5.57,0-8.03,2.17-8.03,5.1,0,8.32,19.99,2.05,19.99,13.89,0,5.33-4.69,8.79-12.72,8.79-5.1,0-10.02-1.64-12.54-3.81Z"/>
    <path class="cls-17" d="m746.05,925.84c-1.64,1.47-4.1,2.17-6.51,2.17-5.8,0-9.03-3.28-9.03-8.97v-18.64h-5.51v-3.52h5.51v-6.74h4.16v6.74h9.38v3.52h-9.38v18.41c0,3.63,1.88,5.63,5.33,5.63,1.7,0,3.4-.53,4.57-1.58l1.47,2.99Z"/>
    <path class="cls-17" d="m752.67,887.14c0-1.58,1.35-2.93,3.05-2.93s3.05,1.29,3.05,2.87c0,1.7-1.29,3.05-3.05,3.05s-3.05-1.35-3.05-2.99Zm.94,9.73h4.16v30.84h-4.16v-30.84Z"/>
    <path class="cls-17" d="m766.27,912.3c0-9.2,6.68-15.65,15.89-15.65,5.22,0,9.61,2.05,12.08,6.1l-3.11,2.11c-2.11-3.11-5.39-4.57-8.97-4.57-6.74,0-11.67,4.81-11.67,12.02s4.92,12.02,11.67,12.02c3.58,0,6.86-1.41,8.97-4.51l3.11,2.11c-2.46,3.99-6.86,6.1-12.08,6.1-9.2,0-15.89-6.51-15.89-15.71Z"/>
    <path class="cls-17" d="m825.66,908.6v19.11h-3.99v-4.81c-1.88,3.17-5.51,5.1-10.61,5.1-6.98,0-11.26-3.63-11.26-8.97,0-4.75,3.05-8.73,11.9-8.73h9.79v-1.88c0-5.28-2.99-8.15-8.73-8.15-3.99,0-7.74,1.41-10.26,3.63l-1.88-3.11c3.11-2.64,7.68-4.16,12.55-4.16,7.97,0,12.49,3.99,12.49,11.96Zm-4.16,9.85v-5.04h-9.67c-5.98,0-7.91,2.35-7.91,5.51,0,3.58,2.87,5.8,7.8,5.8s8.15-2.23,9.79-6.27Z"/>
    <path class="cls-17" d="m857.08,893.24v3.63h9.5v3.52h-9.38v27.32h-4.16v-27.32h-5.51v-3.52h5.51v-3.81c0-5.51,3.28-9.15,9.32-9.15,2.29,0,4.63.64,6.16,1.93l-1.41,3.11c-1.17-1-2.81-1.52-4.57-1.52-3.58,0-5.45,1.99-5.45,5.8Z"/>
    <path class="cls-17" d="m868.57,912.3c0-9.15,6.68-15.65,15.71-15.65s15.65,6.51,15.65,15.65-6.62,15.71-15.65,15.71-15.71-6.57-15.71-15.71Zm27.14,0c0-7.21-4.87-12.02-11.43-12.02s-11.49,4.81-11.49,12.02,4.92,12.02,11.49,12.02,11.43-4.81,11.43-12.02Z"/>
    <path class="cls-17" d="m923.97,896.64v4.05c-.35,0-.7-.06-1-.06-6.45,0-10.38,4.1-10.38,11.37v15.71h-4.16v-30.84h3.99v6.04c1.93-4.1,5.86-6.27,11.55-6.27Z"/>
    <path class="cls-17" d="m982.36,909.83v17.88h-4.16v-17.47c0-6.51-3.28-9.85-8.85-9.85-6.33,0-10.32,4.1-10.32,11.14v16.18h-4.16v-17.47c0-6.51-3.28-9.85-8.91-9.85-6.27,0-10.32,4.1-10.32,11.14v16.18h-4.16v-30.84h3.99v5.63c2.17-3.69,6.16-5.86,11.31-5.86s9.09,2.17,10.96,6.51c2.23-3.99,6.62-6.51,12.19-6.51,7.5,0,12.43,4.34,12.43,13.19Z"/>
    <path class="cls-17" d="m1016.94,908.6v19.11h-3.99v-4.81c-1.88,3.17-5.51,5.1-10.61,5.1-6.98,0-11.26-3.63-11.26-8.97,0-4.75,3.05-8.73,11.9-8.73h9.79v-1.88c0-5.28-2.99-8.15-8.73-8.15-3.99,0-7.74,1.41-10.26,3.63l-1.88-3.11c3.11-2.64,7.68-4.16,12.55-4.16,7.97,0,12.49,3.99,12.49,11.96Zm-4.16,9.85v-5.04h-9.67c-5.98,0-7.91,2.35-7.91,5.51,0,3.58,2.87,5.8,7.8,5.8s8.15-2.23,9.79-6.27Z"/>
    <path class="cls-17" d="m1028.26,884.21h4.16v43.5h-4.16v-43.5Z"/>
    <path class="cls-17" d="m504.41,979.93h-25.79c.47,6.45,5.39,10.73,12.13,10.73,3.75,0,7.09-1.35,9.44-4.04l2.34,2.7c-2.75,3.28-7.03,5.04-11.9,5.04-9.61,0-16.18-6.57-16.18-15.71s6.39-15.65,15.07-15.65,14.95,6.39,14.95,15.65c0,.35-.06.82-.06,1.29Zm-25.79-3.11h21.87c-.53-6.04-4.92-10.26-10.96-10.26s-10.38,4.22-10.9,10.26Z"/>
    <path class="cls-17" d="m579.21,976.18v17.88h-4.16v-17.47c0-6.51-3.28-9.85-8.85-9.85-6.33,0-10.32,4.1-10.32,11.14v16.18h-4.16v-17.47c0-6.51-3.28-9.85-8.91-9.85-6.27,0-10.32,4.1-10.32,11.14v16.18h-4.16v-30.84h3.99v5.63c2.17-3.69,6.16-5.86,11.31-5.86s9.09,2.17,10.96,6.51c2.23-3.99,6.62-6.51,12.19-6.51,7.5,0,12.43,4.34,12.43,13.19Z"/>
    <path class="cls-17" d="m613.8,974.95v19.11h-3.99v-4.81c-1.88,3.17-5.51,5.1-10.61,5.1-6.98,0-11.26-3.63-11.26-8.97,0-4.75,3.05-8.73,11.9-8.73h9.79v-1.88c0-5.28-2.99-8.15-8.73-8.15-3.99,0-7.74,1.41-10.26,3.63l-1.88-3.11c3.11-2.64,7.68-4.16,12.55-4.16,7.97,0,12.49,3.99,12.49,11.96Zm-4.16,9.85v-5.04h-9.67c-5.98,0-7.91,2.35-7.91,5.51,0,3.58,2.87,5.8,7.8,5.8s8.15-2.23,9.79-6.27Z"/>
    <path class="cls-17" d="m641.35,992.18c-1.64,1.47-4.1,2.17-6.51,2.17-5.8,0-9.03-3.28-9.03-8.97v-18.64h-5.51v-3.52h5.51v-6.74h4.16v6.74h9.38v3.52h-9.38v18.41c0,3.63,1.88,5.63,5.33,5.63,1.7,0,3.4-.53,4.57-1.58l1.47,2.99Z"/>
    <path class="cls-17" d="m674.65,979.93h-25.79c.47,6.45,5.39,10.73,12.13,10.73,3.75,0,7.09-1.35,9.44-4.04l2.34,2.7c-2.75,3.28-7.03,5.04-11.9,5.04-9.61,0-16.18-6.57-16.18-15.71s6.39-15.65,15.07-15.65,14.95,6.39,14.95,15.65c0,.35-.06.82-.06,1.29Zm-25.79-3.11h21.87c-.53-6.04-4.92-10.26-10.96-10.26s-10.38,4.22-10.9,10.26Z"/>
    <path class="cls-17" d="m698.74,962.99v4.05c-.35,0-.7-.06-1-.06-6.45,0-10.38,4.1-10.38,11.37v15.71h-4.16v-30.84h3.99v6.04c1.93-4.1,5.86-6.27,11.55-6.27Z"/>
    <path class="cls-17" d="m705.31,953.49c0-1.58,1.35-2.93,3.05-2.93s3.05,1.29,3.05,2.87c0,1.7-1.29,3.05-3.05,3.05s-3.05-1.35-3.05-2.99Zm.94,9.73h4.16v30.84h-4.16v-30.84Z"/>
    <path class="cls-17" d="m745.29,974.95v19.11h-3.99v-4.81c-1.88,3.17-5.51,5.1-10.61,5.1-6.98,0-11.26-3.63-11.26-8.97,0-4.75,3.05-8.73,11.9-8.73h9.79v-1.88c0-5.28-2.99-8.15-8.73-8.15-3.99,0-7.74,1.41-10.26,3.63l-1.88-3.11c3.11-2.64,7.68-4.16,12.55-4.16,7.97,0,12.49,3.99,12.49,11.96Zm-4.16,9.85v-5.04h-9.67c-5.98,0-7.91,2.35-7.91,5.51,0,3.58,2.87,5.8,7.8,5.8s8.15-2.23,9.79-6.27Z"/>
    <path class="cls-17" d="m756.6,950.56h4.16v43.5h-4.16v-43.5Z"/>
    <path class="cls-17" d="m769.68,991.13c0-1.82,1.41-3.17,3.11-3.17s3.17,1.35,3.17,3.17-1.47,3.22-3.17,3.22-3.11-1.41-3.11-3.22Z"/>
  </g>
</svg>